<svg data-v-9833e8b2="" version="1.1" xmlns="http://www.w3.org/2000/svg" xmlns:xlink="http://www.w3.org/1999/xlink" width="25" height="25"><g data-v-9833e8b2=""><path data-v-9833e8b2="" transform="scale(0.12376237623762376)" fill="none" stroke="currentColor" paint-order="fill stroke markers" d="m1,201.0005l200.0005,0l0,-200.0005l-200.0005,0l0,200.0005z" stroke-width="5" stroke-miterlimit="10" stroke-dasharray=""></path><path data-v-9833e8b2="" transform="scale(0.12376237623762376)" fill="none" stroke="currentColor" paint-order="fill stroke markers" d="m17.6602,184.34031l166.68011,0l0,-166.68011l-166.68011,0l0,166.68011z" stroke-width="5" stroke-miterlimit="10" stroke-dasharray=""></path><path data-v-9833e8b2="" transform="scale(0.12376237623762376)" fill="none" stroke="currentColor" paint-order="fill stroke markers" d="m28.77351,76.00019l144.45349,0l0,-22.22662l-144.45349,0l0,22.22662z" stroke-width="5" stroke-miterlimit="10" stroke-dasharray=""></path><path data-v-9833e8b2="" transform="scale(0.12376237623762376)" fill="none" stroke="currentColor" paint-order="fill stroke markers" d="m89.88694,151.00038l22.22662,0l0,-83.34005l-22.22662,0l0,83.34005z" stroke-width="5" stroke-miterlimit="10" stroke-dasharray=""></path><path data-v-9833e8b2="" transform="scale(0.12376237623762376)" fill="none" stroke="currentColor" paint-order="fill stroke markers" d="m45.45324,151.00038l111.09403,0l0,-22.22662l-111.09403,0l0,22.22662zm0,33.33993l22.20709,0l0,-33.33993l-22.20709,0l0,33.33993zm88.88694,0l22.20709,0l0,-33.33993l-22.20709,0l0,33.33993z" stroke-width="5" stroke-miterlimit="10" stroke-dasharray=""></path><path data-v-9833e8b2="" transform="scale(0.12376237623762376)" fill="none" stroke="currentColor" paint-order="fill stroke markers" d="m78.77363,151.00038l44.45324,0l0,-61.11344l-44.45324,0l0,61.11344z" stroke-width="5" stroke-miterlimit="10" stroke-dasharray=""></path></g></svg>