<svg data-v-9833e8b2="" version="1.1" xmlns="http://www.w3.org/2000/svg" xmlns:xlink="http://www.w3.org/1999/xlink" width="27" height="25"><g data-v-9833e8b2=""><path data-v-9833e8b2="" transform="scale(0.12376237623762376)" fill="none" stroke="currentColor" paint-order="fill stroke markers" d="m181.01023,91.61606l-7.96678,12.07237l-23.31384,0l0,-3.81233l0.87977,-21.55431l-28.34807,-12.12124l0,-0.58651a12.61,12.61 0 0 0 -7.86903,-11.48586l0,-27.17504l52.19955,0l0,-14.66279l-54.59447,0a12.70775,12.70775 0 0 0 -12.26787,-11.29035a12.51225,12.51225 0 0 0 -12.4145,11.1926l-54.74109,0l0,15.0538l52.24842,0l0,27.12617a12.17012,12.17012 0 0 0 -7.96678,11.48586l0,0.83089l-28.34807,12.12124l0.87977,21.55431l0,3.51907l-23.26497,0l-7.96678,-12.26787l-17.15547,0l0,89.10091l16.22683,0l6.20725,-11.3881l29.32559,0l-0.58651,0.58651l-8.65105,7.57577l0,11.3881l-0.29325,12.12124l112.708,0l-0.58651,-12.12124l0,-11.3881l-8.26004,-7.38027l-0.58651,-0.78202l29.32559,0l6.20725,11.1926l16.42233,0l0,-88.9054l-17.44872,0z" stroke-width="5" stroke-miterlimit="10" stroke-dasharray=""></path></g></svg>