<svg data-v-9833e8b2="" version="1.1" xmlns="http://www.w3.org/2000/svg" xmlns:xlink="http://www.w3.org/1999/xlink" width="25" height="25"><g data-v-9833e8b2=""><path data-v-9833e8b2="" transform="scale(0.12755102040816327)" fill="none" stroke="currentColor" paint-order="fill stroke markers" d="m54.14009,69.57523l13.71505,0l3.05731,17.14381l-19.82396,0l3.0516,-17.14381z" stroke-width="5" stroke-miterlimit="10" stroke-dasharray=""></path><path data-v-9833e8b2="" transform="scale(0.12755102040816327)" fill="none" stroke="currentColor" paint-order="fill stroke markers" d="m61.00333,129.57856m-20.00111,0a20.00111,20.00111 0 1 0 40.00222,0a20.00111,20.00111 0 1 0 -40.00222,0z" stroke-width="5" stroke-miterlimit="10" stroke-dasharray=""></path><path data-v-9833e8b2="" transform="scale(0.12755102040816327)" fill="none" stroke="currentColor" paint-order="fill stroke markers" d="m98.57684,82.30165l9.70339,9.69768l-9.96627,14.28651l-14.01792,-14.02363l14.28079,-9.96055zm22.42982,40.41939l0,13.71505l-17.14381,3.05731l0,-19.82967l17.14381,3.05731zm-12.72642,44.43675l-9.69768,9.69768l-14.28651,-9.96055l14.01792,-14.01792l9.96627,14.28079zm-40.41939,22.4241l-13.71505,0l-3.05731,-17.14381l19.82396,0l-3.0516,17.14381zm-44.44247,-12.72642l-9.69768,-9.69768l9.96627,-14.28651l14.01792,14.02364l-14.28651,9.96055zm-22.41839,-40.41939l0,-13.71505l17.14381,-3.05731l0,19.82967l-17.14381,-3.05731zm12.72071,-44.43675l9.69768,-9.69768l14.28651,9.96055l-14.01792,14.01792l-9.96627,-14.28079z" stroke-width="5" stroke-miterlimit="10" stroke-dasharray=""></path><path data-v-9833e8b2="" transform="scale(0.12755102040816327)" fill="none" stroke="currentColor" paint-order="fill stroke markers" d="m115.29206,1l0,34.57335a14.28651,14.28651 0 1 0 16.85808,16.85808l51.71716,0l0,40.00222l-131.43587,0l0,-28.77303a20.00111,20.00111 0 0 0 0,-39.6022l0,-11.62922l17.14381,0l0,-11.42921l45.71682,0z" stroke-width="5" stroke-miterlimit="10" stroke-dasharray=""></path><path data-v-9833e8b2="" transform="scale(0.12755102040816327)" fill="none" stroke="currentColor" paint-order="fill stroke markers" d="m126.72126,1l17.14381,0l0,40.00222l-17.14381,0l0,-40.00222zm28.57301,0l17.14381,0l0,40.00222l-17.14381,0l0,-40.00222zm28.57302,0l11.4292,0l0,28.57301l-11.4292,0l0,-28.57301z" stroke-width="5" stroke-miterlimit="10" stroke-dasharray=""></path></g></svg>