<svg data-v-9833e8b2="" version="1.1" xmlns="http://www.w3.org/2000/svg" xmlns:xlink="http://www.w3.org/1999/xlink" width="22" height="25"><g data-v-9833e8b2=""><path data-v-9833e8b2="" transform="scale(0.125)" fill="none" stroke="currentColor" paint-order="fill stroke markers" d="m149.31405,199.91749l-44.22667,-37.69814c22.2858,-12.11019 35.95556,-34.65497 35.95556,-59.78706c0,-17.34965 -6.75998,-33.86141 -19.0352,-46.49387c-11.73499,-12.07425 -27.31198,-19.32349 -44.1091,-20.58365l0,-23.55318l13.15472,0l0,-10.80159l-75.25878,0l0,10.80159l17.10161,0l0,32.56942c-19.51177,13.11995 -31.57215,34.72704 -31.57215,56.74428c0,27.0196 15.47738,50.68079 39.79639,61.44762l-40.12041,37.35459l148.31405,0zm-94.53071,-32.54305c4.09669,1.17989 10.13538,2.28516 16.40082,2.28516c7.6385,0 15.36508,-1.20508 22.99225,-3.58419l26.47272,24.35631l-91.01722,0l25.15143,-23.05728zm-11.08557,-127.42571l0,-28.14714l23.40084,0l0,22.14459c-8.22131,0.35156 -15.80277,2.29337 -23.40084,6.00255zm-4.60782,12.63226l1.25762,0l0.63867,-0.36543c8.61858,-4.92501 18.60552,-7.52736 28.8823,-7.52736c32.56512,0 59.05874,25.90319 59.05874,57.74272c0,31.83817 -26.49343,57.74018 -59.05874,57.74018c-6.2047,0 -12.368,-1.21328 -18.88403,-2.51368c-23.61725,-10.61604 -38.85889,-32.77879 -38.85889,-56.54253c0,-19.74829 10.06604,-37.83349 26.96433,-48.53391z" stroke-width="5" stroke-miterlimit="10" stroke-dasharray=""></path><path data-v-9833e8b2="" transform="scale(0.125)" fill="none" stroke="currentColor" paint-order="fill stroke markers" d="m71.18416,68.0904c-17.90219,0 -33.02645,15.12387 -33.02645,33.02606s15.12445,33.02645 33.02645,33.02645c18.5188,0 33.02508,-14.50765 33.02508,-33.02645c0,-17.90219 -15.12406,-33.02606 -33.02508,-33.02606zm0,10.80139c11.63128,0 22.22486,10.59241 22.22486,22.2233s-10.59221,22.22388 -22.22467,22.22388c-12.25433,0 -22.22506,-9.96936 -22.22506,-22.22388c0,-11.63089 10.59378,-22.2233 22.22486,-22.2233z" stroke-width="5" stroke-miterlimit="10" stroke-dasharray=""></path></g></svg>