<svg data-v-9833e8b2="" version="1.1" xmlns="http://www.w3.org/2000/svg" xmlns:xlink="http://www.w3.org/1999/xlink" width="25" height="20"><g data-v-9833e8b2=""><path data-v-9833e8b2="" transform="scale(0.18248175182481752)" fill="none" stroke="currentColor" paint-order="fill stroke markers" d="m67.61323,87.47232l4.97073,11.72128l23.60908,-7.01994l-4.87642,-10.74062l-23.70339,6.03928z" stroke-width="5" stroke-miterlimit="10" stroke-dasharray=""></path><path data-v-9833e8b2="" transform="scale(0.18248175182481752)" fill="none" stroke="currentColor" paint-order="fill stroke markers" d="m84.12065,6.32304l-63.25474,25.77944l-0.55684,2.22785l23.71052,60.15148l1.27309,1.27309l63.65242,-18.61839l12.83663,-4.61487s19.73232,-7.21165 13.79139,-39.35726s-37.04294,-32.16438 -37.04294,-32.16438l-14.40952,5.32304z" stroke-width="5" stroke-miterlimit="10" stroke-dasharray=""></path><path data-v-9833e8b2="" transform="scale(0.18248175182481752)" fill="none" stroke="currentColor" paint-order="fill stroke markers" d="m13.26775,39.65218c-0.40195,0.18435 6.11649,-4.80634 7.19265,-5.92715c0,0 0.76542,-0.00024 2.34259,-0.33853c3.20613,-0.68774 9.14065,-0.27106 15.64698,8.58214c9.70699,13.20794 18.45923,44.71593 5.56963,52.51317l-11.2452,1.03695l-19.36101,-55.45988" stroke-width="5" stroke-miterlimit="10" stroke-dasharray=""></path><path data-v-9833e8b2="" transform="scale(0.18248175182481752)" fill="none" stroke="currentColor" paint-order="fill stroke markers" d="m36.45658,62.8985c5.10876,15.28707 3.13747,29.72248 -4.40272,32.2423c-7.5402,2.51981 -17.79429,-7.83002 -22.90305,-23.11709s-3.22466,-29.92227 4.31554,-32.44209s17.88148,8.02981 22.99023,23.31688z" stroke-width="5" stroke-miterlimit="10" stroke-dasharray=""></path><path data-v-9833e8b2="" transform="scale(0.18248175182481752)" fill="none" stroke="currentColor" paint-order="fill stroke markers" d="m32.05362,95.1408c3.52565,-1.17783 5.81503,-5.41307 6.62939,-11.3761c0.82529,-6.04261 -0.07269,-13.41675 -2.52837,-20.76547c-2.45567,-7.34801 -6.17184,-13.78046 -10.46386,-18.11286c-4.23619,-4.27539 -8.89929,-6.41392 -12.42303,-5.23419c3.76962,-1.25884 8.4598,0.32902 12.87511,4.78662c4.35972,4.39964 8.12958,10.91974 10.61543,18.35921c2.48608,7.43876 3.39356,14.91553 2.55545,21.05245c-0.8488,6.21674 -3.49215,10.03103 -7.26011,11.29034z" stroke-width="5" stroke-miterlimit="10" stroke-dasharray=""></path><path data-v-9833e8b2="" transform="scale(0.18248175182481752)" fill="none" stroke="currentColor" paint-order="fill stroke markers" d="m14.07012,70.37694a18.67921,9.21334 71.514 1 0 17.47589,-5.8426a18.67921,9.21334 71.514 1 0 -17.47589,5.8426z" stroke-width="5" stroke-miterlimit="10" stroke-dasharray=""></path><path data-v-9833e8b2="" transform="scale(0.18248175182481752)" fill="none" stroke="currentColor" paint-order="fill stroke markers" d="m27.21284,85.73693c-4.83912,0 -10.49546,-6.41558 -13.4493,-15.25476c-3.32039,-9.93505 -1.96582,-19.37289 3.01893,-21.03938a5.08239,5.08239 0 0 1 1.61162,-0.25799c4.83912,0 10.4957,6.41558 13.45001,15.25548c1.59665,4.77712 2.17915,9.58085 1.64036,13.52603c-0.54948,4.02429 -2.20433,6.6921 -4.65953,7.51264a5.08334,5.08334 0 0 1 -1.61209,0.25799zm-8.81899,-35.91571c-0.48795,0 -0.96236,0.07578 -1.40945,0.22568c-4.65216,1.5546 -5.82619,10.63135 -2.61721,20.23381c2.82342,8.44887 8.346,14.81979 12.84589,14.81979c0.48795,0 0.9626,-0.07578 1.41016,-0.22568c2.21312,-0.73905 3.7157,-3.22299 4.23073,-6.99499c0.52596,-3.85016 -0.04728,-8.5515 -1.61328,-13.23834c-2.82437,-8.44887 -8.34695,-14.82026 -12.84684,-14.82026z" stroke-width="5" stroke-miterlimit="10" stroke-dasharray=""></path><path data-v-9833e8b2="" transform="scale(0.18248175182481752)" fill="none" stroke="currentColor" paint-order="fill stroke markers" d="m1.05401,69.76331l21.74945,-7.74426s5.0907,3.18261 3.9238,10.60878l-21.11136,7.31998s-5.19832,-0.95476 -4.56189,-10.18449z" stroke-width="5" stroke-miterlimit="10" stroke-dasharray=""></path><path data-v-9833e8b2="" transform="scale(0.18248175182481752)" fill="none" stroke="currentColor" paint-order="fill stroke markers" d="m22.1485,34.3042l-0.24421,-0.5882l64.65303,-26.83588l0.41383,0.44495l-64.82265,26.97913zm71.32803,-24.88312l0.24991,0.58535l-65.04524,27.75952l-0.24991,-0.58559l65.04524,-27.75928zm6.65077,5.86444l0.23043,0.59295l-66.82054,25.98256l-0.23043,-0.59295l66.82054,-25.98256zm5.32137,7.85592l0.21238,0.60055l-67.51065,23.89748l-0.21262,-0.60032l67.51089,-23.89772zm2.5621,5.24322l0.21452,0.59937l-67.10157,24.01816l-0.21452,-0.59913l67.10157,-24.0184zm2.89635,8.48783l0.19575,0.60554l-67.5546,21.84614l-0.19575,-0.60578l67.5546,-21.8459zm2.76474,9.38011l0.20573,0.60174l-68.24614,23.33304l-0.20573,-0.60174l68.24614,-23.33304zm1.37857,10.71782l0.19338,0.60649l-68.97498,21.97822l-0.19338,-0.60673l68.97498,-21.97799zm-0.62882,7.94357l0.19005,0.60792l-68.7999,21.52519l-0.19005,-0.60816l68.7999,-21.52496zm-69.30519,26.08067l-0.1891,-0.60792l68.59274,-21.19261l-0.34328,0.60792l-68.06037,21.19261zm-0.998,3.78982l-0.19765,-0.60554l68.48537,-22.33171l-0.15917,0.51527l-68.12855,22.42199z" stroke-width="5" stroke-miterlimit="10" stroke-dasharray=""></path><path data-v-9833e8b2="" transform="scale(0.18248175182481752)" fill="none" stroke="currentColor" paint-order="fill stroke markers" d="m54.98827,2.09943l-24.09965,8.56337s-0.48082,0.1145 -0.45802,1.05335s-0.00071,1.87745 -0.00071,1.87745l2.65689,1.74014l0.36632,7.48722s15.53247,11.20885 17.4857,12.09567l5.31924,0.47465l18.54618,-6.66288l0.97851,-2.9536l0,-5.10543l2.66211,-0.73312l0,-2.87354l-21.84329,-14.9628c0,-0.00047 -0.13113,-0.52715 -1.61328,-0.00047z" stroke-width="5" stroke-miterlimit="10" stroke-dasharray=""></path><path data-v-9833e8b2="" transform="scale(0.18248175182481752)" fill="none" stroke="currentColor" paint-order="fill stroke markers" d="m55.89908,27.33533l-4.77546,-0.42761l-0.07341,-0.05678l-20.5873,-15.76694l0.38723,-0.50482l20.5139,15.71064l4.42862,0.39649l22.52461,-9.91581l0.25609,0.58298l-22.67428,9.98185z" stroke-width="5" stroke-miterlimit="10" stroke-dasharray=""></path><path data-v-9833e8b2="" transform="scale(0.18248175182481752)" fill="none" stroke="currentColor" paint-order="fill stroke markers" d="m50.9255,26.59866l0.63643,0l0,8.31774l-0.63643,0l0,-8.31774zm5.08286,0.41217l0.63643,0l0,8.38045l-0.63643,0l0,-8.38045zm50.62527,50.80178c4.90754,-1.47074 12.52875,-12.9908 5.02965,-38.31864c-10.54368,-35.61116 -28.71332,-32.65874 -28.8934,-32.62026c0.19266,-0.0411 4.75218,-1.17403 10.74134,2.42146c5.47888,3.28951 13.18109,11.16704 18.76259,30.01849c7.63498,25.78657 -0.53427,36.96906 -5.64018,38.49895zm-62.31352,16.77421l-0.60103,-0.21c0.06224,-0.1777 6.12599,-18.05632 -1.69429,-38.46735c-7.79154,-20.33573 -24.08777,-22.75885 -24.25121,-22.78118l0.08457,-0.63025c0.16724,0.02233 16.82884,2.48014 24.76102,23.18408c7.90675,20.63624 1.76366,38.7244 1.70094,38.90471z" stroke-width="5" stroke-miterlimit="10" stroke-dasharray=""></path><path data-v-9833e8b2="" transform="scale(0.18248175182481752)" fill="none" stroke="currentColor" paint-order="fill stroke markers" d="m51.6358,98.02004l52.90728,-16.1373l8.24433,6.65504l-53.08617,15.976l-8.06544,-6.49374z" stroke-width="5" stroke-miterlimit="10" stroke-dasharray=""></path><path data-v-9833e8b2="" transform="scale(0.18248175182481752)" fill="none" stroke="currentColor" paint-order="fill stroke markers" d="m12.49278,45.42914a0.75141,0.48272 69.051 1 0 0.90163,-0.34518a0.75141,0.48272 69.051 1 0 -0.90163,0.34518z" stroke-width="5" stroke-miterlimit="10" stroke-dasharray=""></path><path data-v-9833e8b2="" transform="scale(0.18248175182481752)" fill="none" stroke="currentColor" paint-order="fill stroke markers" d="m33.23247,60.82963a0.48272,0.75141 75.12 1 0 0.24792,0.93307a0.48272,0.75141 75.12 1 0 -0.24792,-0.93307z" stroke-width="5" stroke-miterlimit="10" stroke-dasharray=""></path><path data-v-9833e8b2="" transform="scale(0.18248175182481752)" fill="none" stroke="currentColor" paint-order="fill stroke markers" d="m31.93123,87.97197a0.75141,0.48272 7.574 1 0 -0.12725,0.95703a0.75141,0.48272 7.574 1 0 0.12725,-0.95703z" stroke-width="5" stroke-miterlimit="10" stroke-dasharray=""></path></g></svg>