<svg data-v-9833e8b2="" version="1.1" xmlns="http://www.w3.org/2000/svg" xmlns:xlink="http://www.w3.org/1999/xlink" width="25" height="17.5"><g data-v-9833e8b2=""><path data-v-9833e8b2="" transform="scale(0.14534883720930233)" fill="none" stroke="currentColor" paint-order="fill stroke markers" d="m62.1521,118.81806l-52.42695,0l0,-117.81806l52.42695,0l0,117.81806zm-45.77378,-6.65317l39.12062,0l0,-104.51173l-39.12062,0l0,104.51173z" stroke-width="5" stroke-miterlimit="10" stroke-dasharray=""></path><path data-v-9833e8b2="" transform="scale(0.14534883720930233)" fill="none" stroke="currentColor" paint-order="fill stroke markers" d="m16.37832,77.39735l-15.37832,0l0,-56.78002l15.37832,0l0,56.78002zm-8.72515,-6.65317l2.07199,0l0,-43.47369l-2.07199,0l0,43.47369zm163.47779,48.07388l-69.85824,0l0,-0.38018c-23.47617,-2.7373 -41.42071,-22.60176 -41.42071,-46.53414c0,-12.52696 4.88532,-24.31257 13.74354,-33.17078c8.85822,-8.85821 20.64382,-13.74354 33.17078,-13.74354s24.31257,4.88532 33.17078,13.74354c8.85822,8.85822 13.74354,20.64382 13.74354,33.17078c0,4.01091 -0.53225,8.00281 -1.57775,11.93768l19.00905,0l0,34.97664l0.01901,0zm-64.23156,-6.65317l57.5784,0l0,-21.68932l-21.70833,0l1.6728,-4.48613c1.71081,-4.58118 2.58523,-9.33344 2.58523,-14.0857c0,-22.20257 -18.05859,-40.26116 -40.26116,-40.26116c-22.20257,0 -40.26116,18.05859 -40.26116,40.26116c0,21.46121 16.804,39.10161 38.2462,40.16611l2.14802,0.09505z" stroke-width="5" stroke-miterlimit="10" stroke-dasharray=""></path></g></svg>