<svg data-v-9833e8b2="" version="1.1" xmlns="http://www.w3.org/2000/svg" xmlns:xlink="http://www.w3.org/1999/xlink" width="25" height="7.5"><g data-v-9833e8b2=""><path data-v-9833e8b2="" transform="scale(0.16556291390728478)" fill="none" stroke="currentColor" paint-order="fill stroke markers" d="m45.82433,30.88289l109.57059,0c2.75391,0 4.98048,-2.22657 4.98048,-4.98048s-2.22657,-4.98048 -4.98048,-4.98048l-109.57059,0c-2.75391,0 -4.98048,2.22657 -4.98048,4.98048c0,2.73438 2.22657,4.98048 4.98048,4.98048zm19.92193,-19.92193l69.72674,0c2.75391,0 4.98048,-2.22657 4.98048,-4.98048s-2.22657,-4.98048 -4.98048,-4.98048l-69.72674,0c-2.75391,0 -4.98048,2.22657 -4.98048,4.98048c0,2.73438 2.22657,4.98048 4.98048,4.98048zm-29.88289,39.84385l129.49251,0c2.75391,0 4.98048,-2.22657 4.98048,-4.98048s-2.22657,-4.98048 -4.98048,-4.98048l-129.49251,0c-2.75391,0 -4.98048,2.22657 -4.98048,4.98048c0,2.73438 2.22657,4.98048 4.98048,4.98048zm-19.92193,19.92193l169.33636,0c2.75391,0 4.98048,-2.22657 4.98048,-4.98048s-2.22657,-4.98048 -4.98048,-4.98048l-169.33636,0c-2.75391,0 -4.98048,2.22657 -4.98048,4.98048c0,2.73438 2.22657,4.98048 4.98048,4.98048zm177.48092,9.96096l-185.62547,0c-3.75001,0 -6.79689,3.04688 -6.79689,6.79689l0,86.01584c0,3.75001 3.04688,6.79689 6.79689,6.79689l185.62547,0c3.75001,0 6.79689,-3.04688 6.79689,-6.79689l0,-86.03537c0,-3.75001 -3.02735,-6.77736 -6.79689,-6.77736zm-3.16407,89.64866l-179.29733,0l0,-79.6877l179.29733,0l0,79.6877zm0,0" stroke-width="5" stroke-miterlimit="10" stroke-dasharray=""></path><path data-v-9833e8b2="" transform="scale(0.16556291390728478)" fill="none" stroke="currentColor" paint-order="fill stroke markers" d="m110.57059,150.41444c10.99612,0 19.92193,-8.9258 19.92193,-19.92193s-8.9258,-19.92193 -19.92193,-19.92193s-19.92193,8.9258 -19.92193,19.92193s8.9258,19.92193 19.92193,19.92193zm0,-29.88289c5.4883,0 9.96096,4.47267 9.96096,9.96096s-4.47267,9.96096 -9.96096,9.96096s-9.96096,-4.47267 -9.96096,-9.96096s4.47267,-9.96096 9.96096,-9.96096zm49.80481,29.88289c10.99612,0 19.92193,-8.9258 19.92193,-19.92193s-8.9258,-19.92193 -19.92193,-19.92193s-19.92193,8.9258 -19.92193,19.92193s8.9258,19.92193 19.92193,19.92193zm0,-29.88289c5.4883,0 9.96096,4.47267 9.96096,9.96096s-4.47267,9.96096 -9.96096,9.96096s-9.96096,-4.47267 -9.96096,-9.96096s4.47267,-9.96096 9.96096,-9.96096zm-124.51203,29.88289c2.75391,0 4.98048,-2.22657 4.98048,-4.98048l0,-29.88289c0,-2.75391 -2.22657,-4.98048 -4.98048,-4.98048s-4.98048,2.22657 -4.98048,4.98048l0,29.88289c0,2.73438 2.22657,4.98048 4.98048,4.98048zm29.88289,0c2.75391,0 4.98048,-2.22657 4.98048,-4.98048l0,-29.88289c0,-2.75391 -2.22657,-4.98048 -4.98048,-4.98048s-4.98048,2.22657 -4.98048,4.98048l0,29.88289c0,2.73438 2.22657,4.98048 4.98048,4.98048zm0,0" stroke-width="5" stroke-miterlimit="10" stroke-dasharray=""></path></g></svg>