<svg data-v-9833e8b2="" version="1.1" xmlns="http://www.w3.org/2000/svg" xmlns:xlink="http://www.w3.org/1999/xlink" width="25" height="25"><g data-v-9833e8b2=""><path data-v-9833e8b2="" transform="scale(0.13513513513513514)" fill="none" stroke="currentColor" paint-order="fill stroke markers" d="m163.80041,93.70023l-8.80002,0l0,-48.80012l-125.70032,0l0,17.20004l-8.80002,0l0,-26.60007l143.30036,0l0,58.20015zm-0.2,72.30018l-143.00036,0l0,-68.20017l8.50002,0l0,59.10015l126.00032,0l0,-20.10005l8.50002,0l0,29.20007z" stroke-width="5" stroke-miterlimit="10" stroke-dasharray=""></path><path data-v-9833e8b2="" transform="scale(0.13513513513513514)" fill="none" stroke="currentColor" paint-order="fill stroke markers" d="m164.30041,39.2001l-7.80002,0c0,-14.40004 -25.70006,-29.90008 -63.90016,-29.90008s-63.90016,15.50004 -63.90016,29.90008l-7.80002,0c0,-21.40005 31.50008,-38.2001 71.70018,-38.2001s71.70018,16.70004 71.70018,38.2001zm12.30003,137.10035l-167.50042,0l0,-17.00004l167.50042,0l0,17.00004zm-161.00041,-6.90002l154.60039,0l0,-3.20001l-154.60039,0l0,3.20001zm169.20043,-26.20007l-53.20013,0l0,-54.40014l53.20013,0l0,54.40014zm-46.10012,-7.70002l38.9001,0l0,-39.1001l-38.9001,0l0,39.1001zm-101.00025,-31.20008l-36.70009,0l0,-46.30012l36.70009,0l0,46.30012zm-29.60007,-7.60002l22.50006,0l0,-31.10008l-22.50006,0l0,31.10008zm170.10043,-11.70003l-22.40006,0l0,-30.50008l22.40006,0l0,30.50008zm-15.30004,-7.70002l8.10002,0l0,-15.20004l-8.10002,0l0,15.20004z" stroke-width="5" stroke-miterlimit="10" stroke-dasharray=""></path></g></svg>