<svg data-v-9833e8b2="" version="1.1" xmlns="http://www.w3.org/2000/svg" xmlns:xlink="http://www.w3.org/1999/xlink" width="27" height="25"><g data-v-9833e8b2=""><path data-v-9833e8b2="" transform="scale(0.12376237623762376)" fill="none" stroke="currentColor" paint-order="fill stroke markers" d="m196.43335,184.04948l0,-12.96238c0,-8.81065 -5.14942,-13.95964 -13.95964,-13.95964l-87.74568,0c-11.84165,0 -17.94788,5.6078 -17.94788,13.95964l0,16.82715c0,8.72306 5.85889,13.08625 17.94788,13.08625l87.74568,0c8.81023,0 13.95964,-5.85889 13.95964,-16.95103zm-15.95376,0.99727l-87.74568,0l0,-11.96553l87.74568,0l0,11.96553zm-51.84951,-119.6532l0,38.17724l5.08143,13.67227l-8.55121,0l-83.43045,-116.24306l-18.3829,11.08797l5.57193,9.76745l0,51.51459l-5.88683,0l3.95653,27.91929l1.9303,0l0,8.43568c-3.58949,1.63125 -7.57814,5.13315 -7.57814,11.42289c0,4.22389 1.64751,7.30703 4.05622,9.36496l-21.62913,18.63816l6.11039,0l19.15661,-16.50807c1.7351,0.67819 3.58949,1.05274 5.42428,1.05274c1.84271,0 3.67333,-0.4905 5.32459,-1.38016l20.76783,16.83508l6.22593,0l0.0438,-0.05589l-23.8906,-19.3639c1.61915,-1.95074 2.69233,-4.56674 2.69233,-7.91348a3.9874,3.9874 0 0 0 -3.98823,-3.98823a3.98698,3.98698 0 0 0 -3.98823,3.98823c0,1.43229 -0.38706,2.32946 -0.89341,2.90796l-1.09278,-0.88548c-0.74576,-0.60228 -1.82686,-0.59436 -2.55635,0.04004l-1.49569,1.2884c-1.29257,-0.59853 -2.28942,-1.77097 -2.28942,-4.01659c0,-3.60576 3.57781,-4.47873 4.25183,-4.60678c1.92238,-0.33075 3.32631,-1.98995 3.32631,-3.93651l0,-11.31945l4.42701,0l5.57985,-27.91929l-6.01947,0l0,-28.94825l47.86128,92.11305l0,4.63889l15.95376,0l0,7.97688l59.82639,0l0,-7.97688l23.93022,0l0,-75.77973l-59.82597,0zm-34.50016,20.73989l0.04796,0.06799l-16.27284,10.58954l8.36769,-21.46604l7.85718,10.80852zm-57.23417,-12.76301l-3.98823,0l0,-43.99275l3.98823,7.52225l0,36.4705l0,0zm3.46979,-40.6581l-6.88368,-13.07416l10.73302,-7.05552l-3.84934,20.12968zm9.33326,-11.98555l7.64988,13.27353l-12.348,7.95311l4.69812,-21.22663zm1.22417,28.85232l11.63436,-7.56604l-4.55464,20.71987l-7.07972,-13.15382zm16.55229,-0.8054l8.57916,12.5115l-12.89856,8.26009l4.3194,-20.77159zm-1.32427,30.30422l14.41427,-9.87548l-8.20836,21.98407l-6.20591,-12.10859zm21.33425,37.92574l-6.95167,-12.26834l17.25759,-12.32423l-10.30592,24.59256zm5.41594,8.71513l11.79786,-25.42633l9.59645,13.08625l-21.39431,12.34008l0,0zm79.60155,-20.44083l-27.91929,0l0,-23.93064l27.91929,0l0,23.93064zm-167.51448,67.80327l-3.98823,0l0,7.97688l63.81504,0l0,-7.97688l-7.97688,0l0,-11.96511l7.97688,0l0,-7.97688l-63.81504,0l0,7.97688l7.97688,0l0,11.96511l-3.98865,0z" stroke-width="5" stroke-miterlimit="10" stroke-dasharray=""></path></g></svg>