<svg data-v-9833e8b2="" version="1.1" xmlns="http://www.w3.org/2000/svg" xmlns:xlink="http://www.w3.org/1999/xlink" width="24.5" height="25"><g data-v-9833e8b2=""><path data-v-9833e8b2="" transform="scale(0.125)" fill="none" stroke="currentColor" paint-order="fill stroke markers" d="m45.5144,177.11473l0,-31.28579l18.75719,0l0,-19.80005l-60.57158,0l0,19.77148l18.75719,0l0,31.28579l-18.75719,0l0,19.81434l60.57158,0l0,-19.80005l-18.75719,0.01429z" stroke-width="5" stroke-miterlimit="10" stroke-dasharray=""></path><path data-v-9833e8b2="" transform="scale(0.125)" fill="none" stroke="currentColor" paint-order="fill stroke markers" d="m3.70001,126.04317l0,19.77148l18.75719,0l0,31.28579l-18.75719,0l0,19.81434l45.28583,0l-28.91436,-70.87161l-16.37147,0zm60.57158,0l109.60028,0l0,19.77148l-109.60028,0l0,-19.77148z" stroke-width="5" stroke-miterlimit="10" stroke-dasharray=""></path><path data-v-9833e8b2="" transform="scale(0.125)" fill="none" stroke="currentColor" paint-order="fill stroke markers" d="m173.87186,148.90037c1.48572,0 2.71429,-1.38572 2.71429,-3.08572l0,-19.77148c0,-1.7 -1.22858,-3.08572 -2.71429,-3.08572l-12.98575,0c-1.48572,0 -2.68572,1.38572 -2.68572,3.08572s1.2,3.07144 2.68572,3.07144l10.28574,0l0,13.60003l-45.08583,0l0,-13.60003l20.37148,0c1.48572,0 2.70001,-1.37143 2.70001,-3.07144s-1.21429,-3.08572 -2.70001,-3.08572l-22.37148,0l-32.5858,-20.17148l0,-5.14287c12.14289,-1.52858 21.62863,-13.34289 21.62863,-27.62864c0,-11.67146 -6.42859,-22.07148 -15.85718,-26.07149l0,-5.24287l7.44287,-5.67144a3.21429,3.21429 0 0 0 1.21429,-2.57143l0,-26.38578c0,-1.68572 -1.21429,-3.07144 -2.70001,-3.07144l-28.85722,0c-1.48572,0 -2.71429,1.38572 -2.71429,3.07144l0,26.3715c0,1.01429 0.45714,2.00001 1.22858,2.57143l7.42859,5.65716l0,21.50005c0,1.7 1.25715,3.12858 2.74286,3.07144l5.74287,-0.05714c4.40001,0 5.95716,3.65715 5.95716,6.80002a7.00002,7.00002 0 0 1 -3.24287,6.05716l0,-2.74286c0,-1.71429 -1.21429,-3.08572 -2.70001,-3.08572s-2.68572,1.38572 -2.68572,3.08572l0,2.74286a7.00002,7.00002 0 0 1 -3.24287,-6.05716c0,-1.68572 -1.21429,-3.07144 -2.70001,-3.07144l-13.02861,0c-1.48572,0 -2.70001,1.38572 -2.70001,3.07144c0,14.28575 9.48574,26.10007 21.64291,27.64293l0,5.14287l-32.60008,20.15719l-49.80013,0c-1.48572,0 -2.70001,1.38572 -2.70001,3.07144l0,19.78576c0,1.68572 1.21429,3.07144 2.71429,3.07144l16.02861,0l0,25.14292l-16.0429,0c-1.48572,0 -2.70001,1.37143 -2.70001,3.07144l0,19.78576c0,1.68572 1.21429,3.07144 2.71429,3.07144l12.97146,0c1.48572,0 2.70001,-1.38572 2.70001,-3.07144c0,-1.71429 -1.21429,-3.08572 -2.70001,-3.08572l-10.28574,0l0,-13.60003l16.02861,0c1.48572,0 2.70001,-1.37143 2.70001,-3.07144l0,-31.28579c0,-1.71429 -1.21429,-3.08572 -2.70001,-3.08572l-16.02861,0l0,-13.60003l55.143,0l0,13.60003l-16.01433,0c-1.48572,0 -2.68572,1.37143 -2.68572,3.07144l0,31.31436c0,1.71429 1.2,3.08572 2.68572,3.08572l16.0429,0l0,13.60003l-30.50008,0c-1.48572,0 -2.70001,1.37143 -2.70001,3.07144s1.21429,3.08572 2.70001,3.08572l142.77179,0c1.48572,0 2.70001,-1.38572 2.70001,-3.08572l0,-19.77148c0,-1.7 -1.21429,-3.08572 -2.70001,-3.08572l-16.02861,0l0,-25.14292l16.0429,0l0.01429,0.02857z" stroke-width="5" stroke-miterlimit="10" stroke-dasharray=""></path><path data-v-9833e8b2="" transform="scale(0.125)" fill="none" stroke="currentColor" paint-order="fill stroke markers" d="m48.22869,148.90037l72.47161,0l0,25.14292l-72.4859,0l0.01429,-25.14292z" stroke-width="5" stroke-miterlimit="10" stroke-dasharray=""></path><path data-v-9833e8b2="" transform="scale(0.125)" fill="none" stroke="currentColor" paint-order="fill stroke markers" d="m77.07162,7.15716l23.42863,0l0,21.62862l-6.75716,5.14287l-9.90002,0l-6.78573,-5.14287l0.01429,-21.62862z" stroke-width="5" stroke-miterlimit="10" stroke-dasharray=""></path><path data-v-9833e8b2="" transform="scale(0.125)" fill="none" stroke="currentColor" paint-order="fill stroke markers" d="m74.35733,4.07144l0,26.3715l8.65716,6.57144l0.11429,0l0,-32.94294l-8.77145,0z" stroke-width="5" stroke-miterlimit="10" stroke-dasharray=""></path><path data-v-9833e8b2="" transform="scale(0.125)" fill="none" stroke="currentColor" paint-order="fill stroke markers" d="m126.10031,148.90037l26.32864,0l0,25.14292l-26.32864,0l0,-25.14292z" stroke-width="5" stroke-miterlimit="10" stroke-dasharray=""></path><path data-v-9833e8b2="" transform="scale(0.125)" fill="none" stroke="currentColor" paint-order="fill stroke markers" d="m126.10031,180.21474l45.05726,0l0,14.28575l-45.05726,0l0,-14.28575zm-59.11443,0l53.71442,0l0,14.28575l-53.71442,0l0,-14.28575z" stroke-width="5" stroke-miterlimit="10" stroke-dasharray=""></path><path data-v-9833e8b2="" transform="scale(0.125)" fill="none" stroke="currentColor" paint-order="fill stroke markers" d="m70.04303,73.10018l7.7143,0c0.98572,4.68572 4.22858,8.35716 8.31431,9.50002l0,8.80002c-8.27145,-1.37143 -14.82861,-8.85716 -16.02861,-18.30005zm30.10008,-3.11429c0,-6.44287 -3.90001,-12.95718 -11.34289,-12.95718l-3.07144,0.04286l0,-16.92861l6.14287,0l0,6.05716c0,1.38572 0.81429,2.61429 1.98572,2.97144c8.17145,2.57143 13.88575,11.14289 13.88575,20.84291c0,10.85717 -7.07145,19.91434 -16.22861,21.40005l0,-8.77145c4.94287,-1.42858 8.62859,-6.54287 8.62859,-12.64289l0,-0.01429z" stroke-width="5" stroke-miterlimit="10" stroke-dasharray=""></path><path data-v-9833e8b2="" transform="scale(0.125)" fill="none" stroke="currentColor" paint-order="fill stroke markers" d="m64.8573,122.92888l23.92863,-14.80004l23.94292,14.82861l-47.87155,-0.02857z" stroke-width="5" stroke-miterlimit="10" stroke-dasharray=""></path><path data-v-9833e8b2="" transform="scale(0.125)" fill="none" stroke="currentColor" paint-order="fill stroke markers" d="m66.98588,129.11461l53.71442,0l0,13.60003l-53.71442,0l0,-13.60003z" stroke-width="5" stroke-miterlimit="10" stroke-dasharray=""></path></g></svg>