<svg data-v-9833e8b2="" version="1.1" xmlns="http://www.w3.org/2000/svg" xmlns:xlink="http://www.w3.org/1999/xlink" width="25" height="20"><g data-v-9833e8b2=""><path data-v-9833e8b2="" transform="scale(0.12376237623762376)" fill="none" stroke="currentColor" paint-order="fill stroke markers" d="m32.37755,101.04435l-26.37533,0c-2.77396,0 -5.00222,-2.02817 -5.00222,-4.54747l0,-90.94941c0,-2.5193 2.22826,-4.54747 5.00222,-4.54747l26.37533,0c2.77396,0 5.00222,2.02817 5.00222,4.54747l0,90.94941c0,2.50111 -2.22826,4.54747 -5.00222,4.54747zm-21.37311,-9.09494l16.37089,0l0,-81.85447l-16.37089,0l0,81.85447z" stroke-width="5" stroke-miterlimit="10" stroke-dasharray=""></path><path data-v-9833e8b2="" transform="scale(0.12376237623762376)" fill="none" stroke="currentColor" paint-order="fill stroke markers" d="m19.18988,101.45362l7.23957,0l0,17.78061l-7.23957,0l0,-17.78061zm63.61911,-11.05035a4.82941,4.82941 0 0 1 -4.15639,-2.3374l-22.37355,-37.16193l-20.70009,0a4.81122,4.81122 0 0 1 -4.83851,-4.80213l0,-22.10071c0,-2.66482 2.1555,-4.81122 4.83851,-4.81122l33.10558,0c1.66437,0 3.21961,0.86402 4.11091,2.26464l27.53039,44.01951c0.48203,0.76398 0.7276,1.64618 0.7276,2.54658l0,17.435a4.82032,4.82032 0 0 1 -4.80213,4.81122l-13.39685,0.13643l-0.04547,0zm-42.40062,-49.11268l18.61734,0c1.70075,0 3.29237,0.88221 4.15639,2.34649l22.34627,37.11646l5.82076,-0.06367l0,-11.29592l-25.37489,-40.58163l-25.55678,0l0,12.47826l-0.00909,0z" stroke-width="5" stroke-miterlimit="10" stroke-dasharray=""></path><path data-v-9833e8b2="" transform="scale(0.12376237623762376)" fill="none" stroke="currentColor" paint-order="fill stroke markers" d="m178.24221,119.23423l-108.89373,0a4.71118,4.71118 0 0 1 -4.68389,-4.76575l0,-33.46938c0,-2.63753 2.09184,-4.75665 4.68389,-4.75665l72.61401,0l0,-34.10603c0,-2.63753 2.09184,-4.75665 4.68389,-4.75665l31.56854,0c2.60115,0 4.68389,2.12822 4.68389,4.76575l0,72.34116a4.69299,4.69299 0 0 1 -4.65661,4.74756zm-104.21893,-9.5315l99.51684,0l0,-62.79147l-22.19166,0l0,34.09693c0,2.63753 -2.09184,4.76575 -4.68389,4.76575l-72.6322,0l0,23.92879l-0.0091,0z" stroke-width="5" stroke-miterlimit="10" stroke-dasharray=""></path><path data-v-9833e8b2="" transform="scale(0.12376237623762376)" fill="none" stroke="currentColor" paint-order="fill stroke markers" d="m149.97513,85.03725l-59.20807,0a4.65661,4.65661 0 0 1 -4.77484,-4.55656l0,-42.19143c0,-20.54547 14.2063,-37.28926 31.69587,-37.28926l48.8944,0c2.64663,0 4.77484,2.03727 4.77484,4.55656l0,37.46206c0,2.49201 -2.09184,4.52018 -4.69299,4.55656l-11.91437,0.19099l0,32.7236a4.45652,4.45652 0 0 1 -1.40062,3.2287a4.96584,4.96584 0 0 1 -3.38332,1.32786l0.0091,-0.0091zm-54.43322,-9.12222l49.63109,0l0,-32.64174c0,-2.48292 2.09184,-4.52019 4.69299,-4.55657l11.91437,-0.19099l0,-28.4035l-44.09228,0c-5.66615,0 -11.07764,2.79215 -15.24312,7.86712c-4.43833,5.3933 -6.88487,12.61468 -6.88487,20.309l0,37.61668l-0.01819,0zm75.83362,88.79391l-86.8385,0c-16.37089,0 -29.71317,-12.73292 -29.71317,-28.37622c0,-15.62511 13.33318,-28.35803 29.71317,-28.35803l86.8385,0c16.37999,0 29.71317,12.73292 29.71317,28.36712c0,15.6342 -13.33318,28.36712 -29.71317,28.36712zm-86.8385,-47.63021c-11.12311,0 -20.15439,8.64019 -20.15439,19.2449c0,10.6047 9.04947,19.2449 20.15439,19.2449l86.8385,0c11.12311,0 20.16348,-8.64019 20.16348,-19.2449c0,-10.6047 -9.05856,-19.2449 -20.16348,-19.2449l-86.8385,0zm-58.02572,47.56654c-14.06987,0 -25.51131,-10.91393 -25.51131,-24.35625l0,-27.69409c0,-2.5193 2.12822,-4.54747 4.77484,-4.54747l40.92723,0c2.65572,0 4.78394,2.02817 4.78394,4.54747l0,0.57298c0,1.54614 -0.81854,2.98314 -2.18279,3.81987c-8.14907,5.0386 -12.80568,13.79702 -12.80568,24.03793c0,5.01131 1.37334,9.97715 4.00177,14.34272a4.36557,4.36557 0 0 1 0.43656,3.51974a4.58385,4.58385 0 0 1 -2.3283,2.75577a25.95696,25.95696 0 0 1 -12.09627,3.01952l0,-0.01819zm-15.96162,-47.48469l0,23.13753c0,8.40372 7.16681,15.24312 15.96162,15.24312c1.10958,0 2.22826,-0.11823 3.31965,-0.3638a36.41614,36.41614 0 0 1 -2.86491,-14.15173c0,-6.48469 1.55523,-12.78749 4.48381,-18.22626c1.0732,-2.00998 2.34649,-3.89263 3.7744,-5.65705l-24.67458,0l0,0.01819z" stroke-width="5" stroke-miterlimit="10" stroke-dasharray=""></path><path data-v-9833e8b2="" transform="scale(0.12376237623762376)" fill="none" stroke="currentColor" paint-order="fill stroke markers" d="m164.70894,128.32917a9.09494,9.09494 0 0 0 18.18988,0a9.09494,9.09494 0 0 0 -18.18988,0zm-27.28482,0a9.09494,9.09494 0 0 0 18.18988,0a9.09494,9.09494 0 0 0 -18.18988,0zm-27.28482,0a9.09494,9.09494 0 0 0 18.18988,0a9.09494,9.09494 0 0 0 -18.18988,0zm-36.37976,0a9.09494,9.09494 0 0 0 18.18988,0a9.09494,9.09494 0 0 0 -18.18988,0z" stroke-width="5" stroke-miterlimit="10" stroke-dasharray=""></path></g></svg>