<svg data-v-9833e8b2="" version="1.1" xmlns="http://www.w3.org/2000/svg" xmlns:xlink="http://www.w3.org/1999/xlink" width="25" height="25"><g data-v-9833e8b2=""><path data-v-9833e8b2="" transform="scale(0.12376237623762376)" fill="none" stroke="currentColor" paint-order="fill stroke markers" d="m101.07726,18.02186a82.73572,82.73572 0 1 0 83.66883,82.73572a83.18006,83.18006 0 0 0 -83.66883,-82.73572" stroke-width="5" stroke-miterlimit="10" stroke-dasharray=""></path><path data-v-9833e8b2="" transform="scale(0.12376237623762376)" fill="none" stroke="currentColor" paint-order="fill stroke markers" d="m101.07726,187.93669a87.80118,87.80118 0 0 1 -88.11221,-87.1791a88.11221,88.11221 0 0 1 176.22442,0a87.80118,87.80118 0 0 1 -88.11221,87.1791zm0,-165.47145a78.82555,78.82555 0 0 0 -79.22545,78.29234a79.22545,79.22545 0 0 0 158.45091,0a78.82555,78.82555 0 0 0 -79.22545,-78.29234z" stroke-width="5" stroke-miterlimit="10" stroke-dasharray=""></path><path data-v-9833e8b2="" transform="scale(0.12376237623762376)" fill="none" stroke="currentColor" paint-order="fill stroke markers" d="m181.10252,102.53494l-31.90346,0.2666l0.48877,-4.44338l31.10366,0.71094l0.57764,0l-0.2666,3.46584zm-37.36882,-24.79406l28.34876,-12.4859l0.57764,0l1.28858,3.19923l-28.70423,13.68561l-1.51075,-4.39894zm-13.77448,-15.774l19.5953,-23.81651l0.44434,-0.35547l2.62159,2.26612l-19.3287,25.10509l-3.33254,-3.19923zm21.95029,99.04293l0.2666,0.5332l-2.84376,1.99952l-20.30624,-24.26085l3.86574,-2.53273l19.01766,24.26085zm-42.03437,-107.57421l7.50931,-29.81508l0,-0.53321l3.37697,0.97754l-6.7095,30.79262l-4.17678,-1.42188zm10.93071,123.79255l0,0.53321l-3.4214,0.62207l-7.77591,-30.70375l4.44338,-0.62207l6.75394,30.17054zm-39.01287,-152.71895l0,-0.53321l3.46584,-0.71094l7.42044,30.61488l-4.44338,0.57764l-6.4429,-29.94838zm10.79741,123.17048l-7.50931,29.77064l-0.2666,0.5332l-3.33253,-0.97754l6.75394,-30.79262l4.35451,1.46632zm-41.8122,-106.6411l-0.2666,-0.48877l2.84376,-2.04395l20.39511,24.21642l-3.86574,2.53273l-19.10653,-24.21642zm5.24319,41.32343l-27.59339,-13.90778l-0.44434,-0.35547l1.68848,-3.0215l28.7931,13.55231l-2.44386,3.73244zm-2.97706,20.92832l-31.10365,-0.93311l-0.57764,0l0.31104,-3.5547l31.85903,0l-0.48877,4.48781zm5.46536,21.01718l-28.5265,12.35259l-0.57764,0l-1.24415,-3.24367l28.83753,-13.33014l1.51075,4.22121zm14.97419,15.9073l-20.75058,23.0167l-0.44434,0.35547l-2.31056,-2.57716l20.52841,-24.08312l2.97706,3.2881zm72.60482,-20.52841l27.68225,13.86334l0.44434,0.35547l-1.68848,3.0215l-28.83753,-13.33014l2.39942,-3.91017z" stroke-width="5" stroke-miterlimit="10" stroke-dasharray=""></path><path data-v-9833e8b2="" transform="scale(0.12376237623762376)" fill="none" stroke="currentColor" paint-order="fill stroke markers" d="m101.07726,43.26026a57.76393,57.76393 0 1 0 57.76393,57.76393a57.76393,57.76393 0 0 0 -57.76393,-57.76393" stroke-width="5" stroke-miterlimit="10" stroke-dasharray=""></path><path data-v-9833e8b2="" transform="scale(0.12376237623762376)" fill="none" stroke="currentColor" paint-order="fill stroke markers" d="m101.07726,163.2315a62.20731,62.20731 0 1 1 62.20731,-62.20731a62.20731,62.20731 0 0 1 -62.20731,62.20731zm0,-115.52786a53.32055,53.32055 0 1 0 53.32055,53.32055a53.32055,53.32055 0 0 0 -53.32055,-53.32055z" stroke-width="5" stroke-miterlimit="10" stroke-dasharray=""></path><path data-v-9833e8b2="" transform="scale(0.12376237623762376)" fill="none" stroke="currentColor" paint-order="fill stroke markers" d="m183.76855,104.71219l-2.66603,0a0.97754,0.97754 0 0 1 -0.93311,-0.97754l0,-4.93215a0.97754,0.97754 0 0 1 0.93311,-0.93311l2.66603,0a0.97754,0.97754 0 0 1 0.97754,0.93311l0,4.88772a0.97754,0.97754 0 0 1 -0.97754,1.02198zm-8.17582,-34.96939a0.97754,0.97754 0 0 1 -1.33301,-0.35547l-2.48829,-4.22121a0.97754,0.97754 0 0 1 0.35547,-1.33301l2.31056,-1.28858a0.97754,0.97754 0 0 1 1.33302,0.35547l2.44386,4.22121a1.02198,1.02198 0 0 1 -0.35547,1.33301l-2.26612,1.28858zm-0.57764,62.56278l2.26612,1.28858a0.97754,0.97754 0 0 1 0.35547,1.33302l-2.44386,4.22121a1.02198,1.02198 0 0 1 -1.33301,0.35547l-2.31056,-1.28858a1.02198,1.02198 0 0 1 -0.35547,-1.33301l2.48829,-4.22121a0.97754,0.97754 0 0 1 1.33301,-0.35547zm-20.61728,-90.73381a0.97754,0.97754 0 0 1 -1.37745,0l-3.73244,-3.19923a0.97754,0.97754 0 0 1 0,-1.37745l1.73292,-1.95509a0.97754,0.97754 0 0 1 1.37745,0l3.68801,3.19923a0.84424,0.84424 0 0 1 0,1.33301l-1.68848,1.99952zm-1.15528,118.32719l1.73292,1.99952a0.93311,0.93311 0 0 1 0,1.33301l-3.73244,3.19923a0.97754,0.97754 0 0 1 -1.37745,0l-1.73292,-1.95509a0.97754,0.97754 0 0 1 0,-1.37745l3.73244,-3.19923a0.97754,0.97754 0 0 1 1.37745,0zm-31.10366,-134.7677l-4.84328,-0.88867a0.97754,0.97754 0 0 1 -0.93311,-0.97754l0.48877,-2.57716a0.97754,0.97754 0 0 1 1.11084,-0.75537l4.84328,0.88868a0.97754,0.97754 0 0 1 0.79981,1.11084l-0.48877,2.57716a0.97754,0.97754 0 0 1 -1.11084,0.62207l0.1333,0zm-0.57764,151.0749a0.97754,0.97754 0 0 1 1.11084,0.79981l0.48877,2.57716a0.97754,0.97754 0 0 1 -0.79981,1.11084l-4.84328,0.84424a0.93311,0.93311 0 0 1 -1.11085,-0.75537l-0.48877,-2.57716a0.97754,0.97754 0 0 1 0.79981,-1.11084l4.84328,-0.88868zm-35.41373,-151.91914l-4.84328,0.84424a1.02198,1.02198 0 0 1 -1.15528,-0.79981l-0.44434,-2.57716a0.97754,0.97754 0 0 1 0.79981,-1.11084l5.02102,-0.84424a0.97754,0.97754 0 0 1 1.11084,0.79981l0.48877,2.57716a0.97754,0.97754 0 0 1 -0.97754,1.11084zm-5.42092,152.09688l4.84328,0.79981a1.02198,1.02198 0 0 1 0.79981,1.15528l-0.48877,2.53273a0.97754,0.97754 0 0 1 -1.11085,0.79981l-4.84328,-0.84424a0.97754,0.97754 0 0 1 -0.79981,-1.11084l0.44434,-2.57716a0.93311,0.93311 0 0 1 1.15528,-0.75537zm-30.52602,-135.34533a0.97754,0.97754 0 0 1 -1.37745,0l-1.64405,-1.99952a0.93311,0.93311 0 0 1 0,-1.37745l3.77687,-3.11037a1.02198,1.02198 0 0 1 1.37745,0l1.68848,1.99952a1.02198,1.02198 0 0 1 0,1.37745l-3.82131,3.11037zm-0.5332,118.77153l3.77687,3.11037a0.97754,0.97754 0 0 1 0,1.33301l-1.68848,1.99952a0.97754,0.97754 0 0 1 -1.37745,0l-3.77687,-3.11037a0.88868,0.88868 0 0 1 0,-1.33301l1.68848,-2.04395a0.97754,0.97754 0 0 1 1.37745,0.08887l0,-0.04443zm-21.23935,-20.30624a0.97754,0.97754 0 0 1 -1.33301,-0.31104l-2.62159,-4.13234a0.97754,0.97754 0 0 1 0.31104,-1.33302l2.22169,-1.37745a0.97754,0.97754 0 0 1 1.37745,0.2666l2.57716,4.17678a0.88868,0.88868 0 0 1 -0.2666,1.28858l-2.26612,1.42188zm0,-70.07209a0.97754,0.97754 0 0 1 -1.37745,0.2666l-2.22169,-1.37745a0.97754,0.97754 0 0 1 -0.31104,-1.33301l2.62159,-4.13234a0.97754,0.97754 0 0 1 1.33301,-0.31104l2.26612,1.42188a0.88868,0.88868 0 0 1 0.2666,1.28858l-2.57716,4.17678zm-7.42044,35.28043l-2.62159,0a0.97754,0.97754 0 0 1 -0.97754,-0.97754l0,-4.93215a0.97754,0.97754 0 0 1 0.97754,-0.93311l2.62159,0a0.93311,0.93311 0 0 1 0.97754,0.93311l0,4.88772a0.97754,0.97754 0 0 1 -0.97754,1.02198z" stroke-width="5" stroke-miterlimit="10" stroke-dasharray=""></path><path data-v-9833e8b2="" transform="scale(0.12376237623762376)" fill="none" stroke="currentColor" paint-order="fill stroke markers" d="m198.1651,88.98263l-14.04108,-0.44434a0.57764,0.57764 0 0 0 -0.44434,0l-1.11084,1.15528l-0.31104,0l-10.39751,2.17726a0.62207,0.62207 0 0 1 -0.62207,-0.53321l-2.8882,-13.33014a0.66651,0.66651 0 0 1 0.53321,-0.75537l11.33062,-2.31056a0.48877,0.48877 0 0 1 0.35547,0l17.77352,12.21929a0.91534,0.91534 0 0 1 -0.17773,1.82179zm-27.77112,-35.32487a0.57764,0.57764 0 0 0 -0.31104,0.39991l-0.44434,1.46631a0.79981,0.79981 0 0 1 0,0.31104l-8.13138,6.75393a0.75537,0.75537 0 0 1 -0.44434,0a0.71094,0.71094 0 0 1 -0.48877,-0.22217l-8.88676,-10.30864a0.62207,0.62207 0 0 1 0,-0.93311l8.88676,-7.28714l0.39991,0l21.68369,2.53273a0.62207,0.62207 0 0 1 0.22217,1.19971l-12.4859,6.08743zm-27.10461,-24.88292a0.62207,0.62207 0 0 0 0,0.48877l0,1.55518a0.53321,0.53321 0 0 1 0,0.35547l-4.44338,9.50883a0.71094,0.71094 0 0 1 -0.57764,0.35547l-0.2666,0l-12.48589,-5.73196a0.71094,0.71094 0 0 1 -0.31104,-0.88868l5.02102,-10.35307a0.48877,0.48877 0 0 1 0.35547,-0.31104l20.75058,-6.79837a0.62207,0.62207 0 0 1 0.48877,1.06641l-8.53129,10.75298zm-5.33206,132.23497l0.2666,0a0.66651,0.66651 0 0 1 0.57764,0.3999l4.75442,10.44194a0.75537,0.75537 0 0 1 0,0.53321l-8.17582,20.03964a0.62207,0.62207 0 0 1 -0.57764,0.3999a0.71094,0.71094 0 0 1 -0.66651,-0.5332l-2.57716,-13.50787a0.48877,0.48877 0 0 0 -0.2666,-0.3999l-1.33301,-0.97754a0.44434,0.44434 0 0 1 0,-0.2666l-4.44338,-9.55326a0.66651,0.66651 0 0 1 0.31104,-0.84424l12.13043,-5.73196zm-30.57045,-142.94351l0.88868,1.28858a0.48877,0.48877 0 0 1 0,0.35547l0,10.53081a0.66651,0.66651 0 0 1 -0.66651,0.62207l-13.46344,0a0.66651,0.66651 0 0 1 -0.66651,-0.62207l0,-11.50835a0.71094,0.71094 0 0 1 0.22217,-0.44434l15.86286,-14.84089a0.57764,0.57764 0 0 1 0.44434,0a0.66651,0.66651 0 0 1 0.62207,0.79981l-3.4214,13.33014a0.75537,0.75537 0 0 0 0.17773,0.48877zm-13.73004,164.62721a0.71094,0.71094 0 0 1 0,-0.3999l0,-10.48638a0.71094,0.71094 0 0 1 0.66651,-0.66651l13.59674,0a0.66651,0.66651 0 0 1 0.66651,0.66651l0,11.41949a0.57764,0.57764 0 0 1 0,0.44434l-15.72956,15.01862a0.57764,0.57764 0 0 1 -0.44434,0a0.66651,0.66651 0 0 1 -0.62207,-0.79981l3.2881,-13.33014a0.48877,0.48877 0 0 0 0,-0.48877l-1.42188,-1.37745zm-29.10413,-141.65493l-0.31104,0a0.75537,0.75537 0 0 1 -0.57764,-0.31104l-5.33205,-10.17534a0.62207,0.62207 0 0 1 0,-0.48877l6.93167,-20.57284a0.62207,0.62207 0 0 1 0.62207,-0.44434a0.66651,0.66651 0 0 1 0.62207,0.48877l3.37697,13.33014a0.88868,0.88868 0 0 0 0.31104,0.39991l1.42188,0.71094l0.2666,0.2666l4.75442,9.4644a0.62207,0.62207 0 0 1 -0.2666,0.88868l-11.81939,6.4429zm-23.46104,117.03861a0.62207,0.62207 0 0 1 -0.3999,0l-21.81699,-2.71046a0.62207,0.62207 0 0 1 0,-1.19971l12.70807,-5.86526a0.62207,0.62207 0 0 0 0.35547,-0.3999l0.44434,-1.51075l0.22217,-0.31104l8.48685,-6.62064a0.62207,0.62207 0 0 1 0.39991,0a0.71094,0.71094 0 0 1 0.48877,0.22217l8.57572,10.48638a0.62207,0.62207 0 0 1 0,0.88868l-9.4644,7.02054zm0,-95.62152a0.62207,0.62207 0 0 1 -0.48877,0.2666a0.62207,0.62207 0 0 1 -0.39991,0l-8.88676,-7.24271a1.06641,1.06641 0 0 1 0,-0.44434l-1.77735,-21.55039a0.71094,0.71094 0 0 1 0.66651,-0.71094a0.62207,0.62207 0 0 1 0.48877,0.2666l8.53129,11.06402a0.75537,0.75537 0 0 0 0.44434,0.2666l1.55518,0a0.48877,0.48877 0 0 1 0.35547,0l8.30912,6.5762a0.62207,0.62207 0 0 1 0,0.88868l-8.79789,10.61968zm-7.82035,16.70711l-2.8882,13.33014a0.57764,0.57764 0 0 1 -0.62207,0.48877l-11.33062,-2.48829a0.66651,0.66651 0 0 1 -0.5332,-0.57764l-11.33062,-18.35116a0.62207,0.62207 0 0 1 0.53321,-0.97754l0.31104,0l12.57476,5.99856l0.31104,0l1.46632,-0.57764l0.3999,0l10.35307,2.22169a0.66651,0.66651 0 0 1 0.75537,0.93311zm-15.19636,33.68082a0.57764,0.57764 0 0 0 0.44434,0l1.15528,-1.06641l0.35547,0l10.44194,-1.77735a0.66651,0.66651 0 0 1 0.62207,0.53321l2.31056,13.33014a0.66651,0.66651 0 0 1 -0.5332,0.75537l-11.41949,1.86622a0.71094,0.71094 0 0 1 -0.3999,0l-17.46248,-13.50787a0.62207,0.62207 0 0 1 0.39991,-1.15528l13.99664,1.02198l0.08887,0zm40.79022,60.29666a0.62207,0.62207 0 0 0 0,-0.48877l-0.22217,-1.55518a0.84424,0.84424 0 0 1 0,-0.35547l4.66555,-9.4644a0.71094,0.71094 0 0 1 0.57764,-0.35547l0.2666,0l12.48589,5.95413a0.66651,0.66651 0 0 1 0.31104,0.84424l-5.15432,10.26421a0.62207,0.62207 0 0 1 -0.3999,0.35547l-20.83945,6.48733a0.66651,0.66651 0 0 1 -0.48877,-1.06641l8.79789,-10.61968zm101.35348,-34.03628a0.62207,0.62207 0 0 1 0.5332,-0.2666a0.48877,0.48877 0 0 1 0.31104,-0.04443l8.88676,7.19827a0.53321,0.53321 0 0 1 0.22217,0.44434l2.35499,21.46152a0.66651,0.66651 0 0 1 -0.66651,0.71094a0.62207,0.62207 0 0 1 -0.48877,-0.2666l-8.88676,-10.84185a0.53321,0.53321 0 0 0 -0.44434,-0.22217l-1.59962,0a0.48877,0.48877 0 0 1 -0.31104,0l-8.48686,-6.35403a0.66651,0.66651 0 0 1 0,-0.93311l8.57572,-10.88628zm7.95365,-16.48494l3.51027,-12.97467a0.66651,0.66651 0 0 1 0.62207,-0.48877l11.19732,3.0215a0.88868,0.88868 0 0 1 0.39991,0.31104l10.35307,19.01766a0.62207,0.62207 0 0 1 -0.5332,0.93311l-0.31104,0l-12.30816,-6.75394a0.35547,0.35547 0 0 0 -0.31104,0l-1.51075,0.48877l-0.44434,0l-10.26421,-2.71046a0.66651,0.66651 0 0 1 -0.57764,-0.84424l0.17773,0z" stroke-width="5" stroke-miterlimit="10" stroke-dasharray=""></path><path data-v-9833e8b2="" transform="scale(0.12376237623762376)" fill="none" stroke="currentColor" paint-order="fill stroke markers" d="m91.96833,201.00023a2.8882,2.8882 0 0 1 -2.26612,-1.11085a2.84376,2.84376 0 0 1 -0.48877,-2.44386l3.06593,-12.79693l-0.84424,-1.42188l0,-11.55279a2.84376,2.84376 0 0 1 2.84376,-2.84376l13.64117,0a2.8882,2.8882 0 0 1 2.8882,2.8882l0,11.50835a2.93263,2.93263 0 0 1 -0.84424,2.04396l-15.99617,14.92975a2.79933,2.79933 0 0 1 -1.99952,0.79981l0,0zm1.55518,-2.53273zm-2.62159,-1.51075zm4.84328,-15.15192l0.62207,0.88868a2.8882,2.8882 0 0 1 0.39991,2.35499l-1.99952,8.22025l11.33062,-10.79741l0,-9.1978l-10.44194,0l0.08887,8.53129zm-3.06593,3.4214zm-0.22217,-1.28858zm13.64117,-12.26373zm28.70423,23.41661a2.8882,2.8882 0 0 1 -2.84376,-2.35499l-2.44386,-12.97467l-1.33302,-0.97754l-0.5332,-0.93311l-4.44338,-9.50883a2.84376,2.84376 0 0 1 0,-2.17726a2.8882,2.8882 0 0 1 1.46632,-1.59962l12.79693,-5.82083l0.79981,0a2.93263,2.93263 0 0 1 2.62159,1.68848l4.70998,10.48638a2.71046,2.71046 0 0 1 0,2.26612l-8.13138,19.99521a2.93263,2.93263 0 0 1 -2.66603,1.91065l0,0zm-3.2881,-19.3287l0.93311,0.57764a2.8882,2.8882 0 0 1 1.33301,1.95509l1.55518,8.35355l5.90969,-14.44098l-3.82131,-8.39799l-9.4644,4.44338l3.5547,7.50931zm-2.13282,3.33253zm12.13043,-6.26516zm0,-1.24415zm-14.26325,-4.93215zm-77.27037,20.43954a2.93263,2.93263 0 0 1 -2.62159,-1.68848a2.8882,2.8882 0 0 1 0.44434,-3.06593l8.53129,-10.08647l0,-1.46631l0.31104,-0.88868l4.66555,-9.50883a2.84376,2.84376 0 0 1 2.57716,-1.59962l0.53321,0l0.71094,0.31104l12.26373,5.86526a2.79933,2.79933 0 0 1 1.42188,1.59962a2.8882,2.8882 0 0 1 0,2.26612l-5.28762,10.17534a2.62159,2.62159 0 0 1 -1.64405,1.42188l-21.90586,6.66507zm10.70854,-15.81843l0,1.06641a2.8882,2.8882 0 0 1 -0.66651,2.22169l-5.15432,6.53177l15.01862,-4.66555l4.13234,-8.26469l-9.41996,-4.44338l-3.91017,7.55374zm-4.22121,1.68848zm18.79549,-4.08791zm96.59907,1.95509a2.97706,2.97706 0 0 1 -1.91065,-0.93311l-8.35355,-10.30864l-1.51075,0l-0.88868,-0.53321l-8.48686,-6.35403a3.24367,3.24367 0 0 1 -1.11084,-1.91065a2.84376,2.84376 0 0 1 0.57764,-2.13282l8.22025,-10.70854a2.97706,2.97706 0 0 1 2.31056,-1.11085l0.75537,0l0.97754,0.57764l9.15336,7.02054a2.93263,2.93263 0 0 1 1.11084,1.91065l2.35499,21.55039a2.97706,2.97706 0 0 1 -0.66651,1.99952a2.8882,2.8882 0 0 1 -2.35499,0.93311l-0.17773,0zm-10.70854,-15.81843l1.11084,0a2.84376,2.84376 0 0 1 2.08839,1.06641l5.59866,6.7095l-1.68848,-15.46296l-7.19827,-5.64309l-6.3096,8.17582l6.39847,5.15432zm-0.2666,3.91017zm-7.82035,-10.04204zm15.68513,-1.19971zm-6.93167,-7.28714zm-121.03765,20.03964l-0.44434,0l-21.46152,-2.84376a2.84376,2.84376 0 0 1 -2.44386,-2.44386a2.8882,2.8882 0 0 1 1.51075,-3.0215l12.08599,-5.55422l0.44434,-1.46631l0.71094,-0.71094l8.88676,-7.15384l1.19971,0a2.8882,2.8882 0 0 1 2.22169,1.06641l8.57572,10.44194a2.71046,2.71046 0 0 1 0.62207,2.08839a2.79933,2.79933 0 0 1 -1.06641,1.95509l-9.64213,7.50931l-1.19971,0.1333zm-0.97754,-3.86574zm-15.06306,-2.66603l15.59626,2.04395l7.24271,-5.77639l-6.48733,-7.99808l-6.7095,5.50979l-0.31104,1.06641a2.97706,2.97706 0 0 1 -1.55518,1.73292l-7.77591,3.4214zm23.86095,-2.48829zm-18.79549,-4.17678zm163.91626,-12.53033l-0.62207,0l-0.93311,-0.35547l-11.64165,-6.39847l-1.99952,0.44434l-0.3999,0l-10.21977,-2.93263a2.8882,2.8882 0 0 1 -2.04396,-3.51027l3.51027,-12.97467a2.8882,2.8882 0 0 1 2.7549,-2.13282l0.79981,0l11.15288,3.0215a3.24367,3.24367 0 0 1 1.77735,1.37745l10.35307,19.01766a2.7549,2.7549 0 0 1 0,2.79933a2.79933,2.79933 0 0 1 -2.48829,1.64405zm-1.55518,-2.08839zm-11.50835,-9.24223a2.79933,2.79933 0 0 1 1.46631,0.3999l7.46488,4.08791l-7.46488,-13.64117l-8.88676,-2.48829l-2.66603,9.95317l8.26469,2.17726l1.82179,-0.48877zm1.15528,-9.77543zm-160.36156,14.66315a2.57716,2.57716 0 0 1 -1.68848,-0.57764l-17.50692,-12.93023a2.97706,2.97706 0 0 1 -1.15528,-3.19923a2.8882,2.8882 0 0 1 2.7549,-1.95509l0.44434,0l13.06353,0.93311l1.51075,-1.02198l1.06641,-0.2666l10.88628,-1.82179a2.79933,2.79933 0 0 1 2.79933,2.35499l2.31056,13.33014a2.84376,2.84376 0 0 1 -0.48877,2.13282a2.79933,2.79933 0 0 1 -1.91065,1.15528l-12.08599,1.86622zm9.90874,-4.44338zm-22.2169,-9.37553l12.57476,9.28666l9.15336,-1.51075l-1.55518,-10.08647l-8.48685,1.46632l-0.79981,0.75537a2.7549,2.7549 0 0 1 -1.95509,0.75537l-8.93119,-0.66651zm23.32774,7.55374zm-27.54895,-10.84185zm12.08599,0zm12.04156,-0.48877zm0.71094,-15.50739l-0.53321,0l-11.37505,-2.48829a2.79933,2.79933 0 0 1 -1.86622,-1.37745l-11.33062,-18.57332a2.79933,2.79933 0 0 1 0,-2.8882a2.8882,2.8882 0 0 1 2.48829,-1.46632l0.48877,0l0.75537,0.2666l11.99712,5.86526l2.08839,-0.5332l0.35547,0l10.44194,2.22169a2.79933,2.79933 0 0 1 2.17726,3.37697l-2.84376,13.33014a2.84376,2.84376 0 0 1 -2.84376,2.13282l0,0.1333zm-1.55518,-3.19923zm-8.88676,-3.5547l9.10893,1.99952l2.17726,-10.04204l-8.35355,-1.77735l-2.08839,0.62207a2.62159,2.62159 0 0 1 -1.28858,-0.44434l-7.73148,-3.73244l8.17582,13.37457zm0.31104,0.53321zm0,-14.08551zm152.05244,19.50643a2.8882,2.8882 0 0 1 -2.79933,-2.26612l-2.84376,-13.33014a2.8882,2.8882 0 0 1 0.35547,-2.17726a3.11037,3.11037 0 0 1 1.82179,-1.24415l11.95269,-2.39942a2.57716,2.57716 0 0 1 1.59962,0.5332l17.99569,12.21929a2.84376,2.84376 0 0 1 -1.59962,5.19875l-13.33014,-0.44434l-1.11084,1.11084l-1.02198,0.35547l-11.01958,2.44386zm1.55518,-3.19923zm11.99712,-1.02198zm-14.52985,-10.44194l2.17726,10.21977l8.39799,-1.82179l0.75537,-0.79981a2.93263,2.93263 0 0 1 2.04395,-0.84424l8.88676,0.2666l-12.93023,-8.88676l-9.3311,1.86622zm-0.35547,-1.59962zm-9.50883,-13.33014a2.7549,2.7549 0 0 1 -2.17726,-1.02198l-8.88676,-10.30864a2.7549,2.7549 0 0 1 -0.66651,-2.13282a2.8882,2.8882 0 0 1 1.06641,-1.95509l9.50883,-7.77591l1.19971,0l22.2169,2.53273a2.8882,2.8882 0 0 1 2.48829,2.39942a2.7549,2.7549 0 0 1 -1.59962,3.0215l-11.99712,5.77639l-0.44434,1.51075l-0.75537,0.71094l-8.88676,7.24271l-1.06641,0zm1.19971,-3.91017zm-7.64261,-8.88676l6.66507,7.90922l6.5762,-5.50979l0.31104,-1.06641a2.84376,2.84376 0 0 1 1.51075,-1.77735l7.68705,-3.68801l-15.59626,-1.77735l-7.15384,5.90969zm16.97371,3.688zm0.84424,-1.06641zm-19.0621,-1.59962zm-112.50637,11.95269l-0.79981,0l-0.97754,-0.62207l-8.88676,-7.28714a2.84376,2.84376 0 0 1 -1.06641,-2.04395l-1.77735,-21.46152a2.93263,2.93263 0 0 1 0.62207,-2.17726a2.97706,2.97706 0 0 1 4.44338,0l8.08695,10.48637l1.55518,0l0.84424,0.57764l8.30912,6.5762a2.84376,2.84376 0 0 1 0.44434,3.99904l-8.57572,10.88628a2.97706,2.97706 0 0 1 -2.22169,1.06641zm-7.46488,-10.93071l7.24271,5.86526l6.48733,-8.04252l-6.66507,-5.28762l-1.11084,0a2.71046,2.71046 0 0 1 -1.99952,-1.06641l-5.24319,-6.97611l1.28858,15.50739zm0,0.62207zm-0.57764,-1.06641zm7.99808,-10.97515zm-1.15528,-0.57764zm-10.79741,-7.73148zm109.61817,8.88676l-0.48877,0l-0.71094,-0.22217l-12.35259,-5.64309a2.8882,2.8882 0 0 1 -1.46632,-1.59962a2.93263,2.93263 0 0 1 0,-2.22169l5.10989,-10.21977a2.84376,2.84376 0 0 1 1.59962,-1.64405l21.59482,-6.93167a2.84376,2.84376 0 0 1 2.57716,1.64405a2.7549,2.7549 0 0 1 -0.35547,3.0215l-8.30912,10.26421l0,1.51075l-0.1333,1.02198l-4.44338,9.4644a2.84376,2.84376 0 0 1 -2.62159,1.64405l0,-0.08887zm-10.21977,-9.3311l9.4644,4.44338l3.59914,-7.68705l0,-1.06641a2.79933,2.79933 0 0 1 0.62207,-2.26612l5.37649,-6.53177l-14.92976,4.88772l-4.13234,8.22025zm-1.46631,-0.66651zm4.88772,-7.42044zm0.88868,-0.84424zm-68.11701,18.26229a2.79933,2.79933 0 0 1 -2.53273,-1.55518l-5.37649,-10.1309a2.97706,2.97706 0 0 1 0,-2.22169l6.97611,-20.48398a2.79933,2.79933 0 0 1 2.71046,-1.95509a2.84376,2.84376 0 0 1 2.7549,2.13282l3.24367,12.84137l1.33301,0.71094l0.62207,0.88868l4.93215,9.28666a2.57716,2.57716 0 0 1 0.22217,2.13282a2.84376,2.84376 0 0 1 -1.37745,1.73292l-12.66363,6.5762l-0.84424,0.04443zm1.37745,-3.64357zm-5.02102,-9.50883l4.44338,8.17582l9.1978,-4.84328l-3.99904,-7.46488l-0.93311,-0.48877a2.97706,2.97706 0 0 1 -1.55518,-1.82179l-2.04395,-8.35355l-5.10989,14.79645zm14.26325,4.75442zm32.88101,-1.68848l-13.59674,0a2.93263,2.93263 0 0 1 -2.04395,-0.93311a3.0215,3.0215 0 0 1 -0.84424,-2.04396l0,-11.46392a2.97706,2.97706 0 0 1 0.88868,-2.04395l15.9073,-14.88532a2.97706,2.97706 0 0 1 4.22121,0.35547a2.84376,2.84376 0 0 1 0.48877,2.44386l-3.19923,12.79693l0.84424,1.28858l0,11.64165a2.84376,2.84376 0 0 1 -2.66603,2.84376l0,0zm-12.04156,-2.84376zm0,-1.59962l10.44194,0l0,-8.44242l-0.62207,-0.93311a2.93263,2.93263 0 0 1 -0.35547,-2.35499l2.08839,-8.17582l-11.46392,10.70854l-0.08887,9.19779zm0,-9.90874zm13.68561,-0.75537zm1.68848,-12.93023z" stroke-width="5" stroke-miterlimit="10" stroke-dasharray=""></path></g></svg>