<svg data-v-9833e8b2="" version="1.1" xmlns="http://www.w3.org/2000/svg" xmlns:xlink="http://www.w3.org/1999/xlink" width="25" height="10"><g data-v-9833e8b2=""><path data-v-9833e8b2="" transform="scale(0.12437810945273632)" fill="none" stroke="currentColor" paint-order="fill stroke markers" d="m34.59821,1.01l7.7819,12.32301l0.34008,0.23006l0.24006,0.18004l5.84143,-6.76165l0.8402,14.3435l0.36009,0.71017l-0.04001,-0.20005l8.6021,-3.04074l-6.49159,12.82313c0,0.32008 -0.02001,0.65016 -0.05001,0.98024l0.17004,-0.55013l9.20225,1.47036l-6.39156,4.15101l7.72189,4.46109c0.94023,0.50012 2.00049,0.68017 3.02074,0.50012l0.74018,-0.20005l7.57185,-2.36058a2.52062,2.52062 0 0 1 1.43035,-0.10002l0.69017,0.26006l16.67407,9.62235l15.35375,0.32008l13.9334,23.50574l-42.54039,-0.88022l-14.35351,-8.41205a3.08075,3.08075 0 0 1 -1.20029,-2.07051l-0.01,-0.60015l-0.06001,-2.41059a4.95121,4.95121 0 0 0 -1.60039,-3.90095l-0.71017,-0.56014l-13.62333,-7.87192l4.60112,5.16126l-15.05368,-2.0605l0.24006,-0.11003c-0.50012,0.14003 -1.00024,0.27007 -1.52037,0.38009l1.15028,-0.01l2.07051,8.87217l-12.43304,-8.90217l0.12003,0l-0.33008,-0.05001a22.07539,22.07539 0 0 1 -0.99024,-0.26006l0.95023,0.49012l-2.55062,8.57209l-6.68163,-13.43328a22.34546,22.34546 0 0 1 -0.77019,-0.68017l0.44011,0.65016l-6.5516,6.1215l0.70017,-14.47354l-0.30007,-0.8002l0.04001,0.44011l-8.90218,2.12052l7.70188,-11.90291l0.10002,-0.72018l-0.05001,0.14003l-9.0222,-2.40059l12.7031,-6.46158l0.4001,-0.53013l-6.85167,-6.32154l14.46353,0.51012l0.75018,-0.30007l-3.00073,-8.6021l12.7031,7.27178l0.8102,0.10002l1.61039,-8.78215l0.01,0.01zm132.37233,0.43011l1.60039,8.78215l0.8302,-0.10002l12.6831,-7.27178l-2.99073,8.6021l0.75018,0.30007l14.46353,-0.51012l-6.85167,6.32154l0.4001,0.54013l12.7031,6.45158l-9.0222,2.40059l-0.04001,-0.14003l0.08002,0.73018l7.71188,11.8929l-8.90217,-2.12052l0.05001,-0.44011l-0.32008,0.8002l0.71017,14.47353l-6.5516,-6.1215l0.44011,-0.64016c-0.25006,0.23006 -0.50012,0.45011 -0.77019,0.67016l-6.68163,13.43328l-2.55062,-8.57209l0.95023,-0.49012c-0.33008,0.10002 -0.66016,0.18004 -1.00024,0.26006l-0.32008,0.06001l0.12003,0l-12.43304,8.90217l2.07051,-8.88217l1.15028,0.02a20.8651,20.8651 0 0 1 -1.52037,-0.4001l0.24006,0.12003l-15.05368,2.0605l4.60112,-5.16126l-13.62333,7.87192l-0.70017,0.55013a4.95121,4.95121 0 0 0 -1.60039,3.91096l-0.07002,2.40059l0,0.61015a3.08075,3.08075 0 0 1 -1.20029,2.07051l-14.36351,8.41206l-13.25324,-22.94561l16.67407,-9.62235l0.70017,-0.26006a2.52062,2.52062 0 0 1 1.42035,0.10002l7.57185,2.37058l0.74018,0.20005c1.02025,0.17004 2.08051,0 3.02074,-0.50012l7.72189,-4.46109l-6.40156,-4.16102l9.20225,-1.47036l0.18004,0.55013a19.96488,19.96488 0 0 1 -0.05001,-0.98024l-6.47158,-12.81313l8.6021,3.03074l-0.05001,0.20005l0.36009,-0.71017l0.8402,-14.3435l5.84143,6.76165l0.24006,-0.18004l0.34008,-0.23006l7.7819,-12.33301zm11.10271,26.68652c-1.14028,-3.97097 -5.39132,-6.1515 -9.51232,-4.9012c-4.12101,1.27031 -6.5616,5.50134 -5.46133,9.50232a7.19176,7.19176 0 0 0 3.6809,4.47109a7.87192,7.87192 0 0 0 5.93145,0.46011l0.99024,-0.38009c3.50085,-1.6304 5.42132,-5.50134 4.38107,-9.15223l-0.01,0zm-154.57776,-0.44011c-1.04025,3.64089 0.88021,7.52184 4.38107,9.15223l1.00024,0.38009a7.87192,7.87192 0 0 0 5.92145,-0.46011a7.19176,7.19176 0 0 0 3.6809,-4.48109c1.10027,-3.98097 -1.34033,-8.22201 -5.46133,-9.48232c-4.12101,-1.27031 -8.37204,0.92023 -9.52233,4.9012l0,-0.01z" stroke-width="5" stroke-miterlimit="10" stroke-dasharray=""></path></g></svg>