<svg data-v-9833e8b2="" version="1.1" xmlns="http://www.w3.org/2000/svg" xmlns:xlink="http://www.w3.org/1999/xlink" width="25" height="25"><g data-v-9833e8b2=""><path data-v-9833e8b2="" transform="scale(0.12437810945273632)" fill="none" stroke="currentColor" paint-order="fill stroke markers" d="m92.69327,3.74319a13.15842,13.15842 0 0 1 14.74476,-0.90781l1.35664,0.90781l87.90935,66.78002a10.19553,10.19553 0 0 1 2.13477,13.66721a8.89865,8.89865 0 0 1 -11.80159,2.99278l-1.06738,-0.69824l-85.22576,-64.77474l-85.11599,64.74466a8.83889,8.83889 0 0 1 -12.07112,-1.17715l-0.79805,-0.99746a10.24553,10.24553 0 0 1 1.16719,-12.9092l0.99766,-0.84785l87.76951,-66.78002z" stroke-width="5" stroke-miterlimit="10" stroke-dasharray=""></path><path data-v-9833e8b2="" transform="scale(0.12437810945273632)" fill="none" stroke="currentColor" paint-order="fill stroke markers" d="m26.07302,63.33022a10.22541,10.22541 0 0 1 9.89631,9.28791l0.07988,1.32676l0,115.95218c0,5.86583 -4.46935,10.62443 -9.97619,10.62443a10.22541,10.22541 0 0 1 -9.90627,-9.28771l-0.06973,-1.33672l0,-115.93226c0,-5.86583 4.41935,-10.6344 9.976,-10.6344l0,-0.0002zm149.64131,0a10.22541,10.22541 0 0 1 9.89631,9.28791l0.07988,1.32676l0,115.95218c0,5.86583 -4.46935,10.62443 -9.97619,10.62443a10.22541,10.22541 0 0 1 -9.90627,-9.28771l-0.06973,-1.33672l0,-115.93226c0,-5.86583 4.41935,-10.6344 9.976,-10.6344l0,-0.0002zm-119.81274,37.43054l14.96409,0q4.9881,0 4.9881,4.9879l0,14.96429q0,4.9879 -4.98829,4.9879l-14.9639,0q-4.98809,0 -4.98809,-4.9879l0,-14.96429q0,-4.9879 4.98809,-4.9879zm0,37.41023l14.96409,0q4.9881,0 4.9881,4.9881l0,14.96409q0,4.98809 -4.98829,4.98809l-14.9639,0q-4.98809,0 -4.98809,-4.98809l0,-14.96409q0,-4.9881 4.98809,-4.9881zm37.41043,0l14.9639,0q4.98829,0 4.98829,4.9881l0,14.96409q0,4.98809 -4.98829,4.98809l-14.96409,0q-4.98809,0 -4.98809,-4.98809l0,-14.96409q0,-4.9881 4.98829,-4.9881zm-37.41043,37.41043l14.96409,0q4.9881,0 4.9881,4.9879l0,14.96429q0,4.9879 -4.98829,4.9879l-14.9639,0q-4.98809,0 -4.98809,-4.9879l0,-14.96429q0,-4.9879 4.98809,-4.9879zm37.41043,0l14.9639,0q4.98829,0 4.98829,4.9879l0,14.96429q0,4.9879 -4.98829,4.9879l-14.96409,0q-4.98809,0 -4.98809,-4.9879l0,-14.96429q0,-4.9879 4.98829,-4.9879zm37.41023,0l14.96409,0q4.98809,0 4.98809,4.9879l0,14.96429q0,4.9879 -4.98829,4.9879l-14.9639,0q-4.9881,0 -4.9881,-4.9879l0,-14.96429q0,-4.9879 4.9881,-4.9879z" stroke-width="5" stroke-miterlimit="10" stroke-dasharray=""></path></g></svg>