<svg data-v-9833e8b2="" version="1.1" xmlns="http://www.w3.org/2000/svg" xmlns:xlink="http://www.w3.org/1999/xlink" width="25" height="20"><g data-v-9833e8b2=""><path data-v-9833e8b2="" transform="scale(0.1404494382022472)" fill="none" stroke="currentColor" paint-order="fill stroke markers" d="m170.68643,70.16818a4.39001,4.39001 0 0 0 -1.28,-3.39401l-31.11208,-31.11408a4.40001,4.40001 0 0 0 -6.22202,0l-0.096,0.096a4.40001,4.40001 0 0 0 0,6.22002l28.19007,28.19207l-28.19007,28.19007a4.40001,4.40001 0 0 0 0,6.22202l0.096,0.094a4.40001,4.40001 0 0 0 6.22002,0l31.11408,-31.11208a4.39001,4.39001 0 0 0 1.28,-3.39401zm-24.64006,0a4.39001,4.39001 0 0 0 -1.28,-3.39401l-31.11208,-31.11408a4.40001,4.40001 0 0 0 -6.22202,0l-0.096,0.096a4.40001,4.40001 0 0 0 0,6.22002l28.19007,28.19207l-28.19007,28.19007a4.40001,4.40001 0 0 0 0,6.22202l0.096,0.094a4.40001,4.40001 0 0 0 6.22002,0l31.11408,-31.11208a4.39001,4.39001 0 0 0 1.28,-3.39401zm-24.64006,0a4.39001,4.39001 0 0 0 -1.28,-3.39401l-31.11208,-31.11408a4.40001,4.40001 0 0 0 -6.22202,0l-0.096,0.096a4.40001,4.40001 0 0 0 0,6.22002l28.19007,28.19207l-28.19007,28.19007a4.40001,4.40001 0 0 0 0,6.22202l0.096,0.094a4.40001,4.40001 0 0 0 6.22002,0l31.11408,-31.11208a4.39001,4.39001 0 0 0 1.28,-3.39401zm-24.64006,0a4.39001,4.39001 0 0 0 -1.28,-3.39401l-31.11208,-31.11408a4.40001,4.40001 0 0 0 -6.22202,0l-0.096,0.096a4.40001,4.40001 0 0 0 0,6.22002l28.19007,28.19207l-28.19007,28.19007a4.40001,4.40001 0 0 0 0,6.22202l0.096,0.094a4.40001,4.40001 0 0 0 6.22002,0l31.11408,-31.11208a4.39001,4.39001 0 0 0 1.28,-3.39401zm-24.64006,0a4.39001,4.39001 0 0 0 -1.28,-3.39401l-31.11208,-31.11408a4.40001,4.40001 0 0 0 -6.22202,0l-0.096,0.096a4.40001,4.40001 0 0 0 0,6.22002l28.19007,28.19207l-28.19007,28.19007a4.40001,4.40001 0 0 0 0,6.22202l0.096,0.094a4.40001,4.40001 0 0 0 6.22002,0l31.11408,-31.11208a4.39001,4.39001 0 0 0 1.28,-3.39401zm-24.64006,0a4.39001,4.39001 0 0 0 -1.28,-3.39401l-31.11208,-31.11408a4.40001,4.40001 0 0 0 -6.22202,0l-0.096,0.096a4.40001,4.40001 0 0 0 0,6.22002l28.19007,28.19207l-28.19007,28.19007a4.40001,4.40001 0 0 0 0,6.22202l0.096,0.094a4.40001,4.40001 0 0 0 6.22002,0l31.11408,-31.11208a4.39001,4.39001 0 0 0 1.28,-3.39401zm-46.48612,-46.83412l176.00044,0l0,89.33222l-176.00044,0l0,-89.33222zm0,-22.33406l176.00044,0l0,13.40003l-176.00044,0l0,-13.40003zm0,120.6003l176.00044,0l0,13.40003l-176.00044,0l0,-13.40003z" stroke-width="5" stroke-miterlimit="10" stroke-dasharray=""></path></g></svg>