<svg data-v-9833e8b2="" version="1.1" xmlns="http://www.w3.org/2000/svg" xmlns:xlink="http://www.w3.org/1999/xlink" width="22" height="25"><g data-v-9833e8b2=""><path data-v-9833e8b2="" transform="scale(0.12376237623762376)" fill="none" stroke="currentColor" paint-order="fill stroke markers" d="m119.43167,155.90235l0.39216,0c3.7255,0 7.25492,-1.37255 10.00003,-4.11766c2.94118,-2.74511 4.50981,-6.66668 4.50981,-10.78434c0,-3.92158 -1.56863,-7.64708 -4.50981,-10.58826c-2.94119,-2.7451 -6.66668,-4.11766 -10.58826,-4.11766c-7.84316,0.39216 -14.11768,6.86276 -13.9216,14.70592c0,8.23532 6.27453,14.70592 14.11768,14.902zm-77.05902,0l0.58824,0c3.52942,0 7.05884,-1.37255 9.80395,-3.92158c2.94119,-2.7451 4.70589,-6.66668 4.70589,-10.58826c0,-7.84316 -6.27453,-14.50984 -13.9216,-14.70592c-3.92158,-0.19608 -7.64708,1.37255 -10.58826,4.11766c-2.94118,2.7451 -4.50981,6.4706 -4.50981,10.58826c0,7.64708 6.07845,14.11768 13.9216,14.50984z" stroke-width="5" stroke-miterlimit="10" stroke-dasharray=""></path><path data-v-9833e8b2="" transform="scale(0.12376237623762376)" fill="none" stroke="currentColor" paint-order="fill stroke markers" d="m161.78472,139.03956l0,-102.94143c0,-19.41181 -16.27455,-35.09813 -36.2746,-35.09813l-88.23552,0c-20.00005,0 -36.2746,15.68631 -36.2746,35.09813l0,102.94143c0,15.49024 10.58826,29.21576 25.68634,33.72558l-16.86279,16.66671c-1.37255,1.37255 -1.96079,2.94118 -1.96079,4.70589c0,1.76471 0.78432,3.52942 2.15687,4.70589c1.17647,1.17647 2.94118,1.96079 4.90197,1.96079c1.76471,0 3.52942,-0.78432 4.90197,-1.96079l24.90202,-24.50986l74.50999,0l23.92163,24.70594c1.37255,1.37255 3.13726,1.96079 4.90197,1.96079c1.76471,0 3.33334,-0.58824 4.70589,-1.76471c1.37255,-1.17647 2.15687,-2.94119 2.15687,-4.70589c0,-1.76471 -0.58824,-3.52942 -1.96079,-4.90197l-16.66671,-16.86279c14.902,-4.50981 25.49026,-18.23534 25.49026,-33.72558zm-147.05919,-102.94143c0,-11.96082 10.1961,-21.76476 22.54908,-21.76476l88.23552,0c12.35297,0 22.54908,9.80394 22.54908,21.76476l0,7.451l-133.33367,0l0,-7.451zm133.33367,102.94143c0,11.96082 -10.1961,21.76476 -22.54908,21.76476l-88.23552,0c-12.35297,0 -22.54908,-9.80395 -22.54908,-21.76476l0,-15.49023l133.33367,0l0,15.49023zm0,-28.8236l-133.33367,0l0,-53.13739l133.33367,0l0,53.13739z" stroke-width="5" stroke-miterlimit="10" stroke-dasharray=""></path><path data-v-9833e8b2="" transform="scale(0.12376237623762376)" fill="none" stroke="currentColor" paint-order="fill stroke markers" d="m107.86301,22.56868l-54.9021,0c-3.7255,0 -6.86276,3.13726 -6.86276,6.86276s3.13726,6.86276 6.86276,6.86276l54.9021,0c3.7255,0 6.86276,-3.13726 6.86276,-6.86276s-3.13726,-6.86276 -6.86276,-6.86276z" stroke-width="5" stroke-miterlimit="10" stroke-dasharray=""></path></g></svg>