<svg data-v-9833e8b2="" version="1.1" xmlns="http://www.w3.org/2000/svg" xmlns:xlink="http://www.w3.org/1999/xlink" width="25" height="25"><g data-v-9833e8b2=""><path data-v-9833e8b2="" transform="scale(0.13297872340425532)" fill="none" stroke="currentColor" paint-order="fill stroke markers" d="m176.50044,45.80011l-3.70001,0l0,-18.70005c0,-6.20002 -4.50001,-13.50003 -10.00003,-16.20004c0,0 -19.90005,-9.90002 -68.50017,-9.90002s-68.40017,9.90002 -68.40017,9.90002c-5.50001,2.80001 -10.00003,10.10003 -10.00003,16.20004l0,18.70005l-3.70001,0c-6.20002,0 -11.20003,5.00001 -11.20003,11.20003l0,11.20003c0,6.20002 5.00001,11.20003 11.20003,11.20003l3.70001,0l0,76.60019c0,4.90001 3.10001,9.00002 7.50002,10.60003l0,6.30002c0,8.20002 6.70002,14.90004 14.90004,14.90004s14.90004,-6.70002 14.90004,-14.90004l0,-5.60001l82.20021,0l0,5.60001c0,8.20002 6.70002,14.90004 14.90004,14.90004s14.90004,-6.70002 14.90004,-14.90004l0,-6.30002c4.30001,-1.5 7.50002,-5.70001 7.50002,-10.60003l0,-76.60019l3.70001,0c6.20002,0 11.20003,-5.00001 11.20003,-11.20003l0,-11.20003c0.1,-6.20002 -5.00001,-11.20003 -11.10003,-11.20003zm-119.6003,-26.20007c0,-2.10001 1.7,-3.70001 3.70001,-3.70001l67.30017,0c2.10001,0 3.70001,1.7 3.70001,3.70001l0,7.50002c0,2.10001 -1.7,3.70001 -3.70001,3.70001l-67.30017,0c-2.10001,0 -3.70001,-1.7 -3.70001,-3.70001l0,-7.50002zm-16.80004,132.70033c-5.20001,0 -9.30002,-4.20001 -9.30002,-9.30002s4.20001,-9.30002 9.30002,-9.30002c5.20001,0 9.30002,4.20001 9.30002,9.30002s-4.20001,9.30002 -9.30002,9.30002zm108.40027,0c-5.20001,0 -9.30002,-4.20001 -9.30002,-9.30002s4.20001,-9.30002 9.30002,-9.30002s9.30002,4.20001 9.30002,9.30002s-4.20001,9.30002 -9.30002,9.30002zm9.30002,-43.00011c0,2.10001 -1.7,3.70001 -3.70001,3.70001l-119.6003,0c-2.10001,0 -3.70001,-1.7 -3.70001,-3.70001l0,-59.80015c0,-2.10001 1.7,-3.70001 3.70001,-3.70001l119.6003,0c2.10001,0 3.70001,1.7 3.70001,3.70001l0,59.80015z" stroke-width="5" stroke-miterlimit="10" stroke-dasharray=""></path></g></svg>