<svg data-v-9833e8b2="" version="1.1" xmlns="http://www.w3.org/2000/svg" xmlns:xlink="http://www.w3.org/1999/xlink" width="25" height="25"><g data-v-9833e8b2=""><path data-v-9833e8b2="" transform="scale(0.12755102040816327)" fill="none" stroke="currentColor" paint-order="fill stroke markers" d="m183.4329,130.73006a4.05406,4.05406 0 0 1 4.05947,4.05406l0,56.7569a4.05406,4.05406 0 0 1 -4.05406,4.05406l-12.16219,0l0,-2.69731a4.05406,4.05406 0 0 0 -4.05406,-4.05406l-24.32439,0a4.05406,4.05406 0 0 0 -4.05406,4.05406l0,2.70271l-133.78953,0a4.05406,4.05406 0 0 1 -4.05406,-4.05947l0,-56.7569a4.05406,4.05406 0 0 1 4.05406,-4.05406l4.05406,0l0,-60.81096a4.05406,4.05406 0 0 1 4.05406,-4.05406l2.48649,0l-6.32434,-18.98924a4.03785,4.03785 0 0 1 -0.21081,-1.28108l0,-16.21626a4.05406,4.05406 0 0 1 4.05406,-4.05406l20.27032,0l0,-20.27032a4.05406,4.05406 0 0 1 8.10813,0l0,20.28654l20.27032,0a4.05406,4.05406 0 0 1 4.05406,4.05406l0,16.17842c0,0.43243 -0.07027,0.86487 -0.21081,1.28109l-6.32434,18.98924l2.48109,0a4.05406,4.05406 0 0 1 4.05406,4.05406l0,60.83799l40.54064,0l0,-12.16219a4.05406,4.05406 0 0 1 4.05406,-4.05406l48.64877,0a4.05406,4.05406 0 0 1 4.05406,4.05406l0,12.15679l20.27032,0l-0.0054,0zm-141.88684,36.48658l0,-16.21626a4.05406,4.05406 0 0 0 -4.05406,-4.05406l-16.21626,0a4.05406,4.05406 0 0 0 -4.05406,4.05406l0,16.21626c0,2.23784 1.81082,4.05406 4.05406,4.05406l16.21626,0a4.05406,4.05406 0 0 0 4.05406,-4.05406zm4.05406,-117.56786a4.05406,4.05406 0 1 0 0,-8.10813l-16.20545,0a4.05406,4.05406 0 1 0 0,8.10813l16.20004,0l0.0054,0zm36.48658,117.56786l0,-16.21626a4.05406,4.05406 0 0 0 -4.05406,-4.05406l-16.21626,0a4.05406,4.05406 0 0 0 -4.05406,4.05406l0,16.21626c0,2.23784 1.81622,4.05406 4.05406,4.05406l16.21626,0a4.05406,4.05406 0 0 0 4.05406,-4.05406zm40.54064,0l0,-16.21626a4.05406,4.05406 0 0 0 -4.05406,-4.05406l-16.21626,0a4.05406,4.05406 0 0 0 -4.05406,4.05406l0,16.21626c0,2.23784 1.81082,4.05406 4.05406,4.05406l16.21626,0a4.05406,4.05406 0 0 0 4.05406,-4.05406zm69.91369,-130.10303l0,0.01622a7.27569,7.27569 0 0 1 0.09189,11.78381l-80.32453,40.84335a8.71354,8.71354 0 0 1 -4.36217,1.02703c-10.25408,0 -28.84872,-14.75679 -32.47576,-17.71896a4.05406,4.05406 0 0 1 2.56217,-7.18921l8.11894,0c2.05946,0.21622 4.09731,0.64865 6.07569,1.27027c3.54055,0.86487 10.63786,2.60001 13.09733,2.83785l19.86492,-10.32435l-25.25952,-18.94599a4.05406,4.05406 0 0 1 2.32433,-7.29732l12.00003,-0.34054a35.5082,35.5082 0 0 1 19.76762,6.05407l14.22166,7.44326l0.68108,-0.40541l22.97844,-10.80003a19.5514,19.5514 0 0 1 20.63789,1.74595z" stroke-width="5" stroke-miterlimit="10" stroke-dasharray=""></path></g></svg>