<svg data-v-9833e8b2="" version="1.1" xmlns="http://www.w3.org/2000/svg" xmlns:xlink="http://www.w3.org/1999/xlink" width="25" height="20"><g data-v-9833e8b2=""><path data-v-9833e8b2="" transform="scale(0.14285714285714285)" fill="none" stroke="currentColor" paint-order="fill stroke markers" d="m168.50042,69.75017l6.25002,3.75001l0,28.75007l-6.25002,0l0,-32.50008l0,0zm-23.75006,-18.75005l18.75005,13.75003l0,36.25009l-18.75005,0l0,-50.00013l0,0zm-31.25008,-23.75006l26.25007,20.00005l0,55.00014l-25.00006,0l0,-71.25018l0,0l0,-1.25l-1.25,-2.50001l0,0zm-92.50023,30.00008l57.50014,0l0,-33.75008l-5.00001,-11.25003l-46.25012,0l-6.25002,11.25003l0,33.75008l0,0zm52.50013,12.50003c3.75001,0 6.25002,3.75001 6.25002,7.50002c0,5.00001 -2.50001,7.50002 -6.25002,7.50002s-6.25002,-2.50001 -6.25002,-7.50002c0,-3.75001 2.50001,-7.50002 6.25002,-7.50002l0,0zm-47.50012,0c3.75001,0 6.25002,3.75001 6.25002,7.50002c0,5.00001 -2.50001,7.50002 -6.25002,7.50002s-6.25002,-2.50001 -6.25002,-7.50002c0,-3.75001 3.75001,-7.50002 6.25002,-7.50002l0,0zm51.25013,-68.75017l26.25007,20.00005l5.00001,11.25003l0,70.00018l-21.25005,0c-12.50003,0 -60.00015,0 -70.00018,0l-5.00001,0l0,-6.25002c0,-30.00008 0,-17.50004 0,-73.75019l0,-2.50001l1.25,-1.25l8.75002,-15.00004l1.25,-2.50001l2.50001,0l50.00013,0l1.25,0zm-23.75006,125.00031l2.50001,-3.75001l-32.50008,0l-2.50001,3.75001l32.50008,0l0,0zm-3.75001,7.50002l1.25,-2.50001l-33.75008,0l-1.25,2.50001l-15.00004,0l0,-3.75001l17.50004,-17.50004l13.75003,0l-5.00001,5.00001l31.25008,0l2.50001,-3.75001l12.50003,0l98.75025,0l0,2.50001l-101.25025,5.00001l-3.75001,13.75003l-17.50004,-1.25z" stroke-width="5" stroke-miterlimit="10" stroke-dasharray=""></path></g></svg>