<svg data-v-9833e8b2="" version="1.1" xmlns="http://www.w3.org/2000/svg" xmlns:xlink="http://www.w3.org/1999/xlink" width="24.5" height="25"><g data-v-9833e8b2=""><path data-v-9833e8b2="" transform="scale(0.12376237623762376)" fill="none" stroke="currentColor" paint-order="fill stroke markers" d="m161.41707,192.66715l-18.75005,0l-15.83337,-113.33362c-0.41667,-2.08334 0,-3.33334 0.41667,-5.41668l10.00003,-30.83341l1.66667,1.25c0.83334,0.41667 1.66667,0.83333 2.50001,0.83333c1.25,0 2.50001,-0.41667 3.33334,-1.66667c1.25,-1.66667 0.83333,-4.16668 -0.83334,-5.83335l-50.00013,-36.66676l-50.00013,37.08343c-1.66667,1.25 -2.08334,3.75001 -0.83334,5.83335c1.25,1.66667 4.16668,2.08334 5.83335,0.83334l1.66667,-1.25l10.00003,31.25008c0.41667,1.66667 0.83334,2.91667 0.41667,5.00001l-15.83337,112.91695l-18.33338,0c-2.08334,0 -3.33334,2.08334 -3.33334,4.16668s1.66667,4.16668 3.33334,4.16668l135.00034,0c2.08334,0 3.75001,-2.08334 3.75001,-4.16668c-0.83333,-2.08334 -2.50001,-4.16668 -4.16668,-4.16668zm-103.75026,-155.83372l36.25009,-26.25007l36.25009,25.8334l-11.25003,34.58342l-50.00013,0l-11.25003,-34.16675zm65.00016,72.08351l3.33334,25.00006l-64.16683,0l3.33334,-25.00006l57.50014,0zm-56.25014,-8.75002l2.91667,-20.83338l49.58346,0l2.91667,20.83338l-55.41681,0zm-5.83335,42.08344l66.66684,0l2.91667,20.83339l-72.50018,0l2.91667,-20.83339zm-7.08335,50.41679l2.91667,-20.83338l75.00019,0l2.91667,20.83338l-80.83354,0z" stroke-width="5" stroke-miterlimit="10" stroke-dasharray=""></path><path data-v-9833e8b2="" transform="scale(0.12376237623762376)" fill="none" stroke="currentColor" paint-order="fill stroke markers" d="m83.91687,45.16678a8.33335,8.33335 0 1 0 16.66671,0a8.33335,8.33335 0 1 0 -16.66671,0z" stroke-width="5" stroke-miterlimit="10" stroke-dasharray=""></path><path data-v-9833e8b2="" transform="scale(0.12376237623762376)" fill="none" stroke="currentColor" paint-order="fill stroke markers" d="m18.50004,42.66677c0.83333,0.83334 2.08334,1.25 2.91667,1.25c1.25,0 2.08334,-0.41667 2.91667,-1.25c1.66667,-1.66667 1.66667,-4.16668 0,-5.83335l-11.6667,-12.08336c-1.66667,-1.66667 -4.16668,-1.66667 -5.83335,0c-1.66667,1.66667 -1.66667,4.16668 0,5.83335l11.6667,12.08336zm7.50002,11.6667c0,-2.50001 -1.66667,-4.16668 -4.16668,-4.16668l-16.66671,0c-2.50001,0 -4.16668,2.08334 -4.16668,4.16668c0,2.50001 1.66667,4.16668 4.16668,4.16668l16.66671,0c2.50001,0 4.16668,-2.08334 4.16668,-4.16668zm-1.66667,16.66671c-1.66667,-1.66667 -4.16668,-1.66667 -5.83335,0l-11.6667,11.6667c-1.66667,1.66667 -1.66667,4.16668 0,5.83335c0.83334,0.83334 2.08334,1.25 2.91668,1.25c1.25,0 2.08334,-0.41667 2.91667,-1.25l11.6667,-11.6667c1.66667,-1.66667 1.66667,-4.16668 0,-5.83335zm139.58369,-27.0834c1.25,0 2.08334,-0.41667 2.91667,-1.25l11.6667,-11.6667c1.66667,-1.66667 1.66667,-4.16668 0,-5.83335c-1.66667,-1.66667 -4.16668,-1.66667 -5.83335,0l-11.6667,11.6667c-1.66667,1.66667 -1.66667,4.16668 0,5.83335c0.83333,0.83334 1.66667,1.25 2.91667,1.25zm16.25004,6.25002l-16.66671,0c-2.50001,0 -4.16668,2.08334 -4.16668,4.16668c0,2.50001 1.66667,4.16668 4.16668,4.16668l16.66671,0c2.50001,0 4.16668,-2.08334 4.16668,-4.16668c0,-2.50001 -1.66667,-4.16668 -4.16668,-4.16668zm-13.33337,20.83339c-1.66667,-1.66667 -4.16668,-1.66667 -5.83335,0c-1.66667,1.66667 -1.66667,4.16668 0,5.83335l11.6667,11.6667c0.83334,0.83334 2.08334,1.25 2.91667,1.25c1.25,0 2.08334,-0.41667 2.91668,-1.25c1.66667,-1.66667 1.66667,-4.16668 0,-5.83335l-11.6667,-11.6667z" stroke-width="5" stroke-miterlimit="10" stroke-dasharray=""></path></g></svg>