<svg data-v-9833e8b2="" version="1.1" xmlns="http://www.w3.org/2000/svg" xmlns:xlink="http://www.w3.org/1999/xlink" width="22" height="25"><g data-v-9833e8b2=""><path data-v-9833e8b2="" transform="scale(0.12437810945273632)" fill="none" stroke="currentColor" paint-order="fill stroke markers" d="m127.25032,186.70672l-24.66881,-152.21288a13.85628,13.85628 0 0 0 -8.71877,-11.11878l0,-4.51876a17.85629,17.85629 0 1 0 -35.71259,0l0,4.51876a13.85628,13.85628 0 0 0 -8.71877,11.12503l-24.68131,152.20038l-23.75006,0l0,14.29379l150.00038,0l0,-14.28754l-23.75006,0zm-32.85008,-135.71284l3.47501,21.4313l-43.75011,0l3.47501,-21.4313l36.79384,0l0.00625,0zm6.95002,42.85636l3.47501,21.4313l-57.6439,0l3.47501,-21.4313l50.69388,0zm6.95002,42.85636l3.47501,21.4313l-71.54393,0l3.47501,-21.4313l64.58766,0l0.00625,0zm-32.30008,-125.00031c3.93751,0 7.14377,3.20626 7.14377,7.14377l0,3.57501l-14.28754,0l0,-3.57501c0,-3.93751 3.20626,-7.14377 7.14377,-7.14377z" stroke-width="5" stroke-miterlimit="10" stroke-dasharray=""></path></g></svg>