<svg data-v-9833e8b2="" version="1.1" xmlns="http://www.w3.org/2000/svg" xmlns:xlink="http://www.w3.org/1999/xlink" width="25" height="22.5"><g data-v-9833e8b2=""><path data-v-9833e8b2="" transform="scale(0.12376237623762376)" fill="none" stroke="currentColor" paint-order="fill stroke markers" d="m201.0005,77.76877c-17.50004,-83.43521 -100.00025,-76.63519 -100.00025,-76.63519s-82.50021,-6.80002 -100.00025,76.63519l0,30.95258s0.72,48.78262 35.70759,66.27767l0.78,6.05502s31.28008,9.10252 42.16011,8.58752l21.14505,0.02l21.09005,-0.02c10.87753,0.5125 42.08511,-8.58752 42.08511,-8.58752l1.0625,-6.05502c34.99009,-17.49504 35.97009,-66.27767 35.97009,-66.27767l0,-30.95258zm-99.31025,84.90771l3.19501,10.68253l-4.08001,-0.0425l-4.14501,0.0425l3.16251,-10.68253s-5.23001,-0.295 -5.02001,-5.08751c0.21,-4.79501 5.58501,-4.96251 5.88001,-5.04751c0.025,-0.0075 0.045,-0.155 0.0625,-0.3625c0.0175,0.205 0.0375,0.355 0.0625,0.3625c0.295,0.085 5.67751,0.2525 5.88751,5.04751c0.21,4.79251 -5.00501,5.08751 -5.00501,5.08751zm64.94516,-3.57001c-15.81004,-18.61505 -65.82767,-21.27505 -65.82767,-21.27505l-0.1275,0s-50.01763,2.66001 -65.83017,21.27505c0,0 -17.38254,-1.5875 -16.93504,-56.76014c0,0 5.89751,2.40251 11.05503,-5.67251c5.15751,-8.07502 4.55001,-47.58012 71.83768,-54.53514c67.51017,6.95252 66.61267,46.41262 71.77268,54.48514c5.15751,8.07502 10.99003,5.72751 10.99003,5.72751c0.4475,55.17764 -16.93504,56.75514 -16.93504,56.75514z" stroke-width="5" stroke-miterlimit="10" stroke-dasharray=""></path></g></svg>