<svg data-v-9833e8b2="" version="1.1" xmlns="http://www.w3.org/2000/svg" xmlns:xlink="http://www.w3.org/1999/xlink" width="25" height="20"><g data-v-9833e8b2=""><path data-v-9833e8b2="" transform="scale(0.13227513227513227)" fill="none" stroke="currentColor" paint-order="fill stroke markers" d="m183.62,44.33844l-17.56103,0a4.8241,4.8241 0 0 0 -2.29695,0.61977l-7.91789,-23.84728c-2.53474,-13.56919 -12.08174,-20.11094 -23.8068,-20.11094l-74.37253,0c-13.46801,0 -21.64646,8.7881 -23.81692,20.09829l-7.95837,23.91811a4.85445,4.85445 0 0 0 -2.43102,-0.68554l-17.56861,0a4.88987,4.88987 0 0 0 -4.88987,4.90252l0,4.24227a4.8924,4.8924 0 0 0 4.88987,4.89493l6.65305,1.13583c-2.10216,4.10314 -3.28858,8.80075 -3.28858,14.26486l-2.47402,28.1452a19.71631,19.71631 0 0 0 0.16443,2.4892a8.77545,8.77545 0 0 0 -0.16443,1.59117l0,33.85974a8.72739,8.72739 0 0 0 8.72739,8.72233l13.31875,0a8.72233,8.72233 0 0 0 8.72233,-8.72233l0,-10.87762l114.56153,0l0,10.87762a8.72233,8.72233 0 0 0 8.72739,8.72233l13.32381,0a8.72486,8.72486 0 0 0 8.72233,-8.72233l0,-33.87492a8.77545,8.77545 0 0 0 -0.15937,-1.58864a21.57815,21.57815 0 0 0 0.15937,-2.4892l-2.45885,-28.14773c0,-5.47928 -1.20666,-10.17689 -3.30882,-14.29774l6.49874,-1.10294a4.88987,4.88987 0 0 0 4.8924,-4.8924l0,-4.23215a4.88734,4.88734 0 0 0 -4.8924,-4.8924l0.00506,0zm-143.91591,-5.00876l5.81826,-15.47657l0.08095,-0.36427c0.57677,-3.12921 1.8669,-3.6908 3.77934,-6.10917l91.0254,0c1.92509,2.4892 3.12668,3.11656 3.65539,6.07123l5.9068,15.87879l2.16035,8.62114c-0.49076,6.30902 -8.0722,11.29248 -14.37869,11.29248l-85.8345,0c-6.3242,0 -13.89299,-4.98347 -14.37869,-11.29248l2.1654,-8.62114zm4.07278,73.59339a13.21757,13.21757 0 1 1 13.21757,-13.21251a13.21504,13.21504 0 0 1 -13.21757,13.21251zm73.82359,-9.74938a3.93112,3.93112 0 0 1 -3.93365,3.93112l-37.08255,0a3.92859,3.92859 0 0 1 -3.93112,-3.93112l0,-11.0471a3.93112,3.93112 0 0 1 3.93112,-3.93112l37.08255,0a3.92859,3.92859 0 0 1 3.93365,3.93112l0,11.0471zm28.28939,9.74938a13.21757,13.21757 0 1 1 13.21504,-13.21504a13.21757,13.21757 0 0 1 -13.22263,13.21251l0.00759,0.00253zm0,0" stroke-width="5" stroke-miterlimit="10" stroke-dasharray=""></path></g></svg>