<svg data-v-9833e8b2="" version="1.1" xmlns="http://www.w3.org/2000/svg" xmlns:xlink="http://www.w3.org/1999/xlink" width="25" height="25"><g data-v-9833e8b2=""><path data-v-9833e8b2="" transform="scale(0.14285714285714285)" fill="none" stroke="currentColor" paint-order="fill stroke markers" d="m120.37637,85.32764l0,-37.68275l-86.27672,-27.95412l0.61598,-1.90132l87.65939,28.40221l0,36.22213l23.9878,-9.25855l0,-34.15153l-85.2676,-27.95252l0.62278,-1.89912l86.64347,28.40361l0,36.97063l-27.9851,10.8013z" stroke-width="5" stroke-miterlimit="10" stroke-dasharray=""></path><path data-v-9833e8b2="" transform="scale(0.14285714285714285)" fill="none" stroke="currentColor" paint-order="fill stroke markers" d="m1.47448,28.70608" stroke-width="5" stroke-miterlimit="10" stroke-dasharray=""></path><path data-v-9833e8b2="" transform="scale(0.14285714285714285)" fill="none" stroke="currentColor" paint-order="fill stroke markers" d="m88.52988,173.13493l-87.52988,-28.09182l0,-116.91563l87.52987,28.09182l0,116.91563zm-85.53123,-29.54944l83.53258,26.80909l0,-112.71766l-83.53258,-26.80889l0,112.71746z" stroke-width="5" stroke-miterlimit="10" stroke-dasharray=""></path><path data-v-9833e8b2="" transform="scale(0.14285714285714285)" fill="none" stroke="currentColor" paint-order="fill stroke markers" d="m88.21989,173.04518l-0.60419,-1.90511l85.23383,-27.02954l0,-112.72346l-84.8321,26.6428l-0.599,-1.90691l87.42974,-27.45845l0,116.90923l-0.69713,0.22085l-85.93116,27.25059z" stroke-width="5" stroke-miterlimit="10" stroke-dasharray=""></path><path data-v-9833e8b2="" transform="scale(0.14285714285714285)" fill="none" stroke="currentColor" paint-order="fill stroke markers" d="m174.07389,30.45111l-87.06799,-27.35612l-85.23123,26.82828l-0.59999,-1.90651l85.83082,-27.01675l87.66758,27.54439l-0.59919,1.90671z" stroke-width="5" stroke-miterlimit="10" stroke-dasharray=""></path></g></svg>