<svg data-v-9833e8b2="" version="1.1" xmlns="http://www.w3.org/2000/svg" xmlns:xlink="http://www.w3.org/1999/xlink" width="25" height="25"><g data-v-9833e8b2=""><path data-v-9833e8b2="" transform="scale(0.12437810945273632)" fill="none" stroke="currentColor" paint-order="fill stroke markers" d="m187.76047,25.88006l-24.92006,0c-6.88002,0 -12.44003,5.56001 -12.44003,12.44003l0,74.68019l-24.88006,0l0,-105.76027c0,-3.44001 -2.80001,-6.24002 -6.24002,-6.24002s-6.24002,2.80001 -6.24002,6.24002l0,80.9202l-24.92006,0l0,-12.44003c0,-6.88002 -5.56001,-12.44003 -12.44003,-12.44003l-62.24016,0c-6.88002,-0.04 -12.44003,5.52001 -12.44003,12.40003l0,112.04028c0,6.92002 5.56001,12.48003 12.44003,12.48003l0,-124.52031l62.24016,0l0,124.52031c6.88002,0 12.44003,-5.56001 12.44003,-12.44003l0,-37.36009l24.92006,0l0,43.56011c0,3.44001 2.80001,6.24002 6.24002,6.24002s6.24002,-2.80001 6.24002,-6.24002l0,-18.68005l24.88006,0l0,12.44003c0,6.88002 5.56001,12.44003 12.44003,12.44003l0,-161.80041l24.92006,0l0,161.84041c6.88002,0 12.44003,-5.56001 12.44003,-12.44003l0,-149.40038c0,-6.88002 -5.56001,-12.48003 -12.44003,-12.48003zm-74.72019,112.08028l-24.92006,0l0,-37.36009l24.92006,0l0,37.36009zm37.36009,24.88006l-24.92006,0l0,-37.36009l24.92006,0l0,37.36009z" stroke-width="5" stroke-miterlimit="10" stroke-dasharray=""></path><path data-v-9833e8b2="" transform="scale(0.12437810945273632)" fill="none" stroke="currentColor" paint-order="fill stroke markers" d="m25.88006,132.12033c0,10.32003 8.36002,18.68005 18.68005,18.68005s18.68005,-8.36002 18.68005,-18.68005c0,-10.32003 -18.68005,-31.12008 -18.68005,-31.12008s-18.68005,20.80005 -18.68005,31.12008zm24.92006,6.24002l-12.44003,0l0,-12.44003l12.44003,0l0,12.44003z" stroke-width="5" stroke-miterlimit="10" stroke-dasharray=""></path></g></svg>