<svg data-v-9833e8b2="" version="1.1" xmlns="http://www.w3.org/2000/svg" xmlns:xlink="http://www.w3.org/1999/xlink" width="25" height="22.5"><g data-v-9833e8b2=""><path data-v-9833e8b2="" transform="scale(0.15723270440251572)" fill="none" stroke="currentColor" paint-order="fill stroke markers" d="m1,116.36414l0,-22.87173l2.434,-3.26744l0,-17.34227l1.75937,-2.26208l8.04283,-60.06977l43.48144,0s5.44085,1.39759 7.03747,6.78612c2.01066,6.78612 23.8347,72.13399 23.8347,72.13399s2.80712,6.78612 5.82315,7.03742c3.01609,0.25135 4.27274,-0.50265 4.27274,-0.50265l0,-83.9468s-1.50801,-1.00536 -3.77003,-0.25135c0.12565,-5.52946 -0.12571,-10.80757 -0.12571,-10.80757l12.44123,0l0,118.11864s0.5561,3.77045 4.13798,3.77045l34.87663,0s10.14516,2.30329 13.62086,2.80595l-55.77721,0s-5.05297,11.25154 -16.3626,10.40334c-11.30975,-0.84826 -15.7393,-10.17868 -15.7393,-10.17868l-31.57274,0s-5.74907,11.21244 -17.15295,10.22436s-16.11625,-12.86327 -16.11625,-12.86327s-2.82741,-2.63891 -3.20441,-4.1468c-0.37694,-1.50801 -1.94123,-2.76985 -1.94123,-2.76985" stroke-width="5" stroke-miterlimit="10" stroke-dasharray=""></path><path data-v-9833e8b2="" transform="scale(0.15723270440251572)" fill="none" stroke="currentColor" paint-order="fill stroke markers" d="m12.67511,72.47182l6.40976,-55.80261l37.51595,0s3.77045,0 4.52451,3.95895c0.75412,3.959 14.65445,47.83715 14.65445,47.83715s0.12571,1.9688 -1.9688,1.29858c-1.42423,-1.7175 -11.85479,-12.44123 -11.85479,-12.44123l-0.67022,0.58644l-1.29858,-1.13095s-0.29322,-1.29858 0.54457,-2.13637c0.12565,-0.67022 0.04186,-0.46079 0.04186,-0.46079l3.39309,-2.89038s-0.29322,-0.50271 -1.25672,-0.62842c-0.29322,-0.92158 -0.08379,-2.26208 -0.08379,-2.26208s-0.83779,-0.08373 -0.96344,-0.16751c-0.12565,-0.08379 -0.08379,-0.71214 -0.08379,-0.71214s-0.87965,0.20943 -1.04723,0.04186c-0.16757,-0.16751 -0.12565,-0.41887 -0.41892,-0.50265c-0.29322,-0.08379 -0.67022,0.08379 -1.13101,0.377s-2.34581,2.01072 -3.81196,2.68095c-1.46615,0.67022 -1.21479,-0.16757 -3.5606,0.377s-3.97953,-0.83779 -3.97953,-0.83779s-2.72281,0.29322 -2.9323,0c-0.20943,-0.29322 -2.51338,-6.03211 -4.23082,-7.33069c-1.71751,0.16757 -2.76473,-2.97416 -2.76473,-2.97416s-0.25135,-0.41887 0.67022,-0.54457c0.92158,-0.12565 1.42429,0.16763 1.75937,0.20949c0.33514,0.04192 0.58644,-1.04728 0.33514,-1.46615c0.31415,-0.1571 0.47125,-0.59696 0.47125,-0.59696s-0.25135,-0.377 -0.56551,-0.4084c0.09425,-0.50271 0.1885,-0.97396 0.5969,-0.91111c0.40846,0.06285 0.28275,-0.34561 0.31421,-0.50265c0.0314,-0.1571 -0.1571,-0.87971 -0.21996,-1.09961c-0.0628,-0.21996 -0.47126,-0.377 -0.47126,-0.47126s-0.09425,-0.75401 0.377,-0.94257c0.47126,-0.1885 0.12571,-3.51868 -0.0314,-3.70724c-0.1571,-0.18844 -1.72797,-2.92178 -5.498,-2.67042c-3.77009,0.2513 -4.73353,4.69161 -4.73353,5.1524s0.67022,0.67022 0.67022,1.67558s0.54457,0.62836 0.54457,0.62836s0.16757,1.00536 0,1.67558c-0.16757,0.67022 0.58644,1.50801 0.50265,1.7175c-0.08379,0.20949 -0.71214,0.62836 -1.08915,0.58644c-0.6283,0.377 0,1.63372 -0.12565,1.63372s-0.87965,1.17287 -1.92694,1.17287c-1.04722,0 -2.84846,2.22016 -3.1836,4.48224c0.08379,2.51338 -0.08379,7.1212 -0.08379,7.1212s-0.62836,1.21479 -1.80123,-0.25136c-1.38236,0 -2.17829,-0.29322 -2.30394,0.20949c-0.12565,0.50265 4.27104,16.49125 2.85733,17.90495s-1.22526,3.01591 -1.22526,3.01591s0.09425,2.16765 -0.94245,2.16765s-9.92421,-2.66125 -9.92421,-2.66125" stroke-width="5" stroke-miterlimit="10" stroke-dasharray=""></path><path data-v-9833e8b2="" transform="scale(0.15723270440251572)" fill="none" stroke="currentColor" paint-order="fill stroke markers" d="m40.77991,35.41666s-0.12565,0.62842 0,0.91111c0.12565,0.28281 0.15816,0.62606 0.15816,0.62606l-1.06927,0.34784l0.91111,-1.88502z" stroke-width="5" stroke-miterlimit="10" stroke-dasharray=""></path><path data-v-9833e8b2="" transform="scale(0.15723270440251572)" fill="none" stroke="currentColor" paint-order="fill stroke markers" d="m40.93807,32.40064s-0.42092,0.93769 -0.12912,1.35185c0.29181,0.41416 -1.0815,0.51747 -1.0815,0.51747l-0.12565,-1.74367l1.33627,-0.12565z" stroke-width="5" stroke-miterlimit="10" stroke-dasharray=""></path><path data-v-9833e8b2="" transform="scale(0.15723270440251572)" fill="none" stroke="currentColor" paint-order="fill stroke markers" d="m49.68259,54.70686s2.89038,-2.76473 8.54549,-2.01072c1.13101,-1.13095 3.39309,-1.64289 3.39309,-0.13029c-1.75937,1.51272 -4.14709,0.60025 -4.14709,0.60025s-2.38773,2.04341 -7.79148,1.54076m7.682,1.82222l-3.44019,2.95329s-0.52364,-0.16757 -0.35607,-0.54457c0.16757,-0.377 0.75401,-0.75401 0.75401,-0.75401s-0.12565,-0.85872 -1.2148,-0.17804s-1.00536,1.4347 -3.77003,1.14148c-2.76473,-0.29322 -2.72287,0.04192 -4.64981,-0.58644c-1.92688,-0.62842 -3.22546,-0.33514 -2.26202,1.17293c0.96344,1.50801 0.54457,2.47145 3.35117,2.93224c2.80659,0.46079 11.11125,1.29858 11.58774,1.29858c0.47649,0 2.90608,5.00582 3.40879,9.59271c0.50265,4.58695 2.51338,9.86506 3.58153,11.43592c2.19922,0 3.70724,-0.43986 4.7126,-0.94251c1.00536,-0.50271 0.87972,-0.70685 1.38237,-0.73831c0.50265,-0.03146 0.377,1.68081 0.377,1.68081s0.92158,-0.54457 0.96344,-1.13101c0.46079,-0.67022 0.5865,0.71208 0.5865,0.71208s0.87965,0.54457 0.92158,0.92158c0.04186,0.377 2.55524,0.377 1.92688,-0.87965c-0.6283,-1.25672 -2.42959,-5.27811 -2.42959,-5.27811s-1.80123,-0.08379 -2.13637,-0.29322c-0.33508,-0.20949 -0.41887,-1.13107 -0.41887,-1.13107s-2.9323,0.54457 -2.9323,-0.54452c0,-1.08915 -0.08379,-3.01609 -0.08379,-3.01609s0.16757,-0.62836 0.62836,-0.62836c0.12565,-0.41887 -0.08379,-0.79587 -0.16757,-0.92158c-0.08379,-0.12565 -2.53795,-3.29119 -2.53795,-3.29119s-0.28275,-0.377 0.09425,-1.31945c-0.94251,-1.79071 -4.05261,-4.61812 -4.05261,-5.27787c0,-0.6597 -1.42082,-3.08676 -1.95492,-3.36951s1.09961,-1.28811 1.09961,-1.28811s-0.84826,-0.62842 -0.84826,-0.97397c0,-0.34561 -2.01072,-0.37706 -2.12067,-0.75406m-28.83529,4.40639s0.65976,2.2619 1.0367,2.2619c0.377,0 0.47126,4.99512 1.88496,6.22032c-1.46086,0.55792 -2.14484,0.36942 -2.27049,-0.51024c-0.12571,-0.87971 -0.65117,-4.46124 -0.65117,-4.46125s-0.35419,-0.31421 -0.41704,-0.5655c-0.06285,-0.25136 0.08002,-2.24603 0.41704,-2.94524m4.49247,14.19772s9.99018,0.03363 11.49813,0.50488c0,1.69646 0.28275,2.35615 -0.8482,2.16765c-1.13101,-0.1885 -10.64993,-2.67254 -10.64993,-2.67254" stroke-width="5" stroke-miterlimit="10" stroke-dasharray=""></path><path data-v-9833e8b2="" transform="scale(0.15723270440251572)" fill="none" stroke="currentColor" paint-order="fill stroke markers" d="m46.01545,78.08131s-0.50265,-2.13637 0,-2.57623s1.44522,-0.31415 1.63372,-1.00536c0.1885,-0.69115 0.377,-2.01067 0,-3.14173c-0.377,-1.13101 4.9639,0.31421 4.9639,0.31421s2.57623,12.69258 3.20459,14.45195c1.0053,0.50265 1.69651,0.377 1.82216,2.89038c0.12571,2.51338 -2.13637,0.69115 -2.13637,0.69115s-2.73175,-8.591 -3.78497,-9.07089c-1.05328,-0.47996 -5.70303,-2.55348 -5.70303,-2.55348m16.33726,12.18993s-1.63372,-0.25136 -0.377,-1.25672c1.25666,-1.0053 3.1836,-1.04728 4.02139,-0.87965c0.83779,0.16757 0.62836,-0.79593 3.01608,-0.58644c0.67022,0.58644 -1.25672,1.17282 -2.17829,1.67558c-0.92158,0.50265 -3.51938,1.14941 -4.18896,1.04723" stroke-width="5" stroke-miterlimit="10" stroke-dasharray=""></path><path data-v-9833e8b2="" transform="scale(0.15723270440251572)" fill="none" stroke="currentColor" paint-order="fill stroke markers" d="m85.64372,86.50109l14.82896,0l0,2.39907l-14.82896,0l0,-2.39907z" stroke-width="5" stroke-miterlimit="10" stroke-dasharray=""></path></g></svg>