<svg data-v-9833e8b2="" version="1.1" xmlns="http://www.w3.org/2000/svg" xmlns:xlink="http://www.w3.org/1999/xlink" width="25" height="15"><g data-v-9833e8b2=""><path data-v-9833e8b2="" transform="scale(0.12690355329949238)" fill="none" stroke="currentColor" paint-order="fill stroke markers" d="m14.28753,43.80011l48.38762,0l3.41251,-34.12509l-2.27501,0l0,-5.38751l18.50005,-3.28751l36.42509,0l1.425,8.68752l-1.1375,0l0.2875,3.00001l0.85,6.25002l10.00003,1.25l2.27501,15.86254l0,-4.18751c1.1375,0.6 2.27501,1.25 3.75001,2.10001l0,1.8l5.12501,-3.88751l0,-6.25002a21.01255,21.01255 0 0 1 3.41251,2.10001l0,1.8l5.12501,-3.88751l0,-6.25002c1.1375,0.6 2.27501,1.25 3.75001,2.10001l0,1.8l5.12501,-3.88751l0,-6.25002c1.1375,0.6 2.27501,1.25 3.75001,2.10001l0,1.5l5.12501,-3.88751l0,-5.98752l3.75001,2.10001l0,1.8a16.96254,16.96254 0 0 1 3.41251,-1.5l3.98751,-5.68751l1.7125,3.88751l-1.1375,1.25l0.2875,0c0.85,0 1.7125,0.3 2.27501,0.3l5.97502,-3.28751l-0.2875,4.18751l-1.7125,0.6a11.77503,11.77503 0 0 1 2.85001,2.70001l0.2875,0.3l6.25002,1.5l-2.50001,3.28751l-1.7125,-0.6a13.33753,13.33753 0 0 1 0.575,3.28751l4.83751,3.28751l-3.75001,2.10001l-1.425,-0.9a22.91256,22.91256 0 0 1 -1.1375,4.18751l2.50001,4.78751l-3.98751,0l-0.575,-1.8c-0.2875,0.6 -0.85,0.9 -1.1375,1.5l-1.98751,2.10001l2.27501,4.48751l-3.98751,0l-1.1375,-2.10001l-3.98751,3.88751l2.27501,4.48751l-3.98751,0l-0.85,-2.10001l-3.98751,3.88751l2.27501,4.48751l-3.98751,0l-0.85,-2.10001l-3.98751,3.88751l2.27501,4.48751l-3.98751,0l-0.85,-1.8l-3.98751,3.88751l2.27501,4.48751l-3.98751,0l-0.85,-1.8l-3.98751,3.88751l2.27501,4.48751l-3.98751,0l-0.85,-1.8l-2.85001,2.70001l-0.2875,0.3a11.25003,11.25003 0 0 1 -11.10003,1.8l-2.50001,-0.9a14.92504,14.92504 0 0 1 -1.1375,5.38751l-0.2875,0a27.17507,27.17507 0 0 1 -1.425,8.38752l0.575,-0.3c0.575,0.3 1.1375,0.3 1.425,0.6a15.80004,15.80004 0 0 1 -5.12501,6.88752l-0.2875,0a26.68757,26.68757 0 0 1 -4.27501,5.68751l-0.85,0.9l0.575,0a5.21251,5.21251 0 0 0 1.1375,1.5a14.36254,14.36254 0 0 1 -7.68752,3.28751l-0.2875,-0.3a29.77507,29.77507 0 0 1 -7.68752,3.00001l0.575,0.3c0,0.6 0.2875,1.25 0.2875,1.8a14.71254,14.71254 0 0 1 -8.25002,-1.25l0,-0.3a23.61256,23.61256 0 0 1 -7.97502,-1.5l0.2875,0.6c-0.2875,0.6 -0.2875,1.25 -0.575,1.5a17.72504,17.72504 0 0 1 -6.55002,-5.38751l0,-0.3a25.75006,25.75006 0 0 1 -5.41251,-4.48751l-0.85,-0.9l0,0.6a5.00001,5.00001 0 0 0 -1.425,1.25a15.98754,15.98754 0 0 1 -3.12501,-8.08752l0.2875,-0.3a33.36258,33.36258 0 0 1 -2.85001,-8.08752l0,1.25c-0.575,0 -1.1375,0.3 -1.7125,0.3l0,-3.00001l-26.18757,0l0,4.78751l-6.25002,0a14.08754,14.08754 0 0 1 0.2875,3.28751l0,1.8l0.575,-0.6l0.85,0a8.05002,8.05002 0 0 1 -1.98751,4.48751l-0.2875,0a27.18757,27.18757 0 0 1 -2.27501,5.08751l0.85,0c0.2875,0.3 0.575,0.3 0.85,0.6a10.86253,10.86253 0 0 1 -3.75001,3.00001l-0.2875,-0.3a15.20004,15.20004 0 0 1 -4.55001,3.00001l0.85,0.3c0,0.3 0.2875,0.6 0.2875,0.9a8.36252,8.36252 0 0 1 -4.55001,0.6l-0.2875,-0.3a15.43754,15.43754 0 0 1 -3.75001,0.3l-1.7125,0l0.575,0.6l0,0.9a7.32502,7.32502 0 0 1 -4.27501,-2.10001l0,-0.3a24.68756,24.68756 0 0 1 -4.83751,-2.40001l0,0.9c-0.2875,0.3 -0.2875,0.6 -0.575,0.9a11.25003,11.25003 0 0 1 -2.85001,-3.88751l0.2875,-0.3a16.25004,16.25004 0 0 1 -2.85001,-4.78751l-0.2875,0.9c-0.2875,0 -0.575,0.3 -0.85,0.3a9.66252,9.66252 0 0 1 -0.575,-4.78751l0.2875,-0.3a17.95005,17.95005 0 0 1 -0.2875,-3.88751l0,-1.8l-0.575,0.6a1.0125,1.0125 0 0 1 -0.85,-0.3a8.05002,8.05002 0 0 1 1.98751,-4.48751l0.2875,0a27.18757,27.18757 0 0 1 2.27501,-5.08751l-0.85,0c-0.2875,-0.3 -0.575,-0.3 -0.85,-0.6a10.86253,10.86253 0 0 1 3.75001,-3.00001l0.2875,0.3a15.20004,15.20004 0 0 1 4.55001,-3.00001l-0.85,-0.3c0,-0.3 -0.2875,-0.6 -0.2875,-0.9a9.90002,9.90002 0 0 1 3.98751,-0.6l-3.41251,-19.46255l0,-9.87502l2.41251,-0.25zm119.2503,-0.6l0.85,5.08751a9.37502,9.37502 0 0 1 6.25002,-2.10001a8.75002,8.75002 0 0 1 5.97502,3.28751a9.42502,9.42502 0 0 1 -1.1375,12.87503a8.42502,8.42502 0 0 1 -6.25002,2.10001a7.96252,7.96252 0 0 1 -2.50001,-0.6l0,0.6l0.2875,1.5l-0.85,0.3l0,0.3l-0.85,0l-4.83751,1.8a22.58756,22.58756 0 0 0 5.97502,3.00001a7.78752,7.78752 0 0 0 7.40002,-0.9l0.2875,-0.3l39.5626,-39.5126a11.32503,11.32503 0 0 0 3.41251,-7.50002a10.60003,10.60003 0 0 0 -2.27501,-7.50002a9.73752,9.73752 0 0 0 -6.55002,-3.58751a10.73753,10.73753 0 0 0 -7.68752,2.40001l-37.00009,28.75007l-0.0625,0zm1.7125,12.27503l0.2875,1.5a6.62502,6.62502 0 0 0 0.85,1.5a6.68752,6.68752 0 0 0 3.12501,1.8a4.16251,4.16251 0 0 0 3.12501,-1.25a7.25002,7.25002 0 0 0 1.7125,-3.28751a4.63751,4.63751 0 0 0 -1.1375,-3.28751a6.68752,6.68752 0 0 0 -3.12501,-1.8a4.16251,4.16251 0 0 0 -3.12501,1.25a7.25002,7.25002 0 0 0 -1.7125,3.28751l0,0.2875zm31.25008,-23.35006a9.33752,9.33752 0 0 0 -5.97502,-3.28751a8.06252,8.06252 0 0 0 -6.25002,2.10001a10.13753,10.13753 0 0 0 -3.12501,6.25002a9.06252,9.06252 0 0 0 1.98751,6.58752a8.18752,8.18752 0 0 0 5.97502,3.28751a8.06252,8.06252 0 0 0 6.25002,-2.10001a8.88752,8.88752 0 0 0 3.12501,-6.25002a8.28752,8.28752 0 0 0 -1.9375,-6.58752l-0.05,0zm-2.27501,6.25002a5.95001,5.95001 0 0 0 -1.1375,-3.58751a6.68752,6.68752 0 0 0 -3.12501,-1.8a4.16251,4.16251 0 0 0 -3.12501,1.25a7.25002,7.25002 0 0 0 -1.7125,3.28751a4.63751,4.63751 0 0 0 1.1375,3.28751a6.70002,6.70002 0 0 0 3.12501,1.8a4.16251,4.16251 0 0 0 3.12501,-1.25a3.32501,3.32501 0 0 0 1.75,-2.95001l-0.0375,-0.0375zm19.06255,-20.96255a9.33752,9.33752 0 0 0 -5.97502,-3.28751a8.06252,8.06252 0 0 0 -6.25002,2.10001a10.13753,10.13753 0 0 0 -3.12501,6.25002a9.06252,9.06252 0 0 0 1.98751,6.58752a9.32502,9.32502 0 0 0 5.97502,3.28751a8.06252,8.06252 0 0 0 6.25002,-2.10001a10.13753,10.13753 0 0 0 3.12501,-6.25002a8.28752,8.28752 0 0 0 -1.9375,-6.55002l-0.05,-0.0375zm-2.27501,6.25002a5.95001,5.95001 0 0 0 -1.1375,-3.58751a6.70002,6.70002 0 0 0 -3.12501,-1.8a4.16251,4.16251 0 0 0 -3.12501,1.25a7.25002,7.25002 0 0 0 -1.7125,3.28751a4.63751,4.63751 0 0 0 1.1375,3.28751a6.68752,6.68752 0 0 0 3.12501,1.8a4.16251,4.16251 0 0 0 3.12501,-1.25a3.32501,3.32501 0 0 0 1.7625,-2.91251l-0.05,-0.075zm-70.30018,19.76255l0,-33.52508l-20.43755,0l0,33.52508l20.43755,0zm-9.38752,19.76255a15.48754,15.48754 0 0 0 -10.52503,4.48751a16.01254,16.01254 0 0 0 -4.27501,11.07503a16.57504,16.57504 0 0 0 4.27501,11.07503a14.45004,14.45004 0 0 0 10.52503,4.48751a15.48754,15.48754 0 0 0 10.52503,-4.48751a16.01254,16.01254 0 0 0 4.27501,-11.07503a16.57504,16.57504 0 0 0 -4.27501,-11.07503a15.48754,15.48754 0 0 0 -10.47503,-4.42501l-0.05,-0.0625zm8.82502,6.58752a11.95003,11.95003 0 0 0 -17.65004,0a13.48753,13.48753 0 0 0 0,18.56255a11.95003,11.95003 0 0 0 17.65004,0a13.47503,13.47503 0 0 0 3.75001,-9.27502a12.50003,12.50003 0 0 0 -3.70001,-9.23752l-0.05,-0.05zm-21.91256,-19.46255l0,-1.5l-5.12501,0l-8.53752,6.58752l-1.98751,-2.10001l5.41251,-4.18751l-9.67502,0l0,14.37504l5.97502,0l1.1375,-1.25l0.2875,0a26.67507,26.67507 0 0 1 4.27501,-5.68751l0.85,-0.9l-0.575,0a5.21251,5.21251 0 0 0 -1.1375,-1.5a14.36254,14.36254 0 0 1 7.68752,-3.28751l0.2875,0.3c0.6,-0.4875 0.8875,-0.775 1.1625,-0.775l-0.0375,-0.075zm25.90007,15.00004a17.67504,17.67504 0 0 0 -12.81253,-5.68751a16.76254,16.76254 0 0 0 -12.81253,5.68751a19.55005,19.55005 0 0 0 -5.41251,13.47503a18.50005,18.50005 0 0 0 5.41251,13.47503a17.67504,17.67504 0 0 0 12.81253,5.68751a16.76254,16.76254 0 0 0 12.82503,-5.62501a19.01255,19.01255 0 0 0 5.41251,-13.47503a20.93755,20.93755 0 0 0 -5.41251,-13.50003l-0.0125,-0.0375zm-93.92524,7.78752l1.425,0l-0.575,-0.6a1.1375,1.1375 0 0 1 0.2875,-0.9a7.32502,7.32502 0 0 1 4.27501,2.10001l0,0.3a14.87504,14.87504 0 0 1 3.12501,1.5l1.1375,0l0,-18.86255l31.87508,0l0.2875,-4.18751l0,-3.87501l-45.53761,0l0,4.48751l3.75001,20.00005l-0.05,0.0375zm-0.2875,11.07503a6.52502,6.52502 0 0 0 -5.12501,2.40001a7.67502,7.67502 0 0 0 -2.27501,5.38751a7.17502,7.17502 0 0 0 2.27501,5.38751a6.97502,6.97502 0 0 0 5.12501,2.40001a6.52502,6.52502 0 0 0 5.12501,-2.40001a7.67502,7.67502 0 0 0 2.27501,-5.38751a7.17502,7.17502 0 0 0 -2.27501,-5.38751a6.12502,6.12502 0 0 0 -5.07501,-2.36251l-0.05,-0.0375zm4.55001,3.00001a5.97502,5.97502 0 0 0 -8.53752,0a6.76252,6.76252 0 0 0 0,8.98752a5.97502,5.97502 0 0 0 8.53752,0a6.25002,6.25002 0 0 0 1.7125,-4.48751a6.78752,6.78752 0 0 0 -1.6625,-4.47501l-0.05,-0.025zm1.7125,-1.8a8.16252,8.16252 0 0 0 -6.25002,-2.70001a8.61252,8.61252 0 0 0 -6.25002,2.70001a9.03752,9.03752 0 0 0 -2.50001,6.58752a9.55002,9.55002 0 0 0 2.50001,6.58752a8.16252,8.16252 0 0 0 6.25002,2.70001a8.61252,8.61252 0 0 0 6.25002,-2.70001a9.03752,9.03752 0 0 0 2.50001,-6.58752a8.57502,8.57502 0 0 0 -2.45001,-6.55002l-0.05,-0.0375zm58.06265,-41.6126l0.575,-0.6l0.85,0l0,-33.23758l-16.52504,0l-3.41251,33.82509l18.51255,0.0125z" stroke-width="5" stroke-miterlimit="10" stroke-dasharray=""></path></g></svg>