<svg data-v-9833e8b2="" version="1.1" xmlns="http://www.w3.org/2000/svg" xmlns:xlink="http://www.w3.org/1999/xlink" width="25" height="15"><g data-v-9833e8b2=""><path data-v-9833e8b2="" transform="scale(0.07042253521126761)" fill="none" stroke="currentColor" paint-order="fill stroke markers" d="m1,2l273.99997,0l0,99.99999l-273.99997,0l0,-99.99999z" stroke-width="5" stroke-miterlimit="10" stroke-dasharray=""></path><path data-v-9833e8b2="" transform="scale(0.07042253521126761)" fill="none" stroke="currentColor" paint-order="fill stroke markers" d="m283.99998,1l70.99999,0l0,101.99999l-70.99999,0l0,-101.99999z" stroke-width="5" stroke-miterlimit="10" stroke-dasharray=""></path><path data-v-9833e8b2="" transform="scale(0.07042253521126761)" fill="none" stroke="currentColor" paint-order="fill stroke markers" d="m292.99999,8.99999l52,0l0,36l-52,0l0,-36z" stroke-width="5" stroke-miterlimit="10" stroke-dasharray=""></path><path data-v-9833e8b2="" transform="scale(0.07042253521126761)" fill="none" stroke="currentColor" paint-order="fill stroke markers" d="m295.65834,75c0,-5.71363 4.85179,-10.34167 10.84166,-10.34167c5.98987,0 10.84166,4.62804 10.84166,10.34167c0,5.71363 -4.85179,10.34167 -10.84166,10.34167c-5.98987,0 -10.84166,-4.62804 -10.84166,-10.34167z" stroke-width="5" stroke-miterlimit="10" stroke-dasharray=""></path><path data-v-9833e8b2="" transform="scale(0.07042253521126761)" fill="none" stroke="currentColor" paint-order="fill stroke markers" d="m325.65833,74.5c0,-3.77992 3.06174,-6.84166 6.84167,-6.84166c3.77992,0 6.84166,3.06174 6.84166,6.84166c0,3.77993 -3.06174,6.84167 -6.84166,6.84167c-3.77992,0 -6.84167,-3.06174 -6.84167,-6.84167z" stroke-width="5" stroke-miterlimit="10" stroke-dasharray=""></path><path data-v-9833e8b2="" transform="scale(0.07042253521126761)" fill="none" stroke="currentColor" paint-order="fill stroke markers" d="m12.00001,14c0,0 0,81.02468 -0.64285,80.07144c-0.64285,-0.95325 238.64492,0.92856 238,0c-0.64492,-0.92856 17.64284,-17.07144 17,-18c-0.64284,-0.92856 0.64284,-63.07144 0,-64c-0.64284,-0.92856 -254.35715,1.92856 -254.35715,1.92856z" stroke-width="5" stroke-miterlimit="10" stroke-dasharray=""></path><path data-v-9833e8b2="" transform="scale(0.07042253521126761)" fill="none" stroke="currentColor" paint-order="fill stroke markers" d="m120,13l1,80" stroke-width="5" stroke-miterlimit="10" stroke-dasharray=""></path><path data-v-9833e8b2="" transform="scale(0.07042253521126761)" fill="none" stroke="currentColor" paint-order="fill stroke markers" d="m140,13.99999l1,80" stroke-width="5" stroke-miterlimit="10" stroke-dasharray=""></path><path data-v-9833e8b2="" transform="scale(0.07042253521126761)" fill="none" stroke="currentColor" paint-order="fill stroke markers" d="m216.99998,25l14,0l0,57l-14,0l0,-57z" stroke-width="5" stroke-miterlimit="10" stroke-dasharray=""></path><path data-v-9833e8b2="" transform="scale(0.07042253521126761)" fill="none" stroke="currentColor" paint-order="fill stroke markers" d="m9,106.99999l334,0l0,14l-334,0l0,-14z" stroke-width="5" stroke-miterlimit="10" stroke-dasharray=""></path><path data-v-9833e8b2="" transform="scale(0.07042253521126761)" fill="none" stroke="currentColor" paint-order="fill stroke markers" d="m17.85298,130.1567l-0.49582,47.91473l72.50122,0l25.45255,-17.69388l88.6983,0l26.22384,17.69388l104.12409,0l0,-51l-316.50417,3.08527z" stroke-width="5" stroke-miterlimit="10" stroke-dasharray=""></path><path data-v-9833e8b2="" transform="scale(0.07042253521126761)" fill="none" stroke="currentColor" paint-order="fill stroke markers" d="m6,186.99999l95,0l0,12l-95,0l0,-12z" stroke-width="5" stroke-miterlimit="10" stroke-dasharray=""></path><path data-v-9833e8b2="" transform="scale(0.07042253521126761)" fill="none" stroke="currentColor" paint-order="fill stroke markers" d="m224.99999,185l127.99999,0l0,12l-127.99999,0l0,-12z" stroke-width="5" stroke-miterlimit="10" stroke-dasharray=""></path><path data-v-9833e8b2="" transform="scale(0.07042253521126761)" fill="none" stroke="currentColor" paint-order="fill stroke markers" d="m251.94175,152.71711l19.82942,0l0,-7.93177l20.34122,0l0,7.93177l19.82942,0l0,8.13649l-19.82942,0l0,7.93177l-20.34122,0l0,-7.93177l-19.82942,0l0,-8.13649z" stroke-width="5" stroke-miterlimit="10" stroke-dasharray=""></path></g></svg>