<svg data-v-9833e8b2="" version="1.1" xmlns="http://www.w3.org/2000/svg" xmlns:xlink="http://www.w3.org/1999/xlink" width="25" height="25"><g data-v-9833e8b2=""><path data-v-9833e8b2="" transform="scale(0.12376237623762376)" fill="none" stroke="currentColor" paint-order="fill stroke markers" d="m100.41755,78.29916c-11.93011,0 -21.87187,9.94176 -21.87187,21.87187s9.94176,21.87187 21.87187,21.87187s21.87187,-9.94176 21.87187,-21.87187s-9.94176,-21.87187 -21.87187,-21.87187zm0,37.11597c-8.61613,0 -15.2441,-7.29069 -15.2441,-15.2441s7.29069,-15.2441 15.2441,-15.2441c8.61613,0 15.2441,7.29069 15.2441,15.2441c0,7.95341 -6.62797,15.2441 -15.2441,15.2441zm66.94125,51.69715c-9.27904,9.27885 6.62778,23.19731 14.58118,12.59283c7.29069,-8.61613 -5.96506,-20.54624 -14.58118,-12.59283zm10.60448,10.60448c-4.63942,4.63942 -12.59283,-2.65107 -7.95341,-7.95341c5.30234,-4.63942 13.25575,3.31398 7.95341,7.95341c-1.98835,2.65107 2.65107,-1.98835 0,0zm-141.83571,-151.77748c0,-11.93011 -18.55808,-12.59303 -19.2208,-0.66291c-0.66272,13.25575 19.2208,13.91846 19.2208,0.66291zm-5.96506,3.9767c-4.63962,5.30214 -12.59303,-2.65127 -7.29069,-7.29069c4.63942,-5.30234 12.59283,2.65107 7.29069,7.29069c-1.98835,1.98835 1.32544,-0.66291 0,0z" stroke-width="5" stroke-miterlimit="10" stroke-dasharray=""></path><path data-v-9833e8b2="" transform="scale(0.12376237623762376)" fill="none" stroke="currentColor" paint-order="fill stroke markers" d="m181.27727,143.25206c14.58118,-26.51149 14.58118,-59.65056 0,-86.16205l10.60448,-10.60448c10.60448,-10.60448 10.60448,-27.83693 0,-37.77869c-9.94176,-9.94176 -27.17421,-9.94176 -37.77869,0l-10.60448,10.60448c-26.51149,-14.58118 -59.65056,-14.58118 -86.16205,0l-10.60448,-10.60448c-10.60448,-9.94176 -27.17421,-10.60448 -37.77869,0s-10.60448,27.17421 0,37.77869l10.60448,10.60448c-13.91846,26.51149 -13.91846,59.65056 0,86.16205l-10.60448,10.60448c-10.60448,10.60448 -10.60448,27.83693 0,37.77869c10.60448,10.60448 27.17421,9.94176 37.77869,0l11.26739,-11.26739c26.5113,13.91846 59.65056,13.91846 86.16186,0l11.26739,11.26739c9.94176,9.94176 27.17402,10.60448 37.77869,0c10.60448,-10.60448 10.60448,-27.83693 0,-37.77869l-11.93011,-10.60448zm6.62778,44.40646c-7.95341,7.95341 -20.54624,7.95341 -28.49965,0l-15.2441,-14.58118l-1.98835,1.32544c-25.84858,14.58138 -58.32493,14.58138 -84.17351,0l-1.32563,-1.32544l-14.58118,14.58118c-7.29069,7.29069 -19.2208,7.95341 -27.17421,1.32563c-9.27904,-7.29069 -9.94176,-21.87187 -1.32563,-29.82528l13.91846,-15.2441l-1.32544,-1.98835c-14.58138,-25.84858 -14.58138,-58.32493 0,-84.17351l1.32544,-1.98835l-14.58118,-13.91846c-7.29069,-7.95341 -7.29069,-21.20915 0,-29.16256c7.95341,-7.29069 21.20915,-7.29069 29.16256,0l13.91846,14.58118l1.98835,-1.32544c25.84858,-14.58138 58.32493,-14.58138 84.17351,0l2.65107,1.32544l13.91846,-13.91846c7.95341,-7.95341 21.20915,-7.95341 29.16256,0.66291c7.29069,7.95341 7.29069,20.54624 -0.66272,28.49965l-13.91846,13.25575l1.32544,1.98835c14.58138,25.84858 14.58138,58.32493 0,84.17351l-1.32544,1.98835l14.58118,14.58118c7.95341,7.95341 7.95341,21.20915 0,29.16256z" stroke-width="5" stroke-miterlimit="10" stroke-dasharray=""></path><path data-v-9833e8b2="" transform="scale(0.12376237623762376)" fill="none" stroke="currentColor" paint-order="fill stroke markers" d="m173.98658,100.17104c0,-29.82528 -19.2208,-57.66221 -47.05773,-68.9296c-28.49965,-11.2672 -62.30163,-2.65107 -82.18515,20.54643c-20.54624,23.86022 -23.86022,58.98765 -7.29069,86.16186c15.90682,25.84858 47.05773,39.76704 76.88301,34.4647c34.4647,-6.62778 59.65056,-37.77869 59.65056,-72.24339zm-44.40646,60.31328c-25.84858,11.93011 -56.99949,6.62797 -76.88301,-13.91846c-19.88352,-19.88352 -25.18586,-51.03424 -12.59283,-76.88282c12.59283,-24.52314 39.76704,-39.76704 66.94106,-37.11597c28.49984,2.65107 52.36007,23.86022 58.98784,51.69715c7.29069,30.488 -8.61613,62.96455 -36.45306,76.2201c-9.27904,4.63962 13.91846,-5.96506 0,0zm45.06918,-124.60327c11.93011,0 12.59303,-18.55808 0.66291,-19.2208c-13.25575,-0.66272 -13.91846,19.2208 -0.66291,19.2208zm-3.9767,-13.25575c4.63962,-4.63942 12.59303,2.65107 7.95341,7.95341c-5.30214,4.63942 -13.25555,-3.31398 -7.95341,-7.95341c0.66291,-1.32563 -1.32544,0.66272 0,0zm-151.11476,144.48698c-8.61613,8.61613 4.63962,22.53459 13.91846,13.91846c8.61632,-8.61632 -5.30214,-22.53479 -13.91846,-13.91846c-3.31379,3.9767 3.9767,-3.31398 0,0zm10.60467,10.60448c-4.63962,4.63942 -12.59303,-2.65107 -7.95341,-7.95341c5.30214,-4.63942 13.25555,3.31398 7.95341,7.95341z" stroke-width="5" stroke-miterlimit="10" stroke-dasharray=""></path></g></svg>