<svg data-v-9833e8b2="" version="1.1" xmlns="http://www.w3.org/2000/svg" xmlns:xlink="http://www.w3.org/1999/xlink" width="19.5" height="25"><g data-v-9833e8b2=""><path data-v-9833e8b2="" transform="scale(0.14792899408284024)" fill="none" stroke="currentColor" paint-order="fill stroke markers" d="m114.42294,168.6348l10.14924,-4.82775l-23.97428,-50.45052l7.13244,0l0,-11.23558l-12.46468,0l-15.81117,-33.28446c7.01681,-5.11857 11.63069,-13.3014 11.63069,-22.58912c0,-13.57855 -9.76018,-24.92916 -22.67974,-27.52429l0,-17.72309l-11.2385,0l0,17.7229c-12.92503,2.59493 -22.68521,13.94593 -22.68521,27.52429c0,9.28791 4.61661,17.47055 11.63597,22.58912l-15.81059,33.28446l-12.46488,0l0,11.23558l7.12658,0l-23.96881,50.45071l10.14885,4.82775l26.25983,-55.27846l19.75786,0l0,11.23577l11.2387,0l0,-11.23577l19.75005,0l26.26803,55.27846l-0.00039,0zm-51.63568,-139.23863c9.40354,0 17.06196,7.55744 17.06196,16.85102s-7.65842,16.8559 -17.06196,16.8559c-9.41155,0 -17.06996,-7.56252 -17.06996,-16.8559s7.65822,-16.85102 17.06996,-16.85102zm5.61818,72.72479l0,-11.23558l-11.2385,0l0,11.23558l-14.41996,0l13.58109,-28.58855c2.08204,0.48574 4.22696,0.80371 6.45959,0.80371c2.22774,0 4.3672,-0.31836 6.45138,-0.80371l13.58402,28.58855l-14.41781,0l0.0002,0z" stroke-width="5" stroke-miterlimit="10" stroke-dasharray=""></path></g></svg>