<svg data-v-9833e8b2="" version="1.1" xmlns="http://www.w3.org/2000/svg" xmlns:xlink="http://www.w3.org/1999/xlink" width="24.5" height="25"><g data-v-9833e8b2=""><path data-v-9833e8b2="" transform="scale(0.16339869281045752)" fill="none" stroke="currentColor" paint-order="fill stroke markers" d="m131.514,139.72301l0,-22.64654c3.70313,-1.42188 6.33205,-5.00783 6.33205,-9.21096l0,-29.6114c0,-5.45119 -4.41798,-9.87112 -9.87112,-9.87112l-13.48832,0c-5.45119,0 -9.87112,4.41993 -9.87112,9.87112l0,29.6114c0,4.62501 3.18751,8.49612 7.48244,9.56252l0,22.29302l-5.26173,0l0,-19.99614l-6.84767,0l-2.62501,-88.53147l-8.65237,0l-2.62501,88.53147l-5.1172,0l-2.55079,-76.83613l-8.65237,0l-2.54883,76.83418l-3.53321,0l0,-56.72085l-45.14074,0l0,76.71894l-17.54301,0l0,12.86331l140.33824,0l0,-12.86331l-9.82424,0l0,0.00195zm-6.00197,-21.98638l-3.80665,5.72267l-3.80665,-5.72267l7.6133,0zm-8.96682,5.56837l2.62891,3.95509l-2.62891,3.95509l0,-7.91018zm10.52542,16.41801l-10.52542,0l0,-0.9043l5.15822,-7.75783l5.3672,8.07033l0,0.5918zm0,-8.19533l-2.83985,-4.26564l2.83985,-4.26564l0,8.53127z" stroke-width="5" stroke-miterlimit="10" stroke-dasharray=""></path><path data-v-9833e8b2="" transform="scale(0.16339869281045752)" fill="none" stroke="currentColor" paint-order="fill stroke markers" d="m22.98638,68.38298l11.57815,0l0,68.53338l-11.57815,0l0,-68.53338zm92.06859,4.38673l-0.42188,0c-3.02345,0 -5.48439,2.46094 -5.48439,5.48439l0,29.6114c0,3.0254 2.46094,5.48439 5.48439,5.48439l0.42188,0l0,-40.58018z" stroke-width="5" stroke-miterlimit="10" stroke-dasharray=""></path><path data-v-9833e8b2="" transform="scale(0.16339869281045752)" fill="none" stroke="currentColor" paint-order="fill stroke markers" d="m118.20928,1c-6.44338,0 -11.68558,3.51173 -11.86331,7.8926l-0.00781,0c-5.56642,0 -10.10549,2.86719 -10.33596,6.45705c-1.53711,2.85157 3.76563,6.0215 -0.76563,12.41605c-1.47461,2.08008 4.07814,-3.4297 8.16018,-5.66798c0.93164,0.18164 1.91797,0.27734 2.94141,0.27734c4.91212,0 9.01955,-2.23047 10.07815,-5.22267c0.58399,0.06055 1.1836,0.09375 1.79297,0.09375c6.55666,0 11.87112,-3.63673 11.87112,-8.12502c0,-4.48439 -5.31447,-8.12111 -11.87112,-8.12111z" stroke-width="5" stroke-miterlimit="10" stroke-dasharray=""></path></g></svg>