<svg data-v-9833e8b2="" version="1.1" xmlns="http://www.w3.org/2000/svg" xmlns:xlink="http://www.w3.org/1999/xlink" width="25" height="25"><g data-v-9833e8b2=""><path data-v-9833e8b2="" transform="scale(0.1488095238095238)" fill="none" stroke="currentColor" paint-order="fill stroke markers" d="m84.25412,10.35159l-3.45313,0l0,-5.90041l-29.06648,0l0,5.90041l-3.45313,0l0,-9.35159l35.97275,0l0,9.35159z" stroke-width="5" stroke-miterlimit="10" stroke-dasharray=""></path><path data-v-9833e8b2="" transform="scale(0.1488095238095238)" fill="none" stroke="currentColor" paint-order="fill stroke markers" d="m52.74427,160.56095l-42.5919,0l0,-46.52355c0,-11.81058 10.30667,-21.38677 23.02154,-21.38677l19.56841,0l0,67.91033l0.00195,0z" stroke-width="5" stroke-miterlimit="10" stroke-dasharray=""></path><path data-v-9833e8b2="" transform="scale(0.1488095238095238)" fill="none" stroke="currentColor" paint-order="fill stroke markers" d="m63.39078,160.56095l-26.76179,0l0,-141.00231c0,-6.35744 5.15431,-11.51175 11.51175,-11.51175l3.74024,0c6.35744,0 11.51175,5.15431 11.51175,11.51175l0,141.00231l-0.00195,0z" stroke-width="5" stroke-miterlimit="10" stroke-dasharray=""></path><path data-v-9833e8b2="" transform="scale(0.1488095238095238)" fill="none" stroke="currentColor" paint-order="fill stroke markers" d="m63.39078,160.56095l0,-141.00035c0,-6.35939 -5.15431,-11.5137 -11.51175,-11.5137l-1.86915,0l0,152.51406l13.38089,0z" stroke-width="5" stroke-miterlimit="10" stroke-dasharray=""></path><path data-v-9833e8b2="" transform="scale(0.1488095238095238)" fill="none" stroke="currentColor" paint-order="fill stroke markers" d="m95.90649,160.56095l-26.76179,0l0,-141.00231c0,-6.35744 5.15431,-11.51175 11.51175,-11.51175l3.74024,0c6.35744,0 11.51175,5.15431 11.51175,11.51175l0,141.00231l-0.00195,0z" stroke-width="5" stroke-miterlimit="10" stroke-dasharray=""></path><path data-v-9833e8b2="" transform="scale(0.1488095238095238)" fill="none" stroke="currentColor" paint-order="fill stroke markers" d="m121.44757,121.14093l-4.60548,0l0,-62.63492l-23.23639,0l0,-4.60548l27.84187,0l0,67.2404z" stroke-width="5" stroke-miterlimit="10" stroke-dasharray=""></path><path data-v-9833e8b2="" transform="scale(0.1488095238095238)" fill="none" stroke="currentColor" paint-order="fill stroke markers" d="m95.90649,160.56095l0,-141.00035c0,-6.35939 -5.15431,-11.5137 -11.51175,-11.5137l-1.8711,0l0,152.51406l13.38285,0z" stroke-width="5" stroke-miterlimit="10" stroke-dasharray=""></path><path data-v-9833e8b2="" transform="scale(0.1488095238095238)" fill="none" stroke="currentColor" paint-order="fill stroke markers" d="m30.29695,22.72271l71.65252,0l0,4.60548l-71.65252,0l0,-4.60548zm0,14.39066l71.65252,0l0,2.30079l-71.65252,0l0,-2.30079zm0,26.76374l71.65252,0l0,2.30079l-71.65252,0l0,-2.30079zm0,71.93963l71.65252,0l0,4.60157l-71.65252,0l0,-4.60157z" stroke-width="5" stroke-miterlimit="10" stroke-dasharray=""></path><path data-v-9833e8b2="" transform="scale(0.1488095238095238)" fill="none" stroke="currentColor" paint-order="fill stroke markers" d="m139.07066,123.44172l-9.20705,0l0,-71.93963l-33.95712,0l0,-9.20901l43.16417,0l0,81.14864z" stroke-width="5" stroke-miterlimit="10" stroke-dasharray=""></path><path data-v-9833e8b2="" transform="scale(0.1488095238095238)" fill="none" stroke="currentColor" paint-order="fill stroke markers" d="m82.5256,121.14093l77.84004,0l0,39.42197l-77.84004,0l0,-39.42197zm-45.8966,-34.53134l-12.27737,0l0,-56.48647l12.27737,0l0,4.60548l-7.67385,0l0,47.27551l7.67385,0l0,4.60548z" stroke-width="5" stroke-miterlimit="10" stroke-dasharray=""></path><path data-v-9833e8b2="" transform="scale(0.1488095238095238)" fill="none" stroke="currentColor" paint-order="fill stroke markers" d="m30.29695,69.19939l71.65252,0l0,4.60157l-71.65252,0l0,-4.60157zm0,26.5196l71.65252,0l0,2.30079l-71.65252,0l0,-2.30079zm0,7.09963l71.65252,0l0,2.30469l-71.65252,0l0,-2.30469z" stroke-width="5" stroke-miterlimit="10" stroke-dasharray=""></path><path data-v-9833e8b2="" transform="scale(0.1488095238095238)" fill="none" stroke="currentColor" paint-order="fill stroke markers" d="m105.65456,107.37332l5.46876,0l0,14.86722l-5.46876,0l0,-14.86722z" stroke-width="5" stroke-miterlimit="10" stroke-dasharray=""></path><path data-v-9833e8b2="" transform="scale(0.1488095238095238)" fill="none" stroke="currentColor" paint-order="fill stroke markers" d="m89.21702,128.33235l20.39654,0l0,14.67582l-20.39654,0l0,-14.67582zm24.85553,0l20.39458,0l0,14.67582l-20.39458,0l0,-14.67582z" stroke-width="5" stroke-miterlimit="10" stroke-dasharray=""></path><path data-v-9833e8b2="" transform="scale(0.1488095238095238)" fill="none" stroke="currentColor" paint-order="fill stroke markers" d="m160.36759,121.69171l0,-13.76761l-13.42972,13.76761l13.42972,0zm-13.42972,0l0,-13.76761l-13.42972,13.76761l13.42972,0zm-13.42972,0l0,-13.76761l-13.42972,13.76761l13.42972,0zm-132.50815,35.41806l166.42425,0l0,6.90627l-166.42425,0l0,-6.90627z" stroke-width="5" stroke-miterlimit="10" stroke-dasharray=""></path></g></svg>