<svg data-v-9833e8b2="" version="1.1" xmlns="http://www.w3.org/2000/svg" xmlns:xlink="http://www.w3.org/1999/xlink" width="25" height="20"><g data-v-9833e8b2=""><path data-v-9833e8b2="" transform="scale(0.12376237623762376)" fill="none" stroke="currentColor" paint-order="fill stroke markers" d="m167.66709,134.33367l-116.66696,0c-9.16669,0 -16.66671,-7.50002 -16.66671,-16.66671l0,-75.00019c0,-9.16669 7.50002,-16.66671 16.66671,-16.66671l123.75031,0c0.83334,0 1.66667,0.20833 2.50001,0.83334l22.08339,16.04171c1.04167,0.83334 1.66667,2.08334 1.66667,3.33334l0,67.91684c0,1.25 -0.625,2.50001 -1.66667,3.33334l-22.08339,16.04171c-0.625,0.41667 -1.66667,0.83334 -2.50001,0.83334l-7.08335,0z" stroke-width="5" stroke-miterlimit="10" stroke-dasharray=""></path><path data-v-9833e8b2="" transform="scale(0.12376237623762376)" fill="none" stroke="currentColor" paint-order="fill stroke markers" d="m167.66709,26.00006l8.33335,0l0,108.33361l-8.33335,0l0,-108.33361zm-112.50028,0l8.33335,0l0,108.33361l-8.33335,0l0,-108.33361z" stroke-width="5" stroke-miterlimit="10" stroke-dasharray=""></path><path data-v-9833e8b2="" transform="scale(0.12376237623762376)" fill="none" stroke="currentColor" paint-order="fill stroke markers" d="m63.50016,27.66674l104.16693,0l0,8.33335l-104.16693,0l0,-8.33335z" stroke-width="5" stroke-miterlimit="10" stroke-dasharray=""></path><path data-v-9833e8b2="" transform="scale(0.12376237623762376)" fill="none" stroke="currentColor" paint-order="fill stroke markers" d="m63.50016,36.00009l104.16693,0l0,16.66671l-104.16693,0l0,-16.66671z" stroke-width="5" stroke-miterlimit="10" stroke-dasharray=""></path><path data-v-9833e8b2="" transform="scale(0.12376237623762376)" fill="none" stroke="currentColor" paint-order="fill stroke markers" d="m63.50016,52.6668l104.16693,0l0,16.66671l-104.16693,0l0,-16.66671z" stroke-width="5" stroke-miterlimit="10" stroke-dasharray=""></path><path data-v-9833e8b2="" transform="scale(0.12376237623762376)" fill="none" stroke="currentColor" paint-order="fill stroke markers" d="m63.50016,69.33351l104.16693,0l0,16.66671l-104.16693,0l0,-16.66671z" stroke-width="5" stroke-miterlimit="10" stroke-dasharray=""></path><path data-v-9833e8b2="" transform="scale(0.12376237623762376)" fill="none" stroke="currentColor" paint-order="fill stroke markers" d="m63.50016,86.00021l104.16693,0l0,16.66671l-104.16693,0l0,-16.66671z" stroke-width="5" stroke-miterlimit="10" stroke-dasharray=""></path><path data-v-9833e8b2="" transform="scale(0.12376237623762376)" fill="none" stroke="currentColor" paint-order="fill stroke markers" d="m63.50016,102.66692l104.16693,0l0,16.66671l-104.16693,0l0,-16.66671z" stroke-width="5" stroke-miterlimit="10" stroke-dasharray=""></path><path data-v-9833e8b2="" transform="scale(0.12376237623762376)" fill="none" stroke="currentColor" paint-order="fill stroke markers" d="m63.50016,119.33363l104.16693,0l0,16.66671l-104.16693,0l0,-16.66671z" stroke-width="5" stroke-miterlimit="10" stroke-dasharray=""></path><path data-v-9833e8b2="" transform="scale(0.12376237623762376)" fill="none" stroke="currentColor" paint-order="fill stroke markers" d="m23.70839,70.58351l10.62503,-7.08335l0,33.33342l-10.62503,-7.08335c-1.25,-0.83333 -1.875,-2.08334 -1.875,-3.54167l0,-12.2917c0,-1.25 0.625,-2.50001 1.875,-3.33334z" stroke-width="5" stroke-miterlimit="10" stroke-dasharray=""></path><path data-v-9833e8b2="" transform="scale(0.12376237623762376)" fill="none" stroke="currentColor" paint-order="fill stroke markers" d="m5.16668,76.00019l16.66671,0l0,8.33335l-16.66671,0c-2.29167,0 -4.16668,-1.875 -4.16668,-4.16668s1.875,-4.16668 4.16668,-4.16668z" stroke-width="5" stroke-miterlimit="10" stroke-dasharray=""></path><path data-v-9833e8b2="" transform="scale(0.12376237623762376)" fill="none" stroke="currentColor" paint-order="fill stroke markers" d="m1,80.16687l20.83339,0l0,4.16668l-20.83339,0l0,-4.16668z" stroke-width="5" stroke-miterlimit="10" stroke-dasharray=""></path><path data-v-9833e8b2="" transform="scale(0.12376237623762376)" fill="none" stroke="currentColor" paint-order="fill stroke markers" d="m63.50016,1l29.16674,0l12.50003,12.50003l0,12.50003l-41.66677,0l0,-25.00006z" stroke-width="5" stroke-miterlimit="10" stroke-dasharray=""></path><path data-v-9833e8b2="" transform="scale(0.12376237623762376)" fill="none" stroke="currentColor" paint-order="fill stroke markers" d="m88.50022,13.50003m-4.16668,0a4.16668,4.16668 0 1 0 8.33335,0a4.16668,4.16668 0 1 0 -8.33335,0z" stroke-width="5" stroke-miterlimit="10" stroke-dasharray=""></path><path data-v-9833e8b2="" transform="scale(0.12376237623762376)" fill="none" stroke="currentColor" paint-order="fill stroke markers" d="m94.75024,134.33367l45.83345,0l0,12.50003l-45.83345,0l0,-12.50003z" stroke-width="5" stroke-miterlimit="10" stroke-dasharray=""></path><path data-v-9833e8b2="" transform="scale(0.12376237623762376)" fill="none" stroke="currentColor" paint-order="fill stroke markers" d="m89.33356,146.8337l60.62515,0c1.04167,0 2.08334,0.41667 2.91667,1.25l10.00003,9.58336c0.41667,0.41667 0.625,0.83333 0.625,1.45834l0,6.45835c0,1.25 -0.83334,2.08334 -2.08334,2.08334l-87.50022,0c-1.25,0 -2.08334,-0.83334 -2.08334,-2.08334l0,-5.20835c0,-0.625 0.20833,-1.25 0.83333,-1.66667l14.1667,-11.04169c0.625,-0.625 1.66667,-0.83334 2.50001,-0.83334z" stroke-width="5" stroke-miterlimit="10" stroke-dasharray=""></path><path data-v-9833e8b2="" transform="scale(0.12376237623762376)" fill="none" stroke="currentColor" paint-order="fill stroke markers" d="m136.41701,159.33373l27.0834,0l0,6.25002c0,1.25 -0.83334,2.08334 -2.08334,2.08334l-87.50022,0c-1.25,0 -2.08334,-0.83334 -2.08334,-2.08334l0,-6.25002l27.0834,0l0,-6.25002c0,-1.25 0.83334,-2.08334 2.08334,-2.08334l4.16668,0c1.25,0 2.08334,0.83334 2.08334,2.08334l0,6.25002l20.83339,0l0,-6.25002c0,-1.25 0.83333,-2.08334 2.08334,-2.08334l4.16668,0c1.25,0 2.08334,0.83334 2.08334,2.08334l0,6.25002z" stroke-width="5" stroke-miterlimit="10" stroke-dasharray=""></path></g></svg>