<svg data-v-9833e8b2="" version="1.1" xmlns="http://www.w3.org/2000/svg" xmlns:xlink="http://www.w3.org/1999/xlink" width="25" height="22.5"><g data-v-9833e8b2=""><path data-v-9833e8b2="" transform="scale(0.13368983957219252)" fill="none" stroke="currentColor" paint-order="fill stroke markers" d="m61.54182,42.66677l23.91673,0l-26.79173,-37.50009l-13.6667,0l-2.37501,9.04169l-8.70836,-13.20837l-15.91671,0l-17.00004,58.33348l71.66685,0l-11.12503,-16.66671zm-10.12503,-29.16674l3.00001,0l14.87504,20.83339l-13.2917,0l-7.20835,-10.83336l2.62501,-10.00003zm-27.2084,-4.16668l5.20835,0l27.66674,41.66677l-45.00011,0l12.12503,-41.66677zm53.1668,90.75023l57.08348,-34.75009l35.66676,59.08348l7.12502,-4.16668l-35.66676,-59.25015l43.20844,-26.29173l-41.1251,-30.87508l-66.29183,66.29183l0,29.95841zm8.33335,-26.54173l58.70848,-58.70848l25.54173,19.12505l-84.25021,51.2918l0,-11.70836zm100.45859,77.91686l-90.66689,0l8.33335,-25.4584l-6.37502,0l-4.37501,-21.75005l-21.20839,5.29168l-11.1667,3.95834l-17.79171,-4.45835l-17.25004,16.95838l-12.50003,0l8.95836,25.4584l-15.12504,0l0,8.33335l16.66671,0a12.12503,12.12503 0 0 0 -0.45834,3.70834a12.50003,12.50003 0 0 0 0.91667,4.62501l-17.12504,0l0,8.33335l179.16712,0l0,-8.33335l-88.83356,0a11.37503,11.37503 0 0 0 0,-8.33335l88.83356,0l0,-8.33335zm-93.75024,-17.12504l-5.54168,16.66671l-56.08348,0l-5.87501,-16.66671l67.50017,0zm-47.08345,-16.20837l15.37504,3.70834l13.50003,-4.16668l12.50003,-3.12501l2.25001,11.45836l-51.5418,0l7.91669,-7.87502zm-7.83335,41.66677a4.16668,4.16668 0 0 1 2.37501,3.70834a4.16668,4.16668 0 0 1 -8.33335,0a4.16668,4.16668 0 0 1 2.37501,-3.70834l3.58334,0zm9.79169,8.33335a12.50003,12.50003 0 0 0 0.91667,-4.62501a12.12503,12.12503 0 0 0 -0.625,-3.70834l26.3334,0a11.37503,11.37503 0 0 0 0,8.33335l-26.62507,0zm42.58344,-4.41668a4.16668,4.16668 0 1 1 -4.16668,-3.91668a4.16668,4.16668 0 0 1 4.16668,3.91668z" stroke-width="5" stroke-miterlimit="10" stroke-dasharray=""></path></g></svg>