<svg data-v-9833e8b2="" version="1.1" xmlns="http://www.w3.org/2000/svg" xmlns:xlink="http://www.w3.org/1999/xlink" width="25" height="17.5"><g data-v-9833e8b2=""><path data-v-9833e8b2="" transform="scale(0.13513513513513514)" fill="none" stroke="currentColor" paint-order="fill stroke markers" d="m136.55034,51.2587l-70.83351,0a5.00001,5.00001 0 0 0 0,10.00003l70.83351,0a5.00001,5.00001 0 0 0 0,-10.00003zm-20.83339,16.03337l-42.68344,0a5.00001,5.00001 0 0 0 0,10.00003l42.68344,0a5.00001,5.00001 0 0 0 0,-10.00003zm-9.35002,41.1001l-19.50005,0a29.16674,29.16674 0 0 1 0.16667,3.01667a28.81674,28.81674 0 0 1 -0.88334,6.98335l20.91672,0a28.81674,28.81674 0 0 1 -0.88333,-6.98335a29.16674,29.16674 0 0 1 0.18333,-3.01667zm-56.80014,-83.33354l12.75003,0a3.48334,3.48334 0 0 0 2.70001,-1.28334l6.21668,-7.65002l16.80004,0a3.48334,3.48334 0 0 0 1.66667,-0.45l11.45003,-6.53335l5.71668,7.90002l-15.00004,2.30001a3.48334,3.48334 0 0 0 -1.76667,0.81667l-11.5667,10.13336a3.45001,3.45001 0 0 0 -0.65,0.8l10.30003,0l5.73335,-5.00001l19.28338,-2.96667l13.6167,1.66667l5.98335,6.21668l9.55002,0a3.48334,3.48334 0 0 0 -0.45,-0.6l-10.91669,-11.33336a3.46667,3.46667 0 0 0 -2.06667,-1.03334l-13.8167,-1.76667l-10.00003,-13.83337a3.48334,3.48334 0 0 0 -4.55001,-0.98334l-13.33337,7.61669l-17.63338,0a3.48334,3.48334 0 0 0 -2.70001,1.28334l-6.21668,7.73335l-12.88336,0a3.48334,3.48334 0 0 0 -2.83334,1.45l-7.83335,11.53336l8.33335,0l4.11668,-6.01668z" stroke-width="5" stroke-miterlimit="10" stroke-dasharray=""></path><path data-v-9833e8b2="" transform="scale(0.13513513513513514)" fill="none" stroke="currentColor" paint-order="fill stroke markers" d="m184.03379,110.57552l-20.38339,-32.31675l13.95004,-8.33335l0,-12.68337l-21.66672,-26.16673l-145.7837,0l-2.11667,11.15003l25.51673,3.78334l4.76668,11.9167l-14.23337,0a5.00001,5.00001 0 0 0 -4.71668,3.33334l-6.66668,19.06672l-10.21669,10.11669a5.00001,5.00001 0 0 0 -1.48334,3.55001l0,19.40005a5.00001,5.00001 0 0 0 5.00001,5.00001l24.23339,0a28.81674,28.81674 0 0 1 -0.88334,-6.98335a29.16674,29.16674 0 0 1 0.16667,-3.01667l-18.51671,0l0,-12.3167l9.51669,-9.43336a5.00001,5.00001 0 0 0 1.2,-1.9l5.91668,-16.81671l14.18337,0l6.21668,14.58337l1.66667,4.38335a25.96673,25.96673 0 1 0 28.80007,8.41669l36.20009,0a25.95007,25.95007 0 1 0 32.06675,-7.03335l8.33335,-4.90001l15.45004,25.00006l-6.75002,0a29.16674,29.16674 0 0 1 0.16667,3.01667a28.81674,28.81674 0 0 1 -0.88333,6.98335l16.90004,0a5.00001,5.00001 0 0 0 4.13334,-7.80002l-0.08333,0zm-125.85032,16.78337a15.95004,15.95004 0 1 1 15.95004,-15.95004a15.96671,15.96671 0 0 1 -15.95004,15.95004zm92.78357,-15.95004a15.95004,15.95004 0 1 1 -15.95004,-15.95004a15.96671,15.96671 0 0 1 15.96671,15.95004l-0.01667,0zm-18.76671,-26.0834l-71.91685,0l-1.28334,-2.71667l-1.43334,-3.01667l-14.63337,-37.25009a10.00003,10.00003 0 0 0 -0.6,-1.26667l108.93361,0l16.31671,19.76672l0,3.45001l-35.38342,21.03339z" stroke-width="5" stroke-miterlimit="10" stroke-dasharray=""></path></g></svg>