<svg data-v-9833e8b2="" version="1.1" xmlns="http://www.w3.org/2000/svg" xmlns:xlink="http://www.w3.org/1999/xlink" width="25" height="17.5"><g data-v-9833e8b2=""><path data-v-9833e8b2="" transform="scale(0.12437810945273632)" fill="none" stroke="currentColor" paint-order="fill stroke markers" d="m187.41817,86.10339l0,-9.42855a3.22896,3.22896 0 0 0 -1.227,-2.61545l-6.68394,-5.48923l0,-6.45791a16.14478,16.14478 0 0 0 -13.69077,-15.98333l-35.06646,-7.4266l-7.1037,-27.76902l1.35616,0a3.22896,3.22896 0 0 0 0,-6.71623l-40.65256,0a3.22896,3.22896 0 0 0 -3.22896,2.51859c-2.06653,7.7172 -4.87572,19.63205 -6.65165,27.15552l-29.06061,-29.0606a13.3033,13.3033 0 0 0 -22.60269,8.42758l-13.56162,44.33357a11.20448,11.20448 0 0 0 -1.32387,1.45303a13.27101,13.27101 0 0 0 -1.09785,14.59488l-4.13306,2.68003a3.22896,3.22896 0 0 0 -1.5499,3.77788l6.26418,20.76219a3.22896,3.22896 0 0 0 3.22896,2.38943l4.45596,0l0,11.81798a3.22896,3.22896 0 0 0 6.71623,0l0,-11.7534l4.42367,0a3.22896,3.22896 0 0 0 3.22896,-2.38943l6.13502,-20.82677a3.22896,3.22896 0 0 0 -1.38845,-3.77788l-4.00391,-2.68003a13.40017,13.40017 0 0 0 1.58219,-8.13697c0,-0.41976 0,-0.87182 -0.22603,-1.29158l8.23384,-27.47842l1.32387,1.32387l0.96869,11.46279a3.22896,3.22896 0 0 0 0.96869,2.09882l16.20936,16.4031l0,8.363a34.22693,34.22693 0 1 0 56.6036,31.48232l10.75242,0l7.87865,6.87768a3.22896,3.22896 0 0 0 2.22798,0.83953l11.39822,0a26.76805,26.76805 0 1 0 39.29639,-29.48037zm-63.25525,-45.39912l-5.8767,6.84539l-14.72404,0l-6.45791,-7.49118l0,-29.06061l19.37374,0l7.68492,29.7064zm-37.22986,-29.77098l3.45498,0l0,27.28468l-10.04205,0c1.51761,-6.29647 4.3268,-18.53421 6.58707,-27.28468zm-63.19067,60.28461a6.45791,6.45791 0 0 1 -5.19862,2.55088a6.45791,6.45791 0 0 1 -4.03619,-1.38845a6.45791,6.45791 0 0 1 -1.16242,-9.23481a6.45791,6.45791 0 0 1 11.72111,3.22896a6.45791,6.45791 0 0 1 -1.32387,4.84343zm0,25.3796l-10.59098,0l-4.71428,-15.98333l3.22896,-2.03424a13.10956,13.10956 0 0 0 6.84539,1.90508a13.43246,13.43246 0 0 0 6.87768,-1.90508l3.22896,2.03424l-4.87572,15.98333zm2.90606,-39.87761a13.27101,13.27101 0 0 0 -8.13697,-2.7769l-1.09785,0l9.04108,-30.41677l7.78178,7.81407l-7.58805,25.3796zm21.89232,-9.00879l-0.96869,-11.4305a3.22896,3.22896 0 0 0 -0.96869,-2.09882l-15.4667,-15.4667a6.45791,6.45791 0 0 1 9.29939,-9.33168l31.74064,31.5469l-11.68882,11.72111a3.22896,3.22896 0 0 0 -1.00098,2.35714l0,3.51956l-10.94616,-10.817zm33.7103,81.62801a27.51071,27.51071 0 1 1 27.51071,-27.51071a27.543,27.543 0 0 1 -27.51071,27.51071zm48.04687,-27.34926a3.22896,3.22896 0 0 0 -2.22798,-0.83953l-11.62424,0a35.09875,35.09875 0 0 0 -1.48532,-9.42855l17.59781,0a3.22896,3.22896 0 0 0 0,-6.71623l-20.50387,0a34.25922,34.25922 0 0 0 -29.80327,-17.43636a33.7103,33.7103 0 0 0 -16.14478,4.10077l0,-15.27296l11.43051,-11.46279l14.95007,0l7.00684,8.16926a3.22896,3.22896 0 0 0 2.55087,1.16242l17.79155,0a3.22896,3.22896 0 0 0 2.55088,-1.16242l6.74852,-7.84636l35.16333,7.45889a9.68687,9.68687 0 0 1 8.49216,9.39626l0,8.13697a3.42269,3.42269 0 0 0 1.227,2.61545l6.68394,5.39236l0,5.10175a27.47842,27.47842 0 0 0 -6.45791,-0.80724a26.76805,26.76805 0 0 0 -26.73576,26.31599l-9.52542,0l-7.68492,-6.87768zm43.94609,27.34926a20.05182,20.05182 0 1 1 20.05182,-20.05182a20.05182,20.05182 0 0 1 -20.18098,20.05182l0.12916,0z" stroke-width="5" stroke-miterlimit="10" stroke-dasharray=""></path><path data-v-9833e8b2="" transform="scale(0.12437810945273632)" fill="none" stroke="currentColor" paint-order="fill stroke markers" d="m174.11487,95.984a13.3033,13.3033 0 1 0 13.3033,13.3033a13.33559,13.33559 0 0 0 -13.3033,-13.3033zm0,19.89037a6.45791,6.45791 0 1 1 6.45791,-6.45791a6.45791,6.45791 0 0 1 -6.45791,6.45791zm-91.8638,-31.15943a17.17805,17.17805 0 1 0 17.14576,17.17805a17.17805,17.17805 0 0 0 -17.14576,-17.17805zm0,27.60758a10.46182,10.46182 0 1 1 10.42953,-10.42953a10.46182,10.46182 0 0 1 -10.42953,10.36495l0,0.06458zm50.30714,-53.08404a3.22896,3.22896 0 0 0 -3.3904,3.22896l0,8.0401a3.22896,3.22896 0 0 0 6.74852,0l0,-7.91094a3.22896,3.22896 0 0 0 -3.35811,-3.35811zm16.79057,11.39821l0,-8.0401a3.22896,3.22896 0 1 0 -6.71623,0l0,8.0401a3.22896,3.22896 0 0 0 6.71623,0zm10.00977,3.35811a3.22896,3.22896 0 0 0 3.22896,-3.22896l0,-8.16926a3.22896,3.22896 0 0 0 -6.71623,0l0,8.0401a3.22896,3.22896 0 0 0 3.48727,3.35811z" stroke-width="5" stroke-miterlimit="10" stroke-dasharray=""></path></g></svg>