<svg data-v-9833e8b2="" version="1.1" xmlns="http://www.w3.org/2000/svg" xmlns:xlink="http://www.w3.org/1999/xlink" width="25" height="22.5"><g data-v-9833e8b2=""><path data-v-9833e8b2="" transform="scale(0.14367816091954022)" fill="none" stroke="currentColor" paint-order="fill stroke markers" d="m159.30442,30.26316c-7.03127,0 -13.24222,-5.1172 -14.37504,-12.28519c-0.60547,-3.84767 0.3125,-7.69533 2.59766,-10.83987c2.28516,-3.14454 5.66408,-5.21486 9.49221,-5.82033c7.92971,-1.25 15.4102,4.1797 16.6602,12.08987c1.25,7.92971 -4.1797,15.4102 -12.10941,16.6602c-0.74219,0.13672 -1.52344,0.19531 -2.26563,0.19531zm-10.66409,-12.87113c0.9375,5.87892 6.46486,9.90237 12.34378,8.96487c5.87892,-0.9375 9.90237,-6.46486 8.96487,-12.34378c-0.9375,-5.87892 -6.46486,-9.90237 -12.34378,-8.96487c-2.85157,0.44922 -5.35158,1.99219 -7.0508,4.31642c-1.67969,2.32422 -2.36329,5.17579 -1.91407,8.02736zm-133.08627,145.3324c-7.03127,0 -13.24222,-5.1172 -14.37504,-12.28519c-1.25,-7.92971 4.1797,-15.4102 12.10941,-16.6602c7.92971,-1.25 15.4102,4.1797 16.6602,12.10941c1.25,7.92971 -4.1797,15.4102 -12.10941,16.6602c-0.76172,0.11719 -1.52344,0.17578 -2.28516,0.17578zm-10.64456,-12.87113c0.9375,5.87892 6.46486,9.90237 12.34378,8.96487c5.87892,-0.9375 9.90237,-6.46486 8.96487,-12.34378c-0.9375,-5.87892 -6.46486,-9.90237 -12.34378,-8.96487c-5.87892,0.91797 -9.90237,6.46486 -8.96487,12.34378z" stroke-width="5" stroke-miterlimit="10" stroke-dasharray=""></path><path data-v-9833e8b2="" transform="scale(0.14367816091954022)" fill="none" stroke="currentColor" paint-order="fill stroke markers" d="m119.29475,1.28516l40.54698,-0.28516l0.02656,3.76954l-40.54698,0.28516l-0.02656,-3.76954zm14.93148,25.46237l24.336,0l0,3.76954l-24.336,0l0,-3.76954zm-120.17608,132.12924l36.30869,0l0,3.76954l-36.30869,0l0,-3.76954zm-0.09766,-25.31256l21.44537,0l0,3.76954l-21.44537,0l0,-3.76954z" stroke-width="5" stroke-miterlimit="10" stroke-dasharray=""></path><path data-v-9833e8b2="" transform="scale(0.14367816091954022)" fill="none" stroke="currentColor" paint-order="fill stroke markers" d="m32.42168,134.95014l87.08303,-133.68784l3.1586,2.05723l-87.08303,133.68784l-3.1586,-2.05723zm15.18734,25.75456l86.40842,-133.59799l3.16524,2.04727l-86.40842,133.59799l-3.16524,-2.04727z" stroke-width="5" stroke-miterlimit="10" stroke-dasharray=""></path></g></svg>