<svg data-v-9833e8b2="" version="1.1" xmlns="http://www.w3.org/2000/svg" xmlns:xlink="http://www.w3.org/1999/xlink" width="25" height="25"><g data-v-9833e8b2=""><path data-v-9833e8b2="" transform="scale(0.14619883040935672)" fill="none" stroke="currentColor" paint-order="fill stroke markers" d="m132.40658,21.31255c-1.875,0 -3.59376,0.3125 -5.31251,0.625c-5.31251,-9.68752 -15.62504,-16.25004 -27.50007,-16.25004c-14.53129,0 -26.87507,10.00003 -30.31258,23.59381c-0.78125,-0.15625 -1.5625,-0.15625 -2.50001,-0.15625c-12.96878,0 -23.43756,8.90627 -23.43756,21.87506l111.71903,0c0.625,-2.03126 0.78125,-4.06251 0.78125,-6.25002c0,-12.96878 -10.46878,-23.43756 -23.43756,-23.43756z" stroke-width="5" stroke-miterlimit="10" stroke-dasharray=""></path><path data-v-9833e8b2="" transform="scale(0.14619883040935672)" fill="none" stroke="currentColor" paint-order="fill stroke markers" d="m153.96914,40.3751c-1.875,0 -3.59376,-1.09375 -4.37501,-2.81251c-2.81251,-7.03127 -9.68752,-11.56253 -17.18754,-11.56253c-1.40625,0 -2.81251,0.15625 -4.37501,0.46875c-2.03126,0.46875 -4.21876,-0.46875 -5.15626,-2.34376c-4.68751,-8.59377 -13.59378,-13.90629 -23.28131,-13.90629c-6.09377,0 -11.87503,2.03126 -16.56254,5.93751c-2.03126,1.5625 -5.00001,1.25 -6.56252,-0.78125s-1.25,-5.00001 0.78125,-6.56252c6.25002,-5.00001 14.21879,-7.81252 22.34381,-7.81252c12.03128,0 23.12506,5.93751 29.84383,15.78129c1.09375,-0.15625 2.03126,-0.15625 3.12501,-0.15625c11.25003,0 21.56255,6.71877 25.93757,17.18754c0.9375,2.34376 -0.15625,5.15626 -2.50001,6.09377c-0.78125,0.3125 -1.40625,0.46875 -2.03126,0.46875zm-87.18772,40.3126c-15.46879,0 -28.12507,-12.65628 -28.12507,-28.12507c0,-7.96877 3.28126,-15.46879 9.21877,-20.7813c1.875,-1.71875 4.84376,-1.5625 6.56252,0.3125s1.5625,4.84376 -0.3125,6.56252c-3.90626,3.59376 -6.09377,8.59377 -6.09377,13.90629c0,10.31253 8.43752,18.75005 18.75005,18.75005c6.40627,0 12.18753,-3.28126 15.78129,-8.59377c1.25,-2.03126 3.75001,-2.65626 5.93751,-1.71875c3.59376,1.71875 7.34377,2.50001 11.09378,2.50001c5.46876,0 10.62503,-1.5625 15.00004,-4.68751c1.71875,-1.25 4.06251,-1.09375 5.62501,0.3125c3.43751,2.81251 7.81252,4.37501 12.18753,4.37501c2.65626,0 4.68751,2.03126 4.68751,4.68751s-2.03126,4.68751 -4.68751,4.68751c-5.46876,0 -10.78128,-1.5625 -15.31254,-4.53126c-5.31251,2.96876 -11.25003,4.53126 -17.50004,4.53126c-3.90626,0 -7.81252,-0.625 -11.56253,-1.875c-5.31251,6.09377 -12.96878,9.68752 -21.25005,9.68752z" stroke-width="5" stroke-miterlimit="10" stroke-dasharray=""></path><path data-v-9833e8b2="" transform="scale(0.14619883040935672)" fill="none" stroke="currentColor" paint-order="fill stroke markers" d="m149.75037,142.09411l-100.1565,0c-8.59377,0 -15.62504,-7.03127 -15.62504,-15.62504l0,-75.46894l131.40658,0l0,75.46894c0,8.59377 -7.03127,15.62504 -15.62504,15.62504z" stroke-width="5" stroke-miterlimit="10" stroke-dasharray=""></path><path data-v-9833e8b2="" transform="scale(0.14619883040935672)" fill="none" stroke="currentColor" paint-order="fill stroke markers" d="m149.75037,146.78162l-100.1565,0c-11.25003,0 -20.31255,-9.06252 -20.31255,-20.31255l0,-75.46894c0,-1.25 0.46875,-2.50001 1.40625,-3.28126c0.9375,-0.9375 2.03126,-1.40625 3.28126,-1.40625l131.40658,0c2.65626,0 4.68751,2.03126 4.68751,4.68751l0,75.46894c0,11.25003 -9.21877,20.31255 -20.31255,20.31255zm-111.09403,-91.09398l0.15625,70.78143c0,6.09377 4.84376,10.93753 10.93753,10.93753l100.00025,0c6.09377,0 10.93753,-4.84376 10.93753,-10.93753l0,-70.78143l-122.03156,0z" stroke-width="5" stroke-miterlimit="10" stroke-dasharray=""></path><path data-v-9833e8b2="" transform="scale(0.14619883040935672)" fill="none" stroke="currentColor" paint-order="fill stroke markers" d="m50.21887,148.50037a15.00004,15.00004 0 1 0 30.00008,0a15.00004,15.00004 0 1 0 -30.00008,0z" stroke-width="5" stroke-miterlimit="10" stroke-dasharray=""></path><path data-v-9833e8b2="" transform="scale(0.14619883040935672)" fill="none" stroke="currentColor" paint-order="fill stroke markers" d="m118.96905,148.50037a15.00004,15.00004 0 1 0 30.00008,0a15.00004,15.00004 0 1 0 -30.00008,0z" stroke-width="5" stroke-miterlimit="10" stroke-dasharray=""></path><path data-v-9833e8b2="" transform="scale(0.14619883040935672)" fill="none" stroke="currentColor" paint-order="fill stroke markers" d="m65.21891,168.18792c-10.93753,0 -19.68755,-8.90627 -19.68755,-19.68755s8.75002,-19.68755 19.68755,-19.68755s19.68755,8.90627 19.68755,19.68755s-8.90627,19.68755 -19.68755,19.68755zm0,-30.00008c-5.78126,0 -10.31253,4.68751 -10.31253,10.31253s4.68751,10.31253 10.31253,10.31253c5.78126,0 10.31253,-4.68751 10.31253,-10.31253s-4.68751,-10.31253 -10.31253,-10.31253zm68.75017,30.00008c-10.93753,0 -19.68755,-8.90627 -19.68755,-19.68755s8.75002,-19.68755 19.68755,-19.68755s19.68755,8.90627 19.68755,19.68755s-8.90627,19.68755 -19.68755,19.68755zm0,-30.00008c-5.78126,0 -10.31253,4.68751 -10.31253,10.31253s4.68751,10.31253 10.31253,10.31253s10.31253,-4.68751 10.31253,-10.31253s-4.68751,-10.31253 -10.31253,-10.31253z" stroke-width="5" stroke-miterlimit="10" stroke-dasharray=""></path><path data-v-9833e8b2="" transform="scale(0.14619883040935672)" fill="none" stroke="currentColor" paint-order="fill stroke markers" d="m66.78142,33.81258c-0.3125,0 -0.625,0 -0.9375,-0.15625c-0.3125,0 -0.625,-0.15625 -0.9375,-0.3125c-0.3125,-0.15625 -0.625,-0.3125 -0.78125,-0.46875c-0.3125,-0.15625 -0.46875,-0.3125 -0.78125,-0.625c-0.78125,-0.625 -1.25,-1.875 -1.25,-3.12501c0,-0.3125 0,-0.625 0.15625,-0.9375c0,-0.3125 0.15625,-0.625 0.3125,-0.9375c0.15625,-0.3125 0.3125,-0.46875 0.46875,-0.78125c0.15625,-0.3125 0.3125,-0.46875 0.625,-0.78125c1.71875,-1.71875 4.84376,-1.71875 6.56252,0c0.9375,0.9375 1.40625,2.03126 1.40625,3.28126c0,0.3125 0,0.625 -0.15625,0.9375c0,0.3125 -0.15625,0.625 -0.3125,0.9375c-0.15625,0.3125 -0.3125,0.625 -0.46875,0.78125c-0.15625,0.3125 -0.3125,0.46875 -0.625,0.78125c-0.15625,0.15625 -0.46875,0.46875 -0.78125,0.625c-0.3125,0.15625 -0.46875,0.3125 -0.78125,0.46875c-0.3125,0.15625 -0.625,0.15625 -0.9375,0.3125l-0.78125,0z" stroke-width="5" stroke-miterlimit="10" stroke-dasharray=""></path><path data-v-9833e8b2="" transform="scale(0.14619883040935672)" fill="none" stroke="currentColor" paint-order="fill stroke markers" d="m133.96908,168.18792l-104.68776,0c-2.65626,0 -4.68751,-2.03126 -4.68751,-4.68751s2.03126,-4.68751 4.68751,-4.68751l104.68776,0c2.65626,0 4.68751,2.03126 4.68751,4.68751s-2.18751,4.68751 -4.68751,4.68751z" stroke-width="5" stroke-miterlimit="10" stroke-dasharray=""></path><path data-v-9833e8b2="" transform="scale(0.14619883040935672)" fill="none" stroke="currentColor" paint-order="fill stroke markers" d="m5.84376,168.18792c-1.25,0 -2.50001,-0.46875 -3.28126,-1.40625c-0.15625,-0.15625 -0.46875,-0.46875 -0.625,-0.78125c-0.15625,-0.3125 -0.3125,-0.46875 -0.46875,-0.78125c-0.15625,-0.15625 -0.3125,-0.46875 -0.3125,-0.78125s-0.15625,-0.625 -0.15625,-0.9375c0,-1.25 0.46875,-2.50001 1.40625,-3.28126c1.09375,-1.09375 2.65626,-1.5625 4.21876,-1.25c0.3125,0 0.625,0.15625 0.9375,0.3125c0.3125,0.15625 0.625,0.3125 0.78125,0.46875c0.3125,0.15625 0.46875,0.3125 0.78125,0.625c0.9375,0.9375 1.40625,2.03126 1.40625,3.28126l0,0.9375c0,0.3125 -0.15625,0.625 -0.3125,0.9375c-0.15625,0.3125 -0.3125,0.625 -0.46875,0.78125c-0.15625,0.3125 -0.3125,0.46875 -0.625,0.78125c-0.9375,0.625 -2.18751,1.09375 -3.28126,1.09375z" stroke-width="5" stroke-miterlimit="10" stroke-dasharray=""></path></g></svg>