<svg data-v-9833e8b2="" version="1.1" xmlns="http://www.w3.org/2000/svg" xmlns:xlink="http://www.w3.org/1999/xlink" width="25" height="25"><g data-v-9833e8b2=""><path data-v-9833e8b2="" transform="scale(0.12376237623762376)" fill="none" stroke="currentColor" paint-order="fill stroke markers" d="m201.03232,200.93232l-200.03232,0l14.69095,-119.0503l170.6777,0l14.66367,119.0503zm-189.79139,-9.15457l179.57318,0l-12.4273,-100.73207l-154.71857,0l-12.4273,100.73207zm172.51862,-66.33653l-165.47769,0l0,-9.15457l165.47769,0l0,9.15911l0,-0.00454zm5.15456,36.28191l-176.14135,0l0,-9.15911l176.15954,0l0,9.15911l-0.01818,0zm-83.36385,34.63191l-9.06366,0l0,-109.88664l9.04093,0l0,109.88664l0.02273,0zm-49.7274,0.38182l-9.00911,-0.76364l9.03639,-109.88664l9.00911,0.75909l-9.03639,109.89119zm90.41841,0l-9.04093,-109.89119l9.00911,-0.75909l9.03639,109.88664l-9.00457,0.76364zm-13.57731,-124.00486l-9.03639,0a22.60006,22.60006 0 1 0 -45.19557,0l-9.04093,0a31.63644,31.63644 0 1 1 63.27289,0zm28.9228,3.66364l-24.64552,-18.73187l3.50001,-24.87279l-24.54551,3.55455l-14.86367,-20.08641l-14.87731,20.09096l-24.54097,-3.5591l3.50455,24.8637l-24.65006,18.73187l-5.42274,-7.3182l20.36823,-15.48186l-4.45456,-31.5819l31.17281,4.51365l18.90005,-25.51825l18.8955,25.52279l31.17281,-4.51365l-4.45456,31.5819l20.36823,15.48186l-5.42729,7.32274z" stroke-width="5" stroke-miterlimit="10" stroke-dasharray=""></path></g></svg>