<svg data-v-9833e8b2="" version="1.1" xmlns="http://www.w3.org/2000/svg" xmlns:xlink="http://www.w3.org/1999/xlink" width="27" height="25"><g data-v-9833e8b2=""><path data-v-9833e8b2="" transform="scale(0.12437810945273632)" fill="none" stroke="currentColor" paint-order="fill stroke markers" d="m108.05377,77.27722l9.02667,1.69489l13.95067,16.86451l-11.17942,-1.95996l-11.79793,-16.59943zm-16.95689,28.06803l22.48936,4.63885l27.62222,34.65077l-25.14616,-2.39774l-24.96542,-36.89187zm-59.72865,-12.54496l26.6583,6.48233l22.77854,39.74747l-31.69476,-2.86765l-17.74208,-43.36216z" stroke-width="5" stroke-miterlimit="10" stroke-dasharray=""></path><path data-v-9833e8b2="" transform="scale(0.12437810945273632)" fill="none" stroke="currentColor" paint-order="fill stroke markers" d="m35.51508,92.80029l21.50336,45.36228l-8.60897,-1.66275l-17.04123,-44.45861l4.14685,0.75908z" stroke-width="5" stroke-miterlimit="10" stroke-dasharray=""></path><path data-v-9833e8b2="" transform="scale(0.12437810945273632)" fill="none" stroke="currentColor" paint-order="fill stroke markers" d="m40.0977,56.71368l22.04958,6.11886l10.62918,21.17603l-26.14019,-5.7353l-6.53856,-21.55959z" stroke-width="5" stroke-miterlimit="10" stroke-dasharray=""></path><path data-v-9833e8b2="" transform="scale(0.12437810945273632)" fill="none" stroke="currentColor" paint-order="fill stroke markers" d="m43.68427,59.09737l11.13724,19.23414l-6.32771,-2.58851l-8.39611,-16.64562l3.58657,0z" stroke-width="5" stroke-miterlimit="10" stroke-dasharray=""></path><path data-v-9833e8b2="" transform="scale(0.12437810945273632)" fill="none" stroke="currentColor" paint-order="fill stroke markers" d="m188.39817,157.58749q-0.20082,0 -0.40163,-0.01807l-141.84023,-13.23979a4.21713,4.21713 0 0 1 -3.47411,-2.51622l-41.33191,-94.93367a4.21713,4.21713 0 0 1 4.97622,-5.75136l113.64368,30.97785a4.21713,4.21713 0 0 1 2.02422,1.24707l69.53649,77.1936a4.21713,4.21713 0 0 1 -3.13273,7.0406zm-138.97659,-21.42504l128.61249,12.00477l-61.47775,-68.24926l-103.96235,-28.34114l36.82761,84.58563z" stroke-width="5" stroke-miterlimit="10" stroke-dasharray=""></path><path data-v-9833e8b2="" transform="scale(0.12437810945273632)" fill="none" stroke="currentColor" paint-order="fill stroke markers" d="m114.98593,110.3536a2.10857,2.10857 0 0 1 -0.40163,-0.03815l-30.99994,-6.02447a2.10857,2.10857 0 0 1 -1.36555,-0.91974l-11.19548,-17.22197a2.10857,2.10857 0 0 1 2.23508,-3.21305l30.35733,6.89802a2.10857,2.10857 0 0 1 1.24104,0.81933l11.84813,16.36247a2.10857,2.10857 0 0 1 -1.70693,3.34559l-0.01205,-0.00803zm-29.72074,-10.04079l24.88309,4.83765l-8.24349,-11.39228l-24.51559,-5.55256l7.876,12.10718zm-36.15287,-19.23012a2.10857,2.10857 0 0 1 -1.83746,-1.07035l-12.91647,-22.82071a2.10857,2.10857 0 0 1 3.67091,-2.07644l12.91647,22.82071a2.10857,2.10857 0 0 1 -1.83345,3.14678z" stroke-width="5" stroke-miterlimit="10" stroke-dasharray=""></path><path data-v-9833e8b2="" transform="scale(0.12437810945273632)" fill="none" stroke="currentColor" paint-order="fill stroke markers" d="m75.08985,86.11714a2.10656,2.10656 0 0 1 -1.7712,-0.9599l-13.05303,-20.10568a2.10857,2.10857 0 0 1 3.53034,-2.29131l13.05303,20.10568a2.10857,2.10857 0 0 1 -1.76718,3.25723l0.00803,-0.00602zm23.96737,5.29752a2.10656,2.10656 0 0 1 -1.6989,-0.85748l-13.97477,-18.94496a2.10857,2.10857 0 0 1 3.39379,-2.50417l13.97477,18.955a2.10857,2.10857 0 0 1 -1.69489,3.35965l0,-0.00803zm22.10982,6.18312a2.10455,2.10455 0 0 1 -1.63665,-0.77716l-16.08133,-19.74622a2.10857,2.10857 0 1 1 3.26928,-2.66683l16.08133,19.74622a2.10857,2.10857 0 0 1 -1.63464,3.43998l0.00201,0.00402z" stroke-width="5" stroke-miterlimit="10" stroke-dasharray=""></path><path data-v-9833e8b2="" transform="scale(0.12437810945273632)" fill="none" stroke="currentColor" paint-order="fill stroke markers" d="m137.80865,101.97958a2.11258,2.11258 0 0 1 -0.48397,-0.05623l-118.40502,-27.78688a2.10857,2.10857 0 0 1 0.95588,-4.10467l118.41305,27.78688a2.10857,2.10857 0 0 1 -0.47995,4.1609l0,0zm12.91647,16.34641a2.11861,2.11861 0 0 1 -0.42774,-0.04418l-123.35714,-25.39919a2.10857,2.10857 0 0 1 0.85146,-4.13078l123.35714,25.39919a2.10857,2.10857 0 0 1 -0.42372,4.17496z" stroke-width="5" stroke-miterlimit="10" stroke-dasharray=""></path><path data-v-9833e8b2="" transform="scale(0.12437810945273632)" fill="none" stroke="currentColor" paint-order="fill stroke markers" d="m83.13253,142.65281a2.10656,2.10656 0 0 1 -1.83546,-1.06633l-24.64412,-43.322a2.10857,2.10857 0 1 1 3.66489,-2.08447l24.6401,43.322a2.10857,2.10857 0 0 1 -1.82542,3.1508l0,0zm32.93379,4.09062a2.10656,2.10656 0 0 1 -1.75312,-0.93379l-27.29288,-40.65918a2.10857,2.10857 0 1 1 3.50223,-2.34954l27.29087,40.65717a2.10857,2.10857 0 0 1 -1.7471,3.28535zm27.55394,2.15275a2.10455,2.10455 0 0 1 -1.66476,-0.8133l-28.63433,-36.80552a2.10857,2.10857 0 1 1 3.32752,-2.58851l28.63433,36.80753a2.10857,2.10857 0 0 1 -1.66276,3.40383l0,-0.00402zm23.25246,2.79736a2.10455,2.10455 0 0 1 -1.62058,-0.75908l-30.06414,-36.07254a2.10857,2.10857 0 0 1 3.23916,-2.70097l30.06213,36.07455a2.10857,2.10857 0 0 1 -1.61657,3.45805z" stroke-width="5" stroke-miterlimit="10" stroke-dasharray=""></path><path data-v-9833e8b2="" transform="scale(0.12437810945273632)" fill="none" stroke="currentColor" paint-order="fill stroke markers" d="m164.26212,200.90948l-115.15181,0a4.21713,4.21713 0 0 1 -3.40182,-6.70926l36.63282,-50.00314a4.21713,4.21713 0 0 1 6.80364,4.98425l-31.71685,43.29388l96.99404,0l-40.76561,-42.89024a4.21713,4.21713 0 1 1 6.11283,-5.81161l47.53712,50.00314a4.21713,4.21713 0 0 1 -3.04437,7.13298z" stroke-width="5" stroke-miterlimit="10" stroke-dasharray=""></path><path data-v-9833e8b2="" transform="scale(0.12437810945273632)" fill="none" stroke="currentColor" paint-order="fill stroke markers" d="m78.60212,185.32818a2.10857,2.10857 0 0 1 -1.68685,-3.3717l18.20395,-24.32482a2.10857,2.10857 0 1 1 3.37572,2.52425l-18.20395,24.32683a2.10455,2.10455 0 0 1 -1.68886,0.84543zm-47.38249,-18.55538a4.60671,4.60671 0 0 1 -0.94182,-0.0984c-2.68892,-0.55827 -4.06853,-3.32149 -4.87179,-5.35174c-3.49018,-8.80979 -3.09256,-19.77433 1.14867,-31.71083c3.15883,-8.89212 7.28158,-15.15155 7.45629,-15.41261a2.10857,2.10857 0 0 1 3.51428,2.33147a74.36411,74.36411 0 0 0 -7.02855,14.58324c-2.69495,7.61694 -5.08466,18.77025 -1.16875,28.65441c1.02416,2.5845 1.77722,2.76925 1.80734,2.77527c0.8615,0.18073 3.25723,-2.20897 4.68905,-3.63677c3.01224,-3.01224 6.76549,-6.74942 11.36417,-6.46225c2.89376,0.18073 5.54653,1.86558 8.10894,5.15293c0.34139,0.43577 1.37559,1.76517 4.86978,0.984c3.0283,-0.67675 6.9904,-2.81142 10.59906,-5.72526c3.83156,-3.08855 5.57866,-5.64895 5.77948,-6.53656a2.10857,2.10857 0 1 1 4.11271,0.92978c-0.78117,3.46809 -5.74333,7.68522 -7.24544,8.89012c-4.14885,3.34358 -8.63508,5.73329 -12.32407,6.55664c-5.04048,1.12658 -7.73944,-0.74101 -9.11503,-2.50618c-1.75111,-2.24713 -3.45002,-3.43596 -5.0465,-3.53637c-2.70097,-0.16869 -5.58067,2.70499 -8.12501,5.23928c-2.50819,2.50417 -4.89187,4.87782 -7.58281,4.87982zm69.54653,-120.68026a2.10857,2.10857 0 0 1 -1.45391,-3.63477l31.49394,-29.99586a2.10857,2.10857 0 0 1 2.90781,3.05441l-31.49394,29.99184a2.10254,2.10254 0 0 1 -1.45391,0.58437zm25.9434,0a2.10857,2.10857 0 0 1 -1.45391,-3.63477l43.02278,-40.96643a2.10857,2.10857 0 0 1 2.89777,3.0524l-43.01475,40.96643a2.10254,2.10254 0 0 1 -1.4519,0.58237zm22.78456,38.53455a2.10857,2.10857 0 0 1 -1.45391,-3.63477l35.97214,-34.25717a2.10857,2.10857 0 0 1 2.90781,3.05441l-35.97214,34.25717a2.10254,2.10254 0 0 1 -1.45391,0.58036z" stroke-width="5" stroke-miterlimit="10" stroke-dasharray=""></path></g></svg>