<svg data-v-9833e8b2="" version="1.1" xmlns="http://www.w3.org/2000/svg" xmlns:xlink="http://www.w3.org/1999/xlink" width="7" height="25"><g data-v-9833e8b2=""><path data-v-9833e8b2="" transform="scale(0.2403846153846154)" fill="none" stroke="currentColor" paint-order="fill stroke markers" d="m10.72366,76.93398l0,-11.493" stroke-width="5" stroke-miterlimit="10" stroke-dasharray=""></path><path data-v-9833e8b2="" transform="scale(0.2403846153846154)" fill="none" stroke="currentColor" paint-order="fill stroke markers" d="m10.72368,80.21998a1.174,1.174 0 0 1 -0.92,-0.41l-8.409,-8.754a1.36,1.36 0 0 1 0,-1.916a1.236,1.236 0 0 1 1.839,0l7.49,7.8l7.49,-7.8a1.237,1.237 0 0 1 1.84,0a1.362,1.362 0 0 1 0,1.916l-8.41,8.754a1.394,1.394 0 0 1 -0.92,0.41z" stroke-width="5" stroke-miterlimit="10" stroke-dasharray=""></path><path data-v-9833e8b2="" transform="scale(0.2403846153846154)" fill="none" stroke="currentColor" paint-order="fill stroke markers" d="m10.72368,87.93698a1.172,1.172 0 0 1 -0.92,-0.411l-8.409,-8.754a1.36,1.36 0 0 1 0,-1.916a1.237,1.237 0 0 1 1.839,0l7.49,7.8l7.49,-7.8a1.238,1.238 0 0 1 1.84,0a1.362,1.362 0 0 1 0,1.916l-8.41,8.754a1.391,1.391 0 0 1 -0.92,0.411z" stroke-width="5" stroke-miterlimit="10" stroke-dasharray=""></path><path data-v-9833e8b2="" transform="scale(0.2403846153846154)" fill="none" stroke="currentColor" paint-order="fill stroke markers" d="m10.72366,103.18392l0,-15.493" stroke-width="5" stroke-miterlimit="10" stroke-dasharray=""></path><path data-v-9833e8b2="" transform="scale(0.2403846153846154)" fill="none" stroke="currentColor" paint-order="fill stroke markers" d="m10.72366,27.25l0,11.493" stroke-width="5" stroke-miterlimit="10" stroke-dasharray=""></path><path data-v-9833e8b2="" transform="scale(0.2403846153846154)" fill="none" stroke="currentColor" paint-order="fill stroke markers" d="m10.72368,23.96798a1.174,1.174 0 0 0 -0.92,0.41l-8.409,8.755a1.359,1.359 0 0 0 0,1.915a1.236,1.236 0 0 0 1.839,0l7.49,-7.8l7.49,7.8a1.237,1.237 0 0 0 1.84,0a1.361,1.361 0 0 0 0,-1.915l-8.41,-8.755a1.394,1.394 0 0 0 -0.92,-0.41z" stroke-width="5" stroke-miterlimit="10" stroke-dasharray=""></path><path data-v-9833e8b2="" transform="scale(0.2403846153846154)" fill="none" stroke="currentColor" paint-order="fill stroke markers" d="m10.72368,16.24798a1.174,1.174 0 0 0 -0.92,0.41l-8.409,8.755a1.359,1.359 0 0 0 0,1.915a1.234,1.234 0 0 0 1.839,0l7.49,-7.8l7.49,7.8a1.235,1.235 0 0 0 1.84,0a1.361,1.361 0 0 0 0,-1.915l-8.41,-8.755a1.394,1.394 0 0 0 -0.92,-0.41z" stroke-width="5" stroke-miterlimit="10" stroke-dasharray=""></path><path data-v-9833e8b2="" transform="scale(0.2403846153846154)" fill="none" stroke="currentColor" paint-order="fill stroke markers" d="m10.72366,1l0,15.493" stroke-width="5" stroke-miterlimit="10" stroke-dasharray=""></path></g></svg>