<svg data-v-9833e8b2="" version="1.1" xmlns="http://www.w3.org/2000/svg" xmlns:xlink="http://www.w3.org/1999/xlink" width="25" height="25"><g data-v-9833e8b2=""><path data-v-9833e8b2="" transform="scale(0.12376237623762376)" fill="none" stroke="currentColor" paint-order="fill stroke markers" d="m101.00025,201.0005c55.22955,0 100.00025,-44.7707 100.00025,-100.00025s-44.7707,-100.00025 -100.00025,-100.00025s-100.00025,44.7707 -100.00025,100.00025s44.7707,100.00025 100.00025,100.00025zm0,-17.6471c-45.48247,0 -82.35315,-36.87068 -82.35315,-82.35315s36.87068,-82.35315 82.35315,-82.35315s82.35315,36.87068 82.35315,82.35315s-36.87068,82.35315 -82.35315,82.35315z" stroke-width="5" stroke-miterlimit="10" stroke-dasharray=""></path><path data-v-9833e8b2="" transform="scale(0.12376237623762376)" fill="none" stroke="currentColor" paint-order="fill stroke markers" d="m65.70605,42.17657l0,47.05894l58.82368,0l0,-47.05894l17.6471,0l0,70.58841l-17.6471,0l0,-5.88237l-58.82368,0l0,52.94131l-17.6471,0l0,-117.64735l17.6471,0z" stroke-width="5" stroke-miterlimit="10" stroke-dasharray=""></path><path data-v-9833e8b2="" transform="scale(0.12376237623762376)" fill="none" stroke="currentColor" paint-order="fill stroke markers" d="m124.52972,136.29446l17.6471,0l0,-11.76473l-17.6471,0l0,-5.88237l29.41184,0l0,23.52947l-17.6471,0l0,11.76473l5.88237,0l0,-5.88237l11.76473,0l0,11.76473l-29.41184,0l0,-23.52947z" stroke-width="5" stroke-miterlimit="10" stroke-dasharray=""></path></g></svg>