<svg data-v-9833e8b2="" version="1.1" xmlns="http://www.w3.org/2000/svg" xmlns:xlink="http://www.w3.org/1999/xlink" width="25" height="20"><g data-v-9833e8b2=""><path data-v-9833e8b2="" transform="scale(0.1893939393939394)" fill="none" stroke="currentColor" paint-order="fill stroke markers" d="m66.0009,31.00011s25.00006,25.65006 25.00006,45.00011a25.00006,25.00006 0 0 1 -50.00013,0c0,-19.35005 25.00006,-45.00011 25.00006,-45.00011zm9.84002,47.40012a31.54508,31.54508 0 0 0 3.63501,-8.90002a14.92504,14.92504 0 0 1 -13.47503,21.50005a15.85004,15.85004 0 0 1 -3.80501,-0.55a27.50007,27.50007 0 0 0 13.64503,-12.05003zm44.87511,22.60006l-12.29003,0a54.87014,54.87014 0 0 0 4.32001,-63.90016a19.75005,19.75005 0 0 0 6.60502,-8.20002a64.80016,64.80016 0 0 1 1.365,72.10018zm-19.71505,-67.50017a12.50003,12.50003 0 1 1 0,-25.00006a12.50003,12.50003 0 0 1 0,25.00006zm-18.50005,-20.00005a56.00014,56.00014 0 0 0 -16.50004,-2.50001a55.00014,55.00014 0 0 0 -42.43011,90.00023l-12.28503,0a64.93016,64.93016 0 0 1 54.71514,-100.00025c7.80502,0.025 15.55004,1.45 22.85006,4.20001a20.00005,20.00005 0 0 0 -6.35002,8.30002z" stroke-width="5" stroke-miterlimit="10" stroke-dasharray=""></path></g></svg>