<svg data-v-9833e8b2="" version="1.1" xmlns="http://www.w3.org/2000/svg" xmlns:xlink="http://www.w3.org/1999/xlink" width="24.5" height="25"><g data-v-9833e8b2=""><path data-v-9833e8b2="" transform="scale(0.18115942028985507)" fill="none" stroke="currentColor" paint-order="fill stroke markers" d="m66.44876,64.63428l-5.731,3.3097l-3.2667,11.3473l3.8683,-2.2351l-3.2524,11.5337l10.2298,-19.4854l-4.7996,2.7652l2.9516,-7.2354z" stroke-width="5" stroke-miterlimit="10" stroke-dasharray=""></path><path data-v-9833e8b2="" transform="scale(0.18115942028985507)" fill="none" stroke="currentColor" paint-order="fill stroke markers" d="m66.44876,95.62478l-5.731,3.3093l-3.2667,11.348l3.8683,-2.235l-3.2524,11.533l10.2298,-19.485l-4.7996,2.765l2.9516,-7.2353z" stroke-width="5" stroke-miterlimit="10" stroke-dasharray=""></path><path data-v-9833e8b2="" transform="scale(0.18115942028985507)" fill="none" stroke="currentColor" paint-order="fill stroke markers" d="m102.76756,63.00088l10.23,-19.4997l-4.8,2.7795l2.938,-7.2497l-5.731,3.3097l-3.253,11.3617l3.869,-2.2351l-3.253,11.5336z" stroke-width="5" stroke-miterlimit="10" stroke-dasharray=""></path><path data-v-9833e8b2="" transform="scale(0.18115942028985507)" fill="none" stroke="currentColor" paint-order="fill stroke markers" d="m129.24556,22.78358c0,0 0,-0.086 0,-0.1289c-0.019,-0.1603 -0.068,-0.3158 -0.143,-0.4585c-0.087,-0.1425 -0.199,-0.2685 -0.33,-0.3726l-0.1,-0.0859c-0.033,-0.0066 -0.067,-0.0066 -0.1,0l-36.0196,-20.54573c-0.2178,-0.12575 -0.4649,-0.19195 -0.7164,-0.19195c-0.2515,0 -0.4986,0.0662 -0.7164,0.19195l-89.38944,51.17793c-0.22131,0.1244 -0.40574,0.3054 -0.53413,0.5244c-0.12839,0.219 -0.19615,0.4683 -0.19659,0.7221l0,61.7947c0.00044,0.254 0.0682,0.503 0.19659,0.722c0.12839,0.219 0.31282,0.4 0.53413,0.524l36.01944,20.532c0,0 -0.0001,0 0.1002,0l0.1146,0c0.1561,0.056 0.3211,0.086 0.4872,0.086c0.171,0.001 0.3408,-0.028 0.5014,-0.086l0.1146,0c0,0 0.0001,0 0.1004,0l89.389,-51.1782c0.222,-0.1244 0.406,-0.3053 0.534,-0.5243c0.129,-0.219 0.197,-0.4683 0.197,-0.7221l0,-61.8663c0,0 -0.043,-0.0717 -0.043,-0.1146zm-44.6588,85.1775l0,-22.6952c0,-0.38 -0.1511,-0.7444 -0.4198,-1.0131c-0.2687,-0.2687 -0.633,-0.4197 -1.013,-0.4197c-0.38,0 -0.7443,0.151 -1.013,0.4197c-0.2687,0.2687 -0.4197,0.6331 -0.4197,1.0131l0,24.2562l-41.8363,23.956l0,-23.798c0,-0.38 -0.1511,-0.744 -0.4198,-1.013c-0.2687,-0.269 -0.633,-0.42 -1.013,-0.42c-0.38,0 -0.7445,0.151 -1.0132,0.42c-0.2686,0.269 -0.4195,0.633 -0.4195,1.013l0,23.798l-33.154,-18.898l0,-60.1757l87.9711,-50.36126l33.125,18.89796l-41.8076,23.8841l-30.0878,-17.193c-0.3274,-0.1713 -0.7084,-0.2095 -1.0633,-0.1065c-0.3549,0.1029 -0.6564,0.339 -0.8413,0.659c-0.1849,0.3199 -0.239,0.6989 -0.1511,1.0578c0.0879,0.359 0.3111,0.6701 0.623,0.8683l28.655,16.362l-41.8219,23.9413l-30.0878,-17.193c-0.1637,-0.0941 -0.3445,-0.155 -0.5317,-0.1793c-0.1873,-0.0242 -0.3774,-0.0114 -0.5597,0.0378c-0.1823,0.0492 -0.3531,0.1339 -0.5027,0.2492c-0.1495,0.1152 -0.2749,0.2587 -0.369,0.4224c-0.0941,0.1637 -0.1548,0.3443 -0.1791,0.5315c-0.0243,0.1873 -0.0114,0.3775 0.0378,0.5598c0.0492,0.1823 0.1338,0.353 0.2491,0.5025c0.1152,0.1496 0.2588,0.275 0.4225,0.3691l30.0878,17.193l0,27.695l-28.655,-16.3762c-0.1644,-0.0942 -0.3459,-0.1548 -0.5338,-0.1784c-0.188,-0.0236 -0.3789,-0.0096 -0.5614,0.041c-0.1826,0.0506 -0.3532,0.1369 -0.5022,0.254c-0.1489,0.117 -0.2733,0.2625 -0.3657,0.4278c-0.1856,0.3308 -0.2325,0.7215 -0.1305,1.0868c0.1021,0.3652 0.3448,0.6752 0.675,0.8618l30.8472,17.5942c0.2141,0.121 0.4559,0.185 0.702,0.186c0.251,0.002 0.498,-0.062 0.7164,-0.186l44.702,-25.589c0.2186,-0.1262 0.3999,-0.308 0.5257,-0.5269c0.1258,-0.2189 0.1917,-0.4671 0.1907,-0.7196l0,-25.0588c0,-0.38 -0.1511,-0.7444 -0.4198,-1.0131c-0.2687,-0.2687 -0.633,-0.4197 -1.013,-0.4197c-0.38,0 -0.7443,0.151 -1.013,0.4197c-0.2687,0.2687 -0.4198,0.6331 -0.4198,1.0131l0,24.2278l-41.8364,23.9555l0,-27.695l86.5384,-49.5446l0,27.6951l-39.0283,22.308c-0.3306,0.19 -0.5722,0.5036 -0.6716,0.8717c-0.0994,0.3681 -0.0487,0.7606 0.1413,1.0912c0.19,0.3306 0.5036,0.5722 0.8717,0.6716c0.3681,0.0994 0.7608,0.0485 1.0913,-0.1415l37.5526,-21.4913l0,27.5661l-41.8508,24.0277z" stroke-width="5" stroke-miterlimit="10" stroke-dasharray=""></path><path data-v-9833e8b2="" transform="scale(0.18115942028985507)" fill="none" stroke="currentColor" paint-order="fill stroke markers" d="m111.13556,70.03578l-5.731,3.3097l-3.253,11.3473l3.869,-2.235l-3.253,11.5336l10.23,-19.4854l-4.8,2.7652l2.938,-7.2354z" stroke-width="5" stroke-miterlimit="10" stroke-dasharray=""></path><path data-v-9833e8b2="" transform="scale(0.18115942028985507)" fill="none" stroke="currentColor" paint-order="fill stroke markers" d="m37.57756,64.83488c1.2438,0.6733 2.6406,1.0139 4.0548,0.9886c1.4185,0.0232 2.8192,-0.3171 4.0689,-0.9886c0.6013,-0.2924 1.1134,-0.7401 1.4837,-1.2968c0.3702,-0.5566 0.5852,-1.2021 0.6224,-1.8696l0,-6.7196c-0.0402,-0.6668 -0.2562,-1.311 -0.6261,-1.8671c-0.3699,-0.5562 -0.8806,-1.0045 -1.48,-1.2993c-1.2554,-0.6495 -2.6483,-0.9885 -4.0618,-0.9885c-1.4135,0 -2.8065,0.339 -4.0619,0.9885c-0.5994,0.2948 -1.1099,0.7431 -1.4798,1.2993c-0.37,0.5561 -0.5861,1.2003 -0.6263,1.8671l0,6.7912c0.0467,0.6558 0.2661,1.2876 0.6361,1.8312c0.3699,0.5435 0.877,0.9795 1.47,1.2636zm1.4327,-10.6454c0.8199,-0.3959 1.7188,-0.6015 2.6292,-0.6015c0.9105,0 1.8092,0.2056 2.6291,0.6015c0.5301,0.3009 0.6733,0.5875 0.6733,0.6878c0,0.1003 -0.1432,0.3868 -0.6733,0.702c-1.0867,0.5367 -2.312,0.7267 -3.5102,0.5444c-0.1881,-0.0244 -0.3793,-0.0116 -0.5625,0.0378c-0.1832,0.0494 -0.3549,0.1345 -0.5052,0.2502c-0.1504,0.1158 -0.2764,0.2599 -0.371,0.4244c-0.0946,0.1645 -0.1559,0.346 -0.1803,0.5341c-0.0245,0.1882 -0.0116,0.3793 0.0378,0.5625c0.0494,0.1832 0.1343,0.3548 0.2501,0.5052c0.1157,0.1503 0.26,0.2764 0.4244,0.371c0.1645,0.0946 0.346,0.1559 0.5342,0.1804c0.413,0.0571 0.8295,0.0858 1.2465,0.0859c1.134,0.0102 2.2587,-0.204 3.3095,-0.6304l0,3.2524c0,0.1146 -0.1862,0.4011 -0.6733,0.6877c-0.8178,0.4031 -1.7173,0.6128 -2.6291,0.6128c-0.9117,0 -1.8114,-0.2097 -2.6292,-0.6128c-0.4871,-0.2866 -0.6733,-0.5731 -0.6733,-0.6877l0,-6.7483c0,-0.1863 0.1862,-0.4729 0.6733,-0.7594z" stroke-width="5" stroke-miterlimit="10" stroke-dasharray=""></path><path data-v-9833e8b2="" transform="scale(0.18115942028985507)" fill="none" stroke="currentColor" paint-order="fill stroke markers" d="m56.30406,54.04618c1.2438,0.6733 2.6406,1.0139 4.0548,0.9886c1.4185,0.0232 2.8191,-0.3171 4.0688,-0.9886c0.6004,-0.2919 1.1113,-0.7398 1.4793,-1.2968c0.368,-0.5571 0.5795,-1.2028 0.6124,-1.8696l0,-6.7912c-0.0359,-0.666 -0.2483,-1.3104 -0.6159,-1.8669c-0.3677,-0.5566 -0.8773,-1.0051 -1.4758,-1.2994c-1.2555,-0.6495 -2.6483,-0.9885 -4.0618,-0.9885c-1.4135,0 -2.8064,0.339 -4.0618,0.9885c-0.6033,0.2935 -1.1169,0.7434 -1.4873,1.3028c-0.3704,0.5594 -0.584,1.2078 -0.6188,1.8778l0,6.7769c0.0328,0.6687 0.2459,1.3161 0.6167,1.8735c0.3708,0.5575 0.8853,1.0042 1.4894,1.2929zm1.4327,-10.6453c0.8199,-0.3959 1.7186,-0.6016 2.6291,-0.6016c0.9105,0 1.8091,0.2057 2.629,0.6016c0.4872,0.2865 0.659,0.5731 0.659,0.6877c0,0.1146 -0.1289,0.3868 -0.659,0.702c-1.0386,0.5111 -2.2029,0.7102 -3.3524,0.5732c-0.1881,-0.0207 -0.3786,-0.0041 -0.5604,0.0488c-0.1817,0.0528 -0.3514,0.1409 -0.4991,0.2593c-0.1477,0.1184 -0.2706,0.2648 -0.3617,0.4307c-0.0911,0.1659 -0.1486,0.3482 -0.1693,0.5363c-0.0207,0.1882 -0.0043,0.3786 0.0486,0.5603c0.0529,0.1818 0.1412,0.3513 0.2596,0.499c0.1184,0.1477 0.2647,0.2706 0.4306,0.3617c0.1659,0.0911 0.3484,0.1487 0.5366,0.1694c0.3483,0.0212 0.6975,0.0212 1.0458,0c1.1248,0.011 2.2401,-0.2034 3.2807,-0.6304l0,3.2523c0,0.1003 -0.1289,0.3868 -0.659,0.6877c-0.8203,0.4034 -1.7219,0.6131 -2.636,0.6131c-0.9141,0 -1.8161,-0.2097 -2.6364,-0.6131c-0.5158,-0.3009 -0.659,-0.5874 -0.659,-0.6877l0,-6.777c0,-0.0859 0.1432,-0.3581 0.6733,-0.6733z" stroke-width="5" stroke-miterlimit="10" stroke-dasharray=""></path><path data-v-9833e8b2="" transform="scale(0.18115942028985507)" fill="none" stroke="currentColor" paint-order="fill stroke markers" d="m82.26536,39.18858c1.258,0.6496 2.6533,0.9885 4.0691,0.9885c1.4158,0 2.8112,-0.3389 4.0692,-0.9885c0.5985,-0.2943 1.1077,-0.7429 1.4754,-1.2994c0.3677,-0.5565 0.5804,-1.201 0.6163,-1.867l0,-6.7912c-0.0344,-0.6665 -0.2467,-1.3115 -0.6146,-1.8683c-0.3678,-0.5568 -0.8777,-1.0049 -1.4771,-1.2981c-1.258,-0.6495 -2.6534,-0.9886 -4.0692,-0.9886c-1.4158,0 -2.8111,0.3391 -4.0691,0.9886c-0.5995,0.2932 -1.1094,0.7413 -1.4772,1.2981c-0.3678,0.5568 -0.5801,1.2018 -0.6146,1.8683l0,6.7912c0.0359,0.666 0.2487,1.3105 0.6164,1.867c0.3676,0.5565 0.8768,1.0051 1.4754,1.2994zm1.4327,-10.6453c0.8187,-0.4001 1.7182,-0.608 2.6294,-0.608c0.9112,0 1.8104,0.2079 2.6291,0.608c0.5014,0.2865 0.6733,0.573 0.6733,0.6877c0,0.1146 -0.1718,0.4155 -0.659,0.6877c-1.072,0.5346 -2.2818,0.7295 -3.4675,0.5587c-0.1881,-0.0235 -0.3789,-0.0097 -0.5617,0.0406c-0.1829,0.0503 -0.3541,0.1361 -0.5037,0.2525c-0.1497,0.1164 -0.275,0.2611 -0.3687,0.4259c-0.0938,0.1649 -0.1542,0.3465 -0.1777,0.5347c-0.0235,0.1882 -0.0097,0.3791 0.0405,0.5619c0.0503,0.1829 0.1362,0.354 0.2526,0.5037c0.1164,0.1496 0.2612,0.2749 0.426,0.3686c0.1649,0.0938 0.3464,0.1541 0.5345,0.1776c0.3914,0.0214 0.7837,0.0214 1.175,0c1.1334,0.004 2.2571,-0.21 3.3097,-0.6304l0,3.2524c0,0.1146 -0.1718,0.4011 -0.659,0.6877c-0.8224,0.3961 -1.7236,0.6018 -2.6364,0.6018c-0.9128,0 -1.814,-0.2057 -2.6364,-0.6018c-0.5301,-0.3152 -0.659,-0.5874 -0.659,-0.6877l0,-6.7912c0,-0.0144 0.1146,-0.2723 0.659,-0.5732l0,-0.0572z" stroke-width="5" stroke-miterlimit="10" stroke-dasharray=""></path><path data-v-9833e8b2="" transform="scale(0.18115942028985507)" fill="none" stroke="currentColor" paint-order="fill stroke markers" d="m100.99256,28.45728c1.249,0.6715 2.65,1.0118 4.069,0.9886c1.414,0.0252 2.811,-0.3153 4.055,-0.9886c0.601,-0.2924 1.113,-0.7401 1.483,-1.2968c0.37,-0.5566 0.585,-1.2021 0.623,-1.8696l0,-6.7913c-0.038,-0.6675 -0.253,-1.3129 -0.623,-1.8696c-0.37,-0.5567 -0.882,-1.0044 -1.483,-1.2968c-1.256,-0.6494 -2.649,-0.9884 -4.063,-0.9884c-1.413,0 -2.806,0.339 -4.061,0.9884c-0.602,0.2924 -1.114,0.7401 -1.484,1.2968c-0.37,0.5567 -0.585,1.2021 -0.622,1.8696l0,6.7913c0.037,0.6675 0.252,1.313 0.622,1.8696c0.37,0.5567 0.882,1.0044 1.484,1.2968zm1.432,-10.6453c0.82,-0.396 1.719,-0.6016 2.629,-0.6016c0.911,0 1.81,0.2056 2.63,0.6016c0.53,0.3008 0.673,0.5874 0.673,0.6876c0,0.1003 -0.172,0.4155 -0.673,0.6877c-1.021,0.5173 -2.174,0.717 -3.31,0.5732c-0.188,-0.0198 -0.379,-0.0021 -0.56,0.0522c-0.182,0.0542 -0.35,0.1439 -0.497,0.2638c-0.147,0.1199 -0.268,0.2676 -0.357,0.4347c-0.089,0.1671 -0.144,0.3503 -0.162,0.5388c-0.036,0.3758 0.078,0.7506 0.317,1.0431c0.238,0.2924 0.583,0.4787 0.958,0.5185c0.334,0.0214 0.669,0.0214 1.003,0c1.124,0.0039 2.239,-0.2102 3.281,-0.6304l0,3.2524c0,0.1003 -0.143,0.3725 -0.673,0.6877c-0.82,0.3959 -1.719,0.6016 -2.63,0.6016c-0.91,0 -1.809,-0.2057 -2.629,-0.6016c-0.53,-0.3152 -0.673,-0.5874 -0.673,-0.6877l0,-6.7912c0.029,-0.0573 0.186,-0.3439 0.673,-0.6304z" stroke-width="5" stroke-miterlimit="10" stroke-dasharray=""></path></g></svg>