<svg data-v-9833e8b2="" version="1.1" xmlns="http://www.w3.org/2000/svg" xmlns:xlink="http://www.w3.org/1999/xlink" width="27" height="25"><g data-v-9833e8b2=""><path data-v-9833e8b2="" transform="scale(0.12437810945273632)" fill="none" stroke="currentColor" paint-order="fill stroke markers" d="m41.73897,150.42201a4.84084,4.84084 0 0 1 -4.36828,-6.91549l21.23516,-44.64639a4.84084,4.84084 0 1 1 8.74348,4.14929l-21.23516,44.64869a4.84084,4.84084 0 0 1 -4.3752,2.76389zm81.25236,0a4.84084,4.84084 0 0 1 -4.42822,-2.86762l-20.22319,-45.23651a4.84084,4.84084 0 0 1 8.83799,-3.95335l20.23011,45.23881a4.84084,4.84084 0 0 1 -4.41669,6.81867z" stroke-width="5" stroke-miterlimit="10" stroke-dasharray=""></path><path data-v-9833e8b2="" transform="scale(0.12437810945273632)" fill="none" stroke="currentColor" paint-order="fill stroke markers" d="m129.09771,189.83568l-92.75743,0a4.97915,4.97915 0 0 1 -4.97915,-4.97915l0,-39.27766a4.97915,4.97915 0 0 1 4.97915,-4.97915l32.96382,0a4.97915,4.97915 0 0 1 0,9.9583l-27.98467,0l0,29.31706l82.79913,0l0,-29.31705l-11.01868,0a4.97915,4.97915 0 0 1 0,-9.9583l15.99783,0a4.97915,4.97915 0 0 1 4.97915,4.97915l0,39.27766a4.97915,4.97915 0 0 1 -4.97915,4.97915z" stroke-width="5" stroke-miterlimit="10" stroke-dasharray=""></path><path data-v-9833e8b2="" transform="scale(0.12437810945273632)" fill="none" stroke="currentColor" paint-order="fill stroke markers" d="m96.0071,68.96679l19.11441,-32.80707l72.93534,24.03132l-80.59309,23.15536l-11.45666,-14.3796zm-20.88016,44.5634l-17.01671,82.93744l57.01128,-51.75781l-19.11441,-35.96745l-20.88016,4.78782zm-7.81681,-43.29556l-60.48285,-53.1801l12.56314,71.37705l38.50774,0l9.41198,-18.19695z" stroke-width="5" stroke-miterlimit="10" stroke-dasharray=""></path><path data-v-9833e8b2="" transform="scale(0.12437810945273632)" fill="none" stroke="currentColor" paint-order="fill stroke markers" d="m59.08992,93.98011l-0.03688,0l-38.43628,-0.28584a4.84084,4.84084 0 0 1 -4.71867,-3.93722l-14.81297,-77.86147a4.84084,4.84084 0 0 1 8.18333,-4.32218l61.57781,61.73225a4.84084,4.84084 0 1 1 -6.85555,6.83711l-50.45079,-50.57757l11.12241,58.47736l34.46909,0.25587a4.84084,4.84084 0 0 1 -0.03458,9.68168l-0.00691,0zm-3.8865,107.01486a4.84084,4.84084 0 0 1 -4.67256,-6.09946l22.17105,-82.33118a4.84084,4.84084 0 1 1 9.34743,2.51724l-18.07478,67.11711l45.07976,-38.87195l-17.46161,-30.76239a4.84084,4.84084 0 0 1 8.42076,-4.7786l19.4256,34.22244a4.84084,4.84084 0 0 1 -1.04885,6.05566l-60.02643,51.75551a4.84084,4.84084 0 0 1 -3.16038,1.17563zm50.1004,-112.51728a4.84084,4.84084 0 0 1 -1.24479,-9.52032l70.34664,-18.7525l-56.20447,-19.59388l-18.7087,31.84351a4.84084,4.84084 0 1 1 -8.3493,-4.90308l20.73494,-35.28282a4.84084,4.84084 0 0 1 5.76291,-2.11844l74.83249,26.10366a4.84084,4.84084 0 0 1 -0.34808,9.24831l-85.57224,22.82111a4.84084,4.84084 0 0 1 -1.2494,0.15445zm-50.1004,70.04006l-19.41408,0a2.26828,2.26828 0 1 1 0,-4.53656l19.41408,0a2.26828,2.26828 0 0 1 0,4.53656zm74.927,14.75073l-32.68951,0a2.42042,2.42042 0 0 1 0,-4.84084l32.6872,0a2.42042,2.42042 0 0 1 0,4.84084l0.0023,0zm3.13502,-150.87288a2.40889,2.40889 0 0 1 -1.42459,-0.46103c-18.52198,-13.53361 -41.1702,-18.79168 -63.74235,-14.81067a2.42042,2.42042 0 0 1 -0.84138,-4.76708a88.07334,88.07334 0 0 1 67.44214,15.66358a2.42042,2.42042 0 0 1 -1.4292,4.37981l-0.00461,-0.00461zm-77.76235,7.80759a2.42042,2.42042 0 0 1 -0.95664,-4.6449a70.70164,70.70164 0 0 1 40.87284,-4.52503a2.42042,2.42042 0 0 1 -0.89901,4.75786a65.85849,65.85849 0 0 0 -38.06284,4.21614a2.41351,2.41351 0 0 1 -0.95434,0.19594zm-16.34821,-12.57927a2.42042,2.42042 0 0 1 -1.22634,-4.5089a87.95117,87.95117 0 0 1 15.46072,-7.146a2.42042,2.42042 0 0 1 1.59517,4.57114a83.09188,83.09188 0 0 0 -14.60781,6.75182a2.40889,2.40889 0 0 1 -1.22174,0.33194z" stroke-width="5" stroke-miterlimit="10" stroke-dasharray=""></path><path data-v-9833e8b2="" transform="scale(0.12437810945273632)" fill="none" stroke="currentColor" paint-order="fill stroke markers" d="m82.71784,117.80166a27.05339,27.05339 0 1 1 27.05339,-27.05339a27.08335,27.08335 0 0 1 -27.05339,27.05339zm0,-44.42509a17.3717,17.3717 0 1 0 17.3717,17.3717a17.39245,17.39245 0 0 0 -17.3717,-17.3717z" stroke-width="5" stroke-miterlimit="10" stroke-dasharray=""></path><path data-v-9833e8b2="" transform="scale(0.12437810945273632)" fill="none" stroke="currentColor" paint-order="fill stroke markers" d="m82.76164,102.76047a12.0122,12.0122 0 1 1 12.0122,-12.0122a2.42042,2.42042 0 0 1 -4.84084,0a7.17136,7.17136 0 1 0 -7.17136,7.17136a2.42042,2.42042 0 0 1 0,4.84084z" stroke-width="5" stroke-miterlimit="10" stroke-dasharray=""></path><path data-v-9833e8b2="" transform="scale(0.12437810945273632)" fill="none" stroke="currentColor" paint-order="fill stroke markers" d="m46.66971,72.22399a2.41351,2.41351 0 0 1 -1.71504,-0.71229l-19.63768,-19.73911a2.42042,2.42042 0 1 1 3.43239,-3.41395l19.63768,19.73911a2.42042,2.42042 0 0 1 -1.71735,4.12624zm67.11942,-5.46785a2.42042,2.42042 0 0 1 -2.02624,-3.7528l8.78958,-13.49673a2.42042,2.42042 0 0 1 4.05478,2.66246l-8.78728,13.48751a2.41812,2.41812 0 0 1 -2.03085,1.09956zm-32.15702,93.75557a2.42042,2.42042 0 0 1 -1.58595,-4.24841l16.92681,-14.67928a2.42042,2.42042 0 0 1 3.1719,3.64446l-16.92681,14.67928a2.4112,2.4112 0 0 1 -1.58595,0.60395l0,0z" stroke-width="5" stroke-miterlimit="10" stroke-dasharray=""></path><path data-v-9833e8b2="" transform="scale(0.12437810945273632)" fill="none" stroke="currentColor" paint-order="fill stroke markers" d="m127.61549,158.66758l-12.38794,0a2.42042,2.42042 0 0 1 0,-4.84084l12.38794,0a2.42042,2.42042 0 0 1 0,4.84084z" stroke-width="5" stroke-miterlimit="10" stroke-dasharray=""></path><path data-v-9833e8b2="" transform="scale(0.12437810945273632)" fill="none" stroke="currentColor" paint-order="fill stroke markers" d="m82.76164,90.74827m-2.22218,0a2.22218,2.22218 0 1 0 4.44435,0a2.22218,2.22218 0 1 0 -4.44435,0z" stroke-width="5" stroke-miterlimit="10" stroke-dasharray=""></path></g></svg>