<svg data-v-9833e8b2="" version="1.1" xmlns="http://www.w3.org/2000/svg" xmlns:xlink="http://www.w3.org/1999/xlink" width="25" height="10"><g data-v-9833e8b2=""><path data-v-9833e8b2="" transform="scale(0.052521008403361345)" fill="none" stroke="currentColor" paint-order="fill stroke markers" d="m1.30917,163.225l40.19239,0l0,6.28333l-40.19239,0l0,-6.28333z" stroke-width="5" stroke-miterlimit="10" stroke-dasharray=""></path><path data-v-9833e8b2="" transform="scale(0.052521008403361345)" fill="none" stroke="currentColor" paint-order="fill stroke markers" d="m78.60223,163.225l108.21028,0l0,6.28333l-108.21028,0l0,-6.28333z" stroke-width="5" stroke-miterlimit="10" stroke-dasharray=""></path><path data-v-9833e8b2="" transform="scale(0.052521008403361345)" fill="none" stroke="currentColor" paint-order="fill stroke markers" d="m167.953,122.6975c-13.91275,0.9425 -23.49709,4.08417 -33.3906,7.22583c-5.87427,1.885 -12.05772,3.77 -19.47785,5.34083c-11.74854,2.51333 -23.80626,3.45583 -36.48232,3.14167l-0.30917,6.28333c1.85503,0 4.01924,0 5.87427,0c10.82103,0 21.64206,-1.25667 31.84474,-3.45583c7.72931,-1.57083 13.91275,-3.77 20.09619,-5.655c9.58434,-3.14167 18.85951,-5.96917 32.15391,-6.91167c5.87427,-0.31417 12.05772,-0.31417 18.24116,0l0.30917,-6.28333c-6.18344,0 -12.36689,0 -18.85951,0.31417z" stroke-width="5" stroke-miterlimit="10" stroke-dasharray=""></path><path data-v-9833e8b2="" transform="scale(0.052521008403361345)" fill="none" stroke="currentColor" paint-order="fill stroke markers" d="m167.953,135.26417l0.30917,6.28333c5.87427,-0.31417 12.05772,-0.31417 18.24116,0l0.30917,-6.28333c-6.18344,-0.31417 -12.36689,-0.31417 -18.85951,0z" stroke-width="5" stroke-miterlimit="10" stroke-dasharray=""></path><path data-v-9833e8b2="" transform="scale(0.052521008403361345)" fill="none" stroke="currentColor" paint-order="fill stroke markers" d="m136.41743,148.45917c5.5651,-1.885 10.82103,-3.45583 17.00447,-4.7125l-1.23669,-6.28333c-6.49262,1.25667 -11.74854,3.14167 -17.62282,5.02667c-5.87427,1.885 -12.05772,3.77 -19.47785,5.34083c-6.80179,1.57083 -13.91275,2.51333 -21.33288,2.8275l0.30917,6.28333c7.42013,-0.31417 14.84027,-1.57083 21.95123,-3.14167c8.03848,-1.25667 14.22192,-3.45583 20.40537,-5.34083z" stroke-width="5" stroke-miterlimit="10" stroke-dasharray=""></path><path data-v-9833e8b2="" transform="scale(0.052521008403361345)" fill="none" stroke="currentColor" paint-order="fill stroke markers" d="m87.87739,157.25584l0,-6.28333c-3.09172,0 -6.18344,0 -8.96599,0l-0.30917,6.28333c1.85503,0 4.01924,0 5.87427,0c1.23669,0 2.16421,0 3.40089,0z" stroke-width="5" stroke-miterlimit="10" stroke-dasharray=""></path><path data-v-9833e8b2="" transform="scale(0.052521008403361345)" fill="none" stroke="currentColor" paint-order="fill stroke markers" d="m16.76778,134.95c8.03848,0.31417 16.38613,1.57083 24.11543,3.14167l1.23669,-6.28333c-8.34765,-1.57083 -16.6953,-2.8275 -25.35212,-3.14167c-5.25593,-0.31417 -10.51186,-0.31417 -15.76778,0l0.30917,6.28333c5.25593,-0.31417 10.20268,-0.31417 15.45861,0z" stroke-width="5" stroke-miterlimit="10" stroke-dasharray=""></path><path data-v-9833e8b2="" transform="scale(0.052521008403361345)" fill="none" stroke="currentColor" paint-order="fill stroke markers" d="m32.53557,142.80417l-0.92752,6.28333c3.09172,0.31417 6.18344,0.9425 8.96599,1.57083l1.23669,-6.28333c-2.78255,-0.31417 -5.87427,-0.9425 -9.27517,-1.57083z" stroke-width="5" stroke-miterlimit="10" stroke-dasharray=""></path><path data-v-9833e8b2="" transform="scale(0.052521008403361345)" fill="none" stroke="currentColor" paint-order="fill stroke markers" d="m16.76778,147.83084c0.92752,0 2.16421,0 3.09172,0.31417l0.30917,-6.28333c-0.92752,0 -2.16421,0 -3.09172,-0.31417c-5.25593,-0.31417 -10.82103,-0.31417 -15.76778,0l0.30917,6.28333c4.94676,-0.31417 9.89351,-0.31417 15.14944,0z" stroke-width="5" stroke-miterlimit="10" stroke-dasharray=""></path><path data-v-9833e8b2="" transform="scale(0.052521008403361345)" fill="none" stroke="currentColor" paint-order="fill stroke markers" d="m47.685,109.81667l0,59.69166c0,0.62833 0,0.9425 0.30917,1.25667l9.27517,18.85c0.61834,0.9425 1.54586,1.885 2.78255,1.885s2.16421,-0.62833 2.78255,-1.885l9.27517,-18.85c0.30917,-0.31417 0.30917,-0.62833 0.30917,-1.25667l0,-59.69166l12.36689,0l18.55033,0l74.20133,0l9.27517,0l0,-6.28333l-6.18344,0l0,-65.975c0,-1.885 -1.23669,-3.14167 -3.09172,-3.14167l-74.20133,0c-1.85503,0 -3.09172,1.25667 -3.09172,3.14167l0,65.975l-12.98523,0l-17.31364,-78.54166l5.5651,0c1.85503,0 3.09172,-1.25667 3.09172,-3.14167l0,-9.425c0,-5.34083 -4.01924,-9.425 -9.27517,-9.425l-18.55033,0c-5.25593,0 -9.27517,4.08417 -9.27517,9.425l0,9.425c0,1.885 1.23669,3.14167 3.09172,3.14167l5.5651,0l-17.31364,78.54166l-31.53557,0l0,6.28333l34.00894,0l12.36689,0zm6.18344,56.55l0,-8.16833l12.36689,4.08417l0,4.08417l-12.36689,0zm0,-14.76583l0,-5.96917l12.36689,4.08417l0,5.96917l-12.36689,-4.08417zm0,-12.56667l0,-5.96917l12.36689,4.08417l0,5.96917l-12.36689,-4.08417zm12.36689,-8.4825l-12.36689,-4.08417l0,-5.96917l12.36689,4.08417l0,5.96917zm-6.18344,50.895l-4.32841,-8.79667l8.65682,0l-4.32841,8.79667zm6.18344,-63.46166l-12.36689,-4.08417l0,-4.08417l12.36689,0l0,8.16833zm40.19239,-77.285l68.01789,0l0,62.83333l-68.01789,0l0,-62.83333zm-58.43355,22.30583l19.16868,8.79667l-22.87874,8.4825l3.71007,-17.27917zm25.04295,4.7125l-17.31364,-7.85417l14.22192,-5.34083l3.09172,13.195zm-23.49709,-12.2525l3.40089,-15.39417l12.67606,9.425l-16.07696,5.96917zm25.35212,20.10667l4.32841,19.16417l-28.44384,-10.05333l24.11543,-9.11083zm-27.20716,-63.1475c0,-1.885 1.23669,-3.14167 3.09172,-3.14167l18.55033,0c1.85503,0 3.09172,1.25667 3.09172,3.14167l0,6.28333l-6.18344,0l-12.36689,0l-6.18344,0l0,-6.28333zm16.07696,12.56667l4.01924,17.9075l-12.98523,-9.425l1.54586,-8.4825l7.42013,0zm-21.33288,63.46166l38.02818,13.82333l0.30917,1.25667l-41.73825,0l3.40089,-15.08z" stroke-width="5" stroke-miterlimit="10" stroke-dasharray=""></path><path data-v-9833e8b2="" transform="scale(0.052521008403361345)" fill="none" stroke="currentColor" paint-order="fill stroke markers" d="m146.62011,68.97501l-6.80179,0l4.63758,-7.85417l-5.25593,-3.14167l-7.42013,12.56667c-0.61834,0.9425 -0.61834,2.19917 0,3.14167c0.61834,0.9425 1.54586,1.57083 2.78255,1.57083l6.80179,0l-4.63758,7.85417l5.25593,3.14167l7.42013,-12.56667c0.61834,-0.9425 0.61834,-2.19917 0,-3.14167c-0.61834,-0.9425 -1.54586,-1.57083 -2.78255,-1.57083z" stroke-width="5" stroke-miterlimit="10" stroke-dasharray=""></path><path data-v-9833e8b2="" transform="scale(0.052521008403361345)" fill="none" stroke="currentColor" paint-order="fill stroke markers" d="m140.43667,46.98334c-13.60358,0 -24.73378,11.31 -24.73378,25.13333s11.1302,25.13333 24.73378,25.13333s24.73378,-11.31 24.73378,-25.13333s-11.1302,-25.13333 -24.73378,-25.13333zm0,43.98333c-10.20268,0 -18.55033,-8.4825 -18.55033,-18.85s8.34765,-18.85 18.55033,-18.85s18.55033,8.4825 18.55033,18.85s-8.34765,18.85 -18.55033,18.85z" stroke-width="5" stroke-miterlimit="10" stroke-dasharray=""></path><path data-v-9833e8b2="" transform="scale(0.052521008403361345)" fill="none" stroke="currentColor" paint-order="fill stroke markers" d="m84.78567,9.28334l6.18344,0l0,6.28333l-6.18344,0l0,-6.28333z" stroke-width="5" stroke-miterlimit="10" stroke-dasharray=""></path><path data-v-9833e8b2="" transform="scale(0.052521008403361345)" fill="none" stroke="currentColor" paint-order="fill stroke markers" d="m109.51945,9.28334l6.18344,0l0,6.28333l-6.18344,0l0,-6.28333z" stroke-width="5" stroke-miterlimit="10" stroke-dasharray=""></path><path data-v-9833e8b2="" transform="scale(0.052521008403361345)" fill="none" stroke="currentColor" paint-order="fill stroke markers" d="m97.15256,9.28334l6.18344,0l0,6.28333l-6.18344,0l0,-6.28333z" stroke-width="5" stroke-miterlimit="10" stroke-dasharray=""></path><path data-v-9833e8b2="" transform="scale(0.052521008403361345)" fill="none" stroke="currentColor" paint-order="fill stroke markers" d="m121.88634,9.28334l6.18344,0l0,6.28333l-6.18344,0l0,-6.28333z" stroke-width="5" stroke-miterlimit="10" stroke-dasharray=""></path><path data-v-9833e8b2="" transform="scale(0.052521008403361345)" fill="none" stroke="currentColor" paint-order="fill stroke markers" d="m134.25323,21.85001l6.18344,0l0,6.28333l-6.18344,0l0,-6.28333z" stroke-width="5" stroke-miterlimit="10" stroke-dasharray=""></path><path data-v-9833e8b2="" transform="scale(0.052521008403361345)" fill="none" stroke="currentColor" paint-order="fill stroke markers" d="m134.25323,9.28334l6.18344,0l0,6.28333l-6.18344,0l0,-6.28333z" stroke-width="5" stroke-miterlimit="10" stroke-dasharray=""></path><path data-v-9833e8b2="" transform="scale(0.052521008403361345)" fill="none" stroke="currentColor" paint-order="fill stroke markers" d="m81.69395,178.93334l0,0c0,1.885 1.23669,3.14167 3.09172,3.14167l0,0c1.85503,0 3.09172,-1.25667 3.09172,-3.14167l0,0c0,-1.885 -1.23669,-3.14167 -3.09172,-3.14167l0,0c-1.85503,0 -3.09172,1.25667 -3.09172,3.14167z" stroke-width="5" stroke-miterlimit="10" stroke-dasharray=""></path><path data-v-9833e8b2="" transform="scale(0.052521008403361345)" fill="none" stroke="currentColor" paint-order="fill stroke markers" d="m106.42773,188.35833l0,0c0,1.885 1.23669,3.14167 3.09172,3.14167l0,0c1.85503,0 3.09172,-1.25667 3.09172,-3.14167l0,0c0,-1.885 -1.23669,-3.14167 -3.09172,-3.14167l0,0c-1.85503,0 -3.09172,1.25667 -3.09172,3.14167z" stroke-width="5" stroke-miterlimit="10" stroke-dasharray=""></path><path data-v-9833e8b2="" transform="scale(0.052521008403361345)" fill="none" stroke="currentColor" paint-order="fill stroke markers" d="m134.25323,182.075l0,0c0,1.885 1.23669,3.14167 3.09172,3.14167l0,0c1.85503,0 3.09172,-1.25667 3.09172,-3.14167l0,0c0,-1.885 -1.23669,-3.14167 -3.09172,-3.14167l0,0c-1.85503,0 -3.09172,1.25667 -3.09172,3.14167z" stroke-width="5" stroke-miterlimit="10" stroke-dasharray=""></path><path data-v-9833e8b2="" transform="scale(0.052521008403361345)" fill="none" stroke="currentColor" paint-order="fill stroke markers" d="m180.62906,178.93334l0,0c-1.85503,0 -3.09172,1.25667 -3.09172,3.14167l0,0c0,1.885 1.23669,3.14167 3.09172,3.14167l0,0c1.85503,0 3.09172,-1.25667 3.09172,-3.14167l0,0c0,-1.885 -1.23669,-3.14167 -3.09172,-3.14167z" stroke-width="5" stroke-miterlimit="10" stroke-dasharray=""></path><path data-v-9833e8b2="" transform="scale(0.052521008403361345)" fill="none" stroke="currentColor" paint-order="fill stroke markers" d="m158.987,185.21667l0,0c-1.85503,0 -3.09172,1.25667 -3.09172,3.14167l0,0c0,1.885 1.23669,3.14167 3.09172,3.14167l0,0c1.85503,0 3.09172,-1.25667 3.09172,-3.14167l0,0c0,-1.885 -1.23669,-3.14167 -3.09172,-3.14167z" stroke-width="5" stroke-miterlimit="10" stroke-dasharray=""></path><path data-v-9833e8b2="" transform="scale(0.052521008403361345)" fill="none" stroke="currentColor" paint-order="fill stroke markers" d="m10.58434,178.93334l0,0c0,-1.885 -1.23669,-3.14167 -3.09172,-3.14167l0,0c-1.85503,0 -3.09172,1.25667 -3.09172,3.14167l0,0c0,1.885 1.23669,3.14167 3.09172,3.14167l0,0c1.85503,0 3.09172,-1.25667 3.09172,-3.14167z" stroke-width="5" stroke-miterlimit="10" stroke-dasharray=""></path><path data-v-9833e8b2="" transform="scale(0.052521008403361345)" fill="none" stroke="currentColor" paint-order="fill stroke markers" d="m29.13467,185.21667l0,0c-1.85503,0 -3.09172,1.25667 -3.09172,3.14167l0,0c0,1.885 1.23669,3.14167 3.09172,3.14167l0,0c1.85503,0 3.09172,-1.25667 3.09172,-3.14167l0,0c0,-1.885 -1.23669,-3.14167 -3.09172,-3.14167z" stroke-width="5" stroke-miterlimit="10" stroke-dasharray=""></path><path data-v-9833e8b2="" transform="scale(0.052521008403361345)" fill="none" stroke="currentColor" paint-order="fill stroke markers" d="m444.23,115.87c-0.28,0.74 -0.4,1.54 -0.71,2.27l16.24,27.06l-21.92,21.89l-26.96,-16.17c-1.07,0.46 -2.24,0.72 -3.34,1.12l-7.49,29.94l-31,0l-7.87,-31.49c-0.72,-0.32 -1.36,-0.77 -2.06,-1.12l-27.31,16.39l-21.92,-21.91l17.78,-29.62l-32.67,-8.17l0,-31.01l33.54,-8.37l-17.33,-28.87l21.92,-21.92l29.63,17.79l8.16,-32.68l31.01,0l8.39,33.54l28.88,-17.33l21.89,21.92l-17.77,29.64l32.67,8.15l0,31.01l-31.76,7.94z" stroke-width="5" stroke-miterlimit="10" stroke-dasharray=""></path></g></svg>