<svg data-v-9833e8b2="" version="1.1" xmlns="http://www.w3.org/2000/svg" xmlns:xlink="http://www.w3.org/1999/xlink" width="25" height="25"><g data-v-9833e8b2=""><path data-v-9833e8b2="" transform="scale(0.12437810945273632)" fill="none" stroke="currentColor" paint-order="fill stroke markers" d="m100.95106,1c-55.20131,0 -99.95106,44.74935 -99.95106,99.95145c0,55.2017 44.74975,99.95145 99.95106,99.95145c55.20287,0 99.95262,-44.74975 99.95262,-99.95145c0,-55.20209 -44.75014,-99.95145 -99.95262,-99.95145zm0,194.00888c-51.94625,0 -94.05705,-42.11119 -94.05705,-94.05744c0,-51.94664 42.11079,-94.05744 94.05705,-94.05744c51.9482,0 94.05861,42.11079 94.05861,94.05744c0,51.94625 -42.11079,94.05744 -94.05861,94.05744z" stroke-width="5" stroke-miterlimit="10" stroke-dasharray=""></path><path data-v-9833e8b2="" transform="scale(0.12437810945273632)" fill="none" stroke="currentColor" paint-order="fill stroke markers" d="m74.66852,75.32718l6.85409,0l0,-23.04076c0,-2.16145 1.79249,-4.05975 4.00704,-4.05975s4.05975,1.8452 4.05975,4.05975l0,23.04076l22.72412,0l0,-23.04076c0,-2.16145 1.79288,-4.05975 4.00704,-4.05975c2.21455,0 4.05975,1.8452 4.05975,4.05975l0,23.04076l6.85409,0c3.47995,0 6.59055,1.37082 8.91013,3.69078c2.21455,2.21455 3.63808,5.37786 3.63808,8.85781c0,3.42724 -1.42353,6.53784 -3.63808,8.8051l0,0.05271a12.83986,12.83986 0 0 1 -6.48513,3.37414l0,12.54859c0,3.95433 -1.63436,7.5397 -4.21787,10.17592c-2.58351,2.5308 -6.22159,4.21787 -10.12321,4.21787l-0.10542,0c0.42167,0.63251 0.68561,1.37082 0.68561,2.21416c0,2.21455 -1.79249,4.05975 -4.00704,4.05975l-6.9068,0l0,16.34479c0,2.16184 -1.79288,4.00704 -4.00704,4.00704c-2.21455,0 -4.00704,-1.8452 -4.00704,-4.00704l0,-16.34479l-6.8537,0c-2.21455,0 -4.05975,-1.8452 -4.05975,-4.05975c0,-0.84334 0.21084,-1.58165 0.68561,-2.21455l-0.05271,0c-3.95433,0 -7.5397,-1.68707 -10.22863,-4.21787l-0.15813,-0.21084c-2.5308,-2.5308 -4.05975,-6.11617 -4.05975,-9.96508l0,-12.49588c-2.47809,-0.47438 -4.69225,-1.68746 -6.48513,-3.37453l0,-0.05271c-2.26687,-2.26726 -3.63808,-5.37786 -3.63808,-8.8051c0,-3.47995 1.42353,-6.64365 3.63808,-8.85781l0.15813,-0.15813c2.31958,-2.26648 5.37746,-3.58459 8.752,-3.58459z" stroke-width="5" stroke-miterlimit="10" stroke-dasharray=""></path></g></svg>