<svg data-v-9833e8b2="" version="1.1" xmlns="http://www.w3.org/2000/svg" xmlns:xlink="http://www.w3.org/1999/xlink" width="25" height="25"><g data-v-9833e8b2=""><path data-v-9833e8b2="" transform="scale(0.12437810945273632)" fill="none" stroke="currentColor" paint-order="fill stroke markers" d="m128.34312,181.46855c0,-2.15814 1.74809,-3.90623 3.90623,-3.90623c2.15814,0 3.90623,1.74809 3.90623,3.90623c0,2.15814 -1.74809,3.90623 -3.90623,3.90623c-2.15814,0 -3.90623,-1.74809 -3.90623,-3.90623z" stroke-width="5" stroke-miterlimit="10" stroke-dasharray=""></path><path data-v-9833e8b2="" transform="scale(0.12437810945273632)" fill="none" stroke="currentColor" paint-order="fill stroke markers" d="m65.84343,181.46855c0,-2.15814 1.74809,-3.90623 3.90623,-3.90623c2.15814,0 3.90623,1.74809 3.90623,3.90623c0,2.15814 -1.74809,3.90623 -3.90623,3.90623c-2.15814,0 -3.90623,-1.74809 -3.90623,-3.90623z" stroke-width="5" stroke-miterlimit="10" stroke-dasharray=""></path><path data-v-9833e8b2="" transform="scale(0.12437810945273632)" fill="none" stroke="currentColor" paint-order="fill stroke markers" d="m43.71776,143.1207c0.34414,1.84999 1.95858,3.19178 3.84061,3.19178l106.88227,0c1.88163,0 3.49608,-1.34179 3.84061,-3.19178l6.24997,-33.59358c0.21211,-1.1414 -0.09414,-2.31835 -0.83632,-3.21131s-1.84296,-1.40937 -3.00389,-1.40937l-119.38221,0c-1.16093,0 -2.2621,0.5164 -3.00389,1.40937s-1.04882,2.06991 -0.83632,3.21131l6.24919,33.59358l-0.00002,0zm112.27287,-30.4018l-4.79646,25.78112l-100.38934,0l-4.79646,-25.78112l109.98226,0z" stroke-width="5" stroke-miterlimit="10" stroke-dasharray=""></path><path data-v-9833e8b2="" transform="scale(0.12437810945273632)" fill="none" stroke="currentColor" paint-order="fill stroke markers" d="m97.09328,69.75036c0,-2.15814 1.74809,-3.90623 3.90623,-3.90623c2.15814,0 3.90623,1.74809 3.90623,3.90623c0,2.15814 -1.74809,3.90623 -3.90623,3.90623c-2.15814,0 -3.90623,-1.74809 -3.90623,-3.90623z" stroke-width="5" stroke-miterlimit="10" stroke-dasharray=""></path><path data-v-9833e8b2="" transform="scale(0.12437810945273632)" fill="none" stroke="currentColor" paint-order="fill stroke markers" d="m191.92288,66.14843l-17.06241,-37.09278c-0.52226,-1.13554 -1.55663,-1.95272 -2.78241,-2.19804l-14.50657,-2.90116l-14.26751,-21.22841c-0.97343,-1.44843 -2.78866,-2.07616 -4.44959,-1.53632l-31.24984,10.1562c-0.58593,0.19062 -1.11913,0.51718 -1.55468,0.95273l-7.11051,7.11051l-11.39799,-7.59879c-0.64179,-0.42812 -1.3957,-0.65625 -2.16679,-0.65625l-31.24984,0c-0.84531,0 -1.66757,0.27422 -2.34374,0.78125l-31.24984,23.43738c-0.64375,0.48281 -1.12265,1.15234 -1.37109,1.91757l-9.40269,28.93149c-5.0324,1.31523 -8.75738,5.89997 -8.75738,11.33901c0,5.31013 3.55154,9.80425 8.40347,11.23822l13.85188,71.52737c0.9246,4.62185 4.53084,8.16949 8.99449,9.14956l0,0.27187l-8.48433,0c-1.61249,-4.54646 -5.95427,-7.81246 -11.04682,-7.81246c-6.46169,0 -11.71869,5.257 -11.71869,11.71869s5.257,11.71869 11.71869,11.71869c5.09216,0 9.43433,-3.266 11.04682,-7.81246l8.48433,0l0,3.90623c0,2.15702 1.74882,3.90623 3.90623,3.90623l14.4554,0c1.81483,8.90425 9.70581,15.62492 19.13818,15.62492s17.32335,-6.72067 19.13818,-15.62492l24.22332,0c1.81483,8.90425 9.70581,15.62492 19.13818,15.62492s17.32335,-6.72067 19.13818,-15.62492l14.4554,0c2.15741,0 3.90623,-1.74921 3.90623,-3.90623l0,-11.99056c4.46365,-0.98046 8.07066,-4.53162 8.99917,-9.173l13.84759,-71.50433c4.85193,-1.43398 8.40347,-5.9277 8.40347,-11.23822c-0.00039,-5.55232 -3.88396,-10.21206 -9.07652,-11.41401l0.00003,0.00002zm-179.20418,111.41389c-2.1539,0 -3.90623,-1.75233 -3.90623,-3.90623s1.75233,-3.90623 3.90623,-3.90623s3.90623,1.75233 3.90623,3.90623s-1.75233,3.90623 -3.90623,3.90623zm37.89278,0l-10.54917,0l0,-7.81637l14.07298,0c-1.70937,2.27616 -2.93592,4.93123 -3.52381,7.81637zm19.13818,15.62492c-6.46169,0 -11.71869,-5.257 -11.71869,-11.71869s5.257,-11.71869 11.71869,-11.71869s11.71869,5.257 11.71869,11.71869s-5.257,11.71869 -11.71869,11.71869zm43.3615,-15.62492l-24.22332,0c-0.58789,-2.88514 -1.81405,-5.54021 -3.52381,-7.81637l31.27094,0c-1.70937,2.27616 -2.93592,4.93123 -3.52381,7.81637zm19.13818,15.62492c-6.46169,0 -11.71869,-5.257 -11.71869,-11.71869s5.257,-11.71869 11.71869,-11.71869s11.71869,5.257 11.71869,11.71869s-5.257,11.71869 -11.71869,11.71869zm29.68735,-15.62492l-10.54917,0c-0.58789,-2.88514 -1.81405,-5.54021 -3.52381,-7.81246l14.07298,0l0,7.81246zm9.14644,-18.76592c-0.36406,1.81991 -1.97655,3.141 -3.83357,3.141l-132.49933,0c-1.85741,0 -3.46951,-1.32109 -3.82889,-3.11756l-13.46712,-69.53832l167.09096,0l-13.46204,69.51488l-0.00001,0zm18.19717,-77.32734l-176.56161,0c-2.1539,0 -3.90623,-1.75233 -3.90623,-3.90623c0,-2.1496 1.74569,-3.89881 3.89373,-3.90545c0.0043,0 0.00898,0.00039 0.01328,0.00039c0.00977,0 0.01914,-0.00117 0.02852,-0.00117l70.67347,0c2.15741,0 3.90623,-1.74921 3.90623,-3.90623s-1.74882,-3.90623 -3.90623,-3.90623l-65.32584,0l7.61715,-23.43738l26.79401,0l14.48079,14.48079c1.52577,1.52538 3.99881,1.52538 5.52458,0c1.52538,-1.52538 1.52538,-3.99881 0,-5.52458l-15.62492,-15.62492c-0.73242,-0.73242 -1.72616,-1.14413 -2.7621,-1.14413l-19.53115,0l20.83349,-15.62492l28.76509,0l9.11402,6.07575l-10.69409,10.6937c-1.52538,1.52538 -1.52538,3.99881 0,5.52458c1.52538,1.52538 3.99881,1.52499 5.52419,0c6.34841,-6.34841 15.54055,-15.54055 22.7741,-22.77449l27.55377,-8.95503l8.23199,12.24799l-13.68118,-2.73631c-2.11444,-0.42461 -4.17342,0.94921 -4.59646,3.06444c-0.42304,2.11561 0.94921,4.17381 3.06483,4.59646l37.11075,7.42223l14.58938,31.71586l-25.40651,0l-14.46516,-21.69794c-0.72422,-1.08671 -1.94413,-1.73944 -3.24998,-1.73944l-23.43738,0c-2.15741,0 -3.90623,1.74921 -3.90623,3.90623s1.74882,3.90623 3.90623,3.90623l21.34677,0l10.41674,15.62492l-29.8104,0c-2.15741,0 -3.90623,1.74921 -3.90623,3.90623s1.74882,3.90623 3.90623,3.90623l70.69457,0c0.00352,0 0.00703,0.00078 0.01094,0.00078c0.00195,0 0.00391,-0.00039 0.00625,-0.00039c2.14999,0.00469 3.89764,1.75507 3.89764,3.90584c-0.00078,2.1539 -1.75312,3.90623 -3.90701,3.90623l-0.00003,-0.00004z" stroke-width="5" stroke-miterlimit="10" stroke-dasharray=""></path></g></svg>