<svg data-v-9833e8b2="" version="1.1" xmlns="http://www.w3.org/2000/svg" xmlns:xlink="http://www.w3.org/1999/xlink" width="9.5" height="25"><g data-v-9833e8b2=""><path data-v-9833e8b2="" transform="scale(0.041050903119868636)" fill="none" stroke="currentColor" paint-order="fill stroke markers" d="m81.00001,429.5l0,22" stroke-width="5" stroke-miterlimit="10" stroke-dasharray=""></path><path data-v-9833e8b2="" transform="scale(0.041050903119868636)" fill="none" stroke="currentColor" paint-order="fill stroke markers" d="m24.00001,428.5c0,2.62366 0,3.39588 0,4.06646c0,0.7408 0,1.285 0,2.03902c0,0.59056 0,1.21646 0,2.18306c0,0.53281 0,1.47254 0,2.0961c0,0.60943 0,1.4271 0,1.99094c0,0.71433 0,1.45628 0,2.2411c0,0.62866 0,1.41662 0,1.91875c0,0.57288 0,1.51276 0,2.0419c0,0.78388 0,1.64673 0,2.19838c0,0.78153 0,1.6208 0,2.05667c0,0.77563 0,1.33726 0,2.18361c0,0.7933 0,1.29335 0,2.01595c0,0.70817 0,1.40717 0,2.0779c0,0.81385 0,1.52164 0,2.32386c0,0.62866 0.02171,1.25762 -0.00449,2.05027c-0.01723,0.52142 -0.16217,1.35506 -0.2795,1.85379l-0.216,0.811l-0.14733,0.5459" stroke-width="5" stroke-miterlimit="10" stroke-dasharray=""></path><path data-v-9833e8b2="" transform="scale(0.041050903119868636)" fill="none" stroke="currentColor" paint-order="fill stroke markers" d="m46.48173,375.83333c0,-11.33607 10.52476,-20.51828 23.51828,-20.51828c12.99353,0 23.51829,9.18221 23.51829,20.51828c0,11.33607 -10.52476,20.51829 -23.51829,20.51829c-12.99352,0 -23.51828,-9.18222 -23.51828,-20.51829z" stroke-width="5" stroke-miterlimit="10" stroke-dasharray=""></path><path data-v-9833e8b2="" transform="scale(0.041050903119868636)" fill="none" stroke="currentColor" paint-order="fill stroke markers" d="m47.48173,290.83333c0,-11.33607 10.52476,-20.51828 23.51828,-20.51828c12.99353,0 23.51829,9.18221 23.51829,20.51828c0,11.33607 -10.52476,20.51829 -23.51829,20.51829c-12.99352,0 -23.51828,-9.18222 -23.51828,-20.51829z" stroke-width="5" stroke-miterlimit="10" stroke-dasharray=""></path><path data-v-9833e8b2="" transform="scale(0.041050903119868636)" fill="none" stroke="currentColor" paint-order="fill stroke markers" d="m143.48173,378.83333c0,-11.33607 10.52476,-20.51828 23.51828,-20.51828c12.99353,0 23.51829,9.18221 23.51829,20.51828c0,11.33607 -10.52476,20.51829 -23.51829,20.51829c-12.99352,0 -23.51828,-9.18222 -23.51828,-20.51829z" stroke-width="5" stroke-miterlimit="10" stroke-dasharray=""></path><path data-v-9833e8b2="" transform="scale(0.041050903119868636)" fill="none" stroke="currentColor" paint-order="fill stroke markers" d="m142.48173,335.83333c0,-11.33607 10.52476,-20.51828 23.51828,-20.51828c12.99353,0 23.51829,9.18221 23.51829,20.51828c0,11.33607 -10.52476,20.51829 -23.51829,20.51829c-12.99352,0 -23.51828,-9.18222 -23.51828,-20.51829z" stroke-width="5" stroke-miterlimit="10" stroke-dasharray=""></path><path data-v-9833e8b2="" transform="scale(0.041050903119868636)" fill="none" stroke="currentColor" paint-order="fill stroke markers" d="m45.48173,332.83333c0,-11.33607 10.52476,-20.51828 23.51828,-20.51828c12.99353,0 23.51829,9.18221 23.51829,20.51828c0,11.33607 -10.52476,20.51829 -23.51829,20.51829c-12.99352,0 -23.51828,-9.18222 -23.51828,-20.51829z" stroke-width="5" stroke-miterlimit="10" stroke-dasharray=""></path><path data-v-9833e8b2="" transform="scale(0.041050903119868636)" fill="none" stroke="currentColor" paint-order="fill stroke markers" d="m96.48173,378.83333c0,-11.33607 10.52476,-20.51828 23.51828,-20.51828c12.99353,0 23.51829,9.18221 23.51829,20.51828c0,11.33607 -10.52476,20.51829 -23.51829,20.51829c-12.99352,0 -23.51828,-9.18222 -23.51828,-20.51829z" stroke-width="5" stroke-miterlimit="10" stroke-dasharray=""></path><path data-v-9833e8b2="" transform="scale(0.041050903119868636)" fill="none" stroke="currentColor" paint-order="fill stroke markers" d="m93.48173,336.83333c0,-11.33607 10.52476,-20.51828 23.51828,-20.51828c12.99353,0 23.51829,9.18221 23.51829,20.51828c0,11.33607 -10.52476,20.51829 -23.51829,20.51829c-12.99352,0 -23.51828,-9.18222 -23.51828,-20.51829z" stroke-width="5" stroke-miterlimit="10" stroke-dasharray=""></path><path data-v-9833e8b2="" transform="scale(0.041050903119868636)" fill="none" stroke="currentColor" paint-order="fill stroke markers" d="m142.48173,294.83333c0,-11.33607 10.52476,-20.51828 23.51828,-20.51828c12.99353,0 23.51829,9.18221 23.51829,20.51828c0,11.33607 -10.52476,20.51829 -23.51829,20.51829c-12.99352,0 -23.51828,-9.18222 -23.51828,-20.51829z" stroke-width="5" stroke-miterlimit="10" stroke-dasharray=""></path><path data-v-9833e8b2="" transform="scale(0.041050903119868636)" fill="none" stroke="currentColor" paint-order="fill stroke markers" d="m93.48173,292.83333c0,-11.33607 10.52476,-20.51828 23.51828,-20.51828c12.99353,0 23.51828,9.18222 23.51828,20.51828c0,11.33607 -10.52476,20.51828 -23.51828,20.51828c-12.99353,0 -23.51828,-9.18222 -23.51828,-20.51828z" stroke-width="5" stroke-miterlimit="10" stroke-dasharray=""></path><path data-v-9833e8b2="" transform="scale(0.041050903119868636)" fill="none" stroke="currentColor" paint-order="fill stroke markers" d="m179,452.19l-12,20" stroke-width="5" stroke-miterlimit="10" stroke-dasharray=""></path><path data-v-9833e8b2="" transform="scale(0.041050903119868636)" fill="none" stroke="currentColor" paint-order="fill stroke markers" d="m176.26,528.33l-18.23,0l0,-33.42l18.23,0l0,33.42z" stroke-width="5" stroke-miterlimit="10" stroke-dasharray=""></path><path data-v-9833e8b2="" transform="scale(0.041050903119868636)" fill="none" stroke="currentColor" paint-order="fill stroke markers" d="m101.46,496.73c0,8.39388 -8.37331,15.2 -18.7,15.2c-10.32669,0 -18.7,-6.80612 -18.7,-15.2c0,-8.39388 8.37331,-15.2 18.7,-15.2c10.32669,0 18.7,6.80612 18.7,15.2zm-31.49223,-10.40764l25.58446,20.79592m-25.58446,0.00969l25.58446,-20.79592" stroke-width="5" stroke-miterlimit="10" stroke-dasharray=""></path><path data-v-9833e8b2="" transform="scale(0.041050903119868636)" fill="none" stroke="currentColor" paint-order="fill stroke markers" d="m80.76,460.75l0,22.28" stroke-width="5" stroke-miterlimit="10" stroke-dasharray=""></path><path data-v-9833e8b2="" transform="scale(0.041050903119868636)" fill="none" stroke="currentColor" paint-order="fill stroke markers" d="m67.07,452.66l29.37,0m-29.37,8.11l29.37,0" stroke-width="5" stroke-miterlimit="10" stroke-dasharray=""></path><path data-v-9833e8b2="" transform="scale(0.041050903119868636)" fill="none" stroke="currentColor" paint-order="fill stroke markers" d="m167.15,471.6l0,24.31" stroke-width="5" stroke-miterlimit="10" stroke-dasharray=""></path><path data-v-9833e8b2="" transform="scale(0.041050903119868636)" fill="none" stroke="currentColor" paint-order="fill stroke markers" d="m170.15,457.56l0,-26.32" stroke-width="5" stroke-miterlimit="10" stroke-dasharray=""></path><path data-v-9833e8b2="" transform="scale(0.041050903119868636)" fill="none" stroke="currentColor" paint-order="fill stroke markers" d="m167.15,545.68l0,-19.26" stroke-width="5" stroke-miterlimit="10" stroke-dasharray=""></path><path data-v-9833e8b2="" transform="scale(0.041050903119868636)" fill="none" stroke="currentColor" paint-order="fill stroke markers" d="m115.13,253.16999l0,355.32004" stroke-width="5" stroke-miterlimit="10" stroke-dasharray=""></path><path data-v-9833e8b2="" transform="scale(0.041050903119868636)" fill="none" stroke="currentColor" paint-order="fill stroke markers" d="m146.9,545.68l38.48,0m-32.4,7.09l26.33,0m-20.25,7.09l14.18,0" stroke-width="5" stroke-miterlimit="10" stroke-dasharray=""></path><path data-v-9833e8b2="" transform="scale(0.041050903119868636)" fill="none" stroke="currentColor" paint-order="fill stroke markers" d="m1,543.53999l51.64,0m-43.38005,8.13l35.1099,0m-26.84995,8.13l18.58999,0" stroke-width="5" stroke-miterlimit="10" stroke-dasharray=""></path><path data-v-9833e8b2="" transform="scale(0.041050903119868636)" fill="none" stroke="currentColor" paint-order="fill stroke markers" d="m34.51,513.07l-21.39,0l0,-48.85l21.39,0l0,48.85z" stroke-width="5" stroke-miterlimit="10" stroke-dasharray=""></path><path data-v-9833e8b2="" transform="scale(0.041050903119868636)" fill="none" stroke="currentColor" paint-order="fill stroke markers" d="m30.41,481.49l-7.09,20.25l-7.09,-20.25l14.18,0z" stroke-width="5" stroke-miterlimit="10" stroke-dasharray=""></path><path data-v-9833e8b2="" transform="scale(0.041050903119868636)" fill="none" stroke="currentColor" paint-order="fill stroke markers" d="m140.91,227.85l-25.78,25.78l-25.78,-25.78m0,-24.31l25.78,25.78l25.78,-25.78" stroke-width="5" stroke-miterlimit="10" stroke-dasharray=""></path><path data-v-9833e8b2="" transform="scale(0.041050903119868636)" fill="none" stroke="currentColor" paint-order="fill stroke markers" d="m89.35,78.43l25.78,-25.78l25.78,25.78m0,24.3l-25.78,-25.78l-25.78,25.78" stroke-width="5" stroke-miterlimit="10" stroke-dasharray=""></path><path data-v-9833e8b2="" transform="scale(0.041050903119868636)" fill="none" stroke="currentColor" paint-order="fill stroke markers" d="m26.32,513.05l0,28.5" stroke-width="5" stroke-miterlimit="10" stroke-dasharray=""></path><path data-v-9833e8b2="" transform="scale(0.041050903119868636)" fill="none" stroke="currentColor" paint-order="fill stroke markers" d="m115.13,182.19l0,45.66" stroke-width="5" stroke-miterlimit="10" stroke-dasharray=""></path><path data-v-9833e8b2="" transform="scale(0.041050903119868636)" fill="none" stroke="currentColor" paint-order="fill stroke markers" d="m115.13,78.98l0,48.21" stroke-width="5" stroke-miterlimit="10" stroke-dasharray=""></path><path data-v-9833e8b2="" transform="scale(0.041050903119868636)" fill="none" stroke="currentColor" paint-order="fill stroke markers" d="m115.13,1l0,51.65" stroke-width="5" stroke-miterlimit="10" stroke-dasharray=""></path><path data-v-9833e8b2="" transform="scale(0.041050903119868636)" fill="none" stroke="currentColor" paint-order="fill stroke markers" d="m130.32,183.29l-30.38,0l0,-56.71l30.38,0l0,56.71z" stroke-width="5" stroke-miterlimit="10" stroke-dasharray=""></path><path data-v-9833e8b2="" transform="scale(0.041050903119868636)" fill="none" stroke="currentColor" paint-order="fill stroke markers" d="m83.00001,513.31501l0,31.5" stroke-width="5" stroke-miterlimit="10" stroke-dasharray=""></path><path data-v-9833e8b2="" transform="scale(0.041050903119868636)" fill="none" stroke="currentColor" paint-order="fill stroke markers" d="m22.00001,428.19l146.99999,4" stroke-width="5" stroke-miterlimit="10" stroke-dasharray=""></path><path data-v-9833e8b2="" transform="scale(0.041050903119868636)" fill="none" stroke="currentColor" paint-order="fill stroke markers" d="m56.68,546.06001l50.64,0m-42.54,7.13l34.43,0m-26.33,7.13l18.23,0" stroke-width="5" stroke-miterlimit="10" stroke-dasharray=""></path><path data-v-9833e8b2="" transform="scale(0.041050903119868636)" fill="none" stroke="currentColor" paint-order="fill stroke markers" d="m89.00001,582.19l54,0" stroke-width="5" stroke-miterlimit="10" stroke-dasharray=""></path><path data-v-9833e8b2="" transform="scale(0.041050903119868636)" fill="none" stroke="currentColor" paint-order="fill stroke markers" d="m87.00001,584.19l26,24" stroke-width="5" stroke-miterlimit="10" stroke-dasharray=""></path><path data-v-9833e8b2="" transform="scale(0.041050903119868636)" fill="none" stroke="currentColor" paint-order="fill stroke markers" d="m141.00001,584.19l-26,23" stroke-width="5" stroke-miterlimit="10" stroke-dasharray=""></path><path data-v-9833e8b2="" transform="scale(0.041050903119868636)" fill="none" stroke="currentColor" paint-order="fill stroke markers" d="m70.00002,260.5l-1,153.99999" stroke-width="5" stroke-miterlimit="10" stroke-dasharray=""></path><path data-v-9833e8b2="" transform="scale(0.041050903119868636)" fill="none" stroke="currentColor" paint-order="fill stroke markers" d="m165.50002,262.5l-1,153.99999" stroke-width="5" stroke-miterlimit="10" stroke-dasharray=""></path></g></svg>