<svg data-v-9833e8b2="" version="1.1" xmlns="http://www.w3.org/2000/svg" xmlns:xlink="http://www.w3.org/1999/xlink" width="7" height="25"><g data-v-9833e8b2=""><path data-v-9833e8b2="" transform="scale(0.059665871121718374)" fill="none" stroke="currentColor" paint-order="fill stroke markers" d="m50.38739,253.17l0,165.32" stroke-width="5" stroke-miterlimit="10" stroke-dasharray=""></path><path data-v-9833e8b2="" transform="scale(0.059665871121718374)" fill="none" stroke="currentColor" paint-order="fill stroke markers" d="m76.16739,227.85l-25.78,25.78l-25.78,-25.78m0,-24.31l25.78,25.78l25.78,-25.78" stroke-width="5" stroke-miterlimit="10" stroke-dasharray=""></path><path data-v-9833e8b2="" transform="scale(0.059665871121718374)" fill="none" stroke="currentColor" paint-order="fill stroke markers" d="m24.60739,78.43l25.78,-25.78l25.78,25.78m0,24.3l-25.78,-25.78l-25.78,25.78" stroke-width="5" stroke-miterlimit="10" stroke-dasharray=""></path><path data-v-9833e8b2="" transform="scale(0.059665871121718374)" fill="none" stroke="currentColor" paint-order="fill stroke markers" d="m50.38739,182.19l0,45.66" stroke-width="5" stroke-miterlimit="10" stroke-dasharray=""></path><path data-v-9833e8b2="" transform="scale(0.059665871121718374)" fill="none" stroke="currentColor" paint-order="fill stroke markers" d="m50.38739,78.98l0,48.21" stroke-width="5" stroke-miterlimit="10" stroke-dasharray=""></path><path data-v-9833e8b2="" transform="scale(0.059665871121718374)" fill="none" stroke="currentColor" paint-order="fill stroke markers" d="m50.38739,1l0,51.65" stroke-width="5" stroke-miterlimit="10" stroke-dasharray=""></path><path data-v-9833e8b2="" transform="scale(0.059665871121718374)" fill="none" stroke="currentColor" paint-order="fill stroke markers" d="m65.57739,183.29l-30.38,0l0,-56.71l30.38,0l0,56.71z" stroke-width="5" stroke-miterlimit="10" stroke-dasharray=""></path><path data-v-9833e8b2="" transform="scale(0.059665871121718374)" fill="none" stroke="currentColor" paint-order="fill stroke markers" d="m69.00001,300.19852c0,-9.26136 7.5017,-16.76305 16.76305,-16.76305c9.26136,0 16.76305,7.5017 16.76305,16.76305c0,9.26136 -7.5017,16.76305 -16.76305,16.76305c-9.26136,0 -16.76305,-7.5017 -16.76305,-16.76305z" stroke-width="5" stroke-miterlimit="10" stroke-dasharray=""></path><path data-v-9833e8b2="" transform="scale(0.059665871121718374)" fill="none" stroke="currentColor" paint-order="fill stroke markers" d="m1.00002,299.19852c0,-9.26135 7.50169,-16.76305 16.76305,-16.76305c9.26136,0 16.76305,7.5017 16.76305,16.76305c0,9.26136 -7.50169,16.76306 -16.76305,16.76306c-9.26136,0 -16.76305,-7.5017 -16.76305,-16.76306z" stroke-width="5" stroke-miterlimit="10" stroke-dasharray=""></path><path data-v-9833e8b2="" transform="scale(0.059665871121718374)" fill="none" stroke="currentColor" paint-order="fill stroke markers" d="m34.00002,299.19852c0,-9.26135 7.50169,-16.76305 16.76305,-16.76305c9.26136,0 16.76305,7.5017 16.76305,16.76305c0,9.26136 -7.50169,16.76306 -16.76305,16.76306c-9.26136,0 -16.76305,-7.5017 -16.76305,-16.76306z" stroke-width="5" stroke-miterlimit="10" stroke-dasharray=""></path><path data-v-9833e8b2="" transform="scale(0.059665871121718374)" fill="none" stroke="currentColor" paint-order="fill stroke markers" d="m87.76307,274.19852l2,55" stroke-width="5" stroke-miterlimit="10" stroke-dasharray=""></path><path data-v-9833e8b2="" transform="scale(0.059665871121718374)" fill="none" stroke="currentColor" paint-order="fill stroke markers" d="m18.76307,271.19852l2,55" stroke-width="5" stroke-miterlimit="10" stroke-dasharray=""></path></g></svg>