<svg data-v-9833e8b2="" version="1.1" xmlns="http://www.w3.org/2000/svg" xmlns:xlink="http://www.w3.org/1999/xlink" width="25" height="12.5"><g data-v-9833e8b2=""><path data-v-9833e8b2="" transform="scale(0.0374251497005988)" fill="none" stroke="currentColor" paint-order="fill stroke markers" d="m35,2l-33,39l-1,236l11,24l639,-1l16,-22l-1,-239l-36,-38l-595,1z" stroke-width="5" stroke-miterlimit="10" stroke-dasharray=""></path><path data-v-9833e8b2="" transform="scale(0.0374251497005988)" fill="none" stroke="currentColor" paint-order="fill stroke markers" d="m3,40.5l0,-1l206.208,0.313l-20.143,-38l2.429,0l26.428,38l242.878,0.381l26.376,-37.994l2,0l-18.125,38.006l193.949,0.294l0,1l-195.7,-0.3l15.75,-33l-23.5,32.993l-244.913,-0.369l-22.571,-33.005l17.143,32.994l-208.209,-0.313z" stroke-width="5" stroke-miterlimit="10" stroke-dasharray=""></path></g></svg>