<svg data-v-9833e8b2="" version="1.1" xmlns="http://www.w3.org/2000/svg" xmlns:xlink="http://www.w3.org/1999/xlink" width="22" height="25"><g data-v-9833e8b2=""><path data-v-9833e8b2="" transform="scale(0.18382352941176472)" fill="none" stroke="currentColor" paint-order="fill stroke markers" d="m78.50019,131.70033l-44.80011,0c-7.20002,0 -13.10003,-5.90001 -13.10003,-13.10003l0,-93.50024c0,-7.20002 5.90001,-13.10003 13.10003,-13.10003l44.80011,0c7.20002,0 13.10003,5.90001 13.10003,13.10003l0,93.50024c0,7.30002 -5.90001,13.10003 -13.10003,13.10003zm-44.20011,-61.00015c0,-1.1 -0.9,-2.00001 -2.00001,-2.00001l-9.70002,0c-1.1,0 -2.00001,0.9 -2.00001,2.00001s0.9,2.00001 2.00001,2.00001l9.70002,0c1.1,0 2.10001,-0.9 2.00001,-2.00001zm0,10.40003c0,-1.1 -0.9,-2.00001 -2.00001,-2.00001l-9.70002,0c-1.1,0 -2.00001,0.9 -2.00001,2.00001s0.9,2.00001 2.00001,2.00001l9.70002,0c1.1,0 2.00001,-0.9 2.00001,-2.00001zm0,10.40003c0,-1.1 -0.9,-2.00001 -2.00001,-2.00001l-9.70002,0c-1.1,0 -2.00001,0.9 -2.00001,2.00001s0.9,2.00001 2.00001,2.00001l9.70002,0c1.1,0 2.10001,-1 2.00001,-2.00001zm0,10.30003c0,-1.1 -0.9,-2.00001 -2.00001,-2.00001l-9.70002,0c-1.1,0 -2.00001,0.9 -2.00001,2.00001s0.9,2.00001 2.00001,2.00001l9.70002,0c1.1,0 2.10001,-0.9 2.00001,-2.00001z" stroke-width="5" stroke-miterlimit="10" stroke-dasharray=""></path><path data-v-9833e8b2="" transform="scale(0.18382352941176472)" fill="none" stroke="currentColor" paint-order="fill stroke markers" d="m19.50005,31.60008l-15.80004,0c-1.5,0 -2.70001,-1.2 -2.70001,-2.70001s1.2,-2.70001 2.70001,-2.70001l15.80004,0c1.5,0 2.70001,1.2 2.70001,2.70001c0,1.5 -1.3,2.70001 -2.70001,2.70001zm0,83.90021l-15.80004,0c-1.5,0 -2.70001,-1.2 -2.70001,-2.70001s1.2,-2.70001 2.70001,-2.70001l15.80004,0c1.5,0 2.70001,1.2 2.70001,2.70001s-1.3,2.70001 -2.70001,2.70001z" stroke-width="5" stroke-miterlimit="10" stroke-dasharray=""></path><path data-v-9833e8b2="" transform="scale(0.18382352941176472)" fill="none" stroke="currentColor" paint-order="fill stroke markers" d="m7.20002,30.90008l5.40001,0l0,80.2002l-5.40001,0l0,-80.2002zm71.30018,104.50026l-45.50011,0c-8.20002,0 -14.90004,-6.70002 -14.90004,-14.90004l0,-97.60025c0,-8.20002 6.70002,-14.90004 14.90004,-14.90004l20.00005,0l0,-4.30001c0,-1.5 1.2,-2.70001 2.70001,-2.70001l15.90004,0c1.5,0 2.70001,1.2 2.70001,2.70001l0,4.40001l4.20001,0c8.20002,0 14.90004,6.70002 14.90004,14.90004l0,97.60025c0,8.20002 -6.70002,14.80004 -14.90004,14.80004zm-45.50011,-121.90031c-5.20001,0 -9.50002,4.20001 -9.50002,9.50002l0,97.60025c0,5.20001 4.20001,9.50002 9.50002,9.50002l45.50011,0c5.20001,0 9.50002,-4.20001 9.50002,-9.50002l0,-97.70025c0,-5.20001 -4.20001,-9.50002 -9.50002,-9.50002l-6.90002,0c-1.5,0 -2.70001,-1.2 -2.70001,-2.70001l0,-4.40001l-10.40003,0l0,4.40001c0,1.5 -1.2,2.70001 -2.70001,2.70001l-22.80006,0.1z" stroke-width="5" stroke-miterlimit="10" stroke-dasharray=""></path><path data-v-9833e8b2="" transform="scale(0.18382352941176472)" fill="none" stroke="currentColor" paint-order="fill stroke markers" d="m100.20025,53.90013l-9.90002,0c-0.7,0 -1.4,-0.6 -1.4,-1.4c0,-0.7 0.6,-1.4 1.4,-1.4l8.60002,0l0,-8.40002l-8.60002,0c-0.7,0 -1.4,-0.6 -1.4,-1.4s0.6,-1.4 1.4,-1.4l9.90002,0c0.7,0 1.4,0.6 1.4,1.4l0,11.10003c0,0.9 -0.7,1.5 -1.4,1.5zm0,47.40012l-9.90002,0c-0.7,0 -1.4,-0.6 -1.4,-1.4l0,-11.10003c0,-0.7 0.6,-1.4 1.4,-1.4l9.90002,0c0.7,0 1.4,0.6 1.4,1.4l0,11.10003c0,0.8 -0.7,1.4 -1.4,1.4zm-8.60002,-2.70001l7.20002,0l0,-8.40002l-7.20002,0l0,8.40002z" stroke-width="5" stroke-miterlimit="10" stroke-dasharray=""></path><path data-v-9833e8b2="" transform="scale(0.18382352941176472)" fill="none" stroke="currentColor" paint-order="fill stroke markers" d="m100.20025,56.50014c-0.7,0 -1.4,-0.6 -1.4,-1.4l0,-16.20004c0,-0.7 0.6,-1.4 1.4,-1.4c0.7,0 1.4,0.6 1.4,1.4l0,16.20004c0,0.8 -0.7,1.4 -1.4,1.4zm0,47.30012c-0.7,0 -1.4,-0.6 -1.4,-1.4l0,-16.20004c0,-0.7 0.6,-1.4 1.4,-1.4c0.7,0 1.4,0.6 1.4,1.4l0,16.20004c0,0.8 -0.7,1.4 -1.4,1.4z" stroke-width="5" stroke-miterlimit="10" stroke-dasharray=""></path></g></svg>