<svg data-v-9833e8b2="" version="1.1" xmlns="http://www.w3.org/2000/svg" xmlns:xlink="http://www.w3.org/1999/xlink" width="25" height="25"><g data-v-9833e8b2=""><path data-v-9833e8b2="" transform="scale(0.14124293785310735)" fill="none" stroke="currentColor" paint-order="fill stroke markers" d="m11.75138,120.85655l-9.46565,8.93909c-0.1457,0.14004 -0.24121,0.30313 -0.34063,0.46641l-0.05898,-0.0623c-1.24082,1.69707 -1.20801,4.04708 0.28535,5.63009c1.44629,1.52461 3.66974,1.71739 5.40685,0.72383l0.1334,0.14141l29.35828,31.02723c-1.23203,1.69317 -1.20703,4.04708 0.29395,5.6258c1.49336,1.57481 3.83536,1.742 5.59748,0.59981l0.16348,0.17148l26.53542,-25.09479l-41.41866,-43.78507l-16.49028,15.61703zm21.05201,3.3252l18.19555,19.23657c2.08106,2.19102 1.99122,5.66681 -0.2041,7.74807l-4.48732,4.23028c-2.19512,2.08477 -5.6631,1.98711 -7.74416,-0.21191l-18.20415,-19.23638c-2.07247,-2.19903 -1.97383,-5.66681 0.2127,-7.74768l4.48712,-4.23478c2.19532,-2.08067 5.6633,-1.98301 7.74436,0.21582zm136.60054,-74.66464l-7.76701,-8.51272l1.30645,-1.5459l13.24085,1.87032l-7.69396,-8.43264l0.04844,-0.05742l-30.11687,-31.83875l-106.78562,101.01627l41.41866,43.78917l6.01798,-7.11974l13.40941,1.89727l-7.79299,-8.54221l1.39219,-1.64727l13.40257,1.89922l-7.79064,-8.5385l1.45391,-1.72012l13.28031,1.87872l-7.71643,-8.46135l1.35957,-1.6086l13.09632,1.85313l-7.61271,-8.34084l1.51094,-1.7875l13.25042,1.875l-7.70236,-8.43869l1.39727,-1.65332l13.39554,1.89551l-7.78518,-8.53303l1.49063,-1.76348l13.4016,1.8959l-7.78889,-8.53635l1.36211,-1.61172l13.30531,1.88262l-7.7342,-8.47346l1.42852,-1.69024l13.35589,1.88985l-7.76389,-8.50588l1.33457,-1.57871l13.37269,1.892l-7.77014,-8.52033l1.42891,-1.69063l13.43187,1.90059l-7.80803,-8.55412l1.37403,-1.62559l13.36195,1.89356z" stroke-width="5" stroke-miterlimit="10" stroke-dasharray=""></path></g></svg>