<svg data-v-9833e8b2="" version="1.1" xmlns="http://www.w3.org/2000/svg" xmlns:xlink="http://www.w3.org/1999/xlink" width="25" height="20"><g data-v-9833e8b2=""><path data-v-9833e8b2="" transform="scale(0.12376237623762376)" fill="none" stroke="currentColor" paint-order="fill stroke markers" d="m181.06833,141.02585l0,-24.99584l14.98522,5.03602l0,-15.04664l-14.98522,-4.9746l0,-10.01062l14.98522,4.9746l0,-15.16947l-14.98522,-4.9746l0,-59.87948l-70.01292,0l0,25.05726l-10.01062,-5.03602l0,-20.02124l-24.99584,0l0,-14.98522l-30.03186,0l0,14.98522l-24.99584,0l0,30.03186l79.8393,0l10.01062,4.9746l0,10.01062l-9.82637,-4.72894l-79.8393,0l0,84.75249l-20.20548,0l0,10.01062l200.08957,0l0,-10.01062l-20.02124,0zm-95.00877,0l-50.0531,0l0,-29.97045l24.99584,29.97045l25.05726,-29.97045l0,29.97045zm24.99584,0l-10.01062,0l0,-70.01293l10.01062,5.03602l0,64.97691zm20.02124,-84.75249l29.97044,0l0,20.02124l-29.97044,0l0,-20.02124zm39.98106,84.75249l-49.99169,0l0,-35.00646l10.01062,0l0,10.01062l29.97044,0l0,-10.01062l10.01062,0l0,35.00646z" stroke-width="5" stroke-miterlimit="10" stroke-dasharray=""></path></g></svg>