<svg data-v-9833e8b2="" version="1.1" xmlns="http://www.w3.org/2000/svg" xmlns:xlink="http://www.w3.org/1999/xlink" width="25" height="22.5"><g data-v-9833e8b2=""><path data-v-9833e8b2="" transform="scale(0.12376237623762376)" fill="none" stroke="currentColor" paint-order="fill stroke markers" d="m1,181.58334l0,-29.28412l17.89364,0l0,-22.77589s2.30497,-16.04447 16.01341,-24.43654l-0.51574,0.14086l94.44653,-89.0442a28.04676,28.04676 0 0 1 5.66743,-6.7596c5.14518,-4.48136 14.7226,-8.42385 21.04518,-8.42385c6.64113,0 16.53493,2.72753 21.80797,7.48482a24.97684,24.97684 0 0 1 7.46098,13.66438l0,130.15003l16.26695,0l0,29.28412l-200.08634,0zm26.02784,-52.06001l0,24.40331l13.01356,0l0,-22.77662a12.75641,12.75641 0 0 1 4.35928,-6.0871c2.49494,-1.97847 7.12582,-3.67379 10.091,-3.67379s7.53755,1.92429 9.88296,4.06385a10.2528,10.2528 0 0 1 3.32273,5.69704l0,22.77662l14.63736,0l0,-24.40331a32.59818,32.59818 0 0 0 -8.39351,-12.5751c-5.04839,-4.45463 -13.0699,-6.9474 -19.45099,-6.9474c-6.25974,0 -14.13317,2.41115 -19.08405,6.81449c-5.93325,5.27809 -8.37835,12.70801 -8.37835,12.70801zm26.06612,-29.3903a50.84071,50.84071 0 0 1 4.83963,0.10618s24.83165,0.10402 32.53462,29.28412l0.18203,24.22056l35.60598,0l0,-122.72083l-72.52588,68.93661l-0.63637,0.17336zm82.92387,53.79361l40.66737,0l0,-34.16637l-40.66737,22.77662l0,11.38831l0,0.00145zm0,-21.14631l27.65164,-17.08246l-27.65598,-17.08246l0,34.16637l0.00434,-0.00145zm0,-39.04429l29.28195,-17.08463l-29.28556,-17.08535l0,34.16998l0.00361,0zm0,-40.6717l29.28195,-17.08535l-29.28556,-17.08463l0,34.16998l0.00361,0zm13.01717,-40.67604l27.65092,21.1492s1.0965,-27.40461 -27.65453,-21.1492l0.00361,0zm26.79857,30.88481l-23.5329,14.60919l24.41487,13.07929l-0.88197,-27.68848zm0,39.04501l-23.5329,14.60775l24.41487,13.08001l-0.88197,-27.68776z" stroke-width="5" stroke-miterlimit="10" stroke-dasharray=""></path></g></svg>