<svg data-v-9833e8b2="" version="1.1" xmlns="http://www.w3.org/2000/svg" xmlns:xlink="http://www.w3.org/1999/xlink" width="19.5" height="25"><g data-v-9833e8b2=""><path data-v-9833e8b2="" transform="scale(0.13440860215053763)" fill="none" stroke="currentColor" paint-order="fill stroke markers" d="m83.57833,185.31687l-28.10554,0l0,-184.27781l28.10554,0l0,184.27781zm-24.19928,-3.90626l20.29302,0l0,-176.46529l-20.29302,0l0,176.46529z" stroke-width="5" stroke-miterlimit="10" stroke-dasharray=""></path><path data-v-9833e8b2="" transform="scale(0.13440860215053763)" fill="none" stroke="currentColor" paint-order="fill stroke markers" d="m59.67202,126.54719l-1.66016,-3.53517l16.17192,-7.65627l-16.17192,-7.63674l1.66016,-3.53517l23.6524,11.1719l-23.6524,11.19143z" stroke-width="5" stroke-miterlimit="10" stroke-dasharray=""></path><path data-v-9833e8b2="" transform="scale(0.13440860215053763)" fill="none" stroke="currentColor" paint-order="fill stroke markers" d="m59.67202,106.48855l-1.66016,-3.53517l16.17192,-7.63674l-16.17192,-7.65627l1.66016,-3.51563l23.6524,11.1719l-23.6524,11.1719z" stroke-width="5" stroke-miterlimit="10" stroke-dasharray=""></path><path data-v-9833e8b2="" transform="scale(0.13440860215053763)" fill="none" stroke="currentColor" paint-order="fill stroke markers" d="m59.67202,86.44943l-1.66016,-3.53517l16.17192,-7.63674l-16.17192,-7.65627l1.66016,-3.53517l23.6524,11.19143l-23.6524,11.1719zm0,98.32056l-1.66016,-3.53517l16.17192,-7.63674l-16.17192,-7.65627l1.66016,-3.51563l23.6524,11.1719l-23.6524,11.1719z" stroke-width="5" stroke-miterlimit="10" stroke-dasharray=""></path><path data-v-9833e8b2="" transform="scale(0.13440860215053763)" fill="none" stroke="currentColor" paint-order="fill stroke markers" d="m59.67202,164.73088l-1.66016,-3.53517l16.17192,-7.63674l-16.17192,-7.65627l1.66016,-3.53517l23.6524,11.19143l-23.6524,11.1719z" stroke-width="5" stroke-miterlimit="10" stroke-dasharray=""></path><path data-v-9833e8b2="" transform="scale(0.13440860215053763)" fill="none" stroke="currentColor" paint-order="fill stroke markers" d="m59.67202,144.69177l-1.66016,-3.53517l16.17192,-7.65627l-16.17192,-7.63674l1.66016,-3.53517l23.6524,11.1719l-23.6524,11.19143zm0,-78.28145l-1.66016,-3.53517l16.17192,-7.65627l-16.17192,-7.63674l1.66016,-3.53517l23.6524,11.1719l-23.6524,11.19143z" stroke-width="5" stroke-miterlimit="10" stroke-dasharray=""></path><path data-v-9833e8b2="" transform="scale(0.13440860215053763)" fill="none" stroke="currentColor" paint-order="fill stroke markers" d="m59.67202,46.35168l-1.66016,-3.51563l16.17192,-7.65627l-16.17192,-7.63674l1.66016,-3.53517l23.6524,11.1719l-23.6524,11.1719z" stroke-width="5" stroke-miterlimit="10" stroke-dasharray=""></path><path data-v-9833e8b2="" transform="scale(0.13440860215053763)" fill="none" stroke="currentColor" paint-order="fill stroke markers" d="m59.67202,26.31256l-1.66016,-3.53517l16.17192,-7.63674l-16.17192,-7.65627l1.66016,-3.51563l23.6524,11.1719l-23.6524,11.1719z" stroke-width="5" stroke-miterlimit="10" stroke-dasharray=""></path><path data-v-9833e8b2="" transform="scale(0.13440860215053763)" fill="none" stroke="currentColor" paint-order="fill stroke markers" d="m17.11332,1l104.82448,0l0,3.90626l-104.82448,0l0,-3.90626zm120.01983,164.70745l-57.51968,0l0,-55.05873l57.51968,0l0,55.05873zm-53.61342,-3.90626l49.70716,0l0,-47.24621l-49.70716,0l0,47.24621zm-25.00006,-42.40245l-57.51968,0l0,-55.05873l57.51968,0l0,55.05873zm-53.61342,-3.90626l49.70716,0l0,-47.24621l-49.70716,0l0,47.24621z" stroke-width="5" stroke-miterlimit="10" stroke-dasharray=""></path><path data-v-9833e8b2="" transform="scale(0.13440860215053763)" fill="none" stroke="currentColor" paint-order="fill stroke markers" d="m29.39851,1.11719l3.90626,0l0,66.19157l-3.90626,0l0,-66.19157zm75.07831,1.9336l3.90626,0l0,108.90652l-3.90626,0l0,-108.90652z" stroke-width="5" stroke-miterlimit="10" stroke-dasharray=""></path></g></svg>