<svg data-v-9833e8b2="" version="1.1" xmlns="http://www.w3.org/2000/svg" xmlns:xlink="http://www.w3.org/1999/xlink" width="22" height="25"><g data-v-9833e8b2=""><path data-v-9833e8b2="" transform="scale(0.14124293785310735)" fill="none" stroke="currentColor" paint-order="fill stroke markers" d="m92.81664,174.14497l-8.71096,-8.71096l15.54691,-15.54691c19.58989,-19.58989 21.75787,-50.97669 4.98048,-72.73456l9.94143,-7.46096c20.50786,27.05085 17.71489,65.2736 -6.21095,89.21897l-15.54691,15.23441zm24.23834,-120.91827l-28.59382,-28.59382l23.63287,-23.63287l28.59382,28.59382l-23.63287,23.63287zm-11.19143,-28.59382l11.19143,11.19143l6.21095,-6.21095l-11.19143,-11.19143c0,-0.01953 -6.21095,6.21095 -6.21095,6.21095z" stroke-width="5" stroke-miterlimit="10" stroke-dasharray=""></path><path data-v-9833e8b2="" transform="scale(0.14124293785310735)" fill="none" stroke="currentColor" paint-order="fill stroke markers" d="m1,101.97682l8.78908,-8.78908l38.6915,38.67197l-8.78908,8.78908l-38.6915,-38.67197z" stroke-width="5" stroke-miterlimit="10" stroke-dasharray=""></path><path data-v-9833e8b2="" transform="scale(0.14124293785310735)" fill="none" stroke="currentColor" paint-order="fill stroke markers" d="m7.64064,163.559l122.77375,0l0,12.44144l-122.77375,0l0,-12.44144zm54.70717,-33.24227l-50.97669,-50.97669l73.35956,-73.35956l50.97669,50.97669l-73.35956,73.35956zm-33.5743,-50.97669l33.5743,33.5743l55.64467,-55.64467l-33.2618,-33.5743l-55.95717,55.64467z" stroke-width="5" stroke-miterlimit="10" stroke-dasharray=""></path></g></svg>