<svg data-v-9833e8b2="" version="1.1" xmlns="http://www.w3.org/2000/svg" xmlns:xlink="http://www.w3.org/1999/xlink" width="24.5" height="25"><g data-v-9833e8b2=""><path data-v-9833e8b2="" transform="scale(0.13440860215053763)" fill="none" stroke="currentColor" paint-order="fill stroke markers" d="m155.56193,86.9974l-9.45387,0c0.27692,-1.76154 0.46923,-3.53847 0.46923,-5.35386l0,-2.79231l8.98464,0l0,8.13848l0,0.00769zm-28.46161,38.36933l10.46926,-16.35389l3.96155,30.40777l-14.43081,-14.05388zm-35.9924,34.94624l0,-33.74624a81.51559,81.51559 0 0 0 17.50774,-3.33847l3.83847,3.75386l-21.34621,33.33085l0,0zm-34.00009,-33.23855l3.69232,-3.49232c5.84617,1.7077 12.14618,2.77693 18.71543,3.12308l0,34.1847l-22.40775,-33.81547zm-30.04623,12.74619l4.06155,-31.19239l11.13849,16.81543l-15.20004,14.37696zm-14.46158,-60.96938l8.97695,0l0,2.79231c0,1.82308 0.18462,3.59232 0.46923,5.34617l-9.45387,0l0,-8.13848l0.00769,0zm121.55415,8.13848l-100.1541,0a22.24621,22.24621 0 0 1 -0.83077,-5.34617l0,-2.79231l101.81564,0l0,2.79231c0,1.83077 -0.4,3.59232 -0.83077,5.34617zm-34.93855,11.19234l28.86161,0c-4.1077,4.77693 -9.74618,8.90771 -16.63081,11.91541l-12.2308,-11.92311l0,0.00769zm-8.10771,8.00002l7.96156,7.75387c-2.58462,0.55385 -5.23078,0.98462 -7.96156,1.25385l0,-9.00771zm-11.59234,-0.28462l0,9.46925a72.55403,72.55403 0 0 1 -8.86925,-1.09231l8.86925,-8.38464l0,0.00769zm-39.45395,-7.7154l31.04623,0l-13.10772,12.39234c-7.43848,-3.06155 -13.57696,-7.33079 -17.93851,-12.39234zm-6.89233,-30.52315l101.81564,0l0,-22.99236l-101.81564,0l0,23.00006l0,-0.00769zm50.90782,-54.70783l39.49241,20.52313l-78.98481,0l39.49241,-20.52313zm74.81557,54.70783l-12.30772,0l0,-31.58469a5.56924,5.56924 0 0 0 -3.05385,-4.92309l-56.70014,-29.48469a6.02309,6.02309 0 0 0 -5.50771,0l-56.70014,29.48469a5.55386,5.55386 0 0 0 -3.04616,4.92309l0,31.59239l-12.32311,0c-4.53847,0 -8.25387,3.57693 -8.25387,7.97694l0,14.57696c0,4.39232 3.7077,7.96925 8.25387,7.96925l11.54618,0l-7.33079,56.16937a5.57694,5.57694 0 0 0 3.17693,5.70771a6.00002,6.00002 0 0 0 6.63848,-1.01539l25.35391,-23.97698l31.79239,47.96166a5.84617,5.84617 0 0 0 9.75387,-0.1l0.06154,0.02308l30.58469,-47.80012l24.47698,23.83083c1.73077,1.69231 4.4077,2.12308 6.64617,1.09231a5.54617,5.54617 0 0 0 3.21539,-5.72309l-7.32309,-56.16937l11.04618,0c4.55386,0 8.26156,-3.57693 8.26156,-7.96925l0,-14.57696c0,-4.40001 -3.7077,-7.97694 -8.26156,-7.97694l0,-0.00769z" stroke-width="5" stroke-miterlimit="10" stroke-dasharray=""></path></g></svg>