<svg data-v-9833e8b2="" version="1.1" xmlns="http://www.w3.org/2000/svg" xmlns:xlink="http://www.w3.org/1999/xlink" width="25" height="20"><g data-v-9833e8b2=""><path data-v-9833e8b2="" transform="scale(0.12376237623762376)" fill="none" stroke="currentColor" paint-order="fill stroke markers" d="m197.86348,151.8718a11.17172,11.17172 0 0 1 -7.86173,3.22494l-177.88406,0a11.17172,11.17172 0 0 1 -7.86173,-3.22494a10.94459,10.94459 0 0 1 -3.25596,-7.78168l0,-132.08249c0,-6.05364 3.11287,-11.00763 7.00421,-11.00763l7.11528,0l0,45.56843c-0.03802,6.00461 3.42606,11.49192 8.89435,14.08948l2.77867,1.98019a14.65182,14.65182 0 0 0 9.89496,3.63319a14.76489,14.76489 0 0 0 9.89595,-3.63319c9.23856,-7.28138 22.33444,-7.28138 31.574,0c5.75046,4.79188 14.15052,4.79188 19.90098,0c9.23956,-7.28138 22.33444,-7.28138 31.574,0c5.75146,4.79188 14.15052,4.79188 19.90098,0c9.25457,-7.24036 22.32043,-7.24036 31.574,0l2.00221,1.43086c2.22334,0.88153 4.00241,-3.30099 4.00241,-9.35463l0,-34.45173c0,-1.87113 -5.00401,-3.41305 -11.11869,-3.41305l-64.48281,0c-6.11568,0 -11.11769,-3.52112 -11.11769,-7.92377c0,-4.40365 5.00201,-7.92577 11.11769,-7.92577l82.60572,0c3.77927,0 7.00421,4.95398 7.00421,11.00763l0,132.08249c0,2.91976 -1.1717,5.71844 -3.25696,7.78168zm-126.93339,-124.23477c-3.89134,0 -6.55895,-1.87113 -6.44688,-7.92477a16.80612,16.80612 0 0 1 6.44688,-11.00762a16.80812,16.80812 0 0 1 6.44888,11.00762c0,6.16371 -2.89074,7.92477 -6.44888,7.92477zm-16.67604,0c-3.55814,0 -6.44888,-1.87113 -6.44888,-7.92477a16.80812,16.80812 0 0 1 6.44888,-11.00762a16.81212,16.81212 0 0 1 6.44888,11.00762c0,6.16371 -2.89174,7.92477 -6.44888,7.92477zm-16.7881,0c-3.78028,0 -6.44788,-1.87113 -6.44788,-7.92477a16.81112,16.81112 0 0 1 6.44788,-11.00762a16.80311,16.80311 0 0 1 6.44788,11.00762c0,6.16371 -2.88974,7.92477 -6.44788,7.92477z" stroke-width="5" stroke-miterlimit="10" stroke-dasharray=""></path></g></svg>