<svg data-v-9833e8b2="" version="1.1" xmlns="http://www.w3.org/2000/svg" xmlns:xlink="http://www.w3.org/1999/xlink" width="25" height="15"><g data-v-9833e8b2=""><path data-v-9833e8b2="" transform="scale(0.12376237623762376)" fill="none" stroke="currentColor" paint-order="fill stroke markers" d="m36.65634,101.00025a15.66879,15.66879 0 1 1 -1.28125,6.25002a15.95629,15.95629 0 0 1 1.28125,-6.25002z" stroke-width="5" stroke-miterlimit="10" stroke-dasharray=""></path><path data-v-9833e8b2="" transform="scale(0.12376237623762376)" fill="none" stroke="currentColor" paint-order="fill stroke markers" d="m191.62548,32.25008l0,15.62504l-3.12501,6.25002a6.72189,6.72189 0 0 0 -6.25002,-6.25002a6.10939,6.10939 0 0 0 -4.40626,1.84375a5.66251,5.66251 0 0 0 -1.59375,4.37501l-0.25,0.03125l-3.12501,-6.25002l0,-15.62504l18.75005,0zm-6.25002,-12.50003a11.56253,11.56253 0 0 0 -6.25002,9.37502l0,3.12501l-6.25002,0l-7.28127,-21.87506l19.7813,0l0,9.37502z" stroke-width="5" stroke-miterlimit="10" stroke-dasharray=""></path><path data-v-9833e8b2="" transform="scale(0.12376237623762376)" fill="none" stroke="currentColor" paint-order="fill stroke markers" d="m176.00044,82.2502l6.25002,15.62504l-12.50003,0l-3.12501,-6.25002l-81.2502,0l-3.12501,6.25002l-12.50003,0l6.25002,-15.62504l81.2502,0l18.75005,0z" stroke-width="5" stroke-miterlimit="10" stroke-dasharray=""></path><path data-v-9833e8b2="" transform="scale(0.12376237623762376)" fill="none" stroke="currentColor" paint-order="fill stroke markers" d="m172.87543,47.87512l0,21.87506l-15.62504,12.50003l-15.62504,0l21.87506,-18.75005l0,-21.87506l9.37502,-9.37502l0,15.62504z" stroke-width="5" stroke-miterlimit="10" stroke-dasharray=""></path><path data-v-9833e8b2="" transform="scale(0.12376237623762376)" fill="none" stroke="currentColor" paint-order="fill stroke markers" d="m165.59417,10.37502l7.28127,21.87506l-9.37502,9.37502l-9.37502,-37.50009l9.37502,0l2.09376,6.25002z" stroke-width="5" stroke-miterlimit="10" stroke-dasharray=""></path><path data-v-9833e8b2="" transform="scale(0.12376237623762376)" fill="none" stroke="currentColor" paint-order="fill stroke markers" d="m163.50041,41.6251l0,21.87506l-21.87506,18.75005l-28.12507,0l0,-3.12501l-0.15625,-0.5625a54.37514,54.37514 0 0 0 25.93757,-10.90628a56.37827,56.37827 0 0 0 9.84377,-9.65627l14.37504,-16.37504z" stroke-width="5" stroke-miterlimit="10" stroke-dasharray=""></path><path data-v-9833e8b2="" transform="scale(0.12376237623762376)" fill="none" stroke="currentColor" paint-order="fill stroke markers" d="m154.12539,4.12501l9.37502,37.50009l-14.37504,16.37504a56.37827,56.37827 0 0 1 -9.84377,9.65627l-0.78125,-1.03125l-21.87506,-62.50016l37.50009,0z" stroke-width="5" stroke-miterlimit="10" stroke-dasharray=""></path><path data-v-9833e8b2="" transform="scale(0.12376237623762376)" fill="none" stroke="currentColor" paint-order="fill stroke markers" d="m151.00038,91.62523a15.62504,15.62504 0 1 1 -15.62504,15.62504a15.62504,15.62504 0 0 1 15.62504,-15.62504z" stroke-width="5" stroke-miterlimit="10" stroke-dasharray=""></path><path data-v-9833e8b2="" transform="scale(0.12376237623762376)" fill="none" stroke="currentColor" paint-order="fill stroke markers" d="m101.00025,91.62523l50.00013,0a15.62504,15.62504 0 0 0 0,31.25008l-50.00013,0a15.62504,15.62504 0 0 0 0,-31.25008z" stroke-width="5" stroke-miterlimit="10" stroke-dasharray=""></path><path data-v-9833e8b2="" transform="scale(0.12376237623762376)" fill="none" stroke="currentColor" paint-order="fill stroke markers" d="m138.50035,66.62516l0.78125,1.03125a54.37514,54.37514 0 0 1 -25.93757,10.90628l-18.2188,-63.68766a58.29077,58.29077 0 0 1 21.50005,-10.75003l21.87506,62.50016z" stroke-width="5" stroke-miterlimit="10" stroke-dasharray=""></path><path data-v-9833e8b2="" transform="scale(0.12376237623762376)" fill="none" stroke="currentColor" paint-order="fill stroke markers" d="m95.12524,14.87503l18.2188,63.68766a49.35325,49.35325 0 0 1 -7.43752,0.5625l-29.90633,0a12.50003,12.50003 0 0 0 0,-25.00006l0,-14.12504l3.12501,-5.84376a61.18453,61.18453 0 0 1 16.00004,-19.2813z" stroke-width="5" stroke-miterlimit="10" stroke-dasharray=""></path><path data-v-9833e8b2="" transform="scale(0.12376237623762376)" fill="none" stroke="currentColor" paint-order="fill stroke markers" d="m101.00025,91.62523a15.62504,15.62504 0 1 1 -15.62504,15.62504a15.62504,15.62504 0 0 1 15.62504,-15.62504z" stroke-width="5" stroke-miterlimit="10" stroke-dasharray=""></path><path data-v-9833e8b2="" transform="scale(0.12376237623762376)" fill="none" stroke="currentColor" paint-order="fill stroke markers" d="m85.37521,91.62523l15.62504,0a15.62504,15.62504 0 0 0 0,31.25008l-50.00013,0a15.62504,15.62504 0 1 0 -14.34379,-21.87506l-10.65628,0l2.46876,-4.93751a24.95319,24.95319 0 0 1 22.34381,-13.81253l25.18756,0l-6.25002,15.62504l12.50003,0l3.12501,-6.25002z" stroke-width="5" stroke-miterlimit="10" stroke-dasharray=""></path><path data-v-9833e8b2="" transform="scale(0.12376237623762376)" fill="none" stroke="currentColor" paint-order="fill stroke markers" d="m76.00019,66.62516m-12.50003,0a12.50003,12.50003 0 1 0 25.00006,0a12.50003,12.50003 0 1 0 -25.00006,0z" stroke-width="5" stroke-miterlimit="10" stroke-dasharray=""></path><path data-v-9833e8b2="" transform="scale(0.12376237623762376)" fill="none" stroke="currentColor" paint-order="fill stroke markers" d="m54.12514,32.25008l0,50.00013l-3.31251,0a24.95319,24.95319 0 0 0 -22.34381,13.81253l-2.46876,4.93751l-21.87506,0l0,-43.75011l37.50009,0l0,-31.25008l6.25002,0a6.26877,6.26877 0 0 1 6.25002,6.25002z" stroke-width="5" stroke-miterlimit="10" stroke-dasharray=""></path><path data-v-9833e8b2="" transform="scale(0.12376237623762376)" fill="none" stroke="currentColor" paint-order="fill stroke markers" d="m41.6251,26.00006l0,31.25008l-37.50009,0l12.50003,-31.25008l25.00006,0z" stroke-width="5" stroke-miterlimit="10" stroke-dasharray=""></path><path data-v-9833e8b2="" transform="scale(0.12376237623762376)" fill="none" stroke="currentColor" paint-order="fill stroke markers" d="m195.31299,76.00019l2.56251,9.37502a10.9094,10.9094 0 0 0 -6.25002,-3.12501a10.9094,10.9094 0 0 0 -6.25002,3.12501l-8.84377,-29.50007a6.83752,6.83752 0 0 1 -0.28125,-1.78125a5.66251,5.66251 0 0 1 1.59375,-4.37501a6.10939,6.10939 0 0 1 4.40626,-1.84375a6.72189,6.72189 0 0 1 6.25002,6.25002l6.81252,21.87506z" stroke-width="5" stroke-miterlimit="10" stroke-dasharray=""></path><path data-v-9833e8b2="" transform="scale(0.12376237623762376)" fill="none" stroke="currentColor" paint-order="fill stroke markers" d="m197.8755,85.37521l0,2.78126a6.47502,6.47502 0 0 1 -5.18751,6.50002a6.25002,6.25002 0 0 1 -7.31252,-6.15627l0,-3.12501a10.9094,10.9094 0 0 1 6.25002,-3.12501a10.9094,10.9094 0 0 1 6.25002,3.12501z" stroke-width="5" stroke-miterlimit="10" stroke-dasharray=""></path><path data-v-9833e8b2="" transform="scale(0.12376237623762376)" fill="none" stroke="currentColor" paint-order="fill stroke markers" d="m179.12545,32.25008l-6.25002,0l0,6.25002l6.25002,0a6.25002,6.25002 0 0 1 6.25002,6.25002l0,4.14689a6.61252,6.61252 0 0 1 3.12501,5.22814l3.12501,-6.25002l0,-15.62504l-12.50003,0z" stroke-width="5" stroke-miterlimit="10" stroke-dasharray=""></path><path data-v-9833e8b2="" transform="scale(0.12376237623762376)" fill="none" stroke="currentColor" paint-order="fill stroke markers" d="m160.3754,19.75005l8.34065,0l-3.12188,-9.37502l-2.09376,-6.25002l-9.37502,0l3.90626,15.62504l2.34376,0z" stroke-width="5" stroke-miterlimit="10" stroke-dasharray=""></path><path data-v-9833e8b2="" transform="scale(0.12376237623762376)" fill="none" stroke="currentColor" paint-order="fill stroke markers" d="m122.87531,19.75005l35.15634,0l-3.90626,-15.62504l-37.50009,0l5.54689,15.84691c0.2375,-0.0625 0.4625,-0.15938 0.70313,-0.22188z" stroke-width="5" stroke-miterlimit="10" stroke-dasharray=""></path><path data-v-9833e8b2="" transform="scale(0.12376237623762376)" fill="none" stroke="currentColor" paint-order="fill stroke markers" d="m101.37525,30.50007a58.38765,58.38765 0 0 1 20.79693,-10.52815l-5.54689,-15.84691a58.29077,58.29077 0 0 0 -21.50005,10.75003l4.82814,16.87504c0.48125,-0.40625 0.92813,-0.85938 1.42188,-1.25z" stroke-width="5" stroke-miterlimit="10" stroke-dasharray=""></path><path data-v-9833e8b2="" transform="scale(0.12376237623762376)" fill="none" stroke="currentColor" paint-order="fill stroke markers" d="m85.37521,49.78137a61.1939,61.1939 0 0 1 14.57816,-18.02817l-4.82814,-16.87504a61.18453,61.18453 0 0 0 -16.00004,19.27817l-3.12501,5.84376l0,14.12504a12.38753,12.38753 0 0 1 6.25002,1.73125l0,-0.23125l3.12501,-5.84376z" stroke-width="5" stroke-miterlimit="10" stroke-dasharray=""></path><path data-v-9833e8b2="" transform="scale(0.12376237623762376)" fill="none" stroke="currentColor" paint-order="fill stroke markers" d="m47.87512,26.00006l0,50.00013l-3.31251,0a24.95319,24.95319 0 0 0 -22.34381,13.81253l-2.46876,4.93751l-15.62504,0l0,6.25002l21.87506,0l2.46876,-4.93751a24.95319,24.95319 0 0 1 22.34381,-13.81253l3.31251,0l0,-50.00013a6.26877,6.26877 0 0 0 -6.25002,-6.25002z" stroke-width="5" stroke-miterlimit="10" stroke-dasharray=""></path><path data-v-9833e8b2="" transform="scale(0.12376237623762376)" fill="none" stroke="currentColor" paint-order="fill stroke markers" d="m41.6251,32.25008l0,-6.25002l-25.00006,0l-12.50003,31.25008l8.75002,0l10.00003,-25.00006l18.75005,0z" stroke-width="5" stroke-miterlimit="10" stroke-dasharray=""></path><path data-v-9833e8b2="" transform="scale(0.12376237623762376)" fill="none" stroke="currentColor" paint-order="fill stroke markers" d="m35.37509,26.00006l0,18.75005a6.25002,6.25002 0 0 1 -6.25002,6.25002l-22.50006,0l-2.50001,6.25002l37.50009,0l0,-31.25008l-6.25002,0z" stroke-width="5" stroke-miterlimit="10" stroke-dasharray=""></path><path data-v-9833e8b2="" transform="scale(0.12376237623762376)" fill="none" stroke="currentColor" paint-order="fill stroke markers" d="m172.87543,32.25008l6.25002,0l0,-3.12501a11.56253,11.56253 0 0 1 6.25002,-9.37502l-16.65942,0l4.15939,12.50003z" stroke-width="5" stroke-miterlimit="10" stroke-dasharray=""></path><path data-v-9833e8b2="" transform="scale(0.12376237623762376)" fill="none" stroke="currentColor" paint-order="fill stroke markers" d="m197.8755,85.37521l-2.56251,-9.37502l-6.81252,-21.87506a6.72189,6.72189 0 0 0 -6.25002,-6.25002a6.12502,6.12502 0 0 0 -3.25938,0.9375a6.63439,6.63439 0 0 1 3.25938,5.31251l6.81252,21.87506l1.73438,6.34689a4.94689,4.94689 0 0 1 0.82813,-0.09688a10.9094,10.9094 0 0 1 6.25002,3.12501z" stroke-width="5" stroke-miterlimit="10" stroke-dasharray=""></path><path data-v-9833e8b2="" transform="scale(0.12376237623762376)" fill="none" stroke="currentColor" paint-order="fill stroke markers" d="m151.00038,107.25027m-6.25002,0a6.25002,6.25002 0 1 0 12.50003,0a6.25002,6.25002 0 1 0 -12.50003,0z" stroke-width="5" stroke-miterlimit="10" stroke-dasharray=""></path><path data-v-9833e8b2="" transform="scale(0.12376237623762376)" fill="none" stroke="currentColor" paint-order="fill stroke markers" d="m101.00025,107.25027m-6.25002,0a6.25002,6.25002 0 1 0 12.50003,0a6.25002,6.25002 0 1 0 -12.50003,0z" stroke-width="5" stroke-miterlimit="10" stroke-dasharray=""></path><path data-v-9833e8b2="" transform="scale(0.12376237623762376)" fill="none" stroke="currentColor" paint-order="fill stroke markers" d="m51.00013,107.25027m-6.25002,0a6.25002,6.25002 0 1 0 12.50003,0a6.25002,6.25002 0 1 0 -12.50003,0z" stroke-width="5" stroke-miterlimit="10" stroke-dasharray=""></path><path data-v-9833e8b2="" transform="scale(0.12376237623762376)" fill="none" stroke="currentColor" paint-order="fill stroke markers" d="m124.5101,16.22677a7.14377,5.13126 45 1 0 7.2567,-7.2567a7.14377,5.13126 45 1 0 -7.2567,7.2567z" stroke-width="5" stroke-miterlimit="10" stroke-dasharray=""></path><path data-v-9833e8b2="" transform="scale(0.12376237623762376)" fill="none" stroke="currentColor" paint-order="fill stroke markers" d="m141.93514,14.46427a3.58751,2.57813 45 1 0 3.64603,-3.64603a3.58751,2.57813 45 1 0 -3.64603,3.64603z" stroke-width="5" stroke-miterlimit="10" stroke-dasharray=""></path><path data-v-9833e8b2="" transform="scale(0.12376237623762376)" fill="none" stroke="currentColor" paint-order="fill stroke markers" d="m29.41358,36.30671a3.58751,2.57813 45 1 0 3.64603,-3.64603a3.58751,2.57813 45 1 0 -3.64603,3.64603z" stroke-width="5" stroke-miterlimit="10" stroke-dasharray=""></path><path data-v-9833e8b2="" transform="scale(0.12376237623762376)" fill="none" stroke="currentColor" paint-order="fill stroke markers" d="m51.00013,97.87524a9.37502,9.37502 0 1 0 9.37502,9.37502a9.37502,9.37502 0 0 0 -9.37502,-9.37502zm0,12.50003a3.12501,3.12501 0 1 1 3.12501,-3.12501a3.12501,3.12501 0 0 1 -3.12501,3.12501zm50.00013,6.25002a9.37502,9.37502 0 1 0 -9.37502,-9.37502a9.37502,9.37502 0 0 0 9.37502,9.37502zm0,-12.50003a3.12501,3.12501 0 1 1 -3.12501,3.12501a3.12501,3.12501 0 0 1 3.12501,-3.12501zm50.00013,-6.25002a9.37502,9.37502 0 1 0 9.37502,9.37502a9.37502,9.37502 0 0 0 -9.37502,-9.37502zm0,12.50003a3.12501,3.12501 0 1 1 3.12501,-3.12501a3.12501,3.12501 0 0 1 -3.12501,3.12501zm-78.1252,-46.87512l6.25002,0l0,6.25002l-6.25002,0l0,-6.25002zm46.31574,-42.77823l5.90001,-2.06876l2.20001,6.27502l-5.90001,2.06876l-2.20001,-6.27502z" stroke-width="5" stroke-miterlimit="10" stroke-dasharray=""></path><path data-v-9833e8b2="" transform="scale(0.12376237623762376)" fill="none" stroke="currentColor" paint-order="fill stroke markers" d="m200.89113,84.55333l-2.59063,-9.49065l-6.44064,-20.67193l2.56251,-5.12501a3.12501,3.12501 0 0 0 0.32813,-1.39063l0,-15.62504a3.12501,3.12501 0 0 0 -3.12501,-3.12501l-9.37502,0a8.50315,8.50315 0 0 1 4.52189,-6.56252a3.12501,3.12501 0 0 0 1.72813,-2.81251l0,-9.37502a3.12501,3.12501 0 0 0 -3.12501,-3.12501l-17.53754,0l-1.37188,-4.11251a3.12501,3.12501 0 0 0 -2.96563,-2.13751l-46.87512,0a3.18126,3.18126 0 0 0 -0.7875,0.1a63.15016,63.15016 0 0 0 -39.4876,31.58445l-3.10938,5.84376a3.12501,3.12501 0 0 0 -0.36563,1.46875l0,11.31565a15.57191,15.57191 0 0 0 -6.15314,27.81257l-9.4719,0l0,-34.37509l-6.25002,0l0,34.37509l-0.175,0a27.9657,27.9657 0 0 0 -25.13756,15.54691l-1.61875,3.20313l-16.81879,0l0,-37.50009l34.37509,0a3.12501,3.12501 0 0 0 3.12501,-3.12501l0,-28.12507l3.12501,0a3.12501,3.12501 0 0 1 3.12501,3.12501l0,6.25002l6.25002,0l0,-6.25002a9.37502,9.37502 0 0 0 -9.37502,-9.37502l-31.25008,0a3.12501,3.12501 0 0 0 -2.90313,1.96563l-12.50003,31.25008a3.12501,3.12501 0 0 0 -0.22188,1.15938l0,43.75011a3.12501,3.12501 0 0 0 3.12501,3.12501l28.40632,0a18.43755,18.43755 0 0 0 4.53126,15.62504l-32.93758,0l0,6.25002l181.25046,0l0,-6.25002l-20.43755,0a18.57192,18.57192 0 0 0 3.62188,-19.01567a3.07813,3.07813 0 0 0 1.19063,0.26563l12.50003,0a3.12501,3.12501 0 0 0 2.90313,-4.28439l-1.06563,-2.65938a9.1594,9.1594 0 0 0 1.46875,1.5875a9.37502,9.37502 0 0 0 6.06877,2.23126a9.87815,9.87815 0 0 0 1.54063,-0.125a9.63752,9.63752 0 0 0 7.83439,-9.5844l0,-2.79063a3.15626,3.15626 0 0 0 -0.10938,-0.82188zm-182.15046,-55.42826l19.75942,0l0,25.00006l-29.75945,0l10.00003,-25.00006zm174.22856,50.1345a7.99377,7.99377 0 0 0 -1.34375,-0.13438a10.06253,10.06253 0 0 0 -4.50314,1.19688l-7.60627,-25.35006a2.85001,2.85001 0 0 1 2.73438,-3.97188a3.65626,3.65626 0 0 1 3.12501,3.12501a3.14376,3.14376 0 0 0 0.14063,0.9375l6.78752,21.76568l0.66563,2.43126zm-4.46876,-43.88449l0,11.76253l-0.09375,0.1875a8.93127,8.93127 0 0 0 -12.39066,-0.15313l-0.01563,-0.03438l0,-11.76253l12.50003,0zm-38.4376,43.75011l15.46254,-13.25316a3.12501,3.12501 0 0 0 1.1,-2.37188l0,-20.5813l3.12501,-3.12501l0,28.45632l-13.59691,10.87503l-6.09064,0zm1.39375,-19.06255l8.91877,-10.14065l0,12.14066l-19.9063,17.06254l-15.90942,0a58.89702,58.89702 0 0 0 26.90632,-19.06255l-0.00938,0zm23.67193,-30.93758l-2.08438,-6.25002l4.68751,0a12.11253,12.11253 0 0 0 -1.73125,6.25002l-0.87188,0zm7.12189,-15.62504l0,3.12501l-11.28753,0l-1.04375,-3.12501l12.33128,0zm-12.95003,17.90317l-4.10626,4.10939l-7.06564,-28.26257l3.12501,0l8.0469,24.15319zm-87.43147,4.21564a58.32202,58.32202 0 0 1 11.63128,-15.11879l12.53128,43.86261l6.00939,-1.7125l-13.28441,-46.49699a55.25639,55.25639 0 0 1 15.93754,-8.12502l2.28438,6.52814l5.89689,-2.07188l-1.84688,-5.23439l30.65633,0l8.37815,33.54383l-13.39691,15.26254a54.30639,54.30639 0 0 1 -6.27502,6.53439l-10.98128,-31.37508l-5.90001,2.06251l11.6969,33.43758a51.522,51.522 0 0 1 -19.6438,8.30315l-1.75,-6.13439l-6.00939,1.7125l1.4875,5.20939c-1.13125,0.075 -2.25626,0.19375 -3.40001,0.19375l-17.50004,0a15.46254,15.46254 0 0 0 3.23438,-9.37502a15.65316,15.65316 0 0 0 -12.50003,-15.31254l0,-10.53753l2.74376,-5.15626zm-5.86876,21.6313a9.37502,9.37502 0 1 1 -9.37502,9.37502a9.37502,9.37502 0 0 1 9.37502,-9.37502zm-44.94386,40.6251l0.20625,-0.40938a21.75005,21.75005 0 0 1 19.56255,-12.09066l20.55943,0l-4.53751,11.34065a3.25938,3.25938 0 0 0 -0.10313,0.39063a18.7063,18.7063 0 0 0 -31.95633,0.76875l-3.73126,0zm82.44396,9.37502a12.50003,12.50003 0 1 1 -12.50003,-12.50003a12.50003,12.50003 0 0 1 12.50003,12.50003zm1.4375,-12.50003l22.12506,0a18.64067,18.64067 0 0 0 0,25.00006l-22.12506,0a18.64067,18.64067 0 0 0 0,-25.00006zm-27.87507,25.00006l-22.12506,0a18.57505,18.57505 0 0 0 3.62501,-19.00942a3.07188,3.07188 0 0 0 1.1875,0.25938l12.50003,0a3.07813,3.07813 0 0 0 1.19063,-0.26563a18.57192,18.57192 0 0 0 3.62188,19.01567zm-48.56262,-12.50003a12.50003,12.50003 0 1 1 12.50003,12.50003a12.50003,12.50003 0 0 1 -12.50003,-12.50003zm100.00025,0a12.50003,12.50003 0 1 1 12.50003,12.50003a12.50003,12.50003 0 0 1 -12.50003,-12.50003zm33.18133,-12.50003l-2.24376,-4.52189a3.12501,3.12501 0 0 0 -2.81251,-1.72813l-81.2502,0a3.12501,3.12501 0 0 0 -2.79688,1.72813l-2.25938,4.52189l-5.95314,0l3.75001,-9.37502l95.76899,0l3.75001,9.37502l-5.95314,0zm7.22189,-13.65941a3.12501,3.12501 0 0 0 -2.90313,-1.96563l-9.84065,0l8.66877,-6.93439a3.12501,3.12501 0 0 0 1.17188,-2.44063l0,-4.74689l6.25002,20.82818l0,2.66876a9.30002,9.30002 0 0 0 0.14375,1.31875l-3.49063,-8.72815zm13.26878,10.48753a3.12501,3.12501 0 0 1 -3.67188,-3.07813l0,-1.68438a6.32814,6.32814 0 0 1 3.12501,-1.44063a6.32814,6.32814 0 0 1 3.12501,1.44063l0,1.35a3.38438,3.38438 0 0 1 -2.57813,3.41251zm-0.54688,28.17195l6.25002,0l0,6.25002l-6.25002,0l0,-6.25002z" stroke-width="5" stroke-miterlimit="10" stroke-dasharray=""></path></g></svg>