<svg data-v-9833e8b2="" version="1.1" xmlns="http://www.w3.org/2000/svg" xmlns:xlink="http://www.w3.org/1999/xlink" width="24.5" height="25"><g data-v-9833e8b2=""><path data-v-9833e8b2="" transform="scale(0.14204545454545456)" fill="none" stroke="currentColor" paint-order="fill stroke markers" d="m153.34413,175.60981l-142.57848,0a9.76565,9.76565 0 0 1 -9.76565,-9.76565l0,-155.07852a9.76565,9.76565 0 0 1 9.76565,-9.76565l142.57848,0a9.76565,9.76565 0 0 1 9.76565,9.76565l0,155.07852a9.76565,9.76565 0 0 1 -9.76565,9.76565zm-92.38305,-162.89104l-44.33605,0a3.90626,3.90626 0 0 0 -3.90626,3.90626l0,143.35974a3.90626,3.90626 0 0 0 3.90626,3.90626l44.33605,0l0,-151.17226zm29.68757,0l-17.9688,0l0,151.17226l17.9688,0l0,-151.17226zm60.74234,3.90626a3.90626,3.90626 0 0 0 -3.90626,-3.90626l-45.1173,0l0,151.17226l45.1173,0a3.90626,3.90626 0 0 0 3.90626,-3.90626l0,-143.35974zm-19.97368,93.52738a5.84767,5.84767 0 0 1 -4.84415,2.56661l-0.00449,0a5.82912,5.82912 0 0 1 -3.75606,-1.36485c-0.02461,-0.01953 -0.04766,-0.04199 -0.07207,-0.0623q-0.09766,-0.08555 -0.19316,-0.17481c-0.06504,-0.05859 -0.13281,-0.11426 -0.19531,-0.17715l-11.03929,-11.04866a5.85666,5.85666 0 1 1 8.27912,-8.28557l1.12266,1.12364l0,-22.59381a5.85412,5.85412 0 0 1 5.85412,-5.85412l0.00449,0a5.85412,5.85412 0 0 1 5.85412,5.85412l0,22.43306l0.96289,-0.96367a5.85666,5.85666 0 0 1 8.27893,8.28635l-10.25178,10.26116zm-99.4981,-43.50773a5.85334,5.85334 0 0 1 8.58244,-1.2043c0.0459,0.03711 0.08965,0.07813 0.13477,0.11719q0.05195,0.04609 0.10254,0.09277c0.07969,0.07148 0.16152,0.13867 0.23789,0.21484l11.03889,11.04866a5.85666,5.85666 0 0 1 -8.27912,8.28557l-1.125,-1.12578l0,22.59596a5.85412,5.85412 0 0 1 -11.70823,0l0,-22.43541l-0.96504,0.96602a5.85666,5.85666 0 0 1 -8.27893,-8.28635l10.25979,-10.26917z" stroke-width="5" stroke-miterlimit="10" stroke-dasharray=""></path></g></svg>