<svg data-v-9833e8b2="" version="1.1" xmlns="http://www.w3.org/2000/svg" xmlns:xlink="http://www.w3.org/1999/xlink" width="25" height="20"><g data-v-9833e8b2=""><path data-v-9833e8b2="" transform="scale(0.12886597938144329)" fill="none" stroke="currentColor" paint-order="fill stroke markers" d="m103.42504,43.56635a5.06629,5.06629 0 0 1 -0.50663,10.11232l-0.37744,-0.02027a5.06629,5.06629 0 0 1 0.50663,-10.11232l0.37744,0.02027zm17.66362,1.54522a5.06629,5.06629 0 0 1 -0.50663,10.11232l-0.37744,-0.02027a5.06629,5.06629 0 0 1 0.50663,-10.11232l0.37744,0.02027zm-17.99546,2.2393a1.26657,1.26657 0 1 0 -0.22038,2.52301a1.26657,1.26657 0 0 0 0.22038,-2.52301zm17.66362,1.54522a1.26657,1.26657 0 1 0 -0.22038,2.52301a1.26657,1.26657 0 0 0 0.22038,-2.52301zm68.72169,-45.42436l-67.11061,-2.46982a2.78646,2.78646 0 0 0 -1.51989,0.38504l-37.04978,21.92437c-2.37862,1.4059 -1.47936,5.04096 1.27924,5.18028l66.25441,3.32855a2.78646,2.78646 0 0 0 1.57562,-0.39517l37.90345,-22.78057c2.37609,-1.42869 1.43629,-5.07136 -1.33243,-5.17268zm-66.50266,3.12843l56.9299,2.09238l-29.1413,17.51417l-56.15476,-2.81939l28.36616,-16.78715l0,0zm66.68504,7.46264l-37.59187,22.46646a2.78646,2.78646 0 0 0 -1.34257,2.08985l-3.26776,30.11403l-0.01773,0.29891l0,76.81002a2.78646,2.78646 0 0 0 4.20755,2.39889l40.8647,-24.2346a2.78646,2.78646 0 0 0 1.36537,-2.39636l0,-105.15592a2.78646,2.78646 0 0 0 -4.21769,-2.39129l0,0zm-1.35776,7.30052l0,98.66093l-35.29178,20.92631l0,-71.7564l3.10564,-28.59414l32.18614,-19.2367z" stroke-width="5" stroke-miterlimit="10" stroke-dasharray=""></path><path data-v-9833e8b2="" transform="scale(0.12886597938144329)" fill="none" stroke="currentColor" paint-order="fill stroke markers" d="m143.62605,34.61168l-60.87654,-3.20696a2.78646,2.78646 0 0 0 -2.88778,2.28996l-1.29444,7.2144l-0.038,0.29891a2.78646,2.78646 0 0 0 2.52808,2.96631l2.99418,0.27105l-0.82327,4.22022l-3.31842,-0.24825a2.78646,2.78646 0 0 0 -2.95111,2.28996l-2.08478,11.73353a2.78646,2.78646 0 0 0 2.53315,3.26776l62.41163,4.72685a2.78646,2.78646 0 0 0 2.97898,-2.46222l3.45014,-30.26095a2.78646,2.78646 0 0 0 -2.6218,-3.10057zm-58.71577,2.48502l55.46574,2.92325l-2.81179,24.6551l-56.66392,-4.29368l1.10445,-6.21887l3.27789,0.24825a2.78646,2.78646 0 0 0 2.94352,-2.2469l1.88719,-9.67915l0.04306,-0.30398a2.78646,2.78646 0 0 0 -2.52555,-3.00431l-3.04231,-0.27865l0.32171,-1.80106zm-7.09027,32.30773a2.78646,2.78646 0 0 0 -2.98911,2.77886l0,66.93836a2.78646,2.78646 0 0 0 2.49515,2.77126l62.06205,6.52285a2.78646,2.78646 0 0 0 3.07777,-2.77126l0,-68.88635a2.78646,2.78646 0 0 0 -2.58381,-2.77886l-62.06205,-4.57486zm2.58381,5.7781l56.48913,4.16449l0,63.20197l-56.48913,-5.93516l0,-61.4313z" stroke-width="5" stroke-miterlimit="10" stroke-dasharray=""></path><path data-v-9833e8b2="" transform="scale(0.12886597938144329)" fill="none" stroke="currentColor" paint-order="fill stroke markers" d="m87.90192,87.13645a1.51989,1.51989 0 0 0 -1.67187,1.51229l0,6.229a1.51989,1.51989 0 0 0 1.35776,1.50975l40.53032,4.37727a1.51989,1.51989 0 0 0 1.68201,-1.50975l0,-6.52791a1.51989,1.51989 0 0 0 -1.3679,-1.51229l-40.53032,-4.0809l0,0.00253zm1.3679,3.18923l37.49055,3.77945l0,3.45521l-37.49055,-4.04797l0,-3.1867zm-1.3679,12.00964a1.51989,1.51989 0 0 0 -1.67187,1.51229l0,6.229a1.51989,1.51989 0 0 0 1.35776,1.50976l40.53032,4.37727a1.51989,1.51989 0 0 0 1.68201,-1.50975l0,-6.52792a1.51989,1.51989 0 0 0 -1.3679,-1.51229l-40.53032,-4.0809l0,0.00253zm1.3679,3.18923l37.49055,3.77945l0,3.45521l-37.49055,-4.04797l0,-3.1867zm-1.3679,11.53594a1.51989,1.51989 0 0 0 -1.67187,1.51229l0,6.23154a1.51989,1.51989 0 0 0 1.35776,1.50975l40.53032,4.37727a1.51989,1.51989 0 0 0 1.68201,-1.51229l0,-6.52285a1.51989,1.51989 0 0 0 -1.3679,-1.51229l-40.53032,-4.08343zm1.3679,3.19176l37.49055,3.77692l0,3.45521l-37.49055,-4.04797l0,-3.18416z" stroke-width="5" stroke-miterlimit="10" stroke-dasharray=""></path><path data-v-9833e8b2="" transform="scale(0.12886597938144329)" fill="none" stroke="currentColor" paint-order="fill stroke markers" d="m29.15069,43.63221l1.19311,-0.81821c9.79567,-6.54058 15.80682,-6.61911 16.67569,0.66368l0.16719,1.88213c0.15199,2.48501 -0.28118,4.78258 -4.15942,23.7609l-1.54269,7.56144c-0.42557,2.12024 -0.80554,4.06317 -1.15765,5.93009l-0.21025,1.11458c-2.77886,14.91769 -3.80478,25.41251 -2.71806,32.2672c2.51795,15.87775 10.35296,18.75287 16.08294,9.89953c0.63835,-0.98793 1.13992,-1.89733 1.53762,-2.79659c0.97019,-2.1861 1.39576,-4.26328 1.7656,-8.51137l0.25332,-3.28802c0.10133,-1.41349 0.23052,-3.25762 0.28878,-4.03023c0.19758,-2.60914 0.40024,-5.00803 0.65355,-7.58677c0.66368,-6.7331 1.60348,-14.03362 2.96885,-22.57032l0.35464,-2.14304c4.1037,-23.88756 10.86973,-34.17213 20.67046,-29.70873a1.26657,1.26657 0 0 1 -1.05125,2.30516c-7.69569,-3.50587 -13.65365,6.05928 -17.47363,29.94431a370.16848,370.16848 0 0 0 -2.94858,22.42087c-0.18745,1.91759 -0.34957,3.73639 -0.49903,5.61852l-0.56236,7.63743c-0.42557,5.62358 -0.8714,8.15673 -2.10251,10.93812a22.72231,22.72231 0 0 1 -1.73014,3.1487c-7.13334,11.01918 -17.8612,7.08267 -20.71099,-10.87986c-1.14751,-7.23466 -0.10133,-17.9296 2.73073,-33.12847l0.65102,-3.41468c0.22798,-1.17285 0.46863,-2.38622 0.72448,-3.66293l4.18475,-20.64007c1.68454,-8.55443 1.56548,-9.02053 1.35523,-11.39915c-0.4509,-5.16002 -4.55966,-4.99536 -13.9399,1.56042a1.26657,1.26657 0 1 1 -1.45149,-2.07718l0,0.00253z" stroke-width="5" stroke-miterlimit="10" stroke-dasharray=""></path><path data-v-9833e8b2="" transform="scale(0.12886597938144329)" fill="none" stroke="currentColor" paint-order="fill stroke markers" d="m24.74048,52.12078l-4.28102,-9.18265l14.85436,-4.10876l2.18104,4.68125l-12.75439,8.61016z" stroke-width="5" stroke-miterlimit="10" stroke-dasharray=""></path><path data-v-9833e8b2="" transform="scale(0.12886597938144329)" fill="none" stroke="currentColor" paint-order="fill stroke markers" d="m11.02857,12.88743a1.26657,1.26657 0 0 1 1.56042,0.4433l0.11146,0.20012l9.27131,20.82752a1.26657,1.26657 0 0 1 -2.2013,1.22857l-0.11146,-0.20012l-9.27131,-20.82499a1.26657,1.26657 0 0 1 0.64089,-1.67187l0,-0.00253z" stroke-width="5" stroke-miterlimit="10" stroke-dasharray=""></path><path data-v-9833e8b2="" transform="scale(0.12886597938144329)" fill="none" stroke="currentColor" paint-order="fill stroke markers" d="m15.40838,22.72363a0.63329,0.63329 0 0 1 0.75994,0.19505l0.07599,0.12666l9.27131,20.82752a0.63329,0.63329 0 0 1 -1.08165,0.64089l-0.076,-0.12666l-9.27131,-20.82752a0.63329,0.63329 0 0 1 0.32171,-0.83594zm-7.2068,-7.46771a0.25331,0.25331 0 0 1 0.28625,0.4053l-0.08106,0.05826l-6.94082,3.09044a0.25331,0.25331 0 0 1 -0.28878,-0.4053l0.08106,-0.05826l6.94082,-3.09044l0.00253,0zm13.88417,-6.18087a0.25331,0.25331 0 0 1 0.28878,0.4053l-0.08359,0.05826l-6.94082,3.09044a0.25331,0.25331 0 0 1 -0.28878,-0.4053l0.08106,-0.05826l6.94082,-3.09044l0.00253,0zm-13.64352,3.50841a0.25331,0.25331 0 0 1 -0.08106,0.4889l-0.10133,-0.0152l-7.09281,-2.72313a0.25331,0.25331 0 0 1 0.08106,-0.49143l0.10133,0.01773l7.09281,2.72313zm2.01892,-2.21397a0.25331,0.25331 0 0 1 -0.4053,0.28624l-0.05826,-0.08106l-3.09044,-6.94082a0.25331,0.25331 0 0 1 0.4053,-0.28878l0.05826,0.08106l3.09044,6.94082l0,0.00253zm4.72432,-6.66977a0.25331,0.25331 0 0 1 0.49143,0.08106l-0.01773,0.10133l-2.72313,7.09281a0.25331,0.25331 0 0 1 -0.49143,-0.08106l0.01773,-0.10133l2.72313,-7.09281z" stroke-width="5" stroke-miterlimit="10" stroke-dasharray=""></path></g></svg>