<svg data-v-9833e8b2="" version="1.1" xmlns="http://www.w3.org/2000/svg" xmlns:xlink="http://www.w3.org/1999/xlink" width="25" height="20"><g data-v-9833e8b2=""><path data-v-9833e8b2="" transform="scale(0.12886597938144329)" fill="none" stroke="currentColor" paint-order="fill stroke markers" d="m187.16453,2.95313c-2.67969,0 -4.85939,2.17188 -4.85939,4.84376l0,7.28127l-44.21105,0l0,-7.28127c0,-2.67188 -2.17188,-4.84376 -4.85157,-4.84376c-2.67188,0 -4.85157,2.17188 -4.85157,4.84376l0,7.28127l-61.81266,0l0,-7.28127c0,-2.67188 -2.17969,-4.84376 -4.85157,-4.84376c-2.67969,0 -4.85157,2.17188 -4.85157,4.84376l0,7.28127l-44.21105,0l0,-7.28127c0,-2.67188 -2.17969,-4.84376 -4.85939,-4.84376c-2.67188,0 -4.85157,2.17188 -4.85157,4.84376l0,140.73473l9.71096,0l0,-18.75005l22.10162,-22.10162l22.10943,22.10943l0,18.74223l9.70315,0l0,-123.7425l61.81266,0l0,123.7425l9.70315,0l0,-18.74223l22.10943,-22.10943l22.10162,22.10162l0,18.75005l9.71096,0l0,-140.73473c0,-2.67188 -2.17969,-4.84376 -4.85157,-4.84376zm-174.50044,28.7032l15.24223,15.24223l-15.24223,15.23441l0,-30.47664zm22.10162,22.10162l15.25004,15.25004l-30.50008,0l15.25004,-15.25004zm-22.10162,62.29703l0,-30.47664l15.24223,15.24223l-15.24223,15.23441zm44.21105,0.00781l-15.24223,-15.24223l15.24223,-15.25004l0,30.49226zm-22.10943,-22.10943l-15.25004,-15.25004l30.50008,0l-15.25004,15.25004zm22.10943,-31.81258l-15.25004,-15.24223l15.25004,-15.25004l0,30.49226zm-22.10943,-22.10162l-15.25004,-15.25004l30.50008,0l-15.25004,15.25004zm103.32839,-8.39065l15.25004,15.25004l-15.25004,15.24223l0,-30.49226zm22.10943,22.10943l15.25004,15.25004l-30.50008,0l15.25004,-15.25004zm-22.10943,62.30484l0,-30.49226l15.25004,15.25004l-15.25004,15.24223zm44.21105,-0.00781l-15.23441,-15.23441l15.23441,-15.24223l0,30.47664zm-22.10162,-22.10162l-15.25004,-15.25004l30.50008,0l-15.25004,15.25004zm22.10162,-31.82039l-15.24223,-15.23441l15.24223,-15.24223l0,30.47664zm-22.10162,-22.09381l-15.25004,-15.25004l30.50008,0l-15.25004,15.25004z" stroke-width="5" stroke-miterlimit="10" stroke-dasharray=""></path><path data-v-9833e8b2="" transform="scale(0.12886597938144329)" fill="none" stroke="currentColor" paint-order="fill stroke markers" d="m2.95313,24.78912l0,8.2344l9.71096,0l0,-1.36719l1.36719,1.36719l13.71878,0l-8.2344,-8.2344l-16.56254,0zm38.82822,8.2344l13.71878,0l1.375,-1.375l0,1.375l9.70315,0l0,-8.2344l-16.56254,0l-8.2344,8.2344zm86.60959,-8.2344l0,8.2344l9.70315,0l0,-1.375l1.375,1.375l13.71878,0l-8.2344,-8.2344l-16.56254,0zm47.06262,0l-8.2344,8.2344l13.71878,0l1.36719,-1.36719l0,1.36719l9.71096,0l0,-8.2344l-16.56254,0z" stroke-width="5" stroke-miterlimit="10" stroke-dasharray=""></path><path data-v-9833e8b2="" transform="scale(0.12886597938144329)" fill="none" stroke="currentColor" paint-order="fill stroke markers" d="m66.57751,48.22668m-1.95313,0a1.95313,1.95313 0 1 0 3.90626,0a1.95313,1.95313 0 1 0 -3.90626,0z" stroke-width="5" stroke-miterlimit="10" stroke-dasharray=""></path><path data-v-9833e8b2="" transform="scale(0.12886597938144329)" fill="none" stroke="currentColor" paint-order="fill stroke markers" d="m187.16453,1c-3.75626,0 -6.81252,3.04923 -6.81252,6.79689l0,5.32736l-10.88284,0a1.95313,1.95313 0 0 0 0,3.90626l20.5938,0l0,5.80548l-185.15672,0l0,-5.8047l148.93787,0a1.95313,1.95313 0 0 0 0,-3.90626l-13.79691,0l0,-5.32814c0,-3.74767 -3.05235,-6.79689 -6.80549,-6.79689c-3.75157,0 -6.80392,3.04923 -6.80392,6.79689l0,5.32736l-57.90718,0l0,-5.32736c0,-3.74767 -3.05235,-6.79689 -6.80392,-6.79689c-3.75313,0 -6.80549,3.04923 -6.80549,6.79689l0,5.32736l-40.30401,0l0,-5.32736c0,-3.74767 -3.05626,-6.79689 -6.81252,-6.79689c-3.75235,0 -6.8047,3.04923 -6.8047,6.79689l0,140.73473a1.95313,1.95313 0 0 0 1.95313,1.95313l9.71096,0a1.95313,1.95313 0 0 0 1.95313,-1.95313l0,-17.94145l20.14849,-20.14849l20.1563,20.1563l0,17.93364a1.95313,1.95313 0 0 0 1.95313,1.95313l9.70315,0a1.95313,1.95313 0 0 0 1.95313,-1.95313l0,-92.49242a1.95313,1.95313 0 0 0 -3.90626,0l0,11.01565l-5.79689,0l0,-40.3126l5.79689,0l0,13.67191a1.95313,1.95313 0 0 0 3.90626,0l0,-13.67191l57.90718,0l-0.00078,91.94554a1.95313,1.95313 0 0 0 3.90626,0l0,-38.03135l5.79689,0l0,65.92204l-5.79689,0l0,-12.26566a1.95313,1.95313 0 0 0 -3.90626,0l0,14.21879c0,1.07032 0.8586,1.95313 1.95313,1.95313l9.70315,0c1.09844,0 1.95313,-0.88594 1.95313,-1.95313l0,-17.93286l20.15708,-20.15708l20.14849,20.14849l0,17.94145a1.95313,1.95313 0 0 0 1.95313,1.95313l9.71018,0a1.95313,1.95313 0 0 0 1.95313,-1.95313l0,-140.73473c0,-3.74767 -3.05235,-6.79689 -6.8047,-6.79689zm-162.93322,25.74225l21.06958,0l-10.53362,10.53362l-10.53596,-10.53362zm21.06958,40.3126l-21.07037,0l10.5344,-10.53518l10.53596,10.53518zm-26.59382,0l-4.08985,0l0,-4.11251l13.2891,-13.28206l4.09767,4.09689l-13.29691,13.29769zm-4.08985,-9.63596l0,-21.04771l10.52659,10.52659l-10.52659,10.52112zm-3.90626,-30.67664l0,40.3126l-5.8047,0l0,-40.3126l5.8047,0zm119.63389,-18.94536a2.89844,2.89844 0 1 1 5.79689,0l0,5.32736l-5.79689,0l0,-5.32736zm-71.51659,0a2.89844,2.89844 0 0 1 5.79689,0l0,5.32736l-5.79689,0l0,-5.32736zm-53.92201,0a2.89844,2.89844 0 0 1 2.89844,-2.89063c1.60235,0 2.90626,1.29688 2.90626,2.89063l0,5.32736l-5.8047,0l0,-5.32736zm5.8047,138.7816l-5.8047,0l0,-65.92204l5.8047,0l0,65.92204zm7.99611,-65.92204l13.29613,13.29691l-4.10157,4.10157l-13.28441,-13.28519l0,-4.11329l4.08985,0zm-4.08985,9.63674l10.52346,10.52346l-10.52346,10.52268l0,-21.04615zm20.14771,0.89844l-10.5344,-10.53518l21.07037,0l-10.53596,10.53518zm-20.14771,25.67272l36.2079,-36.2079l4.09689,0l0,4.10548l-40.30479,40.30479l0,-8.20236zm40.30479,-26.57819l0,21.06099l-10.53128,-10.5305l10.53128,-10.5305zm-17.39379,17.39458l4.10392,-4.09923l13.28988,13.28988l0,8.20315l-17.39379,-17.39379zm27.09616,38.89775l-5.79689,0l0,-65.92204l5.79689,0l0,65.92204zm0,-75.61738l0,5.78908l-59.71812,0l0,-5.78908l59.71812,0zm-13.80003,-3.90626l-36.20712,-36.20712l0,-4.10548l4.08985,0l36.21415,36.2079l0,4.1047l-4.09689,0zm-6.43439,-20.15864l10.53206,-10.53206l0,21.06177l-10.53206,-10.52971zm10.53206,-16.05629l-13.29456,13.29456l-4.09845,-4.09767l13.29535,-13.29456l4.09689,0l0,4.09767l0.00078,0zm129.33626,-17.71489l0,-5.32814c0,-1.59375 1.30391,-2.89063 2.90626,-2.89063a2.89844,2.89844 0 0 1 2.89844,2.89063l0,5.32736l-5.8047,0l0,0.00078zm5.8047,53.92982l-5.8047,0l0,-40.3126l5.8047,0l0,40.3126zm-40.39463,-40.3126l21.07037,0l-10.53518,10.53518l-10.53518,-10.53518zm30.68367,30.67664l-10.52659,-10.52112l10.52659,-10.52659l0,21.04771zm0,-30.67664l0,4.10548l-13.2891,13.2891l-4.09767,-4.09767l13.29691,-13.29691l4.08985,0zm-14.66957,21.53755l14.66957,14.66332l0,4.11251l-4.08985,0l-36.21493,-36.21572l0,-4.09767l4.09689,0l21.53834,21.53755zm-25.63522,-11.91565l10.53362,10.53362l-10.53362,10.52893l0,-21.06255zm0,26.586l13.29691,-13.28988l4.09767,4.09767l-13.29691,13.29691l-4.09689,0l0,-4.1047l-0.00078,0zm20.1563,-6.43048l10.53518,10.53518l-21.07037,0l10.53518,-10.53518zm-24.06256,-29.77742l0,40.3126l-5.79689,0l0,-40.3126l5.79689,0zm-5.79611,50.00794l0,-5.78908l59.71812,0l0,5.78908l-59.71812,0zm9.70237,3.90626l4.09689,0l13.29691,13.29691l-4.10157,4.10157l-13.29222,-13.29222l0,-4.10626zm20.1563,10.53518l-10.53518,-10.53518l21.07037,0l-10.53518,10.53518zm-20.15708,-0.90703l10.53128,10.53128l-10.53128,10.53128l0,-21.06255zm0.00078,26.58757l36.21415,-36.21493l4.08985,0l0,4.11329l-40.30479,40.30479l0,-8.20315l0.00078,0zm40.30479,-26.57819l0,21.04537l-10.52268,-10.52268l10.52268,-10.52268zm-17.38598,17.38676l4.10392,-4.09923l13.28206,13.28206l0,8.20315l-17.38598,-17.38598zm27.09694,38.89775l-5.8047,0l0,-65.92204l5.8047,0l0,65.92204z" stroke-width="5" stroke-miterlimit="10" stroke-dasharray=""></path><path data-v-9833e8b2="" transform="scale(0.12886597938144329)" fill="none" stroke="currentColor" paint-order="fill stroke markers" d="m128.39095,126.50032m-1.95313,0a1.95313,1.95313 0 1 0 3.90626,0a1.95313,1.95313 0 1 0 -3.90626,0z" stroke-width="5" stroke-miterlimit="10" stroke-dasharray=""></path><path data-v-9833e8b2="" transform="scale(0.12886597938144329)" fill="none" stroke="currentColor" paint-order="fill stroke markers" d="m161.65665,15.07816m-1.95313,0a1.95313,1.95313 0 1 0 3.90626,0a1.95313,1.95313 0 1 0 -3.90626,0z" stroke-width="5" stroke-miterlimit="10" stroke-dasharray=""></path></g></svg>