<svg data-v-9833e8b2="" version="1.1" xmlns="http://www.w3.org/2000/svg" xmlns:xlink="http://www.w3.org/1999/xlink" width="25" height="25"><g data-v-9833e8b2=""><path data-v-9833e8b2="" transform="scale(0.13736263736263737)" fill="none" stroke="currentColor" paint-order="fill stroke markers" d="m35.30535,46.1788l0,53.33511c0,1.94181 0.64727,3.88363 1.55345,5.43708l-1.424,0c-18.90031,0 -34.4348,15.5345 -34.4348,34.4348c0,18.90031 15.5345,34.43481 34.4348,34.43481l104.72841,0c18.90031,0 34.43481,-15.5345 34.43481,-34.43481c0,-18.90031 -15.5345,-34.4348 -34.43481,-34.4348l-2.84799,0c1.03563,-1.55345 1.55345,-3.49526 1.55345,-5.43708c0,0 -0.38836,2.71854 0,-8.54397s-6.08435,-18.12358 -6.08435,-18.12358l-23.17229,-24.59629l-16.69959,-12.4276l-47.25077,0c-5.69598,0 -10.35633,4.66035 -10.35633,10.35633zm103.04551,71.19978c12.81596,0 23.30175,9.96797 23.30175,22.00721s-10.48579,22.00721 -23.30175,22.00721l-101.10369,0c-12.81596,0 -23.30175,-9.96797 -23.30175,-22.00721s10.48579,-22.00721 23.30175,-22.00721l101.10369,0zm-67.70452,-64.46817l20.19485,0l22.00721,24.98465c0,1.424 -2.97744,0.90618 -4.40144,0.90618l-37.80061,0l0,-25.89083zm110.94221,-44.66168c-0.25891,-8.80288 -10.48579,-7.11998 -10.48579,-7.11998l-78.19031,34.69371l14.49886,10.87415l57.21874,-25.24356s0.77672,25.50247 0.38836,32.7519c0,6.2138 -0.38836,8.67343 -4.53089,8.80288c-4.91926,0.12945 -5.30762,-5.43707 -5.30762,-5.43707l-15.79341,-0.12945s1.55345,21.35993 22.13666,21.35993c18.38249,0 20.06539,-18.51195 20.06539,-18.51194s0.25891,-43.23769 0,-52.04057zm-154.05044,131.52542c0,4.5309 3.62472,8.15561 8.15561,8.15561s8.15561,-3.62472 8.15561,-8.15561s-3.62472,-8.15561 -8.15561,-8.15561s-8.15561,3.62472 -8.15561,8.15561zm41.81369,8.15561c4.53089,0 8.15561,-3.62472 8.15561,-8.15561s-3.62472,-8.15561 -8.15561,-8.15561s-8.15561,3.62472 -8.15561,8.15561s3.62472,8.15561 8.15561,8.15561zm35.47044,0c4.5309,0 8.15561,-3.62472 8.15561,-8.15561s-3.62472,-8.15561 -8.15561,-8.15561s-8.15561,3.62472 -8.15561,8.15561s3.62472,8.15561 8.15561,8.15561zm34.04644,0c4.53089,0 8.15561,-3.62472 8.15561,-8.15561s-3.62472,-8.15561 -8.15561,-8.15561s-8.15561,3.62472 -8.15561,8.15561s3.62472,8.15561 8.15561,8.15561z" stroke-width="5" stroke-miterlimit="10" stroke-dasharray=""></path></g></svg>