<svg data-v-9833e8b2="" version="1.1" xmlns="http://www.w3.org/2000/svg" xmlns:xlink="http://www.w3.org/1999/xlink" width="25" height="22.5"><g data-v-9833e8b2=""><path data-v-9833e8b2="" transform="scale(0.14204545454545456)" fill="none" stroke="currentColor" paint-order="fill stroke markers" d="m170.21918,1l-163.43791,0c-3.12501,0 -5.78126,2.65626 -5.78126,5.78126l0,151.71913c0,3.28126 2.65626,5.78126 5.78126,5.78126s5.78126,-2.65626 5.78126,-5.78126l0,-87.50022l151.71913,0l0,87.50022c0,3.28126 2.65626,5.78126 5.78126,5.78126c3.28126,0 5.78126,-2.65626 5.78126,-5.78126l0,-151.71913c0.15625,-3.12501 -2.50001,-5.78126 -5.62501,-5.78126zm-146.71912,11.71878l13.43753,0l-6.71877,11.71878l-6.71877,-11.71878zm0,23.28131l-10.78128,18.5938l0,-37.18759l10.78128,18.5938zm6.71877,11.71878l6.71877,11.71878l-13.43753,0l6.71877,-11.71878zm19.5313,10.62503l-12.81253,-22.34381l12.96878,-22.34381l0.46875,-0.9375l18.12505,0l0.46875,0.9375l12.96878,22.34381l-12.96878,22.34381l-0.46875,0.9375l-18.2813,0c-0.15625,-0.3125 -0.15625,-0.625 -0.46875,-0.9375zm32.03133,-45.62511l13.43753,0l-6.71877,11.56253l-6.71877,-11.56253zm6.71877,35.00009l6.71877,11.71878l-13.43753,0l6.71877,-11.71878zm19.68755,10.62503l-12.96878,-22.34381l12.96878,-22.34381l0.46875,-0.9375l18.12505,0l0.46875,0.9375l12.81253,22.34381l-12.96878,22.34381l-0.46875,0.9375l-18.12505,0c0,-0.3125 -0.15625,-0.625 -0.3125,-0.9375zm56.09389,-3.75001l-10.78128,-18.5938l10.78128,-18.5938l0,37.18759zm-17.50004,-30.31258l-6.71877,-11.56253l13.43753,0l-6.71877,11.56253zm0,23.43756l6.71877,11.71878l-13.43753,0l6.71877,-11.71878z" stroke-width="5" stroke-miterlimit="10" stroke-dasharray=""></path></g></svg>