<svg data-v-9833e8b2="" version="1.1" xmlns="http://www.w3.org/2000/svg" xmlns:xlink="http://www.w3.org/1999/xlink" width="24.5" height="25"><g data-v-9833e8b2=""><path data-v-9833e8b2="" transform="scale(0.1282051282051282)" fill="none" stroke="currentColor" paint-order="fill stroke markers" d="m134.35463,19.82817l0,-14.72152s-3.12989,-3.71095 -9.08889,-3.71095s-9.08889,3.71095 -9.08889,3.71095l0,11.93343c-9.87463,-1.1795 -20.91939,-1.96231 -32.84657,-1.96231s-22.97193,0.78281 -32.84657,1.96231l0,-11.93343s-3.12989,-3.71095 -9.08889,-3.71095s-9.08889,3.71095 -9.08889,3.71095l0,14.72152c-19.53052,3.67442 -31.27156,8.14025 -31.27156,8.14025l0,158.59415s47.92082,7.81252 83.07716,7.81252s81.51466,-7.81252 81.51466,-7.81252l0,-158.59415s-11.74105,-4.46564 -31.27156,-8.14025z" stroke-width="5" stroke-miterlimit="10" stroke-dasharray=""></path><path data-v-9833e8b2="" transform="scale(0.1282051282051282)" fill="none" stroke="currentColor" paint-order="fill stroke markers" d="m165.59182,186.16687s-46.35832,7.81252 -81.51466,7.81252s-83.07716,-7.81252 -83.07716,-7.81252l0,-158.59415s33.88876,-12.89066 82.29591,-12.89066s82.29591,12.89066 82.29591,12.89066l0,158.59415z" stroke-width="5" stroke-miterlimit="10" stroke-dasharray=""></path><path data-v-9833e8b2="" transform="scale(0.1282051282051282)" fill="none" stroke="currentColor" paint-order="fill stroke markers" d="m50.44954,21.71333l-18.17798,0l0,-17.00239s3.12989,-3.71095 9.08909,-3.71095s9.08909,3.71095 9.08909,3.71095l0,17.00239l-0.0002,0zm83.87072,0l-18.17778,0l0,-17.00239s3.12989,-3.71095 9.08889,-3.71095s9.08889,3.71095 9.08889,3.71095l0,17.00239z" stroke-width="5" stroke-miterlimit="10" stroke-dasharray=""></path><path data-v-9833e8b2="" transform="scale(0.1282051282051282)" fill="none" stroke="currentColor" paint-order="fill stroke markers" d="m6.11466,42.171l4.79318,0l0,143.29821l-4.79318,0l0,-143.29821zm9.7842,52.82142l2.99591,0l0,93.42055l-2.99591,0l0,-93.42055z" stroke-width="5" stroke-miterlimit="10" stroke-dasharray=""></path><path data-v-9833e8b2="" transform="scale(0.1282051282051282)" fill="none" stroke="currentColor" paint-order="fill stroke markers" d="m97.22954,61.14078l-13.83753,-3.87521l-13.96097,3.87638s0.17813,0.73887 0.16035,1.63418c-0.05859,2.94708 0.17891,3.76349 3.19298,4.66271c0.96426,0.28789 1.98965,0.5502 3.08692,2.19239c1.79864,2.4129 2.36661,2.88497 5.3424,1.9377c1.80665,-0.55352 2.28536,-0.68028 4.3756,0.07109c1.95606,0.70293 2.92657,0.60449 3.87208,-0.42988c0.94571,-1.03418 1.59551,-2.23575 2.49551,-2.85294c1.01387,-0.76328 3.93478,-1.03633 4.60509,-2.28262c0.80039,-1.31172 0.39141,-3.20157 0.66758,-4.9338" stroke-width="5" stroke-miterlimit="10" stroke-dasharray=""></path><path data-v-9833e8b2="" transform="scale(0.1282051282051282)" fill="none" stroke="currentColor" paint-order="fill stroke markers" d="m66.40446,41.19405l33.1368,0l0,19.76841l-33.1368,0l0,-19.76841z" stroke-width="5" stroke-miterlimit="10" stroke-dasharray=""></path></g></svg>