<svg data-v-9833e8b2="" version="1.1" xmlns="http://www.w3.org/2000/svg" xmlns:xlink="http://www.w3.org/1999/xlink" width="25" height="17.5"><g data-v-9833e8b2=""><path data-v-9833e8b2="" transform="scale(0.14450867052023122)" fill="none" stroke="currentColor" paint-order="fill stroke markers" d="m164.41708,125.58673l0,-15.58337l-23.33339,0l0,15.58337l-140.08369,0l0,-75.41686l0,-10.00003c6.66668,-23.33339 41.33344,-39.16676 70.08351,-39.16676a88.16689,88.16689 0 0 1 62.25016,25.00006l0,-17.50004l7.75002,0l0,15.83337l23.33339,0l0,-15.83337l7.83335,0l0,116.66696l-7.83335,0.41667zm0,-23.41673l0,-7.75002l-23.33339,0l0,7.75002l23.33339,0zm0,-15.50004l0,-7.83335l-23.33339,0l0,7.83335l23.33339,0zm0,-15.58337l0,-7.83335l-23.33339,0l0,7.83335l23.33339,0zm0,-15.58337l0,-7.75002l-23.33339,0l0,7.75002l23.33339,0zm0,-15.58337l0,-7.75002l-23.33339,0l0,7.75002l23.33339,0z" stroke-width="5" stroke-miterlimit="10" stroke-dasharray=""></path><path data-v-9833e8b2="" transform="scale(0.14450867052023122)" fill="none" stroke="currentColor" paint-order="fill stroke markers" d="m10.58336,39.91985c5.91668,-20.33338 34.91675,-31.41675 60.50015,-31.41675s54.58347,10.75003 60.41682,31.08341l-120.91697,0.33333zm122.25031,7.83335a28.33341,28.33341 0 0 1 0.5,3.83334l0,66.16683l-124.58365,0l0,-66.16683a28.33341,28.33341 0 0 1 0.5,-3.83334l123.58365,0z" stroke-width="5" stroke-miterlimit="10" stroke-dasharray=""></path><path data-v-9833e8b2="" transform="scale(0.14450867052023122)" fill="none" stroke="currentColor" paint-order="fill stroke markers" d="m16.58337,110.00336l0,-54.50014l108.91694,0l0,54.50014l-108.91694,0zm101.16692,-77.83353l-93.33357,0a78.0002,78.0002 0 0 1 93.33357,0z" stroke-width="5" stroke-miterlimit="10" stroke-dasharray=""></path></g></svg>