<svg data-v-9833e8b2="" version="1.1" xmlns="http://www.w3.org/2000/svg" xmlns:xlink="http://www.w3.org/1999/xlink" width="25" height="20"><g data-v-9833e8b2=""><path data-v-9833e8b2="" transform="scale(0.14124293785310735)" fill="none" stroke="currentColor" paint-order="fill stroke markers" d="m37.21943,112.5118l-1.33965,-4.57247c7.46584,-2.19083 12.48245,-8.06115 12.48245,-14.60824l0,-61.73082c0,-4.03048 -1.90254,-7.86818 -5.35392,-10.80784c-1.43496,-1.21172 -3.02345,-2.16758 -4.71427,-2.83751c-5.02833,-1.70254 -11.98011,-1.73965 -17.22231,0.0418c-6.0424,2.62813 -9.91018,7.86584 -9.91018,13.60355l0,61.73082c0,6.35861 4.8213,12.17308 11.99632,14.46859l-1.45137,4.53536c-9.15666,-2.92813 -15.30824,-10.56604 -15.30824,-19.00395l0,-61.73082c0,-7.66584 4.96544,-14.58031 12.96156,-18.04575c6.59826,-2.25137 14.34535,-2.17696 20.57622,-0.06973c2.28165,0.9 4.31427,2.1211 6.15392,3.67481c4.53986,3.86544 7.03556,8.99143 7.03556,14.44086l0,61.73082c-0.0002,8.67971 -6.39142,16.38735 -15.90609,19.18052zm123.38722,0l-1.34434,-4.57247c7.32619,-2.14903 12.24749,-8.0217 12.24749,-14.60824l0,-61.73082c0,-4.03048 -1.90254,-7.86818 -5.35392,-10.80784c-1.43731,-1.21407 -3.02813,-2.16993 -4.71427,-2.83751c-5.02365,-1.69786 -11.97308,-1.73965 -17.22231,0.0418c-6.0424,2.62813 -9.91018,7.86584 -9.91018,13.60355l0,61.73082c0,6.28888 4.96779,12.10335 12.36155,14.46859l-1.45137,4.53536c-9.37522,-2.99786 -15.67348,-10.63577 -15.67348,-19.00395l0,-61.73082c0,-7.66584 4.96564,-14.58031 12.96156,-18.04575c6.59826,-2.25372 14.35004,-2.1793 20.57388,-0.06973c2.27696,0.89766 4.31192,2.11876 6.15392,3.67247c4.5422,3.86778 7.03771,8.99377 7.03771,14.44301l0,61.73082c0.0002,8.71936 -6.29572,16.42699 -15.66625,19.18071zm-62.03551,-0.15801l-1.33965,-4.57247c7.43791,-2.18399 12.24515,-7.85412 12.24515,-14.45004l0,-61.73101c0,-4.03048 -1.90254,-7.86818 -5.35392,-10.80784c-1.43496,-1.21172 -3.02345,-2.16758 -4.71427,-2.83751c-5.03068,-1.70254 -11.98245,-1.73965 -17.22016,0.0418c-6.04474,2.62579 -9.91252,7.86584 -9.91252,13.60355l0,61.73082c0,6.28888 4.96779,12.10101 12.36155,14.46859l-1.45137,4.53536c-9.37522,-2.99786 -15.67348,-10.63577 -15.67348,-19.00395l0,-61.73082c0,-7.66584 4.96779,-14.58031 12.9639,-18.04575c6.59123,-2.25137 14.343,-2.17696 20.57388,-0.06973c2.28165,0.9 4.31427,2.12344 6.15392,3.67481c4.54005,3.86544 7.03576,8.99143 7.03576,14.44066l0,61.73082c0,8.76135 -6.14943,16.22699 -15.66879,19.0227z" stroke-width="5" stroke-miterlimit="10" stroke-dasharray=""></path><path data-v-9833e8b2="" transform="scale(0.14124293785310735)" fill="none" stroke="currentColor" paint-order="fill stroke markers" d="m38.40556,17.99692c-5.25158,-1.78614 -12.09163,-1.78145 -17.33403,0l-1.72579,-4.43517c6.44709,-2.83516 14.34535,-2.83985 20.7854,0l-1.72559,4.43517zm62.37965,-3.07012l-4.76329,0l0,-6.64709c0,-1.18848 -1.99551,-2.51641 -4.66544,-2.51641s-4.66544,1.32793 -4.66544,2.51641l0,6.64709l-4.76329,0l0,-6.64709c0,-4.08165 4.1422,-7.27971 9.42873,-7.27971s9.42873,3.19786 9.42873,7.27971l0,6.64709zm61.55172,0l-4.76329,0l0,-6.64709c0,-1.18848 -1.99317,-2.51641 -4.6631,-2.51641s-4.66544,1.32793 -4.66544,2.51641l0,6.64709l-4.76329,0l0,-6.64709c0,-4.08165 4.1422,-7.27971 9.42873,-7.27971s9.42639,3.19786 9.42639,7.27971l0,6.64709z" stroke-width="5" stroke-miterlimit="10" stroke-dasharray=""></path><path data-v-9833e8b2="" transform="scale(0.14124293785310735)" fill="none" stroke="currentColor" paint-order="fill stroke markers" d="m39.18935,14.92679l-4.7631,0l0,-6.64709c0,-1.18848 -1.99317,-2.51641 -4.6631,-2.51641s-4.66544,1.32793 -4.66544,2.51641l0,6.64709l-4.7631,0l0,-6.64709c0,-4.08165 4.1422,-7.27971 9.42873,-7.27971s9.42639,3.19786 9.42639,7.27971l0,6.64709l-0.00039,0zm1.25118,52.7767l-21.33443,0c-1.31641,0 -2.38165,-1.06524 -2.38165,-2.38165s1.06524,-2.38165 2.38165,-2.38165l21.33443,0c1.31641,0 2.38165,1.06524 2.38165,2.38165s-1.06524,2.38165 -2.38165,2.38165zm61.58433,0l-21.33677,0c-1.31641,0 -2.38165,-1.06524 -2.38165,-2.38165s1.06524,-2.38165 2.38165,-2.38165l21.33677,0c1.31641,0 2.38165,1.06524 2.38165,2.38165s-1.06524,2.38165 -2.38165,2.38165zm61.58199,0l-21.33677,0c-1.31641,0 -2.38165,-1.06524 -2.38165,-2.38165s1.06524,-2.38165 2.38165,-2.38165l21.33677,0c1.31641,0 2.38165,1.06524 2.38165,2.38165s-1.06524,2.38165 -2.38165,2.38165zm-38.79404,0l-5.78185,0c-1.31641,0 -2.38165,-1.06524 -2.38165,-2.38165s1.06524,-2.38165 2.38165,-2.38165l5.78185,0c1.31641,0 2.38165,1.06524 2.38165,2.38165s-1.06524,2.38165 -2.38165,2.38165zm-61.58199,0l-5.78185,0c-1.31641,0 -2.38165,-1.06524 -2.38165,-2.38165s1.06524,-2.38165 2.38165,-2.38165l5.78185,0c1.31641,0 2.38165,1.06524 2.38165,2.38165s-1.06524,2.38165 -2.38165,2.38165zm-40.64991,60.93531c-1.31641,0 -2.38165,-1.06524 -2.38165,-2.38165l-0.00234,-16.14555c-0.00234,-1.31641 1.06289,-2.38399 2.37696,-2.38633l0.00469,0c1.31407,0 2.3793,1.06289 2.38165,2.37696l0.00234,16.15492c0,1.31641 -1.06524,2.38165 -2.38165,2.38165zm13.98949,0c-1.31641,0 -2.38165,-1.06524 -2.38165,-2.38165l0,-16.03852c0,-1.31641 1.06524,-2.38165 2.38165,-2.38165c1.31641,0 2.38165,1.06524 2.38165,2.38165l0,16.03852c0,1.31641 -1.06524,2.38165 -2.38165,2.38165zm-2.01172,8.51936l-9.57053,0c-1.31641,0 -2.38165,-1.06524 -2.38165,-2.38165c0,-1.31641 1.06524,-2.38165 2.38165,-2.38165l9.57053,0c1.31407,0 2.38165,1.06524 2.38165,2.38165c0,1.31641 -1.06758,2.38165 -2.38165,2.38165z" stroke-width="5" stroke-miterlimit="10" stroke-dasharray=""></path><path data-v-9833e8b2="" transform="scale(0.14124293785310735)" fill="none" stroke="currentColor" paint-order="fill stroke markers" d="m83.91408,128.6388l-47.34367,0c-1.31641,0 -2.38165,-1.06524 -2.38165,-2.38165c0,-1.31641 1.06524,-2.38165 2.38165,-2.38165l47.34367,0c1.31641,0 2.38165,1.06524 2.38165,2.38165c-0.0002,1.31641 -1.06524,2.38165 -2.38165,2.38165zm62.03316,0l-47.08313,0c-1.31641,0 -2.38165,-1.06524 -2.38165,-2.38165c0,-1.31641 1.06524,-2.38165 2.38165,-2.38165l47.08313,0c1.31641,0 2.38165,1.06524 2.38165,2.38165c0,1.31641 -1.06524,2.38165 -2.38165,2.38165zm26.67663,0l-12.68949,0c-1.31641,0 -2.38165,-1.06524 -2.38165,-2.38165c0,-1.31641 1.06524,-2.38165 2.38165,-2.38165l12.68949,0c1.31641,0 2.38165,1.06524 2.38165,2.38165c0,1.31641 -1.06524,2.38165 -2.38165,2.38165zm0.59082,17.03637l-136.43023,0c-1.31641,0 -2.38165,-1.06524 -2.38165,-2.38165c0,-1.31641 1.06524,-2.38165 2.38165,-2.38165l136.43023,0c1.31641,0 2.38165,1.06524 2.38165,2.38165c-0.0002,1.31641 -1.06524,2.38165 -2.38165,2.38165z" stroke-width="5" stroke-miterlimit="10" stroke-dasharray=""></path><path data-v-9833e8b2="" transform="scale(0.14124293785310735)" fill="none" stroke="currentColor" paint-order="fill stroke markers" d="m83.91408,128.6388c-1.31641,0 -2.38165,-1.06524 -2.38165,-2.38165l-0.00234,-16.18969c0,-1.31641 1.06524,-2.38165 2.38165,-2.38165s2.38165,1.06524 2.38165,2.38165l0.00234,16.18969c-0.0002,1.31641 -1.06524,2.38165 -2.38165,2.38165zm13.98714,0c-1.31641,0 -2.38165,-1.06524 -2.38165,-2.38165l0,-16.18969c0,-1.31641 1.06524,-2.38165 2.38165,-2.38165c1.31641,0 2.38165,1.06524 2.38165,2.38165l0,16.18969c0,1.31641 -1.06524,2.38165 -2.38165,2.38165zm76.02968,20.73208c-1.31641,0 -2.38165,-1.06524 -2.38165,-2.38165l0,-7.39142c0,-1.31641 1.06524,-2.38165 2.38165,-2.38165c1.31641,0 2.38165,1.06524 2.38165,2.38165l0,7.39142c0,1.31641 -1.06524,2.38165 -2.38165,2.38165zm0,-17.03637c-1.31641,0 -2.38165,-1.06524 -2.38165,-2.38165l0,-7.39142c0,-1.31641 1.06524,-2.38165 2.38165,-2.38165c1.31641,0 2.38165,1.06524 2.38165,2.38165l0,7.39142c0,1.31641 -1.06524,2.38165 -2.38165,2.38165zm-170.54926,17.03637c-1.31641,0 -2.38165,-1.06524 -2.38165,-2.38165l0,-7.39142c0,-1.31641 1.06524,-2.38165 2.38165,-2.38165s2.38165,1.06524 2.38165,2.38165l0,7.39142c-0.0002,1.31641 -1.06524,2.38165 -2.38165,2.38165zm0,-17.03637c-1.31641,0 -2.38165,-1.06524 -2.38165,-2.38165l0,-7.39142c0,-1.31641 1.06524,-2.38165 2.38165,-2.38165s2.38165,1.06524 2.38165,2.38165l0,7.39142c-0.0002,1.31641 -1.06524,2.38165 -2.38165,2.38165zm91.59613,4.82364l-8.1426,0c-1.31641,0 -2.38165,-1.06524 -2.38165,-2.38165c0,-1.31641 1.06524,-2.38165 2.38165,-2.38165l8.1426,0c1.31641,0 2.38165,1.06524 2.38165,2.38165c0,1.31641 -1.06524,2.38165 -2.38165,2.38165zm62.03316,0l-8.1426,0c-1.31641,0 -2.38165,-1.06524 -2.38165,-2.38165c0,-1.31641 1.06524,-2.38165 2.38165,-2.38165l8.1426,0c1.31641,0 2.38165,1.06524 2.38165,2.38165c0,1.31641 -1.06524,2.38165 -2.38165,2.38165zm-11.0637,-8.51936c-1.31641,0 -2.38165,-1.06524 -2.38165,-2.38165l-0.00234,-16.18969c0,-1.31641 1.06524,-2.38165 2.38165,-2.38165c1.31641,0 2.38165,1.06524 2.38165,2.38165l0.00234,16.18969c0,1.31641 -1.06524,2.38165 -2.38165,2.38165zm13.98714,0c-1.31641,0 -2.38165,-1.06524 -2.38165,-2.38165l0,-16.03168c0,-1.31641 1.06524,-2.38165 2.38165,-2.38165c1.31641,0 2.38165,1.06524 2.38165,2.38165l0,16.03168c0,1.31641 -1.06524,2.38165 -2.38165,2.38165z" stroke-width="5" stroke-miterlimit="10" stroke-dasharray=""></path><path data-v-9833e8b2="" transform="scale(0.14124293785310735)" fill="none" stroke="currentColor" paint-order="fill stroke markers" d="m22.48091,128.6388l-19.00161,0c-1.31641,0 -2.38165,-1.06524 -2.38165,-2.38165c0,-1.31641 1.06524,-2.38165 2.38165,-2.38165l19.00161,0c1.31641,0 2.38165,1.06524 2.38165,2.38165c0,1.31641 -1.06524,2.38165 -2.38165,2.38165zm14.30355,17.03637l-33.00516,0c-1.31641,0 -2.38165,-1.06524 -2.38165,-2.38165c0,-1.31641 1.06524,-2.38165 2.38165,-2.38165l33.00516,0c1.31641,0 2.38165,1.06524 2.38165,2.38165c0,1.31641 -1.06524,2.38165 -2.38165,2.38165zm-7.0215,-41.19659c-5.46798,0 -9.91487,-4.44689 -9.91487,-9.91487c0,-5.46798 4.44689,-9.91487 9.91487,-9.91487s9.91487,4.44689 9.91487,9.91487c-0.0002,5.46798 -4.44708,9.91487 -9.91487,9.91487zm0,-15.06644c-2.83985,0 -5.15158,2.31172 -5.15158,5.15158c0,2.83985 2.31192,5.15158 5.15158,5.15158c2.83985,0 5.15158,-2.31172 5.15158,-5.15158c0,-2.83966 -2.31192,-5.15158 -5.15158,-5.15158zm61.59351,15.06644c-5.46798,0 -9.91487,-4.44689 -9.91487,-9.91487c0,-5.46798 4.44689,-9.91487 9.91487,-9.91487s9.91487,4.44689 9.91487,9.91487c0,5.46798 -4.44689,9.91487 -9.91487,9.91487zm0,-15.06644c-2.83985,0 -5.15158,2.31172 -5.15158,5.15158c0,2.83985 2.31192,5.15158 5.15158,5.15158s5.15158,-2.31172 5.15158,-5.15158c0,-2.83966 -2.31172,-5.15158 -5.15158,-5.15158zm61.59371,15.06644c-5.46798,0 -9.91487,-4.44689 -9.91487,-9.91487c0,-5.46798 4.44689,-9.91487 9.91487,-9.91487c5.46798,0 9.91487,4.44689 9.91487,9.91487c-0.0002,5.46798 -4.44708,9.91487 -9.91487,9.91487zm0,-15.06644c-2.83985,0 -5.15158,2.31172 -5.15158,5.15158c0,2.83985 2.31172,5.15158 5.15158,5.15158c2.83985,0 5.15158,-2.31172 5.15158,-5.15158c0,-2.83966 -2.31192,-5.15158 -5.15158,-5.15158z" stroke-width="5" stroke-miterlimit="10" stroke-dasharray=""></path></g></svg>