<svg data-v-9833e8b2="" version="1.1" xmlns="http://www.w3.org/2000/svg" xmlns:xlink="http://www.w3.org/1999/xlink" width="25" height="25"><g data-v-9833e8b2=""><path data-v-9833e8b2="" transform="scale(0.12690355329949238)" fill="none" stroke="currentColor" paint-order="fill stroke markers" d="m98.6565,98.65649m-97.6565,0a97.6565,97.6565 0 1 0 195.31299,0a97.6565,97.6565 0 1 0 -195.31299,0z" stroke-width="5" stroke-miterlimit="10" stroke-dasharray=""></path><path data-v-9833e8b2="" transform="scale(0.12690355329949238)" fill="none" stroke="currentColor" paint-order="fill stroke markers" d="m98.6565,98.65649m-82.03146,0a82.03146,82.03146 0 1 0 164.06291,0a82.03146,82.03146 0 1 0 -164.06291,0z" stroke-width="5" stroke-miterlimit="10" stroke-dasharray=""></path><path data-v-9833e8b2="" transform="scale(0.12690355329949238)" fill="none" stroke="currentColor" paint-order="fill stroke markers" d="m131.46908,68.03141c-14.68754,4.68751 -17.03129,16.56254 -17.03129,23.59381c-10.15628,-11.71878 -10.15628,-25.93757 -10.15628,-46.09387c-31.56258,12.96878 -23.75006,48.43762 -24.84381,60.00015c-7.96877,-7.03127 -10.15628,-23.59381 -10.15628,-23.59381c-9.06252,4.68751 -13.59378,16.56254 -13.59378,25.93757c0,23.59381 19.2188,43.75011 42.96886,43.75011l0.625,0c-10.00003,-0.3125 -18.75005,-9.53127 -18.75005,-20.00005c1.09375,-10.62503 17.03129,-18.9063 17.03129,-28.28132c14.68754,5.93751 11.25003,22.34381 11.25003,27.18757c3.43751,-3.59376 4.53126,-10.62503 4.53126,-10.62503c3.43751,2.34376 5.62501,7.03127 5.62501,11.71878c0,9.84377 -7.96877,18.75005 -17.18754,20.00005c22.34381,-1.5625 39.84385,-19.8438 39.84385,-43.43761c0,-14.21879 -10.15628,-21.25005 -10.15628,-40.15635z" stroke-width="5" stroke-miterlimit="10" stroke-dasharray=""></path></g></svg>