<svg data-v-9833e8b2="" version="1.1" xmlns="http://www.w3.org/2000/svg" xmlns:xlink="http://www.w3.org/1999/xlink" width="22" height="25"><g data-v-9833e8b2=""><path data-v-9833e8b2="" transform="scale(0.12376237623762376)" fill="none" stroke="currentColor" paint-order="fill stroke markers" d="m149.8063,58.08359a7.14309,7.14309 0 0 0 0,-14.28619l-2.04263,0l0,-14.05379l2.06709,0a7.13086,7.13086 0 1 0 0,-14.25561l-90.13263,0l0,-10.20704a4.28096,4.28096 0 0 0 -4.28096,-4.28096l-25.64297,0a4.28096,4.28096 0 0 0 -4.28096,4.28096l0,10.19481l-17.35013,0a7.13086,7.13086 0 1 0 0,14.26784l2.01817,0l0,14.06602l-2.01817,0a7.14309,7.14309 0 0 0 0,14.28619l2.01817,0l0,100.29686l-2.01817,0a7.13086,7.13086 0 0 0 0,14.25561l2.01817,0l0,14.06602l-2.01817,0a7.14309,7.14309 0 1 0 0,14.28619l141.6632,0a7.14309,7.14309 0 0 0 0,-14.28619l-2.04263,0l0,-14.06602l2.06709,0a7.13086,7.13086 0 1 0 0,-14.25561l-2.06709,0l0,-100.29686l2.04263,-0.01223zm-115.75726,-48.52166l17.08716,0l0,5.91996l-17.08716,0l0,-5.91996zm99.42844,177.13404l-109.00557,0l0,-14.06602l109.00557,0l0,14.06602zm0,-28.29717l-109.00557,0l0,-100.29686l109.00557,0l0,100.29686zm0,-114.6014l-109.00557,0l0,-14.05379l109.00557,0l0,14.05379z" stroke-width="5" stroke-miterlimit="10" stroke-dasharray=""></path><path data-v-9833e8b2="" transform="scale(0.12376237623762376)" fill="none" stroke="currentColor" paint-order="fill stroke markers" d="m16.77841,101.68215s23.67373,10.71464 55.24278,4.72741s57.1264,-11.6748 69.75524,-4.72741l0,89.64338l-124.99802,0l0,-89.64338z" stroke-width="5" stroke-miterlimit="10" stroke-dasharray=""></path></g></svg>