<svg data-v-9833e8b2="" version="1.1" xmlns="http://www.w3.org/2000/svg" xmlns:xlink="http://www.w3.org/1999/xlink" width="24.5" height="25"><g data-v-9833e8b2=""><path data-v-9833e8b2="" transform="scale(0.12953367875647667)" fill="none" stroke="currentColor" paint-order="fill stroke markers" d="m74.3,85.7l16.9,0l0,28.2l-16.9,0l0,-28.2l0,0z" stroke-width="5" stroke-miterlimit="10" stroke-dasharray=""></path><path data-v-9833e8b2="" transform="scale(0.12953367875647667)" fill="none" stroke="currentColor" paint-order="fill stroke markers" d="m17.9,113.9l129.7,0l0,67.7l-129.7,0l0,-67.7l0,0z" stroke-width="5" stroke-miterlimit="10" stroke-dasharray=""></path><path data-v-9833e8b2="" transform="scale(0.12953367875647667)" fill="none" stroke="currentColor" paint-order="fill stroke markers" d="m71.5,68.7l22.6,0l0,16.9l-22.6,0l0,-16.9l0,0z" stroke-width="5" stroke-miterlimit="10" stroke-dasharray=""></path><path data-v-9833e8b2="" transform="scale(0.12953367875647667)" fill="none" stroke="currentColor" paint-order="fill stroke markers" d="m46.1,9.5l6.3,0l0,16.9l-6.3,0c-4.7,0 -8.5,-3.8 -8.5,-8.5c0.1,-4.6 3.9,-8.4 8.5,-8.4l0,0z" stroke-width="5" stroke-miterlimit="10" stroke-dasharray=""></path><path data-v-9833e8b2="" transform="scale(0.12953367875647667)" fill="none" stroke="currentColor" paint-order="fill stroke markers" d="m46.1,26.4l6.3,0l0,16.9l-6.3,0c-4.7,0 -8.5,-3.8 -8.5,-8.5c0.1,-4.6 3.9,-8.4 8.5,-8.4l0,0z" stroke-width="5" stroke-miterlimit="10" stroke-dasharray=""></path><path data-v-9833e8b2="" transform="scale(0.12953367875647667)" fill="none" stroke="currentColor" paint-order="fill stroke markers" d="m46.1,43.4l6.3,0l0,16.9l-6.3,0c-4.7,0 -8.5,-3.8 -8.5,-8.5c0.1,-4.7 3.9,-8.4 8.5,-8.4l0,0z" stroke-width="5" stroke-miterlimit="10" stroke-dasharray=""></path><path data-v-9833e8b2="" transform="scale(0.12953367875647667)" fill="none" stroke="currentColor" paint-order="fill stroke markers" d="m63.1,1l45.1,0c6.2,0 11.3,5.1 11.3,11.3l0,45.1c0,6.2 -5.1,11.3 -11.3,11.3l-45.1,0c-6.2,0 -11.3,-5.1 -11.3,-11.3l0,-45.1c0,-6.2 5,-11.3 11.3,-11.3l0,0z" stroke-width="5" stroke-miterlimit="10" stroke-dasharray=""></path><path data-v-9833e8b2="" transform="scale(0.12953367875647667)" fill="none" stroke="currentColor" paint-order="fill stroke markers" d="m63.1,12.3l45.1,0l0,45.1l-45.1,0l0,-45.1l0,0z" stroke-width="5" stroke-miterlimit="10" stroke-dasharray=""></path><path data-v-9833e8b2="" transform="scale(0.12953367875647667)" fill="none" stroke="currentColor" paint-order="fill stroke markers" d="m1,102.6l16.9,0l0,90.3l-16.9,0l0,-90.3l0,0z" stroke-width="5" stroke-miterlimit="10" stroke-dasharray=""></path><path data-v-9833e8b2="" transform="scale(0.12953367875647667)" fill="none" stroke="currentColor" paint-order="fill stroke markers" d="m147.7,102.6l16.9,0l0,90.3l-16.9,0l0,-90.3l0,0z" stroke-width="5" stroke-miterlimit="10" stroke-dasharray=""></path><path data-v-9833e8b2="" transform="scale(0.12953367875647667)" fill="none" stroke="currentColor" paint-order="fill stroke markers" d="m63.1,144.9l39.5,0l0,16.9l-39.5,0l0,-16.9l0,0z" stroke-width="5" stroke-miterlimit="10" stroke-dasharray=""></path></g></svg>