<svg data-v-9833e8b2="" version="1.1" xmlns="http://www.w3.org/2000/svg" xmlns:xlink="http://www.w3.org/1999/xlink" width="25" height="10"><g data-v-9833e8b2=""><path data-v-9833e8b2="" transform="scale(0.06361323155216285)" fill="none" stroke="currentColor" paint-order="fill stroke markers" d="m2.6498,29.88704l11.63997,0l0,1.01667l-11.63997,0l0,-1.01667z" stroke-width="5" stroke-miterlimit="10" stroke-dasharray=""></path><path data-v-9833e8b2="" transform="scale(0.06361323155216285)" fill="none" stroke="currentColor" paint-order="fill stroke markers" d="m25.03436,29.88704l31.33839,0l0,1.01667l-31.33839,0l0,-1.01667z" stroke-width="5" stroke-miterlimit="10" stroke-dasharray=""></path><path data-v-9833e8b2="" transform="scale(0.06361323155216285)" fill="none" stroke="currentColor" paint-order="fill stroke markers" d="m50.91092,23.32954c-4.02922,0.1525 -6.80491,0.66083 -9.67013,1.16917c-1.70123,0.305 -3.49199,0.61 -5.64091,0.86417c-3.40245,0.40667 -6.89445,0.55917 -10.56552,0.50833l-0.08954,1.01667c0.53723,0 1.164,0 1.70123,0c3.13384,0 6.26768,-0.20333 9.22244,-0.55917c2.23846,-0.25417 4.02922,-0.61 5.81999,-0.915c2.77569,-0.50833 5.46183,-0.96583 9.31198,-1.11833c1.70123,-0.05083 3.49199,-0.05083 5.28276,0l0.08954,-1.01667c-1.79077,0 -3.58153,0 -5.46183,0.05083z" stroke-width="5" stroke-miterlimit="10" stroke-dasharray=""></path><path data-v-9833e8b2="" transform="scale(0.06361323155216285)" fill="none" stroke="currentColor" paint-order="fill stroke markers" d="m50.91092,25.36287l0.08954,1.01667c1.70123,-0.05083 3.49199,-0.05083 5.28276,0l0.08954,-1.01667c-1.79077,-0.05083 -3.58153,-0.05083 -5.46183,0z" stroke-width="5" stroke-miterlimit="10" stroke-dasharray=""></path><path data-v-9833e8b2="" transform="scale(0.06361323155216285)" fill="none" stroke="currentColor" paint-order="fill stroke markers" d="m41.77802,27.49787c1.61169,-0.305 3.13384,-0.55917 4.9246,-0.7625l-0.35815,-1.01667c-1.8803,0.20333 -3.40245,0.50833 -5.10368,0.81333c-1.70123,0.305 -3.49199,0.61 -5.64091,0.86417c-1.96984,0.25417 -4.02922,0.40667 -6.17814,0.4575l0.08954,1.01667c2.14892,-0.05083 4.29784,-0.25417 6.35722,-0.50833c2.32799,-0.20333 4.11876,-0.55917 5.90953,-0.86417z" stroke-width="5" stroke-miterlimit="10" stroke-dasharray=""></path><path data-v-9833e8b2="" transform="scale(0.06361323155216285)" fill="none" stroke="currentColor" paint-order="fill stroke markers" d="m27.72051,28.9212l0,-1.01667c-0.89538,0 -1.79077,0 -2.59661,0l-0.08954,1.01667c0.53723,0 1.164,0 1.70123,0c0.35815,0 0.62677,0 0.98492,0z" stroke-width="5" stroke-miterlimit="10" stroke-dasharray=""></path><path data-v-9833e8b2="" transform="scale(0.06361323155216285)" fill="none" stroke="currentColor" paint-order="fill stroke markers" d="m7.12671,25.31204c2.32799,0.05083 4.74553,0.25417 6.98398,0.50833l0.35815,-1.01667c-2.41753,-0.25417 -4.83507,-0.4575 -7.34214,-0.50833c-1.52215,-0.05083 -3.0443,-0.05083 -4.56645,0l0.08954,1.01667c1.52215,-0.05083 2.95476,-0.05083 4.47691,0z" stroke-width="5" stroke-miterlimit="10" stroke-dasharray=""></path><path data-v-9833e8b2="" transform="scale(0.06361323155216285)" fill="none" stroke="currentColor" paint-order="fill stroke markers" d="m11.69316,26.58287l-0.26861,1.01667c0.89538,0.05083 1.79077,0.1525 2.59661,0.25417l0.35815,-1.01667c-0.80584,-0.05083 -1.70123,-0.1525 -2.68615,-0.25417z" stroke-width="5" stroke-miterlimit="10" stroke-dasharray=""></path><path data-v-9833e8b2="" transform="scale(0.06361323155216285)" fill="none" stroke="currentColor" paint-order="fill stroke markers" d="m7.12671,27.3962c0.26861,0 0.62677,0 0.89538,0.05083l0.08954,-1.01667c-0.26861,0 -0.62677,0 -0.89538,-0.05083c-1.52215,-0.05083 -3.13384,-0.05083 -4.56645,0l0.08954,1.01667c1.43261,-0.05083 2.86522,-0.05083 4.38738,0z" stroke-width="5" stroke-miterlimit="10" stroke-dasharray=""></path><path data-v-9833e8b2="" transform="scale(0.06361323155216285)" fill="none" stroke="currentColor" paint-order="fill stroke markers" d="m16.08054,21.24537l0,9.65833c0,0.10167 0,0.1525 0.08954,0.20333l2.68615,3.05c0.17908,0.1525 0.44769,0.305 0.80584,0.305s0.62677,-0.10167 0.80584,-0.305l2.68615,-3.05c0.08954,-0.05083 0.08954,-0.10167 0.08954,-0.20333l0,-9.65833l3.58153,0l5.3723,0l21.48918,0l2.68615,0l0,-1.01667l-1.79077,0l0,-10.675c0,-0.305 -0.35815,-0.50833 -0.89538,-0.50833l-21.48918,0c-0.53723,0 -0.89538,0.20333 -0.89538,0.50833l0,10.675l-3.76061,0l-5.01414,-12.70833l1.61169,0c0.53723,0 0.89538,-0.20333 0.89538,-0.50833l0,-1.525c0,-0.86417 -1.164,-1.525 -2.68615,-1.525l-5.3723,0c-1.52215,0 -2.68615,0.66083 -2.68615,1.525l0,1.525c0,0.305 0.35815,0.50833 0.89538,0.50833l1.61169,0l-5.01414,12.70833l-9.1329,0l0,1.01667l9.84921,0l3.58153,0zm1.79077,9.15l0,-1.32167l3.58153,0.66083l0,0.66083l-3.58153,0zm0,-2.38917l0,-0.96583l3.58153,0.66083l0,0.96583l-3.58153,-0.66083zm0,-2.03333l0,-0.96583l3.58153,0.66083l0,0.96583l-3.58153,-0.66083zm3.58153,-1.3725l-3.58153,-0.66083l0,-0.96583l3.58153,0.66083l0,0.96583zm-1.79077,8.235l-1.25354,-1.42333l2.50707,0l-1.25354,1.42333zm1.79077,-10.26833l-3.58153,-0.66083l0,-0.66083l3.58153,0l0,1.32167zm11.63997,-12.505l19.69842,0l0,10.16667l-19.69842,0l0,-10.16667zm-16.92273,3.60917l5.55137,1.42333l-6.62583,1.3725l1.07446,-2.79583zm7.2526,0.7625l-5.01414,-1.27083l4.11876,-0.86417l0.89538,2.135zm-6.80491,-1.9825l0.98492,-2.49083l3.67107,1.525l-4.65599,0.96583zm7.34214,3.25333l1.25354,3.10083l-8.23752,-1.62667l6.98398,-1.47417zm-7.87937,-10.2175c0,-0.305 0.35815,-0.50833 0.89538,-0.50833l5.3723,0c0.53723,0 0.89538,0.20333 0.89538,0.50833l0,1.01667l-1.79077,0l-3.58153,0l-1.79077,0l0,-1.01667zm4.65599,2.03333l1.164,2.8975l-3.76061,-1.525l0.44769,-1.3725l2.14892,0zm-6.17814,10.26833l11.01321,2.23667l0.08954,0.20333l-12.08767,0l0.98492,-2.44z" stroke-width="5" stroke-miterlimit="10" stroke-dasharray=""></path><path data-v-9833e8b2="" transform="scale(0.06361323155216285)" fill="none" stroke="currentColor" paint-order="fill stroke markers" d="m44.73278,14.63704l-1.96984,0l1.34307,-1.27083l-1.52215,-0.50833l-2.14892,2.03333c-0.17908,0.1525 -0.17908,0.35583 0,0.50833c0.17908,0.1525 0.44769,0.25417 0.80584,0.25417l1.96984,0l-1.34307,1.27083l1.52215,0.50833l2.14892,-2.03333c0.17908,-0.1525 0.17908,-0.35583 0,-0.50833c-0.17908,-0.1525 -0.44769,-0.25417 -0.80584,-0.25417z" stroke-width="5" stroke-miterlimit="10" stroke-dasharray=""></path><path data-v-9833e8b2="" transform="scale(0.06361323155216285)" fill="none" stroke="currentColor" paint-order="fill stroke markers" d="m42.94202,11.0787c-3.93968,0 -7.16306,1.83 -7.16306,4.06667s3.22338,4.06667 7.16306,4.06667s7.16306,-1.83 7.16306,-4.06667s-3.22338,-4.06667 -7.16306,-4.06667zm0,7.11667c-2.95476,0 -5.3723,-1.3725 -5.3723,-3.05s2.41753,-3.05 5.3723,-3.05s5.3723,1.3725 5.3723,3.05s-2.41753,3.05 -5.3723,3.05z" stroke-width="5" stroke-miterlimit="10" stroke-dasharray=""></path><path data-v-9833e8b2="" transform="scale(0.06361323155216285)" fill="none" stroke="currentColor" paint-order="fill stroke markers" d="m26.82513,4.9787l1.79077,0l0,1.01667l-1.79077,0l0,-1.01667z" stroke-width="5" stroke-miterlimit="10" stroke-dasharray=""></path><path data-v-9833e8b2="" transform="scale(0.06361323155216285)" fill="none" stroke="currentColor" paint-order="fill stroke markers" d="m33.98819,4.9787l1.79077,0l0,1.01667l-1.79077,0l0,-1.01667z" stroke-width="5" stroke-miterlimit="10" stroke-dasharray=""></path><path data-v-9833e8b2="" transform="scale(0.06361323155216285)" fill="none" stroke="currentColor" paint-order="fill stroke markers" d="m30.40666,4.9787l1.79077,0l0,1.01667l-1.79077,0l0,-1.01667z" stroke-width="5" stroke-miterlimit="10" stroke-dasharray=""></path><path data-v-9833e8b2="" transform="scale(0.06361323155216285)" fill="none" stroke="currentColor" paint-order="fill stroke markers" d="m37.56972,4.9787l1.79077,0l0,1.01667l-1.79077,0l0,-1.01667z" stroke-width="5" stroke-miterlimit="10" stroke-dasharray=""></path><path data-v-9833e8b2="" transform="scale(0.06361323155216285)" fill="none" stroke="currentColor" paint-order="fill stroke markers" d="m41.15125,7.01204l1.79077,0l0,1.01667l-1.79077,0l0,-1.01667z" stroke-width="5" stroke-miterlimit="10" stroke-dasharray=""></path><path data-v-9833e8b2="" transform="scale(0.06361323155216285)" fill="none" stroke="currentColor" paint-order="fill stroke markers" d="m41.15125,4.9787l1.79077,0l0,1.01667l-1.79077,0l0,-1.01667z" stroke-width="5" stroke-miterlimit="10" stroke-dasharray=""></path><path data-v-9833e8b2="" transform="scale(0.06361323155216285)" fill="none" stroke="currentColor" paint-order="fill stroke markers" d="m25.92975,32.4287l0,0c0,0.305 0.35815,0.50833 0.89538,0.50833l0,0c0.53723,0 0.89538,-0.20333 0.89538,-0.50833l0,0c0,-0.305 -0.35815,-0.50833 -0.89538,-0.50833l0,0c-0.53723,0 -0.89538,0.20333 -0.89538,0.50833z" stroke-width="5" stroke-miterlimit="10" stroke-dasharray=""></path><path data-v-9833e8b2="" transform="scale(0.06361323155216285)" fill="none" stroke="currentColor" paint-order="fill stroke markers" d="m33.09281,33.9537l0,0c0,0.305 0.35815,0.50833 0.89538,0.50833l0,0c0.53723,0 0.89538,-0.20333 0.89538,-0.50833l0,0c0,-0.305 -0.35815,-0.50833 -0.89538,-0.50833l0,0c-0.53723,0 -0.89538,0.20333 -0.89538,0.50833z" stroke-width="5" stroke-miterlimit="10" stroke-dasharray=""></path><path data-v-9833e8b2="" transform="scale(0.06361323155216285)" fill="none" stroke="currentColor" paint-order="fill stroke markers" d="m41.15125,32.93704l0,0c0,0.305 0.35815,0.50833 0.89538,0.50833l0,0c0.53723,0 0.89538,-0.20333 0.89538,-0.50833l0,0c0,-0.305 -0.35815,-0.50833 -0.89538,-0.50833l0,0c-0.53723,0 -0.89538,0.20333 -0.89538,0.50833z" stroke-width="5" stroke-miterlimit="10" stroke-dasharray=""></path><path data-v-9833e8b2="" transform="scale(0.06361323155216285)" fill="none" stroke="currentColor" paint-order="fill stroke markers" d="m54.58199,32.4287l0,0c-0.53723,0 -0.89538,0.20333 -0.89538,0.50833l0,0c0,0.305 0.35815,0.50833 0.89538,0.50833l0,0c0.53723,0 0.89538,-0.20333 0.89538,-0.50833l0,0c0,-0.305 -0.35815,-0.50833 -0.89538,-0.50833z" stroke-width="5" stroke-miterlimit="10" stroke-dasharray=""></path><path data-v-9833e8b2="" transform="scale(0.06361323155216285)" fill="none" stroke="currentColor" paint-order="fill stroke markers" d="m48.31431,33.44537l0,0c-0.53723,0 -0.89538,0.20333 -0.89538,0.50833l0,0c0,0.305 0.35815,0.50833 0.89538,0.50833l0,0c0.53723,0 0.89538,-0.20333 0.89538,-0.50833l0,0c0,-0.305 -0.35815,-0.50833 -0.89538,-0.50833z" stroke-width="5" stroke-miterlimit="10" stroke-dasharray=""></path><path data-v-9833e8b2="" transform="scale(0.06361323155216285)" fill="none" stroke="currentColor" paint-order="fill stroke markers" d="m5.33594,32.4287l0,0c0,-0.305 -0.35815,-0.50833 -0.89538,-0.50833l0,0c-0.53723,0 -0.89538,0.20333 -0.89538,0.50833l0,0c0,0.305 0.35815,0.50833 0.89538,0.50833l0,0c0.53723,0 0.89538,-0.20333 0.89538,-0.50833z" stroke-width="5" stroke-miterlimit="10" stroke-dasharray=""></path><path data-v-9833e8b2="" transform="scale(0.06361323155216285)" fill="none" stroke="currentColor" paint-order="fill stroke markers" d="m10.70824,33.44537l0,0c-0.53723,0 -0.89538,0.20333 -0.89538,0.50833l0,0c0,0.305 0.35815,0.50833 0.89538,0.50833l0,0c0.53723,0 0.89538,-0.20333 0.89538,-0.50833l0,0c0,-0.305 -0.35815,-0.50833 -0.89538,-0.50833z" stroke-width="5" stroke-miterlimit="10" stroke-dasharray=""></path><path data-v-9833e8b2="" transform="scale(0.06361323155216285)" fill="none" stroke="currentColor" paint-order="fill stroke markers" d="m263.36729,67.50344l124.81993,0l0,66.65665l-124.81993,0l0,-66.65665z" stroke-width="5" stroke-miterlimit="10" stroke-dasharray=""></path><path data-v-9833e8b2="" transform="scale(0.06361323155216285)" fill="none" stroke="currentColor" paint-order="fill stroke markers" d="m263.36729,134.16009l124.81993,0l0,7.89336l-124.81993,0l0,-7.89336z" stroke-width="5" stroke-miterlimit="10" stroke-dasharray=""></path><path data-v-9833e8b2="" transform="scale(0.06361323155216285)" fill="none" stroke="currentColor" paint-order="fill stroke markers" d="m341.87863,149.91634c5.49219,0 10.98438,0 16.44649,0c5.49219,0 10.98438,0 16.47656,0c0.84023,-0.96055 1.80078,-2.04102 2.85117,-3.24141c1.17031,-1.35039 2.49102,-2.88125 4.02148,-4.62188c-7.77305,0 -15.57617,0 -23.34922,0c-7.77305,0 -15.54609,0 -23.31914,0c1.53047,1.74063 2.85117,3.27148 4.05156,4.62188c1.05039,1.20078 1.98047,2.28086 2.82109,3.24141l0,0l0.00001,0z" stroke-width="5" stroke-miterlimit="10" stroke-dasharray=""></path><path data-v-9833e8b2="" transform="scale(0.06361323155216285)" fill="none" stroke="currentColor" paint-order="fill stroke markers" d="m275.55206,149.91634c5.46211,0 10.9543,0 16.44649,0c5.46211,0 10.9543,0 16.44649,0c0.84023,-0.96055 1.80078,-2.04102 2.85117,-3.24141c1.17031,-1.35039 2.52109,-2.88125 4.02148,-4.62188c-7.77305,0 -15.54609,0 -23.31914,0s-15.57617,0 -23.31914,0c1.50039,1.74063 2.85117,3.27148 4.02148,4.62188c1.05039,1.20078 1.98086,2.28086 2.85117,3.24141l0,0z" stroke-width="5" stroke-miterlimit="10" stroke-dasharray=""></path><path data-v-9833e8b2="" transform="scale(0.06361323155216285)" fill="none" stroke="currentColor" paint-order="fill stroke markers" d="m281.22433,141.0929c4.89219,0 8.85352,3.96172 8.85352,8.82344c0,4.8918 -3.96172,8.82344 -8.85352,8.82344c-4.86211,0 -8.82344,-3.93164 -8.82344,-8.82344c0,-4.86172 3.96133,-8.82344 8.82344,-8.82344l0,0zm21.51836,0c4.89219,0 8.85352,3.96172 8.85352,8.82344c0,4.8918 -3.96172,8.82344 -8.85352,8.82344c-4.86211,0 -8.82344,-3.93164 -8.82344,-8.82344c0,-4.86172 3.96172,-8.82344 8.82344,-8.82344l0,0zm44.83828,0c4.8918,0 8.85352,3.96172 8.85352,8.82344c0,4.8918 -3.96172,8.82344 -8.85352,8.82344c-4.86211,0 -8.82344,-3.93164 -8.82344,-8.82344c-0.00039,-4.86172 3.96133,-8.82344 8.82344,-8.82344l0,0zm21.51836,0c4.89219,0 8.82344,3.96172 8.82344,8.82344c0,4.8918 -3.93164,8.82344 -8.82344,8.82344c-4.89219,0 -8.82344,-3.93164 -8.82344,-8.82344c0,-4.86172 3.93164,-8.82344 8.82344,-8.82344l0,0z" stroke-width="5" stroke-miterlimit="10" stroke-dasharray=""></path><path data-v-9833e8b2="" transform="scale(0.06361323155216285)" fill="none" stroke="currentColor" paint-order="fill stroke markers" d="m281.22433,146.1347c-2.0707,0 -3.78164,1.68086 -3.78164,3.78164c0,2.10078 1.71094,3.81133 3.78164,3.81133c2.10078,0 3.81133,-1.71094 3.81133,-3.81133c0,-2.10078 -1.71055,-3.78164 -3.81133,-3.78164l0,0zm21.51836,0c-2.10078,0 -3.78125,1.68086 -3.78125,3.78164c0,2.10078 1.68047,3.81133 3.78125,3.81133s3.81133,-1.71094 3.81133,-3.81133c0.00039,-2.10078 -1.71016,-3.78164 -3.81133,-3.78164l0,0zm44.83828,0c-2.10078,0 -3.78164,1.68086 -3.78164,3.78164c0,2.10078 1.68086,3.81133 3.78164,3.81133c2.10078,0 3.81133,-1.71094 3.81133,-3.81133c0,-2.10078 -1.71055,-3.78164 -3.81133,-3.78164l0,0zm21.51836,0c-2.10078,0 -3.78125,1.68086 -3.78125,3.78164c0,2.10078 1.68047,3.81133 3.78125,3.81133c2.10078,0 3.81133,-1.71094 3.81133,-3.81133c0.00039,-2.10078 -1.71016,-3.78164 -3.81133,-3.78164l0,0z" stroke-width="5" stroke-miterlimit="10" stroke-dasharray=""></path><path data-v-9833e8b2="" transform="scale(0.06361323155216285)" fill="none" stroke="currentColor" paint-order="fill stroke markers" d="m258.74542,60.09055l134.06368,0l0,7.41289l-134.06368,0l0,-7.41289z" stroke-width="5" stroke-miterlimit="10" stroke-dasharray=""></path><path data-v-9833e8b2="" transform="scale(0.06361323155216285)" fill="none" stroke="currentColor" paint-order="fill stroke markers" d="m253.97315,124.46634l9.39375,0l0,6.96289l-9.39375,0l0,-6.96289z" stroke-width="5" stroke-miterlimit="10" stroke-dasharray=""></path><path data-v-9833e8b2="" transform="scale(0.06361323155216285)" fill="none" stroke="currentColor" paint-order="fill stroke markers" d="m246.56026,119.99447c2.46094,1.50078 4.92188,3.00117 7.41289,4.47188c0,2.34102 0,4.65195 0,6.96289c-2.49102,1.50039 -4.95195,3.00117 -7.41289,4.47188c0,-5.28242 0,-10.59453 0,-15.90664l0,0l0,-0.00001z" stroke-width="5" stroke-miterlimit="10" stroke-dasharray=""></path><path data-v-9833e8b2="" transform="scale(0.06361323155216285)" fill="none" stroke="currentColor" paint-order="fill stroke markers" d="m268.40909,72.54563l2.70117,0l49.45977,0l2.70117,0l0,4.44141l0,47.71914l0,4.41172l-2.70117,0l-49.45977,0l-2.70117,0l0,-4.41172l0,-47.71914l0,-4.44141zm49.81993,9.45352l-18.84727,18.84766l18.84727,18.81758l0,-37.66524zm-2.70117,42.07696l-19.68789,-19.68789l-19.68789,19.68789l39.37578,0zm-42.07657,-4.41172l18.81758,-18.81758l-18.81758,-18.84766l0,37.66524zm2.70078,-42.07696l19.68789,19.68789l19.68789,-19.68789l-39.37578,0zm57.17305,4.41172l18.84766,18.84766l-18.84766,18.81758l0,-37.66524zm2.70117,42.07696l19.68789,-19.68789l19.68789,19.68789l-39.37578,0zm42.07657,-4.41172l-18.81758,-18.81758l18.81758,-18.84766l0,37.66524zm-2.70078,-42.07696l-19.68789,19.68789l-19.68789,-19.68789l39.37578,0zm-47.11875,-5.0418l2.70117,0l49.45977,0l2.70117,0l0,4.44141l0,47.71914l0,4.41172l-2.70117,0l-49.46016,0l-2.70117,0l0,-4.41172l0,-47.71914l0,-4.44141l0.00039,0z" stroke-width="5" stroke-miterlimit="10" stroke-dasharray=""></path><path data-v-9833e8b2="" transform="scale(0.06361323155216285)" fill="none" stroke="currentColor" paint-order="fill stroke markers" d="m266.60831,60.09055l19.08789,-12.78516l26.98047,1.95078l19.23788,-10.29414l21.96876,10.14414l13.20547,0.18008l17.07657,10.8043l-117.55704,0z" stroke-width="5" stroke-miterlimit="10" stroke-dasharray=""></path></g></svg>