<svg data-v-9833e8b2="" version="1.1" xmlns="http://www.w3.org/2000/svg" xmlns:xlink="http://www.w3.org/1999/xlink" width="17" height="25"><g data-v-9833e8b2=""><path data-v-9833e8b2="" transform="scale(0.12886597938144329)" fill="none" stroke="currentColor" paint-order="fill stroke markers" d="m53.38195,17.20004c-1.7,5.30001 -3.50001,1.8 -7.50002,1.2l0,7.90002l21.80005,0l0,-10.70003l-14.20004,0c0.1,0.9 0.1,1.5 -0.1,1.6z" stroke-width="5" stroke-miterlimit="10" stroke-dasharray=""></path><path data-v-9833e8b2="" transform="scale(0.12886597938144329)" fill="none" stroke="currentColor" paint-order="fill stroke markers" d="m53.38195,17.20004c0.2,-0.1 0.2,-0.7 0.1,-1.6c-0.2,-3.30001 -1.8,-10.80003 -1.8,-10.80003c0,-1.1 -0.9,0.1 -2.10001,0.1c0,0 -25.70006,0.6 -43.90011,-0.6c-2.40001,-0.1 -2.40001,0 -3.70001,1.3c-1.2,1.6 -1.3,6.60002 -0.3,7.50002c0.4,0.4 0.9,0.6 1.5,0.6c0,0 5.70001,-2.20001 34.60009,-2.00001c0.8,0 1.7,1.2 0.2,2.10001c-5.00001,3.20001 -20.50005,8.80002 -26.00007,11.10003c-1.2,0.5 -2.10001,1.6 -2.40001,2.50001c-0.3,1.2 -0.5,3.20001 -0.5,4.70001c0,1.3 1.5,2.20001 2.70001,1.6c6.70002,-3.70001 16.80004,-10.40003 30.30008,-14.90004c1.4,-0.5 2.70001,-0.5 3.80001,-0.3c4.00001,0.5 5.80001,4.00001 7.50002,-1.3z" stroke-width="5" stroke-miterlimit="10" stroke-dasharray=""></path><path data-v-9833e8b2="" transform="scale(0.12886597938144329)" fill="none" stroke="currentColor" paint-order="fill stroke markers" d="m10.78184,32.40008c1.3,-0.7 2.70001,-1.5 4.20001,-2.40001c6.40002,-3.80001 15.20004,-8.90002 26.10007,-12.50003c0.9,-0.3 1.7,-0.4 2.60001,-0.4c1.6,0 2.90001,0.5 3.90001,1l0.5,0.2c0.8,0.3 1.4,0.6 2.00001,0.6s1.3,-0.3 2.00001,-2.70001l0.1,-0.1l0.1,0c0.2,-0.8 -0.6,-6.00002 -1.6,-11.10003c0.1,-0.1 0.2,-0.1 0.3,-0.2c0.2,-0.1 0.4,-0.2 0.3,-0.2l0,0.3c1.1,5.40001 2.10001,11.20003 1.8,12.10003l-0.1,0l-0.1,0.1c-0.8,2.40001 -1.5,2.70001 -2.00001,2.70001s-1.2,-0.3 -2.00001,-0.6l-0.5,-0.2c-1.1,-0.5 -2.40001,-1 -3.90001,-1c-0.8,0 -1.7,0.1 -2.60001,0.4c-10.70003,3.60001 -19.50005,8.70002 -25.90007,12.50003c-1.5,0.9 -3.00001,1.7 -4.20001,2.40001c-0.2,0.1 -0.4,0.2 -0.6,0.2c-0.4,0 -0.8,-0.2 -1.1,-0.5c-0.2,-0.2 -0.3,-0.3 -0.3,-0.5c0.2,0.1 0.3,0.1 0.5,0.1c0.1,0 0.3,-0.1 0.5,-0.2z" stroke-width="5" stroke-miterlimit="10" stroke-dasharray=""></path><path data-v-9833e8b2="" transform="scale(0.12886597938144329)" fill="none" stroke="currentColor" paint-order="fill stroke markers" d="m52.88195,17.90004c0,1.1 0.9,2.00001 2.00001,2.00001l18.10005,0c1.1,0 2.00001,-0.9 2.00001,-2.00001l0,-8.90002c0,-1.1 -0.9,-2.00001 -2.00001,-2.00001l-18.10005,0c-1.1,0 -2.00001,0.9 -2.00001,2.00001l0,8.90002z" stroke-width="5" stroke-miterlimit="10" stroke-dasharray=""></path><path data-v-9833e8b2="" transform="scale(0.12886597938144329)" fill="none" stroke="currentColor" paint-order="fill stroke markers" d="m54.68195,12.70003c0,1.1 0.9,2.00001 2.10001,2.00001s2.10001,-0.9 2.10001,-2.00001s-0.9,-2.00001 -2.10001,-2.00001c-1.2,0 -2.10001,0.9 -2.10001,2.00001z" stroke-width="5" stroke-miterlimit="10" stroke-dasharray=""></path><path data-v-9833e8b2="" transform="scale(0.12886597938144329)" fill="none" stroke="currentColor" paint-order="fill stroke markers" d="m54.98195,12.70003c0.4,0 0.8,0.4 0.8,0.8s-0.4,0.8 -0.8,0.8l0,-1.6z" stroke-width="5" stroke-miterlimit="10" stroke-dasharray=""></path><path data-v-9833e8b2="" transform="scale(0.12886597938144329)" fill="none" stroke="currentColor" paint-order="fill stroke markers" d="m55.38195,12.70003c0,0.8 0.6,1.3 1.4,1.3s1.4,-0.6 1.4,-1.3c0,-0.8 -0.6,-1.3 -1.4,-1.3s-1.4,0.6 -1.4,1.3z" stroke-width="5" stroke-miterlimit="10" stroke-dasharray=""></path><path data-v-9833e8b2="" transform="scale(0.12886597938144329)" fill="none" stroke="currentColor" paint-order="fill stroke markers" d="m56.78196,1c-6.30002,0 -11.50003,5.00001 -11.50003,11.30003s5.10001,11.30003 11.50003,11.30003c6.30002,0 11.50003,-5.00001 11.50003,-11.30003c0,-6.20002 -5.20001,-11.30003 -11.50003,-11.30003zm15.20004,8.30002c4.30001,-2.30001 34.50009,19.40005 36.30009,38.5001c2.30001,24.30006 1.7,97.80025 1.7,97.80025l-7.20002,0s-0.1,-76.70019 -1.7,-94.50024c-1.7,-18.70005 -31.10008,-36.30009 -31.10008,-36.30009s-0.7,-4.00001 2.00001,-5.50001z" stroke-width="5" stroke-miterlimit="10" stroke-dasharray=""></path><path data-v-9833e8b2="" transform="scale(0.12886597938144329)" fill="none" stroke="currentColor" paint-order="fill stroke markers" d="m110.28209,172.70043l-7.70002,0c-1,0 -1.7,-0.8 -1.7,-1.7l0,-25.00006c0,-1 0.8,-1.7 1.7,-1.7l7.70002,0c1,0 1.7,0.8 1.7,1.7l0,25.00006c0,0.9 -0.8,1.7 -1.7,1.7zm-91.20023,12.70003c0,5.70001 1.2,7.70002 4.60001,7.70002l67.30017,0c3.40001,0 4.60001,-2.00001 4.60001,-7.70002l0,-13.00003l-76.50019,0l0,13.00003zm76.60019,-108.80027l0,-7.00002c0,-15.50004 -12.40003,-28.20007 -28.00007,-29.00007l0,-15.10004l-21.80005,0l0,15.20004c-15.00004,1.4 -26.70007,13.80003 -26.70007,28.90007l0,88.90022l76.50019,0l0,-81.90021zm-76.60019,88.90022l76.50019,0l0,6.90002l-76.50019,0l0,-6.90002zm34.30009,-152.40038c0,-0.4 -0.4,-0.8 -0.8,-0.8l0,1.5c0.4,0 0.8,-0.3 0.8,-0.7z" stroke-width="5" stroke-miterlimit="10" stroke-dasharray=""></path></g></svg>