<svg data-v-9833e8b2="" version="1.1" xmlns="http://www.w3.org/2000/svg" xmlns:xlink="http://www.w3.org/1999/xlink" width="25" height="20"><g data-v-9833e8b2=""><path data-v-9833e8b2="" transform="scale(0.15723270440251572)" fill="none" stroke="currentColor" paint-order="fill stroke markers" d="m23.54572,104.37001l112.28435,0s7.76336,-13.44372 0,-23.85788c-14.76922,-0.18927 -111.14832,0 -111.14832,0s-7.19514,7.76316 -1.13603,23.85788zm-15.29007,-12.8775c0.83324,-22.38948 10.367,-27.26458 10.367,-27.26458l-8.33117,0s-8.85242,5.58583 -9.27833,27.26458c-0.42611,21.67876 9.65688,30.48701 9.65688,30.48701s5.65758,-0.54223 9.08866,-1.13603c-1.98806,-0.56802 -12.21295,-10.27226 -11.50303,-29.35097zm10.367,1.61591c0.75749,-19.60236 8.1421,-16.38333 12.11842,-16.38333c-1.70405,-7.38481 -4.80356,-12.31988 -9.27833,-11.36112c-6.62712,1.42004 -10.26087,12.36385 -10.98038,17.79878c-1.72963,13.06517 -0.84843,17.60951 2.45974,26.35879c4.16579,10.12396 12.5917,16.24503 16.66294,-0.22865c0,0 -11.73987,3.41789 -10.98238,-16.18447zm3.31356,-24.90418c1.20259,0 2.17753,1.39866 2.17753,3.12429s-0.97494,3.12429 -2.17753,3.12429c-1.20279,0 -2.17773,-1.39866 -2.17773,-3.12429s0.97514,-3.12429 2.17773,-3.12429zm-7.67062,26.41256c-1.20259,0 -2.17773,-1.39865 -2.17773,-3.12429s0.97494,-3.12429 2.17773,-3.12429c1.20259,0 2.17753,1.39866 2.17753,3.12429s-0.97494,3.12429 -2.17753,3.12429zm7.67062,22.90533c-1.20279,0 -2.17773,-1.39886 -2.17773,-3.12429c0,-1.72563 0.97494,-3.12449 2.17773,-3.12449c1.20259,0 2.17753,1.39886 2.17753,3.12449c0,1.72544 -0.97494,3.12429 -2.17753,3.12429zm124.95779,-8.0006c3.30797,-8.74909 4.18937,-13.29362 2.45954,-26.35879c-0.71951,-5.43473 -4.35346,-16.37854 -10.98018,-17.79878c-4.47498,-0.95875 -7.57428,3.97631 -9.27853,11.36113c3.97651,0 11.36113,-3.21903 12.11861,16.38333c0.75729,19.60236 -10.98238,16.18467 -10.98238,16.18467c4.07105,16.47347 12.49696,10.35241 16.66294,0.22845zm-1.3237,-21.15331c1.20279,0 2.17773,1.39866 2.17773,3.12429s-0.97494,3.12429 -2.17773,3.12429s-2.17753,-1.39865 -2.17753,-3.12429s0.97494,-3.12429 2.17753,-3.12429zm-7.67102,-13.9154c-1.20239,0 -2.17733,-1.39866 -2.17733,-3.12429s0.97494,-3.12429 2.17733,-3.12429c1.20299,0 2.17773,1.39866 2.17773,3.12429s-0.97474,3.12429 -2.17773,3.12429zm0,43.06931c-1.20239,0 -2.17733,-1.39886 -2.17733,-3.12429c0,-1.72563 0.97494,-3.12449 2.17733,-3.12449c1.20299,0 2.17773,1.39886 2.17773,3.12449c0.0002,1.72544 -0.97474,3.12429 -2.17773,3.12429zm20.92367,-26.02962c-0.42591,-21.67876 -9.27853,-27.26458 -9.27853,-27.26458l-8.33117,0s9.53376,4.87511 10.367,27.26458c0.71012,19.07871 -9.51477,28.78296 -11.50323,29.35097c3.43108,0.5938 9.08906,1.13603 9.08906,1.13603s10.08299,-8.80825 9.65688,-30.48701zm-98.7485,-31.77354c-1.08886,6.38109 -3.32595,10.50231 -3.32595,10.50231l10.97619,1.87293l3.42209,-20.05485l4.06525,0.69353l-3.42209,20.05505l5.42034,0.92497l3.42209,-20.05505l5.42014,0.92478l-3.42189,20.05485l5.42014,0.92478l3.42209,-20.05485l5.42014,0.92478l-3.42209,20.05485l9.6213,1.64169s-0.7441,-4.62967 0.34497,-11.01096l3.45307,-20.23713l-43.36251,-7.3992l-3.45327,20.23753zm45.1493,-11.246l-3.14208,18.41396c-0.65336,3.82862 -0.64017,7.02046 -0.57581,9.09526l-6.3689,-1.08687l3.42189,-20.05485l-8.13031,-1.38726l-3.42189,20.05465l-2.71037,-0.46249l3.42189,-20.05465l-8.13051,-1.38726l-3.42189,20.05465l-2.71037,-0.46229l3.42209,-20.05465l-6.77522,-1.15622l-3.42209,20.05465l-7.72398,-1.31791c0.7487,-1.93589 1.81957,-4.94306 2.47293,-8.77148l3.14208,-18.41396l40.65254,6.93671zm-11.17245,-24.4217l3.01756,-17.68466c0.46668,-2.73475 -1.58813,-4.5863 -3.62075,-4.93327l-2.16814,-0.36995c-2.03283,-0.34677 -4.5851,0.71871 -5.05179,3.45327l-3.01756,17.68465l-20.32627,-3.46826l-2.48872,14.58555l52.8479,9.01751s2.32203,-14.42626 2.48872,-14.58555l-21.68095,-3.6993zm18.14814,16.23064l-50.13773,-8.55522l1.86654,-10.93921l20.32627,3.46846l3.32855,-19.50782c0.31119,-1.82317 2.03043,-2.09259 3.38551,-1.86134l2.16813,0.36995c1.35509,0.23124 2.88785,1.05569 2.57686,2.87885l-3.32855,19.50782l21.68115,3.6995l-1.86674,10.93901z" stroke-width="5" stroke-miterlimit="10" stroke-dasharray=""></path></g></svg>