<svg data-v-9833e8b2="" version="1.1" xmlns="http://www.w3.org/2000/svg" xmlns:xlink="http://www.w3.org/1999/xlink" width="25" height="22.5"><g data-v-9833e8b2=""><path data-v-9833e8b2="" transform="scale(0.1358695652173913)" fill="none" stroke="currentColor" paint-order="fill stroke markers" d="m158.69571,173.03168l-6.99221,-0.11719l-17.92973,-47.50012l-18.67192,47.53918l-6.99221,0l-18.63286,-46.99231l-16.64067,46.87512l-7.03127,0.07813l-17.61723,-46.67981l-16.36723,46.60168l-7.03127,0.11719l-15.0391,-37.96885l0,37.50009l-7.50002,0l0,-57.22671l7.26564,-1.36719l18.55473,46.95324l16.44535,-46.83606l7.07033,-0.07813l17.61723,46.71887l16.56254,-46.64074l7.03127,-0.11719l18.78911,47.46106l18.75005,-47.77356l7.03127,0.03906l18.00786,47.7345l20.07818,-48.672l7.22658,1.44532l0,58.35952l-7.50002,0l0,-39.41416l-16.48442,39.96104z" stroke-width="5" stroke-miterlimit="10" stroke-dasharray=""></path><path data-v-9833e8b2="" transform="scale(0.1358695652173913)" fill="none" stroke="currentColor" paint-order="fill stroke markers" d="m92.01585,47.91418m-20.42974,0a20.42974,20.42974 0 1 0 40.85948,0a20.42974,20.42974 0 1 0 -40.85948,0z" stroke-width="5" stroke-miterlimit="10" stroke-dasharray=""></path><path data-v-9833e8b2="" transform="scale(0.1358695652173913)" fill="none" stroke="currentColor" paint-order="fill stroke markers" d="m1,1l0,93.86742l182.03171,0l0,-93.86742l-182.03171,0zm91.01585,81.91427c-19.33599,0 -35.00009,-15.6641 -35.00009,-35.00009c0,-19.33599 15.6641,-35.00009 35.00009,-35.00009c19.33599,0 35.00009,15.6641 35.00009,35.00009c0,19.33599 -15.6641,35.00009 -35.00009,35.00009z" stroke-width="5" stroke-miterlimit="10" stroke-dasharray=""></path></g></svg>