<svg data-v-9833e8b2="" version="1.1" xmlns="http://www.w3.org/2000/svg" xmlns:xlink="http://www.w3.org/1999/xlink" width="25" height="12.5"><g data-v-9833e8b2=""><path data-v-9833e8b2="" transform="scale(0.1282051282051282)" fill="none" stroke="currentColor" paint-order="fill stroke markers" d="m86.95706,11.33848l0,-2.75693c0,-2.16616 1.28,-3.93847 2.95385,-3.93847l17.42772,0c1.57539,0 2.95385,1.77231 2.95385,3.93847l0,2.75693l-23.33542,0zm53.16932,0l-23.33542,0l0,-2.75693c0,-2.16616 1.28,-3.93847 2.95385,-3.93847l17.42772,0c1.57539,0 2.95385,1.77231 2.95385,3.93847l0,2.75693zm30.03082,0l-23.33542,0l0,-2.75693c0,-2.16616 1.28,-3.93847 2.95385,-3.93847l17.42772,0c1.57539,0 2.95385,1.77231 2.95385,3.93847l0,2.75693zm-64.88626,61.63702l-13.78464,0l0,-10.5354l13.8831,0l0,10.5354l-0.09846,0zm0,-13.68618l-13.78464,0l0,-10.5354l13.8831,0l0,10.5354l-0.09846,0zm0,19.88926l-13.78464,0l0,-3.05231l13.8831,0l0,3.05231l-0.09846,0zm0,-33.57544l-13.78464,0l0,-10.5354l13.8831,0l0,10.5354l-0.09846,0zm0,-13.68618l-13.78464,0l0,-10.5354l13.8831,0l0,10.5354l-0.09846,0z" stroke-width="5" stroke-miterlimit="10" stroke-dasharray=""></path><path data-v-9833e8b2="" transform="scale(0.1282051282051282)" fill="none" stroke="currentColor" paint-order="fill stroke markers" d="m84.00321,14.8831c-13.48925,0 -16.93541,13.68618 -16.93541,28.84928l0,6.49847c0,15.26156 3.44616,28.84928 16.93541,28.84928l5.12001,0l0,-63.31087l2.26462,0l0,2.46154l13.98156,0l0,-2.46154l2.26462,0l0,63.5078l65.37857,0c13.48925,0 16.93541,-13.68618 16.93541,-28.84928l0,-6.49847c0,-15.26156 -3.44616,-28.84928 -16.93541,-28.84928c0,-0.19692 -89.00938,-0.19692 -89.00938,-0.19692z" stroke-width="5" stroke-miterlimit="10" stroke-dasharray=""></path><path data-v-9833e8b2="" transform="scale(0.1282051282051282)" fill="none" stroke="currentColor" paint-order="fill stroke markers" d="m91.4863,35.06775l-1.08308,0l0,-3.15077l1.08308,0l0,3.15077zm13.78464,49.6247l-13.78464,0l0,-3.3477l13.8831,0l0,3.3477l-0.09846,0z" stroke-width="5" stroke-miterlimit="10" stroke-dasharray=""></path><path data-v-9833e8b2="" transform="scale(0.1282051282051282)" fill="none" stroke="currentColor" paint-order="fill stroke markers" d="m56.82778,81.34475l0,10.04309l137.45253,0l0,-10.04309l-86.74476,0l0,6.20309l-2.16616,0l0,-0.49231l-13.8831,0l0,0.49231l-2.26462,0l0,-6.20309l-32.3939,0z" stroke-width="5" stroke-miterlimit="10" stroke-dasharray=""></path><path data-v-9833e8b2="" transform="scale(0.1282051282051282)" fill="none" stroke="currentColor" paint-order="fill stroke markers" d="m171.73259,81.34475c6.40001,0 11.61848,5.21847 11.61848,11.61848c0,6.40001 -5.21847,11.61848 -11.61848,11.61848c-6.40001,0 -11.61848,-5.21847 -11.61848,-11.61848c0,-6.40001 5.21847,-11.61848 11.61848,-11.61848zm-13.98156,11.61848c0,-6.40001 -5.21847,-11.61848 -11.61848,-11.61848c-6.40001,0 -11.61848,5.21847 -11.61848,11.61848c0,6.40001 5.21847,11.61848 11.61848,11.61848c6.49847,0 11.61848,-5.21847 11.61848,-11.61848s0,6.40001 0,0zm-132.03714,-11.61848l-0.09846,0c-6.40001,0 -11.61848,5.21847 -11.61848,11.61848c0,6.40001 5.21847,11.61848 11.61848,11.61848l0.19692,0c6.40001,-0.09846 11.52002,-5.51386 11.3231,-11.91387c-0.19692,-6.20309 -5.12001,-11.12617 -11.42156,-11.3231z" stroke-width="5" stroke-miterlimit="10" stroke-dasharray=""></path><path data-v-9833e8b2="" transform="scale(0.1282051282051282)" fill="none" stroke="currentColor" paint-order="fill stroke markers" d="m2.77231,76.22474c0,1.96923 -1.77231,3.3477 -1.77231,5.12001c0.09846,5.61232 2.85539,10.04309 2.85539,10.04309l59.86471,0l0,-90.38784l-35.24929,0l-19.29849,32.09851s-4.6277,3.44616 -5.61232,6.89232c-1.47693,4.82462 -0.88616,27.07697 -0.78769,36.23391zm19.59388,-43.12622c-2.75693,0 -3.93847,-1.28 -1.87077,-5.31693l10.33848,-18.01849l26.97851,0l0,23.43388l-35.44621,0l0,-0.09846zm69.12011,-23.63081l-1.08308,0l0,-4.52924l1.08308,0l0,4.52924z" stroke-width="5" stroke-miterlimit="10" stroke-dasharray=""></path></g></svg>