<svg data-v-9833e8b2="" version="1.1" xmlns="http://www.w3.org/2000/svg" xmlns:xlink="http://www.w3.org/1999/xlink" width="25" height="25"><g data-v-9833e8b2=""><path data-v-9833e8b2="" transform="scale(0.12376237623762376)" fill="none" stroke="currentColor" paint-order="fill stroke markers" d="m193.00048,1a8.00002,8.00002 0 0 1 8.00002,8.00002l0,184.00046a8.00002,8.00002 0 0 1 -8.00002,8.00002l-184.00046,0a8.00002,8.00002 0 0 1 -8.00002,-8.00002l0,-184.00046a8.00002,8.00002 0 0 1 8.00002,-8.00002l184.00046,0zm0,4.00001l-184.00046,0a4.00001,4.00001 0 0 0 -3.97201,3.53201l-0.028,0.468l0,184.00046a4.00001,4.00001 0 0 0 3.53201,3.97201l0.468,0.028l184.00046,0a4.00001,4.00001 0 0 0 3.97201,-3.53201l0.028,-0.468l0,-184.00046a4.00001,4.00001 0 0 0 -3.53201,-3.97201l-0.468,-0.028zm-12.00003,36.00009a4.00001,4.00001 0 0 1 4.00001,4.00001l0,16.00004a4.00001,4.00001 0 0 1 -4.00001,4.00001l-4.00001,0l0,72.00018l4.00001,0a4.00001,4.00001 0 0 1 4.00001,4.00001l0,16.00004a4.00001,4.00001 0 0 1 -4.00001,4.00001l-160.0004,0a4.00001,4.00001 0 0 1 -4.00001,-4.00001l0,-16.00004a4.00001,4.00001 0 0 1 4.00001,-4.00001l4.00001,0l0,-72.00018l-4.00001,0a4.00001,4.00001 0 0 1 -4.00001,-4.00001l0,-16.00004a4.00001,4.00001 0 0 1 4.00001,-4.00001l160.0004,0zm-4.00001,104.00026l-152.00038,0l0,8.00002l152.00038,0l0,-8.00002zm-8.00002,-80.0002l-136.00034,0l0,72.00018l136.00034,0l0,-72.00018zm-62.91616,16.00004l-5.00801,17.48004l11.92403,0l-15.03204,22.52006l3.10801,-14.98004l-12.07603,0l17.08404,-25.02006zm-57.08414,0l0,40.0001l-8.00002,0l0,-40.0001l8.00002,0zm24.00006,0l0,40.0001l-8.00002,0l0,-40.0001l8.00002,0zm64.00016,0l0,40.0001l-8.00002,0l0,-40.0001l8.00002,0zm24.00006,0l0,40.0001l-8.00002,0l0,-40.0001l8.00002,0zm16.00004,-32.00008l-152.00038,0l0,8.00002l152.00038,0l0,-8.00002z" stroke-width="5" stroke-miterlimit="10" stroke-dasharray=""></path></g></svg>