<svg data-v-9833e8b2="" version="1.1" xmlns="http://www.w3.org/2000/svg" xmlns:xlink="http://www.w3.org/1999/xlink" width="25" height="17.5"><g data-v-9833e8b2=""><path data-v-9833e8b2="" transform="scale(0.12315270935960591)" fill="none" stroke="currentColor" paint-order="fill stroke markers" d="m27.27658,13.25358l0,-12.25358l147.04298,0l0,12.25358l-147.04298,0z" stroke-width="5" stroke-miterlimit="10" stroke-dasharray=""></path><path data-v-9833e8b2="" transform="scale(0.12315270935960591)" fill="none" stroke="currentColor" paint-order="fill stroke markers" d="m94.67128,1.72541l12.25358,0l0,50.20292l-12.25358,0l0,-50.20292z" stroke-width="5" stroke-miterlimit="10" stroke-dasharray=""></path><path data-v-9833e8b2="" transform="scale(0.12315270935960591)" fill="none" stroke="currentColor" paint-order="fill stroke markers" d="m129.44449,99.76387l-57.29285,0l0,-52.88401l57.29285,0l0,52.88401zm-44.11289,-13.1824l30.93294,0l0,-26.5192l-30.93294,0l0,26.5192z" stroke-width="5" stroke-miterlimit="10" stroke-dasharray=""></path><path data-v-9833e8b2="" transform="scale(0.12315270935960591)" fill="none" stroke="currentColor" paint-order="fill stroke markers" d="m171.3787,184.31358l-141.16126,0l0,-96.65135l141.16126,0l0,96.65135zm-128.90768,-12.25358l116.65409,0l0,-72.14419l-116.65409,0l0,72.14419z" stroke-width="5" stroke-miterlimit="10" stroke-dasharray=""></path><path data-v-9833e8b2="" transform="scale(0.12315270935960591)" fill="none" stroke="currentColor" paint-order="fill stroke markers" d="m21.76737,201.0005a20.79188,20.79188 0 0 1 -20.76737,-20.76737l0,-88.9806a20.76737,20.76737 0 0 1 41.53474,0l0,88.9806a20.79188,20.79188 0 0 1 -20.76737,20.76737zm0,-117.63438a7.89621,7.89621 0 0 0 -7.88886,7.8864l0,88.9806a7.88886,7.88886 0 0 0 15.77526,0l0,-88.9806a7.89621,7.89621 0 0 0 -7.8864,-7.8864zm158.0663,117.63438a20.79188,20.79188 0 0 1 -20.76737,-20.76737l0,-88.9806a20.76737,20.76737 0 1 1 41.53229,0l0,88.9806a20.78943,20.78943 0 0 1 -20.76492,20.76737zm0,-117.63438a7.89621,7.89621 0 0 0 -7.88886,7.8864l0,88.9806a7.88886,7.88886 0 0 0 15.77526,0l0,-88.9806a7.89621,7.89621 0 0 0 -7.8864,-7.8864z" stroke-width="5" stroke-miterlimit="10" stroke-dasharray=""></path></g></svg>