<svg data-v-9833e8b2="" version="1.1" xmlns="http://www.w3.org/2000/svg" xmlns:xlink="http://www.w3.org/1999/xlink" width="25" height="15"><g data-v-9833e8b2=""><path data-v-9833e8b2="" transform="scale(0.1358695652173913)" fill="none" stroke="currentColor" paint-order="fill stroke markers" d="m145.5,108.1l0,0l-107,0l0,0c-20.9,-0.9 -37.5,-18.1 -37.5,-39.2c0,-21.7 17.6,-39.3 39.3,-39.3c3.3,0 6.6,0.4 9.7,1.2c6.1,-17.4 22.7,-29.8 42.1,-29.8c19.4,0 36,12.4 42.1,29.8c3.1,-0.8 6.3,-1.2 9.7,-1.2c21.7,0 39.3,17.6 39.3,39.3c0,21.1 -16.7,38.4 -37.7,39.2z" stroke-width="5" stroke-miterlimit="10" stroke-dasharray=""></path><path data-v-9833e8b2="" transform="scale(0.1358695652173913)" fill="none" stroke="currentColor" paint-order="fill stroke markers" d="m173.3,69.5c0,17.4 -14,31.5 -31.3,31.5c-0.1,0 -0.1,0 -0.2,0l0,0l-101.4,0l0,-0.1c-16.5,-0.9 -29.7,-14.6 -29.7,-31.4c0,-17.4 14,-31.5 31.3,-31.5c5.2,0 10.2,1.3 14.5,3.6c2,-17.9 17,-31.8 35.4,-31.8c18.4,0 33.4,13.9 35.4,31.9c4.4,-2.3 9.4,-3.7 14.7,-3.7c17.3,0.1 31.3,14.2 31.3,31.5z" stroke-width="5" stroke-miterlimit="10" stroke-dasharray=""></path></g></svg>