<svg data-v-9833e8b2="" version="1.1" xmlns="http://www.w3.org/2000/svg" xmlns:xlink="http://www.w3.org/1999/xlink" width="25" height="5"><g data-v-9833e8b2=""><path data-v-9833e8b2="" transform="scale(0.13227513227513227)" fill="none" stroke="currentColor" paint-order="fill stroke markers" d="m1,1l187.3,0l0,44l-187.3,0l0,-44l0,0z" stroke-width="5" stroke-miterlimit="10" stroke-dasharray=""></path><path data-v-9833e8b2="" transform="scale(0.13227513227513227)" fill="none" stroke="currentColor" paint-order="fill stroke markers" d="m31.3,14.7l16.5,0l0,16.5l-16.5,0l0,-16.5l0,0z" stroke-width="5" stroke-miterlimit="10" stroke-dasharray=""></path><path data-v-9833e8b2="" transform="scale(0.13227513227513227)" fill="none" stroke="currentColor" paint-order="fill stroke markers" d="m53.3,14.7l16.5,0l0,16.5l-16.5,0l0,-16.5l0,0z" stroke-width="5" stroke-miterlimit="10" stroke-dasharray=""></path><path data-v-9833e8b2="" transform="scale(0.13227513227513227)" fill="none" stroke="currentColor" paint-order="fill stroke markers" d="m75.4,14.7l16.5,0l0,16.5l-16.5,0l0,-16.5l0,0z" stroke-width="5" stroke-miterlimit="10" stroke-dasharray=""></path><path data-v-9833e8b2="" transform="scale(0.13227513227513227)" fill="none" stroke="currentColor" paint-order="fill stroke markers" d="m97.4,14.7l16.5,0l0,16.5l-16.5,0l0,-16.5l0,0z" stroke-width="5" stroke-miterlimit="10" stroke-dasharray=""></path><path data-v-9833e8b2="" transform="scale(0.13227513227513227)" fill="none" stroke="currentColor" paint-order="fill stroke markers" d="m119.4,14.7l16.5,0l0,16.5l-16.5,0l0,-16.5l0,0z" stroke-width="5" stroke-miterlimit="10" stroke-dasharray=""></path><path data-v-9833e8b2="" transform="scale(0.13227513227513227)" fill="none" stroke="currentColor" paint-order="fill stroke markers" d="m141.5,14.7l16.5,0l0,16.5l-16.5,0l0,-16.5l0,0z" stroke-width="5" stroke-miterlimit="10" stroke-dasharray=""></path></g></svg>