<svg data-v-9833e8b2="" version="1.1" xmlns="http://www.w3.org/2000/svg" xmlns:xlink="http://www.w3.org/1999/xlink" width="25" height="15"><g data-v-9833e8b2=""><path data-v-9833e8b2="" transform="scale(0.13020833333333334)" fill="none" stroke="currentColor" paint-order="fill stroke markers" d="m1,1l190.9,0l0,114.5l-190.9,0l0,-114.5l0,0z" stroke-width="5" stroke-miterlimit="10" stroke-dasharray=""></path><path data-v-9833e8b2="" transform="scale(0.13020833333333334)" fill="none" stroke="currentColor" paint-order="fill stroke markers" d="m1,1l190.9,0l0,4.8l-190.9,0l0,-4.8l0,0z" stroke-width="5" stroke-miterlimit="10" stroke-dasharray=""></path><path data-v-9833e8b2="" transform="scale(0.13020833333333334)" fill="none" stroke="currentColor" paint-order="fill stroke markers" d="m1,10.6l190.9,0l0,4.7l-190.9,0l0,-4.7l0,0z" stroke-width="5" stroke-miterlimit="10" stroke-dasharray=""></path><path data-v-9833e8b2="" transform="scale(0.13020833333333334)" fill="none" stroke="currentColor" paint-order="fill stroke markers" d="m1,110.8l190.9,0l0,4.8l-190.9,0l0,-4.8l0,0z" stroke-width="5" stroke-miterlimit="10" stroke-dasharray=""></path><path data-v-9833e8b2="" transform="scale(0.13020833333333334)" fill="none" stroke="currentColor" paint-order="fill stroke markers" d="m63.1,5.8l2.4,0l0,105l-2.4,0l0,-105l0,0z" stroke-width="5" stroke-miterlimit="10" stroke-dasharray=""></path><path data-v-9833e8b2="" transform="scale(0.13020833333333334)" fill="none" stroke="currentColor" paint-order="fill stroke markers" d="m127.5,5.8l2.4,0l0,105l-2.4,0l0,-105l0,0z" stroke-width="5" stroke-miterlimit="10" stroke-dasharray=""></path><path data-v-9833e8b2="" transform="scale(0.13020833333333334)" fill="none" stroke="currentColor" paint-order="fill stroke markers" d="m83.4,22.5l26.3,0l0,11.9l-26.3,0l0,-11.9l0,0z" stroke-width="5" stroke-miterlimit="10" stroke-dasharray=""></path><path data-v-9833e8b2="" transform="scale(0.13020833333333334)" fill="none" stroke="currentColor" paint-order="fill stroke markers" d="m44,65.5l-4.8,0l0,3.6l-19.1,0l0,-9.5l19.1,0l0,3.6l4.8,0l0,2.3z" stroke-width="5" stroke-miterlimit="10" stroke-dasharray=""></path><path data-v-9833e8b2="" transform="scale(0.13020833333333334)" fill="none" stroke="currentColor" paint-order="fill stroke markers" d="m13,77.4l38.2,0l0,2.4l-38.2,0l0,-2.4l0,0z" stroke-width="5" stroke-miterlimit="10" stroke-dasharray=""></path><path data-v-9833e8b2="" transform="scale(0.13020833333333334)" fill="none" stroke="currentColor" paint-order="fill stroke markers" d="m13,82.2l38.2,0l0,2.4l-38.2,0l0,-2.4l0,0z" stroke-width="5" stroke-miterlimit="10" stroke-dasharray=""></path><path data-v-9833e8b2="" transform="scale(0.13020833333333334)" fill="none" stroke="currentColor" paint-order="fill stroke markers" d="m13,86.9l38.2,0l0,2.4l-38.2,0l0,-2.4l0,0z" stroke-width="5" stroke-miterlimit="10" stroke-dasharray=""></path><path data-v-9833e8b2="" transform="scale(0.13020833333333334)" fill="none" stroke="currentColor" paint-order="fill stroke markers" d="m13,91.7l38.2,0l0,2.4l-38.2,0l0,-2.4l0,0z" stroke-width="5" stroke-miterlimit="10" stroke-dasharray=""></path><path data-v-9833e8b2="" transform="scale(0.13020833333333334)" fill="none" stroke="currentColor" paint-order="fill stroke markers" d="m13,96.5l38.2,0l0,2.4l-38.2,0l0,-2.4l0,0z" stroke-width="5" stroke-miterlimit="10" stroke-dasharray=""></path><path data-v-9833e8b2="" transform="scale(0.13020833333333334)" fill="none" stroke="currentColor" paint-order="fill stroke markers" d="m13,101.3l38.2,0l0,2.4l-38.2,0l0,-2.4l0,0z" stroke-width="5" stroke-miterlimit="10" stroke-dasharray=""></path><path data-v-9833e8b2="" transform="scale(0.13020833333333334)" fill="none" stroke="currentColor" paint-order="fill stroke markers" d="m108.4,65.5l-4.8,0l0,3.6l-19,0l0,-9.5l19.1,0l0,3.6l4.8,0l0,2.3l-0.1,0z" stroke-width="5" stroke-miterlimit="10" stroke-dasharray=""></path><path data-v-9833e8b2="" transform="scale(0.13020833333333334)" fill="none" stroke="currentColor" paint-order="fill stroke markers" d="m77.4,77.4l38.2,0l0,2.4l-38.2,0l0,-2.4l0,0z" stroke-width="5" stroke-miterlimit="10" stroke-dasharray=""></path><path data-v-9833e8b2="" transform="scale(0.13020833333333334)" fill="none" stroke="currentColor" paint-order="fill stroke markers" d="m77.4,82.2l38.2,0l0,2.4l-38.2,0l0,-2.4l0,0z" stroke-width="5" stroke-miterlimit="10" stroke-dasharray=""></path><path data-v-9833e8b2="" transform="scale(0.13020833333333334)" fill="none" stroke="currentColor" paint-order="fill stroke markers" d="m77.4,86.9l38.2,0l0,2.4l-38.2,0l0,-2.4l0,0z" stroke-width="5" stroke-miterlimit="10" stroke-dasharray=""></path><path data-v-9833e8b2="" transform="scale(0.13020833333333334)" fill="none" stroke="currentColor" paint-order="fill stroke markers" d="m77.4,91.7l38.2,0l0,2.4l-38.2,0l0,-2.4l0,0z" stroke-width="5" stroke-miterlimit="10" stroke-dasharray=""></path><path data-v-9833e8b2="" transform="scale(0.13020833333333334)" fill="none" stroke="currentColor" paint-order="fill stroke markers" d="m77.4,96.5l38.2,0l0,2.4l-38.2,0l0,-2.4l0,0z" stroke-width="5" stroke-miterlimit="10" stroke-dasharray=""></path><path data-v-9833e8b2="" transform="scale(0.13020833333333334)" fill="none" stroke="currentColor" paint-order="fill stroke markers" d="m77.4,101.3l38.2,0l0,2.4l-38.2,0l0,-2.4l0,0z" stroke-width="5" stroke-miterlimit="10" stroke-dasharray=""></path><path data-v-9833e8b2="" transform="scale(0.13020833333333334)" fill="none" stroke="currentColor" paint-order="fill stroke markers" d="m172.9,65.5l-4.8,0l0,3.6l-19.1,0l0,-9.5l19.1,0l0,3.6l4.8,0l0,2.3z" stroke-width="5" stroke-miterlimit="10" stroke-dasharray=""></path><path data-v-9833e8b2="" transform="scale(0.13020833333333334)" fill="none" stroke="currentColor" paint-order="fill stroke markers" d="m141.8,77.4l38.2,0l0,2.4l-38.2,0l0,-2.4l0,0z" stroke-width="5" stroke-miterlimit="10" stroke-dasharray=""></path><path data-v-9833e8b2="" transform="scale(0.13020833333333334)" fill="none" stroke="currentColor" paint-order="fill stroke markers" d="m141.8,82.2l38.2,0l0,2.4l-38.2,0l0,-2.4l0,0z" stroke-width="5" stroke-miterlimit="10" stroke-dasharray=""></path><path data-v-9833e8b2="" transform="scale(0.13020833333333334)" fill="none" stroke="currentColor" paint-order="fill stroke markers" d="m141.8,86.9l38.2,0l0,2.4l-38.2,0l0,-2.4l0,0z" stroke-width="5" stroke-miterlimit="10" stroke-dasharray=""></path><path data-v-9833e8b2="" transform="scale(0.13020833333333334)" fill="none" stroke="currentColor" paint-order="fill stroke markers" d="m141.8,91.7l38.2,0l0,2.4l-38.2,0l0,-2.4l0,0z" stroke-width="5" stroke-miterlimit="10" stroke-dasharray=""></path><path data-v-9833e8b2="" transform="scale(0.13020833333333334)" fill="none" stroke="currentColor" paint-order="fill stroke markers" d="m141.8,96.5l38.2,0l0,2.4l-38.2,0l0,-2.4l0,0z" stroke-width="5" stroke-miterlimit="10" stroke-dasharray=""></path><path data-v-9833e8b2="" transform="scale(0.13020833333333334)" fill="none" stroke="currentColor" paint-order="fill stroke markers" d="m141.8,101.3l38.2,0l0,2.4l-38.2,0l0,-2.4l0,0z" stroke-width="5" stroke-miterlimit="10" stroke-dasharray=""></path></g></svg>