<svg data-v-9833e8b2="" version="1.1" xmlns="http://www.w3.org/2000/svg" xmlns:xlink="http://www.w3.org/1999/xlink" width="24.5" height="25"><g data-v-9833e8b2=""><path data-v-9833e8b2="" transform="scale(0.17482517482517482)" fill="none" stroke="currentColor" paint-order="fill stroke markers" d="m16.1,142.6l24.7,-67.6l0,-71c0,-1.7 1.3,-3 3,-3l34.7,0c1.7,0 3,1.3 3,3l0,71l24.7,67.6m-65.4,-133.2l-37.7,28.6l0,12.8m116.2,0l0,-12.8l-37.6,-28.6m-78.6,28.6l116.1,0m-78.4,8.3l-37.6,28.6l0,12.8m116.1,-0.1l0,-12.8l-37.7,-28.5m-78.5,28.6l116.1,0m-78.4,-73.9l41.6,37.6m-41.3,-0.8l40.3,-36.7m-40.6,37.7l41.6,37.6m-1,-37.6l-40.3,36.7m0,0l57.8,47.4m-18.2,-47.4l-57.8,47.4" stroke-width="5" stroke-miterlimit="10" stroke-dasharray=""></path><path data-v-9833e8b2="" transform="scale(0.17482517482517482)" fill="none" stroke="currentColor" paint-order="fill stroke markers" d="m1,142.6l120.7,0" stroke-width="5" stroke-miterlimit="10" stroke-dasharray=""></path></g></svg>