<svg viewBox="0 0 190 150" xmlns="http://www.w3.org/2000/svg"><g><path fill="none" stroke="currentColor" d="m28.1,1l83.5,0l0,47.4l-83.5,0l0,-47.4l0,0z" stroke-width="5" stroke-miterlimit="10"></path><path fill="none" stroke="currentColor" d="m34.9,7.8l70,0l0,33.9l-70,0l0,-33.9l0,0z" stroke-width="5" stroke-miterlimit="10"></path><path fill="none" stroke="currentColor" d="m95.9,56.3l0,4.5l-49.7,0l0,-4.5l20.3,0l0,-5.6l9,0l0,5.6l20.4,0z" stroke-width="5" stroke-miterlimit="10"></path><path fill="none" stroke="currentColor" d="m130.9,150l0,-72.3l-110.7,0l0,72.3l-19.2,0l0,-89.2l188.5,0l0,89.2l-58.6,0l0,0z" stroke-width="5" stroke-miterlimit="10"></path><path fill="none" stroke="currentColor" d="m137.6,77.7l45.2,0l0,13.5l-45.2,0l0,-13.5l0,0z" stroke-width="5" stroke-miterlimit="10"></path><path fill="none" stroke="currentColor" d="m160.2,82.3c1.2,0 2.3,1 2.3,2.3c0,1.2 -1,2.3 -2.3,2.3c-1.2,0 -2.3,-1 -2.3,-2.3c0.1,-1.3 1.1,-2.3 2.3,-2.3l0,0z" stroke-width="5" stroke-miterlimit="10"></path><path fill="none" stroke="currentColor" d="m137.6,93.6l45.2,0l0,13.5l-45.2,0l0,-13.5l0,0z" stroke-width="5" stroke-miterlimit="10"></path><path fill="none" stroke="currentColor" d="m160.2,98.1c1.2,0 2.3,1 2.3,2.3c0,1.2 -1,2.3 -2.3,2.3c-1.2,0 -2.3,-1 -2.3,-2.3c0.1,-1.3 1.1,-2.3 2.3,-2.3l0,0z" stroke-width="5" stroke-miterlimit="10"></path><path fill="none" stroke="currentColor" d="m137.6,109.4l45.2,0l0,13.5l-45.2,0l0,-13.5l0,0z" stroke-width="5" stroke-miterlimit="10"></path><path fill="none" stroke="currentColor" d="m160.2,113.9c1.2,0 2.3,1 2.3,2.3c0,1.2 -1,2.3 -2.3,2.3c-1.2,0 -2.3,-1 -2.3,-2.3c0.1,-1.3 1.1,-2.3 2.3,-2.3l0,0z" stroke-width="5" stroke-miterlimit="10"></path><path fill="none" stroke="currentColor" d="m137.6,125.2l45.2,0l0,13.5l-45.2,0l0,-13.5l0,0z" stroke-width="5" stroke-miterlimit="10"></path><path fill="none" stroke="currentColor" d="m160.2,129.7c1.2,0 2.3,1 2.3,2.3c0,1.2 -1,2.3 -2.3,2.3c-1.2,0 -2.3,-1 -2.3,-2.3c0.1,-1.3 1.1,-2.3 2.3,-2.3l0,0z" stroke-width="5" stroke-miterlimit="10"></path></g></svg>