<svg data-v-9833e8b2="" version="1.1" xmlns="http://www.w3.org/2000/svg" xmlns:xlink="http://www.w3.org/1999/xlink" width="25" height="12.5"><g data-v-9833e8b2=""><path data-v-9833e8b2="" transform="scale(0.13157894736842105)" fill="none" stroke="currentColor" paint-order="fill stroke markers" d="m189.6,65.6l0,3.2c0,2.7 -2.2,4.9 -4.9,4.9l-24.8,0c0,-0.4 0.1,-0.9 0.1,-1.3c0,-11.2 -9,-20.2 -20.2,-20.2c-11.2,0 -20.2,9 -20.2,20.2c0,0.5 0,0.9 0.1,1.3l-59.5,0c0,-0.4 0.1,-0.9 0.1,-1.3c0,-11.2 -9,-20.2 -20.2,-20.2c-11.2,0 -20.2,9 -20.2,20.2c0,0.5 0,0.9 0.1,1.3l-13.6,0c-3,0 -5.4,-2.4 -5.4,-5.4l0,-24.2c0,-4 2.2,-7.5 5.4,-9.3l0,-19.7c0,-7.8 6.3,-14.1 14.1,-14.1l108.5,0c14.9,0 26.9,12.1 26.9,26.9l0,5.4l1.3,0c17.9,0 32.4,14.5 32.4,32.3z" stroke-width="5" stroke-miterlimit="10" stroke-dasharray=""></path><path data-v-9833e8b2="" transform="scale(0.13157894736842105)" fill="none" stroke="currentColor" paint-order="fill stroke markers" d="m92.6,37.4l8.1,0l0,2.7l-8.1,0l0,-2.7l0,0z" stroke-width="5" stroke-miterlimit="10" stroke-dasharray=""></path><path data-v-9833e8b2="" transform="scale(0.13157894736842105)" fill="none" stroke="currentColor" paint-order="fill stroke markers" d="m54.9,37.4l8.1,0l0,2.7l-8.1,0l0,-2.7l0,0z" stroke-width="5" stroke-miterlimit="10" stroke-dasharray=""></path><path data-v-9833e8b2="" transform="scale(0.13157894736842105)" fill="none" stroke="currentColor" paint-order="fill stroke markers" d="m40.1,56.2c8.9,0 16.2,7.2 16.2,16.2c0,8.9 -7.2,16.2 -16.2,16.2s-16.2,-7.2 -16.2,-16.2c0,-9 7.3,-16.2 16.2,-16.2l0,0z" stroke-width="5" stroke-miterlimit="10" stroke-dasharray=""></path><path data-v-9833e8b2="" transform="scale(0.13157894736842105)" fill="none" stroke="currentColor" paint-order="fill stroke markers" d="m139.7,56.2c8.9,0 16.2,7.2 16.2,16.2c0,8.9 -7.2,16.2 -16.2,16.2s-16.2,-7.2 -16.2,-16.2c0.1,-9 7.3,-16.2 16.2,-16.2l0,0z" stroke-width="5" stroke-miterlimit="10" stroke-dasharray=""></path><path data-v-9833e8b2="" transform="scale(0.13157894736842105)" fill="none" stroke="currentColor" paint-order="fill stroke markers" d="m142.4,33.3l-52.5,0l0,-22.9l32.8,0c10.9,0 19.7,8.8 19.7,19.7l0,3.2z" stroke-width="5" stroke-miterlimit="10" stroke-dasharray=""></path><path data-v-9833e8b2="" transform="scale(0.13157894736842105)" fill="none" stroke="currentColor" paint-order="fill stroke markers" d="m85.9,33.3l-70,0l0,-14.8c0,-4.5 3.6,-8.1 8.1,-8.1l61.9,0l0,22.9z" stroke-width="5" stroke-miterlimit="10" stroke-dasharray=""></path></g></svg>