<svg data-v-9833e8b2="" version="1.1" xmlns="http://www.w3.org/2000/svg" xmlns:xlink="http://www.w3.org/1999/xlink" width="25" height="12.5"><g data-v-9833e8b2=""><path data-v-9833e8b2="" transform="scale(0.13368983957219252)" fill="none" stroke="currentColor" paint-order="fill stroke markers" d="m186.1,62.7c0,4.9 -4,8.9 -8.9,8.9l-166.5,0c-5.4,0 -9.7,-4.4 -9.7,-9.7l0,-9.8c0,-4.9 1.9,-9.4 4.9,-12.8l0,-12.9c0,-14 11.4,-25.4 25.4,-25.4l76.3,0c20.1,0 37.1,13.4 42.6,31.7l5.9,0c16.5,-0.1 30,13.4 30,30z" stroke-width="5" stroke-miterlimit="10" stroke-dasharray=""></path><path data-v-9833e8b2="" transform="scale(0.13368983957219252)" fill="none" stroke="currentColor" paint-order="fill stroke markers" d="m37.5,47.2c10.8,0 19.5,8.7 19.5,19.5c0,10.8 -8.7,19.5 -19.5,19.5c-10.8,0 -19.5,-8.7 -19.5,-19.5c0,-10.7 8.7,-19.5 19.5,-19.5l0,0z" stroke-width="5" stroke-miterlimit="10" stroke-dasharray=""></path><path data-v-9833e8b2="" transform="scale(0.13368983957219252)" fill="none" stroke="currentColor" paint-order="fill stroke markers" d="m137.4,47.2c10.8,0 19.5,8.7 19.5,19.5c0,10.8 -8.7,19.5 -19.5,19.5c-10.8,0 -19.5,-8.7 -19.5,-19.5c0,-10.7 8.7,-19.5 19.5,-19.5l0,0z" stroke-width="5" stroke-miterlimit="10" stroke-dasharray=""></path><path data-v-9833e8b2="" transform="scale(0.13368983957219252)" fill="none" stroke="currentColor" paint-order="fill stroke markers" d="m137.1,32.6l-48.5,0l0,-21.9l15.6,0c14.8,0 27.5,9 32.9,21.9z" stroke-width="5" stroke-miterlimit="10" stroke-dasharray=""></path><path data-v-9833e8b2="" transform="scale(0.13368983957219252)" fill="none" stroke="currentColor" paint-order="fill stroke markers" d="m20.4,32.6l-4.9,0l0,-7.3c0,-8.1 6.5,-14.6 14.6,-14.6l53.6,0l0,21.9l-60,0l-3.3,0z" stroke-width="5" stroke-miterlimit="10" stroke-dasharray=""></path></g></svg>