<svg data-v-9833e8b2="" version="1.1" xmlns="http://www.w3.org/2000/svg" xmlns:xlink="http://www.w3.org/1999/xlink" width="25" height="20"><g data-v-9833e8b2=""><path data-v-9833e8b2="" transform="scale(0.13812154696132597)" fill="none" stroke="currentColor" paint-order="fill stroke markers" d="m75.7,1l0,13.7l0,16.8l-13.7,0l0,-16.8l-36.6,0l0,112.8l-13.7,0l0,-112.8l0,-13.7l13.7,0l36.6,0l13.7,0z" stroke-width="5" stroke-miterlimit="10" stroke-dasharray=""></path><path data-v-9833e8b2="" transform="scale(0.13812154696132597)" fill="none" stroke="currentColor" paint-order="fill stroke markers" d="m62,33l13.7,0l6.9,9.1l-27.5,0l6.9,-9.1l0,0z" stroke-width="5" stroke-miterlimit="10" stroke-dasharray=""></path><path data-v-9833e8b2="" transform="scale(0.13812154696132597)" fill="none" stroke="currentColor" paint-order="fill stroke markers" d="m50.6,42.2l36.5,0l0,4.6l-36.5,0l0,-4.6l0,0z" stroke-width="5" stroke-miterlimit="10" stroke-dasharray=""></path><path data-v-9833e8b2="" transform="scale(0.13812154696132597)" fill="none" stroke="currentColor" paint-order="fill stroke markers" d="m68.8,62.7c-8.8,0 -16,-6.1 -16,-13.7l32,0c0,7.6 -7.1,13.7 -16,13.7l0,0z" stroke-width="5" stroke-miterlimit="10" stroke-dasharray=""></path><path data-v-9833e8b2="" transform="scale(0.13812154696132597)" fill="none" stroke="currentColor" paint-order="fill stroke markers" d="m168.6,1l0,13.7l0,16.8l-13.7,0l0,-16.8l-36.6,0l0,112.8l-13.7,0l0,-112.8l0,-13.7l13.7,0l36.6,0l13.7,0z" stroke-width="5" stroke-miterlimit="10" stroke-dasharray=""></path><path data-v-9833e8b2="" transform="scale(0.13812154696132597)" fill="none" stroke="currentColor" paint-order="fill stroke markers" d="m154.9,33l13.7,0l6.9,9.1l-27.4,0l6.8,-9.1l0,0z" stroke-width="5" stroke-miterlimit="10" stroke-dasharray=""></path><path data-v-9833e8b2="" transform="scale(0.13812154696132597)" fill="none" stroke="currentColor" paint-order="fill stroke markers" d="m143.5,42.2l36.6,0l0,4.6l-36.6,0l0,-4.6l0,0z" stroke-width="5" stroke-miterlimit="10" stroke-dasharray=""></path><path data-v-9833e8b2="" transform="scale(0.13812154696132597)" fill="none" stroke="currentColor" paint-order="fill stroke markers" d="m161.8,62.7c-8.8,0 -16,-6.1 -16,-13.7l32,0c-0.1,7.6 -7.2,13.7 -16,13.7l0,0z" stroke-width="5" stroke-miterlimit="10" stroke-dasharray=""></path><path data-v-9833e8b2="" transform="scale(0.13812154696132597)" fill="none" stroke="currentColor" paint-order="fill stroke markers" d="m1,127.5l176.7,0l0,9.1l-176.7,0l0,-9.1l0,0z" stroke-width="5" stroke-miterlimit="10" stroke-dasharray=""></path></g></svg>