<svg data-v-9833e8b2="" version="1.1" xmlns="http://www.w3.org/2000/svg" xmlns:xlink="http://www.w3.org/1999/xlink" width="25" height="25"><g data-v-9833e8b2=""><path data-v-9833e8b2="" transform="scale(0.14204545454545456)" fill="none" stroke="currentColor" paint-order="fill stroke markers" d="m61.8,16.2l-45.6,0l0,45.6l-15.2,0l0,-45.6l0,-15.2l15.2,0l45.6,0l0,15.2z" stroke-width="5" stroke-miterlimit="10" stroke-dasharray=""></path><path data-v-9833e8b2="" transform="scale(0.14204545454545456)" fill="none" stroke="currentColor" paint-order="fill stroke markers" d="m175.8,1l0,15.2l0,45.6l-15.2,0l0,-45.6l-45.6,0l0,-15.2l45.6,0l15.2,0z" stroke-width="5" stroke-miterlimit="10" stroke-dasharray=""></path><path data-v-9833e8b2="" transform="scale(0.14204545454545456)" fill="none" stroke="currentColor" paint-order="fill stroke markers" d="m61.8,160.6l0,15.2l-45.6,0l-15.2,0l0,-15.2l0,-45.6l15.2,0l0,45.6l45.6,0z" stroke-width="5" stroke-miterlimit="10" stroke-dasharray=""></path><path data-v-9833e8b2="" transform="scale(0.14204545454545456)" fill="none" stroke="currentColor" paint-order="fill stroke markers" d="m175.8,115l0,45.6l0,15.2l-15.2,0l-45.6,0l0,-15.2l45.6,0l0,-45.6l15.2,0z" stroke-width="5" stroke-miterlimit="10" stroke-dasharray=""></path><path data-v-9833e8b2="" transform="scale(0.14204545454545456)" fill="none" stroke="currentColor" paint-order="fill stroke markers" d="m1,77l174.8,0l0,22.8l-174.8,0l0,-22.8l0,0z" stroke-width="5" stroke-miterlimit="10" stroke-dasharray=""></path></g></svg>