<svg data-v-9833e8b2="" version="1.1" xmlns="http://www.w3.org/2000/svg" xmlns:xlink="http://www.w3.org/1999/xlink" width="22" height="25"><g data-v-9833e8b2=""><path data-v-9833e8b2="" transform="scale(0.13089005235602094)" fill="none" stroke="currentColor" paint-order="fill stroke markers" d="m14.9,70.4l124.9,0l0,106.5l-124.9,0l0,-106.5l0,0z" stroke-width="5" stroke-miterlimit="10" stroke-dasharray=""></path><path data-v-9833e8b2="" transform="scale(0.13089005235602094)" fill="none" stroke="currentColor" paint-order="fill stroke markers" d="m14.9,1l124.9,0l0,69.4l-124.9,0l0,-69.4l0,0z" stroke-width="5" stroke-miterlimit="10" stroke-dasharray=""></path><path data-v-9833e8b2="" transform="scale(0.13089005235602094)" fill="none" stroke="currentColor" paint-order="fill stroke markers" d="m65.8,19.5l60.2,0l0,32.4l-60.2,0l0,-32.4l0,0z" stroke-width="5" stroke-miterlimit="10" stroke-dasharray=""></path><path data-v-9833e8b2="" transform="scale(0.13089005235602094)" fill="none" stroke="currentColor" paint-order="fill stroke markers" d="m28.8,86.6l97.2,0l0,18.5l-97.2,0l0,-18.5l0,0z" stroke-width="5" stroke-miterlimit="10" stroke-dasharray=""></path><path data-v-9833e8b2="" transform="scale(0.13089005235602094)" fill="none" stroke="currentColor" paint-order="fill stroke markers" d="m28.8,114.4l97.2,0l0,18.5l-97.2,0l0,-18.5l0,0z" stroke-width="5" stroke-miterlimit="10" stroke-dasharray=""></path><path data-v-9833e8b2="" transform="scale(0.13089005235602094)" fill="none" stroke="currentColor" paint-order="fill stroke markers" d="m28.8,142.2l97.2,0l0,18.5l-97.2,0l0,-18.5l0,0z" stroke-width="5" stroke-miterlimit="10" stroke-dasharray=""></path><path data-v-9833e8b2="" transform="scale(0.13089005235602094)" fill="none" stroke="currentColor" paint-order="fill stroke markers" d="m1,176.9l152.7,0l0,13.9l-152.7,0l0,-13.9l0,0z" stroke-width="5" stroke-miterlimit="10" stroke-dasharray=""></path><path data-v-9833e8b2="" transform="scale(0.13089005235602094)" fill="none" stroke="currentColor" paint-order="fill stroke markers" d="m56.9,30.4c0,-5.4 -3.9,-10.6 -11.2,-10.6l-13.1,0l0,33l8.1,0l0,-11.8l5,0c7.2,0 11.2,-5.2 11.2,-10.6l0,0z" stroke-width="5" stroke-miterlimit="10" stroke-dasharray=""></path><path data-v-9833e8b2="" transform="scale(0.13089005235602094)" fill="none" stroke="currentColor" paint-order="fill stroke markers" d="m48.8,30.4c0,1.7 -1.3,3.3 -3.5,3.3l-4.6,0l0,-6.7l4.6,0c2.2,0.1 3.5,1.7 3.5,3.4l0,0z" stroke-width="5" stroke-miterlimit="10" stroke-dasharray=""></path></g></svg>