<svg data-v-9833e8b2="" version="1.1" xmlns="http://www.w3.org/2000/svg" xmlns:xlink="http://www.w3.org/1999/xlink" width="17" height="25"><g data-v-9833e8b2=""><path data-v-9833e8b2="" transform="scale(0.13297872340425532)" fill="none" stroke="currentColor" paint-order="fill stroke markers" d="m1,1l110,0l0,186.7l-110,0l0,-186.7l0,0z" stroke-width="5" stroke-miterlimit="10" stroke-dasharray=""></path><path data-v-9833e8b2="" transform="scale(0.13297872340425532)" fill="none" stroke="currentColor" paint-order="fill stroke markers" d="m10.5,10.5l90.9,0l0,86.1l-90.9,0l0,-86.1l0,0z" stroke-width="5" stroke-miterlimit="10" stroke-dasharray=""></path><path data-v-9833e8b2="" transform="scale(0.13297872340425532)" fill="none" stroke="currentColor" paint-order="fill stroke markers" d="m34.5,106.3l43.1,0l0,19.1l-43.1,0l0,-19.1l0,0z" stroke-width="5" stroke-miterlimit="10" stroke-dasharray=""></path><path data-v-9833e8b2="" transform="scale(0.13297872340425532)" fill="none" stroke="currentColor" paint-order="fill stroke markers" d="m20.1,22.5l71.8,0l0,19.1l-71.8,0l0,-19.1l0,0z" stroke-width="5" stroke-miterlimit="10" stroke-dasharray=""></path><path data-v-9833e8b2="" transform="scale(0.13297872340425532)" fill="none" stroke="currentColor" paint-order="fill stroke markers" d="m20.1,48.8l28.7,0l0,19.1l-28.7,0l0,-19.1l0,0z" stroke-width="5" stroke-miterlimit="10" stroke-dasharray=""></path><path data-v-9833e8b2="" transform="scale(0.13297872340425532)" fill="none" stroke="currentColor" paint-order="fill stroke markers" d="m93.8,83.8c-0.7,1 -2,1.2 -2.9,0.4l-5.4,-4.9c0,0 0,0 0,0c-2.6,1.9 -5.7,3 -9.1,3c-8.6,0 -15.6,-7 -15.6,-15.6c0,-8.6 7,-15.6 15.6,-15.6c8.6,0 15.6,7 15.6,15.6c0,3.6 -1.2,6.8 -3.2,9.4l4.8,4.3c0.8,0.9 1,2.4 0.2,3.4z" stroke-width="5" stroke-miterlimit="10" stroke-dasharray=""></path></g></svg>