<svg data-v-9833e8b2="" version="1.1" xmlns="http://www.w3.org/2000/svg" xmlns:xlink="http://www.w3.org/1999/xlink" width="25" height="7.5"><g data-v-9833e8b2=""><path data-v-9833e8b2="" transform="scale(0.13227513227513227)" fill="none" stroke="currentColor" paint-order="fill stroke markers" d="m1,1l187.3,0l0,51.1l-187.3,0l0,-51.1l0,0z" stroke-width="5" stroke-miterlimit="10" stroke-dasharray=""></path><path data-v-9833e8b2="" transform="scale(0.13227513227513227)" fill="none" stroke="currentColor" paint-order="fill stroke markers" d="m157.7,35.2l4.2,-3.6l-19.5,0l0,-10.2l19.4,0l-4.1,-3.4l0,-11.9l23.8,20.4l-23.8,20.4l0,-11.7z" stroke-width="5" stroke-miterlimit="10" stroke-dasharray=""></path><path data-v-9833e8b2="" transform="scale(0.13227513227513227)" fill="none" stroke="currentColor" paint-order="fill stroke markers" d="m47,31.6l-19.5,0l4.2,3.6l0,11.8l-23.8,-20.5l23.8,-20.4l0,11.9l-4.1,3.4l19.4,0l0,10.2z" stroke-width="5" stroke-miterlimit="10" stroke-dasharray=""></path><path data-v-9833e8b2="" transform="scale(0.13227513227513227)" fill="none" stroke="currentColor" paint-order="fill stroke markers" d="m103.4,29.9l-3.6,-4.2l0,19.5l-10.2,0l0,-19.4l-3.4,4.1l-11.9,0l20.4,-23.8l20.4,23.9l-11.7,0l0,-0.1z" stroke-width="5" stroke-miterlimit="10" stroke-dasharray=""></path></g></svg>