<svg data-v-9833e8b2="" version="1.1" xmlns="http://www.w3.org/2000/svg" xmlns:xlink="http://www.w3.org/1999/xlink" width="25" height="22.5"><g data-v-9833e8b2=""><path data-v-9833e8b2="" transform="scale(0.13440860215053763)" fill="none" stroke="currentColor" paint-order="fill stroke markers" d="m154.1,172.6c-13.1,0 -23.8,-10.6 -23.8,-23.8l0,-52.8l-26.4,0l0,-15.8l26.4,0c7.8,0 14.6,5.7 15.8,13.2l0,0l0,55.4c0,4.4 3.5,7.9 7.9,7.9c4.4,0 7.9,-3.5 7.9,-7.9l0,-52.8l0,-2.6l0,-76.6l15.8,0l0,76.6l0,2.6l0,52.8c0.2,13.2 -10.4,23.8 -23.6,23.8l0,0z" stroke-width="5" stroke-miterlimit="10" stroke-dasharray=""></path><path data-v-9833e8b2="" transform="scale(0.13440860215053763)" fill="none" stroke="currentColor" paint-order="fill stroke markers" d="m8.9,1l105.6,0l0,155.8l-105.6,0l0,-155.8l0,0z" stroke-width="5" stroke-miterlimit="10" stroke-dasharray=""></path><path data-v-9833e8b2="" transform="scale(0.13440860215053763)" fill="none" stroke="currentColor" paint-order="fill stroke markers" d="m69.6,38l0,37l23.8,0l-34.1,52.8l0,-37l-26.6,0l36.9,-52.8l0,0z" stroke-width="5" stroke-miterlimit="10" stroke-dasharray=""></path><path data-v-9833e8b2="" transform="scale(0.13440860215053763)" fill="none" stroke="currentColor" paint-order="fill stroke markers" d="m154.1,40.6l31.7,0l0,34.3l-31.7,0l0,-34.3l0,0z" stroke-width="5" stroke-miterlimit="10" stroke-dasharray=""></path><path data-v-9833e8b2="" transform="scale(0.13440860215053763)" fill="none" stroke="currentColor" paint-order="fill stroke markers" d="m1,156.8l121.5,0l0,15.8l-121.5,0l0,-15.8l0,0z" stroke-width="5" stroke-miterlimit="10" stroke-dasharray=""></path></g></svg>