<svg data-v-9833e8b2="" version="1.1" xmlns="http://www.w3.org/2000/svg" xmlns:xlink="http://www.w3.org/1999/xlink" width="22" height="25"><g data-v-9833e8b2=""><path data-v-9833e8b2="" transform="scale(0.12953367875647667)" fill="none" stroke="currentColor" paint-order="fill stroke markers" d="m8.1,52.3l81.4,0l0,129.1l-81.4,0l0,-129.1l0,0z" stroke-width="5" stroke-miterlimit="10" stroke-dasharray=""></path><path data-v-9833e8b2="" transform="scale(0.12953367875647667)" fill="none" stroke="currentColor" paint-order="fill stroke markers" d="m1,181.4l95.5,0l0,10.6l-95.5,0l0,-10.6l0,0z" stroke-width="5" stroke-miterlimit="10" stroke-dasharray=""></path><path data-v-9833e8b2="" transform="scale(0.12953367875647667)" fill="none" stroke="currentColor" paint-order="fill stroke markers" d="m16.9,110.6l63.7,0l0,53.1l-63.7,0l0,-53.1l0,0z" stroke-width="5" stroke-miterlimit="10" stroke-dasharray=""></path><path data-v-9833e8b2="" transform="scale(0.12953367875647667)" fill="none" stroke="currentColor" paint-order="fill stroke markers" d="m45.2,75.3l116.8,0l0,17.7l-116.8,0l0,-17.7l0,0z" stroke-width="5" stroke-miterlimit="10" stroke-dasharray=""></path><path data-v-9833e8b2="" transform="scale(0.12953367875647667)" fill="none" stroke="currentColor" paint-order="fill stroke markers" d="m48.8,66.4c9.8,0 17.7,7.9 17.7,17.7c0,9.8 -7.9,17.7 -17.7,17.7s-17.7,-7.9 -17.7,-17.7c0,-9.7 7.9,-17.7 17.7,-17.7l0,0z" stroke-width="5" stroke-miterlimit="10" stroke-dasharray=""></path><path data-v-9833e8b2="" transform="scale(0.12953367875647667)" fill="none" stroke="currentColor" paint-order="fill stroke markers" d="m41.7,27.8l14.1,0l0,24.5l-14.1,0l0,-24.5l0,0z" stroke-width="5" stroke-miterlimit="10" stroke-dasharray=""></path><path data-v-9833e8b2="" transform="scale(0.12953367875647667)" fill="none" stroke="currentColor" paint-order="fill stroke markers" d="m48.8,1c9.8,0 17.7,7.9 17.7,17.7c0,9.8 -7.9,17.7 -17.7,17.7s-17.7,-7.9 -17.7,-17.7c0,-9.8 7.9,-17.7 17.7,-17.7l0,0z" stroke-width="5" stroke-miterlimit="10" stroke-dasharray=""></path><path data-v-9833e8b2="" transform="scale(0.12953367875647667)" fill="none" stroke="currentColor" paint-order="fill stroke markers" d="m48.8,13.4c4.9,0 8.8,4 8.8,8.8s-4,8.8 -8.8,8.8c-4.9,0 -8.8,-4 -8.8,-8.8s3.9,-8.8 8.8,-8.8l0,0z" stroke-width="5" stroke-miterlimit="10" stroke-dasharray=""></path></g></svg>