<svg data-v-9833e8b2="" version="1.1" xmlns="http://www.w3.org/2000/svg" xmlns:xlink="http://www.w3.org/1999/xlink" width="25" height="22.5"><g data-v-9833e8b2=""><path data-v-9833e8b2="" transform="scale(0.13736263736263737)" fill="none" stroke="currentColor" paint-order="fill stroke markers" d="m8.9,1l91.4,0l0,145.1l-91.4,0l0,-145.1l0,0z" stroke-width="5" stroke-miterlimit="10" stroke-dasharray=""></path><path data-v-9833e8b2="" transform="scale(0.13736263736263737)" fill="none" stroke="currentColor" paint-order="fill stroke markers" d="m1,146.1l107.3,0l0,11.9l-107.3,0l0,-11.9l0,0z" stroke-width="5" stroke-miterlimit="10" stroke-dasharray=""></path><path data-v-9833e8b2="" transform="scale(0.13736263736263737)" fill="none" stroke="currentColor" paint-order="fill stroke markers" d="m18.9,66.6l71.5,0l0,59.6l-71.5,0l0,-59.6l0,0z" stroke-width="5" stroke-miterlimit="10" stroke-dasharray=""></path><path data-v-9833e8b2="" transform="scale(0.13736263736263737)" fill="none" stroke="currentColor" paint-order="fill stroke markers" d="m50.7,26.8l131.2,0l0,19.9l-131.2,0l0,-19.9l0,0z" stroke-width="5" stroke-miterlimit="10" stroke-dasharray=""></path><path data-v-9833e8b2="" transform="scale(0.13736263736263737)" fill="none" stroke="currentColor" paint-order="fill stroke markers" d="m54.6,16.9c11,0 19.9,8.9 19.9,19.9c0,11 -8.9,19.9 -19.9,19.9s-19.9,-8.9 -19.9,-19.9c0.1,-11 9,-19.9 19.9,-19.9l0,0z" stroke-width="5" stroke-miterlimit="10" stroke-dasharray=""></path></g></svg>