<svg viewBox="0 0 192 115" xmlns="http://www.w3.org/2000/svg"><g><path fill="none" stroke="currentColor" paint-order="fill stroke markers" d="m1,1l190.4,0l0,114.3l-190.4,0l0,-114.3l0,0z" stroke-width="5" stroke-miterlimit="10" stroke-dasharray=""></path><path fill="none" stroke="currentColor" paint-order="fill stroke markers" d="m39,5.8l2.4,0l0,104.7l-2.4,0l0,-104.7l0,0z" stroke-width="5" stroke-miterlimit="10" stroke-dasharray=""></path><path fill="none" stroke="currentColor" paint-order="fill stroke markers" d="m150.9,5.8l2.4,0l0,104.7l-2.4,0l0,-104.7l0,0z" stroke-width="5" stroke-miterlimit="10" stroke-dasharray=""></path><path fill="none" stroke="currentColor" paint-order="fill stroke markers" d="m5.7,10.5l28.6,0l0,28.6l-28.6,0l0,-28.6l0,0z" stroke-width="5" stroke-miterlimit="10" stroke-dasharray=""></path><path fill="none" stroke="currentColor" paint-order="fill stroke markers" d="m5.7,59.3l28.6,0l0,28.6l-28.6,0l0,-28.6l0,0z" stroke-width="5" stroke-miterlimit="10" stroke-dasharray=""></path><path fill="none" stroke="currentColor" paint-order="fill stroke markers" d="m158.1,10.5l28.6,0l0,28.6l-28.6,0l0,-28.6l0,0z" stroke-width="5" stroke-miterlimit="10" stroke-dasharray=""></path><path fill="none" stroke="currentColor" paint-order="fill stroke markers" d="m158.1,59.3l28.6,0l0,28.6l-28.6,0l0,-28.6l0,0z" stroke-width="5" stroke-miterlimit="10" stroke-dasharray=""></path><path fill="none" stroke="currentColor" paint-order="fill stroke markers" d="m81.9,59.3l28.6,0l0,28.6l-28.6,0l0,-28.6l0,0z" stroke-width="5" stroke-miterlimit="10" stroke-dasharray=""></path><path fill="none" stroke="currentColor" paint-order="fill stroke markers" d="m5.7,95.1l28.6,0l0,2.4l-28.6,0l0,-2.4l0,0z" stroke-width="5" stroke-miterlimit="10" stroke-dasharray=""></path><path fill="none" stroke="currentColor" paint-order="fill stroke markers" d="m5.7,99.8l28.6,0l0,2.4l-28.6,0l0,-2.4l0,0z" stroke-width="5" stroke-miterlimit="10" stroke-dasharray=""></path><path fill="none" stroke="currentColor" paint-order="fill stroke markers" d="m5.7,104.6l28.6,0l0,2.4l-28.6,0l0,-2.4l0,0z" stroke-width="5" stroke-miterlimit="10" stroke-dasharray=""></path><path fill="none" stroke="currentColor" paint-order="fill stroke markers" d="m46.2,95.1l28.6,0l0,2.4l-28.6,0l0,-2.4l0,0z" stroke-width="5" stroke-miterlimit="10" stroke-dasharray=""></path><path fill="none" stroke="currentColor" paint-order="fill stroke markers" d="m46.2,99.8l28.6,0l0,2.4l-28.6,0l0,-2.4l0,0z" stroke-width="5" stroke-miterlimit="10" stroke-dasharray=""></path><path fill="none" stroke="currentColor" paint-order="fill stroke markers" d="m46.2,104.6l28.6,0l0,2.4l-28.6,0l0,-2.4l0,0z" stroke-width="5" stroke-miterlimit="10" stroke-dasharray=""></path><path fill="none" stroke="currentColor" paint-order="fill stroke markers" d="m81.9,95.1l28.6,0l0,2.4l-28.6,0l0,-2.4l0,0z" stroke-width="5" stroke-miterlimit="10" stroke-dasharray=""></path><path fill="none" stroke="currentColor" paint-order="fill stroke markers" d="m81.9,99.8l28.6,0l0,2.4l-28.6,0l0,-2.4l0,0z" stroke-width="5" stroke-miterlimit="10" stroke-dasharray=""></path><path fill="none" stroke="currentColor" paint-order="fill stroke markers" d="m81.9,104.6l28.6,0l0,2.4l-28.6,0l0,-2.4l0,0z" stroke-width="5" stroke-miterlimit="10" stroke-dasharray=""></path><path fill="none" stroke="currentColor" paint-order="fill stroke markers" d="m117.6,95.1l28.6,0l0,2.4l-28.6,0l0,-2.4l0,0z" stroke-width="5" stroke-miterlimit="10" stroke-dasharray=""></path><path fill="none" stroke="currentColor" paint-order="fill stroke markers" d="m117.6,99.8l28.6,0l0,2.4l-28.6,0l0,-2.4l0,0z" stroke-width="5" stroke-miterlimit="10" stroke-dasharray=""></path><path fill="none" stroke="currentColor" paint-order="fill stroke markers" d="m117.6,104.6l28.6,0l0,2.4l-28.6,0l0,-2.4l0,0z" stroke-width="5" stroke-miterlimit="10" stroke-dasharray=""></path><path fill="none" stroke="currentColor" paint-order="fill stroke markers" d="m158.1,95.1l28.6,0l0,2.4l-28.6,0l0,-2.4l0,0z" stroke-width="5" stroke-miterlimit="10" stroke-dasharray=""></path><path fill="none" stroke="currentColor" paint-order="fill stroke markers" d="m158.1,99.8l28.6,0l0,2.4l-28.6,0l0,-2.4l0,0z" stroke-width="5" stroke-miterlimit="10" stroke-dasharray=""></path><path fill="none" stroke="currentColor" paint-order="fill stroke markers" d="m158.1,104.6l28.6,0l0,2.4l-28.6,0l0,-2.4l0,0z" stroke-width="5" stroke-miterlimit="10" stroke-dasharray=""></path><path fill="none" stroke="currentColor" paint-order="fill stroke markers" d="m74.8,22.4l-2.4,0l0,2.4l-9.5,0l0,-7.1l9.5,0l0,2.4l2.4,0l0,2.3z" stroke-width="5" stroke-miterlimit="10" stroke-dasharray=""></path><path fill="none" stroke="currentColor" paint-order="fill stroke markers" d="m46.2,17.7l2.4,0l0,7.1l-2.4,0l0,-7.1l0,0z" stroke-width="5" stroke-miterlimit="10" stroke-dasharray=""></path><path fill="none" stroke="currentColor" paint-order="fill stroke markers" d="m52.1,18.9l7.1,0l0,4.8l-7.1,0l0,-4.8l0,0z" stroke-width="5" stroke-miterlimit="10" stroke-dasharray=""></path><path fill="none" stroke="currentColor" paint-order="fill stroke markers" d="m74.8,33.2l-2.4,0l0,2.4l-9.5,0l0,-7.1l9.5,0l0,2.4l2.4,0l0,2.3z" stroke-width="5" stroke-miterlimit="10" stroke-dasharray=""></path><path fill="none" stroke="currentColor" paint-order="fill stroke markers" d="m46.2,28.4l2.4,0l0,7.1l-2.4,0l0,-7.1l0,0z" stroke-width="5" stroke-miterlimit="10" stroke-dasharray=""></path><path fill="none" stroke="currentColor" paint-order="fill stroke markers" d="m52.1,29.6l7.1,0l0,4.8l-7.1,0l0,-4.8l0,0z" stroke-width="5" stroke-miterlimit="10" stroke-dasharray=""></path><path fill="none" stroke="currentColor" paint-order="fill stroke markers" d="m74.8,43.9l-2.4,0l0,2.4l-9.5,0l0,-7.1l9.5,0l0,2.4l2.4,0l0,2.3z" stroke-width="5" stroke-miterlimit="10" stroke-dasharray=""></path><path fill="none" stroke="currentColor" paint-order="fill stroke markers" d="m46.2,39.1l2.4,0l0,7.1l-2.4,0l0,-7.1l0,0z" stroke-width="5" stroke-miterlimit="10" stroke-dasharray=""></path><path fill="none" stroke="currentColor" paint-order="fill stroke markers" d="m52.1,40.3l7.1,0l0,4.8l-7.1,0l0,-4.8l0,0z" stroke-width="5" stroke-miterlimit="10" stroke-dasharray=""></path><path fill="none" stroke="currentColor" paint-order="fill stroke markers" d="m146.2,22.4l-2.4,0l0,2.4l-9.5,0l0,-7.1l9.5,0l0,2.4l2.4,0l0,2.3z" stroke-width="5" stroke-miterlimit="10" stroke-dasharray=""></path><path fill="none" stroke="currentColor" paint-order="fill stroke markers" d="m117.6,17.7l2.4,0l0,7.1l-2.4,0l0,-7.1l0,0z" stroke-width="5" stroke-miterlimit="10" stroke-dasharray=""></path><path fill="none" stroke="currentColor" paint-order="fill stroke markers" d="m123.6,18.9l7.1,0l0,4.8l-7.1,0l0,-4.8l0,0z" stroke-width="5" stroke-miterlimit="10" stroke-dasharray=""></path><path fill="none" stroke="currentColor" paint-order="fill stroke markers" d="m146.2,33.2l-2.4,0l0,2.4l-9.5,0l0,-7.1l9.5,0l0,2.4l2.4,0l0,2.3z" stroke-width="5" stroke-miterlimit="10" stroke-dasharray=""></path><path fill="none" stroke="currentColor" paint-order="fill stroke markers" d="m117.6,28.4l2.4,0l0,7.1l-2.4,0l0,-7.1l0,0z" stroke-width="5" stroke-miterlimit="10" stroke-dasharray=""></path><path fill="none" stroke="currentColor" paint-order="fill stroke markers" d="m123.6,29.6l7.1,0l0,4.8l-7.1,0l0,-4.8l0,0z" stroke-width="5" stroke-miterlimit="10" stroke-dasharray=""></path><path fill="none" stroke="currentColor" paint-order="fill stroke markers" d="m146.2,43.9l-2.4,0l0,2.4l-9.5,0l0,-7.1l9.5,0l0,2.4l2.4,0l0,2.3z" stroke-width="5" stroke-miterlimit="10" stroke-dasharray=""></path><path fill="none" stroke="currentColor" paint-order="fill stroke markers" d="m117.6,39.1l2.4,0l0,7.1l-2.4,0l0,-7.1l0,0z" stroke-width="5" stroke-miterlimit="10" stroke-dasharray=""></path><path fill="none" stroke="currentColor" paint-order="fill stroke markers" d="m123.6,40.3l7.1,0l0,4.8l-7.1,0l0,-4.8l0,0z" stroke-width="5" stroke-miterlimit="10" stroke-dasharray=""></path><path fill="none" stroke="currentColor" paint-order="fill stroke markers" d="m1,1l190.4,0l0,4.8l-190.4,0l0,-4.8l0,0z" stroke-width="5" stroke-miterlimit="10" stroke-dasharray=""></path><path fill="none" stroke="currentColor" paint-order="fill stroke markers" d="m1,110.5l190.4,0l0,4.8l-190.4,0l0,-4.8l0,0z" stroke-width="5" stroke-miterlimit="10" stroke-dasharray=""></path></g></svg>