<svg data-v-9833e8b2="" version="1.1" xmlns="http://www.w3.org/2000/svg" xmlns:xlink="http://www.w3.org/1999/xlink" width="27" height="25"><g data-v-9833e8b2=""><path data-v-9833e8b2="" transform="scale(0.1366120218579235)" fill="none" stroke="currentColor" paint-order="fill stroke markers" d="m36.10028,47.9l105.6,0c13,0 23.5,10.5 23.5,23.5l0,88c0,13 -10.5,23.5 -23.5,23.5l-105.6,0c-13,0 -23.5,-10.5 -23.5,-23.5l0,-88c0.1,-13 10.5,-23.5 23.5,-23.5l0,0z" stroke-width="5" stroke-miterlimit="10" stroke-dasharray=""></path><path data-v-9833e8b2="" transform="scale(0.1366120218579235)" fill="none" stroke="currentColor" paint-order="fill stroke markers" d="m176.90028,59.6c0,4.1 -0.7,8.1 -2,11.7c-4.8,13.7 -17.8,23.5 -33.1,23.5c-10.5,0 -19.9,-4.7 -26.3,-12c-6.5,7.4 -15.9,12 -26.5,12c-10.6,0 -20,-4.7 -26.5,-12c-6.4,7.3 -15.8,12 -26.3,12c-15.3,0 -28.3,-9.8 -33.2,-23.5c-1.3,-3.7 -2,-7.6 -2,-11.7c-0.1,-32.4 26.2,-58.6 58.6,-58.6l58.7,0c31.2,0 56.6,24.3 58.5,55.1c0,1.1 0.1,2.3 0.1,3.5z" stroke-width="5" stroke-miterlimit="10" stroke-dasharray=""></path></g></svg>