<svg data-v-9833e8b2="" version="1.1" xmlns="http://www.w3.org/2000/svg" xmlns:xlink="http://www.w3.org/1999/xlink" width="25" height="15"><g data-v-9833e8b2=""><path data-v-9833e8b2="" transform="scale(0.13020833333333334)" fill="none" stroke="currentColor" paint-order="fill stroke markers" d="m176.2,29.5c0.4,3.1 0.6,6.3 0.6,9.5c0,44.6 -36.2,80.8 -80.8,80.8c-44.6,0 -80.8,-36.2 -80.8,-80.8c0,-3.2 0.2,-6.4 0.6,-9.5l160.4,0l0,0z" stroke-width="5" stroke-miterlimit="10" stroke-dasharray=""></path><path data-v-9833e8b2="" transform="scale(0.13020833333333334)" fill="none" stroke="currentColor" paint-order="fill stroke markers" d="m96,48.5c10.5,0 19,8.5 19,19l0,14.2c0,10.5 -8.5,19 -19,19c-10.5,0 -19,-8.5 -19,-19l0,-14.2c0,-10.5 8.5,-19 19,-19l0,0z" stroke-width="5" stroke-miterlimit="10" stroke-dasharray=""></path><path data-v-9833e8b2="" transform="scale(0.13020833333333334)" fill="none" stroke="currentColor" paint-order="fill stroke markers" d="m20,1l152,0c10.5,0 19,8.5 19,19c0,10.5 -8.5,19 -19,19l-152,0c-10.5,0 -19,-8.5 -19,-19c0,-10.5 8.5,-19 19,-19l0,0z" stroke-width="5" stroke-miterlimit="10" stroke-dasharray=""></path></g></svg>