<svg data-v-9833e8b2="" version="1.1" xmlns="http://www.w3.org/2000/svg" xmlns:xlink="http://www.w3.org/1999/xlink" width="19.5" height="25"><g data-v-9833e8b2=""><path data-v-9833e8b2="" transform="scale(0.13297872340425532)" fill="none" stroke="currentColor" paint-order="fill stroke markers" d="m9.9,178l15.7,0l0,9l-15.7,0l0,-9l0,0z" stroke-width="5" stroke-miterlimit="10" stroke-dasharray=""></path><path data-v-9833e8b2="" transform="scale(0.13297872340425532)" fill="none" stroke="currentColor" paint-order="fill stroke markers" d="m97.3,178l15.7,0l0,9l-15.7,0l0,-9l0,0z" stroke-width="5" stroke-miterlimit="10" stroke-dasharray=""></path><path data-v-9833e8b2="" transform="scale(0.13297872340425532)" fill="none" stroke="currentColor" paint-order="fill stroke markers" d="m9.9,14.4l103.1,0l0,163.6l-103.1,0l0,-163.6l0,0z" stroke-width="5" stroke-miterlimit="10" stroke-dasharray=""></path><path data-v-9833e8b2="" transform="scale(0.13297872340425532)" fill="none" stroke="currentColor" paint-order="fill stroke markers" d="m1,1l121,0l0,13.4l-121,0l0,-13.4l0,0z" stroke-width="5" stroke-miterlimit="10" stroke-dasharray=""></path><path data-v-9833e8b2="" transform="scale(0.13297872340425532)" fill="none" stroke="currentColor" paint-order="fill stroke markers" d="m18.9,27.9l38.1,0l0,65l-38.1,0l0,-65l0,0z" stroke-width="5" stroke-miterlimit="10" stroke-dasharray=""></path><path data-v-9833e8b2="" transform="scale(0.13297872340425532)" fill="none" stroke="currentColor" paint-order="fill stroke markers" d="m57,27.9l47.1,0l0,65l-47.1,0l0,-65l0,0z" stroke-width="5" stroke-miterlimit="10" stroke-dasharray=""></path></g></svg>