<svg data-v-9833e8b2="" version="1.1" xmlns="http://www.w3.org/2000/svg" xmlns:xlink="http://www.w3.org/1999/xlink" width="25" height="15"><g data-v-9833e8b2=""><path data-v-9833e8b2="" transform="scale(0.1366120218579235)" fill="none" stroke="currentColor" paint-order="fill stroke markers" d="m25,89.3l133.7,0l0,16l-133.7,0l0,-16l0,0z" stroke-width="5" stroke-miterlimit="10" stroke-dasharray=""></path><path data-v-9833e8b2="" transform="scale(0.1366120218579235)" fill="none" stroke="currentColor" paint-order="fill stroke markers" d="m39.7,1l2.7,0c3.7,0 6.7,2.7 6.7,6.1l0,44.8l-16,0l0,-44.8c0,-3.3 3,-6.1 6.6,-6.1l0,0z" stroke-width="5" stroke-miterlimit="10" stroke-dasharray=""></path><path data-v-9833e8b2="" transform="scale(0.1366120218579235)" fill="none" stroke="currentColor" paint-order="fill stroke markers" d="m141.4,1l2.7,0c3.7,0 6.7,2.7 6.7,6.1l0,44.8l-16,0l0,-44.8c-0.1,-3.3 2.9,-6.1 6.6,-6.1l0,0z" stroke-width="5" stroke-miterlimit="10" stroke-dasharray=""></path><path data-v-9833e8b2="" transform="scale(0.1366120218579235)" fill="none" stroke="currentColor" paint-order="fill stroke markers" d="m1,51.9l181.9,0l0,37.4l-181.9,0l0,-37.4l0,0z" stroke-width="5" stroke-miterlimit="10" stroke-dasharray=""></path><path data-v-9833e8b2="" transform="scale(0.1366120218579235)" fill="none" stroke="currentColor" paint-order="fill stroke markers" d="m25,62.6l16,0l0,16l-16,0l0,-16l0,0z" stroke-width="5" stroke-miterlimit="10" stroke-dasharray=""></path><path data-v-9833e8b2="" transform="scale(0.1366120218579235)" fill="none" stroke="currentColor" paint-order="fill stroke markers" d="m46.4,62.6l16,0l0,16l-16,0l0,-16l0,0z" stroke-width="5" stroke-miterlimit="10" stroke-dasharray=""></path><path data-v-9833e8b2="" transform="scale(0.1366120218579235)" fill="none" stroke="currentColor" paint-order="fill stroke markers" d="m67.8,62.6l16,0l0,16l-16,0l0,-16l0,0z" stroke-width="5" stroke-miterlimit="10" stroke-dasharray=""></path></g></svg>