<svg data-v-9833e8b2="" version="1.1" xmlns="http://www.w3.org/2000/svg" xmlns:xlink="http://www.w3.org/1999/xlink" width="25" height="17.5"><g data-v-9833e8b2=""><path data-v-9833e8b2="" transform="scale(0.08896797153024912)" fill="none" stroke="currentColor" paint-order="fill stroke markers" d="m72.77813,121.17506l0,0l66.22657,0c3.06094,0 5.55117,-2.5207 5.55117,-5.58125l0,0c0,-3.06094 -2.49063,-5.55117 -5.55117,-5.55117l-66.22657,0l0,0l-66.22657,0c-3.06094,0 -5.55156,2.49063 -5.55156,5.55117l0,0c0,3.06094 2.49063,5.58125 5.55156,5.58125l66.22657,0z" stroke-width="5" stroke-miterlimit="10" stroke-dasharray=""></path><path data-v-9833e8b2="" transform="scale(0.08896797153024912)" fill="none" stroke="currentColor" paint-order="fill stroke markers" d="m72.77813,110.04225l0,0l62.1754,0c3.99102,0 7.23164,-3.24063 7.23164,-7.20195l0,0c0,-3.99102 -3.24063,-7.23164 -7.23164,-7.23164l-62.1754,0l0,0l-62.17579,0c-3.96094,0 -7.23164,3.24063 -7.23164,7.23164l0,0c0,3.96094 3.2707,7.20195 7.23164,7.20195l62.17579,0z" stroke-width="5" stroke-miterlimit="10" stroke-dasharray=""></path><path data-v-9833e8b2="" transform="scale(0.08896797153024912)" fill="none" stroke="currentColor" paint-order="fill stroke markers" d="m72.77813,41.17506l0,0c36.66914,2.43047 58.03438,17.16445 62.1754,54.4336l-62.1754,0l0,0l-62.17579,0c4.14141,-37.26914 25.50664,-52.00274 62.17579,-54.4336l0,0z" stroke-width="5" stroke-miterlimit="10" stroke-dasharray=""></path><path data-v-9833e8b2="" transform="scale(0.08896797153024912)" fill="none" stroke="currentColor" paint-order="fill stroke markers" d="m72.77813,41.17506l0,0c5.73125,0.38984 11.10274,1.05039 16.08399,2.07031l0,52.36289l-16.08399,0l0,0l-16.08399,0l0,-52.3625c4.98125,-1.02031 10.35274,-1.68047 16.08399,-2.0707l0,0z" stroke-width="5" stroke-miterlimit="10" stroke-dasharray=""></path><path data-v-9833e8b2="" transform="scale(0.08896797153024912)" fill="none" stroke="currentColor" paint-order="fill stroke markers" d="m66.80664,33.43326l0,0c-3.2707,0 -5.94141,2.6707 -5.94141,5.94141l0,56.23399l11.91289,0l0,0l11.91289,0l0,-56.23399c0,-3.2707 -2.6707,-5.94141 -5.94141,-5.94141l0,0c-6.81172,0 -4.68125,0 -11.94297,0l0,0l0.00001,0z" stroke-width="5" stroke-miterlimit="10" stroke-dasharray=""></path><path data-v-9833e8b2="" transform="scale(0.08896797153024912)" fill="none" stroke="currentColor" paint-order="fill stroke markers" d="m72.77813,121.17506l0,0l-65.08633,0l0,3.63086l65.08633,0l0,0l65.08633,0l0,-3.63086l-65.08633,0z" stroke-width="5" stroke-miterlimit="10" stroke-dasharray=""></path><path data-v-9833e8b2="" transform="scale(0.08896797153024912)" fill="none" stroke="currentColor" paint-order="fill stroke markers" d="m49.34219,82.85553c2.04023,-5.94141 6.21133,-10.74258 11.52266,-13.65352l0,26.40664l11.91328,0l0,0l11.91289,0l0,-26.40664c5.31133,2.91055 9.48242,7.71211 11.52305,13.65352l3.39063,0c2.61094,0 4.77148,2.13047 4.77148,4.77109l0,9.0625c0,2.64063 -2.16055,4.80117 -4.77148,4.80117l-4.35117,0c-4.05117,8.67227 -12.7832,14.28359 -22.47539,14.28359c-9.69258,0 -18.42461,-5.61133 -22.47578,-14.28359l-4.35117,0c-2.61055,0 -4.77109,-2.16055 -4.77109,-4.80117l0,-9.0625c0,-2.64063 2.16055,-4.77109 4.77109,-4.77109l3.39102,0l-0.00002,0z" stroke-width="5" stroke-miterlimit="10" stroke-dasharray=""></path><path data-v-9833e8b2="" transform="scale(0.08896797153024912)" fill="none" stroke="currentColor" paint-order="fill stroke markers" d="m45.95157,85.01608l53.65313,0c1.44023,0 2.61094,1.17031 2.61094,2.61055l0,9.0625c0,1.44023 -1.17031,2.64063 -2.61094,2.64063l-53.65313,0c-1.44063,0 -2.61055,-1.20039 -2.61055,-2.64063l0,-9.0625c-0.00039,-1.44023 1.16992,-2.61055 2.61055,-2.61055l0,0z" stroke-width="5" stroke-miterlimit="10" stroke-dasharray=""></path><path data-v-9833e8b2="" transform="scale(0.08896797153024912)" fill="none" stroke="currentColor" paint-order="fill stroke markers" d="m72.77813,68.33209c12.51289,0 22.65547,10.14258 22.65547,22.65586c0,12.4832 -10.14258,22.62578 -22.65547,22.62578c-12.51328,0 -22.65586,-10.14258 -22.65586,-22.62578c0,-12.51367 10.14297,-22.65586 22.65586,-22.65586l0,0z" stroke-width="5" stroke-miterlimit="10" stroke-dasharray=""></path><path data-v-9833e8b2="" transform="scale(0.08896797153024912)" fill="none" stroke="currentColor" paint-order="fill stroke markers" d="m72.77813,75.11373c8.76211,0 15.84375,7.11172 15.84375,15.87422c0,8.73203 -7.08164,15.84414 -15.84375,15.84414c-8.76211,0 -15.84414,-7.11172 -15.84414,-15.84414c0.00039,-8.7625 7.08203,-15.87422 15.84414,-15.87422l0,0z" stroke-width="5" stroke-miterlimit="10" stroke-dasharray=""></path><path data-v-9833e8b2="" transform="scale(0.08896797153024912)" fill="none" stroke="currentColor" paint-order="fill stroke markers" d="m72.77813,75.11373c1.11016,0 2.19063,0.11992 3.24063,0.36016l-9.12227,30.21758c-2.55078,-1.02031 -4.74141,-2.6707 -6.45156,-4.77109l7.5918,-25.05625c1.50039,-0.48047 3.09102,-0.75039 4.74141,-0.75039l0,0l-0.00001,-0.00001zm7.71172,2.01016c1.08047,0.60039 2.0707,1.32031 2.9707,2.13047l-8.28203,27.39688c-0.78008,0.12031 -1.59023,0.18008 -2.40039,0.18008c-0.41992,0 -0.81016,-0.03008 -1.23047,-0.06016l8.94219,-29.64727z" stroke-width="5" stroke-miterlimit="10" stroke-dasharray=""></path><path data-v-9833e8b2="" transform="scale(0.08896797153024912)" fill="none" stroke="currentColor" paint-order="fill stroke markers" d="m56.5,157.93326c0.009,1.71884 0.05098,2.49036 0.44333,3.42233c0.242,0.57486 0.64108,1.20206 1.08,1.96799c0.25061,0.43732 1.11964,2.01797 1.45401,2.63901c0.35858,0.66599 0.74252,1.37512 1.16849,2.11652c0.44977,0.78281 0.93456,1.60037 1.48351,2.43149c1.17345,1.77658 1.86868,2.67383 2.60266,3.59467c0.7614,0.95526 1.58205,1.91833 2.45551,2.8905c0.90102,1.00284 1.85252,2.01465 2.8605,3.02551c2.09575,2.10175 3.23116,3.13962 4.38933,4.19064c1.17146,1.06308 2.36865,2.11108 3.5835,3.138c1.2079,1.02106 2.41608,2.01422 3.62851,2.95801c2.33244,1.81564 3.4796,2.62784 4.59866,3.39734c1.08722,0.74762 2.16925,1.44833 3.252,2.103c1.06946,0.64664 2.14964,1.26117 3.252,1.83301c2.23155,1.15762 3.40836,1.6795 4.604,2.20398c1.21138,0.53137 2.44847,1.03967 3.7065,1.52551c1.26602,0.48892 2.5464,0.95715 3.84151,1.3905c2.58711,0.86569 3.89403,1.24939 5.22665,1.58798c1.36726,0.34741 2.80981,0.64072 4.34851,0.83401c1.64452,0.20657 3.43581,0.32755 5.3835,0.29401c4.47496,-0.07703 7.03578,-0.41876 9.784,-0.82001c2.9212,-0.42648 5.96689,-1.00888 9.0825,-1.7865c3.19911,-0.79846 6.43369,-1.73529 9.5775,-3.0015c6.29305,-2.53461 9.18486,-4.32715 11.96933,-6.19867c2.78966,-1.87503 5.43698,-3.99438 7.974,-6.27899c2.56857,-2.31299 5.04181,-4.8071 7.43399,-7.44901c4.91159,-5.42432 7.23596,-8.3855 9.60535,-11.37466c2.3963,-3.02313 4.74667,-6.1217 7.04401,-9.28052c2.30011,-3.16266 4.5437,-6.35733 6.68399,-9.59549c4.2175,-6.3808 6.13431,-9.60266 7.99866,-12.79599c1.84586,-3.16165 3.60703,-6.34314 5.29651,-9.54602c1.68793,-3.19995 3.32095,-6.43781 4.89151,-9.72598c3.1835,-6.66507 4.68436,-10.10898 6.19199,-13.56001c1.49597,-3.42438 2.92786,-6.8015 4.2915,-10.08899c1.30664,-3.15002 2.51968,-6.13458 3.61649,-8.91901c1.88336,-4.78123 2.60574,-6.73264 3.20535,-8.40533c0.51257,-1.42989 0.92902,-2.66878 1.26151,-3.759c0.29709,-0.97421 0.54175,-1.88495 0.76648,-2.769c0.47125,-1.85384 0.72504,-2.90274 1.01468,-4.02666c0.30429,-1.18079 0.62274,-2.395 0.948,-3.621c0.32278,-1.21666 0.63998,-2.40121 0.948,-3.53101c0.54843,-2.01164 0.78607,-2.85268 0.99466,-3.584c0.18027,-0.63197 0.33838,-1.17343 0.474,-1.63499c0.11511,-0.39175 0.21506,-0.72267 0.29401,-1.005c0.1265,-0.45229 0.17114,-0.64197 0.20132,-0.808c0.02487,-0.13681 0.04858,-0.24643 0.02551,-0.312c-0.01181,-0.03358 -0.06247,-0.01941 -0.1095,0.04799c-0.18753,0.26886 -0.27475,0.51662 -0.40933,0.82401c-0.17209,0.39301 -0.37717,0.8902 -0.62701,1.50301c-0.3024,0.74174 -0.65845,1.62848 -1.077,2.67299c-1.04916,2.61821 -1.68689,4.21341 -2.39066,5.98001c-0.75998,1.9077 -1.56146,3.92822 -2.38651,6.0345c-0.8457,2.15904 -1.69608,4.34314 -2.52151,6.5295c-1.59897,4.2352 -2.31573,6.24373 -2.98398,8.16267c-0.63571,1.82555 -1.21774,3.56664 -1.74451,5.22449c-0.49811,1.56767 -0.95026,3.05241 -1.33951,4.4595c-0.70667,2.55447 -0.97183,3.72047 -1.20532,4.812c-0.2189,1.02338 -0.39746,1.99318 -0.53851,2.916c-0.13452,0.88 -0.23938,1.72968 -0.31348,2.556c-0.14426,1.60898 -0.17896,2.40938 -0.19601,3.20268c-0.01678,0.78082 -0.00577,1.54596 0.07199,2.28299c0.07507,0.71155 0.18393,1.40121 0.43201,2.013c0.46924,1.15714 0.92334,1.61676 1.40533,1.98801c0.49155,0.3786 1.09012,0.65274 1.746,0.81149c0.6955,0.16837 1.47159,0.22665 2.28601,0.13651c1.81522,-0.2009 2.78467,-0.58771 3.79465,-1.008c1.08331,-0.45081 2.19839,-1.04007 3.336,-1.75351c1.21359,-0.76111 2.45749,-1.65222 3.69601,-2.69849c2.70557,-2.28561 4.02338,-3.70335 5.392,-5.20001c1.43542,-1.56969 2.86447,-3.27481 4.28699,-5.1015c1.4772,-1.89691 2.94836,-3.9081 4.37701,-6.04649c2.98587,-4.46925 4.379,-6.89626 5.78534,-9.37201c1.42368,-2.50626 2.79254,-5.06279 4.10849,-7.644c1.30664,-2.56299 2.55167,-5.11401 3.70349,-7.644c2.20059,-4.83359 3.12909,-7.15468 3.996,-9.38133c0.82971,-2.1311 1.57416,-4.19165 2.23801,-6.183c0.63684,-1.91035 1.20764,-3.75908 1.698,-5.55301c0.9277,-3.39404 1.27768,-5.02814 1.60934,-6.608c0.32095,-1.52896 0.59705,-3.01712 0.8385,-4.46399c0.23428,-1.4039 0.43695,-2.77159 0.61349,-4.104c0.33929,-2.56068 0.47235,-3.7973 0.604,-5.00267c0.1283,-1.17465 0.24365,-2.31966 0.345,-3.435c0.09857,-1.08469 0.1861,-2.13957 0.255,-3.16499c0.13165,-1.95926 0.1713,-2.89445 0.19733,-3.79733c0.02505,-0.8685 0.03223,-1.70163 0.00598,-2.496c-0.02496,-0.75508 -0.06635,-1.47105 -0.17398,-2.136c-0.19525,-1.20598 -0.38568,-1.73296 -0.60535,-2.20401c-0.21039,-0.45119 -0.48111,-0.86162 -0.80399,-1.22249c-0.32825,-0.36688 -0.71921,-0.70093 -1.164,-0.9975c-0.97507,-0.65013 -1.57269,-0.91705 -2.20267,-1.20401c-0.66992,-0.30515 -1.39584,-0.59312 -2.17502,-0.86099c-0.8208,-0.28217 -1.69504,-0.54695 -2.625,-0.77101c-1.9903,-0.47952 -3.07108,-0.63684 -4.17999,-0.79999c-1.12616,-0.16568 -2.25961,-0.30226 -3.38251,-0.429c-1.09711,-0.12383 -2.15543,-0.22881 -3.1575,-0.339c-1.78076,-0.19582 -2.5332,-0.29794 -3.19998,-0.40134c-0.59814,-0.09274 -1.13995,-0.19093 -1.64252,-0.2805c-0.47742,-0.08508 -0.94379,-0.17195 -1.41748,-0.23549c-1.01779,-0.13652 -1.59317,-0.17079 -2.20801,-0.196c-0.64624,-0.0265 -1.31631,-0.0312 -1.99951,-0.00601c-0.6889,0.02541 -1.37616,0.0697 -2.04449,0.17401c-1.27557,0.19908 -1.85504,0.38905 -2.38934,0.59999c-0.51028,0.20145 -0.97922,0.44588 -1.39948,0.726c-0.40524,0.27013 -0.77405,0.57008 -1.0845,0.90601c-0.59711,0.64604 -0.80698,1.02617 -1.00534,1.39333c-0.19461,0.36023 -0.35376,0.72975 -0.4935,1.09651c-0.13617,0.35739 -0.24911,0.71095 -0.35849,1.0515c-0.20425,0.63593 -0.30243,0.92702 -0.40268,1.2c-0.09549,0.26001 -0.19208,0.50748 -0.28049,0.7485c-0.08621,0.23499 -0.17035,0.46704 -0.2355,0.70349c-0.13239,0.48044 -0.16705,0.73792 -0.20132,0.99867c-0.03442,0.26195 -0.05817,0.52271 -0.08401,0.77699c-0.02484,0.24438 -0.04395,0.47614 -0.08401,0.68701c-0.06796,0.35776 -0.12894,0.49547 -0.19998,0.59866c-0.06174,0.08968 -0.13794,0.15408 -0.216,0.1935c-0.07202,0.03635 -0.14694,0.05257 -0.216,0.0585c-0.11697,0.01006 -0.16251,0.004 -0.19867,0.004c-0.02817,0 -0.04932,0 -0.06448,0c-0.01016,0 -0.01636,0 -0.0195,0c-0.00134,0 -0.00217,0 -0.008,0c-0.01584,0 -0.04669,0 -0.0975,0c-0.07584,0 -0.18167,0 -0.32251,0c-0.40668,0 -0.68066,0 -0.99866,0c-0.35602,0 -0.74402,0 -1.15802,0c-0.43399,0 -0.88199,0 -1.33798,0c-0.91202,0 -1.35751,0 -1.79602,0c-0.43448,0 -0.86798,0 -1.3035,0c-0.44049,0 -0.88898,0 -1.34848,0c-0.96402,0 -1.47351,0 -2,0c-0.5405,0 -1.09201,0 -1.65152,0c-0.56448,0 -1.13098,0 -1.6965,0c-1.116,0 -1.66116,0 -2.19733,0c-0.52817,0 -1.04932,0 -1.56448,0c-0.51016,0 -1.01636,0 -1.5195,0c-1.00134,0 -1.50085,0 -1.99734,0c-0.49051,0 -0.97198,0 -1.4415,0c-0.4545,0 -0.89099,0 -1.30649,0c-0.75601,0 -1.09119,0.00099 -1.39734,-0.00133c-0.27817,-0.00212 -0.52951,-0.00591 -0.75452,-0.0195c-0.20038,-0.01212 -0.37872,-0.02544 -0.52948,-0.0645c-0.24652,-0.06387 -0.33725,-0.13008 -0.40402,-0.19867c-0.06195,-0.06363 -0.10321,-0.13965 -0.129,-0.216c-0.02478,-0.0733 -0.03503,-0.14716 -0.039,-0.216c-0.00674,-0.11716 -0.0014,-0.16257 -0.004,-0.19867c-0.00204,-0.02827 -0.00659,-0.05159 -0.0195,-0.0645c-0.01291,-0.01291 -0.03619,-0.01768 -0.06448,-0.0195c-0.08118,-0.00522 -0.13602,-0.00133 -0.19867,-0.00133c-0.06866,0 -0.14133,0 -0.216,0c-0.07468,0 -0.14734,0 -0.216,0c-0.11734,0 -0.16272,0.00113 -0.19998,-0.00133c-0.03143,-0.00208 -0.05957,-0.00737 -0.08401,-0.0195c-0.02646,-0.01312 -0.05331,-0.03563 -0.08401,-0.0645c-0.08447,-0.07945 -0.13733,-0.136 -0.19998,-0.19867c-0.06866,-0.06866 -0.14133,-0.14134 -0.216,-0.216l-0.07468,-0.07466l-0.07266,-0.07268l-0.06866,-0.06866" stroke-width="5" stroke-miterlimit="10" stroke-dasharray=""></path></g></svg>