<svg data-v-9833e8b2="" version="1.1" xmlns="http://www.w3.org/2000/svg" xmlns:xlink="http://www.w3.org/1999/xlink" width="25" height="22.5"><g data-v-9833e8b2=""><path data-v-9833e8b2="" transform="scale(0.027870680044593088)" fill="none" stroke="currentColor" paint-order="fill stroke markers" d="m449.11205,479.5755a32,32 0 0 1 -22.72,-9.28l-192,-192a32,32 0 0 1 45.44,-45.44l192,192a32,32 0 0 1 0,45.44a32,32 0 0 1 -22.72,9.28zm-256,285.76a32,32 0 0 1 -21.76,-8.64l21.76,-23.36l-23.04,22.08a32,32 0 1 1 40.64,-48.64l3.52,2.88a32,32 0 0 1 -21.12,55.68zm521.6,-7.68a32,32 0 0 1 -23.36,-9.92a32,32 0 0 1 0,-45.12a32,32 0 0 1 45.76,0.96a32,32 0 0 1 0,44.16l-2.24,2.24a32,32 0 0 1 -20.8,7.68l0.64,0zm-602.56,-96a32,32 0 0 1 -28.16,-16.96l0,-1.92a32,32 0 0 1 12.16,-43.52a32,32 0 0 1 43.52,11.84l1.92,3.52a32,32 0 0 1 -13.12,43.52a32,32 0 0 1 -16.96,4.48l0.64,-0.96zm680.32,-9.6a32,32 0 0 1 -28.8,-44.48a32,32 0 0 1 43.2,-16a32,32 0 0 1 15.36,41.92l-2.24,4.16a32,32 0 0 1 -28.16,15.36l0.64,-0.96zm-722.88,-112.96a32,32 0 0 1 -32,-27.2l32,-4.8l-32,2.56a32,32 0 0 1 64,-11.52l0,4.16a32,32 0 0 1 -26.88,36.48l-5.12,0.32zm760.64,-11.2l-3.84,0a32,32 0 0 1 -28.16,-35.52l0,-3.2a32,32 0 1 1 64,7.36l0,3.2a32,32 0 0 1 -32,28.16zm-758.72,-120.32l-5.12,0a32,32 0 0 1 -26.24,-35.84l0,-4.16a32,32 0 1 1 64,13.12a32,32 0 0 1 -32.64,26.88zm752.32,-10.56a32,32 0 0 1 -32,-24a32,32 0 0 1 23.36,-40a32,32 0 0 1 38.4,22.08l0,2.24a32,32 0 0 1 -20.48,38.72l-9.28,0.96zm-706.88,-112a29.76,29.76 0 0 1 -14.72,-3.84a32,32 0 0 1 -12.8,-42.56l1.92,-3.52a32,32 0 1 1 55.04,32a34.24,34.24 0 0 1 -29.44,17.92zm658.24,-8.32a32,32 0 0 1 -26.56,-14.08l-2.24,-3.84a32,32 0 0 1 54.4,-32l-27.2,16.96l27.52,-16.96a32,32 0 0 1 -8.64,44.48a32,32 0 0 1 -17.28,5.44zm-573.12,-91.84a32,32 0 0 1 -24,-10.88a32,32 0 0 1 2.56,-44.16l2.24,-2.24a32,32 0 1 1 42.24,49.28a34.56,34.56 0 0 1 -23.04,8zm486.4,-5.76a32,32 0 0 1 -19.84,-6.72l-2.24,-1.92a32,32 0 1 1 38.72,-50.56l2.56,1.92a32,32 0 0 1 -19.52,57.28l0.32,0zm-374.72,-58.88a32,32 0 0 1 -11.2,-62.08l2.88,0a32,32 0 1 1 22.4,59.84l-2.88,0a35.84,35.84 0 0 1 -11.2,2.24zm260.16,-3.84a33.92,33.92 0 0 1 -9.92,-1.6l-3.2,0a32,32 0 1 1 20.16,-60.48l1.92,0a32,32 0 0 1 20.8,41.28a32,32 0 0 1 -29.76,20.8zm-128,-20.8a32,32 0 0 1 -32,-32a32,32 0 0 1 29.76,-32l2.24,0a32,32 0 0 1 32,32a32,32 0 0 1 -32,32z" stroke-width="5" stroke-miterlimit="10" stroke-dasharray=""></path><path data-v-9833e8b2="" transform="scale(0.027870680044593088)" fill="none" stroke="currentColor" paint-order="fill stroke markers" d="m705.11205,808.8555a32,32 0 0 1 -25.28,-12.48a32,32 0 0 1 5.76,-44.8a384,384 0 1 0 -473.92,-3.52a32,32 0 1 1 -41.6,51.52a448,448 0 1 1 552.96,3.84a32,32 0 0 1 -17.92,5.44z" stroke-width="5" stroke-miterlimit="10" stroke-dasharray=""></path><path data-v-9833e8b2="" transform="scale(0.027870680044593088)" fill="none" stroke="currentColor" paint-order="fill stroke markers" d="m449.11205,447.5755m-64,0a64,64 0 1 0 128,0a64,64 0 1 0 -128,0z" stroke-width="5" stroke-miterlimit="10" stroke-dasharray=""></path></g></svg>