<svg data-v-9833e8b2="" version="1.1" xmlns="http://www.w3.org/2000/svg" xmlns:xlink="http://www.w3.org/1999/xlink" width="7" height="25"><g data-v-9833e8b2=""><path data-v-9833e8b2="" transform="scale(0.08223684210526316)" fill="none" stroke="currentColor" paint-order="fill stroke markers" d="m1,290l60,0l0,13l-60,0l0,-13z" stroke-width="5" stroke-miterlimit="10" stroke-dasharray=""></path><path data-v-9833e8b2="" transform="scale(0.08223684210526316)" fill="none" stroke="currentColor" paint-order="fill stroke markers" d="m16,13l30,0l0,4l-30,0l0,-4z" stroke-width="5" stroke-miterlimit="10" stroke-dasharray=""></path><path data-v-9833e8b2="" transform="scale(0.08223684210526316)" fill="none" stroke="currentColor" paint-order="fill stroke markers" d="m16,5l30,0l0,4l-30,0l0,-4z" stroke-width="5" stroke-miterlimit="10" stroke-dasharray=""></path><path data-v-9833e8b2="" transform="scale(0.08223684210526316)" fill="none" stroke="currentColor" paint-order="fill stroke markers" d="m44.07602,19l9.84496,254l-45.84196,0l9.84496,-254l26.15204,0z" stroke-width="5" stroke-miterlimit="10" stroke-dasharray=""></path><path data-v-9833e8b2="" transform="scale(0.08223684210526316)" fill="none" stroke="currentColor" paint-order="fill stroke markers" d="m6,275l50,0l0,10l-50,0l0,-10z" stroke-width="5" stroke-miterlimit="10" stroke-dasharray=""></path><path data-v-9833e8b2="" transform="scale(0.08223684210526316)" fill="none" stroke="currentColor" paint-order="fill stroke markers" d="m6,285l50,0l0,4l-50,0l0,-4z" stroke-width="5" stroke-miterlimit="10" stroke-dasharray=""></path><path data-v-9833e8b2="" transform="scale(0.08223684210526316)" fill="none" stroke="currentColor" paint-order="fill stroke markers" d="m16,1l30,0l0,4l-30,0l0,-4z" stroke-width="5" stroke-miterlimit="10" stroke-dasharray=""></path><path data-v-9833e8b2="" transform="scale(0.08223684210526316)" fill="none" stroke="currentColor" paint-order="fill stroke markers" d="m16,9l30,0l0,4l-30,0l0,-4z" stroke-width="5" stroke-miterlimit="10" stroke-dasharray=""></path></g></svg>