<svg data-v-9833e8b2="" version="1.1" xmlns="http://www.w3.org/2000/svg" xmlns:xlink="http://www.w3.org/1999/xlink" width="14.5" height="25"><g data-v-9833e8b2=""><path data-v-9833e8b2="" transform="scale(0.03238341968911917)" fill="none" stroke="currentColor" paint-order="fill stroke markers" d="m300.87868,66.86649l41.01219,41.01219l-30.50287,30.50132l17.612,13.62l22.81,120l0.19,0l-0.126,0.336l0.126,0.664l-0.376,0l-49.624,132l0,217l-0.16456,0l58.16456,149l-332,0l58.16456,-149l-0.16456,0l0,-217l-49.624,-132l-0.376,0l0.126,-0.664l-0.126,-0.336l0.19,0l1.786,-9.396l-29.6953,-29.69588l0.08745,-0.08672c-2.02968,-2.60674 -3.27017,-5.85823 -3.36259,-9.39557l-0.00556,-0.42583l0,-46l-4,0l0,-4l40,0l0,4l-4,0l0,39.372l8.204,8.204l13.796,-72.576l75,-58l120,0l11.134,8.61l35.74468,-35.74351zm-54.87868,-63.86649l0,8l-6,0l0,56l0.1157,0l13.8843,26l-120,0l14,-26l0,-56l-6,0l0,-8l104,0z" stroke-width="5" stroke-miterlimit="10" stroke-dasharray=""></path><path data-v-9833e8b2="" transform="scale(0.03238341968911917)" fill="none" stroke="currentColor" paint-order="fill stroke markers" d="m84,617l216,0l0,4l-216,0l0,-4z" stroke-width="5" stroke-miterlimit="10" stroke-dasharray=""></path><path data-v-9833e8b2="" transform="scale(0.03238341968911917)" fill="none" stroke="currentColor" paint-order="fill stroke markers" d="m134,91l120,0l0,4l-120,0l0,-4z" stroke-width="5" stroke-miterlimit="10" stroke-dasharray=""></path><path data-v-9833e8b2="" transform="scale(0.03238341968911917)" fill="none" stroke="currentColor" paint-order="fill stroke markers" d="m148,65l92,0l0,4l-92,0l0,-4z" stroke-width="5" stroke-miterlimit="10" stroke-dasharray=""></path><path data-v-9833e8b2="" transform="scale(0.03238341968911917)" fill="none" stroke="currentColor" paint-order="fill stroke markers" d="m106,145l176,0l0,4l-176,0l0,-4z" stroke-width="5" stroke-miterlimit="10" stroke-dasharray=""></path><path data-v-9833e8b2="" transform="scale(0.03238341968911917)" fill="none" stroke="currentColor" paint-order="fill stroke markers" d="m169,95l50,0l0,50l-50,0l0,-50z" stroke-width="5" stroke-miterlimit="10" stroke-dasharray=""></path><path data-v-9833e8b2="" transform="scale(0.03238341968911917)" fill="none" stroke="currentColor" paint-order="fill stroke markers" d="m169,333l50,0l0,172l-50,0l0,-172z" stroke-width="5" stroke-miterlimit="10" stroke-dasharray=""></path><path data-v-9833e8b2="" transform="scale(0.03238341968911917)" fill="none" stroke="currentColor" paint-order="fill stroke markers" d="m106,267l176,0l-63,62l-50,0l-63,-62z" stroke-width="5" stroke-miterlimit="10" stroke-dasharray=""></path><path data-v-9833e8b2="" transform="scale(0.03238341968911917)" fill="none" stroke="currentColor" paint-order="fill stroke markers" d="m106,621l176,0l0,8l-176,0l0,-8z" stroke-width="5" stroke-miterlimit="10" stroke-dasharray=""></path><path data-v-9833e8b2="" transform="scale(0.03238341968911917)" fill="none" stroke="currentColor" paint-order="fill stroke markers" d="m90,633l208,0l0,8l-208,0l0,-8z" stroke-width="5" stroke-miterlimit="10" stroke-dasharray=""></path><path data-v-9833e8b2="" transform="scale(0.03238341968911917)" fill="none" stroke="currentColor" paint-order="fill stroke markers" d="m83,747l222,0l0,8l-222,0l0,-8z" stroke-width="5" stroke-miterlimit="10" stroke-dasharray=""></path><path data-v-9833e8b2="" transform="scale(0.03238341968911917)" fill="none" stroke="currentColor" paint-order="fill stroke markers" d="m61,759l266,0l0,8l-266,0l0,-8z" stroke-width="5" stroke-miterlimit="10" stroke-dasharray=""></path><path data-v-9833e8b2="" transform="scale(0.03238341968911917)" fill="none" stroke="currentColor" paint-order="fill stroke markers" d="m106,509l32,0l0,20l-32,0l0,-20z" stroke-width="5" stroke-miterlimit="10" stroke-dasharray=""></path><path data-v-9833e8b2="" transform="scale(0.03238341968911917)" fill="none" stroke="currentColor" paint-order="fill stroke markers" d="m142,509l32,0l0,20l-32,0l0,-20z" stroke-width="5" stroke-miterlimit="10" stroke-dasharray=""></path><path data-v-9833e8b2="" transform="scale(0.03238341968911917)" fill="none" stroke="currentColor" paint-order="fill stroke markers" d="m178,509l32,0l0,20l-32,0l0,-20z" stroke-width="5" stroke-miterlimit="10" stroke-dasharray=""></path><path data-v-9833e8b2="" transform="scale(0.03238341968911917)" fill="none" stroke="currentColor" paint-order="fill stroke markers" d="m214,509l32,0l0,20l-32,0l0,-20z" stroke-width="5" stroke-miterlimit="10" stroke-dasharray=""></path><path data-v-9833e8b2="" transform="scale(0.03238341968911917)" fill="none" stroke="currentColor" paint-order="fill stroke markers" d="m250,509l32,0l0,20l-32,0l0,-20z" stroke-width="5" stroke-miterlimit="10" stroke-dasharray=""></path><path data-v-9833e8b2="" transform="scale(0.03238341968911917)" fill="none" stroke="currentColor" paint-order="fill stroke markers" d="m106,533l176,0l-32.23207,41.32317c-4.38591,5.62296 -6.76793,12.54983 -6.76793,19.68102l0,22.99581l0,0l-98.2746,0l0,-23.05703c0,-7.09366 -2.35704,-13.98625 -6.70069,-19.59452l-32.02471,-41.34845l0,0z" stroke-width="5" stroke-miterlimit="10" stroke-dasharray=""></path><path data-v-9833e8b2="" transform="scale(0.03238341968911917)" fill="none" stroke="currentColor" paint-order="fill stroke markers" d="m188,399l110,0l0,32l-110,0l0,-32z" stroke-width="5" stroke-miterlimit="10" stroke-dasharray=""></path><path data-v-9833e8b2="" transform="scale(0.03238341968911917)" fill="none" stroke="currentColor" paint-order="fill stroke markers" d="m260,399l110,0l0,32l-110,0l0,-32z" stroke-width="5" stroke-miterlimit="10" stroke-dasharray=""></path><path data-v-9833e8b2="" transform="scale(0.03238341968911917)" fill="none" stroke="currentColor" paint-order="fill stroke markers" d="m332,399l110,0l0,32l-110,0l0,-32z" stroke-width="5" stroke-miterlimit="10" stroke-dasharray=""></path><path data-v-9833e8b2="" transform="scale(0.03238341968911917)" fill="none" stroke="currentColor" paint-order="fill stroke markers" d="m404,399l110,0l0,32l-110,0l0,-32z" stroke-width="5" stroke-miterlimit="10" stroke-dasharray=""></path><path data-v-9833e8b2="" transform="scale(0.03238341968911917)" fill="none" stroke="currentColor" paint-order="fill stroke markers" d="m476,399l110,0l0,32l-110,0l0,-32z" stroke-width="5" stroke-miterlimit="10" stroke-dasharray=""></path><path data-v-9833e8b2="" transform="scale(0.03238341968911917)" fill="none" stroke="currentColor" paint-order="fill stroke markers" d="m179,435l-25,62l-39,0l37,-90l27,28z" stroke-width="5" stroke-miterlimit="10" stroke-dasharray=""></path><path data-v-9833e8b2="" transform="scale(0.03238341968911917)" fill="none" stroke="currentColor" paint-order="fill stroke markers" d="m118,419l-19,47l20.71592,19.72l27.42678,-66.72l-29.1427,0z" stroke-width="5" stroke-miterlimit="10" stroke-dasharray=""></path><path data-v-9833e8b2="" transform="scale(0.03238341968911917)" fill="none" stroke="currentColor" paint-order="fill stroke markers" d="m179,435l-25,62l-39,0l37,-90l27,28z" stroke-width="5" stroke-miterlimit="10" stroke-dasharray=""></path><path data-v-9833e8b2="" transform="scale(0.03238341968911917)" fill="none" stroke="currentColor" paint-order="fill stroke markers" d="m118,419l-19,47l20.71592,19.72l27.42678,-66.72l-29.1427,0z" stroke-width="5" stroke-miterlimit="10" stroke-dasharray=""></path><path data-v-9833e8b2="" transform="scale(0.03238341968911917)" fill="none" stroke="currentColor" paint-order="fill stroke markers" d="m79,29l-25,62l-39,0l37,-90l27,28z" stroke-width="5" stroke-miterlimit="10" stroke-dasharray=""></path><path data-v-9833e8b2="" transform="scale(0.03238341968911917)" fill="none" stroke="currentColor" paint-order="fill stroke markers" d="m18,13l-19,47l20.71592,19.72l27.42678,-66.72l-29.1427,0z" stroke-width="5" stroke-miterlimit="10" stroke-dasharray=""></path><path data-v-9833e8b2="" transform="scale(0.03238341968911917)" fill="none" stroke="currentColor" paint-order="fill stroke markers" d="m79,29l-25,62l-39,0l37,-90l27,28z" stroke-width="5" stroke-miterlimit="10" stroke-dasharray=""></path><path data-v-9833e8b2="" transform="scale(0.03238341968911917)" fill="none" stroke="currentColor" paint-order="fill stroke markers" d="m18,13l-19,47l20.71592,19.72l27.42678,-66.72l-29.1427,0z" stroke-width="5" stroke-miterlimit="10" stroke-dasharray=""></path><path data-v-9833e8b2="" transform="scale(0.03238341968911917)" fill="none" stroke="currentColor" paint-order="fill stroke markers" d="m148.9099,478.35355l0,118m-31.8198,-0.7071l0,-118" stroke-width="5" stroke-miterlimit="10" stroke-dasharray=""></path><path data-v-9833e8b2="" transform="scale(0.03238341968911917)" fill="none" stroke="currentColor" paint-order="fill stroke markers" d="m90,645l208,0l0,98l-208,0l0,-98z" stroke-width="5" stroke-miterlimit="10" stroke-dasharray=""></path><path data-v-9833e8b2="" transform="scale(0.03238341968911917)" fill="none" stroke="currentColor" paint-order="fill stroke markers" d="m90,705l208,0l0,2l-208,0l0,-2z" stroke-width="5" stroke-miterlimit="10" stroke-dasharray=""></path><path data-v-9833e8b2="" transform="scale(0.03238341968911917)" fill="none" stroke="currentColor" paint-order="fill stroke markers" d="m90,711l208,0l0,2l-208,0l0,-2z" stroke-width="5" stroke-miterlimit="10" stroke-dasharray=""></path><path data-v-9833e8b2="" transform="scale(0.03238341968911917)" fill="none" stroke="currentColor" paint-order="fill stroke markers" d="m142,700l52,0l0,2l-52,0l0,-2z" stroke-width="5" stroke-miterlimit="10" stroke-dasharray=""></path><path data-v-9833e8b2="" transform="scale(0.03238341968911917)" fill="none" stroke="currentColor" paint-order="fill stroke markers" d="m154,700l52,0l0,2l-52,0l0,-2z" stroke-width="5" stroke-miterlimit="10" stroke-dasharray=""></path><path data-v-9833e8b2="" transform="scale(0.03238341968911917)" fill="none" stroke="currentColor" paint-order="fill stroke markers" d="m198,700l52,0l0,2l-52,0l0,-2z" stroke-width="5" stroke-miterlimit="10" stroke-dasharray=""></path><path data-v-9833e8b2="" transform="scale(0.03238341968911917)" fill="none" stroke="currentColor" paint-order="fill stroke markers" d="m210,700l52,0l0,2l-52,0l0,-2z" stroke-width="5" stroke-miterlimit="10" stroke-dasharray=""></path><path data-v-9833e8b2="" transform="scale(0.03238341968911917)" fill="none" stroke="currentColor" paint-order="fill stroke markers" d="m254,700l52,0l0,2l-52,0l0,-2z" stroke-width="5" stroke-miterlimit="10" stroke-dasharray=""></path><path data-v-9833e8b2="" transform="scale(0.03238341968911917)" fill="none" stroke="currentColor" paint-order="fill stroke markers" d="m266,700l52,0l0,2l-52,0l0,-2z" stroke-width="5" stroke-miterlimit="10" stroke-dasharray=""></path><path data-v-9833e8b2="" transform="scale(0.03238341968911917)" fill="none" stroke="currentColor" paint-order="fill stroke markers" d="m310,700l52,0l0,2l-52,0l0,-2z" stroke-width="5" stroke-miterlimit="10" stroke-dasharray=""></path><path data-v-9833e8b2="" transform="scale(0.03238341968911917)" fill="none" stroke="currentColor" paint-order="fill stroke markers" d="m322,700l52,0l0,2l-52,0l0,-2z" stroke-width="5" stroke-miterlimit="10" stroke-dasharray=""></path><path data-v-9833e8b2="" transform="scale(0.03238341968911917)" fill="none" stroke="currentColor" paint-order="fill stroke markers" d="m366,700l52,0l0,2l-52,0l0,-2z" stroke-width="5" stroke-miterlimit="10" stroke-dasharray=""></path><path data-v-9833e8b2="" transform="scale(0.03238341968911917)" fill="none" stroke="currentColor" paint-order="fill stroke markers" d="m378,700l52,0l0,2l-52,0l0,-2z" stroke-width="5" stroke-miterlimit="10" stroke-dasharray=""></path><path data-v-9833e8b2="" transform="scale(0.03238341968911917)" fill="none" stroke="currentColor" paint-order="fill stroke markers" d="m422,700l52,0l0,2l-52,0l0,-2z" stroke-width="5" stroke-miterlimit="10" stroke-dasharray=""></path><path data-v-9833e8b2="" transform="scale(0.03238341968911917)" fill="none" stroke="currentColor" paint-order="fill stroke markers" d="m434,700l52,0l0,2l-52,0l0,-2z" stroke-width="5" stroke-miterlimit="10" stroke-dasharray=""></path><path data-v-9833e8b2="" transform="scale(0.03238341968911917)" fill="none" stroke="currentColor" paint-order="fill stroke markers" d="m86,700l52,0l0,2l-52,0l0,-2z" stroke-width="5" stroke-miterlimit="10" stroke-dasharray=""></path><path data-v-9833e8b2="" transform="scale(0.03238341968911917)" fill="none" stroke="currentColor" paint-order="fill stroke markers" d="m98,700l52,0l0,2l-52,0l0,-2z" stroke-width="5" stroke-miterlimit="10" stroke-dasharray=""></path><path data-v-9833e8b2="" transform="scale(0.03238341968911917)" fill="none" stroke="currentColor" paint-order="fill stroke markers" d="m157,738l22,0l0,2l-22,0l0,-2z" stroke-width="5" stroke-miterlimit="10" stroke-dasharray=""></path><path data-v-9833e8b2="" transform="scale(0.03238341968911917)" fill="none" stroke="currentColor" paint-order="fill stroke markers" d="m169,738l22,0l0,2l-22,0l0,-2z" stroke-width="5" stroke-miterlimit="10" stroke-dasharray=""></path><path data-v-9833e8b2="" transform="scale(0.03238341968911917)" fill="none" stroke="currentColor" paint-order="fill stroke markers" d="m213,738l22,0l0,2l-22,0l0,-2z" stroke-width="5" stroke-miterlimit="10" stroke-dasharray=""></path><path data-v-9833e8b2="" transform="scale(0.03238341968911917)" fill="none" stroke="currentColor" paint-order="fill stroke markers" d="m225,738l22,0l0,2l-22,0l0,-2z" stroke-width="5" stroke-miterlimit="10" stroke-dasharray=""></path><path data-v-9833e8b2="" transform="scale(0.03238341968911917)" fill="none" stroke="currentColor" paint-order="fill stroke markers" d="m269,738l22,0l0,2l-22,0l0,-2z" stroke-width="5" stroke-miterlimit="10" stroke-dasharray=""></path><path data-v-9833e8b2="" transform="scale(0.03238341968911917)" fill="none" stroke="currentColor" paint-order="fill stroke markers" d="m281,738l22,0l0,2l-22,0l0,-2z" stroke-width="5" stroke-miterlimit="10" stroke-dasharray=""></path><path data-v-9833e8b2="" transform="scale(0.03238341968911917)" fill="none" stroke="currentColor" paint-order="fill stroke markers" d="m325,738l22,0l0,2l-22,0l0,-2z" stroke-width="5" stroke-miterlimit="10" stroke-dasharray=""></path><path data-v-9833e8b2="" transform="scale(0.03238341968911917)" fill="none" stroke="currentColor" paint-order="fill stroke markers" d="m337,738l22,0l0,2l-22,0l0,-2z" stroke-width="5" stroke-miterlimit="10" stroke-dasharray=""></path><path data-v-9833e8b2="" transform="scale(0.03238341968911917)" fill="none" stroke="currentColor" paint-order="fill stroke markers" d="m381,738l22,0l0,2l-22,0l0,-2z" stroke-width="5" stroke-miterlimit="10" stroke-dasharray=""></path><path data-v-9833e8b2="" transform="scale(0.03238341968911917)" fill="none" stroke="currentColor" paint-order="fill stroke markers" d="m393,738l22,0l0,2l-22,0l0,-2z" stroke-width="5" stroke-miterlimit="10" stroke-dasharray=""></path><path data-v-9833e8b2="" transform="scale(0.03238341968911917)" fill="none" stroke="currentColor" paint-order="fill stroke markers" d="m437,738l22,0l0,2l-22,0l0,-2z" stroke-width="5" stroke-miterlimit="10" stroke-dasharray=""></path><path data-v-9833e8b2="" transform="scale(0.03238341968911917)" fill="none" stroke="currentColor" paint-order="fill stroke markers" d="m449,738l22,0l0,2l-22,0l0,-2z" stroke-width="5" stroke-miterlimit="10" stroke-dasharray=""></path><path data-v-9833e8b2="" transform="scale(0.03238341968911917)" fill="none" stroke="currentColor" paint-order="fill stroke markers" d="m101,738l22,0l0,2l-22,0l0,-2z" stroke-width="5" stroke-miterlimit="10" stroke-dasharray=""></path><path data-v-9833e8b2="" transform="scale(0.03238341968911917)" fill="none" stroke="currentColor" paint-order="fill stroke markers" d="m113,738l22,0l0,2l-22,0l0,-2z" stroke-width="5" stroke-miterlimit="10" stroke-dasharray=""></path><path data-v-9833e8b2="" transform="scale(0.03238341968911917)" fill="none" stroke="currentColor" paint-order="fill stroke markers" d="m58,551l28,-20l0,74l-28,-20l0,-34z" stroke-width="5" stroke-miterlimit="10" stroke-dasharray=""></path><path data-v-9833e8b2="" transform="scale(0.03238341968911917)" fill="none" stroke="currentColor" paint-order="fill stroke markers" d="m330,439l-28,-20l0,74l28,-20l0,-34z" stroke-width="5" stroke-miterlimit="10" stroke-dasharray=""></path><path data-v-9833e8b2="" transform="scale(0.03238341968911917)" fill="none" stroke="currentColor" paint-order="fill stroke markers" d="m58,439l28,-20l0,74l-28,-20l0,-34z" stroke-width="5" stroke-miterlimit="10" stroke-dasharray=""></path><path data-v-9833e8b2="" transform="scale(0.03238341968911917)" fill="none" stroke="currentColor" paint-order="fill stroke markers" d="m58,439l28,-20l0,74l-28,-20l0,-34z" stroke-width="5" stroke-miterlimit="10" stroke-dasharray=""></path><path data-v-9833e8b2="" transform="scale(0.03238341968911917)" fill="none" stroke="currentColor" paint-order="fill stroke markers" d="m58,551l28,-20l0,74l-28,-20l0,-34z" stroke-width="5" stroke-miterlimit="10" stroke-dasharray=""></path><path data-v-9833e8b2="" transform="scale(0.03238341968911917)" fill="none" stroke="currentColor" paint-order="fill stroke markers" d="m330,439l-28,-20l0,74l28,-20l0,-34z" stroke-width="5" stroke-miterlimit="10" stroke-dasharray=""></path><path data-v-9833e8b2="" transform="scale(0.03238341968911917)" fill="none" stroke="currentColor" paint-order="fill stroke markers" d="m181,382.44152c0,-0.95509 0.77363,-1.72872 1.72872,-1.72872c0.95509,0 1.72872,0.77363 1.72872,1.72872c0,0.95509 -0.77363,1.72872 -1.72872,1.72872c-0.95509,0 -1.72872,-0.77363 -1.72872,-1.72872z" stroke-width="5" stroke-miterlimit="10" stroke-dasharray=""></path><path data-v-9833e8b2="" transform="scale(0.03238341968911917)" fill="none" stroke="currentColor" paint-order="fill stroke markers" d="m186.7624,369.188c0,-1.27346 1.0315,-2.30496 2.30496,-2.30496c1.27346,0 2.30496,1.0315 2.30496,2.30496c0,1.27346 -1.0315,2.30496 -2.30496,2.30496c-1.27346,0 -2.30496,-1.0315 -2.30496,-2.30496z" stroke-width="5" stroke-miterlimit="10" stroke-dasharray=""></path><path data-v-9833e8b2="" transform="scale(0.03238341968911917)" fill="none" stroke="currentColor" paint-order="fill stroke markers" d="m186.7624,419.188c0,-1.27346 1.0315,-2.30496 2.30496,-2.30496c1.27346,0 2.30496,1.0315 2.30496,2.30496c0,1.27346 -1.0315,2.30496 -2.30496,2.30496c-1.27346,0 -2.30496,-1.0315 -2.30496,-2.30496z" stroke-width="5" stroke-miterlimit="10" stroke-dasharray=""></path><path data-v-9833e8b2="" transform="scale(0.03238341968911917)" fill="none" stroke="currentColor" paint-order="fill stroke markers" d="m206.35456,412.98224c0,-0.63673 0.51575,-1.15248 1.15248,-1.15248c0.63673,0 1.15248,0.51575 1.15248,1.15248c0,0.63673 -0.51575,1.15248 -1.15248,1.15248c-0.63673,0 -1.15248,-0.51575 -1.15248,-1.15248z" stroke-width="5" stroke-miterlimit="10" stroke-dasharray=""></path><path data-v-9833e8b2="" transform="scale(0.03238341968911917)" fill="none" stroke="currentColor" paint-order="fill stroke markers" d="m201.74464,399.15248c0,-0.63673 0.51575,-1.15248 1.15248,-1.15248c0.63673,0 1.15248,0.51575 1.15248,1.15248c0,0.63673 -0.51575,1.15248 -1.15248,1.15248c-0.63673,0 -1.15248,-0.51575 -1.15248,-1.15248z" stroke-width="5" stroke-miterlimit="10" stroke-dasharray=""></path><path data-v-9833e8b2="" transform="scale(0.03238341968911917)" fill="none" stroke="currentColor" paint-order="fill stroke markers" d="m201.74464,359.15248c0,-0.63673 0.51575,-1.15248 1.15248,-1.15248c0.63673,0 1.15248,0.51575 1.15248,1.15248c0,0.63673 -0.51575,1.15248 -1.15248,1.15248c-0.63673,0 -1.15248,-0.51575 -1.15248,-1.15248z" stroke-width="5" stroke-miterlimit="10" stroke-dasharray=""></path><path data-v-9833e8b2="" transform="scale(0.03238341968911917)" fill="none" stroke="currentColor" paint-order="fill stroke markers" d="m193.25352,404.33864c0,-0.55249 0.44751,-1 1,-1c0.55249,0 1,0.44751 1,1c0,0.55249 -0.44751,1 -1,1c-0.55249,0 -1,-0.44751 -1,-1z" stroke-width="5" stroke-miterlimit="10" stroke-dasharray=""></path><path data-v-9833e8b2="" transform="scale(0.03238341968911917)" fill="none" stroke="currentColor" paint-order="fill stroke markers" d="m194.406,383.594c0,-0.55249 0.44751,-1 1,-1c0.55249,0 1,0.44751 1,1c0,0.55249 -0.44751,1 -1,1c-0.55249,0 -1,-0.44751 -1,-1z" stroke-width="5" stroke-miterlimit="10" stroke-dasharray=""></path><path data-v-9833e8b2="" transform="scale(0.03238341968911917)" fill="none" stroke="currentColor" paint-order="fill stroke markers" d="m144.82976,367.62585c0,-0.95509 0.77363,-1.72872 1.72872,-1.72872c0.95509,0 1.72872,0.77363 1.72872,1.72872c0,0.95509 -0.77363,1.72872 -1.72872,1.72872c-0.95509,0 -1.72872,-0.77363 -1.72872,-1.72872z" stroke-width="5" stroke-miterlimit="10" stroke-dasharray=""></path><path data-v-9833e8b2="" transform="scale(0.03238341968911917)" fill="none" stroke="currentColor" paint-order="fill stroke markers" d="m150.59216,354.37233c0,-1.27346 1.0315,-2.30496 2.30496,-2.30496c1.27346,0 2.30496,1.0315 2.30496,2.30496c0,1.27346 -1.0315,2.30496 -2.30496,2.30496c-1.27346,0 -2.30496,-1.0315 -2.30496,-2.30496z" stroke-width="5" stroke-miterlimit="10" stroke-dasharray=""></path><path data-v-9833e8b2="" transform="scale(0.03238341968911917)" fill="none" stroke="currentColor" paint-order="fill stroke markers" d="m170.18432,398.16657c0,-0.63673 0.51575,-1.15248 1.15248,-1.15248c0.63673,0 1.15248,0.51575 1.15248,1.15248c0,0.63673 -0.51575,1.15248 -1.15248,1.15248c-0.63673,0 -1.15248,-0.51575 -1.15248,-1.15248z" stroke-width="5" stroke-miterlimit="10" stroke-dasharray=""></path><path data-v-9833e8b2="" transform="scale(0.03238341968911917)" fill="none" stroke="currentColor" paint-order="fill stroke markers" d="m165.5744,384.33681c0,-0.63673 0.51575,-1.15248 1.15248,-1.15248c0.63673,0 1.15248,0.51575 1.15248,1.15248c0,0.63673 -0.51575,1.15248 -1.15248,1.15248c-0.63673,0 -1.15248,-0.51575 -1.15248,-1.15248z" stroke-width="5" stroke-miterlimit="10" stroke-dasharray=""></path><path data-v-9833e8b2="" transform="scale(0.03238341968911917)" fill="none" stroke="currentColor" paint-order="fill stroke markers" d="m165.5744,344.33681c0,-0.63673 0.51575,-1.15248 1.15248,-1.15248c0.63673,0 1.15248,0.51575 1.15248,1.15248c0,0.63673 -0.51575,1.15248 -1.15248,1.15248c-0.63673,0 -1.15248,-0.51575 -1.15248,-1.15248z" stroke-width="5" stroke-miterlimit="10" stroke-dasharray=""></path><path data-v-9833e8b2="" transform="scale(0.03238341968911917)" fill="none" stroke="currentColor" paint-order="fill stroke markers" d="m157.08328,389.52297c0,-0.55249 0.44751,-1 1,-1c0.55249,0 1,0.44751 1,1c0,0.55249 -0.44751,1 -1,1c-0.55249,0 -1,-0.44751 -1,-1z" stroke-width="5" stroke-miterlimit="10" stroke-dasharray=""></path><path data-v-9833e8b2="" transform="scale(0.03238341968911917)" fill="none" stroke="currentColor" paint-order="fill stroke markers" d="m158.23576,368.77833c0,-0.55249 0.44751,-1 1,-1c0.55249,0 1,0.44751 1,1c0,0.55249 -0.44751,1 -1,1c-0.55249,0 -1,-0.44751 -1,-1z" stroke-width="5" stroke-miterlimit="10" stroke-dasharray=""></path><path data-v-9833e8b2="" transform="scale(0.03238341968911917)" fill="none" stroke="currentColor" paint-order="fill stroke markers" d="m-1,16.55848c0,-0.95509 0.77363,-1.72872 1.72872,-1.72872c0.95509,0 1.72872,0.77363 1.72872,1.72872c0,0.95509 -0.77363,1.72872 -1.72872,1.72872c-0.95509,0 -1.72872,-0.77363 -1.72872,-1.72872z" stroke-width="5" stroke-miterlimit="10" stroke-dasharray=""></path><path data-v-9833e8b2="" transform="scale(0.03238341968911917)" fill="none" stroke="currentColor" paint-order="fill stroke markers" d="m4.7624,3.30496c0,-1.27346 1.0315,-2.30496 2.30496,-2.30496c1.27346,0 2.30496,1.0315 2.30496,2.30496c0,1.27346 -1.0315,2.30496 -2.30496,2.30496c-1.27346,0 -2.30496,-1.0315 -2.30496,-2.30496z" stroke-width="5" stroke-miterlimit="10" stroke-dasharray=""></path><path data-v-9833e8b2="" transform="scale(0.03238341968911917)" fill="none" stroke="currentColor" paint-order="fill stroke markers" d="m24.35456,47.0992c0,-0.63673 0.51575,-1.15248 1.15248,-1.15248c0.63673,0 1.15248,0.51575 1.15248,1.15248c0,0.63673 -0.51575,1.15248 -1.15248,1.15248c-0.63673,0 -1.15248,-0.51575 -1.15248,-1.15248z" stroke-width="5" stroke-miterlimit="10" stroke-dasharray=""></path><path data-v-9833e8b2="" transform="scale(0.03238341968911917)" fill="none" stroke="currentColor" paint-order="fill stroke markers" d="m19.74464,33.26944c0,-0.63673 0.51575,-1.15248 1.15248,-1.15248c0.63673,0 1.15248,0.51575 1.15248,1.15248c0,0.63673 -0.51575,1.15248 -1.15248,1.15248c-0.63673,0 -1.15248,-0.51575 -1.15248,-1.15248z" stroke-width="5" stroke-miterlimit="10" stroke-dasharray=""></path><path data-v-9833e8b2="" transform="scale(0.03238341968911917)" fill="none" stroke="currentColor" paint-order="fill stroke markers" d="m11.25352,38.4556c0,-0.55249 0.44751,-1 1,-1c0.55249,0 1,0.44751 1,1c0,0.55249 -0.44751,1 -1,1c-0.55249,0 -1,-0.44751 -1,-1z" stroke-width="5" stroke-miterlimit="10" stroke-dasharray=""></path><path data-v-9833e8b2="" transform="scale(0.03238341968911917)" fill="none" stroke="currentColor" paint-order="fill stroke markers" d="m12.406,17.71096c0,-0.55249 0.44751,-1 1,-1c0.55249,0 1,0.44751 1,1c0,0.55249 -0.44751,1 -1,1c-0.55249,0 -1,-0.44751 -1,-1z" stroke-width="5" stroke-miterlimit="10" stroke-dasharray=""></path><path data-v-9833e8b2="" transform="scale(0.03238341968911917)" fill="none" stroke="currentColor" paint-order="fill stroke markers" d="m246,3l0,8l-6,0l0,56l0.1157,0l13.8843,26l11.698,9.046l35.18068,-35.17951l41.01219,41.01219l-29.93887,29.93732l17.048,13.184l23,120l-50,132l0,216l-0.16456,0l58.16456,150l-332,0l58.16456,-150l-0.16456,0l0,-216l-50,-132l1.668,-8.704l-27.97309,-27.97367c-2.80972,-2.80532 -4.58167,-6.65035 -4.68967,-10.90894l-0.00524,-0.41339l0,-46l-4,0l0,-4l40,0l0,4l-4,0l0,39.372l7.947,7.947l14.053,-73.319l75,-58l14,-26l0,-56l-6,0l0,-8l104,0z" stroke-width="5" stroke-miterlimit="10" stroke-dasharray=""></path><path data-v-9833e8b2="" transform="scale(0.03238341968911917)" fill="none" stroke="currentColor" paint-order="fill stroke markers" d="m140,1c0,0 1.82648,0 4,0l100,0c2.17352,0 4,0 4,0l0,12c0,0 -1.82648,0 -4,0l-100,0c-2.17352,0 -4,0 -4,0l0,-12z" stroke-width="5" stroke-miterlimit="10" stroke-dasharray=""></path><path data-v-9833e8b2="" transform="scale(0.03238341968911917)" fill="none" stroke="currentColor" paint-order="fill stroke markers" d="m146,13l96,0l0,52l-96,0l0,-52z" stroke-width="5" stroke-miterlimit="10" stroke-dasharray=""></path><path data-v-9833e8b2="" transform="scale(0.03238341968911917)" fill="none" stroke="currentColor" paint-order="fill stroke markers" d="m146,65l96.11571,0l15.88429,30l-127,0l15,-30z" stroke-width="5" stroke-miterlimit="10" stroke-dasharray=""></path><path data-v-9833e8b2="" transform="scale(0.03238341968911917)" fill="none" stroke="currentColor" paint-order="fill stroke markers" d="m146,13l96,0l0,4l-96,0l0,-4z" stroke-width="5" stroke-miterlimit="10" stroke-dasharray=""></path><path data-v-9833e8b2="" transform="scale(0.03238341968911917)" fill="none" stroke="currentColor" paint-order="fill stroke markers" d="m146,61l96,0l0,4l-96,0l0,-4z" stroke-width="5" stroke-miterlimit="10" stroke-dasharray=""></path></g></svg>