<svg data-v-9833e8b2="" version="1.1" xmlns="http://www.w3.org/2000/svg" xmlns:xlink="http://www.w3.org/1999/xlink" width="25" height="22.5"><g data-v-9833e8b2=""><path data-v-9833e8b2="" transform="scale(0.12953367875647667)" fill="none" stroke="currentColor" paint-order="fill stroke markers" d="m19.7,65.7l0,46.3c0,1.9 0.9,3.8 2.5,4.9l49.8,31.2l-0.1,22.8l-63.4,-41c-4.7,-3.5 -7.5,-9 -7.5,-14.8l0,-55.8c0,-10.2 8.3,-18.5 18.5,-18.5l26.6,0l-14.6,-30.9l18.7,0l24.7,49.7l-49,0c-3.4,0 -6.2,2.7 -6.2,6.1z" stroke-width="5" stroke-miterlimit="10" stroke-dasharray=""></path><path data-v-9833e8b2="" transform="scale(0.12953367875647667)" fill="none" stroke="currentColor" paint-order="fill stroke markers" d="m167.8,59.6l-49,0l24.6,-49.6l18.7,0l-14.5,30.9l26.6,0c10.2,0 18.5,8.3 18.5,18.5l0,55.7c0,5.8 -2.8,11.3 -7.5,14.8l-63.4,41l-0.1,-22.7l49.8,-31.2c1.5,-1.2 2.5,-3 2.5,-4.9l0,-46.4c0,-3.4 -2.8,-6.1 -6.2,-6.1z" stroke-width="5" stroke-miterlimit="10" stroke-dasharray=""></path><path data-v-9833e8b2="" transform="scale(0.12953367875647667)" fill="none" stroke="currentColor" paint-order="fill stroke markers" d="m91.5,95.4c0,19.8 -16,35.8 -35.8,35.8s-35.8,-16.1 -35.8,-35.8s16.1,-35.8 35.8,-35.8s35.8,16 35.8,35.8z" stroke-width="5" stroke-miterlimit="10" stroke-dasharray=""></path><path data-v-9833e8b2="" transform="scale(0.12953367875647667)" fill="none" stroke="currentColor" paint-order="fill stroke markers" d="m66.2,95.4c0,5.8 -4.7,10.4 -10.4,10.4s-10.4,-4.7 -10.4,-10.4s4.7,-10.4 10.4,-10.4s10.4,4.6 10.4,10.4z" stroke-width="5" stroke-miterlimit="10" stroke-dasharray=""></path><path data-v-9833e8b2="" transform="scale(0.12953367875647667)" fill="none" stroke="currentColor" paint-order="fill stroke markers" d="m45.3,82.3c0,1.4 -1.2,2.6 -2.6,2.6c-1.4,0 -2.6,-1.2 -2.6,-2.6c0,-1.4 1.2,-2.6 2.6,-2.6c1.4,0.1 2.6,1.2 2.6,2.6z" stroke-width="5" stroke-miterlimit="10" stroke-dasharray=""></path><path data-v-9833e8b2="" transform="scale(0.12953367875647667)" fill="none" stroke="currentColor" paint-order="fill stroke markers" d="m71.3,82.3c0,1.4 -1.2,2.6 -2.6,2.6s-2.6,-1.2 -2.6,-2.6c0,-1.4 1.2,-2.6 2.6,-2.6s2.6,1.2 2.6,2.6z" stroke-width="5" stroke-miterlimit="10" stroke-dasharray=""></path><path data-v-9833e8b2="" transform="scale(0.12953367875647667)" fill="none" stroke="currentColor" paint-order="fill stroke markers" d="m45.3,108.4c0,1.4 -1.2,2.6 -2.6,2.6c-1.4,0 -2.6,-1.2 -2.6,-2.6s1.2,-2.6 2.6,-2.6c1.4,0 2.6,1.1 2.6,2.6z" stroke-width="5" stroke-miterlimit="10" stroke-dasharray=""></path><path data-v-9833e8b2="" transform="scale(0.12953367875647667)" fill="none" stroke="currentColor" paint-order="fill stroke markers" d="m71.3,108.4c0,1.4 -1.2,2.6 -2.6,2.6s-2.6,-1.2 -2.6,-2.6s1.2,-2.6 2.6,-2.6s2.6,1.1 2.6,2.6z" stroke-width="5" stroke-miterlimit="10" stroke-dasharray=""></path><path data-v-9833e8b2="" transform="scale(0.12953367875647667)" fill="none" stroke="currentColor" paint-order="fill stroke markers" d="m174.2,95.4c0,19.8 -16,35.8 -35.8,35.8s-35.8,-16 -35.8,-35.8s16,-35.8 35.8,-35.8s35.8,16 35.8,35.8z" stroke-width="5" stroke-miterlimit="10" stroke-dasharray=""></path><path data-v-9833e8b2="" transform="scale(0.12953367875647667)" fill="none" stroke="currentColor" paint-order="fill stroke markers" d="m148.8,95.4c0,5.8 -4.7,10.4 -10.4,10.4s-10.4,-4.7 -10.4,-10.4s4.7,-10.4 10.4,-10.4s10.4,4.6 10.4,10.4z" stroke-width="5" stroke-miterlimit="10" stroke-dasharray=""></path><path data-v-9833e8b2="" transform="scale(0.12953367875647667)" fill="none" stroke="currentColor" paint-order="fill stroke markers" d="m75.7,13.4c0,6.1 -4.9,11 -11,11s-11,-4.9 -11,-11s4.9,-11 11,-11s11,5 11,11z" stroke-width="5" stroke-miterlimit="10" stroke-dasharray=""></path><path data-v-9833e8b2="" transform="scale(0.12953367875647667)" fill="none" stroke="currentColor" paint-order="fill stroke markers" d="m97.2,18c0,6.1 -4.9,11 -11,11c-6.1,0 -11,-4.9 -11,-11s4.9,-11 11,-11c6.1,0.1 11,5 11,11z" stroke-width="5" stroke-miterlimit="10" stroke-dasharray=""></path><path data-v-9833e8b2="" transform="scale(0.12953367875647667)" fill="none" stroke="currentColor" paint-order="fill stroke markers" d="m118.8,13.4c0,6.1 -4.9,11 -11,11c-6.1,0 -11,-4.9 -11,-11s4.9,-11 11,-11c6.1,0.1 11,5 11,11z" stroke-width="5" stroke-miterlimit="10" stroke-dasharray=""></path><path data-v-9833e8b2="" transform="scale(0.12953367875647667)" fill="none" stroke="currentColor" paint-order="fill stroke markers" d="m140.7,12c0,6.1 -4.9,11 -11,11c-6.1,0 -11,-4.9 -11,-11s4.9,-11 11,-11c6.1,0.1 11,5 11,11z" stroke-width="5" stroke-miterlimit="10" stroke-dasharray=""></path><path data-v-9833e8b2="" transform="scale(0.12953367875647667)" fill="none" stroke="currentColor" paint-order="fill stroke markers" d="m109.4,37.1c0,6.1 -4.9,11 -11,11c-6.1,0 -11,-4.9 -11,-11s4.9,-11 11,-11c6.1,0 11,5 11,11z" stroke-width="5" stroke-miterlimit="10" stroke-dasharray=""></path><path data-v-9833e8b2="" transform="scale(0.12953367875647667)" fill="none" stroke="currentColor" paint-order="fill stroke markers" d="m130.5,32c0,6.1 -4.9,11 -11,11s-11,-4.9 -11,-11s4.9,-11 11,-11s11,5 11,11z" stroke-width="5" stroke-miterlimit="10" stroke-dasharray=""></path><path data-v-9833e8b2="" transform="scale(0.12953367875647667)" fill="none" stroke="currentColor" paint-order="fill stroke markers" d="m119.6,56.5c0,6.1 -4.9,11 -11,11s-11,-4.9 -11,-11c0,-6.1 4.9,-11 11,-11s11,4.9 11,11z" stroke-width="5" stroke-miterlimit="10" stroke-dasharray=""></path><path data-v-9833e8b2="" transform="scale(0.12953367875647667)" fill="none" stroke="currentColor" paint-order="fill stroke markers" d="m98.9,84c0,2.5 -2,4.5 -4.5,4.5c-2.5,0 -4.5,-2 -4.5,-4.5c0,-2.5 2,-4.5 4.5,-4.5c2.4,0 4.5,2 4.5,4.5z" stroke-width="5" stroke-miterlimit="10" stroke-dasharray=""></path><path data-v-9833e8b2="" transform="scale(0.12953367875647667)" fill="none" stroke="currentColor" paint-order="fill stroke markers" d="m97.9,93.6c0,1.7 -1.3,3 -3,3c-1.7,0 -3,-1.3 -3,-3s1.3,-3 3,-3c1.6,0 3,1.4 3,3z" stroke-width="5" stroke-miterlimit="10" stroke-dasharray=""></path><path data-v-9833e8b2="" transform="scale(0.12953367875647667)" fill="none" stroke="currentColor" paint-order="fill stroke markers" d="m104.5,83.4c0,1.7 -1.3,3 -3,3c-1.7,0 -3,-1.3 -3,-3c0,-1.7 1.3,-3 3,-3c1.6,0 3,1.3 3,3z" stroke-width="5" stroke-miterlimit="10" stroke-dasharray=""></path><path data-v-9833e8b2="" transform="scale(0.12953367875647667)" fill="none" stroke="currentColor" paint-order="fill stroke markers" d="m102.4,98.3c0,1.7 -1.3,3 -3,3c-1.7,0 -3,-1.3 -3,-3c0,-1.7 1.3,-3 3,-3c1.7,0.1 3,1.4 3,3z" stroke-width="5" stroke-miterlimit="10" stroke-dasharray=""></path><path data-v-9833e8b2="" transform="scale(0.12953367875647667)" fill="none" stroke="currentColor" paint-order="fill stroke markers" d="m97.3,99.6c0,1.7 -1.3,3 -3,3c-1.7,0 -3,-1.3 -3,-3s1.3,-3 3,-3c1.7,0 3,1.4 3,3z" stroke-width="5" stroke-miterlimit="10" stroke-dasharray=""></path><path data-v-9833e8b2="" transform="scale(0.12953367875647667)" fill="none" stroke="currentColor" paint-order="fill stroke markers" d="m102.8,104.1c0,1.4 -1.2,2.6 -2.6,2.6c-1.4,0 -2.6,-1.2 -2.6,-2.6c0,-1.4 1.2,-2.6 2.6,-2.6c1.5,0 2.6,1.1 2.6,2.6z" stroke-width="5" stroke-miterlimit="10" stroke-dasharray=""></path><path data-v-9833e8b2="" transform="scale(0.12953367875647667)" fill="none" stroke="currentColor" paint-order="fill stroke markers" d="m95.6,106.8c0,1.4 -1.2,2.6 -2.6,2.6c-1.4,0 -2.6,-1.2 -2.6,-2.6s1.2,-2.6 2.6,-2.6c1.4,0 2.6,1.2 2.6,2.6z" stroke-width="5" stroke-miterlimit="10" stroke-dasharray=""></path><path data-v-9833e8b2="" transform="scale(0.12953367875647667)" fill="none" stroke="currentColor" paint-order="fill stroke markers" d="m100.2,109.4c0,1.4 -1.2,2.6 -2.6,2.6s-2.6,-1.2 -2.6,-2.6s1.2,-2.6 2.6,-2.6s2.6,1.2 2.6,2.6z" stroke-width="5" stroke-miterlimit="10" stroke-dasharray=""></path><path data-v-9833e8b2="" transform="scale(0.12953367875647667)" fill="none" stroke="currentColor" paint-order="fill stroke markers" d="m97.5,116.8c0,1.4 -1.2,2.6 -2.6,2.6c-1.4,0 -2.6,-1.2 -2.6,-2.6s1.2,-2.6 2.6,-2.6c1.4,0 2.6,1.2 2.6,2.6z" stroke-width="5" stroke-miterlimit="10" stroke-dasharray=""></path><path data-v-9833e8b2="" transform="scale(0.12953367875647667)" fill="none" stroke="currentColor" paint-order="fill stroke markers" d="m91.7,136.9c0,1.4 -1.2,2.6 -2.6,2.6c-1.4,0 -2.6,-1.2 -2.6,-2.6c0,-1.4 1.2,-2.6 2.6,-2.6c1.5,0 2.6,1.2 2.6,2.6z" stroke-width="5" stroke-miterlimit="10" stroke-dasharray=""></path><path data-v-9833e8b2="" transform="scale(0.12953367875647667)" fill="none" stroke="currentColor" paint-order="fill stroke markers" d="m90.2,153.2c0,1.4 -1.2,2.6 -2.6,2.6c-1.4,0 -2.6,-1.2 -2.6,-2.6c0,-1.4 1.2,-2.6 2.6,-2.6c1.5,0 2.6,1.1 2.6,2.6z" stroke-width="5" stroke-miterlimit="10" stroke-dasharray=""></path><path data-v-9833e8b2="" transform="scale(0.12953367875647667)" fill="none" stroke="currentColor" paint-order="fill stroke markers" d="m83.6,146c0,1.4 -1.2,2.6 -2.6,2.6s-2.6,-1.2 -2.6,-2.6s1.2,-2.6 2.6,-2.6s2.6,1.2 2.6,2.6z" stroke-width="5" stroke-miterlimit="10" stroke-dasharray=""></path><path data-v-9833e8b2="" transform="scale(0.12953367875647667)" fill="none" stroke="currentColor" paint-order="fill stroke markers" d="m78.4,162c0,1.4 -1.2,2.6 -2.6,2.6s-2.6,-1.2 -2.6,-2.6c0,-1.4 1.2,-2.6 2.6,-2.6s2.6,1.2 2.6,2.6z" stroke-width="5" stroke-miterlimit="10" stroke-dasharray=""></path><path data-v-9833e8b2="" transform="scale(0.12953367875647667)" fill="none" stroke="currentColor" paint-order="fill stroke markers" d="m97.5,125.9c0,1.4 -1.2,2.6 -2.6,2.6c-1.4,0 -2.6,-1.2 -2.6,-2.6s1.2,-2.6 2.6,-2.6c1.4,0 2.6,1.1 2.6,2.6z" stroke-width="5" stroke-miterlimit="10" stroke-dasharray=""></path><path data-v-9833e8b2="" transform="scale(0.12953367875647667)" fill="none" stroke="currentColor" paint-order="fill stroke markers" d="m101.1,139.5c0,1.4 -1.2,2.6 -2.6,2.6c-1.4,0 -2.6,-1.2 -2.6,-2.6s1.2,-2.6 2.6,-2.6c1.4,0 2.6,1.2 2.6,2.6z" stroke-width="5" stroke-miterlimit="10" stroke-dasharray=""></path><path data-v-9833e8b2="" transform="scale(0.12953367875647667)" fill="none" stroke="currentColor" paint-order="fill stroke markers" d="m101.5,171.3c0,-1.43646 1.16354,-2.6 2.6,-2.6c1.43646,0 2.6,1.16354 2.6,2.6c0,1.43646 -1.16354,2.6 -2.6,2.6c-1.43646,0 -2.6,-1.16354 -2.6,-2.6z" stroke-width="5" stroke-miterlimit="10" stroke-dasharray=""></path><path data-v-9833e8b2="" transform="scale(0.12953367875647667)" fill="none" stroke="currentColor" paint-order="fill stroke markers" d="m97.5,164.6c0,1.4 -1.2,2.6 -2.6,2.6c-1.4,0 -2.6,-1.2 -2.6,-2.6s1.2,-2.6 2.6,-2.6c1.4,0 2.6,1.2 2.6,2.6z" stroke-width="5" stroke-miterlimit="10" stroke-dasharray=""></path><path data-v-9833e8b2="" transform="scale(0.12953367875647667)" fill="none" stroke="currentColor" paint-order="fill stroke markers" d="m112.5,143c0,1.4 -1.2,2.6 -2.6,2.6c-1.4,0 -2.6,-1.2 -2.6,-2.6s1.2,-2.6 2.6,-2.6c1.5,0 2.6,1.1 2.6,2.6z" stroke-width="5" stroke-miterlimit="10" stroke-dasharray=""></path><path data-v-9833e8b2="" transform="scale(0.12953367875647667)" fill="none" stroke="currentColor" paint-order="fill stroke markers" d="m105,153.2c0,1.4 -1.2,2.6 -2.6,2.6s-2.6,-1.2 -2.6,-2.6c0,-1.4 1.2,-2.6 2.6,-2.6s2.6,1.1 2.6,2.6z" stroke-width="5" stroke-miterlimit="10" stroke-dasharray=""></path><path data-v-9833e8b2="" transform="scale(0.12953367875647667)" fill="none" stroke="currentColor" paint-order="fill stroke markers" d="m95.6,173.9c0,1.4 -1.2,2.6 -2.6,2.6c-1.4,0 -2.6,-1.2 -2.6,-2.6c0,-1.4 1.2,-2.6 2.6,-2.6c1.4,0 2.6,1.2 2.6,2.6z" stroke-width="5" stroke-miterlimit="10" stroke-dasharray=""></path><path data-v-9833e8b2="" transform="scale(0.12953367875647667)" fill="none" stroke="currentColor" paint-order="fill stroke markers" d="m114.6,164.6c0,1.4 -1.2,2.6 -2.6,2.6c-1.4,0 -2.6,-1.2 -2.6,-2.6s1.2,-2.6 2.6,-2.6c1.5,0 2.6,1.2 2.6,2.6z" stroke-width="5" stroke-miterlimit="10" stroke-dasharray=""></path><path data-v-9833e8b2="" transform="scale(0.12953367875647667)" fill="none" stroke="currentColor" paint-order="fill stroke markers" d="m104.1,114.2c0,1.4 -1.2,2.6 -2.6,2.6c-1.4,0 -2.6,-1.2 -2.6,-2.6s1.2,-2.6 2.6,-2.6c1.4,0 2.6,1.2 2.6,2.6z" stroke-width="5" stroke-miterlimit="10" stroke-dasharray=""></path><path data-v-9833e8b2="" transform="scale(0.12953367875647667)" fill="none" stroke="currentColor" paint-order="fill stroke markers" d="m107.1,122.3c0,1.4 -1.2,2.6 -2.6,2.6c-1.4,0 -2.6,-1.2 -2.6,-2.6s1.2,-2.6 2.6,-2.6c1.4,0 2.6,1.1 2.6,2.6z" stroke-width="5" stroke-miterlimit="10" stroke-dasharray=""></path><path data-v-9833e8b2="" transform="scale(0.12953367875647667)" fill="none" stroke="currentColor" paint-order="fill stroke markers" d="m107.6,128.5c0,1.4 -1.2,2.6 -2.6,2.6c-1.4,0 -2.6,-1.2 -2.6,-2.6c0,-1.4 1.2,-2.6 2.6,-2.6c1.4,0 2.6,1.1 2.6,2.6z" stroke-width="5" stroke-miterlimit="10" stroke-dasharray=""></path><path data-v-9833e8b2="" transform="scale(0.12953367875647667)" fill="none" stroke="currentColor" paint-order="fill stroke markers" d="m90.2,122c0,1.4 -1.2,2.6 -2.6,2.6c-1.4,0 -2.6,-1.2 -2.6,-2.6s1.2,-2.6 2.6,-2.6c1.5,0 2.6,1.1 2.6,2.6z" stroke-width="5" stroke-miterlimit="10" stroke-dasharray=""></path><path data-v-9833e8b2="" transform="scale(0.12953367875647667)" fill="none" stroke="currentColor" paint-order="fill stroke markers" d="m86.2,131.1c0,1.4 -1.2,2.6 -2.6,2.6c-1.4,0 -2.6,-1.2 -2.6,-2.6s1.2,-2.6 2.6,-2.6c1.4,0 2.6,1.1 2.6,2.6z" stroke-width="5" stroke-miterlimit="10" stroke-dasharray=""></path><path data-v-9833e8b2="" transform="scale(0.12953367875647667)" fill="none" stroke="currentColor" paint-order="fill stroke markers" d="m92.8,114.4c0,1.4 -1.2,2.6 -2.6,2.6s-2.6,-1.2 -2.6,-2.6s1.2,-2.6 2.6,-2.6s2.6,1.2 2.6,2.6z" stroke-width="5" stroke-miterlimit="10" stroke-dasharray=""></path><path data-v-9833e8b2="" transform="scale(0.12953367875647667)" fill="none" stroke="currentColor" paint-order="fill stroke markers" d="m101.9,90.9c0,1.7 -1.3,3 -3,3s-3,-1.3 -3,-3c0,-1.7 1.3,-3 3,-3s3,1.3 3,3z" stroke-width="5" stroke-miterlimit="10" stroke-dasharray=""></path><path data-v-9833e8b2="" transform="scale(0.12953367875647667)" fill="none" stroke="currentColor" paint-order="fill stroke markers" d="m108.6,73.4c0,3.3 -2.7,6 -6,6s-6,-2.7 -6,-6c0,-3.3 2.7,-6 6,-6s6,2.7 6,6z" stroke-width="5" stroke-miterlimit="10" stroke-dasharray=""></path><path data-v-9833e8b2="" transform="scale(0.12953367875647667)" fill="none" stroke="currentColor" paint-order="fill stroke markers" d="m97.2,59c0,6.1 -4.9,11 -11,11c-6.1,0 -11,-4.9 -11,-11s4.9,-11 11,-11c6.1,0 11,4.9 11,11z" stroke-width="5" stroke-miterlimit="10" stroke-dasharray=""></path><path data-v-9833e8b2="" transform="scale(0.12953367875647667)" fill="none" stroke="currentColor" paint-order="fill stroke markers" d="m87.5,37.7c0,6.1 -4.9,11 -11,11s-11,-4.9 -11,-11s4.9,-11 11,-11s11,4.9 11,11z" stroke-width="5" stroke-miterlimit="10" stroke-dasharray=""></path><path data-v-9833e8b2="" transform="scale(0.12953367875647667)" fill="none" stroke="currentColor" paint-order="fill stroke markers" d="m96.8,74.7c0,3 -2.5,5.5 -5.5,5.5s-5.4,-2.5 -5.4,-5.5c0,-3 2.5,-5.5 5.5,-5.5s5.4,2.5 5.4,5.5z" stroke-width="5" stroke-miterlimit="10" stroke-dasharray=""></path><path data-v-9833e8b2="" transform="scale(0.12953367875647667)" fill="none" stroke="currentColor" paint-order="fill stroke markers" d="m128,82.3c0,1.4 -1.2,2.6 -2.6,2.6c-1.4,0 -2.6,-1.2 -2.6,-2.6c0,-1.4 1.2,-2.6 2.6,-2.6c1.4,0.1 2.6,1.2 2.6,2.6z" stroke-width="5" stroke-miterlimit="10" stroke-dasharray=""></path><path data-v-9833e8b2="" transform="scale(0.12953367875647667)" fill="none" stroke="currentColor" paint-order="fill stroke markers" d="m154,82.3c0,1.4 -1.2,2.6 -2.6,2.6c-1.4,0 -2.6,-1.2 -2.6,-2.6c0,-1.4 1.2,-2.6 2.6,-2.6c1.4,0.1 2.6,1.2 2.6,2.6z" stroke-width="5" stroke-miterlimit="10" stroke-dasharray=""></path><path data-v-9833e8b2="" transform="scale(0.12953367875647667)" fill="none" stroke="currentColor" paint-order="fill stroke markers" d="m128,108.4c0,1.4 -1.2,2.6 -2.6,2.6c-1.4,0 -2.6,-1.2 -2.6,-2.6s1.2,-2.6 2.6,-2.6c1.4,0 2.6,1.1 2.6,2.6z" stroke-width="5" stroke-miterlimit="10" stroke-dasharray=""></path><path data-v-9833e8b2="" transform="scale(0.12953367875647667)" fill="none" stroke="currentColor" paint-order="fill stroke markers" d="m154,108.4c0,1.4 -1.2,2.6 -2.6,2.6c-1.4,0 -2.6,-1.2 -2.6,-2.6s1.2,-2.6 2.6,-2.6c1.4,0 2.6,1.1 2.6,2.6z" stroke-width="5" stroke-miterlimit="10" stroke-dasharray=""></path></g></svg>