<svg data-v-9833e8b2="" version="1.1" xmlns="http://www.w3.org/2000/svg" xmlns:xlink="http://www.w3.org/1999/xlink" width="14.5" height="25"><g data-v-9833e8b2=""><path data-v-9833e8b2="" transform="scale(0.1404494382022472)" fill="none" stroke="currentColor" paint-order="fill stroke markers" d="m78.7,169.9l-67.1,0l0,-151.6l67.1,0l0,151.6z" stroke-width="5" stroke-miterlimit="10" stroke-dasharray=""></path><path data-v-9833e8b2="" transform="scale(0.1404494382022472)" fill="none" stroke="currentColor" paint-order="fill stroke markers" d="m23.3,7.9l-7.1,0l0,-2.9l7.1,0l0,2.9z" stroke-width="5" stroke-miterlimit="10" stroke-dasharray=""></path><path data-v-9833e8b2="" transform="scale(0.1404494382022472)" fill="none" stroke="currentColor" paint-order="fill stroke markers" d="m24,5l-8.5,0l0,-4l8.5,0l0,4z" stroke-width="5" stroke-miterlimit="10" stroke-dasharray=""></path><path data-v-9833e8b2="" transform="scale(0.1404494382022472)" fill="none" stroke="currentColor" paint-order="fill stroke markers" d="m40,7.9l-7.1,0l0,-2.9l7.1,0l0,2.9z" stroke-width="5" stroke-miterlimit="10" stroke-dasharray=""></path><path data-v-9833e8b2="" transform="scale(0.1404494382022472)" fill="none" stroke="currentColor" paint-order="fill stroke markers" d="m40.7,5l-8.5,0l0,-4l8.5,0l0,4z" stroke-width="5" stroke-miterlimit="10" stroke-dasharray=""></path><path data-v-9833e8b2="" transform="scale(0.1404494382022472)" fill="none" stroke="currentColor" paint-order="fill stroke markers" d="m78.7,18.3l-67.1,0l0,-10.4l67.1,0l0,10.4z" stroke-width="5" stroke-miterlimit="10" stroke-dasharray=""></path><path data-v-9833e8b2="" transform="scale(0.1404494382022472)" fill="none" stroke="currentColor" paint-order="fill stroke markers" d="m86.4,174.2l0,3l-82.5,0l0,-3l3.5,0l4.3,-4.3l67.1,0l4.3,4.3l3.3,0z" stroke-width="5" stroke-miterlimit="10" stroke-dasharray=""></path><path data-v-9833e8b2="" transform="scale(0.1404494382022472)" fill="none" stroke="currentColor" paint-order="fill stroke markers" d="m86.3,32.6l-32.3,0c-2.9,0 -5.3,2.4 -5.3,5.3l0,125.4l-31.9,0l0,4.1l54.4,0c1.8,0 3.2,-1.4 3.2,-3.2l0,-123.1l11.9,0l0,-8.5z" stroke-width="5" stroke-miterlimit="10" stroke-dasharray=""></path><path data-v-9833e8b2="" transform="scale(0.1404494382022472)" fill="none" stroke="currentColor" paint-order="fill stroke markers" d="m55.1,41.1l3.3,0l0,122.3l-3.3,0l0,-122.3zm12.9,122.3l-3.3,0l0,-122.3l3.3,0l0,122.3z" stroke-width="5" stroke-miterlimit="10" stroke-dasharray=""></path><path data-v-9833e8b2="" transform="scale(0.1404494382022472)" fill="none" stroke="currentColor" paint-order="fill stroke markers" d="m87.5,42.3l-3,0l0,-11l3,0l0,11z" stroke-width="5" stroke-miterlimit="10" stroke-dasharray=""></path><path data-v-9833e8b2="" transform="scale(0.1404494382022472)" fill="none" stroke="currentColor" paint-order="fill stroke markers" d="m80.2,42.3l-3,0l0,-11l3,0l0,11z" stroke-width="5" stroke-miterlimit="10" stroke-dasharray=""></path><path data-v-9833e8b2="" transform="scale(0.1404494382022472)" fill="none" stroke="currentColor" paint-order="fill stroke markers" d="m11.6,136.3l-7.8,0l0,-8.4l7.8,0l0,8.4z" stroke-width="5" stroke-miterlimit="10" stroke-dasharray=""></path><path data-v-9833e8b2="" transform="scale(0.1404494382022472)" fill="none" stroke="currentColor" paint-order="fill stroke markers" d="m3.8,137.5l-2.8,0l0,-10.7l2.8,0l0,10.7z" stroke-width="5" stroke-miterlimit="10" stroke-dasharray=""></path><path data-v-9833e8b2="" transform="scale(0.1404494382022472)" fill="none" stroke="currentColor" paint-order="fill stroke markers" d="m9.5,137.5l-2.8,0l0,-10.7l2.8,0l0,10.7z" stroke-width="5" stroke-miterlimit="10" stroke-dasharray=""></path><path data-v-9833e8b2="" transform="scale(0.1404494382022472)" fill="none" stroke="currentColor" paint-order="fill stroke markers" d="m30,147.2l-18.4,0l0,-30.2l18.4,0l0,30.2z" stroke-width="5" stroke-miterlimit="10" stroke-dasharray=""></path><path data-v-9833e8b2="" transform="scale(0.1404494382022472)" fill="none" stroke="currentColor" paint-order="fill stroke markers" d="m13.4,147.2l-1.8,0l0,-30.2l1.8,0l0,30.2z" stroke-width="5" stroke-miterlimit="10" stroke-dasharray=""></path><path data-v-9833e8b2="" transform="scale(0.1404494382022472)" fill="none" stroke="currentColor" paint-order="fill stroke markers" d="m18.3,117l-1.5,0l0,-86.5l1.5,0l0,86.5z" stroke-width="5" stroke-miterlimit="10" stroke-dasharray=""></path><path data-v-9833e8b2="" transform="scale(0.1404494382022472)" fill="none" stroke="currentColor" paint-order="fill stroke markers" d="m24,117l-1.5,0l0,-86.5l1.5,0l0,86.5z" stroke-width="5" stroke-miterlimit="10" stroke-dasharray=""></path><path data-v-9833e8b2="" transform="scale(0.1404494382022472)" fill="none" stroke="currentColor" paint-order="fill stroke markers" d="m25.4,30.5l-10,0l0,-1.5l10,0l0,1.5z" stroke-width="5" stroke-miterlimit="10" stroke-dasharray=""></path><path data-v-9833e8b2="" transform="scale(0.1404494382022472)" fill="none" stroke="currentColor" paint-order="fill stroke markers" d="m40.8,18.3l0,4l-7,0l0,-4l-1.1,0l0,71.5l1.1,0l0,-3.9l7,0l0,3.9l1.1,0l0,-71.5l-1.1,0z" stroke-width="5" stroke-miterlimit="10" stroke-dasharray=""></path><path data-v-9833e8b2="" transform="scale(0.1404494382022472)" fill="none" stroke="currentColor" paint-order="fill stroke markers" d="m40.8,84.8l-7,0l0,-11.4l7,0l0,11.4zm0,-12.5l-7,0l0,-11.4l7,0l0,11.4zm0,-12.5l-7,0l0,-11.4l7,0l0,11.4zm0,-12.4l-7,0l0,-11.5l7,0l0,11.5zm0,-12.5l-7,0l0,-11.5l7,0l0,11.5z" stroke-width="5" stroke-miterlimit="10" stroke-dasharray=""></path><path data-v-9833e8b2="" transform="scale(0.1404494382022472)" fill="none" stroke="currentColor" paint-order="fill stroke markers" d="m73,7.9l-27,0l0,-2.3l26.9,0l0.1,2.3l0,0z" stroke-width="5" stroke-miterlimit="10" stroke-dasharray=""></path><path data-v-9833e8b2="" transform="scale(0.1404494382022472)" fill="none" stroke="currentColor" paint-order="fill stroke markers" d="m23.9,166.2l-7.1,0l0,-9.4l7.1,0l0,9.4z" stroke-width="5" stroke-miterlimit="10" stroke-dasharray=""></path><path data-v-9833e8b2="" transform="scale(0.1404494382022472)" fill="none" stroke="currentColor" paint-order="fill stroke markers" d="m24.6,168.7l-8.5,0l0,-2.5l8.5,0l0,2.5z" stroke-width="5" stroke-miterlimit="10" stroke-dasharray=""></path><path data-v-9833e8b2="" transform="scale(0.1404494382022472)" fill="none" stroke="currentColor" paint-order="fill stroke markers" d="m24.2,156.8l-7.7,0l0,-0.9l7.7,0l0,0.9z" stroke-width="5" stroke-miterlimit="10" stroke-dasharray=""></path><path data-v-9833e8b2="" transform="scale(0.1404494382022472)" fill="none" stroke="currentColor" paint-order="fill stroke markers" d="m33.9,156.8l-7.7,0l0,-0.9l7.7,0l0,0.9z" stroke-width="5" stroke-miterlimit="10" stroke-dasharray=""></path><path data-v-9833e8b2="" transform="scale(0.1404494382022472)" fill="none" stroke="currentColor" paint-order="fill stroke markers" d="m43.5,156.8l-7.7,0l0,-0.9l7.7,0l0,0.9z" stroke-width="5" stroke-miterlimit="10" stroke-dasharray=""></path><path data-v-9833e8b2="" transform="scale(0.1404494382022472)" fill="none" stroke="currentColor" paint-order="fill stroke markers" d="m33.5,166.2l-7,0l0,-9.4l7,0l0,9.4z" stroke-width="5" stroke-miterlimit="10" stroke-dasharray=""></path><path data-v-9833e8b2="" transform="scale(0.1404494382022472)" fill="none" stroke="currentColor" paint-order="fill stroke markers" d="m43.2,166.2l-7.1,0l0,-9.4l7.1,0l0,9.4z" stroke-width="5" stroke-miterlimit="10" stroke-dasharray=""></path><path data-v-9833e8b2="" transform="scale(0.1404494382022472)" fill="none" stroke="currentColor" paint-order="fill stroke markers" d="m34.2,168.7l-8.5,0l0,-2.5l8.5,0l0,2.5z" stroke-width="5" stroke-miterlimit="10" stroke-dasharray=""></path><path data-v-9833e8b2="" transform="scale(0.1404494382022472)" fill="none" stroke="currentColor" paint-order="fill stroke markers" d="m43.9,168.7l-8.5,0l0,-2.5l8.5,0l0,2.5z" stroke-width="5" stroke-miterlimit="10" stroke-dasharray=""></path><path data-v-9833e8b2="" transform="scale(0.1404494382022472)" fill="none" stroke="currentColor" paint-order="fill stroke markers" d="m78.7,90.9l-67.1,0l0,-1.1l67.1,0l0,1.1z" stroke-width="5" stroke-miterlimit="10" stroke-dasharray=""></path></g></svg>