<svg data-v-9833e8b2="" version="1.1" xmlns="http://www.w3.org/2000/svg" xmlns:xlink="http://www.w3.org/1999/xlink" width="25" height="25"><g data-v-9833e8b2=""><path data-v-9833e8b2="" transform="scale(0.16556291390728478)" fill="none" stroke="currentColor" paint-order="fill stroke markers" d="m1,75.5271c0,-41.1752 33.55103,-74.52711 74.97205,-74.52711c41.42102,0 74.97205,33.35191 74.97205,74.52711c0,41.1752 -33.55103,74.52711 -74.97205,74.52711c-41.42102,0 -74.97205,-33.35191 -74.97205,-74.52711z" stroke-width="5" stroke-miterlimit="10" stroke-dasharray=""></path><path data-v-9833e8b2="" transform="scale(0.16556291390728478)" fill="none" stroke="currentColor" paint-order="fill stroke markers" d="m24.13679,79.30906c0,-30.72776 23.39612,-55.61724 52.28021,-55.61724c28.88409,0 52.28021,24.88949 52.28021,55.61724c0,30.72776 -23.39612,55.61724 -52.28021,55.61724c-28.88409,0 -52.28021,-24.88949 -52.28021,-55.61724z" stroke-width="5" stroke-miterlimit="10" stroke-dasharray=""></path><path data-v-9833e8b2="" transform="scale(0.16556291390728478)" fill="none" stroke="currentColor" paint-order="fill stroke markers" d="m54.15205,52.66837c0,0 12.23958,-5.89681 21.79574,-6.91238c9.55616,-1.01556 15.93265,0.66112 25.74533,8.48891c9.81268,7.82779 9.81721,28.87377 9.81721,28.87377l17.48934,-1.83923c0,0 1.00276,-21.09012 -10.96521,-35.75765c0,0 -9.28841,-11.64847 -15.87644,-15.3786c-4.73811,-2.68271 -10.57899,-5.1064 -16.87841,-5.98375c-15.05835,-2.09725 -20.4932,-0.0842 -27.676,2.43872c-7.18279,2.5229 -14.89255,9.92127 -14.89255,9.92127l11.44099,16.14894z" stroke-width="5" stroke-miterlimit="10" stroke-dasharray=""></path><path data-v-9833e8b2="" transform="scale(0.16556291390728478)" fill="none" stroke="currentColor" paint-order="fill stroke markers" d="m43.03291,36.03479l11.98056,16.37396l-16.21464,29.73188l-14.84908,-1.93133c0,0 -2.55061,0.33394 3.98091,-22.00541c1.03238,-3.53097 4.35486,-9.52107 7.64972,-14.01747c3.6213,-4.9419 7.45253,-8.15163 7.45253,-8.15163z" stroke-width="5" stroke-miterlimit="10" stroke-dasharray=""></path><path data-v-9833e8b2="" transform="scale(0.16556291390728478)" fill="none" stroke="currentColor" paint-order="fill stroke markers" d="m74.18762,75.48258l26.32015,-33.42712l-17.28486,37.85722c0,0 -2.42093,6.55291 -4.32123,8.05473c-1.90028,1.50182 -3.69247,0.97109 -5.1069,0c-2.00028,-1.37333 -2.90447,-4.38355 -2.74986,-6.84652c0.13568,-2.16018 3.1427,-5.63831 3.1427,-5.63831z" stroke-width="5" stroke-miterlimit="10" stroke-dasharray=""></path><path data-v-9833e8b2="" transform="scale(0.16556291390728478)" fill="none" stroke="currentColor" paint-order="fill stroke markers" d="m73.07995,82.42364c0,-2.70404 1.49337,-4.89432 3.33703,-4.89432c1.84367,0 3.33703,2.19027 3.33703,4.89432c0,2.70404 -1.49337,4.89432 -3.33703,4.89432c-1.84367,0 -3.33703,-2.19027 -3.33703,-4.89432z" stroke-width="5" stroke-miterlimit="10" stroke-dasharray=""></path><path data-v-9833e8b2="" transform="scale(0.16556291390728478)" fill="none" stroke="currentColor" paint-order="fill stroke markers" d="m63.29221,100.43549c0,-1.80766 0,-3.32669 0,-3.32669l25.80806,0c0,0 0,1.51904 0,3.32669l0,4.91312c0,1.80766 0,3.32669 0,3.32669l-25.80806,0c0,0 0,-1.51904 0,-3.32669l0,-4.91312z" stroke-width="5" stroke-miterlimit="10" stroke-dasharray=""></path><path data-v-9833e8b2="" transform="scale(0.16556291390728478)" fill="none" stroke="currentColor" paint-order="fill stroke markers" d="m33.48047,102.44583c0,-2.2124 1.69248,-4.00444 3.78197,-4.00444c2.08949,0 3.78197,1.79204 3.78197,4.00444c0,2.2124 -1.69248,4.00444 -3.78197,4.00444c-2.08949,0 -3.78197,-1.79204 -3.78197,-4.00444z" stroke-width="5" stroke-miterlimit="10" stroke-dasharray=""></path><path data-v-9833e8b2="" transform="scale(0.16556291390728478)" fill="none" stroke="currentColor" paint-order="fill stroke markers" d="m43.04664,115.79397c0,-2.2124 1.69248,-4.00444 3.78197,-4.00444c2.08949,0 3.78197,1.79204 3.78197,4.00444c0,2.2124 -1.69248,4.00444 -3.78197,4.00444c-2.08949,0 -3.78197,-1.79204 -3.78197,-4.00444z" stroke-width="5" stroke-miterlimit="10" stroke-dasharray=""></path><path data-v-9833e8b2="" transform="scale(0.16556291390728478)" fill="none" stroke="currentColor" paint-order="fill stroke markers" d="m58.17453,126.02754c0,-2.2124 1.69248,-4.00444 3.78197,-4.00444c2.08949,0 3.78197,1.79204 3.78197,4.00444c0,2.2124 -1.69248,4.00444 -3.78197,4.00444c-2.08949,0 -3.78197,-1.79204 -3.78197,-4.00444z" stroke-width="5" stroke-miterlimit="10" stroke-dasharray=""></path><path data-v-9833e8b2="" transform="scale(0.16556291390728478)" fill="none" stroke="currentColor" paint-order="fill stroke markers" d="m77.7518,126.47248c0,-2.2124 1.69248,-4.00444 3.78197,-4.00444c2.08949,0 3.78197,1.79204 3.78197,4.00444c0,2.2124 -1.69248,4.00444 -3.78197,4.00444c-2.08949,0 -3.78197,-1.79204 -3.78197,-4.00444z" stroke-width="5" stroke-miterlimit="10" stroke-dasharray=""></path><path data-v-9833e8b2="" transform="scale(0.16556291390728478)" fill="none" stroke="currentColor" paint-order="fill stroke markers" d="m95.99426,119.35348c0,-2.2124 1.69248,-4.00444 3.78197,-4.00444c2.08949,0 3.78197,1.79204 3.78197,4.00444c0,2.2124 -1.69248,4.00444 -3.78197,4.00444c-2.08949,0 -3.78197,-1.79204 -3.78197,-4.00444z" stroke-width="5" stroke-miterlimit="10" stroke-dasharray=""></path><path data-v-9833e8b2="" transform="scale(0.16556291390728478)" fill="none" stroke="currentColor" paint-order="fill stroke markers" d="m108.45252,103.78065c0,-2.2124 1.69248,-4.00444 3.78197,-4.00444c2.08949,0 3.78197,1.79204 3.78197,4.00444c0,2.2124 -1.69248,4.00444 -3.78197,4.00444c-2.08949,0 -3.78197,-1.79204 -3.78197,-4.00444z" stroke-width="5" stroke-miterlimit="10" stroke-dasharray=""></path></g></svg>