<svg data-v-9833e8b2="" version="1.1" xmlns="http://www.w3.org/2000/svg" xmlns:xlink="http://www.w3.org/1999/xlink" width="24.5" height="25"><g data-v-9833e8b2=""><path data-v-9833e8b2="" transform="scale(0.039619651347068144)" fill="none" stroke="currentColor" paint-order="fill stroke markers" d="m234.46001,567.22399l47.539,0c9.163,0 16.586,4.712 16.586,10.52c0,5.802 -7.423,10.507 -16.586,10.507l-2.214,0c-9.164,0 -16.598,4.709 -16.598,10.518c0,5.806 7.434,10.518 16.598,10.518l102.18,0c9.161,0 16.598,4.695 16.598,10.518c0,5.798 -7.437,10.507 -16.598,10.507l-257.762,0c-9.165,0 -16.599,-4.709 -16.599,-10.507c0,-5.821 7.435,-10.518 16.599,-10.518l28.352,0c9.174,0 16.598,-4.712 16.598,-10.518c0,-5.808 -7.423,-10.518 -16.598,-10.518l-134.967,0c-9.164,0 -16.588,-4.705 -16.588,-10.507c0,-5.808 7.424,-10.52 16.588,-10.52l216.872,0zm304.572,57.838c13.75,0 24.901,-7.06 24.901,-15.771c0,-8.701 -11.151,-15.766 -24.901,-15.766l-76.278,0c-13.752,0 -24.902,7.063 -24.902,15.766c0,8.714 11.15,15.771 24.902,15.771l76.278,0z" stroke-width="5" stroke-miterlimit="10" stroke-dasharray=""></path><path data-v-9833e8b2="" transform="scale(0.039619651347068144)" fill="none" stroke="currentColor" paint-order="fill stroke markers" d="m186.16901,274.83899l199.748,0l0,202.406l-199.748,0l0,-202.406z" stroke-width="5" stroke-miterlimit="10" stroke-dasharray=""></path><path data-v-9833e8b2="" transform="scale(0.039619651347068144)" fill="none" stroke="currentColor" paint-order="fill stroke markers" d="m323.98301,387.03499l-80.843,0c-6.079,0 -11,-4.926 -11,-11c0,-6.07 4.921,-11.002 11,-11.002l80.843,0c6.08,0 11,4.932 11,11.002c0,6.074 -4.919,11 -11,11m-39.266,-258.25c-6.081,0 -11.001,-4.926 -11.001,-11.001l0,-94.143c0,-6.086 4.92,-11.001 11.001,-11.001s11,4.915 11,11.001l0,94.143c0,6.075 -4.919,11.001 -11,11.001" stroke-width="5" stroke-miterlimit="10" stroke-dasharray=""></path><path data-v-9833e8b2="" transform="scale(0.039619651347068144)" fill="none" stroke="currentColor" paint-order="fill stroke markers" d="m183.51601,581.93699l202.401,0l0,-376.902c0,-55.896 -45.314,-101.201 -101.2,-101.201c-55.897,0 -101.201,45.304 -101.201,101.201l0,376.902z" stroke-width="5" stroke-miterlimit="10" stroke-dasharray=""></path><path data-v-9833e8b2="" transform="scale(0.039619651347068144)" fill="none" stroke="currentColor" paint-order="fill stroke markers" d="m284.71701,117.15599c-6.081,0 -11.001,-4.926 -11.001,-11.002l0,-94.153c0,-6.075 4.92,-11.001 11.001,-11.001s11,4.926 11,11.001l0,94.153c0,6.076 -4.919,11.002 -11,11.002" stroke-width="5" stroke-miterlimit="10" stroke-dasharray=""></path><path data-v-9833e8b2="" transform="scale(0.039619651347068144)" fill="none" stroke="currentColor" paint-order="fill stroke markers" d="m471.44301,402.15599c-6.079,0 -11,-4.926 -11,-11.001l0,-200.349c0,-69.777 -56.768,-126.544 -126.534,-126.544l-97.739,0c-6.081,0 -11.003,-4.926 -11.003,-11.001c0,-6.071 4.922,-11.002 11.003,-11.002l97.739,0c81.906,0 148.536,66.635 148.536,148.547l0,200.349c0,6.075 -4.92,11.001 -11.002,11.001" stroke-width="5" stroke-miterlimit="10" stroke-dasharray=""></path><path data-v-9833e8b2="" transform="scale(0.039619651347068144)" fill="none" stroke="currentColor" paint-order="fill stroke markers" d="m183.51601,581.93699l202.401,0l0,-376.902c0,-55.896 -45.314,-101.201 -101.2,-101.201c-55.897,0 -101.201,45.304 -101.201,101.201l0,376.902z" stroke-width="5" stroke-miterlimit="10" stroke-dasharray=""></path><path data-v-9833e8b2="" transform="scale(0.039619651347068144)" fill="none" stroke="currentColor" paint-order="fill stroke markers" d="m284.71701,103.82899c-8.016,0 -15.792,1.037 -23.271,2.799c44.67,10.517 77.942,50.536 77.942,98.412l0,376.897l46.539,0l0,-376.897c0.001,-55.896 -45.314,-101.211 -101.21,-101.211" stroke-width="5" stroke-miterlimit="10" stroke-dasharray=""></path><path data-v-9833e8b2="" transform="scale(0.039619651347068144)" fill="none" stroke="currentColor" paint-order="fill stroke markers" d="m316.48501,54.18999c0,16.738 -13.57,30.291 -30.296,30.291c-16.727,0 -30.285,-13.553 -30.285,-30.291c0,-16.733 13.559,-30.285 30.285,-30.285c16.725,0 30.296,13.552 30.296,30.285" stroke-width="5" stroke-miterlimit="10" stroke-dasharray=""></path><path data-v-9833e8b2="" transform="scale(0.039619651347068144)" fill="none" stroke="currentColor" paint-order="fill stroke markers" d="m286.66001,23.94199c4.052,5.151 6.563,11.566 6.563,18.618c0,16.733 -13.568,30.297 -30.306,30.297c-0.15,0 -0.301,-0.043 -0.473,-0.054c5.554,7.058 14.073,11.683 23.742,11.683c16.739,0 30.296,-13.552 30.296,-30.291c0.003,-16.566 -13.32,-29.984 -29.822,-30.253" stroke-width="5" stroke-miterlimit="10" stroke-dasharray=""></path><path data-v-9833e8b2="" transform="scale(0.039619651347068144)" fill="none" stroke="currentColor" paint-order="fill stroke markers" d="m285.01801,45.71399c0,5.93 -4.813,10.737 -10.744,10.737c-5.93,0 -10.732,-4.807 -10.732,-10.737c0,-5.925 4.803,-10.744 10.732,-10.744c5.93,0 10.744,4.819 10.744,10.744" stroke-width="5" stroke-miterlimit="10" stroke-dasharray=""></path><path data-v-9833e8b2="" transform="scale(0.039619651347068144)" fill="none" stroke="currentColor" paint-order="fill stroke markers" d="m183.51601,274.83899l202.401,0l0,202.406l-202.401,0l0,-202.406z" stroke-width="5" stroke-miterlimit="10" stroke-dasharray=""></path><path data-v-9833e8b2="" transform="scale(0.039619651347068144)" fill="none" stroke="currentColor" paint-order="fill stroke markers" d="m339.40001,274.83899l46.519,0l0,202.406l-46.519,0l0,-202.406z" stroke-width="5" stroke-miterlimit="10" stroke-dasharray=""></path><path data-v-9833e8b2="" transform="scale(0.039619651347068144)" fill="none" stroke="currentColor" paint-order="fill stroke markers" d="m323.98301,433.30599l-80.843,0c-6.079,0 -11,-4.926 -11,-11c0,-6.07 4.921,-11.002 11,-11.002l80.843,0c6.08,0 11,4.932 11,11.002c0,6.074 -4.919,11 -11,11m1.155,-79.451l-80.843,0c-6.079,0 -11,-4.926 -11,-11c0,-6.07 4.921,-11.002 11,-11.002l80.843,0c6.08,0 11,4.932 11,11.002c0,6.074 -4.919,11 -11,11" stroke-width="5" stroke-miterlimit="10" stroke-dasharray=""></path><path data-v-9833e8b2="" transform="scale(0.039619651347068144)" fill="none" stroke="currentColor" paint-order="fill stroke markers" d="m211.71201,374.80799a5.965,5.965 0 0 1 -11.93,0l0,-172.07a5.965,5.965 0 0 1 11.93,0l0,172.07z" stroke-width="5" stroke-miterlimit="10" stroke-dasharray=""></path></g></svg>