<svg data-v-9833e8b2="" version="1.1" xmlns="http://www.w3.org/2000/svg" xmlns:xlink="http://www.w3.org/1999/xlink" width="19.5" height="25"><g data-v-9833e8b2=""><path data-v-9833e8b2="" transform="scale(0.1016260162601626)" fill="none" stroke="currentColor" paint-order="fill stroke markers" d="m6,175l162,0l-57.98864,58l-46.02273,0z" stroke-width="5" stroke-miterlimit="10" stroke-dasharray=""></path><path data-v-9833e8b2="" transform="scale(0.1016260162601626)" fill="none" stroke="currentColor" paint-order="fill stroke markers" d="m7,175l160,0l-57.27273,58l-45.45455,0z" stroke-width="5" stroke-miterlimit="10" stroke-dasharray=""></path><path data-v-9833e8b2="" transform="scale(0.1016260162601626)" fill="none" stroke="currentColor" paint-order="fill stroke markers" d="m16,13l142,0l0,152l-142,0l0,-152z" stroke-width="5" stroke-miterlimit="10" stroke-dasharray=""></path><path data-v-9833e8b2="" transform="scale(0.1016260162601626)" fill="none" stroke="currentColor" paint-order="fill stroke markers" d="m6,159c0,0 1.82648,0 4,0l154,0c2.17352,0 4,0 4,0l0,8c0,0 -1.82648,0 -4,0l-154,0c-2.17352,0 -4,0 -4,0l0,-8z" stroke-width="5" stroke-miterlimit="10" stroke-dasharray=""></path><path data-v-9833e8b2="" transform="scale(0.1016260162601626)" fill="none" stroke="currentColor" paint-order="fill stroke markers" d="m63,231l48,0l0,14l-48,0l0,-14z" stroke-width="5" stroke-miterlimit="10" stroke-dasharray=""></path><path data-v-9833e8b2="" transform="scale(0.1016260162601626)" fill="none" stroke="currentColor" paint-order="fill stroke markers" d="m1,171l172,0l0,6l-172,0l0,-6z" stroke-width="5" stroke-miterlimit="10" stroke-dasharray=""></path><path data-v-9833e8b2="" transform="scale(0.1016260162601626)" fill="none" stroke="currentColor" paint-order="fill stroke markers" d="m18,59l138,0l0,100l-138,0l0,-100z" stroke-width="5" stroke-miterlimit="10" stroke-dasharray=""></path><path data-v-9833e8b2="" transform="scale(0.1016260162601626)" fill="none" stroke="currentColor" paint-order="fill stroke markers" d="m1,1c0,0 1.82648,0 4,0l164,0c2.17352,0 4,0 4,0l0,8c0,0 -1.82648,0 -4,0l-164,0c-2.17352,0 -4,0 -4,0l0,-8z" stroke-width="5" stroke-miterlimit="10" stroke-dasharray=""></path><path data-v-9833e8b2="" transform="scale(0.1016260162601626)" fill="none" stroke="currentColor" paint-order="fill stroke markers" d="m6,13l162,0l0,8l-162,0l0,-8z" stroke-width="5" stroke-miterlimit="10" stroke-dasharray=""></path><path data-v-9833e8b2="" transform="scale(0.1016260162601626)" fill="none" stroke="currentColor" paint-order="fill stroke markers" d="m6,9l162,0l0,4l-162,0l0,-4z" stroke-width="5" stroke-miterlimit="10" stroke-dasharray=""></path><path data-v-9833e8b2="" transform="scale(0.1016260162601626)" fill="none" stroke="currentColor" paint-order="fill stroke markers" d="m6,167l162,0l0,4l-162,0l0,-4z" stroke-width="5" stroke-miterlimit="10" stroke-dasharray=""></path><path data-v-9833e8b2="" transform="scale(0.1016260162601626)" fill="none" stroke="currentColor" paint-order="fill stroke markers" d="m42,94.55848c0,-0.95509 0.77363,-1.72872 1.72872,-1.72872c0.95509,0 1.72872,0.77363 1.72872,1.72872c0,0.95509 -0.77363,1.72872 -1.72872,1.72872c-0.95509,0 -1.72872,-0.77363 -1.72872,-1.72872z" stroke-width="5" stroke-miterlimit="10" stroke-dasharray=""></path><path data-v-9833e8b2="" transform="scale(0.1016260162601626)" fill="none" stroke="currentColor" paint-order="fill stroke markers" d="m47.7624,81.30496c0,-1.27346 1.0315,-2.30496 2.30496,-2.30496c1.27346,0 2.30496,1.0315 2.30496,2.30496c0,1.27346 -1.0315,2.30496 -2.30496,2.30496c-1.27346,0 -2.30496,-1.0315 -2.30496,-2.30496z" stroke-width="5" stroke-miterlimit="10" stroke-dasharray=""></path><path data-v-9833e8b2="" transform="scale(0.1016260162601626)" fill="none" stroke="currentColor" paint-order="fill stroke markers" d="m67.35456,125.0992c0,-0.63673 0.51575,-1.15248 1.15248,-1.15248c0.63673,0 1.15248,0.51575 1.15248,1.15248c0,0.63673 -0.51575,1.15248 -1.15248,1.15248c-0.63673,0 -1.15248,-0.51575 -1.15248,-1.15248z" stroke-width="5" stroke-miterlimit="10" stroke-dasharray=""></path><path data-v-9833e8b2="" transform="scale(0.1016260162601626)" fill="none" stroke="currentColor" paint-order="fill stroke markers" d="m62.74464,111.26944c0,-0.63673 0.51575,-1.15248 1.15248,-1.15248c0.63673,0 1.15248,0.51575 1.15248,1.15248c0,0.63673 -0.51575,1.15248 -1.15248,1.15248c-0.63673,0 -1.15248,-0.51575 -1.15248,-1.15248z" stroke-width="5" stroke-miterlimit="10" stroke-dasharray=""></path><path data-v-9833e8b2="" transform="scale(0.1016260162601626)" fill="none" stroke="currentColor" paint-order="fill stroke markers" d="m54.25352,116.4556c0,-0.55249 0.44751,-1 1,-1c0.55249,0 1,0.44751 1,1c0,0.55249 -0.44751,1 -1,1c-0.55249,0 -1,-0.44751 -1,-1z" stroke-width="5" stroke-miterlimit="10" stroke-dasharray=""></path><path data-v-9833e8b2="" transform="scale(0.1016260162601626)" fill="none" stroke="currentColor" paint-order="fill stroke markers" d="m55.406,95.71096c0,-0.55249 0.44751,-1 1,-1c0.55249,0 1,0.44751 1,1c0,0.55249 -0.44751,1 -1,1c-0.55249,0 -1,-0.44751 -1,-1z" stroke-width="5" stroke-miterlimit="10" stroke-dasharray=""></path><path data-v-9833e8b2="" transform="scale(0.1016260162601626)" fill="none" stroke="currentColor" paint-order="fill stroke markers" d="m107.7624,80.72872c0,-0.95509 0.77363,-1.72872 1.72872,-1.72872c0.95509,0 1.72872,0.77363 1.72872,1.72872c0,0.95509 -0.77363,1.72872 -1.72872,1.72872c-0.95509,0 -1.72872,-0.77363 -1.72872,-1.72872z" stroke-width="5" stroke-miterlimit="10" stroke-dasharray=""></path><path data-v-9833e8b2="" transform="scale(0.1016260162601626)" fill="none" stroke="currentColor" paint-order="fill stroke markers" d="m113.5248,90.5248c0,-1.27346 1.0315,-2.30496 2.30496,-2.30496c1.27346,0 2.30496,1.0315 2.30496,2.30496c0,1.27346 -1.0315,2.30496 -2.30496,2.30496c-1.27346,0 -2.30496,-1.0315 -2.30496,-2.30496z" stroke-width="5" stroke-miterlimit="10" stroke-dasharray=""></path><path data-v-9833e8b2="" transform="scale(0.1016260162601626)" fill="none" stroke="currentColor" paint-order="fill stroke markers" d="m104.30496,110.11696c0,-0.63673 0.51575,-1.15248 1.15248,-1.15248c0.63673,0 1.15248,0.51575 1.15248,1.15248c0,0.63673 -0.51575,1.15248 -1.15248,1.15248c-0.63673,0 -1.15248,-0.51575 -1.15248,-1.15248z" stroke-width="5" stroke-miterlimit="10" stroke-dasharray=""></path><path data-v-9833e8b2="" transform="scale(0.1016260162601626)" fill="none" stroke="currentColor" paint-order="fill stroke markers" d="m102,133.16656c0,-0.63673 0.51575,-1.15248 1.15248,-1.15248c0.63673,0 1.15248,0.51575 1.15248,1.15248c0,0.63673 -0.51575,1.15248 -1.15248,1.15248c-0.63673,0 -1.15248,-0.51575 -1.15248,-1.15248z" stroke-width="5" stroke-miterlimit="10" stroke-dasharray=""></path><path data-v-9833e8b2="" transform="scale(0.1016260162601626)" fill="none" stroke="currentColor" paint-order="fill stroke markers" d="m115.406,107.23576c0,-0.55249 0.44751,-1 1,-1c0.55249,0 1,0.44751 1,1c0,0.55249 -0.44751,1 -1,1c-0.55249,0 -1,-0.44751 -1,-1z" stroke-width="5" stroke-miterlimit="10" stroke-dasharray=""></path><path data-v-9833e8b2="" transform="scale(0.1016260162601626)" fill="none" stroke="currentColor" paint-order="fill stroke markers" d="m130.38824,91.10104c0,-0.55249 0.44751,-1 1,-1c0.55249,0 1,0.44751 1,1c0,0.55249 -0.44751,1 -1,1c-0.55249,0 -1,-0.44751 -1,-1z" stroke-width="5" stroke-miterlimit="10" stroke-dasharray=""></path></g></svg>