<svg data-v-9833e8b2="" version="1.1" xmlns="http://www.w3.org/2000/svg" xmlns:xlink="http://www.w3.org/1999/xlink" width="22" height="25"><g data-v-9833e8b2=""><path data-v-9833e8b2="" transform="scale(0.06944444444444445)" fill="none" stroke="currentColor" paint-order="fill stroke markers" d="m25.49325,18.73649l217.9054,0l0,230.57433l-217.9054,0l0,-230.57433z" stroke-width="5" stroke-miterlimit="10" stroke-dasharray=""></path><path data-v-9833e8b2="" transform="scale(0.06944444444444445)" fill="none" stroke="currentColor" paint-order="fill stroke markers" d="m108.41184,126.78187c104.8453,0.84463 105.5047,2.53389 105.5047,2.53389l-0.6594,27.02816l-106.1641,-1.68925l27.03557,35.47445l-32.97022,0l-37.58605,-46.45465l39.56426,-53.21168l27.03558,0.84464l-21.76034,35.47444z" stroke-width="5" stroke-miterlimit="10" stroke-dasharray=""></path><path data-v-9833e8b2="" transform="scale(0.06944444444444445)" fill="none" stroke="currentColor" paint-order="fill stroke markers" d="m1,1l275.33783,0l0,358.10809l-275.33783,0l0,-358.10809z" stroke-width="5" stroke-miterlimit="10" stroke-dasharray=""></path><path data-v-9833e8b2="" transform="scale(0.06944444444444445)" fill="none" stroke="currentColor" paint-order="fill stroke markers" d="m22.11488,266.20268l223.81757,0l0,70.94595l-223.81757,0l0,-70.94595z" stroke-width="5" stroke-miterlimit="10" stroke-dasharray=""></path></g></svg>