<svg data-v-9833e8b2="" version="1.1" xmlns="http://www.w3.org/2000/svg" xmlns:xlink="http://www.w3.org/1999/xlink" width="25" height="25"><g data-v-9833e8b2=""><path data-v-9833e8b2="" transform="scale(0.024366471734892786)" fill="none" stroke="currentColor" paint-order="fill stroke markers" d="m513,513m-512,0a512,512 0 1 0 1024,0a512,512 0 1 0 -1024,0z" stroke-width="5" stroke-miterlimit="10" stroke-dasharray=""></path><path data-v-9833e8b2="" transform="scale(0.024366471734892786)" fill="none" stroke="currentColor" paint-order="fill stroke markers" d="m513,513m-426.66667,0a426.66667,426.66667 0 1 0 853.33334,0a426.66667,426.66667 0 1 0 -853.33334,0z" stroke-width="5" stroke-miterlimit="10" stroke-dasharray=""></path><path data-v-9833e8b2="" transform="scale(0.024366471734892786)" fill="none" stroke="currentColor" paint-order="fill stroke markers" d="m163.13333,381.58667s191.14667,-197.97334 322.56,-95.57334s-204.8,143.36 -215.04,302.08c-5.12,71.68 42.66667,105.81334 42.66667,105.81334s-22.18667,-27.30667 -23.89333,-100.69334c-3.41334,-141.65333 262.82666,-175.78666 244.05333,-266.24c-42.66667,-197.97333 -356.69333,-49.49333 -370.34667,54.61334z" stroke-width="5" stroke-miterlimit="10" stroke-dasharray=""></path><path data-v-9833e8b2="" transform="scale(0.024366471734892786)" fill="none" stroke="currentColor" paint-order="fill stroke markers" d="m458.38667,437.90667s-153.6,6.82666 -177.49334,68.26666c-29.01333,76.8 59.73334,66.56 80.21334,146.77334c11.94666,47.78666 -10.24,78.50666 -10.24,78.50666s11.94666,-22.18666 -1.70667,-71.68c-13.65333,-52.90666 -100.69333,-46.08 -105.81333,-110.93333c-5.12,-71.68 104.10666,-134.82667 215.04,-110.93333zm257.70666,-158.72l-382.29333,491.52s-23.89333,52.90666 37.54667,92.16s87.04,13.65333 87.04,13.65333l368.64,-501.76s20.48,-51.2 -25.6,-85.33333s-85.33334,-10.24 -85.33334,-10.24z" stroke-width="5" stroke-miterlimit="10" stroke-dasharray=""></path><path data-v-9833e8b2="" transform="scale(0.024366471734892786)" fill="none" stroke="currentColor" paint-order="fill stroke markers" d="m722.92,304.78667l-261.12,334.50666s29.01333,-3.41333 51.2,11.94667c40.96,29.01333 34.13333,59.73333 34.13333,59.73333l250.88,-341.33333s13.65334,-34.13333 -18.77333,-58.02667s-56.32,-6.82666 -56.32,-6.82666zm-300.37333,426.66666l-8.53334,10.24s39.25334,6.82667 49.49334,40.96l13.65333,-17.06666c-1.70667,0 -17.06667,-39.25334 -54.61333,-34.13334z" stroke-width="5" stroke-miterlimit="10" stroke-dasharray=""></path><path data-v-9833e8b2="" transform="scale(0.024366471734892786)" fill="none" stroke="currentColor" paint-order="fill stroke markers" d="m201.6528,153.3712l670.976,670.976l-48.2816,48.26453l-670.976,-670.976l48.2816,-48.26453z" stroke-width="5" stroke-miterlimit="10" stroke-dasharray=""></path></g></svg>