<svg data-v-9833e8b2="" version="1.1" xmlns="http://www.w3.org/2000/svg" xmlns:xlink="http://www.w3.org/1999/xlink" width="22" height="25"><g data-v-9833e8b2=""><path data-v-9833e8b2="" transform="scale(0.059665871121718374)" fill="none" stroke="currentColor" paint-order="fill stroke markers" d="m77.32583,243.10248c1.875,80.625 0.82376,72.89752 0.82376,72.89752l-71.25,2.8125l1.875,-317.8125l317.8125,0.9375l-1.875,314.0625l-87.1875,-2.8125l23.4375,-29.0625l-3.75,-245.625l-180.27459,-3.24794l-1.60041,171.99794c0,0 -20.16742,-2.01425 -25.03791,4.96209c-5.27365,7.5538 -1.4079,22.31959 4.29917,27.30124c5.70707,4.98165 22.72748,3.58915 22.72748,3.58915z" stroke-width="5" stroke-miterlimit="10" stroke-dasharray=""></path><path data-v-9833e8b2="" transform="scale(0.059665871121718374)" fill="none" stroke="currentColor" paint-order="fill stroke markers" d="m180.33711,62.875c0,-11.39503 9.85929,-20.625 22.03125,-20.625c12.17196,0 22.03125,9.22997 22.03125,20.625c0,11.39503 -9.85929,20.625 -22.03125,20.625c-12.17196,0 -22.03125,-9.22997 -22.03125,-20.625z" stroke-width="5" stroke-miterlimit="10" stroke-dasharray=""></path><path data-v-9833e8b2="" transform="scale(0.059665871121718374)" fill="none" stroke="currentColor" paint-order="fill stroke markers" d="m122.21209,107.875c31.875,-0.9375 31.875,0 31.875,0l-17.8125,42.1875l-8.4375,17.8125l-0.9375,23.4375c-1.41162,20.99864 4.07794,16.75591 -2.8125,19.6875c-10.59842,4.56588 -63.22388,-2.2332 -66.5625,1.875c-3.33862,4.1082 -5.94634,8.36136 -1.37294,19.52665c4.5734,11.16529 69.42192,2.44719 88.56044,2.03585c10.88198,-4.40405 8.71145,-31.18862 10.3125,-58.125l0.9375,-2.8125l50.625,99.375c0,0 5.93834,4.7204 10.3125,3.75c4.37416,-0.9704 9.89825,-4.31779 11.25,-11.25c1.35175,-6.93221 -10.3125,-24.375 -10.3125,-24.375l-35.625,-74.0625l20.625,-42.1875l21.5625,27.1875c0,0 17.49087,6.02426 27.1875,0c9.69663,-6.02426 5.90577,-10.71953 0.9375,-15.9375c-4.96827,-5.21797 -17.8125,-4.6875 -17.8125,-4.6875l-27.1875,-42.1875l-92.8125,-1.875c0,0 -31.80964,24.77081 -30.9375,42.1875c0.21026,4.199 4.23397,9.29681 8.4375,9.375c14.36232,0.26717 30,-30.9375 30,-30.9375z" stroke-width="5" stroke-miterlimit="10" stroke-dasharray=""></path><path data-v-9833e8b2="" transform="scale(0.059665871121718374)" fill="none" stroke="currentColor" paint-order="fill stroke markers" d="m186.89959,309.4375c0,0 17.33173,-20.18436 25.3125,-19.6875c7.98077,0.49686 11.00729,6.38367 11.25,11.25c0.24271,4.86633 -8.4375,10.3125 -8.4375,10.3125l-29.77252,-1.21209" stroke-width="5" stroke-miterlimit="10" stroke-dasharray=""></path><path data-v-9833e8b2="" transform="scale(0.059665871121718374)" fill="none" stroke="currentColor" paint-order="fill stroke markers" d="m1,344.60665c0,-0.51953 0,-0.9561 0,-0.9561l327.1875,0c0,0 0,0.43658 0,0.9561l0,73.08779c0,0.51953 0,0.9561 0,0.9561l-327.1875,0c0,0 0,-0.43658 0,-0.9561l0,-73.08779z" stroke-width="5" stroke-miterlimit="10" stroke-dasharray=""></path></g></svg>