<svg data-v-9833e8b2="" version="1.1" xmlns="http://www.w3.org/2000/svg" xmlns:xlink="http://www.w3.org/1999/xlink" width="25" height="17.5"><g data-v-9833e8b2=""><path data-v-9833e8b2="" transform="scale(0.13812154696132597)" fill="none" stroke="currentColor" paint-order="fill stroke markers" d="m157.46828,104.9254c-4.04805,0 -7.33945,3.29141 -7.33945,7.30156c0,4.04805 3.29141,7.33945 7.33945,7.33945c4.04805,0 7.30156,-3.29141 7.30156,-7.33945c0,-4.01016 -3.25352,-7.30156 -7.30156,-7.30156z" stroke-width="5" stroke-miterlimit="10" stroke-dasharray=""></path><path data-v-9833e8b2="" transform="scale(0.13812154696132597)" fill="none" stroke="currentColor" paint-order="fill stroke markers" d="m109.95109,110.22149l27.69297,0c0.18906,-1.70234 0.56758,-3.3293 1.13516,-4.88047l-29.96328,0c0.56758,1.55117 0.98359,3.17813 1.13516,4.88047z" stroke-width="5" stroke-miterlimit="10" stroke-dasharray=""></path><path data-v-9833e8b2="" transform="scale(0.13812154696132597)" fill="none" stroke="currentColor" paint-order="fill stroke markers" d="m124.66789,48.55508l-38.28633,0l0,28.75274l38.28633,0l0,-28.75274zm-28.29883,22.2832c0,1.05938 -0.87031,1.9293 -1.9293,1.9293s-1.9293,-0.87031 -1.9293,-1.9293l0,-15.24609c0,-1.05938 0.87031,-1.9293 1.9293,-1.9293s1.9293,0.87031 1.9293,1.9293l0,15.24609zm6.43164,0c0,1.05938 -0.83242,1.9293 -1.8918,1.9293c-1.05938,0 -1.9293,-0.87031 -1.9293,-1.9293c0,-5.06953 0,-10.17695 0,-15.24609c0,-1.05938 0.87031,-1.9293 1.9293,-1.9293c1.05938,0 1.8918,0.87031 1.8918,1.9293c0,5.06914 0,10.17656 0,15.24609zm6.46953,0c0,1.05938 -0.87031,1.9293 -1.9293,1.9293c-1.05938,0 -1.92969,-0.87031 -1.92969,-1.9293c0,-5.06953 0,-10.17695 0,-15.24609c0,-1.05938 0.87031,-1.9293 1.92969,-1.9293c1.05938,0 1.9293,0.87031 1.9293,1.9293c0,5.06914 0,10.17656 0,15.24609zm6.46914,0c0,1.05938 -0.87031,1.9293 -1.9293,1.9293c-1.05938,0 -1.92969,-0.87031 -1.92969,-1.9293l0,-15.24609c0,-1.05938 0.87031,-1.9293 1.92969,-1.9293c1.05938,0 1.9293,0.87031 1.9293,1.9293l0,15.24609z" stroke-width="5" stroke-miterlimit="10" stroke-dasharray=""></path><path data-v-9833e8b2="" transform="scale(0.13812154696132597)" fill="none" stroke="currentColor" paint-order="fill stroke markers" d="m90.16476,94.21876c-9.95,0 -18.0461,8.0582 -18.0461,18.0082c0,9.94961 8.09609,18.0457 18.0461,18.0457c9.95,0 18.0082,-8.09609 18.0082,-18.0457c0,-9.95 -8.05859,-18.0082 -18.0082,-18.0082zm0,28.60117c-5.86406,0 -10.59297,-4.72891 -10.59297,-10.59297c0,-5.82617 4.72891,-10.55547 10.59297,-10.55547c5.82617,0 10.55508,4.72891 10.55508,10.55547c0,5.86406 -4.72891,10.59297 -10.55508,10.59297z" stroke-width="5" stroke-miterlimit="10" stroke-dasharray=""></path><path data-v-9833e8b2="" transform="scale(0.13812154696132597)" fill="none" stroke="currentColor" paint-order="fill stroke markers" d="m121.67882,40.00508l-27.5418,0c-2.61055,0 -4.7668,2.11875 -4.7668,4.72891l0,1.9293l32.3086,0l0,-6.6582z" stroke-width="5" stroke-miterlimit="10" stroke-dasharray=""></path><path data-v-9833e8b2="" transform="scale(0.13812154696132597)" fill="none" stroke="currentColor" paint-order="fill stroke markers" d="m177.25461,110.22149l3.74531,0l0,-4.88047l-4.84258,0c0.56758,1.55117 0.94609,3.17813 1.09727,4.88047z" stroke-width="5" stroke-miterlimit="10" stroke-dasharray=""></path><path data-v-9833e8b2="" transform="scale(0.13812154696132597)" fill="none" stroke="currentColor" paint-order="fill stroke markers" d="m169.6882,96.52657c2.3457,1.85352 4.31328,4.19922 5.63711,6.92344l5.67461,0l0,-6.92344l-11.31172,0z" stroke-width="5" stroke-miterlimit="10" stroke-dasharray=""></path><path data-v-9833e8b2="" transform="scale(0.13812154696132597)" fill="none" stroke="currentColor" paint-order="fill stroke markers" d="m80.93351,48.55508l3.55625,0l0,28.75274l-3.55625,0l0,-28.75274z" stroke-width="5" stroke-miterlimit="10" stroke-dasharray=""></path><path data-v-9833e8b2="" transform="scale(0.13812154696132597)" fill="none" stroke="currentColor" paint-order="fill stroke markers" d="m157.46828,94.21876c-9.94961,0 -18.0082,8.0582 -18.0082,18.0082c0,9.94961 8.0582,18.0457 18.0082,18.0457c9.95,0 18.0082,-8.09609 18.0082,-18.0457c0,-9.95 -8.0582,-18.0082 -18.0082,-18.0082zm0,28.60117c-5.86406,0 -10.59297,-4.72891 -10.59297,-10.59297c0,-5.82617 4.72891,-10.55547 10.59297,-10.55547c5.82617,0 10.55547,4.72891 10.55547,10.55547c0,5.86406 -4.7293,10.59297 -10.55547,10.59297z" stroke-width="5" stroke-miterlimit="10" stroke-dasharray=""></path><path data-v-9833e8b2="" transform="scale(0.13812154696132597)" fill="none" stroke="currentColor" paint-order="fill stroke markers" d="m129.69953,34.40586c-0.22695,0.68086 -0.34063,1.4 -0.34063,2.11875l0,12.25781l34.54063,0l0,-12.25781c0,-0.71875 -0.15117,-1.43789 -0.37813,-2.11875l-33.82188,0zm9.19297,13.43047l-3.93438,0l4.88047,-12.48477l3.89648,0l-4.84258,12.48477zm7.41523,0l-1.47578,0l4.84258,-12.48477l1.51328,0l-4.88008,12.48477zm7.1125,0l-0.94609,0l4.84258,-12.48477l0.98359,0l-4.88008,12.48477z" stroke-width="5" stroke-miterlimit="10" stroke-dasharray=""></path><path data-v-9833e8b2="" transform="scale(0.13812154696132597)" fill="none" stroke="currentColor" paint-order="fill stroke markers" d="m166.69953,36.52422c0,-5.29648 -4.35078,-9.68516 -9.68516,-9.68516l-20.76992,0c-5.33438,0 -9.68516,4.38867 -9.68516,9.68516l0,40.78321l40.13985,0l0,-40.78321l0.00039,0zm-18.5,39.30782l-3.14023,0l0,-22.66133c0,-0.87031 0.71875,-1.58906 1.55117,-1.58906c0.86992,0 1.58867,0.71875 1.58867,1.58906l0,22.66133l0.00039,0zm16.83516,-25.87696l-36.81094,0l0,-13.43047c0,-1.13516 0.22695,-2.23203 0.68086,-3.29141l35.41094,0c0.4918,1.05938 0.71875,2.15664 0.71875,3.29141l0,13.43047l0.00039,0z" stroke-width="5" stroke-miterlimit="10" stroke-dasharray=""></path><path data-v-9833e8b2="" transform="scale(0.13812154696132597)" fill="none" stroke="currentColor" paint-order="fill stroke markers" d="m108.0214,103.44962l31.55196,0c1.36211,-2.72383 3.29141,-5.06953 5.63711,-6.92344l-42.82618,0c2.3457,1.85391 4.31289,4.19961 5.63711,6.92344z" stroke-width="5" stroke-miterlimit="10" stroke-dasharray=""></path><path data-v-9833e8b2="" transform="scale(0.13812154696132597)" fill="none" stroke="currentColor" paint-order="fill stroke markers" d="m16.08897,56.61329l18.9918,-35.48711l-7.18828,-10.025l-4.04805,4.91797l-15.96524,44.52891c0.71875,-0.52969 1.43789,-0.98359 2.15664,-1.39961c1.89141,-1.05977 3.93438,-1.96758 6.05313,-2.53516z" stroke-width="5" stroke-miterlimit="10" stroke-dasharray=""></path><path data-v-9833e8b2="" transform="scale(0.13812154696132597)" fill="none" stroke="currentColor" paint-order="fill stroke markers" d="m72.26983,103.44962c1.36211,-2.72383 3.29141,-5.06953 5.63711,-6.92344l-11.27422,0l0,6.92344l5.63711,0z" stroke-width="5" stroke-miterlimit="10" stroke-dasharray=""></path><path data-v-9833e8b2="" transform="scale(0.13812154696132597)" fill="none" stroke="currentColor" paint-order="fill stroke markers" d="m27.43858,82.86915l3.89688,1.17266l-6.09102,-24.93165l-3.89687,-1.21055z" stroke-width="5" stroke-miterlimit="10" stroke-dasharray=""></path><path data-v-9833e8b2="" transform="scale(0.13812154696132597)" fill="none" stroke="currentColor" paint-order="fill stroke markers" d="m83.8089,83.17149l79.97735,0c1.58906,0 2.91328,-1.32383 2.91328,-2.91328l0,-1.05898l-85.76602,0l0,1.05898c0,1.58945 1.28633,2.91328 2.87539,2.91328z" stroke-width="5" stroke-miterlimit="10" stroke-dasharray=""></path><path data-v-9833e8b2="" transform="scale(0.13812154696132597)" fill="none" stroke="currentColor" paint-order="fill stroke markers" d="m79.0421,53.2461l-45.85313,-51.98125l-6.99883,0l-1.36172,2.30781l54.21368,75.66446l0,-25.99102zm-44.37735,-40.10196c-1.66484,0 -3.02656,-1.36211 -3.02656,-3.02656c0,-1.66484 1.36172,-3.02656 3.02656,-3.02656c1.66445,0 3.02656,1.36172 3.02656,3.02656c0,1.66445 -1.36211,3.02656 -3.02656,3.02656z" stroke-width="5" stroke-miterlimit="10" stroke-dasharray=""></path><path data-v-9833e8b2="" transform="scale(0.13812154696132597)" fill="none" stroke="currentColor" paint-order="fill stroke markers" d="m25.81202,84.23087c-2.11875,-8.77734 -4.23711,-17.5543 -6.35586,-26.33125c-13.50625,1.39961 -28.41211,19.4836 -9.53359,25.42344c7.41484,2.26992 14.86797,4.53984 22.3211,6.80977c1.02148,-0.98359 2.08086,-1.96758 3.13984,-2.95117c-3.17813,-0.9832 -6.39375,-1.96719 -9.57149,-2.95078z" stroke-width="5" stroke-miterlimit="10" stroke-dasharray=""></path><path data-v-9833e8b2="" transform="scale(0.13812154696132597)" fill="none" stroke="currentColor" paint-order="fill stroke markers" d="m33.5296,90.58673l3.59414,1.09727l3.36719,-2.91328l-3.7832,-1.13477c-1.05938,0.98359 -2.11875,1.96719 -3.17813,2.95078z" stroke-width="5" stroke-miterlimit="10" stroke-dasharray=""></path><path data-v-9833e8b2="" transform="scale(0.13812154696132597)" fill="none" stroke="currentColor" paint-order="fill stroke markers" d="m111.16163,91.83516l25.27188,0l0,2.79961l-25.27188,0l0,-2.79961z" stroke-width="5" stroke-miterlimit="10" stroke-dasharray=""></path><path data-v-9833e8b2="" transform="scale(0.13812154696132597)" fill="none" stroke="currentColor" paint-order="fill stroke markers" d="m90.16476,104.9254c-4.04805,0 -7.33945,3.29141 -7.33945,7.30156c0,4.04805 3.29141,7.33945 7.33945,7.33945c4.01016,0 7.30156,-3.29141 7.30156,-7.33945c0,-4.01016 -3.29141,-7.30156 -7.30156,-7.30156z" stroke-width="5" stroke-miterlimit="10" stroke-dasharray=""></path><path data-v-9833e8b2="" transform="scale(0.13812154696132597)" fill="none" stroke="currentColor" paint-order="fill stroke markers" d="m100.98468,85.06329l45.62618,0l0,4.88047l-45.62618,0l0,-4.88047z" stroke-width="5" stroke-miterlimit="10" stroke-dasharray=""></path><path data-v-9833e8b2="" transform="scale(0.13812154696132597)" fill="none" stroke="currentColor" paint-order="fill stroke markers" d="m66.63272,110.22149l3.70742,0c0.18906,-1.70234 0.56758,-3.3293 1.13477,-4.88047l-4.84219,0l0,4.88047z" stroke-width="5" stroke-miterlimit="10" stroke-dasharray=""></path><path data-v-9833e8b2="" transform="scale(0.13812154696132597)" fill="none" stroke="currentColor" paint-order="fill stroke markers" d="m43.21475,5.91797l-0.45391,-2.68594l-4.53984,-2.23203l-2.30781,0.4918l6.01524,6.84766z" stroke-width="5" stroke-miterlimit="10" stroke-dasharray=""></path><path data-v-9833e8b2="" transform="scale(0.13812154696132597)" fill="none" stroke="currentColor" paint-order="fill stroke markers" d="m34.66475,8.18789c-1.05938,0 -1.92969,0.87031 -1.92969,1.92969c0,1.05938 0.87031,1.9293 1.92969,1.9293c1.05898,0 1.9293,-0.86992 1.9293,-1.9293c0,-1.05938 -0.87031,-1.92969 -1.9293,-1.92969z" stroke-width="5" stroke-miterlimit="10" stroke-dasharray=""></path></g></svg>