<svg data-v-9833e8b2="" version="1.1" xmlns="http://www.w3.org/2000/svg" xmlns:xlink="http://www.w3.org/1999/xlink" width="25" height="20"><g data-v-9833e8b2=""><path data-v-9833e8b2="" transform="scale(0.12437810945273632)" fill="none" stroke="currentColor" paint-order="fill stroke markers" d="m93.025,62.86223c0.27262,-1.24658 49.42026,-19.92223 49.42026,-19.92223l2.31618,-0.74531c-2.05235,-4.4235 -4.14428,-10.42336 -5.29193,-18.45359c0,0 -17.86328,1.92374 -26.6575,5.49639s-49.46753,28.06788 -49.46753,28.06788s-12.55266,7.79608 -12.1844,10.2013c0.36716,2.40412 9.43621,6.80124 9.43621,6.80124s32.1561,-10.19911 32.42872,-11.44569" stroke-width="5" stroke-miterlimit="10" stroke-dasharray=""></path><path data-v-9833e8b2="" transform="scale(0.12437810945273632)" fill="none" stroke="currentColor" paint-order="fill stroke markers" d="m78.20013,83.9266l14.82487,-0.82446l16.764,-14.09825l24.32154,-5.34579l12.77911,-0.48039s4.67193,-8.60295 3.29784,-11.37863c-0.73652,-1.48732 -3.0538,-4.48945 -5.42604,-9.6033l-1.2202,0.39244s-50.24253,19.02741 -50.51515,20.27399c-0.27262,1.24768 -32.42872,11.44569 -32.42872,11.44569s-0.54964,7.69495 0,9.34387c0.42872,1.28616 4.03105,5.24356 5.59423,6.92106c0.4617,0.22315 0.93329,0.43971 1.40928,0.65187l10.03531,-1.80282l0.56503,-5.49639l-0.0011,0.0011z" stroke-width="5" stroke-miterlimit="10" stroke-dasharray=""></path><path data-v-9833e8b2="" transform="scale(0.12437810945273632)" fill="none" stroke="currentColor" paint-order="fill stroke markers" d="m66.91714,91.34673l0.68265,-0.12202c-0.47599,-0.21106 -0.94648,-0.42872 -1.40928,-0.65187c0.43861,0.47159 0.72662,0.77389 0.72662,0.77389" stroke-width="5" stroke-miterlimit="10" stroke-dasharray=""></path><path data-v-9833e8b2="" transform="scale(0.12437810945273632)" fill="none" stroke="currentColor" paint-order="fill stroke markers" d="m60.59629,74.30792l-1.54119,12.23717s3.26816,2.16448 7.13542,4.02776c-1.56317,-1.6775 -5.16551,-5.6338 -5.59423,-6.92106c-0.54964,-1.64892 0,-9.34387 0,-9.34387m-20.55761,19.98379l31.9912,1.96001c3.45613,0.21216 5.53267,3.92992 3.90024,6.98372l-11.43799,21.39306a4.77197,4.77197 0 0 1 -2.76249,2.292c-2.57451,0.82006 -7.10464,2.12601 -8.95033,1.80721c-4.16627,-0.72223 -3.78921,-0.85744 -35.11096,-12.06458a4.73019,4.73019 0 0 1 -2.55362,-2.16558c-1.68629,-3.06919 -4.88519,-10.0628 -3.09007,-16.27592c2.25242,-7.79828 25.09653,-4.37293 27.56221,-3.97939c0.1517,0.02418 0.2968,0.04067 0.4507,0.04947" stroke-width="5" stroke-miterlimit="10" stroke-dasharray=""></path><path data-v-9833e8b2="" transform="scale(0.12437810945273632)" fill="none" stroke="currentColor" paint-order="fill stroke markers" d="m96.18543,101.78988c-0.54964,-0.13741 -27.79746,4.29818 -27.79746,4.29818l-6.14277,3.25936l-2.33597,7.69495l10.20021,12.96709l17.78523,20.80934l79.17334,-10.3662l8.65682,-2.47338l15.3899,-9.48128l-19.62872,-11.86781s-39.02439,-15.93954 -46.78859,-16.07695c-7.7631,-0.13741 -28.51199,1.23669 -28.51199,1.23669" stroke-width="5" stroke-miterlimit="10" stroke-dasharray=""></path><path data-v-9833e8b2="" transform="scale(0.12437810945273632)" fill="none" stroke="currentColor" paint-order="fill stroke markers" d="m47.03778,71.92578l10.99278,0.9157l6.89358,6.22961l1.35211,8.97781l4.35094,0.68705l5.08306,12.77911l-24.55788,-2.65696l-13.50354,0l-26.17382,-4.94126l0,-2.56462l26.17382,5.35349l5.54146,-19.6496l3.84748,-5.13033zm30.59732,17.49722l0.58262,-8.32154l17.18502,0l12.27894,11.52813l7.51247,2.56462l1.8314,7.42013l19.78701,13.52992l-13.92346,2.1348l-4.21463,-2.1348s-3.11426,0.6134 -3.66389,0s-18.52944,-12.01841 -18.88121,-12.00852c-0.35067,0.00879 -3.10436,-6.74297 -3.10436,-6.74297l-15.3899,-7.96977z" stroke-width="5" stroke-miterlimit="10" stroke-dasharray=""></path><path data-v-9833e8b2="" transform="scale(0.12437810945273632)" fill="none" stroke="currentColor" paint-order="fill stroke markers" d="m109.789,69.0039l1.88526,8.48643l-3.99258,3.61113l-5.53487,-5.67228l7.64218,-6.42528z" stroke-width="5" stroke-miterlimit="10" stroke-dasharray=""></path><path data-v-9833e8b2="" transform="scale(0.12437810945273632)" fill="none" stroke="currentColor" paint-order="fill stroke markers" d="m134.11054,61.996l-1.51151,7.0079l-19.78701,18.31068l-6.96173,0l0,2.19856s11.90848,2.292 14.84026,7.19258l0.18248,2.70203s15.27777,1.01244 30.85015,7.24205c15.57348,6.23071 39.39155,21.84926 39.39155,21.84926l-1.02233,0.62879s-35.14174,-24.59086 -69.76901,-27.15438l-3.84748,-0.36716l-1.64892,-4.90168s-8.24459,-3.34291 -11.17527,-3.70897c-2.93178,-0.36606 -10.62672,-11.89419 -10.62672,-11.89419l9.12181,-5.67228l5.53487,5.67228l13.37492,-12.09756l-1.28286,-5.82618l14.33679,-1.18172z" stroke-width="5" stroke-miterlimit="10" stroke-dasharray=""></path><path data-v-9833e8b2="" transform="scale(0.12437810945273632)" fill="none" stroke="currentColor" paint-order="fill stroke markers" d="m68.48141,55.32887l5.92511,-1.28835l39.22995,-22.74187s6.73308,-1.64892 12.6417,-1.23669l0,-4.67193l-14.42803,-1.64892l-20.7258,10.58056l-21.87015,12.77911l-0.77169,8.2281l-0.0011,0z" stroke-width="5" stroke-miterlimit="10" stroke-dasharray=""></path><path data-v-9833e8b2="" transform="scale(0.12437810945273632)" fill="none" stroke="currentColor" paint-order="fill stroke markers" d="m134.11054,24.29074l0,-3.48142l-6.59567,-1.28176l-2.19856,4.76317l-6.77925,-3.6639l-6.96173,0.18248l0,2.01608l-7.23655,0.18248l0,-2.10732l-2.01608,0l0,1.74016l-2.10622,0l0,-1.8325l-1.8325,-0.18248l0,1.28176l-1.92374,0l0,1.74126l1.92374,0l-0.09124,4.39711l-7.23765,2.47338l-22.99251,15.02274l-6.04603,0s-5.49639,1.74126 -5.95479,6.22961c0,0 0.09124,3.57266 2.47338,3.75623l8.24459,0s2.06115,0.06816 3.09117,-0.89371l-0.06816,-6.38901l14.08396,-9.00089l10.85538,-6.59567l9.27571,-3.43525l6.45826,-2.54153s2.33597,-1.58076 5.15342,-1.58076c2.81635,0 5.77011,0.89371 5.77011,0.89371l2.95486,2.61079l2.7482,0.06816l2.06115,-4.19045l0,-1.51151l2.47338,-0.13741l0.06816,2.1293l2.40522,-0.13741l0,-0.52765l0,0.0022z" stroke-width="5" stroke-miterlimit="10" stroke-dasharray=""></path><path data-v-9833e8b2="" transform="scale(0.12437810945273632)" fill="none" stroke="currentColor" paint-order="fill stroke markers" d="m64.92414,51.25715a2.78118,2.78118 0 1 1 -5.56345,0a2.78118,2.78118 0 0 1 5.56345,0" stroke-width="5" stroke-miterlimit="10" stroke-dasharray=""></path><path data-v-9833e8b2="" transform="scale(0.12437810945273632)" fill="none" stroke="currentColor" paint-order="fill stroke markers" d="m1,90.71025l36.64995,5.99546l0,-31.20632l-36.64995,0.73102l0,24.47983z" stroke-width="5" stroke-miterlimit="10" stroke-dasharray=""></path><path data-v-9833e8b2="" transform="scale(0.12437810945273632)" fill="none" stroke="currentColor" paint-order="fill stroke markers" d="m1,64.93217l46.54345,-2.93727l7.0068,0.68705l0,4.53452l-6.59567,-0.70794l-46.95458,1.58406l0,-3.16043z" stroke-width="5" stroke-miterlimit="10" stroke-dasharray=""></path><path data-v-9833e8b2="" transform="scale(0.12437810945273632)" fill="none" stroke="currentColor" paint-order="fill stroke markers" d="m37.64885,65.4994l13.05393,0.46829l4.67193,1.17293l5.22157,7.1673l0.54524,3.36929l-6.59127,-4.33116l-5.42714,0l0,23.35967l-11.47427,0l0,-31.20632z" stroke-width="5" stroke-miterlimit="10" stroke-dasharray=""></path><path data-v-9833e8b2="" transform="scale(0.12437810945273632)" fill="none" stroke="currentColor" paint-order="fill stroke markers" d="m37.64885,62.78638l0,3.55067l16.90141,1.16853l0,-4.82253l-7.0079,-0.68705l-9.89351,0.79038z" stroke-width="5" stroke-miterlimit="10" stroke-dasharray=""></path><path data-v-9833e8b2="" transform="scale(0.12437810945273632)" fill="none" stroke="currentColor" paint-order="fill stroke markers" d="m93.025,60.65818l-1.00804,-0.36606l-1.46534,-0.4584l-6.18344,-1.19052l-0.37815,-15.70319l9.03497,2.41841" stroke-width="5" stroke-miterlimit="10" stroke-dasharray=""></path><path data-v-9833e8b2="" transform="scale(0.12437810945273632)" fill="none" stroke="currentColor" paint-order="fill stroke markers" d="m74.7495,63.17772l9.61869,-4.53452l6.59128,1.31803l2.06554,0.50237l-10.03092,3.1945l-8.24459,-0.48039z" stroke-width="5" stroke-miterlimit="10" stroke-dasharray=""></path><path data-v-9833e8b2="" transform="scale(0.12437810945273632)" fill="none" stroke="currentColor" paint-order="fill stroke markers" d="m85.46746,42.70366l0,15.93954l-9.61869,4.53452s-1.51151,-14.0158 0,-14.70285s9.61869,-5.77121 9.61869,-5.77121" stroke-width="5" stroke-miterlimit="10" stroke-dasharray=""></path><path data-v-9833e8b2="" transform="scale(0.12437810945273632)" fill="none" stroke="currentColor" paint-order="fill stroke markers" d="m76.16867,88.0489l21.21168,9.89351s-32.93658,6.59567 -35.86836,14.29062c-2.93068,7.69495 8.59856,16.86073 8.59856,16.86073l19.22968,21.25235l-2.24473,0.73322s-25.94957,-24.55568 -27.59849,-31.51741c-1.64892,-6.96283 1.64892,-11.17637 4.39711,-12.45922c0,0 2.47338,-1.09928 7.23765,-2.93068c4.76207,-1.8325 5.67777,-2.19856 5.67777,-2.19856s-5.35678,-12.41305 -4.80714,-12.68787s4.16736,-1.23669 4.16736,-1.23669" stroke-width="5" stroke-miterlimit="10" stroke-dasharray=""></path><path data-v-9833e8b2="" transform="scale(0.12437810945273632)" fill="none" stroke="currentColor" paint-order="fill stroke markers" d="m97.38034,104.17092l0,-6.22961l-20.47736,4.67193l-11.45119,4.67193s28.68018,-3.57266 31.92854,-3.11426" stroke-width="5" stroke-miterlimit="10" stroke-dasharray=""></path><path data-v-9833e8b2="" transform="scale(0.12437810945273632)" fill="none" stroke="currentColor" paint-order="fill stroke markers" d="m89.72717,115.1637s3.63312,-5.31281 11.06864,-6.22961c7.43552,-0.9157 16.96297,-1.64892 16.96297,-1.64892s-11.90848,2.56572 -11.726,4.94675c0.18358,2.38214 5.6415,3.84747 5.6415,3.84747s21.08636,5.87015 23.10244,11.91618l0,2.56352s-19.78701,-8.79423 -23.81807,-8.79423c-4.03105,0 -8.61065,8.79423 -17.77204,10.8103c-9.16029,2.01498 -11.23682,1.46534 -11.23682,1.46534s10.32113,-4.58069 12.70326,-7.14531l2.06115,-3.29784s-18.34586,-5.31941 -23.11013,-8.9833c-4.76317,-3.66389 -5.86245,-5.67997 -5.86245,-5.67997s19.71776,8.61175 21.98557,6.22961m38.47475,-10.48822s9.61869,3.16043 10.03092,4.80934s-8.382,3.57266 -10.03092,5.22157c0,0 10.03092,-1.09928 13.60357,0.82446s33.09488,12.27894 33.09488,12.27894s-16.05606,-8.98111 -17.15534,-9.39333l0,-1.71707s5.53267,-2.04576 5.58323,-3.25606c0,0 -6.81992,2.08753 -8.19402,1.12566s-9.48128,-5.77121 -9.48128,-5.77121s-16.764,-5.49639 -19.23737,-5.22157l1.78633,1.09928z" stroke-width="5" stroke-miterlimit="10" stroke-dasharray=""></path><path data-v-9833e8b2="" transform="scale(0.12437810945273632)" fill="none" stroke="currentColor" paint-order="fill stroke markers" d="m62.61896,86.54509l5.86245,18.66135l4.22123,-1.64122l-7.25084,-17.02013l-3.48141,0" stroke-width="5" stroke-miterlimit="10" stroke-dasharray=""></path><path data-v-9833e8b2="" transform="scale(0.12437810945273632)" fill="none" stroke="currentColor" paint-order="fill stroke markers" d="m68.48141,89.01077l6.0878,14.55445l4.85222,-2.32497l-6.71659,-13.60357l-4.22343,1.3741z" stroke-width="5" stroke-miterlimit="10" stroke-dasharray=""></path><path data-v-9833e8b2="" transform="scale(0.12437810945273632)" fill="none" stroke="currentColor" paint-order="fill stroke markers" d="m17.77279,97.76102c-2.07984,-0.85744 -4.46087,0.51886 -4.63236,2.76139a7.0068,7.0068 0 0 0 -0.01759,0.72333c0.09124,3.84747 1.46534,12.1833 3.57266,13.37382c1.87647,1.0608 0.9135,0.75191 16.764,6.59567l16.51226,4.66974c0.97946,0.27702 2.05235,0.10333 2.84273,-0.53645c1.97101,-1.59615 3.61003,-4.33995 2.45579,-10.43435c-0.22535,-1.18832 -1.03552,-2.18756 -2.16998,-2.60859l-35.32751,-14.54455z" stroke-width="5" stroke-miterlimit="10" stroke-dasharray=""></path><path data-v-9833e8b2="" transform="scale(0.12437810945273632)" fill="none" stroke="currentColor" paint-order="fill stroke markers" d="m138.52854,30.77209c-0.25503,-3.73755 1.03662,-7.42563 3.46822,-10.27935c4.31687,-5.06438 15.50862,-15.25249 28.11295,-15.93844c19.57485,-1.0641 22.37472,4.46857 25.88032,10.11666c2.33267,3.75623 3.66499,12.77911 -0.9157,20.42789c-4.61917,7.71584 -26.40467,17.14435 -34.99333,18.08313c-8.58866,0.94208 -12.82528,-3.05929 -12.82528,-3.05929s-8.04562,-9.36695 -8.72717,-19.3506" stroke-width="5" stroke-miterlimit="10" stroke-dasharray=""></path><path data-v-9833e8b2="" transform="scale(0.12437810945273632)" fill="none" stroke="currentColor" paint-order="fill stroke markers" d="m138.54613,30.81826c-0.25503,-3.73865 1.03772,-7.42673 3.46822,-10.27935c4.31687,-5.06548 15.50862,-15.25359 28.11295,-15.93954c19.57485,-1.0619 22.37472,4.47077 25.88141,10.11886c2.33157,3.75514 2.56462,13.74098 -0.9168,20.42789c-3.42535,6.58138 -26.40467,17.14325 -34.99333,18.08313c-8.58866,0.94208 -12.82528,-3.05929 -12.82528,-3.05929s-8.04452,-9.36695 -8.72717,-19.3517" stroke-width="5" stroke-miterlimit="10" stroke-dasharray=""></path><path data-v-9833e8b2="" transform="scale(0.12437810945273632)" fill="none" stroke="currentColor" paint-order="fill stroke markers" d="m166.81957,7.67955c0.64198,-1.07729 1.44115,-2.63607 2.06994,-3.90464c0.26383,-0.53205 1.05531,-0.35507 1.07729,0.23854c0.06046,1.63793 0.23085,3.51329 0.69474,3.51329c0.53865,0 -1.63463,0.58482 -3.20989,0.99155a0.56833,0.56833 0 0 1 -0.63209,-0.83875m-6.53081,-0.87723c0.62329,-1.05201 1.38839,-2.54153 2.00069,-3.77602c0.27262,-0.54854 1.09708,-0.37375 1.12126,0.23854c0.06266,1.61924 0.23525,3.43195 0.69145,3.43195c0.53095,0 -1.58516,0.57162 -3.15383,0.97836a0.59031,0.59031 0 0 1 -0.65957,-0.87283m-3.42975,8.35232c0.63208,-1.063 1.41257,-2.5833 2.03366,-3.83538c0.26603,-0.53865 1.07729,-0.36606 1.09928,0.23525c0.06156,1.62913 0.23305,3.47372 0.69255,3.47372c0.53535,0 -1.60495,0.57602 -3.17692,0.98275a0.58042,0.58042 0 0 1 -0.64857,-0.85634m-7.81257,-1.56977c0.55623,-0.95637 1.20811,-2.21724 1.75884,-3.32312c0.3111,-0.62219 1.24109,-0.42102 1.27406,0.27262c0.07365,1.53129 0.25173,3.11865 0.67825,3.11865c0.51007,0 -1.42027,0.52765 -2.96365,0.92779a0.67386,0.67386 0 0 1 -0.74751,-0.99485m22.30876,-2.08973c0.62329,-1.05201 1.38839,-2.54153 2.00069,-3.77602c0.27262,-0.54854 1.09708,-0.37375 1.12126,0.23745c0.06266,1.62034 0.23525,3.43305 0.69145,3.43305c0.53205,0 -1.58406,0.57162 -3.15493,0.97836a0.59031,0.59031 0 0 1 -0.65957,-0.87283m2.38324,-6.39011c0.62329,-1.05201 1.38839,-2.54153 2.00069,-3.77602c0.27152,-0.54964 1.09708,-0.37375 1.12016,0.23854c0.06376,1.61924 0.23634,3.43195 0.69255,3.43195c0.53095,0 -1.58516,0.57162 -3.15493,0.97726a0.59031,0.59031 0 0 1 -0.65957,-0.87173m-26.69048,16.85524c0.62329,-1.05201 1.38839,-2.54153 2.00069,-3.77602c0.27152,-0.54854 1.09708,-0.37375 1.12126,0.23744c0.06156,1.62034 0.23525,3.43305 0.69035,3.43305c0.53205,0 -1.58296,0.57162 -3.15383,0.97836a0.59031,0.59031 0 0 1 -0.65847,-0.87283m32.52106,-15.93184c0.62219,-1.05201 1.38729,-2.54043 2.00069,-3.77602c0.27152,-0.54964 1.09598,-0.37375 1.12126,0.23854c0.06156,1.61924 0.23415,3.43195 0.69035,3.43195c0.53205,0 -1.58296,0.57162 -3.15383,0.97726a0.59031,0.59031 0 0 1 -0.65957,-0.87173m-24.63923,3.84528c0.55623,-0.95637 1.20811,-2.21615 1.75885,-3.32202c0.3122,-0.62219 1.24109,-0.42212 1.27406,0.27262c0.07365,1.5302 0.25173,3.11755 0.67826,3.11755c0.51006,0 -1.42027,0.52765 -2.96366,0.92779c-0.58262,0.1517 -1.04981,-0.47599 -0.74751,-0.99595m-13.00996,10.26067c0.62219,-1.05091 1.38729,-2.53933 2.00069,-3.77602c0.27152,-0.54854 1.09598,-0.37375 1.12126,0.23854c0.06156,1.61924 0.23415,3.43195 0.69035,3.43195c0.53205,0 -1.58296,0.57162 -3.15383,0.97836a0.59031,0.59031 0 0 1 -0.65957,-0.87283m44.57575,-13.53871c1.14545,-0.42652 2.67674,-1.10478 3.92882,-1.6808c0.55624,-0.25613 1.08829,0.39794 0.72223,0.89042c-0.96846,1.29935 -1.97211,2.81855 -1.61814,3.10436c0.41443,0.33418 -1.59066,-0.54964 -3.06809,-1.2202a0.59031,0.59031 0 0 1 0.03518,-1.09268m7.10244,5.61182c1.2202,-0.09234 2.87681,-0.32099 4.23992,-0.52875c0.6057,-0.09124 0.93549,0.68375 0.44851,1.05531c-1.29055,0.98056 -2.67564,2.16228 -2.41402,2.53494c0.3056,0.43641 -1.3774,-0.96956 -2.61079,-2.02157a0.59031,0.59031 0 0 1 0.33638,-1.03992m2.45469,5.34689c1.18502,0.3012 2.82954,0.6156 4.18715,0.85524c0.60241,0.10663 0.66726,0.94758 0.08684,1.14325c-1.53569,0.51666 -3.22638,1.19272 -3.09777,1.63023c0.1495,0.51007 -0.99485,-1.35981 -1.827,-2.75149a0.59031,0.59031 0 0 1 0.65077,-0.87723" stroke-width="5" stroke-miterlimit="10" stroke-dasharray=""></path><path data-v-9833e8b2="" transform="scale(0.12437810945273632)" fill="none" stroke="currentColor" paint-order="fill stroke markers" d="m197.49823,22.91335c0.88162,0.84645 2.15568,1.93143 3.21869,2.81085c0.47269,0.39024 0.11323,1.15314 -0.48808,1.03662c-1.59066,-0.3089 -3.39567,-0.55514 -3.5001,-0.11213c-0.12092,0.51666 -0.19347,-1.6731 -0.22975,-3.29454a0.59031,0.59031 0 0 1 1.00034,-0.44191" stroke-width="5" stroke-miterlimit="10" stroke-dasharray=""></path><path data-v-9833e8b2="" transform="scale(0.12437810945273632)" fill="none" stroke="currentColor" paint-order="fill stroke markers" d="m197.21572,30.24664c0.2979,1.18722 0.80577,2.78117 1.24218,4.08932c0.19237,0.58262 -0.51666,1.03882 -0.96407,0.62109c-1.18612,-1.10587 -2.5855,-2.27001 -2.90979,-1.94902c-0.37705,0.37485 0.72223,-1.5214 1.54998,-2.91639a0.59031,0.59031 0 0 1 1.08169,0.155m-3.98049,5.31831c0.2968,1.18502 0.80467,2.78118 1.23999,4.08932c0.19457,0.58152 -0.51446,1.03772 -0.96297,0.62109c-1.18502,-1.10587 -2.5855,-2.27001 -2.90869,-1.94902c-0.37705,0.37376 0.72223,-1.5214 1.54998,-2.91639a0.59031,0.59031 0 0 1 1.08169,0.1539m-4.89509,3.3473c0.2979,1.18502 0.80467,2.78118 1.23999,4.08932c0.19457,0.58042 -0.51446,1.03772 -0.96297,0.62109c-1.18502,-1.10587 -2.5855,-2.27001 -2.90869,-1.94902c-0.37705,0.37486 0.72223,-1.5225 1.54998,-2.91639a0.59031,0.59031 0 0 1 1.08169,0.155m-4.85551,4.12229c0.2979,1.18502 0.80577,2.78118 1.24109,4.08932c0.19347,0.58042 -0.51556,1.03772 -0.96297,0.62109c-1.18612,-1.10587 -2.5855,-2.27001 -2.90979,-1.94902c-0.37705,0.37485 0.72223,-1.5225 1.54998,-2.91639a0.59031,0.59031 0 0 1 1.08169,0.155m-5.69426,2.65806c0.2968,1.18722 0.80577,2.78117 1.24109,4.08932c0.19347,0.58262 -0.51666,1.03882 -0.96297,0.62219c-1.18722,-1.10587 -2.5855,-2.27111 -2.90979,-1.94902c-0.37705,0.37375 0.72223,-1.5225 1.54998,-2.91748a0.59031,0.59031 0 0 1 1.08169,0.1561m-7.55754,2.65805c0.2968,1.18502 0.80577,2.78118 1.24109,4.08932c0.19347,0.58042 -0.51666,1.03772 -0.96297,0.61999c-1.18722,-1.10477 -2.5855,-2.26891 -2.90979,-1.94792c-0.37705,0.37485 0.72223,-1.5225 1.54998,-2.91639a0.59031,0.59031 0 0 1 1.08169,0.155m-6.76056,2.10622c0.2979,1.18612 0.80467,2.78118 1.24109,4.08932c0.19347,0.58152 -0.51556,1.03882 -0.96297,0.62109c-1.18612,-1.10477 -2.5855,-2.27001 -2.90979,-1.94902c-0.37705,0.37485 0.72223,-1.5214 1.54998,-2.91529a0.59031,0.59031 0 0 1 1.08169,0.1539m-5.04679,1.04981c-0.29131,1.18722 -0.58921,2.83504 -0.81676,4.19485c-0.10113,0.6035 -0.94098,0.67606 -1.14105,0.09784c-0.53205,-1.53129 -1.2235,-3.21649 -1.65991,-3.08348c-0.50787,0.1539 1.34991,-1.00694 2.73391,-1.85119a0.59031,0.59031 0 0 1 0.88382,0.64198m-107.19724,67.23517c0,1.59395 -0.90141,2.88561 -2.01388,2.88561s-2.01388,-1.29165 -2.01388,-2.88561s0.90141,-2.8856 2.01388,-2.8856s2.01388,1.29165 2.01388,2.8856m-29.54861,-12.28993c0,1.86328 -1.05531,3.37369 -2.35466,3.37369c-1.30045,0 -2.35465,-1.51041 -2.35465,-3.37478c0,-1.86328 1.05421,-3.37369 2.35465,-3.37369c1.30045,0 2.35466,1.51041 2.35466,3.37478" stroke-width="5" stroke-miterlimit="10" stroke-dasharray=""></path></g></svg>