<svg data-v-9833e8b2="" version="1.1" xmlns="http://www.w3.org/2000/svg" xmlns:xlink="http://www.w3.org/1999/xlink" width="27" height="25"><g data-v-9833e8b2=""><path data-v-9833e8b2="" transform="scale(0.14619883040935672)" fill="none" stroke="currentColor" paint-order="fill stroke markers" d="m24.66256,66.88394a23.53756,23.53756 0 0 0 23.65006,-23.40006a23.52506,23.52506 0 0 0 -23.65006,-23.40006a23.52506,23.52506 0 0 0 -23.66256,23.40006a23.53756,23.53756 0 0 0 23.66256,23.40006zm0,-39.0126c8.70002,0 15.75004,6.98752 15.75004,15.61254c0,8.61252 -7.05002,15.60004 -15.75004,15.60004a15.68754,15.68754 0 0 1 -15.77504,-15.60004c0,-8.62502 7.07502,-15.61254 15.77504,-15.61254z" stroke-width="5" stroke-miterlimit="10" stroke-dasharray=""></path><path data-v-9833e8b2="" transform="scale(0.14619883040935672)" fill="none" stroke="currentColor" paint-order="fill stroke markers" d="m16.78754,43.48388a7.87502,7.78752 0 1 0 15.75004,0a7.87502,7.78752 0 1 0 -15.75004,0z" stroke-width="5" stroke-miterlimit="10" stroke-dasharray=""></path><path data-v-9833e8b2="" transform="scale(0.14619883040935672)" fill="none" stroke="currentColor" paint-order="fill stroke markers" d="m116.73779,139.67162l-26.40007,0l-42.02511,-72.78768c-11.58753,12.37503 -22.87506,11.95003 -28.91257,10.40003c-6.02502,-1.5375 -13.12503,-7.80002 -13.12503,-7.80002l42.05011,70.18768l-26.40007,0a10.40003,10.40003 0 0 0 -10.40003,10.40003l0,10.38753c0,5.75001 4.66251,10.40003 10.40003,10.40003l94.81274,0a10.40003,10.40003 0 0 0 10.42503,-10.40003l0,-10.38753a10.40003,10.40003 0 0 0 -10.42503,-10.40003zm46.28762,-88.26272a5.25001,5.25001 0 0 0 -7.27502,-1.375l-25.00006,16.85004l-16.72504,-19.58755l0,-14.45004l16.06254,-18.78755l25.15006,16.91254c2.36251,1.6 5.63751,1 7.30002,-1.375a5.17501,5.17501 0 0 0 -1.4125,-7.22502l-30.42508,-20.47505a5.31251,5.31251 0 0 0 -7.30002,1.3625a5.00001,5.00001 0 0 0 -0.8,3.45001l-15.88754,18.58755l-9.41252,0a6.96252,6.96252 0 0 0 -6.96252,6.93752l0,-1.75l-34.13759,0l0,0.275c1.625,3.27501 2.61251,7.76252 2.61251,12.72503c0,4.95001 -1,9.45002 -2.61251,12.72503l0,0.275l34.13759,0l0,-1.75c0,3.82501 3.12501,6.95002 6.96252,6.95002l9.78752,0a6.91252,6.91252 0 0 0 4.25001,-1.5l11.96253,14.00004a5.00001,5.00001 0 0 0 0.825,3.42501a5.26251,5.26251 0 0 0 7.27502,1.3625l30.22508,-20.37505a5.13751,5.13751 0 0 0 1.4,-7.18752z" stroke-width="5" stroke-miterlimit="10" stroke-dasharray=""></path></g></svg>