<svg data-v-9833e8b2="" version="1.1" xmlns="http://www.w3.org/2000/svg" xmlns:xlink="http://www.w3.org/1999/xlink" width="25" height="25"><g data-v-9833e8b2=""><path data-v-9833e8b2="" transform="scale(0.12376237623762376)" fill="none" stroke="currentColor" paint-order="fill stroke markers" d="m189.8662,12.19068a37.78135,37.78135 0 0 0 -26.86882,-11.19065a37.72822,37.72822 0 0 0 -26.86569,11.19065c-1.65625,1.69375 -3.35001,3.56563 -4.62189,5.61564l-80.38145,50.90325c-11.65315,3.10626 -22.06568,9.31877 -30.35945,17.54379a66.91267,66.91267 0 0 0 -19.7688,47.45012a66.79392,66.79392 0 0 0 19.30942,47.09074l0.45938,0.49375c12.10628,12.03753 28.90945,19.66255 47.40949,19.66255c18.53442,0 35.30009,-7.62502 47.51574,-19.66255a67.31579,67.31579 0 0 0 17.47504,-30.43133l50.90638,-80.30958a44.95011,44.95011 0 0 0 5.79064,-4.62501c6.84689,-6.95314 11.15315,-16.45004 11.15315,-26.93444c0,-10.45315 -4.30626,-19.95005 -11.15315,-26.79694zm-85.08146,158.15352a51.54388,51.54388 0 0 1 -36.60634,15.17816c-14.25941,0 -27.21882,-5.85939 -36.57197,-15.17816l-0.3875,-0.35313c-9.18127,-9.28127 -14.72191,-22.02818 -14.72191,-36.28759c0,-14.33129 5.79064,-27.21882 15.10941,-36.57509a51.53763,51.53763 0 0 1 36.57197,-15.17816c14.33441,0 27.35944,5.79064 36.60634,15.07504l0.06875,0.10313l-0.06875,0c9.42815,9.35627 15.17816,22.24381 15.17816,36.57509s-5.75001,27.21569 -15.17816,36.64072zm30.5032,-40.03135c-0.8125,-17.15629 -8.19377,-32.61883 -19.5938,-44.05949a66.77517,66.77517 0 0 0 -43.98449,-19.5938l53.94076,-34.16884a32.30321,32.30321 0 0 0 -0.63438,6.49377c0,10.20315 4.16251,19.52192 10.6594,26.36882l0.45625,0.56563c6.85002,6.84689 16.38129,11.01253 26.86569,11.01253c2.19063,0 4.45001,-0.17813 6.49689,-0.56563l-34.20634,53.94701zm43.63448,-75.36894a22.19381,22.19381 0 0 1 -15.92504,6.63439c-6.21252,0 -11.8219,-2.54063 -15.95317,-6.63439l-0.32188,-0.35313a22.19381,22.19381 0 0 1 -6.31564,-15.60316a22.62506,22.62506 0 0 1 6.53127,-15.99067l0.10625,0a22.78756,22.78756 0 0 1 15.95317,-6.53127c6.28439,0 11.90003,2.50626 15.92504,6.53127a22.40631,22.40631 0 0 1 6.70627,15.99067a22.33756,22.33756 0 0 1 -6.70627,15.95629zm-92.56273,60.7189c-4.69376,-4.65939 -11.01253,-7.52189 -18.17817,-7.52189c-7.06252,0 -13.34691,2.82188 -18.07192,7.52189l-0.04063,0a25.24381,25.24381 0 0 0 -7.48439,18.03755a25.25006,25.25006 0 0 0 7.23439,17.82504l0.24688,0.35625c4.62501,4.62189 11.05003,7.37502 18.11255,7.37502c7.16564,0 13.48441,-2.75626 18.17817,-7.37502c4.59064,-4.66251 7.51877,-11.12503 7.51877,-18.1813c0,-6.88752 -2.71876,-13.17191 -7.27189,-17.68442l-0.24375,-0.35313zm-6.42502,29.65007l-0.14375,0c-2.92813,3.04063 -7.09377,4.80314 -11.61253,4.80314a16.03442,16.03442 0 0 1 -11.58128,-4.80314l-0.20938,-0.20625a16.37504,16.37504 0 0 1 -4.51876,-11.40315c0,-4.48439 1.73125,-8.54377 4.69689,-11.61565l0.03438,0a16.32192,16.32192 0 0 1 11.58128,-4.76564c4.51876,0 8.6844,1.80313 11.61253,4.76564l0.2125,0.35313c2.85626,2.79063 4.58751,6.88127 4.58751,11.26253c-0.00313,4.55314 -1.76563,8.68127 -4.65939,11.6094z" stroke-width="5" stroke-miterlimit="10" stroke-dasharray=""></path></g></svg>