<svg data-v-9833e8b2="" version="1.1" xmlns="http://www.w3.org/2000/svg" xmlns:xlink="http://www.w3.org/1999/xlink" width="25" height="25"><g data-v-9833e8b2=""><path data-v-9833e8b2="" transform="scale(0.12437810945273632)" fill="none" stroke="currentColor" paint-order="fill stroke markers" d="m138.52066,87.16082l-114.07965,-79.91975l-20.31994,0a3.03999,3.03999 0 0 1 -3.11999,-3.11999a3.03999,3.03999 0 0 1 3.11999,-3.11999l21.51993,0a2.95999,2.95999 0 0 1 2.39999,1.2l110.47966,77.27976l0,-3.51999a6.23998,6.23998 0 1 1 12.47996,0l0,12.31996l41.99987,29.19991l0.64,0a18.71994,18.71994 0 0 1 -5.27998,32.3999l0,44.07986a6.23998,6.23998 0 0 1 -12.47996,0l0,-6.23998l-143.99956,0l0,6.23998a6.31998,6.31998 0 0 1 -12.55996,0l0,-149.19954l-12.07996,0a6.23998,6.23998 0 0 1 -6.23998,-6.23998a6.39998,6.39998 0 0 1 3.11999,-5.51998l0,-7.99998a6.23998,6.23998 0 1 1 9.35997,-5.43998a6.15998,6.15998 0 0 1 -3.11999,5.43998l0,7.11998l12.47996,0l0,-7.11998a6.31998,6.31998 0 1 1 6.31998,0l0,7.99998a7.99998,7.99998 0 0 1 1.91999,1.12l11.19997,9.75997l2.79999,-2.87999a6.39998,6.39998 0 0 1 1.2,-6.15998a6.23998,6.23998 0 1 1 9.43997,7.99998a6.23998,6.23998 0 0 1 -5.91998,2l-2.55999,2.95999l23.35993,20.79994l4.15999,-4.79999a6.47998,6.47998 0 0 1 1.2,-6.15998a6.31998,6.31998 0 0 1 8.87997,-0.64a6.23998,6.23998 0 0 1 -5.35998,10.79997l-4.15999,5.19998l23.35993,20.31994l4.63999,-5.35998a6.31998,6.31998 0 1 1 4.71998,4.07999l-4.63998,4.95999l35.11989,30.47991l0,-40.31988zm12.47996,8.71997l0,42.55987l25.03992,21.75993l0,-9.51997a18.71994,18.71994 0 0 1 1.91999,-35.91989l-26.95992,-18.87994zm-118.71963,79.99975l142.87956,0l-142.87956,-124.07962l0,124.07962zm156.87952,-53.27984a12.63996,12.63996 0 0 0 -6.87998,-2.07999a12.47996,12.47996 0 1 0 7.35998,2.39999l-0.48,-0.32z" stroke-width="5" stroke-miterlimit="10" stroke-dasharray=""></path></g></svg>