<svg data-v-9833e8b2="" version="1.1" xmlns="http://www.w3.org/2000/svg" xmlns:xlink="http://www.w3.org/1999/xlink" width="25" height="15"><g data-v-9833e8b2=""><path data-v-9833e8b2="" transform="scale(0.12690355329949238)" fill="none" stroke="currentColor" paint-order="fill stroke markers" d="m30.78523,86.72287c10.48831,0 19.23833,7.50002 21.1524,17.44145l0.78125,0c1.9336,-9.94143 10.66409,-17.44145 21.1524,-17.44145c6.64064,0 12.57816,3.00782 16.54301,7.73439l0,-80.33223c0,-1.34766 -1.11328,-2.46094 -2.46094,-2.46094l-79.35567,0c-1.34766,0 -2.46094,1.11328 -2.46094,2.46094l0,87.55881c0,1.34766 1.11328,2.46094 2.46094,2.46094l1.01563,0c1.91407,-9.90237 10.66409,-17.42192 21.17193,-17.42192z" stroke-width="5" stroke-miterlimit="10" stroke-dasharray=""></path><path data-v-9833e8b2="" transform="scale(0.12690355329949238)" fill="none" stroke="currentColor" paint-order="fill stroke markers" d="m47.93371,76.03925l-26.5821,0c-1.32813,0 -2.44141,-1.71875 -2.44141,-3.76954l0,-44.27746c0,-2.01172 1.05469,-3.65235 2.36329,-3.65235l26.36725,0c1.21094,0 2.20704,1.5625 2.20704,3.41798l0,45.29308c-0.01953,1.66016 -0.87891,2.98829 -1.91407,2.98829zm31.77742,-4.94142l-23.22271,0c-1.17188,0 -2.12891,-1.21094 -2.12891,-2.65626l0,-31.25008c0,-1.40625 0.91797,-2.5586 2.05079,-2.5586l23.00787,0c1.05469,0 1.9336,1.09375 1.9336,2.42188l0,31.97274c0.01953,1.13282 -0.74219,2.07032 -1.64063,2.07032z" stroke-width="5" stroke-miterlimit="10" stroke-dasharray=""></path><path data-v-9833e8b2="" transform="scale(0.12690355329949238)" fill="none" stroke="currentColor" paint-order="fill stroke markers" d="m74.28143,108.2659m-18.8477,0a18.8477,18.8477 0 1 0 37.69541,0a18.8477,18.8477 0 1 0 -37.69541,0z" stroke-width="5" stroke-miterlimit="10" stroke-dasharray=""></path><path data-v-9833e8b2="" transform="scale(0.12690355329949238)" fill="none" stroke="currentColor" paint-order="fill stroke markers" d="m31.01961,108.2659m-18.8477,0a18.8477,18.8477 0 1 0 37.69541,0a18.8477,18.8477 0 1 0 -37.69541,0z" stroke-width="5" stroke-miterlimit="10" stroke-dasharray=""></path><path data-v-9833e8b2="" transform="scale(0.12690355329949238)" fill="none" stroke="currentColor" paint-order="fill stroke markers" d="m74.28143,108.2659m-15.44926,0a15.44926,15.44926 0 1 0 30.89852,0a15.44926,15.44926 0 1 0 -30.89852,0z" stroke-width="5" stroke-miterlimit="10" stroke-dasharray=""></path><path data-v-9833e8b2="" transform="scale(0.12690355329949238)" fill="none" stroke="currentColor" paint-order="fill stroke markers" d="m31.01961,108.2659m-15.44926,0a15.44926,15.44926 0 1 0 30.89852,0a15.44926,15.44926 0 1 0 -30.89852,0z" stroke-width="5" stroke-miterlimit="10" stroke-dasharray=""></path><path data-v-9833e8b2="" transform="scale(0.12690355329949238)" fill="none" stroke="currentColor" paint-order="fill stroke markers" d="m173.55903,60.96109l0,34.98056c4.02345,0 10.03909,-7.83205 10.03909,-17.48051c0,-9.68752 -6.0547,-17.50004 -10.03909,-17.50004z" stroke-width="5" stroke-miterlimit="10" stroke-dasharray=""></path><path data-v-9833e8b2="" transform="scale(0.12690355329949238)" fill="none" stroke="currentColor" paint-order="fill stroke markers" d="m123.20734,27.32819l5.07814,0l0,30.56648l-5.07814,0l0,-30.56648z" stroke-width="5" stroke-miterlimit="10" stroke-dasharray=""></path><path data-v-9833e8b2="" transform="scale(0.12690355329949238)" fill="none" stroke="currentColor" paint-order="fill stroke markers" d="m121.60577,40.51182l7.89064,0c0.50781,0 0.91797,-0.41016 0.91797,-0.91797l0,-13.28128c0,-0.50781 -0.41016,-0.91797 -0.91797,-0.91797l-8.49612,-10.25393c-0.50781,0 -0.3125,10.66409 -0.3125,11.1719l0,13.28128c0,0.50781 0.42969,0.91797 0.91797,0.91797z" stroke-width="5" stroke-miterlimit="10" stroke-dasharray=""></path><path data-v-9833e8b2="" transform="scale(0.12690355329949238)" fill="none" stroke="currentColor" paint-order="fill stroke markers" d="m170.84418,86.27365l-78.0666,0l0,-29.68757c0,-2.44141 1.99219,-4.45314 4.45314,-4.45314l69.19939,0c2.44141,0 4.45314,1.99219 4.45314,4.45314l0,29.68757l-0.03906,0z" stroke-width="5" stroke-miterlimit="10" stroke-dasharray=""></path><path data-v-9833e8b2="" transform="scale(0.12690355329949238)" fill="none" stroke="currentColor" paint-order="fill stroke markers" d="m91.2932,14.76957l-86.03537,0c-2.36329,0 -4.25782,-1.91407 -4.25782,-4.25782l0,-5.25392c0,-2.36329 1.91407,-4.25782 4.25782,-4.25782l86.01584,0c2.36329,0 4.25782,1.91407 4.25782,4.25782l0,5.25392c0,2.34376 -1.89454,4.25782 -4.23829,4.25782z" stroke-width="5" stroke-miterlimit="10" stroke-dasharray=""></path><path data-v-9833e8b2="" transform="scale(0.12690355329949238)" fill="none" stroke="currentColor" paint-order="fill stroke markers" d="m166.50823,119.94561l30.0782,0l-23.04693,-22.16802l-7.03127,0l0,22.16802z" stroke-width="5" stroke-miterlimit="10" stroke-dasharray=""></path><path data-v-9833e8b2="" transform="scale(0.12690355329949238)" fill="none" stroke="currentColor" paint-order="fill stroke markers" d="m143.48083,113.012m-14.12113,0a14.12113,14.12113 0 1 0 28.24226,0a14.12113,14.12113 0 1 0 -28.24226,0z" stroke-width="5" stroke-miterlimit="10" stroke-dasharray=""></path><path data-v-9833e8b2="" transform="scale(0.12690355329949238)" fill="none" stroke="currentColor" paint-order="fill stroke markers" d="m143.48083,113.012m-11.58206,0a11.58206,11.58206 0 1 0 23.16412,0a11.58206,11.58206 0 1 0 -23.16412,0z" stroke-width="5" stroke-miterlimit="10" stroke-dasharray=""></path><path data-v-9833e8b2="" transform="scale(0.12690355329949238)" fill="none" stroke="currentColor" paint-order="fill stroke markers" d="m114.5745,113.012m-14.12113,0a14.12113,14.12113 0 1 0 28.24226,0a14.12113,14.12113 0 1 0 -28.24226,0z" stroke-width="5" stroke-miterlimit="10" stroke-dasharray=""></path><path data-v-9833e8b2="" transform="scale(0.12690355329949238)" fill="none" stroke="currentColor" paint-order="fill stroke markers" d="m114.5745,113.012m-11.58206,0a11.58206,11.58206 0 1 0 23.16412,0a11.58206,11.58206 0 1 0 -23.16412,0z" stroke-width="5" stroke-miterlimit="10" stroke-dasharray=""></path><path data-v-9833e8b2="" transform="scale(0.12690355329949238)" fill="none" stroke="currentColor" paint-order="fill stroke markers" d="m110.70731,113.012l36.66025,0c0.25391,0 0.42969,-0.19531 0.42969,-0.42969l0,-1.26953c0,-0.25391 -0.19531,-0.42969 -0.42969,-0.42969l-36.66025,0c-0.25391,0 -0.42969,0.19531 -0.42969,0.42969l0,1.26953c0,0.21484 0.17578,0.42969 0.42969,0.42969zm0,4.25782l36.66025,0c0.25391,0 0.42969,-0.19531 0.42969,-0.42969l0,-1.26953c0,-0.25391 -0.19531,-0.42969 -0.42969,-0.42969l-36.66025,0c-0.25391,0 -0.42969,0.19531 -0.42969,0.42969l0,1.26953c0,0.23438 0.17578,0.42969 0.42969,0.42969zm-81.09395,-11.543l44.23839,0c0.25391,0 0.42969,-0.19531 0.42969,-0.42969l0,-1.26953c0,-0.25391 -0.19531,-0.42969 -0.42969,-0.42969l-44.23839,0c-0.25391,0 -0.42969,0.19531 -0.42969,0.42969l0,1.26953c0,0.23438 0.17578,0.42969 0.42969,0.42969zm0,4.66798l44.23839,0c0.25391,0 0.42969,-0.19531 0.42969,-0.42969l0,-1.26953c0,-0.25391 -0.19531,-0.42969 -0.42969,-0.42969l-44.23839,0c-0.25391,0 -0.42969,0.19531 -0.42969,0.42969l0,1.26953c0,0.25391 0.17578,0.42969 0.42969,0.42969z" stroke-width="5" stroke-miterlimit="10" stroke-dasharray=""></path><path data-v-9833e8b2="" transform="scale(0.12690355329949238)" fill="none" stroke="currentColor" paint-order="fill stroke markers" d="m42.5626,53.08998c0.95703,-0.37109 1.42578,-1.44532 1.07422,-2.42188l-6.71877,-17.42192c-0.37109,-0.95703 -1.44532,-1.42578 -2.42188,-1.07422c-0.95703,0.37109 -1.42578,1.44532 -1.07422,2.42188l6.71877,17.42192c0.37109,0.9375 1.46485,1.44532 2.42188,1.07422zm0,18.32036c0.95703,-0.37109 1.42578,-1.44532 1.07422,-2.42188l-6.7383,-17.42192c-0.37109,-0.95703 -1.44532,-1.42578 -2.42188,-1.07422c-0.95703,0.37109 -1.42578,1.44532 -1.07422,2.42188l6.71877,17.42192c0.39063,0.9375 1.48438,1.44532 2.44141,1.07422z" stroke-width="5" stroke-miterlimit="10" stroke-dasharray=""></path><path data-v-9833e8b2="" transform="scale(0.12690355329949238)" fill="none" stroke="currentColor" paint-order="fill stroke markers" d="m123.20734,67.28923m-5.66408,0a5.66408,5.66408 0 1 0 11.32815,0a5.66408,5.66408 0 1 0 -11.32815,0z" stroke-width="5" stroke-miterlimit="10" stroke-dasharray=""></path><path data-v-9833e8b2="" transform="scale(0.12690355329949238)" fill="none" stroke="currentColor" paint-order="fill stroke markers" d="m138.07066,67.28923m-5.66408,0a5.66408,5.66408 0 1 0 11.32815,0a5.66408,5.66408 0 1 0 -11.32815,0z" stroke-width="5" stroke-miterlimit="10" stroke-dasharray=""></path><path data-v-9833e8b2="" transform="scale(0.12690355329949238)" fill="none" stroke="currentColor" paint-order="fill stroke markers" d="m152.66054,67.28923m-5.66408,0a5.66408,5.66408 0 1 0 11.32815,0a5.66408,5.66408 0 1 0 -11.32815,0z" stroke-width="5" stroke-miterlimit="10" stroke-dasharray=""></path><path data-v-9833e8b2="" transform="scale(0.12690355329949238)" fill="none" stroke="currentColor" paint-order="fill stroke markers" d="m92.77757,88.65647l0,17.07036l7.77346,0c2.63673,-5.05861 7.92971,-8.55471 14.043,-8.55471s11.38675,3.45704 14.043,8.55471l0.85938,0c2.63673,-5.05861 7.92971,-8.55471 14.043,-8.55471c6.1133,0 11.40628,3.45704 14.043,8.55471l13.32035,0l0,-17.07036l-78.1252,0z" stroke-width="5" stroke-miterlimit="10" stroke-dasharray=""></path></g></svg>