<svg data-v-9833e8b2="" version="1.1" xmlns="http://www.w3.org/2000/svg" xmlns:xlink="http://www.w3.org/1999/xlink" width="25" height="22.5"><g data-v-9833e8b2=""><path data-v-9833e8b2="" transform="scale(0.1592356687898089)" fill="none" stroke="currentColor" paint-order="fill stroke markers" d="m155.84289,64.85016l-36.98009,0l-5.57251,-19.45755l-43.32761,19.45755l-9.90502,0l-5.57001,-19.45755l-45.18511,19.45755l-8.15252,0l0,24.46756l154.69539,0l0,-24.46756l-0.0025,0zm-103.51776,-63.85016l-25.38256,0l0,50.87763l25.38006,-10.90753l0,-39.9701l0.0025,0zm56.94514,0l-25.38006,0l0,52.35263l25.37756,-12.38253l0,-39.9701l0.0025,0zm-108.27027,93.62524l0,53.87514l155.00039,0l0,-53.87514l-155.00039,0zm31.20508,33.60758l-15.16504,0l0,-24.47006l15.16504,0l0,24.47006zm30.33008,0l-15.16504,0l0,-24.47006l15.16504,0l0,24.47006zm30.48508,0l-15.16504,0l0,-24.47006l15.16504,0l0,24.47006z" stroke-width="5" stroke-miterlimit="10" stroke-dasharray=""></path></g></svg>