<svg data-v-9833e8b2="" version="1.1" xmlns="http://www.w3.org/2000/svg" xmlns:xlink="http://www.w3.org/1999/xlink" width="25" height="22.5"><g data-v-9833e8b2=""><path data-v-9833e8b2="" transform="scale(0.1404494382022472)" fill="none" stroke="currentColor" paint-order="fill stroke markers" d="m170.80589,100.05329c-1.95532,0 -7.07532,0.87766 -7.07532,2.83317l0,4.24195l-21.22576,0l0,-42.45113l7.07532,-14.15044l0,-35.3764c0,-4.58088 -2.48742,-7.07512 -7.07512,-7.07512l-35.3764,0c0,-4.58107 -2.49444,-7.07532 -7.07551,-7.07532l-28.30069,0c-4.58088,0 -7.07512,2.49424 -7.07512,7.07512l-35.3764,0c-4.58088,0 -7.07551,2.49444 -7.07551,7.07512l0,35.3764l7.07551,7.07532l-14.15083,0l0,-7.07532l-7.07512,0l0,21.22576l7.07512,0l0,-7.07532l14.15083,0l0,14.15025l-10.88917,0c-5.9079,0 -10.33659,-0.28995 -10.33659,5.61073l0,1.46459l14.15044,21.22576l-14.15044,0c-4.5879,0 -7.07512,2.49424 -7.07512,7.07532l0,35.3762c0,4.58107 2.48722,7.07551 7.07512,7.07551l155.65525,0l0,3.53756c0,1.95532 5.12,3.53776 7.07551,3.53776s7.07512,-1.58244 7.07512,-3.53756l0,-57.30694c0,-1.95532 -5.11961,-2.83298 -7.07512,-2.83298zm-106.12861,-14.15064l42.45172,0l0,28.30108l-42.45191,0l0,-28.30108l0.0002,0zm45.98889,-7.07512l-49.21581,0c-3.60683,0 -3.84839,-0.06907 -3.84839,3.53756l0,31.83864l-14.15044,0l0,-42.45133l84.90285,0l0,42.45152l-14.15025,0l0,-31.83884c0,-3.60644 0.0761,-3.53756 -3.53795,-3.53756zm-74.28997,-35.3764l0,-21.22557l99.05348,0l0,21.22576l-99.05348,0l0,-0.0002zm0,7.07512l99.05348,0l-7.07551,14.15064l-84.90285,0l-7.07512,-14.15044l0,-0.0002zm-14.15025,42.45152l14.15025,0l0,21.22576l-14.15025,-21.22576zm-7.0759,49.52703l0,-21.22576l134.42988,0l0,21.22596l-134.42968,0l-0.0002,-0.0002zm141.505,0l0,-21.22576l7.07532,0l0,21.22596l-7.07512,0l-0.0002,-0.0002z" stroke-width="5" stroke-miterlimit="10" stroke-dasharray=""></path><path data-v-9833e8b2="" transform="scale(0.1404494382022472)" fill="none" stroke="currentColor" paint-order="fill stroke markers" d="m85.90285,92.97797c-3.90381,0 -7.07512,3.17854 -7.07512,7.07532c0,3.904 3.17132,7.07512 7.07512,7.07512s7.07551,-3.17112 7.07551,-7.07512c0,-3.89678 -3.17171,-7.07532 -7.07551,-7.07532zm-38.90674,35.3764c-1.95532,0 -3.54459,1.58224 -3.54459,3.53756c0,1.95532 1.58927,3.53776 3.54459,3.53776c1.95512,0 3.53073,-1.58244 3.53073,-3.53756c0,-1.95551 -1.57561,-3.53776 -3.53073,-3.53776zm77.8207,0c-1.95551,0 -3.53776,1.57541 -3.53776,3.53073c0,1.95532 1.58224,3.53093 3.53756,3.53093s3.53776,-1.57561 3.53776,-3.53093s-1.58224,-3.53073 -3.53756,-3.53073z" stroke-width="5" stroke-miterlimit="10" stroke-dasharray=""></path></g></svg>