<svg data-v-9833e8b2="" version="1.1" xmlns="http://www.w3.org/2000/svg" xmlns:xlink="http://www.w3.org/1999/xlink" width="25" height="25"><g data-v-9833e8b2=""><path data-v-9833e8b2="" transform="scale(0.12376237623762376)" fill="none" stroke="currentColor" paint-order="fill stroke markers" d="m190.50048,100.00025l-5.50001,0c10.00003,-9.00002 16.00004,-25.50006 16.00004,-44.50011c0,-29.00007 -15.00004,-52.00013 -34.00009,-52.00013c-15.00004,0 -27.00007,13.50003 -32.00008,33.50008l0,-19.00005c0,-9.50002 -7.50002,-17.00004 -16.50004,-17.00004l-37.50009,0c-9.00002,0 -16.50004,7.50002 -16.50004,17.00004l0,48.00012l-2.50001,0c-0.5,-6.50002 -4.00001,-11.50003 -8.00002,-11.50003l-2.50001,0l0,1.5c-1,-4.50001 -4.00001,-8.00002 -8.00002,-8.00002l-2.50001,0l0,0.5c-0.5,-0.5 -1,-0.5 -2.00001,-0.5l-6.50002,0l0,-7.00002l3.50001,0c3.50001,0 6.00002,-3.50001 6.00002,-8.00002l0,-14.00004l-30.00008,0l0,14.00004c0,4.50001 2.50001,8.00002 6.00002,8.00002l3.50001,0l0,6.50002l-6.00002,0c-1,0 -2.00001,0.5 -2.50001,1l0,-0.5l-2.50001,0c-5.00001,0 -9.50002,5.00001 -9.50002,11.50003l0,31.00008c0,6.50002 4.50001,11.50003 9.50002,11.50003l2.50001,0l0,-1c1,0.5 1.5,1 2.50001,1l23.50006,0c0.5,0 1.5,0 2.00001,-0.5l0,0.5l2.50001,0c3.50001,0 7.00002,-3.50001 8.00002,-8.00002l0,1.5l2.50001,0c4.50001,0 7.50002,-5.00001 8.50002,-12.00003l2.50001,0l0,0.5c0,8.00002 5.50001,14.50004 12.50003,16.50004l-64.50016,0c-5.50001,0 -10.00003,4.50001 -10.00003,10.50003l0,77.00019c0,5.50001 4.50001,10.50003 10.00003,10.50003l177.00045,0c5.50001,0 10.00003,-4.50001 10.00003,-10.50003l0,-77.5002c0.5,-5.50001 -4.00001,-10.50003 -9.50002,-10.50003zm-172.50043,-64.00016s-1,-1 -1,-3.00001l0,-8.50002l20.50005,0l0,8.50002c0,2.00001 -1,3.00001 -1,3.00001l-18.50005,0zm9.50002,5.00001l0,6.00002l-1,0l0,-6.00002l1,0zm-19.50005,54.50014c-1,-1 -2.00001,-3.00001 -2.00001,-5.50001l0,-31.00008c0,-2.00001 1,-4.00001 2.00001,-5.50001l0,42.00011zm7.50002,-12.50003l0,-4.00001l23.50006,0l0,4.00001l-23.50006,0zm0,-13.50003l0,-3.50001l23.50006,0l0,3.50001l-23.50006,0zm23.50006,-16.50004l0,3.00001l-23.50006,0l0,-3.50001l23.50006,0.5zm-23.50006,43.50011l0,-3.50001l23.50006,0l0,3.50001l-23.50006,0zm31.50008,-6.50002c0,1.5 -0.5,3.00001 -0.5,4.00001l0,-38.5001c0.5,1 0.5,2.50001 0.5,4.00001l0,30.50008zm16.50004,-12.00003l-6.00002,0l0,2.50001c0,2.50001 -0.5,5.00001 -1,6.50002l0,-25.00006c0.5,1.5 1,4.00001 1,6.50002l0,2.50001l6.00002,0l0,7.00002zm1.5,40.0001l20.50005,0l0,62.00016l-20.50005,0l0,-62.00016zm-7.00002,62.00016l-20.50005,0l0,-62.00016l20.50005,0l0,62.00016zm34.50009,-62.00016l20.50005,0l0,62.00016l-20.50005,0l0,-62.00016zm27.50007,0l21.00005,0l0,62.00016l-20.50005,0l0,-62.00016l-0.5,0zm27.50007,0l20.50005,0l0,62.00016l-20.50005,0l0,-62.00016zm19.50005,-23.00006c-8.00002,0 -15.50004,-8.50002 -19.00005,-20.50005l8.00002,-12.00003c1.5,7.50002 6.00002,12.50003 11.50003,12.50003c5.50001,0 10.00003,-5.00001 11.50003,-12.00003l7.50002,11.00003c-4.00001,12.00003 -11.50003,21.00005 -19.50005,21.00005zm2.50001,-46.50012c1,1.5 1.5,4.00001 1.5,7.00002c0,6.50002 -2.50001,10.00003 -3.50001,10.00003s-3.50001,-3.50001 -3.50001,-10.00003s2.50001,-10.00003 3.50001,-10.00003c0.5,0 1.5,1 2.00001,2.50001l0,0.5zm-2.50001,-32.50008c12.00003,0 22.00006,18.00005 22.00006,39.5001l0,5.50001l-11.50003,-17.50004c-2.00001,-4.50001 -5.50001,-7.00002 -10.00003,-7.00002c-3.50001,0 -6.50002,2.00001 -9.00002,5.50001l-13.00003,20.00005c0,-2.00001 -0.5,-4.50001 -0.5,-6.50002c0,-21.00005 10.00003,-39.5001 22.00006,-39.5001zm-86.00022,-2.00001l37.50009,0c2.50001,0 4.00001,2.00001 4.00001,4.00001l0,27.00007l-1.5,0c-1.5,-16.00004 -10.50003,-28.00007 -21.00005,-28.00007s-19.50005,12.00003 -21.00005,28.00007l-2.00001,0l0,-27.00007c0,-2.50001 1.5,-4.00001 4.00001,-4.00001zm28.00007,37.00009c0,12.50003 -5.50001,21.00005 -9.00002,21.00005s-9.00002,-8.50002 -9.00002,-21.00005s5.50001,-21.00005 9.00002,-21.00005s9.00002,8.00002 9.00002,21.00005zm-32.00008,7.00002l2.00001,0c2.00001,15.50004 10.50003,26.50007 21.00005,26.50007s19.00005,-11.00003 21.00005,-26.50007l2.00001,0l0,25.50006c0,2.50001 -2.00001,4.00001 -4.00001,4.00001l-38.0001,0c-2.50001,0 -4.00001,-2.00001 -4.00001,-4.00001l0,-25.50006zm58.00015,26.00007l0,-9.50002c2.50001,11.00003 7.50002,20.00005 14.00004,26.00007l-26.50007,0c7.00002,-2.00001 12.50003,-9.00002 12.50003,-16.50004zm-114.50029,34.00009l10.50003,0l0,62.00016l-10.50003,0l0,-62.00016zm162.50041,62.00016l-8.00002,0l0,-62.00016l8.00002,0l0,62.00016z" stroke-width="5" stroke-miterlimit="10" stroke-dasharray=""></path></g></svg>