<svg data-v-9833e8b2="" version="1.1" xmlns="http://www.w3.org/2000/svg" xmlns:xlink="http://www.w3.org/1999/xlink" width="25" height="12.5"><g data-v-9833e8b2=""><path data-v-9833e8b2="" transform="scale(0.13089005235602094)" fill="none" stroke="currentColor" paint-order="fill stroke markers" d="m189.92659,36.86318l-3.85263,-8.18948l-4.37895,0a2.10526,2.10526 0 0 0 -1.32632,0.47368l-26.93686,0l0,-4.05263a2.28421,2.28421 0 0 0 -2.28421,-2.28421l-11.04211,0l0,-18.94738a2.85263,2.85263 0 0 0 -2.85263,-2.86316l-74.25267,0a2.85263,2.85263 0 0 0 -2.85263,2.86316l0,18.94738l-1.89474,0l0,-18.94738a2.86316,2.86316 0 0 0 -2.86316,-2.86316l-51.57897,0a2.86316,2.86316 0 0 0 -2.81053,2.89474l0,55.97898a2.28421,2.28421 0 0 0 2.28421,2.28421l17.29475,0l0,24.14738a2.29474,2.29474 0 0 0 2.28421,2.28421l29.71581,0a2.28421,2.28421 0 0 0 2.28421,-2.28421l0,-24.14738l64.21056,0l0,24.21054a2.29474,2.29474 0 0 0 2.33684,2.30526l29.73686,0a2.28421,2.28421 0 0 0 2.28421,-2.28421l0,-25.66317a1.90526,1.90526 0 0 0 0,-0.42105a2,2 0 0 0 0,-0.43158l0,-4.07369l26.89475,0a2.18947,2.18947 0 0 0 1.32632,0.47368l4.37895,0l3.85263,-8.16843a1.93684,1.93684 0 0 0 0.54737,-1.34737l0,-8.5579a1.93684,1.93684 0 0 0 -0.50526,-1.33684zm-125.97901,-32.02107l72.34741,0l0,17.96843l-72.34741,0l0,-17.96843zm-59.13687,0l49.6316,0l0,17.96843l-49.6316,0l0,-17.96843zm46.31581,79.93689l-26.73686,0l0,-22.62106l26.68422,0l0.05263,22.62106zm98.54742,0.09474l-26.73686,0l0,-22.7158l26.68423,0l0.05263,22.7158zm0,-26.52633l-144.86323,0l0,-31.72633l144.8106,0l0.05263,31.72633zm29.93686,-5.26316l-26.17896,0l0,-1.46316l26.12633,0l0.05263,1.46316zm0,-4.06316l-26.17896,0l0,-1.26316l26.12633,0l0.05263,1.26316zm0,-3.86316l-26.17896,0l0,-1.26316l26.12633,0l0.05263,1.26316zm0,-3.86316l-26.17896,0l0,-1.46316l26.12633,0l0.05263,1.46316zm0,-4.07369l-26.17896,0l0,-1.25263l26.12633,0l0.05263,1.25263zm0,-3.86316l-26.17896,0l0,-1.47369l26.12633,0l0.05263,1.47369zm3.49474,19.52633l-0.36842,0l0,-20.75791l0.36842,0l0,20.75791zm3.98948,-6.67369l-0.53684,1.12632l0,-9.67369l0.53684,1.13684l0,7.41053z" stroke-width="5" stroke-miterlimit="10" stroke-dasharray=""></path></g></svg>