<svg data-v-9833e8b2="" version="1.1" xmlns="http://www.w3.org/2000/svg" xmlns:xlink="http://www.w3.org/1999/xlink" width="25" height="20"><g data-v-9833e8b2=""><path data-v-9833e8b2="" transform="scale(0.20491803278688525)" fill="none" stroke="currentColor" paint-order="fill stroke markers" d="m220.562,92.47801c-0.176,-0.036 -0.353,-0.079 -0.53,-0.116c-0.006,0 -0.006,0 -0.012,0c-0.414,0.006 -0.822,0.006 -1.236,0.012c-0.067,0.158 -0.14,0.323 -0.207,0.481c-17.638,40.859 -36.031,81.383 -54.18,122.017c-2.113,4.737 -4.225,9.461 -6.368,14.174c5.577,-3.805 11.13,-7.629 16.554,-11.641c12.402,-9.157 24.469,-18.752 36.384,-28.53c23.611,-19.385 46.546,-39.611 70.54,-58.533c8.231,-6.49 16.542,-12.871 25.108,-18.88c-16.725,-3.519 -33.401,-7.269 -50.077,-10.971c-11.994,-2.662 -23.988,-5.347 -35.976,-8.013z" stroke-width="5" stroke-miterlimit="10" stroke-dasharray=""></path><path data-v-9833e8b2="" transform="scale(0.20491803278688525)" fill="none" stroke="currentColor" paint-order="fill stroke markers" d="m308.002,110.42001c-6.807,-11.27 -13.139,-22.868 -19.464,-34.381c-4.037,-7.349 -8.025,-14.728 -11.921,-22.15c-0.889,-1.693 -1.808,-3.385 -2.734,-5.09c-0.183,-0.073 -0.365,-0.146 -0.542,-0.219c-0.585,0.079 -1.163,0.164 -1.747,0.237c-9.802,1.358 -19.623,2.606 -29.419,3.915c-7.732,1.035 -15.41,2.314 -23.13,3.428c-0.006,-0.006 -0.012,0 -0.012,0c-1.358,0.195 -2.715,0.39 -4.073,0.572c-1.315,0.176 -2.618,0.365 -3.939,0.554c0,0 -0.006,0 -0.012,0c-1.303,0.189 -2.606,0.377 -3.915,0.56c0.061,0.146 0.116,0.298 0.177,0.444c0,0 0.012,0.006 0.006,0.012c0.317,0.755 0.621,1.51 0.931,2.265l0,0.006c3.811,9.346 7.544,18.728 11.014,28.201c0.171,0.463 0.341,0.932 0.505,1.4c0.079,0.201 0.152,0.408 0.225,0.615c0.012,0.037 0.03,0.073 0.043,0.11c2.07,0.463 4.146,0.925 6.216,1.382c0.006,0.006 0.012,0 0.012,0c10.027,2.234 20.067,4.469 30.095,6.709c16.852,3.769 33.723,7.483 50.533,11.446c0.31,0.067 0.615,0.14 0.925,0.213c0.085,-0.061 0.171,-0.122 0.256,-0.176c-0.011,-0.016 -0.023,-0.035 -0.03,-0.053z" stroke-width="5" stroke-miterlimit="10" stroke-dasharray=""></path><path data-v-9833e8b2="" transform="scale(0.20491803278688525)" fill="none" stroke="currentColor" paint-order="fill stroke markers" d="m184.165,32.04501c6.971,7.72 13.875,15.483 20.633,23.367c0.152,0.177 0.298,0.347 0.451,0.524l0.006,0c0.335,-0.049 0.664,-0.085 0.999,-0.128c2.624,-0.323 5.248,-0.621 7.848,-0.956c8.944,-1.151 17.93,-1.948 26.88,-3.093c10.149,-1.303 20.299,-2.685 30.472,-3.945c-13.187,-5.376 -26.32,-10.886 -39.641,-15.909c-19.239,-7.263 -38.564,-14.265 -57.943,-21.127c-4.883,-1.729 -9.784,-3.403 -14.673,-5.132c2.076,2.125 4.14,4.25 6.198,6.387c6.344,6.593 12.64,13.229 18.77,20.012z" stroke-width="5" stroke-miterlimit="10" stroke-dasharray=""></path><path data-v-9833e8b2="" transform="scale(0.20491803278688525)" fill="none" stroke="currentColor" paint-order="fill stroke markers" d="m128.889,32.84201c-7.02,7.635 -13.93,15.379 -20.786,23.172c1.754,-0.006 3.513,-0.018 5.266,-0.037c4.183,-0.043 8.359,-0.091 12.542,-0.146c10.082,-0.207 20.165,-0.28 30.253,-0.262c10.088,-0.018 20.165,0.055 30.247,0.262c4.183,0.055 8.359,0.104 12.542,0.146c1.711,0.018 3.428,0.03 5.139,0.037c-6.941,-7.69 -13.942,-15.331 -21.066,-22.868c-6.143,-6.502 -12.262,-13.035 -18.466,-19.489c-2.886,-3.008 -5.784,-5.997 -8.7,-8.974c-0.414,0.146 -0.822,0.292 -1.236,0.438c-2.563,2.679 -5.102,5.376 -7.629,8.079c-6.081,6.504 -12.078,13.085 -18.106,19.642z" stroke-width="5" stroke-miterlimit="10" stroke-dasharray=""></path><path data-v-9833e8b2="" transform="scale(0.20491803278688525)" fill="none" stroke="currentColor" paint-order="fill stroke markers" d="m98.222,54.85201c2.6,0.335 5.224,0.633 7.848,0.956c0.305,0.037 0.615,0.073 0.92,0.116c0.14,-0.164 0.274,-0.329 0.414,-0.493c6.679,-7.988 13.492,-15.872 20.371,-23.702c6.009,-6.837 12.183,-13.522 18.405,-20.165c1.625,-1.735 3.257,-3.464 4.895,-5.193c-4.207,1.473 -8.426,2.923 -12.621,4.408c-19.379,6.862 -38.704,13.863 -57.943,21.127c-13.321,5.023 -26.454,10.533 -39.641,15.909c10.174,1.26 20.323,2.642 30.472,3.945c8.95,1.144 17.936,1.941 26.88,3.092z" stroke-width="5" stroke-miterlimit="10" stroke-dasharray=""></path><path data-v-9833e8b2="" transform="scale(0.20491803278688525)" fill="none" stroke="currentColor" paint-order="fill stroke markers" d="m205.274,57.31201l-0.006,0c-1.906,0.012 -3.799,0.018 -5.705,0.043c-1.419,0.012 -2.831,0.03 -4.25,0.049l-0.018,0c-3.3,0.037 -6.6,0.079 -9.9,0.122c-9.741,0.201 -19.483,0.268 -29.23,0.244c-9.753,0.024 -19.495,-0.043 -29.236,-0.244c-3.3,-0.042 -6.6,-0.085 -9.9,-0.122l-0.018,0c-1.419,-0.018 -2.831,-0.036 -4.25,-0.049c-1.93,-0.024 -3.866,-0.03 -5.796,-0.043c-0.11,0.122 -0.213,0.244 -0.323,0.365c-0.043,0.116 -0.085,0.231 -0.122,0.353c-0.03,0.079 -0.055,0.158 -0.085,0.237c-3.732,10.752 -7.55,21.492 -11.696,32.092c-0.055,0.134 -0.11,0.274 -0.164,0.414c1.759,-0.018 3.525,-0.031 5.285,-0.037l0.006,0c14.314,-0.061 28.621,0.061 42.929,0.055c4.457,0 8.913,0.006 13.37,0.018c4.451,-0.012 8.907,-0.018 13.364,-0.018c14.308,0.006 28.615,-0.116 42.929,-0.055l0.006,0c1.76,0.006 3.525,0.018 5.285,0.037c-0.055,-0.14 -0.11,-0.28 -0.164,-0.414c-4.146,-10.6 -7.964,-21.34 -11.696,-32.092c-0.03,-0.079 -0.055,-0.158 -0.085,-0.237c-0.024,-0.073 -0.049,-0.14 -0.073,-0.207l0,-0.006c-0.153,-0.171 -0.305,-0.335 -0.457,-0.505z" stroke-width="5" stroke-miterlimit="10" stroke-dasharray=""></path><path data-v-9833e8b2="" transform="scale(0.20491803278688525)" fill="none" stroke="currentColor" paint-order="fill stroke markers" d="m86.1,92.28301c0,0 0.006,0.006 0.012,0c2.07,-0.457 4.146,-0.919 6.216,-1.382c0.012,-0.037 0.03,-0.073 0.043,-0.11c0.073,-0.207 0.146,-0.414 0.225,-0.615c0.164,-0.469 0.335,-0.938 0.505,-1.4c3.476,-9.479 7.209,-18.874 11.026,-28.226c0.317,-0.779 0.633,-1.559 0.95,-2.338c0.055,-0.122 0.104,-0.244 0.152,-0.365c-1.309,-0.183 -2.612,-0.371 -3.915,-0.56c-0.006,0 -0.012,0 -0.012,0c-1.321,-0.189 -2.624,-0.378 -3.939,-0.554c-1.358,-0.183 -2.716,-0.377 -4.073,-0.572c0,0 -0.006,-0.006 -0.012,0c-7.72,-1.114 -15.397,-2.393 -23.13,-3.428c-9.796,-1.309 -19.617,-2.557 -29.419,-3.915c-0.585,-0.073 -1.163,-0.158 -1.747,-0.237c-0.177,0.073 -0.359,0.146 -0.542,0.219c-0.925,1.705 -1.845,3.397 -2.734,5.09c-3.896,7.422 -7.884,14.801 -11.921,22.15c-6.326,11.513 -12.658,23.111 -19.464,34.381c-0.006,0.018 -0.018,0.036 -0.031,0.055c0.085,0.055 0.171,0.116 0.256,0.176c0.311,-0.073 0.615,-0.146 0.925,-0.213c16.81,-3.964 33.681,-7.677 50.533,-11.446c10.029,-2.241 20.069,-4.476 30.096,-6.71z" stroke-width="5" stroke-miterlimit="10" stroke-dasharray=""></path><path data-v-9833e8b2="" transform="scale(0.20491803278688525)" fill="none" stroke="currentColor" paint-order="fill stroke markers" d="m93.747,92.85501c-0.067,-0.158 -0.14,-0.323 -0.207,-0.481c-0.414,-0.006 -0.822,-0.006 -1.236,-0.012c-0.006,0 -0.006,0 -0.012,0c-0.177,0.036 -0.353,0.079 -0.53,0.116c-11.988,2.667 -23.982,5.352 -35.976,8.012c-16.676,3.702 -33.352,7.452 -50.077,10.971c8.566,6.009 16.877,12.39 25.108,18.88c23.994,18.922 46.929,39.148 70.54,58.533c11.915,9.778 23.982,19.373 36.384,28.53c5.425,4.012 10.977,7.836 16.554,11.641c-2.143,-4.712 -4.256,-9.437 -6.368,-14.174c-18.149,-40.633 -36.542,-81.157 -54.18,-122.016z" stroke-width="5" stroke-miterlimit="10" stroke-dasharray=""></path><path data-v-9833e8b2="" transform="scale(0.20491803278688525)" fill="none" stroke="currentColor" paint-order="fill stroke markers" d="m209.59,109.78101c2.606,-5.826 5.267,-11.623 7.951,-17.4c-16.006,0.128 -32.012,-0.024 -48.013,-0.018c-4.457,0 -8.913,-0.006 -13.364,-0.018c-4.457,0.012 -8.913,0.018 -13.37,0.018c-16,-0.006 -32.007,0.146 -48.013,0.018c2.685,5.778 5.345,11.574 7.951,17.4c10.947,24.426 21.961,48.816 32.883,73.255c6.819,15.27 13.875,30.454 20.548,45.803c6.667,-15.349 13.723,-30.533 20.542,-45.803c10.925,-24.439 21.939,-48.829 32.885,-73.255z" stroke-width="5" stroke-miterlimit="10" stroke-dasharray=""></path><path data-v-9833e8b2="" transform="scale(0.20491803278688525)" fill="none" stroke="currentColor" paint-order="fill stroke markers" d="m59.184,99.18701c0,0 18.265,-3.044 28.92,2.435s23.136,30.137 23.136,30.137s-11.264,-29.224 -7.306,-33.79c3.957,-4.566 11.872,-6.393 11.872,-6.393s-11.264,-2.74 -13.699,-4.566c-2.435,-1.827 -2.435,-13.394 -2.435,-13.394s-6.088,10.35 -10.959,14.003c-4.871,3.653 -29.529,11.568 -29.529,11.568z" stroke-width="5" stroke-miterlimit="10" stroke-dasharray=""></path><path data-v-9833e8b2="" transform="scale(0.20491803278688525)" fill="none" stroke="currentColor" paint-order="fill stroke markers" d="m253.098,99.18701c0,0 -18.265,-3.044 -28.92,2.435c-10.655,5.48 -23.136,30.137 -23.136,30.137s11.263,-29.224 7.306,-33.79c-3.958,-4.566 -11.872,-6.393 -11.872,-6.393s11.264,-2.74 13.699,-4.566c2.435,-1.827 2.435,-13.394 2.435,-13.394s6.088,10.35 10.959,14.003c4.871,3.653 29.529,11.568 29.529,11.568z" stroke-width="5" stroke-miterlimit="10" stroke-dasharray=""></path><path data-v-9833e8b2="" transform="scale(0.20491803278688525)" fill="none" stroke="currentColor" paint-order="fill stroke markers" d="m52.791,49.56701c14.612,3.653 45.358,9.741 45.663,11.263c0.304,1.522 1.522,10.655 1.522,10.655s5.48,-10.959 9.133,-12.177c3.653,-1.218 16.804,-3.476 16.804,-3.476s-5.54,-4.439 -4.323,-9.309s22.527,-31.659 22.527,-31.659s-31.659,30.746 -38.661,33.79c-7.002,3.044 -52.665,0.913 -52.665,0.913z" stroke-width="5" stroke-miterlimit="10" stroke-dasharray=""></path><path data-v-9833e8b2="" transform="scale(0.20491803278688525)" fill="none" stroke="currentColor" paint-order="fill stroke markers" d="m259.186,49.56701c-14.612,3.653 -45.358,9.741 -45.663,11.263c-0.304,1.522 -1.522,10.655 -1.522,10.655s-5.48,-10.959 -9.132,-12.177c-3.653,-1.218 -16.804,-3.476 -16.804,-3.476s5.54,-4.439 4.323,-9.309c-1.218,-4.871 -22.527,-31.659 -22.527,-31.659s31.66,30.746 38.661,33.79c7.002,3.044 52.664,0.913 52.664,0.913z" stroke-width="5" stroke-miterlimit="10" stroke-dasharray=""></path><path data-v-9833e8b2="" transform="scale(0.20491803278688525)" fill="none" stroke="currentColor" paint-order="fill stroke markers" d="m143.203,202.68901c1.218,4.262 0.913,10.046 -2.131,10.655c-3.173,0.634 -57.231,-42.314 -68.494,-51.142c-11.264,-8.828 -55.708,-43.227 -53.882,-48.707c1.826,-5.48 17.656,-9.133 17.656,-9.133s-17.352,1.218 -19.787,-2.435c-2.435,-3.653 13.09,-37.748 13.09,-37.748l-25.364,46.296l150.784,120.525l-11.872,-28.311z" stroke-width="5" stroke-miterlimit="10" stroke-dasharray=""></path><path data-v-9833e8b2="" transform="scale(0.20491803278688525)" fill="none" stroke="currentColor" paint-order="fill stroke markers" d="m168.774,202.38501c-1.218,4.262 0,10.35 4.164,10.959c3.202,0.468 57.231,-42.314 68.494,-51.142c11.263,-8.828 55.708,-43.227 53.882,-48.707c-1.826,-5.48 -17.656,-9.133 -17.656,-9.133s17.352,1.218 19.787,-2.435c2.435,-3.653 -14.21,-36.835 -14.21,-36.835l26.485,45.383l-152.818,120.221l11.872,-28.311z" stroke-width="5" stroke-miterlimit="10" stroke-dasharray=""></path><path data-v-9833e8b2="" transform="scale(0.20491803278688525)" fill="none" stroke="currentColor" paint-order="fill stroke markers" d="m143.203,202.68901c3.653,3.958 15.83,4.871 25.571,-0.304c-2.74,7.61 -11.872,28.311 -11.872,28.311l-13.699,-28.007z" stroke-width="5" stroke-miterlimit="10" stroke-dasharray=""></path><path data-v-9833e8b2="" transform="scale(0.20491803278688525)" fill="none" stroke="currentColor" paint-order="fill stroke markers" d="m124.329,106.18901c-5.838,8.339 17.859,83.613 31.253,84.019c13.394,0.406 37.342,-72.654 37.748,-79.96c0.406,-7.306 -63.318,-12.177 -69.001,-4.059z" stroke-width="5" stroke-miterlimit="10" stroke-dasharray=""></path><path data-v-9833e8b2="" transform="scale(0.20491803278688525)" fill="none" stroke="currentColor" paint-order="fill stroke markers" d="m232.296,112.68301c-10.738,6.608 -45.054,66.566 -42.213,74.278c2.841,7.712 86.861,-55.607 87.672,-65.754c0.812,-10.147 -40.182,-11.771 -45.459,-8.524z" stroke-width="5" stroke-miterlimit="10" stroke-dasharray=""></path><path data-v-9833e8b2="" transform="scale(0.20491803278688525)" fill="none" stroke="currentColor" paint-order="fill stroke markers" d="m84.803,112.68301c10.738,6.608 45.054,66.566 42.213,74.278c-2.841,7.712 -86.861,-55.607 -87.672,-65.754c-0.812,-10.147 40.183,-11.771 45.459,-8.524z" stroke-width="5" stroke-miterlimit="10" stroke-dasharray=""></path><path data-v-9833e8b2="" transform="scale(0.20491803278688525)" fill="none" stroke="currentColor" paint-order="fill stroke markers" d="m31.38,92.38801c-6.828,-3.676 7.712,-34.501 12.988,-35.312c5.277,-0.812 43.836,6.494 43.836,9.741c0,3.247 -1.623,15.018 -6.494,17.453c-4.87,2.436 -45.053,10.96 -50.33,8.118z" stroke-width="5" stroke-miterlimit="10" stroke-dasharray=""></path><path data-v-9833e8b2="" transform="scale(0.20491803278688525)" fill="none" stroke="currentColor" paint-order="fill stroke markers" d="m280.837,92.38801c6.828,-3.676 -7.712,-34.501 -12.988,-35.312c-5.277,-0.812 -43.836,6.494 -43.836,9.741c0,3.247 1.624,15.018 6.494,17.453c4.87,2.436 45.053,10.96 50.33,8.118z" stroke-width="5" stroke-miterlimit="10" stroke-dasharray=""></path><path data-v-9833e8b2="" transform="scale(0.20491803278688525)" fill="none" stroke="currentColor" paint-order="fill stroke markers" d="m119.053,63.16401c-6.484,2.594 -4.871,14.612 0,17.048c4.871,2.435 64.131,3.247 73.06,-0.406c8.93,-3.653 4.059,-13.8 -0.812,-15.424c-4.871,-1.623 -64.131,-4.465 -72.248,-1.218z" stroke-width="5" stroke-miterlimit="10" stroke-dasharray=""></path><path data-v-9833e8b2="" transform="scale(0.20491803278688525)" fill="none" stroke="currentColor" paint-order="fill stroke markers" d="m64.257,41.65201c-2.841,2.029 32.065,0.812 36.124,0c4.059,-0.812 28.007,-19.077 30.036,-23.136c2.03,-4.058 -63.318,21.107 -66.16,23.136z" stroke-width="5" stroke-miterlimit="10" stroke-dasharray=""></path><path data-v-9833e8b2="" transform="scale(0.20491803278688525)" fill="none" stroke="currentColor" paint-order="fill stroke markers" d="m246.384,41.65201c2.841,2.029 -32.065,0.812 -36.124,0c-4.059,-0.812 -28.007,-19.077 -30.036,-23.136c-2.029,-4.058 63.319,21.107 66.16,23.136z" stroke-width="5" stroke-miterlimit="10" stroke-dasharray=""></path><path data-v-9833e8b2="" transform="scale(0.20491803278688525)" fill="none" stroke="currentColor" paint-order="fill stroke markers" d="m154.771,12.83401c6.882,-0.492 19.889,24.353 20.294,27.6c0.406,3.247 -34.906,10.553 -36.53,2.841c-1.623,-7.711 10.554,-30.035 16.236,-30.441z" stroke-width="5" stroke-miterlimit="10" stroke-dasharray=""></path><path data-v-9833e8b2="" transform="scale(0.20491803278688525)" fill="none" stroke="currentColor" paint-order="fill stroke markers" d="m121.00079,43.40625c-0.05234,-0.01445 -0.10469,-0.02617 -0.15703,-0.03789c-0.07852,-0.13789 -0.15469,-0.27578 -0.2332,-0.41367c-2.47109,-4.42344 -5.01563,-8.8043 -7.42266,-13.26602c-1.55547,-2.88242 -3.08203,-5.78164 -4.59258,-8.69258c-0.27578,-0.53047 -0.54219,-1.06563 -0.80859,-1.60781c-0.08555,-0.17344 -0.16875,-0.34492 -0.2543,-0.51836c0.00469,-0.00234 0.00938,-0.00234 0.01406,-0.00234c-0.00469,-0.00234 -0.01172,-0.00703 -0.01914,-0.00703l0,-0.00234c-0.21406,-0.09531 -0.42813,-0.19023 -0.64453,-0.2832c-0.07148,-0.0332 -0.14531,-0.06406 -0.21641,-0.09492l0,-0.00234c-2.04766,-0.89648 -4.10742,-1.76719 -6.1668,-2.63047c-7.4082,-3.1082 -14.89024,-6.07656 -22.42227,-8.8707c-5.23711,-1.94297 -10.52617,-3.95508 -15.89414,-5.61758c-0.30195,-0.09258 -0.60391,-0.18555 -0.90859,-0.27578c-0.08789,-0.02852 -0.17578,-0.05469 -0.26406,-0.08086l-0.00234,0c-0.00234,0 -0.00469,-0.00234 -0.00703,-0.00234c-0.24023,0.07148 -0.48047,0.14258 -0.7207,0.21875c-0.00938,-0.01172 -0.01914,-0.02148 -0.03086,-0.03086c-0.01914,0.0168 -0.03555,0.03555 -0.05234,0.05469c-0.12617,0.03828 -0.2543,0.07852 -0.38047,0.11641c-5.36992,1.6625 -10.65703,3.67422 -15.89375,5.61758c-7.53203,2.79453 -15.01406,5.7625 -22.42227,8.8707c-2.05977,0.86328 -4.11914,1.73398 -6.1668,2.63047l0,0.00234c-0.07148,0.03086 -0.14531,0.06172 -0.21641,0.09492c-0.21641,0.09258 -0.43047,0.18789 -0.64453,0.2832l0,0.00234c-0.00703,0 -0.01445,0.00469 -0.01914,0.00703c0.00469,0 0.00938,0 0.01406,0.00234c-0.08555,0.17344 -0.16875,0.34492 -0.2543,0.51836c-0.26641,0.54219 -0.53281,1.07734 -0.80859,1.60781c-1.51016,2.91094 -3.03711,5.81016 -4.59219,8.69258c-2.40703,4.46172 -4.95156,8.84219 -7.42266,13.26602c-0.07852,0.13789 -0.15469,0.27578 -0.2332,0.41367c-0.05234,0.01172 -0.10469,0.02383 -0.15703,0.03789c0.0332,0.02148 0.06406,0.04766 0.09531,0.07383c0.08789,0.06406 0.17578,0.1332 0.26172,0.20234c-0.00938,0.01445 -0.01914,0.03086 -0.02617,0.04531c0.02148,-0.00469 0.04531,-0.00938 0.0668,-0.01445c7.70781,5.97422 15.3207,12.05547 22.7957,18.3293c9.05391,7.59844 18.02735,15.31133 27.48789,22.40313c2.85391,2.13789 5.73867,4.31406 8.72109,6.32383c0.19961,0.13789 0.39961,0.27109 0.59922,0.4043c0.19961,-0.1332 0.39961,-0.26641 0.59688,-0.4043c2.98242,-2.01211 5.86719,-4.18828 8.72109,-6.32383c9.46094,-7.09219 18.43399,-14.80469 27.48789,-22.40313c7.475,-6.27383 15.08789,-12.35508 22.7957,-18.3293c0.02148,0.00469 0.04531,0.00938 0.06641,0.01445c-0.00703,-0.01445 -0.01641,-0.03086 -0.02617,-0.04531c0.08555,-0.06914 0.17383,-0.13789 0.26172,-0.20234c0.03164,-0.02617 0.0625,-0.05234 0.0957,-0.07383zm-53.08282,-39.1961c7.56992,2.68047 15.11875,5.41523 22.63399,8.25274c5.20352,1.96211 10.33359,4.11445 15.48477,6.21445c-3.97422,0.49219 -7.93867,1.03203 -11.90313,1.54102c-3.49609,0.44727 -7.00625,0.75859 -10.5,1.2082c-1.01563,0.13086 -2.04063,0.24727 -3.06563,0.37344c-0.13086,0.0168 -0.25938,0.03086 -0.39023,0.05l-0.00234,0c-0.05938,-0.06914 -0.11641,-0.13555 -0.17617,-0.20469c-2.63984,-3.07969 -5.33672,-6.11211 -8.05977,-9.12774c-2.39492,-2.64922 -4.85391,-5.2418 -7.33203,-7.81719c-0.80391,-0.83477 -1.61016,-1.66484 -2.42109,-2.49492c1.90977,0.67539 3.82422,1.3293 5.73164,2.00469zm12.47383,18.45781c0.01172,0.03086 0.02148,0.06172 0.0332,0.09258c1.45781,4.2 2.94922,8.39531 4.56875,12.53594c0.02148,0.05234 0.04297,0.10703 0.06406,0.16172c-0.6875,-0.00703 -1.37695,-0.01211 -2.06445,-0.01445l-0.00234,0c-5.59141,-0.02383 -11.18008,0.02383 -16.76914,0.02148c-1.74102,0 -3.48164,0.00234 -5.22031,0.00703c-1.74102,-0.00469 -3.48164,-0.00703 -5.22266,-0.00703c-5.58906,0.00234 -11.17774,-0.04531 -16.76914,-0.02148l-0.00234,0c-0.6875,0.00234 -1.37695,0.00703 -2.06445,0.01445c0.02148,-0.05469 0.04297,-0.10938 0.06406,-0.16172c1.61953,-4.14063 3.11055,-8.33594 4.56875,-12.53594c0.01172,-0.03086 0.02148,-0.06172 0.0332,-0.09258c0.01445,-0.04766 0.03086,-0.09258 0.04766,-0.13789c0.04297,-0.04766 0.0832,-0.09492 0.12617,-0.14258c0.75391,0.00469 1.51016,0.00703 2.26406,0.0168c0.5543,0.00469 1.10586,0.01172 1.66016,0.01914l0.00703,0c1.28906,0.01445 2.57813,0.03086 3.86719,0.04766c3.80508,0.07852 7.61055,0.10469 11.42031,0.09531c3.80742,0.00938 7.61289,-0.0168 11.41797,-0.09531c1.28906,-0.01641 2.57813,-0.0332 3.86719,-0.04766l0.00703,0c0.5543,-0.00703 1.10586,-0.01406 1.66016,-0.01914c0.74453,-0.00938 1.48398,-0.01172 2.22852,-0.0168l0.00234,0c0.05938,0.0668 0.11875,0.13086 0.17852,0.19727l0,0.00234c0.00977,0.02617 0.01914,0.05234 0.02852,0.08086zm-19.99141,-20.66719c0.16172,-0.05703 0.32109,-0.11406 0.48281,-0.17109c1.13906,1.16289 2.27148,2.33086 3.39844,3.50547c2.42344,2.52109 4.81367,5.07305 7.21328,7.61289c2.78242,2.94414 5.51758,5.92891 8.22891,8.93281c-0.66836,-0.00234 -1.33906,-0.00703 -2.00742,-0.01445c-1.63398,-0.0168 -3.26523,-0.03555 -4.89922,-0.05703c-3.93828,-0.08086 -7.87461,-0.10938 -11.81524,-0.10234c-3.94063,-0.00703 -7.8793,0.02148 -11.81758,0.10234c-1.63398,0.02148 -3.26523,0.04063 -4.89922,0.05703c-0.68477,0.00703 -1.37227,0.01172 -2.05703,0.01445c2.67813,-3.04414 5.37734,-6.06953 8.11953,-9.05156c2.35469,-2.56133 4.69727,-5.13242 7.07305,-7.67227c0.98672,-1.05625 1.97813,-2.10977 2.97969,-3.15625zm-28.95078,10.46211c7.51523,-2.83711 15.06406,-5.57227 22.63399,-8.25274c1.63867,-0.58008 3.28672,-1.14609 4.93008,-1.72188c-0.63984,0.67539 -1.27734,1.35078 -1.91211,2.02852c-2.43047,2.59453 -4.84219,5.20586 -7.18945,7.87695c-2.6875,3.05859 -5.34883,6.13828 -7.95742,9.25859c-0.05469,0.06406 -0.10703,0.12852 -0.16172,0.19258c-0.11914,-0.0168 -0.24023,-0.03086 -0.35938,-0.04531c-1.025,-0.12617 -2.05,-0.24258 -3.06563,-0.37344c-3.49375,-0.44961 -7.00391,-0.76094 -10.5,-1.2082c-3.96445,-0.50898 -7.9293,-1.04883 -11.90313,-1.54102c5.15117,-2.09961 10.28125,-4.25195 15.48477,-6.21406zm-29.67344,30.76016c-0.0332,-0.02383 -0.06641,-0.04766 -0.1,-0.06875c0.00469,-0.00703 0.00938,-0.01445 0.01211,-0.02148c2.65898,-4.40234 5.13242,-8.93281 7.60313,-13.43008c1.57695,-2.8707 3.13438,-5.75313 4.65664,-8.65234c0.34727,-0.66133 0.70625,-1.32227 1.06797,-1.98828c0.07148,-0.02852 0.14258,-0.05703 0.21172,-0.08555c0.22852,0.03086 0.4543,0.06406 0.68242,0.09258c3.82891,0.53047 7.66523,1.01797 11.4918,1.5293c3.02031,0.4043 6.01953,0.90391 9.03516,1.33906c0.00234,-0.00234 0.00469,0 0.00469,0c0.53047,0.07617 1.06055,0.15234 1.59102,0.22344c0.51367,0.06875 1.02266,0.14258 1.53867,0.21641c0,0 0.00234,0 0.00469,0c0.50898,0.07383 1.01797,0.14727 1.5293,0.21875c-0.01914,0.04766 -0.03789,0.09531 -0.05938,0.14258c-0.12344,0.3043 -0.24727,0.60898 -0.37109,0.91328c-1.49102,3.65313 -2.94922,7.32266 -4.30703,11.02578c-0.0668,0.18086 -0.1332,0.36406 -0.19727,0.54688c-0.03086,0.07852 -0.05938,0.15938 -0.08789,0.24023c-0.00469,0.01445 -0.01172,0.02852 -0.0168,0.04297c-0.80859,0.18086 -1.61953,0.36133 -2.42813,0.53984c-0.00234,0.00234 -0.00469,0 -0.00469,0c-3.9168,0.87266 -7.83867,1.7457 -11.75586,2.6207c-6.5832,1.47227 -13.17305,2.92305 -19.73945,4.47109c-0.12148,0.02656 -0.24063,0.05508 -0.36172,0.08359zm52.0293,41.70078c-4.84453,-3.57695 -9.5582,-7.325 -14.2125,-11.14453c-9.22305,-7.57227 -18.18164,-15.47305 -27.55469,-22.86445c-3.21563,-2.53516 -6.46172,-5.02773 -9.80781,-7.375c6.5332,-1.37461 13.04727,-2.83945 19.56133,-4.28555c4.68516,-1.03945 9.37031,-2.08828 14.05313,-3.12969c0.06914,-0.01406 0.13789,-0.03086 0.20703,-0.04531c0.00234,0 0.00234,0 0.00469,0c0.16172,0.00234 0.32109,0.00234 0.48281,0.00469c0.02617,0.06172 0.05469,0.12617 0.08086,0.18789c6.88984,15.96055 14.07461,31.79024 21.16406,47.66289c0.82539,1.85039 1.65039,3.6957 2.4875,5.53672c-2.17852,-1.48711 -4.34727,-2.98047 -6.46641,-4.54766zm7.19648,4.46641c-2.60664,-5.9957 -5.36289,-11.92695 -8.02656,-17.8918c-4.26641,-9.54649 -8.56875,-19.07383 -12.84492,-28.61524c-1.01797,-2.27578 -2.05742,-4.54023 -3.10586,-6.79688c6.25234,0.05 12.50469,-0.00938 18.75508,-0.00703c1.74102,0 3.48164,-0.00234 5.22266,-0.00703c1.73867,0.00469 3.4793,0.00703 5.22031,0.00703c6.25,-0.00234 12.50234,0.05703 18.75508,0.00703c-1.04883,2.25703 -2.08828,4.52109 -3.10586,6.79688c-4.27617,9.54141 -8.57852,19.06875 -12.84492,28.61524c-2.66445,5.96484 -5.4207,11.89609 -8.025,17.8918zm48.96133,-38.47578c-9.37266,7.39141 -18.33164,15.29219 -27.55469,22.86445c-4.6543,3.81953 -9.36797,7.56758 -14.2125,11.14453c-2.11914,1.56719 -4.28789,3.06094 -6.46641,4.54727c0.83711,-1.84063 1.6625,-3.68633 2.4875,-5.53672c7.08945,-15.87266 14.27422,-31.70235 21.16406,-47.66289c0.02617,-0.06172 0.05469,-0.12617 0.08086,-0.18789c0.16172,-0.00234 0.32109,-0.00234 0.48281,-0.00469c0.00234,0 0.00234,0 0.00469,0c0.06875,0.01406 0.13789,0.03086 0.20703,0.04531c4.68281,1.0418 9.36797,2.09063 14.05313,3.12969c6.51406,1.44609 13.02813,2.91094 19.56133,4.28555c-3.34609,2.34766 -6.59258,4.84023 -9.80781,7.37539zm10.26211,-7.69141c-0.12148,-0.02852 -0.24023,-0.05703 -0.36133,-0.0832c-6.56641,-1.54844 -13.15664,-2.99883 -19.73945,-4.47109c-3.91719,-0.875 -7.83867,-1.74805 -11.75586,-2.6207c0,0 -0.00234,0.00234 -0.00469,0c-0.80859,-0.17852 -1.61953,-0.35898 -2.42813,-0.53984c-0.00469,-0.01445 -0.01172,-0.02852 -0.0168,-0.04297c-0.02852,-0.08086 -0.05703,-0.16172 -0.08789,-0.24023c-0.06406,-0.1832 -0.13086,-0.36641 -0.19727,-0.54688c-1.35547,-3.70039 -2.81328,-7.36563 -4.30234,-11.01602l0,-0.00234c-0.12148,-0.29492 -0.24023,-0.58984 -0.36367,-0.88477c0.00234,-0.00234 -0.00234,-0.00469 -0.00234,-0.00469c-0.02383,-0.05703 -0.04531,-0.11641 -0.06914,-0.17344c0.51133,-0.07148 1.02031,-0.14492 1.5293,-0.21875c0.00234,0 0.00469,0 0.00469,0c0.51602,-0.07383 1.025,-0.14766 1.53867,-0.21641c0.53047,-0.07148 1.06055,-0.14727 1.59102,-0.22344c0,0 0.00234,-0.00234 0.00469,0c3.01563,-0.43516 6.01445,-0.93477 9.03516,-1.33906c3.82656,-0.51133 7.66289,-0.99883 11.4918,-1.5293c0.22813,-0.02852 0.4543,-0.06172 0.68242,-0.09258c0.06875,0.02852 0.14023,0.05703 0.21172,0.08555c0.36172,0.66602 0.7207,1.32695 1.06797,1.98828c1.52188,2.89922 3.07969,5.78164 4.65664,8.65234c2.47109,4.49727 4.94453,9.02774 7.60313,13.43008c0.00234,0.00703 0.00703,0.01406 0.01172,0.02148c-0.0332,0.0207 -0.0668,0.04453 -0.1,0.06797z" stroke-width="5" stroke-miterlimit="10" stroke-dasharray=""></path></g></svg>