<svg data-v-9833e8b2="" version="1.1" xmlns="http://www.w3.org/2000/svg" xmlns:xlink="http://www.w3.org/1999/xlink" width="25" height="20"><g data-v-9833e8b2=""><path data-v-9833e8b2="" transform="scale(0.12437810945273632)" fill="none" stroke="currentColor" paint-order="fill stroke markers" d="m136.58192,79.49466l-71.35913,0c-3.63755,0 -7.13573,3.49838 -7.13573,7.13593l0,21.4076c0,3.63775 3.49838,7.13593 7.13573,7.13593l71.35893,0c3.63775,0 7.13593,-3.49838 7.13593,-7.13593l0,-21.4076c0.0002,-3.63755 -3.49818,-7.13593 -7.13573,-7.13593zm3.56787,28.54353c0,1.67271 -1.90234,3.56807 -3.56787,3.56807l-71.35913,0c-1.66552,0 -3.56787,-1.89535 -3.56787,-3.56807l0,-21.4076c0,-1.67251 1.90234,-3.56787 3.56787,-3.56787l71.35893,0c1.66552,0 3.56787,1.89535 3.56787,3.56787l0,21.4076l0.0002,0z" stroke-width="5" stroke-miterlimit="10" stroke-dasharray=""></path><path data-v-9833e8b2="" transform="scale(0.12437810945273632)" fill="none" stroke="currentColor" paint-order="fill stroke markers" d="m193.66898,1l-35.67946,0c-4.62018,0 -7.13573,2.68988 -7.13573,7.31005l0,21.23348l-21.408,0c-4.62717,0 -7.13573,2.51576 -7.13573,7.13593l-42.8154,0c0,-4.62017 -2.50857,-7.13593 -7.13573,-7.13593l-21.4076,0l0,-21.4076c0,-4.62018 -2.51596,-7.13593 -7.13593,-7.13593l-34.43906,0c-4.62038,0 -8.37634,3.76315 -8.37634,8.38333l0,84.3834c0,4.62717 2.51576,7.13573 7.13593,7.13573l35.67946,0l0,49.95133c0,4.62018 2.50857,7.13573 7.13593,7.13573l99.90226,0c4.62716,0 7.13573,-2.51576 7.13573,-7.13573l0,-49.95133l35.67966,0c4.62716,0 7.13573,-2.50857 7.13573,-7.13573l0,-85.63079c0,-4.62018 -2.50857,-7.13593 -7.13573,-7.13593zm-64.22319,35.67946l21.4078,0l0,21.4076l-21.4078,0l0,-21.4076zm-53.519,7.12895l49.88164,0l0,14.27885l-49.88164,0l0,-14.27885zm-3.56787,-7.12895l0,21.4076c0,0 -20.98248,-0.0627 -21.4076,0l0,-21.4076l21.4076,0zm-64.22299,57.26837l0,-85.8119l35.67946,0l0,85.8119l-35.67946,0zm132.01386,56.90595l-78.49486,0l0,-21.4078c0,-1.67251 1.90234,-3.56807 3.56787,-3.56807l71.35893,0c1.66552,0 3.56787,1.89555 3.56787,3.56807l0,21.4078l0.0002,0zm10.7038,0l-7.13573,0l0,-21.4078c0,-3.63756 -3.49838,-7.13573 -7.13593,-7.13573l-71.35913,0c-3.63755,0 -7.13573,3.49838 -7.13573,7.13573l0,21.4078l-7.13573,0l0,-85.63059l99.90226,0l0,85.63059zm42.8154,-56.90595l-35.67946,0l0,-85.8119l35.67966,0l0,85.8119l-0.0002,0z" stroke-width="5" stroke-miterlimit="10" stroke-dasharray=""></path><path data-v-9833e8b2="" transform="scale(0.12437810945273632)" fill="none" stroke="currentColor" paint-order="fill stroke markers" d="m100.90246,136.58192c-1.97223,0 -3.57486,1.62379 -3.57486,3.64474c0,2.02774 1.60262,3.49119 3.57486,3.49119c1.97203,0 3.56088,-1.46345 3.56088,-3.49119c0,-2.02095 -1.58885,-3.64474 -3.56088,-3.64474z" stroke-width="5" stroke-miterlimit="10" stroke-dasharray=""></path></g></svg>