<svg data-v-9833e8b2="" version="1.1" xmlns="http://www.w3.org/2000/svg" xmlns:xlink="http://www.w3.org/1999/xlink" width="25" height="17.5"><g data-v-9833e8b2=""><path data-v-9833e8b2="" transform="scale(0.1724137931034483)" fill="none" stroke="currentColor" paint-order="fill stroke markers" d="m127.22587,66.19039c-1.336,0 -2.615,0.3074 -3.611,0.8781c-0.955,0.548 -1.92,1.5221 -1.92,2.9044c0,1.3824 0.965,2.3564 1.92,2.9044c0.996,0.5707 2.275,0.8781 3.611,0.8781c1.335,0 2.615,-0.3074 3.61,-0.8781c0.955,-0.548 1.92,-1.522 1.92,-2.9044c0,-1.3823 -0.965,-2.3564 -1.92,-2.9044c-0.995,-0.5707 -2.275,-0.8781 -3.61,-0.8781zm-2.185,4.2011c-0.36,-0.2062 -0.452,-0.3651 -0.475,-0.4186c0.023,-0.0535 0.115,-0.2124 0.475,-0.4186c0.488,-0.2797 1.257,-0.4983 2.185,-0.4983c0.927,0 1.697,0.2186 2.184,0.4983c0.36,0.2062 0.452,0.3651 0.475,0.4186c-0.023,0.0535 -0.115,0.2124 -0.475,0.4186c-0.487,0.2798 -1.257,0.4984 -2.184,0.4984c-0.928,0 -1.697,-0.2186 -2.185,-0.4984z" stroke-width="5" stroke-miterlimit="10" stroke-dasharray=""></path><path data-v-9833e8b2="" transform="scale(0.1724137931034483)" fill="none" stroke="currentColor" paint-order="fill stroke markers" d="m98.28387,82.60989c-1.3355,0 -2.6149,0.307 -3.6102,0.878c-0.9556,0.548 -1.9202,1.522 -1.9202,2.904c0,1.383 0.9646,2.357 1.9202,2.905c0.9953,0.57 2.2747,0.878 3.6102,0.878c1.3355,0 2.615,-0.308 3.61,-0.878c0.956,-0.548 1.92,-1.522 1.92,-2.905c0,-1.382 -0.964,-2.356 -1.92,-2.904c-0.995,-0.571 -2.2745,-0.878 -3.61,-0.878zm-2.1847,4.201c-0.3596,-0.206 -0.4521,-0.365 -0.4745,-0.419c0.0224,-0.053 0.1149,-0.212 0.4745,-0.418c0.4878,-0.28 1.2572,-0.499 2.1847,-0.499c0.9276,0 1.697,0.219 2.1848,0.499c0.3595,0.206 0.452,0.365 0.4745,0.418c-0.0225,0.054 -0.115,0.213 -0.4745,0.419c-0.4878,0.28 -1.2572,0.498 -2.1848,0.498c-0.9275,0 -1.6969,-0.218 -2.1847,-0.498z" stroke-width="5" stroke-miterlimit="10" stroke-dasharray=""></path><path data-v-9833e8b2="" transform="scale(0.1724137931034483)" fill="none" stroke="currentColor" paint-order="fill stroke markers" d="m125.13187,64.19409c0.686,-0.3948 0.922,-1.2708 0.527,-1.9565c-0.395,-0.6858 -1.271,-0.9216 -1.956,-0.5268l-0.42,0.2416c0.048,-0.2814 0.081,-0.566 0.098,-0.8524c0.067,-0.6095 -0.031,-1.2263 -0.285,-1.7852c-0.262,-0.5761 -0.679,-1.0679 -1.204,-1.4205c-0.064,-0.043 -0.132,-0.0808 -0.202,-0.1129c-0.042,-0.0191 -0.084,-0.0374 -0.126,-0.0548l-5.474,-3.2293c-0.049,-0.0289 -0.099,-0.0549 -0.152,-0.0778c-0.556,-0.2446 -1.167,-0.3421 -1.772,-0.2832c-0.599,0.0582 -1.173,0.2677 -1.669,0.6086c-1.029,0.6819 -1.882,1.5978 -2.49,2.6727c-0.602,1.0665 -0.946,2.2595 -1.003,3.4827c-0.057,0.6022 0.045,1.209 0.296,1.76c0.257,0.5672 0.663,1.0544 1.175,1.4105c0.031,0.0216 0.062,0.0419 0.095,0.061l5.731,3.3526c0.181,0.1058 0.375,0.1675 0.571,0.1883c0.229,0.0784 0.467,0.1313 0.711,0.1566c0.817,0.0844 1.633,-0.1471 2.283,-0.6452l0.048,-0.0318l0.048,-0.0328c0.028,-0.0186 0.055,-0.0373 0.082,-0.0562c0.123,-0.0315 0.244,-0.0802 0.36,-0.1469l4.728,-2.7223zm-4.731,-3.827c0.035,0.0398 0.064,0.0847 0.086,0.1334c0.042,0.092 0.058,0.1938 0.045,0.294c-0.005,0.0344 -0.008,0.0689 -0.01,0.1036c-0.042,0.7858 -0.27,1.5504 -0.664,2.2313c-0.395,0.6809 -0.945,1.2587 -1.606,1.6862l0.149,0.231c-0.02,0.0414 -0.038,0.0838 -0.054,0.1269l-0.217,-0.2691c-0.071,0.0571 -0.162,0.0839 -0.252,0.0746c-0.087,-0.009 -0.167,-0.0508 -0.224,-0.1166c-0.031,-0.0416 -0.054,-0.089 -0.067,-0.1394c-0.014,-0.054 -0.017,-0.1103 -0.008,-0.1653c0.009,-0.0534 0.014,-0.1072 0.017,-0.1612c0.037,-0.7819 0.258,-1.544 0.645,-2.2246c0.387,-0.6806 0.928,-1.2606 1.581,-1.693l0.022,-0.0151l0.023,-0.0158c0.09,-0.0649 0.196,-0.1048 0.306,-0.1155c0.062,-0.006 0.124,-0.0029 0.184,0.0089l0.008,0.0052l0.014,0.0079l0.022,0.0126zm-2.909,-1.7155l-2.764,-1.6308c-0.091,-0.0307 -0.188,-0.0418 -0.285,-0.0324c-0.117,0.0113 -0.229,0.0526 -0.326,0.1198l-0.029,0.0196c-0.656,0.4327 -1.199,1.0152 -1.586,1.6993c-0.386,0.6841 -0.605,1.4503 -0.637,2.2354c-0.001,0.0326 -0.003,0.0651 -0.007,0.0975c-0.012,0.1074 0.006,0.2161 0.05,0.3146c0.04,0.0863 0.099,0.1619 0.172,0.2209l2.758,1.613c0.153,-0.8948 0.461,-1.7586 0.912,-2.5522c0.454,-0.8001 1.045,-1.512 1.742,-2.1047z" stroke-width="5" stroke-miterlimit="10" stroke-dasharray=""></path><path data-v-9833e8b2="" transform="scale(0.1724137931034483)" fill="none" stroke="currentColor" paint-order="fill stroke markers" d="m114.53887,68.65369c0.397,0.685 0.163,1.5614 -0.522,1.9577l-10.402,6.0175c-0.127,0.073 -0.261,0.125 -0.396,0.157c-0.411,0.222 -0.863,0.362 -1.331,0.407c-0.614,0.06 -1.2326,-0.044 -1.7934,-0.301c-0.0882,-0.04 -0.172,-0.089 -0.2502,-0.147c-0.0181,-0.013 -0.036,-0.026 -0.0538,-0.04c-0.0271,-0.021 -0.0539,-0.042 -0.0804,-0.063l-5.4163,-3.1686c-0.0109,-0.0064 -0.0217,-0.0129 -0.0324,-0.0195c-0.0213,-0.0133 -0.0423,-0.0271 -0.063,-0.0415c-0.5112,-0.356 -0.9171,-0.8433 -1.1749,-1.4104c-0.2521,-0.5548 -0.3535,-1.1659 -0.2943,-1.772c0.074,-1.2155 0.4237,-2.3985 1.0229,-3.459c0.6023,-1.066 1.4404,-1.9799 2.4502,-2.6719c0.4975,-0.3535 1.079,-0.5707 1.6867,-0.6298c0.614,-0.0597 1.2329,0.0441 1.7938,0.301c0.0434,0.0198 0.0857,0.0419 0.1269,0.066l5.7312,3.3526c0.265,0.1553 0.462,0.3828 0.581,0.6431c0.061,0.0646 0.12,0.132 0.177,0.2021c0.286,0.3446 0.495,0.7468 0.612,1.1794c0.11,0.4054 0.137,0.8286 0.079,1.244c-0.016,0.3267 -0.053,0.6512 -0.109,0.9717l5.701,-3.2981c0.685,-0.3962 1.561,-0.1622 1.957,0.5227zm-13.326,-0.6771c-0.7214,0.6017 -1.3305,1.3293 -1.7968,2.1499c-0.4413,0.7768 -0.7456,1.6211 -0.9022,2.4958l-2.7098,-1.5853c-0.0737,-0.059 -0.1327,-0.1346 -0.1719,-0.2209c-0.0448,-0.0984 -0.0622,-0.2071 -0.0504,-0.3146c0.0028,-0.025 0.0049,-0.0501 0.0063,-0.0752c0.0446,-0.7892 0.2701,-1.5577 0.6589,-2.2459c0.3888,-0.6883 0.9307,-1.2779 1.5836,-1.7235l0.0288,-0.0201c0.0903,-0.0649 0.1962,-0.1048 0.3069,-0.1155c0.0938,-0.0092 0.1881,0.0029 0.2762,0.0349l2.7704,1.6204zm0.204,6.344c-0.04,-0.0475 -0.073,-0.1004 -0.099,-0.1573c-0.049,-0.1074 -0.069,-0.2256 -0.059,-0.3432c0.001,-0.0178 0.003,-0.0356 0.004,-0.0535c0.037,-0.7819 0.258,-1.5439 0.645,-2.2245c0.386,-0.6806 0.928,-1.2606 1.58,-1.693c0.034,-0.0223 0.067,-0.046 0.098,-0.071c0.072,-0.0566 0.163,-0.0825 0.253,-0.0721c0.09,0.0104 0.173,0.0563 0.23,0.1275l0.016,0.0196l0.009,0.0107c0.024,0.0287 0.041,0.0624 0.051,0.0986c0.01,0.0363 0.012,0.0742 0.005,0.1112c-0.01,0.0618 -0.017,0.1242 -0.019,0.1868c-0.031,0.7824 -0.245,1.5468 -0.624,2.2318c-0.379,0.685 -0.914,1.2717 -1.56,1.7131l0.048,0.0706l-0.026,0.021l-0.051,-0.0716c-0.09,0.065 -0.196,0.1048 -0.307,0.1156c-0.057,0.0056 -0.114,0.0033 -0.17,-0.0066l-0.024,-0.0137z" stroke-width="5" stroke-miterlimit="10" stroke-dasharray=""></path><path data-v-9833e8b2="" transform="scale(0.1724137931034483)" fill="none" stroke="currentColor" paint-order="fill stroke markers" d="m68.13827,20.87849c0.4434,-0.2563 0.9899,-0.2564 1.4334,-0.0003l25.1591,14.5281c0.4432,0.2559 0.7162,0.7288 0.7163,1.2405c0.0001,0.5118 -0.2728,0.9847 -0.7159,1.2408l-5.7108,3.3004c-0.104,0.0808 -0.2178,0.1463 -0.338,0.1953l-11.6027,6.7055c-0.4434,0.2562 -0.9899,0.2563 -1.4334,0.0002l-25.1591,-14.5281c-0.4432,-0.2559 -0.7162,-0.7287 -0.7163,-1.2405c-0.0001,-0.5117 0.2728,-0.9847 0.7159,-1.2407l5.7117,-3.301c0.1034,-0.0803 0.2167,-0.1454 0.3362,-0.1943l11.6036,-6.7059zm17.1244,19.1715l-3.0129,1.7412l-9.7161,-5.6105l3.0171,-1.7388l9.7119,5.6081zm2.8639,-1.6551l-9.7078,-5.6058l3.0277,-1.7448l9.7036,5.6033l-3.0235,1.7473zm-12.5744,-7.2611l3.0277,-1.7448l-9.7244,-5.6154l-3.0234,1.7473l9.7201,5.6129zm-12.5841,-3.9577l-3.0129,1.7412l9.7119,5.6081l3.0171,-1.7388l-9.7161,-5.6105zm-8.9002,5.1436l3.0234,-1.7473l9.7078,5.6058l-3.0275,1.7448l-9.7037,-5.6033zm12.5702,7.2586l3.0276,-1.7448l9.7201,5.6129l-3.0233,1.7472l-9.7244,-5.6153z" stroke-width="5" stroke-miterlimit="10" stroke-dasharray=""></path><path data-v-9833e8b2="" transform="scale(0.1724137931034483)" fill="none" stroke="currentColor" paint-order="fill stroke markers" d="m69.57137,14.40199c-0.4433,-0.2559 -0.9893,-0.2558 -1.4326,0.0001l-28.8843,16.6773c-0.4433,0.2559 -0.7164,0.7289 -0.7163,1.2409c0,0.5119 0.2732,0.9848 0.7165,1.2407l36.3919,21.0042c0.4433,0.2558 0.9894,0.2558 1.4326,-0.0001l28.8847,-16.6773c0.443,-0.2559 0.716,-0.729 0.716,-1.2409c0,-0.5119 -0.273,-0.9849 -0.717,-1.2407l-36.3915,-21.0042zm-26.7347,17.9179l26.0187,-15.0227l33.5255,19.3501l-26.0182,15.0226l-33.526,-19.35z" stroke-width="5" stroke-miterlimit="10" stroke-dasharray=""></path><path data-v-9833e8b2="" transform="scale(0.1724137931034483)" fill="none" stroke="currentColor" paint-order="fill stroke markers" d="m16.14227,27.35889c0.0888,-0.09 0.1903,-0.1688 0.3027,-0.2338l44.9024,-25.9328c0.5626,-0.3249 1.254,-0.2249 1.7025,0.2006l4.9436,2.8525l0.7157,-0.4154c0.6844,-0.3971 1.5612,-0.1643 1.9584,0.5201c0.2672,0.4606 0.2492,1.0083 0.0002,1.4384l51.1161,29.4945l0.625,-0.3623c0.685,-0.397 1.561,-0.1639 1.958,0.5206c0.251,0.4321 0.25,0.9409 0.044,1.3572l4.39,2.5334c0.117,0.0673 0.222,0.1496 0.313,0.2438c0.267,0.2602 0.433,0.6236 0.433,1.0258l0,19.4009l14.009,8.0402c0.444,0.2551 0.719,0.7282 0.719,1.2407c0.001,0.5125 -0.272,0.9864 -0.716,1.2427l-44.9023,25.9329c-0.4418,0.255 -0.986,0.256 -1.4287,0.002l-14.7362,-8.441c-0.0177,-0.009 -0.0351,-0.019 -0.0524,-0.03l-4.6139,-2.667c-0.2594,0.255 -0.6155,0.411 -1.008,0.41c-0.7913,-0.002 -1.431,-0.645 -1.4289,-1.436l0.0011,-0.383l-51.276,-29.6435c-0.2554,0.2321 -0.5948,0.3731 -0.967,0.3721c-0.7913,-0.0022 -1.4311,-0.6453 -1.4289,-1.4366l0.0008,-0.3201l-5.2741,-3.0491c-0.0768,-0.0444 -0.1484,-0.0953 -0.2145,-0.1518l-14.5103,-8.3279c-0.44477,-0.2553 -0.7192,-0.7288 -0.71957,-1.2416c-0.00037,-0.5128 0.27338,-0.9868 0.71778,-1.2427l10.20119,-5.8742c0.6857,-0.3949 1.5617,-0.1591 1.9566,0.5266c0.3949,0.6857 0.1591,1.5617 -0.5266,1.9566l-8.04149,4.6306l10.42129,5.9811l0,-17.4118c-0.098,-0.4789 0.0564,-0.9817 0.4135,-1.3227zm111.2796,34.7281c-0.233,-0.1286 -0.426,-0.3203 -0.557,-0.5519c-0.125,-0.2224 -0.189,-0.4753 -0.184,-0.7308l0,-17.7667l-42.0654,24.2789l0,16.9634l12.0049,-6.95c0.6848,-0.397 1.5614,-0.163 1.9578,0.522c0.3965,0.685 0.1628,1.561 -0.522,1.958l-12.0025,6.948l11.8834,6.807l42.0338,-24.2757l-12.549,-7.2022zm-108.8276,-32.882l0,18.5647l3.1331,1.8113l0.0453,-16.8629l-1.5716,-0.9037c-0.686,-0.3945 -0.9223,-1.2703 -0.5279,-1.9563c0.3945,-0.686 1.2703,-0.9223 1.9563,-0.5279l1.5749,0.9056l41.9304,-24.3316l-3.0991,-1.7882l-43.4414,25.089zm5.9942,22.0301l50.8099,29.3748l0.0452,-16.8042l-48.9135,-28.3258c-0.6848,-0.3965 -0.9184,-1.2731 -0.5219,-1.9578c0.3966,-0.6848 1.2731,-0.9184 1.9579,-0.5219l48.9121,28.325l42.0467,-24.3839l-50.9274,-29.3853l-43.3592,25.1608l-0.0498,18.5183zm53.671,31.0288l3.4905,2.018l0,-16.926l-1.6245,-0.9225c-0.6881,-0.3907 -0.9291,-1.2653 -0.5383,-1.9534c0.3907,-0.6881 1.2653,-0.9291 1.9534,-0.5383l1.6078,0.913l42.0705,-24.2817l-3.431,-1.9796l-43.4788,25.2145l-0.0496,18.456z" stroke-width="5" stroke-miterlimit="10" stroke-dasharray=""></path></g></svg>