<svg data-v-9833e8b2="" version="1.1" xmlns="http://www.w3.org/2000/svg" xmlns:xlink="http://www.w3.org/1999/xlink" width="27" height="25"><g data-v-9833e8b2=""><path data-v-9833e8b2="" transform="scale(0.13297872340425532)" fill="none" stroke="currentColor" paint-order="fill stroke markers" d="m91.52654,56.78961l0,-0.52632s0,-0.52632 -0.52632,-0.52632l-0.52632,-0.52632l-0.52632,-0.52632l-0.52632,0c-0.52632,0 -0.52632,-0.52632 -1.05264,-0.52632l-0.52632,0l-0.52632,0l-15.2632,2.10527l5.26317,-30.00008l0,-1.57895l0,-0.52632s0,-0.52632 -0.52632,-0.52632c0,-0.52632 -0.52632,-0.52632 -1.05263,-1.05263c-0.52632,0 -1.05264,-0.52632 -1.57895,-0.52632l-0.52632,0l-0.52632,0c-0.52632,0 -0.52632,0 -1.05263,0.52632l-0.52632,0c-0.52632,0 -0.52632,0.52632 -1.05263,1.05263l-33.6843,51.57908l0,0.52632s0,0.52632 -0.52632,0.52632l0,2.10527s0,0.52632 0.52632,0.52632c0,0 0,0.52632 0.52632,0.52632l0.52632,0.52632l2.63158,0l15.2632,-2.10527l-5.26317,30.52639l0,2.10527s0,0.52632 0.52632,0.52632c0,0.52632 0.52632,0.52632 1.05263,1.05263c0.52632,0 1.05263,0.52632 1.05263,0.52632l0.52632,0c0.52632,0 1.05264,0 1.57895,-0.52632l0.52632,0c0.52632,0 0.52632,-0.52632 1.05263,-1.05263l33.6843,-52.10539l0,-0.52632s0,-0.52632 0.52632,-0.52632l0,-1.05264l0.52632,0zm-27.89481,16.84215l0,-0.52632l0,-0.52632s0,-0.52632 -0.52632,-0.52632l-0.52632,-0.52632l-0.52632,-0.52632l-0.52632,0c-0.52632,0 -0.52632,-0.52632 -1.05263,-0.52632l-0.52632,0l-0.52632,0l-12.10529,1.57895l20.00005,-30.52639l-3.1579,17.36846l0,1.57895s0,0.52632 0.52632,0.52632c0,0 0,0.52632 0.52632,0.52632l0.52632,0.52632s0.52632,0 0.52632,0.52632c0,0 0.52632,0 0.52632,0.52632l1.57895,0l12.10529,-1.57895l-19.47373,30.00008l3.1579,-17.36847c-0.52632,0 -0.52632,0 -0.52632,-0.52632z" stroke-width="5" stroke-miterlimit="10" stroke-dasharray=""></path><path data-v-9833e8b2="" transform="scale(0.13297872340425532)" fill="none" stroke="currentColor" paint-order="fill stroke markers" d="m179.4215,60.47383l-0.52632,-16.31583l0,-0.52632l0,-0.52632l-20.52637,-36.31588l-0.52632,-0.52632l-0.52632,-0.52632s-0.52632,0 -0.52632,-0.52632c0,0 -0.52632,0 -0.52632,-0.52632l-0.52632,0l-0.52632,0l-0.52632,0l-0.52632,0l-13.15793,5.26317s-0.52632,0 -0.52632,0.52632c0,0 -0.52632,0 -0.52632,0.52632l-0.52632,0.52632l-0.52632,0.52632l0,2.10527l11.57898,30.00008l0,15.2632l-8.42107,0c-2.10527,0 -3.68422,1.57895 -3.68422,3.68422l0,13.68424l-6.3158,7.89476l0,0.52632l-0.52632,0.52632l0,30.00008c0,2.10527 1.57895,3.68422 3.68422,3.68422l7.36844,0c2.10527,0 3.68422,-1.57895 3.68422,-3.68422s-1.57895,-3.68422 -3.68422,-3.68422l-3.1579,0l0,-24.21059l4.21054,-5.26317l9.47371,6.3158l0,26.84217c0,2.10527 1.57895,3.68422 3.68422,3.68422l8.42107,0l0,53.68435c0,3.1579 -2.63158,5.26317 -5.26317,5.26317l-5.78949,0c-3.1579,0 -5.26317,-2.63158 -5.26317,-5.26317l0,-30.00008c0,-6.84212 -5.78949,-12.63161 -12.63161,-12.63161l-16.31583,0l0,-101.05289c0,-15.78951 -12.63161,-28.42112 -28.42112,-28.42112l-53.15803,0c-15.78951,0 -28.42112,12.63161 -28.42112,28.42112l0,125.26347l-5.26317,0c-2.10527,0 -3.68422,1.57895 -3.68422,3.68422l0,25.26322c0,2.10527 1.57895,3.68422 3.68422,3.68422l120.52662,0c2.10527,0 3.68422,-1.57895 3.68422,-3.68422l0,-25.26322c0,-2.10527 -1.57895,-3.68422 -3.68422,-3.68422l-5.26317,0l0,-15.2632l16.31583,0c3.1579,0 5.26317,2.63158 5.26317,5.26317l0,30.00008c0,6.84212 5.78949,12.63161 12.63161,12.63161l5.78949,0c6.84212,0 12.63161,-5.78949 12.63161,-12.63161l0,-54.73698c5.26317,-1.57895 9.47371,-5.78949 10.52634,-11.57898l0,-44.73695c0,-1.57895 -1.57895,-3.1579 -3.68422,-3.1579zm-109.47396,101.5792l51.57908,0l0,17.89478l-113.15818,0l0,-17.89478l61.5791,0zm0,-7.36844l-52.63171,0l0,-125.26347c0,-11.57898 9.47371,-21.05269 21.05268,-21.05268l53.15803,0c11.57898,0 21.05269,9.47371 21.05269,21.05268l0,125.26347l-42.63169,0zm88.42128,-111.05291l0,-0.52632l-10.52634,-27.36849l5.78949,-2.63158l18.4211,32.63166l0,15.2632l-13.15793,0l0,-16.84215c-0.52632,0 -0.52632,-0.52632 -0.52632,-0.52632zm10.52634,69.47386l-8.42107,0l0,-25.26322l0,-0.52632l0,-0.52632s0,-0.52632 -0.52632,-0.52632c0,0 0,-0.52632 -0.52632,-0.52632l-0.52632,-0.52632l-0.52632,0l-12.10529,-7.89476l0,-9.47371l29.47376,0l0,38.42115c0,3.68422 -3.1579,6.84212 -6.84212,6.84212z" stroke-width="5" stroke-miterlimit="10" stroke-dasharray=""></path></g></svg>