<svg data-v-9833e8b2="" version="1.1" xmlns="http://www.w3.org/2000/svg" xmlns:xlink="http://www.w3.org/1999/xlink" width="25" height="20"><g data-v-9833e8b2=""><path data-v-9833e8b2="" transform="scale(0.1358695652173913)" fill="none" stroke="currentColor" paint-order="fill stroke markers" d="m16.05,142.56l24.67,-67.56l0,-71c0,-1.66 1.34,-3 3,-3l34.67,0c1.66,0 3,1.34 3,3l0,71l24.67,67.56m-65.34,-133.17l-37.63,28.58l0,12.77m116.14,0l0,-12.77l-37.63,-28.58m-78.51,28.58l116.14,0m-78.51,8.31l-37.63,28.58l0,12.77m116.14,0l0,-12.77l-37.63,-28.58m-78.51,28.58l116.14,0m-78.51,-73.86l41.61,37.57m-41.25,-0.83l40.31,-36.73m-40.67,37.78l41.61,37.57m-0.94,-37.57l-40.31,36.73m0,0l57.79,47.36m-18.19,-47.36l-57.79,47.36" stroke-width="5" stroke-miterlimit="10" stroke-dasharray=""></path><path data-v-9833e8b2="" transform="scale(0.1358695652173913)" fill="none" stroke="currentColor" paint-order="fill stroke markers" d="m1,142.56l182.71,0" stroke-width="5" stroke-miterlimit="10" stroke-dasharray=""></path><path data-v-9833e8b2="" transform="scale(0.1358695652173913)" fill="none" stroke="currentColor" paint-order="fill stroke markers" d="m182.61,102.4l0,-11.36l-37.25,-27.99l-37.25,28.32l0,11.03l37.25,-27.66l37.25,27.66z" stroke-width="5" stroke-miterlimit="10" stroke-dasharray=""></path><path data-v-9833e8b2="" transform="scale(0.1358695652173913)" fill="none" stroke="currentColor" paint-order="fill stroke markers" d="m174.42,102.31l0,34.33l-7.33,0l-42.09,0l-7.44,0l0,-34.24l27.8,-20.58l29.06,20.49z" stroke-width="5" stroke-miterlimit="10" stroke-dasharray=""></path><path data-v-9833e8b2="" transform="scale(0.1358695652173913)" fill="none" stroke="currentColor" paint-order="fill stroke markers" d="m156.79,109.46l-17.87,17.55c0,0 -0.06,0.06 -0.13,0.15c-0.03,0.03 -1.11,1.15 -2.31,1.25c-0.15,0 -0.29,-0.03 -0.43,-0.09c-0.02,-0.01 -0.05,-0.03 -0.07,-0.04c-0.04,-0.02 -0.07,-0.04 -0.11,-0.06c0,0 0,0 -0.01,0c-0.02,-0.01 -0.02,-0.02 -0.04,-0.03c-0.04,-0.03 -0.09,-0.07 -0.12,-0.1l-0.03,-0.04c-0.18,-0.2 -0.28,-0.45 -0.28,-0.7l0,-0.01c-0.02,-0.31 0.04,-0.64 0.12,-0.93l0,-0.03l0.04,-0.11c0.11,-0.35 0.24,-0.6 0.24,-0.6l3.8,-9.5l-7.17,0c-1.72,-0.33 -1.2,-2.3 -1.2,-2.3l0.43,-0.46l14.71,-15.87l1.62,-1.65c0.32,-0.14 0.55,-0.12 0.65,-0.11c0.48,0.12 0.83,0.53 0.83,1.03c0,0.06 -0.05,0.2 -0.11,0.34l-0.43,1.41l-1.58,7.7l-0.17,0.84l7.9,0.66c0.01,-0.01 0.02,-0.01 0.02,-0.02c0.46,0.03 1.06,0.06 1.25,0.08c0.39,0.17 0.67,0.53 0.67,0.96c0,0.24 -0.09,0.47 -0.23,0.65c0,0.02 0.01,0.03 0.01,0.03l0,0z" stroke-width="5" stroke-miterlimit="10" stroke-dasharray=""></path></g></svg>