<svg data-v-9833e8b2="" version="1.1" xmlns="http://www.w3.org/2000/svg" xmlns:xlink="http://www.w3.org/1999/xlink" width="24.5" height="25"><g data-v-9833e8b2=""><path data-v-9833e8b2="" transform="scale(0.12755102040816327)" fill="none" stroke="currentColor" paint-order="fill stroke markers" d="m147.62,26.15c-16.22,-16.22 -37.79,-25.15 -60.73,-25.15s-44.51,8.93 -60.73,25.15c-16.22,16.23 -25.16,37.8 -25.16,60.74c0,36.21 22.76,68.57 56.75,80.82c1.23,1.23 26.19,26.19 26.19,26.19c0.8,0.8 1.85,1.2 2.89,1.2c1.04,0 2.1,-0.4 2.9,-1.2c0,0 24.92,-24.92 26.15,-26.15c34.07,-12.2 56.89,-44.58 56.89,-80.86c0.01,-22.94 -8.93,-44.51 -25.15,-60.74z" stroke-width="5" stroke-miterlimit="10" stroke-dasharray=""></path></g></svg>