<svg data-v-9833e8b2="" version="1.1" xmlns="http://www.w3.org/2000/svg" xmlns:xlink="http://www.w3.org/1999/xlink" width="19.5" height="25"><g data-v-9833e8b2=""><path data-v-9833e8b2="" transform="scale(0.08710801393728224)" fill="none" stroke="currentColor" paint-order="fill stroke markers" d="m37.1001,21.56961l3.04393,0.45706l4.70437,4.54784l-3.76986,-0.52854l-3.97844,-4.47636l0,0zm-5.71811,7.56908l7.58374,1.25095l9.31462,9.34425l-8.47966,-0.6466l-8.41871,-9.9486l0,0zm-20.14138,-3.38299l8.98957,1.74808l7.68126,10.71867l-10.68794,-0.77332l-5.98289,-11.69344l0,0z" stroke-width="5" stroke-miterlimit="10" stroke-dasharray=""></path><path data-v-9833e8b2="" transform="scale(0.08710801393728224)" fill="none" stroke="currentColor" paint-order="fill stroke markers" d="m12.63899,25.75571l7.25125,12.23281l-2.90307,-0.44839l-5.74655,-11.98912l1.39838,0.2047l0,0z" stroke-width="5" stroke-miterlimit="10" stroke-dasharray=""></path><path data-v-9833e8b2="" transform="scale(0.08710801393728224)" fill="none" stroke="currentColor" paint-order="fill stroke markers" d="m14.18432,16.02426l7.43544,1.65007l3.58432,5.71052l-8.81486,-1.54663l-2.2049,-5.81396l0,0z" stroke-width="5" stroke-miterlimit="10" stroke-dasharray=""></path><path data-v-9833e8b2="" transform="scale(0.08710801393728224)" fill="none" stroke="currentColor" paint-order="fill stroke markers" d="m15.39376,16.66707l3.75564,5.18686l-2.1338,-0.69804l-2.83129,-4.48881l1.20944,0l0,0z" stroke-width="5" stroke-miterlimit="10" stroke-dasharray=""></path><path data-v-9833e8b2="" transform="scale(0.08710801393728224)" fill="none" stroke="currentColor" paint-order="fill stroke markers" d="m64.19342,43.22682q-0.06772,0 -0.13544,-0.00487l-47.83061,-3.57036a1.42208,1.13723 0 0 1 -1.17152,-0.67855l-13.93773,-25.60069a1.42208,1.13723 0 0 1 1.67805,-1.55096l38.32232,8.35377a1.42208,1.13723 0 0 1 0.6826,0.3363l23.44873,20.81674a1.42208,1.13723 0 0 1 -1.0564,1.89863l0,0zm-46.86495,-5.77767l43.37002,3.23732l-20.7312,-18.40472l-35.05763,-7.64273l12.41881,22.81014z" stroke-width="5" stroke-miterlimit="10" stroke-dasharray=""></path><path data-v-9833e8b2="" transform="scale(0.08710801393728224)" fill="none" stroke="currentColor" paint-order="fill stroke markers" d="m39.43773,30.48929a0.71104,0.56862 0 0 1 -0.13544,-0.01029l-10.45364,-1.62461a0.71104,0.56862 0 0 1 -0.46048,-0.24803l-3.77528,-4.64423a0.71104,0.56862 0 0 1 0.7537,-0.86646l10.23694,1.86018a0.71104,0.56862 0 0 1 0.4185,0.22095l3.99536,4.41245a0.71104,0.56862 0 0 1 -0.5756,0.9022l-0.00406,-0.00217zm-10.02227,-2.70769l8.39094,1.30457l-2.77983,-3.07215l-8.26702,-1.49735l2.6559,3.26493l0,0zm-12.19128,-5.18577a0.71104,0.56862 0 0 1 -0.61962,-0.28864l-4.35562,-6.15404a0.71104,0.56862 0 0 1 1.23788,-0.55995l4.35562,6.15404a0.71104,0.56862 0 0 1 -0.61827,0.84859l0,0z" stroke-width="5" stroke-miterlimit="10" stroke-dasharray=""></path><path data-v-9833e8b2="" transform="scale(0.08710801393728224)" fill="none" stroke="currentColor" paint-order="fill stroke markers" d="m25.98418,23.95347a0.71036,0.56807 0 0 1 -0.59727,-0.25886l-4.40167,-5.42188a0.71104,0.56862 0 0 1 1.19048,-0.6179l4.40167,5.42188a0.71104,0.56862 0 0 1 -0.59592,0.87837l0.00271,-0.00162l0,0zm8.08215,1.42858a0.71036,0.56807 0 0 1 -0.57289,-0.23124l-4.7125,-5.10887a0.71104,0.56862 0 0 1 1.14444,-0.6753l4.7125,5.11158a0.71104,0.56862 0 0 1 -0.57154,0.90599l0,-0.00217l0,0zm7.45576,1.6674a0.70969,0.56753 0 0 1 -0.5519,-0.20958l-5.42286,-5.32495a0.71104,0.56862 0 1 1 1.10245,-0.71916l5.42286,5.32495a0.71104,0.56862 0 0 1 -0.55122,0.92766l0.00068,0.00108l0,0z" stroke-width="5" stroke-miterlimit="10" stroke-dasharray=""></path><path data-v-9833e8b2="" transform="scale(0.08710801393728224)" fill="none" stroke="currentColor" paint-order="fill stroke markers" d="m47.13389,28.23108a0.71239,0.5697 0 0 1 -0.1632,-0.01516l-39.92791,-7.49327a0.71104,0.56862 0 0 1 0.32234,-1.1069l39.93062,7.49327a0.71104,0.56862 0 0 1 -0.16185,1.12207l0,0l0,0zm4.35562,4.40812a0.71443,0.57132 0 0 1 -0.14424,-0.01191l-41.59784,-6.84938a0.71104,0.56862 0 0 1 0.28712,-1.11394l41.59784,6.84938a0.71104,0.56862 0 0 1 -0.14288,1.12586z" stroke-width="5" stroke-miterlimit="10" stroke-dasharray=""></path><path data-v-9833e8b2="" transform="scale(0.08710801393728224)" fill="none" stroke="currentColor" paint-order="fill stroke markers" d="m28.69629,39.1994a0.71036,0.56807 0 0 1 -0.61894,-0.28756l-8.31036,-11.68261a0.71104,0.56862 0 1 1 1.23585,-0.56212l8.309,11.68261a0.71104,0.56862 0 0 1 -0.61556,0.84967l0,0l0,0zm11.10576,1.10311a0.71036,0.56807 0 0 1 -0.59118,-0.25181l-9.20356,-10.96453a0.71104,0.56862 0 1 1 1.181,-0.6336l9.20288,10.96399a0.71104,0.56862 0 0 1 -0.58915,0.88596l0,0zm9.29159,0.58053a0.70969,0.56753 0 0 1 -0.56138,-0.21932l-9.65592,-9.92532a0.71104,0.56862 0 1 1 1.12209,-0.69804l9.65592,9.92586a0.71104,0.56862 0 0 1 -0.56071,0.91791l0,-0.00108l0,0zm7.84107,0.75436a0.70969,0.56753 0 0 1 -0.54648,-0.2047l-10.13807,-9.72765a0.71104,0.56862 0 0 1 1.09229,-0.72837l10.13739,9.7282a0.71104,0.56862 0 0 1 -0.54513,0.93253l0,0z" stroke-width="5" stroke-miterlimit="10" stroke-dasharray=""></path><path data-v-9833e8b2="" transform="scale(0.08710801393728224)" fill="none" stroke="currentColor" paint-order="fill stroke markers" d="m56.05439,54.90943l-38.83088,0a1.42208,1.13723 0 0 1 -1.14714,-1.80928l12.35313,-13.48431a1.42208,1.13723 0 0 1 2.29429,1.3441l-10.69539,11.67503l32.70782,0l-13.74676,-11.56618a1.42208,1.13723 0 1 1 2.06134,-1.56721l16.03022,13.48431a1.42208,1.13723 0 0 1 -1.02661,1.92355l0,0z" stroke-width="5" stroke-miterlimit="10" stroke-dasharray=""></path><path data-v-9833e8b2="" transform="scale(0.08710801393728224)" fill="none" stroke="currentColor" paint-order="fill stroke markers" d="m27.16857,50.70763a0.71104,0.56862 0 0 1 -0.56883,-0.90924l6.13864,-6.55965a0.71104,0.56862 0 1 1 1.13834,0.68071l-6.13864,6.5602a0.70969,0.56753 0 0 1 -0.56951,0.22799l0,0zm-15.97807,-5.00381a1.55345,1.24229 0 0 1 -0.3176,-0.02654c-0.90674,-0.15055 -1.37197,-0.8957 -1.64284,-1.4432c-1.17694,-2.37573 -1.04286,-5.33253 0.38735,-8.55143c1.0652,-2.39793 2.45546,-4.08591 2.51437,-4.15631a0.71104,0.56862 0 0 1 1.18507,0.62873a25.07667,20.05371 0 0 0 -2.37013,3.93265c-0.90878,2.05405 -1.71462,5.06176 -0.39412,7.72721c0.34536,0.69696 0.5993,0.74678 0.60946,0.7484c0.29051,0.04874 1.09839,-0.59569 1.58122,-0.98072c1.01577,-0.81231 2.28142,-1.82011 3.83217,-1.74267c0.97582,0.04874 1.87037,0.50309 2.73445,1.38959c0.11512,0.11751 0.46387,0.47601 1.64216,0.26535c1.02119,-0.1825 2.35727,-0.75815 3.57416,-1.54393c1.29206,-0.83289 1.88121,-1.52335 1.94893,-1.76271a0.71104,0.56862 0 1 1 1.38687,0.25073c-0.26342,0.93524 -1.93674,2.07247 -2.44327,2.39739c-1.39905,0.90166 -2.91188,1.54609 -4.15586,1.76812c-1.69972,0.3038 -2.60985,-0.19983 -3.07372,-0.67584c-0.5905,-0.60598 -1.1634,-0.92657 -1.70175,-0.95365c-0.91081,-0.04549 -1.88188,0.72945 -2.73987,1.41287c-0.8458,0.6753 -1.64961,1.3154 -2.55704,1.31594l0,0zm23.45211,-32.54375a0.71104,0.56862 0 0 1 -0.49028,-0.98019l10.62022,-8.08896a0.71104,0.56862 0 0 1 0.98056,0.82368l-10.62022,8.08788a0.70901,0.56699 0 0 1 -0.49028,0.15759l0,0zm8.7485,0a0.71104,0.56862 0 0 1 -0.49028,-0.98019l14.50791,-11.04738a0.71104,0.56862 0 0 1 0.97717,0.82314l-14.50521,11.04738a0.70901,0.56699 0 0 1 -0.4896,0.15705l0,0zm7.68329,10.39158a0.71104,0.56862 0 0 1 -0.49028,-0.98019l12.13033,-9.2381a0.71104,0.56862 0 0 1 0.98056,0.82368l-12.13033,9.2381a0.70901,0.56699 0 0 1 -0.49028,0.15651l0,0z" stroke-width="5" stroke-miterlimit="10" stroke-dasharray=""></path><path data-v-9833e8b2="" transform="scale(0.08710801393728224)" fill="none" stroke="currentColor" paint-order="fill stroke markers" d="m190.72365,77.93392l0,-11.493" stroke-width="5" stroke-miterlimit="10" stroke-dasharray=""></path><path data-v-9833e8b2="" transform="scale(0.08710801393728224)" fill="none" stroke="currentColor" paint-order="fill stroke markers" d="m190.72367,81.21992a1.174,1.174 0 0 1 -0.92,-0.41l-8.409,-8.754a1.36,1.36 0 0 1 0,-1.916a1.236,1.236 0 0 1 1.839,0l7.49,7.8l7.49,-7.8a1.237,1.237 0 0 1 1.84,0a1.362,1.362 0 0 1 0,1.916l-8.41,8.754a1.394,1.394 0 0 1 -0.92,0.41z" stroke-width="5" stroke-miterlimit="10" stroke-dasharray=""></path><path data-v-9833e8b2="" transform="scale(0.08710801393728224)" fill="none" stroke="currentColor" paint-order="fill stroke markers" d="m190.72367,88.93692a1.172,1.172 0 0 1 -0.92,-0.411l-8.409,-8.754a1.36,1.36 0 0 1 0,-1.916a1.237,1.237 0 0 1 1.839,0l7.49,7.8l7.49,-7.8a1.238,1.238 0 0 1 1.84,0a1.362,1.362 0 0 1 0,1.916l-8.41,8.754a1.391,1.391 0 0 1 -0.92,0.411z" stroke-width="5" stroke-miterlimit="10" stroke-dasharray=""></path><path data-v-9833e8b2="" transform="scale(0.08710801393728224)" fill="none" stroke="currentColor" paint-order="fill stroke markers" d="m190.72365,104.18386l0,-15.493" stroke-width="5" stroke-miterlimit="10" stroke-dasharray=""></path><path data-v-9833e8b2="" transform="scale(0.08710801393728224)" fill="none" stroke="currentColor" paint-order="fill stroke markers" d="m190.72365,28.24994l0,11.493" stroke-width="5" stroke-miterlimit="10" stroke-dasharray=""></path><path data-v-9833e8b2="" transform="scale(0.08710801393728224)" fill="none" stroke="currentColor" paint-order="fill stroke markers" d="m190.72367,24.96792a1.174,1.174 0 0 0 -0.92,0.41l-8.409,8.755a1.359,1.359 0 0 0 0,1.915a1.236,1.236 0 0 0 1.839,0l7.49,-7.8l7.49,7.8a1.237,1.237 0 0 0 1.84,0a1.361,1.361 0 0 0 0,-1.915l-8.41,-8.755a1.394,1.394 0 0 0 -0.92,-0.41z" stroke-width="5" stroke-miterlimit="10" stroke-dasharray=""></path><path data-v-9833e8b2="" transform="scale(0.08710801393728224)" fill="none" stroke="currentColor" paint-order="fill stroke markers" d="m190.72367,17.24792a1.174,1.174 0 0 0 -0.92,0.41l-8.409,8.755a1.359,1.359 0 0 0 0,1.915a1.234,1.234 0 0 0 1.839,0l7.49,-7.8l7.49,7.8a1.235,1.235 0 0 0 1.84,0a1.361,1.361 0 0 0 0,-1.915l-8.41,-8.755a1.394,1.394 0 0 0 -0.92,-0.41z" stroke-width="5" stroke-miterlimit="10" stroke-dasharray=""></path><path data-v-9833e8b2="" transform="scale(0.08710801393728224)" fill="none" stroke="currentColor" paint-order="fill stroke markers" d="m190.72365,1.99994l0,15.493" stroke-width="5" stroke-miterlimit="10" stroke-dasharray=""></path><path data-v-9833e8b2="" transform="scale(0.08710801393728224)" fill="none" stroke="currentColor" paint-order="fill stroke markers" d="m101.68393,225.74574c2.21037,2.83237 5.75491,2.7668 7.90554,-0.15736c2.15062,-2.91104 2.10084,-7.5792 -0.11948,-10.41157c-4.99821,-6.38593 -5.37656,-11.38192 -1.5831,-17.80719c7.17871,-12.15557 7.17871,-25.17658 -0.09956,-36.80764c-1.95149,-2.98972 -5.34669,-3.42244 -7.69645,-0.98346c-2.42941,2.51766 -2.84759,7.14648 -0.93592,10.33289l0,0.01311c3.90299,6.2417 3.90299,11.63106 -0.09956,18.41037c-7.36788,12.50962 -6.35231,25.92402 2.62854,37.41083l0,0.00001zm41.16058,9.44122l-78.25886,0c-3.08654,0 -5.58565,3.29132 -5.58565,7.35628l0,36.80764c0,4.06497 2.49911,7.35628 5.58565,7.35628l78.25886,0c3.08654,0 5.58565,-3.29132 5.58565,-7.35628l0,-36.80764c0.00996,-4.06497 -2.49911,-7.35628 -5.58565,-7.35628zm-5.58565,36.80764l-67.08756,0l0,-22.08196l67.08756,0l0,22.08196z" stroke-width="5" stroke-miterlimit="10" stroke-dasharray=""></path></g></svg>