<svg data-v-9833e8b2="" version="1.1" xmlns="http://www.w3.org/2000/svg" xmlns:xlink="http://www.w3.org/1999/xlink" width="24.5" height="25"><g data-v-9833e8b2=""><path data-v-9833e8b2="" transform="scale(0.12886597938144329)" fill="none" stroke="currentColor" paint-order="fill stroke markers" d="m106.62527,16.62504c-1.875,-8.75002 -9.37502,-15.62504 -17.50004,-15.62504c-8.75002,0 -16.25004,6.25002 -17.50004,14.37504l-1.25,3.12501l-3.12501,1.25c-38.7501,10.00003 -66.25017,45.00011 -66.25017,85.62522c0,10.00003 1.875,20.00005 5.62501,29.37507l0.625,1.875l4.37501,-2.50001l-0.625,-1.25c-3.12501,-8.75002 -5.00001,-18.12505 -5.00001,-28.12507c0,-37.50009 25.00006,-70.62518 61.25015,-80.6252l4.37501,-1.25l1.875,5.00001c3.12501,5.62501 8.75002,9.37502 15.62504,9.37502s12.50003,-3.75001 16.25004,-9.37502c1.25,-2.50001 1.875,-5.00001 1.875,-8.12502c0,-1.25 0,-2.50001 -0.625,-3.12501zm-17.50004,15.62504c-4.37501,-0.625 -7.50002,-2.50001 -10.00003,-5.00001c-1.875,-3.12501 -2.50001,-6.25002 -2.50001,-9.37502c0,-6.25002 5.00001,-11.25003 11.87503,-11.87503l0.625,0c7.50002,0 13.12503,5.62501 13.12503,13.12503c0,6.87502 -5.62501,13.12503 -13.12503,13.12503zm29.37507,150.62538l-1.25,0.625c-23.12506,8.12502 -48.75012,5.62501 -70.00018,-6.87502l-3.75001,-1.875l1.875,-3.75001l0,-0.625c1.875,-9.37502 -4.37501,-18.75005 -13.75003,-20.62505c-1.875,-0.625 -5.00001,-0.625 -7.50002,0c-3.75001,1.25 -7.50002,3.12501 -10.00003,6.25002c-2.50001,3.12501 -4.37501,7.50002 -4.37501,11.25003c0,10.00003 8.12502,18.12505 18.12505,18.12505c3.75001,0 7.50002,-1.25 11.25003,-4.37501l2.50001,-2.50001l3.12501,3.12501c13.12503,8.12502 28.12507,11.87503 43.75011,11.87503c10.00003,0 20.00005,-1.875 30.00008,-5.00001l1.875,-0.625l-1.875,-5.00001zm-90.00023,-1.875l-1.875,0c-7.50002,0 -13.12503,-5.62501 -13.12503,-13.12503l0,-0.625c0.625,-3.75001 2.50001,-7.50002 5.00001,-9.37502c1.875,-1.875 4.37501,-2.50001 6.87502,-2.50001l1.875,0c1.875,0 5.00001,1.25 7.50002,3.12501l0.625,0.625c2.50001,2.50001 4.37501,5.62501 4.37501,9.37502c0.625,2.50001 -0.625,5.62501 -2.50001,7.50002c-1.875,2.50001 -5.62501,4.37501 -8.75002,5.00001zm135.62534,-25.62506l-1.25,-3.12501l1.25,-2.50001c8.75002,-13.75003 13.12503,-29.37507 13.12503,-45.62511c0,-31.87508 -18.75005,-62.50016 -47.50012,-78.1252l-1.25,-0.625l-1.875,5.00001l1.25,0.625c26.87507,14.37504 44.37511,43.12511 44.37511,73.75019c0,15.00004 -3.75001,29.37507 -11.87503,42.50011l-1.875,3.75001l-3.12501,-1.25l-4.37501,0c-8.75002,0 -16.25004,6.25002 -17.50004,14.37504c-0.625,2.50001 -0.625,5.00001 0,7.50002c0.625,3.75001 2.50001,7.50002 5.62501,10.00003c3.12501,2.50001 7.50002,4.37501 11.25003,4.37501c10.00003,0 18.12505,-8.12502 18.12505,-18.12505c0,-3.75001 -1.25,-7.50002 -4.37501,-11.25003l0,-1.25zm-13.12503,25.62506l-1.25,0c-6.25002,0 -12.50003,-6.25002 -12.50003,-13.12503l0,-1.25l0.625,-1.875c1.25,-2.50001 1.875,-5.00001 3.75001,-6.87502c2.50001,-2.50001 5.00001,-3.75001 8.12502,-3.75001l1.875,0c6.25002,0 11.87503,5.00001 12.50003,11.87503l0,1.25c0,7.50002 -5.62501,13.75003 -13.12503,13.75003zm-60.62515,-126.25032l-1.25,0c-1.25,0 -2.50001,0.625 -3.12501,1.875l-35.00009,58.12515c-0.625,0.625 -0.625,1.875 -0.625,3.12501s0.625,1.875 1.875,2.50001c0.625,0.625 1.25,0.625 1.875,0.625l14.37504,0l-0.625,-1.25c-1.875,-3.75001 -2.50001,-6.87502 -2.50001,-10.62503c0,-12.50003 10.62503,-23.12506 23.12506,-23.75006l0.625,0l3.75001,-26.25007c0,-2.50001 -0.625,-3.75001 -2.50001,-4.37501zm36.87509,45.00011c-0.625,-1.25 -1.875,-1.875 -3.12501,-1.875l-14.37504,0l0.625,1.25c1.875,3.75001 2.50001,6.87502 2.50001,10.62503c0,12.50003 -10.62503,23.12506 -23.12506,23.75006l-0.625,0l-4.37501,25.62506c0,1.25 0,1.875 0.625,3.12501c0.625,0.625 1.875,1.25 2.50001,1.25c1.875,0 3.12501,-0.625 3.75001,-1.875l35.62509,-58.12515c0.625,-1.25 0.625,-2.50001 0,-3.75001z" stroke-width="5" stroke-miterlimit="10" stroke-dasharray=""></path><path data-v-9833e8b2="" transform="scale(0.12886597938144329)" fill="none" stroke="currentColor" paint-order="fill stroke markers" d="m89.12522,92.87523c-8.75002,0 -16.25004,7.50002 -16.25004,16.25004s7.50002,16.25004 16.25004,16.25004c8.75002,0 16.25004,-7.50002 16.25004,-16.25004s-7.50002,-16.25004 -16.25004,-16.25004z" stroke-width="5" stroke-miterlimit="10" stroke-dasharray=""></path></g></svg>