<svg data-v-9833e8b2="" version="1.1" xmlns="http://www.w3.org/2000/svg" xmlns:xlink="http://www.w3.org/1999/xlink" width="24.5" height="25"><g data-v-9833e8b2=""><path data-v-9833e8b2="" transform="scale(0.12953367875647667)" fill="none" stroke="currentColor" paint-order="fill stroke markers" d="m84.73068,101.90621c4.33595,4.21876 11.28909,4.1211 15.50785,-0.23438c4.21876,-4.33595 4.1211,-11.28909 -0.23438,-15.50785c-9.80471,-9.51174 -10.5469,-16.95317 -3.10548,-26.5235c14.08207,-18.10551 14.08207,-37.50009 -0.19531,-54.82436c-3.82813,-4.45314 -10.48831,-5.09767 -15.09769,-1.46485c-4.76564,3.75001 -5.58595,10.64456 -1.83594,15.39066l0,0.01953c7.65627,9.2969 7.65627,17.32426 -0.19531,27.42194c-14.45316,18.63286 -12.46097,38.61338 5.15626,55.7228zm80.74239,14.06254l-153.51601,0c-6.0547,0 -10.95706,4.90236 -10.95706,10.95706l0,54.82436c0,6.0547 4.90236,10.95706 10.95706,10.95706l153.51601,0c6.0547,0 10.95706,-4.90236 10.95706,-10.95706l0,-54.82436c0.01953,-6.0547 -4.90236,-10.95706 -10.95706,-10.95706zm-10.95706,54.82436l-131.60189,0l0,-32.89071l131.60189,0l0,32.89071z" stroke-width="5" stroke-miterlimit="10" stroke-dasharray=""></path></g></svg>