<svg data-v-9833e8b2="" version="1.1" xmlns="http://www.w3.org/2000/svg" xmlns:xlink="http://www.w3.org/1999/xlink" width="19.5" height="25"><g data-v-9833e8b2=""><path data-v-9833e8b2="" transform="scale(0.0778816199376947)" fill="none" stroke="currentColor" paint-order="fill stroke markers" d="m106.83319,150.84084l12.40506,0.12925l11.76175,169.03772l-36.20219,0l12.03538,-169.16697z" stroke-width="5" stroke-miterlimit="10" stroke-dasharray=""></path><path data-v-9833e8b2="" transform="scale(0.0778816199376947)" fill="none" stroke="currentColor" paint-order="fill stroke markers" d="m112.184,144.40381c11.35475,0 20.5445,-9.20625 20.5445,-20.54475c0,-11.36 -9.1895,-20.54425 -20.5445,-20.54425c-11.34925,0 -20.556,9.1845 -20.556,20.54425c-0.00025,11.3385 9.20675,20.54475 20.556,20.54475zm86.32225,18.73975c-15.0325,-11.14725 -34.602,-24.201 -52.932,-35.1565c-0.8125,-0.4825 -1.755,-0.516 -2.585,-0.124c-0.8185,0.3705 -1.39575,1.13275 -1.5475,2.053c-1.1885,7.2665 -5.0575,13.5245 -10.5865,17.954c-0.7065,0.5725 -1.122,1.49175 -1.02075,2.37775c0.0505,0.9085 0.5945,1.749 1.4075,2.209c35.2635,19.4575 76.94725,40.24825 88.86875,40.551c1.323,-0.04425 3.078,-0.213 4.3455,-1.99575c0.415,-0.7965 0.54375,-1.50275 0.54375,-2.08575c-1.04275,-6.707 -11.3545,-13.9855 -26.49375,-25.78275zm-95.94675,-65.3685c3.29675,-1.256 6.7955,-2.01875 10.42925,-2.01875c3.64425,0 7.13775,0.763 10.4465,2.01875c0.31375,0.12325 0.64975,0.17925 0.98075,0.17925c0.5605,0 1.1165,-0.15675 1.58125,-0.5045c0.75175,-0.527 1.178,-1.39025 1.178,-2.31c-0.3365,-22.2045 -1.72775,-45.14075 -3.76875,-62.59025c-1.003,-8.75825 -2.19775,-16.1035 -3.5655,-21.419c-1.7725,-5.1025 -1.6995,-9.0055 -6.85225,-10.13225c-5.1085,1.12675 -5.06925,5.0295 -6.85225,10.13225c-3.981,15.8795 -6.79,50.62425 -7.312,84.0095c0,0.91975 0.42075,1.783 1.18875,2.31c0.74075,0.538 1.683,0.63875 2.54625,0.325zm-7.89275,51.9785c0.101,-0.9085 -0.28575,-1.817 -0.97575,-2.3885c-5.36,-4.5645 -9.03825,-10.95625 -10.0365,-18.26825c-0.12325,-0.9305 -0.70125,-1.71575 -1.5365,-2.10825c-0.83575,-0.415 -1.839,-0.3815 -2.5905,0.11175c-18.4925,11.01275 -37.82625,23.64025 -52.59525,34.33875c-14.848,11.30425 -24.85675,18.122 -25.92775,24.82875c-0.0335,0.527 0.1125,1.37875 0.58875,2.08575l0.00625,-0.01125c1.31175,1.93975 3.15075,2.01875 4.536,2.0405c12.00475,-0.2685 52.0855,-19.176 87.11875,-38.47575c0.7845,-0.46025 1.31175,-1.26725 1.4125,-2.1535z" stroke-width="5" stroke-miterlimit="10" stroke-dasharray=""></path></g></svg>