<svg data-v-9833e8b2="" version="1.1" xmlns="http://www.w3.org/2000/svg" xmlns:xlink="http://www.w3.org/1999/xlink" width="22" height="25"><g data-v-9833e8b2=""><path data-v-9833e8b2="" transform="scale(0.13157894736842105)" fill="none" stroke="currentColor" paint-order="fill stroke markers" d="m95.04886,61.91c0.13,1.95 -1.99,3.25 -3.66,2.24c-1.68,-1.01 -3.48,-1.85 -5.37,-2.5c-2.83,-0.97 -5.86,-1.5 -9.02,-1.5c-3.16,0 -6.19,0.53 -9.02,1.5c-1.89,0.64 -3.68,1.49 -5.37,2.5c-1.68,1.01 -3.8,-0.28 -3.66,-2.24c0.1,-1.53 0.22,-3.04 0.34,-4.52c2.7,-32.95 9.61,-56.39 17.71,-56.39c8.1,0 15.01,23.44 17.71,56.39c0.12,1.49 0.24,2.99 0.34,4.52zm17.37,26.15c-1.23,-0.85 -2.48,-1.7 -3.74,-2.55c-1.62,-1.09 -3.8,0.09 -3.77,2.05c0,0.17 0,0.34 0,0.5c0,1.85 -0.18,3.65 -0.53,5.39c-1.21,6.18 -4.46,11.63 -9.02,15.62c-1.49,1.3 -3.11,2.45 -4.85,3.41c-1.71,0.95 -1.64,3.43 0.11,4.29c1.37,0.67 2.74,1.33 4.09,1.97c29.88,14.14 53.64,19.87 57.69,12.86c4.05,-7.02 -12.79,-24.73 -39.98,-43.54zm-53.78,21.01c-4.56,-3.99 -7.81,-9.44 -9.02,-15.62c-0.34,-1.75 -0.53,-3.55 -0.53,-5.39c0,-0.17 0,-0.34 0,-0.5c0.04,-1.95 -2.15,-3.14 -3.77,-2.05c-1.27,0.85 -2.52,1.7 -3.75,2.55c-27.18,18.81 -44.02,36.52 -39.97,43.53c4.05,7.02 27.81,1.28 57.69,-12.86c1.35,-0.64 2.71,-1.29 4.09,-1.97c1.75,-0.86 1.82,-3.34 0.11,-4.29c-1.74,-0.95 -3.37,-2.1 -4.85,-3.4z" stroke-width="5" stroke-miterlimit="10" stroke-dasharray=""></path><path data-v-9833e8b2="" transform="scale(0.13157894736842105)" fill="none" stroke="currentColor" paint-order="fill stroke markers" d="m95.05886,88.72c0,9.97 -8.08,18.06 -18.06,18.06s-18.06,-8.08 -18.06,-18.06s8.09,-18.05 18.06,-18.05s18.06,8.08 18.06,18.05z" stroke-width="5" stroke-miterlimit="10" stroke-dasharray=""></path><path data-v-9833e8b2="" transform="scale(0.13157894736842105)" fill="none" stroke="currentColor" paint-order="fill stroke markers" d="m92.82886,189.18l-31.66,0l8.07,-67.7l15.52,0l8.07,67.7z" stroke-width="5" stroke-miterlimit="10" stroke-dasharray=""></path></g></svg>