<svg data-v-9833e8b2="" version="1.1" xmlns="http://www.w3.org/2000/svg" xmlns:xlink="http://www.w3.org/1999/xlink" width="25" height="22.5"><g data-v-9833e8b2=""><path data-v-9833e8b2="" transform="scale(0.13297872340425532)" fill="none" stroke="currentColor" paint-order="fill stroke markers" d="m111.78032,80.47389s-8.94739,-5.26317 -17.36847,-5.26317c-9.47371,0 -17.36847,5.26317 -17.36847,5.26317l0,-58.4212c0,-9.47371 7.89476,-17.36847 17.36847,-17.36847c9.47371,0 17.36847,7.89476 17.36847,17.36847l0,58.4212zm-47.89486,21.579s0,10.52634 4.21054,17.36846c4.73685,8.42107 13.68425,12.10529 13.68425,12.10529l-50.52644,29.47376c-8.42107,4.73686 -18.94742,2.10527 -23.68427,-6.3158c-4.73685,-8.42107 -2.10527,-18.94741 6.3158,-23.68427l50.00013,-28.94744zm60.52647,0s0,10.52634 -4.21054,17.36846c-4.73685,8.42107 -13.68424,12.10529 -13.68424,12.10529l50.52644,29.47376c8.42107,4.73686 18.94742,2.10527 23.68427,-6.3158c4.73685,-8.42107 2.10527,-18.94741 -6.3158,-23.68427l-50.00013,-28.94744z" stroke-width="5" stroke-miterlimit="10" stroke-dasharray=""></path><path data-v-9833e8b2="" transform="scale(0.13297872340425532)" fill="none" stroke="currentColor" paint-order="fill stroke markers" d="m94.41185,87.84232c-8.94739,0 -15.78951,7.36844 -15.78951,15.78951s7.36844,15.78951 15.78951,15.78951s15.78951,-7.36844 15.78951,-15.78951s-6.84212,-15.78951 -15.78951,-15.78951zm0,24.73691c-4.73685,0 -8.42107,-3.68422 -8.42107,-8.42107s3.68422,-8.42107 8.42107,-8.42107s8.42107,3.68422 8.42107,8.42107s-3.68422,8.42107 -8.42107,8.42107z" stroke-width="5" stroke-miterlimit="10" stroke-dasharray=""></path><path data-v-9833e8b2="" transform="scale(0.13297872340425532)" fill="none" stroke="currentColor" paint-order="fill stroke markers" d="m187.04366,141.00035c-1.57895,-5.26317 -4.73685,-10.00003 -9.47371,-12.63161l-49.47381,-29.47376c-1.05264,-8.94739 -5.78949,-16.31583 -12.63161,-21.579l0,-55.2633c0,-11.57898 -9.47371,-21.05269 -21.05268,-21.05269s-21.05268,9.47371 -21.05268,21.05269l0,55.2633c-6.84212,5.26317 -11.05266,12.63161 -12.63161,21.579l-49.47381,28.94744c-10.00003,5.78949 -13.15793,18.94742 -7.36844,28.94744c3.68422,6.84212 11.05266,10.52634 17.89478,10.52634c3.68422,0 7.36844,-1.05264 10.52634,-2.63159l48.94749,-28.42112c3.68422,1.57895 8.42107,2.63159 12.63161,2.63159c4.21054,0 8.42107,-1.05264 12.10529,-2.10527l48.94749,28.42112c3.1579,2.10527 6.84212,2.63158 10.52634,2.63158c7.36844,0 14.21056,-3.68422 17.89478,-10.52634c4.21054,-5.26317 4.73685,-11.05266 3.68422,-16.31583zm-106.31606,-118.94767c0,-7.36844 6.3158,-13.68425 13.68425,-13.68425c7.36844,0 13.68425,6.3158 13.68425,13.68425l0,50.52644c-4.21054,-1.57895 -8.94739,-2.63158 -13.68425,-2.63158c-4.73685,0 -9.47371,1.05264 -13.68425,3.1579l0,-51.05276zm-51.57908,135.78981c-6.3158,3.68422 -14.73688,1.57895 -18.4211,-4.73685c-4.21054,-6.84212 -2.10527,-14.73688 4.73685,-18.94742l45.26327,-26.84217c1.05264,9.47371 6.3158,17.89478 13.68425,23.68427l-45.26327,26.84217zm38.94747,-53.68435c0,-14.73688 12.10529,-26.84217 26.84217,-26.84217s26.84217,12.10529 26.84217,26.84217s-12.63161,26.31586 -27.36849,26.31586c-14.73688,0 -26.31586,-11.57898 -26.31586,-26.31586zm102.10552,55.2633c-3.68422,1.05264 -7.36844,0.52632 -10.52634,-1.57895l-45.26327,-26.31586c7.36844,-5.26317 12.63161,-14.21056 13.68425,-23.68427l45.26327,26.31586c6.3158,3.68422 8.42107,12.10529 4.73685,18.4211c-1.57895,3.68422 -4.73685,5.78949 -7.89476,6.84212z" stroke-width="5" stroke-miterlimit="10" stroke-dasharray=""></path><path data-v-9833e8b2="" transform="scale(0.13297872340425532)" fill="none" stroke="currentColor" paint-order="fill stroke markers" d="m148.62252,71.00018c0.52632,1.05264 2.10527,2.10527 3.1579,2.10527c0.52632,0 1.05263,0 1.57895,-0.52632c1.57895,-1.05264 2.63158,-3.1579 1.57895,-5.26317c-3.68422,-6.84212 -10.52634,-14.73688 -16.31583,-18.94742c-1.57895,-1.05263 -3.68422,-1.05263 -5.26317,0.52632s-1.05264,3.68422 0.52632,5.26317c5.26317,3.1579 11.57898,11.05266 14.73688,16.84215zm5.78949,14.73688c1.05263,1.57895 1.57895,3.68422 1.57895,7.36844c0,2.10527 1.57895,3.1579 3.68422,3.1579l0.52632,0c2.10527,0 3.68422,-2.10527 3.1579,-4.21054c-0.52632,-4.73685 -1.05264,-7.36844 -2.63159,-10.00003c-1.05263,-1.57895 -3.1579,-2.63159 -4.73685,-1.57895c-1.57895,1.05263 -2.63158,3.1579 -1.57895,5.26317zm-36.8422,78.42125c-5.26317,2.10527 -14.73688,4.21054 -21.05268,4.21054c-2.10527,0 -3.68422,1.57895 -3.68422,3.68422c0,2.10527 1.57895,3.68422 3.68422,3.68422c7.36844,0 17.89478,-2.10527 24.21059,-4.73686c2.10527,-1.05263 2.63159,-3.1579 2.10527,-4.73685c-1.57895,-2.10527 -3.68422,-3.1579 -5.26317,-2.10527l0,0zm-37.36852,1.57895c-2.10527,0 -4.21054,-0.52632 -7.36844,-2.10527c-1.57895,-1.05264 -4.21054,0 -4.73685,1.57895c-1.05264,2.10527 0,4.21054 1.57895,4.73685c4.21054,2.10527 6.84212,2.63158 10.00003,2.63158c2.10527,0 3.68422,-1.57895 3.68422,-3.68422c0.52632,-1.57895 -1.05264,-3.1579 -3.1579,-3.1579zm-54.21066,-70.00018l0.52632,0c1.57895,0 3.1579,-1.05264 3.68422,-3.1579c1.05263,-5.78949 4.73685,-14.73688 8.42107,-20.52637c1.05263,-1.57895 0.52632,-4.21054 -1.05264,-5.26317c-1.57895,-1.05263 -4.21054,-0.52632 -5.26317,1.05263c-4.21054,6.31581 -8.42107,16.31583 -9.47371,23.15795c-0.52632,2.10527 1.05263,4.21054 3.1579,4.73686zm20.00005,-33.6843c1.05263,0 2.10527,-0.52632 3.1579,-1.57895c1.05264,-1.57895 2.63159,-3.1579 5.78949,-4.73685c1.57895,-1.05264 2.10527,-3.1579 1.05263,-5.26317c-1.05263,-1.57895 -3.1579,-2.10527 -5.26317,-1.05264c-3.68422,2.63159 -6.3158,4.21054 -7.89476,6.84212c-1.05263,1.57895 -0.52632,4.21054 1.05263,5.26317c1.05264,0.52632 1.57895,0.52632 2.10527,0.52632z" stroke-width="5" stroke-miterlimit="10" stroke-dasharray=""></path></g></svg>