<svg data-v-9833e8b2="" version="1.1" xmlns="http://www.w3.org/2000/svg" xmlns:xlink="http://www.w3.org/1999/xlink" width="25" height="25"><g data-v-9833e8b2=""><path data-v-9833e8b2="" transform="scale(0.12376237623762376)" fill="none" stroke="currentColor" paint-order="fill stroke markers" d="m188.8911,170.9223l0,-11.71878l-46.87512,0l0,11.71878l-82.03146,0l0,-11.71878l-46.87512,0l0,11.71878l-12.10941,0l0,30.0782l200.0005,0l0,-30.0782l-12.10941,0zm0,0m-175.78169,-46.87512l175.78169,0l0,23.43756l-175.78169,0l0,-23.43756zm0,0m52.73451,-87.89085l-17.57817,0l0,-11.71878l59.67281,0c2.42774,6.80549 8.86994,11.71878 16.49926,11.71878l23.43756,0c9.6926,0 17.57817,-7.88596 17.57817,-17.57817s-7.88596,-17.57817 -17.57817,-17.57817l-23.43756,0c-7.62932,0 -14.07152,4.91329 -16.49926,11.71878l-71.39159,0l0,23.43756l-11.71878,0l0,76.17207l41.01573,0l0,-76.17207zm0,0" stroke-width="5" stroke-miterlimit="10" stroke-dasharray=""></path><path data-v-9833e8b2="" transform="scale(0.12376237623762376)" fill="none" stroke="currentColor" paint-order="fill stroke markers" d="m77.56269,36.15634l0,70.31268l17.57817,0l0,-11.71878l11.71878,0l0,-11.71878l-11.71878,0l0,-23.43756l11.71878,0l0,-11.71878l-11.71878,0l0,-11.71878l-17.57817,0zm0,0m-76.56269,11.71878l12.10941,0l0,46.87512l-12.10941,0l0,-46.87512zm0,0m141.01598,0l0,17.57817l-23.43756,0l0,11.71878l23.43756,0l0,35.15634l46.87512,0l0,-25.8985l-11.71878,-11.71878l0,-26.83601l-35.15634,0zm0,0" stroke-width="5" stroke-miterlimit="10" stroke-dasharray=""></path></g></svg>