<svg data-v-9833e8b2="" version="1.1" xmlns="http://www.w3.org/2000/svg" xmlns:xlink="http://www.w3.org/1999/xlink" width="25" height="15"><g data-v-9833e8b2=""><path data-v-9833e8b2="" transform="scale(0.1366120218579235)" fill="none" stroke="currentColor" paint-order="fill stroke markers" d="m22.96996,83.11294c-7.22792,0 -13.08736,5.74792 -13.08736,12.83973c0,7.09021 5.85944,12.83593 13.08736,12.83593c7.22772,0 13.08716,-5.74572 13.08716,-12.83593c0,-7.09181 -5.85944,-12.83973 -13.08716,-12.83973zm0,20.23073c-4.16179,0 -7.53651,-3.30837 -7.53651,-7.39081c0,-4.08364 3.37472,-7.3946 7.53651,-7.3946s7.53671,3.31096 7.53671,7.3946c0,4.08244 -3.37492,7.39081 -7.53671,7.39081zm5.83006,-35.44166l59.55018,-7.58608c-1.11784,-11.43608 -11.26359,-17.772 -23.33863,-17.40085l-12.03647,0c-17.42743,-0.4493 -24.95514,11.50243 -24.70711,20.62747l0.53204,4.35946zm123.97606,-32.29399c-2.10798,0.22385 -3.4075,1.42204 -3.51063,1.50558l-15.36842,12.30609l-0.76908,8.5872l-8.97274,7.14817l14.12266,25.86613l21.95817,-22.6551l0.70492,-27.46765l-0.31419,-0.45989c-2.70437,-4.04427 -5.69036,-5.08397 -7.8507,-4.83054zm5.49849,12.16438c-2.13216,-3.72848 -6.24998,-4.82694 -9.24555,-2.43356l-13.19908,10.5157l0.41212,-4.61608l14.5108,-11.62255c0.06056,-0.05097 0.07535,-0.06875 0.17728,-0.1431c0.299,-0.22665 1.11365,-0.7437 2.16234,-0.84603c1.36668,-0.10313 3.15647,0.27362 5.33719,3.23622l-0.15509,5.90941zm-53.96495,31.00805c-8.4429,0 -15.28527,6.71467 -15.28527,14.99487c0,8.28141 6.84218,14.99547 15.28527,14.99547c8.4403,0 15.28548,-6.71426 15.28548,-14.99547c-0.0002,-8.28021 -6.84518,-14.99487 -15.28548,-14.99487zm0,23.63004c-4.86032,0 -8.80385,-3.86559 -8.80385,-8.63497c0,-4.76858 3.94334,-8.63437 8.80385,-8.63437s8.80146,3.86579 8.80146,8.63437c0,4.76938 -3.94094,8.63497 -8.80146,8.63497z" stroke-width="5" stroke-miterlimit="10" stroke-dasharray=""></path><path data-v-9833e8b2="" transform="scale(0.1366120218579235)" fill="none" stroke="currentColor" paint-order="fill stroke markers" d="m100.09146,64.53329l65.92307,-57.10443c-1.50618,-1.72723 -2.98119,-3.47505 -4.25073,-5.38496l-73.95025,64.05293l-68.00666,8.66295c-11.83141,1.58593 -18.8069,9.3243 -18.8069,20.17557l0,8.87261l7.48954,0c-1.31431,-2.33083 -2.0698,-5.00722 -2.0698,-7.85529c0,-8.96694 7.41079,-16.23623 16.55042,-16.23623s16.55042,7.26929 16.55042,16.23623c0,2.84808 -0.75529,5.52447 -2.0698,7.85529l50.4783,0c-1.85755,-2.91443 -2.94881,-6.34252 -2.94881,-10.03242c0,-10.47213 8.65475,-18.96239 19.32974,-18.96239s19.32994,8.49027 19.32994,18.96239c0,3.68991 -1.09126,7.11799 -2.94881,10.03242l18.97818,0l-21.72453,-41.54793l-17.85334,2.27326z" stroke-width="5" stroke-miterlimit="10" stroke-dasharray=""></path><path data-v-9833e8b2="" transform="scale(0.1366120218579235)" fill="none" stroke="currentColor" paint-order="fill stroke markers" d="m182.0487,4.47346c0,1.91831 -1.41544,3.47345 -3.16106,3.47345l-14.78481,0c-1.74602,0 -3.16146,-1.55515 -3.16146,-3.47345c0,-1.9183 1.41544,-3.47345 3.16146,-3.47345l14.78481,0c1.74562,0 3.16106,1.55535 3.16106,3.47345z" stroke-width="5" stroke-miterlimit="10" stroke-dasharray=""></path></g></svg>