<svg data-v-9833e8b2="" version="1.1" xmlns="http://www.w3.org/2000/svg" xmlns:xlink="http://www.w3.org/1999/xlink" width="19.5" height="25"><g data-v-9833e8b2=""><path data-v-9833e8b2="" transform="scale(0.12953367875647667)" fill="none" stroke="currentColor" paint-order="fill stroke markers" d="m130.18,179.22l-10.76,0l0,10.77l-86.12,0l-8.07,-10.77l-11.3,0l0,-34.45l11.3,0l8.07,-10.76l86.12,0l0,10.76l10.76,0l0,34.45z" stroke-width="5" stroke-miterlimit="10" stroke-dasharray=""></path><path data-v-9833e8b2="" transform="scale(0.12953367875647667)" fill="none" stroke="currentColor" paint-order="fill stroke markers" d="m1,134.01l8.61,0l0,58.13l-8.61,0l0,-58.13z" stroke-width="5" stroke-miterlimit="10" stroke-dasharray=""></path><path data-v-9833e8b2="" transform="scale(0.12953367875647667)" fill="none" stroke="currentColor" paint-order="fill stroke markers" d="m134.49,179.22l0,-34.45l0,-10.76l8.61,0l0,58.13l-8.61,0l0,-12.92z" stroke-width="5" stroke-miterlimit="10" stroke-dasharray=""></path><path data-v-9833e8b2="" transform="scale(0.12953367875647667)" fill="none" stroke="currentColor" paint-order="fill stroke markers" d="m56.98,93.1l34.45,0l0,36.6l-34.45,0l0,-36.6l0,0z" stroke-width="5" stroke-miterlimit="10" stroke-dasharray=""></path><path data-v-9833e8b2="" transform="scale(0.12953367875647667)" fill="none" stroke="currentColor" paint-order="fill stroke markers" d="m117.09,26.78l-24.73,-25.78l-37.14,0l-24.68,25.73l0,3.93l-8.01,0l0,-4.3l-8.61,0l0,4.3l-10.76,0l0,10.77l10.77,0l0,6.46l-10.77,0l0,10.77l10.77,0l0,4.31l8.61,0l0,-4.31l8.01,0l0,4.25l24.57,25.62l37.36,0l24.62,-25.67l0.04,0.04l0,-36.16l-0.05,0.04zm-94.56,21.11l0,-6.46l8.01,0l0,6.46l-8.01,0z" stroke-width="5" stroke-miterlimit="10" stroke-dasharray=""></path><path data-v-9833e8b2="" transform="scale(0.12953367875647667)" fill="none" stroke="currentColor" paint-order="fill stroke markers" d="m89.05,80.59l-30.51,0l-20.13,-20.99l0,-29.58l20.16,-21.02l30.45,0l20.19,21.06l0.05,-0.05l0,29.61l-0.05,-0.05l-20.16,21.02l0,0l0,0z" stroke-width="5" stroke-miterlimit="10" stroke-dasharray=""></path><path data-v-9833e8b2="" transform="scale(0.12953367875647667)" fill="none" stroke="currentColor" paint-order="fill stroke markers" d="m85.38,71.98l15.27,-15.92l0,-22.49l-15.31,-15.96l-23.1,0l-15.22,15.88l0,22.65l15.19,15.84l23.17,0" stroke-width="5" stroke-miterlimit="10" stroke-dasharray=""></path><path data-v-9833e8b2="" transform="scale(0.12953367875647667)" fill="none" stroke="currentColor" paint-order="fill stroke markers" d="m93.58,39.28l-38.75,0l0,12.92l38.76,0l0,-12.92l-0.01,0z" stroke-width="5" stroke-miterlimit="10" stroke-dasharray=""></path></g></svg>