<svg data-v-9833e8b2="" version="1.1" xmlns="http://www.w3.org/2000/svg" xmlns:xlink="http://www.w3.org/1999/xlink" width="27" height="25"><g data-v-9833e8b2=""><path data-v-9833e8b2="" transform="scale(0.13736263736263737)" fill="none" stroke="currentColor" paint-order="fill stroke markers" d="m142.29001,181.84l-107.38,0c-18.72,0 -33.91,-15.18 -33.91,-33.91l0,-113.02c0,-18.72 15.18,-33.91 33.91,-33.91l107.37,0c18.72,0 33.91,15.18 33.91,33.91l0,113.02c0,18.73 -15.18,33.91 -33.9,33.91l0,0l0,0z" stroke-width="5" stroke-miterlimit="10" stroke-dasharray=""></path><path data-v-9833e8b2="" transform="scale(0.13736263736263737)" fill="none" stroke="currentColor" paint-order="fill stroke markers" d="m142.29001,164.89c9.35,0 16.95,-7.6 16.95,-16.95l0,-113.03c0,-9.35 -7.6,-16.95 -16.95,-16.95l-107.38,0c-9.35,0 -16.95,7.6 -16.95,16.95l0,113.02c0,9.35 7.6,16.95 16.95,16.95l107.38,0" stroke-width="5" stroke-miterlimit="10" stroke-dasharray=""></path><path data-v-9833e8b2="" transform="scale(0.13736263736263737)" fill="none" stroke="currentColor" paint-order="fill stroke markers" d="m68.82001,94.14l0,42c0,4.68 -3.8,8.48 -8.48,8.48l0,0c-4.68,0 -8.48,-3.8 -8.48,-8.48l0,-42c-6.68,-3.18 -11.3,-9.96 -11.3,-17.85s4.63,-14.67 11.3,-17.85l0,-11.75c0,-4.68 3.8,-8.48 8.48,-8.48l0,0c4.68,0 8.48,3.8 8.48,8.48l0,11.75c6.68,3.18 11.3,9.96 11.3,17.85c0,7.89 -4.62,14.68 -11.3,17.85z" stroke-width="5" stroke-miterlimit="10" stroke-dasharray=""></path><path data-v-9833e8b2="" transform="scale(0.13736263736263737)" fill="none" stroke="currentColor" paint-order="fill stroke markers" d="m125.33001,124.4l0,11.75c0,4.68 -3.8,8.48 -8.48,8.48l0,0c-4.68,0 -8.48,-3.8 -8.48,-8.48l0,-11.75c-6.68,-3.18 -11.3,-9.96 -11.3,-17.85s4.63,-14.67 11.3,-17.85l0,-42c0,-4.68 3.8,-8.48 8.48,-8.48l0,0c4.68,0 8.48,3.8 8.48,8.48l0,42c6.68,3.18 11.3,9.96 11.3,17.85c0.01,7.89 -4.62,14.67 -11.3,17.85z" stroke-width="5" stroke-miterlimit="10" stroke-dasharray=""></path></g></svg>