<svg data-v-9833e8b2="" version="1.1" xmlns="http://www.w3.org/2000/svg" xmlns:xlink="http://www.w3.org/1999/xlink" width="25" height="17.5"><g data-v-9833e8b2=""><path data-v-9833e8b2="" transform="scale(0.12886597938144329)" fill="none" stroke="currentColor" paint-order="fill stroke markers" d="m193.2,2.6l-48.6,18c-12.1,-12.1 -28.8,-19.6 -47.3,-19.6c-18.5,0 -35.3,7.5 -47.4,19.7l-48.9,-18.1l0,130.8l30.5,-11.3l0.1,0l0,0l18.2,-6.8c12.1,12.2 28.9,19.7 47.4,19.7c18.5,0 35.2,-7.5 47.3,-19.6l18,6.7l0,0l0.1,0l30.5,11.3l0.1,-130.8l0,0zm-180.5,16.7l7.3,2.7l0,91.9l-7.3,2.7c0,0 0,-97.3 0,-97.3zm18.9,90.3l0,-28.5c1.8,9 5.4,17.3 10.4,24.6l-10.4,3.9zm0,-54.7l0,-28.5l10.4,3.8c-5,7.4 -8.6,15.7 -10.4,24.7zm131,-28.5l0,26.9c-1.9,-8.4 -5.4,-16.2 -10.1,-23.1l10.1,-3.8zm-10.1,79.5c4.7,-6.9 8.2,-14.7 10.1,-23.1l0,26.9l-10.1,-3.8zm29,10.7l-7.3,-2.7l0,-91.8l7.3,-2.7l0,97.2z" stroke-width="5" stroke-miterlimit="10" stroke-dasharray=""></path><path data-v-9833e8b2="" transform="scale(0.12886597938144329)" fill="none" stroke="currentColor" paint-order="fill stroke markers" d="m149.7,73.5l-0.3,0l-29.7,-0.9c-0.7,3.9 -2.4,7.4 -4.7,10.4l18.1,15.7l0,0l4.5,3.9c-0.6,0.7 -1.2,1.4 -1.9,2.1c-0.1,0.1 -0.2,0.2 -0.3,0.3c-0.5,0.5 -1.1,1.1 -1.6,1.6c-0.4,0.3 -0.7,0.7 -1.1,1c-0.3,0.3 -0.6,0.5 -0.9,0.8c-0.4,0.4 -0.9,0.7 -1.3,1.1c-9.3,7.4 -21,11.8 -33.8,11.8l-0.1,0.1c-1,0 -2,-0.1 -3.1,-0.1l0,-29.7c-4,-0.6 -7.7,-2.2 -10.8,-4.5c0.1,0.1 0.2,0.2 0.2,0.2l-5.7,6.2l-15.1,16.4c-2.9,-2.6 -5.4,-5.6 -7.7,-8.8l0,0c-6.5,-9.2 -10.1,-20.5 -9.8,-32.6l0,-0.1c0,-1 0.1,-2 0.2,-3.1l0.3,0l28.6,0.8c0.5,-5.2 2.7,-9.8 6,-13.5l-17.2,-14.7l0,0l-5.2,-4.5c0.6,-0.7 1.2,-1.3 1.8,-2c0.4,-0.4 0.9,-0.9 1.3,-1.3c0.2,-0.2 0.3,-0.3 0.5,-0.5c1.2,-1.2 2.5,-2.3 3.9,-3.3c9.2,-7.2 20.8,-11.5 33.4,-11.5l0.1,0c1,0 2,0 3.1,0.1l0,30.7c4.1,0.8 7.8,2.7 10.8,5.4l4.7,-5.1l0,0l15.6,-16.9c0.6,0.6 1.2,1.2 1.8,1.8c0.2,0.2 0.4,0.5 0.6,0.7c0.4,0.4 0.7,0.8 1.1,1.2c0.2,0.3 0.5,0.6 0.8,0.8c0.3,0.3 0.6,0.7 0.9,1c0.3,0.3 0.5,0.6 0.8,0.9c7.5,9.6 11.9,21.8 11.5,35l0.1,0.1c-0.2,0.9 -0.3,1.9 -0.4,3z" stroke-width="5" stroke-miterlimit="10" stroke-dasharray=""></path><path data-v-9833e8b2="" transform="scale(0.12886597938144329)" fill="none" stroke="currentColor" paint-order="fill stroke markers" d="m96.9,53.3c-8.4,0 -15.1,6.8 -15.1,15.1s6.8,15.1 15.1,15.1s15.1,-6.8 15.1,-15.1s-6.8,-15.1 -15.1,-15.1z" stroke-width="5" stroke-miterlimit="10" stroke-dasharray=""></path></g></svg>