<svg data-v-9833e8b2="" version="1.1" xmlns="http://www.w3.org/2000/svg" xmlns:xlink="http://www.w3.org/1999/xlink" width="22" height="25"><g data-v-9833e8b2=""><path data-v-9833e8b2="" transform="scale(0.13157894736842105)" fill="none" stroke="currentColor" paint-order="fill stroke markers" d="m149.77815,75.36339c0,41.11121 -74.38908,113.72251 -74.38908,113.72251s-74.38908,-72.61129 -74.38908,-113.72251a74.38908,74.38908 0 0 1 148.77815,0z" stroke-width="5" stroke-miterlimit="10" stroke-dasharray=""></path><path data-v-9833e8b2="" transform="scale(0.13157894736842105)" fill="none" stroke="currentColor" paint-order="fill stroke markers" d="m80.94464,59.58558l0,15.88893l10.61114,0l-16.16671,26.55562l0,-15.94449l-10.61114,0l16.16671,-26.50007zm47.7779,21.22228a53.11125,53.11125 0 1 1 -53.33347,-53.11125l0,15.94449a37.16676,37.16676 0 1 0 37.16676,37.16676l16.16671,0zm-5.8889,5.55557l-5.27779,0a42.33344,42.33344 0 1 1 -47.72234,-47.50012l0,-5.55557a47.66679,47.66679 0 1 0 52.55569,52.55569l0.44445,0.5zm-11.33336,-13.55559l15.38893,-3.66668a52.44458,52.44458 0 0 0 -40.38899,-40.38899l-3.72223,15.38893a37.83343,37.83343 0 0 1 28.72229,28.66674zm0,0" stroke-width="5" stroke-miterlimit="10" stroke-dasharray=""></path></g></svg>