<svg data-v-9833e8b2="" version="1.1" xmlns="http://www.w3.org/2000/svg" xmlns:xlink="http://www.w3.org/1999/xlink" width="25" height="10"><g data-v-9833e8b2=""><path data-v-9833e8b2="" transform="scale(0.14124293785310735)" fill="none" stroke="currentColor" paint-order="fill stroke markers" d="m171.21,69.51l-36.68,0l0,-13l36.68,0l0,13z" stroke-width="5" stroke-miterlimit="10" stroke-dasharray=""></path><path data-v-9833e8b2="" transform="scale(0.14124293785310735)" fill="none" stroke="currentColor" paint-order="fill stroke markers" d="m82.81,36.01l0,34l-4,0l0,-34l4,0l0,0z" stroke-width="5" stroke-miterlimit="10" stroke-dasharray=""></path><path data-v-9833e8b2="" transform="scale(0.14124293785310735)" fill="none" stroke="currentColor" paint-order="fill stroke markers" d="m159.51,52.51l-21.43,0l0,-9l16.4,0l5.03,9z" stroke-width="5" stroke-miterlimit="10" stroke-dasharray=""></path><path data-v-9833e8b2="" transform="scale(0.14124293785310735)" fill="none" stroke="currentColor" paint-order="fill stroke markers" d="m171.21,39.61l0,-29.58l5.1,0l0,29.58l-5.1,0z" stroke-width="5" stroke-miterlimit="10" stroke-dasharray=""></path><path data-v-9833e8b2="" transform="scale(0.14124293785310735)" fill="none" stroke="currentColor" paint-order="fill stroke markers" d="m152.24,39.51l-11.79,0l-2,0l-5.1,0l0,-18.83l4.34,0l0.76,-0.2l2,-0.53l0.74,-0.2l11.05,19.76z" stroke-width="5" stroke-miterlimit="10" stroke-dasharray=""></path><path data-v-9833e8b2="" transform="scale(0.14124293785310735)" fill="none" stroke="currentColor" paint-order="fill stroke markers" d="m113.45,6.57l-5.1,13.58l-5.97,2.71l5.1,-13.58l5.97,-2.71zm-31.59,14.35l-5.1,13.58l5.97,-2.71l5.1,-13.58l-5.97,2.71zm-42.71,19.4l-5.1,13.58l5.96,-2.71l5.1,-13.58l-5.96,2.71zm8.54,-3.88l-5.1,13.58l5.97,-2.71l5.1,-13.58l-5.97,2.71zm51.25,-23.28l-5.1,13.58l5.96,-2.71l5.1,-13.58l-5.96,2.71zm-8.54,3.88l-5.1,13.58l5.97,-2.71l5.1,-13.58l-5.97,2.71zm-89.4,40.61l4.24,9.34l0.61,-0.28l5.1,-13.58l-9.95,4.52zm21.06,-9.57l-5.1,13.58l5.97,-2.71l5.1,-13.58l-5.97,2.71zm51.25,-23.28l-5.1,13.58l5.97,-2.71l5.1,-13.58l-5.97,2.71zm42.71,-19.4l-5.1,13.58l5.97,-2.71l5.1,-13.58l-5.97,2.71zm-59.79,27.16l-5.1,13.58l5.97,-2.71l5.1,-13.58l-5.97,2.71zm-25.62,11.64l-5.1,13.58l5.97,-2.71l5.1,-13.58l-5.97,2.71zm34.16,-15.52l-5.1,13.58l5.96,-2.71l5.1,-13.58l-5.96,2.71zm-51.25,23.28l-5.1,13.58l5.97,-2.71l5.1,-13.58l-5.97,2.71zm109.72,-46.91l-3.77,10.05l5.88,-2.67l-2.11,-7.38z" stroke-width="5" stroke-miterlimit="10" stroke-dasharray=""></path><path data-v-9833e8b2="" transform="scale(0.14124293785310735)" fill="none" stroke="currentColor" paint-order="fill stroke markers" d="m55.24,46.7l0.83,1.82l-3.64,1.65l-0.83,-1.82l3.64,-1.65zm-8.19,3.72l0.83,1.82l3.64,-1.65l-0.83,-1.82l-3.64,1.65zm18.21,-8.27l0.83,1.82l3.64,-1.65l-0.83,-1.82l-3.64,1.65zm-22.76,10.34l0.83,1.82l3.64,-1.65l-0.83,-1.82l-3.64,1.65zm13.65,-6.2l0.83,1.82l3.64,-1.65l-0.83,-1.82l-3.64,1.65zm-18.21,8.27l0.83,1.82l3.64,-1.65l-0.83,-1.82l-3.64,1.65zm-27.31,12.41l0.83,1.82l3.64,-1.65l-0.83,-1.82l-3.64,1.65zm22.76,-10.34l0.83,1.82l3.64,-1.65l-0.83,-1.82l-3.64,1.65zm36.42,-16.55l0.83,1.82l3.64,-1.65l-0.83,-1.82l-3.64,1.65zm-63.73,28.95l0.83,1.82l3.64,-1.65l-0.83,-1.82l-3.64,1.65zm9.1,-4.13l0.83,1.82l3.64,-1.65l-0.83,-1.82l-3.64,1.65zm13.66,-6.21l0.83,1.82l3.64,-1.65l-0.83,-1.82l-3.64,1.65zm-9.11,4.14l0.83,1.82l3.64,-1.65l-0.83,-1.82l-3.64,1.65zm4.56,-2.07l0.83,1.82l3.64,-1.65l-0.83,-1.82l-3.64,1.65zm36.42,-16.54l0.83,1.82l3.64,-1.65l-0.83,-1.82l-3.64,1.65zm65.26,-29.64l-1.53,0.69l0.83,1.82l1.25,-0.57l-0.55,-1.94zm-6.08,2.76l0.83,1.82l3.64,-1.65l-0.83,-1.82l-3.64,1.65zm-4.55,2.07l0.83,1.82l3.64,-1.65l-0.83,-1.82l-3.64,1.65zm-40.98,18.61l0.83,1.82l3.64,-1.65l-0.83,-1.82l-3.64,1.65zm36.42,-16.55l0.83,1.82l3.64,-1.65l-0.83,-1.82l-3.64,1.65zm-4.55,2.07l0.83,1.82l3.64,-1.65l-0.83,-1.82l-3.64,1.65zm-27.31,12.41l0.83,1.82l3.64,-1.65l-0.83,-1.82l-3.64,1.65zm9.1,-4.14l0.83,1.82l3.64,-1.65l-0.83,-1.82l-3.64,1.65zm-4.55,2.07l0.83,1.82l3.64,-1.65l-0.83,-1.82l-3.64,1.65zm18.21,-8.27l0.83,1.82l3.64,-1.65l-0.83,-1.82l-3.64,1.65zm-9.11,4.14l0.83,1.82l3.64,-1.65l-0.83,-1.82l-3.64,1.65zm4.56,-2.07l0.83,1.82l3.64,-1.65l-0.83,-1.82l-3.64,1.65z" stroke-width="5" stroke-miterlimit="10" stroke-dasharray=""></path><path data-v-9833e8b2="" transform="scale(0.14124293785310735)" fill="none" stroke="currentColor" paint-order="fill stroke markers" d="m167.21,3.38l0,6.65l0,29.58l0,12.9l-3.12,0l-7.21,-12.9l-11.7,-20.92l9.47,-2.52l0,-6.14l0,-6.65l12.56,0z" stroke-width="5" stroke-miterlimit="10" stroke-dasharray=""></path><path data-v-9833e8b2="" transform="scale(0.14124293785310735)" fill="none" stroke="currentColor" paint-order="fill stroke markers" d="m150.64,3.26l0,0.11l0,6.65l0,3.07l-7.48,1.99l-1.99,0.53l-0.72,0.19l-1.27,0.34l-0.73,0.19l-1.28,0.34l-3.82,0l-2.62,0l-0.52,-1.83l-0.56,-1.94l-1.91,-6.67l-1.49,-5.23l3.46,0l1,0l2.64,0l1.04,0l0.55,0.37l1.82,1.22l1.01,0.67l1.21,0l1.47,0l10.19,0z" stroke-width="5" stroke-miterlimit="10" stroke-dasharray=""></path></g></svg>