<svg data-v-9833e8b2="" version="1.1" xmlns="http://www.w3.org/2000/svg" xmlns:xlink="http://www.w3.org/1999/xlink" width="25" height="10"><g data-v-9833e8b2=""><path data-v-9833e8b2="" transform="scale(0.1366120218579235)" fill="none" stroke="currentColor" paint-order="fill stroke markers" d="m14.27,71.3l0.83,1.82l-3.64,1.65l-0.83,-1.82l3.64,-1.65zm55.54,-25.23l0.83,1.82l3.64,-1.65l-0.83,-1.82l-3.64,1.65zm-9.1,4.14l0.83,1.82l3.64,-1.65l-0.83,-1.82l-3.64,1.65zm-9.11,4.14l0.83,1.82l3.64,-1.65l-0.83,-1.82l-3.64,1.65zm50.08,-22.75l0.83,1.82l3.64,-1.65l-0.83,-1.82l-3.64,1.65zm9.1,-4.14l0.83,1.82l3.64,-1.65l-0.83,-1.82l-3.64,1.65zm9.11,-4.13l0.83,1.82l3.64,-1.65l-0.83,-1.82l-3.64,1.65z" stroke-width="5" stroke-miterlimit="10" stroke-dasharray=""></path><path data-v-9833e8b2="" transform="scale(0.1366120218579235)" fill="none" stroke="currentColor" paint-order="fill stroke markers" d="m175.21,14.02l0,-10.65l-16.57,0l0,-0.11l-17.06,0l-3.38,-2.26l-17.91,0l2.14,7.48l-121.43,55.16l4.24,9.34l2.14,-0.97l-1.13,2.95l-0.17,0.08l0.07,0.16l-0.02,0.04l0.04,0.02l0.73,1.6l3.64,-1.65l-0.83,-1.82l-0.88,0.4l1.13,-2.94l5.84,-2.65l-1.23,3.2l0.99,0.38l0.43,0.95l3.64,-1.65l-0.83,-1.82l-1.55,0.7l1.13,-2.95l5.84,-2.65l-1.13,2.94l-3.38,1.54l0.83,1.82l3.64,-1.65l-0.56,-1.24l1.25,0.48l0.03,-0.08l0.19,0.42l3.64,-1.65l-0.83,-1.82l-2.21,1.01l1.13,-2.95l5.84,-2.65l-1.13,2.95l-2.71,1.23l0.83,1.82l3.64,-1.65l-0.27,-0.6l0.3,0.12l0.39,-1.01l0.49,1.08l3.64,-1.65l-0.83,-1.82l-2.88,1.31l1.13,-2.94l5.84,-2.65l-1.13,2.95l-2.04,0.93l0.83,1.82l3.64,-1.65l-0.38,-0.84l0.5,-1.31l0.79,1.73l3.64,-1.65l-0.83,-1.82l-3.55,1.61l1.13,-2.94l5.84,-2.65l-1.13,2.94l-1.38,0.62l0.83,1.82l3.64,-1.65l-0.68,-1.49l1.32,-3.42l5.84,-2.65l-1.13,2.94l-0.71,0.32l0.83,1.82l3.64,-1.65l-0.83,-1.82l-0.34,0.15l1.13,-2.94l5.84,-2.65l-1.13,2.95l-0.04,0.02l0.02,0.03l-0.02,0.04l0.04,0.02l0.79,1.73l3.64,-1.65l-0.83,-1.82l-1.01,0.46l1.13,-2.95l5.84,-2.65l-1.16,3.01l0.99,0.38l0.49,1.08l3.62,-1.64l0,31.75l4,0l0,-33.63l0.58,-0.26l-0.62,-1.37l1.25,0.48l0.03,-0.08l0.25,0.55l3.64,-1.65l-0.83,-1.82l-2.35,1.07l1.13,-2.94l5.84,-2.65l-1.13,2.94l-2.58,1.17l0.83,1.82l3.64,-1.65l-0.33,-0.72l0.3,0.12l0.39,-1.01l0.55,1.2l3.64,-1.65l-0.83,-1.82l-3.01,1.37l1.13,-2.94l5.84,-2.65l-1.13,2.93l0.01,0.01l-1.93,0.88l0.83,1.82l3.64,-1.65l-0.44,-0.97l1.61,-4.19l5.84,-2.65l-1.12,2.9l0.04,0.02l-1.3,0.59l0.83,1.82l3.64,-1.65l-0.74,-1.62l1.24,-3.23l5.84,-2.65l-1.11,2.88l0.07,0.03l-0.67,0.3l0.83,1.82l3.64,-1.65l-0.83,-1.82l-0.47,0.21l1.13,-2.94l5.64,-2.56l0.07,0.24l-0.97,2.52l0.09,0.04l-0.03,0.02l0.83,1.82l1.18,-0.54l1.75,6.12l5.14,0l0,18.93l4.73,0l0,12.57l-3.55,0l0,15.77l40.68,0l0,-11.83l0,-4l0,-12.57l7.1,0l0,-33.58l-7.04,0zm-165.78,52.66l-2.2,1l-0.93,-2.05l4.29,-1.95l-1.16,3zm8.43,-3.84l-5.84,2.65l1.16,-3l5.84,-2.65l-1.16,3zm8.44,-3.83l-5.84,2.65l1.16,-3l5.84,-2.65l-1.16,3zm8.44,-3.83l-5.84,2.65l1.16,-3l5.84,-2.65l-1.16,3zm8.43,-3.83l-5.84,2.65l1.16,-3l5.84,-2.65l-1.16,3zm8.44,-3.83l-5.84,2.65l1.16,-3l5.84,-2.65l-1.16,3zm8.43,-3.83l-5.84,2.65l1.16,-3l5.84,-2.65l-1.16,3zm8.44,-3.83l-5.84,2.65l1.16,-3l5.84,-2.65l-1.16,3zm2.6,-1.18l1.16,-3l5.84,-2.65l-1.16,3l-5.84,2.65zm11.09,1.78l-3.25,1.48l0.03,0.06l-0.14,0l0,2.12l-0.8,-1.77l-1.68,0.76l1.13,-2.95l5.84,-2.65l-1.13,2.95zm3.18,-8.27l-5.84,2.65l1.16,-3l5.84,-2.65l-1.16,3zm8.44,-3.83l-5.84,2.65l1.16,-3l5.84,-2.65l-1.16,3zm8.43,-3.83l-5.84,2.65l1.16,-3l5.84,-2.65l-1.16,3zm8.44,-3.83l-5.84,2.65l1.16,-3l5.84,-2.65l-1.16,3zm8.43,-3.83l-5.84,2.65l1.16,-3l5.84,-2.65l-1.16,3zm2.6,-1.18l1.16,-3l0.7,-0.32l0.63,2.19l-2.49,1.13zm9.53,8.98l-5.62,-19.67l11.39,0l3.38,2.25l14.27,0l0,13.37l-15.22,4.05l-8.2,0zm13.22,18.93l0,-11.66l6.56,11.66l-6.56,0zm8.81,4l7.07,12.57l-18.25,0l0,-12.57l2.37,0l8.81,0zm-15.91,-4l0,-14.93l2.61,0l0.5,-0.13l0,15.06l-2.37,0l-0.74,0zm33.87,28.4l-32.68,0l0,-7.83l24.05,0l8.64,0l0,7.83l-0.01,0zm0,-57.98l0,4l0,25.58l0,4l0,12.57l-2.37,0l-3.93,0l-7.07,-12.57l-2.25,-4l-9.34,-16.61l12.39,-3.29l0,-16.33l12.57,0l0,6.65zm7.1,29.58l-3.1,0l0,-25.58l3.1,0l0,25.58z" stroke-width="5" stroke-miterlimit="10" stroke-dasharray=""></path></g></svg>