<svg data-v-9833e8b2="" version="1.1" xmlns="http://www.w3.org/2000/svg" xmlns:xlink="http://www.w3.org/1999/xlink" width="25" height="22.5"><g data-v-9833e8b2=""><path data-v-9833e8b2="" transform="scale(0.12690355329949238)" fill="none" stroke="currentColor" paint-order="fill stroke markers" d="m75.00852,1l-7.59169,0l-9.49169,9.54169l0,38.14176l-20.87505,0l-7.58335,13.35003l45.54178,0l0,-61.03349zm10.07503,67.69184l-0.58334,38.4251l56.91681,0s-6.63335,-88.95022 -51.23346,-88.95022l-13.28337,0l0,41.96677l2.61667,0c2.00834,0 5.56668,2.63334 5.56668,8.55836zm-84.08355,56.16681a7.50002,7.50002 0 0 0 7.50002,7.50002l180.45045,0a7.50002,7.50002 0 1 0 0,-15.00004l-180.45045,0a7.50002,7.50002 0 0 0 -7.50002,7.50002zm142.31702,25.10006a7.50002,7.50002 0 0 0 -7.50002,-7.50002l-45.72512,0a7.50002,7.50002 0 1 0 0,15.00004l45.72512,0a7.50002,7.50002 0 0 0 7.50002,-7.50002zm0,23.59173a7.50002,7.50002 0 0 0 -7.50002,-7.50002l-45.72512,0a7.50002,7.50002 0 1 0 0,15.00004l45.72512,0a7.50002,7.50002 0 0 0 7.50002,-7.50002z" stroke-width="5" stroke-miterlimit="10" stroke-dasharray=""></path></g></svg>