<svg data-v-9833e8b2="" version="1.1" xmlns="http://www.w3.org/2000/svg" xmlns:xlink="http://www.w3.org/1999/xlink" width="25" height="25"><g data-v-9833e8b2=""><path data-v-9833e8b2="" transform="scale(0.14450867052023122)" fill="none" stroke="currentColor" paint-order="fill stroke markers" d="m68.43589,71.35643c-23.71256,5.08751 -27.32507,23.25006 -27.32507,23.25006l-6.21252,-17.92505s-10.18753,26.55007 11.67503,45.57511c14.60004,14.70004 30.45008,10.77503 31.72508,10.38753c0.825,1.8375 -12.35003,13.15003 -12.35003,13.15003s15.00004,-2.51251 21.73755,-10.28753c-0.25,-0.0125 14.30004,-14.10004 14.78754,-30.21258c-0.5,-15.41254 -8.21252,-23.76256 -8.21252,-23.76256l18.88755,3.87501s-17.15004,-20.47505 -44.71261,-14.05004zm15.08754,31.66258a11.51253,11.51253 0 1 1 -23.02506,0a11.51253,11.51253 0 0 1 23.02506,0zm82.91271,9.47502a5.75001,5.75001 0 0 0 -4.17501,1.75a5.83751,5.83751 0 0 0 -1.7625,4.20001l0,0.4l-28.10007,0c1.5,-5.50001 2.25001,-11.17503 2.25001,-16.85004c0,-35.23759 -28.45007,-63.80016 -63.55016,-63.80016a63.62516,63.62516 0 0 0 -16.73754,2.25001l0,-27.50007l0.2875,0a5.97502,5.97502 0 1 0 0,-11.93753l-47.40012,0a5.97502,5.97502 0 1 0 0,11.93753l0.3125,0l0,79.9127l0,9.13752c0,35.23759 28.45007,63.80016 63.53766,63.80016l89.40023,0l0,0.3625a5.93751,5.93751 0 1 0 11.86253,0l0,-47.72512a5.92501,5.92501 0 0 0 -5.92501,-5.93751zm-93.60024,38.2376a48.52512,48.52512 0 1 1 0,-97.06274a48.52512,48.52512 0 0 1 0,97.06274zm0,0" stroke-width="5" stroke-miterlimit="10" stroke-dasharray=""></path></g></svg>