<svg data-v-9833e8b2="" version="1.1" xmlns="http://www.w3.org/2000/svg" xmlns:xlink="http://www.w3.org/1999/xlink" width="17" height="25"><g data-v-9833e8b2=""><path data-v-9833e8b2="" transform="scale(0.17482517482517482)" fill="none" stroke="currentColor" paint-order="fill stroke markers" d="m60.96,115.06l-36.74,0l0,-41.57l-23.22,0l41.59,-72.49l41.59,72.48l-23.22,0l0,41.58zm-32.74,-4l28.73,0l0,-41.57l20.32,0l-34.68,-60.45l-34.68,60.45l20.32,0l0,41.57l-0.01,0z" stroke-width="5" stroke-miterlimit="10" stroke-dasharray=""></path><path data-v-9833e8b2="" transform="scale(0.17482517482517482)" fill="none" stroke="currentColor" paint-order="fill stroke markers" d="m60.96,142.98l-36.74,0l0,-20.75l36.73,0l0,20.75l0.01,0zm-32.74,-4l28.73,0l0,-12.75l-28.73,0l0,12.75z" stroke-width="5" stroke-miterlimit="10" stroke-dasharray=""></path></g></svg>