<svg data-v-9833e8b2="" version="1.1" xmlns="http://www.w3.org/2000/svg" xmlns:xlink="http://www.w3.org/1999/xlink" width="25" height="25"><g data-v-9833e8b2=""><path data-v-9833e8b2="" transform="scale(0.16778523489932887)" fill="none" stroke="currentColor" paint-order="fill stroke markers" d="m129.65012,119.55657l0,-15.55948l-20.59942,0l0,-13.73289l20.59942,0l0,-20.59942l-20.59942,0l0,-13.73289l20.59942,0l0,-20.59942l-20.59942,0l0,-13.73305l20.59942,0l0,-13.73289l13.73305,0l0,120.66446c2.25902,2.03258 4.05117,3.93449 5.27345,5.40397l-10.5469,8.78903a49.76819,49.76819 0 0 0 -6.16614,-5.90511c-4.25716,-3.3989 -8.33585,-5.35585 -11.44636,-5.35585c-2.12866,0 -3.08315,0.6867 -6.17306,4.3946c-5.49313,6.59181 -9.30402,9.33829 -16.71981,9.33829s-11.21976,-2.74648 -16.71981,-9.33829c-3.08991,-3.70789 -4.04441,-4.3946 -6.16615,-4.3946c-2.12866,0 -3.08299,0.6867 -6.16615,4.3946c-5.49312,6.59181 -9.31094,9.33829 -16.71981,9.33829c-7.41579,0 -11.22668,-2.74648 -16.71981,-9.33829c-3.08991,-3.70789 -4.05132,-4.3946 -6.17306,-4.3946a15.79283,15.79283 0 0 0 -9.32462,3.13803c-1.68915,1.20844 -2.8152,2.37569 -3.25471,2.96632l-0.74158,0.83766c-1.92267,1.84703 -3.55678,3.53618 -4.51127,4.57307l-10.10739,-9.2971a132.48853,132.48853 0 0 1 4.75155,-4.84086c1.24964,-1.5588 3.19983,-3.49514 5.86391,-5.39721c4.94386,-3.54986 10.75982,-5.7128 17.32411,-5.7128c7.41579,0 11.22668,2.74648 16.71997,9.33829c3.08991,3.7079 4.05117,4.3946 6.17291,4.3946c2.12174,0 3.07623,-0.6867 6.16615,-4.3946c5.49312,-6.59181 9.30402,-9.33829 16.71981,-9.33829s11.22668,2.74648 16.71981,9.33829c3.08991,3.7079 4.05133,4.3946 6.16615,4.3946c2.12866,0 3.08299,-0.6867 6.17291,-4.3946c5.49328,-6.59181 9.30418,-9.33829 16.71997,-9.33829c3.08991,0 6.14539,0.64534 9.1529,1.82643zm-82.39767,-22.42601c-18.88275,0.00016 -34.33231,-15.77883 -34.33231,-35.19732c0,-23.06459 31.88098,-60.93324 34.33231,-60.93324s34.33247,37.86865 34.33247,60.93308c0,19.41849 -15.44956,35.19765 -34.33247,35.19765l0,-0.00016z" stroke-width="5" stroke-miterlimit="10" stroke-dasharray=""></path></g></svg>