<svg data-v-9833e8b2="" version="1.1" xmlns="http://www.w3.org/2000/svg" xmlns:xlink="http://www.w3.org/1999/xlink" width="25" height="25"><g data-v-9833e8b2=""><path data-v-9833e8b2="" transform="scale(0.12437810945273632)" fill="none" stroke="currentColor" paint-order="fill stroke markers" d="m1,100.90858a99.91692,99.91692 0 1 0 199.83384,0.01667a99.91692,99.91692 0 0 0 -199.83384,-0.01667z" stroke-width="5" stroke-miterlimit="10" stroke-dasharray=""></path><path data-v-9833e8b2="" transform="scale(0.12437810945273632)" fill="none" stroke="currentColor" paint-order="fill stroke markers" d="m143.95869,97.78357a5.01668,5.01668 0 0 0 5.15001,-4.88334l-34.44175,-19.56672l0,-46.55845a9.40002,9.40002 0 0 0 -18.79171,0l0,46.58345l-34.41675,19.53338a5.01668,5.01668 0 0 0 5.16668,4.88335l77.33353,0l0,0.00833zm4.16668,6.24168l-83.85021,0a7.58335,7.58335 0 0 0 -7.27502,6.74168l-3.28334,14.82504l-10.75003,17.54171c-1.73334,3.60834 4.83335,3.50834 9.10002,4.66668a24.09173,24.09173 0 0 0 12.53337,0s2.78334,-0.39167 6.40002,-0.73334c2.75834,-2.29167 9.01669,-7.91669 9.55002,-12.33337c0.6,-5.00001 4.35001,9.13336 5.23335,12.6167a2.30001,2.30001 0 0 1 0.71667,0.45833c2.74167,2.75001 11.13336,2.38334 11.13336,2.38334c3.90834,0.88334 7.94169,1.03334 11.9167,0.45834l20.76672,-5.96668l9.84169,4.29168c4.36668,0.70833 8.83335,0.51667 13.1167,-0.55834l0.58334,-0.175c3.09167,-0.95834 4.88334,-2.37501 5.00834,-3.85834a6.30835,6.30835 0 0 0 2.75001,-5.20835l-6.30002,-28.40007a7.47502,7.47502 0 0 0 -7.17502,-6.75002l-0.01667,0z" stroke-width="5" stroke-miterlimit="10" stroke-dasharray=""></path></g></svg>