<svg data-v-9833e8b2="" version="1.1" xmlns="http://www.w3.org/2000/svg" xmlns:xlink="http://www.w3.org/1999/xlink" width="25" height="22.5"><g data-v-9833e8b2=""><path data-v-9833e8b2="" transform="scale(0.12376237623762376)" fill="none" stroke="currentColor" paint-order="fill stroke markers" d="m200.9899,172.86543a13.92122,13.92122 0 0 1 -1.8573,8.09229c-2.62142,4.50872 -7.37718,7.02712 -12.26796,7.03012l-0.10902,0.002c-0.04401,0 -0.08601,-0.002 -0.12902,-0.003a14.26828,14.26828 0 0 1 -8.24132,-2.68643l-64.82035,-37.17193a26.70026,26.70026 0 0 1 -12.545,3.1145a26.71126,26.71126 0 0 1 -12.545,-3.1135l-65.06839,37.31296a14.17426,14.17426 0 0 1 -8.18231,2.58641a14.16926,14.16926 0 0 1 -7.46119,-2.10734l-0.07501,-0.04801a14.04324,14.04324 0 0 1 -4.78676,-4.91278a13.93022,13.93022 0 0 1 -1.83929,-8.27832l0.04301,-95.53025a13.91922,13.91922 0 0 1 1.79429,-8.72539a14.08225,14.08225 0 0 1 7.38018,-6.16998a14.23827,14.23827 0 0 1 4.9958,-0.90314a14.17226,14.17226 0 0 1 8.44535,2.76944l64.84135,37.18294a27.17834,27.17834 0 0 1 2.39438,-1.10018l0,-34.4505c-13.51716,-4.23968 -23.31672,-16.78668 -23.31672,-31.60905c0,-18.30592 14.94539,-33.14629 33.38033,-33.14629c18.43494,0 33.38033,14.84037 33.38033,33.14629c0,14.82237 -9.79956,27.36937 -23.31572,31.60905l0,34.4505c0.81713,0.33205 1.61826,0.69411 2.39338,1.10018l65.18841,-37.38197a14.27228,14.27228 0 0 1 7.72023,-2.5204c0.07001,-0.003 0.14202,-0.004 0.21203,-0.006c0.07001,-0.001 0.13802,-0.005 0.20803,-0.005c0.06101,0 0.12202,0.004 0.18303,0.005a11.32881,11.32881 0 0 1 0.6521,0.021c0.17703,0.01 0.35406,0.023 0.53108,0.03901l0.14402,0.014a13.83221,13.83221 0 0 1 0.68211,0.08701c0.22504,0.03401 0.44907,0.07301 0.67211,0.11802l0.005,0.001a14.15526,14.15526 0 0 1 8.10729,4.82177l0.006,0.007a16.10257,16.10257 0 0 1 0.47808,0.6091c0.06201,0.08401 0.12202,0.16903 0.18303,0.25404c0.09201,0.12902 0.18203,0.26104 0.27004,0.39306c0.023,0.03601 0.04701,0.07101 0.06901,0.10702a13.85821,13.85821 0 0 1 2.12234,5.75092l0.023,0.18103a13.67918,13.67918 0 0 1 0.09502,1.46823c0.001,0.05801 0.004,0.11502 0.004,0.17303l-0.04401,97.42255zm-183.27725,-86.31178l-0.035,76.26717l57.19813,-32.72022a26.42022,26.42022 0 0 1 0.028,-10.83073l-57.19113,-32.71622zm93.987,-50.57807a4.09065,4.09065 0 0 1 4.89078,0l4.22767,3.19751c1.68327,1.2662 3.64858,1.92431 5.71491,2.18335c0.31305,0.07401 0.6391,0.11702 0.97516,0.11702c0.08201,0 0.16203,-0.007 0.24204,-0.012l0.22304,0.012l0,-0.027c2.09133,-0.22704 3.71859,-1.97232 3.71859,-4.09165s-1.62726,-3.86362 -3.71859,-4.09165l0,-0.027c-0.6351,-0.10202 -1.2522,-0.50208 -1.79329,-0.90414l-4.33869,-3.24652a12.84105,12.84105 0 0 0 -15.38346,0l-4.34269,3.24652a4.09565,4.09565 0 0 1 -4.88878,0l-4.34269,-3.24652a12.83805,12.83805 0 0 0 -15.37946,0l-5.6169,4.23868a4.31469,4.31469 0 0 0 -0.6501,5.92095a4.3647,4.3647 0 0 0 5.90594,0.96515l5.6129,-4.23468a4.09765,4.09765 0 0 1 4.89378,0l4.32969,3.24352a12.82605,12.82605 0 0 0 15.37945,0l4.34069,-3.24352zm15.32445,82.86123c0.43607,1.9003 0.68811,3.87062 0.68811,5.90194c0,1.79929 -0.18503,3.55557 -0.52908,5.25484l56.81707,32.49519l0.035,-76.25717l-57.0111,32.60521z" stroke-width="5" stroke-miterlimit="10" stroke-dasharray=""></path></g></svg>