<svg data-v-9833e8b2="" version="1.1" xmlns="http://www.w3.org/2000/svg" xmlns:xlink="http://www.w3.org/1999/xlink" width="25" height="25"><g data-v-9833e8b2=""><path data-v-9833e8b2="" transform="scale(0.12886597938144329)" fill="none" stroke="currentColor" paint-order="fill stroke markers" d="m184.68132,1l-174.78325,0c-5.08458,0 -8.89807,4.13126 -8.89807,8.89807l0,29.87195c0,5.08478 4.13126,8.89807 8.89807,8.89807l30.82547,0l27.32976,46.07922l0,1.27129c0,14.6182 10.48694,26.37624 24.46959,28.60085l0,18.74946c0,0.63555 0.63555,1.58887 1.58887,1.58887l3.49571,0c12.07601,0 18.43169,9.21584 18.43169,18.43169c0,8.5803 -6.03791,15.88949 -13.98265,17.79614c0,0 -2.22461,0.63555 -4.44903,0.63555s-4.44903,-0.63555 -4.44903,-0.63555c-6.03791,-1.58887 -10.80471,-6.03791 -13.02933,-11.75804c-0.31777,-0.63574 -0.95313,-1.58907 -2.22461,-1.58907l-8.5801,0c-1.58887,0 -1.90665,0.63555 -1.90665,1.90684c2.54219,12.39359 12.71136,22.24498 25.42292,23.83404c0,0 2.22461,0.31777 4.44903,0.31777c1.90665,0 4.44903,-0.31777 4.44903,-0.31777c14.93598,-2.22461 26.37643,-14.93598 26.37643,-30.18992c0,-13.66488 -9.21584,-25.74069 -22.56295,-29.55418c-1.90684,-0.63555 -3.17774,-2.22461 -3.17774,-4.13126l0,-5.40236c13.34691,-2.54239 23.51607,-14.30043 23.51607,-28.60085l0,-1.27129l27.32976,-46.07922l30.82547,0c5.08458,0 8.89807,-4.13126 8.89807,-8.89807l0,-29.87195c0.63555,-4.44923 -3.49571,-8.5801 -8.26252,-8.5801l0,-0.0002zm-61.01519,83.26037c-4.44923,-10.16917 -14.6182,-17.16059 -26.37643,-17.16059s-21.9274,6.99142 -26.37643,17.16059l-22.88072,-35.2745l99.14986,0l-23.51627,35.2745z" stroke-width="5" stroke-miterlimit="10" stroke-dasharray=""></path></g></svg>