<svg data-v-9833e8b2="" version="1.1" xmlns="http://www.w3.org/2000/svg" xmlns:xlink="http://www.w3.org/1999/xlink" width="27" height="25"><g data-v-9833e8b2=""><path data-v-9833e8b2="" transform="scale(0.14204545454545456)" fill="none" stroke="currentColor" paint-order="fill stroke markers" d="m118.8128,98.12915l-72.79315,0c-9.64846,0 -18.76958,-3.78907 -25.6446,-10.66409c-6.87502,-6.87502 -10.66409,-15.9766 -10.66409,-25.6446l0,-13.84769c0,-9.64846 3.78907,-18.76958 10.66409,-25.6446c6.87502,-6.87502 15.9766,-10.66409 25.6446,-10.66409l72.79315,0c1.40625,0 2.53907,1.13282 2.53907,2.53907l0,81.36739c0,1.40625 -1.13282,2.5586 -2.53907,2.5586zm-72.79315,-82.63693c-17.9102,0 -32.48055,14.57035 -32.48055,32.48055l0,13.84769c0,17.9102 14.57035,32.48055 32.48055,32.48055l71.50409,0l0,-78.80879l-71.50409,0z" stroke-width="5" stroke-miterlimit="10" stroke-dasharray=""></path><path data-v-9833e8b2="" transform="scale(0.14204545454545456)" fill="none" stroke="currentColor" paint-order="fill stroke markers" d="m170.80512,61.91812l0,-11.66019c0,-0.3125 -0.23438,-0.58594 -0.54688,-0.625l-10.39065,-1.44532c-0.27344,-0.03906 -0.46875,-0.23438 -0.52735,-0.50781c-1.07422,-5.58595 -3.26173,-10.78128 -6.30861,-15.3516c-0.15625,-0.23438 -0.13672,-0.52735 0.03906,-0.74219l6.7383,-8.43752c0.19531,-0.25391 0.17578,-0.60547 -0.03906,-0.83985l-8.26174,-8.22268c-0.21484,-0.21484 -0.56641,-0.25391 -0.82031,-0.05859l-8.69143,6.56252c-0.21484,0.15625 -0.50781,0.17578 -0.72266,0.01953c-4.45314,-2.96876 -9.51174,-5.09767 -14.94144,-6.19142c-0.27344,-0.05859 -0.46875,-0.27344 -0.50781,-0.54688l-1.15235,-10.42971c-0.03906,-0.3125 -0.3125,-0.56641 -0.625,-0.56641l-11.66019,0c-0.3125,0 -0.58594,0.23438 -0.625,0.54688l-1.44532,10.42971c-0.03906,0.27344 -0.23438,0.46875 -0.50781,0.52735c-5.27345,1.03516 -10.17581,3.04688 -14.55082,5.85939c-0.23438,0.13672 -0.52735,0.13672 -0.72266,-0.03906l-8.39846,-6.71877c-0.25391,-0.19531 -0.60547,-0.17578 -0.83985,0.03906l-8.24221,8.24221c-0.21484,0.21484 -0.25391,0.56641 -0.05859,0.82031l6.34767,8.39846c0.15625,0.21484 0.17578,0.50781 0.01953,0.74219c-3.14454,4.53126 -5.41017,9.70706 -6.58205,15.29301c-0.05859,0.27344 -0.27344,0.46875 -0.54688,0.48828l-10.48831,1.17188c-0.3125,0.03906 -0.56641,0.3125 -0.56641,0.625l0,11.66019c0,0.3125 0.23438,0.58594 0.54688,0.625l10.35159,1.44532c0.27344,0.03906 0.46875,0.23438 0.52735,0.50781c1.03516,5.52736 3.16407,10.68362 6.15236,15.21488c0.15625,0.23438 0.13672,0.52735 -0.03906,0.74219l-6.38673,7.9883c-0.19531,0.25391 -0.17578,0.60547 0.03906,0.83985l8.24221,8.24221c0.21484,0.21484 0.56641,0.25391 0.82031,0.05859l8.08596,-6.1133c0.21484,-0.15625 0.50781,-0.17578 0.72266,-0.01953c4.51173,3.08595 9.66799,5.31251 15.19535,6.44533c0.27344,0.05859 0.46875,0.27344 0.50781,0.54688l1.17188,10.46878c0.03906,0.3125 0.3125,0.56641 0.625,0.56641l11.66019,0c0.3125,0 0.58594,-0.23438 0.625,-0.54688l1.44532,-10.39065c0.03906,-0.27344 0.23438,-0.46875 0.50781,-0.52735c5.62501,-1.07422 10.83987,-3.28126 15.4102,-6.34767c0.23438,-0.15625 0.52735,-0.13672 0.74219,0.01953l8.06643,6.44533c0.25391,0.19531 0.60547,0.17578 0.83985,-0.03906l8.28127,-8.26174c0.21484,-0.21484 0.25391,-0.56641 0.05859,-0.82031l-6.28908,-8.32033c-0.15625,-0.21484 -0.17578,-0.50781 -0.01953,-0.72266c2.94923,-4.41407 5.07814,-9.41409 6.17189,-14.80472c0.05859,-0.27344 0.27344,-0.46875 0.54688,-0.50781l10.46878,-1.17188c0.3125,-0.01953 0.54688,-0.29297 0.54688,-0.60547z" stroke-width="5" stroke-miterlimit="10" stroke-dasharray=""></path><path data-v-9833e8b2="" transform="scale(0.14204545454545456)" fill="none" stroke="currentColor" paint-order="fill stroke markers" d="m123.46125,110.41434l-11.66019,0c-1.28907,0 -2.38282,-0.97656 -2.51954,-2.26563l-1.05469,-9.53127c-5.07814,-1.15235 -9.84377,-3.1836 -14.21879,-6.03517l-7.3633,5.56642c-0.9961,0.76172 -2.44141,0.66406 -3.32032,-0.23438l-8.24221,-8.24221c-0.91797,-0.91797 -0.9961,-2.36329 -0.19531,-3.37891l5.82033,-7.26564c-2.75391,-4.39454 -4.66798,-9.16018 -5.7422,-14.21879l-9.45315,-1.3086c-1.25,-0.17578 -2.18751,-1.25 -2.18751,-2.51954l0,-11.66019c0,-1.28907 0.97656,-2.38282 2.26563,-2.51954l9.57034,-1.05469c1.19141,-5.1172 3.2422,-9.9219 6.15236,-14.29691l-5.8008,-7.6758c-0.76172,-0.9961 -0.66406,-2.44141 0.23438,-3.32032l8.24221,-8.24221c0.91797,-0.91797 2.36329,-0.9961 3.37891,-0.19531l7.69533,6.15236c4.19923,-2.57813 8.73049,-4.39454 13.53519,-5.44923l1.32813,-9.53127c0.17578,-1.25 1.25,-2.18751 2.51954,-2.18751l11.66019,0c1.28907,0 2.38282,0.97656 2.51954,2.26563l1.05469,9.51174c4.96095,1.11328 9.62893,3.04688 13.92582,5.78126l7.96877,-6.01564c0.9961,-0.76172 2.44141,-0.66406 3.32032,0.23438l8.24221,8.24221c0.91797,0.91797 0.9961,2.36329 0.19531,3.37891l-6.15236,7.69533c2.81251,4.41407 4.8047,9.2383 5.89845,14.3555l9.49221,1.3086c1.25,0.17578 2.18751,1.25 2.18751,2.51954l0,11.64065c0,1.28907 -0.97656,2.38282 -2.26563,2.51954l-9.53127,1.05469c-1.11328,4.90236 -3.04688,9.55081 -5.76173,13.7891l5.7422,7.59768c0.76172,0.9961 0.66406,2.44141 -0.23438,3.32032l-8.24221,8.24221c-0.91797,0.91797 -2.36329,0.9961 -3.37891,0.19531l-7.38283,-5.85939c-4.4336,2.85157 -9.27737,4.84376 -14.43363,5.93751l-1.3086,9.49221c-0.17578,1.26953 -1.25,2.20704 -2.50001,2.20704zm-10.52737,-3.82813l9.39455,0l1.28907,-9.27737c0.15625,-1.07422 0.97656,-1.9336 2.03126,-2.14844c5.27345,-1.01563 10.2344,-3.06641 14.70707,-6.07423c0.91797,-0.625 2.12891,-0.56641 3.00782,0.11719l7.16799,5.7422l6.64064,-6.64064l-5.60548,-7.42189c-0.64453,-0.85938 -0.6836,-2.03126 -0.07813,-2.92969c2.8711,-4.31642 4.84376,-9.06252 5.89845,-14.12113c0.21484,-1.07422 1.11328,-1.89454 2.20704,-2.01172l9.31643,-1.03516l0,-9.41409l-9.27737,-1.28907c-1.07422,-0.15625 -1.9336,-0.97656 -2.14844,-2.03126c-1.01563,-5.25392 -3.04688,-10.17581 -6.01564,-14.64847c-0.625,-0.91797 -0.56641,-2.12891 0.11719,-2.98829l6.01564,-7.53908l-6.64064,-6.64064l-7.79299,5.89845c-0.85938,0.64453 -2.03126,0.6836 -2.92969,0.07813c-4.35548,-2.89063 -9.14065,-4.88282 -14.25785,-5.89845c-1.09375,-0.21484 -1.89454,-1.11328 -2.03126,-2.20704l-1.03516,-9.27737l-9.39455,0l-1.28907,9.31643c-0.15625,1.07422 -0.95703,1.9336 -2.03126,2.14844c-4.96095,0.97656 -9.62893,2.85157 -13.88675,5.58595c-0.91797,0.58594 -2.10938,0.52735 -2.94923,-0.15625l-7.50002,-5.99611l-6.64064,6.64064l5.68361,7.51955c0.66406,0.87891 0.6836,2.07032 0.05859,2.96876c-3.06641,4.4336 -5.17579,9.33596 -6.26955,14.58988c-0.23438,1.07422 -1.11328,1.875 -2.20704,2.01172l-9.35549,1.03516l0,9.39455l9.25784,1.28907c1.07422,0.15625 1.9336,0.97656 2.14844,2.05079c0.97656,5.19533 2.94923,10.07815 5.85939,14.51176c0.60547,0.91797 0.54688,2.10938 -0.13672,2.96876l-5.66408,7.08986l6.64064,6.64064l7.20705,-5.44923c0.87891,-0.66406 2.05079,-0.6836 2.96876,-0.07813c4.41407,3.00782 9.2969,5.07814 14.51176,6.15236c1.07422,0.21484 1.89454,1.11328 2.01172,2.20704l0.9961,9.31643zm-33.65243,69.39471l-4.37501,0c-11.58206,0 -21.01568,-9.43362 -21.01568,-21.01568l0,-32.57821c0,-1.40625 1.13282,-2.53907 2.53907,-2.53907l41.32823,0c1.40625,0 2.53907,1.13282 2.53907,2.53907l0,32.57821c0,11.58206 -9.41409,21.01568 -21.01568,21.01568zm-21.56255,-52.32435l0,31.30867c0,9.47268 7.71486,17.18754 17.18754,17.18754l4.37501,0c9.47268,0 17.18754,-7.71486 17.18754,-17.18754l0,-31.30867l-38.7501,0z" stroke-width="5" stroke-miterlimit="10" stroke-dasharray=""></path><path data-v-9833e8b2="" transform="scale(0.14204545454545456)" fill="none" stroke="currentColor" paint-order="fill stroke markers" d="m104.24245,123.91047l-54.27748,0c-1.40625,0 -2.53907,-1.13282 -2.53907,-2.53907l0,-24.88288c0,-1.40625 1.13282,-2.53907 2.53907,-2.53907l54.27748,0c1.40625,0 2.53907,1.13282 2.53907,2.53907l0,24.88288c0,1.40625 -1.15235,2.53907 -2.53907,2.53907zm-52.98841,-3.82813l51.69935,0l0,-22.30474l-51.69935,0l0,22.30474zm106.95339,-52.83216l-80.41036,0c-0.35156,0 -0.625,-0.27344 -0.625,-0.625c0,-0.35156 0.27344,-0.625 0.625,-0.625l80.41036,0c0.35156,0 0.625,0.27344 0.625,0.625c0,0.33203 -0.27344,0.625 -0.625,0.625zm-0.37109,-23.82818l-80.39083,0c-0.35156,0 -0.625,-0.27344 -0.625,-0.625c0,-0.35156 0.27344,-0.625 0.625,-0.625l80.41036,0c0.35156,0 0.625,0.27344 0.625,0.625c-0.01953,0.35156 -0.29297,0.625 -0.64453,0.625zm-120.64483,11.4844l-32.26571,0c-2.16797,0 -3.92579,-1.77735 -3.92579,-3.92579l0,-8.82815c0,-2.16797 1.77735,-3.92579 3.92579,-3.92579l23.14459,0c5.39064,0 9.76565,4.37501 9.76565,9.76565l0,6.30861c0,0.3125 -0.29297,0.60547 -0.64453,0.60547zm-9.12112,19.23833l-23.78912,0c-1.81641,0 -3.28126,-1.48438 -3.28126,-3.28126l0,-10.13674c0,-1.81641 1.48438,-3.28126 3.28126,-3.28126l32.91024,0c0.35156,0 0.64453,0.29297 0.64453,0.64453l0,6.30861c0,5.37111 -4.37501,9.74612 -9.76565,9.74612zm70.95721,-19.14067c0,-1.91407 0.3125,-3.35938 0.95703,-4.33595c0.625,-0.97656 1.5625,-1.46485 2.75391,-1.46485c2.28516,0 3.43751,1.85547 3.43751,5.54689c0,1.83594 -0.33203,3.22266 -0.97656,4.19923s-1.54297,1.44532 -2.71485,1.44532c-1.09375,0 -1.95313,-0.46875 -2.5586,-1.38672c-0.58594,-0.91797 -0.89844,-2.26563 -0.89844,-4.00392zm1.40625,-0.07813c0,2.8711 0.72266,4.31642 2.18751,4.31642c1.44532,0 2.14844,-1.46485 2.14844,-4.39454c0,-3.02735 -0.70313,-4.53126 -2.10938,-4.53126c-1.48438,0 -2.22657,1.54297 -2.22657,4.60939zm7.01174,0.07813c0,-1.91407 0.3125,-3.35938 0.95703,-4.33595c0.625,-0.97656 1.5625,-1.46485 2.75391,-1.46485c2.28516,0 3.43751,1.85547 3.43751,5.54689c0,1.83594 -0.33203,3.22266 -0.97656,4.19923s-1.54297,1.44532 -2.71485,1.44532c-1.09375,0 -1.95313,-0.46875 -2.5586,-1.38672c-0.60547,-0.91797 -0.89844,-2.26563 -0.89844,-4.00392zm1.38672,-0.07813c0,2.8711 0.72266,4.31642 2.18751,4.31642c1.44532,0 2.14844,-1.46485 2.14844,-4.39454c0,-3.02735 -0.70313,-4.53126 -2.10938,-4.53126c-1.48438,0 -2.22657,1.54297 -2.22657,4.60939zm7.20705,4.55079c0,-0.25391 0.07813,-0.46875 0.25391,-0.64453c0.17578,-0.17578 0.39063,-0.25391 0.64453,-0.25391c0.25391,0 0.46875,0.07813 0.64453,0.25391c0.17578,0.17578 0.25391,0.39063 0.25391,0.625c0,0.23438 -0.07813,0.44922 -0.25391,0.625c-0.17578,0.17578 -0.39063,0.25391 -0.66406,0.25391c-0.25391,0 -0.46875,-0.07813 -0.64453,-0.25391c-0.15625,-0.15625 -0.23438,-0.35156 -0.23438,-0.60547zm3.2422,-4.47267c0,-1.91407 0.3125,-3.35938 0.95703,-4.33595c0.625,-0.97656 1.5625,-1.46485 2.75391,-1.46485c2.28516,0 3.43751,1.85547 3.43751,5.54689c0,1.83594 -0.33203,3.22266 -0.97656,4.19923s-1.54297,1.44532 -2.71485,1.44532c-1.09375,0 -1.95313,-0.46875 -2.5586,-1.38672c-0.58594,-0.91797 -0.89844,-2.26563 -0.89844,-4.00392zm1.40625,-0.07813c0,2.8711 0.72266,4.31642 2.18751,4.31642c1.44532,0 2.14844,-1.46485 2.14844,-4.39454c0,-3.02735 -0.70313,-4.53126 -2.10938,-4.53126c-1.48438,0 -2.22657,1.54297 -2.22657,4.60939zm7.01174,0.07813c0,-1.91407 0.3125,-3.35938 0.95703,-4.33595c0.625,-0.97656 1.5625,-1.46485 2.75391,-1.46485c2.28516,0 3.43751,1.85547 3.43751,5.54689c0,1.83594 -0.33203,3.22266 -0.97656,4.19923s-1.54297,1.44532 -2.71485,1.44532c-1.09375,0 -1.95313,-0.46875 -2.5586,-1.38672c-0.60547,-0.91797 -0.89844,-2.26563 -0.89844,-4.00392zm1.38672,-0.07813c0,2.8711 0.72266,4.31642 2.18751,4.31642c1.44532,0 2.14844,-1.46485 2.14844,-4.39454c0,-3.02735 -0.70313,-4.53126 -2.10938,-4.53126c-1.48438,0 -2.22657,1.54297 -2.22657,4.60939zm7.01174,0.07813c0,-1.91407 0.3125,-3.35938 0.95703,-4.33595c0.625,-0.97656 1.5625,-1.46485 2.75391,-1.46485c2.28516,0 3.43751,1.85547 3.43751,5.54689c0,1.83594 -0.33203,3.22266 -0.97656,4.19923s-1.54297,1.44532 -2.71485,1.44532c-1.09375,0 -1.95313,-0.46875 -2.5586,-1.38672c-0.60547,-0.91797 -0.89844,-2.26563 -0.89844,-4.00392zm1.38672,-0.07813c0,2.8711 0.72266,4.31642 2.18751,4.31642c1.44532,0 2.14844,-1.46485 2.14844,-4.39454c0,-3.02735 -0.70313,-4.53126 -2.10938,-4.53126c-1.46485,0 -2.22657,1.54297 -2.22657,4.60939z" stroke-width="5" stroke-miterlimit="10" stroke-dasharray=""></path><path data-v-9833e8b2="" transform="scale(0.14204545454545456)" fill="none" stroke="currentColor" paint-order="fill stroke markers" d="m37.1915,57.44545l-15.23441,0c-0.35156,0 -0.64453,-0.29297 -0.64453,-0.64453l0,-1.26953c0,-0.35156 0.29297,-0.64453 0.64453,-0.64453l15.23441,0c0.35156,0 0.64453,0.29297 0.64453,0.64453l0,1.26953c0,0.35156 -0.29297,0.64453 -0.64453,0.64453z" stroke-width="5" stroke-miterlimit="10" stroke-dasharray=""></path><path data-v-9833e8b2="" transform="scale(0.14204545454545456)" fill="none" stroke="currentColor" paint-order="fill stroke markers" d="m2.71875,46.15636a3.06641,4.96095 0 1 0 6.13283,0a3.06641,4.96095 0 1 0 -6.13283,0z" stroke-width="5" stroke-miterlimit="10" stroke-dasharray=""></path><path data-v-9833e8b2="" transform="scale(0.14204545454545456)" fill="none" stroke="currentColor" paint-order="fill stroke markers" d="m2.71875,65.80485a3.06641,4.96095 0 1 0 6.13283,0a3.06641,4.96095 0 1 0 -6.13283,0z" stroke-width="5" stroke-miterlimit="10" stroke-dasharray=""></path></g></svg>