<svg data-v-9833e8b2="" version="1.1" xmlns="http://www.w3.org/2000/svg" xmlns:xlink="http://www.w3.org/1999/xlink" width="22" height="25"><g data-v-9833e8b2=""><path data-v-9833e8b2="" transform="scale(0.25)" fill="none" stroke="currentColor" paint-order="fill stroke markers" d="m97.42602,80.00411l-0.01953,-0.11719l-6.66017,-12.20706l-9.14065,0l0,-15.50785l-61.19156,0l0,15.50785l-7.03127,0l0,-5.87892l3.4961,-3.8672l0.01953,0.01953c1.19141,0 2.14844,-8.57424 2.14844,-19.14067s-0.95703,-19.14067 -2.14844,-19.14067l-0.01953,0.01953l-3.4961,-3.8672l0,-12.10941l-4.82423,-2.48047l-2.53907,0l0,76.8166l-0.01953,0.03906c-1.23047,0.76172 -2.08985,2.05079 -2.08985,3.61329l0,89.96116c0,2.38282 1.9336,4.31642 4.31642,4.31642l85.19553,0c2.38282,0 4.31642,-1.9336 4.31642,-4.31642l0,-89.96116c0.01953,-0.60547 -0.09766,-1.17188 -0.3125,-1.69922zm-68.35955,-19.17974l43.88683,0l0,6.85549l-43.88683,0l0,-6.85549zm22.63678,9.45315c17.63676,0 31.93367,1.58204 31.93367,3.51563s-14.29691,3.51563 -31.93367,3.51563s-31.93367,-1.58204 -31.93367,-3.51563s14.29691,-3.51563 31.93367,-3.51563zm37.42197,97.07056l-76.54316,0l0,-37.20712l76.54316,0l0,37.20712zm0,-44.1212l-76.54316,0l0,-37.18759l76.54316,0l0,37.18759z" stroke-width="5" stroke-miterlimit="10" stroke-dasharray=""></path><path data-v-9833e8b2="" transform="scale(0.25)" fill="none" stroke="currentColor" paint-order="fill stroke markers" d="m1,1l3.20313,0l0,77.36348l-3.20313,0l0,-77.36348zm21.28912,37.08994c0,-1.69922 -0.48828,-3.06641 -1.07422,-3.06641s-1.07422,1.36719 -1.07422,3.06641s0.46875,3.06641 1.07422,3.06641s1.07422,-1.36719 1.07422,-3.06641zm47.14856,52.96888l14.19925,0l0,8.65237l-14.19925,0l0,-8.65237z" stroke-width="5" stroke-miterlimit="10" stroke-dasharray=""></path></g></svg>