<svg data-v-9833e8b2="" version="1.1" xmlns="http://www.w3.org/2000/svg" xmlns:xlink="http://www.w3.org/1999/xlink" width="25" height="25"><g data-v-9833e8b2=""><path data-v-9833e8b2="" transform="scale(0.13227513227513227)" fill="none" stroke="currentColor" paint-order="fill stroke markers" d="m111.00029,63.10542l-33.6843,0c-2.10527,0 -3.68422,1.57895 -3.68422,3.68422s1.57895,3.68422 3.68422,3.68422l33.6843,0c2.10527,0 3.68422,-1.57895 3.68422,-3.68422s-1.57895,-3.68422 -3.68422,-3.68422zm0,13.68425l-33.6843,0c-2.10527,0 -3.68422,1.57895 -3.68422,3.68422s1.57895,3.68422 3.68422,3.68422l33.6843,0c2.10527,0 3.68422,-1.57895 3.68422,-3.68422s-1.57895,-3.68422 -3.68422,-3.68422z" stroke-width="5" stroke-miterlimit="10" stroke-dasharray=""></path><path data-v-9833e8b2="" transform="scale(0.13227513227513227)" fill="none" stroke="currentColor" paint-order="fill stroke markers" d="m149.42144,39.94747l-37.89483,0l0,-16.84215l10.52634,0c1.57895,8.42107 8.94739,14.73688 17.89478,14.73688c10.00003,0 18.4211,-8.42107 18.4211,-18.4211s-8.42107,-18.4211 -18.4211,-18.4211c-8.94739,0 -16.31583,6.3158 -17.89478,14.73688l-10.52634,0l0,-5.26317c0,-5.26317 -4.21054,-9.47371 -9.47371,-9.47371l-21.05268,0c-5.26317,0 -9.47371,4.21054 -9.47371,9.47371l0,28.94744l-32.63166,0c-21.05268,0 -37.89483,16.84215 -37.89483,37.89483l0,38.94747c0,20.00005 15.2632,35.78956 34.73693,37.89483l0,6.3158c-3.1579,1.05263 -4.73685,3.1579 -4.73685,6.3158l0,8.94739c0,3.68422 3.1579,6.84212 6.84212,6.84212l31.05271,0c3.68422,0 6.84212,-3.1579 6.84212,-6.84212l0,-8.94739c0,-3.1579 -2.10527,-5.78949 -5.26317,-6.84212l0,-5.78949l48.94749,0l0,6.3158c-2.63159,1.05263 -4.73685,3.1579 -4.73685,6.3158l0,8.94739c0,3.68422 3.1579,6.84212 6.84212,6.84212l31.05271,0c3.68422,0 6.84212,-3.1579 6.84212,-6.84212l0,-8.94739c0,-3.1579 -2.10527,-5.78949 -5.26317,-6.84212l0,-5.78949c18.94742,-2.10527 34.21061,-17.89478 34.21061,-37.89483l0,-38.94747c-1.05263,-20.52637 -17.89478,-37.36852 -38.94747,-37.36852zm-8.94739,-31.05271c5.78949,0 11.05266,4.73685 11.05266,11.05266s-4.73686,11.05266 -11.05266,11.05266s-11.05266,-4.73686 -11.05266,-11.05266s4.73685,-11.05266 11.05266,-11.05266zm-14.21056,151.05301l0,-20.00005c0,-5.26317 4.21054,-10.00003 10.00003,-10.00003s10.00003,4.21054 10.00003,10.00003l0,20.00005l-20.00005,0zm0,-112.63186l19.47373,0l0,78.94757c-2.63158,-2.10527 -6.3158,-3.1579 -10.00003,-3.1579s-6.84212,1.05264 -10.00003,3.1579l0,-78.94757l0.52632,0zm-46.84222,-36.31588c0,-1.05264 1.05263,-2.10527 2.10527,-2.10527l21.05268,0c1.05263,0 2.10527,1.05263 2.10527,2.10527l0,28.94744l-25.26322,0l0,-28.94744zm-36.31588,128.94769c0,-5.26317 4.21054,-10.00003 10.00003,-10.00003s10.00003,4.21054 10.00003,10.00003l0,6.84212l-20.00005,0l0,-6.84212zm19.47373,-14.21056c-2.63158,-2.10527 -6.3158,-3.1579 -10.00003,-3.1579s-6.84212,1.05263 -10.00003,3.1579l0,-78.94757l20.00005,0l0,78.94757zm-54.21066,-8.94739l0,-38.94747c0,-15.78951 12.10529,-28.42112 27.36849,-30.52639l0,99.47393c-15.2632,-1.57895 -27.36849,-14.73688 -27.36849,-30.00008zm59.47383,58.4212l-29.47376,0l0,-7.89476l29.47376,0l0,7.89476zm-5.26317,-15.2632l-19.47373,0l0,-5.78949l19.47373,0l0,5.78949zm7.36844,-12.63161l0,-100.00025l48.94749,0l0,100.00025l-48.94749,0l0,0zm81.05284,27.89481l-30.00008,0l0,-7.89476l30.00008,0l0,7.89476zm28.94744,-58.4212c0,15.78951 -11.57898,28.42112 -26.84217,30.00008l0,-99.47393c15.26319,1.57895 26.84217,14.73688 26.84217,30.00008l0,39.47378l0,0z" stroke-width="5" stroke-miterlimit="10" stroke-dasharray=""></path></g></svg>