<svg data-v-9833e8b2="" version="1.1" xmlns="http://www.w3.org/2000/svg" xmlns:xlink="http://www.w3.org/1999/xlink" width="14.5" height="25"><g data-v-9833e8b2=""><path data-v-9833e8b2="" transform="scale(0.15060240963855423)" fill="none" stroke="currentColor" paint-order="fill stroke markers" d="m87,36l0,6l0,123l-6,0l0,-123l-25,0l0,-6l-24,0l0,6l-25,0l0,123l-6,0l0,-123l0,-6l16,0l0,-8l54,0l0,8l16,0z" stroke-width="5" stroke-miterlimit="10" stroke-dasharray=""></path><path data-v-9833e8b2="" transform="scale(0.15060240963855423)" fill="none" stroke="currentColor" paint-order="fill stroke markers" d="m77,141l0,11l-66,0l0,-11l66,0z" stroke-width="5" stroke-miterlimit="10" stroke-dasharray=""></path><path data-v-9833e8b2="" transform="scale(0.15060240963855423)" fill="none" stroke="currentColor" paint-order="fill stroke markers" d="m11,46l0,91l66,0l0,-91l-66,0zm13,84l-8,0l0,-8l8,0l0,8zm0,-34l-8,0l0,-8l8,0l0,8zm0,-34l-8,0l0,-8l8,0l0,8zm12,50l-8,0l0,-8l8,0l0,8zm0,-34l-8,0l0,-8l8,0l0,8zm12,52l-8,0l0,-8l8,0l0,8zm0,-34l-8,0l0,-8l8,0l0,8zm0,-34l-8,0l0,-8l8,0l0,8zm12,50l-8,0l0,-8l8,0l0,8zm0,-34l-8,0l0,-8l8,0l0,8zm12,52l-8,0l0,-8l8,0l0,8zm0,-34l-8,0l0,-8l8,0l0,8zm0,-34l-8,0l0,-8l8,0l0,8z" stroke-width="5" stroke-miterlimit="10" stroke-dasharray=""></path><path data-v-9833e8b2="" transform="scale(0.15060240963855423)" fill="none" stroke="currentColor" paint-order="fill stroke markers" d="m45,1l-2,0c-7.05,0 -12.87,5.22 -13.84,12l29.68,0c-0.97,-6.78 -6.79,-12 -13.84,-12z" stroke-width="5" stroke-miterlimit="10" stroke-dasharray=""></path><path data-v-9833e8b2="" transform="scale(0.15060240963855423)" fill="none" stroke="currentColor" paint-order="fill stroke markers" d="m59,17l0,7l-30,0l0,-7l30,0z" stroke-width="5" stroke-miterlimit="10" stroke-dasharray=""></path></g></svg>