<svg data-v-9833e8b2="" version="1.1" xmlns="http://www.w3.org/2000/svg" xmlns:xlink="http://www.w3.org/1999/xlink" width="25" height="17.5"><g data-v-9833e8b2=""><path data-v-9833e8b2="" transform="scale(0.14204545454545456)" fill="none" stroke="currentColor" paint-order="fill stroke markers" d="m168.95355,1l-87.41428,0c-3.92774,0 -6.87502,2.94532 -6.87502,6.87502l0,94.29125c0,3.92774 2.94727,6.87502 6.87502,6.87502l26.5196,0c1.96485,-11.78714 11.78714,-20.62505 23.57232,-20.62505c11.78714,0 21.60748,8.83987 23.57232,20.62505l13.75003,0c3.9297,0 6.87502,-2.94727 6.87502,-6.87502l0,-94.29125c0.00195,-3.9297 -2.94532,-6.87502 -6.87502,-6.87502zm-53.56068,55.37905l-0.25195,4.03517s-5.16603,0.33984 -5.6465,0.33984c-5.26954,0.07422 -10.34964,-1.95704 -14.11332,-5.6465a19.92368,19.92368 0 0 1 -5.64455,-15.60941l0.25391,-4.06251l4.17579,-0.25586l0,0.00195l0,-0.05859c5.76955,-0.49219 11.46487,1.57227 15.58012,5.6465a19.92075,19.92075 0 0 1 5.6465,15.60941zm14.28519,22.52154c0,1.79297 -1.45313,3.2461 -3.2461,3.2461s-3.2461,-1.45313 -3.2461,-3.2461l0,-21.08404c0,-1.79297 1.45313,-3.2461 3.2461,-3.2461l0,0.00195c0.88086,0 1.72461,0.35742 2.33594,0.99024c0.61133,0.63281 0.94141,1.48828 0.91016,2.36719l0,20.97076zm0.11133,-32.31649l-3.35938,3.24415l-3.41602,-2.96485a21.70826,21.70826 0 0 1 -7.70705,-15.97465a24.56061,24.56061 0 0 1 7.76174,-18.26176l3.35938,-3.2168l3.44337,2.82618a21.70123,21.70123 0 0 1 7.84572,16.08793c0.05664,6.93361 -2.82423,13.56644 -7.92775,18.25981zm27.68562,8.63869c-3.75978,3.68751 -8.84182,5.71876 -14.10941,5.64455l-5.6465,-0.33984l-0.22461,-4.03517c-0.54297,-5.78126 1.51172,-11.50394 5.60548,-15.62113a19.55864,19.55864 0 0 1 15.59184,-5.68947l4.17774,0.2832l0.25195,4.03517l0,0.08594a20.10161,20.10161 0 0 1 -5.6465,15.63676zm-96.56274,-26.72272l-29.46492,0c-4.91212,0 -6.87502,2.94727 -9.82229,6.87502l-15.71488,19.64458s-4.91017,6.87502 -4.91017,13.75003l0,33.39462c0,3.92774 2.94532,6.87502 6.87502,6.87502l6.87502,0c1.96485,-11.78714 11.78714,-20.62505 23.57232,-20.62505c11.78714,0 21.60748,8.83987 23.57232,20.62505c2.94532,0 5.89455,-2.94727 5.89455,-5.89259l0,-67.7697c0,-3.9297 -2.94727,-6.87697 -6.87697,-6.87697zm-12.76761,40.27159l-36.34189,0c0,-1.96485 0.98242,-3.9297 2.94727,-5.89455l13.75003,-19.64263s1.96485,-1.96485 2.94727,-1.96485l16.69731,0l0,27.50202zm0,0" stroke-width="5" stroke-miterlimit="10" stroke-dasharray=""></path><path data-v-9833e8b2="" transform="scale(0.14204545454545456)" fill="none" stroke="currentColor" paint-order="fill stroke markers" d="m37.33993,97.25415c-8.83987,0 -15.71488,6.87502 -15.71488,15.71488c0,8.83987 6.87502,15.71488 15.71488,15.71488s15.71488,-6.87502 15.71488,-15.71488c0,-8.83791 -6.87502,-15.71488 -15.71488,-15.71488zm94.29125,0c-8.83987,0 -15.71488,6.87502 -15.71488,15.71488c0,8.83987 6.87502,15.71488 15.71488,15.71488s15.71488,-6.87502 15.71488,-15.71488c0,-8.83791 -6.87502,-15.71488 -15.71488,-15.71488zm0,0" stroke-width="5" stroke-miterlimit="10" stroke-dasharray=""></path></g></svg>