<svg data-v-9833e8b2="" version="1.1" xmlns="http://www.w3.org/2000/svg" xmlns:xlink="http://www.w3.org/1999/xlink" width="19.5" height="25"><g data-v-9833e8b2=""><path data-v-9833e8b2="" transform="scale(0.16339869281045752)" fill="none" stroke="currentColor" paint-order="fill stroke markers" d="m61.01,97.69l0,-24.47c15.88,-4.03 27.67,-18.44 27.67,-35.55c0,-20.22 -16.45,-36.67 -36.67,-36.67s-36.68,16.45 -36.68,36.67c0,17.11 11.79,31.52 27.67,35.55l0,24.47l-42,-31.04l0,85.44l51,-37.7l51,37.7l0,-85.44l-41.99,31.04zm-41.68,-60.02c0,-18.02 14.66,-32.67 32.67,-32.67s32.67,14.66 32.67,32.67s-14.65,32.67 -32.67,32.67s-32.67,-14.66 -32.67,-32.67zm32.67,36.67c1.7,0 3.37,-0.13 5.01,-0.35l0,26.65l-5,3.7l-5.01,-3.7l0,-26.65c1.63,0.23 3.3,0.35 5,0.35zm47,69.83l-47,-34.74l-47,34.74l0,-69.59l47,34.73l0,0l0,0l9,-6.66l0,0l38,-28.07l0,69.59z" stroke-width="5" stroke-miterlimit="10" stroke-dasharray=""></path><path data-v-9833e8b2="" transform="scale(0.16339869281045752)" fill="none" stroke="currentColor" paint-order="fill stroke markers" d="m68.51,22.02l0,31.98l-4.56,0l0,-23.04l-10.02,23.05l-3.87,0l-10.01,-23.05l0,23.05l-4.56,0l0,-31.99l5.25,0l11.28,25.83l11.24,-25.83l5.25,0z" stroke-width="5" stroke-miterlimit="10" stroke-dasharray=""></path></g></svg>