<svg data-v-9833e8b2="" version="1.1" xmlns="http://www.w3.org/2000/svg" xmlns:xlink="http://www.w3.org/1999/xlink" width="25" height="25"><g data-v-9833e8b2=""><path data-v-9833e8b2="" transform="scale(0.16891891891891891)" fill="none" stroke="currentColor" paint-order="fill stroke markers" d="m45.75,120.5l0,-103.5l61,0l0,15l-5.6,0l-4,3.21l-3.21,2.58l0,3.6l-2.15,1.98l0,8.64l-2.54,0l0,11l5.28,0c2.31,5.2 9.76,9 20.22,9s17.91,-3.8 20.22,-9l5.28,0l0,-11l-2.54,0l0,-8.64l-2.15,-1.98l0,-3.6l-2.84,-2.58l-4,-3.21l-5.97,0l0,-31l-93,0l0,119.5l-28.75,0l0,24l146,0l0,-24l-101.25,0zm94.92,4l-4.88,4.88l-4.88,-4.88l9.76,0zm-20,0l-4.88,4.88l-4.88,-4.88l9.76,0zm-20,0l-4.88,4.88l-4.88,-4.88l9.76,0zm-20,0l-4.88,4.88l-4.88,-4.88l9.76,0zm-20,0l-4.88,4.88l-4.88,-4.88l9.76,0zm54.08,-56.5c-6.31,0 -12.75,-1.82 -15.54,-5l31.08,0c-2.79,3.18 -9.23,5 -15.54,5zm21.5,-12l0,3l-43,0l0,-3l43,0zm-8.94,-20l2.81,2.25l1.44,1.31l0,1.83l0,1.76l1.3,1.19l0.86,0.79l0,6.88l-37.92,0l0,-6.88l0.86,-0.79l1.3,-1.19l0,-1.76l0,-1.68l1.71,-1.38l2.9,-2.33l4.2,0l16,0l4.54,0zm-93.56,-31l85,0l0,27l-8,0l0,-19l-69,0l0,107.5l-8,0l0,-115.5zm6.92,119.5l-4.88,4.88l-4.88,-4.88l9.76,0zm-20,0l-4.88,4.88l-4.88,-4.88l9.76,0zm-15.67,0l0.25,0l7.71,7.71l-7.96,7.96l0,-15.67zm5.33,16l5.46,-5.46l5.46,5.46l-10.92,0zm8.29,-8.29l7.17,-7.17l7.17,7.17l-7.17,7.17l-7.17,-7.17zm11.71,8.29l5.46,-5.46l5.46,5.46l-10.92,0zm8.29,-8.29l7.17,-7.17l7.17,7.17l-7.17,7.17l-7.17,-7.17zm11.71,8.29l5.46,-5.46l5.46,5.46l-10.92,0zm8.29,-8.29l7.17,-7.17l7.17,7.17l-7.17,7.17l-7.17,-7.17zm11.71,8.29l5.46,-5.46l5.46,5.46l-10.92,0zm8.29,-8.29l7.17,-7.17l7.17,7.17l-7.17,7.17l-7.17,-7.17zm11.71,8.29l5.46,-5.46l5.46,5.46l-10.92,0zm8.29,-8.29l7.17,-7.17l7.17,7.17l-7.17,7.17l-7.17,-7.17zm11.71,8.29l5.46,-5.46l5.46,5.46l-10.92,0zm8.29,-8.29l7.17,-7.17l7.17,7.17l-7.17,7.17l-7.17,-7.17zm11.71,8.29l5.46,-5.46l5.46,5.46l-10.92,0zm12.67,-3.9l-4.38,-4.38l4.38,-4.38l0,8.76z" stroke-width="5" stroke-miterlimit="10" stroke-dasharray=""></path></g></svg>