<svg data-v-9833e8b2="" version="1.1" xmlns="http://www.w3.org/2000/svg" xmlns:xlink="http://www.w3.org/1999/xlink" width="25" height="7.5"><g data-v-9833e8b2=""><path data-v-9833e8b2="" transform="scale(0.13812154696132597)" fill="none" stroke="currentColor" paint-order="fill stroke markers" d="m177,2.9c0,-1.05 -0.85,-1.9 -1.9,-1.9l-34.2,0c-1.05,0 -1.9,0.85 -1.9,1.9l0,22.1l38,0l0,-22.1zm-6,15.28c0,0.45 -0.37,0.82 -0.82,0.82l-14.36,0c-0.45,0 -0.82,-0.37 -0.82,-0.82l0,-11.36c0,-0.45 0.37,-0.82 0.82,-0.82l14.36,0c0.45,0 0.82,0.37 0.82,0.82l0,11.36z" stroke-width="5" stroke-miterlimit="10" stroke-dasharray=""></path><path data-v-9833e8b2="" transform="scale(0.13812154696132597)" fill="none" stroke="currentColor" paint-order="fill stroke markers" d="m135,25l-133.22,0l1.62,-4l131.6,0l0,4zm43,14l-177,0l0,20l8,0l0,2l55,0l0,-2l17,0l0,2l13,0l0,-2l65,0l0,2l13,0l0,-2l6,0l0,-20zm2,-10l-19,0l0,6l19,0l0,-6zm-41,0l-2,0l-39.97,0l0,2l0,4l59.97,0l0,-6l-18,0zm-138,0l0,2l0,4l92.03,0l0,-4l0,-2l-92.03,0z" stroke-width="5" stroke-miterlimit="10" stroke-dasharray=""></path><path data-v-9833e8b2="" transform="scale(0.13812154696132597)" fill="none" stroke="currentColor" paint-order="fill stroke markers" d="m12,12l-6,7l129,0l0,-7l-123,0zm7.11,5l-4,0l0,-4l4,0l0,4zm7.89,0l-4,0l0,-4l4,0l0,4zm7.89,0l-4,0l0,-4l4,0l0,4zm7.89,0l-4,0l0,-4l4,0l0,4zm7.89,0l-4,0l0,-4l4,0l0,4zm7.9,0l-4,0l0,-4l4,0l0,4zm7.89,0l-4,0l0,-4l4,0l0,4zm7.89,0l-4,0l0,-4l4,0l0,4zm7.89,0l-4,0l0,-4l4,0l0,4zm7.89,0l-4,0l0,-4l4,0l0,4zm7.9,0l-4,0l0,-4l4,0l0,4zm7.89,0l-4,0l0,-4l4,0l0,4zm7.89,0l-4,0l0,-4l4,0l0,4zm7.89,0l-4,0l0,-4l4,0l0,4zm7.89,0l-4,0l0,-4l4,0l0,4z" stroke-width="5" stroke-miterlimit="10" stroke-dasharray=""></path></g></svg>