<svg data-v-9833e8b2="" version="1.1" xmlns="http://www.w3.org/2000/svg" xmlns:xlink="http://www.w3.org/1999/xlink" width="25" height="10"><g data-v-9833e8b2=""><path data-v-9833e8b2="" transform="scale(0.1282051282051282)" fill="none" stroke="currentColor" paint-order="fill stroke markers" d="m111.99,47.44c2.54,20.36 19.88,36.12 40.93,36.12c22.8,0 41.28,-18.48 41.28,-41.28s-18.49,-41.28 -41.29,-41.28c-21.05,0 -38.38,15.76 -40.93,36.12l-7.77,0l0,-30.96l-103.21,0l0,72.24l103.21,0l0,-30.96c0,0 7.78,0 7.78,0z" stroke-width="5" stroke-miterlimit="10" stroke-dasharray=""></path><path data-v-9833e8b2="" transform="scale(0.1282051282051282)" fill="none" stroke="currentColor" paint-order="fill stroke markers" d="m141.39,45.74l0,17.54l-7.55,0l0,-42.01l9.31,0l7.15,19.64c0.91,2.61 1.7,5.38 2.55,8.11l0.28,0c0.91,-2.73 1.64,-5.5 2.55,-8.11l6.99,-19.64l9.31,0l0,42.01l-7.67,0l0,-17.54c0,-3.97 0.63,-9.82 1.03,-13.79l-0.22,0l-3.41,9.87l-6.47,17.66l-4.83,0l-6.53,-17.66l-3.35,-9.87l-0.22,0c0.39,3.97 1.08,9.82 1.08,13.79z" stroke-width="5" stroke-miterlimit="10" stroke-dasharray=""></path></g></svg>