<svg data-v-9833e8b2="" version="1.1" xmlns="http://www.w3.org/2000/svg" xmlns:xlink="http://www.w3.org/1999/xlink" width="25" height="22.5"><g data-v-9833e8b2=""><path data-v-9833e8b2="" transform="scale(0.18518518518518517)" fill="none" stroke="currentColor" paint-order="fill stroke markers" d="m116.15808,85.75749a51.61732,51.61732 0 0 0 3.67774,-19.0977c0,-28.62898 -23.20904,-51.83802 -51.83802,-51.83802s-51.83997,23.20709 -51.83997,51.83802s23.211,51.83802 51.83997,51.83802l64.26774,0l0,-32.74032l-16.10746,0z" stroke-width="5" stroke-miterlimit="10" stroke-dasharray=""></path><path data-v-9833e8b2="" transform="scale(0.18518518518518517)" fill="none" stroke="currentColor" paint-order="fill stroke markers" d="m118.21277,79.57193a60.06265,60.06265 0 0 0 -99.61353,-60.97672a60.07828,60.07828 0 0 0 42.48058,102.56276l73.84589,0l0,-41.58604l-16.71293,0zm-95.8518,20.22661a54.79701,54.79701 0 1 1 89.59007,-18.55473l-1.44727,3.64259l9.63479,0l0,30.95125l-59.05874,0a54.39857,54.39857 0 0 1 -38.71885,-16.0391zm107.24246,16.03715l-4.14064,0l0,-30.94148l4.14259,0l-0.00195,30.94148z" stroke-width="5" stroke-miterlimit="10" stroke-dasharray=""></path><path data-v-9833e8b2="" transform="scale(0.18518518518518517)" fill="none" stroke="currentColor" paint-order="fill stroke markers" d="m28.44302,28.18899a2.66016,2.66016 0 0 0 -3.75782,0.19531a47.63371,47.63371 0 0 0 -2.92969,3.59571a2.66016,2.66016 0 1 0 4.2754,3.16798c0.81836,-1.10547 1.69922,-2.1836 2.61915,-3.20704a2.66016,2.66016 0 0 0 -0.20703,-3.75196zm7.18947,-3.08399a2.6504,2.6504 0 0 0 1.46289,-0.44141a43.37316,43.37316 0 0 1 23.98444,-7.18166a2.66016,2.66016 0 1 0 0,-5.33204a48.69739,48.69739 0 0 0 -26.91608,8.06447a2.66212,2.66212 0 0 0 1.46875,4.88282l0,0.00781zm47.81262,69.299a2.66016,2.66016 0 0 0 2.66016,2.66016l24.68756,0a2.66016,2.66016 0 0 0 0,-5.32228l-24.68756,0a2.66016,2.66016 0 0 0 -2.66016,2.66212zm27.34773,8.56643l-42.82823,0a2.66016,2.66016 0 0 0 0,5.32228l42.82823,0a2.66016,2.66016 0 0 0 0,-5.32228zm-19.54302,-41.89073c0,-16.63481 -13.53324,-30.17 -30.17,-30.17s-30.17,13.53519 -30.17,30.17s13.53519,30.17195 30.17,30.17195s30.17,-13.53519 30.17,-30.17195zm-30.17,24.84772a24.84772,24.84772 0 1 1 24.84772,-24.84772a24.87702,24.87702 0 0 1 -24.84772,24.84772z" stroke-width="5" stroke-miterlimit="10" stroke-dasharray=""></path></g></svg>