<svg data-v-9833e8b2="" version="1.1" xmlns="http://www.w3.org/2000/svg" xmlns:xlink="http://www.w3.org/1999/xlink" width="25" height="25"><g data-v-9833e8b2=""><path data-v-9833e8b2="" transform="scale(0.12437810945273632)" fill="none" stroke="currentColor" paint-order="fill stroke markers" d="m1.01953,186.645l14.92191,0l16.69926,-95.62524l-21.83599,0l0,11.62112l-6.77736,0l0,-18.43755l29.31648,-23.59381l0,-13.96488l-22.51959,0l0,11.62112l-6.79689,0l0,-18.41802l29.31648,-23.63287l0,-4.92189c0,-6.1133 5.21486,-10.2344 11.03518,-10.27346l26.05475,-0.01953c5.83986,0 11.13284,4.19923 11.13284,10.31253l0,4.98048l29.35554,23.61334l0,18.35942l-6.81642,0l0,-11.62112l-22.53912,0l0,14.00394l29.35554,23.59381l0,11.8555l-6.81642,0l0,-5.09767l-21.83599,0l0.89844,5.09767l-18.14458,0l5.09767,-5.09767l-25.35163,0l12.65628,12.59769l3.94532,-3.88673l-1.95313,11.83597l-1.97266,-1.95313l-17.67583,17.55864l17.67583,20.85943l5.60548,-6.60158l1.48438,0l0,4.78517l-4.29689,5.07814l4.29689,5.07814l0,6.56252l-7.08986,-8.3594l-27.16804,32.08992l38.59385,0l0,-44.90246l119.16046,0l0,44.90246l12.20706,0l0,9.78518l-199.23878,0l0.01953,-9.78518zm36.71884,-55.33217l-8.76955,50.33216l25.70319,-30.37117l-16.93364,-19.96099zm6.17189,-35.17587l-4.4336,25.3321l14.96098,-14.86332l-10.52737,-10.46878zm1.42578,-17.53911l9.6094,-13.59378l-9.6094,-13.59378l0,27.18757zm12.20706,-17.26567l10.37112,-14.68754l-20.76177,0l10.39065,14.68754zm12.01175,-9.66799l-9.43362,13.33988l9.43362,13.33988l0,-26.67975zm-12.01175,17.01176l-10.95706,15.52738l21.93365,0l-10.97659,-15.52738zm-12.20706,-33.5743l9.19924,-9.19924l-9.19924,-9.17971l0,18.37895zm12.20706,-12.20706l9.9219,-9.9219l-19.8438,-0.01953l9.9219,9.94143zm12.01175,-5.97658l-9.00393,9.00393l9.00393,9.00393l0,-18.00786zm-12.01175,12.01175l-10.918,10.918l21.81646,0l-10.89846,-10.918zm24.0235,39.88291l0,15.4102l19.12114,0l-19.12114,-15.4102zm-67.42204,15.39066l19.19927,0l0,-15.42973l-19.19927,15.42973zm67.42204,-59.74624l0,15.37113l19.12114,0l-19.12114,-15.37113zm-67.40251,15.37113l19.17974,0l0,-15.42973l-19.17974,15.42973zm177.07076,60.62515l-23.63287,0l0,-10.09768l1.09375,0l0,-5.25392l-16.67973,0l0,5.25392l1.07422,0l0,15.85941l-2.5586,0l0,-5.76173l-84.86349,0l-4.92189,30.09773l0,6.50392l135.4105,0l0,-6.50392l-4.92189,-30.09773zm-101.48463,86.19162l19.72661,0l0,-35.58603l-19.72661,0l0,35.58603zm67.98845,-35.58603l-19.70708,0l0,23.37897l19.70708,0l0,-23.37897z" stroke-width="5" stroke-miterlimit="10" stroke-dasharray=""></path></g></svg>