<svg data-v-9833e8b2="" version="1.1" xmlns="http://www.w3.org/2000/svg" xmlns:xlink="http://www.w3.org/1999/xlink" width="25" height="22.5"><g data-v-9833e8b2=""><path data-v-9833e8b2="" transform="scale(0.15625)" fill="none" stroke="currentColor" paint-order="fill stroke markers" d="m134.02768,2.95938l-35.66415,41.99229c-0.83985,0.97656 -0.13672,2.50001 1.15235,2.50001l21.1524,0c0.97656,0 1.69922,0.91797 1.46485,1.875l-5.68361,23.711c-0.37109,1.52344 1.52344,2.51954 2.57813,1.38672l38.20322,-41.17198c0.89844,-0.97656 0.21484,-2.53907 -1.11328,-2.53907l-20.87896,0c-0.91797,0 -1.6211,-0.80078 -1.50391,-1.69922l2.96876,-24.88288c0.17578,-1.50391 -1.69922,-2.30469 -2.67579,-1.17188z" stroke-width="5" stroke-miterlimit="10" stroke-dasharray=""></path><path data-v-9833e8b2="" transform="scale(0.15625)" fill="none" stroke="currentColor" paint-order="fill stroke markers" d="m117.95342,76.26034c-0.46875,0 -0.9375,-0.11719 -1.36719,-0.35156c-1.17188,-0.625 -1.75782,-1.91407 -1.44532,-3.22266l5.68361,-23.711c0,-0.01953 0.01953,-0.07813 -0.01953,-0.13672c-0.03906,-0.05859 -0.09766,-0.05859 -0.11719,-0.05859l-21.1524,0c-1.13282,0 -2.14844,-0.64453 -2.61719,-1.67969c-0.46875,-1.03516 -0.3125,-2.20704 0.41016,-3.08595l35.66415,-41.99229c0.82031,-0.97656 2.16797,-1.28907 3.35938,-0.78125c1.17188,0.50781 1.85547,1.71875 1.71875,2.98829l-2.96876,24.88288c0,0.03906 0,0.07813 0.03906,0.11719c0.03906,0.03906 0.05859,0.05859 0.11719,0.05859l20.87896,0c1.17188,0 2.16797,0.66406 2.63673,1.73829c0.46875,1.07422 0.25391,2.26563 -0.52735,3.10548l-38.18369,41.21104c-0.56641,0.60547 -1.32813,0.91797 -2.10938,0.91797zm17.12895,-72.40253l-35.66415,41.97276c-0.01953,0.01953 -0.05859,0.07813 -0.01953,0.15625c0.03906,0.07813 0.09766,0.07813 0.13672,0.07813l21.1524,0c0.89844,0 1.71875,0.39063 2.26563,1.09375c0.54688,0.70313 0.74219,1.60157 0.54688,2.46094l-5.68361,23.711c-0.01953,0.05859 -0.01953,0.11719 0.07813,0.17578c0.09766,0.05859 0.13672,0 0.17578,-0.03906l38.16416,-41.15245c0.01953,-0.01953 0.05859,-0.07813 0.01953,-0.15625c-0.03906,-0.09766 -0.09766,-0.09766 -0.13672,-0.09766l-20.87896,0c-0.82031,0 -1.60157,-0.35156 -2.14844,-0.97656c-0.54688,-0.625 -0.80078,-1.44532 -0.70313,-2.26563l2.96876,-24.88288c0,-0.05859 0.01953,-0.11719 -0.09766,-0.15625c-0.11719,-0.01953 -0.15625,0.03906 -0.17578,0.07813z" stroke-width="5" stroke-miterlimit="10" stroke-dasharray=""></path><path data-v-9833e8b2="" transform="scale(0.15625)" fill="none" stroke="currentColor" paint-order="fill stroke markers" d="m34.89208,101.07954l24.44987,-32.34852l2.18145,1.64883l-24.44987,32.34832l-2.18145,-1.64864z" stroke-width="5" stroke-miterlimit="10" stroke-dasharray=""></path><path data-v-9833e8b2="" transform="scale(0.15625)" fill="none" stroke="currentColor" paint-order="fill stroke markers" d="m36.63857,70.37048l2.19376,-1.63204l24.06256,32.34285l-2.19376,1.63204l-24.06256,-32.34285z" stroke-width="5" stroke-miterlimit="10" stroke-dasharray=""></path><path data-v-9833e8b2="" transform="scale(0.15625)" fill="none" stroke="currentColor" paint-order="fill stroke markers" d="m36.39267,67.28356l20.9272,-26.72858l2.15313,1.68555l-20.9274,26.72858l-2.15294,-1.68555z" stroke-width="5" stroke-miterlimit="10" stroke-dasharray=""></path><path data-v-9833e8b2="" transform="scale(0.15625)" fill="none" stroke="currentColor" paint-order="fill stroke markers" d="m38.55791,42.22705l2.17481,-1.65723l20.3731,26.736l-2.17481,1.65743l-20.3731,-26.7362z" stroke-width="5" stroke-miterlimit="10" stroke-dasharray=""></path><path data-v-9833e8b2="" transform="scale(0.15625)" fill="none" stroke="currentColor" paint-order="fill stroke markers" d="m38.82119,40.19463l17.0684,-24.45905l2.24239,1.56504l-17.0684,24.45905l-2.24239,-1.56504z" stroke-width="5" stroke-miterlimit="10" stroke-dasharray=""></path><path data-v-9833e8b2="" transform="scale(0.15625)" fill="none" stroke="currentColor" paint-order="fill stroke markers" d="m39.82646,17.29144l2.2504,-1.55332l17.17622,24.88288l-2.2504,1.55352l-17.17622,-24.88307z" stroke-width="5" stroke-miterlimit="10" stroke-dasharray=""></path><path data-v-9833e8b2="" transform="scale(0.15625)" fill="none" stroke="currentColor" paint-order="fill stroke markers" d="m64.49625,103.27213l-31.09383,0l6.83595,-97.07056l17.44145,0l6.81642,97.07056zm-28.16413,-2.73438l25.23444,0l-6.44533,-91.62132l-12.34378,0l-6.44533,91.62132z" stroke-width="5" stroke-miterlimit="10" stroke-dasharray=""></path><path data-v-9833e8b2="" transform="scale(0.15625)" fill="none" stroke="currentColor" paint-order="fill stroke markers" d="m39.16416,28.3696l-24.12115,-9.10159l0,-4.84376l65.62517,0l0,4.25782l-22.05084,9.64846l-1.09375,-2.50001l19.82427,-8.6719l-59.57046,0l0,0.21484l22.34381,8.43752l-0.95703,2.5586zm-1.25,28.47663l-36.91416,-10.95706l0,-5.85939l94.00414,0l0,5.09767l-35.1954,11.50394l-0.83985,-2.59766l33.30087,-10.87893l0,-0.39063l-88.53538,0l0,1.09375l34.96103,10.35159l-0.78125,2.63673z" stroke-width="5" stroke-miterlimit="10" stroke-dasharray=""></path><path data-v-9833e8b2="" transform="scale(0.15625)" fill="none" stroke="currentColor" paint-order="fill stroke markers" d="m17.56254,19.93207l2.73438,0l0,7.87111l-2.73438,0l0,-7.87111zm57.40249,0l2.73438,0l0,7.87111l-2.73438,0l0,-7.87111zm-57.40249,10.66409l2.73438,0l0,2.61719l-2.73438,0l0,-2.61719zm57.40249,0l2.73438,0l0,2.61719l-2.73438,0l0,-2.61719zm-69.27752,15.70316l2.73438,0l0,7.87111l-2.73438,0l0,-7.87111zm82.30489,-0.87891l2.73438,0l0,7.87111l-2.73438,0l0,-7.87111zm-56.32827,96.17212l-11.77737,0l13.69144,-40.11729l2.57813,0.87891l-12.44144,36.504l6.6797,0l31.58211,-37.8126l2.10938,1.73829l-32.42196,38.80869z" stroke-width="5" stroke-miterlimit="10" stroke-dasharray=""></path><path data-v-9833e8b2="" transform="scale(0.15625)" fill="none" stroke="currentColor" paint-order="fill stroke markers" d="m29.9866,139.34195l32.00516,-38.31514l2.09864,1.75313l-32.00516,38.31514l-2.09864,-1.75313z" stroke-width="5" stroke-miterlimit="10" stroke-dasharray=""></path><path data-v-9833e8b2="" transform="scale(0.15625)" fill="none" stroke="currentColor" paint-order="fill stroke markers" d="m78.01191,141.59254l-11.77737,0l-32.40243,-38.80869l2.08985,-1.73829l31.58211,37.8126l6.69924,0l-12.46097,-36.504l2.57813,-0.87891l13.69144,40.11729z" stroke-width="5" stroke-miterlimit="10" stroke-dasharray=""></path><path data-v-9833e8b2="" transform="scale(0.15625)" fill="none" stroke="currentColor" paint-order="fill stroke markers" d="m33.81649,102.79322l2.09864,-1.75293l32.00516,38.31514l-2.09864,1.75293l-32.00516,-38.31514z" stroke-width="5" stroke-miterlimit="10" stroke-dasharray=""></path><path data-v-9833e8b2="" transform="scale(0.15625)" fill="none" stroke="currentColor" paint-order="fill stroke markers" d="m5.68751,57.1392l2.73438,0l0,2.61719l-2.73438,0l0,-2.61719z" stroke-width="5" stroke-miterlimit="10" stroke-dasharray=""></path><path data-v-9833e8b2="" transform="scale(0.15625)" fill="none" stroke="currentColor" paint-order="fill stroke markers" d="m87.99241,55.8306l2.73438,0l0,2.61719l-2.73438,0l0,-2.61719z" stroke-width="5" stroke-miterlimit="10" stroke-dasharray=""></path><path data-v-9833e8b2="" transform="scale(0.15625)" fill="none" stroke="currentColor" paint-order="fill stroke markers" d="m132.69955,139.22925l-2.73438,0l0,-25.39069l-11.64065,0l0,25.39069l-2.73438,0l0,-28.12507l17.10942,0l0,28.12507z" stroke-width="5" stroke-miterlimit="10" stroke-dasharray=""></path><path data-v-9833e8b2="" transform="scale(0.15625)" fill="none" stroke="currentColor" paint-order="fill stroke markers" d="m155.49258,99.15102l-62.69547,0l0,-12.03128l62.69547,0l0,12.03128zm-59.96109,-2.73438l57.22671,0l0,-6.56252l-57.22671,0l0,6.56252z" stroke-width="5" stroke-miterlimit="10" stroke-dasharray=""></path><path data-v-9833e8b2="" transform="scale(0.15625)" fill="none" stroke="currentColor" paint-order="fill stroke markers" d="m153.07069,140.67457l-57.85171,0l0,-41.81651l2.73438,0l0,39.08213l52.38294,0l0,-39.58994l2.73438,0l0,42.32433z" stroke-width="5" stroke-miterlimit="10" stroke-dasharray=""></path></g></svg>