<svg data-v-9833e8b2="" version="1.1" xmlns="http://www.w3.org/2000/svg" xmlns:xlink="http://www.w3.org/1999/xlink" width="25" height="20"><g data-v-9833e8b2=""><path data-v-9833e8b2="" transform="scale(0.12376237623762376)" fill="none" stroke="currentColor" paint-order="fill stroke markers" d="m144.10304,124.16995l-138.63874,0c-2.45536,0 -4.4643,-2.00893 -4.4643,-4.4643s2.00893,-4.4643 4.4643,-4.4643l135.15659,0l27.50007,-110.87081c0.51339,-1.98661 2.29911,-3.37055 4.33037,-3.37055l24.1072,0c2.45536,0 4.4643,2.00893 4.4643,4.4643s-2.00893,4.4643 -4.4643,4.4643l-20.62505,0l-27.50007,110.84849c-0.49107,1.98661 -2.27679,3.39287 -4.33037,3.39286zm-114.62082,42.81261c-10.58038,0 -19.19648,-8.61609 -19.19648,-19.19648s8.61609,-19.19648 19.19648,-19.19648s19.19648,8.61609 19.19648,19.19648s-8.61609,19.19648 -19.19648,19.19648zm0,-29.46436c-5.66966,0 -10.26788,4.59823 -10.26788,10.26788s4.59823,10.26788 10.26788,10.26788s10.26788,-4.59823 10.26788,-10.26788s-4.59823,-10.26788 -10.26788,-10.26788zm99.55382,29.46436c-10.58038,0 -19.19648,-8.61609 -19.19648,-19.19648s8.61609,-19.19648 19.19648,-19.19648s19.19648,8.61609 19.19648,19.19648s-8.61609,19.19648 -19.19648,19.19648zm0,-29.46436c-5.66966,0 -10.26788,4.59823 -10.26788,10.26788s4.59823,10.26788 10.26788,10.26788s10.26788,-4.59823 10.26788,-10.26788s-4.59823,-10.26788 -10.26788,-10.26788z" stroke-width="5" stroke-miterlimit="10" stroke-dasharray=""></path><path data-v-9833e8b2="" transform="scale(0.12376237623762376)" fill="none" stroke="currentColor" paint-order="fill stroke markers" d="m72.29482,104.7949c-0.58036,0 -1.18304,-0.08929 -1.7634,-0.29018c-2.29911,-0.75893 -3.86162,-2.90179 -3.86162,-5.31251l0,-25.06703l-12.567,0c-2.14286,0 -4.06251,-1.18304 -5.02233,-3.10269c-0.95982,-1.91965 -0.73661,-4.17412 0.55804,-5.87055l32.2099,-42.56707c1.54018,-2.03126 4.17412,-2.76786 6.54019,-1.83036c2.36608,0.9375 3.77233,3.28126 3.50447,5.82591l-2.61161,23.68309l14.93307,0c2.12054,0 4.04019,1.18304 5.00001,3.08037s0.78125,4.12948 -0.49107,5.84823l-31.91972,43.326c-1.09375,1.4509 -2.76786,2.27679 -4.50894,2.27679zm-11.49556,-39.59831l9.21877,0c3.08037,0 5.60269,2.52233 5.60269,5.60269l0,18.25898l22.00899,-29.88847l-12.0536,0c-1.58482,0 -3.10269,-0.66964 -4.17412,-1.85268s-1.5625,-2.76786 -1.40625,-4.35269l1.69643,-15.3795l-20.89291,27.61168zm22.20988,-39.59831z" stroke-width="5" stroke-miterlimit="10" stroke-dasharray=""></path></g></svg>