<svg data-v-9833e8b2="" version="1.1" xmlns="http://www.w3.org/2000/svg" xmlns:xlink="http://www.w3.org/1999/xlink" width="25" height="22.5"><g data-v-9833e8b2=""><path data-v-9833e8b2="" transform="scale(0.16339869281045752)" fill="none" stroke="currentColor" paint-order="fill stroke markers" d="m76.46906,1.00538a4.13302,4.13302 0 0 0 -3.35782,2.06055l-71.5578,123.94035a4.13302,4.13302 0 0 0 3.57794,6.19904l143.11559,0a4.13302,4.13302 0 0 0 3.57813,-6.19904l-71.55819,-123.94055a4.13302,4.13302 0 0 0 -3.38419,-2.06055a4.13302,4.13302 0 0 0 -0.41406,0l0.00039,0.0002zm0.22012,12.39202l64.39919,111.54286l-128.79837,0l64.39919,-111.54286zm-6.68322,39.97608l-8.65569,34.3702l20.36665,-5.60021l-6.24591,12.40081c-3.01934,-0.20742 -4.00099,-1.36895 -6.39259,-4.17677l4.43204,18.91099l14.9016,-13.8391c-2.7836,0.13477 -5.52267,0.23711 -7.834,0.01758l13.36078,-23.75084l-21.64068,5.85548l8.65569,-21.89576l-10.94788,-2.29239z" stroke-width="5" stroke-miterlimit="10" stroke-dasharray=""></path></g></svg>