<svg data-v-9833e8b2="" version="1.1" xmlns="http://www.w3.org/2000/svg" xmlns:xlink="http://www.w3.org/1999/xlink" width="25" height="25"><g data-v-9833e8b2=""><path data-v-9833e8b2="" transform="scale(0.12376237623762376)" fill="none" stroke="currentColor" paint-order="fill stroke markers" d="m201.0005,101.00025c0,-55.22865 -44.7716,-100.00025 -100.00025,-100.00025s-100.00025,44.7716 -100.00025,100.00025s44.7716,100.00025 100.00025,100.00025s100.00025,-44.7716 100.00025,-100.00025z" stroke-width="5" stroke-miterlimit="10" stroke-dasharray=""></path><path data-v-9833e8b2="" transform="scale(0.12376237623762376)" fill="none" stroke="currentColor" paint-order="fill stroke markers" d="m58.61733,164.47697l84.96115,0l0,-126.95344l-84.96115,0l0,126.95344z" stroke-width="5" stroke-miterlimit="10" stroke-dasharray=""></path><path data-v-9833e8b2="" transform="scale(0.12376237623762376)" fill="none" stroke="currentColor" paint-order="fill stroke markers" d="m67.25407,155.68789l67.88884,0l0,-109.37528l-67.88884,0l0,109.37528z" stroke-width="5" stroke-miterlimit="10" stroke-dasharray=""></path><path data-v-9833e8b2="" transform="scale(0.12376237623762376)" fill="none" stroke="currentColor" paint-order="fill stroke markers" d="m80.10176,78.73457l42.18761,0l0,-10.15628l-42.18761,0l0,10.15628zm-0.19531,27.34382l42.18761,0l0,-10.15628l-42.18761,0l0,10.15628zm0.19531,27.34382l42.18761,0l0,-10.15628l-42.18761,0l0,10.15628z" stroke-width="5" stroke-miterlimit="10" stroke-dasharray=""></path><path data-v-9833e8b2="" transform="scale(0.12376237623762376)" fill="none" stroke="currentColor" paint-order="fill stroke markers" d="m122.83117,149.16893l17.33305,6.30861l10.20979,-28.05144l-17.33305,-6.30861l-10.20979,28.05144z" stroke-width="5" stroke-miterlimit="10" stroke-dasharray=""></path><path data-v-9833e8b2="" transform="scale(0.12376237623762376)" fill="none" stroke="currentColor" paint-order="fill stroke markers" d="m154.86015,150.29334l-23.41705,-8.52307l-1.29844,39.99541l24.71549,-31.47234z" stroke-width="5" stroke-miterlimit="10" stroke-dasharray=""></path></g></svg>