<svg data-v-9833e8b2="" version="1.1" xmlns="http://www.w3.org/2000/svg" xmlns:xlink="http://www.w3.org/1999/xlink" width="9.5" height="25"><g data-v-9833e8b2=""><path data-v-9833e8b2="" transform="scale(0.06775067750677506)" fill="none" stroke="currentColor" paint-order="fill stroke markers" d="m69.75,1l-2,37" stroke-width="5" stroke-miterlimit="10" stroke-dasharray=""></path><path data-v-9833e8b2="" transform="scale(0.06775067750677506)" fill="none" stroke="currentColor" paint-order="fill stroke markers" d="m264.9989,202.0089c-1.03,0 -2.07,-0.4 -2.85,-1.2c-1.55,-1.57 -1.53,-4.11 0.05,-5.66l43.36,-42.65l-43.36,-42.64c-1.58,-1.55 -1.6,-4.08 -0.05,-5.66c1.55,-1.58 4.08,-1.6 5.66,-0.05l49.16,48.35l-49.17,48.36c-0.77,0.77 -1.79,1.15 -2.8,1.15z" stroke-width="5" stroke-miterlimit="10" stroke-dasharray=""></path><path data-v-9833e8b2="" transform="scale(0.06775067750677506)" fill="none" stroke="currentColor" paint-order="fill stroke markers" d="m231.9989,202.0089c-1.03,0 -2.07,-0.4 -2.85,-1.2c-1.55,-1.57 -1.53,-4.11 0.05,-5.66l43.36,-42.65l-43.36,-42.64c-1.58,-1.55 -1.6,-4.08 -0.05,-5.66c1.55,-1.58 4.08,-1.6 5.66,-0.05l49.16,48.35l-49.17,48.36c-0.77,0.77 -1.79,1.15 -2.8,1.15z" stroke-width="5" stroke-miterlimit="10" stroke-dasharray=""></path><path data-v-9833e8b2="" transform="scale(0.06775067750677506)" fill="none" stroke="currentColor" paint-order="fill stroke markers" d="m300,243.58209l-24,0l0,-25c0,-2.21 -1.79,-4 -4,-4s-4,1.79 -4,4l0,25l-24,0l0,110l24,0l0,22c0,2.21 1.79,4 4,4s4,-1.79 4,-4l0,-22l24,0l0,-110zm-8,102l-40,0l0,-94l40,0l0,94z" stroke-width="5" stroke-miterlimit="10" stroke-dasharray=""></path><path data-v-9833e8b2="" transform="scale(0.06775067750677506)" fill="none" stroke="currentColor" paint-order="fill stroke markers" d="m264.9989,446.0089c-1.03,0 -2.07,-0.4 -2.85,-1.2c-1.55,-1.57 -1.53,-4.11 0.05,-5.66l43.36,-42.65l-43.36,-42.64c-1.58,-1.55 -1.6,-4.08 -0.05,-5.66c1.55,-1.58 4.08,-1.6 5.66,-0.05l49.16,48.35l-49.17,48.36c-0.77,0.77 -1.79,1.15 -2.8,1.15z" stroke-width="5" stroke-miterlimit="10" stroke-dasharray=""></path><path data-v-9833e8b2="" transform="scale(0.06775067750677506)" fill="none" stroke="currentColor" paint-order="fill stroke markers" d="m231.9989,446.0089c-1.03,0 -2.07,-0.4 -2.85,-1.2c-1.55,-1.57 -1.53,-4.11 0.05,-5.66l43.36,-42.65l-43.36,-42.64c-1.58,-1.55 -1.6,-4.08 -0.05,-5.66c1.55,-1.58 4.08,-1.6 5.66,-0.05l49.16,48.35l-49.17,48.36c-0.77,0.77 -1.79,1.15 -2.8,1.15z" stroke-width="5" stroke-miterlimit="10" stroke-dasharray=""></path><path data-v-9833e8b2="" transform="scale(0.06775067750677506)" fill="none" stroke="currentColor" paint-order="fill stroke markers" d="m57.71159,133.5c0,-6.9273 4.71608,-12.5384 10.53841,-12.5384c5.82232,0 10.53841,5.61111 10.53841,12.5384c0,6.9273 -4.71608,12.5384 -10.53841,12.5384c-5.82232,0 -10.53841,-5.61111 -10.53841,-12.5384z" stroke-width="5" stroke-miterlimit="10" stroke-dasharray=""></path><path data-v-9833e8b2="" transform="scale(0.06775067750677506)" fill="none" stroke="currentColor" paint-order="fill stroke markers" d="m45.75,115l0,93.00001" stroke-width="5" stroke-miterlimit="10" stroke-dasharray=""></path><path data-v-9833e8b2="" transform="scale(0.06775067750677506)" fill="none" stroke="currentColor" paint-order="fill stroke markers" d="m57.2116,158c0,-6.9273 4.71608,-12.5384 10.53841,-12.5384c5.82232,0 10.53841,5.61111 10.53841,12.5384c0,6.9273 -4.71608,12.5384 -10.53841,12.5384c-5.82232,0 -10.53841,-5.61111 -10.53841,-12.5384z" stroke-width="5" stroke-miterlimit="10" stroke-dasharray=""></path><path data-v-9833e8b2="" transform="scale(0.06775067750677506)" fill="none" stroke="currentColor" paint-order="fill stroke markers" d="m58.2116,183c0,-6.9273 4.71608,-12.5384 10.53841,-12.5384c5.82232,0 10.53841,5.61111 10.53841,12.5384c0,6.9273 -4.71608,12.5384 -10.53841,12.5384c-5.82232,0 -10.53841,-5.61111 -10.53841,-12.5384z" stroke-width="5" stroke-miterlimit="10" stroke-dasharray=""></path><path data-v-9833e8b2="" transform="scale(0.06775067750677506)" fill="none" stroke="currentColor" paint-order="fill stroke markers" d="m35.2116,134c0,-6.9273 4.71608,-12.5384 10.53841,-12.5384c5.82232,0 10.53841,5.61111 10.53841,12.5384c0,6.9273 -4.71608,12.5384 -10.53841,12.5384c-5.82232,0 -10.53841,-5.61111 -10.53841,-12.5384z" stroke-width="5" stroke-miterlimit="10" stroke-dasharray=""></path><path data-v-9833e8b2="" transform="scale(0.06775067750677506)" fill="none" stroke="currentColor" paint-order="fill stroke markers" d="m36.2116,161c0,-6.9273 4.71608,-12.5384 10.53841,-12.5384c5.82232,0 10.53841,5.61111 10.53841,12.5384c0,6.9273 -4.71608,12.5384 -10.53841,12.5384c-5.82232,0 -10.53841,-5.61111 -10.53841,-12.5384z" stroke-width="5" stroke-miterlimit="10" stroke-dasharray=""></path><path data-v-9833e8b2="" transform="scale(0.06775067750677506)" fill="none" stroke="currentColor" paint-order="fill stroke markers" d="m36.2116,185c0,-6.9273 4.71608,-12.5384 10.53841,-12.5384c5.82232,0 10.53841,5.61111 10.53841,12.5384c0,6.9273 -4.71608,12.5384 -10.53841,12.5384c-5.82232,0 -10.53841,-5.61111 -10.53841,-12.5384z" stroke-width="5" stroke-miterlimit="10" stroke-dasharray=""></path><path data-v-9833e8b2="" transform="scale(0.06775067750677506)" fill="none" stroke="currentColor" paint-order="fill stroke markers" d="m78.2116,134c0,-6.9273 4.71608,-12.5384 10.53841,-12.5384c5.82232,0 10.53841,5.61111 10.53841,12.5384c0,6.9273 -4.71608,12.5384 -10.53841,12.5384c-5.82232,0 -10.53841,-5.61111 -10.53841,-12.5384z" stroke-width="5" stroke-miterlimit="10" stroke-dasharray=""></path><path data-v-9833e8b2="" transform="scale(0.06775067750677506)" fill="none" stroke="currentColor" paint-order="fill stroke markers" d="m77.2116,160c0,-6.9273 4.71608,-12.5384 10.53841,-12.5384c5.82232,0 10.53841,5.61111 10.53841,12.5384c0,6.9273 -4.71608,12.5384 -10.53841,12.5384c-5.82232,0 -10.53841,-5.61111 -10.53841,-12.5384z" stroke-width="5" stroke-miterlimit="10" stroke-dasharray=""></path><path data-v-9833e8b2="" transform="scale(0.06775067750677506)" fill="none" stroke="currentColor" paint-order="fill stroke markers" d="m78.2116,186c0,-6.9273 4.71608,-12.5384 10.53841,-12.5384c5.82232,0 10.53841,5.61111 10.53841,12.5384c0,6.9273 -4.71608,12.5384 -10.53841,12.5384c-5.82232,0 -10.53841,-5.61111 -10.53841,-12.5384z" stroke-width="5" stroke-miterlimit="10" stroke-dasharray=""></path><path data-v-9833e8b2="" transform="scale(0.06775067750677506)" fill="none" stroke="currentColor" paint-order="fill stroke markers" d="m67.75,110l2,226.00002" stroke-width="5" stroke-miterlimit="10" stroke-dasharray=""></path><path data-v-9833e8b2="" transform="scale(0.06775067750677506)" fill="none" stroke="currentColor" paint-order="fill stroke markers" d="m89.75,112.5l0,93.00001" stroke-width="5" stroke-miterlimit="10" stroke-dasharray=""></path><path data-v-9833e8b2="" transform="scale(0.06775067750677506)" fill="none" stroke="currentColor" paint-order="fill stroke markers" d="m11.75,232l93,2" stroke-width="5" stroke-miterlimit="10" stroke-dasharray=""></path><path data-v-9833e8b2="" transform="scale(0.06775067750677506)" fill="none" stroke="currentColor" paint-order="fill stroke markers" d="m52,1026.30569l0,-62c0,-2.21 -1.79,-4 -4,-4s-4,1.79 -4,4l0,62l-19.25,0l23.25,29.46l23.25,-29.46l-19.25,0zm-10.75,8l13.49,0l-6.74,8.54l-6.75,-8.54z" stroke-width="5" stroke-miterlimit="10" stroke-dasharray=""></path><path data-v-9833e8b2="" transform="scale(0.06775067750677506)" fill="none" stroke="currentColor" paint-order="fill stroke markers" d="m76,989.30569l-56,0l0,110l24,0l0,22c0,2.21 1.79,4 4,4s4,-1.79 4,-4l0,-22l24,0l0,-110zm-8,102l-40,0l0,-94l40,0l0,94z" stroke-width="5" stroke-miterlimit="10" stroke-dasharray=""></path><path data-v-9833e8b2="" transform="scale(0.06775067750677506)" fill="none" stroke="currentColor" paint-order="fill stroke markers" d="m92,1190.11111l-38,0l0,-100c0,-2.21 -1.79,-4 -4,-4s-4,1.79 -4,4l0,100l-38,0c-2.21,0 -4,1.79 -4,4s1.79,4 4,4l84,0c2.21,0 4,-1.79 4,-4s-1.79,-4 -4,-4z" stroke-width="5" stroke-miterlimit="10" stroke-dasharray=""></path><path data-v-9833e8b2="" transform="scale(0.06775067750677506)" fill="none" stroke="currentColor" paint-order="fill stroke markers" d="m77.5,1214.11111l-55,0c-2.21,0 -4,-1.79 -4,-4s1.79,-4 4,-4l55,0c2.21,0 4,1.79 4,4s-1.79,4 -4,4z" stroke-width="5" stroke-miterlimit="10" stroke-dasharray=""></path><path data-v-9833e8b2="" transform="scale(0.06775067750677506)" fill="none" stroke="currentColor" paint-order="fill stroke markers" d="m64.5,1232.11111l-29,0c-2.21,0 -4,-1.79 -4,-4s1.79,-4 4,-4l29,0c2.21,0 4,1.79 4,4s-1.79,4 -4,4z" stroke-width="5" stroke-miterlimit="10" stroke-dasharray=""></path><path data-v-9833e8b2="" transform="scale(0.06775067750677506)" fill="none" stroke="currentColor" paint-order="fill stroke markers" d="m198,908.85209l-31,0l0,-57c0,-2.21 -1.79,-4 -4,-4s-4,1.79 -4,4l0,57l-31,0c-2.21,0 -4,1.79 -4,4s1.79,4 4,4l70,0c2.21,0 4,-1.79 4,-4s-1.79,-4 -4,-4z" stroke-width="5" stroke-miterlimit="10" stroke-dasharray=""></path><path data-v-9833e8b2="" transform="scale(0.06775067750677506)" fill="none" stroke="currentColor" paint-order="fill stroke markers" d="m198,925.85209l-70,0c-2.21,0 -4,1.79 -4,4s1.79,4 4,4l31,0l0,57c0,2.21 1.79,4 4,4s4,-1.79 4,-4l0,-57l31,0c2.21,0 4,-1.79 4,-4s-1.79,-4 -4,-4z" stroke-width="5" stroke-miterlimit="10" stroke-dasharray=""></path><path data-v-9833e8b2="" transform="scale(0.06775067750677506)" fill="none" stroke="currentColor" paint-order="fill stroke markers" d="m-256.28003,1039.31559c11.08,-11.2 17.93,-26.59 17.93,-43.55s-6.85,-32.35 -17.93,-43.55c-0.08,-0.09 -0.14,-0.2 -0.23,-0.29c-0.09,-0.09 -0.19,-0.15 -0.29,-0.23c-11.2,-11.08 -26.59,-17.93 -43.55,-17.93s-32.35,6.85 -43.55,17.93c-0.09,0.08 -0.2,0.14 -0.29,0.23c-0.09,0.09 -0.15,0.19 -0.23,0.29c-11.08,11.2 -17.93,26.59 -17.93,43.55s6.85,32.35 17.93,43.55c0.08,0.09 0.14,0.2 0.23,0.29c0.09,0.09 0.19,0.15 0.29,0.23c11.2,11.08 26.59,17.93 43.55,17.93s32.35,-6.85 43.55,-17.93c0.09,-0.08 0.2,-0.14 0.29,-0.23c0.09,-0.09 0.15,-0.19 0.23,-0.29zm-3.19,-8.33l-35.22,-35.22l35.22,-35.22c8.16,9.46 13.12,21.77 13.12,35.22s-4.96,25.76 -13.12,35.22zm-5.66,-76.1l-35.22,35.22l-35.22,-35.22c9.46,-8.16 21.77,-13.12 35.22,-13.12s25.76,4.96 35.22,13.12zm-76.1,5.66l35.22,35.22l-35.22,35.22c-8.16,-9.46 -13.12,-21.77 -13.12,-35.22s4.96,-25.76 13.12,-35.22zm5.66,76.1l35.22,-35.22l35.22,35.22c-9.46,8.16 -21.77,13.12 -35.22,13.12s-25.76,-4.96 -35.22,-13.12z" stroke-width="5" stroke-miterlimit="10" stroke-dasharray=""></path><path data-v-9833e8b2="" transform="scale(0.06775067750677506)" fill="none" stroke="currentColor" paint-order="fill stroke markers" d="m205,1135.78432l-38,0l0,-100c0,-2.21 -1.79,-4 -4,-4s-4,1.79 -4,4l0,100l-38,0c-2.21,0 -4,1.79 -4,4s1.79,4 4,4l84,0c2.21,0 4,-1.79 4,-4s-1.79,-4 -4,-4z" stroke-width="5" stroke-miterlimit="10" stroke-dasharray=""></path><path data-v-9833e8b2="" transform="scale(0.06775067750677506)" fill="none" stroke="currentColor" paint-order="fill stroke markers" d="m190.5,1159.78432l-55,0c-2.21,0 -4,-1.79 -4,-4s1.79,-4 4,-4l55,0c2.21,0 4,1.79 4,4s-1.79,4 -4,4z" stroke-width="5" stroke-miterlimit="10" stroke-dasharray=""></path><path data-v-9833e8b2="" transform="scale(0.06775067750677506)" fill="none" stroke="currentColor" paint-order="fill stroke markers" d="m177.5,1177.78432l-29,0c-2.21,0 -4,-1.79 -4,-4s1.79,-4 4,-4l29,0c2.21,0 4,1.79 4,4s-1.79,4 -4,4z" stroke-width="5" stroke-miterlimit="10" stroke-dasharray=""></path><path data-v-9833e8b2="" transform="scale(0.06775067750677506)" fill="none" stroke="currentColor" paint-order="fill stroke markers" d="m436.50076,1096.61163c0,-10.75 -8.75,-19.5 -19.5,-19.5s-19.5,8.75 -19.5,19.5c0,9.38 6.66,17.23 15.5,19.08l0,18.42c0,2.21 1.79,4 4,4s4,-1.79 4,-4l0,-18.42c8.84,-1.85 15.5,-9.7 15.5,-19.08zm-19.5,11.5c-6.34,0 -11.5,-5.16 -11.5,-11.5s5.16,-11.5 11.5,-11.5s11.5,5.16 11.5,11.5s-5.16,11.5 -11.5,11.5z" stroke-width="5" stroke-miterlimit="10" stroke-dasharray=""></path><path data-v-9833e8b2="" transform="scale(0.06775067750677506)" fill="none" stroke="currentColor" paint-order="fill stroke markers" d="m436.50076,1020.61163c0,-9.38 -6.66,-17.23 -15.5,-19.08l0,-18.42c0,-2.21 -1.79,-4 -4,-4s-4,1.79 -4,4l0,18.42c-8.84,1.85 -15.5,9.7 -15.5,19.08c0,8.57 5.56,15.85 13.26,18.46l-34.25,61.09c-1.08,1.93 -0.39,4.37 1.53,5.45c0.62,0.35 1.29,0.51 1.95,0.51c1.4,0 2.76,-0.74 3.49,-2.04l35.95,-64.13c9.61,-1.22 17.07,-9.42 17.07,-19.34zm-19.5,11.5c-6.34,0 -11.5,-5.16 -11.5,-11.5s5.16,-11.5 11.5,-11.5s11.5,5.16 11.5,11.5s-5.16,11.5 -11.5,11.5z" stroke-width="5" stroke-miterlimit="10" stroke-dasharray=""></path><path data-v-9833e8b2="" transform="scale(0.06775067750677506)" fill="none" stroke="currentColor" paint-order="fill stroke markers" d="m465,1201.70076l-38,0l0,-100c0,-2.21 -1.79,-4 -4,-4s-4,1.79 -4,4l0,100l-38,0c-2.21,0 -4,1.79 -4,4s1.79,4 4,4l84,0c2.21,0 4,-1.79 4,-4s-1.79,-4 -4,-4z" stroke-width="5" stroke-miterlimit="10" stroke-dasharray=""></path><path data-v-9833e8b2="" transform="scale(0.06775067750677506)" fill="none" stroke="currentColor" paint-order="fill stroke markers" d="m450.5,1225.70076l-55,0c-2.21,0 -4,-1.79 -4,-4s1.79,-4 4,-4l55,0c2.21,0 4,1.79 4,4s-1.79,4 -4,4z" stroke-width="5" stroke-miterlimit="10" stroke-dasharray=""></path><path data-v-9833e8b2="" transform="scale(0.06775067750677506)" fill="none" stroke="currentColor" paint-order="fill stroke markers" d="m437.5,1243.70076l-29,0c-2.21,0 -4,-1.79 -4,-4s1.79,-4 4,-4l29,0c2.21,0 4,1.79 4,4s-1.79,4 -4,4z" stroke-width="5" stroke-miterlimit="10" stroke-dasharray=""></path><path data-v-9833e8b2="" transform="scale(0.06775067750677506)" fill="none" stroke="currentColor" paint-order="fill stroke markers" d="m357,1388.52l-47.5,0l0,-14.5c0,-2.21 -1.79,-4 -4,-4s-4,1.79 -4,4l0,14.5l-1.8,0l-48.2,-29.52l0,29.52l-47.5,0c-2.21,0 -4,1.79 -4,4s1.79,4 4,4l47.5,0l0,29.52l48.2,-29.52l1.8,0l0,14.5c0,2.21 1.79,4 4,4s4,-1.79 4,-4l0,-14.5l47.5,0c2.21,0 4,-1.79 4,-4s-1.79,-4 -4,-4zm-97.5,23.24l0,-38.48l31.42,19.24l-31.42,19.24z" stroke-width="5" stroke-miterlimit="10" stroke-dasharray=""></path></g></svg>