<svg data-v-9833e8b2="" version="1.1" xmlns="http://www.w3.org/2000/svg" xmlns:xlink="http://www.w3.org/1999/xlink" width="12" height="25"><g data-v-9833e8b2=""><path data-v-9833e8b2="" transform="scale(0.04921259842519685)" fill="none" stroke="currentColor" paint-order="fill stroke markers" d="m76.36524,176.5c0,-8.36175 6.77302,-15.13477 15.13476,-15.13477c8.36175,0 15.13476,6.77302 15.13476,15.13477c0,8.36175 -6.77302,15.13477 -15.13476,15.13477c-8.36175,0 -15.13476,-6.77302 -15.13476,-15.13477z" stroke-width="5" stroke-miterlimit="10" stroke-dasharray=""></path><path data-v-9833e8b2="" transform="scale(0.04921259842519685)" fill="none" stroke="currentColor" paint-order="fill stroke markers" d="m355.9989,172.0089c-1.03,0 -2.07,-0.4 -2.85,-1.2c-1.55,-1.57 -1.53,-4.11 0.05,-5.66l43.36,-42.65l-43.36,-42.64c-1.58,-1.55 -1.6,-4.08 -0.05,-5.66c1.55,-1.58 4.08,-1.6 5.66,-0.05l49.16,48.35l-49.17,48.36c-0.77,0.77 -1.79,1.15 -2.8,1.15z" stroke-width="5" stroke-miterlimit="10" stroke-dasharray=""></path><path data-v-9833e8b2="" transform="scale(0.04921259842519685)" fill="none" stroke="currentColor" paint-order="fill stroke markers" d="m322.9989,172.0089c-1.03,0 -2.07,-0.4 -2.85,-1.2c-1.55,-1.57 -1.53,-4.11 0.05,-5.66l43.36,-42.65l-43.36,-42.64c-1.58,-1.55 -1.6,-4.08 -0.05,-5.66c1.55,-1.58 4.08,-1.6 5.66,-0.05l49.16,48.35l-49.17,48.36c-0.77,0.77 -1.79,1.15 -2.8,1.15z" stroke-width="5" stroke-miterlimit="10" stroke-dasharray=""></path><path data-v-9833e8b2="" transform="scale(0.04921259842519685)" fill="none" stroke="currentColor" paint-order="fill stroke markers" d="m598.65886,250.20174l18,0l0,56l-18,0l0,-56z" stroke-width="5" stroke-miterlimit="10" stroke-dasharray=""></path><path data-v-9833e8b2="" transform="scale(0.04921259842519685)" fill="none" stroke="currentColor" paint-order="fill stroke markers" d="m607.65887,305.20174l0,27" stroke-width="5" stroke-miterlimit="10" stroke-dasharray=""></path><path data-v-9833e8b2="" transform="scale(0.04921259842519685)" fill="none" stroke="currentColor" paint-order="fill stroke markers" d="m607.65887,249.20174l0,-28" stroke-width="5" stroke-miterlimit="10" stroke-dasharray=""></path><path data-v-9833e8b2="" transform="scale(0.04921259842519685)" fill="none" stroke="currentColor" paint-order="fill stroke markers" d="m355.9989,568.0089c-1.03,0 -2.07,-0.4 -2.85,-1.2c-1.55,-1.57 -1.53,-4.11 0.05,-5.66l43.36,-42.65l-43.36,-42.64c-1.58,-1.55 -1.6,-4.08 -0.05,-5.66c1.55,-1.58 4.08,-1.6 5.66,-0.05l49.16,48.35l-49.17,48.36c-0.77,0.77 -1.79,1.15 -2.8,1.15z" stroke-width="5" stroke-miterlimit="10" stroke-dasharray=""></path><path data-v-9833e8b2="" transform="scale(0.04921259842519685)" fill="none" stroke="currentColor" paint-order="fill stroke markers" d="m322.9989,568.0089c-1.03,0 -2.07,-0.4 -2.85,-1.2c-1.55,-1.57 -1.53,-4.11 0.05,-5.66l43.36,-42.65l-43.36,-42.64c-1.58,-1.55 -1.6,-4.08 -0.05,-5.66c1.55,-1.58 4.08,-1.6 5.66,-0.05l49.16,48.35l-49.17,48.36c-0.77,0.77 -1.79,1.15 -2.8,1.15z" stroke-width="5" stroke-miterlimit="10" stroke-dasharray=""></path><path data-v-9833e8b2="" transform="scale(0.04921259842519685)" fill="none" stroke="currentColor" paint-order="fill stroke markers" d="m10.5,99.5l79,1" stroke-width="5" stroke-miterlimit="10" stroke-dasharray=""></path><path data-v-9833e8b2="" transform="scale(0.04921259842519685)" fill="none" stroke="currentColor" paint-order="fill stroke markers" d="m90.5,92.5l0,36" stroke-width="5" stroke-miterlimit="10" stroke-dasharray=""></path><path data-v-9833e8b2="" transform="scale(0.04921259842519685)" fill="none" stroke="currentColor" paint-order="fill stroke markers" d="m90.5,1l0,30" stroke-width="5" stroke-miterlimit="10" stroke-dasharray=""></path><path data-v-9833e8b2="" transform="scale(0.04921259842519685)" fill="none" stroke="currentColor" paint-order="fill stroke markers" d="m90.5,139.5l1,139" stroke-width="5" stroke-miterlimit="10" stroke-dasharray=""></path><path data-v-9833e8b2="" transform="scale(0.04921259842519685)" fill="none" stroke="currentColor" paint-order="fill stroke markers" d="m75.36524,208.5c0,-8.36175 6.77302,-15.13477 15.13476,-15.13477c8.36175,0 15.13476,6.77302 15.13476,15.13477c0,8.36175 -6.77302,15.13477 -15.13476,15.13477c-8.36175,0 -15.13476,-6.77302 -15.13476,-15.13477z" stroke-width="5" stroke-miterlimit="10" stroke-dasharray=""></path><path data-v-9833e8b2="" transform="scale(0.04921259842519685)" fill="none" stroke="currentColor" paint-order="fill stroke markers" d="m107.36524,179.5c0,-8.36175 6.77302,-15.13477 15.13476,-15.13477c8.36175,0 15.13476,6.77302 15.13476,15.13477c0,8.36175 -6.77302,15.13477 -15.13476,15.13477c-8.36175,0 -15.13476,-6.77302 -15.13476,-15.13477z" stroke-width="5" stroke-miterlimit="10" stroke-dasharray=""></path><path data-v-9833e8b2="" transform="scale(0.04921259842519685)" fill="none" stroke="currentColor" paint-order="fill stroke markers" d="m107.36524,210.5c0,-8.36175 6.77302,-15.13477 15.13476,-15.13477c8.36175,0 15.13476,6.77302 15.13476,15.13477c0,8.36175 -6.77302,15.13477 -15.13476,15.13477c-8.36175,0 -15.13476,-6.77302 -15.13476,-15.13477z" stroke-width="5" stroke-miterlimit="10" stroke-dasharray=""></path><path data-v-9833e8b2="" transform="scale(0.04921259842519685)" fill="none" stroke="currentColor" paint-order="fill stroke markers" d="m45.36524,178.5c0,-8.36175 6.77302,-15.13477 15.13476,-15.13477c8.36175,0 15.13476,6.77302 15.13476,15.13477c0,8.36175 -6.77302,15.13477 -15.13476,15.13477c-8.36175,0 -15.13476,-6.77302 -15.13476,-15.13477z" stroke-width="5" stroke-miterlimit="10" stroke-dasharray=""></path><path data-v-9833e8b2="" transform="scale(0.04921259842519685)" fill="none" stroke="currentColor" paint-order="fill stroke markers" d="m42.36524,207.5c0,-8.36175 6.77302,-15.13477 15.13476,-15.13477c8.36175,0 15.13476,6.77302 15.13476,15.13477c0,8.36175 -6.77302,15.13477 -15.13476,15.13477c-8.36175,0 -15.13476,-6.77302 -15.13476,-15.13477z" stroke-width="5" stroke-miterlimit="10" stroke-dasharray=""></path><path data-v-9833e8b2="" transform="scale(0.04921259842519685)" fill="none" stroke="currentColor" paint-order="fill stroke markers" d="m59.5,152.5l-3,83" stroke-width="5" stroke-miterlimit="10" stroke-dasharray=""></path><path data-v-9833e8b2="" transform="scale(0.04921259842519685)" fill="none" stroke="currentColor" paint-order="fill stroke markers" d="m124.5,154.5l-2,82" stroke-width="5" stroke-miterlimit="10" stroke-dasharray=""></path><path data-v-9833e8b2="" transform="scale(0.04921259842519685)" fill="none" stroke="currentColor" paint-order="fill stroke markers" d="m527.75076,1331.45947l-67.04,0l33.52,-54.74l33.52,54.74zm-52.76,-8l38.48,0l-19.24,-31.42l-19.24,31.42z" stroke-width="5" stroke-miterlimit="10" stroke-dasharray=""></path><path data-v-9833e8b2="" transform="scale(0.04921259842519685)" fill="none" stroke="currentColor" paint-order="fill stroke markers" d="m494.23076,1372.45947c-34.19,0 -62,-27.81 -62,-62s27.81,-62 62,-62s62,27.81 62,62s-27.81,62 -62,62zm0,-116c-29.78,0 -54,24.22 -54,54s24.22,54 54,54s54,-24.22 54,-54s-24.22,-54 -54,-54z" stroke-width="5" stroke-miterlimit="10" stroke-dasharray=""></path><path data-v-9833e8b2="" transform="scale(0.04921259842519685)" fill="none" stroke="currentColor" paint-order="fill stroke markers" d="m456.73686,1270.62163c-34.19,0 -62,-27.81 -62,-62s27.81,-62 62,-62s62,27.81 62,62s-27.81,62 -62,62zm0,-116c-29.78,0 -54,24.22 -54,54s24.22,54 54,54s54,-24.22 54,-54s-24.22,-54 -54,-54z" stroke-width="5" stroke-miterlimit="10" stroke-dasharray=""></path><path data-v-9833e8b2="" transform="scale(0.04921259842519685)" fill="none" stroke="currentColor" paint-order="fill stroke markers" d="m496.20686,1187.08163c-1.1,-1.91 -3.54,-2.58 -5.46,-1.47l-34.01,19.55l-34.01,-19.56c-1.92,-1.1 -4.36,-0.44 -5.46,1.47c-1.1,1.92 -0.44,4.36 1.47,5.46l34,19.55l0,39.09c0,2.21 1.79,4 4,4s4,-1.79 4,-4l0,-39.09l33.99,-19.55c1.92,-1.09 2.58,-3.54 1.48,-5.45z" stroke-width="5" stroke-miterlimit="10" stroke-dasharray=""></path><path data-v-9833e8b2="" transform="scale(0.04921259842519685)" fill="none" stroke="currentColor" paint-order="fill stroke markers" d="m91,249l79,1" stroke-width="5" stroke-miterlimit="10" stroke-dasharray=""></path><path data-v-9833e8b2="" transform="scale(0.04921259842519685)" fill="none" stroke="currentColor" paint-order="fill stroke markers" d="m574,1118.5c0,-10.75 -8.75,-19.5 -19.5,-19.5c-10.75,0 -19.5,8.75 -19.5,19.5c0,9.38 6.66,17.23 15.5,19.08l0,18.42c0,2.21 1.79,4 4,4s4,-1.79 4,-4l0,-18.42c8.84,-1.85 15.5,-9.7 15.5,-19.08zm-19.5,11.5c-6.34,0 -11.5,-5.16 -11.5,-11.5s5.16,-11.5 11.5,-11.5c6.34,0 11.5,5.16 11.5,11.5s-5.16,11.5 -11.5,11.5z" stroke-width="5" stroke-miterlimit="10" stroke-dasharray=""></path><path data-v-9833e8b2="" transform="scale(0.04921259842519685)" fill="none" stroke="currentColor" paint-order="fill stroke markers" d="m594.99,1122.04l-34.25,-61.09c7.7,-2.61 13.26,-9.89 13.26,-18.46c0,-9.38 -6.66,-17.23 -15.5,-19.08l0,-18.41c0,-2.21 -1.79,-4 -4,-4s-4,1.79 -4,4l0,18.42c-8.84,1.85 -15.5,9.7 -15.5,19.08c0,9.92 7.46,18.12 17.06,19.33l35.95,64.13c0.73,1.31 2.09,2.04 3.49,2.04c0.66,0 1.33,-0.17 1.95,-0.51c1.93,-1.08 2.62,-3.52 1.54,-5.45zm-51.99,-79.54c0,-6.34 5.16,-11.5 11.5,-11.5c6.34,0 11.5,5.16 11.5,11.5s-5.16,11.5 -11.5,11.5c-6.34,0 -11.5,-5.16 -11.5,-11.5z" stroke-width="5" stroke-miterlimit="10" stroke-dasharray=""></path><path data-v-9833e8b2="" transform="scale(0.04921259842519685)" fill="none" stroke="currentColor" paint-order="fill stroke markers" d="m587,1178l-24,0l0,-25c0,-2.21 -1.79,-4 -4,-4s-4,1.79 -4,4l0,25l-24,0l0,110l24,0l0,22c0,2.21 1.79,4 4,4s4,-1.79 4,-4l0,-22l24,0l0,-110zm-8,102l-40,0l0,-94l40,0l0,94z" stroke-width="5" stroke-miterlimit="10" stroke-dasharray=""></path><path data-v-9833e8b2="" transform="scale(0.04921259842519685)" fill="none" stroke="currentColor" paint-order="fill stroke markers" d="m599,1405l-38,0l0,-100c0,-2.21 -1.79,-4 -4,-4s-4,1.79 -4,4l0,100l-38,0c-2.21,0 -4,1.79 -4,4s1.79,4 4,4l84,0c2.21,0 4,-1.79 4,-4s-1.79,-4 -4,-4z" stroke-width="5" stroke-miterlimit="10" stroke-dasharray=""></path><path data-v-9833e8b2="" transform="scale(0.04921259842519685)" fill="none" stroke="currentColor" paint-order="fill stroke markers" d="m584.5,1429l-55,0c-2.21,0 -4,-1.79 -4,-4s1.79,-4 4,-4l55,0c2.21,0 4,1.79 4,4s-1.79,4 -4,4z" stroke-width="5" stroke-miterlimit="10" stroke-dasharray=""></path><path data-v-9833e8b2="" transform="scale(0.04921259842519685)" fill="none" stroke="currentColor" paint-order="fill stroke markers" d="m571.5,1447l-29,0c-2.21,0 -4,-1.79 -4,-4s1.79,-4 4,-4l29,0c2.21,0 4,1.79 4,4s-1.79,4 -4,4z" stroke-width="5" stroke-miterlimit="10" stroke-dasharray=""></path><path data-v-9833e8b2="" transform="scale(0.04921259842519685)" fill="none" stroke="currentColor" paint-order="fill stroke markers" d="m51,517.59155l0,-62c0,-2.21 -1.79,-4 -4,-4s-4,1.79 -4,4l0,62l-19.25,0l23.25,29.46l23.25,-29.46l-19.25,0zm-10.75,8l13.49,0l-6.74,8.54l-6.75,-8.54z" stroke-width="5" stroke-miterlimit="10" stroke-dasharray=""></path><path data-v-9833e8b2="" transform="scale(0.04921259842519685)" fill="none" stroke="currentColor" paint-order="fill stroke markers" d="m75,480.59155l-56,0l0,110l24,0l0,22c0,2.21 1.79,4 4,4s4,-1.79 4,-4l0,-22l24,0l0,-110zm-8,102l-40,0l0,-94l40,0l0,94z" stroke-width="5" stroke-miterlimit="10" stroke-dasharray=""></path><path data-v-9833e8b2="" transform="scale(0.04921259842519685)" fill="none" stroke="currentColor" paint-order="fill stroke markers" d="m92,693l-38,0l0,-100c0,-2.21 -1.79,-4 -4,-4s-4,1.79 -4,4l0,100l-38,0c-2.21,0 -4,1.79 -4,4s1.79,4 4,4l84,0c2.21,0 4,-1.79 4,-4s-1.79,-4 -4,-4z" stroke-width="5" stroke-miterlimit="10" stroke-dasharray=""></path><path data-v-9833e8b2="" transform="scale(0.04921259842519685)" fill="none" stroke="currentColor" paint-order="fill stroke markers" d="m77.5,717l-55,0c-2.21,0 -4,-1.79 -4,-4s1.79,-4 4,-4l55,0c2.21,0 4,1.79 4,4s-1.79,4 -4,4z" stroke-width="5" stroke-miterlimit="10" stroke-dasharray=""></path><path data-v-9833e8b2="" transform="scale(0.04921259842519685)" fill="none" stroke="currentColor" paint-order="fill stroke markers" d="m64.5,735l-29,0c-2.21,0 -4,-1.79 -4,-4s1.79,-4 4,-4l29,0c2.21,0 4,1.79 4,4s-1.79,4 -4,4z" stroke-width="5" stroke-miterlimit="10" stroke-dasharray=""></path><path data-v-9833e8b2="" transform="scale(0.04921259842519685)" fill="none" stroke="currentColor" paint-order="fill stroke markers" d="m717,1058l-31,0l0,-57c0,-2.21 -1.79,-4 -4,-4s-4,1.79 -4,4l0,57l-31,0c-2.21,0 -4,1.79 -4,4s1.79,4 4,4l70,0c2.21,0 4,-1.79 4,-4s-1.79,-4 -4,-4z" stroke-width="5" stroke-miterlimit="10" stroke-dasharray=""></path><path data-v-9833e8b2="" transform="scale(0.04921259842519685)" fill="none" stroke="currentColor" paint-order="fill stroke markers" d="m717,1075l-70,0c-2.21,0 -4,1.79 -4,4s1.79,4 4,4l31,0l0,57c0,2.21 1.79,4 4,4s4,-1.79 4,-4l0,-57l31,0c2.21,0 4,-1.79 4,-4s-1.79,-4 -4,-4z" stroke-width="5" stroke-miterlimit="10" stroke-dasharray=""></path><path data-v-9833e8b2="" transform="scale(0.04921259842519685)" fill="none" stroke="currentColor" paint-order="fill stroke markers" d="m733.07,1246.55c11.08,-11.2 17.93,-26.59 17.93,-43.55s-6.85,-32.35 -17.93,-43.55c-0.08,-0.09 -0.14,-0.2 -0.23,-0.29c-0.09,-0.09 -0.19,-0.15 -0.29,-0.23c-11.2,-11.08 -26.59,-17.93 -43.55,-17.93s-32.35,6.85 -43.55,17.93c-0.09,0.08 -0.2,0.14 -0.29,0.23c-0.09,0.09 -0.15,0.19 -0.23,0.29c-11.08,11.2 -17.93,26.59 -17.93,43.55s6.85,32.35 17.93,43.55c0.08,0.09 0.14,0.2 0.23,0.29c0.09,0.09 0.19,0.15 0.29,0.23c11.2,11.08 26.59,17.93 43.55,17.93s32.35,-6.85 43.55,-17.93c0.09,-0.08 0.2,-0.14 0.29,-0.23c0.09,-0.09 0.15,-0.19 0.23,-0.29zm-3.19,-8.33l-35.22,-35.22l35.22,-35.22c8.16,9.46 13.12,21.77 13.12,35.22s-4.96,25.76 -13.12,35.22zm-5.66,-76.1l-35.22,35.22l-35.22,-35.22c9.46,-8.16 21.77,-13.12 35.22,-13.12s25.76,4.96 35.22,13.12zm-76.1,5.66l35.22,35.22l-35.22,35.22c-8.16,-9.46 -13.12,-21.77 -13.12,-35.22s4.96,-25.76 13.12,-35.22zm5.66,76.1l35.22,-35.22l35.22,35.22c-9.46,8.16 -21.77,13.12 -35.22,13.12s-25.76,-4.96 -35.22,-13.12z" stroke-width="5" stroke-miterlimit="10" stroke-dasharray=""></path><path data-v-9833e8b2="" transform="scale(0.04921259842519685)" fill="none" stroke="currentColor" paint-order="fill stroke markers" d="m740,1426.84615l-38,0l0,-100c0,-2.21 -1.79,-4 -4,-4s-4,1.79 -4,4l0,100l-38,0c-2.21,0 -4,1.79 -4,4s1.79,4 4,4l84,0c2.21,0 4,-1.79 4,-4s-1.79,-4 -4,-4z" stroke-width="5" stroke-miterlimit="10" stroke-dasharray=""></path><path data-v-9833e8b2="" transform="scale(0.04921259842519685)" fill="none" stroke="currentColor" paint-order="fill stroke markers" d="m725.5,1450.84615l-55,0c-2.21,0 -4,-1.79 -4,-4s1.79,-4 4,-4l55,0c2.21,0 4,1.79 4,4s-1.79,4 -4,4z" stroke-width="5" stroke-miterlimit="10" stroke-dasharray=""></path><path data-v-9833e8b2="" transform="scale(0.04921259842519685)" fill="none" stroke="currentColor" paint-order="fill stroke markers" d="m712.5,1468.84615l-29,0c-2.21,0 -4,-1.79 -4,-4s1.79,-4 4,-4l29,0c2.21,0 4,1.79 4,4s-1.79,4 -4,4z" stroke-width="5" stroke-miterlimit="10" stroke-dasharray=""></path><path data-v-9833e8b2="" transform="scale(0.04921259842519685)" fill="none" stroke="currentColor" paint-order="fill stroke markers" d="m86.5,337.5l-3,170" stroke-width="5" stroke-miterlimit="10" stroke-dasharray=""></path><path data-v-9833e8b2="" transform="scale(0.04921259842519685)" fill="none" stroke="currentColor" paint-order="fill stroke markers" d="m69.36524,398.5c0,-8.36175 6.77302,-15.13477 15.13476,-15.13477c8.36175,0 15.13476,6.77302 15.13476,15.13477c0,8.36175 -6.77302,15.13477 -15.13476,15.13477c-8.36175,0 -15.13476,-6.77302 -15.13476,-15.13477z" stroke-width="5" stroke-miterlimit="10" stroke-dasharray=""></path><path data-v-9833e8b2="" transform="scale(0.04921259842519685)" fill="none" stroke="currentColor" paint-order="fill stroke markers" d="m67.36524,431.5c0,-8.36175 6.77302,-15.13477 15.13476,-15.13477c8.36175,0 15.13476,6.77302 15.13476,15.13477c0,8.36175 -6.77302,15.13477 -15.13476,15.13477c-8.36175,0 -15.13476,-6.77302 -15.13476,-15.13477z" stroke-width="5" stroke-miterlimit="10" stroke-dasharray=""></path><path data-v-9833e8b2="" transform="scale(0.04921259842519685)" fill="none" stroke="currentColor" paint-order="fill stroke markers" d="m36.36524,400.5c0,-8.36175 6.77302,-15.13477 15.13476,-15.13477c8.36175,0 15.13476,6.77302 15.13476,15.13477c0,8.36175 -6.77302,15.13477 -15.13476,15.13477c-8.36175,0 -15.13476,-6.77302 -15.13476,-15.13477z" stroke-width="5" stroke-miterlimit="10" stroke-dasharray=""></path><path data-v-9833e8b2="" transform="scale(0.04921259842519685)" fill="none" stroke="currentColor" paint-order="fill stroke markers" d="m37.36524,432.5c0,-8.36175 6.77302,-15.13477 15.13476,-15.13477c8.36175,0 15.13476,6.77302 15.13476,15.13477c0,8.36175 -6.77302,15.13477 -15.13476,15.13477c-8.36175,0 -15.13476,-6.77302 -15.13476,-15.13477z" stroke-width="5" stroke-miterlimit="10" stroke-dasharray=""></path><path data-v-9833e8b2="" transform="scale(0.04921259842519685)" fill="none" stroke="currentColor" paint-order="fill stroke markers" d="m99.36524,402.5c0,-8.36175 6.77302,-15.13477 15.13476,-15.13477c8.36175,0 15.13476,6.77302 15.13476,15.13477c0,8.36175 -6.77302,15.13477 -15.13476,15.13477c-8.36175,0 -15.13476,-6.77302 -15.13476,-15.13477z" stroke-width="5" stroke-miterlimit="10" stroke-dasharray=""></path><path data-v-9833e8b2="" transform="scale(0.04921259842519685)" fill="none" stroke="currentColor" paint-order="fill stroke markers" d="m100.36524,434.5c0,-8.36175 6.77302,-15.13477 15.13476,-15.13477c8.36175,0 15.13476,6.77302 15.13476,15.13477c0,8.36175 -6.77302,15.13477 -15.13476,15.13477c-8.36175,0 -15.13476,-6.77302 -15.13476,-15.13477z" stroke-width="5" stroke-miterlimit="10" stroke-dasharray=""></path><path data-v-9833e8b2="" transform="scale(0.04921259842519685)" fill="none" stroke="currentColor" paint-order="fill stroke markers" d="m52.5,377.5l-3,87" stroke-width="5" stroke-miterlimit="10" stroke-dasharray=""></path><path data-v-9833e8b2="" transform="scale(0.04921259842519685)" fill="none" stroke="currentColor" paint-order="fill stroke markers" d="m115.5,376.5l-2,85" stroke-width="5" stroke-miterlimit="10" stroke-dasharray=""></path></g></svg>