<svg data-v-9833e8b2="" version="1.1" xmlns="http://www.w3.org/2000/svg" xmlns:xlink="http://www.w3.org/1999/xlink" width="25" height="25"><g data-v-9833e8b2=""><path data-v-9833e8b2="" transform="scale(0.18115942028985507)" fill="none" stroke="currentColor" paint-order="fill stroke markers" d="m91.52757,4.14454l38.04697,0l0,6.28908l-38.04697,0l0,-6.28908zm-8.14455,15.91801l54.33607,0l0,6.28908l-54.33607,0l0,-6.28908z" stroke-width="5" stroke-miterlimit="10" stroke-dasharray=""></path><path data-v-9833e8b2="" transform="scale(0.18115942028985507)" fill="none" stroke="currentColor" paint-order="fill stroke markers" d="m106.91823,4.82813l7.28517,0l0,82.65646l-7.28517,0l0,-82.65646zm-8.9844,2.89063l-2.81251,0c-0.48828,0 -0.87891,-0.39063 -0.87891,-0.87891l0,-4.96095c0,-0.48828 0.39063,-0.87891 0.87891,-0.87891l2.81251,0c0.48828,0 0.87891,0.39063 0.87891,0.87891l0,4.96095c0,0.48828 -0.39063,0.87891 -0.87891,0.87891zm-9.51174,15.91801l-2.81251,0c-0.48828,0 -0.87891,-0.39063 -0.87891,-0.87891l0,-4.96095c0,-0.48828 0.39063,-0.87891 0.87891,-0.87891l2.81251,0c0.48828,0 0.87891,0.39063 0.87891,0.87891l0,4.96095c0,0.48828 -0.39063,0.87891 -0.87891,0.87891zm11.62112,0l-2.81251,0c-0.48828,0 -0.87891,-0.39063 -0.87891,-0.87891l0,-4.96095c0,-0.48828 0.39063,-0.87891 0.87891,-0.87891l2.81251,0c0.48828,0 0.87891,0.39063 0.87891,0.87891l0,4.96095c-0.01953,0.48828 -0.41016,0.87891 -0.87891,0.87891zm23.82818,0l-2.81251,0c-0.48828,0 -0.87891,-0.39063 -0.87891,-0.87891l0,-4.96095c0,-0.48828 0.39063,-0.87891 0.87891,-0.87891l2.81251,0c0.48828,0 0.87891,0.39063 0.87891,0.87891l0,4.96095c0,0.48828 -0.39063,0.87891 -0.87891,0.87891zm11.62112,0l-2.81251,0c-0.48828,0 -0.87891,-0.39063 -0.87891,-0.87891l0,-4.96095c0,-0.48828 0.39063,-0.87891 0.87891,-0.87891l2.81251,0c0.48828,0 0.87891,0.39063 0.87891,0.87891l0,4.96095c-0.01953,0.48828 -0.41016,0.87891 -0.87891,0.87891zm-9.51174,-15.91801l-2.81251,0c-0.48828,0 -0.87891,-0.39063 -0.87891,-0.87891l0,-4.96095c0,-0.48828 0.39063,-0.87891 0.87891,-0.87891l2.81251,0c0.48828,0 0.87891,0.39063 0.87891,0.87891l0,4.96095c0,0.48828 -0.41016,0.87891 -0.87891,0.87891z" stroke-width="5" stroke-miterlimit="10" stroke-dasharray=""></path><path data-v-9833e8b2="" transform="scale(0.18115942028985507)" fill="none" stroke="currentColor" paint-order="fill stroke markers" d="m9.9844,40.76572l41.97276,0l0,6.93361l-41.97276,0l0,-6.93361zm-8.9844,22.55865l59.96109,0l0,6.93361l-59.96109,0l0,-6.93361z" stroke-width="5" stroke-miterlimit="10" stroke-dasharray=""></path><path data-v-9833e8b2="" transform="scale(0.18115942028985507)" fill="none" stroke="currentColor" paint-order="fill stroke markers" d="m26.9571,41.52745l8.02736,0l0,96.19165l-8.02736,0l0,-96.19165zm-9.90237,3.20313l-3.10548,0c-0.52735,0 -0.97656,-0.42969 -0.97656,-0.97656l0,-5.4883c0,-0.52735 0.42969,-0.97656 0.97656,-0.97656l3.10548,0c0.52735,0 0.97656,0.42969 0.97656,0.97656l0,5.4883c0,0.54688 -0.42969,0.97656 -0.97656,0.97656zm-10.48831,22.53912l-3.10548,0c-0.52735,0 -0.97656,-0.42969 -0.97656,-0.97656l0,-5.4883c0,-0.52735 0.42969,-0.97656 0.97656,-0.97656l3.10548,0c0.52735,0 0.97656,0.42969 0.97656,0.97656l0,5.4883c0,0.54688 -0.44922,0.97656 -0.97656,0.97656zm12.81253,0l-3.10548,0c-0.52735,0 -0.97656,-0.42969 -0.97656,-0.97656l0,-5.4883c0,-0.52735 0.42969,-0.97656 0.97656,-0.97656l3.10548,0c0.52735,0 0.97656,0.42969 0.97656,0.97656l0,5.4883c0,0.54688 -0.44922,0.97656 -0.97656,0.97656zm26.30866,0l-3.10548,0c-0.52735,0 -0.97656,-0.42969 -0.97656,-0.97656l0,-5.4883c0,-0.52735 0.42969,-0.97656 0.97656,-0.97656l3.10548,0c0.52735,0 0.97656,0.42969 0.97656,0.97656l0,5.4883c-0.01953,0.54688 -0.44922,0.97656 -0.97656,0.97656zm12.81253,0l-3.10548,0c-0.52735,0 -0.97656,-0.42969 -0.97656,-0.97656l0,-5.4883c0,-0.52735 0.42969,-0.97656 0.97656,-0.97656l3.10548,0c0.52735,0 0.97656,0.42969 0.97656,0.97656l0,5.4883c-0.01953,0.54688 -0.44922,0.97656 -0.97656,0.97656zm-10.50784,-22.53912l-3.10548,0c-0.52735,0 -0.97656,-0.42969 -0.97656,-0.97656l0,-5.4883c0,-0.52735 0.42969,-0.97656 0.97656,-0.97656l3.10548,0c0.52735,0 0.97656,0.42969 0.97656,0.97656l0,5.4883c0,0.54688 -0.42969,0.97656 -0.97656,0.97656z" stroke-width="5" stroke-miterlimit="10" stroke-dasharray=""></path></g></svg>