<svg data-v-9833e8b2="" version="1.1" xmlns="http://www.w3.org/2000/svg" xmlns:xlink="http://www.w3.org/1999/xlink" width="27" height="25"><g data-v-9833e8b2=""><path data-v-9833e8b2="" transform="scale(0.19230769230769232)" fill="none" stroke="currentColor" paint-order="fill stroke markers" d="m7.6651,44.02094c-1.27084,0 -2.54167,-0.35417 -3.68751,-1.10417c-3.06251,-2.04167 -3.89584,-6.16668 -1.875,-9.25002c13.58337,-20.45839 36.33343,-32.66675 60.87515,-32.66675c24.29173,0 46.91678,12.0417 60.54182,32.18758c2.06251,3.04168 1.25,7.18752 -1.79167,9.25002c-3.04167,2.06251 -7.18752,1.25 -9.25002,-1.79167c-11.14586,-16.50004 -29.64591,-26.3334 -49.50012,-26.3334c-20.04172,0 -38.64593,9.97919 -49.75013,26.7084c-1.29167,1.9375 -3.39584,3.00001 -5.56251,3.00001z" stroke-width="5" stroke-miterlimit="10" stroke-dasharray=""></path><path data-v-9833e8b2="" transform="scale(0.19230769230769232)" fill="none" stroke="currentColor" paint-order="fill stroke markers" d="m99.332,129.10449c-2.58334,0 -5.06251,-1.52084 -6.14585,-4.06251l-30.50008,-71.50018l-30.22924,71.47935c-1.4375,3.39584 -5.35418,4.97918 -8.72919,3.54167c-3.39584,-1.4375 -4.97918,-5.35418 -3.54167,-8.72919l35.14592,-83.10438l0.1875,-0.33333c1.45834,-2.56251 4.18751,-4.14584 7.14585,-4.16668c2.93751,0 5.68751,1.58334 7.14585,4.14584l0.1875,0.33333l0.14583,0.35417l35.29176,82.75021c1.4375,3.39584 -0.125,7.31252 -3.52084,8.75002c-0.83334,0.375 -1.72917,0.54167 -2.58334,0.54167zm-64.39599,-36.85426l53.81264,0" stroke-width="5" stroke-miterlimit="10" stroke-dasharray=""></path><path data-v-9833e8b2="" transform="scale(0.19230769230769232)" fill="none" stroke="currentColor" paint-order="fill stroke markers" d="m34.93601,85.58355l53.83347,0l0,13.33337l-53.83347,0l0,-13.33337z" stroke-width="5" stroke-miterlimit="10" stroke-dasharray=""></path></g></svg>