<svg data-v-9833e8b2="" version="1.1" xmlns="http://www.w3.org/2000/svg" xmlns:xlink="http://www.w3.org/1999/xlink" width="25" height="25"><g data-v-9833e8b2=""><path data-v-9833e8b2="" transform="scale(0.13297872340425532)" fill="none" stroke="currentColor" paint-order="fill stroke markers" d="m84.68442,102.07421l-51.57908,0l81.57915,-97.36867l-21.05268,70.00018l47.89486,0l-83.68442,104.73711l26.84217,-77.36862z" stroke-width="5" stroke-miterlimit="10" stroke-dasharray=""></path><path data-v-9833e8b2="" transform="scale(0.13297872340425532)" fill="none" stroke="currentColor" paint-order="fill stroke markers" d="m144.68457,73.12677c-0.52632,-1.05263 -2.10527,-2.10527 -3.1579,-2.10527l-43.158,0l19.47373,-65.26332c0.52632,-1.57895 0,-3.68422 -1.57895,-4.21054c-1.57895,-1.05263 -3.68422,-0.52632 -4.73685,1.05264l-81.05283,97.36867c-1.05264,1.05264 -1.05264,2.63159 -0.52632,3.68422s2.10527,2.10527 3.1579,2.10527l46.31591,0l-25.26322,72.63176c-0.52632,1.57895 0,3.68422 1.57895,4.21054c0.52632,0.52632 1.05263,0.52632 1.57895,0.52632c1.05263,0 2.10527,-0.52632 2.63158,-1.57895l83.68442,-104.73711c1.57895,-1.05263 1.57895,-2.63158 1.05263,-3.68422zm-76.31598,87.36864l20.00005,-56.84225c0.52632,-1.05263 0,-2.63158 -0.52632,-3.1579s-1.57895,-1.57895 -3.1579,-1.57895l-43.68432,0l64.737,-77.89493l-15.78951,52.63171c-0.52632,1.05263 0,2.10527 0.52632,3.1579c0.52632,1.05264 1.57895,1.57895 3.1579,1.57895l40.52642,0l-65.78964,82.10547z" stroke-width="5" stroke-miterlimit="10" stroke-dasharray=""></path><path data-v-9833e8b2="" transform="scale(0.13297872340425532)" fill="none" stroke="currentColor" paint-order="fill stroke markers" d="m42.57905,136.81114l-28.94744,0c-2.63158,0 -4.73685,-2.10527 -4.73685,-4.73685l0,-78.94757c0,-2.63158 2.10527,-4.73685 4.73685,-4.73685l29.47376,0c2.10527,0 4.21054,-1.57895 4.21054,-4.21054s-2.63159,-3.68422 -4.73685,-3.68422l-28.94744,0c-6.84212,0 -12.63161,5.78949 -12.63161,12.63161l0,78.94757c0,6.84212 5.78949,12.63161 12.63161,12.63161l29.47376,0c2.10527,0 4.21054,-1.57895 4.21054,-4.21054s-2.63159,-3.68422 -4.73685,-3.68422zm132.10559,-65.26332l-1.57895,0l0,-18.94741c0,-6.84212 -5.78949,-12.63161 -12.63161,-12.63161l-33.6843,0c-2.10527,0 -4.21054,1.57895 -4.21054,4.21054s1.57895,4.21054 4.21054,4.21054l33.6843,0c2.63158,0 4.73685,2.10527 4.73685,4.73685l0,78.94757c0,2.63158 -2.10527,4.73685 -4.73685,4.73685l-33.6843,0c-2.10527,0 -4.21054,1.57895 -4.21054,4.21054s1.57895,4.21054 4.21054,4.21054l33.6843,0c6.84212,0 12.63161,-5.78949 12.63161,-12.63161l0,-19.47373l1.57895,0c6.84212,0 12.63161,-5.78949 12.63161,-12.63161l0,-16.31583c0,-6.84212 -5.26317,-12.63161 -12.63161,-12.63161zm4.73685,28.94744c0,2.63158 -2.10527,4.73685 -4.73685,4.73685l-1.57895,0l0,-25.78954l1.57895,0c2.63159,0 4.73686,2.10527 4.73685,4.73685l0,16.31583z" stroke-width="5" stroke-miterlimit="10" stroke-dasharray=""></path></g></svg>