<svg data-v-9833e8b2="" version="1.1" xmlns="http://www.w3.org/2000/svg" xmlns:xlink="http://www.w3.org/1999/xlink" width="22" height="25"><g data-v-9833e8b2=""><path data-v-9833e8b2="" transform="scale(0.14204545454545456)" fill="none" stroke="currentColor" paint-order="fill stroke markers" d="m119.94561,20.45317c-4.47267,0 -8.37893,3.02735 -9.49221,7.38283l-0.23438,0.91797l-5.37111,0l0,-13.61332l5.52736,0l0,-14.043l-74.883,0l0,14.043l5.52736,0l0,13.61332l-5.37111,0l-0.23438,-0.91797c-1.11328,-4.33595 -5.00001,-7.38283 -9.49221,-7.38283c-5.39064,0 -9.78518,4.39454 -9.78518,9.78518s4.39454,9.78518 9.78518,9.78518c4.47267,0 8.37893,-3.02735 9.49221,-7.3633l0.23438,-0.91797l8.3594,0l0,-16.6016l13.61332,0l0,1.3086c0.01953,7.51955 5.39064,13.84769 12.793,15.07816l1.01563,0.17578l0,5.37111l-1.15235,0.07813c-22.61724,1.38672 -40.33213,20.21489 -40.33213,42.89073l0,67.85173l22.38287,0l0,-2.71485l5.25392,0l0,30.37117l30.64461,0l0,-30.3907l5.25392,0l0,2.71485l22.38287,0l0,-67.87126c0,-22.67584 -17.71489,-41.50401 -40.33213,-42.89073l-1.15235,-0.07813l0,-5.37111l1.01563,-0.17578c7.42189,-1.23047 12.793,-7.57814 12.793,-15.11723l0,-1.26953l13.61332,0l0,16.58207l8.3594,0l0.23438,0.91797c1.11328,4.33595 5.00001,7.38283 9.49221,7.38283c5.39064,0 9.78518,-4.39454 9.78518,-9.78518s-4.31642,-9.74612 -9.72659,-9.74612zm-35.31259,83.30099l3.14454,9.53127l1.07422,14.98051l-2.07032,7.0508l-36.8165,-0.01953c-5.83986,-28.32038 10.62503,-39.62901 10.62503,-39.62901l12.57816,0.39063l11.46487,7.69533zm-13.30081,-80.35176c-2.38282,0 -4.29689,-1.9336 -4.29689,-4.29689s1.9336,-4.29689 4.29689,-4.29689c2.38282,0 4.29689,1.9336 4.29689,4.29689s-1.91407,4.29689 -4.29689,4.29689zm-49.64856,110.37137l2.98829,0l0,8.6133l-2.98829,0l0,-8.6133zm-13.88675,0.05859l8.6133,0l0,2.98829l-8.6133,0l0,-2.98829zm113.43779,-0.05859l2.98829,0l0,8.6133l-2.98829,0l0,-8.6133zm8.24221,0.05859l8.6133,0l0,2.98829l-8.6133,0l0,-2.98829zm-13.7891,-132.7933l2.98829,0l0,5.83986l-2.98829,0l0,-5.83986zm8.26174,0.05859l14.14066,0l0,2.98829l-14.14066,0l0,-2.98829zm-96.79712,-0.03906l2.98829,-0.01953l0.03906,5.83986l-2.98829,0.01953l-0.03906,-5.83986zm-19.2188,0.03906l14.00394,0l0,2.98829l-14.00394,0l0,-2.98829z" stroke-width="5" stroke-miterlimit="10" stroke-dasharray=""></path><path data-v-9833e8b2="" transform="scale(0.14204545454545456)" fill="none" stroke="currentColor" paint-order="fill stroke markers" d="m36.95712,84.02755l3.08595,0l0,2.98829l-3.08595,0l0,-2.98829zm8.28127,0l3.08595,0l0,2.98829l-3.08595,0l0,-2.98829zm8.3008,0l3.08595,0l0,2.98829l-3.08595,0l0,-2.98829zm-38.65244,49.72669l2.98829,0l0,8.6133l-2.98829,0l0,-8.6133zm-13.88675,0.03906l8.6133,0l0,2.98829l-8.6133,0l0,-2.98829zm113.43779,-0.03906l2.98829,0l0,8.6133l-2.98829,0l0,-8.6133zm8.24221,0.03906l8.6133,0l0,2.98829l-8.6133,0l0,-2.98829zm-71.89471,-11.05472l30.74226,0l0,2.98829l-30.74226,0l0,-2.98829zm44.23839,5.52736l5.83986,0l0,2.98829l-5.83986,0l0,-2.98829zm-63.59391,0l5.83986,0l0,2.98829l-5.83986,0l0,-2.98829zm34.70712,-118.90655c-3.8672,0 -7.03127,3.14454 -7.03127,7.03127s3.14454,7.03127 7.03127,7.03127c3.8672,0 7.03127,-3.14454 7.03127,-7.03127s-3.14454,-7.03127 -7.03127,-7.03127zm0,11.05472c-2.22657,0 -4.04298,-1.81641 -4.04298,-4.04298c0,-2.22657 1.81641,-4.04298 4.04298,-4.04298c2.22657,0 4.04298,1.81641 4.04298,4.04298c0,2.22657 -1.81641,4.04298 -4.04298,4.04298zm42.75401,-19.39458l2.98829,0l0,5.83986l-2.98829,0l0,-5.83986zm8.26174,0.03906l14.14066,0l0,2.98829l-14.14066,0l0,-2.98829zm-93.76977,5.8008l-0.03906,-5.85939l-2.98829,0.01953l0.03906,5.85939l2.98829,-0.01953zm-22.24615,-5.8008l14.00394,0l0,2.98829l-14.00394,0l0,-2.98829z" stroke-width="5" stroke-miterlimit="10" stroke-dasharray=""></path><path data-v-9833e8b2="" transform="scale(0.14204545454545456)" fill="none" stroke="currentColor" paint-order="fill stroke markers" d="m113.14872,20.41411c-4.47267,0 -8.37893,3.02735 -9.49221,7.38283l-0.23438,0.91797l-5.37111,0l0,-13.61332l5.52736,0l0,-14.043l-74.883,0l0,14.043l5.52736,0l0,13.61332l-5.37111,0l-0.23438,-0.91797c-1.11328,-4.33595 -5.00001,-7.38283 -9.49221,-7.38283c-5.39064,0 -9.78518,4.39454 -9.78518,9.78518s4.39454,9.78518 9.78518,9.78518c4.47267,0 8.37893,-3.02735 9.49221,-7.3633l0.23438,-0.91797l8.3594,0l0,-16.6016l13.61332,0l0,1.28907c0,7.51955 5.39064,13.86722 12.793,15.09769l1.01563,0.17578l0,5.37111l-1.15235,0.07813c-22.59771,1.36719 -40.3126,20.19536 -40.3126,42.8712l0,67.85173l22.38287,0l0,-2.98829l-19.41411,0l0,-64.86344c0,-20.91802 16.32817,-38.4376 37.18759,-39.88291l1.3086,-0.09766l0,55.07826l-1.11328,0.09766c-5.72267,0.52735 -11.01565,3.1836 -14.92191,7.44142c-3.92579,4.29689 -6.09377,9.84377 -6.09377,15.64457l0,18.51567l8.3008,0l0,38.71103l30.64461,0l0,-38.71103l8.3008,0l0,-18.51567c0,-5.8008 -2.16797,-11.36722 -6.09377,-15.64457c-3.90626,-4.25782 -9.19924,-6.89455 -14.92191,-7.44142l-1.11328,-0.09766l0,-55.07826l1.3086,0.09766c20.85943,1.44532 37.18759,18.96489 37.18759,39.88291l0,64.88298l-19.41411,0l0,2.96876l22.4024,0l0,-67.85173c0,-22.67584 -17.71489,-41.50401 -40.33213,-42.89073l-1.15235,-0.07813l0,-5.37111l1.01563,-0.17578c7.42189,-1.23047 12.793,-7.57814 12.793,-15.11723l0,-1.26953l13.61332,0l0,16.58207l8.39846,0l0.23438,0.91797c1.11328,4.33595 5.00001,7.38283 9.49221,7.38283c5.39064,0 9.78518,-4.39454 9.78518,-9.78518c-0.01953,-5.37111 -4.39454,-9.76565 -9.80471,-9.76565zm-94.00414,16.6016c-3.75001,0 -6.79689,-3.04688 -6.79689,-6.79689c0,-3.75001 3.04688,-6.79689 6.79689,-6.79689s6.79689,3.04688 6.79689,6.79689c0,3.73048 -3.04688,6.79689 -6.79689,6.79689zm32.26571,-24.90241l-19.72661,0l0,-8.06643l24.98053,0l-1.85547,2.05079c-1.38672,1.52344 -2.42188,3.28126 -3.10548,5.21486l-0.29297,0.80078zm27.07038,160.39103l-24.66803,0l0,-35.72275l24.66803,0l0,35.72275zm8.3008,-54.23842l0,15.52738l-41.26964,0l0,-15.52738c0,-11.13284 9.06252,-20.21489 20.21489,-20.21489l0.83985,0c11.15237,0.01953 20.21489,9.08205 20.21489,20.21489zm-11.91409,-93.1643c-2.32422,2.32422 -5.4297,3.61329 -8.71096,3.61329c-6.79689,0 -12.32425,-5.52736 -12.32425,-12.32425s5.52736,-12.32425 12.32425,-12.32425s12.32425,5.52736 12.32425,12.32425c0,3.28126 -1.28907,6.3672 -3.61329,8.71096zm6.01564,-12.98831l-0.29297,-0.80078c-0.6836,-1.9336 -1.71875,-3.69142 -3.10548,-5.21486l-1.85547,-2.05079l24.98053,0l0,8.06643l-19.72661,0zm32.26571,24.90241c-3.75001,0 -6.79689,-3.04688 -6.79689,-6.79689c0,-3.75001 3.04688,-6.79689 6.79689,-6.79689c3.75001,0 6.79689,3.04688 6.79689,6.79689c0.01953,3.73048 -3.04688,6.79689 -6.79689,6.79689zm-62.32438,-20.62505z" stroke-width="5" stroke-miterlimit="10" stroke-dasharray=""></path></g></svg>