<svg data-v-9833e8b2="" version="1.1" xmlns="http://www.w3.org/2000/svg" xmlns:xlink="http://www.w3.org/1999/xlink" width="25" height="25"><g data-v-9833e8b2=""><path data-v-9833e8b2="" transform="scale(0.12376237623762376)" fill="none" stroke="currentColor" paint-order="fill stroke markers" d="m187.66714,50.16679c-2.50001,-4.16668 -7.50002,-5.00001 -11.6667,-3.33334c-4.16668,2.50001 -5.00001,7.50002 -3.33334,11.6667c7.50002,12.50003 11.6667,27.50007 11.6667,41.66677c0,45.83345 -37.50009,83.33354 -83.33354,83.33354s-83.33354,-36.66676 -83.33354,-82.50021s37.50009,-83.33354 83.33354,-83.33354c10.00003,0 20.00005,1.66667 29.16674,5.00001c4.16668,1.66667 9.16669,0 10.83336,-5.00001c1.66667,-4.16668 -0.83334,-9.16669 -5.00001,-10.83336c-11.6667,-3.33334 -23.33339,-5.83335 -35.00009,-5.83335c-55.00014,0 -100.00025,45.00011 -100.00025,100.00025s45.00011,100.00025 100.00025,100.00025s100.00025,-45.00011 100.00025,-100.00025c0,-17.50004 -5.00001,-35.00009 -13.33337,-50.83346z" stroke-width="5" stroke-miterlimit="10" stroke-dasharray=""></path><path data-v-9833e8b2="" transform="scale(0.12376237623762376)" fill="none" stroke="currentColor" paint-order="fill stroke markers" d="m131.00033,105.16693l-21.66672,-53.33347c-1.66667,-3.33334 -4.16668,-5.00001 -7.50002,-5.00001s-6.66668,1.66667 -7.50002,5.00001l-35.83342,84.16688c-1.66667,4.16668 0,9.16669 4.16668,10.83336c4.16668,1.66667 9.16669,0 10.83336,-4.16668l10.00003,-25.00006l34.16675,0l10.00003,25.00006c1.66667,3.33334 4.16668,5.00001 7.50002,5.00001c0.83334,0 2.50001,0 3.33334,-0.83333c4.16668,-1.66667 6.66668,-6.66668 4.16668,-10.83336l-11.6667,-30.83341c0,0.83334 0,0 0,0zm-39.16676,-5.00001l9.16669,-23.33339l9.16669,23.33339l-18.33338,0z" stroke-width="5" stroke-miterlimit="10" stroke-dasharray=""></path></g></svg>