<svg data-v-9833e8b2="" version="1.1" xmlns="http://www.w3.org/2000/svg" xmlns:xlink="http://www.w3.org/1999/xlink" width="27" height="25"><g data-v-9833e8b2=""><path data-v-9833e8b2="" transform="scale(0.12376237623762376)" fill="none" stroke="currentColor" paint-order="fill stroke markers" d="m131.25033,193.75049l-23.00006,-23.00006c-5.87501,-5.87501 -15.25004,-5.87501 -21.12505,0l-25.62506,25.75006c9.75002,2.87501 20.12505,4.50001 30.87508,4.50001c13.62503,0 26.87507,-2.50001 38.8751,-7.25002z" stroke-width="5" stroke-miterlimit="10" stroke-dasharray=""></path><path data-v-9833e8b2="" transform="scale(0.12376237623762376)" fill="none" stroke="currentColor" paint-order="fill stroke markers" d="m97.75024,1c-53.50013,0 -96.75024,43.37511 -96.75024,96.75024c0,38.2501 22.25006,71.37518 54.50014,87.12522l31.75008,-31.75008c5.87501,-5.87501 15.25004,-5.87501 21.12505,0l31.75008,31.75008c32.25008,-15.75004 54.50014,-48.75012 54.50014,-87.12522c-0.125,-53.37513 -43.37511,-96.75024 -96.87524,-96.75024zm30.50008,136.25034c-0.625,0.25 -1.25,0.375 -1.75,0.375c-1.75,0 -3.50001,-1 -4.25001,-2.75001l-7.75002,-18.00005l-26.62507,0l-7.62502,18.00005c-1,2.37501 -3.75001,3.50001 -6.00002,2.50001c-2.37501,-1 -3.50001,-3.75001 -2.50001,-6.00002l24.25006,-57.37514l0.125,-0.25c1,-1.75 2.87501,-2.87501 4.87501,-2.87501s3.87501,1.125 4.87501,2.87501l0.125,0.25l0.125,0.25l24.37506,57.12514c1.125,2.25001 0,4.87501 -2.25001,5.87501zm20.62505,-69.50017c-1.625,1 -3.87501,0.5 -4.87501,-1.25c-9.00002,-14.62504 -25.12506,-24.25006 -43.50011,-24.25006c-18.25005,0 -34.25009,9.62502 -43.25011,24.12506c-1,1.75 -3.37501,2.12501 -4.87501,1c-1.625,-1 -2.12501,-3.12501 -1,-4.75001c10.12503,-16.37504 28.37507,-27.37507 49.12512,-27.37507c20.87505,0 39.1251,11.12503 49.37512,27.62507c1.125,1.625 0.75,3.75001 -1,4.87501z" stroke-width="5" stroke-miterlimit="10" stroke-dasharray=""></path><path data-v-9833e8b2="" transform="scale(0.12376237623762376)" fill="none" stroke="currentColor" paint-order="fill stroke markers" d="m110.62528,107.62527l-9.50002,-22.12506l-9.37502,22.12506l18.87505,0z" stroke-width="5" stroke-miterlimit="10" stroke-dasharray=""></path></g></svg>