<svg data-v-9833e8b2="" version="1.1" xmlns="http://www.w3.org/2000/svg" xmlns:xlink="http://www.w3.org/1999/xlink" width="22" height="25"><g data-v-9833e8b2=""><path data-v-9833e8b2="" transform="scale(0.1488095238095238)" fill="none" stroke="currentColor" paint-order="fill stroke markers" d="m21.83338,38.50009c0,-2.50001 1.66667,-4.16668 4.16668,-4.16668l83.33354,0c2.50001,0 4.16668,1.66667 4.16668,4.16668s-1.66667,4.16668 -4.16668,4.16668l-83.33354,0c-2.50001,0 -4.16668,-1.66667 -4.16668,-4.16668zm4.16668,37.50009l83.33354,0c2.50001,0 4.16668,-1.66667 4.16668,-4.16668s-1.66667,-4.16668 -4.16668,-4.16668l-83.33354,0c-2.50001,0 -4.16668,1.66667 -4.16668,4.16668s1.66667,4.16668 4.16668,4.16668zm0,33.33342l25.00006,0c2.50001,0 4.16668,-1.66667 4.16668,-4.16668s-1.66667,-4.16668 -4.16668,-4.16668l-25.00006,0c-2.50001,0 -4.16668,1.66667 -4.16668,4.16668s1.66667,4.16668 4.16668,4.16668zm88.33355,-108.33361l-93.33357,0c-10.83336,0 -20.00005,9.16669 -20.00005,20.00005l0,126.66699c0,10.83336 9.16669,20.00005 20.00005,20.00005l9.16669,0c2.50001,0 4.16668,-1.66667 4.16668,-4.16668s-1.66667,-4.16668 -4.16668,-4.16668l-9.16669,0c-6.66668,0 -11.6667,-5.00001 -11.6667,-11.6667l0,-126.66699c0,-6.66668 5.00001,-11.6667 11.6667,-11.6667l93.33357,0c6.66668,0 11.6667,5.00001 11.6667,11.6667l0,42.50011c0,2.50001 1.66667,4.16668 4.16668,4.16668s4.16668,-1.66667 4.16668,-4.16668l0,-42.50011c0,-10.83336 -9.16669,-20.00005 -20.00005,-20.00005zm20.00005,83.33354l0,66.66683c0,9.16669 -7.50002,16.66671 -16.66671,16.66671l-66.66683,0c0,-45.83345 37.50009,-83.33354 83.33354,-83.33354zm-74.16685,75.00019l40.83344,0l-16.66671,-33.33342l41.66677,9.16669l0,-41.66677c-35.00009,3.33334 -62.50016,30.83341 -65.8335,65.8335z" stroke-width="5" stroke-miterlimit="10" stroke-dasharray=""></path></g></svg>