<svg data-v-9833e8b2="" version="1.1" xmlns="http://www.w3.org/2000/svg" xmlns:xlink="http://www.w3.org/1999/xlink" width="27" height="25"><g data-v-9833e8b2=""><path data-v-9833e8b2="" transform="scale(0.12562814070351758)" fill="none" stroke="currentColor" paint-order="fill stroke markers" d="m125.84498,184.60046l-106.70027,0a6.38237,6.38237 0 0 1 -5.89413,-8.8412c23.39418,-56.22955 36.6648,-98.36495 39.81186,-126.65326c1.5,-13.51768 2.66471,-23.75888 3.50001,-30.71184a6.38237,6.38237 0 0 1 6.33531,-5.62943l63.42369,0c3.30001,0 6.05884,2.51765 6.35884,5.8059c0.68235,7.47061 2.17648,17.76475 4.47648,30.90008c1.20588,8.97061 2.9353,18.44711 5.14707,28.20595a5.88237,5.88237 0 0 0 11.47062,-2.60589a313.47138,313.47138 0 0 1 -4.99413,-27.40007c-2.28824,-13.0765 -3.7353,-23.07065 -4.38236,-30.17066a18.1471,18.1471 0 0 0 -18.07652,-16.50004l-63.42369,0a18.1471,18.1471 0 0 0 -18.01769,16.00004c-0.8353,6.98825 -2.00589,17.25887 -3.51177,30.80596c-2.99412,26.91771 -15.98239,68.15311 -38.97657,123.42972a18.1471,18.1471 0 0 0 16.75298,25.11771l106.70615,0a5.88237,5.88237 0 0 0 0,-11.76473l-0.00588,0.01176z" stroke-width="5" stroke-miterlimit="10" stroke-dasharray=""></path><path data-v-9833e8b2="" transform="scale(0.12562814070351758)" fill="none" stroke="currentColor" paint-order="fill stroke markers" d="m89.1743,79.12961l14.31768,7.61178a5.89413,5.89413 0 0 1 4.37648,4.65884a5.85884,5.85884 0 0 1 -1.29412,5.11766l-21.39417,40.24716a5.88237,5.88237 0 1 1 -10.38826,-5.52354l19.24711,-36.20009l-15.45298,-8.21767a5.8706,5.8706 0 0 1 -3.02354,-4.14119a5.85884,5.85884 0 0 1 0.54706,-4.03531l13.8118,-25.97065a5.88237,5.88237 0 0 1 10.38238,5.52354l-11.12944,20.92946z" stroke-width="5" stroke-miterlimit="10" stroke-dasharray=""></path><path data-v-9833e8b2="" transform="scale(0.12562814070351758)" fill="none" stroke="currentColor" paint-order="fill stroke markers" d="m174.5157,177.41221a47.05894,47.05894 0 1 1 -47.05894,-81.50609a47.05894,47.05894 0 0 1 47.05894,81.50609zm-5.88237,-10.18826a35.29421,35.29421 0 1 0 -35.29421,-61.12957a35.29421,35.29421 0 0 0 35.29421,61.12957z" stroke-width="5" stroke-miterlimit="10" stroke-dasharray=""></path><path data-v-9833e8b2="" transform="scale(0.12562814070351758)" fill="none" stroke="currentColor" paint-order="fill stroke markers" d="m171.57451,172.31808a5.88237,5.88237 0 0 1 8.03532,2.15295l8.82355,15.28239a5.88237,5.88237 0 1 1 -10.18826,5.88237l-8.82355,-15.28239a5.88237,5.88237 0 0 1 2.15295,-8.03532z" stroke-width="5" stroke-miterlimit="10" stroke-dasharray=""></path></g></svg>