<svg data-v-9833e8b2="" version="1.1" xmlns="http://www.w3.org/2000/svg" xmlns:xlink="http://www.w3.org/1999/xlink" width="19.5" height="25"><g data-v-9833e8b2=""><path data-v-9833e8b2="" transform="scale(0.13812154696132597)" fill="none" stroke="currentColor" paint-order="fill stroke markers" d="m98.00024,43.00011l0,-29.00007c0,-7.00002 -6.00002,-13.00003 -12.00003,-13.00003c-7.00002,0 -12.00003,6.00002 -12.00003,13.00003l0,29.00007l-25.00006,0l0,-29.00007c0,-7.00002 -6.00002,-13.00003 -12.00003,-13.00003c-7.00002,0 -12.00003,6.00002 -12.00003,13.00003l0,29.00007l-24.00006,0l0,62.00016c0,11.00003 8.00002,20.00005 18.00005,20.00005l18.00005,0l0,13.00003l13.00003,0l0,42.00011l25.00006,0l0,-42.00011l12.00003,0l0,-13.00003l19.00005,0c10.00003,0 18.00005,-9.00002 18.00005,-20.00005l0,-62.00016l-26.00007,0zm-18.00005,66.00017l-36.00009,0c-8.00002,0 -12.00003,-6.00002 -8.00002,-13.00003l19.00005,-34.00009c4.00001,-7.00002 10.00003,-7.00002 14.00004,0l19.00005,34.00009c4.00001,7.00002 0,13.00003 -8.00002,13.00003z" stroke-width="5" stroke-miterlimit="10" stroke-dasharray=""></path><path data-v-9833e8b2="" transform="scale(0.13812154696132597)" fill="none" stroke="currentColor" paint-order="fill stroke markers" d="m66.00016,71.00018c0,-2.00001 -2.00001,-4.00001 -4.00001,-4.00001s-4.00001,2.00001 -4.00001,4.00001l0,18.00005c0,2.00001 2.00001,4.00001 4.00001,4.00001s4.00001,-2.00001 4.00001,-4.00001l0,-18.00005zm-8.00002,28.00007a4.00001,4.00001 0 1 0 8.00002,0a4.00001,4.00001 0 1 0 -8.00002,0z" stroke-width="5" stroke-miterlimit="10" stroke-dasharray=""></path></g></svg>