<svg data-v-9833e8b2="" version="1.1" xmlns="http://www.w3.org/2000/svg" xmlns:xlink="http://www.w3.org/1999/xlink" width="25" height="20"><g data-v-9833e8b2=""><path data-v-9833e8b2="" transform="scale(0.14450867052023122)" fill="none" stroke="currentColor" paint-order="fill stroke markers" d="m134.62865,113.10034a2.34376,2.34376 0 0 1 -2.22657,-1.61133l-6.90431,-20.93365a2.34376,2.34376 0 1 1 4.45118,-1.46875l6.90431,20.93365a2.34376,2.34376 0 0 1 -2.22461,3.08009zm-15.23246,2.83594a2.34376,2.34376 0 0 1 -2.22461,-1.60938l-6.40236,-19.39458a2.34376,2.34376 0 1 1 4.44923,-1.47071l6.41213,19.38481a2.34376,2.34376 0 0 1 -2.23438,3.08985z" stroke-width="5" stroke-miterlimit="10" stroke-dasharray=""></path><path data-v-9833e8b2="" transform="scale(0.14450867052023122)" fill="none" stroke="currentColor" paint-order="fill stroke markers" d="m50.91008,31.36575l90.43265,-26.85593l21.85181,73.58183l-90.43265,26.85612l-21.85181,-73.58202z" stroke-width="5" stroke-miterlimit="10" stroke-dasharray=""></path><path data-v-9833e8b2="" transform="scale(0.14450867052023122)" fill="none" stroke="currentColor" paint-order="fill stroke markers" d="m72.7574,108.46556a3.51563,3.51563 0 0 1 -3.36915,-2.51563l-21.84966,-73.58222a3.51563,3.51563 0 0 1 2.3711,-4.3711l90.42992,-26.85163a3.51563,3.51563 0 0 1 4.36915,2.36915l21.85357,73.58222a3.51563,3.51563 0 0 1 -2.36915,4.3711l-90.43382,26.85163a3.56251,3.56251 0 0 1 -1.00196,0.14648zm-17.47661,-74.7287l19.84771,66.84197l83.68771,-24.85163l-19.84185,-66.84197l-83.69357,24.85163z" stroke-width="5" stroke-miterlimit="10" stroke-dasharray=""></path><path data-v-9833e8b2="" transform="scale(0.14450867052023122)" fill="none" stroke="currentColor" paint-order="fill stroke markers" d="m70.39802,61.69591a3.51563,3.51563 0 0 1 -3.36915,-2.51563l-3.66798,-12.35745a3.51563,3.51563 0 0 1 2.36915,-4.3711l69.24431,-20.5606a3.51563,3.51563 0 0 1 4.3711,2.36915l3.66798,12.35745a3.51563,3.51563 0 0 1 -2.36133,4.3711l-69.25213,20.5606a3.56446,3.56446 0 0 1 -1.00196,0.14648zm0.70313,-13.50589l1.66797,5.6172l62.50016,-18.55473l-1.66797,-5.6172l-62.50016,18.55473z" stroke-width="5" stroke-miterlimit="10" stroke-dasharray=""></path><path data-v-9833e8b2="" transform="scale(0.14450867052023122)" fill="none" stroke="currentColor" paint-order="fill stroke markers" d="m112.82977,67.27991a2.34376,2.34376 0 0 1 -2.2461,-1.67774l-2.2793,-7.67385a2.34376,2.34376 0 0 1 1.58008,-2.91407l33.14071,-9.84182a2.34376,2.34376 0 0 1 2.91407,1.58008l2.2793,7.6758a2.34376,2.34376 0 0 1 -1.58008,2.91407l-33.13485,9.83987a2.34376,2.34376 0 0 1 -0.67383,0.09766zm0.63477,-8.44143l0.94531,3.19141l28.64656,-8.51565l-0.94336,-3.18165l-28.64851,8.50588zm3.98048,23.98053a2.34376,2.34376 0 0 1 -2.2461,-1.67579l-2.28126,-7.67775a2.34376,2.34376 0 0 1 1.58008,-2.91407l33.13876,-9.83987a2.34376,2.34376 0 0 1 2.91407,1.58008l2.2793,7.6758a2.34376,2.34376 0 0 1 -1.57813,2.91407l-33.13876,9.83987a2.34376,2.34376 0 0 1 -0.66797,0.09766zm0.63477,-8.44143l0.94531,3.1836l28.64656,-8.50002l-0.94531,-3.1836l-28.64656,8.50002z" stroke-width="5" stroke-miterlimit="10" stroke-dasharray=""></path><path data-v-9833e8b2="" transform="scale(0.14450867052023122)" fill="none" stroke="currentColor" paint-order="fill stroke markers" d="m66.40192,109.75267a17.64262,17.64262 0 0 1 -14.01371,-6.91408a197.55323,197.55323 0 0 0 -19.26763,-21.8106c-14.4434,-13.99613 -29.17781,-17.20512 -29.32625,-17.24028a3.5254,3.5254 0 0 1 -2.79102,-3.60157l0.71875,-15.41801a3.51563,3.51563 0 0 1 2.50196,-3.20704l45.68566,-13.56449a3.51563,3.51563 0 0 1 4.3711,2.36915l2.56055,8.61721l19.28716,64.95915a3.51563,3.51563 0 0 1 -2.36915,4.37696l-2.41212,0.7168a17.34184,17.34184 0 0 1 -4.94532,0.7168zm-58.2521,-52.05872c5.46876,1.68946 17.70122,6.49806 29.86531,18.2852a204.82473,204.82473 0 0 1 19.97075,22.60357a10.56643,10.56643 0 0 0 10.38674,3.95118l-18.27153,-61.54312l-1.5625,-5.25197l-39.91807,11.85159l-0.4707,10.10354z" stroke-width="5" stroke-miterlimit="10" stroke-dasharray=""></path><path data-v-9833e8b2="" transform="scale(0.14450867052023122)" fill="none" stroke="currentColor" paint-order="fill stroke markers" d="m4.78067,56.7916a2.34376,2.34376 0 0 1 -0.66602,-4.59181l48.68958,-14.45316a2.34376,2.34376 0 1 1 1.33399,4.4922l-48.68958,14.45316a2.34376,2.34376 0 0 1 -0.66797,0.09961zm164.59416,7.90822a3.51563,3.51563 0 0 1 -3.36915,-2.51563l-13.62113,-45.87121a3.51563,3.51563 0 0 1 6.74025,-2.00196l13.62113,45.87316a3.51563,3.51563 0 0 1 -2.36915,4.3711a3.56251,3.56251 0 0 1 -1.00196,0.14453zm-151.23671,3.38477a2.34376,2.34376 0 0 1 -0.66602,-4.59181l29.75984,-8.83596a2.34376,2.34376 0 1 1 1.33399,4.4922l-29.75984,8.83987a2.34376,2.34376 0 0 1 -0.66797,0.0957zm24.12897,19.61333a2.34376,2.34376 0 0 1 -0.66602,-4.59181l12.93753,-3.83985a2.34376,2.34376 0 1 1 1.33399,4.4922l-12.93558,3.84181a2.34376,2.34376 0 0 1 -0.66992,0.09766zm112.31083,49.62122l-48.69153,0a3.51563,3.51563 0 0 1 0,-7.03127l48.69153,0a3.51563,3.51563 0 0 1 0,7.03127zm-45.79504,-10.5762l-2.89649,0a3.51563,3.51563 0 0 1 0,-7.03127l2.9043,0a3.51563,3.51563 0 0 1 0,7.03127l-0.00781,0zm45.79504,0l-12.21683,0a3.51563,3.51563 0 0 1 0,-7.03127l12.21683,0a3.51563,3.51563 0 0 1 0,7.03127z" stroke-width="5" stroke-miterlimit="10" stroke-dasharray=""></path><path data-v-9833e8b2="" transform="scale(0.14450867052023122)" fill="none" stroke="currentColor" paint-order="fill stroke markers" d="m142.36109,126.74295a3.51563,3.51563 0 0 1 -3.51563,-3.51563a8.61721,8.61721 0 0 0 -17.23442,0a3.51563,3.51563 0 1 1 -7.03127,0a15.64848,15.64848 0 0 1 31.29695,0a3.51563,3.51563 0 0 1 -3.51563,3.51563z" stroke-width="5" stroke-miterlimit="10" stroke-dasharray=""></path></g></svg>