<svg data-v-9833e8b2="" version="1.1" xmlns="http://www.w3.org/2000/svg" xmlns:xlink="http://www.w3.org/1999/xlink" width="25" height="22.5"><g data-v-9833e8b2=""><path data-v-9833e8b2="" transform="scale(0.12376237623762376)" fill="none" stroke="currentColor" paint-order="fill stroke markers" d="m107.29302,1.91092a6.67713,6.67713 0 0 1 6.81339,6.81339l0,63.13746l8.6303,0a28.47999,28.47999 0 0 1 26.34513,18.62328a79.30791,79.30791 0 0 1 1.8169,27.70781c-0.90845,16.80637 -0.45423,27.25358 8.17607,33.15852c6.35917,4.08804 16.80637,6.35917 24.074,-0.90845c5.90494,-5.90494 5.90494,-15.44369 -1.36268,-31.34162c-5.45071,-11.80988 -3.63381,-23.16554 -2.27113,-32.25007c1.8169,-12.71834 2.72536,-18.16905 -10.4472,-22.71132a18.44159,18.44159 0 0 1 -11.35566,-5.90494s-10.44721,-12.71834 -21.34864,-15.44369s-6.81339,-9.08453 -4.99649,-12.26411s14.98947,-3.63381 19.98596,-1.36268l23.61977,11.35566c4.08804,1.81691 4.08804,7.26762 2.72536,11.80988c19.53173,8.6303 17.2606,24.07399 15.44369,36.33811c-1.36268,8.17607 -2.72536,16.35215 0.90845,24.074c4.08804,8.6303 14.08102,31.34162 -1.36268,46.78531a30.16063,30.16063 0 0 1 -21.80286,8.6303a37.06487,37.06487 0 0 1 -19.98596,-6.35917c-15.89792,-10.44721 -14.98947,-29.07048 -14.08102,-45.42263a59.95787,59.95787 0 0 0 -1.36268,-22.71132a14.12644,14.12644 0 0 0 -13.17256,-9.08453l-8.6303,0l0,83.57764l7.26762,0a6.58628,6.58628 0 0 1 6.81339,6.81339l0,7.26762l-126.72914,0l0,-6.81339a6.58628,6.58628 0 0 1 6.81339,-6.81339l7.26762,0l0,-160.79612a7.08593,7.08593 0 0 1 7.26762,-6.81339l84.94032,0l0,0.90845zm-65.40859,79.94383c-6.81339,0 -9.99298,4.08804 -9.99298,12.26411s3.63381,12.26411 10.4472,12.26411a10.22009,10.22009 0 0 0 6.81339,-2.27113l0.45423,-0.45423l-2.72536,-2.72536a5.8141,5.8141 0 0 1 -4.54226,1.8169c-4.08804,0.45423 -6.35917,-2.72536 -6.35917,-8.17607s1.81691,-8.6303 5.90494,-8.17607a5.54156,5.54156 0 0 1 4.08804,1.36268l0.45423,0.45423l2.72536,-2.72536a6.99508,6.99508 0 0 0 -7.26762,-3.63381zm44.05995,0c-6.81339,0.45423 -10.4472,4.08804 -10.90143,12.26411s3.63381,12.26411 10.90143,12.26411a9.08453,9.08453 0 0 0 6.35917,-1.8169l0.45423,-0.45423l0,-11.80988l-8.6303,0l0,4.08804l4.54226,0l0,5.45071a5.76867,5.76867 0 0 1 -2.72536,0.45423q-6.81339,0 -6.81339,-8.17607c0,-5.45072 2.27113,-8.17607 6.35917,-8.17607a6.35917,6.35917 0 0 1 4.08804,1.36268l0.45423,0.45423l2.27113,-2.72536a6.31375,6.31375 0 0 0 -6.35917,-3.17959l0,0zm-29.07048,0.45423l-4.54226,0l0,23.61977l4.08804,0l0,-16.35215l10.90143,16.35215l4.54226,0l0,-23.61977l-4.08804,0l0,16.35215l-10.90143,-16.35215zm37.24656,-66.77127l-58.14097,0a7.08593,7.08593 0 0 0 -7.26762,6.81339l0,40.88037a7.08593,7.08593 0 0 0 7.26762,6.81339l58.14097,0a7.08593,7.08593 0 0 0 7.26762,-6.81339l0,-40.88037a7.08593,7.08593 0 0 0 -7.26762,-6.81339zm70.85931,27.25358a4.54226,4.54226 0 0 0 0,9.08453a4.26973,4.26973 0 0 0 4.54226,-4.54226a4.54226,4.54226 0 0 0 -4.54226,-4.54226z" stroke-width="5" stroke-miterlimit="10" stroke-dasharray=""></path></g></svg>