<svg data-v-9833e8b2="" version="1.1" xmlns="http://www.w3.org/2000/svg" xmlns:xlink="http://www.w3.org/1999/xlink" width="25" height="20"><g data-v-9833e8b2=""><path data-v-9833e8b2="" transform="scale(0.13297872340425532)" fill="none" stroke="currentColor" paint-order="fill stroke markers" d="m171.29476,131.91107l0,-76.67636c0,-13.16976 -17.30922,-23.84459 -38.66475,-23.84459s-38.66943,10.67483 -38.66943,23.84459l0,76.67636l77.33418,0zm-84.43537,0l0,-107.06824c0,-13.168 -17.30922,-23.84283 -38.66475,-23.84283c-21.35435,0 -38.66709,10.67483 -38.66709,23.84283l0,107.06824l77.33184,0z" stroke-width="5" stroke-miterlimit="10" stroke-dasharray=""></path><path data-v-9833e8b2="" transform="scale(0.13297872340425532)" fill="none" stroke="currentColor" paint-order="fill stroke markers" d="m113.18036,76.24101l-3.76856,3.77188l16.84399,-0.00117l-3.767,-3.77071l-9.30842,0z" stroke-width="5" stroke-miterlimit="10" stroke-dasharray=""></path><path data-v-9833e8b2="" transform="scale(0.13297872340425532)" fill="none" stroke="currentColor" paint-order="fill stroke markers" d="m122.48878,76.24101l3.7672,3.77052l-16.84399,0.00117l3.76837,-3.77188l-2.81544,0l-4.76486,4.76661l64.68044,64.75993l12.23323,-12.24495l-57.21206,-57.28139l-2.8129,0zm48.90481,48.96497l8.30705,8.31662l-8.30705,8.31526l0,-16.63188zm-1.9918,16.86469l-17.7311,-17.75219l17.7311,-0.00234l0,17.75454zm-19.13989,-38.02041l18.25161,18.27212l-18.25161,0.00234l0,-18.27446zm-1.98614,16.86508l-17.73559,-17.75512l17.73559,0l0,17.75512zm-19.14224,-38.02041l18.24926,18.27212l-18.24926,0l0,-18.27212zm-1.98946,16.8645l-17.73227,-17.75337l17.73208,-0.00117l0,17.75454l0.0002,0z" stroke-width="5" stroke-miterlimit="10" stroke-dasharray=""></path><path data-v-9833e8b2="" transform="scale(0.13297872340425532)" fill="none" stroke="currentColor" paint-order="fill stroke markers" d="m27.18893,45.24367l-5.29025,5.29513l16.84047,-0.00059l-5.28693,-5.29454l-6.2633,0z" stroke-width="5" stroke-miterlimit="10" stroke-dasharray=""></path><path data-v-9833e8b2="" transform="scale(0.13297872340425532)" fill="none" stroke="currentColor" paint-order="fill stroke markers" d="m33.45223,45.24367l5.28673,5.29454l-16.84047,0.00059l5.29044,-5.29513l-2.81544,0l-6.28224,6.29162l93.50668,93.62211l4.95001,2.54356l4.34025,-1.93321l7.89084,-7.90061l-92.50785,-92.62328l-2.81895,0l0,-0.0002zm71.50682,71.59237l21.00455,21.03091l-9.41565,9.42815l-11.5889,-11.60257l0,-18.85649zm-1.98711,16.8645l-17.73461,-17.75454l17.73461,0l0,17.75454zm-19.08677,-37.96748l18.1938,18.22094l-18.19868,0l0.00488,-18.22094zm-1.99083,16.86391l-17.7309,-17.75454l17.7309,0l0,17.75454zm-19.14106,-38.02041l18.24692,18.27466l-18.24692,0l0,-18.27466zm-1.992,16.8645l-17.72973,-17.75317l17.72973,0l0,17.75317zm-19.1397,-38.02041l18.24926,18.27329l-18.24926,0l0,-18.27329zm-1.98614,16.8645l-17.73676,-17.75395l17.73676,-0.00176l0,17.75571z" stroke-width="5" stroke-miterlimit="10" stroke-dasharray=""></path><path data-v-9833e8b2="" transform="scale(0.13297872340425532)" fill="none" stroke="currentColor" paint-order="fill stroke markers" d="m5.0711,43.11808l86.24475,0l0,10.51292l-86.24475,0l0,-10.51292zm84.43537,28.95476l86.24455,0l0,10.51057l-86.24455,0l0,-10.51057z" stroke-width="5" stroke-miterlimit="10" stroke-dasharray=""></path><path data-v-9833e8b2="" transform="scale(0.13297872340425532)" fill="none" stroke="currentColor" paint-order="fill stroke markers" d="m187.71922,141.01227c0,4.02716 -3.26466,7.29162 -7.29182,7.29162l-172.13559,0c-4.02716,0 -7.29182,-3.26466 -7.29182,-7.29162c0,-4.02716 3.26466,-7.29182 7.29182,-7.29182l172.13578,0c4.02696,0 7.29162,3.26466 7.29162,7.29182z" stroke-width="5" stroke-miterlimit="10" stroke-dasharray=""></path></g></svg>