<svg data-v-9833e8b2="" version="1.1" xmlns="http://www.w3.org/2000/svg" xmlns:xlink="http://www.w3.org/1999/xlink" width="24.5" height="25"><g data-v-9833e8b2=""><path data-v-9833e8b2="" transform="scale(0.13513513513513514)" fill="none" stroke="currentColor" paint-order="fill stroke markers" d="m156.40873,106.61693l0,5.66668l-4.91668,0l0,-3.85834l-0.8,-1.14167a38.1251,38.1251 0 0 0 -19.76672,-14.5167l-3.35834,-1.06667a124.08365,124.08365 0 0 1 -17.44171,-7.00002l-2.62501,-1.3a10.44169,10.44169 0 0 1 -5.83335,-9.36669c0,-3.59168 2.91668,-6.50002 6.50002,-6.50002l1.71667,0l0,-10.01669a2.46667,2.46667 0 0 0 -2.46667,-2.45834a2.46667,2.46667 0 0 1 -2.45834,-2.46667l0,-18.81671l-7.37502,0l0,-21.06672c0,-6.46668 -5.51668,-11.70836 -12.3167,-11.70836s-12.3167,5.24168 -12.3167,11.70836l0,21.06672l-7.37502,0l0,18.80838a2.46667,2.46667 0 0 1 -2.46667,2.46667a2.46667,2.46667 0 0 0 -2.45834,2.45834l0,10.01669l1.7,0c3.60001,0 6.50835,2.91667 6.50835,6.50002c0,3.99168 -2.26667,7.62502 -5.85001,9.36669l-2.69167,1.31667c-5.69168,2.77501 -11.58336,5.12501 -17.60838,7.05002l-3.20001,1.01667a38.2751,38.2751 0 0 0 -19.66672,14.4167l-0.8,1.14167l0,3.95001l-4.91668,0l0,-5.66668a6.56668,6.56668 0 0 0 -13.12503,0l0,41.76677a6.56668,6.56668 0 0 0 13.12503,0l0,-6.45002l4.92501,0l0,4.61668l1.15834,1.75834a36.19176,36.19176 0 0 0 19.34171,14.6667a83.33354,83.33354 0 0 0 25.16673,3.90001l4.14168,0l0,4.68334l-1.95834,0a6.25002,6.25002 0 1 0 0,12.50003l36.75843,0a6.24168,6.24168 0 0 0 0,-12.48336l-1.96667,0l0,-4.70001l3.98334,0c8.57502,0 17.10004,-1.31667 25.27506,-3.90001a36.46676,36.46676 0 0 0 19.45005,-14.70837l1.1,-1.66667l0,-4.69168l4.91668,0l0,6.45002a6.56668,6.56668 0 0 0 13.1417,0l0,-41.75844a6.56668,6.56668 0 1 0 -13.13337,0.00833l-0.01667,0.00833zm-50.03346,-2.75001a56.91681,56.91681 0 0 1 13.97504,2.99167a21.95839,21.95839 0 0 1 14.87504,20.80005a23.36672,23.36672 0 0 1 -18.80005,22.90006c-3.04167,0.60834 -6.37502,1.05 -10.00003,1.33334c-20.55839,1.575 -29.14174,1.01667 -42.41677,0a52.8168,52.8168 0 0 1 -13.88337,-3.12501a22.55006,22.55006 0 0 1 -14.8917,-21.20839a22.75006,22.75006 0 0 1 18.29171,-22.30006c3.17501,-0.63333 6.66668,-1.1 10.47503,-1.39167c20.51672,-1.58334 28.91674,-1.04167 42.37511,0zm-5.38335,5.46668l-33.33342,16.66671l-12.50003,-12.50003a5.89168,5.89168 0 1 0 -8.33335,8.33335l20.83339,20.83339l33.33342,-16.66671l12.50003,12.50003a5.89168,5.89168 0 1 0 8.33335,-8.33335l-20.83339,-20.83339z" stroke-width="5" stroke-miterlimit="10" stroke-dasharray=""></path></g></svg>