<svg data-v-9833e8b2="" version="1.1" xmlns="http://www.w3.org/2000/svg" xmlns:xlink="http://www.w3.org/1999/xlink" width="25" height="25"><g data-v-9833e8b2=""><path data-v-9833e8b2="" transform="scale(0.15432098765432098)" fill="none" stroke="currentColor" paint-order="fill stroke markers" d="m81.0002,1c-44.18411,0 -80.0002,35.81609 -80.0002,80.0002c0,44.18811 35.81609,80.0002 80.0002,80.0002c44.18011,0 80.0002,-35.81209 80.0002,-80.0002c0,-44.18411 -35.82009,-80.0002 -80.0002,-80.0002zm-5.93601,36.00009l16.65604,0l0,9.16402l-6.28002,0l0,3.20001l-4.88401,0l0,-3.20001l-5.49201,0l0,-9.16402zm53.92814,19.31605l0,48.45612c-3.46001,1.172 -6.90002,2.12401 -10.30403,2.96801l0,21.25605l-6.35202,0l0,-19.82005c-0.252,0.048 -0.508,0.124 -0.764,0.172a140.42035,140.42035 0 0 1 -11.92003,1.712l0,8.44402l-7.92802,0l0,-7.79602a157.1204,157.1204 0 0 1 -44.29211,-4.23601l0.672,0.244l0,16.69604l-6.34402,0l0,-18.44405a81.0322,81.0322 0 0 1 -4.75601,-1.524l0,-47.14812c5.94801,-8.18402 49.48012,-7.85202 49.62812,-7.85202c43.54811,0.532 42.36011,6.87202 42.36011,6.87202z" stroke-width="5" stroke-miterlimit="10" stroke-dasharray=""></path></g></svg>