<svg data-v-9833e8b2="" version="1.1" xmlns="http://www.w3.org/2000/svg" xmlns:xlink="http://www.w3.org/1999/xlink" width="24.5" height="25"><g data-v-9833e8b2=""><path data-v-9833e8b2="" transform="scale(0.12437810945273632)" fill="none" stroke="currentColor" paint-order="fill stroke markers" d="m93.79542,138.73114l-20.49905,0c-4.51696,0 -4.52242,-6.83276 0,-6.83276l20.49905,0a3.41599,3.41599 0 1 1 0,6.83198l0,0.00078zm18.79612,-15.38013l-58.09441,0c-4.51462,0 -4.52008,-6.83432 0,-6.83432l58.09441,0a3.41833,3.41833 0 0 1 0,6.83432zm14.9466,-6.87096a55.86907,55.86907 0 0 0 6.87408,-12.30177l-10.34933,-3.36297c-4.28694,-1.39571 -2.19883,-7.89319 2.11072,-6.50137l10.39455,3.37778a55.21331,55.21331 0 0 0 0.13177,-27.76767l-10.35011,3.36375c-4.29162,1.39571 -6.41092,-5.10176 -2.1115,-6.50137l10.36726,-3.36842c-3.41911,-8.73607 -9.06044,-16.5622 -16.20275,-22.53726l-6.38831,8.78753c-2.65263,3.65381 -8.18636,-0.36023 -5.52827,-4.01716l6.41092,-8.82184c-7.72632,-4.97466 -16.60041,-7.93997 -25.93375,-8.65732l0,10.81717c0,4.5154 -6.83276,4.52086 -6.83276,0l0,-10.91619c-9.68422,0.4538 -19.05889,3.44484 -27.32635,8.78286l6.83042,9.3965c2.65341,3.65225 -2.8694,7.67642 -5.52905,4.01794l-6.80702,-9.36999c-7.29981,6.07096 -12.83198,13.79027 -16.20431,22.51776l11.07214,3.59611c4.29162,1.39649 2.19104,7.89553 -2.11228,6.50137l-11.02535,-3.58285c-2.2963,9.15167 -2.27369,18.68696 0.11696,27.7474l11.07759,-3.60078c4.31501,-1.38324 6.39377,5.10722 2.11072,6.50059l-11.03783,3.58909a55.87842,55.87842 0 0 0 6.64562,11.98442c2.65341,3.65147 -2.87018,7.67408 -5.52827,4.01716c-9.7887,-13.47136 -13.74426,-29.94623 -11.13841,-46.39225c8.69631,-54.88661 79.60632,-71.48702 112.00168,-26.89126c16.0507,22.09359 15.95479,51.6905 -0.2386,73.64764c-2.67915,3.63587 -8.18402,-0.41793 -5.5002,-4.05459zm-52.44918,-32.47567l0.01715,0l-0.01715,0zm2.40312,2.80702l-36.84448,10.29787l35.98678,-13.37311l-0.00078,-0.08499a6.23782,6.23782 0 0 1 11.01678,-4.00936l14.44524,-5.36843l1.68655,5.19065l-14.67292,4.10137l0.00078,0.08577a6.23782,6.23782 0 0 1 -11.61717,3.16024l-0.00078,0zm14.83432,95.01141a7.76921,7.76921 0 0 1 0.68148,3.19299l0,7.79728c0,4.30644 -3.49084,7.79728 -7.79728,7.79728l-3.11891,0c-4.30644,0 -7.79728,-3.49084 -7.79728,-7.79728l0,-7.79728c0,-1.1384 0.24405,-2.21833 0.68148,-3.19299a7.78402,7.78402 0 0 1 -3.02067,-6.16375l0,-15.59456c0,-4.30644 3.49084,-7.79728 7.79728,-7.79728l7.79728,0c4.30644,0 7.79728,3.49084 7.79728,7.79728l0,15.59456a7.78402,7.78402 0 0 1 -3.02067,6.16375zm-11.90333,-126.04068l0.00702,0.02885l-0.00702,-0.02885zm102.64339,15.00352l0,23.39184c0,4.30644 -3.49084,7.79728 -7.79728,7.79728l-13.25537,0c-4.30644,0 -7.79728,-3.49084 -7.79728,-7.79728l0,-23.39184c0,-4.30644 3.49084,-7.79728 7.79728,-7.79728l13.25537,0c4.30644,0 7.79728,3.49084 7.79728,7.79728zm-6.62769,0.38986a1.55946,1.55946 0 0 0 -1.55946,-1.55946l-13.25537,0a1.55946,1.55946 0 0 0 -1.55946,1.55946l0,23.39184a1.55946,1.55946 0 0 0 1.55946,1.55946l13.25537,0a1.55946,1.55946 0 0 0 1.55946,-1.55946l0,-23.39184zm-94.34708,112.28082a1.55946,1.55946 0 0 0 -1.55946,1.55946l0,7.79728a1.55946,1.55946 0 0 0 1.55946,1.55946l3.11891,0a1.55946,1.55946 0 0 0 1.55946,-1.55946l0,-7.79728a1.55946,1.55946 0 0 0 -1.55946,-1.55946l-3.11891,0zm-10.83198,-118.82118l2.47953,0l0,-1.74035l0.9731,0l0,1.74035l2.5731,0l0,0.95439l-2.5731,0l0,2.94737l3.09708,0l0,0.95439l-7.05498,0l0,-0.95439l2.9848,0l0,-2.94737l-2.47953,0l0,-0.95439zm4.72515,1.29123c0.50526,0.72047 0.9076,1.34737 1.18831,1.89006l-0.78597,0.55205c-0.29006,-0.59883 -0.68304,-1.2538 -1.16959,-1.96491l0.76725,-0.47719zm1.59064,-4.46316l0,0.93567l-6.71814,0l0,2.12398c-0.03743,2.21755 -0.36491,3.99533 -0.99181,5.32398l-0.74854,-0.66433c0.48655,-1.11345 0.74854,-2.66667 0.76725,-4.65965l0,-3.05965l7.69124,0zm6.70878,-0.29006l0.99181,0l0,1.01988c-0.00936,0.26199 -0.01871,0.52398 -0.03743,0.76725l3.55556,0c-0.03743,1.6655 -0.09357,3.00351 -0.18713,4.0234c-0.09357,1.01053 -0.26199,1.72164 -0.48655,2.13334c-0.22456,0.38363 -0.58012,0.58947 -1.07602,0.6269l-1.32866,0l-0.26199,-0.94503c0.39298,0.01871 0.7579,0.03743 1.11345,0.03743c0.47719,0 0.78597,-0.30877 0.93567,-0.9076c0.14971,-0.6269 0.25263,-1.96491 0.29942,-4.01404l-2.64796,0c-0.14971,1.29123 -0.43041,2.37661 -0.83275,3.24679c-0.5614,1.15088 -1.46901,2.03977 -2.72281,2.65731l-0.52398,-0.83275c1.23509,-0.67368 2.06784,-1.51579 2.49825,-2.53568c0.2807,-0.71111 0.47719,-1.56257 0.58947,-2.53568l-2.58246,0l0,-0.95439l2.66667,0c0.01871,-0.25263 0.02807,-0.50526 0.03743,-0.76725l0,-1.01988zm8.86083,0.6924l3.2655,0l0,-0.6924l0.99181,0l0,0.6924l3.2655,0l0,0.89825l-3.2655,0l0,0.60819l2.72281,0l0,0.89825l-2.72281,0l0,0.60819l3.59299,0l0,0.88889l-3.2655,0a6.24874,6.24874 0 0 0 0.78597,1.30059c0.46784,-0.24328 0.91696,-0.60819 1.33801,-1.07602l0.67368,0.65497a5.47759,5.47759 0 0 1 -1.45029,1.02924a5.82613,5.82613 0 0 0 2.03041,1.24445l-0.53333,0.86082c-1.69357,-0.70176 -2.93801,-2.03977 -3.73334,-4.01404l-0.19649,0a6.28461,6.28461 0 0 1 -1.15088,1.19766l0,1.6655c0.6269,-0.19649 1.2538,-0.42105 1.87135,-0.66433l0.19649,0.89825a24.66201,24.66201 0 0 1 -3.09708,0.96374l-0.31813,-0.83275c0.26199,-0.11228 0.39298,-0.27135 0.39298,-0.48655l0,-0.88889c-0.44912,0.26199 -0.93567,0.49591 -1.45965,0.72047l-0.52398,-0.85146c1.36608,-0.45848 2.37661,-1.02924 3.04094,-1.72164l-2.77895,0l0,-0.88889l3.59299,0l0,-0.60819l-2.72281,0l0,-0.89825l2.72281,0l0,-0.60819l-3.2655,0l0,-0.89825zm-13.39261,96.63948a1.55946,1.55946 0 0 0 -1.55946,1.55946l0,15.59456a1.55946,1.55946 0 0 0 1.55946,1.55946l7.79728,0a1.55946,1.55946 0 0 0 1.55946,-1.55946l0,-15.59456a1.55946,1.55946 0 0 0 -1.55946,-1.55946l-7.79728,0zm3.11891,-6.23782c38.32597,0 69.39579,-31.06982 69.39579,-69.39579s-31.06982,-69.39579 -69.39579,-69.39579s-69.39579,31.06982 -69.39579,69.39579s31.06982,69.39579 69.39579,69.39579zm0,12.47565c-45.21642,0 -81.87143,-36.65501 -81.87143,-81.87143s36.65501,-81.87143 81.87143,-81.87143s81.87143,36.65501 81.87143,81.87143s-36.65501,81.87143 -81.87143,81.87143z" stroke-width="5" stroke-miterlimit="10" stroke-dasharray=""></path></g></svg>