<svg data-v-9833e8b2="" version="1.1" xmlns="http://www.w3.org/2000/svg" xmlns:xlink="http://www.w3.org/1999/xlink" width="24.5" height="25"><g data-v-9833e8b2=""><path data-v-9833e8b2="" transform="scale(0.14705882352941177)" fill="none" stroke="currentColor" paint-order="fill stroke markers" d="m58.10014,169.40042l-35.60009,0c-11.80003,0 -21.50005,-9.70002 -21.50005,-21.50005l0,-105.30027c0,-11.80003 9.70002,-21.50005 21.50005,-21.50005l35.60009,0c11.80003,0 21.50005,9.70002 21.50005,21.50005l0,105.40027c0,11.70003 -9.60002,21.40005 -21.50005,21.40005z" stroke-width="5" stroke-miterlimit="10" stroke-dasharray=""></path><path data-v-9833e8b2="" transform="scale(0.14705882352941177)" fill="none" stroke="currentColor" paint-order="fill stroke markers" d="m47.90012,159.1004l-15.20004,0c-12.50003,0 -22.70006,-10.20003 -22.70006,-22.70006l0,-82.40021c0,-12.50003 10.20003,-22.70006 22.70006,-22.70006l15.30004,0c12.50003,0 22.70006,10.20003 22.70006,22.70006l0,82.40021c-0.1,12.50003 -10.30003,22.70006 -22.80006,22.70006z" stroke-width="5" stroke-miterlimit="10" stroke-dasharray=""></path><path data-v-9833e8b2="" transform="scale(0.14705882352941177)" fill="none" stroke="currentColor" paint-order="fill stroke markers" d="m134.20033,123.20031l-5.10001,0c-9.10002,0 -16.50004,-7.40002 -16.50004,-16.50004l0,-58.80015c0,-9.10002 7.40002,-16.50004 16.50004,-16.50004l5.20001,0c9.10002,0 16.50004,7.40002 16.50004,16.50004l0,58.80015c0,9.10002 -7.50002,16.50004 -16.60004,16.50004z" stroke-width="5" stroke-miterlimit="10" stroke-dasharray=""></path><path data-v-9833e8b2="" transform="scale(0.14705882352941177)" fill="none" stroke="currentColor" paint-order="fill stroke markers" d="m132.60033,116.80029l-1.8,0c-6.60002,0 -12.00003,-5.40001 -12.00003,-12.00003l0,-55.10014c0,-6.60002 5.40001,-12.00003 12.00003,-12.00003l1.8,0c6.60002,0 12.00003,5.40001 12.00003,12.00003l0,55.10014c0,6.60002 -5.40001,12.00003 -12.00003,12.00003z" stroke-width="5" stroke-miterlimit="10" stroke-dasharray=""></path><path data-v-9833e8b2="" transform="scale(0.14705882352941177)" fill="none" stroke="currentColor" paint-order="fill stroke markers" d="m34.00008,1l12.70003,0l0,20.10005l-12.70003,0l0,-20.10005zm94.70024,18.90005l5.90001,0l0,11.50003l-5.90001,0l0,-11.50003zm-53.40013,50.70013l37.20009,0l0,9.40002l-37.20009,0l0,-9.40002zm4.30001,60.00015l55.00014,0l0,9.40002l-55.00014,0l0,-9.40002z" stroke-width="5" stroke-miterlimit="10" stroke-dasharray=""></path><path data-v-9833e8b2="" transform="scale(0.14705882352941177)" fill="none" stroke="currentColor" paint-order="fill stroke markers" d="m128.70032,123.20031l5.90001,0l0,16.80004l-5.90001,0l0,-16.80004z" stroke-width="5" stroke-miterlimit="10" stroke-dasharray=""></path></g></svg>