<svg data-v-9833e8b2="" version="1.1" xmlns="http://www.w3.org/2000/svg" xmlns:xlink="http://www.w3.org/1999/xlink" width="25" height="25"><g data-v-9833e8b2=""><path data-v-9833e8b2="" transform="scale(0.15337423312883436)" fill="none" stroke="currentColor" paint-order="fill stroke markers" d="m125.19953,7.83596c4.86329,0 8.84768,3.5547 8.84768,7.91018c0,4.41407 -3.96485,7.91018 -8.82815,7.91018l-35.76181,0l0,21.93365l2.81251,0c3.33985,0 6.03517,2.42188 6.03517,5.41017l0,12.89066l-32.87118,-0.03906l0,-12.85159c0,-2.98829 2.69532,-5.41017 6.03517,-5.41017l2.81251,0l0,-21.93365l-35.78134,0c-4.86329,0 -8.84768,-3.5547 -8.84768,-7.91018s3.96485,-7.91018 8.84768,-7.91018l86.69944,0m0,-6.83595l-86.69944,0c-8.65237,0 -15.68363,6.62111 -15.68363,14.74613s7.03127,14.74613 15.68363,14.74613l28.94539,0l0,8.86721c-1.77735,0.54688 -3.41798,1.46485 -4.8047,2.71485c-2.57813,2.30469 -4.04298,5.54689 -4.04298,8.90627l0,19.66802l6.81642,0.01953l32.87118,0.03906l6.85549,0.01953l0,-19.74614c0,-3.35938 -1.46485,-6.62111 -4.04298,-8.90627c-1.38672,-1.25 -3.02735,-2.16797 -4.78517,-2.71485l0,-8.86721l28.88679,0c4.04298,0 7.87111,-1.42578 10.80081,-4.04298c3.10548,-2.77344 4.88282,-6.66017 4.88282,-10.70315c-0.01953,-8.14455 -7.0508,-14.74613 -15.68363,-14.74613zm-26.73835,81.9338c5.17579,0 10.11721,1.89454 13.88675,5.33204c3.71095,3.39845 5.95705,7.96877 6.30861,12.87113l0.46875,6.32814l36.60165,0l0,28.30085l-36.66025,0l-1.71875,4.29689c-1.46485,3.63282 -3.98439,6.7383 -7.28517,8.9844c-3.39845,2.30469 -7.42189,3.53517 -11.60159,3.53517l-33.35946,0c-4.1797,0 -8.18361,-1.23047 -11.60159,-3.53517c-3.30079,-2.2461 -5.82033,-5.35158 -7.28517,-8.9844l-1.71875,-4.29689l-36.67978,0l0,-28.30085l36.62119,0l0.46875,-6.32814c0.35156,-4.90236 2.59766,-9.47268 6.30861,-12.87113c3.76954,-3.43751 8.69143,-5.33204 13.88675,-5.33204l33.35946,0m0,-6.83595l-33.35946,0c-14.29691,0 -26.01569,10.82034 -27.01179,24.53131l-24.16022,0l0,-13.33988c0,-1.54297 -1.25,-2.77344 -2.83204,-2.77344l-7.26564,0c-1.58204,0 -2.83204,1.23047 -2.83204,2.77344l0,65.50798c0,1.54297 1.25,2.77344 2.83204,2.77344l7.26564,0c1.58204,0 2.83204,-1.23047 2.83204,-2.71485l0,-10.25393l25.93757,0c3.94532,9.84377 13.75003,16.79692 25.23444,16.79692l33.35946,0c11.4844,0 21.28912,-6.97267 25.23444,-16.79692l25.99616,0l0,10.29299c0,1.50391 1.21094,2.67579 2.73438,2.67579l7.42189,0c1.52344,0 2.79298,-1.17188 2.73438,-2.67579l0,-65.70329c0,-1.48438 -1.19141,-2.67579 -2.73438,-2.67579l-7.42189,0c-1.52344,0 -2.73438,1.17188 -2.73438,2.67579l0,13.43753l-24.21881,0c-0.9961,-13.7305 -12.71488,-24.53131 -27.01179,-24.53131z" stroke-width="5" stroke-miterlimit="10" stroke-dasharray=""></path><path data-v-9833e8b2="" transform="scale(0.15337423312883436)" fill="none" stroke="currentColor" paint-order="fill stroke markers" d="m64.14469,109.43777c0.05859,0.29297 0.13672,0.60547 0.19531,0.91797c-0.42969,0.15625 -0.85938,0.33203 -1.28907,0.50781c-5.35158,2.22657 -8.33986,5.39064 -8.39846,8.94534c-0.05859,3.63282 2.96876,7.01174 8.49612,9.43362c0.78125,0.35156 1.54297,0.64453 2.34376,0.91797c-0.15625,0.83985 -0.27344,1.66016 -0.37109,2.50001c-0.625,5.99611 0.76172,10.29299 3.96485,12.07034c0.9961,0.54688 2.08985,0.82031 3.28126,0.82031c2.67579,0 5.78126,-1.36719 9.02346,-3.92579c0.66406,-0.50781 1.28907,-1.07422 1.91407,-1.64063c3.92579,3.06641 7.61721,4.70704 10.68362,4.70704c1.46485,0 2.77344,-0.37109 3.88673,-1.09375c3.06641,-2.03126 4.08204,-6.4258 2.96876,-12.34378c-0.05859,-0.29297 -0.13672,-0.60547 -0.19531,-0.91797c0.42969,-0.15625 0.85938,-0.33203 1.28907,-0.50781c5.35158,-2.22657 8.33986,-5.39064 8.41799,-8.94534c0.05859,-3.67188 -2.96876,-7.01174 -8.49612,-9.43362c-0.78125,-0.35156 -1.54297,-0.64453 -2.34376,-0.91797c0.25391,-1.40625 0.42969,-2.75391 0.46875,-4.04298c0.01953,-0.56641 -0.25391,-1.09375 -0.70313,-1.40625c-0.46875,-0.29297 -1.07422,-0.33203 -1.58204,-0.05859c-0.48828,0.25391 -0.82031,0.76172 -0.83985,1.3086c-0.03906,1.03516 -0.17578,2.10938 -0.37109,3.26173c-2.26563,-0.625 -4.72657,-1.07422 -7.28517,-1.40625c-1.64063,-2.01172 -3.33985,-3.8086 -5.07814,-5.41017c0.85938,-0.78125 1.69922,-1.46485 2.5586,-2.05079c0.44922,-0.33203 0.70313,-0.85938 0.66406,-1.42578c-0.03906,-0.56641 -0.39063,-1.05469 -0.89844,-1.28907c-0.50781,-0.23438 -1.09375,-0.17578 -1.58204,0.13672c-1.05469,0.74219 -2.10938,1.6211 -3.16407,2.57813c-3.92579,-3.06641 -7.61721,-4.70704 -10.68362,-4.70704c-1.46485,0 -2.77344,0.37109 -3.88673,1.09375c-3.06641,1.99219 -4.10157,6.40627 -2.98829,12.32425zm15.27348,29.72664c-3.67188,2.89063 -6.89455,3.90626 -8.82815,2.83204c-1.9336,-1.07422 -2.83204,-4.33595 -2.34376,-8.9844c0.05859,-0.625 0.15625,-1.25 0.25391,-1.89454c2.26563,0.625 4.72657,1.07422 7.28517,1.40625c1.64063,2.01172 3.33985,3.8086 5.07814,5.41017c-0.48828,0.42969 -0.95703,0.83985 -1.44532,1.23047zm-9.51174,-22.03131c-0.70313,-1.60157 -1.28907,-3.16407 -1.75782,-4.66798c1.52344,-0.41016 3.16407,-0.76172 4.90236,-1.01563c-1.17188,1.81641 -2.20704,3.73048 -3.14454,5.68361zm0.29297,7.42189c0.54688,0.91797 1.11328,1.85547 1.71875,2.75391c0.37109,0.54688 0.74219,1.07422 1.09375,1.6211c-1.3086,-0.23438 -2.61719,-0.54688 -3.90626,-0.87891c0.35156,-1.17188 0.6836,-2.34376 1.09375,-3.4961zm12.89066,11.1719c-0.9961,-0.89844 -1.9336,-1.83594 -2.85157,-2.83204c0.64453,0.03906 1.3086,0.05859 1.95313,0.05859c0.44922,0 0.85938,0.01953 1.25,0.01953c0.66406,0 1.32813,0 2.01172,-0.01953c-0.72266,0.97656 -1.52344,1.89454 -2.36329,2.77344zm13.02738,5.21486c-0.58594,0.39063 -1.28907,0.58594 -2.14844,0.58594c-2.2461,0 -5.23439,-1.32813 -8.45705,-3.78907c1.42578,-1.52344 2.77344,-3.20313 4.1211,-5.03908c2.85157,-0.27344 5.54689,-0.78125 7.9883,-1.42578c0.03906,0.19531 0.05859,0.37109 0.11719,0.54688c0.85938,4.58986 0.23438,7.92971 -1.6211,9.12112zm2.69532,-27.36335c0.60547,0.23438 1.21094,0.46875 1.75782,0.70313c4.25782,1.89454 6.66017,4.29689 6.62111,6.50392c-0.03906,2.12891 -2.36329,4.39454 -6.48439,6.09377c-0.29297,0.13672 -0.60547,0.23438 -0.89844,0.37109c-0.76172,-2.44141 -1.79688,-4.96095 -3.06641,-7.51955c0.83985,-2.08985 1.54297,-4.14064 2.07032,-6.15236zm-1.99219,14.62894c-1.52344,0.41016 -3.16407,0.76172 -4.90236,1.01563c1.13282,-1.85547 2.16797,-3.75001 3.12501,-5.68361c0.72266,1.58204 1.3086,3.16407 1.77735,4.66798zm-1.01563,-15.58598c-0.29297,1.19141 -0.66406,2.34376 -1.05469,3.4961c-0.87891,-1.48438 -1.83594,-2.94923 -2.83204,-4.37501c1.3086,0.23438 2.61719,0.52735 3.88673,0.87891zm-8.24221,-1.50391c2.14844,2.75391 4.08204,5.68361 5.7422,8.76955c-0.76172,1.71875 -1.58204,3.37891 -2.48047,5.01954c-0.89844,1.64063 -1.875,3.2422 -2.91016,4.76564c-1.44532,0.11719 -2.91016,0.15625 -4.39454,0.15625c-2.03126,0 -4.04298,-0.11719 -6.07423,-0.29297c-1.01563,-1.28907 -1.95313,-2.61719 -2.85157,-3.96485c-1.03516,-1.54297 -1.99219,-3.16407 -2.8711,-4.8047c0.76172,-1.69922 1.58204,-3.37891 2.48047,-5.01954s1.875,-3.2422 2.92969,-4.76564c1.44532,-0.11719 2.91016,-0.15625 4.39454,-0.15625c0.39063,0 0.80078,0 1.19141,0.01953c1.58204,0.01953 3.20313,0.09766 4.84376,0.27344zm-5.72267,-6.19142c0.9961,0.89844 1.9336,1.83594 2.85157,2.83204c-0.64453,-0.03906 -1.3086,-0.05859 -1.95313,-0.05859c-1.07422,-0.01953 -2.14844,-0.01953 -3.26173,0.01953c0.74219,-0.97656 1.54297,-1.875 2.36329,-2.79298zm-12.98831,-5.21486c0.58594,-0.39063 1.28907,-0.58594 2.14844,-0.58594c2.2461,0 5.23439,1.32813 8.45705,3.78907c-1.40625,1.52344 -2.77344,3.20313 -4.10157,5.03908c-2.85157,0.27344 -5.54689,0.78125 -7.9883,1.42578c-0.03906,-0.19531 -0.05859,-0.37109 -0.11719,-0.54688c-0.87891,-4.57032 -0.25391,-7.91018 1.60157,-9.12112zm-0.625,21.19146c-0.83985,2.08985 -1.54297,4.16017 -2.07032,6.19142c-0.60547,-0.21484 -1.21094,-0.46875 -1.75782,-0.70313c-4.25782,-1.89454 -6.66017,-4.29689 -6.62111,-6.50392c0.03906,-2.12891 2.36329,-4.39454 6.48439,-6.09377c0.29297,-0.13672 0.60547,-0.23438 0.89844,-0.37109c0.74219,2.42188 1.77735,4.94142 3.06641,7.48049z" stroke-width="5" stroke-miterlimit="10" stroke-dasharray=""></path><path data-v-9833e8b2="" transform="scale(0.15337423312883436)" fill="none" stroke="currentColor" paint-order="fill stroke markers" d="m91.74242,103.28541c1.71875,1.01563 3.88673,1.01563 5.60548,0s2.77344,-2.89063 2.73438,-4.90236c-0.05859,-3.00782 -2.51954,-5.41017 -5.54689,-5.41017s-5.46876,2.42188 -5.54689,5.4297c-0.03906,2.01172 1.01563,3.88673 2.75391,4.88282z" stroke-width="5" stroke-miterlimit="10" stroke-dasharray=""></path></g></svg>