<svg data-v-9833e8b2="" version="1.1" xmlns="http://www.w3.org/2000/svg" xmlns:xlink="http://www.w3.org/1999/xlink" width="25" height="12.5"><g data-v-9833e8b2=""><path data-v-9833e8b2="" transform="scale(0.125)" fill="none" stroke="currentColor" paint-order="fill stroke markers" d="m83.40183,1l33.20916,0l0,9.67965l-33.20916,0l0,-9.67965z" stroke-width="5" stroke-miterlimit="10" stroke-dasharray=""></path><path data-v-9833e8b2="" transform="scale(0.125)" fill="none" stroke="currentColor" paint-order="fill stroke markers" d="m199.01875,72.2423c0,16.06473 -13.01978,29.08451 -29.08253,29.08451l-139.85369,0c-16.06275,0.00198 -29.08253,-13.01978 -29.08253,-29.08055l0,-33.93622c0,-16.06473 13.01978,-29.08451 29.08253,-29.08451l139.85171,0c16.06473,0 29.08451,13.01978 29.08451,29.08253l0,33.93226l0,0.00198z" stroke-width="5" stroke-miterlimit="10" stroke-dasharray=""></path><path data-v-9833e8b2="" transform="scale(0.125)" fill="none" stroke="currentColor" paint-order="fill stroke markers" d="m169.93424,12.13378l-139.84973,0c-16.06275,0 -29.08451,13.02176 -29.08451,29.08451l0,6.06018c0,-16.06473 13.02176,-29.08451 29.08253,-29.08451l139.85171,0c16.06275,0 29.08451,13.01978 29.08451,29.08451l0,-6.06018c0,-16.06077 -13.02176,-29.08451 -29.08253,-29.08451l-0.00198,0z" stroke-width="5" stroke-miterlimit="10" stroke-dasharray=""></path><path data-v-9833e8b2="" transform="scale(0.125)" fill="none" stroke="currentColor" paint-order="fill stroke markers" d="m33.47615,8.99968l4.36436,0l0,85.06046l-4.36436,0l0,-85.06244l0,0.00198zm31.02797,0l4.36238,0l0,85.06046l-4.36436,0l0,-85.06244l0.00198,0.00198z" stroke-width="5" stroke-miterlimit="10" stroke-dasharray=""></path><path data-v-9833e8b2="" transform="scale(0.125)" fill="none" stroke="currentColor" paint-order="fill stroke markers" d="m35.65734,13.34621l31.02401,0l0,2.91222l-31.02401,0l0,-2.91222l0,0zm0,12.15206l31.02401,0l0,2.91023l-31.02401,0l0,-2.91023l0,0zm0,12.14612l31.02401,0l0,2.91222l-31.02401,0l0,-2.91222l0,0zm0,12.15008l31.02401,0l0,2.91023l-31.02401,0l0,-2.91023l0,0zm0,12.14612l31.02401,0l0,2.91023l-31.02401,0l0,-2.91023l0,0zm0,12.15206l31.02401,0l0,2.91023l-31.02401,0l0,-2.91023l0,0zm0,12.15008l31.02401,0l0,2.90825l-31.02401,0l0,-2.90825l0,0z" stroke-width="5" stroke-miterlimit="10" stroke-dasharray=""></path><path data-v-9833e8b2="" transform="scale(0.125)" fill="none" stroke="currentColor" paint-order="fill stroke markers" d="m174.5403,43.72438a8.90702,8.90702 0 1 1 -17.81404,0c0,-4.91907 8.90702,-16.82547 8.90702,-16.82547s8.90702,11.9064 8.90702,16.82547z" stroke-width="5" stroke-miterlimit="10" stroke-dasharray=""></path></g></svg>