<svg data-v-9833e8b2="" version="1.1" xmlns="http://www.w3.org/2000/svg" xmlns:xlink="http://www.w3.org/1999/xlink" width="17" height="25"><g data-v-9833e8b2=""><path data-v-9833e8b2="" transform="scale(0.12376237623762376)" fill="none" stroke="currentColor" paint-order="fill stroke markers" d="m81.88454,185.47067l0,-22.70159l1.77946,0l1.34808,-10.78461a6.47076,6.47076 0 0 0 -7.71099,0l1.07846,11.26991l1.72554,0l0,22.59375" stroke-width="5" stroke-miterlimit="10" stroke-dasharray=""></path><path data-v-9833e8b2="" transform="scale(0.12376237623762376)" fill="none" stroke="currentColor" paint-order="fill stroke markers" d="m81.561,185.47067l0,-22.70159l1.83338,0l1.29415,-10.78461a6.03938,6.03938 0 0 0 -7.00999,0l1.02454,10.78461l1.77946,0l0,22.91729l-0.64708,0l0,-22.4859l-1.72554,0l-1.13238,-11.75522a6.84822,6.84822 0 0 1 8.08845,0l-1.402,11.48561l-1.72554,0l0,22.27021l-0.37746,0.26961z" stroke-width="5" stroke-miterlimit="10" stroke-dasharray=""></path><path data-v-9833e8b2="" transform="scale(0.12376237623762376)" fill="none" stroke="currentColor" paint-order="fill stroke markers" d="m80.32077,187.84328a7.65707,7.65707 0 1 1 7.65707,-7.65707a7.65707,7.65707 0 0 1 -7.65707,7.65707zm0,-12.72583a5.06876,5.06876 0 1 0 5.06876,5.06876a5.06876,5.06876 0 0 0 -5.06876,-5.06876z" stroke-width="5" stroke-miterlimit="10" stroke-dasharray=""></path><path data-v-9833e8b2="" transform="scale(0.12376237623762376)" fill="none" stroke="currentColor" paint-order="fill stroke markers" d="m83.93361,186.44129l-7.44138,0l-3.61284,-6.25507l3.61284,-6.25507l7.17176,0l3.61284,6.25507l-3.34323,6.25507zm-6.0933,-2.103l4.96092,0l2.48046,-4.31384l-2.48046,-4.31384l-4.96092,0l-2.48046,4.31384l2.48046,4.31384z" stroke-width="5" stroke-miterlimit="10" stroke-dasharray=""></path><path data-v-9833e8b2="" transform="scale(0.12376237623762376)" fill="none" stroke="currentColor" paint-order="fill stroke markers" d="m38.74612,42.95211l42.65311,0l0,-24.91244l-42.65311,0l0,24.91244zm1.24023,-23.67221l40.22658,0l0,22.43198l-40.06481,0l-0.16177,-22.43198z" stroke-width="5" stroke-miterlimit="10" stroke-dasharray=""></path><path data-v-9833e8b2="" transform="scale(0.12376237623762376)" fill="none" stroke="currentColor" paint-order="fill stroke markers" d="m82.90908,16.6916l-45.34927,0l0,27.44682l45.34927,0l0,-27.44682zm-1.34808,26.26051l-42.81488,0l0,-24.91244l42.65311,0l0.16177,24.91244z" stroke-width="5" stroke-miterlimit="10" stroke-dasharray=""></path><path data-v-9833e8b2="" transform="scale(0.12376237623762376)" fill="none" stroke="currentColor" paint-order="fill stroke markers" d="m80.37469,19.27991l-40.22658,0l0,22.43198l40.22658,0l0,-22.43198zm-1.34808,21.0839l-37.74612,0l0,-19.73583l37.74612,0l0,19.73583z" stroke-width="5" stroke-miterlimit="10" stroke-dasharray=""></path><path data-v-9833e8b2="" transform="scale(0.12376237623762376)" fill="none" stroke="currentColor" paint-order="fill stroke markers" d="m43.00604,47.80519a5.12269,5.12269 0 1 0 5.12269,5.12269a5.12269,5.12269 0 0 0 -5.12269,-5.12269zm0,6.95607a1.83338,1.83338 0 1 1 1.83338,-1.83338a1.83338,1.83338 0 0 1 -1.83338,1.99515l0,-0.16177zm17.30929,-6.95607a5.12269,5.12269 0 1 0 5.12269,5.12269a5.12269,5.12269 0 0 0 -5.12269,-5.12269zm0,7.11784a1.83338,1.83338 0 1 1 1.83338,-1.83338a1.83338,1.83338 0 0 1 -1.83338,1.83338zm17.14752,-7.11784a5.12269,5.12269 0 1 0 5.12269,5.12269a5.12269,5.12269 0 0 0 -5.12269,-5.12269zm0,6.95607a1.83338,1.83338 0 1 1 1.83338,-1.83338a1.83338,1.83338 0 0 1 -1.83338,1.99515l0,-0.16177z" stroke-width="5" stroke-miterlimit="10" stroke-dasharray=""></path><path data-v-9833e8b2="" transform="scale(0.12376237623762376)" fill="none" stroke="currentColor" paint-order="fill stroke markers" d="m87.43861,113.53736l0,-0.05392l0,0.05392z" stroke-width="5" stroke-miterlimit="10" stroke-dasharray=""></path><path data-v-9833e8b2="" transform="scale(0.12376237623762376)" fill="none" stroke="currentColor" paint-order="fill stroke markers" d="m110.8412,133.11141l-3.07361,0a8.62768,8.62768 0 0 0 -8.62768,8.62768l0,0.80885l-20.70644,0l0,-2.96577l5.3923,-6.47076l0,-7.81884l5.3923,0a6.25507,6.25507 0 0 0 6.25507,-6.25507l0,-1.83338a6.25507,6.25507 0 0 0 -5.06876,-6.0933l0,-33.05481l-11.97091,0l0,-7.76492l12.67191,0a8.78945,8.78945 0 0 0 8.78945,-8.78945l0,-51.71218a8.78945,8.78945 0 0 0 -8.78945,-8.78945l-61.74187,0a8.78945,8.78945 0 0 0 -8.78945,8.78945l0,51.71218a8.78945,8.78945 0 0 0 8.78945,8.78945l12.72583,0l0,7.76492l-11.59345,0l0,33.05482a6.25507,6.25507 0 0 0 -5.06876,6.14722l0,1.83338a6.25507,6.25507 0 0 0 6.25507,6.25507l5.3923,0l0,7.76492l5.3923,6.47076l0,2.96577l-21.13783,0l0,-0.80885a8.62768,8.62768 0 0 0 -8.62768,-8.62768l-3.07361,0a8.62768,8.62768 0 0 0 -8.62768,8.62768l0,50.63372a8.62768,8.62768 0 0 0 8.62768,8.62768l3.07361,0a8.62768,8.62768 0 0 0 8.62768,-8.62768l0,-0.80885l77.81093,0l0,0.80885a8.62768,8.62768 0 0 0 8.62768,8.62768l3.07361,0a8.62768,8.62768 0 0 0 8.62768,-8.62768l0,-50.63372a8.62768,8.62768 0 0 0 -8.62768,-8.62768zm-6.47076,8.62768a3.39715,3.39715 0 0 1 3.39715,-3.39715l3.07361,0a3.39715,3.39715 0 0 1 3.39715,3.39715l0,50.63372a3.39715,3.39715 0 0 1 -3.39715,3.39715l-3.07361,0a3.39715,3.39715 0 0 1 -3.39715,-3.39715l0,-50.63372zm-5.3923,33.16266l0,11.37776l-77.64916,0l0,-11.37776l77.64916,0zm-56.83487,-43.62373l0,-5.98546l36.18235,0l0,5.98546l-5.12269,6.47076l0,4.79915l-25.93698,0l0,-4.79915l-5.12269,-6.47076zm56.99664,16.55437l0,21.83883l-77.81093,0l0,-21.83883l77.81093,0zm-68.42832,-30.62828a1.02454,1.02454 0 0 1 1.13238,-0.97061l56.99664,0a0.97061,0.97061 0 0 1 0.97061,0.97061l0,1.83338a0.97061,0.97061 0 0 1 -0.97061,0.97061l-57.15841,0a0.97061,0.97061 0 0 1 -0.97062,-0.97061l0,-1.83338zm56.56526,-3.66677zm-61.41833,-103.7479a3.55892,3.55892 0 0 1 3.505,-3.39715l61.74187,0a3.55892,3.55892 0 0 1 3.55892,3.55892l0,51.71218a3.55892,3.55892 0 0 1 -3.55892,3.55892l-61.74187,0a3.55892,3.55892 0 0 1 -3.55892,-3.55892l0.05392,-51.87395zm47.29049,60.50163l0,7.76492l-25.82913,0l0,-7.76492l25.82913,0zm11.59345,12.99545l0,27.71644l-49.01603,0l0,-27.71644l49.01603,0zm-78.35016,58.45256a3.39715,3.39715 0 0 1 3.39715,-3.39715l3.07361,0a3.39715,3.39715 0 0 1 3.39715,3.39715l0,50.63372a3.39715,3.39715 0 0 1 -3.39715,3.39715l-3.23538,0a3.39715,3.39715 0 0 1 -3.23538,-3.39715l0,-50.63372z" stroke-width="5" stroke-miterlimit="10" stroke-dasharray=""></path></g></svg>