<svg data-v-9833e8b2="" version="1.1" xmlns="http://www.w3.org/2000/svg" xmlns:xlink="http://www.w3.org/1999/xlink" width="25" height="22.5"><g data-v-9833e8b2=""><path data-v-9833e8b2="" transform="scale(0.12376237623762376)" fill="none" stroke="currentColor" paint-order="fill stroke markers" d="m193.30791,185.44993l-184.61552,0c-4.61544,0 -7.69239,-3.07696 -7.69239,-7.69239s3.07696,-7.6922 7.69239,-7.6922l184.61552,0c4.61544,0 7.69239,3.07696 7.69239,7.6922s-3.07696,7.69239 -7.69239,7.69239zm0,-30.76919l-184.61552,0c-4.61544,0 -7.69239,-3.07696 -7.69239,-7.69239s3.07696,-7.69239 7.69239,-7.69239l184.61552,0c4.61544,0 7.69239,3.07696 7.69239,7.69239s-3.07696,7.69239 -7.69239,7.69239zm-150.76937,-38.46178c-2.30762,0 -4.61524,-1.53829 -6.15392,-3.07676l-6.15372,-10.00002c-6.92325,-10.76935 -6.92325,-24.61547 0,-35.38482l13.84611,-21.53851c3.07696,-4.61524 3.8461,-10.76916 0.76914,-16.15374l-9.23068,-18.46155c-1.53848,-3.07696 0,-7.69239 3.8461,-10.00002c3.8461,-1.53848 8.46154,0 10.00002,3.07696l9.23087,18.46155c5.38458,10.00002 4.61524,22.30765 -2.30782,31.53852l-13.84611,21.53832c-3.8461,5.38477 -3.8461,12.30783 0,17.69241l6.15392,10.00002c2.30762,3.8461 1.53848,8.46154 -2.30782,10.76935c-0.76914,0.76914 -2.30762,1.53829 -3.8461,1.53829zm57.69247,0c-2.30781,0 -4.61544,-1.53829 -6.15392,-3.07676l-6.15392,-10.00002c-6.92306,-10.76935 -6.92306,-24.61547 0,-35.38482l13.84612,-21.53851c3.07696,-4.61524 3.84629,-10.76916 0.76934,-16.15374l-9.23087,-18.46155c-1.53848,-3.84629 0,-8.46154 3.07696,-10.00002c3.84629,-1.53848 8.46154,0 10.00002,3.07696l10.00002,18.46155c5.38478,10.00002 4.61544,22.30765 -2.30762,31.53852l-13.84612,21.53832c-3.84629,5.38477 -3.84629,12.30783 0,17.69241l6.15372,10.00002c2.30782,3.8461 1.53848,8.46154 -2.30762,10.76935c-0.76934,0.76914 -2.30782,1.53829 -3.8461,1.53829zm57.69228,0c-2.30762,0 -4.61524,-1.53829 -6.15391,-3.07676l-6.15372,-10.00002c-6.92306,-10.76935 -6.92306,-24.61547 0,-35.38482l13.84611,-21.53851c3.07696,-4.61524 3.8461,-10.76916 0.76934,-16.15374l-9.23087,-18.46155c-1.53848,-3.84629 0,-8.46154 3.07696,-10.00002c3.8461,-1.53848 8.46154,0 10.00002,3.07696l9.23068,18.46155c5.38477,10.00002 4.61544,22.30765 -2.30762,31.53852l-13.84611,21.53832c-3.84629,5.38477 -3.84629,12.30783 0,17.69241l6.15372,10.00002c2.30782,3.8461 1.53848,8.46154 -2.30762,10.76935c0,0.76914 -1.53848,1.53829 -3.07696,1.53829z" stroke-width="5" stroke-miterlimit="10" stroke-dasharray=""></path></g></svg>