<svg data-v-9833e8b2="" version="1.1" xmlns="http://www.w3.org/2000/svg" xmlns:xlink="http://www.w3.org/1999/xlink" width="25" height="17.5"><g data-v-9833e8b2=""><path data-v-9833e8b2="" transform="scale(0.13966480446927373)" fill="none" stroke="currentColor" paint-order="fill stroke markers" d="m1,124.33364l0,-12.75003l177.50045,0l0,12.75003l-177.50045,0zm176.66711,-14.75004l0,-2.00001l-4.58335,0l0,2.00001l-0.75,0l0,-60.00015l0.75,0l0,3.00001l4.58335,0l0,-3.00001l0.83334,0l0,60.00015l-0.83334,0zm-4.58335,-3.16668l4.58335,0l0,-4.00001l-4.58335,0l0,4.00001zm0,-4.91668l4.58335,0l0,-3.41667l-4.58335,0l0,3.41667zm0,-4.83335l4.58335,0l0,-4.00001l-4.58335,0l0,4.00001zm0,-4.91668l4.58335,0l0,-4.00001l-4.58335,0l0,4.00001zm0,-4.91668l4.58335,0l0,-3.91668l-4.58335,0l0,3.91668zm0,-7.83335l0,3.00001l4.58335,0l0,-4.25001l-4.58335,0l0,1.25zm0,-2.16667l4.58335,0l0,-3.75001l-4.58335,0l0,3.75001zm0,-4.91668l4.58335,0l0,-3.91668l-4.58335,0l0,3.91668zm0,-4.91668l4.58335,0l0,-3.91668l-4.58335,0l0,3.91668zm0,-4.83335l4.58335,0l0,-4.00001l-4.58335,0l0,4.00001zm0,-4.91668l4.58335,0l0,-4.00001l-4.58335,0l0,4.00001zm-43.08344,52.08347l0,-59.91682l42.25011,0l0,60.16682l-42.25011,-0.25zm0.66667,-13.83337l41.0001,0l0,-4.50001l-41.08344,0l0.08333,4.50001zm0,-28.00007l41.0001,0l0,-4.50001l-41.08344,0l0.08333,4.50001zm-62.50016,41.66677l0,-71.25018l50.00013,0l0,71.66685l-50.00013,-0.41667zm0.75,-16.66671l48.75012,0l0,-5.33335l-48.75012,0l0,5.33335zm0,-33.33342l48.75012,0l0,-5.33335l-48.75012,0l0,5.33335zm-67.91684,50.41679l0,-61.08349l64.16683,0l0,61.08349l-64.16683,0zm50.00013,-12.00003l4.83334,0l0,-5.91668l-4.83334,0l0,5.91668zm-20.33339,0l4.83335,0l0,-5.91668l-4.83335,0l0,5.91668zm-20.33339,0l4.83335,0l0,-5.91668l-4.83335,0l0,5.91668zm40.66677,-7.83335l4.83334,0l0,-5.83335l-4.83334,0l0,5.83335zm-20.33339,0l4.83335,0l0,-5.83335l-4.83335,0l0,5.83335zm-20.33339,0l4.83335,0l0,-5.83335l-4.83335,0l0,5.83335zm40.66677,-7.75002l4.83334,0l0,-5.91668l-4.83334,0l0,5.91668zm-20.33339,0l4.83335,0l0,-5.91668l-4.83335,0l0,5.91668zm-20.33339,0l4.83335,0l0,-5.91668l-4.83335,0l0,5.91668zm40.66677,-7.83335l4.83334,0l0,-5.83335l-4.83334,0l0,5.83335zm-20.33339,0l4.83335,0l0,-5.83335l-4.83335,0l0,5.83335zm-20.33339,0l4.83335,0l0,-5.83335l-4.83335,0l0,5.83335zm40.66677,-7.75002l4.83334,0l0,-5.91668l-4.83334,0l0,5.91668zm-20.33339,0l4.83335,0l0,-5.91668l-4.83335,0l0,5.91668zm-20.33339,0l4.83335,0l0,-5.91668l-4.83335,0l0,5.91668zm114.75029,42.66678l0,-2.66667l-5.58335,0l0,2.33334l-0.91667,0l0,-70.58351l0.91667,0l0,3.58334l5.58335,0l0,-3.58334l0.91667,0l0,70.91685l-0.91667,0zm-5.58335,-3.50001l5.58335,0l0,-4.66668l-5.58335,0l0,4.66668zm0,-5.75001l5.58335,0l0,-4.66668l-5.58335,0l0,4.66668zm0,-5.75001l5.58335,0l0,-4.33334l-5.58335,0l0,4.33334zm0,-5.83335l5.58335,0l0,-4.66668l-5.58335,0l0,4.66668zm0,-5.75001l5.58335,0l0,-4.75001l-5.58335,0l0,4.75001zm0,-9.33336l0,3.50001l5.58335,0l0,-5.00001l-5.58335,0l0,1.5zm0,-2.58334l5.58335,0l0,-4.66668l-5.58335,0l0,4.66668zm0,-5.75001l5.58335,0l0,-4.66668l-5.58335,0l0,4.66668zm0,-5.75001l5.58335,0l0,-4.75001l-5.58335,0l0,4.75001zm0,-5.83335l5.58335,0l0,-4.66668l-5.58335,0l0,4.66668zm0,-5.75001l5.58335,0l0,-4.75001l-5.58335,0l0,4.75001zm10.50003,0.91667s0,-10.50003 21.16672,-10.50003s21.16672,10.16669 21.16672,10.16669l-42.33344,0.33333zm17.66671,-11.16669l0,-1.41667l-3.16667,0l0,-2.08334l13.33337,0l0,2.08334l-3.25001,0l0,1.41667l-6.91668,0zm-79.5002,-0.5s0,-12.50003 25.00006,-12.50003s25.00006,12.50003 25.00006,12.50003l-50.00013,0zm80.5002,-3.75001l0,-23.00006a2.75001,2.75001 0 0 0 -2.41667,-2.83334l-47.91679,0a2.75001,2.75001 0 0 0 -2.41667,2.83334l0,8.33335l-5.16668,0l0,-10.25003a6.58335,6.58335 0 0 1 5.91668,-7.08335l51.16679,0a6.50002,6.50002 0 0 1 5.91668,7.08335l0,25.00006l-5.08335,-0.08333zm-59.41682,-9.91669l0,-1.33334l8.33335,0l0,1.33334l-8.33335,0zm-3.83334,-1.41667l0,-2.50001l15.58337,0l0,2.50001l-15.58337,0z" stroke-width="5" stroke-miterlimit="10" stroke-dasharray=""></path></g></svg>