<svg data-v-9833e8b2="" version="1.1" xmlns="http://www.w3.org/2000/svg" xmlns:xlink="http://www.w3.org/1999/xlink" width="25" height="22.5"><g data-v-9833e8b2=""><path data-v-9833e8b2="" transform="scale(0.12562814070351758)" fill="none" stroke="currentColor" paint-order="fill stroke markers" d="m91.50228,52.86049l0,-30.12565l-45.4027,0c-6.18219,0 -11.21889,-4.87908 -11.21889,-10.86733c0,-5.98862 5.03981,-10.86751 11.21889,-10.86751l110.01254,0c6.17908,0 11.21577,4.87908 11.21577,10.86733c0,6.05192 -5.03669,10.86733 -11.21283,10.86733l-45.33591,0l0,30.12584l3.55779,0c4.23045,0 7.65504,3.31834 7.65504,7.41852l0,17.7253l-41.70858,-0.06679l0,-17.65851c0,-4.10018 3.4244,-7.41852 7.65797,-7.41852l3.56091,0zm-74.71349,115.53124l0,12.49466c0,1.82128 -1.53339,3.31834 -3.46385,3.31834l-8.86109,0c-1.93027,-0.00018 -3.46385,-1.49725 -3.46385,-3.38513l0,-79.91073c0,-1.88495 1.53339,-3.38201 3.46385,-3.38201l8.86091,0c1.93027,0 3.46385,1.49706 3.46385,3.38201l0,16.27062l29.46529,0c1.22752,-16.73741 15.51007,-29.93501 32.95648,-29.93501l40.70546,0c17.4464,0 31.72914,13.1976 32.9596,29.93501l29.52877,0l0,-16.4009c0,-1.81835 1.46679,-3.25174 3.33357,-3.25174l9.06109,0c1.86385,0 3.32752,1.43027 3.32752,3.25174l0,80.17128c0.06679,1.82422 -1.46367,3.25468 -3.33045,3.25468l-9.06109,0c-1.86385,0 -3.33064,-1.43046 -3.33064,-3.25468l0,-12.55833l-31.71373,0c-4.81541,12.00072 -16.77393,20.49814 -30.77464,20.49814l-40.70527,0c-13.99778,0 -25.95905,-8.49449 -30.77446,-20.49814l-31.6473,0l0,0.00018z" stroke-width="5" stroke-miterlimit="10" stroke-dasharray=""></path></g></svg>