<svg data-v-9833e8b2="" version="1.1" xmlns="http://www.w3.org/2000/svg" xmlns:xlink="http://www.w3.org/1999/xlink" width="25" height="15"><g data-v-9833e8b2=""><path data-v-9833e8b2="" transform="scale(0.14204545454545456)" fill="none" stroke="currentColor" paint-order="fill stroke markers" d="m49.00012,1l72.00018,0l0,96.00024l-72.00018,0l0,-96.00024z" stroke-width="5" stroke-miterlimit="10" stroke-dasharray=""></path><path data-v-9833e8b2="" transform="scale(0.14204545454545456)" fill="none" stroke="currentColor" paint-order="fill stroke markers" d="m49.00012,49.00012m-48.00012,0a48.00012,48.00012 0 1 0 96.00024,0a48.00012,48.00012 0 1 0 -96.00024,0z" stroke-width="5" stroke-miterlimit="10" stroke-dasharray=""></path><path data-v-9833e8b2="" transform="scale(0.14204545454545456)" fill="none" stroke="currentColor" paint-order="fill stroke markers" d="m49.00012,49.00012m-45.00011,0a45.00011,45.00011 0 1 0 90.00023,0a45.00011,45.00011 0 1 0 -90.00023,0z" stroke-width="5" stroke-miterlimit="10" stroke-dasharray=""></path><path data-v-9833e8b2="" transform="scale(0.14204545454545456)" fill="none" stroke="currentColor" paint-order="fill stroke markers" d="m49.00012,4.00001l65.00016,0l0,4.00001l-65.00016,0l0,-4.00001zm65.00016,0l4.00001,0l0,90.00023l-4.00001,0l0,-90.00023zm-65.00016,86.00022l65.00016,0l0,4.00001l-65.00016,0l0,-4.00001z" stroke-width="5" stroke-miterlimit="10" stroke-dasharray=""></path><path data-v-9833e8b2="" transform="scale(0.14204545454545456)" fill="none" stroke="currentColor" paint-order="fill stroke markers" d="m49.00012,49.00012m-41.0001,0a41.0001,41.0001 0 1 0 82.00021,0a41.0001,41.0001 0 1 0 -82.00021,0z" stroke-width="5" stroke-miterlimit="10" stroke-dasharray=""></path><path data-v-9833e8b2="" transform="scale(0.14204545454545456)" fill="none" stroke="currentColor" paint-order="fill stroke markers" d="m49.00012,8.00002l65.00016,0l0,82.00021l-65.00016,0l0,-82.00021z" stroke-width="5" stroke-miterlimit="10" stroke-dasharray=""></path><path data-v-9833e8b2="" transform="scale(0.14204545454545456)" fill="none" stroke="currentColor" paint-order="fill stroke markers" d="m49.30012,49.30012m-26.80007,0a26.80007,26.80007 0 1 0 53.60013,0a26.80007,26.80007 0 1 0 -53.60013,0z" stroke-width="5" stroke-miterlimit="10" stroke-dasharray=""></path><path data-v-9833e8b2="" transform="scale(0.14204545454545456)" fill="none" stroke="currentColor" paint-order="fill stroke markers" d="m25.00006,31.00007l48.00012,0l0,69.00017l-48.00012,0l0,-69.00017z" stroke-width="5" stroke-miterlimit="10" stroke-dasharray=""></path><path data-v-9833e8b2="" transform="scale(0.14204545454545456)" fill="none" stroke="currentColor" paint-order="fill stroke markers" d="m27.00007,33.00008l44.00011,0l0,65.00016l-44.00011,0l0,-65.00016z" stroke-width="5" stroke-miterlimit="10" stroke-dasharray=""></path><path data-v-9833e8b2="" transform="scale(0.14204545454545456)" fill="none" stroke="currentColor" paint-order="fill stroke markers" d="m121.0003,1l10.00003,0l0,41.0001l-10.00003,0l0,-41.0001z" stroke-width="5" stroke-miterlimit="10" stroke-dasharray=""></path><path data-v-9833e8b2="" transform="scale(0.14204545454545456)" fill="none" stroke="currentColor" paint-order="fill stroke markers" d="m123.00031,3l6.00002,0l0,37.00009l-6.00002,0l0,-37.00009z" stroke-width="5" stroke-miterlimit="10" stroke-dasharray=""></path><path data-v-9833e8b2="" transform="scale(0.14204545454545456)" fill="none" stroke="currentColor" paint-order="fill stroke markers" d="m150.00038,1l10.00003,0l0,41.0001l-10.00003,0l0,-41.0001z" stroke-width="5" stroke-miterlimit="10" stroke-dasharray=""></path><path data-v-9833e8b2="" transform="scale(0.14204545454545456)" fill="none" stroke="currentColor" paint-order="fill stroke markers" d="m152.00038,3l6.00002,0l0,37.00009l-6.00002,0l0,-37.00009z" stroke-width="5" stroke-miterlimit="10" stroke-dasharray=""></path><path data-v-9833e8b2="" transform="scale(0.14204545454545456)" fill="none" stroke="currentColor" paint-order="fill stroke markers" d="m28.00007,34.00008l42.00011,0l0,23.00006l-42.00011,0l0,-23.00006z" stroke-width="5" stroke-miterlimit="10" stroke-dasharray=""></path><path data-v-9833e8b2="" transform="scale(0.14204545454545456)" fill="none" stroke="currentColor" paint-order="fill stroke markers" d="m29.00007,35.00008l40.0001,0l0,21.00005l-40.0001,0l0,-21.00005z" stroke-width="5" stroke-miterlimit="10" stroke-dasharray=""></path><path data-v-9833e8b2="" transform="scale(0.14204545454545456)" fill="none" stroke="currentColor" paint-order="fill stroke markers" d="m30.00007,36.00009l38.0001,0l0,19.00005l-38.0001,0l0,-19.00005zm101.00025,-32.00008l19.00005,0l0,35.00009l-19.00005,0l0,-35.00009z" stroke-width="5" stroke-miterlimit="10" stroke-dasharray=""></path><path data-v-9833e8b2="" transform="scale(0.14204545454545456)" fill="none" stroke="currentColor" paint-order="fill stroke markers" d="m132.00033,5.00001l17.00004,0l0,33.00008l-17.00004,0l0,-33.00008z" stroke-width="5" stroke-miterlimit="10" stroke-dasharray=""></path><path data-v-9833e8b2="" transform="scale(0.14204545454545456)" fill="none" stroke="currentColor" paint-order="fill stroke markers" d="m133.00033,6.00001l15.00004,0l0,31.00008l-15.00004,0l0,-31.00008z" stroke-width="5" stroke-miterlimit="10" stroke-dasharray=""></path><path data-v-9833e8b2="" transform="scale(0.14204545454545456)" fill="none" stroke="currentColor" paint-order="fill stroke markers" d="m160.0004,13.00003l15.00004,0l0,17.00004l-15.00004,0l0,-17.00004z" stroke-width="5" stroke-miterlimit="10" stroke-dasharray=""></path><path data-v-9833e8b2="" transform="scale(0.14204545454545456)" fill="none" stroke="currentColor" paint-order="fill stroke markers" d="m160.0004,15.00003l15.00004,0l0,13.00003l-15.00004,0l0,-13.00003z" stroke-width="5" stroke-miterlimit="10" stroke-dasharray=""></path><path data-v-9833e8b2="" transform="scale(0.14204545454545456)" fill="none" stroke="currentColor" paint-order="fill stroke markers" d="m160.0004,17.60004l15.00004,0l0,7.80002l-15.00004,0l0,-7.80002z" stroke-width="5" stroke-miterlimit="10" stroke-dasharray=""></path></g></svg>