<svg data-v-9833e8b2="" version="1.1" xmlns="http://www.w3.org/2000/svg" xmlns:xlink="http://www.w3.org/1999/xlink" width="25" height="25"><g data-v-9833e8b2=""><path data-v-9833e8b2="" transform="scale(0.125)" fill="none" stroke="currentColor" paint-order="fill stroke markers" d="m195.96143,175.25825l-11.03518,0c0.01953,-0.19531 0.03906,-0.39063 0.03906,-0.58594l0,-95.56665c0,-4.06251 -1.25,-7.92971 -3.51563,-10.89846c-2.46094,-3.22266 -5.95705,-5.07814 -9.6094,-5.07814l-33.35946,0l0,-10.39065c0,-2.12891 -1.73829,-3.8672 -3.8672,-3.8672l-11.52347,0l0,-5.58595l31.17195,0c2.89063,0 5.25392,-2.36329 5.25392,-5.25392l0,-15.25394c0,-2.89063 -2.36329,-5.25392 -5.25392,-5.25392l-29.51179,0l0,-10.95706c0,-3.06641 -2.50001,-5.56642 -5.56642,-5.56642l-28.86726,0c-3.06641,0 -5.56642,2.50001 -5.56642,5.56642l0,10.93753l-29.49226,0c-2.89063,0 -5.25392,2.36329 -5.25392,5.25392l0,15.25394c0,2.89063 2.36329,5.25392 5.25392,5.25392l31.17195,0l0,5.56642l-11.52347,0c-2.12891,0 -3.8672,1.73829 -3.8672,3.8672l0,10.39065l-15.11723,0c-1.44532,-13.82816 -13.18363,-24.6485 -27.38288,-24.6485c-15.17582,0 -27.53913,12.34378 -27.53913,27.53913c0,13.86722 10.25393,25.35163 23.55475,27.28522l0,81.42599c0,0.19531 0.01953,0.39063 0.03906,0.58594l-8.32033,0c-2.12891,0 -3.8672,1.73829 -3.8672,3.8672l0,16.0352c0,2.12891 1.73829,3.8672 3.8672,3.8672l53.96498,0c2.12891,0 3.8672,-1.73829 3.8672,-3.8672l0,-16.0352c0,-2.12891 -1.73829,-3.8672 -3.8672,-3.8672l-9.94143,0c0.05859,-0.27344 0.09766,-0.58594 0.09766,-0.87891l0,-8.94534c0,-0.03906 0.03906,-0.07813 0.07813,-0.07813l89.39476,0c0.03906,0 0.07813,0.03906 0.07813,0.07813l0,8.94534c0,0.3125 0.03906,0.60547 0.09766,0.87891l-8.10549,0c-2.12891,0 -3.8672,1.73829 -3.8672,3.8672l0,16.0352c0,2.12891 1.73829,3.8672 3.8672,3.8672l53.98451,0c2.12891,0 3.8672,-1.73829 3.8672,-3.8672l0,-16.0352c0.03906,-2.14844 -1.69922,-3.88673 -3.82813,-3.88673zm-103.47682,-166.50433l24.53131,0l0,8.76955l-24.53131,0l0,-8.76955zm-34.76571,16.50395l94.08227,0l0,10.31253l-94.08227,0l0,-10.31253zm16.23051,60.62515c0.3125,0.07813 0.625,0.11719 0.95703,0.11719l11.52347,0l0,9.39455c0,2.12891 1.73829,3.8672 3.8672,3.8672l28.94539,0c2.12891,0 3.8672,-1.73829 3.8672,-3.8672l0,-9.39455l11.52347,0c0.33203,0 0.66406,-0.03906 0.95703,-0.11719l13.418,0c0.52735,0 0.97656,0.44922 0.97656,0.97656l0,45.62511c0,0.52735 -0.44922,0.97656 -0.97656,0.97656l-87.61741,0c-0.52735,0 -0.97656,-0.44922 -0.97656,-0.97656l0,-45.62511c0,-0.52735 0.44922,-0.97656 0.97656,-0.97656l12.55863,0zm4.82423,-29.27742l11.52347,0c2.12891,0 3.8672,-1.73829 3.8672,-3.8672l0,-9.39455l21.21099,0l0,9.39455c0,2.12891 1.73829,3.8672 3.8672,3.8672l11.52347,0l0,21.67974l-11.52347,0c-2.12891,0 -3.8672,1.73829 -3.8672,3.8672l0,9.39455l-21.23052,0l0,-9.39455c0,-2.12891 -1.73829,-3.8672 -3.8672,-3.8672l-11.52347,0l0,-21.67974l0.01953,0zm-70.03924,9.41409c0,-10.918 8.88674,-19.80474 19.80474,-19.80474s19.80474,8.88674 19.80474,19.80474s-8.88674,19.80474 -19.80474,19.80474s-19.80474,-8.88674 -19.80474,-19.80474zm57.6564,125.27375l-46.26965,0l0,-8.32033l46.25012,0l0,8.32033l0.01953,0zm83.4963,-33.67196l-89.39476,0c-4.31642,0 -7.81252,3.51563 -7.81252,7.81252l0,8.94534c0,0.3125 0.03906,0.60547 0.09766,0.87891l-20.54693,0c0.01953,-0.19531 0.03906,-0.39063 0.03906,-0.58594l0,-81.38692c11.81644,-1.6211 21.28912,-10.76175 23.35943,-22.44146l15.4102,0l0,7.28517l-9.66799,0c-4.8047,0 -8.71096,3.90626 -8.71096,8.71096l0,45.62511c0,4.8047 3.90626,8.71096 8.71096,8.71096l87.61741,0c4.8047,0 8.71096,-3.90626 8.71096,-8.71096l0,-45.60558c0,-4.8047 -3.90626,-8.71096 -8.71096,-8.71096l-10.52737,0l0,-7.28517l33.37899,0c2.8711,0 5.39064,3.84767 5.39064,8.24221l0,95.56665c0,0.19531 0.01953,0.39063 0.03906,0.58594l-19.66802,0c0.05859,-0.27344 0.09766,-0.58594 0.09766,-0.87891l0,-8.94534c0,-4.29689 -3.4961,-7.81252 -7.81252,-7.81252zm42.20714,33.67196l-46.25012,0l0,-8.32033l46.25012,0l0,8.32033z" stroke-width="5" stroke-miterlimit="10" stroke-dasharray=""></path></g></svg>