<svg data-v-9833e8b2="" version="1.1" xmlns="http://www.w3.org/2000/svg" xmlns:xlink="http://www.w3.org/1999/xlink" width="25" height="10"><g data-v-9833e8b2=""><path data-v-9833e8b2="" transform="scale(0.14124293785310735)" fill="none" stroke="currentColor" paint-order="fill stroke markers" d="m169.8516,25.44733c-1.84512,0 -3.51446,0.7416 -4.73947,1.9336l-18.52075,0l0,-18.98266c0,-4.08439 -2.97247,-7.39826 -6.64064,-7.39826l-101.56842,0c-3.6672,0 -6.6383,3.31388 -6.6383,7.39826l0,18.98286l-19.20278,0c-1.22461,-1.19239 -2.89415,-1.93379 -4.73927,-1.93379c-3.75704,0 -6.80197,3.04376 -6.80197,6.80295c0,3.75489 3.04493,6.79885 6.80197,6.79885c1.8461,0 3.51427,-0.74102 4.74025,-1.9336l19.20181,0l0,18.98032c0,4.08653 2.9713,7.39924 6.6383,7.39924l101.56862,0c3.66798,0 6.64045,-3.31251 6.64045,-7.39924l0,-18.98052l18.51977,0c1.22598,1.19278 2.89415,1.9336 4.74044,1.9336c3.75704,0 6.80177,-3.04376 6.80177,-6.79865c0,-3.75919 -3.04493,-6.80295 -6.80177,-6.80295zm-35.3706,22.48209l-27.67839,0l0,-29.89675l-18.79848,0l0,29.1114l-22.01158,0l0,-29.1114l-18.79848,0l0,29.05964l-4.43985,0l0,-29.05964l-0.00215,0l0,-4.43985l27.68054,0l0,29.1114l13.13128,0l0,-29.1114l27.67859,0l0,29.89636l23.23834,0l0,4.44025l0.0002,0z" stroke-width="5" stroke-miterlimit="10" stroke-dasharray=""></path></g></svg>