<svg data-v-9833e8b2="" version="1.1" xmlns="http://www.w3.org/2000/svg" xmlns:xlink="http://www.w3.org/1999/xlink" width="27" height="25"><g data-v-9833e8b2=""><path data-v-9833e8b2="" transform="scale(0.12376237623762376)" fill="none" stroke="currentColor" paint-order="fill stroke markers" d="m70.53143,114.28154l0,86.71897l-12.50003,0l0,-80.17755l-38.28135,-31.54149l0,-88.28147l12.50003,0l0,81.87208l38.28135,31.40945zm107.38777,-49.82825l8.03518,9.57502l-56.0478,47.02981l0,79.94239l-12.50003,0l0,-86.71897l60.51265,-49.82825zm-38.27744,-45.39074l0.11172,-0.09375l8.03518,9.57581l-56.16342,47.45559l-12.50003,0l0,-75.00019l31.25008,0l0,12.50003l-18.75005,0l0,45.85324l38.4415,-32.25555l-11.87894,-14.15629l9.57581,-8.03518l11.87815,14.15629zm-69.11033,95.21899l12.50003,0l0,12.50003l-12.50003,0l0,-12.50003zm17.18754,0l12.50003,0l0,12.50003l-12.50003,0l0,-12.50003zm17.18754,0l12.50003,0l0,12.50003l-12.50003,0l0,-12.50003zm-103.90651,-113.28154l18.75005,0l0,12.50003l-18.75005,0l0,-12.50003zm38.28135,187.50047l18.75005,0l0,12.50003l-18.75005,0l0,-12.50003zm90.62523,0l18.75005,0l0,12.50003l-18.75005,0l0,-12.50003zm55.60717,-114.76982l12.05237,14.36332l-9.57581,8.03518l-12.05159,-14.36332l9.57502,-8.03518z" stroke-width="5" stroke-miterlimit="10" stroke-dasharray=""></path></g></svg>