<svg data-v-9833e8b2="" version="1.1" xmlns="http://www.w3.org/2000/svg" xmlns:xlink="http://www.w3.org/1999/xlink" width="22" height="25"><g data-v-9833e8b2=""><path data-v-9833e8b2="" transform="scale(0.13227513227513227)" fill="none" stroke="currentColor" paint-order="fill stroke markers" d="m1,1l105.7,0l0,187.2l-105.7,0l0,-187.2l0,0z" stroke-width="5" stroke-miterlimit="10" stroke-dasharray=""></path><path data-v-9833e8b2="" transform="scale(0.13227513227513227)" fill="none" stroke="currentColor" paint-order="fill stroke markers" d="m106.7,1l42.3,0l0,187.2l-42.3,0l0,-187.2l0,0z" stroke-width="5" stroke-miterlimit="10" stroke-dasharray=""></path><path data-v-9833e8b2="" transform="scale(0.13227513227513227)" fill="none" stroke="currentColor" paint-order="fill stroke markers" d="m115.8,52.3l24.2,0l0,18.1l-24.2,0l0,-18.1l0,0z" stroke-width="5" stroke-miterlimit="10" stroke-dasharray=""></path><path data-v-9833e8b2="" transform="scale(0.13227513227513227)" fill="none" stroke="currentColor" paint-order="fill stroke markers" d="m115.8,76.5l24.2,0l0,18.1l-24.2,0l0,-18.1l0,0z" stroke-width="5" stroke-miterlimit="10" stroke-dasharray=""></path><path data-v-9833e8b2="" transform="scale(0.13227513227513227)" fill="none" stroke="currentColor" paint-order="fill stroke markers" d="m127.8,22.1c6.7,0 12.1,5.4 12.1,12.1c0,6.7 -5.4,12.1 -12.1,12.1c-6.7,0 -12.1,-5.4 -12.1,-12.1c0.1,-6.7 5.5,-12.1 12.1,-12.1l0,0z" stroke-width="5" stroke-miterlimit="10" stroke-dasharray=""></path><path data-v-9833e8b2="" transform="scale(0.13227513227513227)" fill="none" stroke="currentColor" paint-order="fill stroke markers" d="m20.7,19.1l66.4,0l0,24.2l-66.4,0l0,-24.2l0,0z" stroke-width="5" stroke-miterlimit="10" stroke-dasharray=""></path><path data-v-9833e8b2="" transform="scale(0.13227513227513227)" fill="none" stroke="currentColor" paint-order="fill stroke markers" d="m20.7,145.9l18.1,0l0,24.2l-18.1,0l0,-24.2l0,0z" stroke-width="5" stroke-miterlimit="10" stroke-dasharray=""></path><path data-v-9833e8b2="" transform="scale(0.13227513227513227)" fill="none" stroke="currentColor" paint-order="fill stroke markers" d="m44.8,145.9l18.1,0l0,24.2l-18.1,0l0,-24.2l0,0z" stroke-width="5" stroke-miterlimit="10" stroke-dasharray=""></path><path data-v-9833e8b2="" transform="scale(0.13227513227513227)" fill="none" stroke="currentColor" paint-order="fill stroke markers" d="m69,145.9l18.1,0l0,24.2l-18.1,0l0,-24.2l0,0z" stroke-width="5" stroke-miterlimit="10" stroke-dasharray=""></path></g></svg>