<svg data-v-9833e8b2="" version="1.1" xmlns="http://www.w3.org/2000/svg" xmlns:xlink="http://www.w3.org/1999/xlink" width="22" height="25"><g data-v-9833e8b2=""><path data-v-9833e8b2="" transform="scale(0.13157894736842105)" fill="none" stroke="currentColor" paint-order="fill stroke markers" d="m19.3009,92.7l43.2,0l0,45.9l-43.2,0c-10.1,0 -18.3,-8.2 -18.3,-18.3l0,-9.2c-0.1,-10.2 8.1,-18.4 18.3,-18.4l0,0z" stroke-width="5" stroke-miterlimit="10" stroke-dasharray=""></path><path data-v-9833e8b2="" transform="scale(0.13157894736842105)" fill="none" stroke="currentColor" paint-order="fill stroke markers" d="m50.4009,78.4l0,74l-27.6,0l0,-59.3l-13.7,-18.7l0,-73.4l27.5,0l0,60.6l13.8,16.8z" stroke-width="5" stroke-miterlimit="10" stroke-dasharray=""></path><path data-v-9833e8b2="" transform="scale(0.13157894736842105)" fill="none" stroke="currentColor" paint-order="fill stroke markers" d="m77.9009,42.3l45.9,0l18.3,50.5l-82.6,0l18.4,-50.5l0,0z" stroke-width="5" stroke-miterlimit="10" stroke-dasharray=""></path><path data-v-9833e8b2="" transform="scale(0.13157894736842105)" fill="none" stroke="currentColor" paint-order="fill stroke markers" d="m77.9009,189l-18.4,-50.4l82.6,0l-18.3,50.5l-45.9,0l0,-0.1z" stroke-width="5" stroke-miterlimit="10" stroke-dasharray=""></path><path data-v-9833e8b2="" transform="scale(0.13157894736842105)" fill="none" stroke="currentColor" paint-order="fill stroke markers" d="m77.9009,78.9l45.9,0c10.1,0 18.3,8.2 18.3,18.3l0,36.7c0,10.1 -8.2,18.3 -18.3,18.3l-45.9,0c-10.1,0 -18.3,-8.2 -18.3,-18.3l0,-36.7c-0.1,-10 8.1,-18.3 18.3,-18.3l0,0z" stroke-width="5" stroke-miterlimit="10" stroke-dasharray=""></path></g></svg>