<svg data-v-9833e8b2="" version="1.1" xmlns="http://www.w3.org/2000/svg" xmlns:xlink="http://www.w3.org/1999/xlink" width="24.5" height="25"><g data-v-9833e8b2=""><path data-v-9833e8b2="" transform="scale(0.12376237623762376)" fill="none" stroke="currentColor" paint-order="fill stroke markers" d="m95.61054,106.38567c-1.62932,-1.6258 -4.26607,-1.6258 -5.89578,0.00078a4.15825,4.15825 0 0 0 -1.22072,2.94496c0,-5.12077 -1.31212,-10.04036 -3.77192,-14.374a4.1231,4.1231 0 0 0 2.39886,1.73362c2.2219,0.59493 4.50435,-0.72345 5.10241,-2.94496c0.59219,-2.22464 -0.72618,-4.50748 -2.94808,-5.10553c-2.2219,-0.59493 -4.5106,0.72618 -5.10241,2.94769a4.13286,4.13286 0 0 0 0.32344,2.98168a29.50739,29.50739 0 0 0 -4.54107,-5.85945a29.29684,29.29684 0 0 0 -5.8657,-4.5442c0.89103,0.45782 1.94104,0.6043 2.9848,0.32344c2.2219,-0.59493 3.53989,-2.88089 2.94808,-5.10241c-0.59805,-2.2219 -2.8809,-3.54301 -5.10241,-2.94496c-2.22776,0.59493 -3.54614,2.8809 -2.94808,5.10241a4.1481,4.1481 0 0 0 1.73947,2.39886c-4.33951,-2.46566 -9.2591,-3.77817 -14.37986,-3.77817a4.13286,4.13286 0 0 0 2.94183,-1.22072a4.15904,4.15904 0 0 0 0,-5.88992c-1.62346,-1.62971 -4.26021,-1.62971 -5.88992,0a4.15904,4.15904 0 0 0 0,5.88992a4.14263,4.14263 0 0 0 2.94183,1.22072c-5.12076,0 -10.04036,1.31212 -14.374,3.77817a4.15083,4.15083 0 0 0 1.73362,-2.39886c0.59805,-2.22464 -0.72032,-4.50748 -2.94183,-5.10241c-2.2219,-0.59805 -4.5106,0.72345 -5.10866,2.94496c-0.59219,2.2219 0.72618,4.50748 2.94808,5.10241c1.04376,0.28086 2.09338,0.13438 2.9848,-0.32344a29.31911,29.31911 0 0 0 -5.85945,4.5442a29.3238,29.3238 0 0 0 -4.54693,5.86218a4.14107,4.14107 0 0 0 0.32344,-2.9848c-0.59219,-2.22151 -2.88089,-3.54301 -5.10241,-2.94496c-2.2219,0.59493 -3.53989,2.87777 -2.94183,5.10241c0.59219,2.2219 2.88089,3.53989 5.10241,2.94496a4.14458,4.14458 0 0 0 2.39886,-1.73947c-2.46565,4.33677 -3.77817,9.25597 -3.77817,14.37986c0,-1.06798 -0.40274,-2.1301 -1.22072,-2.94496c-1.62346,-1.62658 -4.26646,-1.62658 -5.89617,0c-1.62346,1.62658 -1.62346,4.26958 0,5.89304c1.62971,1.62346 4.27271,1.62346 5.89617,0a4.12974,4.12974 0 0 0 1.22072,-2.94183c0,5.12076 1.31213,10.04036 3.77192,14.374a4.15083,4.15083 0 0 0 -2.39261,-1.73948c-2.2219,-0.59219 -4.5106,0.72618 -5.10241,2.95394c-0.59805,2.2219 0.72032,4.50435 2.94183,5.10241c2.2219,0.59219 4.5106,-0.72618 5.10241,-2.95394c0.28086,-1.03751 0.13438,-2.08752 -0.32344,-2.97855a29.39958,29.39958 0 0 0 4.54693,5.85945a29.18903,29.18903 0 0 0 5.85945,4.54107c-0.89103,-0.45157 -1.94104,-0.59805 -2.9848,-0.31719c-2.2219,0.59219 -3.53989,2.88089 -2.94808,5.10241c0.59805,2.2219 2.88714,3.53989 5.10866,2.94183c2.2219,-0.59219 3.53989,-2.88089 2.94183,-5.10241a4.11333,4.11333 0 0 0 -1.73362,-2.39261c4.33951,2.4598 9.25324,3.77192 14.374,3.77192a4.12974,4.12974 0 0 0 -2.94183,1.22072c-1.62971,1.62346 -1.62971,4.26021 0,5.89617c1.62971,1.62346 4.26607,1.62346 5.88992,0c1.62971,-1.63596 1.62971,-4.27271 0,-5.89617a4.11958,4.11958 0 0 0 -2.94183,-1.22072c5.12077,0 10.04036,-1.31212 14.37361,-3.77192a4.11724,4.11724 0 0 0 -1.73361,2.39261c-0.59805,2.2219 0.72032,4.50435 2.94808,5.10241c2.2219,0.59805 4.50435,-0.72032 5.10241,-2.94183c0.59219,-2.2219 -0.72618,-4.5106 -2.94808,-5.10241c-1.04376,-0.28086 -2.09338,-0.13438 -2.9848,0.31719a29.17458,29.17458 0 0 0 5.8657,-4.54107a29.41833,29.41833 0 0 0 4.54107,-5.85945c-0.45782,0.89103 -0.6043,1.94104 -0.32344,2.97855c0.59219,2.22776 2.88089,3.54614 5.10241,2.95394c2.2219,-0.59805 3.53989,-2.88089 2.94808,-5.10241c-0.59805,-2.22776 -2.8809,-3.54614 -5.10241,-2.95394a4.14497,4.14497 0 0 0 -2.39886,1.73948c2.4598,-4.33951 3.77192,-9.2591 3.77192,-14.374c0,1.06212 0.40899,2.1301 1.22072,2.94183c1.62971,1.62346 4.26646,1.62346 5.89617,0c1.62346,-1.62346 1.62346,-4.26646 0,-5.89304zm-21.55105,17.6799c-3.93052,3.93677 -9.16769,6.09734 -14.72792,6.09734c-5.56647,0 -10.7974,-2.16057 -14.73416,-6.09734s-6.09734,-9.16769 -6.09734,-14.72791c0,-5.5696 2.16057,-10.80013 6.09734,-14.73729c3.93677,-3.93364 9.16769,-6.10047 14.73416,-6.10047c5.56022,0 10.79701,2.16682 14.72792,6.10359c3.93677,3.93364 6.10359,9.16457 6.10359,14.73417c0,5.56022 -2.16682,10.79115 -6.10359,14.72791zm26.79408,-44.97712c-0.59805,-2.22151 -2.88051,-3.5434 -5.10241,-2.94496c-2.2219,0.59493 -3.53989,2.88089 -2.94808,5.10241c0.59805,2.2219 2.88089,3.53989 5.10241,2.94496c2.22776,-0.59493 3.54614,-2.88089 2.94808,-5.10241zm-75.00014,0c-0.59805,-2.2219 -2.88089,-3.54301 -5.10241,-2.94496c-2.2219,0.59493 -3.53989,2.88089 -2.94183,5.10241c0.59219,2.2219 2.87464,3.53989 5.10241,2.94496c2.22229,-0.59493 3.54067,-2.88089 2.94183,-5.10241zm-8.19073,-53.08893l0,41.66614l83.33149,0l0,-41.66614l-83.33149,0zm75.00014,33.33479l-66.66293,0l0,-25.00031l66.66293,0l0,25.00031z" stroke-width="5" stroke-miterlimit="10" stroke-dasharray=""></path><path data-v-9833e8b2="" transform="scale(0.12376237623762376)" fill="none" stroke="currentColor" paint-order="fill stroke markers" d="m71.11102,97.54845c-1.62307,-1.62658 -4.25982,-1.62658 -5.88952,0l-17.676,17.67912c-1.62971,1.62971 -1.62971,4.26646 0,5.88992c0.81173,0.81798 1.87971,1.22072 2.94808,1.22072c1.06212,0 2.1301,-0.40274 2.94183,-1.22072l17.68186,-17.676c1.62346,-1.62658 1.62346,-4.26646 -0.00625,-5.89304z" stroke-width="5" stroke-miterlimit="10" stroke-dasharray=""></path><path data-v-9833e8b2="" transform="scale(0.12376237623762376)" fill="none" stroke="currentColor" paint-order="fill stroke markers" d="m180.16314,55.16551l-4.1688,0l0,-25.00031c0,-2.3012 -1.86174,-4.16568 -4.16216,-4.16568c-2.3012,0 -4.1688,1.86448 -4.1688,4.16568l0,25.00031l-4.1688,0c-2.3012,0 -4.16255,1.8676 -4.16255,4.1688l0,87.50381c0,2.29495 1.86174,4.16255 4.16255,4.16255l4.1688,0l0,41.66223l-83.33813,0l0.00625,-33.32541l8.33135,0l0,20.82526c0,1.11095 0.43946,2.16682 1.22072,2.95394c0.78126,0.78126 1.83713,1.22072 2.94183,1.22072l41.66887,0c2.3012,0 4.1688,-1.8676 4.1688,-4.17505l0,-29.16169l4.1688,0c2.3012,0 4.16255,-1.8676 4.16255,-4.16255l0,-87.50381c0,-2.3012 -1.86174,-4.1688 -4.16255,-4.1688l-4.1688,0l0,-25.00031c0,-2.3012 -1.8676,-4.16568 -4.1688,-4.16568s-4.16255,1.86448 -4.16255,4.16568l0,25.00031l-4.1688,0c-2.3012,0 -4.1688,1.8676 -4.1688,4.1688l0,87.50381c0,2.29495 1.8676,4.16255 4.1688,4.16255l4.1688,0l0,24.99953l-33.33752,0l0,-17.09005c9.49699,-1.92815 16.66856,-10.35091 16.66856,-20.40963l0,-116.66628c0,-11.48998 -9.34465,-20.83424 -20.83111,-20.83424l-75.006,0c-11.48725,0 -20.82565,9.34426 -20.82565,20.83424l0,116.66628c0,11.48686 9.33839,20.83698 20.82526,20.83698l54.16903,0l0,37.49421c0,1.1047 0.43946,2.16682 1.22072,2.94808s1.84338,1.22072 2.94808,1.22072l91.66909,0c2.30081,0 4.16841,-1.8676 4.16841,-4.16255l0,-45.83728l4.16255,0c2.3012,0 4.1688,-1.8676 4.1688,-4.16255l0,-87.50381c0,-2.3012 -1.86721,-4.1688 -4.1688,-4.1688zm-45.83142,8.33448l8.33135,0l0,4.16568l-8.33135,0l0,-4.16568zm0,12.49976l8.33135,0l0,66.66332l-8.33135,0l0,-66.66332zm-112.50607,75.00092c-6.88485,0 -12.50015,-5.60319 -12.50015,-12.50015l0,-116.66628c0,-6.89383 5.6153,-12.50015 12.50015,-12.50015l8.3376,0c0,2.3012 1.8676,4.16568 4.16255,4.16568l50.00608,0c2.3012,0 4.16255,-1.86448 4.16255,-4.16568l8.3376,0c6.8911,0 12.49976,5.60632 12.49976,12.50015l0,116.66628c0,6.89696 -5.60866,12.50015 -12.49976,12.50015l-75.00639,0zm154.16869,-8.3376l-8.33096,0l0,-66.66332l8.33096,0l0,66.66332zm0,-74.99741l-8.33096,0l0,-4.16567l8.33096,0l0,4.16567z" stroke-width="5" stroke-miterlimit="10" stroke-dasharray=""></path></g></svg>