<svg data-v-9833e8b2="" version="1.1" xmlns="http://www.w3.org/2000/svg" xmlns:xlink="http://www.w3.org/1999/xlink" width="25" height="22.5"><g data-v-9833e8b2=""><path data-v-9833e8b2="" transform="scale(0.1404494382022472)" fill="none" stroke="currentColor" paint-order="fill stroke markers" d="m82.3,107.2l81.3,0l0,33.9l-81.3,0l0,-33.9l0,0z" stroke-width="5" stroke-miterlimit="10" stroke-dasharray=""></path><path data-v-9833e8b2="" transform="scale(0.1404494382022472)" fill="none" stroke="currentColor" paint-order="fill stroke markers" d="m1,46.2l31.6,0l0,49.7l-31.6,0l0,-49.7l0,0z" stroke-width="5" stroke-miterlimit="10" stroke-dasharray=""></path><path data-v-9833e8b2="" transform="scale(0.1404494382022472)" fill="none" stroke="currentColor" paint-order="fill stroke markers" d="m98.1,1l49.7,0l0,38l-49.7,0l0,-38l0,0z" stroke-width="5" stroke-miterlimit="10" stroke-dasharray=""></path><path data-v-9833e8b2="" transform="scale(0.1404494382022472)" fill="none" stroke="currentColor" paint-order="fill stroke markers" d="m28.1,23.6l31.6,0l0,117.5l-31.6,0l0,-117.5l0,0z" stroke-width="5" stroke-miterlimit="10" stroke-dasharray=""></path><path data-v-9833e8b2="" transform="scale(0.1404494382022472)" fill="none" stroke="currentColor" paint-order="fill stroke markers" d="m123,21.4c30,0 54.2,24.3 54.2,54.2c0,30 -24.3,54.2 -54.2,54.2c-30,0 -54.2,-24.3 -54.2,-54.2c0,-30 24.2,-54.2 54.2,-54.2l0,0z" stroke-width="5" stroke-miterlimit="10" stroke-dasharray=""></path><path data-v-9833e8b2="" transform="scale(0.1404494382022472)" fill="none" stroke="currentColor" paint-order="fill stroke markers" d="m1,136.6l174,0l0,22.6l-174,0l0,-22.6l0,0z" stroke-width="5" stroke-miterlimit="10" stroke-dasharray=""></path></g></svg>