<svg data-v-9833e8b2="" version="1.1" xmlns="http://www.w3.org/2000/svg" xmlns:xlink="http://www.w3.org/1999/xlink" width="25" height="15"><g data-v-9833e8b2=""><path data-v-9833e8b2="" transform="scale(0.12626262626262627)" fill="none" stroke="currentColor" paint-order="fill stroke markers" d="m197,69.8l-72.6,15.1l0,15.1l-9.3,1.9l-0.2,0l-2.7,15.1l-3.8,0l0,3.8l-18.8,0l0,-3.8l-3.8,0l-2.8,-15.5l-9.5,-1.6l0,-15.1l-72.5,-15l5.7,-56.5l79.2,0l0,-12.3l26.4,0l0,12.2l79.2,0l5.5,56.6z" stroke-width="5" stroke-miterlimit="10" stroke-dasharray=""></path><path data-v-9833e8b2="" transform="scale(0.12626262626262627)" fill="none" stroke="currentColor" paint-order="fill stroke markers" d="m5.7,21.7l186.6,0l0,1.9l-186.6,0l0,-1.9l0,0z" stroke-width="5" stroke-miterlimit="10" stroke-dasharray=""></path><path data-v-9833e8b2="" transform="scale(0.12626262626262627)" fill="none" stroke="currentColor" paint-order="fill stroke markers" d="m101.8,33.9l0,33l0,0l5.6,3.8l0,7.5l-5.7,0l0,11.3l0,0l4.7,7.5l0,17l-14.9,0l0,-17l4.6,-7.5l0.1,0l0,-11.3l-5.7,0l0,-7.5l5.6,-3.8l0,0l0,-33l-6.6,-4.7l0,-11.3l6.6,0l0,-6.6l0,0l-3.7,-2.8l0,-7.5l14.1,0l0,7.5l-4.7,2.8l0,6.6l6.6,0l0,11.3l-6.6,4.7l0,0z" stroke-width="5" stroke-miterlimit="10" stroke-dasharray=""></path></g></svg>