<svg data-v-9833e8b2="" version="1.1" xmlns="http://www.w3.org/2000/svg" xmlns:xlink="http://www.w3.org/1999/xlink" width="24.5" height="25"><g data-v-9833e8b2=""><path data-v-9833e8b2="" transform="scale(0.13736263736263737)" fill="none" stroke="currentColor" paint-order="fill stroke markers" d="m98.6,45.4l53.2,44.3l0,91.6l-53.2,0l0,-135.9l0,0z" stroke-width="5" stroke-miterlimit="10" stroke-dasharray=""></path><path data-v-9833e8b2="" transform="scale(0.13736263736263737)" fill="none" stroke="currentColor" paint-order="fill stroke markers" d="m113.3,92.7l23.6,0l0,23.6l-23.6,0l0,-23.6l0,0z" stroke-width="5" stroke-miterlimit="10" stroke-dasharray=""></path><path data-v-9833e8b2="" transform="scale(0.13736263736263737)" fill="none" stroke="currentColor" paint-order="fill stroke markers" d="m113.3,128.1l23.6,0l0,23.6l-23.6,0l0,-23.6l0,0z" stroke-width="5" stroke-miterlimit="10" stroke-dasharray=""></path><path data-v-9833e8b2="" transform="scale(0.13736263736263737)" fill="none" stroke="currentColor" paint-order="fill stroke markers" d="m12.8,30.6l91.6,-29.6l0,180.3l-91.6,0l0,-150.7l0,0z" stroke-width="5" stroke-miterlimit="10" stroke-dasharray=""></path><path data-v-9833e8b2="" transform="scale(0.13736263736263737)" fill="none" stroke="currentColor" paint-order="fill stroke markers" d="m29.1,45.4l23.6,0l0,23.6l-23.6,0l0,-23.6l0,0z" stroke-width="5" stroke-miterlimit="10" stroke-dasharray=""></path><path data-v-9833e8b2="" transform="scale(0.13736263736263737)" fill="none" stroke="currentColor" paint-order="fill stroke markers" d="m64.6,45.4l23.6,0l0,23.6l-23.6,0l0,-23.6l0,0z" stroke-width="5" stroke-miterlimit="10" stroke-dasharray=""></path><path data-v-9833e8b2="" transform="scale(0.13736263736263737)" fill="none" stroke="currentColor" paint-order="fill stroke markers" d="m29.1,80.9l23.6,0l0,23.6l-23.6,0l0,-23.6l0,0z" stroke-width="5" stroke-miterlimit="10" stroke-dasharray=""></path><path data-v-9833e8b2="" transform="scale(0.13736263736263737)" fill="none" stroke="currentColor" paint-order="fill stroke markers" d="m64.6,80.9l23.6,0l0,23.6l-23.6,0l0,-23.6l0,0z" stroke-width="5" stroke-miterlimit="10" stroke-dasharray=""></path><path data-v-9833e8b2="" transform="scale(0.13736263736263737)" fill="none" stroke="currentColor" paint-order="fill stroke markers" d="m29.1,116.3l23.6,0l0,23.6l-23.6,0l0,-23.6l0,0z" stroke-width="5" stroke-miterlimit="10" stroke-dasharray=""></path><path data-v-9833e8b2="" transform="scale(0.13736263736263737)" fill="none" stroke="currentColor" paint-order="fill stroke markers" d="m64.6,116.3l23.6,0l0,23.6l-23.6,0l0,-23.6l0,0z" stroke-width="5" stroke-miterlimit="10" stroke-dasharray=""></path><path data-v-9833e8b2="" transform="scale(0.13736263736263737)" fill="none" stroke="currentColor" paint-order="fill stroke markers" d="m1,175.4l162.6,0l0,5.9l-162.6,0l0,-5.9l0,0z" stroke-width="5" stroke-miterlimit="10" stroke-dasharray=""></path></g></svg>