<svg data-v-9833e8b2="" version="1.1" xmlns="http://www.w3.org/2000/svg" xmlns:xlink="http://www.w3.org/1999/xlink" width="19.5" height="25"><g data-v-9833e8b2=""><path data-v-9833e8b2="" transform="scale(0.1358695652173913)" fill="none" stroke="currentColor" paint-order="fill stroke markers" d="m78.2,69.6l0,1.6l14,0l0,17.5l-49.1,0l0,-17.5l14,0l0,-1.6c-14.2,-4.5 -24.6,-17.8 -24.6,-33.5c0,-19.4 15.7,-35.1 35.1,-35.1s35.1,15.7 35.1,35.1c0.1,15.8 -10.2,29.1 -24.5,33.5z" stroke-width="5" stroke-miterlimit="10" stroke-dasharray=""></path><path data-v-9833e8b2="" transform="scale(0.1358695652173913)" fill="none" stroke="currentColor" paint-order="fill stroke markers" d="m134.4,106.3l0,63.2c0,5.8 -4.7,10.5 -10.5,10.5c-4.6,0 -8.4,-2.9 -9.9,-7l-17.1,0c-7.9,6.6 -18.1,10.5 -29.1,10.5s-21.2,-4 -29.1,-10.5l-17.3,0c-1.5,4.1 -5.3,7 -9.9,7c-5.8,0 -10.5,-4.7 -10.5,-10.5l0,-63.2c0,-5.8 4.7,-10.5 10.5,-10.5c4.6,0 8.4,2.9 9.9,7l14.7,0l0,-10.5l63.2,0l0,10.5l14.7,0c1.5,-4.1 5.3,-7 9.9,-7c5.8,0 10.5,4.7 10.5,10.5z" stroke-width="5" stroke-miterlimit="10" stroke-dasharray=""></path></g></svg>