<svg data-v-9833e8b2="" version="1.1" xmlns="http://www.w3.org/2000/svg" xmlns:xlink="http://www.w3.org/1999/xlink" width="25" height="22.5"><g data-v-9833e8b2=""><path data-v-9833e8b2="" transform="scale(0.12376237623762376)" fill="none" stroke="currentColor" paint-order="fill stroke markers" d="m81.04457,33.87545c5.71747,0 11.43494,-4.2881 11.43494,-11.43494c0,-5.71747 -4.2881,-11.43494 -11.43494,-11.43494c-5.71747,0 -11.43494,4.2881 -11.43494,11.43494c0,5.71747 4.2881,11.43494 11.43494,11.43494zm-28.58735,0c5.71747,0 11.43494,-4.2881 11.43494,-11.43494c0,-5.71747 -4.2881,-11.43494 -11.43494,-11.43494s-11.43494,5.71747 -11.43494,11.43494s5.71747,11.43494 11.43494,11.43494zm-21.44051,98.62635l0,10.00557l120.06685,0l0,-10.00557l-120.06685,0zm0,-20.01114l0,10.00557l120.06685,0l0,-10.00557l-120.06685,0zm0,-20.01114l0,10.00557l120.06685,0l0,-10.00557l-120.06685,0zm0,-20.01114l0,10.00557l120.06685,0l0,-10.00557l-120.06685,0zm0,-20.01114l0,10.00557l120.06685,0l0,-10.00557l-120.06685,0zm0,101.48508c-8.5762,0 -15.72304,-5.71747 -18.58177,-12.86431l-2.85874,0c-4.2881,1.42937 -8.5762,-2.85874 -8.5762,-7.14684l0,-74.3271c0,-4.2881 4.2881,-8.5762 8.5762,-8.5762l4.2881,0c2.85874,-5.71747 10.00557,-10.00557 17.15241,-10.00557l0,-30.01671c0,-5.71747 4.2881,-10.00557 10.00557,-10.00557l48.59849,0c5.71747,0 11.43494,4.2881 11.43494,10.00557l0,30.01671l48.59849,0c7.14684,0 14.29367,4.2881 17.15241,10.00557l14.29367,0c11.43494,1.42937 20.01114,10.00557 20.01114,21.44051l0,61.46279c0,11.43494 -8.5762,20.01114 -20.01114,20.01114l-18.58177,0l10.00557,18.58177l-151.51294,0l10.00557,-18.58177z" stroke-width="5" stroke-miterlimit="10" stroke-dasharray=""></path></g></svg>