<svg data-v-9833e8b2="" version="1.1" xmlns="http://www.w3.org/2000/svg" xmlns:xlink="http://www.w3.org/1999/xlink" width="25" height="20"><g data-v-9833e8b2=""><path data-v-9833e8b2="" transform="scale(0.12376237623762376)" fill="none" stroke="currentColor" paint-order="fill stroke markers" d="m174.15082,51.18551l-31.49755,0a9.0369,9.0369 0 0 0 -9.08077,9.08077l0,11.66901l-25.75078,-70.93529l-99.09884,36.10374a11.84448,11.84448 0 0 0 -7.06282,15.00301l22.76773,62.38094l-7.76472,0l0,18.11767l3.55334,0a27.11071,27.11071 0 1 0 54.22141,0l54.35302,0a27.11071,27.11071 0 1 0 54.22141,0l18.11767,0l0,-45.22837l-26.9791,-36.19147zm-112.61032,52.64214l0,10.5723l-29.12865,0l29.12865,-10.5723zm-14.12564,37.683a9.08077,9.08077 0 1 1 9.08077,-8.9053a9.08077,9.08077 0 0 1 -9.08077,9.0369l0,-0.1316zm27.11071,-27.11071l0,-15.22235l59.00307,-21.45167l0,36.76176l-59.00307,-0.08774zm81.46372,27.11071a9.08077,9.08077 0 1 1 9.08077,-8.9053a9.08077,9.08077 0 0 1 -9.08077,9.0369l0,-0.1316zm-9.08077,-54.13367l0,-22.67999l22.59225,0l17.54738,22.59225l-40.13964,0l0,0.08774z" stroke-width="5" stroke-miterlimit="10" stroke-dasharray=""></path></g></svg>