<svg data-v-9833e8b2="" version="1.1" xmlns="http://www.w3.org/2000/svg" xmlns:xlink="http://www.w3.org/1999/xlink" width="24.5" height="25"><g data-v-9833e8b2=""><path data-v-9833e8b2="" transform="scale(0.12755102040816327)" fill="none" stroke="currentColor" paint-order="fill stroke markers" d="m91.46228,135.29182l-19.97867,0c-4.39483,0 -4.41859,-6.65164 0,-6.65164l19.97867,0c1.8292,0 3.32582,1.49662 3.32582,3.32582s-1.47286,3.32582 -3.32582,3.32582zm18.33952,-14.98994l-56.6577,0c-4.39483,0 -4.41859,-6.67539 0,-6.67539l56.63395,0c1.80544,0.04751 3.25455,1.52037 3.25455,3.32582s-1.42535,3.30206 -3.2308,3.34957zm14.56234,-6.69915c2.73192,-3.70591 4.98873,-7.72065 6.69915,-11.9967l-10.09624,-3.27831c-4.18103,-1.35408 -2.13802,-7.69689 2.06676,-6.34281l10.14375,3.30206c2.35183,-8.86093 2.39934,-18.17323 0.11878,-27.08167l-10.09624,3.27831c-4.18103,1.35408 -6.24779,-4.96497 -2.06676,-6.34281l10.11999,-3.27831c-3.32582,-8.52835 -8.83718,-16.15398 -15.79764,-21.97416l-6.22403,8.57586c-2.58939,3.56338 -7.98197,-0.35634 -5.39258,-3.91971l6.24779,-8.59962c-7.5306,-4.84619 -16.17773,-7.74441 -25.27622,-8.43333l0,10.5476c0,4.39483 -6.65164,4.41859 -6.65164,0l0,-10.64262c-9.43107,0.45136 -18.57708,3.34957 -26.63031,8.55211l6.65164,9.16976c2.58939,3.56338 -2.80319,7.48309 -5.39258,3.91971l-6.62788,-9.146c-7.15051,5.91521 -12.54309,13.44581 -15.8214,21.9504l10.78516,3.51587c4.18103,1.35408 2.13803,7.6969 -2.06676,6.34281l-10.73764,-3.49211c-2.23305,8.9322 -2.20929,18.22074 0.11878,27.05791l10.80891,-3.51587c4.20478,-1.35408 6.22403,4.98873 2.06676,6.34281l-10.78516,3.46835c1.66291,4.13352 3.84845,8.07699 6.48535,11.68788c2.58939,3.56338 -2.80319,7.48309 -5.39258,3.91971c-9.54985,-13.13698 -13.3983,-29.19594 -10.85642,-45.23114c8.48084,-53.49817 77.61036,-69.69966 109.20564,-26.2027c15.65511,21.54656 15.56008,50.38616 -0.23756,71.79018c-2.61314,3.53962 -7.98197,-0.40385 -5.36882,-3.94347zm-51.12259,-31.66655zm2.32807,2.73192l-35.91885,10.04872l35.08739,-13.04196l0,-0.07127c0,-2.56563 1.59164,-4.84619 3.99098,-5.72516c2.39934,-0.87897 5.08375,-0.14253 6.74666,1.80545l14.08722,-5.22629l1.63915,5.06l-14.30102,3.99098l0,0.09502c0,2.75568 -1.8292,5.15502 -4.48986,5.86769c-2.6369,0.71268 -5.44009,-0.4276 -6.84168,-2.80319zm14.46731,92.62406c0.42761,0.97399 0.66516,2.043 0.66516,3.11202l0,7.60187c0,4.20479 -3.39709,7.60187 -7.60187,7.60187l-3.04075,0c-4.20479,0 -7.60187,-3.39709 -7.60187,-7.60187l0,-7.60187c0,-1.11652 0.23756,-2.16178 0.66516,-3.11202c-1.85296,-1.44911 -2.94572,-3.6584 -2.94572,-6.01023l0,-15.20375c0,-4.20478 3.39709,-7.60187 7.60187,-7.60187l7.60187,0c4.20479,0 7.60187,3.39709 7.60187,7.60187l0,15.20375c0,2.35183 -1.09277,4.58488 -2.94573,6.01023zm-11.61661,-122.86526l0,0.02376l0,-0.02376zm100.0834,14.60985l0,22.80562c0,4.20479 -3.39709,7.60187 -7.60187,7.60187l-12.92318,0c-4.20478,0 -7.60187,-3.39709 -7.60187,-7.60187l0,-22.80562c0,-4.20479 3.39709,-7.60187 7.60187,-7.60187l12.92318,0c4.20479,0 7.60187,3.42084 7.60187,7.60187zm-6.46159,0.38009c0,-0.83146 -0.68892,-1.52037 -1.52037,-1.52037l-12.92318,0c-0.83146,0 -1.52037,0.68892 -1.52037,1.52037l0,22.80562c0,0.83146 0.68892,1.52037 1.52037,1.52037l12.92318,0c0.83145,0 1.52037,-0.68892 1.52037,-1.52037l0,-22.80562zm-91.98265,109.46696c-0.83146,0 -1.52037,0.68892 -1.52037,1.52037l0,7.60187c0,0.83146 0.68892,1.52037 1.52037,1.52037l3.04075,0c0.83145,0 1.52037,-0.68892 1.52037,-1.52037l0,-7.60187c0,-0.83146 -0.68892,-1.52037 -1.52037,-1.52037l-3.04075,0zm-10.57135,-115.83353l2.4231,0l0,-1.68666l0.95023,0l0,1.68666l2.51812,0l0,0.92648l-2.51812,0l0,2.87446l3.01699,0l0,0.92648l-6.8892,0l0,-0.92648l2.89821,0l0,-2.87446l-2.39934,0l0,-0.92648zm4.60863,1.25906c0.49887,0.71267 0.87897,1.30657 1.16404,1.85296l-0.76019,0.54638c-0.28507,-0.5939 -0.66516,-1.21155 -1.14028,-1.92422l0.73643,-0.47512zm1.56789,-4.34732l0,0.90272l-6.55662,0l0,2.06676c-0.04751,2.16178 -0.35634,3.89596 -0.97399,5.17877l-0.73643,-0.64141c0.47512,-1.09277 0.73643,-2.58939 0.73643,-4.53737l0,-2.96948l7.5306,0zm6.53286,-0.28507l0.97399,0l0,0.99775c0,0.26132 -0.02376,0.49887 -0.04751,0.73643l3.46835,0c-0.04751,1.6154 -0.09502,2.92197 -0.19005,3.91971c-0.09502,0.97399 -0.26132,1.68667 -0.47512,2.09052c-0.2138,0.38009 -0.57014,0.57014 -1.04526,0.61765l-1.30657,0l-0.26132,-0.92648c0.38009,0.02376 0.73643,0.04751 1.09277,0.04751c0.47512,0 0.76019,-0.30882 0.90272,-0.87897c0.14254,-0.61765 0.23756,-1.92422 0.28507,-3.91971l-2.58939,0c-0.14254,1.25906 -0.42761,2.32807 -0.8077,3.15953c-0.54638,1.11652 -1.42535,1.99549 -2.66066,2.58939l-0.49887,-0.8077c1.21155,-0.66516 2.01925,-1.47286 2.4231,-2.47061c0.28507,-0.68892 0.47512,-1.52037 0.57014,-2.47061l-2.51812,0l0,-0.92648l2.58939,0c0.02376,-0.23756 0.02376,-0.49887 0.04751,-0.73643l0,-1.0215l0.04751,0zm8.64713,0.66516l3.18328,0l0,-0.66516l0.97399,0l0,0.66516l3.18328,0l0,0.87897l-3.18328,0l0,0.5939l2.66066,0l0,0.87897l-2.66066,0l0,0.5939l3.49211,0l0,0.85521l-3.18329,0c0.2138,0.45136 0.45136,0.87897 0.76019,1.25906c0.45136,-0.23756 0.90272,-0.5939 1.30657,-1.04526l0.66516,0.64141c-0.40385,0.40385 -0.90272,0.73643 -1.42535,0.99774c0.57014,0.54638 1.23531,0.95023 1.97174,1.21155l-0.52263,0.83146c-1.63915,-0.68892 -2.87446,-1.99549 -3.63464,-3.91971l-0.19005,0c-0.30882,0.4276 -0.68892,0.83146 -1.11652,1.16404l0,1.6154c0.61765,-0.19005 1.21155,-0.40385 1.8292,-0.64141l0.19005,0.87897c-0.97399,0.38009 -1.99549,0.68892 -3.01699,0.95023l-0.30882,-0.8077c0.26131,-0.11878 0.38009,-0.26131 0.38009,-0.47512l0,-0.85521c-0.4276,0.26132 -0.90272,0.47512 -1.42535,0.71268l-0.52263,-0.83146c1.33033,-0.45136 2.32807,-0.99774 2.96948,-1.68666l-2.70817,0l0,-0.85521l3.49211,0l0,-0.5939l-2.66066,0l0,-0.87897l2.66066,0l0,-0.5939l-3.18328,0l0,-0.87897l0.02376,0zm-13.06572,94.2157c-0.83145,0 -1.52037,0.68892 -1.52037,1.52037l0,15.20375c0,0.83145 0.68892,1.52037 1.52037,1.52037l7.60187,0c0.83146,0 1.52037,-0.68892 1.52037,-1.52037l0,-15.20375c0,-0.83146 -0.68892,-1.52037 -1.52037,-1.52037l-7.60187,0zm3.04075,-6.0815c37.36795,0 67.65666,-30.28871 67.65666,-67.65666s-30.28871,-67.65666 -67.65666,-67.65666s-67.65666,30.28871 -67.65666,67.65666s30.28871,67.65666 67.65666,67.65666zm0,12.16299c-44.09086,0 -79.81966,-35.7288 -79.81966,-79.81966s35.7288,-79.81966 79.81966,-79.81966s79.81966,35.7288 79.81966,79.81966s-35.7288,79.81966 -79.81966,79.81966zm0,0" stroke-width="5" stroke-miterlimit="10" stroke-dasharray=""></path></g></svg>