<svg data-v-9833e8b2="" version="1.1" xmlns="http://www.w3.org/2000/svg" xmlns:xlink="http://www.w3.org/1999/xlink" width="25" height="20"><g data-v-9833e8b2=""><path data-v-9833e8b2="" transform="scale(0.12376237623762376)" fill="none" stroke="currentColor" paint-order="fill stroke markers" d="m30.9881,152.85633c-8.17007,-0.07341 -15.17658,-5.01729 -18.25796,-12.06805l-3.68478,0a8.04537,8.04537 0 0 1 -8.04537,-8.04537l0,-73.41399a8.04537,8.04537 0 0 1 8.04537,-8.04537l4.70252,0c3.47761,-6.0119 9.97726,-10.05671 17.42225,-10.05671l0,-30.17013c0,-5.55432 4.50239,-10.05671 10.05671,-10.05671l49.27788,0c5.55432,0 10.05671,4.50239 10.05671,10.05671l0,30.17013l49.27788,0c7.44498,0 13.94463,4.04481 17.42224,10.05671l13.75356,0c11.10864,0 20.11342,9.00478 20.11342,20.11342l0,61.34593c0,11.10864 -9.00478,20.11342 -20.11342,20.11342l-18.10208,0l9.05104,18.10208l-150.85065,0l9.87468,-18.10208zm0.18203,-101.57277l0,10.05671l120.68052,0l0,-10.05671l-120.68052,0zm0,20.11342l0,10.05671l120.68052,0l0,-10.05671l-120.68052,0zm0,20.11342l0,10.05671l120.68052,0l0,-10.05671l-120.68052,0zm0,20.11342l0,10.05671l120.68052,0l0,-10.05671l-120.68052,0zm0,20.11342l0,10.05671l120.68052,0l0,-10.05671l-120.68052,0zm21.11909,-98.55576c6.10945,0 11.06238,-4.95293 11.06238,-11.06238s-4.95293,-11.06238 -11.06238,-11.06238s-11.06238,4.95293 -11.06238,11.06238s4.95293,11.06238 11.06238,11.06238zm28.15879,0c6.10945,0 11.06238,-4.95293 11.06238,-11.06238s-4.95293,-11.06238 -11.06238,-11.06238s-11.06238,4.95293 -11.06238,11.06238s4.95293,11.06238 11.06238,11.06238z" stroke-width="5" stroke-miterlimit="10" stroke-dasharray=""></path></g></svg>