<svg data-v-9833e8b2="" version="1.1" xmlns="http://www.w3.org/2000/svg" xmlns:xlink="http://www.w3.org/1999/xlink" width="19.5" height="25"><g data-v-9833e8b2=""><path data-v-9833e8b2="" transform="scale(0.1388888888888889)" fill="none" stroke="currentColor" paint-order="fill stroke markers" d="m66.93957,102.59706c-13.57303,0 -26.31407,-5.27761 -35.91729,-14.88104c-9.60362,-9.60342 -14.87984,-22.34426 -14.87984,-35.91729s5.27621,-26.31407 14.87984,-35.91749c9.60342,-9.60342 22.34426,-14.88124 35.91729,-14.88124c13.57283,0 26.31487,5.27781 35.91829,14.88104c9.60362,9.60342 14.88024,22.34426 14.88024,35.91749s-5.27661,26.31407 -14.88024,35.91729c-9.60342,9.60342 -22.34546,14.88124 -35.91829,14.88124zm0,-90.04363c-21.65485,0 -39.2697,17.61324 -39.2697,39.2681c0,21.65605 17.61485,39.2693 39.2697,39.2693c21.65586,0 39.2693,-17.61324 39.2693,-39.2693c0.0002,-21.65486 -17.61344,-39.2681 -39.2693,-39.2681zm0,0" stroke-width="5" stroke-miterlimit="10" stroke-dasharray=""></path><path data-v-9833e8b2="" transform="scale(0.1388888888888889)" fill="none" stroke="currentColor" paint-order="fill stroke markers" d="m31.02228,15.88104c3.89421,-3.89421 8.30462,-7.07702 13.07703,-9.48522l-33.06888,0c-1.4972,0 -2.73341,-1.3544 -2.73341,-2.99461l0,-0.4992l-7.29702,0l0,26.97907l7.29702,0l0,-0.4988c0,-1.6634 1.2128,-2.99481 2.73341,-2.99481l11.90323,0c2.1984,-3.79061 4.90381,-7.32182 8.08862,-10.50643zm94.86964,-13.50203l0,1.0224c0,1.6634 -1.213,2.99461 -2.73341,2.99461l-33.37808,0c4.77261,2.40821 9.18322,5.59081 13.07763,9.48522c3.18461,3.18461 5.89021,6.71582 8.08862,10.50643l12.21183,0c1.4972,0 2.73341,1.3546 2.73341,2.99481l7.29742,0l0,-27.00347l-7.29742,0z" stroke-width="5" stroke-miterlimit="10" stroke-dasharray=""></path><path data-v-9833e8b2="" transform="scale(0.1388888888888889)" fill="none" stroke="currentColor" paint-order="fill stroke markers" d="m107.56447,62.18655l-80.9402,0l0,-20.72865l80.9402,0l0,20.72865zm-79.7992,-1.87781l78.6582,0l0,-16.99604l-78.6582,0l0,16.99604zm50.98873,62.80216l-23.31906,0c-2.97141,0 -5.37161,-2.40021 -5.37161,-5.37161l0,-22.20286l34.06228,0l0,22.20286c0,2.97141 -2.40021,5.37161 -5.37161,5.37161zm0,0" stroke-width="5" stroke-miterlimit="10" stroke-dasharray=""></path><path data-v-9833e8b2="" transform="scale(0.1388888888888889)" fill="none" stroke="currentColor" paint-order="fill stroke markers" d="m67.58137,179.40045l-0.9506,0c-3.89901,0 -7.05942,-3.16141 -7.05942,-7.06022l0,-49.34752l15.04564,0l0,49.37192c0.0004,3.89741 -3.16001,7.03582 -7.03562,7.03582zm-0.071,-134.20974l-5.15801,0l1.1166,1.1642l4.06481,0l1.1408,-1.1642l-1.1642,0zm-5.34841,1.3544l0,5.18261l1.1642,-1.141l0,-4.06601l-1.1642,-1.141l0,1.1654zm6.77502,4.01721l0,-5.18261l-1.1654,1.141l0,4.06601l1.1654,1.141l0,-1.1654zm-5.39601,7.86822l5.18141,0l-1.141,-1.1654l-4.06481,0l-1.1166,1.1654l1.141,0zm5.34841,-1.3544l0,-5.15941l-1.1654,1.1178l0,4.08921l1.1654,1.1166l0,-1.1642zm-6.77482,-4.01841l0,5.18261l1.1642,-1.1166l0,-4.08921l-1.1642,-1.1178l0,1.141zm0,0m18.30405,-7.86702l-5.15921,0l1.1176,1.1642l4.08801,0l1.1178,-1.1642l-1.1642,0zm-5.32521,1.3544l0,5.18261l1.141,-1.141l0,-4.06601l-1.141,-1.141l0,1.1654zm6.75062,4.01721l0,-5.18261l-1.141,1.141l0,4.06601l1.141,1.141l0,-1.1654zm0,0m-5.37161,7.86822l5.15801,0l-1.1178,-1.1654l-4.08801,0l-1.1176,1.1654l1.1654,0zm5.32401,-1.3544l0,-5.15941l-1.141,1.1178l0,4.08921l1.141,1.1166l0,-1.1642zm-6.75062,-4.01841l0,5.18261l1.141,-1.1166l0,-4.08921l-1.141,-1.1178l0,1.141zm0,0m18.30384,-7.86702l-5.18241,0l1.141,1.1642l4.06481,0l1.1176,-1.1642l-1.141,0zm-5.34841,1.3544l0,5.18261l1.1642,-1.141l0,-4.06601l-1.1642,-1.141l0,1.1654zm6.77382,4.01721l0,-5.18261l-1.1642,1.141l0,4.06601l1.1642,1.141l0,-1.1654zm0,0m-5.39601,7.86822l5.15901,0l-1.1176,-1.1654l-4.06481,0l-1.141,1.1654l1.1644,0zm5.34841,-1.3544l0,-5.15941l-1.1642,1.1178l0,4.08921l1.1642,1.1166l0,-1.1642zm-6.77382,-4.01841l0,5.18261l1.1642,-1.1166l0,-4.08921l-1.1642,-1.1178l0,1.141zm0,0m-16.73464,4.01841l1.2592,0l0,1.2592l-1.2592,0l0,-1.2592zm27.93067,1.402l-0.4282,0l0,-2.63801l-0.0478,0l-0.522,2.63801l-0.3578,0l-0.522,-2.63801l-0.0478,0l0,2.63801l-0.4282,0l0,-3.68501l0.6662,0l0.4748,2.44901l0.0476,0l0.476,-2.44901l0.665,0l0,3.68501l0.0242,0zm2.80401,-2.56741c0,0.3562 -0.095,0.6186 -0.3088,0.8322c-0.1902,0.1902 -0.4746,0.3088 -0.832,0.3088l-0.6178,0l0,1.4498l-0.499,0l0,-3.68421l1.1166,0c0.3574,0 0.6418,0.095 0.832,0.3088c0.1908,0.1672 0.309,0.4284 0.309,0.7846zm-0.4988,0c0,-0.2856 -0.071,-0.4516 -0.1904,-0.57c-0.1182,-0.095 -0.3318,-0.143 -0.5942,-0.143l-0.4992,0l0,1.4254l0.4992,0c0.2624,0 0.4528,-0.0476 0.5942,-0.1414c0.1194,-0.1196 0.1904,-0.3098 0.1904,-0.571zm3.18581,2.56741l-0.5232,0c-0.0232,-0.0244 -0.0476,-0.072 -0.071,-0.1194c-0.0244,-0.0464 -0.0244,-0.1182 -0.0244,-0.1892c-0.095,0.1186 -0.2134,0.1892 -0.3562,0.2612c-0.1426,0.0476 -0.2856,0.0954 -0.4514,0.0954c-0.238,0 -0.4284,-0.0478 -0.5942,-0.1672c-0.1672,-0.1182 -0.238,-0.2844 -0.238,-0.4992c0,-0.2134 0.0708,-0.3794 0.2136,-0.522c0.1426,-0.1198 0.3574,-0.2136 0.6662,-0.2612a2.85081,2.85081 0 0 0 0.5224,-0.1198c0.1426,-0.0476 0.2378,-0.095 0.2378,-0.1658c0,-0.0954 -0.0232,-0.1672 -0.095,-0.2612c-0.0708,-0.095 -0.2136,-0.1194 -0.427,-0.1194c-0.1672,0 -0.31,0.0244 -0.381,0.095c-0.072,0.0708 -0.1426,0.1658 -0.1658,0.2612l-0.476,0c0.0232,-0.2368 0.143,-0.404 0.3088,-0.5468c0.1904,-0.143 0.4042,-0.2136 0.714,-0.2136c0.3088,0 0.5464,0.0708 0.7126,0.2136c0.166,0.1426 0.238,0.3562 0.238,0.5942l0,1.1886c0,0.095 0.0232,0.167 0.0476,0.238c0.0472,0.095 0.0948,0.1656 0.1422,0.2376zm-0.5942,-0.8076l0,-0.4284c-0.095,0.0232 -0.167,0.0476 -0.2378,0.071c-0.0722,0.0244 -0.2136,0.0476 -0.4042,0.072c-0.2146,0.0232 -0.3574,0.0708 -0.4282,0.1426c-0.0708,0.071 -0.095,0.166 -0.095,0.2612c0,0.095 0.0244,0.1662 0.095,0.238c0.0708,0.0708 0.1658,0.095 0.2856,0.095c0.1182,0 0.2612,-0.0476 0.427,-0.1194c0.143,-0.0478 0.2626,-0.1662 0.3576,-0.332zm0,0" stroke-width="5" stroke-miterlimit="10" stroke-dasharray=""></path></g></svg>