<svg data-v-9833e8b2="" version="1.1" xmlns="http://www.w3.org/2000/svg" xmlns:xlink="http://www.w3.org/1999/xlink" width="25" height="17.5"><g data-v-9833e8b2=""><path data-v-9833e8b2="" transform="scale(0.12437810945273632)" fill="none" stroke="currentColor" paint-order="fill stroke markers" d="m45.45092,95.51583a13.71145,13.71145 0 1 0 13.71145,13.71145a13.74473,13.74473 0 0 0 -13.71145,-13.71145zm0,20.50062a6.65604,6.65604 0 1 1 6.65604,-6.65605a6.65604,6.65604 0 0 1 -6.65604,6.65605zm78.47476,-20.50062a13.71145,13.71145 0 1 0 13.71145,13.71145a13.71145,13.71145 0 0 0 -13.71145,-13.71145zm0,20.50062a6.65604,6.65604 0 1 1 6.65604,-6.65605a6.65604,6.65604 0 0 1 -6.65604,6.65605z" stroke-width="5" stroke-miterlimit="10" stroke-dasharray=""></path><path data-v-9833e8b2="" transform="scale(0.12437810945273632)" fill="none" stroke="currentColor" paint-order="fill stroke markers" d="m199.63819,113.58699l-27.28978,-19.66861a3.32802,3.32802 0 0 0 -2.03009,-0.6656l-23.96176,0a2.03009,2.03009 0 0 0 -0.23296,-0.3328l6.35652,-11.04903a3.56098,3.56098 0 0 0 0.46592,-1.73057l0,-12.38024l14.24393,-18.96973a3.32802,3.32802 0 0 0 0.69889,-2.06337l0,-36.40856a3.32802,3.32802 0 0 0 -3.32802,-3.32802l-55.61125,0a3.32802,3.32802 0 0 0 -3.32802,3.32802l0,10.64967l-25.29297,0a3.32802,3.32802 0 0 0 -2.3629,0.93185l-8.61958,8.15366l-3.09506,0l-21.96495,-25.19313a11.11559,11.11559 0 0 0 -8.32006,-3.86051l-31.61621,0a3.32802,3.32802 0 0 0 -2.96194,1.93025a3.32802,3.32802 0 0 0 0.3328,3.62754l11.7812,15.40874a3.32802,3.32802 0 0 0 2.76226,1.36449l14.70986,0l5.85732,6.65604l-0.6656,0a15.04266,15.04266 0 0 0 -15.17578,15.07594l0,35.80952a3.32802,3.32802 0 0 0 0.93185,2.32961l5.09187,5.59108a27.55603,27.55603 0 1 0 44.79518,28.42131l25.72561,0a27.55603,27.55603 0 0 0 52.81571,0l8.65286,0l0,8.9191a3.32802,3.32802 0 0 0 3.32802,3.32802l35.27704,0a3.32802,3.32802 0 0 0 3.32802,-3.32802l0,-9.71783a3.49442,3.49442 0 0 0 -1.29793,-2.82882zm-38.67162,-70.15471l-14.1441,0l0,-29.65268l14.1441,0l0,29.65268zm-30.85077,-29.65268l9.78439,0l0,29.68596l-1.69729,0a8.08709,8.08709 0 0 1 -8.08709,-8.08709l0,-21.59886zm-17.70508,0l10.78279,0l0,21.59886a15.00938,15.00938 0 0 0 15.00938,15.00938l19.23597,0l-9.71783,12.91273l-35.31032,0l0,-49.52097zm-77.34324,3.86051a3.32802,3.32802 0 0 0 -2.59586,-1.19809l-14.51018,0l-6.45636,-8.51974l24.46096,0a4.19331,4.19331 0 0 1 3.32802,1.46433l17.93804,20.66702l-11.34856,0l-10.81607,-12.41352zm-7.08869,27.4229a8.08709,8.08709 0 0 1 8.08709,-8.08709l34.64471,0a3.32802,3.32802 0 0 0 2.3629,-0.93185l8.61958,-8.12037l23.79536,0l0,35.3436l-20.50062,0l0,-4.85891a3.32802,3.32802 0 0 0 -6.92229,0l0,4.85891l-6.92229,0l0,-4.85891a3.32802,3.32802 0 1 0 -6.92229,0l0,4.85891l-6.95557,0l0,-4.85891a3.32802,3.32802 0 0 0 -6.92229,0l0,4.85891l-22.36431,0l0,-18.20428zm17.47212,84.79801a20.63374,20.63374 0 1 1 20.63374,-20.63374a20.66702,20.66702 0 0 1 -20.63374,20.63374zm27.55602,-19.66861l0,-0.96513a27.55603,27.55603 0 0 0 -40.16923,-24.52753l-4.85891,-5.25827l0,-9.2519l118.04495,0l0,9.01894l-4.89219,8.51974a27.45618,27.45618 0 0 0 -39.67003,5.52452l-15.04266,0a3.32802,3.32802 0 0 0 0,6.92229l11.4484,0a27.22322,27.22322 0 0 0 -1.53089,9.05222l0,0.96513l-23.32944,0zm50.91874,19.66861a20.63374,20.63374 0 1 1 20.63374,-20.63374a20.66702,20.66702 0 0 1 -20.63374,20.63374zm27.52274,-19.66861a9.35174,9.35174 0 0 0 0,-0.96513a27.22322,27.22322 0 0 0 -1.53089,-9.05222l9.01894,0l0,9.98407l-7.48805,0.03328zm42.59868,12.48008l-28.12179,0l0,-5.5578l3.49442,0a3.32802,3.32802 0 0 0 0,-6.92229l-3.49442,0l0,-9.98407l3.32802,0l24.79377,17.97132l0,4.49283z" stroke-width="5" stroke-miterlimit="10" stroke-dasharray=""></path></g></svg>