<svg data-v-9833e8b2="" version="1.1" xmlns="http://www.w3.org/2000/svg" xmlns:xlink="http://www.w3.org/1999/xlink" width="22" height="25"><g data-v-9833e8b2=""><path data-v-9833e8b2="" transform="scale(0.1366120218579235)" fill="none" stroke="currentColor" paint-order="fill stroke markers" d="m20.1,1l114.4,0c10.5,0 19.1,8.5 19.1,19.1l0,143.1c0,10.5 -8.5,19.1 -19.1,19.1l-114.4,0c-10.5,0 -19.1,-8.5 -19.1,-19.1l0,-143.1c0,-10.6 8.5,-19.1 19.1,-19.1l0,0z" stroke-width="5" stroke-miterlimit="10" stroke-dasharray=""></path><path data-v-9833e8b2="" transform="scale(0.1366120218579235)" fill="none" stroke="currentColor" paint-order="fill stroke markers" d="m1,58.2l152.6,0l0,9.5l-152.6,0l0,-9.5l0,0z" stroke-width="5" stroke-miterlimit="10" stroke-dasharray=""></path><path data-v-9833e8b2="" transform="scale(0.1366120218579235)" fill="none" stroke="currentColor" paint-order="fill stroke markers" d="m105.9,128.2c0,15.8 -12.8,28.6 -28.6,28.6s-28.6,-12.8 -28.6,-28.6c0,-9.9 5,-18.6 12.6,-23.7l16,-19.2l16,19.2c7.6,5.1 12.6,13.9 12.6,23.7z" stroke-width="5" stroke-miterlimit="10" stroke-dasharray=""></path><path data-v-9833e8b2="" transform="scale(0.1366120218579235)" fill="none" stroke="currentColor" paint-order="fill stroke markers" d="m29.6,20.1l9.5,0l0,19.1l-9.5,0l0,-19.1l0,0z" stroke-width="5" stroke-miterlimit="10" stroke-dasharray=""></path><path data-v-9833e8b2="" transform="scale(0.1366120218579235)" fill="none" stroke="currentColor" paint-order="fill stroke markers" d="m58.2,20.1l9.5,0l0,19.1l-9.5,0l0,-19.1l0,0z" stroke-width="5" stroke-miterlimit="10" stroke-dasharray=""></path><path data-v-9833e8b2="" transform="scale(0.1366120218579235)" fill="none" stroke="currentColor" paint-order="fill stroke markers" d="m86.8,20.1l9.5,0l0,19.1l-9.5,0l0,-19.1l0,0z" stroke-width="5" stroke-miterlimit="10" stroke-dasharray=""></path><path data-v-9833e8b2="" transform="scale(0.1366120218579235)" fill="none" stroke="currentColor" paint-order="fill stroke markers" d="m115.4,20.1l9.5,0l0,19.1l-9.5,0l0,-19.1l0,0z" stroke-width="5" stroke-miterlimit="10" stroke-dasharray=""></path></g></svg>