<svg data-v-9833e8b2="" version="1.1" xmlns="http://www.w3.org/2000/svg" xmlns:xlink="http://www.w3.org/1999/xlink" width="27" height="25"><g data-v-9833e8b2=""><path data-v-9833e8b2="" transform="scale(0.12376237623762376)" fill="none" stroke="currentColor" paint-order="fill stroke markers" d="m191.50626,2.47722a1.52928,1.52928 0 0 0 -0.01367,-0.2832a1.541,1.541 0 0 0 -0.10547,-0.29297a1.25194,1.25194 0 0 0 -0.07031,-0.19531c-0.00977,-0.01953 -0.0293,-0.02929 -0.04297,-0.04687a1.4492,1.4492 0 0 0 -0.19531,-0.21484a1.40624,1.40624 0 0 0 -0.22461,-0.20703c-0.01758,-0.01172 -0.02734,-0.02929 -0.04492,-0.04101a1.66014,1.66014 0 0 0 -0.19531,-0.06836a1.43553,1.43553 0 0 0 -0.30273,-0.10742a1.37889,1.37889 0 0 0 -0.26172,-0.01758a1.40038,1.40038 0 0 0 -0.29882,0.01367a1.61522,1.61522 0 0 0 -0.27734,0.09765a1.666,1.666 0 0 0 -0.20898,0.07422l-81.69444,49.06393l-0.10937,0.6914c-0.07422,0.47656 -1.7578,11.71863 4.19527,16.68342c1.7949,1.49803 4.04488,2.24607 6.72844,2.24607a18.7498,18.7498 0 0 0 4.3105,-0.57031c-1.09764,4.61323 -0.54882,8.32608 1.68553,11.03895c3.26168,3.96285 9.25381,4.67768 13.16197,4.67769a28.90594,28.90594 0 0 0 3.74605,-0.22851l0.70116,-0.10156l49.32565,-81.44445a1.62694,1.62694 0 0 0 0.07031,-0.19531a1.56248,1.56248 0 0 0 0.10547,-0.28906a1.37889,1.37889 0 0 0 0.01563,-0.2832zm-77.92886,62.8548c-3.93941,-3.28122 -3.48043,-10.93738 -3.2402,-13.24986l68.73755,-41.28081l-54.99356,54.99551c-4.69331,1.57225 -8.23234,1.42577 -10.5038,-0.46484zm26.59542,16.5799c-3.28707,0.31836 -10.44325,0.21484 -13.47642,-3.47262c-1.90232,-2.31052 -2.05857,-5.85931 -0.49218,-10.52723l56.93494,-56.94861l-42.96634,70.94846zm-25.00559,-0.5332a1.56248,1.56248 0 0 0 -1.17186,0.49218c-0.23633,-2.39646 -0.8789,-3.87301 -1.08983,-4.29683c-0.4375,-1.17186 -4.44136,-11.31824 -13.34947,-14.07993c-5.58393,-1.7285 -11.78698,-0.16406 -18.45293,4.67183c-3.97652,3.02145 -8.35733,6.05462 -12.994,9.27724c-20.97634,14.54868 -47.08544,32.66372 -66.91726,70.21019l-0.15625,0.29101l-0.01758,0.32226c-0.14062,2.68357 0.54101,4.66987 2.02537,5.90619c1.23241,1.02733 2.69138,1.26171 3.7734,1.26171a6.89055,6.89055 0 0 0 1.52928,-0.16211l0.43945,-0.10547l0.30859,-0.33203c16.82404,-18.09161 63.52667,-64.35674 77.93862,-61.32162c1.02538,0.42578 2.19334,1.15624 3.42965,1.92771c1.83006,1.14452 3.92574,2.44333 6.31634,3.26559c0.39062,1.01171 0.95507,1.93162 1.56248,2.89255c0.41601,0.65429 0.84179,1.33202 1.26366,2.11326c4.85151,14.89047 -38.54646,69.62817 -55.72402,89.51077l-0.29492,0.34179l-0.05664,0.45117c-0.01758,0.13476 -0.39062,3.32028 1.74607,5.39057c1.1035,1.06054 2.60154,1.59373 4.4687,1.59373a11.89636,11.89636 0 0 0 1.92381,-0.16601l0.32617,-0.05469l0.27148,-0.18359c37.31992,-25.28684 53.40959,-54.94278 66.33719,-78.7726c2.85934,-5.27338 5.55853,-10.24989 8.28897,-14.80063l0.15039,-0.33593c2.46677,-8.12491 2.12302,-14.55844 -1.01952,-19.11894c-3.88863,-5.64447 -10.57215,-6.16986 -10.85535,-6.18939zm-27.14815,9.30849l-0.2207,-0.06836c-18.29277,-4.1816 -74.9992,55.85878 -80.55188,61.80403c-0.56054,0.05078 -1.59373,0.04883 -2.30662,-0.55077c-0.80858,-0.68359 -0.97655,-2.01756 -0.95311,-3.12497c19.47245,-36.69492 45.16554,-54.52286 65.81961,-68.85278c4.66401,-3.23434 9.06826,-6.2929 13.07017,-9.33193c5.83002,-4.23238 11.13269,-5.65033 15.76936,-4.22066c7.82609,2.41404 11.42957,12.22839 11.46472,12.32799l0.0918,0.19531c0.11914,0.22851 2.84567,5.6308 -1.83787,15.33187c-6.98235,4.53706 -11.94323,1.43748 -16.326,-1.30272c-1.3867,-0.86523 -2.707,-1.68944 -4.00972,-2.20701l-0.00977,0zm36.20079,14.95492c-2.73435,4.5644 -5.41596,9.51552 -8.25773,14.7557c-12.7401,23.48217 -28.58759,52.69475 -65.10478,77.53824c-1.63084,0.21875 -2.80661,0 -3.50387,-0.66796c-0.75585,-0.71679 -0.87499,-1.86717 -0.8789,-2.47068c5.48822,-6.38665 62.43684,-73.31758 55.90956,-92.16113l-0.09375,-0.21094c-0.49023,-0.92577 -0.99022,-1.71678 -1.42967,-2.41404l-0.31054,-0.52539c2.90036,0.19531 6.16009,-0.52929 9.83193,-3.01559l0.32617,-0.2207l0.17382,-0.35351c2.42576,-4.88276 3.15622,-8.90225 3.19723,-11.93542a1.46483,1.46483 0 0 0 0.8789,0.40234c0.05469,0 5.57025,0.47265 8.61905,4.92964c2.55857,3.74215 2.77927,9.24209 0.65234,16.34944l-0.00977,0z" stroke-width="5" stroke-miterlimit="10" stroke-dasharray=""></path></g></svg>