<svg data-v-9833e8b2="" version="1.1" xmlns="http://www.w3.org/2000/svg" xmlns:xlink="http://www.w3.org/1999/xlink" width="22" height="25"><g data-v-9833e8b2=""><path data-v-9833e8b2="" transform="scale(0.14450867052023122)" fill="none" stroke="currentColor" paint-order="fill stroke markers" d="m134.55018,96.12877a40.6251,40.6251 0 1 1 0,-57.46889a40.6251,40.6251 0 0 1 0,57.46889z" stroke-width="5" stroke-miterlimit="10" stroke-dasharray=""></path><path data-v-9833e8b2="" transform="scale(0.14450867052023122)" fill="none" stroke="currentColor" paint-order="fill stroke markers" d="m105.83136,99.37878a31.65633,31.65633 0 0 1 -22.62506,-9.37502l-2.21876,-2.18751l4.43751,-4.43751l2.21876,2.21876a25.75006,25.75006 0 0 0 36.40634,0l2.18751,-2.21876l4.43751,4.43751l-2.21876,2.18751a31.65633,31.65633 0 0 1 -22.62506,9.37502zm20.4063,-47.96887l-2.18751,-2.21876a25.75006,25.75006 0 0 0 -36.40634,0l-2.21876,2.21876l-4.43751,-4.43751l2.21876,-2.21876a32.06258,32.06258 0 0 1 45.25011,0l2.21876,2.21876l-4.43751,4.43751zm-20.4063,28.46882a12.50003,12.50003 0 0 1 -8.84377,-21.31255a12.75003,12.75003 0 0 1 17.68754,0a12.50003,12.50003 0 0 1 0,17.65629a12.50003,12.50003 0 0 1 -8.84377,3.65626zm0,-18.75005a6.25002,6.25002 0 0 0 -4.40626,10.68753a6.43752,6.43752 0 0 0 8.84377,0a6.25002,6.25002 0 0 0 0.15625,-8.81252a6.25002,6.25002 0 0 0 -4.59376,-1.875z" stroke-width="5" stroke-miterlimit="10" stroke-dasharray=""></path><path data-v-9833e8b2="" transform="scale(0.14450867052023122)" fill="none" stroke="currentColor" paint-order="fill stroke markers" d="m93.86258,119.25383l-16.75004,16.75004l-39.78135,-39.8751l16.84379,-16.75004a53.12513,53.12513 0 0 0 39.6876,39.8751z" stroke-width="5" stroke-miterlimit="10" stroke-dasharray=""></path><path data-v-9833e8b2="" transform="scale(0.14450867052023122)" fill="none" stroke="currentColor" paint-order="fill stroke markers" d="m70.48752,129.25386l-37.50009,37.50009a18.75005,18.75005 0 0 1 -30.96883,-19.37505a18.2188,18.2188 0 0 1 4.37501,-7.00002l37.50009,-37.50009l20.2813,20.25005l6.31252,6.12502z" stroke-width="5" stroke-miterlimit="10" stroke-dasharray=""></path><path data-v-9833e8b2="" transform="scale(0.14450867052023122)" fill="none" stroke="currentColor" paint-order="fill stroke markers" d="m64.23751,123.00384l-31.25008,31.25008a18.75005,18.75005 0 0 1 -26.53132,0a18.2188,18.2188 0 0 1 -4.43751,-6.87502a18.2188,18.2188 0 0 1 4.37501,-7.00002l37.50009,-37.50009l20.3438,20.12505z" stroke-width="5" stroke-miterlimit="10" stroke-dasharray=""></path><path data-v-9833e8b2="" transform="scale(0.14450867052023122)" fill="none" stroke="currentColor" paint-order="fill stroke markers" d="m105.83136,120.50383a52.25013,52.25013 0 0 1 -11.96878,-1.25a52.90638,52.90638 0 0 1 -40.9376,-47.18762a43.34386,43.34386 0 0 1 -0.21875,-4.56251a51.75013,51.75013 0 0 1 3.43751,-18.75005a52.68763,52.68763 0 0 1 12.12503,-18.75005a58.12515,58.12515 0 0 1 7.21877,-6.03127a52.84388,52.84388 0 0 1 30.34383,-9.37502l0,12.50003a25.87507,25.87507 0 0 0 -3.12501,0a19.37505,19.37505 0 0 0 -1.9375,0.1875l-0.75,0l-2.43751,0.4375c-0.875,0.15625 -1.6875,0.375 -2.53126,0.59375s-1.875,0.5625 -2.84376,0.90625s-1.5,0.5625 -2.25001,0.875s-2.00001,0.90625 -3.12501,1.40625s-1.59375,0.875 -2.40626,1.375c-0.65625,0.40625 -1.3125,0.84375 -1.90625,1.28125s-0.96875,0.6875 -1.4375,1.0625l-1.1875,0.90625l-1.3125,1.15625l-1.53125,1.4375a40.6251,40.6251 0 0 0 28.78132,69.28142l0,12.50003z" stroke-width="5" stroke-miterlimit="10" stroke-dasharray=""></path><path data-v-9833e8b2="" transform="scale(0.14450867052023122)" fill="none" stroke="currentColor" paint-order="fill stroke markers" d="m68.26877,29.81611a52.68763,52.68763 0 0 0 -12.12503,18.75005l-28.75007,-28.75007a10.87503,10.87503 0 0 1 -2.15626,-12.50003a10.71878,10.71878 0 0 1 2.15626,-3.12501a10.96878,10.96878 0 0 1 15.46879,0l25.40631,25.62506z" stroke-width="5" stroke-miterlimit="10" stroke-dasharray=""></path><path data-v-9833e8b2="" transform="scale(0.14450867052023122)" fill="none" stroke="currentColor" paint-order="fill stroke markers" d="m63.89376,25.50359a13.21878,13.21878 0 0 1 -19.8438,1.5l-16.56254,-16.56254a11.21878,11.21878 0 0 1 -2.15626,-3.12501a10.71878,10.71878 0 0 1 2.15626,-3.12501a10.96878,10.96878 0 0 1 15.46879,0l20.93755,21.31255z" stroke-width="5" stroke-miterlimit="10" stroke-dasharray=""></path></g></svg>