<svg data-v-9833e8b2="" version="1.1" xmlns="http://www.w3.org/2000/svg" xmlns:xlink="http://www.w3.org/1999/xlink" width="25" height="20"><g data-v-9833e8b2=""><path data-v-9833e8b2="" transform="scale(0.12886597938144329)" fill="none" stroke="currentColor" paint-order="fill stroke markers" d="m102.66692,160.58374c-0.83334,-0.41667 -2.08334,-0.83334 -2.91668,-1.25c-7.08335,-2.91667 -11.6667,-12.50003 -10.83336,-22.91672c0.83333,-10.00003 7.08335,-17.91671 14.58337,-18.33338c5.00001,-0.41667 10.00003,0 15.00004,0c1.66667,0 1.66667,0 1.66667,-2.91667l-20.83339,0l0,-2.50001l0,-32.91675c0,-1.66667 -0.41667,-2.91667 -0.41667,-4.58334c-2.08334,-7.50002 -4.16668,-15.00004 -6.25002,-22.08339c0,-0.41667 -0.41667,-1.25 -0.41667,-1.66667c0.41667,-0.41667 0.83334,-0.83334 1.25,-0.83334c-1.25,-4.58335 -2.50001,-9.16669 -3.75001,-13.33337c0,-0.41667 -0.41667,-0.83333 -0.83333,-1.25c-4.58335,-5.00001 -9.58336,-8.33335 -15.00004,-10.41669c-0.83334,-0.41667 -1.66667,0 -2.08334,0c-8.33335,3.75001 -16.66671,7.50002 -24.5834,11.25003c-0.41667,0.41667 -1.25,0.83334 -1.25,1.66667c-5.00001,14.58337 -10.00003,29.58341 -15.00004,44.16678c-1.66667,1.66667 -1.66667,2.08334 -0.83333,2.91667c2.08334,2.08334 2.50001,5.00001 1.66667,8.33335c-2.50001,13.75003 -4.58335,27.50007 -6.66668,41.2501c0,0.83333 0,1.25 -0.41667,2.50001c2.08334,0.83333 4.16668,1.66667 6.25002,2.08334c2.08334,0.41667 3.33334,2.08334 3.75001,5.00001c-3.75001,-0.41667 -7.50002,-0.83333 -11.6667,-1.25c-5.41668,-0.41667 -10.00003,-4.58334 -14.58337,-8.33335c-1.66667,-1.66667 -3.33334,-3.33334 -5.41668,-5.00001c-1.25,-1.66667 -2.08334,-4.16668 -2.08334,-6.66668c0.41667,-7.50002 0.41667,-15.4167 0.83334,-22.91672c0.41667,-4.16668 1.25,-8.75002 1.66667,-12.9167c0.41667,-1.66667 1.25,-2.91668 1.66667,-4.16668c0.83333,-2.08334 2.08334,-2.91667 4.16668,-2.91667l3.33334,0c1.25,0 1.25,-0.41667 1.66667,-2.08334c0,-4.58334 0.41667,-9.16669 0.41667,-13.75003c0,-0.83333 0,-1.66667 0.83334,-1.66667c0.41667,0 0.41667,-0.83334 0.83334,-1.25c0.83333,-2.91667 2.08334,-5.41668 2.91667,-8.33335c0.41667,-0.83333 1.25,-2.08334 0.41667,-3.33334c0,0 0.41667,-0.83334 0.41667,-1.25c3.33334,-7.50002 6.25002,-15.00004 9.58336,-22.08339c0.41667,-1.25 0.41667,-1.66667 0.83334,-2.50001c-0.83334,-0.41667 -1.25,-0.83334 -2.08334,-1.25c1.66667,-2.91667 3.33334,-5.83335 5.41668,-8.33335l7.50002,-12.50003c0.41667,-0.83333 1.25,-1.25 2.08334,-1.25l3.75001,0l0,3.33334l7.50002,1.25c0.41667,0 0.83334,-0.41667 1.66667,-1.25c4.58334,0.83334 9.58336,1.66667 14.58337,2.08334c2.50001,0 5.00001,0 7.50002,0.83333c8.75002,3.33334 15.83337,9.58336 22.50006,17.91671c4.16668,5.00001 7.91669,10.83336 10.83336,17.08338c0.41667,1.25 1.25,1.66667 2.08334,1.66667l21.25005,0c3.75001,0 5.41668,2.50001 5.41668,7.08335l0,28.33341l31.66675,0c3.33334,0 5.83335,2.91667 5.83335,7.91669l0,28.33341l-14.58337,0l0,2.50001l14.58337,0c7.50002,0.41667 13.33337,8.33335 14.58337,18.33338c0,0.41667 0,0.83333 0.41667,1.25l0,2.50001c0,0.41667 -0.41667,0.83333 -0.41667,1.25c-0.83334,9.16669 -5.83335,16.25004 -12.9167,17.91671c-0.41667,0 -0.41667,0.41667 -0.83333,0.41667c-25.41673,0.83334 -50.83346,0.83334 -76.25019,0.83334zm14.1667,-83.75021l16.66671,0c1.25,0 1.66667,-0.41667 1.66667,-2.08334l0,-16.66671c0,-3.75001 -1.66667,-5.83335 -4.58335,-5.83335l-20.41672,0c-2.91668,0 -4.58335,2.08334 -4.58335,6.25002l0,45.00011l11.6667,0c-0.41667,-9.16669 -0.41667,-17.91671 -0.41667,-26.66673zm23.75006,46.66678l-37.08343,0c-6.66668,0 -11.6667,7.08335 -11.6667,15.83337c0,8.75002 5.00001,15.83337 11.6667,15.83337l73.75019,0c7.91669,0 13.33337,-9.58336 11.25003,-19.58338c-1.25,-7.08335 -5.83335,-11.6667 -11.6667,-11.6667c-11.6667,-0.41667 -23.75006,-0.41667 -36.25009,-0.41667zm-93.33357,-103.75026c5.41668,-2.91667 10.41669,-5.83335 15.83337,-8.75002l0,-0.41667c-2.91667,-0.41667 -5.41668,-0.83334 -7.50002,-0.83334c-0.41667,-0.83333 -0.83334,-1.66667 -1.25,-1.66667c-2.50001,-0.41667 -4.58335,-0.83334 -7.08335,-1.25l0,12.9167zm-11.25003,7.50002c-1.25,-0.83333 -1.66667,-0.83333 -2.50001,0.41667c-2.91667,7.08335 -6.25002,13.75003 -9.58336,20.83338c-0.41667,1.25 -0.83334,3.33334 -2.50001,2.91668c0,0 0,0.41667 -0.41667,0.41667c-0.83333,3.75001 -2.08334,7.50002 -3.33334,11.25003l2.08334,0c1.25,0.41667 2.08334,-0.41667 2.50001,-2.08334c2.50001,-6.66668 5.41668,-12.9167 7.91669,-19.58338c2.08334,-4.58335 3.75001,-9.16669 5.83335,-14.1667zm60.41682,22.08339c0.83333,3.33334 1.66667,6.25002 2.91667,9.58336c0,-2.50001 0.83334,-5.41668 0,-7.08335c-1.66667,-3.75001 -4.16668,-7.08335 -6.25002,-10.83336l-0.41667,0.41667c0.83333,2.50001 1.66667,5.41668 2.50001,7.91669c0.41667,0.41667 0.83333,0.41667 1.25,0zm59.16681,42.50011l0.41667,-0.41667c-0.41667,-0.41667 -0.41667,-1.66667 -0.83333,-1.66667l-10.00003,0l0,2.08334l10.41669,0zm4.58335,0l10.00003,0c1.25,0 0.83333,-1.25 0.41667,-2.08334l-10.41669,0l0,2.08334zm-4.58335,4.16668c0,-2.08334 0,-2.08334 -1.25,-2.08334l-9.58336,0l0,2.08334l10.83336,0zm4.58335,0l10.83336,0l0,-2.08334l-10.41669,0c-0.41667,0.83333 -0.41667,1.66667 -0.41667,2.08334zm-4.58335,8.75002l0.41667,-0.41667c-0.41667,-0.41667 -0.41667,-1.66667 -0.83333,-1.66667l-10.00003,0l0,2.08334l10.41669,0zm15.00004,-2.08334l-10.83336,0l0,2.08334l10.41669,0c0.41667,-0.83333 0.41667,-1.25 0.41667,-2.08334zm-25.8334,-2.50001l10.83336,0l0,-1.66667l-10.41669,0c-0.41667,0.83334 -0.41667,1.25 -0.41667,1.66667zm15.41671,0l10.83336,0l0,-1.66667l-10.41669,0c-0.41667,0.83334 -0.41667,1.25 -0.41667,1.66667z" stroke-width="5" stroke-miterlimit="10" stroke-dasharray=""></path><path data-v-9833e8b2="" transform="scale(0.12886597938144329)" fill="none" stroke="currentColor" paint-order="fill stroke markers" d="m141.00035,126.00031l37.08343,0c4.58335,0 8.75002,4.58335 9.58336,10.83336c0.83333,6.25002 -1.66667,12.50003 -6.25002,14.58337c-1.25,0.41667 -2.91668,0.83333 -4.16668,0.83333l-72.08351,0c-6.25002,0 -10.83336,-5.41668 -10.83336,-12.9167s4.16668,-13.75003 10.00003,-13.75003c11.6667,0.41667 24.16673,0.41667 36.66676,0.41667z" stroke-width="5" stroke-miterlimit="10" stroke-dasharray=""></path></g></svg>