<svg data-v-9833e8b2="" version="1.1" xmlns="http://www.w3.org/2000/svg" xmlns:xlink="http://www.w3.org/1999/xlink" width="24.5" height="25"><g data-v-9833e8b2=""><path data-v-9833e8b2="" transform="scale(0.14124293785310735)" fill="none" stroke="currentColor" paint-order="fill stroke markers" d="m156.85372,155.18574l-124.5718,0c-0.49746,0 -0.87793,0.38047 -0.87793,0.87793l0,19.6645c0,0.46817 0.38047,0.87793 0.87793,0.87793l124.5718,0c0.49746,0 0.87774,-0.40977 0.87774,-0.87793l0,-19.6645c0,-0.49746 -0.40957,-0.87793 -0.87774,-0.87793zm-111.28661,-122.58195l98.2647,0l0,122.58195l-98.2647,0l0,-122.58195zm-13.95824,46.67414l0,21.53755c0,6.35002 4.76974,9.71526 11.7344,7.81311l2.22383,-1.25821l0,39.68037l-2.22383,-0.96582c-25.86842,-0.0293 -42.34327,-19.43052 -42.34327,-45.29894l0,-21.53716l30.60887,0l0,0.0291zm-3.21895,-68.00662l133.11655,0l0,17.58696l-133.11655,0l0,-17.58696z" stroke-width="5" stroke-miterlimit="10" stroke-dasharray=""></path><path data-v-9833e8b2="" transform="scale(0.14124293785310735)" fill="none" stroke="currentColor" paint-order="fill stroke markers" d="m52.79506,1l84.15978,0l0,10.4176l-84.15978,0l0,-10.4176z" stroke-width="5" stroke-miterlimit="10" stroke-dasharray=""></path></g></svg>