<svg data-v-9833e8b2="" version="1.1" xmlns="http://www.w3.org/2000/svg" xmlns:xlink="http://www.w3.org/1999/xlink" width="25" height="17.5"><g data-v-9833e8b2=""><path data-v-9833e8b2="" transform="scale(0.12376237623762376)" fill="none" stroke="currentColor" paint-order="fill stroke markers" d="m39.64612,84.57392a23.32918,23.32918 0 1 0 23.31962,23.31962a23.35786,23.35786 0 0 0 -23.31962,-23.31962zm0,39.00945a15.68027,15.68027 0 1 1 15.67071,-15.68983a15.69939,15.69939 0 0 1 -15.67071,15.68027l0,0.00956zm61.14348,-39.00945a23.32918,23.32918 0 1 0 23.32918,23.32918a23.35786,23.35786 0 0 0 -23.32918,-23.32918zm0,39.00945a15.68027,15.68027 0 1 1 15.68027,-15.68027a15.69939,15.69939 0 0 1 -15.68027,15.67071l0,0.00956zm-35.98813,-19.51428a25.63341,25.63341 0 0 1 0,7.64891l10.82321,0a25.63341,25.63341 0 0 1 0,-7.64891l-10.82321,0zm67.34866,0l-6.24342,0a25.65254,25.65254 0 0 1 0,7.64891l6.20518,0a3.82446,3.82446 0 0 0 0,-7.64891l0.03824,0z" stroke-width="5" stroke-miterlimit="10" stroke-dasharray=""></path><path data-v-9833e8b2="" transform="scale(0.12376237623762376)" fill="none" stroke="currentColor" paint-order="fill stroke markers" d="m172.7563,54.99175l-17.65942,0l-1.12821,1.27163c-0.37288,0.41113 -9.25518,10.23042 -9.25518,32.01069l0,2.13213l-4.34076,-3.06913a4.65627,4.65627 0 0 0 -6.13825,0.71709l-9.9149,-7.07524l29.13279,-41.17026a3.66192,3.66192 0 0 0 -5.97571,-4.22602l-38.77998,0l0,-19.28482a15.29782,15.29782 0 0 0 -15.29782,-15.29782l-30.16539,0a15.29782,15.29782 0 0 0 -15.29782,15.29782l0,14.97274l-12.18089,0l0,-25.99674a3.66192,3.66192 0 1 0 -7.31427,0l0,25.99674l-13.72023,0a3.82446,3.82446 0 0 0 -3.82446,3.82446l0,15.29782a14.96318,14.96318 0 0 0 -9.89578,14.05487l0,32.29753a14.97274,14.97274 0 0 0 13.47164,14.87713a25.52824,25.52824 0 0 1 0,-7.71584a7.31427,7.31427 0 0 1 -5.86098,-7.16129l0,-16.41648l87.65652,0a37.04941,37.04941 0 0 0 11.53073,-1.79749l22.22965,15.85237a4.65627,4.65627 0 0 0 1.78793,5.0196l20.02102,14.16961a28.47307,28.47307 0 0 0 6.13825,6.79797l1.00392,0.73621l42.17418,0l-28.39658,-66.11528zm-71.70854,-38.69393l0,33.2154l-24.66774,0l0,-40.86431l17.01883,0a7.64891,7.64891 0 0 1 7.64891,7.64891zm-45.46322,32.00113l0,-21.6751l16.25394,0l0,22.94673l-15.03967,0a1.22383,1.22383 0 0 1 -1.21426,-1.27163zm7.64891,-39.6596l8.60503,0l0,13.38559l-16.25394,0l0,-5.73668a7.64891,7.64891 0 0 1 7.64891,-7.63935l0,-0.00956zm-15.29782,30.27057l0,9.37948a8.84405,8.84405 0 0 0 0.09561,1.21426l-29.48655,0l0,-10.58418l29.39094,-0.00956zm-39.28672,33.76994l0,-8.21302a7.31427,7.31427 0 0 1 7.30471,-7.30471l100.39196,0c-0.44937,14.34171 -15.43168,15.51773 -20.07839,15.51773l-87.61828,0zm115.34558,-16.17745l0,-6.98919l-15.29782,0l0,-9.38904l35.56744,0l-25.87244,36.5618l-2.86834,-2.06521c5.0196,-3.77665 8.47117,-9.61851 8.47117,-18.11836zm65.52248,56.9557l-2.32336,0l-21.78027,-50.81745l2.27555,0l21.82808,50.81745zm-37.19283,-25.22228c0,-14.466 4.36944,-22.6599 6.31991,-25.58561l1.53934,0l0,0.05737l21.78984,50.76009l-20.33654,0c-2.43809,-2.29467 -9.28387,-10.05832 -9.28387,-25.23185l-0.02868,0z" stroke-width="5" stroke-miterlimit="10" stroke-dasharray=""></path></g></svg>