<svg data-v-9833e8b2="" version="1.1" xmlns="http://www.w3.org/2000/svg" xmlns:xlink="http://www.w3.org/1999/xlink" width="25" height="17.5"><g data-v-9833e8b2=""><path data-v-9833e8b2="" transform="scale(0.1358695652173913)" fill="none" stroke="currentColor" paint-order="fill stroke markers" d="m1.14785,133.53725c0,2.7586 1.77344,5.5174 3.59591,7.36467l2.68477,0.91133l0,27.61081l8.94104,0l0,-21.15767l14.335,10.14788c1.77344,1.82266 3.5961,1.82266 4.48263,1.82266c1.77344,0 3.5961,-0.91133 5.36954,-1.82266l13.44828,-10.14788l0,21.15767l8.96565,0l0,-26.67468l3.5961,-2.7586c2.68458,-1.82266 3.59591,-4.60607 3.59591,-7.36467l0,-18.42368l12.53714,2.7586l0,23.00514c0,4.60587 3.59591,8.2758 8.05412,8.2758l0,21.15767l8.96545,0l0,-21.15787l7.19221,0l6.28088,12.88187l10.7635,0l6.28088,-12.88187l7.1674,0l0,21.15767l8.96565,0l0,-21.15767c4.48263,0 8.05412,-3.69454 8.05412,-8.2758l0,-92.04457c0,-4.60607 -3.5961,-9.18733 -8.96545,-9.18733l-53.7933,0c-4.48282,0 -8.96545,3.69454 -8.96545,9.18733l0,37.75869l-12.53714,-2.7586l0,-44.18742c0,-4.60587 -3.59591,-9.18713 -8.96545,-9.18713l-8.05451,0l0,-19.35981c0,-5.5172 -3.59591,-9.18713 -8.96545,-9.18713l-17.9311,0c-5.36954,0 -8.96545,3.69454 -8.96545,9.18713l0,19.3352l-7.1674,0c-4.48282,0 -8.96545,3.69454 -8.96545,9.18713l0,94.82778zm120.09854,22.11842l-4.48243,0l-3.59591,-7.36467l11.65022,0l-3.57188,7.36467zm-29.58113,-107.73426l55.56655,0l0,92.06918l-55.56655,0l0,-92.06918zm-56.47807,104.03952l-25.98522,-18.42368l0,-12.88167l51.08392,0l0,12.88167l-25.0987,18.42387l0,-0.0002zm47.51262,-57.06909l0,12.88187l-12.53714,-2.78321l0,-12.88187l12.53714,2.78321zm-56.45327,-79.1627c0,-2.7586 1.77325,-4.60587 4.48243,-4.60587l8.94104,0c2.68477,0 4.48282,1.82266 4.48282,4.60587l0,13.81781l-17.9063,0l0,-13.81781zm-16.13324,23.00494l51.99525,0l0,18.42387l-51.99525,0l0,-18.42387zm0,27.61101l51.10853,0l0,17.51235l-51.10853,0l0,-17.51254l0,0.0002zm0,26.69948l51.10853,0l0,17.51235l-51.10853,0l0,-17.51235zm145.19744,6.42853l0,9.21194l17.04438,3.69454l0,12.88187l-17.04438,-3.69454l0,9.18713l25.98522,5.5172l0,-31.25613l-25.98503,-5.54201l-0.0002,0zm0,0" stroke-width="5" stroke-miterlimit="10" stroke-dasharray=""></path><path data-v-9833e8b2="" transform="scale(0.1358695652173913)" fill="none" stroke="currentColor" paint-order="fill stroke markers" d="m136.46831,57.13315l-35.83759,0l0,27.63562l35.83759,0l0,-27.63562zm-8.94084,18.42387l-17.9311,0l0,-9.18752l17.9311,0l0,9.18752zm8.94084,18.39887l-35.83759,0l0,27.61101l35.83759,0l0,-27.61101zm-8.94084,18.42387l-17.9311,0l0,-9.18752l17.9311,0l0,9.18752zm-126.52747,56.20659l180.39459,0l0,8.07912l-180.39459,0l0,-8.07893l0,-0.0002zm0,0" stroke-width="5" stroke-miterlimit="10" stroke-dasharray=""></path></g></svg>