<svg data-v-9833e8b2="" version="1.1" xmlns="http://www.w3.org/2000/svg" xmlns:xlink="http://www.w3.org/1999/xlink" width="25" height="25"><g data-v-9833e8b2=""><path data-v-9833e8b2="" transform="scale(0.1282051282051282)" fill="none" stroke="currentColor" paint-order="fill stroke markers" d="m96,16.8c0,-2.2 -1.8,-4 -4,-4l-71.2,0l0,-9.8l75.2,0c5.5,0 9.9,4.4 9.9,9.9l0,59.3l-9.9,0l0,-55.4z" stroke-width="5" stroke-miterlimit="10" stroke-dasharray=""></path><path data-v-9833e8b2="" transform="scale(0.1282051282051282)" fill="none" stroke="currentColor" paint-order="fill stroke markers" d="m194.9,72.2l0,46.6l-0.1,0l-49.4,67.1l-87,0l-49.4,-67.1l-0.1,0l0,-46.6l186,0z" stroke-width="5" stroke-miterlimit="10" stroke-dasharray=""></path><path data-v-9833e8b2="" transform="scale(0.1282051282051282)" fill="none" stroke="currentColor" paint-order="fill stroke markers" d="m75.2,72.2l51.4,0l0,7.9l-51.4,0l0,-7.9l0,0z" stroke-width="5" stroke-miterlimit="10" stroke-dasharray=""></path><path data-v-9833e8b2="" transform="scale(0.1282051282051282)" fill="none" stroke="currentColor" paint-order="fill stroke markers" d="m32.7,24.7l0,5.9l-31.7,0l0,-5.9l4.9,0l0,-12.8c0,-6 4.9,-10.9 10.9,-10.9c6,0 10.9,4.9 10.9,10.9l0,12.9l5,0l0,-0.1z" stroke-width="5" stroke-miterlimit="10" stroke-dasharray=""></path><path data-v-9833e8b2="" transform="scale(0.1282051282051282)" fill="none" stroke="currentColor" paint-order="fill stroke markers" d="m75.2,88l5.9,0l0,71.2l-5.9,0l0,-71.2l0,0z" stroke-width="5" stroke-miterlimit="10" stroke-dasharray=""></path><path data-v-9833e8b2="" transform="scale(0.1282051282051282)" fill="none" stroke="currentColor" paint-order="fill stroke markers" d="m65.3,102.9l15.8,0l0,5.9l-15.8,0l0,-5.9l0,0z" stroke-width="5" stroke-miterlimit="10" stroke-dasharray=""></path><path data-v-9833e8b2="" transform="scale(0.1282051282051282)" fill="none" stroke="currentColor" paint-order="fill stroke markers" d="m120.7,88l5.9,0l0,71.2l-5.9,0l0,-71.2l0,0z" stroke-width="5" stroke-miterlimit="10" stroke-dasharray=""></path><path data-v-9833e8b2="" transform="scale(0.1282051282051282)" fill="none" stroke="currentColor" paint-order="fill stroke markers" d="m120.7,102.9l15.8,0l0,5.9l-15.8,0l0,-5.9l0,0z" stroke-width="5" stroke-miterlimit="10" stroke-dasharray=""></path><path data-v-9833e8b2="" transform="scale(0.1282051282051282)" fill="none" stroke="currentColor" paint-order="fill stroke markers" d="m75.2,80.1l51.4,0l0,7.9l-51.4,0l0,-7.9l0,0z" stroke-width="5" stroke-miterlimit="10" stroke-dasharray=""></path><path data-v-9833e8b2="" transform="scale(0.1282051282051282)" fill="none" stroke="currentColor" paint-order="fill stroke markers" d="m110.8,96.8l-3,0l0,94.1l-13.8,0l0,-94.1l-3,0l-9.9,-8.7l39.6,0l-9.9,8.7z" stroke-width="5" stroke-miterlimit="10" stroke-dasharray=""></path><path data-v-9833e8b2="" transform="scale(0.1282051282051282)" fill="none" stroke="currentColor" paint-order="fill stroke markers" d="m100.9,73.2c3.8,0 6.9,3.1 6.9,6.9s-3.1,6.9 -6.9,6.9s-6.9,-3.1 -6.9,-6.9s3.1,-6.9 6.9,-6.9l0,0z" stroke-width="5" stroke-miterlimit="10" stroke-dasharray=""></path><path data-v-9833e8b2="" transform="scale(0.1282051282051282)" fill="none" stroke="currentColor" paint-order="fill stroke markers" d="m59.4,72.2l5.9,0l0,73.2l-5.9,0l0,-73.2l0,0z" stroke-width="5" stroke-miterlimit="10" stroke-dasharray=""></path><path data-v-9833e8b2="" transform="scale(0.1282051282051282)" fill="none" stroke="currentColor" paint-order="fill stroke markers" d="m136.5,72.2l5.9,0l0,73.2l-5.9,0l0,-73.2l0,0z" stroke-width="5" stroke-miterlimit="10" stroke-dasharray=""></path></g></svg>