<svg data-v-9833e8b2="" version="1.1" xmlns="http://www.w3.org/2000/svg" xmlns:xlink="http://www.w3.org/1999/xlink" width="22" height="25"><g data-v-9833e8b2=""><path data-v-9833e8b2="" transform="scale(0.13966480446927373)" fill="none" stroke="currentColor" paint-order="fill stroke markers" d="m25.6,6.5l84.3,0l0,43.7l-84.3,0l0,-43.7l0,0z" stroke-width="5" stroke-miterlimit="10" stroke-dasharray=""></path><path data-v-9833e8b2="" transform="scale(0.13966480446927373)" fill="none" stroke="currentColor" paint-order="fill stroke markers" d="m18.6,1l98.4,0l0,15.8l-98.4,0l0,-15.8l0,0z" stroke-width="5" stroke-miterlimit="10" stroke-dasharray=""></path><path data-v-9833e8b2="" transform="scale(0.13966480446927373)" fill="none" stroke="currentColor" paint-order="fill stroke markers" d="m9.8,46.6l116,0l0,125.4l-116,0l0,-125.4l0,0z" stroke-width="5" stroke-miterlimit="10" stroke-dasharray=""></path><path data-v-9833e8b2="" transform="scale(0.13966480446927373)" fill="none" stroke="currentColor" paint-order="fill stroke markers" d="m41.4,46.6l52.7,0l0,121.2l-52.7,0l0,-121.2l0,0z" stroke-width="5" stroke-miterlimit="10" stroke-dasharray=""></path><path data-v-9833e8b2="" transform="scale(0.13966480446927373)" fill="none" stroke="currentColor" paint-order="fill stroke markers" d="m1,157.4l133.5,0l0,21.1l-133.5,0l0,-21.1l0,0z" stroke-width="5" stroke-miterlimit="10" stroke-dasharray=""></path></g></svg>