<svg data-v-9833e8b2="" version="1.1" xmlns="http://www.w3.org/2000/svg" xmlns:xlink="http://www.w3.org/1999/xlink" width="24.5" height="25"><g data-v-9833e8b2=""><path data-v-9833e8b2="" transform="scale(0.12437810945273632)" fill="none" stroke="currentColor" paint-order="fill stroke markers" d="m177.32444,164.91441l-1.342,1.118l-55.45814,0l0,14.53504l-9.50402,0l0,9.84002l-8.27402,0l0,9.61502l-25.38006,0l0,-9.61602l-7.71502,0l0,-9.83902l-10.17503,0l0,-14.53504l-56.57614,0l-1.9,-1.118l0.223,-2.34801l10.51003,-9.39202l0,-60.37815c0,-1.006 1.006,-1.9 2.23601,-1.9l55.01014,0l0,-11.07003c0,-1.118 1.007,-2.01201 2.34901,-2.01201l11.06903,0l0,-7.04402l-10.06303,0c-1.23,0 -2.23601,-0.895 -2.23601,-1.901l0,-5.36701l-4.47401,0c-1.23,0 -2.23601,-0.894 -2.23601,-1.9l0,-18.22705l-36.45009,0l0,-42.37511l125.45132,0l0,42.37611l-34.21409,0l0,18.22505c0,1.007 -1.006,1.901 -2.23601,1.901l-3.69001,0l0,5.36701c0,1.006 -1.006,1.9 -2.23601,1.9l-9.28002,0l0,7.04502l10.17403,0c1.342,0 2.34801,0.894 2.34801,2.01201l0,11.07003l52.55113,0c1.23,0 2.23601,0.894 2.23601,1.9l0,45.28311l0.112,0l0,15.20604l9.50402,9.16902l-0.335,2.46001l0.001,0zm-114.04729,-125.34032l0,-2.79501l-31.86508,0l0,2.79601l31.86508,0l0,-0.001zm84.52921,0l0,-2.79501l-29.63007,0l0,2.79601l29.63007,0l0,-0.001zm-65.85617,156.64739l16.32404,0l0,-5.25501l-16.32404,0l0,5.25501zm-7.71502,-9.61502l32.20108,0l0,-5.25501l-32.20108,0l0,5.25501zm-10.17503,-9.84002l51.88013,0l0,-10.62103l-51.88013,0l0,10.62103zm36.00409,-14.64804l0,-6.37302l-19.34405,0l0,6.37302l19.34305,0l0.001,0zm-92.24323,0l71.44618,0l0,-6.37302l-64.40316,0l-7.04402,6.37302l0.001,0zm15.31804,-67.53317l-3.80201,0l0,43.15911l3.80201,0l0,-43.15911zm12.07503,0l-4.58401,0l0,43.15911l4.58401,0l0,-43.15911zm12.41103,0l-4.47201,0l0,43.15911l4.47201,0l0,-43.15911zm21.02005,0l-4.58401,0l0,43.15911l4.58401,0l0,-43.15911zm20.23805,0l0,43.15911l4.58401,0l0,-43.04711l-4.58401,0l0,-0.112zm33.65508,0l-4.47301,0l0,43.15911l4.47301,0l0,-43.15911zm22.69706,0l-4.58401,0l0,43.15911l4.58401,0l0,-43.15911zm12.30003,0l-4.58501,0l0,43.15911l4.58401,0l0,-43.15911l0.001,0zm6.03702,47.29612l-147.36837,0l0,1.453l147.36637,0l0,-1.453l0.002,0zm0,5.47801l-147.36837,0l0,4.58501l147.36637,0l0,-4.58501l0.002,0zm1.118,8.38602l-63.06016,0l0,6.37302l69.76918,0l-6.70902,-6.37302z" stroke-width="5" stroke-miterlimit="10" stroke-dasharray=""></path></g></svg>