<svg data-v-9833e8b2="" version="1.1" xmlns="http://www.w3.org/2000/svg" xmlns:xlink="http://www.w3.org/1999/xlink" width="22" height="25"><g data-v-9833e8b2=""><path data-v-9833e8b2="" transform="scale(0.12953367875647667)" fill="none" stroke="currentColor" paint-order="fill stroke markers" d="m144.15898,192.47634l-20.68971,0l-0.0069,-33.78629l-10.34485,0l0,33.79319l-81.07607,0l-0.0069,-33.79319l-10.34485,0l0,33.79319l-20.68971,0l0,-74.48295l20.68971,0l0,33.79319l10.34485,0l0,-34.07595l28.43455,-26.75869a16.55177,16.55177 0 0 1 -3.56553,-10.8552c0.8,-10.8483 8.08278,-8.86209 10.61382,-16.0759a16.35866,16.35866 0 0 1 -9.60692,-14.65521l0.02759,-1.18621l0,-31.57939c0,-7.93106 5.77933,-15.60694 14.08969,-15.60694a14.78624,14.78624 0 0 1 13.95866,14.29659l-0.02069,1.31035l0,31.58629c0,12.67589 -3.17242,16.95177 -14.8828,25.10351c-3.56553,1.74483 -9.19313,3.33104 -9.10347,6.81381a4.00001,4.00001 0 0 0 5.37932,4.27587c0.55173,-3.56553 8.39312,-3.64828 8.94485,0c2.84828,-0.63448 2.92415,-5.46898 4.90346,-8.47588c2.06897,-3.08966 5.46898,-4.75173 10.93106,-4.43449c-1.34483,4.67588 -5.70346,2.37932 -5.54484,11.00692c-0.10345,2.2069 -0.64828,4.37243 -1.59311,6.35174l-0.62069,1.17242l28.7449,27.71731l-0.0069,34.06905l10.34485,0l0.01379,-33.78629l20.68971,0l0,74.46915l-0.0069,0zm-64.37947,-97.23473a19.20005,19.20005 0 0 1 -7.75864,1.73104c-1.75173,0 -3.47587,-0.35173 -5.08277,-1.02069l-1.17242,-0.55862l-23.28282,22.17247l60.49671,0.01379l-23.20006,-22.33799z" stroke-width="5" stroke-miterlimit="10" stroke-dasharray=""></path></g></svg>