<svg data-v-9833e8b2="" version="1.1" xmlns="http://www.w3.org/2000/svg" xmlns:xlink="http://www.w3.org/1999/xlink" width="27" height="25"><g data-v-9833e8b2=""><path data-v-9833e8b2="" transform="scale(0.13440860215053763)" fill="none" stroke="currentColor" paint-order="fill stroke markers" d="m1,1l178.8,0l0,184.4l-178.8,0l0,-184.4l0,0z" stroke-width="5" stroke-miterlimit="10" stroke-dasharray=""></path><path data-v-9833e8b2="" transform="scale(0.13440860215053763)" fill="none" stroke="currentColor" paint-order="fill stroke markers" d="m27.4,56.9l11.7,0l0,9.2l-11.7,0l0,-9.2l0,0z" stroke-width="5" stroke-miterlimit="10" stroke-dasharray=""></path><path data-v-9833e8b2="" transform="scale(0.13440860215053763)" fill="none" stroke="currentColor" paint-order="fill stroke markers" d="m13.2,108.6l60.2,0l0,49.2c0,6.8 -5.5,12.3 -12.3,12.3l-35.6,0c-6.8,0 -12.3,-5.5 -12.3,-12.3l0,-49.2l0,0z" stroke-width="5" stroke-miterlimit="10" stroke-dasharray=""></path><path data-v-9833e8b2="" transform="scale(0.13440860215053763)" fill="none" stroke="currentColor" paint-order="fill stroke markers" d="m24.9,28.7l134,0l0,28.3l-134,0l0,-28.3l0,0z" stroke-width="5" stroke-miterlimit="10" stroke-dasharray=""></path></g></svg>