<svg data-v-9833e8b2="" version="1.1" xmlns="http://www.w3.org/2000/svg" xmlns:xlink="http://www.w3.org/1999/xlink" width="25" height="20"><g data-v-9833e8b2=""><path data-v-9833e8b2="" transform="scale(0.12755102040816327)" fill="none" stroke="currentColor" paint-order="fill stroke markers" d="m195.8,33.5l0,75.3l-77.7,32.5l0,20.9l-39.4,0l0,-20.9l-77.7,-32.5l0,-75.3l194.8,0z" stroke-width="5" stroke-miterlimit="10" stroke-dasharray=""></path><path data-v-9833e8b2="" transform="scale(0.12755102040816327)" fill="none" stroke="currentColor" paint-order="fill stroke markers" d="m94.9,1l7,0c3.8,0 7,2.9 7,6.5l0,13l-20.9,0l0,-13c0,-3.6 3.1,-6.5 6.9,-6.5l0,0z" stroke-width="5" stroke-miterlimit="10" stroke-dasharray=""></path><path data-v-9833e8b2="" transform="scale(0.12755102040816327)" fill="none" stroke="currentColor" paint-order="fill stroke markers" d="m88,20.5l20.9,0l0,4.4l-20.9,0l0,-4.4l0,0z" stroke-width="5" stroke-miterlimit="10" stroke-dasharray=""></path><path data-v-9833e8b2="" transform="scale(0.12755102040816327)" fill="none" stroke="currentColor" paint-order="fill stroke markers" d="m91.4,24.9l14,0l0,4.7l-14,0l0,-4.7l0,0z" stroke-width="5" stroke-miterlimit="10" stroke-dasharray=""></path><path data-v-9833e8b2="" transform="scale(0.12755102040816327)" fill="none" stroke="currentColor" paint-order="fill stroke markers" d="m94.9,29.7l7,0l0,126.7l-7,0l0,-126.7l0,0z" stroke-width="5" stroke-miterlimit="10" stroke-dasharray=""></path><path data-v-9833e8b2="" transform="scale(0.12755102040816327)" fill="none" stroke="currentColor" paint-order="fill stroke markers" d="m82.2,99.6l32.5,0l0,7l-32.5,0l0,-7l0,0z" stroke-width="5" stroke-miterlimit="10" stroke-dasharray=""></path><path data-v-9833e8b2="" transform="scale(0.12755102040816327)" fill="none" stroke="currentColor" paint-order="fill stroke markers" d="m84.5,46.2l7,0l0,34.8l-7,0l0,-34.8l0,0z" stroke-width="5" stroke-miterlimit="10" stroke-dasharray=""></path><path data-v-9833e8b2="" transform="scale(0.12755102040816327)" fill="none" stroke="currentColor" paint-order="fill stroke markers" d="m105.4,46.2l7,0l0,34.8l-7,0l0,-34.8l0,0z" stroke-width="5" stroke-miterlimit="10" stroke-dasharray=""></path><path data-v-9833e8b2="" transform="scale(0.12755102040816327)" fill="none" stroke="currentColor" paint-order="fill stroke markers" d="m14.9,81l7,0l0,23.2l-7,0l0,-23.2l0,0z" stroke-width="5" stroke-miterlimit="10" stroke-dasharray=""></path><path data-v-9833e8b2="" transform="scale(0.12755102040816327)" fill="none" stroke="currentColor" paint-order="fill stroke markers" d="m35.8,81l7,0l0,23.2l-7,0l0,-23.2l0,0z" stroke-width="5" stroke-miterlimit="10" stroke-dasharray=""></path><path data-v-9833e8b2="" transform="scale(0.12755102040816327)" fill="none" stroke="currentColor" paint-order="fill stroke markers" d="m56.7,81l7,0l0,23.2l-7,0l0,-23.2l0,0z" stroke-width="5" stroke-miterlimit="10" stroke-dasharray=""></path><path data-v-9833e8b2="" transform="scale(0.12755102040816327)" fill="none" stroke="currentColor" paint-order="fill stroke markers" d="m133.2,81l7,0l0,23.2l-7,0l0,-23.2l0,0z" stroke-width="5" stroke-miterlimit="10" stroke-dasharray=""></path><path data-v-9833e8b2="" transform="scale(0.12755102040816327)" fill="none" stroke="currentColor" paint-order="fill stroke markers" d="m154,81l7,0l0,23.2l-7,0l0,-23.2l0,0z" stroke-width="5" stroke-miterlimit="10" stroke-dasharray=""></path><path data-v-9833e8b2="" transform="scale(0.12755102040816327)" fill="none" stroke="currentColor" paint-order="fill stroke markers" d="m174.9,81l7,0l0,23.2l-7,0l0,-23.2l0,0z" stroke-width="5" stroke-miterlimit="10" stroke-dasharray=""></path></g></svg>