<svg data-v-9833e8b2="" version="1.1" xmlns="http://www.w3.org/2000/svg" xmlns:xlink="http://www.w3.org/1999/xlink" width="24.5" height="25"><g data-v-9833e8b2=""><path data-v-9833e8b2="" transform="scale(0.15527950310559005)" fill="none" stroke="currentColor" paint-order="fill stroke markers" d="m69.98077,120.67834l-9.74612,9.74612c-0.70313,0.70313 -1.79688,0.80078 -2.61719,0.25391l-47.14856,-31.54305c-5.4297,-3.63282 -6.17189,-11.30862 -1.5625,-15.91801l74.31659,-74.31659c4.58986,-4.58986 12.20706,-3.8672 15.85941,1.48438l32.85165,48.26184c0.56641,0.82031 0.44922,1.9336 -0.25391,2.63673l-9.2969,9.2969c-0.78125,0.78125 -2.07032,0.80078 -2.8711,0.03906l-25.00006,-23.43756c-2.79298,-2.61719 -7.14846,-2.53907 -9.84377,0.17578l-37.10947,37.4415c-2.73438,2.75391 -2.73438,7.20705 0.01953,9.96096l22.57818,22.57818c0.6836,0.6836 0.80078,1.75782 0.27344,2.57813l-0.44922,0.76172z" stroke-width="5" stroke-miterlimit="10" stroke-dasharray=""></path><path data-v-9833e8b2="" transform="scale(0.15527950310559005)" fill="none" stroke="currentColor" paint-order="fill stroke markers" d="m58.75028,135.89322c-1.34766,0 -2.67579,-0.39063 -3.8672,-1.17188l-47.12902,-31.52352c-3.8086,-2.53907 -6.25002,-6.62111 -6.6797,-11.1719c-0.44922,-4.55079 1.15235,-9.02346 4.39454,-12.24612l74.31659,-74.31659c3.22266,-3.22266 7.65627,-4.82423 12.18753,-4.39454c4.53126,0.42969 8.59377,2.83204 11.15237,6.58205l32.85165,48.26184c1.875,2.75391 1.52344,6.46486 -0.83985,8.82815l-9.2969,9.2969c-2.67579,2.67579 -6.91408,2.73438 -9.66799,0.15625l-25.00006,-23.43756c-0.85938,-0.82031 -2.20704,-0.78125 -3.02735,0.05859l-37.10947,37.42197c-0.83985,0.83985 -0.83985,2.22657 0,3.06641l22.57818,22.59771c2.32422,2.32422 2.71485,5.87892 0.95703,8.65237l-0.76172,1.19141l-10.11721,10.11721c-1.34766,1.34766 -3.12501,2.03126 -4.94142,2.03126zm31.77742,-125.1175c-1.44532,0 -2.83204,0.56641 -3.84767,1.60157l-74.31659,74.31659c-1.15235,1.15235 -1.73829,2.75391 -1.58204,4.39454c0.15625,1.64063 1.03516,3.08595 2.40235,4.00392l45.21496,30.25398l6.40627,-6.40627l-20.70318,-20.70318c-4.62892,-4.62892 -4.64845,-12.20706 -0.03906,-16.85551l37.10947,-37.42197c2.20704,-2.22657 5.13673,-3.47657 8.26174,-3.53517c3.12501,-0.05859 6.1133,1.09375 8.37893,3.22266l23.00787,21.58209l5.72267,-5.72267l-31.48445,-46.34777c-0.91797,-1.34766 -2.38282,-2.20704 -4.00392,-2.36329c-0.17578,-0.01953 -0.35156,-0.01953 -0.52735,-0.01953zm-55.50795,146.68006c-2.34376,0 -4.58986,-0.80078 -6.4258,-2.32422c-2.07032,-1.71875 -3.35938,-4.16017 -3.61329,-6.83595c-0.25391,-2.69532 0.54688,-5.31251 2.28516,-7.40236c1.71875,-2.07032 4.14064,-3.35938 6.83595,-3.61329c2.69532,-0.25391 5.31251,0.54688 7.40236,2.28516c2.07032,1.71875 3.35938,4.14064 3.61329,6.83595c0.25391,2.69532 -0.54688,5.31251 -2.28516,7.40236c-1.71875,2.07032 -4.14064,3.35938 -6.83595,3.61329c-0.35156,0.01953 -0.66406,0.03906 -0.97656,0.03906zm0.01953,-16.30863c-0.19531,0 -0.39063,0 -0.58594,0.01953c-1.64063,0.15625 -3.14454,0.9375 -4.19923,2.22657c-1.05469,1.26953 -1.54297,2.89063 -1.40625,4.53126c0.15625,1.64063 0.9375,3.14454 2.22657,4.19923c1.26953,1.05469 2.89063,1.54297 4.53126,1.40625c1.64063,-0.15625 3.14454,-0.9375 4.19923,-2.22657c1.05469,-1.26953 1.54297,-2.89063 1.40625,-4.53126c-0.15625,-1.64063 -0.9375,-3.14454 -2.22657,-4.19923c-1.11328,-0.9375 -2.50001,-1.42578 -3.94532,-1.42578z" stroke-width="5" stroke-miterlimit="10" stroke-dasharray=""></path><path data-v-9833e8b2="" transform="scale(0.15527950310559005)" fill="none" stroke="currentColor" paint-order="fill stroke markers" d="m20.48241,136.19596l2.49102,-3.00899l6.93556,5.74181l-2.49083,3.00899l-6.93576,-5.74181zm19.0477,17.6186l2.49102,-3.00899l7.67287,6.35216l-2.49102,3.00899l-7.67287,-6.35216zm-1.21328,-12.82425l12.99066,-15.69203l3.00899,2.49102l-12.99066,15.69203l-3.00899,-2.49102zm23.59733,-28.58347l12.99066,-15.69184l3.00899,2.49102l-12.99066,15.69203l-3.00899,-2.49122z" stroke-width="5" stroke-miterlimit="10" stroke-dasharray=""></path><path data-v-9833e8b2="" transform="scale(0.15527950310559005)" fill="none" stroke="currentColor" paint-order="fill stroke markers" d="m81.9144,102.57283l-3.92579,-1.17188l-4.76564,-0.70313l-1.17188,-5.09767l-0.95703,-3.69142l6.48439,-6.66017l10.87893,10.6055l-6.54299,6.71877zm-5.4883,-5.35158l2.40235,0.35156l1.9336,0.58594l2.16797,-2.22657l-5.29298,-5.15626l-2.22657,2.28516l0.42969,1.64063l0.58594,2.51954z" stroke-width="5" stroke-miterlimit="10" stroke-dasharray=""></path><path data-v-9833e8b2="" transform="scale(0.15527950310559005)" fill="none" stroke="currentColor" paint-order="fill stroke markers" d="m54.10183,71.32275l-5.82033,-5.82033c-0.76172,-0.76172 -2.01172,-0.76172 -2.75391,0l-0.58594,0.58594c-0.76172,0.76172 -0.76172,2.01172 0,2.75391l5.82033,5.82033l3.33985,-3.33985zm6.0547,-6.1133l-5.82033,-5.82033c-0.76172,-0.76172 -2.01172,-0.76172 -2.75391,0l-0.58594,0.58594c-0.76172,0.76172 -0.76172,2.01172 0,2.75391l5.82033,5.82033l3.33985,-3.33985zm6.0547,-6.13283l-5.82033,-5.82033c-0.76172,-0.76172 -2.01172,-0.76172 -2.75391,0l-0.58594,0.58594c-0.76172,0.76172 -0.76172,2.01172 0,2.75391l5.82033,5.82033l3.33985,-3.33985zm6.64064,-6.69924l-5.82033,-5.82033c-0.76172,-0.76172 -2.01172,-0.76172 -2.75391,0l-0.58594,0.58594c-0.76172,0.76172 -0.76172,2.01172 0,2.75391l5.82033,5.82033l3.33985,-3.33985z" stroke-width="5" stroke-miterlimit="10" stroke-dasharray=""></path></g></svg>