<svg data-v-9833e8b2="" version="1.1" xmlns="http://www.w3.org/2000/svg" xmlns:xlink="http://www.w3.org/1999/xlink" width="25" height="20"><g data-v-9833e8b2=""><path data-v-9833e8b2="" transform="scale(0.14124293785310735)" fill="none" stroke="currentColor" paint-order="fill stroke markers" d="m32.15184,63.74798l25.70339,-57.89272l31.32957,13.9098l-25.70319,57.89272l-31.32977,-13.9098z" stroke-width="5" stroke-miterlimit="10" stroke-dasharray=""></path><path data-v-9833e8b2="" transform="scale(0.14124293785310735)" fill="none" stroke="currentColor" paint-order="fill stroke markers" d="m162.44572,68.23042l-10.918,0l0,-24.43366c0,-9.06252 -7.32424,-16.40629 -16.38676,-16.40629l-21.83599,0c-3.00782,0 -5.46876,2.44141 -5.46876,5.46876l0,54.33607l-104.10182,0l0,20.42974l169.62933,0l0,-28.4571c0,-6.0547 -4.88282,-10.93753 -10.918,-10.93753z" stroke-width="5" stroke-miterlimit="10" stroke-dasharray=""></path><path data-v-9833e8b2="" transform="scale(0.14124293785310735)" fill="none" stroke="currentColor" paint-order="fill stroke markers" d="m3.73438,98.71877l0,8.88674l169.62933,0l0,-8.88674l-169.62933,0z" stroke-width="5" stroke-miterlimit="10" stroke-dasharray=""></path><path data-v-9833e8b2="" transform="scale(0.14124293785310735)" fill="none" stroke="currentColor" paint-order="fill stroke markers" d="m173.36372,89.77344c1.50391,0 2.73438,-1.23047 2.73438,-2.73438l0,-7.87111c0,-7.53908 -6.13283,-13.67191 -13.65238,-13.67191l-8.18361,0l0,-21.7188c0,-10.56643 -8.57424,-19.14067 -19.10161,-19.14067l-21.85552,0c-4.51173,0 -8.18361,3.67188 -8.18361,8.20315l0,51.62122l-20.76177,0l0,-9.12112l3.90626,-0.97656c0.82031,-0.19531 1.50391,-0.78125 1.83594,-1.54297l13.59378,-30.66414c0.35156,-0.80078 0.3125,-1.69922 -0.11719,-2.46094l-12.05081,-21.32818c-0.29297,-0.50781 -0.74219,-0.91797 -1.26953,-1.15235l-4.58986,-2.05079c-1.38672,-0.60547 -2.98829,0 -3.59376,1.38672c-0.60547,1.38672 0,2.98829 1.38672,3.61329l2.10938,0.9375l-23.51568,52.98841l-26.2696,-11.67972l23.47662,-53.00795l12.53909,5.56642c1.38672,0.60547 2.98829,0 3.59376,-1.38672c0.60547,-1.38672 0,-2.98829 -1.38672,-3.61329l-15.01957,-6.6797c-0.3125,-0.13672 -0.625,-0.21484 -0.97656,-0.23438l-40.50791,-2.05079c-1.13282,-0.05859 -2.16797,0.58594 -2.63673,1.6211l-13.57425,30.66414c-0.44922,1.01563 -0.23438,2.20704 0.52735,3.00782l8.65237,8.96487l0,39.19932l-6.7383,0c-1.50391,0 -2.73438,1.23047 -2.73438,2.73438l0,20.42974c0,1.50391 1.23047,2.73438 2.73438,2.73438l7.59768,0c-0.07813,0.78125 -0.13672,1.5625 -0.13672,2.36329c0,11.56253 9.39455,20.97662 20.93755,20.97662s20.93755,-9.41409 20.93755,-20.97662c0,-0.80078 -0.05859,-1.60157 -0.13672,-2.36329l3.5547,0c-0.07813,0.78125 -0.13672,1.5625 -0.13672,2.36329c0,11.56253 9.39455,20.97662 20.93755,20.97662s20.93755,-9.41409 20.93755,-20.97662c0,-0.80078 -0.05859,-1.60157 -0.13672,-2.36329l27.53913,0c-0.09766,0.78125 -0.13672,1.5625 -0.13672,2.36329c0,11.56253 9.39455,20.97662 20.93755,20.97662s20.93755,-9.41409 20.93755,-20.97662c0,-0.80078 -0.05859,-1.60157 -0.13672,-2.36329l6.15236,0c1.50391,0 2.73438,-1.23047 2.73438,-2.73438l0,-8.90627c0,-1.50391 -1.23047,-2.73438 -2.73438,-2.73438s-2.73438,1.23047 -2.73438,2.73438l0,6.17189l-4.8047,0c-3.10548,-7.69533 -10.62503,-13.12503 -19.41411,-13.12503c-8.76955,0 -16.30863,5.44923 -19.41411,13.12503l-30.33211,0c-3.10548,-7.69533 -10.62503,-13.12503 -19.41411,-13.12503c-8.76955,0 -16.30863,5.44923 -19.41411,13.12503l-6.32814,0c-3.10548,-7.69533 -10.62503,-13.12503 -19.41411,-13.12503c-8.76955,0 -16.30863,5.44923 -19.41411,13.12503l-6.25002,0l0,-14.96098l101.36744,0c1.50391,0 2.73438,-1.23047 2.73438,-2.73438l0,-54.35561c0,-1.50391 1.23047,-2.73438 2.73438,-2.73438l21.83599,0c7.51955,0 13.65238,6.13283 13.65238,13.67191l0,24.43366c0,1.50391 1.23047,2.73438 2.73438,2.73438l10.918,0c4.51173,0 8.18361,3.67188 8.18361,8.20315l0,7.87111c0.01953,1.52344 1.25,2.75391 2.75391,2.75391z" stroke-width="5" stroke-miterlimit="10" stroke-dasharray=""></path><path data-v-9833e8b2="" transform="scale(0.14124293785310735)" fill="none" stroke="currentColor" paint-order="fill stroke markers" d="m146.43005,97.21486c8.53518,0 15.46879,6.95314 15.46879,15.50785c0,8.55471 -6.93361,15.50785 -15.46879,15.50785s-15.46879,-6.95314 -15.46879,-15.50785c0,-8.55471 6.93361,-15.50785 15.46879,-15.50785zm-69.16033,0c8.53518,0 15.46879,6.95314 15.46879,15.50785c0,8.55471 -6.93361,15.50785 -15.46879,15.50785s-15.46879,-6.95314 -15.46879,-15.50785c0,-8.55471 6.93361,-15.50785 15.46879,-15.50785z" stroke-width="5" stroke-miterlimit="10" stroke-dasharray=""></path><path data-v-9833e8b2="" transform="scale(0.14124293785310735)" fill="none" stroke="currentColor" paint-order="fill stroke markers" d="m146.43005,124.92978c6.71877,0 12.18753,-5.4883 12.18753,-12.22659s-5.46876,-12.22659 -12.18753,-12.22659s-12.18753,5.4883 -12.18753,12.22659c0,6.75783 5.46876,12.22659 12.18753,12.22659z" stroke-width="5" stroke-miterlimit="10" stroke-dasharray=""></path><path data-v-9833e8b2="" transform="scale(0.14124293785310735)" fill="none" stroke="currentColor" paint-order="fill stroke markers" d="m19.10551,6.5701l34.66806,1.75782l-22.44146,50.64466l-24.31647,-25.13678l12.08987,-27.26569z" stroke-width="5" stroke-miterlimit="10" stroke-dasharray=""></path><path data-v-9833e8b2="" transform="scale(0.14124293785310735)" fill="none" stroke="currentColor" paint-order="fill stroke markers" d="m98.14868,41.17957l-12.4805,28.18366l-17.46098,4.33595l21.23052,-47.92981l8.71096,15.4102z" stroke-width="5" stroke-miterlimit="10" stroke-dasharray=""></path><path data-v-9833e8b2="" transform="scale(0.14124293785310735)" fill="none" stroke="currentColor" paint-order="fill stroke markers" d="m6.54689,28.15219l-2.77344,6.25002l28.39851,29.39461l31.26961,13.90629l24.17975,-6.01564l2.14844,-4.84376l-83.22287,-38.6915z" stroke-width="5" stroke-miterlimit="10" stroke-dasharray=""></path><path data-v-9833e8b2="" transform="scale(0.14124293785310735)" fill="none" stroke="currentColor" paint-order="fill stroke markers" d="m15.94144,50.92568l3.26173,3.37891l0,30.15633l-3.26173,0l0,-33.53524z" stroke-width="5" stroke-miterlimit="10" stroke-dasharray=""></path><path data-v-9833e8b2="" transform="scale(0.14124293785310735)" fill="none" stroke="currentColor" paint-order="fill stroke markers" d="m30.21882,65.69135c0.23438,0.25391 0.52735,0.44922 0.85938,0.60547l31.26961,13.90629c0.54688,0.25391 1.17188,0.29297 1.75782,0.15625l6.07423,-1.50391l0,5.60548l-45.50793,0l0,-24.49225l5.54689,5.72267z" stroke-width="5" stroke-miterlimit="10" stroke-dasharray=""></path><path data-v-9833e8b2="" transform="scale(0.14124293785310735)" fill="none" stroke="currentColor" paint-order="fill stroke markers" d="m78.91035,84.46093l-3.28126,0l0,-6.97267l3.28126,-0.80078l0,7.77346z" stroke-width="5" stroke-miterlimit="10" stroke-dasharray=""></path><path data-v-9833e8b2="" transform="scale(0.14124293785310735)" fill="none" stroke="currentColor" paint-order="fill stroke markers" d="m32.13289,97.21486c8.53518,0 15.46879,6.95314 15.46879,15.50785c0,8.55471 -6.93361,15.50785 -15.46879,15.50785s-15.46879,-6.95314 -15.46879,-15.50785s6.93361,-15.50785 15.46879,-15.50785z" stroke-width="5" stroke-miterlimit="10" stroke-dasharray=""></path><path data-v-9833e8b2="" transform="scale(0.14124293785310735)" fill="none" stroke="currentColor" paint-order="fill stroke markers" d="m145.51208,68.23042l0,-24.43366c0,-5.72267 -4.64845,-10.39065 -10.37112,-10.39065l-18.55473,0c-1.50391,0 -2.73438,1.23047 -2.73438,2.73438l0,32.08992c0,1.50391 1.23047,2.73438 2.73438,2.73438l26.211,0c1.50391,0 2.71485,-1.23047 2.71485,-2.73438z" stroke-width="5" stroke-miterlimit="10" stroke-dasharray=""></path><path data-v-9833e8b2="" transform="scale(0.14124293785310735)" fill="none" stroke="currentColor" paint-order="fill stroke markers" d="m140.06285,65.49603l-20.74224,0l0,-26.64069l15.83988,0c2.71485,0 4.92189,2.20704 4.92189,4.92189l0,21.7188l-0.01953,0z" stroke-width="5" stroke-miterlimit="10" stroke-dasharray=""></path><path data-v-9833e8b2="" transform="scale(0.14124293785310735)" fill="none" stroke="currentColor" paint-order="fill stroke markers" d="m116.58623,73.50387c-1.50391,0 -2.73438,1.23047 -2.73438,2.73438s1.23047,2.73438 2.73438,2.73438l8.73049,0c1.50391,0 2.73438,-1.23047 2.73438,-2.73438s-1.23047,-2.73438 -2.73438,-2.73438l-8.73049,0zm-39.31651,51.42591c6.71877,0 12.18753,-5.4883 12.18753,-12.22659s-5.46876,-12.22659 -12.18753,-12.22659s-12.18753,5.4883 -12.18753,12.22659c0,6.75783 5.46876,12.22659 12.18753,12.22659z" stroke-width="5" stroke-miterlimit="10" stroke-dasharray=""></path><path data-v-9833e8b2="" transform="scale(0.14124293785310735)" fill="none" stroke="currentColor" paint-order="fill stroke markers" d="m146.43005,105.96489c3.71095,0 6.7383,3.02735 6.7383,6.7383s-3.02735,6.7383 -6.7383,6.7383s-6.7383,-3.00782 -6.7383,-6.71877c0,-3.73048 3.02735,-6.75783 6.7383,-6.75783z" stroke-width="5" stroke-miterlimit="10" stroke-dasharray=""></path><path data-v-9833e8b2="" transform="scale(0.14124293785310735)" fill="none" stroke="currentColor" paint-order="fill stroke markers" d="m32.13289,124.92978c6.71877,0 12.18753,-5.4883 12.18753,-12.22659s-5.46876,-12.22659 -12.18753,-12.22659s-12.18753,5.4883 -12.18753,12.22659c0,6.75783 5.46876,12.22659 12.18753,12.22659z" stroke-width="5" stroke-miterlimit="10" stroke-dasharray=""></path><path data-v-9833e8b2="" transform="scale(0.14124293785310735)" fill="none" stroke="currentColor" paint-order="fill stroke markers" d="m77.26972,105.96489c3.71095,0 6.7383,3.02735 6.7383,6.7383s-3.02735,6.7383 -6.7383,6.7383s-6.7383,-3.02735 -6.7383,-6.7383s3.02735,-6.7383 6.7383,-6.7383zm-45.13683,0c3.71095,0 6.7383,3.02735 6.7383,6.7383s-3.02735,6.7383 -6.7383,6.7383s-6.7383,-3.02735 -6.7383,-6.7383s3.02735,-6.7383 6.7383,-6.7383z" stroke-width="5" stroke-miterlimit="10" stroke-dasharray=""></path></g></svg>