<svg data-v-9833e8b2="" version="1.1" xmlns="http://www.w3.org/2000/svg" xmlns:xlink="http://www.w3.org/1999/xlink" width="19.5" height="25"><g data-v-9833e8b2=""><path data-v-9833e8b2="" transform="scale(0.13020833333333334)" fill="none" stroke="currentColor" paint-order="fill stroke markers" d="m119.5753,16.56254l-8.05002,0l0,-9.22502c0,-3.50001 -2.30001,-6.33752 -5.10001,-6.33752l-11.88753,0c-2.81251,0 -5.08751,2.83751 -5.08751,6.33752l0,9.22502l-83.35021,0c-2.82501,0 -5.10001,4.12501 -5.10001,9.21252s2.27501,9.20002 5.10001,9.20002l36.13759,0l0,27.85007a5.08751,5.08751 0 1 0 10.20003,0l0,-27.85007l5.30001,0l0,43.60011a5.10001,5.10001 0 0 0 10.20003,0l0,-43.60011l51.62513,0c2.82501,0 5.08751,-4.11251 5.08751,-9.20002c0.0125,-5.08751 -2.27501,-9.21252 -5.07501,-9.21252z" stroke-width="5" stroke-miterlimit="10" stroke-dasharray=""></path><path data-v-9833e8b2="" transform="scale(0.13020833333333334)" fill="none" stroke="currentColor" paint-order="fill stroke markers" d="m117.32529,68.46267c-2.31251,0 -7.03752,1.85 -7.03752,4.16251l-0.0125,0l0,18.81255l-94.86274,0l0,-41.75011l0,-0.025c0,-2.35001 -4.73751,-4.23751 -7.07502,-4.23751c-2.35001,0 -7.07502,1.8875 -7.07502,4.23751l0,109.85028a31.75008,31.75008 0 0 0 7.70002,20.71255l0,6.51252c0,2.47501 2.28751,4.48751 5.10001,4.48751l97.58775,0c2.82501,0 5.07501,-2.01251 5.07501,-4.48751l0,-6.51252a31.75008,31.75008 0 0 0 7.70002,-20.73755l0,-86.86272c-0.025,-2.31251 -4.75001,-4.16251 -7.10002,-4.16251zm-49.88763,102.96276c1.7375,-2.32501 3.63751,-7.21252 3.67501,-9.63752c0.025,-2.41251 -2.30001,-6.32502 -5.05001,-8.71252c-2.76251,-2.40001 -4.18751,-6.46252 -4.13751,-8.73752c0.05,-2.25001 0.375,-3.68751 0.4625,-3.67501c-3.76251,2.22501 -11.48753,7.56252 -11.47503,15.63754c0.0125,8.05002 6.42502,15.23754 6.43752,15.13754c-15.80004,-3.48751 -20.32505,-12.41253 -20.21255,-20.65005c0.1375,-8.27502 4.32501,-12.70003 12.40003,-18.83755s9.56252,-14.27504 9.62502,-16.08754c0.0625,-1.8 -0.9375,-6.08752 -0.9125,-6.42502c21.68755,8.71252 15.18754,26.35007 15.15004,26.17507c2.41251,-1.1625 4.60001,-5.03751 4.60001,-5.03751s10.56253,7.30002 10.56253,20.20005c-2.87501,19.13755 -21.12505,20.65005 -21.12505,20.65005z" stroke-width="5" stroke-miterlimit="10" stroke-dasharray=""></path></g></svg>