<svg data-v-9833e8b2="" version="1.1" xmlns="http://www.w3.org/2000/svg" xmlns:xlink="http://www.w3.org/1999/xlink" width="25" height="20"><g data-v-9833e8b2=""><path data-v-9833e8b2="" transform="scale(0.125)" fill="none" stroke="currentColor" paint-order="fill stroke markers" d="m192.03145,1l-42.45133,0c-4.58068,0 -7.07512,2.66732 -7.07512,7.248l0,21.05288l-14.15044,0c-4.5881,0 -7.07551,2.49444 -7.07551,7.07532l-42.45133,0c0,-4.58088 -2.48742,-7.07512 -7.07551,-7.07512l-14.15025,0l0,-21.22576c0,-4.58088 -2.49444,-7.07512 -7.07532,-7.07512l-41.22147,0c-4.58107,0 -8.30517,3.73112 -8.30517,8.312l0,83.66577c0,4.5881 2.49424,7.07551 7.07512,7.07551l28.30108,0l0,49.52664c0,4.58088 2.48742,7.07532 7.07512,7.07532l113.20392,0c4.58829,0 7.07532,-2.49424 7.07532,-7.07532l0,-49.52664l28.30108,0c4.58771,0 7.07512,-2.48742 7.07512,-7.07551l0,-84.90226c0,-4.58107 -2.48761,-7.07551 -7.07512,-7.07551l-0.0002,-0.0002zm-113.20392,49.52684l42.45133,0l0,7.07512l-42.45113,0l0,-7.07512l-0.0002,0zm-28.30088,-7.07512l21.22557,0l0,14.15025s-20.8041,-0.06224 -21.22557,0l0,-14.15025zm-7.07512,42.45133l-28.30147,0l0,-70.7524l28.30088,0l0,70.7524l0.00059,0zm21.22576,56.60196l0,-21.22576l70.7524,0l0,21.22576l-70.7524,0zm70.7524,-28.30088l-70.7524,0l0,-28.30108l70.7524,0l0,28.30108zm14.15025,28.30088l-7.07512,0l0,-56.60196c0,-3.60683 -3.46849,-7.07512 -7.07512,-7.07512l-70.7524,0c-3.60683,0 -7.07551,3.46829 -7.07551,7.07512l0,56.60196l-7.07512,0l0,-77.82772l99.05329,0l0,77.82772zm0,-84.90285l-21.22557,0l0,-14.15044l21.22557,0l0,14.15025l0,0.0002zm35.3764,28.30088l-28.30108,0l0,-70.7524l28.30088,0l0,70.7524l0.0002,0zm-84.90285,42.45152c-1.95551,0 -3.54459,1.61015 -3.54459,3.61366c0,2.01054 1.58907,3.46185 3.54459,3.46185s3.53054,-1.45132 3.53054,-3.46166c0,-2.0039 -1.57522,-3.61366 -3.53054,-3.61366l0,-0.0002z" stroke-width="5" stroke-miterlimit="10" stroke-dasharray=""></path></g></svg>