<svg data-v-9833e8b2="" version="1.1" xmlns="http://www.w3.org/2000/svg" xmlns:xlink="http://www.w3.org/1999/xlink" width="27" height="25"><g data-v-9833e8b2=""><path data-v-9833e8b2="" transform="scale(0.12437810945273632)" fill="none" stroke="currentColor" paint-order="fill stroke markers" d="m162.82981,169.53499l-29.05987,-30.50992l0,-43.00244l44.83428,-44.83428a92.29335,92.29335 0 0 1 -15.78543,118.34664l0.01101,0zm-74.46683,23.14951l27.70526,-27.70159a13.34786,13.34786 0 0 1 18.88378,0l14.585,14.58133a91.94827,91.94827 0 0 1 -61.17403,13.12026zm25.38884,-76.64375l0.19456,-0.14684l0,16.77293a27.30879,27.30879 0 0 1 -7.99183,19.30227l-36.21103,36.21103a92.23828,92.23828 0 0 1 -18.85074,-9.28036l62.85904,-62.85904zm-77.45872,42.8042a3.30393,3.30393 0 0 1 -2.33478,-5.6387l19.82356,-19.82356a3.30393,3.30393 0 1 1 4.67322,4.67322l-19.82356,19.82356a3.30393,3.30393 0 0 1 -2.32743,0.96915l-0.01101,-0.00367zm63.45741,-62.09179l-19.82356,19.82356a3.30393,3.30393 0 1 1 -4.67322,-4.67322l19.82356,-19.82356a3.30393,3.30393 0 0 1 4.67322,4.67322zm16.51963,-16.51963a3.30393,3.30393 0 1 1 -4.67322,-4.67322l19.82356,-19.82356a3.30393,3.30393 0 1 1 4.67322,4.67322l-19.82356,19.82356zm0.98017,43.92387a3.30393,3.30393 0 0 1 6.60785,0l0,11.81704a30.80728,30.80728 0 0 1 -8.96465,21.65907l-8.52413,8.52413a3.30393,3.30393 0 1 1 -4.67322,-4.67322l8.52413,-8.52413a24.16272,24.16272 0 0 0 7.02635,-16.9675l0.00367,-11.8354zm-66.07853,-49.5589a3.30393,3.30393 0 0 1 3.30393,-3.30393l23.93144,0a3.30393,3.30393 0 1 1 0,6.60785l-23.93144,0a3.30393,3.30393 0 0 1 -3.30393,-3.30393zm-41.78366,41.03844l20.7303,-19.7171a40.35196,40.35196 0 0 1 27.50702,-11.11955l21.79857,-0.17254l19.94103,-19.93736l-34.08918,0a12.1144,12.1144 0 0 1 -8.56084,-3.54989l-23.38079,-23.38079a92.26031,92.26031 0 0 1 117.24167,-14.60336l-127.71144,127.71511a91.84181,91.84181 0 0 1 -13.46901,-35.24188l-0.00734,0.00734zm20.82942,-57.86277a12.1144,12.1144 0 0 1 0,17.12535l-21.89035,21.89035a91.86384,91.86384 0 0 1 14.83096,-46.07509l7.05939,7.05939zm153.19573,-11.38019a99.11779,99.11779 0 1 0 -165.36519,109.30123a99.58768,99.58768 0 0 0 28.03198,28.03198a99.11779,99.11779 0 0 0 137.32954,-137.32954l0.00367,-0.00367z" stroke-width="5" stroke-miterlimit="10" stroke-dasharray=""></path></g></svg>