<svg data-v-9833e8b2="" version="1.1" xmlns="http://www.w3.org/2000/svg" xmlns:xlink="http://www.w3.org/1999/xlink" width="25" height="12.5"><g data-v-9833e8b2=""><path data-v-9833e8b2="" transform="scale(0.12376237623762376)" fill="none" stroke="currentColor" paint-order="fill stroke markers" d="m199.93845,6.05614s-1.74898,-0.57239 -2.28957,1.62178l-3.14816,8.29971l-96.86151,0l-2.76657,-10.23947l-1.24038,-4.73816l-22.95934,0c-1.84438,0.2226 -2.03517,1.08119 -2.03517,1.08119l0,0.92219c0.2226,0.82679 1.71718,1.24019 1.71718,1.24019l18.28477,0l1.55818,7.05952l7.34572,32.65818s1.43099,4.86535 9.06289,5.46953l79.11748,0s7.05952,0.1272 8.4905,-7.50471l4.32475,-20.00195l2.48037,-13.80102s0.47699,-1.68538 -1.08119,-2.06698l0.00005,0zm-82.29738,36.824l-0.79499,0.159a4.03856,4.03856 0 0 1 -4.67455,-3.21177l-2.44857,-13.03789a4.07035,4.07035 0 0 1 3.2113,-4.70629l0.79499,-0.1272a3.97495,3.97495 0 0 1 4.67514,3.21168l2.44857,13.03789a4.03856,4.03856 0 0 1 -3.21177,4.67455l-0.00012,0.00003zm20.57435,0l-0.76319,0.159a4.07035,4.07035 0 0 1 -4.70635,-3.21177l-2.41677,-13.03789a4.00675,4.00675 0 0 1 3.21177,-4.70635l0.76319,-0.1272a4.00675,4.00675 0 0 1 4.70616,3.21174l2.41677,13.03789a4.00675,4.00675 0 0 1 -3.21177,4.67455l0.00019,0.00003zm20.60612,0l-0.79499,0.159a4.03856,4.03856 0 0 1 -4.67455,-3.21177l-2.44857,-13.03789a4.03856,4.03856 0 0 1 3.21177,-4.70635l0.79499,-0.1272a4.00675,4.00675 0 0 1 4.67439,3.21174l2.44857,13.03789a4.03856,4.03856 0 0 1 -3.21177,4.67455l0.00016,0.00003zm20.57435,0l-0.79499,0.159a4.03856,4.03856 0 0 1 -4.67455,-3.21177l-2.41677,-13.03789a4.00675,4.00675 0 0 1 3.21177,-4.70635l0.76319,-0.1272a3.97495,3.97495 0 0 1 4.67439,3.21174l2.44857,13.03789a4.00675,4.00675 0 0 1 -3.21177,4.67455l0.00016,0.00003z" stroke-width="5" stroke-miterlimit="10" stroke-dasharray=""></path><path data-v-9833e8b2="" transform="scale(0.12376237623762376)" fill="none" stroke="currentColor" paint-order="fill stroke markers" d="m193.00654,66.44365l-7.66371,0s-1.90798,0 -1.90798,-3.46616l0,-8.6177s0.2226,-1.43099 -2.38498,-1.36738l-96.67071,0l0,-44.5831l-31.38621,0s-37.39694,5.9465 -45.44225,58.03434c0,0 -5.97832,0.57239 -6.55072,3.46616l0,8.1089s0.73139,2.51217 6.39172,2.60757l17.23539,0c-0.0318,-0.3498 -0.0954,-0.69959 -0.0954,-1.04938a18.50737,18.50737 0 1 1 37.01474,0c0,0.3498 -0.0954,0.69959 -0.0954,1.04938l74.53833,0c-0.0318,-0.3498 -0.0954,-0.69959 -0.0954,-1.04938a18.50737,18.50737 0 0 1 37.01474,0c0,0.3498 -0.0954,0.69959 -0.1272,1.04938l19.9384,0s1.97158,0 2.00337,-2.95736l0,-8.6495s0.0954,-2.38498 -1.71718,-2.57577l0.00042,-0.00001zm-120.71147,-28.49246l-33.96231,0s4.22935,-15.32738 15.32738,-18.41196l18.63456,0l0.00037,18.41196z" stroke-width="5" stroke-miterlimit="10" stroke-dasharray=""></path><path data-v-9833e8b2="" transform="scale(0.12376237623762376)" fill="none" stroke="currentColor" paint-order="fill stroke markers" d="m43.0391,63.29543a16.28143,16.28143 0 1 0 16.28143,16.28143a16.28143,16.28143 0 0 0 -16.28143,-16.28143zm0,22.41872a6.13732,6.13732 0 1 1 6.13732,-6.13732a6.10553,6.10553 0 0 1 -6.13732,6.13732zm111.42551,-22.41872a16.28143,16.28143 0 1 0 16.28143,16.28143a16.28143,16.28143 0 0 0 -16.28143,-16.28143zm0,22.41872a6.13732,6.13732 0 1 1 6.13732,-6.13732a6.13732,6.13732 0 0 1 -6.13732,6.13732z" stroke-width="5" stroke-miterlimit="10" stroke-dasharray=""></path></g></svg>