<svg data-v-9833e8b2="" version="1.1" xmlns="http://www.w3.org/2000/svg" xmlns:xlink="http://www.w3.org/1999/xlink" width="25" height="25"><g data-v-9833e8b2=""><path data-v-9833e8b2="" transform="scale(0.16025641025641027)" fill="none" stroke="currentColor" paint-order="fill stroke markers" d="m75.16685,100.38768l8.75002,-8.75002l32.91675,32.91675c0.83333,0.41667 1.25,1.25 1.66667,2.50001c0,0.83333 0.41667,1.66667 0.41667,2.91667c0.41667,2.91667 2.08334,5.41668 4.16668,7.50002c1.25,1.25 2.50001,2.08334 3.75001,3.33334c1.66667,1.25 2.91667,2.50001 5.00001,3.75001c1.66667,1.25 2.91667,2.50001 5.00001,3.33334c1.66667,0.83334 2.91667,2.08334 4.58334,2.91668c1.25,0.41667 2.08334,1.25 2.91668,1.66667c1.25,0.83334 2.50001,1.66667 4.16668,2.08334c0.83334,0 1.66667,0.41667 2.50001,0c1.25,-0.41667 2.50001,-1.25 3.33334,-2.50001c1.25,-1.66667 0.83333,-3.75001 0,-5.41668c-0.83334,-1.25 -1.25,-2.50001 -2.08334,-3.33334c-1.66667,-2.91668 -3.33334,-5.83335 -5.41668,-8.75002l-5.41668,-7.50002l-2.50001,-2.91668c-1.25,-1.25 -2.50001,-2.50001 -3.75001,-3.33334c-1.66667,-0.83334 -3.33334,-1.66667 -5.00001,-1.66667c-0.83333,0 -1.25,0 -2.08334,-0.41667c-1.25,-0.41667 -2.08334,-0.83334 -2.91668,-2.08334l-4.16668,-4.16668l-28.33341,-28.33341l7.91669,-7.91669l-15.00004,-15.00004l-1.66667,-1.66667c-1.66667,-1.66667 -3.33334,-3.33334 -5.00001,-5.41668l-3.75001,-3.75001c-1.25,-1.25 -17.08338,-17.50004 -18.75005,-18.75005c-1.25,-1.66667 -2.91667,-2.91667 -4.16668,-4.16668c-2.08334,-2.50001 -4.16668,-4.58335 -6.25002,-6.66668c-2.50001,-2.91668 -5.41668,-5.41668 -7.91669,-7.91669c-1.25,-0.83333 -2.08334,-2.08334 -2.91668,-2.91667l-2.91667,-2.91667c-1.66667,-1.66667 -3.75001,-3.33334 -5.83335,-4.16668c-0.83333,-0.41667 -2.08334,-0.41667 -2.91667,-0.83333c-0.41667,0 -1.25,0 -1.66667,-0.41667l-5.00001,0c-2.91668,-1.25 -5.00001,-0.41667 -6.66668,0.41667c-1.66667,1.25 -2.91667,2.50001 -4.58334,3.75001c-1.25,1.66667 -2.50001,3.33334 -3.33334,5.00001c-0.83334,1.25 -1.25,2.91667 -1.25,4.58334l0,5.00001c0.41667,2.08334 1.25,3.75001 2.08334,5.83335c0.83333,1.66667 2.08334,2.91667 2.91667,4.16668m12.9167,-19.16671c0,-0.83334 1.66667,-2.08334 2.91668,-1.66667c0.83333,0.41667 1.66667,0.83333 2.50001,1.66667l45.00011,45.00011l7.50002,7.50002s0.41667,0 0.41667,0.41667l1.25,1.25l-3.33334,3.33334l-55.00014,-55.00014c-0.83333,-0.83334 -1.66667,-1.66667 -1.25,-2.50001zm45.41678,67.50017l-54.1668,-54.1668c0,-0.41667 -0.41667,-0.41667 -0.83333,-0.83334s-0.41667,-1.25 -0.41667,-1.66667c0,-1.66667 2.08334,-2.91668 3.33334,-2.08334c0.41667,0.41667 1.25,0.83334 1.66667,1.25c3.33334,2.91667 6.25002,6.25002 9.58336,9.58336l43.75011,43.75011c0.41667,0 0.41667,0.41667 0.83334,0.41667l-3.75001,3.75001z" stroke-width="5" stroke-miterlimit="10" stroke-dasharray=""></path></g></svg>