<svg data-v-9833e8b2="" version="1.1" xmlns="http://www.w3.org/2000/svg" xmlns:xlink="http://www.w3.org/1999/xlink" width="25" height="15"><g data-v-9833e8b2=""><path data-v-9833e8b2="" transform="scale(0.13020833333333334)" fill="none" stroke="currentColor" paint-order="fill stroke markers" d="m132.6,11.2l-4.1,9l0.1,0l-0.5,0.8l-0.8,1.8l-0.3,0l-13.9,23.2l-72.5,3.9l-35.7,-21.9l0,-5.2l-3.9,0l0,-14.1l114.7,0l3.9,-7.7l55.4,0l0,10.3l-42.4,0l0,-0.1z" stroke-width="5" stroke-miterlimit="10" stroke-dasharray=""></path><path data-v-9833e8b2="" transform="scale(0.13020833333333334)" fill="none" stroke="currentColor" paint-order="fill stroke markers" d="m39.7,39.6l88.9,0l0,58l-88.9,0l0,-58l0,0z" stroke-width="5" stroke-miterlimit="10" stroke-dasharray=""></path><path data-v-9833e8b2="" transform="scale(0.13020833333333334)" fill="none" stroke="currentColor" paint-order="fill stroke markers" d="m176.3,104l0,-2.6l0,-2.6l0,-9c0,-15.7 -12.7,-28.3 -28.3,-28.3l-2.6,0l-11.7,0l0,-5.2l0,-3.9l0,-2.6l0,-5.2l0,-29.5l49,0l0,29.6l9,0l0,7.7l0,3.9l0,2.6l0,2.6l0,42.5l-15.4,0l0,0z" stroke-width="5" stroke-miterlimit="10" stroke-dasharray=""></path><path data-v-9833e8b2="" transform="scale(0.13020833333333334)" fill="none" stroke="currentColor" paint-order="fill stroke markers" d="m144,22.8l38.7,0l0,18l-38.7,0l0,-18l0,0z" stroke-width="5" stroke-miterlimit="10" stroke-dasharray=""></path><path data-v-9833e8b2="" transform="scale(0.13020833333333334)" fill="none" stroke="currentColor" paint-order="fill stroke markers" d="m53.8,64.1c15.7,0 28.3,12.7 28.3,28.3s-12.7,28.3 -28.3,28.3c-15.7,0 -28.3,-12.7 -28.3,-28.3s12.7,-28.3 28.3,-28.3l0,0z" stroke-width="5" stroke-miterlimit="10" stroke-dasharray=""></path><path data-v-9833e8b2="" transform="scale(0.13020833333333334)" fill="none" stroke="currentColor" paint-order="fill stroke markers" d="m53.8,79.5c7.1,0 12.9,5.8 12.9,12.9c0,7.1 -5.8,12.9 -12.9,12.9s-12.9,-5.8 -12.9,-12.9c0.1,-7.1 5.8,-12.9 12.9,-12.9l0,0z" stroke-width="5" stroke-miterlimit="10" stroke-dasharray=""></path><path data-v-9833e8b2="" transform="scale(0.13020833333333334)" fill="none" stroke="currentColor" paint-order="fill stroke markers" d="m145.3,64.1c15.7,0 28.3,12.7 28.3,28.3s-12.7,28.3 -28.3,28.3c-15.7,0 -28.3,-12.7 -28.3,-28.3s12.7,-28.3 28.3,-28.3l0,0z" stroke-width="5" stroke-miterlimit="10" stroke-dasharray=""></path><path data-v-9833e8b2="" transform="scale(0.13020833333333334)" fill="none" stroke="currentColor" paint-order="fill stroke markers" d="m145.3,79.5c7.1,0 12.9,5.8 12.9,12.9c0,7.1 -5.8,12.9 -12.9,12.9c-7.1,0 -12.9,-5.8 -12.9,-12.9c0,-7.1 5.8,-12.9 12.9,-12.9l0,0z" stroke-width="5" stroke-miterlimit="10" stroke-dasharray=""></path></g></svg>