<svg data-v-9833e8b2="" version="1.1" xmlns="http://www.w3.org/2000/svg" xmlns:xlink="http://www.w3.org/1999/xlink" width="22" height="25"><g data-v-9833e8b2=""><path data-v-9833e8b2="" transform="scale(0.12376237623762376)" fill="none" stroke="currentColor" paint-order="fill stroke markers" d="m43.79842,173.1214l5.77519,0a3.19698,3.19698 0 0 0 3.0251,-3.43761a3.43761,3.43761 0 0 0 -3.0251,-3.43762l-5.77519,0a3.23136,3.23136 0 0 0 -3.05948,3.43762a3.43761,3.43761 0 0 0 3.05948,3.43761m-18.735,0l5.77519,0a3.23136,3.23136 0 0 0 3.09385,-3.43761a3.43761,3.43761 0 0 0 -3.09385,-3.43762l-5.77519,0a3.43761,3.43761 0 0 0 0,6.87523" stroke-width="5" stroke-miterlimit="10" stroke-dasharray=""></path><path data-v-9833e8b2="" transform="scale(0.12376237623762376)" fill="none" stroke="currentColor" paint-order="fill stroke markers" d="m137.88593,1.00003l-115.2976,0a21.69135,21.69135 0 0 0 -21.58822,21.7601l0,156.48023a21.72573,21.72573 0 0 0 21.7601,21.7601l115.12572,0a21.72573,21.72573 0 0 0 21.7601,-21.7601l0,-156.48023a21.72573,21.72573 0 0 0 -21.7601,-21.7601m-99.27832,86.35289c0,-0.20626 0.17188,-0.20626 0.17188,-0.37814l53.38616,-63.11461a3.43761,3.43761 0 0 1 0.89378,-0.7219a5.98145,5.98145 0 0 1 3.64387,-1.10004a4.91579,4.91579 0 0 1 3.747,1.61568a6.87523,6.87523 0 0 1 1.27192,5.22518l0,0.34376l-7.18461,35.44181l28.05094,0.17188a5.01892,5.01892 0 0 1 4.12514,2.33758a5.70644,5.70644 0 0 1 -0.55002,5.22517c0,0.17188 0,0.34376 -0.34376,0.55002l-62.59897,66.17409a2.85322,2.85322 0 0 1 -1.23754,0.89378a6.87523,6.87523 0 0 1 -3.05948,0.7219a4.91579,4.91579 0 0 1 -3.78138,-1.61568a5.70644,5.70644 0 0 1 -1.27192,-4.12514l0,-0.7219l13.75046,-39.56695l-24.71645,0a5.08767,5.08767 0 0 1 -4.67516,-2.54384a4.36577,4.36577 0 0 1 0.34376,-4.84704m108.28487,91.74994a9.17843,9.17843 0 0 1 -9.17843,9.14406l-114.74759,0a9.21281,9.21281 0 0 1 -9.17843,-9.17843l0,-24.61332l133.10445,0l0,24.6477z" stroke-width="5" stroke-miterlimit="10" stroke-dasharray=""></path></g></svg>