<svg data-v-9833e8b2="" version="1.1" xmlns="http://www.w3.org/2000/svg" xmlns:xlink="http://www.w3.org/1999/xlink" width="24.5" height="25"><g data-v-9833e8b2=""><path data-v-9833e8b2="" transform="scale(0.1404494382022472)" fill="none" stroke="currentColor" paint-order="fill stroke markers" d="m108.05526,100.43189l-8.41994,-8.41799l0.27734,-0.27734l46.72082,-46.80285a11.35745,11.35745 0 0 0 0,-16.03324l-19.47466,-19.47466l8.43557,-8.4258l20.91412,20.92388a21.27349,21.27349 0 0 1 0,30.05086l-48.45325,48.45715zm-7.31642,-8.42776l7.31642,7.32228l47.90051,-47.90442a20.4649,20.4649 0 0 0 0,-28.94539l-20.36138,-20.3731l-7.33205,7.32228l18.91606,18.9063a12.14066,12.14066 0 0 1 0,17.13872l-46.43957,46.53332zm-65.42204,85.09592l-28.59968,-23.15436a15.4102,15.4102 0 0 1 -1.20117,-22.87896l0.24805,-0.25l41.90831,33.92587l-12.3555,12.35745zm-29.49226,-45.22863a14.63285,14.63285 0 0 0 1.38282,21.46099l28.05476,22.71685l11.24417,-11.24417l-40.68174,-32.93368z" stroke-width="5" stroke-miterlimit="10" stroke-dasharray=""></path><path data-v-9833e8b2="" transform="scale(0.1404494382022472)" fill="none" stroke="currentColor" paint-order="fill stroke markers" d="m47.1176,165.29924l-13.65238,-11.05081l25.14655,-25.14655l39.60752,-39.60752l12.35159,12.35159l-63.45328,63.45328zm-12.48636,-11.11136l12.42972,10.06253l62.40641,-62.40445l-11.24808,-11.24808l-63.58805,63.59z" stroke-width="5" stroke-miterlimit="10" stroke-dasharray=""></path><path data-v-9833e8b2="" transform="scale(0.1404494382022472)" fill="none" stroke="currentColor" paint-order="fill stroke markers" d="m51.02386,137.79527l-26.11921,-26.11725l8.41799,-8.41799l26.11921,26.11725l-8.41799,8.41799zm-25.01373,-26.11725l25.01373,25.01373l7.31447,-7.31447l-25.01569,-25.01178l-7.31252,7.31252zm99.74049,-87.94163l-4.4922,-4.4922l8.41213,-8.41018l4.4922,4.4922l-8.41213,8.41018zm-3.38087,-4.4922l3.38087,3.38087l7.30471,-7.3008l-3.37891,-3.38087l-7.30666,7.3008z" stroke-width="5" stroke-miterlimit="10" stroke-dasharray=""></path><path data-v-9833e8b2="" transform="scale(0.1404494382022472)" fill="none" stroke="currentColor" paint-order="fill stroke markers" d="m27.43005,122.05694l-4.4922,-4.4922l4.48634,-4.46681l4.4922,4.4922l-4.48634,4.46681zm-3.37891,-4.4922l3.37891,3.38087l3.37501,-3.37306l-3.38087,-3.38087l-3.37306,3.37306z" stroke-width="5" stroke-miterlimit="10" stroke-dasharray=""></path><path data-v-9833e8b2="" transform="scale(0.1404494382022472)" fill="none" stroke="currentColor" paint-order="fill stroke markers" d="m25.44958,127.9554l-8.41018,-8.41213l4.4922,-4.4922l8.39846,8.41994l-4.48048,4.48439zm-7.30666,-8.41213l7.30666,7.30666l3.38087,-3.38087l-7.29885,-7.30471l-3.38868,3.37891zm21.08013,-9.27932l-4.4922,-4.4922l8.41018,-8.41213l4.4922,4.4922l-8.41018,8.41213zm-3.38087,-4.4922l3.38087,3.38087l7.30861,-7.29885l-3.38087,-3.38087l-7.30861,7.29885z" stroke-width="5" stroke-miterlimit="10" stroke-dasharray=""></path><path data-v-9833e8b2="" transform="scale(0.1404494382022472)" fill="none" stroke="currentColor" paint-order="fill stroke markers" d="m43.15666,103.62526a1.7793,1.7793 0 1 1 1.25977,-0.51953a1.77149,1.77149 0 0 1 -1.25977,0.51953zm0,-2.7793a1,1 0 1 0 0.70703,0.29297a0.9961,0.9961 0 0 0 -0.70703,-0.29297zm82.59396,-79.81465a1.78125,1.78125 0 1 1 1.25977,-0.52149a1.76954,1.76954 0 0 1 -1.25977,0.52149zm0,-2.7793a0.99805,0.99805 0 1 0 0.70703,0.29102a0.99414,0.99414 0 0 0 -0.70703,-0.29102z" stroke-width="5" stroke-miterlimit="10" stroke-dasharray=""></path><path data-v-9833e8b2="" transform="scale(0.1404494382022472)" fill="none" stroke="currentColor" paint-order="fill stroke markers" d="m45.12346,108.29714l-8.41994,-8.41799l8.26565,-8.25588l3.71095,0l0,-3.9336l3.9336,0l0,-3.9336l3.91798,0l0,-3.9336l3.9336,0l0,-3.93165l3.93165,0l0,-3.9336l3.9336,0l0,-3.9336l3.9336,0l0,-3.9336l3.9336,0l0,-3.92188l3.92774,0l0,-3.94337l3.9336,0l0,-3.9336l3.93751,0l0,-3.9336l3.9336,0l0,-3.93165l3.93165,0l0,-3.9336l3.9336,0l0,-3.9336l3.9336,0l0,-3.9297l3.93556,0l0,-3.93556l3.93165,0l0,-3.9336l3.9336,0l0,-3.71095l8.25783,-8.25588l8.41799,8.41799l-87.08225,87.08616zm-7.31447,-8.41799l7.31447,7.31447l85.97873,-85.97678l-7.31252,-7.31447l-7.48049,7.47658l0,4.16212l-3.9336,0l0,3.9336l-3.9297,0l0,3.93556l-3.93556,0l0,3.9336l-3.9336,0l0,3.9336l-3.9336,0l0,3.9297l-3.93165,0l0,3.93165l-3.9336,0l0,3.9336l-3.9336,0l0,3.9336l-3.93751,0l0,3.94337l-3.92774,0l0,3.93165l-3.9336,0l0,3.9336l-3.9336,0l0,3.9336l-3.9336,0l0,3.92384l-3.93165,0l0,3.93165l-3.9336,0l0,3.9336l-3.9336,0l0,3.9336l-3.9336,0l0,3.9336l-4.16212,0l-7.47463,7.47463z" stroke-width="5" stroke-miterlimit="10" stroke-dasharray=""></path></g></svg>