<svg data-v-9833e8b2="" version="1.1" xmlns="http://www.w3.org/2000/svg" xmlns:xlink="http://www.w3.org/1999/xlink" width="25" height="20"><g data-v-9833e8b2=""><path data-v-9833e8b2="" transform="scale(0.12376237623762376)" fill="none" stroke="currentColor" paint-order="fill stroke markers" d="m127.91355,121.82105a27.95065,27.95065 0 0 1 10.01382,4.80183l6.77758,5.18698l2.38091,-1.87071l0,-75.09863l-19.24234,0l0,66.98053l0.07003,0zm-28.11071,-76.15403l19.23733,0l0,-9.60366l-19.24233,0l0,9.60366l0.005,0zm0,84.2221l4.18159,-3.21623a28.04569,28.04569 0 0 1 15.05574,-5.66716l0,-66.16522l-19.24233,0l0,75.04861l0.005,0zm56.20142,-6.0273a27.66054,27.66054 0 0 1 19.24233,-2.0858l0,-66.93551l-19.24233,0l0,69.04632l0,-0.02501zm0,-87.84849l0,9.60366l19.24233,0l0,-9.60366l-19.24233,0zm-28.11072,9.60366l19.23733,0l0,-9.60366l-19.24233,0l0,9.60366l0.005,0zm-112.41285,0l19.24233,0l0,-9.60366l-19.21232,0l0,9.60366l-0.02501,0l-0.005,0zm28.11071,81.46605l6.16235,4.80183l6.78259,-5.18698a27.76058,27.76058 0 0 1 6.3024,-3.60137l0,-68.25602l-19.21732,0l0,72.31256l-0.02501,-0.07003l-0.005,0zm28.12072,-81.46605l19.24233,0l0,-9.60366l-19.24233,0l0,9.60366zm-56.20142,77.4045a27.60052,27.60052 0 0 1 19.24233,-0.67026l0,-67.51073l-19.24734,0l0,68.18099l0.005,0zm56.20142,-2.01577l1.78568,0a28.03068,28.03068 0 0 1 16.95646,5.73719l0.50019,0.38515l0,-72.28756l-19.24233,0l0,66.16522zm-28.09071,-75.31371l19.23733,0l0,-9.60366l-19.23733,0l0,9.60366zm101.08853,135.3766a20.77792,20.77792 0 0 1 -12.65482,-4.27663l-7.13772,-5.40206a6.63253,6.63253 0 0 0 -8.03806,0l-7.13772,5.40206a20.84294,20.84294 0 0 1 -25.28464,0l-7.13272,-5.40206a6.63253,6.63253 0 0 0 -8.04306,0l-7.13272,5.40206a20.84294,20.84294 0 0 1 -25.28464,0l-7.13772,-5.40206a6.63253,6.63253 0 0 0 -8.03806,0l-9.22852,7.06269a7.0927,7.0927 0 0 1 -10.00381,-1.38053a7.25277,7.25277 0 0 1 1.37052,-10.10385l9.23352,-7.05769a20.84294,20.84294 0 0 1 25.28464,0l7.13272,5.40206a6.63253,6.63253 0 0 0 8.04307,0l7.13272,-5.40206a20.84294,20.84294 0 0 1 25.28464,0l7.13772,5.40206a6.63253,6.63253 0 0 0 8.03806,0l7.13272,-5.40206a20.84294,20.84294 0 0 1 25.28464,0l7.13772,5.40206a6.63253,6.63253 0 0 0 8.03806,0l7.13772,-5.40206a20.84294,20.84294 0 0 1 25.27963,0l7.13772,5.40206a7.23776,7.23776 0 0 1 -1.55059,12.38472c-2.3509,1.00038 -5.05193,0.65025 -7.0827,-0.90034l-7.13772,-5.40206a6.63253,6.63253 0 0 0 -8.03806,0l-7.13772,5.40206a20.77792,20.77792 0 0 1 -12.60481,4.27163z" stroke-width="5" stroke-miterlimit="10" stroke-dasharray=""></path><path data-v-9833e8b2="" transform="scale(0.12376237623762376)" fill="none" stroke="currentColor" paint-order="fill stroke markers" d="m151.14741,156.0591a22.3035,22.3035 0 0 1 -13.08999,-4.1866l-7.38281,-5.29202a7.17273,7.17273 0 0 0 -8.31817,0l-7.38281,5.29202a22.54359,22.54359 0 0 1 -26.15997,0l-7.38281,-5.29202a7.17273,7.17273 0 0 0 -8.31817,0l-7.38281,5.29202a22.54359,22.54359 0 0 1 -26.15997,0l-7.38281,-5.29202a7.17273,7.17273 0 0 0 -8.31817,0l-9.20351,6.84261c-3.25124,2.3559 -7.883,1.75067 -10.35395,-1.35051a6.85261,6.85261 0 0 1 1.42054,-9.88877l9.54864,-6.90763a22.54359,22.54359 0 0 1 26.15997,0l7.38281,5.28702c2.46094,1.77068 5.85223,1.77068 8.31817,0l7.38281,-5.28702a22.54359,22.54359 0 0 1 26.15997,0l7.38281,5.28702c2.46094,1.77068 5.85223,1.77068 8.31817,0l7.38281,-5.28702a22.54359,22.54359 0 0 1 26.15997,0l7.38281,5.28702c2.46094,1.77068 5.85223,1.77068 8.31817,0l7.38281,-5.28702a22.54359,22.54359 0 0 1 26.15997,0l7.38281,5.28702c2.1008,1.52558 3.19122,4.00152 2.86109,6.50248c-0.33513,2.50095 -2.03578,4.64677 -4.4667,5.62214a7.67292,7.67292 0 0 1 -7.32779,-0.88534l-7.38281,-5.29202a7.17273,7.17273 0 0 0 -8.31817,0l-7.38281,5.29202a22.3035,22.3035 0 0 1 -13.3901,4.25162l0,0.005zm39.79517,-140.17843l0,-14.88067l-41.61586,0l0,14.88067l-98.85268,0l0,-14.88067l-41.61586,0l0,14.88067l-7.85299,0l0,11.75448l200.07626,0l0,-11.75448l-10.13887,0zm-169.80472,0l0,-3.12619l17.02649,0l0,3.12619l-17.02649,0zm140.46854,0l0,-3.12619l17.00648,0l0,3.12619l-17.00648,0z" stroke-width="5" stroke-miterlimit="10" stroke-dasharray=""></path></g></svg>