<svg data-v-9833e8b2="" version="1.1" xmlns="http://www.w3.org/2000/svg" xmlns:xlink="http://www.w3.org/1999/xlink" width="25" height="22.5"><g data-v-9833e8b2=""><path data-v-9833e8b2="" transform="scale(0.19083969465648856)" fill="none" stroke="currentColor" paint-order="fill stroke markers" d="m61.65755,92.09504l0.86964,0c0,0.43482 0.21741,0.65223 0.43482,0.86964s0.43482,0.21741 0.86964,0.21741s0.65223,-0.21741 0.86964,-0.43482s0.43482,-0.65223 0.43482,-1.08705s-0.21741,-0.86964 -0.43482,-1.08705s-0.65223,-0.43482 -0.86964,-0.43482c-0.21741,0 -0.43482,0 -0.65223,0.21741s-0.43482,0.21741 -0.43482,0.43482l-0.65223,0l0.65223,-3.26116l3.04375,0l0,0.65223l-2.39152,0l-0.43482,1.73929c0.43482,-0.21741 0.86964,-0.43482 1.08705,-0.43482c0.43482,0 1.08705,0.21741 1.30446,0.65223s0.65223,0.86964 0.65223,1.52187c0,0.65223 -0.21741,1.08705 -0.43482,1.52187c-0.43482,0.43482 -0.86964,0.65223 -1.73928,0.65223c-0.65223,0 -1.08705,-0.21741 -1.30446,-0.43482s-0.86964,-0.65223 -0.86964,-1.30446zm4.78303,-1.30446c0,-0.65223 0,-1.30446 0.21741,-1.73928s0.43482,-0.86964 0.65223,-1.08705s0.65223,-0.43482 1.08705,-0.43482s0.65223,0 0.86964,0.21741l0.65223,0.65223c0.21741,0.21741 0.21741,0.65223 0.43482,0.86964s0.21741,0.86964 0.21741,1.52187c0,0.65223 0,1.30446 -0.21741,1.73929s-0.43482,0.86964 -0.65223,1.08705s-0.86964,0.21741 -1.30446,0.21741c-0.65223,0 -1.08705,-0.21741 -1.52187,-0.65223c-0.21741,-0.43482 -0.43482,-1.30446 -0.43482,-2.39152zm0.86964,0c0,1.08705 0.21741,1.73929 0.43482,1.9567s0.43482,0.43482 0.86964,0.43482s0.65223,-0.21741 0.86964,-0.43482s0.43482,-1.08705 0.43482,-1.9567c0,-1.08705 -0.21741,-1.73928 -0.43482,-1.9567s-0.43482,-0.43482 -0.86964,-0.43482s-0.65223,0.21741 -0.86964,0.43482c-0.43482,0.21741 -0.43482,0.86964 -0.43482,1.9567z" stroke-width="5" stroke-miterlimit="10" stroke-dasharray=""></path><path data-v-9833e8b2="" transform="scale(0.19083969465648856)" fill="none" stroke="currentColor" paint-order="fill stroke markers" d="m63.61425,14.69687l0.43482,0c0,0.21741 0,0.43482 0.21741,0.43482c0,0 0.21741,0.21741 0.43482,0.21741s0.43482,0 0.43482,-0.21741s0.21741,-0.21741 0.21741,-0.65223c0,-0.21741 0,-0.43482 -0.21741,-0.43482s-0.21741,-0.21741 -0.43482,-0.21741l-0.43482,0l-0.21741,0.21741l-0.43482,0l0.21741,-1.52187l1.73928,0l0,0.43482l-1.30446,0l-0.21741,0.86964c0.21741,-0.21741 0.43482,-0.21741 0.65223,-0.21741c0.21741,0 0.43482,0 0.65223,0.21741s0.21741,0.43482 0.21741,0.65223c0,0.21741 0,0.43482 -0.21741,0.65223c-0.21741,0.43482 -0.43482,0.43482 -0.86964,0.43482c-0.21741,0 -0.43482,0 -0.65223,-0.21741s-0.21741,-0.43482 -0.21741,-0.65223zm2.39152,-0.65223c0,-0.43482 0,-0.65223 0.21741,-0.86964c0,-0.21741 0.21741,-0.43482 0.43482,-0.43482s0.43482,-0.21741 0.65223,-0.21741l0.43482,0c0.21741,0 0.21741,0.21741 0.21741,0.21741c0,0.21741 0.21741,0.21741 0.21741,0.43482l0,0.65223c0,0.43482 0,0.65223 -0.21741,0.86964c0,0.21741 -0.21741,0.43482 -0.43482,0.43482c0,0.43482 -0.21741,0.43482 -0.43482,0.43482s-0.43482,0 -0.65223,-0.21741c-0.43482,-0.21741 -0.43482,-0.65223 -0.43482,-1.30446zm0.43482,0c0,0.43482 0,0.86964 0.21741,1.08705c0.21741,0.21741 0.21741,0.21741 0.43482,0.21741s0.21741,0 0.43482,-0.21741s0.21741,-0.43482 0.21741,-1.08705c0,-0.43482 0,-0.86964 -0.21741,-1.08705s-0.21741,-0.21741 -0.43482,-0.21741s-0.21741,0 -0.43482,0.21741s-0.21741,0.65223 -0.21741,1.08705z" stroke-width="5" stroke-miterlimit="10" stroke-dasharray=""></path><path data-v-9833e8b2="" transform="scale(0.19083969465648856)" fill="none" stroke="currentColor" paint-order="fill stroke markers" d="m42.96024,22.08883l0,-0.65223l-1.30446,0l0,-0.43482l1.52187,-1.9567l0.21741,0l0,1.9567l0.43482,0l0,0.43482l-0.43482,0l0,0.65223l-0.43482,0zm0,-1.08705l0,-1.30446l-0.86964,1.30446l0.86964,0zm1.30446,-0.43482c0,-0.43482 0,-0.65223 0.21741,-0.86964c0,-0.21741 0.21741,-0.43482 0.43482,-0.43482s0.43482,-0.21741 0.65223,-0.21741l0.43482,0c0.21741,0 0.21741,0.21741 0.21741,0.21741c0,0.21741 0.21741,0.21741 0.21741,0.43482l0,0.65223c0,0.43482 0,0.65223 -0.21741,0.86964c0,0.21741 -0.21741,0.43482 -0.43482,0.43482c0,0.43482 -0.21741,0.43482 -0.43482,0.43482s-0.43482,0 -0.65223,-0.21741c-0.43482,-0.21741 -0.43482,-0.65223 -0.43482,-1.30446zm0.43482,0c0,0.43482 0,0.86964 0.21741,1.08705c0.21741,0.21741 0.21741,0.21741 0.43482,0.21741s0.21741,0 0.43482,-0.21741s0.21741,-0.43482 0.21741,-1.08705c0,-0.43482 0,-0.86964 -0.21741,-1.08705s-0.21741,-0.21741 -0.43482,-0.21741s-0.21741,0 -0.43482,0.21741s-0.21741,0.65223 -0.21741,1.08705z" stroke-width="5" stroke-miterlimit="10" stroke-dasharray=""></path><path data-v-9833e8b2="" transform="scale(0.19083969465648856)" fill="none" stroke="currentColor" paint-order="fill stroke markers" d="m24.48034,36.43793l0.43482,0c0,0.21741 0.21741,0.43482 0.21741,0.43482s0.21741,0.21741 0.43482,0.21741s0.43482,0 0.43482,-0.21741s0.21741,-0.21741 0.21741,-0.43482s0,-0.21741 -0.21741,-0.43482s-0.21741,-0.21741 -0.43482,-0.21741l-0.21741,0l0,-0.43482c0.21741,0 0.21741,0 0.43482,-0.21741s0.21741,-0.21741 0.21741,-0.43482s0,-0.21741 -0.21741,-0.43482s-0.21741,-0.21741 -0.43482,-0.21741s-0.21741,0 -0.43482,0.21741s-0.21741,0.21741 -0.21741,0.43482l-0.43482,0c0,-0.21741 0.21741,-0.43482 0.21741,-0.65223c0.21741,-0.21741 0.43482,-0.21741 0.65223,-0.21741c0.21741,0 0.21741,0 0.43482,0.21741c0.21741,0 0.21741,0.21741 0.43482,0.21741s0.21741,0.21741 0.21741,0.43482l0,0.43482c0,0.21741 -0.21741,0.21741 -0.21741,0.21741c0.21741,0 0.43482,0.21741 0.43482,0.21741c0,0.21741 0.21741,0.21741 0.21741,0.43482s0,0.43482 -0.21741,0.65223c-0.43482,0.65223 -0.65223,0.65223 -1.08705,0.65223c-0.21741,0 -0.43482,0 -0.65223,-0.21741s-0.21741,-0.43482 -0.21741,-0.65223zm2.39152,-0.65223c0,-0.43482 0,-0.65223 0.21741,-0.86964c0,-0.21741 0.21741,-0.43482 0.43482,-0.43482s0.43482,-0.21741 0.65223,-0.21741l0.43482,0c0.21741,0 0.21741,0.21741 0.21741,0.21741c0,0.21741 0.21741,0.21741 0.21741,0.43482l0,0.65223c0,0.43482 0,0.65223 -0.21741,0.86964c0,0.21741 -0.21741,0.43482 -0.43482,0.43482c0,0.43482 -0.21741,0.43482 -0.43482,0.43482s-0.43482,0 -0.65223,-0.21741c-0.43482,-0.21741 -0.43482,-0.65223 -0.43482,-1.30446zm0.43482,0c0,0.43482 0,0.86964 0.21741,1.08705c0.21741,0.21741 0.21741,0.21741 0.43482,0.21741s0.21741,0 0.43482,-0.21741s0.21741,-0.43482 0.21741,-1.08705c0,-0.43482 0,-0.86964 -0.21741,-1.08705s-0.21741,-0.21741 -0.43482,-0.21741s-0.21741,0 -0.43482,0.21741s-0.21741,0.65223 -0.21741,1.08705z" stroke-width="5" stroke-miterlimit="10" stroke-dasharray=""></path><path data-v-9833e8b2="" transform="scale(0.19083969465648856)" fill="none" stroke="currentColor" paint-order="fill stroke markers" d="m15.56651,58.61381l0,0.43482l-1.9567,0l0,-0.21741c0,-0.21741 0.21741,-0.21741 0.21741,-0.43482s0.21741,-0.21741 0.43482,-0.43482c0.43482,-0.21741 0.65223,-0.43482 0.65223,-0.65223c0.21741,-0.21741 0.21741,-0.21741 0.21741,-0.43482s0,-0.21741 -0.21741,-0.43482c0,0 -0.21741,-0.21741 -0.43482,-0.21741s-0.43482,0 -0.43482,0.21741s-0.21741,0.21741 -0.21741,0.43482l-0.43482,0c0,-0.21741 0.21741,-0.43482 0.21741,-0.65223c0.21741,-0.21741 0.43482,-0.21741 0.65223,-0.21741c0.21741,0 0.43482,0 0.65223,0.21741s0.65223,0.21741 0.65223,0.65223l0,0.43482c0,0.21741 -0.21741,0.21741 -0.21741,0.43482s-0.21741,0.21741 -0.65223,0.65223c-0.21741,0.21741 -0.43482,0.21741 -0.43482,0.43482l-0.21741,0.21741l1.52187,0l0,-0.43482zm0.43482,-1.08705c0,-0.43482 0,-0.65223 0.21741,-0.86964c0,-0.21741 0.21741,-0.43482 0.43482,-0.43482s0.43482,-0.21741 0.65223,-0.21741l0.43482,0c0.21741,0 0.21741,0.21741 0.21741,0.21741c0,0.21741 0.21741,0.21741 0.21741,0.43482l0,0.65223c0,0.43482 0,0.65223 -0.21741,0.86964c0,0.21741 -0.21741,0.43482 -0.43482,0.43482c0,0.43482 -0.21741,0.43482 -0.43482,0.43482s-0.43482,0 -0.65223,-0.21741c-0.43482,-0.21741 -0.43482,-0.65223 -0.43482,-1.30446zm0.43482,0c0,0.43482 0,0.86964 0.21741,1.08705c0.21741,0.21741 0.21741,0.21741 0.43482,0.21741s0.21741,0 0.43482,-0.21741s0.21741,-0.43482 0.21741,-1.08705c0,-0.43482 0,-0.86964 -0.21741,-1.08705s-0.21741,-0.21741 -0.43482,-0.21741s-0.21741,0 -0.43482,0.21741s-0.21741,0.65223 -0.21741,1.08705z" stroke-width="5" stroke-miterlimit="10" stroke-dasharray=""></path><path data-v-9833e8b2="" transform="scale(0.19083969465648856)" fill="none" stroke="currentColor" paint-order="fill stroke markers" d="m17.08838,82.96379l-0.43482,0l0,-2.39152s-0.21741,0.21741 -0.43482,0.21741s-0.21741,0.21741 -0.43482,0.21741l0,-0.43482c0.21741,0 0.43482,-0.21741 0.65223,-0.43482l0.43482,-0.43482l0.21741,0l0,3.26116zm1.08705,-1.52187c0,-0.43482 0,-0.65223 0.21741,-0.86964c0,-0.21741 0.21741,-0.43482 0.43482,-0.43482s0.43482,-0.21741 0.65223,-0.21741l0.43482,0c0.21741,0 0.21741,0.21741 0.21741,0.21741c0,0.21741 0.21741,0.21741 0.21741,0.43482l0,0.65223c0,0.43482 0,0.65223 -0.21741,0.86964c0,0.21741 -0.21741,0.43482 -0.43482,0.43482c0,0.43482 -0.21741,0.43482 -0.43482,0.43482s-0.43482,0 -0.65223,-0.21741c-0.43482,-0.21741 -0.43482,-0.65223 -0.43482,-1.30446zm0.43482,0c0,0.43482 0,0.86964 0.21741,1.08705c0.21741,0.21741 0.21741,0.21741 0.43482,0.21741s0.21741,0 0.43482,-0.21741s0.21741,-0.43482 0.21741,-1.08705c0,-0.43482 0,-0.86964 -0.21741,-1.08705s-0.21741,-0.21741 -0.43482,-0.21741s-0.21741,0 -0.43482,0.21741s-0.21741,0.65223 -0.21741,1.08705z" stroke-width="5" stroke-miterlimit="10" stroke-dasharray=""></path><path data-v-9833e8b2="" transform="scale(0.19083969465648856)" fill="none" stroke="currentColor" paint-order="fill stroke markers" d="m28.82856,103.18298c0,-0.43482 0,-0.65223 0.21741,-0.86964c0,-0.21741 0.21741,-0.43482 0.43482,-0.43482s0.43482,-0.21741 0.65223,-0.21741l0.43482,0c0.21741,0 0.21741,0.21741 0.21741,0.21741c0,0.21741 0.21741,0.21741 0.21741,0.43482l0,0.65223c0,0.43482 0,0.65223 -0.21741,0.86964c0,0.21741 -0.21741,0.43482 -0.43482,0.43482c-0.21741,0.43482 -0.21741,0.43482 -0.65223,0.43482c-0.21741,0 -0.43482,0 -0.65223,-0.21741c-0.21741,-0.21741 -0.21741,-0.65223 -0.21741,-1.30446zm0.43482,0c0,0.43482 0,0.86964 0.21741,1.08705c0.21741,0.21741 0.21741,0.21741 0.43482,0.21741s0.21741,0 0.43482,-0.21741s0.21741,-0.43482 0.21741,-1.08705c0,-0.43482 0,-0.86964 -0.21741,-1.08705s-0.21741,-0.21741 -0.43482,-0.21741s-0.21741,0 -0.43482,0.21741s-0.21741,0.65223 -0.21741,1.08705z" stroke-width="5" stroke-miterlimit="10" stroke-dasharray=""></path><path data-v-9833e8b2="" transform="scale(0.19083969465648856)" fill="none" stroke="currentColor" paint-order="fill stroke markers" d="m87.312,19.69731l-0.43482,0c0,-0.21741 0,-0.21741 -0.21741,-0.43482c0,0 -0.21741,-0.21741 -0.43482,-0.21741l-0.21741,0c-0.21741,0 -0.21741,0.21741 -0.21741,0.43482l0,0.65223c0,-0.21741 0.21741,-0.21741 0.43482,-0.21741l0.43482,0c0.21741,0 0.43482,0 0.65223,0.21741c0.21741,0.21741 0.21741,0.43482 0.21741,0.65223c0,0.21741 0,0.43482 -0.21741,0.43482c0,0.21741 -0.21741,0.21741 -0.43482,0.43482s-0.21741,0.43482 -0.43482,0.43482s-0.65223,-0.21741 -0.86964,-0.43482c-0.21741,-0.21741 -0.21741,-0.65223 -0.21741,-1.08705c0,-0.65223 0.21741,-1.08705 0.43482,-1.30446c0.21741,-0.21741 0.43482,-0.43482 0.86964,-0.43482c0.21741,0 0.43482,0 0.65223,0.21741c-0.21741,0.21741 0,0.43482 0,0.65223zm-1.52187,1.30446l0,0.43482c0,0.21741 0.21741,0.21741 0.21741,0.21741l0.21741,0c0.21741,0 0.21741,0 0.43482,-0.21741s0.21741,-0.21741 0.21741,-0.43482s0,-0.43482 -0.21741,-0.43482c-0.21741,-0.21741 -0.21741,-0.21741 -0.43482,-0.21741s-0.21741,0 -0.43482,0.21741l0,0.43482zm1.9567,-0.43482c0,-0.43482 0,-0.65223 0.21741,-0.86964c0,-0.21741 0.21741,-0.43482 0.43482,-0.43482c0.21741,-0.21741 0.43482,-0.21741 0.65223,-0.21741l0.43482,0c0.21741,0 0.21741,0.21741 0.21741,0.21741c0,0.21741 0.21741,0.21741 0.21741,0.43482l0,0.65223c0,0.43482 0,0.65223 -0.21741,0.86964c0,0.21741 -0.21741,0.43482 -0.43482,0.43482c0,0.43482 -0.21741,0.43482 -0.43482,0.43482s-0.43482,0 -0.65223,-0.21741c-0.43482,-0.21741 -0.43482,-0.65223 -0.43482,-1.30446zm0.43482,0c0,0.43482 0,0.86964 0.21741,1.08705c0.21741,0.21741 0.21741,0.21741 0.43482,0.21741s0.21741,0 0.43482,-0.21741s0.21741,-0.43482 0.21741,-1.08705c0,-0.43482 0,-0.86964 -0.21741,-1.08705c-0.21741,-0.21741 -0.21741,-0.21741 -0.43482,-0.21741s-0.21741,0 -0.43482,0.21741s-0.21741,0.65223 -0.21741,1.08705z" stroke-width="5" stroke-miterlimit="10" stroke-dasharray=""></path><path data-v-9833e8b2="" transform="scale(0.19083969465648856)" fill="none" stroke="currentColor" paint-order="fill stroke markers" d="m104.92226,34.69864l0,-0.43482l1.9567,0l0,0.21741c-0.21741,0.21741 -0.43482,0.43482 -0.65223,0.86964c-0.21741,0.43482 -0.43482,0.65223 -0.43482,1.08705c0,0.21741 -0.21741,0.65223 -0.21741,0.86964l-0.43482,0c0,-0.21741 0,-0.43482 0.21741,-0.86964s0.21741,-0.65223 0.43482,-1.08705c0.21741,-0.21741 0.43482,-0.65223 0.65223,-0.86964l-1.52187,0l0,0.21741zm2.39152,1.08705c0,-0.43482 0,-0.65223 0.21741,-0.86964c0,-0.21741 0.21741,-0.43482 0.43482,-0.43482c0.21741,-0.21741 0.43482,-0.21741 0.65223,-0.21741l0.43482,0c0.21741,0 0.21741,0.21741 0.21741,0.21741c0,0.21741 0.21741,0.21741 0.21741,0.43482l0,0.65223c0,0.43482 0,0.65223 -0.21741,0.86964c0,0.21741 -0.21741,0.43482 -0.43482,0.43482c0,0.43482 -0.21741,0.43482 -0.43482,0.43482s-0.43482,0 -0.65223,-0.21741c-0.43482,-0.21741 -0.43482,-0.65223 -0.43482,-1.30446zm0.43482,0c0,0.43482 0,0.86964 0.21741,1.08705c0.21741,0.21741 0.21741,0.21741 0.43482,0.21741s0.21741,0 0.43482,-0.21741s0.21741,-0.43482 0.21741,-1.08705c0,-0.43482 0,-0.86964 -0.21741,-1.08705c-0.21741,-0.21741 -0.21741,-0.21741 -0.43482,-0.21741s-0.21741,0 -0.43482,0.21741s-0.21741,0.65223 -0.21741,1.08705z" stroke-width="5" stroke-miterlimit="10" stroke-dasharray=""></path><path data-v-9833e8b2="" transform="scale(0.19083969465648856)" fill="none" stroke="currentColor" paint-order="fill stroke markers" d="m114.27092,57.30935c-0.21741,0 -0.21741,-0.21741 -0.43482,-0.21741s-0.21741,-0.21741 -0.21741,-0.43482s0,-0.43482 0.21741,-0.65223s0.43482,-0.21741 0.65223,-0.21741c0.21741,0 0.43482,0 0.65223,0.21741c0.21741,0.21741 0.21741,0.43482 0.21741,0.65223c0,0.21741 0,0.21741 -0.21741,0.43482c0,0 -0.21741,0.21741 -0.43482,0.21741c0.21741,0 0.43482,0.21741 0.43482,0.21741c0,0.21741 0.21741,0.21741 0.21741,0.43482s0,0.43482 -0.21741,0.65223s-0.21741,0.43482 -0.43482,0.43482s-0.65223,0 -0.65223,-0.21741c-0.21741,-0.21741 -0.21741,-0.43482 -0.21741,-0.65223c0,-0.21741 0,-0.43482 0.21741,-0.43482c-0.21741,-0.21741 0,-0.43482 0.21741,-0.43482zm-0.21741,0.86964l0,0.21741l0.21741,0.21741l0.43482,0c0.21741,0 0.43482,0 0.43482,-0.21741s0.21741,-0.21741 0.21741,-0.43482s0,-0.43482 -0.21741,-0.43482c-0.21741,-0.21741 -0.21741,-0.21741 -0.43482,-0.21741s-0.43482,0 -0.43482,0.21741c-0.21741,0.21741 -0.21741,0.43482 -0.21741,0.65223zm0,-1.52187c0,0.21741 0,0.21741 0.21741,0.43482s0.21741,0.21741 0.43482,0.21741s0.21741,0 0.43482,-0.21741c0,0 0.21741,-0.21741 0.21741,-0.43482s0,-0.21741 -0.21741,-0.43482c0,0 -0.21741,-0.21741 -0.43482,-0.21741s-0.21741,0 -0.43482,0.21741s-0.21741,0.43482 -0.21741,0.43482zm1.9567,0.86964c0,-0.43482 0,-0.65223 0.21741,-0.86964c0,-0.21741 0.21741,-0.43482 0.43482,-0.43482c0.21741,-0.21741 0.43482,-0.21741 0.65223,-0.21741l0.43482,0c0.21741,0 0.21741,0.21741 0.21741,0.21741c0,0.21741 0.21741,0.21741 0.21741,0.43482l0,0.65223c0,0.43482 0,0.65223 -0.21741,0.86964c0,0.21741 -0.21741,0.43482 -0.43482,0.43482c0,0.43482 -0.21741,0.43482 -0.43482,0.43482s-0.43482,0 -0.65223,-0.21741c-0.43482,-0.21741 -0.43482,-0.65223 -0.43482,-1.30446zm0.43482,0c0,0.43482 0,0.86964 0.21741,1.08705c0.21741,0.21741 0.21741,0.21741 0.43482,0.21741s0.21741,0 0.43482,-0.21741s0.21741,-0.43482 0.21741,-1.08705c0,-0.43482 0,-0.86964 -0.21741,-1.08705c-0.21741,-0.21741 -0.21741,-0.21741 -0.43482,-0.21741s-0.21741,0 -0.43482,0.21741s-0.21741,0.65223 -0.21741,1.08705z" stroke-width="5" stroke-miterlimit="10" stroke-dasharray=""></path><path data-v-9833e8b2="" transform="scale(0.19083969465648856)" fill="none" stroke="currentColor" paint-order="fill stroke markers" d="m111.44458,82.31156l0.43482,0c0,0.21741 0,0.21741 0.21741,0.43482s0.21741,0.21741 0.43482,0.21741l0.21741,0l0.21741,-0.21741s0,-0.21741 0.21741,-0.43482s0,-0.21741 0,-0.43482c0,0.21741 -0.21741,0.21741 -0.21741,0.21741c-0.21741,0 -0.21741,0.21741 -0.43482,0.21741s-0.43482,0 -0.65223,-0.21741s-0.21741,-0.43482 -0.21741,-0.65223c0,-0.21741 0,-0.65223 0.21741,-0.86964c0.21741,-0.21741 0.43482,-0.21741 0.65223,-0.21741c0.21741,0 0.43482,0 0.65223,0.21741c0.21741,0 0.21741,0.21741 0.43482,0.43482c0,0.21741 0.21741,0.43482 0.21741,0.86964s0,0.65223 -0.21741,0.86964c0,0.21741 -0.21741,0.43482 -0.43482,0.43482c-0.43482,-0.21741 -0.65223,-0.21741 -0.86964,-0.21741c-0.21741,0 -0.43482,0 -0.65223,-0.21741c0,0 -0.21741,-0.21741 -0.21741,-0.43482zm1.52187,-1.52187c0,-0.21741 0,-0.43482 -0.21741,-0.43482c-0.21741,-0.21741 -0.21741,-0.21741 -0.43482,-0.21741s-0.21741,0 -0.43482,0.21741s-0.21741,0.21741 -0.21741,0.43482s0,0.43482 0.21741,0.43482c0.21741,0.21741 0.21741,0.21741 0.43482,0.21741s0.21741,0 0.43482,-0.21741c0.21741,0 0.21741,-0.21741 0.21741,-0.43482zm0.86964,0.65223c0,-0.43482 0,-0.65223 0.21741,-0.86964c0,-0.21741 0.21741,-0.43482 0.43482,-0.43482c0.21741,-0.21741 0.43482,-0.21741 0.65223,-0.21741l0.43482,0c0.21741,0 0.21741,0.21741 0.21741,0.21741c0,0.21741 0.21741,0.21741 0.21741,0.43482l0,0.65223c0,0.43482 0,0.65223 -0.21741,0.86964c0,0.21741 -0.21741,0.43482 -0.43482,0.43482c0,0.43482 -0.21741,0.43482 -0.43482,0.43482s-0.43482,0 -0.65223,-0.21741c-0.43482,-0.21741 -0.43482,-0.65223 -0.43482,-1.30446zm0.43482,0c0,0.43482 0,0.86964 0.21741,1.08705c0.21741,0.21741 0.21741,0.21741 0.43482,0.21741s0.21741,0 0.43482,-0.21741s0.21741,-0.43482 0.21741,-1.08705c0,-0.43482 0,-0.86964 -0.21741,-1.08705c-0.21741,-0.21741 -0.21741,-0.21741 -0.43482,-0.21741s-0.21741,0 -0.43482,0.21741s-0.21741,0.65223 -0.21741,1.08705z" stroke-width="5" stroke-miterlimit="10" stroke-dasharray=""></path><path data-v-9833e8b2="" transform="scale(0.19083969465648856)" fill="none" stroke="currentColor" paint-order="fill stroke markers" d="m97.5303,104.70485l-0.43482,0l0,-2.39152s-0.21741,0.21741 -0.43482,0.21741s-0.21741,0.21741 -0.43482,0.21741l0,-0.43482c0.21741,0 0.43482,-0.21741 0.65223,-0.43482l0.43482,-0.43482l0.21741,0l0,3.26116zm1.08705,-1.52187c0,-0.43482 0,-0.65223 0.21741,-0.86964c0,-0.21741 0.21741,-0.43482 0.43482,-0.43482c0.21741,-0.21741 0.43482,-0.21741 0.65223,-0.21741l0.43482,0c0.21741,0 0.21741,0.21741 0.21741,0.21741c0,0.21741 0.21741,0.21741 0.21741,0.43482l0,0.65223c0,0.43482 0,0.65223 -0.21741,0.86964c0,0.21741 -0.21741,0.43482 -0.43482,0.43482c0,0.43482 -0.21741,0.43482 -0.43482,0.43482s-0.43482,0 -0.65223,-0.21741c-0.43482,-0.21741 -0.43482,-0.65223 -0.43482,-1.30446zm0.43482,0c0,0.43482 0,0.86964 0.21741,1.08705c0.21741,0.21741 0.21741,0.21741 0.43482,0.21741s0.21741,0 0.43482,-0.21741s0.21741,-0.43482 0.21741,-1.08705c0,-0.43482 0,-0.86964 -0.21741,-1.08705c-0.21741,-0.21741 -0.21741,-0.21741 -0.43482,-0.21741s-0.21741,0 -0.43482,0.21741s-0.21741,0.65223 -0.21741,1.08705zm1.9567,0c0,-0.43482 0,-0.65223 0.21741,-0.86964c0,-0.21741 0.21741,-0.43482 0.43482,-0.43482c0.21741,-0.21741 0.43482,-0.21741 0.65223,-0.21741l0.43482,0c0.21741,0 0.21741,0.21741 0.21741,0.21741c0,0.21741 0.21741,0.21741 0.21741,0.43482l0,0.65223c0,0.43482 0,0.65223 -0.21741,0.86964c0,0.21741 -0.21741,0.43482 -0.43482,0.43482c0,0.43482 -0.21741,0.43482 -0.43482,0.43482s-0.43482,0 -0.65223,-0.21741c-0.21741,-0.21741 -0.43482,-0.65223 -0.43482,-1.30446zm0.43482,0c0,0.43482 0,0.86964 0.21741,1.08705c0.21741,0.21741 0.21741,0.21741 0.43482,0.21741s0.21741,0 0.43482,-0.21741s0.21741,-0.43482 0.21741,-1.08705c0,-0.43482 0,-0.86964 -0.21741,-1.08705c-0.21741,-0.21741 -0.21741,-0.21741 -0.43482,-0.21741s-0.21741,0 -0.43482,0.21741s-0.21741,0.65223 -0.21741,1.08705z" stroke-width="5" stroke-miterlimit="10" stroke-dasharray=""></path><path data-v-9833e8b2="" transform="scale(0.19083969465648856)" fill="none" stroke="currentColor" paint-order="fill stroke markers" d="m63.39684,64.48389l2.39152,3.26116l1.9567,-3.26116l-1.9567,-38.04685l-2.39152,38.04685z" stroke-width="5" stroke-miterlimit="10" stroke-dasharray=""></path><path data-v-9833e8b2="" transform="scale(0.19083969465648856)" fill="none" stroke="currentColor" paint-order="fill stroke markers" d="m21.65401,112.74904c-13.04464,-12.17499 -20.65401,-29.35043 -20.65401,-47.1781c0,-35.65534 28.91561,-64.57094 64.57094,-64.57094s64.57094,28.91561 64.57094,64.57094c0,17.39285 -6.73973,33.69864 -19.13213,45.87363l-2.17411,-2.17411c11.74017,-11.74017 18.26249,-27.17632 18.26249,-43.69953c0,-33.91605 -27.61114,-61.5272 -61.5272,-61.5272s-61.52719,27.61114 -61.52719,61.5272c0,16.95803 7.17455,33.48123 19.56695,45.00399l-1.9567,2.17411z" stroke-width="5" stroke-miterlimit="10" stroke-dasharray=""></path><path data-v-9833e8b2="" transform="scale(0.19083969465648856)" fill="none" stroke="currentColor" paint-order="fill stroke markers" d="m59.48345,77.31112c0.21741,0.21741 0.43482,0.43482 0.43482,0.86964l-0.65223,0c0,-0.21741 -0.21741,-0.43482 -0.21741,-0.43482c-0.21741,-0.21741 -0.43482,-0.21741 -0.65223,-0.21741l-0.65223,0c-0.21741,0 -0.21741,0.21741 -0.21741,0.43482s0,0.21741 0.21741,0.43482c0,0 0.21741,0.21741 0.65223,0.21741c0.43482,0.21741 0.86964,0.21741 0.86964,0.43482c0.21741,0.21741 0.43482,0.43482 0.43482,0.86964s-0.21741,0.65223 -0.43482,0.86964l-0.65223,0c-0.43482,0 -0.86964,0 -1.08705,-0.21741c-0.21741,-0.21741 -0.43482,-0.65223 -0.43482,-1.08705l0.65223,0c0,0.21741 0.21741,0.43482 0.21741,0.65223c0.21741,0.21741 0.43482,0.21741 0.65223,0.21741c0.21741,0 0.43482,0 0.65223,-0.21741s0.21741,-0.21741 0.21741,-0.43482s-0.21741,-0.43482 -0.43482,-0.43482c0,0 -0.43482,-0.21741 -0.65223,-0.21741c-0.43482,-0.21741 -0.65223,-0.21741 -0.86964,-0.21741c-0.21741,-0.21741 -0.43482,-0.43482 -0.43482,-0.65223c0,-0.43482 0.21741,-0.65223 0.43482,-0.86964c0.21741,-0.21741 0.65223,-0.21741 1.08705,-0.21741s0.65223,0 0.86964,0.21741zm3.91339,0c0.21741,0.21741 0.43482,0.43482 0.43482,0.86964l-0.65223,0c0,-0.21741 -0.21741,-0.43482 -0.43482,-0.65223c-0.21741,-0.21741 -0.43482,-0.21741 -0.65223,-0.21741c-0.43482,0 -0.65223,0.21741 -0.86964,0.43482c-0.21741,0.21741 -0.21741,0.65223 -0.21741,1.08705s0,0.86964 0.21741,1.08705c0.21741,0.21741 0.43482,0.43482 0.86964,0.43482c0.21741,0 0.43482,0 0.65223,-0.21741c0.21741,-0.21741 0.21741,-0.43482 0.43482,-0.65223l0.65223,0c0,0.43482 -0.21741,0.86964 -0.65223,1.08705c-0.21741,0.21741 -0.65223,0.21741 -0.86964,0.21741c-0.65223,0 -1.08705,-0.21741 -1.30446,-0.65223c-0.21741,-0.43482 -0.43482,-0.86964 -0.43482,-1.30446c0,-0.65223 0.21741,-1.08705 0.43482,-1.30446c0.21741,-0.43482 0.65223,-0.65223 1.30446,-0.65223c0.43482,0.21741 0.65223,0.21741 1.08705,0.43482zm3.91339,0.21741c0.21741,0.43482 0.43482,0.86964 0.43482,1.30446c0,0.65223 -0.21741,1.08705 -0.43482,1.30446c-0.43482,0.43482 -0.86964,0.65223 -1.30446,0.65223c-0.65223,0 -1.08705,-0.21741 -1.30446,-0.65223c-0.21741,-0.43482 -0.43482,-0.86964 -0.43482,-1.30446c0,-0.65223 0.21741,-1.08705 0.43482,-1.30446c0.21741,-0.43482 0.86964,-0.65223 1.30446,-0.65223c0.65223,0.21741 1.08705,0.21741 1.30446,0.65223zm-2.17411,0.43482c-0.21741,0.21741 -0.21741,0.65223 -0.21741,1.08705s0,0.86964 0.21741,1.08705c0.21741,0.21741 0.43482,0.43482 0.86964,0.43482s0.65223,-0.21741 0.86964,-0.43482c0.21741,-0.21741 0.21741,-0.65223 0.21741,-1.08705s-0.21741,-0.86964 -0.21741,-1.08705c-0.21741,-0.21741 -0.43482,-0.43482 -0.86964,-0.43482s-0.65223,0 -0.86964,0.43482zm5.00044,-0.86964c0.43482,0 0.65223,0 0.86964,0.21741c0.21741,0.21741 0.43482,0.43482 0.43482,0.86964c0,0.21741 0,0.43482 -0.21741,0.43482l-0.43482,0.43482c0.43482,0 0.43482,0.21741 0.65223,0.65223l0,0.65223c0,0.21741 0,0.43482 0.21741,0.65223l-0.65223,0c0,-0.21741 -0.21741,-0.21741 -0.21741,-0.43482l0,-0.43482c0,-0.21741 0,-0.43482 -0.21741,-0.43482s-0.21741,-0.21741 -0.43482,-0.21741l-1.08705,0l0,1.30446l-0.65223,0l0,-3.69598l1.73928,0zm-1.08705,1.73929l1.08705,0c0.21741,0 0.43482,0 0.65223,-0.21741c0.21741,0 0.21741,-0.21741 0.21741,-0.43482s0,-0.43482 -0.21741,-0.43482s-0.21741,-0.21741 -0.65223,-0.21741l-1.08705,0l0,1.30446zm5.65267,-1.73929l0,0.43482l-2.1741,0l0,1.08705l1.9567,0l0,0.43482l-1.9567,0l0,1.08705l2.1741,0l0,0.65223l-2.60893,0l0,-3.69598l2.60893,0z" stroke-width="5" stroke-miterlimit="10" stroke-dasharray=""></path><path data-v-9833e8b2="" transform="scale(0.19083969465648856)" fill="none" stroke="currentColor" paint-order="fill stroke markers" d="m65.13612,6.43527l0.86964,0l0,3.04375l-0.86964,0l0,-3.04375zm25.40443,9.15951l1.47622,-2.66328l0.76094,0.42178l-1.47839,2.66328l-0.75876,-0.42178zm20.07787,16.3471l2.52414,-1.70015l0.487,0.7218l-2.52414,1.70015l-0.487,-0.7218zm8.87035,24.49782l3.04375,0l0,0.86964l-3.04375,0l0,-0.86964zm-2.23933,26.4393l0.28263,-0.82181l2.87634,0.99139l-0.28263,0.82181l-2.87634,-0.99139zm-13.16856,21.88238l0.537,-0.68702l2.39804,1.87408l-0.53483,0.68484l-2.40021,-1.87191zm-66.78418,-91.41898l0.76963,-0.40873l1.42839,2.68719l-0.76746,0.40873l-1.43056,-2.68719zm-20.77358,17.43415l0.54787,-0.67397l2.36543,1.91321l-0.54787,0.67615l-2.36543,-1.91539zm-9.0008,25.66314l3.04375,0l0,0.86964l-3.04375,0l0,-0.86964zm2.11323,26.50235l2.93939,-0.79137l0.22611,0.8392l-2.93939,0.79137l-0.22611,-0.8392zm13.97515,23.71949l-0.43482,-0.65223l2.17411,-1.9567l0.65223,0.65223l-2.39152,1.9567z" stroke-width="5" stroke-miterlimit="10" stroke-dasharray=""></path></g></svg>