<svg data-v-9833e8b2="" version="1.1" xmlns="http://www.w3.org/2000/svg" xmlns:xlink="http://www.w3.org/1999/xlink" width="25" height="25"><g data-v-9833e8b2=""><path data-v-9833e8b2="" transform="scale(0.12254901960784313)" fill="none" stroke="currentColor" paint-order="fill stroke markers" d="m61.10013,54.84629a6.23847,6.23847 0 0 0 -6.25386,6.25386l0,87.50019c0,3.46155 2.79231,6.24617 6.25386,6.24617c3.46155,0 6.24617,-2.79231 6.24617,-6.25386l0,-87.4925a6.23847,6.23847 0 0 0 -6.25386,-6.25386l0.00769,0zm43.74625,0a6.23847,6.23847 0 0 0 -6.25386,6.25386l0,87.50019c0,3.46155 2.79231,6.24617 6.25386,6.24617c3.46155,0 6.25386,-2.79231 6.25386,-6.25386l0,-87.4925a6.23847,6.23847 0 0 0 -6.25386,-6.25386zm43.75394,0a6.23847,6.23847 0 0 0 -6.25386,6.25386l0,87.50019c0,3.46155 2.79231,6.24617 6.25386,6.24617c3.46155,0 6.24617,-2.79231 6.24617,-6.25386l0,-87.4925a6.23847,6.23847 0 0 0 -6.25386,-6.25386l0.00769,0z" stroke-width="5" stroke-miterlimit="10" stroke-dasharray=""></path><path data-v-9833e8b2="" transform="scale(0.12254901960784313)" fill="none" stroke="currentColor" paint-order="fill stroke markers" d="m188.5004,51.00013l0,-25.00005c0,-6.90002 -5.60001,-12.50003 -12.50003,-12.50003l-12.50003,0l0,-6.25386a6.23847,6.23847 0 0 0 -6.25386,-6.24617a6.23847,6.23847 0 0 0 -6.24617,6.25386l0,6.24617l-25.00006,0l0,-6.25386a6.23847,6.23847 0 0 0 -6.25386,-6.24617a6.23847,6.23847 0 0 0 -6.24617,6.25386l0,6.24617l-25.00005,0l0,-6.25386a6.23847,6.23847 0 0 0 -6.25386,-6.24617a6.23847,6.23847 0 0 0 -6.24617,6.25386l0,6.24617l-25.00005,0l0,-6.25386a6.23847,6.23847 0 0 0 -6.25386,-6.24617a6.23847,6.23847 0 0 0 -6.24617,6.25386l0,6.24617l-12.50003,0c-6.90001,0 -12.50003,5.60001 -12.50003,12.50003l0,25.00005c-6.90001,0 -12.50003,5.60001 -12.50003,12.50003l0,75.00016c0,6.90002 5.60001,12.50003 12.50003,12.50003l0,25.00005c0,6.90001 5.60001,12.50003 12.50003,12.50003l12.50003,0c0,6.90002 5.60001,12.50003 12.50003,12.50003l37.50008,0c6.90001,0 12.50003,-5.60001 12.50003,-12.50003l12.50003,0c0,6.90002 5.60001,12.50003 12.50003,12.50003l37.50008,0c6.90002,0 12.50003,-5.60001 12.50003,-12.50003c6.90002,0 12.50003,-5.60001 12.50003,-12.50003l0,-25.00005c6.90002,0 12.50003,-5.60001 12.50003,-12.50003l0,-75.00016c0,-6.90001 -5.60001,-12.50003 -12.50003,-12.50003l0,0zm0,87.50019l-12.50003,0l0,37.50008l-12.50003,0l0,12.50003l-37.50008,0l0,-12.50003l-37.50008,0l0,12.50003l-37.50008,0l0,-12.50003l-25.00005,0l0,-37.50008l-12.50003,0l0,-75.00016l12.50003,0l0,-37.50008l150.00032,0l0,37.50008l12.50003,0l0,75.00016z" stroke-width="5" stroke-miterlimit="10" stroke-dasharray=""></path></g></svg>