<svg data-v-9833e8b2="" version="1.1" xmlns="http://www.w3.org/2000/svg" xmlns:xlink="http://www.w3.org/1999/xlink" width="24.5" height="25"><g data-v-9833e8b2=""><path data-v-9833e8b2="" transform="scale(0.14124293785310735)" fill="none" stroke="currentColor" paint-order="fill stroke markers" d="m22.2315,119.44385c2.717,0 4.91974,-2.20528 4.91974,-4.91954c0,-2.71934 -2.20274,-4.91974 -4.91974,-4.91974c-2.71446,0 -4.91974,2.20059 -4.91974,4.91974c0,2.71426 2.20528,4.91954 4.91974,4.91954m55.26635,-43.8462c-2.6377,2.64024 -2.6377,6.9258 0,9.56311c2.63985,2.64024 6.92541,2.64239 9.56545,-0.00117c2.64005,-2.63614 2.6377,-6.9217 0,-9.56311c-2.64258,-2.63633 -6.9258,-2.63633 -9.56545,0.00117m4.79591,54.71752c12.78929,-0.00117 25.57858,-4.86798 35.31122,-14.60336c17.71606,-17.71606 19.2606,-45.51203 4.7465,-65.05876l-6.1506,6.15099c11.20882,16.11391 9.67014,38.46631 -4.68341,52.82045c-14.32289,14.32328 -36.61415,15.87602 -52.7222,4.73243l-6.15431,6.15431c8.78733,6.49709 19.20552,9.80393 29.65281,9.80393" stroke-width="5" stroke-miterlimit="10" stroke-dasharray=""></path><path data-v-9833e8b2="" transform="scale(0.14124293785310735)" fill="none" stroke="currentColor" paint-order="fill stroke markers" d="m41.78917,142.54567l0,-21.71197l24.37389,-24.33932c-4.3047,-4.30333 -6.6758,-10.02659 -6.6758,-16.11508c0,-6.0883 2.36973,-11.81292 6.67463,-16.11645c8.89026,-8.88811 23.35162,-8.88576 32.23719,-0.00234l26.08815,-26.36764c-2.16075,-2.16075 -4.47911,-4.05392 -6.86545,-5.81681l12.52738,-12.5264c1.73926,-1.73809 2.69669,-4.05509 2.69669,-6.52209c-0.00117,-2.46817 -0.9586,-4.78517 -2.69786,-6.52209l-2.89825,-2.89805c-3.47599,-3.47618 -9.56799,-3.47735 -13.04398,0.00117l-18.35278,18.35141c-19.58872,-4.64923 -41.02588,0.55371 -56.23198,15.75863c-13.77796,13.77796 -19.50591,32.67723 -16.94516,50.74778l-18.26274,18.25884c-4.55099,4.5545 -4.55099,11.96566 0.00117,16.5225l2.35899,2.35743l-0.01797,39.82276l15.76586,0l0,6.4342c0,2.37715 1.92774,4.3047 4.3047,4.3047s4.3047,-1.92754 4.3047,-4.3047l0,-6.4342l108.39812,0l0,6.43556c0,2.37696 1.92754,4.3047 4.3047,4.3047c2.37696,0 4.3047,-1.92774 4.3047,-4.3047l0,-6.43556l16.29281,0l0,-22.88228l-122.64172,0zm78.50371,-132.84994c0.14414,-0.14414 0.31582,-0.17422 0.43516,-0.17422c0.11855,0 0.29141,0.03125 0.43555,0.17422l2.89727,2.89825c0.14414,0.14414 0.17539,0.31582 0.17539,0.43359c0,0.11895 -0.03008,0.29082 -0.17441,0.43496l-13.85941,13.85707c-1.67579,-0.89121 -3.38614,-1.69024 -5.12169,-2.41192l15.21215,-15.21195zm-109.79129,103.11686l14.42406,-14.42172c0.00371,0.01113 0.00586,0.02168 0.00957,0.03242l7.00236,-7.00314c-3.78927,-16.67973 0.91035,-34.75282 13.77054,-47.61418c17.97817,-17.97563 46.13547,-19.66802 66.2406,-5.22833l-14.39379,14.39164c-11.94964,-6.6506 -27.34206,-4.93439 -37.48037,5.20548c-5.93107,5.93087 -9.19807,13.81625 -9.1967,22.20474c0,5.4422 1.39571,10.66214 3.98146,15.285l-30.7157,30.78426c-1.19864,1.19864 -3.15157,1.2 -4.35021,-0.00117l-9.29065,-9.28694c-1.19746,-1.2 -1.19746,-3.1504 -0.00117,-4.34806m145.3199,44.00597l-140.4566,0l0.01797,-22.91353c1.97696,1.35254 4.27228,2.0459 6.57834,2.0459c2.99805,0 5.99962,-1.14375 8.28908,-3.43399l2.9293,-2.9668l-0.00742,21.60533l122.64933,0l0,5.6631z" stroke-width="5" stroke-miterlimit="10" stroke-dasharray=""></path></g></svg>