<svg data-v-9833e8b2="" version="1.1" xmlns="http://www.w3.org/2000/svg" xmlns:xlink="http://www.w3.org/1999/xlink" width="25" height="22.5"><g data-v-9833e8b2=""><path data-v-9833e8b2="" transform="scale(0.16778523489932887)" fill="none" stroke="currentColor" paint-order="fill stroke markers" d="m79.43909,94.14746l0,-49.02235c-5.40835,0 -9.80558,3.98057 -9.80558,8.91669l0,31.20563c0,4.91668 4.38335,8.90002 9.80558,8.90002zm4.90279,-49.02235l44.11955,0l0,6.81669l-44.11955,0l0,-6.81669zm0,26.42507l44.11955,0l0,9.80558l-44.11955,0l0,-9.80558zm0,-14.70559l44.11955,0l0,9.80558l-44.11955,0l0,-9.80558zm58.82793,28.38896l0,-31.19452c0,-4.91668 -4.39723,-8.91669 -9.80558,-8.91669l0,49.02512c5.42223,0 9.80558,-3.98334 9.80558,-8.91669l0,0.00278zm-49.02512,-45.014l24.51117,0c2.7139,0 4.90279,-2.19167 4.90279,-4.90279l0,-9.80558l-34.31398,0l0,9.80558c0,2.71112 2.18889,4.90279 4.90001,4.90279zm-53.92514,-19.61116l9.80558,0l0,-9.80558l-9.80558,0l0,-9.8028l-9.80558,0l0,9.80558l-9.80558,0l0,9.80558l19.61116,0l0,-0.00278z" stroke-width="5" stroke-miterlimit="10" stroke-dasharray=""></path><path data-v-9833e8b2="" transform="scale(0.16778523489932887)" fill="none" stroke="currentColor" paint-order="fill stroke markers" d="m123.56142,108.85305l0,-9.80558l4.90001,0l0,-12.78892l-44.11955,0l0,12.7917l4.90279,0l0,9.80558l-49.02512,0l0,-24.51395l9.80558,0l0,-9.80558l4.90279,0l0,4.90279l9.80558,0l0,-19.60838l-9.80558,0l0,4.90279l-4.90279,0l0,-9.80558l-9.80558,0l0,-19.61116l9.80558,0l0,-9.8028l-29.41674,0l0,9.80558l9.80558,0l0,19.61116l-4.90001,0l0,29.41119l4.90279,0l0,14.70837l-19.61116,0a9.81391,9.81391 0 0 0 -9.80558,9.80558l0,19.60838l147.08926,0l0,-19.61116l-24.52784,0zm-9.80558,0l-14.70837,0l0,-9.80558l14.70837,0l0,9.80558z" stroke-width="5" stroke-miterlimit="10" stroke-dasharray=""></path><path data-v-9833e8b2="" transform="scale(0.16778523489932887)" fill="none" stroke="currentColor" paint-order="fill stroke markers" d="m20.61116,84.34188l0,-29.41396a9.81391,9.81391 0 0 0 -9.80558,9.80558l-9.80558,0l0,9.80558l9.80558,0a9.79447,9.79447 0 0 0 9.80558,9.80558l0,-0.00278z" stroke-width="5" stroke-miterlimit="10" stroke-dasharray=""></path></g></svg>