<svg data-v-9833e8b2="" version="1.1" xmlns="http://www.w3.org/2000/svg" xmlns:xlink="http://www.w3.org/1999/xlink" width="25" height="15"><g data-v-9833e8b2=""><path data-v-9833e8b2="" transform="scale(0.13368983957219252)" fill="none" stroke="currentColor" paint-order="fill stroke markers" d="m106.99636,108.05105c-10.13674,0 -18.35942,-8.24221 -18.35942,-18.35942c0,-10.13674 8.24221,-18.35942 18.35942,-18.35942c10.13674,0 18.35942,8.24221 18.35942,18.35942c0.01953,10.13674 -8.22268,18.35942 -18.35942,18.35942zm0,-32.83211c-7.96877,0 -14.45316,6.48439 -14.45316,14.45316s6.48439,14.45316 14.45316,14.45316s14.45316,-6.48439 14.45316,-14.45316s-6.46486,-14.45316 -14.45316,-14.45316zm79.59004,-6.77736l-118.53545,0l0,-51.89466c0,-3.22266 2.63673,-5.85939 5.85939,-5.85939l106.81668,0c3.22266,0 5.85939,2.63673 5.85939,5.85939l0,51.89466zm-114.62919,-3.90626l110.72294,0l0,-47.9884c0,-1.07422 -0.87891,-1.95313 -1.95313,-1.95313l-106.81668,0c-1.07422,0 -1.95313,0.87891 -1.95313,1.95313l0,47.9884zm-25.0528,-63.22047l17.8727,16.97289l-2.68985,2.83243l-17.87251,-16.97289l2.68966,-2.83243z" stroke-width="5" stroke-miterlimit="10" stroke-dasharray=""></path><path data-v-9833e8b2="" transform="scale(0.13368983957219252)" fill="none" stroke="currentColor" paint-order="fill stroke markers" d="m50.91165,6.74103l3.35196,2.00586l-9.91897,16.57543l-3.35196,-2.00586l9.91897,-16.57543z" stroke-width="5" stroke-miterlimit="10" stroke-dasharray=""></path><path data-v-9833e8b2="" transform="scale(0.13368983957219252)" fill="none" stroke="currentColor" paint-order="fill stroke markers" d="m65.12126,75.41425l-30.35164,0c-13.53519,0 -24.53131,-11.01565 -24.53131,-24.53131l0,-19.55083l54.68764,-14.37504l0.19531,58.45718zm-50.97669,-41.07432l0,16.52348c0,11.36722 9.25784,20.62505 20.62505,20.62505l26.44538,0l-0.17578,-49.47278l-46.89465,12.32425z" stroke-width="5" stroke-miterlimit="10" stroke-dasharray=""></path><path data-v-9833e8b2="" transform="scale(0.13368983957219252)" fill="none" stroke="currentColor" paint-order="fill stroke markers" d="m14.02738,51.82044l-13.02738,0l0,-13.02738l13.02738,0l0,13.02738zm-9.12112,-3.90626l5.21486,0l0,-5.21486l-5.21486,0l0,5.21486zm131.07455,-33.41805l-35.72275,0l0,-13.49613l35.72275,0l0,13.49613zm-31.81649,-3.90626l27.91023,0l0,-5.68361l-27.91023,0l0,5.68361zm82.42208,64.68766l-125.37141,0l0,-10.74221l125.35188,0l0,10.74221l0.01953,0zm-121.46515,-3.90626l117.53936,0l0,-2.92969l-117.53936,0l0,2.92969z" stroke-width="5" stroke-miterlimit="10" stroke-dasharray=""></path><path data-v-9833e8b2="" transform="scale(0.13368983957219252)" fill="none" stroke="currentColor" paint-order="fill stroke markers" d="m108.77371,12.543l3.90626,0l0,54.74623l-3.90626,0l0,-54.74623zm-14.82426,48.49622c-4.10157,0 -7.42189,-3.33985 -7.42189,-7.42189s3.33985,-7.42189 7.42189,-7.42189c4.10157,0 7.42189,3.33985 7.42189,7.42189s-3.32032,7.42189 -7.42189,7.42189zm0,-10.95706c-1.9336,0 -3.51563,1.58204 -3.51563,3.51563s1.58204,3.51563 3.51563,3.51563s3.51563,-1.58204 3.51563,-3.51563s-1.5625,-3.51563 -3.51563,-3.51563zm-21.01568,22.55865l3.90626,0l0,33.9454l-3.90626,0l0,-33.9454zm104.47292,0l3.90626,0l0,33.9454l-3.90626,0l0,-33.9454zm-70.41033,24.86334c-4.31642,0 -7.81252,-3.51563 -7.81252,-7.81252s3.51563,-7.81252 7.81252,-7.81252s7.81252,3.51563 7.81252,7.81252s-3.4961,7.81252 -7.81252,7.81252zm0,-11.73831c-2.16797,0 -3.90626,1.75782 -3.90626,3.90626s1.75782,3.90626 3.90626,3.90626c2.16797,0 3.90626,-1.75782 3.90626,-3.90626s-1.73829,-3.90626 -3.90626,-3.90626z" stroke-width="5" stroke-miterlimit="10" stroke-dasharray=""></path></g></svg>