<svg data-v-9833e8b2="" version="1.1" xmlns="http://www.w3.org/2000/svg" xmlns:xlink="http://www.w3.org/1999/xlink" width="25" height="22.5"><g data-v-9833e8b2=""><path data-v-9833e8b2="" transform="scale(0.14792899408284024)" fill="none" stroke="currentColor" paint-order="fill stroke markers" d="m147.2074,123.65851c-1.13672,0 -2.28516,-0.30859 -3.31837,-0.95899c-2.92188,-1.83594 -3.8047,-5.69337 -1.9668,-8.61721a65.36891,65.36891 0 0 0 5.28322,-10.34964c1.28907,-3.20118 4.92775,-4.75392 8.13088,-3.46485c3.20118,1.28907 4.75392,4.9297 3.46485,8.13088c-1.71875,4.26954 -3.83595,8.41799 -6.29494,12.33206c-1.1875,1.89063 -3.22071,2.92774 -5.29884,2.92774z" stroke-width="5" stroke-miterlimit="10" stroke-dasharray=""></path><path data-v-9833e8b2="" transform="scale(0.14792899408284024)" fill="none" stroke="currentColor" paint-order="fill stroke markers" d="m21.98052,123.65851c-2.07813,0 -4.11134,-1.03711 -5.29884,-2.92579c-7.7676,-12.36527 -11.87308,-26.62116 -11.87308,-41.22667c0,-10.6094 2.11524,-20.9024 6.28713,-30.59578c4.0254,-9.35159 9.78518,-17.74809 17.11918,-24.95514c7.32619,-7.19924 15.85746,-12.85159 25.35553,-16.79887c9.83206,-4.08399 20.26958,-6.15627 31.02352,-6.15627s21.19146,2.07227 31.02156,6.15627c9.49807,3.94728 18.02934,9.59963 25.35553,16.79887c7.334,7.20705 13.09378,15.6016 17.11918,24.95514c4.17384,9.69338 6.28908,19.98638 6.28908,30.59578c0,9.97463 -1.87696,19.69536 -5.57814,28.89265c-1.28907,3.20118 -4.9297,4.75392 -8.13088,3.46485c-3.20313,-1.28907 -4.75392,-4.9297 -3.46485,-8.13088c3.10157,-7.70705 4.67579,-15.85941 4.67579,-24.22662c-0.00195,-36.39658 -30.18562,-66.00603 -67.28728,-66.00603s-67.28533,29.60945 -67.28533,66.00603c0,12.25003 3.44337,24.20514 9.95901,34.57626c1.83594,2.92384 0.95508,6.78127 -1.9668,8.61721a6.2297,6.2297 0 0 1 -3.32032,0.95899z" stroke-width="5" stroke-miterlimit="10" stroke-dasharray=""></path><path data-v-9833e8b2="" transform="scale(0.14792899408284024)" fill="none" stroke="currentColor" paint-order="fill stroke markers" d="m7.31447,150.84803a6.20314,6.20314 0 0 1 -2.97071,-0.75586c-3.03516,-1.64454 -4.16407,-5.43751 -2.51954,-8.47268l14.64066,-27.03522c1.64454,-3.03516 5.43751,-4.16407 8.47268,-2.51954c3.03516,1.64454 4.16407,5.43751 2.51954,8.47268l-14.64066,27.03522c-1.13086,2.08985 -3.28126,3.2754 -5.50197,3.2754zm154.49648,0c-2.22071,0 -4.36915,-1.18555 -5.50197,-3.2754l-14.64066,-27.03522c-1.64454,-3.03516 -0.51563,-6.82814 2.51954,-8.47268c3.03516,-1.64454 6.82814,-0.51563 8.47268,2.51954l14.64066,27.03522c1.64454,3.03516 0.51563,6.82814 -2.51954,8.47268a6.22541,6.22541 0 0 1 -2.97071,0.75586z" stroke-width="5" stroke-miterlimit="10" stroke-dasharray=""></path><path data-v-9833e8b2="" transform="scale(0.14792899408284024)" fill="none" stroke="currentColor" paint-order="fill stroke markers" d="m161.74259,151.00038l-154.49258,0c-3.45118,0 -6.25002,-2.79884 -6.25002,-6.25002s2.79884,-6.25002 6.25002,-6.25002l154.49258,0c3.45118,0 6.25002,2.79884 6.25002,6.25002s-2.79884,6.25002 -6.25002,6.25002zm-43.04503,-66.54314c-0.26953,0 -0.54297,-0.01758 -0.81641,-0.05273l-34.66024,-4.52736c-3.42188,-0.44727 -5.83595,-3.58399 -5.38869,-7.00783c0.44727,-3.42188 3.58399,-5.834 7.00783,-5.38869l34.66024,4.52736c3.42188,0.44727 5.83595,3.58399 5.38869,7.00783c-0.41211,3.14845 -3.09962,5.44142 -6.19142,5.44142z" stroke-width="5" stroke-miterlimit="10" stroke-dasharray=""></path><path data-v-9833e8b2="" transform="scale(0.14792899408284024)" fill="none" stroke="currentColor" paint-order="fill stroke markers" d="m60.12906,103.88307c-1.64844,0 -3.29298,-0.64844 -4.5215,-1.9336c-2.38282,-2.4961 -2.29297,-6.45314 0.20508,-8.83596l25.28131,-24.13873c2.49805,-2.38477 6.45314,-2.29297 8.83596,0.20508c2.38282,2.4961 2.29297,6.45314 -0.20508,8.83596l-25.28131,24.13873a6.234,6.234 0 0 1 -4.31446,1.72852z" stroke-width="5" stroke-miterlimit="10" stroke-dasharray=""></path><path data-v-9833e8b2="" transform="scale(0.14792899408284024)" fill="none" stroke="currentColor" paint-order="fill stroke markers" d="m85.50998,80.96895c-2.28907,0 -4.4922,-1.26172 -5.58986,-3.44532l-15.69535,-31.2325c-1.55079,-3.08399 -0.30664,-6.84181 2.77735,-8.39065c3.08399,-1.55079 6.84181,-0.30664 8.39065,2.77735l15.69535,31.2325c1.55079,3.08399 0.30664,6.84181 -2.77735,8.39065a6.21408,6.21408 0 0 1 -2.80079,0.66797zm31.93953,18.35356c-0.19531,0 -0.39063,-0.00977 -0.58789,-0.02734c-3.43751,-0.32031 -5.96291,-3.3672 -5.64259,-6.80275l1.38672,-14.86722c0.32031,-3.43751 3.3672,-5.96291 6.80275,-5.64259c3.43751,0.32031 5.96291,3.3672 5.64259,6.80275l-1.38672,14.86722c-0.30078,3.24024 -3.02345,5.66994 -6.21486,5.66994zm-57.45718,4.68751c-1.66602,0 -3.32813,-0.66211 -4.55861,-1.97266l-10.22659,-10.89456c-2.36133,-2.51758 -2.23633,-6.47267 0.2793,-8.83401c2.51563,-2.36133 6.47267,-2.23633 8.83401,0.2793l10.22659,10.89456c2.36133,2.51758 2.23633,6.47267 -0.2793,8.83401c-1.20508,1.13282 -2.74219,1.69336 -4.2754,1.69336z" stroke-width="5" stroke-miterlimit="10" stroke-dasharray=""></path><path data-v-9833e8b2="" transform="scale(0.14792899408284024)" fill="none" stroke="currentColor" paint-order="fill stroke markers" d="m69.7951,49.67005c-2.43751,0 -4.75197,-1.4336 -5.75978,-3.82032c-1.34375,-3.1797 0.14648,-6.84572 3.32618,-8.18947l13.76566,-5.81251c3.1797,-1.3418 6.84572,0.14648 8.18947,3.32618c1.34375,3.1797 -0.14648,6.84572 -3.32618,8.18947l-13.76566,5.81251a6.26271,6.26271 0 0 1 -2.42969,0.49414z" stroke-width="5" stroke-miterlimit="10" stroke-dasharray=""></path></g></svg>