<svg data-v-9833e8b2="" version="1.1" xmlns="http://www.w3.org/2000/svg" xmlns:xlink="http://www.w3.org/1999/xlink" width="25" height="15"><g data-v-9833e8b2=""><path data-v-9833e8b2="" transform="scale(0.13368983957219252)" fill="none" stroke="currentColor" paint-order="fill stroke markers" d="m171.52675,1l-154.73723,0c-7.89476,0 -15.78951,4.73685 -15.78951,15.78951l0,31.57903c0,8.42107 3.1579,12.10529 8.42107,19.47373l8.42107,10.00003c2.63158,3.1579 7.89476,10.00003 16.84215,10.00003l0.52632,0l0,9.47371c0,4.21054 3.68422,7.89476 7.89476,7.89476l21.05268,0c4.21054,0 7.89476,-3.68422 7.89476,-7.89476l0,-9.47371l43.158,0l0,9.47371c0,4.21054 3.68422,7.89476 7.89476,7.89476l21.05268,0c4.21054,0 7.89476,-3.68422 7.89476,-7.89476l0,-9.47371l0.52632,0c8.94739,0 14.21056,-6.84212 16.84215,-10.00003l8.42107,-10.00003l0,-0.52632c5.26317,-7.36844 8.42107,-11.05266 8.42107,-19.47373l0,-31.57903c1.05263,-10.52634 -6.84212,-15.26319 -14.73688,-15.26319zm-106.31606,97.36867c0,0.52632 -0.52632,0.52632 -0.52632,0.52632l-21.05269,0c-0.52632,0 -0.52632,-0.52632 -0.52632,-0.52632l0,-9.47371l22.10532,0l0,9.47371zm80.52652,0c0,0.52632 -0.52632,0.52632 -0.52632,0.52632l-21.05268,0c-0.52632,0 -0.52632,-0.52632 -0.52632,-0.52632l0,-9.47371l22.10532,0l0,9.47371zm27.36849,-34.73693l-8.42107,10.00003c-3.1579,3.68422 -6.3158,7.36844 -11.05266,7.36844l-118.42135,0c-4.73685,0 -8.42107,-3.68422 -11.05266,-7.36844l-8.94739,-10.00003c-5.26317,-6.84212 -6.84212,-8.94739 -6.84212,-15.2632l0,-31.57903c0,-7.89476 5.78949,-8.42107 8.42107,-8.42107l155.26355,0c2.63159,0 8.42107,1.05264 8.42107,8.42107l0,31.57903c-0.52632,6.3158 -2.10527,8.42107 -7.36844,15.2632z" stroke-width="5" stroke-miterlimit="10" stroke-dasharray=""></path><path data-v-9833e8b2="" transform="scale(0.13368983957219252)" fill="none" stroke="currentColor" paint-order="fill stroke markers" d="m165.21094,13.10529l-141.5793,0c-4.21054,0 -8.94739,3.1579 -8.94739,10.52634l0,25.26322c0,5.78949 2.10527,8.94739 5.78949,13.68425l5.78949,6.84212c1.57895,2.10527 5.26317,6.31581 11.05266,6.84212l112.63186,0c6.3158,0 10.52634,-4.73685 12.10529,-7.36844l5.78949,-6.84212l0,-0.52632c3.68422,-4.73685 5.78949,-7.89476 5.78949,-13.68425l0,-25.26322c0.52632,-6.31581 -4.21054,-9.47371 -8.42107,-9.47371zm-15.26319,56.31593l-111.05291,0c-2.63158,0 -4.73685,-2.10527 -6.3158,-4.73685l-5.78949,-6.84212c-3.1579,-4.21054 -4.21054,-5.78949 -4.21054,-8.94739l0,-25.26322c0,-1.05263 0,-3.1579 1.57895,-3.1579l141.5793,0c1.05264,0 1.57895,2.10527 1.57895,3.1579l0,25.26322c0,3.68422 -1.05263,4.73685 -4.21054,9.47371l-5.78949,6.84212c-2.63158,2.10527 -4.21054,4.21054 -7.36844,4.21054l0,0z" stroke-width="5" stroke-miterlimit="10" stroke-dasharray=""></path></g></svg>