<svg data-v-9833e8b2="" version="1.1" xmlns="http://www.w3.org/2000/svg" xmlns:xlink="http://www.w3.org/1999/xlink" width="25" height="22.5"><g data-v-9833e8b2=""><path data-v-9833e8b2="" transform="scale(0.13966480446927373)" fill="none" stroke="currentColor" paint-order="fill stroke markers" d="m53.08373,28.7778l2.25547,-18.04458a11.11116,11.11116 0 0 1 11.02776,-9.73323l47.04465,0a11.11116,11.11116 0 0 1 11.02776,9.73323l2.25547,18.04458l40.97237,0a11.11116,11.11116 0 0 1 11.11136,11.11116l0,105.55573a11.11116,11.11116 0 0 1 -11.11136,11.11136l-155.55586,0a11.11116,11.11116 0 0 1 -11.11136,-11.11136l0,-105.55554a11.11116,11.11116 0 0 1 11.11155,-11.11136l40.97237,0l-0.0002,0zm36.80556,102.77799a38.88897,38.88897 0 1 0 0,-77.77793a38.88897,38.88897 0 0 0 0,77.77793zm0,-11.11116a27.7778,27.7778 0 1 1 0,-55.55561a27.7778,27.7778 0 0 1 0,55.55561zm-65.6113,-96.29458a5.55548,5.55548 0 1 1 0,-11.11136l11.21116,0a5.55548,5.55548 0 1 1 0,11.11136l-11.21097,0l-0.0002,0z" stroke-width="5" stroke-miterlimit="10" stroke-dasharray=""></path></g></svg>