<svg data-v-9833e8b2="" version="1.1" xmlns="http://www.w3.org/2000/svg" xmlns:xlink="http://www.w3.org/1999/xlink" width="25" height="15"><g data-v-9833e8b2=""><path data-v-9833e8b2="" transform="scale(0.15337423312883436)" fill="none" stroke="currentColor" paint-order="fill stroke markers" d="m36.27353,60.8439c-11.25003,0 -20.37115,9.12112 -20.37115,20.37115s9.12112,20.37115 20.37115,20.37115s20.37115,-9.12112 20.37115,-20.37115c0.01953,-11.25003 -9.10159,-20.37115 -20.37115,-20.37115zm-0.52735,30.01961c-5.03908,0 -9.12112,-4.08204 -9.12112,-9.12112s4.08204,-9.12112 9.12112,-9.12112s9.12112,4.08204 9.12112,9.12112c-0.01953,5.03908 -4.10157,9.12112 -9.12112,9.12112zm87.40256,-30.01961c-11.25003,0 -20.37115,9.12112 -20.37115,20.37115s9.12112,20.37115 20.37115,20.37115s20.37115,-9.12112 20.37115,-20.37115c-0.01953,-11.25003 -9.12112,-20.37115 -20.37115,-20.37115zm-0.54688,30.01961c-5.03908,0 -9.12112,-4.08204 -9.12112,-9.12112s4.08204,-9.12112 9.12112,-9.12112s9.12112,4.08204 9.12112,9.12112c0,5.03908 -4.08204,9.12112 -9.12112,9.12112z" stroke-width="5" stroke-miterlimit="10" stroke-dasharray=""></path><path data-v-9833e8b2="" transform="scale(0.15337423312883436)" fill="none" stroke="currentColor" paint-order="fill stroke markers" d="m162.17228,80.04317c-0.625,-0.76172 -1.6211,-1.11328 -2.59766,-0.91797l-3.22266,-0.11719l-13.39847,-33.53524l15.37113,-7.71486c1.07422,-0.29297 1.36719,-1.54297 0.82031,-3.69142c-0.54688,-2.16797 -1.23047,-5.33204 -2.03126,-9.49221l2.57813,0c1.44532,0.11719 2.73438,-0.89844 2.91016,-2.34376s-0.82031,-2.75391 -2.26563,-2.98829l-0.25391,0l-81.40645,-0.15625l-6.79689,-15.37113c-1.01563,-1.79688 -2.20704,-2.71485 -3.57423,-2.71485l-54.00404,0c-0.17578,0 -0.37109,0.01953 -0.56641,0.07813l3.08595,5.27345l1.13282,1.95313l5.95705,10.2344l0.09766,0l-5.01954,19.74614l-17.98833,11.99222l0.11719,28.80867l0.01953,3.98439c0,0.44922 0.35156,0.82031 0.82031,0.82031l7.91018,0c-0.13672,-1.42578 -0.17578,-2.8711 -0.09766,-4.35548c0.87891,-14.23832 13.14456,-25.35163 27.38288,-24.86334c14.23832,0.46875 25.6446,12.168 25.6446,26.5235c0,1.07422 -0.07813,2.16797 -0.19531,3.22266l35.44931,0c-0.11719,-1.05469 -0.19531,-2.08985 -0.19531,-3.1836l0,-0.03906c0,-0.72266 0.03906,-1.44532 0.09766,-2.14844c1.09375,-13.55472 12.44144,-24.21881 26.2696,-24.21881c14.55082,0 26.36725,11.81644 26.36725,26.36725c0,1.01563 -0.05859,1.99219 -0.15625,2.96876l9.9219,0.27344l0,-0.01953c0.9961,-0.09766 1.83594,-0.72266 2.22657,-1.64063s0.23438,-1.95313 -0.41016,-2.73438zm-143.82849,-35.15634l-0.05859,0l0.05859,-0.03906l0,0.03906zm24.76569,-6.58205l-18.98442,0l5.13673,-19.64849l13.84769,0.25391l0,19.39458zm51.93372,19.14067l-22.0899,0.15625l-14.1016,-41.75792c-0.56641,-1.66016 -1.99219,-2.57813 -4.27735,-2.77344l-27.81257,0l-4.14064,-6.87502l44.78527,0.29297c3.2422,6.89455 5.41017,11.62112 6.46486,14.17972c1.01563,2.48047 2.53907,3.71095 4.58986,3.75001l72.77362,0l2.61719,9.64846l-58.80874,23.37897z" stroke-width="5" stroke-miterlimit="10" stroke-dasharray=""></path></g></svg>