<svg data-v-9833e8b2="" version="1.1" xmlns="http://www.w3.org/2000/svg" xmlns:xlink="http://www.w3.org/1999/xlink" width="22" height="25"><g data-v-9833e8b2=""><path data-v-9833e8b2="" transform="scale(0.1524390243902439)" fill="none" stroke="currentColor" paint-order="fill stroke markers" d="m1,7.25002l0,16.66606c0,1.35157 0.43945,2.66798 1.25,3.75001l34.37509,45.8341a6.24845,6.24845 0 0 0 5.00001,2.50001l43.75011,0c1.9668,0 3.82032,-0.92578 5.00001,-2.50001l34.37509,-45.8341c0.81055,-1.08203 1.25,-2.39844 1.25,-3.75001l0,-16.66606c0,-3.45118 -2.79884,-6.25002 -6.25002,-6.25002l-112.50028,0c-3.45118,0 -6.25002,2.79884 -6.25002,6.25002zm43.77355,81.2502l-12.50003,0c-3.45118,0 -6.25002,2.79884 -6.25002,6.25002l0,12.50003c0,3.45118 2.79884,6.25002 6.25002,6.25002l12.50003,0c3.45118,0 6.25002,-2.79884 6.25002,-6.25002l0,-12.50003c0,-3.45118 -2.79884,-6.25002 -6.25002,-6.25002zm37.4747,37.50009l12.50198,0c3.45118,0 6.25002,-2.79884 6.25002,-6.25002l0,-12.50003c0,-3.45118 -2.79884,-6.25002 -6.25002,-6.25002l-12.50198,0c-3.45118,0 -6.25002,2.79884 -6.25002,6.25002l0,12.50003c0,3.45118 2.79884,6.25002 6.25002,6.25002zm-24.99811,37.50009l12.49808,0c3.45118,0 6.25002,-2.79884 6.25002,-6.25002l0,-12.50003c0,-3.45118 -2.79884,-6.25002 -6.25002,-6.25002l-12.49808,0c-3.45118,0 -6.25002,2.79884 -6.25002,6.25002l0,12.50003c0,3.45118 2.79884,6.25002 6.25002,6.25002z" stroke-width="5" stroke-miterlimit="10" stroke-dasharray=""></path></g></svg>