<svg data-v-9833e8b2="" version="1.1" xmlns="http://www.w3.org/2000/svg" xmlns:xlink="http://www.w3.org/1999/xlink" width="22" height="25"><g data-v-9833e8b2=""><path data-v-9833e8b2="" transform="scale(0.16447368421052633)" fill="none" stroke="currentColor" paint-order="fill stroke markers" d="m65.06266,100.31666c-4.19923,0 -7.63674,3.41798 -7.63674,7.63674c0,4.19923 3.41798,7.63674 7.63674,7.63674c4.19923,0 7.63674,-3.41798 7.63674,-7.63674s-3.41798,-7.63674 -7.63674,-7.63674z" stroke-width="5" stroke-miterlimit="10" stroke-dasharray=""></path><path data-v-9833e8b2="" transform="scale(0.16447368421052633)" fill="none" stroke="currentColor" paint-order="fill stroke markers" d="m1,1l0,150.1371l127.28548,0l0,-150.1371l-127.28548,0zm64.06266,130.03939c-12.73441,0 -23.10553,-10.37112 -23.10553,-23.10553s10.37112,-23.10553 23.10553,-23.10553s23.10553,10.37112 23.10553,23.10553s-10.37112,23.10553 -23.10553,23.10553zm32.40243,-64.41422l-22.61724,0c0.09766,-0.56641 0.29297,-1.09375 0.35156,-1.69922c0.52735,-5.44923 -3.39845,-10.6055 -8.9844,-10.6055c-0.44922,0 -17.22661,-22.30474 -17.22661,-22.30474l-8.71096,6.60158l16.21098,21.28912c-0.87891,1.50391 -1.52344,3.14454 -1.52344,5.00001c0,0.60547 0.23438,1.13282 0.35156,1.69922l-22.65631,0l0,-38.78916l64.80485,0l0,38.80869z" stroke-width="5" stroke-miterlimit="10" stroke-dasharray=""></path></g></svg>