<svg data-v-9833e8b2="" version="1.1" xmlns="http://www.w3.org/2000/svg" xmlns:xlink="http://www.w3.org/1999/xlink" width="25" height="17.5"><g data-v-9833e8b2=""><path data-v-9833e8b2="" transform="scale(0.12437810945273632)" fill="none" stroke="currentColor" paint-order="fill stroke markers" d="m123.55459,110.50896c-9.69787,-0.97771 -16.90017,5.48798 -16.4213,14.74227c0.54081,10.50241 9.61395,20.63718 20.12435,22.47672c9.81242,1.71832 17.34307,-4.28781 17.38836,-13.86912c0.05062,-10.97528 -10.13077,-22.24428 -21.09141,-23.34987zm4.47563,31.09764c-7.44606,-0.5155 -14.45189,-7.72845 -14.65769,-15.07595c-0.16517,-6.02678 4.19257,-10.15542 10.27131,-9.74449c7.74843,0.52682 14.66501,7.70115 14.72163,15.27242c0.05128,6.20328 -4.04405,9.98159 -10.33524,9.54801z" stroke-width="5" stroke-miterlimit="10" stroke-dasharray=""></path><path data-v-9833e8b2="" transform="scale(0.12437810945273632)" fill="none" stroke="currentColor" paint-order="fill stroke markers" d="m47.4136,92.29474c-9.44278,-2.06465 -17.55952,4.59418 -17.06467,13.99301c0.52349,9.92231 8.86201,19.59953 18.70307,21.70947c9.85105,2.11127 17.63811,-3.70505 17.72936,-13.24507c0.10257,-10.20737 -8.38981,-20.05375 -19.36776,-22.45741zm13.11053,22.00984c-0.73928,4.9525 -4.14595,7.80105 -9.26562,7.7531c-8.46374,-0.08059 -16.40998,-9.6286 -14.31669,-17.20587c1.07495,-3.88421 3.75966,-6.19395 7.73512,-6.64751c7.97488,-0.90978 17.01872,8.27992 15.84719,16.10028z" stroke-width="5" stroke-miterlimit="10" stroke-dasharray=""></path><path data-v-9833e8b2="" transform="scale(0.12437810945273632)" fill="none" stroke="currentColor" paint-order="fill stroke markers" d="m200.83247,90.324c-5.37342,3.61647 -10.58034,7.11705 -15.70467,10.56901c-0.41093,-0.43691 -0.83452,-0.86183 -1.27209,-1.27009c4.99113,-3.5159 9.95561,-7.06777 14.87414,-10.68157c1.14888,-0.84318 2.01803,-2.81858 2.03069,-4.28049c0.10723,-15.97973 0.01665,-31.95946 -0.01732,-47.93919c-0.00599,-2.31241 0,-4.62415 0,-6.99251c-1.35401,-0.34766 -2.36103,-0.686 -3.39602,-0.86516c-32.82595,-5.69577 -65.65723,-11.32761 -98.46053,-17.14126c-2.53686,-0.44756 -4.24985,0.0393 -6.12668,1.49521c-3.55453,2.75931 -7.22894,5.36543 -11.27366,8.34052c-0.23843,-4.46964 -0.39162,-8.17868 -0.682,-11.87907c-0.05728,-0.74394 -0.46688,-1.85819 -1.02433,-2.09595c-4.31712,-1.84753 -8.71349,-3.50191 -13.07656,-5.24821c-4.89789,-1.96208 -9.51671,-1.93411 -14.02697,1.24545c-4.81263,3.39002 -9.7951,6.54694 -14.77224,9.70452c-1.36001,0.86516 -3.00973,1.28541 -4.44832,2.052c-1.92279,1.02433 -4.15861,1.83621 -5.59187,3.35073c-7.74111,8.20133 -15.28374,16.58447 -22.87766,24.92033c-2.63343,2.88851 -3.98744,6.26189 -3.97479,10.18273c0.02864,10.61697 0.04529,21.22994 -0.01132,31.84424c-0.02331,3.59716 1.59245,6.34114 4.89122,7.34017c6.7574,2.04267 13.67398,3.5825 20.39808,5.2955c6.59156,-10.25532 14.1342,-13.01796 24.86772,-9.29559c6.85464,2.37968 12.96867,6.49632 15.66537,12.91606c2.92914,6.98518 8.12806,8.76078 14.49918,9.94163c3.02038,0.56012 5.9775,1.44525 8.96991,2.16988c4.45965,1.07495 8.91863,2.13525 13.25306,3.1749c7.41743,-11.73987 17.4856,-14.19947 29.49254,-7.43807c6.61021,3.72303 11.22904,9.15373 14.15152,16.06098c0.41559,0.97971 1.13223,2.32906 1.98539,2.5615c6.17597,1.70301 12.42787,3.16091 18.86025,4.74537c0,-1.62708 0,-3.22752 0,-4.81597c2.05666,1.08361 4.24918,1.86485 6.50898,2.26046c9.80976,1.71832 17.3424,-4.28848 17.38769,-13.86912c0.004,-0.81121 -0.05461,-1.62375 -0.15918,-2.43362c2.58281,-1.73897 5.16895,-3.47461 7.74644,-5.21957c0.59142,-0.39628 1.24612,-1.18351 1.25744,-1.80091c0.09657,-5.4267 0.05661,-10.85474 0.05661,-16.90483zm-154.63036,-24.78513c-0.07926,4.45565 -1.99072,5.90357 -6.36445,4.86792c-6.78005,-1.61043 -13.54278,-3.30344 -20.30617,-4.99979c-6.485,-1.62574 -8.68019,-4.90055 -7.04845,-11.25434c0.61473,-2.393 1.87151,-4.83395 3.46995,-6.74009c5.48331,-6.56093 11.2277,-12.9094 16.90483,-19.31647c2.65607,-2.99774 6.29119,-4.2685 9.10644,-3.12695c3.15692,1.28208 4.21522,3.91618 4.24319,7.03713c0.04596,5.7051 0.01132,11.41219 0.01132,17.11662c0.01132,5.47199 0.07992,10.94665 -0.01665,16.41597zm16.49589,19.42171c-4.47696,-1.10492 -6.28586,-2.82657 -6.33648,-6.75141c-0.14253,-11.31029 -0.11988,-22.62791 -0.03996,-33.94086c0.00533,-1.00236 0.9211,-1.99872 1.41595,-2.99508c0.32435,0.13986 0.6487,0.27973 0.97305,0.42225c0,13.1445 0,26.289 0,39.51409c2.80393,0.74794 5.40872,1.48455 8.03682,2.13325c29.26809,7.21962 58.53218,14.43924 87.81493,21.59625c-0.12454,0.84318 -0.17783,1.71832 -0.15851,2.62277c-0.46821,-0.11589 -0.93842,-0.23177 -1.40663,-0.34699c-30.10261,-7.41942 -60.20322,-14.82819 -90.29917,-22.25427zm97.96369,24.14576c-0.00599,-0.91844 0.09524,-1.78958 0.29105,-2.60612c2.47692,0.60408 4.95316,1.21148 7.43008,1.81556c1.25211,0.30237 3.05435,-0.04929 4.11199,-0.78057c2.2498,-1.54849 4.49495,-3.10297 6.73476,-4.66478c0.45622,0.34966 0.89513,0.72063 1.31405,1.11358c-3.06701,2.07064 -6.11603,4.13197 -9.15773,6.19595c-0.50151,0.343 -1.02433,1.04831 -1.03033,1.59111c-0.05461,3.76566 -0.05461,7.53331 -0.04995,11.30696c-0.78457,-0.37097 -1.54516,-0.80455 -2.27112,-1.29873c0,-3.59449 0,-7.17566 0,-10.84941c-2.50622,-0.62006 -4.95383,-1.22547 -7.3728,-1.82355zm15.90847,15.34901c2.81991,-1.88816 5.64049,-3.77431 8.45774,-5.6658c-1.23879,3.47927 -4.27583,5.57322 -8.45774,5.6658z" stroke-width="5" stroke-miterlimit="10" stroke-dasharray=""></path></g></svg>