<svg data-v-9833e8b2="" version="1.1" xmlns="http://www.w3.org/2000/svg" xmlns:xlink="http://www.w3.org/1999/xlink" width="25" height="25"><g data-v-9833e8b2=""><path data-v-9833e8b2="" transform="scale(0.12376237623762376)" fill="none" stroke="currentColor" paint-order="fill stroke markers" d="m92.855,188.28172c2.57003,0 4.66056,-2.09207 4.66056,-4.66108c0,-2.56952 -2.09053,-4.66005 -4.66056,-4.66005c-2.57055,0 -4.66108,2.09053 -4.66108,4.66005s2.09053,4.66108 4.66108,4.66108zm-31.28261,-0.55381c2.26562,0 4.10624,-1.84139 4.10624,-4.10727c0,-2.26665 -1.84037,-4.10675 -4.10624,-4.10675s-4.10727,1.83934 -4.10727,4.10675c0.00026,2.26562 1.84165,4.10727 4.10727,4.10727zm63.89909,0c2.26562,0 4.10573,-1.84139 4.10573,-4.10727c0,-2.26665 -1.83934,-4.10675 -4.10573,-4.10675c-2.26665,0 -4.10778,1.83934 -4.10778,4.10675c0.00051,2.26562 1.84165,4.10727 4.10778,4.10727zm-98.29088,0c2.26562,0 4.10676,-1.84139 4.10676,-4.10727c0,-2.26665 -1.84088,-4.10675 -4.10676,-4.10675s-4.10547,1.83934 -4.10547,4.10675c0,2.26562 1.83934,4.10727 4.10547,4.10727z" stroke-width="5" stroke-miterlimit="10" stroke-dasharray=""></path><path data-v-9833e8b2="" transform="scale(0.12376237623762376)" fill="none" stroke="currentColor" paint-order="fill stroke markers" d="m167.23759,200.59376l0,-1.12227c7.86976,-0.98677 13.97706,-7.71858 13.97706,-15.85008c0,-8.13098 -6.1073,-14.86381 -13.97706,-15.84956l0,-1.12381l-152.25899,0l0,1.12381c-7.87079,0.98626 -13.97834,7.71858 -13.97834,15.84956c0,8.1315 6.10755,14.86356 13.97834,15.84956l0,1.12227l152.25899,0l0,0.00051zm-140.05699,-25.07247c3.77226,0 6.92284,2.60474 7.82014,6.10216l18.75177,0c0.89396,-3.49767 4.04428,-6.10216 7.82014,-6.10216c3.77432,0 6.92592,2.60474 7.81963,6.10216l15.06127,0c0.9099,-3.8098 4.32118,-6.65673 8.40171,-6.65673c4.07847,0 7.4913,2.84668 8.3994,6.65673l16.39591,0c0.89344,-3.49767 4.04479,-6.10216 7.82065,-6.10216c3.77483,0 6.92541,2.60474 7.81962,6.10216l16.63708,0c0.89627,-3.49767 4.04736,-6.10216 7.82374,-6.10216c4.4703,0 8.1009,3.63471 8.1009,8.09987s-3.6306,8.10038 -8.1009,8.10038c-3.77637,0 -6.9267,-2.60474 -7.82374,-6.10421l-16.63708,0c-0.89473,3.49947 -4.04479,6.10421 -7.81962,6.10421c-3.77586,0 -6.92721,-2.60474 -7.82065,-6.10421l-16.39591,0c-0.90836,3.81186 -4.32092,6.65802 -8.3994,6.65802c-4.08053,0 -7.49182,-2.84565 -8.40171,-6.65802l-15.06127,0c-0.89396,3.49947 -4.04531,6.10421 -7.81963,6.10421c-3.77586,0 -6.92618,-2.60474 -7.82014,-6.10421l-18.75177,0c-0.8973,3.49947 -4.04788,6.10421 -7.82014,6.10421c-4.46465,0 -8.09884,-3.63522 -8.09884,-8.10038c0,-4.46568 3.63394,-8.09987 8.09884,-8.09987z" stroke-width="5" stroke-miterlimit="10" stroke-dasharray=""></path><path data-v-9833e8b2="" transform="scale(0.12376237623762376)" fill="none" stroke="currentColor" paint-order="fill stroke markers" d="m157.75192,187.72792c2.26279,0 4.10727,-1.84139 4.10727,-4.10727c0,-2.26665 -1.84448,-4.10675 -4.10727,-4.10675c-2.26228,0 -4.10727,1.83934 -4.10727,4.10675c0.00051,2.26562 1.84499,4.10727 4.10727,4.10727zm36.2283,-184.73123c0,-0.00746 -0.0054,-0.01131 -0.0054,-0.02005c0,-0.05811 -0.02314,-0.11261 -0.02674,-0.17123a2.18926,2.18926 0 0 0 -0.0707,-0.33527c-0.01903,-0.06145 -0.00746,-0.1283 -0.03471,-0.19052c0,-0.00848 -0.00797,-0.0162 -0.01568,-0.0234c-0.00514,-0.01543 -0.00514,-0.03163 -0.00848,-0.04371c-0.02314,-0.05348 -0.06968,-0.09256 -0.09744,-0.14398c-0.02674,-0.04756 -0.02674,-0.10079 -0.05888,-0.14861c-0.03857,-0.05862 -0.09333,-0.08999 -0.13652,-0.13961c-0.04217,-0.05888 -0.07379,-0.12958 -0.12007,-0.18023c-0.0126,-0.01054 -0.02365,-0.01928 -0.03162,-0.02674c-0.0036,-0.00746 -0.00694,-0.01594 -0.01054,-0.02005c-0.04474,-0.03857 -0.09436,-0.05116 -0.13806,-0.08459a1.7023,1.7023 0 0 0 -0.29233,-0.19951c-0.05476,-0.02725 -0.09744,-0.07482 -0.15555,-0.10156c-0.02005,-0.0072 -0.03574,-0.0126 -0.05116,-0.01928c-0.05888,-0.0198 -0.11647,-0.02725 -0.17637,-0.04268c-0.11261,-0.03548 -0.22085,-0.05142 -0.33707,-0.06685c-0.0707,-0.0072 -0.13009,-0.03085 -0.19694,-0.03085c-0.01106,0 -0.02365,-0.00797 -0.03471,-0.00797c-0.00797,0 -0.01208,0.0036 -0.01954,0.0036c-0.05425,0 -0.10953,0.02417 -0.16429,0.02802a1.78791,1.78791 0 0 0 -0.34298,0.06942c-0.06222,0.01543 -0.12907,0.00849 -0.1954,0.03137l-168.90224,65.1823c-0.01594,0.0036 -0.0198,0.01594 -0.0306,0.01954c-0.01954,0.00694 -0.03857,0.01594 -0.05862,0.02314c-0.00823,0.0036 -0.02031,0.0036 -0.02828,0.00848c-0.08485,0.03882 -0.13961,0.10824 -0.21803,0.15581c-0.03137,0.02314 -0.06273,0.04268 -0.09693,0.06556c-0.08279,0.06222 -0.17689,0.10104 -0.24605,0.172c-0.01568,0.01208 -0.02803,0.03188 -0.04268,0.04756c-0.08613,0.08844 -0.13755,0.20183 -0.20748,0.30339c-0.05811,0.09333 -0.13961,0.17123 -0.18306,0.27382c-0.00771,0.02314 -0.01131,0.04242 -0.0198,0.06171c-0.04628,0.11673 -0.05476,0.24142 -0.0779,0.36689c-0.02365,0.11287 -0.06248,0.21777 -0.06248,0.33449c0,0.0126 -0.00668,0.01928 -0.00668,0.03162l0,68.19302l-20.07819,0l0,21.55886l137.83148,0s18.92044,-21.55886 0,-45.62681c0,0 -26.07056,-10.69356 -41.31566,0c0,0 -4.99197,12.91752 -6.51764,24.06796l-26.90281,0l44.76448,-44.69146c0.00848,-0.00669 0.01157,-0.01183 0.01568,-0.01594l22.1065,-22.06587c0.0036,-0.0036 0.00746,-0.00746 0.01517,-0.01594c0,-0.0036 0.00514,-0.00694 0.00797,-0.01568c0.00746,-0.00412 0.01106,-0.00412 0.01594,-0.0072l28.13769,-29.39134c0.00463,-0.00334 0.00463,-0.00694 0.009,-0.00694l13.21294,-13.803l0.00463,0l17.60122,-18.38874l0,97.56507c0,0.1666 0.05785,0.31598 0.09744,0.4705c-4.06459,0.87828 -7.11875,4.49036 -7.11875,8.80743c0,4.28647 3.00737,7.86179 7.02131,8.77529l0,5.98671a2.00028,2.00028 0 0 0 0.93998,1.6969l3.2745,2.03936a2.24813,2.24813 0 0 1 0.53889,1.46242a2.2777,2.2777 0 0 1 -0.67079,1.61437c-0.88188,0.88136 -2.33144,0.88573 -3.22025,-0.0036a1.99669,1.99669 0 0 0 -2.82405,2.82302c1.22434,1.22485 2.83177,1.83394 4.43919,1.83394c1.60588,0 3.21331,-0.60909 4.43354,-1.8288c1.18166,-1.18963 1.83702,-2.76132 1.83702,-4.43971c0,-1.67659 -0.65536,-3.24956 -1.84037,-4.42968a1.99977,1.99977 0 0 0 -0.35404,-0.28565l-2.55846,-1.59097l0,-4.87962c4.01265,-0.91298 7.01925,-4.48882 7.01925,-8.77477c0,-4.31707 -3.05365,-7.92915 -7.1167,-8.80743c0.03857,-0.15529 0.09744,-0.3039 0.09744,-0.4705l0,-102.53725l-0.00154,0zm-82.72542,112.81763l23.06473,0c5.01717,-1.00143 6.01525,25.0699 6.01525,25.0699l-29.07998,0l0,-25.0699zm-86.18298,20.55743l0,-59.08195l27.19848,59.08195l-27.19848,0zm33.88632,0l-2.29596,0l-16.37689,-35.5804l61.50774,-37.7766l-2.44919,4.18826c0,0.00848 -0.00334,0.01208 -0.00797,0.01594l-40.37774,69.15279zm11.80245,-12.29378l8.48296,-14.53112l6.07207,0l-14.55503,14.53112zm15.43639,-18.52372l-4.622,0l4.622,-7.91501l0,7.91501zm3.99311,-0.87467l0,-12.42182l12.44573,0l-12.44573,12.42182zm1.48273,-16.41545l8.78686,-15.05459l4.34381,15.05459l-13.13066,0zm16.76692,-1.8018l-4.6963,-16.2869l21.00839,0l-16.31209,16.2869zm-3.87279,-20.28079l4.44099,-7.60828l11.42014,-7.32495l6.16515,14.93323l-22.02628,0zm25.69004,-1.59843l-5.83451,-14.13389l18.38,1.02894l-12.54549,13.10495zm-2.62171,-17.95166l12.61285,-8.09344l3.88564,9.01722l-16.4985,-0.92378zm20.24916,-0.46048l-3.40923,-7.91295l9.29053,1.77018l-5.8813,6.14278zm7.8713,-9.83225l-9.30596,-1.77455l9.30596,-5.9664l0,7.74095zm-15.72923,-2.39829l-19.98794,12.81519s-0.00514,0 -0.00514,0.00411l-13.58291,8.70896l0,0.00386l-67.84644,41.66815l-12.82754,-27.86233l148.52401,-57.31537l-34.27404,21.97743zm19.72235,-0.16403l0,-6.83311l6.54463,0l-6.54463,6.83311zm10.36677,-10.82725l-5.54989,0l14.3712,-9.21597l-8.82131,9.21597zm26.89021,91.86297c0,2.76929 -2.25379,5.02257 -5.02257,5.02257c-2.76929,0 -5.0236,-2.25379 -5.0236,-5.02257s2.25431,-5.02308 5.0236,-5.02308c2.76877,-0.00051 5.02257,2.25431 5.02257,5.02308z" stroke-width="5" stroke-miterlimit="10" stroke-dasharray=""></path></g></svg>