<svg data-v-9833e8b2="" version="1.1" xmlns="http://www.w3.org/2000/svg" xmlns:xlink="http://www.w3.org/1999/xlink" width="25" height="25"><g data-v-9833e8b2=""><path data-v-9833e8b2="" transform="scale(0.125)" fill="none" stroke="currentColor" paint-order="fill stroke markers" d="m161.0004,170.30047a7.50002,7.50002 0 0 0 0,-15.00004l-19.20005,0a7.50002,7.50002 0 0 0 0,15.00004l19.20005,0zm-48.80012,0a7.50002,7.50002 0 1 0 0,-15.00004l-19.30005,0a7.50002,7.50002 0 0 0 0,15.00004l19.30005,0zm-48.90012,0a7.50002,7.50002 0 1 0 0,-15.00004l-19.30005,0a7.50002,7.50002 0 0 0 0,15.00004l19.30005,0z" stroke-width="5" stroke-miterlimit="10" stroke-dasharray=""></path><path data-v-9833e8b2="" transform="scale(0.125)" fill="none" stroke="currentColor" paint-order="fill stroke markers" d="m199.6005,172.10047l0,-19.00005a27.50007,27.50007 0 0 0 -18.40005,-25.90007l0,-98.70025a27.50007,27.50007 0 0 0 -27.50007,-27.50007l-1.1,0a27.30007,27.30007 0 0 0 -27.30007,25.70006l-116.80029,0a7.50002,7.50002 0 1 0 0,15.00004l15.80004,0l0,65.20016a7.50002,7.50002 0 0 0 15.00004,0l0,-65.20016l85.80022,0l0,83.90021l-92.10023,0a27.50007,27.50007 0 0 0 -27.50007,27.50007l0,19.00005a27.50007,27.50007 0 0 0 27.50007,27.50007l66.00017,0a7.50002,7.50002 0 0 0 0,-15.00004l-66.00017,0a12.50003,12.50003 0 0 1 -12.70003,-12.50003l0,-19.00005a12.50003,12.50003 0 0 1 12.70003,-12.80003l139.10035,0a12.50003,12.50003 0 0 1 12.50003,12.50003l0,19.00005a12.50003,12.50003 0 0 1 -12.50003,12.50003l-22.80006,0a7.50002,7.50002 0 1 0 0,15.00004l22.80006,0a27.50007,27.50007 0 0 0 27.50007,-27.20007zm-59.30015,-143.60036a12.50003,12.50003 0 0 1 12.50003,-12.50003l1.1,0a12.50003,12.50003 0 0 1 12.50003,12.50003l0,96.40024l-26.10007,0l0,-96.40024z" stroke-width="5" stroke-miterlimit="10" stroke-dasharray=""></path></g></svg>