<svg data-v-9833e8b2="" version="1.1" xmlns="http://www.w3.org/2000/svg" xmlns:xlink="http://www.w3.org/1999/xlink" width="27" height="25"><g data-v-9833e8b2=""><path data-v-9833e8b2="" transform="scale(0.13812154696132597)" fill="none" stroke="currentColor" paint-order="fill stroke markers" d="m101.79693,101.82271l18.77681,-2.60176l-7.7885,-6.68088c0.0041,0.50098 -0.36074,0.95371 -0.91211,1.05391l-11.78304,2.11993c0.18457,0.29961 0.53594,1.01641 0.48203,2.1336l1.22481,3.97521zm9.85999,-10.24846l-7.73889,-6.63674c-0.13301,0.09355 -0.24316,0.21953 -0.41875,0.24199l-0.08555,0.0125c0.2793,0.20137 0.62578,0.54141 0.19824,0.83985l-11.21585,1.57618l6.00099,6.28556l13.07757,-2.35313c0.06738,-0.0123 0.11699,0.03496 0.18223,0.03379zm-12.94027,-12.27718l-1.2336,-1.05489c-3.37774,-4.51564 -39.32803,-32.82821 -39.32803,-32.82821c-2.68829,-1.17754 -6.03654,0.55156 -6.03654,0.55156l22.58209,24.09186l1.04492,-0.19473l11.49905,12.21077l10.40725,-0.70703l1.06485,-2.06934z" stroke-width="5" stroke-miterlimit="10" stroke-dasharray=""></path><path data-v-9833e8b2="" transform="scale(0.13812154696132597)" fill="none" stroke="currentColor" paint-order="fill stroke markers" d="m102.10084,1l-25.27526,0c-41.87686,0 -75.82558,33.95009 -75.82558,75.82695l0,27.64538c0,41.87706 33.94852,75.82617 75.82558,75.82617l25.27526,0c41.87686,0 75.82558,-33.94891 75.82558,-75.82617l0,-27.64538c0,-41.87686 -33.94872,-75.82695 -75.82558,-75.82695zm47.14973,115.25634l-4.61095,0l-6.9172,6.91681l-2.30587,0l-9.22307,9.22327l-11.52835,-9.22327l-11.52815,0l0,9.22327l-6.9174,2.30547l-4.61134,-9.22327l-9.22307,0l9.22307,13.83461l0,6.91701l-6.9172,4.61134l-11.52835,-23.05689l-4.61134,0l-6.9172,-18.44575l0,-13.83421l13.83441,-4.61154l-29.97468,-41.50284s-8.76115,-4.15001 -9.22287,-9.22287l4.61134,-2.30587l9.22307,4.61154l6.9172,-2.30587l85.31115,55.33744l4.61134,4.61114c0.0002,0 6.45568,12.45062 2.30547,16.14047z" stroke-width="5" stroke-miterlimit="10" stroke-dasharray=""></path><path data-v-9833e8b2="" transform="scale(0.13812154696132597)" fill="none" stroke="currentColor" paint-order="fill stroke markers" d="m121.65909,101.81041l-19.3397,2.67833l-0.6959,9.81624l25.48659,-9.476l-4.25567,-3.65099c-0.26094,0.31816 -0.67754,0.56016 -1.19532,0.63242z" stroke-width="5" stroke-miterlimit="10" stroke-dasharray=""></path></g></svg>