<svg data-v-9833e8b2="" version="1.1" xmlns="http://www.w3.org/2000/svg" xmlns:xlink="http://www.w3.org/1999/xlink" width="25" height="25"><g data-v-9833e8b2=""><path data-v-9833e8b2="" transform="scale(0.12376237623762376)" fill="none" stroke="currentColor" paint-order="fill stroke markers" d="m138.50034,87.14045l-114.09521,-79.89044l-20.28013,0c-1.72598,0 -3.12501,-1.39903 -3.12501,-3.12501s1.39903,-3.12501 3.12501,-3.12501l21.48443,0a3.11915,3.11915 0 0 1 2.43926,1.17149l110.45164,77.33906l0,-3.51036c0,-3.45177 2.79825,-6.25002 6.25002,-6.25002c3.45177,0 6.25002,2.79825 6.25002,6.25002l0,12.26292l41.68077,29.18523a18.79966,18.79966 0 0 1 0.61856,0.4332l0.19297,0.13496c0.10352,0.07246 0.20137,0.15039 0.29336,0.23242c4.39142,3.43165 7.21447,8.77737 7.21447,14.78265c0,8.16389 -5.21759,15.10922 -12.50003,17.68305l0,44.03585c0,3.45177 -2.79825,6.25002 -6.25002,6.25002c-3.45177,0 -6.25002,-2.79825 -6.25002,-6.25002l0,-6.25002l-143.75036,0l0,6.25002c0,3.45177 -2.79825,6.25002 -6.25002,6.25002c-3.45177,0 -6.25002,-2.79825 -6.25002,-6.25002l0,-150.00038l-12.50003,0c-3.45177,0 -6.25002,-2.79825 -6.25002,-6.25002c0,-2.31348 1.25684,-4.33321 3.12501,-5.41388l0,-7.92229c-1.86817,-1.08067 -3.12501,-3.1004 -3.12501,-5.41388c0,-3.45177 2.79825,-6.25002 6.25002,-6.25002c3.45177,0 6.25002,2.79825 6.25002,6.25002c0,2.31348 -1.25684,4.33321 -3.12501,5.41388l0,7.08615l12.50003,0l0,-7.08615c-1.86817,-1.08067 -3.12501,-3.1004 -3.12501,-5.41388c0,-3.45177 2.79825,-6.25002 6.25002,-6.25002c3.45177,0 6.25002,2.79825 6.25002,6.25002c0,2.31348 -1.25684,4.33321 -3.12501,5.41388l0,7.92229c0.10254,0.05938 0.20332,0.12148 0.30215,0.18652a6.23771,6.23771 0 0 1 1.87325,1.12461l11.2053,9.74065l2.59766,-2.98809c-0.70117,-2.04102 -0.32461,-4.39005 1.19317,-6.13595c2.26465,-2.60508 6.21232,-2.88126 8.81741,-0.6166c2.60508,2.26446 2.88106,6.21213 0.61641,8.81721c-1.51758,1.7461 -3.79142,2.4459 -5.91017,2.03575l-2.59747,2.98809l23.41061,20.35044l4.15743,-4.78263c-0.70098,-2.04102 -0.32422,-4.39005 1.19336,-6.13595c2.26465,-2.60508 6.21232,-2.88126 8.81741,-0.6166c2.60508,2.26446 2.88106,6.21213 0.61641,8.81721c-1.51758,1.7461 -3.79142,2.4459 -5.91017,2.03575l-4.15743,4.78263l23.3233,20.27466l4.63283,-5.32951c-0.70098,-2.04102 -0.32422,-4.39005 1.19336,-6.13595c2.26465,-2.60508 6.21232,-2.88126 8.8174,-0.6166c2.60508,2.26446 2.88106,6.21213 0.61641,8.81721c-1.51758,1.7461 -3.79142,2.4459 -5.91017,2.03575l-4.63282,5.32951l35.10966,30.52039l0,-40.44424zm12.50003,8.75256l0,42.55772l25.00006,21.73228l0,-9.46838c-7.28244,-2.57364 -12.50003,-9.51897 -12.50003,-17.68305c0,-8.88088 6.17423,-16.31957 14.46429,-18.25786l-26.96433,-18.8809l0,0.00019zm-118.7503,80.10743l142.90348,0a6.35548,6.35548 0 0 1 -0.22695,-0.18828l-142.67653,-124.02668l0,124.21496zm156.92598,-53.3767c-1.98243,-1.32168 -4.36407,-2.09219 -6.9256,-2.09219c-6.90353,0 -12.50003,5.5965 -12.50003,12.50003c0,6.90353 5.5965,12.50003 12.50003,12.50003c6.90353,0 12.50003,-5.5965 12.50003,-12.50003c0,-4.13712 -2.00977,-7.80471 -5.10646,-10.0801l-0.46797,-0.32774z" stroke-width="5" stroke-miterlimit="10" stroke-dasharray=""></path></g></svg>