<svg data-v-9833e8b2="" version="1.1" xmlns="http://www.w3.org/2000/svg" xmlns:xlink="http://www.w3.org/1999/xlink" width="25" height="15"><g data-v-9833e8b2=""><path data-v-9833e8b2="" transform="scale(0.14450867052023122)" fill="none" stroke="currentColor" paint-order="fill stroke markers" d="m85.59006,111.41043c-9.88284,0 -17.92973,-8.0469 -17.92973,-17.92973s8.0469,-17.92973 17.92973,-17.92973s17.92973,8.0469 17.92973,17.92973s-8.0469,17.92973 -17.92973,17.92973zm0,-31.95321c-7.73439,0 -14.02347,6.28908 -14.02347,14.02347s6.28908,14.02347 14.02347,14.02347c7.73439,0 14.02347,-6.28908 14.02347,-14.02347s-6.28908,-14.02347 -14.02347,-14.02347zm-78.67207,-0.11719c-3.26173,0 -5.91798,-2.65626 -5.91798,-5.91798c0,-3.26173 2.65626,-5.91798 5.91798,-5.91798s5.91798,2.65626 5.91798,5.91798c0,3.26173 -2.65626,5.91798 -5.91798,5.91798zm0,-7.92971c-1.11328,0 -2.01172,0.89844 -2.01172,2.01172c0,1.11328 0.89844,2.01172 2.01172,2.01172s2.01172,-0.89844 2.01172,-2.01172c0,-1.11328 -0.89844,-2.01172 -2.01172,-2.01172zm139.02379,40.0001c-9.88284,0 -17.92973,-8.0469 -17.92973,-17.92973s8.0469,-17.92973 17.92973,-17.92973c9.88284,0 17.92973,8.0469 17.92973,17.92973s-8.0469,17.92973 -17.92973,17.92973zm0,-31.95321c-7.73439,0 -14.02347,6.28908 -14.02347,14.02347s6.28908,14.02347 14.02347,14.02347s14.02347,-6.28908 14.02347,-14.02347s-6.28908,-14.02347 -14.02347,-14.02347z" stroke-width="5" stroke-miterlimit="10" stroke-dasharray=""></path><path data-v-9833e8b2="" transform="scale(0.14450867052023122)" fill="none" stroke="currentColor" paint-order="fill stroke markers" d="m172.34809,87.75803l-13.57425,0l-0.56641,-0.9961c-2.48047,-4.45314 -7.16799,-7.22658 -12.26566,-7.22658c-5.09767,0 -9.78518,2.77344 -12.26566,7.22658l-0.56641,0.9961l-34.68759,0l-0.56641,-0.9961c-2.48047,-4.45314 -7.16799,-7.22658 -12.26566,-7.22658s-9.78518,2.77344 -12.26566,7.22658l-0.56641,0.9961l-8.9258,0l0,-79.49239l108.49637,0l0,79.49239l0.01953,0zm-11.32815,-3.90626l7.42189,0l0,-71.67987l-100.68385,0l0,71.67987l2.75391,0c3.28126,-5.09767 8.96487,-8.22268 15.07816,-8.22268s11.7969,3.12501 15.07816,8.22268l30.19539,0c3.28126,-5.09767 8.96487,-8.22268 15.07816,-8.22268c6.1133,0 11.7969,3.12501 15.07816,8.22268z" stroke-width="5" stroke-miterlimit="10" stroke-dasharray=""></path><path data-v-9833e8b2="" transform="scale(0.14450867052023122)" fill="none" stroke="currentColor" paint-order="fill stroke markers" d="m9.94533,71.7619l56.54311,0l0,3.90626l-56.54311,0l0,-3.90626zm64.94157,-52.59779l16.69926,0l0,3.90626l-16.69926,0l0,-3.90626zm0,10.70315l16.69926,0l0,3.90626l-16.69926,0l0,-3.90626zm0,10.70315l16.69926,0l0,3.90626l-16.69926,0l0,-3.90626zm67.46111,-21.4063l16.69926,0l0,3.90626l-16.69926,0l0,-3.90626zm0,10.70315l16.69926,0l0,3.90626l-16.69926,0l0,-3.90626zm0,10.70315l16.69926,0l0,3.90626l-16.69926,0l0,-3.90626zm-67.46111,10.70315l16.69926,0l0,3.90626l-16.69926,0l0,-3.90626zm0,10.70315l16.69926,0l0,3.90626l-16.69926,0l0,-3.90626zm-8.49612,0.80078l-10.74221,0l0,-61.7775l20.89849,0l0,8.26174l-3.90626,0l0,-4.35548l-13.08597,0l0,53.96498l6.83595,0l0,3.90626z" stroke-width="5" stroke-miterlimit="10" stroke-dasharray=""></path></g></svg>