<svg data-v-9833e8b2="" version="1.1" xmlns="http://www.w3.org/2000/svg" xmlns:xlink="http://www.w3.org/1999/xlink" width="25" height="25"><g data-v-9833e8b2=""><path data-v-9833e8b2="" transform="scale(0.14367816091954022)" fill="none" stroke="currentColor" paint-order="fill stroke markers" d="m73.87683,87.48283a13.59378,13.59378 0 1 0 27.18757,0a13.59378,13.59378 0 1 0 -27.18757,0z" stroke-width="5" stroke-miterlimit="10" stroke-dasharray=""></path><path data-v-9833e8b2="" transform="scale(0.14367816091954022)" fill="none" stroke="currentColor" paint-order="fill stroke markers" d="m87.47061,104.53366c-9.41409,0 -17.05082,-7.65627 -17.05082,-17.05082c0,-9.41409 7.65627,-17.05082 17.05082,-17.05082c9.41409,0 17.05082,7.65627 17.05082,17.05082c0,9.39455 -7.63674,17.05082 -17.05082,17.05082zm0,-27.18757c-5.58595,0 -10.13674,4.55079 -10.13674,10.13674c0,5.58595 4.55079,10.13674 10.13674,10.13674c5.58595,0 10.13674,-4.55079 10.13674,-10.13674c0,-5.58595 -4.55079,-10.13674 -10.13674,-10.13674z" stroke-width="5" stroke-miterlimit="10" stroke-dasharray=""></path><path data-v-9833e8b2="" transform="scale(0.14367816091954022)" fill="none" stroke="currentColor" paint-order="fill stroke markers" d="m87.29483,173.96742c-17.40239,0 -34.37509,-5.25392 -48.9845,-15.37113c-19.00395,-13.14456 -31.75789,-32.89071 -35.89853,-55.60561c-8.55471,-46.89465 22.65631,-92.01195 69.55096,-100.56666c22.7149,-4.14064 45.68371,0.82031 64.68766,13.94535c18.98442,13.14456 31.73836,32.89071 35.879,55.60561c2.79298,15.37113 1.40625,31.19148 -4.04298,45.7423c-0.83985,2.22657 -3.32032,3.37891 -5.56642,2.53907c-2.22657,-0.83985 -3.37891,-3.32032 -2.53907,-5.56642c4.90236,-13.1055 6.15236,-27.32429 3.63282,-41.17198c-3.73048,-20.44927 -15.19535,-38.22275 -32.28524,-50.03919c-17.08989,-11.81644 -37.77353,-16.2891 -58.2228,-12.55863c-42.20714,7.71486 -70.27361,48.3009 -62.57828,90.52757c3.73048,20.44927 15.19535,38.22275 32.28524,50.03919c17.08989,11.81644 37.77353,16.26957 58.2228,12.55863c8.43752,-1.54297 16.48442,-4.41407 23.90631,-8.55471c2.08985,-1.15235 4.72657,-0.41016 5.87892,1.67969c1.15235,2.08985 0.41016,4.72657 -1.67969,5.87892c-8.24221,4.58986 -17.18754,7.79299 -26.56257,9.49221c-5.23439,0.9375 -10.48831,1.42578 -15.68363,1.42578z" stroke-width="5" stroke-miterlimit="10" stroke-dasharray=""></path><path data-v-9833e8b2="" transform="scale(0.14367816091954022)" fill="none" stroke="currentColor" paint-order="fill stroke markers" d="m70.45885,105.41256c2.61719,2.36329 4.4922,5.50783 4.04298,7.26564l-10.17581,21.54302c-4.10157,10.82034 -13.12503,15.17582 -25.48835,2.81251c-10.44925,-10.44925 -7.59768,-19.57036 3.65235,-24.49225l20.42974,-10.46878c1.73829,-0.50781 4.98048,1.01563 7.53908,3.33985z" stroke-width="5" stroke-miterlimit="10" stroke-dasharray=""></path><path data-v-9833e8b2="" transform="scale(0.14367816091954022)" fill="none" stroke="currentColor" paint-order="fill stroke markers" d="m38.83768,137.03374c12.36331,12.36331 21.4063,8.02736 25.48835,-2.81251l4.37501,-11.71878c-11.60159,9.06252 -9.78518,17.75395 -30.74226,13.63285c0.29297,0.3125 0.58594,0.60547 0.87891,0.89844z" stroke-width="5" stroke-miterlimit="10" stroke-dasharray=""></path><path data-v-9833e8b2="" transform="scale(0.14367816091954022)" fill="none" stroke="currentColor" paint-order="fill stroke markers" d="m52.68537,147.9908c-5.15626,0 -10.64456,-2.8711 -16.2891,-8.49612c-7.34377,-7.34377 -8.00783,-13.49613 -7.28517,-17.36332c0.70313,-3.71095 3.33985,-8.9258 11.89456,-12.71488l20.62505,-10.56643l0.29297,-0.09766c0.54688,-0.17578 1.15235,-0.25391 1.75782,-0.25391c3.16407,0 6.77736,2.22657 9.08205,4.31642c3.06641,2.77344 6.01564,7.0508 5.05861,10.70315l-0.07813,0.3125l-10.25393,21.7188c-2.98829,7.92971 -8.39846,12.44144 -14.80472,12.44144zm11.2305,-42.53917l-20.03911,10.25393c-3.2422,1.42578 -7.26564,3.90626 -7.96877,7.69533c-0.76172,4.04298 2.50001,8.32033 5.37111,11.19143c4.23829,4.23829 8.18361,6.48439 11.40628,6.48439c4.66798,0 7.28517,-5.05861 8.41799,-8.06643l0.11719,-0.25391l9.84377,-20.87896c-0.23438,-0.74219 -1.19141,-2.34376 -2.91016,-3.90626c-1.75782,-1.58204 -3.4961,-2.36329 -4.23829,-2.51954z" stroke-width="5" stroke-miterlimit="10" stroke-dasharray=""></path><path data-v-9833e8b2="" transform="scale(0.14367816091954022)" fill="none" stroke="currentColor" paint-order="fill stroke markers" d="m103.34956,106.54538c2.36329,-2.61719 5.50783,-4.4922 7.26564,-4.04298l21.54302,10.17581c10.82034,4.10157 15.17582,13.12503 2.81251,25.48835c-10.44925,10.44925 -19.57036,7.59768 -24.49225,-3.65235l-10.46878,-20.42974c-0.52735,-1.73829 0.9961,-4.96095 3.33985,-7.53908z" stroke-width="5" stroke-miterlimit="10" stroke-dasharray=""></path><path data-v-9833e8b2="" transform="scale(0.14367816091954022)" fill="none" stroke="currentColor" paint-order="fill stroke markers" d="m134.97073,138.18608c12.36331,-12.36331 8.02736,-21.4063 -2.81251,-25.48835l-11.71878,-4.37501c9.06252,11.60159 17.75395,9.78518 13.63285,30.74226c0.29297,-0.3125 0.60547,-0.58594 0.89844,-0.87891z" stroke-width="5" stroke-miterlimit="10" stroke-dasharray=""></path><path data-v-9833e8b2="" transform="scale(0.14367816091954022)" fill="none" stroke="currentColor" paint-order="fill stroke markers" d="m122.54883,148.12752c-6.34767,0 -11.75784,-4.31642 -15.19535,-12.12894l-10.56643,-20.62505l-0.09766,-0.29297c-1.05469,-3.4961 1.40625,-7.89064 4.08204,-10.83987c2.28516,-2.53907 5.93751,-5.25392 9.25784,-5.25392c0.50781,0 0.9961,0.05859 1.44532,0.17578l0.3125,0.07813l21.7188,10.25393c6.69924,2.5586 10.99612,6.83595 12.10941,12.03128c1.28907,5.93751 -1.48438,12.36331 -8.20315,19.10161c-4.98048,4.98048 -9.98049,7.50002 -14.86332,7.50002zm-19.1602,-35.03915l10.25393,20.03911c1.6211,3.69142 4.47267,8.08596 8.90627,8.08596c2.92969,0 6.38673,-1.89454 9.98049,-5.4883c4.88282,-4.88282 7.08986,-9.2969 6.34767,-12.75394c-0.82031,-3.84767 -5.33204,-6.07423 -7.92971,-7.07033l-0.25391,-0.11719l-20.87896,-9.86331c-0.70313,0.23438 -2.32422,1.17188 -3.88673,2.91016c-1.60157,1.79688 -2.38282,3.51563 -2.53907,4.25782z" stroke-width="5" stroke-miterlimit="10" stroke-dasharray=""></path><path data-v-9833e8b2="" transform="scale(0.14367816091954022)" fill="none" stroke="currentColor" paint-order="fill stroke markers" d="m104.48237,73.6742c-2.61719,-2.36329 -4.4922,-5.50783 -4.04298,-7.26564l10.17581,-21.54302c4.10157,-10.82034 13.12503,-15.17582 25.48835,-2.81251c10.44925,10.44925 7.59768,19.57036 -3.65235,24.49225l-20.42974,10.46878c-1.73829,0.50781 -4.96095,-1.01563 -7.53908,-3.33985z" stroke-width="5" stroke-miterlimit="10" stroke-dasharray=""></path><path data-v-9833e8b2="" transform="scale(0.14367816091954022)" fill="none" stroke="currentColor" paint-order="fill stroke markers" d="m136.10355,42.05303c-12.36331,-12.36331 -21.4063,-8.02736 -25.48835,2.81251l-4.37501,11.71878c11.60159,-9.06252 9.78518,-17.75395 30.74226,-13.63285c-0.29297,-0.3125 -0.56641,-0.60547 -0.87891,-0.89844z" stroke-width="5" stroke-miterlimit="10" stroke-dasharray=""></path><path data-v-9833e8b2="" transform="scale(0.14367816091954022)" fill="none" stroke="currentColor" paint-order="fill stroke markers" d="m111.2402,80.56875c-3.12501,0 -6.60158,-2.08985 -9.08205,-4.31642c-3.06641,-2.77344 -6.01564,-7.0508 -5.05861,-10.70315l0.07813,-0.3125l10.25393,-21.7188c2.5586,-6.69924 6.83595,-10.99612 12.03128,-12.10941c5.93751,-1.28907 12.36331,1.48438 19.10161,8.20315l-4.88282,4.88282c-4.88282,-4.88282 -9.2969,-7.08986 -12.75394,-6.34767c-3.84767,0.82031 -6.07423,5.33204 -7.07033,7.92971l-0.11719,0.25391l-9.86331,20.87896c0.23438,0.74219 1.19141,2.34376 2.91016,3.90626c1.75782,1.58204 3.47657,2.36329 4.21876,2.51954l19.8438,-10.15628c1.69922,-0.87891 3.78907,-0.19531 4.64845,1.50391c0.87891,1.69922 0.19531,3.78907 -1.50391,4.64845l-20.72271,10.6055l-0.29297,0.09766c-0.54688,0.15625 -1.13282,0.23438 -1.73829,0.23438z" stroke-width="5" stroke-miterlimit="10" stroke-dasharray=""></path><path data-v-9833e8b2="" transform="scale(0.14367816091954022)" fill="none" stroke="currentColor" paint-order="fill stroke markers" d="m71.6112,72.54139c-2.36329,2.61719 -5.50783,4.4922 -7.26564,4.04298l-21.54302,-10.17581c-10.82034,-4.10157 -15.17582,-13.12503 -2.81251,-25.48835c10.44925,-10.44925 19.57036,-7.59768 24.49225,3.65235l10.46878,20.42974c0.50781,1.73829 -1.01563,4.96095 -3.33985,7.53908z" stroke-width="5" stroke-miterlimit="10" stroke-dasharray=""></path><path data-v-9833e8b2="" transform="scale(0.14367816091954022)" fill="none" stroke="currentColor" paint-order="fill stroke markers" d="m39.97049,40.90068c-12.36331,12.36331 -8.02736,21.4063 2.81251,25.48835l11.71878,4.37501c-9.06252,-11.60159 -17.75395,-9.78518 -13.63285,-30.74226c-0.29297,0.29297 -0.58594,0.58594 -0.89844,0.87891z" stroke-width="5" stroke-miterlimit="10" stroke-dasharray=""></path><path data-v-9833e8b2="" transform="scale(0.14367816091954022)" fill="none" stroke="currentColor" paint-order="fill stroke markers" d="m64.91196,80.1c-0.50781,0 -0.9961,-0.05859 -1.44532,-0.17578l-0.3125,-0.07813l-21.7188,-10.25393c-6.69924,-2.5586 -10.99612,-6.83595 -12.10941,-12.03128c-1.26953,-5.93751 1.48438,-12.36331 8.20315,-19.10161c4.98048,-4.98048 9.98049,-7.50002 14.86332,-7.50002c6.34767,0 11.75784,4.31642 15.19535,12.12894l10.56643,20.62505l0.09766,0.29297c1.05469,3.4961 -1.40625,7.89064 -4.08204,10.83987c-2.28516,2.53907 -5.91798,5.25392 -9.25784,5.25392zm-12.51956,-42.22667c-2.92969,0 -6.38673,1.89454 -9.98049,5.4883c-4.88282,4.88282 -7.08986,9.2969 -6.34767,12.75394c0.82031,3.84767 5.33204,6.07423 7.92971,7.07033l0.25391,0.11719l20.87896,9.86331c0.74219,-0.23438 2.34376,-1.19141 3.90626,-2.91016c1.58204,-1.75782 2.36329,-3.47657 2.51954,-4.21876l-10.25393,-20.07818c-1.60157,-3.69142 -4.47267,-8.08596 -8.90627,-8.08596z" stroke-width="5" stroke-miterlimit="10" stroke-dasharray=""></path></g></svg>