<svg data-v-9833e8b2="" version="1.1" xmlns="http://www.w3.org/2000/svg" xmlns:xlink="http://www.w3.org/1999/xlink" width="22" height="25"><g data-v-9833e8b2=""><path data-v-9833e8b2="" transform="scale(0.12953367875647667)" fill="none" stroke="currentColor" paint-order="fill stroke markers" d="m23.1,1l110.7,0c12.2,0 22.1,9.9 22.1,22.1l0,147.6c0,12.2 -9.9,22.1 -22.1,22.1l-110.7,0c-12.2,0 -22.1,-9.9 -22.1,-22.1l0,-147.5c0,-12.2 9.9,-22.2 22.1,-22.2l0,0z" stroke-width="5" stroke-miterlimit="10" stroke-dasharray=""></path><path data-v-9833e8b2="" transform="scale(0.12953367875647667)" fill="none" stroke="currentColor" paint-order="fill stroke markers" d="m23.1,1l110.7,0l0,132.9c0,20.4 -16.5,36.9 -36.9,36.9l-36.9,0c-20.4,0 -36.9,-16.5 -36.9,-36.9l0,-132.9l0,0z" stroke-width="5" stroke-miterlimit="10" stroke-dasharray=""></path><path data-v-9833e8b2="" transform="scale(0.12953367875647667)" fill="none" stroke="currentColor" paint-order="fill stroke markers" d="m23.1,15.8l110.7,0l0,7.4l-110.7,0l0,-7.4l0,0z" stroke-width="5" stroke-miterlimit="10" stroke-dasharray=""></path><path data-v-9833e8b2="" transform="scale(0.12953367875647667)" fill="none" stroke="currentColor" paint-order="fill stroke markers" d="m23.1,30.6l110.7,0l0,7.4l-110.7,0l0,-7.4l0,0z" stroke-width="5" stroke-miterlimit="10" stroke-dasharray=""></path><path data-v-9833e8b2="" transform="scale(0.12953367875647667)" fill="none" stroke="currentColor" paint-order="fill stroke markers" d="m23.1,45.3l110.7,0l0,7.4l-110.7,0l0,-7.4l0,0z" stroke-width="5" stroke-miterlimit="10" stroke-dasharray=""></path><path data-v-9833e8b2="" transform="scale(0.12953367875647667)" fill="none" stroke="currentColor" paint-order="fill stroke markers" d="m23.1,60.1l110.7,0l0,7.4l-110.7,0l0,-7.4l0,0z" stroke-width="5" stroke-miterlimit="10" stroke-dasharray=""></path><path data-v-9833e8b2="" transform="scale(0.12953367875647667)" fill="none" stroke="currentColor" paint-order="fill stroke markers" d="m23.1,97l110.7,0l0,36.9c0,20.4 -16.5,36.9 -36.9,36.9l-36.9,0c-20.4,0 -36.9,-16.5 -36.9,-36.9l0,-36.9l0,0z" stroke-width="5" stroke-miterlimit="10" stroke-dasharray=""></path></g></svg>