<svg data-v-9833e8b2="" version="1.1" xmlns="http://www.w3.org/2000/svg" xmlns:xlink="http://www.w3.org/1999/xlink" width="24.5" height="25"><g data-v-9833e8b2=""><path data-v-9833e8b2="" transform="scale(0.12437810945273632)" fill="none" stroke="currentColor" paint-order="fill stroke markers" d="m117.56011,193.39079l66.60578,0l0,7.42654l-66.60578,0l0,-7.42654zm33.01981,-59.17923c-14.12042,0 -25.57662,9.35811 -25.57662,20.84761l0,28.807c0,1.58189 1.53193,2.99726 3.63001,2.99726l43.87656,0c1.89826,0 3.63001,-1.23221 3.63001,-2.99726l0,-28.807c-0.18317,-11.65601 -11.45619,-20.84761 -25.55997,-20.84761zm10.49041,28.27415l-7.4432,10.94a3.81318,3.81318 0 0 1 -4.96213,1.06569c-1.7151,-0.69936 -2.48106,-2.66423 -1.33212,-4.06295l4.39598,-6.54402l-8.40898,0c-0.56615,0 -1.1323,-0.16651 -1.7151,-0.33303c-1.7151,-0.71601 -2.48106,-2.66423 -1.33211,-4.0796l7.44319,-10.95665a3.81318,3.81318 0 0 1 4.96213,-1.04904c1.7151,0.69936 2.48106,2.64758 1.33211,4.06295l-4.37933,6.52737l8.39233,0c0.56615,0 1.14895,0.18317 1.7151,0.36633c1.53193,0.69936 2.09808,2.46441 1.33212,4.06295z" stroke-width="5" stroke-miterlimit="10" stroke-dasharray=""></path><path data-v-9833e8b2="" transform="scale(0.12437810945273632)" fill="none" stroke="currentColor" paint-order="fill stroke markers" d="m111.73211,200.81734l-103.20565,0a7.30999,7.30999 0 0 1 -7.52645,-7.09352l0,-185.63031c0,-4.02965 3.4635,-7.09352 7.52645,-7.09352l151.46154,0c4.26277,0 7.52645,3.26368 7.52645,7.09352l0,108.35095c-1.21555,0 -2.44776,-0.19982 -3.66332,-0.19982c-31.55449,0 -57.19771,26.85878 -57.19771,59.82864c0,8.82527 1.83166,17.26755 5.07869,24.74405zm0.21647,-82.65777l-23.41193,0l18.69957,-21.8467l-29.68953,0l-22.81248,37.38249l19.36563,0l-7.16012,31.45458l44.9922,-46.99038l0.01665,0zm25.64322,-88.2027c0,-1.73175 -1.63184,-3.26368 -3.86313,-3.26368l-98.5266,0c-2.03148,0 -3.86313,1.33211 -3.86313,3.26368l0,38.34828c0,1.73175 1.61519,3.26368 3.86313,3.26368l98.50995,0c2.03148,0 3.86314,-1.33211 3.86314,-3.26368l0,-38.33163l0.01665,-0.01665z" stroke-width="5" stroke-miterlimit="10" stroke-dasharray=""></path></g></svg>