<svg data-v-9833e8b2="" version="1.1" xmlns="http://www.w3.org/2000/svg" xmlns:xlink="http://www.w3.org/1999/xlink" width="25" height="22.5"><g data-v-9833e8b2=""><path data-v-9833e8b2="" transform="scale(0.13966480446927373)" fill="none" stroke="currentColor" paint-order="fill stroke markers" d="m4.4,96.5l170.6,0l0,68.2l-170.6,0l0,-68.2l0,0z" stroke-width="5" stroke-miterlimit="10" stroke-dasharray=""></path><path data-v-9833e8b2="" transform="scale(0.13966480446927373)" fill="none" stroke="currentColor" paint-order="fill stroke markers" d="m161.3,135l-5.6,3.9l-7,-10l-7,10l-5.6,7.9l-5.6,-7.9l-7,-10l-7,10l-5.6,7.9l-5.6,-7.9l-7,-10l-7,10l-5.6,7.9l-5.6,-7.9l-7,-10l-7,10l-5.6,7.9l-5.6,-7.9l-7,-10l-7,10l-5.6,7.9l-5.6,-7.9l-12.8,-18l5.6,-3.9l12.6,17.9l8.5,-12l4.2,-5.9l4.2,5.9l8.5,12l8.5,-12l4.2,-5.9l4.2,5.9l8.5,12l8.5,-12l4.2,-5.9l4.2,5.9l8.5,12l8.5,-12l4.2,-5.9l4.2,5.9l8.5,12l8.5,-12l4.2,-5.9l4.2,5.9l7.7,12.1z" stroke-width="5" stroke-miterlimit="10" stroke-dasharray=""></path><path data-v-9833e8b2="" transform="scale(0.13966480446927373)" fill="none" stroke="currentColor" paint-order="fill stroke markers" d="m89.7,18.1c-39.6,0 -71.6,32.1 -71.6,71.6l-17.1,0c0,-49 39.7,-88.7 88.7,-88.7c49,0 88.7,39.7 88.7,88.7l-17.1,0c0,-39.5 -32,-71.6 -71.6,-71.6l0,0z" stroke-width="5" stroke-miterlimit="10" stroke-dasharray=""></path><path data-v-9833e8b2="" transform="scale(0.13966480446927373)" fill="none" stroke="currentColor" paint-order="fill stroke markers" d="m89.7,31.7c32,0 58,26 58,58l-17.1,0c0,-22.6 -18.3,-40.9 -40.9,-40.9c-22.6,0 -40.9,18.3 -40.9,40.9l-17.1,0c0,-32 26,-58 58,-58l0,0z" stroke-width="5" stroke-miterlimit="10" stroke-dasharray=""></path><path data-v-9833e8b2="" transform="scale(0.13966480446927373)" fill="none" stroke="currentColor" paint-order="fill stroke markers" d="m89.7,62.4c15.1,0 27.3,12.2 27.3,27.3l-54.6,0c0,-15 12.2,-27.3 27.3,-27.3l0,0z" stroke-width="5" stroke-miterlimit="10" stroke-dasharray=""></path></g></svg>