<svg data-v-9833e8b2="" version="1.1" xmlns="http://www.w3.org/2000/svg" xmlns:xlink="http://www.w3.org/1999/xlink" width="25" height="15"><g data-v-9833e8b2=""><path data-v-9833e8b2="" transform="scale(0.13089005235602094)" fill="none" stroke="currentColor" paint-order="fill stroke markers" d="m44.4,79.8l102.4,0l0,15.8c0,13.1 -10.6,23.6 -23.6,23.6l-55.2,0c-13.1,0 -23.6,-10.6 -23.6,-23.6l0,-15.8l0,0z" stroke-width="5" stroke-miterlimit="10" stroke-dasharray=""></path><path data-v-9833e8b2="" transform="scale(0.13089005235602094)" fill="none" stroke="currentColor" paint-order="fill stroke markers" d="m68,83.7l7.9,0l0,15.8c0,2.2 -1.8,3.9 -3.9,3.9c-2.2,0 -3.9,-1.8 -3.9,-3.9l0,-15.8l-0.1,0z" stroke-width="5" stroke-miterlimit="10" stroke-dasharray=""></path><path data-v-9833e8b2="" transform="scale(0.13089005235602094)" fill="none" stroke="currentColor" paint-order="fill stroke markers" d="m91.7,83.7l7.9,0l0,15.8c0,2.2 -1.8,3.9 -3.9,3.9c-2.2,0 -3.9,-1.8 -3.9,-3.9l0,-15.8l-0.1,0z" stroke-width="5" stroke-miterlimit="10" stroke-dasharray=""></path><path data-v-9833e8b2="" transform="scale(0.13089005235602094)" fill="none" stroke="currentColor" paint-order="fill stroke markers" d="m115.3,83.7l7.9,0l0,15.8c0,2.2 -1.8,3.9 -3.9,3.9c-2.2,0 -3.9,-1.8 -3.9,-3.9l0,-15.8l-0.1,0z" stroke-width="5" stroke-miterlimit="10" stroke-dasharray=""></path><path data-v-9833e8b2="" transform="scale(0.13089005235602094)" fill="none" stroke="currentColor" paint-order="fill stroke markers" d="m1,1l189.1,0l0,47.3c0,21.8 -17.6,39.4 -39.4,39.4l-110.3,0c-21.8,0 -39.4,-17.6 -39.4,-39.4l0,-47.3l0,0z" stroke-width="5" stroke-miterlimit="10" stroke-dasharray=""></path><path data-v-9833e8b2="" transform="scale(0.13089005235602094)" fill="none" stroke="currentColor" paint-order="fill stroke markers" d="m1,28.6l189.1,0l0,7.9l-189.1,0l0,-7.9l0,0z" stroke-width="5" stroke-miterlimit="10" stroke-dasharray=""></path></g></svg>