<svg data-v-9833e8b2="" version="1.1" xmlns="http://www.w3.org/2000/svg" xmlns:xlink="http://www.w3.org/1999/xlink" width="25" height="22.5"><g data-v-9833e8b2=""><path data-v-9833e8b2="" transform="scale(0.13227513227513227)" fill="none" stroke="currentColor" paint-order="fill stroke markers" d="m25.5,1l138.7,0c13.5,0 24.5,11 24.5,24.5l0,114.3c0,13.5 -11,24.5 -24.5,24.5l-138.7,0c-13.5,0 -24.5,-11 -24.5,-24.5l0,-114.3c0,-13.5 11,-24.5 24.5,-24.5l0,0z" stroke-width="5" stroke-miterlimit="10" stroke-dasharray=""></path><path data-v-9833e8b2="" transform="scale(0.13227513227513227)" fill="none" stroke="currentColor" paint-order="fill stroke markers" d="m55.5,129.9l0,10.4c-11,-10.4 -17.8,-25.1 -17.8,-41.4s6.9,-31 17.8,-41.4l0,10.4c-6.7,8.5 -10.8,19.3 -10.8,31s4.1,22.5 10.8,31z" stroke-width="5" stroke-miterlimit="10" stroke-dasharray=""></path><path data-v-9833e8b2="" transform="scale(0.13227513227513227)" fill="none" stroke="currentColor" paint-order="fill stroke markers" d="m134.1,140.3l0,-10.4c6.7,-8.5 10.8,-19.3 10.8,-31s-4.1,-22.5 -10.8,-31l0,-10.4c11,10.4 17.8,25.1 17.8,41.4s-6.8,31 -17.8,41.4z" stroke-width="5" stroke-miterlimit="10" stroke-dasharray=""></path><path data-v-9833e8b2="" transform="scale(0.13227513227513227)" fill="none" stroke="currentColor" paint-order="fill stroke markers" d="m94.8,63.4c19.6,0 35.5,15.9 35.5,35.5s-15.9,35.5 -35.5,35.5c-19.6,0 -35.5,-15.9 -35.5,-35.5s15.9,-35.5 35.5,-35.5l0,0z" stroke-width="5" stroke-miterlimit="10" stroke-dasharray=""></path><path data-v-9833e8b2="" transform="scale(0.13227513227513227)" fill="none" stroke="currentColor" paint-order="fill stroke markers" d="m115.3,25.5l-20.4,28.6l-20.5,-28.6l40.9,0l0,0z" stroke-width="5" stroke-miterlimit="10" stroke-dasharray=""></path></g></svg>