<svg data-v-9833e8b2="" version="1.1" xmlns="http://www.w3.org/2000/svg" xmlns:xlink="http://www.w3.org/1999/xlink" width="19.5" height="25"><g data-v-9833e8b2=""><path data-v-9833e8b2="" transform="scale(0.13368983957219252)" fill="none" stroke="currentColor" paint-order="fill stroke markers" d="m53.8,148.2l30.2,0l0,37.8l-30.2,0l0,-37.8l0,0z" stroke-width="5" stroke-miterlimit="10" stroke-dasharray=""></path><path data-v-9833e8b2="" transform="scale(0.13368983957219252)" fill="none" stroke="currentColor" paint-order="fill stroke markers" d="m38.7,118l60.4,0l0,37.7l-60.4,0l0,-37.7l0,0z" stroke-width="5" stroke-miterlimit="10" stroke-dasharray=""></path><path data-v-9833e8b2="" transform="scale(0.13368983957219252)" fill="none" stroke="currentColor" paint-order="fill stroke markers" d="m68.9,1c37.5,0 67.9,30.4 67.9,67.9c0,37.5 -30.4,67.9 -67.9,67.9c-37.5,0 -67.9,-30.4 -67.9,-67.9c0,-37.4 30.4,-67.9 67.9,-67.9l0,0z" stroke-width="5" stroke-miterlimit="10" stroke-dasharray=""></path><path data-v-9833e8b2="" transform="scale(0.13368983957219252)" fill="none" stroke="currentColor" paint-order="fill stroke markers" d="m87.8,69c0,10.4 -8.4,18.9 -18.9,18.9c-10.4,0 -18.9,-8.5 -18.9,-18.9c0,-9.1 6.5,-16.7 15.1,-18.5l0,-23c0,-2.1 1.7,-3.8 3.8,-3.8c2.1,0 3.8,1.7 3.8,3.8l0,23c8.6,1.7 15.1,9.3 15.1,18.5z" stroke-width="5" stroke-miterlimit="10" stroke-dasharray=""></path></g></svg>