<svg data-v-9833e8b2="" version="1.1" xmlns="http://www.w3.org/2000/svg" xmlns:xlink="http://www.w3.org/1999/xlink" width="24.5" height="25"><g data-v-9833e8b2=""><path data-v-9833e8b2="" transform="scale(0.13513513513513514)" fill="none" stroke="currentColor" paint-order="fill stroke markers" d="m134.33367,55.19325a54.1668,54.1668 0 1 0 -108.3336,0l16.66671,0a37.50009,37.50009 0 0 1 75.00019,0l16.66671,0z" stroke-width="5" stroke-miterlimit="10" stroke-dasharray=""></path><path data-v-9833e8b2="" transform="scale(0.13513513513513514)" fill="none" stroke="currentColor" paint-order="fill stroke markers" d="m1,51.02658m8.33335,0l141.66702,0q8.33335,0 8.33335,8.33335l0,0q0,8.33335 -8.33335,8.33335l-141.66702,0q-8.33335,0 -8.33335,-8.33335l0,0q0,-8.33335 8.33335,-8.33335z" stroke-width="5" stroke-miterlimit="10" stroke-dasharray=""></path><path data-v-9833e8b2="" transform="scale(0.13513513513513514)" fill="none" stroke="currentColor" paint-order="fill stroke markers" d="m9.33335,167.69354m8.33335,0l125.00031,0q8.33335,0 8.33335,8.33335l0,0q0,8.33335 -8.33335,8.33335l-125.00031,0q-8.33335,0 -8.33335,-8.33335l0,0q0,-8.33335 8.33335,-8.33335z" stroke-width="5" stroke-miterlimit="10" stroke-dasharray=""></path><path data-v-9833e8b2="" transform="scale(0.13513513513513514)" fill="none" stroke="currentColor" paint-order="fill stroke markers" d="m117.66696,59.35993l16.66671,0l0,32.75008l-16.66671,0l0,-32.75008zm0,106.94194l0,-47.97512l16.66671,0l0,47.97512c0,9.50002 -6.20835,18.05838 -15.38337,18.05838l-77.56686,0c-9.17502,0 -15.38337,-8.55836 -15.38337,-18.05838l0,-47.92512l16.66671,0l0,47.92512c0,0.54167 0.08333,1.01667 0.2,1.39167l74.60019,0a4.65001,4.65001 0 0 0 0.2,-1.39167zm-75.00019,-74.23352l-16.66671,0l0,-32.70841l16.66671,0l0,32.70841z" stroke-width="5" stroke-miterlimit="10" stroke-dasharray=""></path><path data-v-9833e8b2="" transform="scale(0.13513513513513514)" fill="none" stroke="currentColor" paint-order="fill stroke markers" d="m55.5668,89.66001m8.33335,0l0,0q8.33335,0 8.33335,8.33335l0,41.66677q0,8.33335 -8.33335,8.33335l0,0q-8.33335,0 -8.33335,-8.33335l0,-41.66677q0,-8.33335 8.33335,-8.33335z" stroke-width="5" stroke-miterlimit="10" stroke-dasharray=""></path><path data-v-9833e8b2="" transform="scale(0.13513513513513514)" fill="none" stroke="currentColor" paint-order="fill stroke markers" d="m88.90022,89.66001m8.33335,0l0,0q8.33335,0 8.33335,8.33335l0,41.66677q0,8.33335 -8.33335,8.33335l0,0q-8.33335,0 -8.33335,-8.33335l0,-41.66677q0,-8.33335 8.33335,-8.33335z" stroke-width="5" stroke-miterlimit="10" stroke-dasharray=""></path><path data-v-9833e8b2="" transform="scale(0.13513513513513514)" fill="none" stroke="currentColor" paint-order="fill stroke markers" d="m134.33367,84.36l16.66671,0l0,41.66677l-16.66671,0l0,-41.66677zm-125.00031,0l16.66671,0l0,41.66677l-16.66671,0l0,-41.66677z" stroke-width="5" stroke-miterlimit="10" stroke-dasharray=""></path></g></svg>