<svg data-v-9833e8b2="" version="1.1" xmlns="http://www.w3.org/2000/svg" xmlns:xlink="http://www.w3.org/1999/xlink" width="9.5" height="25"><g data-v-9833e8b2=""><path data-v-9833e8b2="" transform="scale(0.13020833333333334)" fill="none" stroke="currentColor" paint-order="fill stroke markers" d="m26.6,59.6l11.7,0l0,117.2l-11.7,0l0,-117.2l0,0z" stroke-width="5" stroke-miterlimit="10" stroke-dasharray=""></path><path data-v-9833e8b2="" transform="scale(0.13020833333333334)" fill="none" stroke="currentColor" paint-order="fill stroke markers" d="m23.7,100.6l17.6,0c3.2,0 5.9,2.6 5.9,5.9c0,3.2 -2.6,5.9 -5.9,5.9l-17.6,0c-3.2,0 -5.9,-2.6 -5.9,-5.9c0,-3.3 2.7,-5.9 5.9,-5.9l0,0z" stroke-width="5" stroke-miterlimit="10" stroke-dasharray=""></path><path data-v-9833e8b2="" transform="scale(0.13020833333333334)" fill="none" stroke="currentColor" paint-order="fill stroke markers" d="m29.6,166.5l5.9,0c3.2,0 5.9,2.6 5.9,5.9l0,13.2c0,3.2 -2.6,5.9 -5.9,5.9l-5.9,0c-3.2,0 -5.9,-2.6 -5.9,-5.9l0,-13.2c0,-3.3 2.6,-5.9 5.9,-5.9l0,0z" stroke-width="5" stroke-miterlimit="10" stroke-dasharray=""></path><path data-v-9833e8b2="" transform="scale(0.13020833333333334)" fill="none" stroke="currentColor" paint-order="fill stroke markers" d="m16.4,49.3l32.2,0l0,13.2l-32.2,0l0,-13.2l0,0z" stroke-width="5" stroke-miterlimit="10" stroke-dasharray=""></path><path data-v-9833e8b2="" transform="scale(0.13020833333333334)" fill="none" stroke="currentColor" paint-order="fill stroke markers" d="m6.9,1l51.3,0c3.2,0 5.9,2.6 5.9,5.9l0,39.6c0,3.2 -2.6,5.9 -5.9,5.9l-51.3,0c-3.2,0 -5.9,-2.6 -5.9,-5.9l0,-39.7c0,-3.2 2.6,-5.8 5.9,-5.8l0,0z" stroke-width="5" stroke-miterlimit="10" stroke-dasharray=""></path><path data-v-9833e8b2="" transform="scale(0.13020833333333334)" fill="none" stroke="currentColor" paint-order="fill stroke markers" d="m32.5,9.8c9.7,0 17.6,7.9 17.6,17.6c0,9.7 -7.9,17.6 -17.6,17.6c-9.7,0 -17.6,-7.9 -17.6,-17.6c0,-9.8 7.9,-17.6 17.6,-17.6l0,0z" stroke-width="5" stroke-miterlimit="10" stroke-dasharray=""></path></g></svg>