<svg data-v-9833e8b2="" version="1.1" xmlns="http://www.w3.org/2000/svg" xmlns:xlink="http://www.w3.org/1999/xlink" width="24.5" height="25"><g data-v-9833e8b2=""><path data-v-9833e8b2="" transform="scale(0.13368983957219252)" fill="none" stroke="currentColor" paint-order="fill stroke markers" d="m119.6,147c0,21.8 -17.7,39.5 -39.5,39.5c-21.8,0 -39.5,-17.7 -39.5,-39.5c0,-12.6 6,-23.9 15.2,-31.1l0,-35.8c0,-13.4 10.9,-24.3 24.3,-24.3c13.4,0 24.3,10.9 24.3,24.3l0,35.8c9.3,7.2 15.2,18.5 15.2,31.1z" stroke-width="5" stroke-miterlimit="10" stroke-dasharray=""></path><path data-v-9833e8b2="" transform="scale(0.13368983957219252)" fill="none" stroke="currentColor" paint-order="fill stroke markers" d="m80.1,16.3c-35.3,0 -63.8,28.6 -63.8,63.8l-15.3,0c0,-43.7 35.4,-79.1 79.1,-79.1c43.7,0 79,35.4 79,79.1l-15.2,0c0.1,-35.2 -28.5,-63.8 -63.8,-63.8l0,0z" stroke-width="5" stroke-miterlimit="10" stroke-dasharray=""></path><path data-v-9833e8b2="" transform="scale(0.13368983957219252)" fill="none" stroke="currentColor" paint-order="fill stroke markers" d="m80.1,28.4c28.5,0 51.7,23.1 51.7,51.7l-15.2,0c0,-20.1 -16.3,-36.5 -36.5,-36.5c-20.1,0 -36.5,16.3 -36.5,36.5l-15.2,0c0,-28.5 23.2,-51.7 51.7,-51.7l0,0z" stroke-width="5" stroke-miterlimit="10" stroke-dasharray=""></path><path data-v-9833e8b2="" transform="scale(0.13368983957219252)" fill="none" stroke="currentColor" paint-order="fill stroke markers" d="m98.3,147c0,10.1 -8.2,18.2 -18.2,18.2s-18.2,-8.2 -18.2,-18.2c0,-7.9 5.1,-14.7 12.2,-17.2l0,-31.5c0,-3.4 2.7,-6.1 6.1,-6.1c3.4,0 6.1,2.7 6.1,6.1l0,31.5c7,2.5 12,9.3 12,17.2z" stroke-width="5" stroke-miterlimit="10" stroke-dasharray=""></path></g></svg>