<svg data-v-9833e8b2="" version="1.1" xmlns="http://www.w3.org/2000/svg" xmlns:xlink="http://www.w3.org/1999/xlink" width="25" height="22.5"><g data-v-9833e8b2=""><path data-v-9833e8b2="" transform="scale(0.13297872340425532)" fill="none" stroke="currentColor" paint-order="fill stroke markers" d="m63.3,128.2l62.3,0l0,32l-62.3,0l0,-32l0,0z" stroke-width="5" stroke-miterlimit="10" stroke-dasharray=""></path><path data-v-9833e8b2="" transform="scale(0.13297872340425532)" fill="none" stroke="currentColor" paint-order="fill stroke markers" d="m28.7,149.8l131.6,0l0,20.8l-131.6,0l0,-20.8l0,0z" stroke-width="5" stroke-miterlimit="10" stroke-dasharray=""></path><path data-v-9833e8b2="" transform="scale(0.13297872340425532)" fill="none" stroke="currentColor" paint-order="fill stroke markers" d="m1,46l186.9,0l0,55.4l-186.9,0l0,-55.4l0,0z" stroke-width="5" stroke-miterlimit="10" stroke-dasharray=""></path><path data-v-9833e8b2="" transform="scale(0.13297872340425532)" fill="none" stroke="currentColor" paint-order="fill stroke markers" d="m94.5,1c40.2,0 72.7,32.6 72.7,72.7c0,40.2 -32.6,72.7 -72.7,72.7c-40.2,0 -72.7,-32.6 -72.7,-72.7c0,-40.2 32.5,-72.7 72.7,-72.7l0,0z" stroke-width="5" stroke-miterlimit="10" stroke-dasharray=""></path><path data-v-9833e8b2="" transform="scale(0.13297872340425532)" fill="none" stroke="currentColor" paint-order="fill stroke markers" d="m94.5,28.7c24.9,0 45,20.1 45,45c0,24.9 -20.1,45 -45,45c-24.9,0 -45,-20.2 -45,-45c0,-24.9 20.1,-45 45,-45l0,0z" stroke-width="5" stroke-miterlimit="10" stroke-dasharray=""></path></g></svg>