<svg data-v-9833e8b2="" version="1.1" xmlns="http://www.w3.org/2000/svg" xmlns:xlink="http://www.w3.org/1999/xlink" width="25" height="20"><g data-v-9833e8b2=""><path data-v-9833e8b2="" transform="scale(0.12437810945273632)" fill="none" stroke="currentColor" paint-order="fill stroke markers" d="m184.80667,1.00667l-166.88667,0c-9.02667,0 -16.92,7.88 -16.92,16.9s7.89333,16.91333 16.92,16.91333l0,63.14667c3.38,31.58 39.46667,56.38667 82.31333,56.38667c43.98,0 78.93333,-24.80667 82.32,-56.38667l0,-63.14l1.12667,0c9.02,0 16.91333,-7.89333 16.91333,-16.91333c1.13333,-9.02 -6.76667,-16.91333 -15.78667,-16.91333l0,0.00667zm-120.65333,89.06667c0,6.76667 -5.64,11.28 -11.28,11.28c-6.76667,0 -11.27333,-5.64 -11.27333,-11.28l0,-39.46667c0,-6.76 5.63333,-11.27333 11.27333,-11.27333c6.76667,0 11.28,5.64 11.28,11.27333l0,39.46667zm47.36,0c0,6.76667 -5.64,11.28 -11.28,11.28c-6.76667,0 -11.27333,-5.64 -11.27333,-11.28l0,-39.46667c0,-6.76 5.63333,-11.27333 11.27333,-11.27333c6.76667,0 11.28,5.64 11.28,11.27333l0,39.46667zm48.48667,0c0,6.76667 -5.64,11.28 -11.28,11.28c-6.76,0 -11.27333,-5.64 -11.27333,-11.28l0,-39.46667c0,-6.76 5.64,-11.27333 11.27333,-11.27333c6.76667,0 11.28,5.64 11.28,11.27333l0,39.46667z" stroke-width="5" stroke-miterlimit="10" stroke-dasharray=""></path></g></svg>