<svg data-v-9833e8b2="" version="1.1" xmlns="http://www.w3.org/2000/svg" xmlns:xlink="http://www.w3.org/1999/xlink" width="25" height="25"><g data-v-9833e8b2=""><path data-v-9833e8b2="" transform="scale(0.12437810945273632)" fill="none" stroke="currentColor" paint-order="fill stroke markers" d="m100.98575,1c24.34945,0 46.28896,10.48976 61.71361,27.27439l24.84944,0a4.99989,4.99989 0 0 1 4.99989,4.99989l0,25.89442a4.99989,4.99989 0 0 1 -4.99989,4.99989l-5.07989,0c1.98495,7.30984 3.03993,15.01466 3.03993,22.96948a86.74805,86.74805 0 0 1 -21.14952,56.99872l35.6692,48.9139a4.99989,4.99989 0 0 1 -4.03991,7.94482l-189.99573,0a4.99989,4.99989 0 0 1 -3.95491,-8.04982l36.66418,-47.58393a86.73305,86.73305 0 0 1 -22.2395,-58.22369c0.005,-47.57393 37.84415,-86.13806 84.5231,-86.13806zm-2.49994,44.99899a42.49904,42.49904 0 1 0 0,84.99809a42.49904,42.49904 0 1 0 0,-84.99809z" stroke-width="5" stroke-miterlimit="10" stroke-dasharray=""></path></g></svg>