<svg data-v-9833e8b2="" version="1.1" xmlns="http://www.w3.org/2000/svg" xmlns:xlink="http://www.w3.org/1999/xlink" width="25" height="25"><g data-v-9833e8b2=""><path data-v-9833e8b2="" transform="scale(0.1736111111111111)" fill="none" stroke="currentColor" paint-order="fill stroke markers" d="m124.6892,141.88924l-104.82249,0l0,-72.28907l4.73335,0l0,67.51128l95.35579,0l0,-67.51128l4.73335,0l0,72.28907zm0,0" stroke-width="5" stroke-miterlimit="10" stroke-dasharray=""></path><path data-v-9833e8b2="" transform="scale(0.1736111111111111)" fill="none" stroke="currentColor" paint-order="fill stroke markers" d="m126.37809,143.57814l-108.20027,0l0,-75.66686l8.11113,0l0,67.51128l91.97801,0l0,-67.51128l8.11113,0l0,75.66686zm-104.82249,-3.37779l101.46692,0l0,-68.91128l-1.37778,0l0,67.51128l-98.71136,0l0,-67.51128l-1.37778,0l0,68.91128zm0,0" stroke-width="5" stroke-miterlimit="10" stroke-dasharray=""></path><path data-v-9833e8b2="" transform="scale(0.1736111111111111)" fill="none" stroke="currentColor" paint-order="fill stroke markers" d="m6.71113,75.26685l-3.33334,-3.40001l68.91128,-68.48906l68.91128,68.48906l-3.33334,3.40001l-65.57794,-65.17794l-65.57794,65.17794zm0,0" stroke-width="5" stroke-miterlimit="10" stroke-dasharray=""></path><path data-v-9833e8b2="" transform="scale(0.1736111111111111)" fill="none" stroke="currentColor" paint-order="fill stroke markers" d="m137.86701,77.64464l-65.57794,-65.17794l-65.60017,65.17794l-5.6889,-5.80001l71.28907,-70.84462l71.28907,70.84462l-5.71113,5.80001zm-132.11144,-5.77779l0.97778,1l65.55572,-65.15572l65.55572,65.15572l0.97778,-1l-66.5335,-66.11128l-66.5335,66.11128zm0,0" stroke-width="5" stroke-miterlimit="10" stroke-dasharray=""></path><path data-v-9833e8b2="" transform="scale(0.1736111111111111)" fill="none" stroke="currentColor" paint-order="fill stroke markers" d="m104.71137,118.48918l-16.22226,7.75558l-0.08889,0c-0.46667,0.2 -0.97778,0.2 -1.44445,0l-15.57782,-7.46668l-15.20004,7.31113l-0.08889,0c-0.44445,0.22222 -0.97778,0.22222 -1.44445,0l-0.08889,0l-16.22226,-7.75557c-0.66667,-0.31111 -1.08889,-1 -1.08889,-1.73334l0,-23.26672c0,-0.64445 0.33333,-1.24445 0.88889,-1.6c0.22222,-0.15556 0.46667,-0.24445 0.71111,-0.26667l14.73337,-6.9778l0,-22.17783c-0.02222,-0.15556 -0.02222,-0.31111 0,-0.46667c0.13333,-0.55556 0.48889,-1.04445 1,-1.28889l16.22226,-7.84447c0.51111,-0.24444 1.11111,-0.24444 1.62222,0l16.31115,7.88891c0.53334,0.24445 0.88889,0.73334 1,1.28889c0.02222,0.15556 0.02222,0.31111 0,0.46667l-0.26667,0.02222l0,22.02228l15.17782,7.22224c0.48889,0.24445 0.84445,0.68889 0.97778,1.2c0.08889,0.22222 0.13333,0.44445 0.13333,0.68889l0,23.28895c0.02222,0.71111 -0.4,1.37778 -1.04445,1.68889zm-31.17786,-2.95556l12.44448,5.91113l0,-18.97783l-12.44448,-5.95557l0,19.02227zm-16.24448,5.84446l12.44447,-5.95557l0,-19.1556l-12.44447,5.93335l0,19.17783zm-16.22226,-5.95557l12.44448,5.93335l0,-19.1556l-12.44448,-5.82224l0,19.04449zm2.62223,-22.02228l11.71114,5.60001l11.73336,-5.62223l-11.71114,-5.60001l-11.73336,5.62223zm13.60003,-8.93335l12.44447,5.93335l0,-19.02227l-12.44447,-5.95557l0,19.04449zm14.35559,-27.9334l-11.93336,5.71113l11.93336,5.71113l11.93336,-5.71113l-11.93336,-5.71113zm14.33337,8.7778l-12.44448,5.93335l0,19.04449l12.44448,-5.93335l0,-19.04449zm1.93334,22.40006l-11.95559,5.71113l11.91114,5.71113l11.95558,-5.71113l-11.91114,-5.71113zm14.28892,8.80002l-12.44448,5.93335l0,19.04449l12.44448,-5.93335l0,-19.04449zm0,0" stroke-width="5" stroke-miterlimit="10" stroke-dasharray=""></path></g></svg>