<svg data-v-9833e8b2="" version="1.1" xmlns="http://www.w3.org/2000/svg" xmlns:xlink="http://www.w3.org/1999/xlink" width="24.5" height="25"><g data-v-9833e8b2=""><path data-v-9833e8b2="" transform="scale(0.12437810945273632)" fill="none" stroke="currentColor" paint-order="fill stroke markers" d="m109.07526,200.32647c-23.91568,0 -43.36278,-21.14466 -43.36278,-47.15733c0,-26.00019 19.44709,-47.16981 43.36278,-47.16981c23.87824,0 43.31285,21.16962 43.31285,47.16981s-19.43461,47.15733 -43.31285,47.15733zm0,-92.33001c-22.80478,0 -41.35316,20.27091 -41.35316,45.1602c0,24.91425 18.5359,45.1602 41.35316,45.1602c22.76733,0 41.31571,-20.24595 41.31571,-45.1602c-0.01248,-24.88929 -18.54838,-45.1602 -41.31571,-45.1602z" stroke-width="5" stroke-miterlimit="10" stroke-dasharray=""></path><path data-v-9833e8b2="" transform="scale(0.12437810945273632)" fill="none" stroke="currentColor" paint-order="fill stroke markers" d="m109.07526,182.90148c-15.07836,0 -27.32329,-13.34335 -27.32329,-29.74482s12.24493,-29.74482 27.32329,-29.74482c15.04092,0 27.29833,13.33087 27.29833,29.74482c-0.01248,16.40147 -12.25741,29.74482 -27.29833,29.74482zm0,-58.45362c-14.51667,0 -26.32472,12.88151 -26.32472,28.72129c0,15.85225 11.80806,28.73377 26.32472,28.73377c14.47922,0 26.28728,-12.88151 26.28728,-28.73377c0,-15.83977 -11.80806,-28.72129 -26.28728,-28.72129z" stroke-width="5" stroke-miterlimit="10" stroke-dasharray=""></path><path data-v-9833e8b2="" transform="scale(0.12437810945273632)" fill="none" stroke="currentColor" paint-order="fill stroke markers" d="m109.07526,178.85728c-13.0313,0 -23.62859,-11.52097 -23.62859,-25.70062s10.58481,-25.70062 23.62859,-25.70062c13.00634,0 23.60363,11.52097 23.60363,25.70062s-10.59729,25.70062 -23.60363,25.70062zm0,-50.39019c-12.46961,0 -22.63003,11.08409 -22.63003,24.70205s10.14794,24.70205 22.63003,24.70205c12.45712,0 22.59258,-11.08409 22.59258,-24.70205s-10.13546,-24.70205 -22.59258,-24.70205l0,0zm-30.96806,-82.24448l-11.88295,0l0,-9.07448l11.89543,0l0,9.07448l-0.01248,0zm-10.88438,-0.99857l9.88581,0l0,-7.05238l-9.88581,0l0,7.05238z" stroke-width="5" stroke-miterlimit="10" stroke-dasharray=""></path><path data-v-9833e8b2="" transform="scale(0.12437810945273632)" fill="none" stroke="currentColor" paint-order="fill stroke markers" d="m87.35643,38.17166l-31.61713,0l0,-8.27562l31.61713,0l0,8.27562zm-30.60608,-1.02353l29.59503,0l0,-6.24105l-29.59503,0l0,6.24105z" stroke-width="5" stroke-miterlimit="10" stroke-dasharray=""></path><path data-v-9833e8b2="" transform="scale(0.12437810945273632)" fill="none" stroke="currentColor" paint-order="fill stroke markers" d="m90.31468,31.40637l-37.87066,0l-0.02496,-0.9736c0,-0.07489 -0.19971,-7.63904 0,-19.39716c0.09986,-6.9026 10.14794,-10.0356 19.44709,-10.0356c7.32699,0 13.46817,1.83487 16.42643,4.94291a6.80274,6.80274 0 0 1 2.0221,5.1551l0,20.30836zm-35.91097,-2.00962l33.90135,0l0,-18.34867a4.86801,4.86801 0 0 0 -1.47289,-3.71966c-2.54635,-2.65868 -8.27562,-4.3188 -14.96602,-4.3188c-8.40045,0 -17.36258,2.82095 -17.43748,8.06343a579.41855,579.41855 0 0 0 -0.02496,18.32371z" stroke-width="5" stroke-miterlimit="10" stroke-dasharray=""></path><path data-v-9833e8b2="" transform="scale(0.12437810945273632)" fill="none" stroke="currentColor" paint-order="fill stroke markers" d="m104.02001,26.17637l-15.71495,0l0,-6.45324l15.71495,0l0,6.45324zm-13.70533,-2.0221l11.69572,0l0,-2.42153l-11.69572,0l0,2.42153zm44.53609,103.08957c-1.77246,0 -3.19541,-1.71005 -3.19541,-3.80704c0,-2.08451 1.42296,-3.79456 3.19541,-3.79456c1.75998,0 3.19541,1.71005 3.19541,3.79456c0,2.10947 -1.43544,3.80704 -3.19541,3.80704zm0,-6.59054c-1.19828,0 -2.18436,1.26069 -2.18436,2.79599c0,1.54778 0.98608,2.80847 2.18436,2.80847c1.22325,0 2.19685,-1.26069 2.19685,-2.80847c0,-1.5353 -0.9736,-2.79599 -2.19685,-2.79599zm-52.59952,12.09514c-1.75997,0 -3.19541,-1.69756 -3.19541,-3.79455c0,-2.08451 1.43544,-3.79455 3.19541,-3.79455s3.19541,1.71005 3.19541,3.79455c0,2.09699 -1.43544,3.79455 -3.19541,3.79455zm0,-6.59054c-1.21076,0 -2.18436,1.26069 -2.18436,2.79599c0,1.54778 0.9736,2.79599 2.18436,2.79599s2.18437,-1.24821 2.18437,-2.79599c0,-1.5353 -0.9736,-2.79599 -2.18437,-2.79599zm2.69613,62.11087c-1.75998,0 -3.19541,-1.71005 -3.19541,-3.79456c0,-2.09699 1.43544,-3.80704 3.19541,-3.80704s3.19541,1.71005 3.19541,3.80704c0,2.08451 -1.43544,3.79456 -3.19541,3.79456zm0,-6.59054c-1.21076,0 -2.19685,1.26069 -2.19685,2.80847c0,1.5353 0.98608,2.79599 2.19685,2.79599c1.21076,0 2.18436,-1.26069 2.18436,-2.79599c0,-1.56026 -0.9736,-2.80847 -2.18436,-2.80847zm49.90339,-4.03171c-1.77246,0 -3.19541,-1.69756 -3.19541,-3.79456c0,-2.10947 1.42296,-3.80704 3.19541,-3.80704c1.75998,0 3.19541,1.69756 3.19541,3.80704c0,2.10947 -1.43544,3.79456 -3.19541,3.79456zm0,-6.57806c-1.19828,0 -2.18436,1.24821 -2.18436,2.78351s0.98608,2.80847 2.18436,2.80847c1.22325,0 2.19685,-1.27317 2.19685,-2.80847s-0.9736,-2.78351 -2.19685,-2.78351zm-85.8518,-4.94291c-1.44792,0 -2.63372,-1.34807 -2.63372,-3.00818s1.1858,-2.9957 2.63372,-2.9957s2.63372,1.33558 2.63372,2.9957s-1.1858,3.00818 -2.63372,3.00818zm0,-4.99283c-0.89871,0 -1.63515,0.88623 -1.63515,1.97217c0,1.11091 0.73644,2.00962 1.63515,2.00962s1.62267,-0.89871 1.62267,-2.00962c0,-1.08594 -0.72396,-1.97217 -1.62267,-1.97217zm34.97481,-111.47753l-1.01105,0l0,-3.43258l-24.5273,0l0,3.43258l-0.99857,0l0,-4.43114l26.53692,0l0,4.43114zm35.09963,-3.90689c-5.00532,0 -7.72641,-11.19643 -7.72641,-21.7438s2.72109,-21.7438 7.72641,-21.7438c5.03028,0 7.73889,11.19643 7.73889,21.7438s-2.70861,21.7438 -7.73889,21.7438zm0,-41.47798c-2.3716,0 -5.7168,7.51422 -5.7168,19.73418s3.3452,19.73418 5.7168,19.73418c2.38408,0 5.7168,-7.51422 5.7168,-19.73418s-3.33272,-19.73418 -5.7168,-19.73418z" stroke-width="5" stroke-miterlimit="10" stroke-dasharray=""></path><path data-v-9833e8b2="" transform="scale(0.12437810945273632)" fill="none" stroke="currentColor" paint-order="fill stroke markers" d="m113.54385,28.88499l-11.54593,0l0,-11.7082l11.54593,0l0,11.7082zm-9.52383,-2.00962l7.5267,0l0,-7.67648l-7.5267,0l0,7.67648z" stroke-width="5" stroke-miterlimit="10" stroke-dasharray=""></path><path data-v-9833e8b2="" transform="scale(0.12437810945273632)" fill="none" stroke="currentColor" paint-order="fill stroke markers" d="m112.5328,21.43318l13.26846,0l0,3.00818l-13.26846,0l0,-3.00818zm-60.40083,39.68056c-1.44792,0 -2.63372,-1.34806 -2.63372,-2.9957c0,-1.66012 1.1858,-3.00818 2.63372,-3.00818c1.4604,0 2.63372,1.34807 2.63372,3.00818c0,1.64764 -1.17332,2.9957 -2.63372,2.9957zm0,-4.98035c-0.89871,0 -1.62267,0.88623 -1.62267,1.99713c0,1.09842 0.73644,1.98465 1.62267,1.98465s1.63515,-0.88623 1.63515,-1.98465s-0.73644,-1.99713 -1.63515,-1.99713zm41.54039,6.17863c-1.44792,0 -2.63372,-1.33558 -2.63372,-2.98322c0,-1.66012 1.1858,-2.9957 2.63372,-2.9957s2.63372,1.33558 2.63372,2.9957c-0.01248,1.64764 -1.1858,2.98322 -2.63372,2.98322zm0,-4.98035c-0.89871,0 -1.63515,0.88623 -1.63515,1.99713c0,1.09842 0.73644,1.98465 1.63515,1.98465s1.63515,-0.88623 1.63515,-1.98465c-0.01248,-1.11091 -0.73644,-1.99713 -1.63515,-1.99713zm-72.45852,35.17453c-1.44792,0 -2.63372,-1.34807 -2.63372,-2.9957s1.1858,-2.9957 2.63372,-2.9957c1.4604,0 2.63372,1.33558 2.63372,2.9957s-1.17332,2.9957 -2.63372,2.9957zm0,-4.99284c-0.89871,0 -1.62267,0.89871 -1.62267,1.99713s0.73644,1.99714 1.62267,1.99714c0.89871,0 1.63515,-0.89871 1.63515,-1.99714s-0.73644,-1.99713 -1.63515,-1.99713zm-2.13444,47.73151c-1.44792,0 -2.63372,-1.3231 -2.63372,-2.98322c0,-1.64764 1.1858,-3.00818 2.63372,-3.00818c1.4604,0 2.63372,1.36055 2.63372,3.00818s-1.17332,2.98322 -2.63372,2.98322zm0,-4.98035c-0.89871,0 -1.62267,0.87375 -1.62267,1.98465c0,1.08594 0.73644,1.98465 1.62267,1.98465s1.62267,-0.89871 1.62267,-1.98465c0,-1.09842 -0.72396,-1.98465 -1.62267,-1.98465zm100.85527,-22.26805l-27.27336,0l0,-11.90791l27.27336,0l0,11.90791zm-25.25126,-2.00962l23.25413,0l0,-7.88868l-23.25413,0l0,7.88868zm1.12339,-30.15673l0,18.03662l21.31941,0s14.22958,-23.17924 52.77427,-27.48556c4.41866,-3.70718 -6.42828,-3.73215 -6.42828,-3.73215s-53.91014,7.35195 -67.6654,13.18109z" stroke-width="5" stroke-miterlimit="10" stroke-dasharray=""></path><path data-v-9833e8b2="" transform="scale(0.12437810945273632)" fill="none" stroke="currentColor" paint-order="fill stroke markers" d="m117.12621,94.35354l-21.83117,0l0,-18.86044l0.29957,-0.1373c13.68037,-5.76672 65.59337,-12.91896 67.79022,-13.21853c1.28566,0.03745 7.23961,0.11234 7.98854,2.17188c0.2746,0.74892 -0.12482,1.57274 -1.14835,2.44649l-0.12482,0.09986l-0.14979,0.01248c-37.83321,4.23143 -52.2625,27.02372 -52.39981,27.2484l-0.1373,0.24964l-0.28709,0l0,-0.01248zm-20.83261,-0.99857l20.54552,0c1.68508,-2.48394 16.71351,-23.36647 52.8242,-27.46059c0.57418,-0.51176 0.8363,-0.96112 0.74893,-1.23573c-0.36198,-1.02353 -4.38121,-1.51033 -6.95252,-1.51033c-0.47432,0.06241 -53.13625,7.30202 -67.16612,13.00634l0,17.20032zm17.03805,-72.38363l-1.94721,-0.4868c0.14979,-0.59914 3.65725,-14.64149 10.18539,-16.38898l0.51176,1.94721c-4.48107,1.19828 -7.83875,11.18395 -8.74994,14.92858zm8.45037,21.85614c-6.52813,-1.74749 -10.04808,-15.78984 -10.19787,-16.38898l1.95969,-0.47432c0.91119,3.74463 4.28136,13.71782 8.74994,14.92858l-0.51176,1.93472z" stroke-width="5" stroke-miterlimit="10" stroke-dasharray=""></path><path data-v-9833e8b2="" transform="scale(0.12437810945273632)" fill="none" stroke="currentColor" paint-order="fill stroke markers" d="m66.06198,175.44967a74.10616,74.10616 0 0 1 -29.47021,-11.496c-6.05381,-4.10661 -9.11193,-7.70145 -9.51135,-8.1508c-10.64722,-10.33517 -17.13791,-22.92959 -18.77306,-36.41025c-1.49785,-12.195 0.91119,-24.83936 6.94004,-36.56004a70.57373,70.57373 0 0 1 26.93635,-28.54653c12.08266,-6.97749 25.26375,-9.42398 38.1203,-7.05238c11.94536,2.18436 22.13074,7.05238 30.26906,14.46674a62.88476,62.88476 0 0 1 15.49027,22.43031a82.65639,82.65639 0 0 1 6.42827,29.62l-1.94721,0c0,-0.14979 -0.03745,-14.05483 -6.30345,-28.90852c-8.363,-19.80907 -23.26661,-31.81684 -44.28645,-35.68629c-24.27766,-4.44362 -50.178,9.77348 -62.94717,34.57539c-12.80662,24.8768 -8.51279,51.30138 11.496,70.68607l0.07489,0.08738c0.02496,0.03745 3.05811,3.71966 9.1993,7.88868a72.39611,72.39611 0 0 0 28.60895,11.1465l-0.32453,1.90976z" stroke-width="5" stroke-miterlimit="10" stroke-dasharray=""></path><path data-v-9833e8b2="" transform="scale(0.12437810945273632)" fill="none" stroke="currentColor" paint-order="fill stroke markers" d="m59.3591,175.33733c-15.21567,0 -31.87925,-9.12441 -43.7622,-24.34007a68.81375,68.81375 0 0 1 -13.50562,-29.24553a58.04171,58.04171 0 0 1 3.45754,-33.7266c4.25639,-10.22283 10.1729,-18.7481 17.57478,-25.3636a61.69896,61.69896 0 0 1 20.44566,-12.10763c13.01882,-4.68078 23.60363,-3.89441 24.0405,-3.84448l-0.11234,1.4604c-0.09986,0 -10.74708,-0.78637 -23.47881,3.79455c-11.72068,4.21895 -27.67279,13.99242 -37.10925,36.62245c-8.32555,19.95886 -4.64334,42.95087 9.84837,61.48677c12.99385,16.63862 31.75443,25.82544 47.79392,23.39143l0.2122,1.4604a35.32431,35.32431 0 0 1 -5.40474,0.41191z" stroke-width="5" stroke-miterlimit="10" stroke-dasharray=""></path><path data-v-9833e8b2="" transform="scale(0.12437810945273632)" fill="none" stroke="currentColor" paint-order="fill stroke markers" d="m98.71513,92.74335l1.4604,0l0,4.16902l-1.4604,0l0,-4.16902zm13.19357,0.42439l1.46041,0l0,4.16902l-1.46041,0l0,-4.16902zm-52.03783,60.51316c-12.14507,-2.35912 -20.73275,-8.55023 -25.55084,-18.33619c-3.44506,-7.02742 -4.8056,-15.85225 -3.90689,-25.50091a69.10084,69.10084 0 0 1 6.67792,-23.91568l0.04993,-0.07489c8.06343,-11.95784 17.79946,-18.76058 28.95845,-20.22098c10.08553,-1.3231 19.43461,2.04706 25.51339,5.11766c6.56558,3.32024 10.70963,6.89011 10.8719,7.0399l-0.9736,1.11091c-0.14979,-0.14979 -16.65111,-14.25454 -35.23694,-11.80806c-10.69715,1.41048 -20.0712,7.98854 -27.8725,19.53447c-6.40331,12.83159 -9.98567,33.32718 -2.75854,48.06852c4.60589,9.36157 12.85655,15.2656 24.50234,17.53734l-0.27461,1.44792z" stroke-width="5" stroke-miterlimit="10" stroke-dasharray=""></path><path data-v-9833e8b2="" transform="scale(0.12437810945273632)" fill="none" stroke="currentColor" paint-order="fill stroke markers" d="m61.84304,147.96411c-10.39758,-2.04706 -17.76201,-7.33947 -21.89358,-15.71495c-2.94577,-6.02885 -4.11909,-13.58051 -3.35768,-21.85614a59.09021,59.09021 0 0 1 5.72928,-20.50807l0.03745,-0.07489c6.9026,-10.23531 15.24063,-16.06445 24.80191,-17.32514c8.66257,-1.11091 16.68855,1.78494 21.8811,4.40618c5.62942,2.84592 9.17433,5.90403 9.31164,6.02885l-0.81134,0.96112c-0.14978,-0.12482 -14.27951,-12.21996 -30.20665,-10.12297c-9.17433,1.21076 -17.2128,6.84019 -23.89072,16.73848c-5.47964,10.99672 -8.56271,28.55902 -2.34663,41.19089c3.94434,8.02598 11.0092,13.08123 21.00736,15.04092l-0.26212,1.23573z" stroke-width="5" stroke-miterlimit="10" stroke-dasharray=""></path><path data-v-9833e8b2="" transform="scale(0.12437810945273632)" fill="none" stroke="currentColor" paint-order="fill stroke markers" d="m104.78142,200.85072l-0.03745,0c-0.31205,-0.02496 -7.51422,-0.44935 -16.26416,-4.06916c-8.10088,-3.37016 -19.03518,-10.21035 -25.15141,-23.7659c-6.11622,-13.55555 -3.30775,-27.57293 0.1373,-36.94698c3.71966,-10.13546 8.94966,-17.16287 9.01207,-17.25025l0.03745,-0.04993c0.16227,-0.17475 3.80704,-4.05668 9.93574,-7.42684c5.69183,-3.12052 14.60404,-6.37835 24.96418,-4.05668l-0.33702,1.43544c-9.86085,-2.20933 -18.43604,0.89871 -23.86575,3.88193c-5.67935,3.12052 -9.23675,6.77777 -9.58624,7.12727a74.568,74.568 0 0 0 -8.79987,16.8633c-3.33272,9.09944 -6.06629,22.7174 -0.16227,35.81111c5.91651,13.11868 16.52629,19.74666 24.37752,23.00449c8.16328,3.38265 15.09084,3.90689 15.72743,3.95682c0.74893,-0.07489 9.18682,-0.78637 12.61939,-1.8099l0.42439,1.39799c-3.71966,1.11091 -12.59443,1.84735 -12.96889,1.87231l-0.06241,0l0,0.02496z" stroke-width="5" stroke-miterlimit="10" stroke-dasharray=""></path></g></svg>