<svg data-v-9833e8b2="" version="1.1" xmlns="http://www.w3.org/2000/svg" xmlns:xlink="http://www.w3.org/1999/xlink" width="17" height="25"><g data-v-9833e8b2=""><path data-v-9833e8b2="" transform="scale(0.13440860215053763)" fill="none" stroke="currentColor" paint-order="fill stroke markers" d="m113.05259,171.11338l-12.27406,-111.96535c-0.38609,-3.36268 -3.36104,-5.89839 -6.92054,-5.89839l-1.4591,0l-1.75925,-45.90316c-0.12859,-3.55884 -3.01792,-6.34648 -6.59054,-6.34648l-53.12353,0c-3.54966,0 -6.44292,2.77451 -6.58595,6.31138l-1.99838,45.93826l-2.11025,0c-3.55884,0 -6.53445,2.53767 -6.92251,5.91184l-12.27242,111.96141c-0.1814,1.69856 0.32574,3.37515 1.42728,4.72107c1.16715,1.42761 2.92639,2.34643 4.84179,2.52324c0.23192,0.01968 0.44121,0.02887 0.63999,0.02887c3.57754,0 6.55708,-2.54096 6.93137,-5.91282l3.77633,-34.45411l-1.78156,40.95148c-0.15549,3.61527 2.68955,6.69977 6.34156,6.87659l0.2434,0.00197c3.54015,0 6.43374,-2.77386 6.58726,-6.31499l1.02478,-23.54336l52.07611,0l0.90045,23.5135c0.12826,3.55884 3.03301,6.34648 6.6135,6.34648l0.00656,0l0.21913,-0.00263c3.63101,-0.14171 6.4731,-3.21146 6.33533,-6.84378l-1.46008,-38.09988l3.46109,31.56412c0.36412,3.37023 3.33283,5.91184 6.90479,5.91184c0.21125,0 0.43826,-0.00197 0.681,-0.02526c1.89473,-0.17615 3.65102,-1.09367 4.82014,-2.51963c1.10088,-1.34822 1.6077,-3.02677 1.42629,-4.73222zm-30.41338,-28.29887l-50.99885,0l0.72364,-16.6671l49.6316,0l0.6436,16.6671zm-49.69721,-29.85867l0.72397,-16.66841l47.18742,0l0.63803,16.66841l-48.54942,0zm46.76524,-46.52184l0.63868,16.6694l-46.10589,0l0.7243,-16.6694l44.7429,0zm-0.50517,-13.18436l-43.66465,0l1.69725,-39.06037l40.47058,0l1.49682,39.06037z" stroke-width="5" stroke-miterlimit="10" stroke-dasharray=""></path></g></svg>