<svg data-v-9833e8b2="" version="1.1" xmlns="http://www.w3.org/2000/svg" xmlns:xlink="http://www.w3.org/1999/xlink" width="17" height="25"><g data-v-9833e8b2=""><path data-v-9833e8b2="" transform="scale(0.12437810945273632)" fill="none" stroke="currentColor" paint-order="fill stroke markers" d="m33.25484,49.28298l5.38287,0l0,64.37582l-5.38287,0l0,-64.37582zm56.33833,44.40812l-17.04315,0l0,-56.0974l17.04315,0l0,56.0974zm-12.58159,-4.46156l8.12004,0l0,-47.17429l-8.12004,0l0,47.17429z" stroke-width="5" stroke-miterlimit="10" stroke-dasharray=""></path><path data-v-9833e8b2="" transform="scale(0.12437810945273632)" fill="none" stroke="currentColor" paint-order="fill stroke markers" d="m122.30754,200.99827l-81.54613,0l0,-15.09791l4.61771,0a7.63596,7.63596 0 0 0 7.62703,-7.62703l0,-4.46156l0.203,0l0,-58.24118a5.37395,5.37395 0 0 0 -5.36725,-5.36502l-9.88235,0l0,-57.42026l25.91496,0l0,0.36139a53.14385,53.14385 0 0 1 46.93113,52.77577l0,72.94648a7.04926,7.04926 0 0 0 7.04034,7.04034l4.46156,0l0,15.08899zm-67.81569,-8.92312l54.41093,0a15.95899,15.95899 0 0 1 -7.01803,-13.21737l0,-72.94648a44.03335,44.03335 0 0 0 -42.63019,-44.17166l-0.89231,-0.03123l-11.47959,0l0,39.57402l0.95923,0a14.30599,14.30599 0 0 1 14.29037,14.29037l0,67.16207l-0.81423,0a16.61261,16.61261 0 0 1 -6.81503,9.34027l-0.01115,0z" stroke-width="5" stroke-miterlimit="10" stroke-dasharray=""></path><path data-v-9833e8b2="" transform="scale(0.12437810945273632)" fill="none" stroke="currentColor" paint-order="fill stroke markers" d="m117.84598,190.36192a11.5019,11.5019 0 0 1 -11.5019,-11.5019l0,-72.94648c0,-26.29866 -20.85778,-47.72306 -46.93113,-48.63099l0,-0.03346l-20.77525,0l0,48.49491l9.2042,0a9.82881,9.82881 0 0 1 9.82881,9.82881l0,62.70051l-0.203,0a12.08859,12.08859 0 0 1 -12.08859,12.08859l-0.15615,0l0,8.84281l72.62301,0l0,-8.84281z" stroke-width="5" stroke-miterlimit="10" stroke-dasharray=""></path><path data-v-9833e8b2="" transform="scale(0.12437810945273632)" fill="none" stroke="currentColor" paint-order="fill stroke markers" d="m69.14361,1l23.09526,0l0,34.30715a5.87141,5.87141 0 0 1 -5.87141,5.87141l-11.35243,0a5.87141,5.87141 0 0 1 -5.87141,-5.87141l0,-34.30715z" stroke-width="5" stroke-miterlimit="10" stroke-dasharray=""></path><path data-v-9833e8b2="" transform="scale(0.12437810945273632)" fill="none" stroke="currentColor" paint-order="fill stroke markers" d="m42.7178,126.89402l77.08457,0l0,2.84424l-77.08457,0l0,-2.84424zm5.20218,45.73097l68.18823,0l0,2.84424l-68.18823,0l0,-2.84424z" stroke-width="5" stroke-miterlimit="10" stroke-dasharray=""></path><path data-v-9833e8b2="" transform="scale(0.12437810945273632)" fill="none" stroke="currentColor" paint-order="fill stroke markers" d="m57.67071,124.31747m2.0077,0l44.65797,0q2.0077,0 2.0077,2.0077l0,4.16486q0,2.0077 -2.0077,2.0077l-44.65797,0q-2.0077,0 -2.0077,-2.0077l0,-4.16486q0,-2.0077 2.0077,-2.0077z" stroke-width="5" stroke-miterlimit="10" stroke-dasharray=""></path><path data-v-9833e8b2="" transform="scale(0.12437810945273632)" fill="none" stroke="currentColor" paint-order="fill stroke markers" d="m52.038,125.20978l1.78462,0a0.11154,0.11154 0 0 1 0.11154,0.11154l0,5.80003a0.11154,0.11154 0 0 1 -0.11154,0.11154l-1.78462,0a1.11539,1.11539 0 0 1 -1.11539,-1.11539l0,-3.7834a1.11539,1.11539 0 0 1 1.11539,-1.12431zm-0.058,45.60159l1.78462,0a0.11154,0.11154 0 0 1 0.11154,0.11154l0,5.80003a0.11154,0.11154 0 0 1 -0.11154,0.11154l-1.78462,0a1.11539,1.11539 0 0 1 -1.11539,-1.11539l0,-3.7834a1.11539,1.11539 0 0 1 1.11539,-1.12431zm58.12295,-45.50789l1.95862,0a1.06854,1.06854 0 0 1 1.06854,1.06854l0,3.88379a1.06854,1.06854 0 0 1 -1.06854,1.06854l-1.95862,0l0,-6.0231l0,0.00223zm0,45.73097l1.95862,0a1.06854,1.06854 0 0 1 1.06854,1.06854l0,3.88379a1.06854,1.06854 0 0 1 -1.06854,1.06854l-1.95862,0l0,-6.0231l0,0.00223z" stroke-width="5" stroke-miterlimit="10" stroke-dasharray=""></path><path data-v-9833e8b2="" transform="scale(0.12437810945273632)" fill="none" stroke="currentColor" paint-order="fill stroke markers" d="m26.05611,83.36706l-15.34107,0l0,3.08071l-9.71504,-4.99025l9.71504,-4.58202l0,3.15209l15.34107,0l0,3.33948z" stroke-width="5" stroke-miterlimit="10" stroke-dasharray=""></path><path data-v-9833e8b2="" transform="scale(0.12437810945273632)" fill="none" stroke="currentColor" paint-order="fill stroke markers" d="m76.00326,186.2439a4.61325,2.29547 0 1 0 9.2265,0a4.61325,2.29547 0 1 0 -9.2265,0z" stroke-width="5" stroke-miterlimit="10" stroke-dasharray=""></path><path data-v-9833e8b2="" transform="scale(0.12437810945273632)" fill="none" stroke="currentColor" paint-order="fill stroke markers" d="m82.80044,185.21551a10.2772,2.95578 0 1 0 20.5544,0a10.2772,2.95578 0 1 0 -20.5544,0z" stroke-width="5" stroke-miterlimit="10" stroke-dasharray=""></path><path data-v-9833e8b2="" transform="scale(0.12437810945273632)" fill="none" stroke="currentColor" paint-order="fill stroke markers" d="m77.54026,191.83646a5.40518,2.95578 90 1 0 5.91157,0a5.40518,2.95578 90 1 0 -5.91157,0z" stroke-width="5" stroke-miterlimit="10" stroke-dasharray=""></path><path data-v-9833e8b2="" transform="scale(0.12437810945273632)" fill="none" stroke="currentColor" paint-order="fill stroke markers" d="m58.07226,185.21551a10.2772,2.95578 0 1 0 20.5544,0a10.2772,2.95578 0 1 0 -20.5544,0z" stroke-width="5" stroke-miterlimit="10" stroke-dasharray=""></path><path data-v-9833e8b2="" transform="scale(0.12437810945273632)" fill="none" stroke="currentColor" paint-order="fill stroke markers" d="m78.86089,41.17856l4.16486,0l0,144.90472l-4.16486,0l0,-144.90472z" stroke-width="5" stroke-miterlimit="10" stroke-dasharray=""></path></g></svg>