<svg data-v-9833e8b2="" version="1.1" xmlns="http://www.w3.org/2000/svg" xmlns:xlink="http://www.w3.org/1999/xlink" width="27" height="25"><g data-v-9833e8b2=""><path data-v-9833e8b2="" transform="scale(0.13227513227513227)" fill="none" stroke="currentColor" paint-order="fill stroke markers" d="m165.4,15.1c0,7.8 -6.3,14.1 -14.1,14.1l-46.9,0l0,9.4l18.8,0l0,23.5l-65.8,0l0,-23.5l18.8,0l0,-9.4l-46.9,0c-7.8,0 -14.1,-6.3 -14.1,-14.1s6.3,-14.1 14.1,-14.1l122,0c7.8,0 14.1,6.3 14.1,14.1z" stroke-width="5" stroke-miterlimit="10" stroke-dasharray=""></path><path data-v-9833e8b2="" transform="scale(0.13227513227513227)" fill="none" stroke="currentColor" paint-order="fill stroke markers" d="m179.5,85.5l0,84.5c0,7.8 -6.3,14.1 -14.1,14.1c-6.1,0 -11.3,-3.9 -13.3,-9.4l-22.8,0c-10.6,8.8 -24.2,14.1 -39,14.1s-28.4,-5.3 -39,-14.1l-22.9,0c-1.9,5.5 -7.1,9.4 -13.3,9.4c-7.8,0 -14.1,-6.3 -14.1,-14.1l0,-84.5c0,-7.8 6.3,-14.1 14.1,-14.1c6.1,0 11.3,3.9 13.3,9.4l19.6,0l0,-14.1l84.5,0l0,14.1l19.6,0c1.9,-5.5 7.1,-9.4 13.3,-9.4c7.8,0 14.1,6.3 14.1,14.1z" stroke-width="5" stroke-miterlimit="10" stroke-dasharray=""></path></g></svg>