<svg data-v-9833e8b2="" version="1.1" xmlns="http://www.w3.org/2000/svg" xmlns:xlink="http://www.w3.org/1999/xlink" width="25" height="25"><g data-v-9833e8b2=""><path data-v-9833e8b2="" transform="scale(0.13227513227513227)" fill="none" stroke="currentColor" paint-order="fill stroke markers" d="m188.8,29.2l0,122c0,7.8 -6.3,14.1 -14.1,14.1s-14.1,-6.3 -14.1,-14.1l0,-46.9l-9.4,0l0,18.8l-23.5,0l0,-65.8l23.5,0l0,18.8l9.4,0l0,-46.9c0,-7.8 6.3,-14.1 14.1,-14.1c7.8,0 14.1,6.3 14.1,14.1z" stroke-width="5" stroke-miterlimit="10" stroke-dasharray=""></path><path data-v-9833e8b2="" transform="scale(0.13227513227513227)" fill="none" stroke="currentColor" paint-order="fill stroke markers" d="m118.4,15c0,6.2 -3.9,11.4 -9.4,13.3l0,19.7l14.1,0l0,84.5l-14.1,0l0,19.6c5.5,2 9.4,7.2 9.4,13.3c0,7.8 -6.3,14.1 -14.1,14.1l-84.5,0c-7.8,0 -14.1,-6.3 -14.1,-14.1c0,-6.2 3.9,-11.4 9.4,-13.3l0,-22.9c-8.8,-10.6 -14.1,-24.2 -14.1,-39s5.3,-28.4 14.1,-39l0,-22.8c-5.5,-2 -9.4,-7.2 -9.4,-13.3c0,-7.8 6.3,-14.1 14.1,-14.1l84.5,0c7.8,0 14.1,6.3 14.1,14z" stroke-width="5" stroke-miterlimit="10" stroke-dasharray=""></path></g></svg>