<svg data-v-9833e8b2="" version="1.1" xmlns="http://www.w3.org/2000/svg" xmlns:xlink="http://www.w3.org/1999/xlink" width="25" height="25"><g data-v-9833e8b2=""><path data-v-9833e8b2="" transform="scale(0.16447368421052633)" fill="none" stroke="currentColor" paint-order="fill stroke markers" d="m134.33367,1l-116.66696,0a16.66671,16.66671 0 0 0 -16.66671,16.66671l0,87.50022a16.66671,16.66671 0 0 0 16.66671,16.66671l23.21256,0l-4.76251,16.66671l-12.20003,0a6.25002,6.25002 0 0 0 0,12.50003l104.16693,0a6.25002,6.25002 0 0 0 0,-12.50003l-12.2042,0l-4.76251,-16.66671l23.21673,0a16.66671,16.66671 0 0 0 16.66671,-16.66671l0,-87.50022a16.66671,16.66671 0 0 0 -16.66671,-16.66671zm-30.95425,137.50035l-54.75847,0l4.76251,-16.66671l45.23761,0l4.75834,16.66671zm35.12092,-33.33342c0,2.29584 -1.87084,4.16668 -4.16668,4.16668l-116.66696,0c-2.29584,0 -4.16668,-1.87084 -4.16668,-4.16668l0,-4.16668l125.00031,0l0,4.16668zm0,-16.66671l-125.00031,0l0,-70.83351c0,-2.29584 1.87084,-4.16668 4.16668,-4.16668l116.66696,0c2.29584,0 4.16668,1.87084 4.16668,4.16668l0,70.83351z" stroke-width="5" stroke-miterlimit="10" stroke-dasharray=""></path></g></svg>