<svg data-v-9833e8b2="" version="1.1" xmlns="http://www.w3.org/2000/svg" xmlns:xlink="http://www.w3.org/1999/xlink" width="25" height="25"><g data-v-9833e8b2=""><path data-v-9833e8b2="" transform="scale(0.12376237623762376)" fill="none" stroke="currentColor" paint-order="fill stroke markers" d="m189.88936,17.60291l-67.38906,0a22.22228,22.22228 0 0 0 -43.00011,0l-67.38906,0a11.11114,11.11114 0 0 0 -11.11114,11.11114l0,144.44481a11.11114,11.11114 0 0 0 11.11114,11.11114l67.38906,0a22.22228,22.22228 0 0 0 43.00011,0l67.38906,0a11.11114,11.11114 0 0 0 11.11114,-11.11114l0,-144.44481a11.11114,11.11114 0 0 0 -11.11114,-11.11114zm-88.88911,-5.55557a11.11114,11.11114 0 1 1 -9.61114,5.55557a11.11114,11.11114 0 0 1 9.61114,-5.55557zm0,177.77822a11.11114,11.11114 0 1 1 9.61114,-5.55557a11.11114,11.11114 0 0 1 -9.61114,5.55557zm88.88911,-16.66671l-67.38906,0a22.22228,22.22228 0 0 0 -43.00011,0l-67.38906,0l0,-144.44481l67.38906,0a22.22228,22.22228 0 0 0 43.00011,0l67.38906,0l0,144.44481z" stroke-width="5" stroke-miterlimit="10" stroke-dasharray=""></path><path data-v-9833e8b2="" transform="scale(0.12376237623762376)" fill="none" stroke="currentColor" paint-order="fill stroke markers" d="m80.5002,80.10306l-6.11113,27.77785l-6.94446,-27.77785l-9.55558,0l-7.2778,27.3334l-6.00002,-27.3334l-8.22224,0l9.50002,39.77788l8.72224,0l7.88891,-29.7223l7.88891,29.7223l8.55558,0l9.61113,-39.77788l-8.05557,0zm20.50005,0l-15.50004,39.77788l8.50002,0l3.33334,-9.05558l15.88893,0l3.44445,9.05558l8.7778,0l-15.88893,-39.77788l-8.55558,0zm-1.22223,24.05562l5.55557,-14.77781l5.55557,14.77781l-11.11114,0zm37.50009,-10.22225l16.00004,25.94451l8.05558,0l0,-39.77788l-7.44446,0l0,26.55562l-16.27782,-26.55562l-7.7778,0l0,39.77788l7.44446,0l0,-25.94451z" stroke-width="5" stroke-miterlimit="10" stroke-dasharray=""></path></g></svg>