<svg data-v-9833e8b2="" version="1.1" xmlns="http://www.w3.org/2000/svg" xmlns:xlink="http://www.w3.org/1999/xlink" width="25" height="22.5"><g data-v-9833e8b2=""><path data-v-9833e8b2="" transform="scale(0.12626262626262627)" fill="none" stroke="currentColor" paint-order="fill stroke markers" d="m192.35885,132.21773l-185.8867,0a5.46342,5.46342 0 0 0 -5.47212,5.46342l0,32.79791a5.46342,5.46342 0 0 0 5.47212,5.48082l185.8867,0a5.46342,5.46342 0 0 0 5.46342,-5.48082l0,-32.79791a5.46342,5.46342 0 0 0 -5.46342,-5.46342zm-158.55221,32.79791l-21.87107,0l0,-21.87107l21.87977,0l0,21.87107l-0.0087,0zm32.79791,0l-21.85367,0l0,-21.87107l21.86237,0l0,21.87107l-0.0087,0zm32.80661,0l-21.86237,0l0,-21.87107l21.86237,0l0,21.87107zm92.9477,-164.01563l-185.8867,0a5.46342,5.46342 0 0 0 -5.47212,5.47212l0,32.79791a5.46342,5.46342 0 0 0 5.47212,5.47212l185.8867,0a5.46342,5.46342 0 0 0 5.46342,-5.47212l0,-32.79791a5.46342,5.46342 0 0 0 -5.46342,-5.47212zm-158.55221,32.79791l-21.87107,0l0,-21.86237l21.87977,0l0,21.87107l-0.0087,-0.0087zm32.79791,0l-21.85367,0l0,-21.86237l21.86237,0l0,21.87107l-0.0087,-0.0087zm32.80661,0l-21.86237,0l0,-21.86237l21.86237,0l0,21.87107l0,-0.0087zm92.9477,32.80661l-185.8867,0a5.46342,5.46342 0 0 0 -5.47212,5.47212l0,32.79791a5.46342,5.46342 0 0 0 5.47212,5.47212l185.8867,0a5.46342,5.46342 0 0 0 5.46342,-5.47212l0,-32.79791a5.46342,5.46342 0 0 0 -5.46342,-5.47212zm-158.55221,32.80661l-21.87107,0l0,-21.87107l21.87977,0l0,21.87107l-0.0087,0zm32.79791,0l-21.85367,0l0,-21.87107l21.86237,0l0,21.87107l-0.0087,0zm32.80661,0l-21.86237,0l0,-21.87107l21.86237,0l0,21.87107z" stroke-width="5" stroke-miterlimit="10" stroke-dasharray=""></path></g></svg>