<svg data-v-9833e8b2="" version="1.1" xmlns="http://www.w3.org/2000/svg" xmlns:xlink="http://www.w3.org/1999/xlink" width="25" height="10"><g data-v-9833e8b2=""><path data-v-9833e8b2="" transform="scale(0.1404494382022472)" fill="none" stroke="currentColor" paint-order="fill stroke markers" d="m123.38351,35.26727l29.37214,0c2.70333,0 4.89513,-2.19161 4.89513,-4.89532c0,-2.70352 -2.192,-4.89513 -4.89513,-4.89513l-29.37214,0c-2.70391,0 -4.89513,2.1918 -4.89513,4.89513c-0.0002,2.70391 2.19122,4.89532 4.89513,4.89532zm0,19.58169l29.37214,0c2.70333,0 4.89513,-2.19161 4.89513,-4.89532c0,-2.70352 -2.192,-4.89532 -4.89513,-4.89532l-29.37214,0c-2.70391,0 -4.89513,2.192 -4.89513,4.89532c-0.0002,2.70372 2.19122,4.89532 4.89513,4.89532zm-48.95364,0l19.58149,0c2.70352,0 4.89532,-2.19161 4.89532,-4.89532l0,-19.58169c0,-2.70352 -2.192,-4.89513 -4.89532,-4.89513l-19.58149,0c-2.70391,0 -4.89532,2.1918 -4.89532,4.89513l0,19.58149c0,2.70391 2.19141,4.89552 4.89532,4.89552zm4.89532,-19.58169l9.79065,0l0,9.79065l-9.79065,0l0,-9.79065zm88.11624,-34.26727l-156.65079,0c-5.40744,0 -9.79065,4.38321 -9.79065,9.79065l0,58.74409c0,5.40744 4.38321,9.79084 9.79065,9.79084l156.65079,0c5.40744,0 9.79065,-4.38341 9.79065,-9.79084l0,-58.74409c0,-5.40744 -4.38321,-9.79065 -9.79065,-9.79065zm-0.91778,68.53474l-156.65079,0l0,-58.74409l156.65079,0l0,58.74409zm-141.04684,-14.68578l19.5811,0c2.70352,0 4.89532,-2.19161 4.89532,-4.89532l0,-19.58169c0,-2.70352 -2.1918,-4.89513 -4.89532,-4.89513l-19.5811,0c-2.70391,0 -4.89532,2.1918 -4.89532,4.89513l0,19.58149c0,2.70391 2.19122,4.89552 4.89532,4.89552zm4.89532,-19.58169l9.79065,0l0,9.79065l-9.79065,0l0,-9.79065z" stroke-width="5" stroke-miterlimit="10" stroke-dasharray=""></path></g></svg>