<svg data-v-9833e8b2="" version="1.1" xmlns="http://www.w3.org/2000/svg" xmlns:xlink="http://www.w3.org/1999/xlink" width="25" height="22.5"><g data-v-9833e8b2=""><path data-v-9833e8b2="" transform="scale(0.12376237623762376)" fill="none" stroke="currentColor" paint-order="fill stroke markers" d="m201.16497,125.56372l0,44.87699c0,10.41859 -8.2468,18.95562 -18.45521,18.95562l-163.89508,0l-0.22018,-0.11009l-0.22018,0l-0.54045,-0.11009l-1.20099,-0.11009l-0.32026,0l-0.10008,-0.11009l-0.22018,0l-0.22018,-0.11009l-0.22018,-0.11009l-0.44036,0l-0.10008,-0.11009c-8.3669,-2.22183 -13.4711,-9.30767 -14.01155,-17.51443l0,-45.43745c0,-0.66054 0.10008,-1.22101 0.22018,-1.99164l17.25422,-106.38768c0.10008,-4.27352 1.76145,-8.34688 4.67385,-11.4094a16.68375,16.68375 0 0 1 11.70965,-4.88403l132.54924,0c4.2435,-0.05004 8.31686,1.67138 11.2893,4.76393c2.60214,2.66219 4.45367,6.65548 5.10421,10.74886l17.25422,107.82887c0.11009,0.34028 0.11009,0.78064 0.11009,1.22101zm-170.9609,-110.82134l-13.14083,96.91988c0.44036,-0.1201 0.98081,-0.1201 1.41116,-0.1201l167.38795,0c0.43035,0 0.87072,0 1.41116,0.1201l-14.33181,-96.91988a3.78312,3.78312 0 0 0 -0.9708,-2.32191c-0.1201,-0.22018 -0.22018,-0.22018 -0.33027,-0.22018l-140.13549,0c-0.33027,0 -0.65054,0.22018 -0.87072,0.44036a1.02084,1.02084 0 0 0 -0.33027,0.77063c0,0.45037 0,0.89074 -0.10008,1.3311zm159.99186,157.69997l-0.10008,0l0,-46.20808a3.20264,3.20264 0 0 0 -0.98081,-2.10173a2.72224,2.72224 0 0 0 -2.17179,-1.00083l-171.83162,0a3.25268,3.25268 0 0 0 -3.25268,3.10256l0,46.53835l0.10008,0l0,0.11009c0.22018,1.67138 1.52126,2.66219 3.04251,2.78229l172.04179,0a3.18262,3.18262 0 0 0 3.1526,-3.22266zm-31.60605,-20.16662l20.15661,0l0,10.52868l-20.15661,0l0,-10.52868zm0,-16.29343l20.15661,0l0,10.52868l-20.15661,0l0,-10.52868zm-33.7278,16.29343l20.15661,0l0,10.52868l-20.16662,0l0,-10.52868l0.01001,0zm0,-16.29343l20.15661,0l0,10.52868l-20.16662,0l0,-10.52868l0.01001,0zm-35.12895,16.29343l20.15661,0l0,10.52868l-20.16662,0l0,-10.52868l0.01001,0zm0,-16.29343l20.15661,0l0,10.52868l-20.16662,0l0,-10.52868l0.01001,0zm-33.73781,16.29343l20.15661,0l0,10.52868l-20.15661,0l0,-10.52868zm0,-16.29343l20.15661,0l0,10.52868l-20.15661,0l0,-10.52868zm27.82293,-42.33489l-22.89887,0c-3.25268,0 -4.56376,-3.98328 -4.56376,-7.42612c0,-3.43283 1.30107,-6.64548 4.56376,-6.64548l18.34512,0l9.11751,-14.0716l9.22761,9.40775l-9.22761,14.0816c-1.08089,1.44119 -2.82232,4.65384 -4.56376,4.65384l0,0zm59.70921,-14.0716c3.36277,0 4.66385,4.10338 4.55375,7.6463c0,3.54292 -2.70223,6.4253 -5.96492,6.4253l-26.16156,0c-1.74144,0 -3.48287,-3.20264 -4.56376,-4.65384l-27.89299,-42.2248l-18.01485,0l0,9.42777l-18.34512,-14.0816l18.34512,-18.83552l0,9.41776l18.4452,0c1.74144,0 3.47286,-0.11009 4.56376,0l32.12648,46.87864l22.90888,0zm-4.56376,-46.87864l0,-9.30767l18.34512,18.72543l-18.34512,14.0816l0,-9.42777l-18.34512,0l-9.2276,9.42777l-9.22761,-9.42777l11.29931,-10.63877c1.19098,-1.44119 5.30437,-3.43283 7.1559,-3.43283l18.34512,0zm-111.24168,115.47517c0,-3.82315 3.04251,-6.92571 6.78559,-6.92571c3.75309,0 6.78559,3.10256 6.78559,6.92571a6.85565,6.85565 0 0 1 -6.78559,6.92571a6.85565,6.85565 0 0 1 -6.78559,-6.92571z" stroke-width="5" stroke-miterlimit="10" stroke-dasharray=""></path></g></svg>