<svg data-v-9833e8b2="" version="1.1" xmlns="http://www.w3.org/2000/svg" xmlns:xlink="http://www.w3.org/1999/xlink" width="25" height="22.5"><g data-v-9833e8b2=""><path data-v-9833e8b2="" transform="scale(0.12376237623762376)" fill="none" stroke="currentColor" paint-order="fill stroke markers" d="m145.54394,150.86548l-88.77821,0c-6.83597,0 -12.45724,5.25844 -12.45724,11.64744l0,9.53355c0,6.40478 5.6055,11.64744 12.45724,11.64744l88.77295,0c6.83597,0 12.45724,-5.25844 12.45724,-11.64744l0,-9.55984c0.00526,-6.40478 -5.60024,-11.62115 -12.45198,-11.62115zm-88.86234,-72.75575l88.77295,0a12.49405,12.49405 0 0 0 12.45724,-12.45724l0,-52.20051a12.49405,12.49405 0 0 0 -12.45724,-12.45198l-88.77295,0a12.48879,12.48879 0 0 0 -12.45724,12.45198l0,52.20051a12.48879,12.48879 0 0 0 12.45724,12.45724z" stroke-width="5" stroke-miterlimit="10" stroke-dasharray=""></path><path data-v-9833e8b2="" transform="scale(0.12376237623762376)" fill="none" stroke="currentColor" paint-order="fill stroke markers" d="m184.51948,37.02556l-7.44069,0c-6.23125,0 -11.48969,3.59151 -11.48969,12.51508l0,22.86895a12.42043,12.42043 0 0 1 -12.45724,12.31l-103.97509,0a12.42043,12.42043 0 0 1 -12.45724,-12.31l0,-22.76904c0,-7.45646 -3.04989,-12.62025 -11.32668,-12.62025l-7.76671,0a16.55882,16.55882 0 0 0 -16.60615,16.4221l0,102.58687a16.55882,16.55882 0 0 0 16.60615,16.39581l11.67373,0c5.42145,0 7.36181,-3.03938 7.36181,-8.43979l0,-8.06644a12.42043,12.42043 0 0 1 12.45724,-12.31l103.93828,0a12.42043,12.42043 0 0 1 12.45724,12.31l0,9.8175c0,4.58536 1.71951,6.70451 6.6046,6.70451l12.42043,0a16.55882,16.55882 0 0 0 16.60615,-16.41684l0,-102.58161a16.55882,16.55882 0 0 0 -16.60615,-16.41684z" stroke-width="5" stroke-miterlimit="10" stroke-dasharray=""></path></g></svg>