<svg data-v-9833e8b2="" version="1.1" xmlns="http://www.w3.org/2000/svg" xmlns:xlink="http://www.w3.org/1999/xlink" width="25" height="22.5"><g data-v-9833e8b2=""><path data-v-9833e8b2="" transform="scale(0.16129032258064516)" fill="none" stroke="currentColor" paint-order="fill stroke markers" d="m152.31288,56.38295l-70.59393,-53.62514c-2.25001,-2.34376 -6.00002,-2.34376 -8.34377,0l-30.37508,23.06256l-40.3126,30.65633c-2.25001,2.34376 -2.25001,6.09377 0,8.43752l8.34377,8.43752c2.34376,2.34376 6.00002,2.34376 8.34377,0l58.12515,-44.15636l58.12515,44.15636c2.25001,2.34376 6.00002,2.34376 8.34377,0l8.34377,-8.43752c2.25001,-2.34376 2.25001,-6.18752 0,-8.53127zm-109.31278,-45.46886c0,-2.71876 -2.25001,-4.96876 -4.96876,-4.96876l-14.81254,0c-2.71876,0 -4.96876,2.25001 -4.96876,4.96876l0,28.50007l24.65631,-19.87505l0,-8.62502l0.09375,0z" stroke-width="5" stroke-miterlimit="10" stroke-dasharray=""></path><path data-v-9833e8b2="" transform="scale(0.16129032258064516)" fill="none" stroke="currentColor" paint-order="fill stroke markers" d="m134.96909,78.32051l-53.34388,-41.0626c-2.25001,-2.25001 -5.90626,-2.25001 -8.25002,0l-53.34388,41.0626c-1.5,1.5 -1.96875,3.56251 -1.5,5.43751c-0.09375,0.375 -0.1875,0.75 -0.1875,1.21875l0,54.28139c0,2.71876 2.25001,4.96876 4.96876,4.96876l108.56277,0c2.71876,0 4.96876,-2.25001 4.96876,-4.96876l0,-54.28139c0,-0.46875 -0.09375,-0.9375 -0.1875,-1.3125c0.28125,-1.875 -0.28125,-3.93751 -1.6875,-5.34376z" stroke-width="5" stroke-miterlimit="10" stroke-dasharray=""></path></g></svg>