<svg data-v-9833e8b2="" version="1.1" xmlns="http://www.w3.org/2000/svg" xmlns:xlink="http://www.w3.org/1999/xlink" width="25" height="20"><g data-v-9833e8b2=""><path data-v-9833e8b2="" transform="scale(0.13736263736263737)" fill="none" stroke="currentColor" paint-order="fill stroke markers" d="m177.83728,85.00412c3.45704,5.85939 4.39454,12.26566 2.79298,19.19927l-6.79689,36.79697c-0.27344,2.67579 -1.54297,5.00001 -3.8086,6.99221s-4.86329,3.00782 -7.79299,3.00782l-142.4027,0c-2.67579,0 -5.19533,-0.9961 -7.59768,-3.00782s-3.73048,-4.33595 -4.00392,-6.99221l-6.79689,-36.79697c-1.07422,-6.93361 -0.13672,-13.33988 2.79298,-19.19927l31.60164,-74.80488c2.92969,-6.13283 7.73439,-9.19924 14.39457,-9.19924l81.60177,0c6.66017,0 11.60159,3.06641 14.80472,9.19924l31.21102,74.80488zm-13.61332,26.40632c0.27344,-2.92969 -0.39063,-5.46876 -1.99219,-7.59768s-3.8672,-3.20313 -6.79689,-3.20313l-128.80892,0c-2.92969,0 -5.19533,1.07422 -6.79689,3.20313s-2.26563,4.66798 -1.99219,7.59768l2.79298,14.80472c0.27344,2.92969 1.54297,5.39064 3.8086,7.40236c2.26563,1.99219 4.86329,3.00782 7.79299,3.00782l118.00811,0c2.92969,0 5.52736,-0.9961 7.79299,-3.00782c2.26563,-1.99219 3.53517,-4.47267 3.8086,-7.40236l2.38282,-14.80472z" stroke-width="5" stroke-miterlimit="10" stroke-dasharray=""></path><path data-v-9833e8b2="" transform="scale(0.13736263736263737)" fill="none" stroke="currentColor" paint-order="fill stroke markers" d="m150.80596,116.99639c-0.15625,1.73829 -1.01563,3.02735 -2.59766,3.33985l-114.04326,0c-1.26953,-0.15625 -2.01172,-1.50391 -2.30469,-3.22266l-0.64453,-5.00001c0,-1.81641 1.05469,-3.30079 2.34376,-3.30079l115.23467,0c1.28907,0 2.34376,1.46485 2.34376,3.30079l-0.33203,4.88282z" stroke-width="5" stroke-miterlimit="10" stroke-dasharray=""></path><path data-v-9833e8b2="" transform="scale(0.13736263736263737)" fill="none" stroke="currentColor" paint-order="fill stroke markers" d="m147.25126,130.02376c-0.29297,1.05469 -1.15235,1.875 -2.44141,1.875l-6.79689,0c-1.28907,0 -2.2461,-0.85938 -2.63673,-1.9336l-0.23438,-1.23047c-0.09766,-0.50781 0.01953,-1.05469 0.37109,-1.44532c0.42969,-0.48828 1.11328,-0.80078 1.91407,-0.80078l7.77346,0c0.44922,0 0.87891,0.09766 1.23047,0.29297c0.78125,0.39063 1.17188,1.28907 1.01563,2.14844l-0.19531,1.09375z" stroke-width="5" stroke-miterlimit="10" stroke-dasharray=""></path></g></svg>