<svg data-v-9833e8b2="" version="1.1" xmlns="http://www.w3.org/2000/svg" xmlns:xlink="http://www.w3.org/1999/xlink" width="22" height="25"><g data-v-9833e8b2=""><path data-v-9833e8b2="" transform="scale(0.14124293785310735)" fill="none" stroke="currentColor" paint-order="fill stroke markers" d="m138.94582,1l-127.34818,0c-5.82866,0 -10.59764,4.76898 -10.59764,10.59764l0,133.00016c0,5.82866 4.5923,10.42096 10.24428,10.59764l0,12.89369c0,4.76898 3.88578,8.47807 8.47807,8.47807l110.92187,0c4.76898,0 8.47807,-3.88578 8.47807,-8.47807l0,-12.89369c5.65198,-0.17668 10.24448,-4.76898 10.24448,-10.59764l0,-133.00016c0.17668,-5.82866 -4.5923,-10.59764 -10.42096,-10.59764zm-8.83124,166.38281l-109.68551,0l0,-12.36385l109.68551,0l0,12.36385zm10.24428,-22.78501c0,0.8832 -0.70652,1.58973 -1.58973,1.58973l-8.12491,0l-110.74519,0l-8.30139,0c-0.8832,0 -1.58973,-0.70652 -1.58973,-1.58973l0,-133.00016c0.17668,-0.8832 0.70652,-1.58973 1.58973,-1.58973l127.1715,0c0.8832,0 1.58973,0.70652 1.58973,1.58973l0,133.00016z" stroke-width="5" stroke-miterlimit="10" stroke-dasharray=""></path><path data-v-9833e8b2="" transform="scale(0.14124293785310735)" fill="none" stroke="currentColor" paint-order="fill stroke markers" d="m30.85004,161.37747m-4.41562,0a4.31505,4.31505 0 1 0 8.83124,0a4.31505,4.31505 0 1 0 -8.83124,0z" stroke-width="5" stroke-miterlimit="10" stroke-dasharray=""></path><path data-v-9833e8b2="" transform="scale(0.14124293785310735)" fill="none" stroke="currentColor" paint-order="fill stroke markers" d="m50.2968,72.87187l-10.07323,0c-2.79428,0 -5.03664,2.24231 -5.03664,5.0366l0,40.29298c0,2.79428 2.24231,5.03664 5.03664,5.03664l10.07323,0c2.79428,0 5.03664,-2.24231 5.03664,-5.03664l0,-40.29298c-0.00004,-2.79428 -2.24235,-5.0366 -5.03664,-5.0366zm60.43945,-10.07327l-10.07323,0c-2.79428,0 -5.03664,2.24231 -5.03664,5.03664l0,50.36621c0,2.79428 2.24235,5.03664 5.03664,5.03664l10.07323,0c2.79428,0 5.03664,-2.24231 5.03664,-5.03664l0,-50.36621c-0.00004,-2.79428 -2.24235,-5.03664 -5.03664,-5.03664zm-25.18311,-20.14647l-20.14647,0c-2.79428,0 -5.03664,2.24231 -5.03664,5.03664l0,70.51268c0,2.79428 2.24235,5.03664 5.03664,5.03664l20.14647,0c2.79428,0 5.03664,-2.24231 5.03664,-5.03664l0,-70.51268c-0.00004,-2.79428 -2.24235,-5.03664 -5.03664,-5.03664zm-5.03664,70.51268l-10.07324,0l0,-5.03664l10.07323,0l0,5.03664zm0,-10.07323l-10.07324,0l0,-5.03664l10.07323,0l0,5.03664zm0,-10.07323l-10.07324,0l0,-5.03664l10.07323,0l0,5.03664zm0,-10.07324l-10.07324,0l0,-5.03664l10.07323,0l0,5.03664z" stroke-width="5" stroke-miterlimit="10" stroke-dasharray=""></path></g></svg>