<svg data-v-9833e8b2="" version="1.1" xmlns="http://www.w3.org/2000/svg" xmlns:xlink="http://www.w3.org/1999/xlink" width="25" height="22.5"><g data-v-9833e8b2=""><path data-v-9833e8b2="" transform="scale(0.1524390243902439)" fill="none" stroke="currentColor" paint-order="fill stroke markers" d="m1,75.94019l162.28041,0l0,64.18016l-162.28041,0l0,-64.18016zm129.84033,-74.94019l-97.11024,0l-32.14008,71.00018l161.28041,0l-32.03008,-71.00018zm-50.81013,12.86003l33.35008,0l-9.40002,-7.07002l11.30003,0l12.86003,9.75002l-8.65002,10.64003l-12.63003,0l8.33002,-8.00002l-35.16009,0l0,-5.32001zm4.00001,45.45011l-45.14011,0l8.33002,8.00002l-12.63003,0l-8.65002,-10.66003l12.86003,-9.76002l11.30003,0l-9.40002,7.10002l43.35011,0l-0.02,5.32001zm0.87,-26.38007l-39.1301,0l8.33002,8.00002l-12.64003,0l-8.65002,-10.66003l12.86003,-9.76002l11.31003,0l-9.41002,7.10002l37.35009,0l-0.02,5.32001zm27.48007,20.00005l8.33002,-8.00002l-35.13009,0l0,-5.31001l33.35008,0l-9.41002,-7.10002l11.31003,0l12.85003,9.76002l-8.64002,10.64003l-12.66003,0.01z" stroke-width="5" stroke-miterlimit="10" stroke-dasharray=""></path></g></svg>