<svg data-v-9833e8b2="" version="1.1" xmlns="http://www.w3.org/2000/svg" xmlns:xlink="http://www.w3.org/1999/xlink" width="25" height="20"><g data-v-9833e8b2=""><path data-v-9833e8b2="" transform="scale(0.12376237623762376)" fill="none" stroke="currentColor" paint-order="fill stroke markers" d="m166.52659,141.00549l-27.60116,0l0,-14.0005l27.59312,0l0,14.0005l0.00804,0zm-27.59312,-42.00166l27.59312,0l0,14.00066l-27.60116,0l0,-14.00066l0.00804,0zm48.2819,70.00283l-186.21536,0l0,-14.0005l13.79262,0l0,-126.00499c0,-15.46465 12.35243,-28.00116 27.58492,-28.00116l62.07452,0c15.23266,0 27.58508,12.53651 27.58508,28.00116l0,126.00499l41.38575,0l0,-56.00233c0,-7.73618 -6.17638,-14.0005 -13.79262,-14.0005l-27.59312,0l0,-14.0005l27.59312,0c15.23266,0 27.58508,12.53651 27.58508,28.001l0,56.00233l13.79262,0l0,14.0005l-13.79262,0zm-68.96279,-28.00116l0,-112.00433c0,-7.72831 -6.17621,-14.00066 -13.8005,-14.00066l-62.07436,0c-7.61641,0 -13.79262,6.27236 -13.79262,14.00066l0,126.00499l89.65961,0l0,-14.00066l0.00788,0zm-41.38542,-7.00017l0,-14.00066l27.58492,0l0,14.00066l-27.58492,0zm0,-56.00233l27.58492,0l0,14.00066l-27.58492,0l0,-14.00066zm0,-42.00166l27.58492,0l0,14.00066l-27.58492,0l0,-14.00066zm-34.4814,84.00333l27.57721,0l0,14.00066l-27.58525,0l0,-14.00066l0.00804,0zm0,-42.00166l27.57721,0l0,14.00066l-27.58525,0l0,-14.00066l0.00804,0zm0,-42.00166l27.57721,0l0,14.00066l-27.58525,0l0,-14.00066l0.00804,0z" stroke-width="5" stroke-miterlimit="10" stroke-dasharray=""></path></g></svg>