<svg data-v-9833e8b2="" version="1.1" xmlns="http://www.w3.org/2000/svg" xmlns:xlink="http://www.w3.org/1999/xlink" width="25" height="22.5"><g data-v-9833e8b2=""><path data-v-9833e8b2="" transform="scale(0.12376237623762376)" fill="none" stroke="currentColor" paint-order="fill stroke markers" d="m194.75049,119.7503l-125.00031,0c-3.45704,0 -6.25002,2.79298 -6.25002,6.25002l0,56.25014l12.50003,0l0,-17.9688c0,-0.42969 0.35156,-0.78125 0.78125,-0.78125l110.93778,0c0.42969,0 0.78125,0.35156 0.78125,0.78125l0,17.9688l12.50003,0l0,-56.25014c0,-3.45704 -2.79298,-6.25002 -6.25002,-6.25002zm-84.37521,18.75005l43.75011,0c0.85938,0 1.64063,0.35156 2.20704,0.91797c0.56641,0.56641 0.91797,1.34766 0.91797,2.20704c0,1.71875 -1.40625,3.12501 -3.12501,3.12501l-43.75011,0c-0.85938,0 -1.64063,-0.35156 -2.20704,-0.91797c-0.56641,-0.56641 -0.91797,-1.34766 -0.91797,-2.20704c0,-1.71875 1.40625,-3.12501 3.12501,-3.12501zm84.37521,-68.75017l-125.00031,0c-3.45704,0 -6.25002,2.79298 -6.25002,6.25002l0,31.25008c0,3.45704 2.79298,6.25002 6.25002,6.25002l125.00031,0c3.45704,0 6.25002,-2.79298 6.25002,-6.25002l0,-31.25008c0,-3.45704 -2.79298,-6.25002 -6.25002,-6.25002zm-40.6251,25.00006l-43.75011,0c-0.85938,0 -1.64063,-0.35156 -2.20704,-0.91797c-0.56641,-0.56641 -0.91797,-1.34766 -0.91797,-2.20704c0,-1.71875 1.40625,-3.12501 3.12501,-3.12501l43.75011,0c0.85938,0 1.64063,0.35156 2.20704,0.91797c0.56641,0.56641 0.91797,1.34766 0.91797,2.20704c0,1.71875 -1.40625,3.12501 -3.12501,3.12501zm40.6251,-75.00019l-125.00031,0c-3.45704,0 -6.25002,2.79298 -6.25002,6.25002l0,31.25008c0,3.45704 2.79298,6.25002 6.25002,6.25002l125.00031,0c3.45704,0 6.25002,-2.79298 6.25002,-6.25002l0,-31.25008c0,-3.45704 -2.79298,-6.25002 -6.25002,-6.25002zm-40.6251,25.00006l-43.75011,0c-0.85938,0 -1.64063,-0.35156 -2.20704,-0.91797c-0.56641,-0.56641 -0.91797,-1.34766 -0.91797,-2.20704c0,-1.71875 1.40625,-3.12501 3.12501,-3.12501l43.75011,0c0.85938,0 1.64063,0.35156 2.20704,0.91797c0.56641,0.56641 0.91797,1.34766 0.91797,2.20704c0,1.71875 -1.40625,3.12501 -3.12501,3.12501zm-90.62523,-37.50009c0,3.45704 2.79298,6.25002 6.25002,6.25002l93.94555,0c0.85938,0 1.5625,-0.70313 1.5625,-1.5625l0,-4.68751c0,-3.45704 -2.79298,-6.25002 -6.25002,-6.25002l-89.25804,0c-3.45704,0 -6.25002,2.79298 -6.25002,6.25002zm-6.25002,43.75011l0,131.25033l-12.50003,0l0,-6.25002l-18.75005,0l0,6.25002l-12.50003,0l0,-96.87524c0,-1.71875 -1.40625,-3.12501 -3.12501,-3.12501l-3.12501,0c-1.71875,0 -3.28126,-0.70313 -4.41407,-1.83594c-1.13282,-1.13282 -1.83594,-2.69532 -1.83594,-4.41407c0,-3.45704 2.79298,-6.25002 6.25002,-6.25002l3.12501,0c0.85938,0 1.64063,-0.35156 2.20704,-0.91797c0.56641,-0.56641 0.91797,-1.34766 0.91797,-2.20704c0,-1.71875 -1.40625,-3.12501 -3.12501,-3.12501l-3.12501,0c-1.71875,0 -3.28126,-0.70313 -4.41407,-1.83594c-1.13282,-1.13282 -1.83594,-2.69532 -1.83594,-4.41407c0,-3.45704 2.79298,-6.25002 6.25002,-6.25002l3.12501,0c1.71875,0 3.12501,-1.40625 3.12501,-3.12501l0,-6.25002c0,-1.71875 1.40625,-3.12501 3.12501,-3.12501l28.12507,0c6.89455,0 12.50003,5.58595 12.50003,12.50003z" stroke-width="5" stroke-miterlimit="10" stroke-dasharray=""></path></g></svg>