<svg data-v-9833e8b2="" version="1.1" xmlns="http://www.w3.org/2000/svg" xmlns:xlink="http://www.w3.org/1999/xlink" width="25" height="20"><g data-v-9833e8b2=""><path data-v-9833e8b2="" transform="scale(0.12562814070351758)" fill="none" stroke="currentColor" paint-order="fill stroke markers" d="m161.00011,143.505l-121.83,0l0,7.82a4.97,4.97 0 0 1 -9.93,0l0,-7.82l-6.97,0a21.3,21.3 0 0 1 -21.27,-21.37c0,-7.55 3.9,-14.15 9.76,-17.95l101.7,-102.36c1.13,-1.1 4.42,-1.1 5.52,0c1.1,1.12 1.78,3.79 0.68,4.9c-58.87,62.67 -88.29,94 -88.27,94l147.01,0a21.3,21.3 0 0 1 21.24,21.41a21.3,21.3 0 0 1 -21.25,21.37l-6.46,0l0,7.82a4.97,4.97 0 0 1 -9.94,0l0,-7.82l0.01,0zm-95.6,-52.51c-2.43,0 -4.4,-2.24 -4.4,-5s1.97,-5 4.4,-5l91.2,0c2.43,0 4.4,2.24 4.4,5s-1.97,5 -4.4,5l-91.2,0zm104.87,43.26c7.47,0 13.52,-5.4 13.53,-12c0,-6.64 -6.04,-12 -13.53,-12l-142.59,0c-7.48,0 -13.55,5.35 -13.55,11.99c0,6.61 6.07,12 13.55,12l142.6,0l-0.01,0.01z" stroke-width="5" stroke-miterlimit="10" stroke-dasharray=""></path></g></svg>