<svg data-v-9833e8b2="" version="1.1" xmlns="http://www.w3.org/2000/svg" xmlns:xlink="http://www.w3.org/1999/xlink" width="25" height="20"><g data-v-9833e8b2=""><path data-v-9833e8b2="" transform="scale(0.12437810945273632)" fill="none" stroke="currentColor" paint-order="fill stroke markers" d="m68.4534,79.20434a27.79144,27.79144 0 1 0 -26.89415,-27.77513a27.04914,27.04914 0 0 0 26.89415,27.77513zm0,-46.69973a18.91237,18.91237 0 1 1 -18.30059,18.92461a18.64319,18.64319 0 0 1 18.30059,-18.92461zm118.20131,21.04547l-68.71591,0l0,-1.54986a49.50988,49.50988 0 1 0 -98.97489,0l0,1.54986l-3.81755,0a14.4137,14.4137 0 0 0 -14.14451,14.6421l0,56.81461a14.38107,14.38107 0 0 0 14.14451,14.60131l8.45897,0l0,8.72816a14.91129,14.91129 0 0 0 3.67072,10.80824a14.68289,14.68289 0 0 0 10.00475,5.01665a13.91203,13.91203 0 0 0 10.3392,-3.79308a15.42927,15.42927 0 0 0 4.86575,-10.31881l0,-10.44116l96.8581,0l0,8.72816a15.02141,15.02141 0 0 0 13.67548,15.82489a13.82231,13.82231 0 0 0 10.32696,-3.79308a15.40887,15.40887 0 0 0 4.86167,-10.31881l0,-10.44116l8.45897,0a14.38107,14.38107 0 0 0 14.14859,-14.60131l0,-56.81461a14.41778,14.41778 0 0 0 -14.16083,-14.6421l0,0zm-159.09723,-1.54986a45.99006,45.99006 0 0 1 11.39963,-30.34463a39.91706,39.91706 0 0 1 58.36039,-0.04079a42.46617,42.46617 0 0 1 12.02773,29.81442l0,4.20094a41.26299,41.26299 0 0 1 -19.8586,32.42471l-3.55244,1.87615c-0.61586,0.2855 -1.38264,0.61179 -2.14533,0.93807c-0.68928,0.2855 -1.36632,0.571 -1.90877,0.81571l-2.63068,0.73415a18.79002,18.79002 0 0 1 -2.38189,0.61179a12.8516,12.8516 0 0 0 -2.12902,0.571l-0.48535,0.08157a5.76303,5.76303 0 0 0 -1.28883,0.20393a12.20311,12.20311 0 0 1 -2.77751,0.36707l-5.78751,0a41.9074,41.9074 0 0 1 -36.84181,-37.89l0,-4.36408zm16.31432,96.33604a6.13826,6.13826 0 1 1 -12.26837,0l0,-8.72816l12.26837,0l0,8.72816zm125.73445,0a6.1301,6.1301 0 1 1 -12.26429,0l0,-8.72816l12.26429,0l0,8.72816zm16.45299,-16.96689l-170.91287,0a6.17497,6.17497 0 0 1 -6.11787,-6.36258l0,-56.81461a6.1872,6.1872 0 0 1 6.11787,-6.36258l4.71484,0l0.23656,1.26436a45.57405,45.57405 0 0 0 11.75039,23.12555l2.01482,2.08008a2.00666,2.00666 0 0 1 1.15832,1.18279a46.55291,46.55291 0 0 0 28.87634,12.43967l8.0348,0a46.19399,46.19399 0 0 0 29.10066,-12.76595l2.85501,-2.93658a56.23137,56.23137 0 0 0 11.77894,-23.2479l0.29366,-1.142l70.11078,0a6.3789,6.3789 0 0 1 5.12677,2.24322a5.25321,5.25321 0 0 1 0.98294,4.40487l0.03263,56.52911a6.1872,6.1872 0 0 1 -6.14642,6.36258l-0.00816,0zm-14.68289,-50.85989l-33.97457,0a4.86167,4.86167 0 0 0 -1.05635,-0.12236a4.72707,4.72707 0 0 0 -2.71633,0.8565a4.05003,4.05003 0 0 0 -1.68853,2.73265a4.8943,4.8943 0 0 0 0.71783,3.62994a3.98069,3.98069 0 0 0 2.67555,1.79458l36.25041,-0.04079a5.07783,5.07783 0 0 0 3.17314,-5.34294a4.8943,4.8943 0 0 0 -3.36483,-3.50758l-0.01631,0zm0,23.32947l-33.97457,0a4.86167,4.86167 0 0 0 -1.05635,-0.12236a4.72707,4.72707 0 0 0 -2.71633,0.8565a4.05003,4.05003 0 0 0 -1.68853,2.73265a4.8943,4.8943 0 0 0 0.71783,3.62994a3.98069,3.98069 0 0 0 2.67555,1.79458l36.25041,-0.04079a5.05744,5.05744 0 0 0 3.17314,-5.30215a4.8943,4.8943 0 0 0 -3.36483,-3.54836l-0.01631,0z" stroke-width="5" stroke-miterlimit="10" stroke-dasharray=""></path></g></svg>