<svg data-v-9833e8b2="" version="1.1" xmlns="http://www.w3.org/2000/svg" xmlns:xlink="http://www.w3.org/1999/xlink" width="24.5" height="25"><g data-v-9833e8b2=""><path data-v-9833e8b2="" transform="scale(0.12437810945273632)" fill="none" stroke="currentColor" paint-order="fill stroke markers" d="m174.39363,30.23739a22.70719,22.70719 0 0 0 -2.15904,-3.51155a34.33377,34.33377 0 0 0 -6.62603,-6.56399a59.68394,59.68394 0 0 0 -9.43031,-5.84431a94.55127,94.55127 0 0 0 -11.87475,-4.96332c-3.78453,-1.30287 -7.84205,-2.48166 -12.12291,-3.51155a188.60621,188.60621 0 0 0 -43.57796,-4.83924a188.60621,188.60621 0 0 0 -43.60278,4.83924c-4.29327,1.02989 -8.33838,2.22109 -12.11051,3.51155a94.55127,94.55127 0 0 0 -11.87475,4.96332a60.2175,60.2175 0 0 0 -9.43031,5.84431a34.33377,34.33377 0 0 0 -6.63844,6.56399a22.70719,22.70719 0 0 0 -2.15904,3.51155a16.72639,16.72639 0 0 0 -1.7868,7.39535c0,20.22553 39.21024,36.6169 87.59021,36.6169c48.36757,0 87.59021,-16.39137 87.59021,-36.6169c0,-2.5437 -0.62042,-5.01295 -1.7868,-7.39535m-173.39363,99.92406l0,34.18488c0,20.23794 39.21024,36.64172 87.59021,36.64172c48.36757,0 87.59021,-16.40378 87.59021,-36.64172l0,-34.17247c-17.86796,14.00897 -49.37264,22.76924 -87.60262,22.76924c-38.21757,0 -69.70985,-8.76026 -87.5778,-22.76924" stroke-width="5" stroke-miterlimit="10" stroke-dasharray=""></path><path data-v-9833e8b2="" transform="scale(0.12437810945273632)" fill="none" stroke="currentColor" paint-order="fill stroke markers" d="m156.45122,77.10356c-17.79351,7.38294 -41.10871,11.75066 -67.87342,11.75066c-26.73989,0 -50.05509,-4.36772 -67.8486,-11.75066a89.2157,89.2157 0 0 1 -15.62205,-8.22671c-1.38973,-0.93062 -2.85391,-1.82402 -4.10715,-2.80428l0,34.18488c0,20.22554 39.21024,36.62931 87.59021,36.62931c48.36757,0 87.59021,-16.40378 87.59021,-36.62931l0,-34.18488c-1.25324,0.98026 -2.72983,1.87366 -4.11956,2.80428a89.41423,89.41423 0 0 1 -15.60964,8.22671" stroke-width="5" stroke-miterlimit="10" stroke-dasharray=""></path></g></svg>