<svg data-v-9833e8b2="" version="1.1" xmlns="http://www.w3.org/2000/svg" xmlns:xlink="http://www.w3.org/1999/xlink" width="25" height="20"><g data-v-9833e8b2=""><path data-v-9833e8b2="" transform="scale(0.12437810945273632)" fill="none" stroke="currentColor" paint-order="fill stroke markers" d="m186.78263,1.00657l-171.46736,0a13.89423,13.89423 0 0 0 -14.31526,13.47319l0,107.7855a13.89423,13.89423 0 0 0 14.31526,13.47319l71.47105,0l0,20.20978l-35.78815,0a7.05237,7.05237 0 0 0 -7.15763,6.73659l0,6.73659l114.31158,0l0,-6.73659a6.94711,6.94711 0 0 0 -7.05237,-6.73659l-35.78815,0l0,-20.20978l71.47105,0a13.89423,13.89423 0 0 0 14.21,-13.47319l0,-107.7855a13.89423,13.89423 0 0 0 -14.21,-13.47319zm-92.94394,121.25869a7.15763,7.15763 0 1 1 7.15763,6.73659a7.05237,7.05237 0 0 1 -7.15763,-6.73659zm-78.52342,-13.47319l0,-94.73335l171.46736,0l0,94.73335l-171.46736,0z" stroke-width="5" stroke-miterlimit="10" stroke-dasharray=""></path></g></svg>