<svg data-v-9833e8b2="" version="1.1" xmlns="http://www.w3.org/2000/svg" xmlns:xlink="http://www.w3.org/1999/xlink" width="25" height="25"><g data-v-9833e8b2=""><path data-v-9833e8b2="" transform="scale(0.12437810945273632)" fill="none" stroke="currentColor" paint-order="fill stroke markers" d="m171.00043,18.50004c-14.37504,-7.18752 -44.37511,-17.50004 -44.37511,-17.50004s10.00003,9.06252 10.62503,16.56254c0.625,6.87502 0,73.43768 0,73.43768s0.625,79.3752 0,87.50022c-0.625,8.75002 -10.62503,19.68755 -10.62503,19.68755s30.00008,-12.18753 44.37511,-20.62505c14.37504,-8.43752 29.37507,-19.06255 29.37507,-19.06255l0,-124.06281s-14.68754,-9.06252 -29.37507,-15.93754zm-135.31284,38.1251l61.56265,0c6.25002,0 11.25003,-5.00001 11.25003,-11.25003l0,-12.18753c0,-6.25002 -5.00001,-11.25003 -11.25003,-11.25003l-61.56265,0c-6.25002,0 -11.25003,5.00001 -11.25003,11.25003l0,12.18753c0,6.25002 5.00001,11.25003 11.25003,11.25003zm62.50016,5.93751l-63.75016,0c-5.93751,0 -10.62503,4.68751 -10.62503,10.62503l0,7.50002c0,5.93751 4.68751,10.62503 10.62503,10.62503l63.43766,0c5.93751,0 10.62503,-4.68751 10.62503,-10.62503l0,-7.50002c0,-5.93751 -4.68751,-10.62503 -10.31253,-10.62503z" stroke-width="5" stroke-miterlimit="10" stroke-dasharray=""></path><path data-v-9833e8b2="" transform="scale(0.12437810945273632)" fill="none" stroke="currentColor" paint-order="fill stroke markers" d="m131.62533,106.00026l0,-72.81268c0,-1.25 0,-2.18751 -0.3125,-3.12501c-1.5625,-16.25004 -15.31254,-28.75007 -31.87508,-28.75007l-66.25017,0c-16.56254,0 -30.31258,12.81253 -31.87508,28.75007c0,0.9375 -0.3125,2.18751 -0.3125,3.12501l0,132.50033c0,13.43753 8.43752,25.31256 20.31255,30.00008c0.3125,0 0.625,0.3125 0.625,0.3125c0.9375,0.3125 1.875,0.625 2.50001,0.9375c0.3125,0 0.625,0.3125 0.9375,0.3125c0.9375,0.3125 1.875,0.3125 2.50001,0.625c0.3125,0 0.625,0 0.9375,0.3125c1.25,0 2.50001,0.3125 3.75001,0.3125l66.56267,0c1.25,0 2.50001,0 3.75001,-0.3125c0.3125,0 0.625,0 0.9375,-0.3125c0.9375,0 1.875,-0.3125 2.50001,-0.625c0.3125,0 0.625,-0.3125 0.9375,-0.3125c0.9375,-0.3125 1.875,-0.625 2.50001,-0.9375c0.3125,0 0.625,-0.3125 0.625,-0.3125c11.87503,-4.68751 20.31255,-16.25004 20.31255,-30.00008l0.9375,-59.68765zm-54.68764,42.18761c-1.875,2.81251 -4.68751,4.68751 -8.12502,5.31251c-0.9375,0.3125 -1.5625,0.3125 -2.50001,0.3125s-1.875,0 -2.50001,-0.3125c-5.00001,-0.9375 -8.75002,-5.00001 -10.00003,-10.00003c-0.3125,-0.9375 -0.3125,-1.5625 -0.3125,-2.50001s0,-1.875 0.3125,-2.50001c0.9375,-5.00001 5.00001,-8.75002 10.00003,-10.00003c0.9375,-0.3125 1.5625,-0.3125 2.50001,-0.3125s1.875,0 2.50001,0.3125c3.43751,0.625 6.25002,2.50001 8.12502,5.31251c1.25,2.18751 2.18751,4.37501 2.18751,7.18752c0,2.50001 -0.9375,5.00001 -2.18751,7.18752zm37.50009,-63.12516c0,6.56252 -5.62501,12.18753 -12.18753,12.18753l-71.87518,0c-6.56252,0 -12.18753,-5.62501 -12.18753,-12.18753l0,-56.56264c0,-6.56252 5.62501,-12.18753 12.18753,-12.18753l71.87518,0c6.56252,0 12.18753,5.62501 12.18753,12.18753l0,56.56264z" stroke-width="5" stroke-miterlimit="10" stroke-dasharray=""></path></g></svg>