<svg data-v-9833e8b2="" version="1.1" xmlns="http://www.w3.org/2000/svg" xmlns:xlink="http://www.w3.org/1999/xlink" width="25" height="25"><g data-v-9833e8b2=""><path data-v-9833e8b2="" transform="scale(0.16025641025641027)" fill="none" stroke="currentColor" paint-order="fill stroke markers" d="m111.49543,69.09352c0,3.26075 2.1709,5.43185 5.43165,5.43185s5.43204,-2.1711 5.43204,-5.43185a32.69442,32.69442 0 0 0 -32.60008,-32.60008c-3.26075,0 -5.43185,2.1711 -5.43185,5.43185s2.17969,5.43204 5.43185,5.43204a21.79634,21.79634 0 0 1 21.73638,21.73619zm21.73619,0c0,3.26075 2.1709,5.43185 5.43165,5.43185s5.43204,-2.1711 5.43204,-5.43185c0,-29.87976 -24.45651,-54.33627 -54.33607,-54.33627c-3.26095,0 -5.43204,2.17969 -5.43204,5.44044s2.17969,5.43185 5.43185,5.43185c23.90729,0 43.47257,19.56528 43.47257,43.46398zm-73.35233,-19.01606c5.98107,-5.97248 6.5217,-15.21449 1.08985,-21.73619l-16.84496,-21.18697c-5.43185,-7.06252 -15.75512,-8.15236 -22.82603,-2.72032c-0.54063,0.54922 -1.08125,0.54922 -1.08125,1.08985l-14.67387,14.67387c-14.12464,14.12464 5.98107,52.15658 42.39112,88.55823c36.39326,36.40146 73.87577,55.96635 88.00042,42.38233l14.67387,-14.67387c6.52189,-6.5217 6.52189,-16.84496 0,-22.81744l-1.08125,-1.08985l-21.19537,-16.84496c-6.5133,-5.43165 -15.74672,-4.89122 -21.72779,1.08985l-9.23342,9.24202c-9.78264,-5.98107 -18.47524,-12.50277 -26.08678,-20.10571c-7.60295,-7.61154 -14.11625,-16.30434 -20.09732,-26.08698l8.6928,-9.77405l0,0.0002zm-7.60295,-14.67387c1.63047,2.17969 1.63047,5.44044 -0.54922,7.07092l-11.95355,12.49417a5.77521,5.77521 0 0 0 -1.08125,6.52189a140.90368,140.90368 0 0 0 23.90729,32.05086a140.92067,140.92067 0 0 0 32.05086,23.90729a5.77521,5.77521 0 0 0 6.5215,-1.08985l12.49437,-12.49417c2.17969,-2.1711 4.89122,-2.1711 7.07092,-0.54082l21.18697,17.38559s0.54063,0 0.54063,0.54063a5.25177,5.25177 0 0 1 0,7.61154l-14.67387,14.67387c-7.05373,7.05373 -40.74346,-10.87229 -72.80292,-42.39112c-32.05086,-31.51024 -49.43645,-65.7322 -42.37413,-72.80292l15.2059,-15.21469c2.17969,-1.63047 5.98107,-1.63047 7.61154,1.08985l16.84496,21.19556l0,-0.00859z" stroke-width="5" stroke-miterlimit="10" stroke-dasharray=""></path></g></svg>