<svg data-v-9833e8b2="" version="1.1" xmlns="http://www.w3.org/2000/svg" xmlns:xlink="http://www.w3.org/1999/xlink" width="25" height="25"><g data-v-9833e8b2=""><path data-v-9833e8b2="" transform="scale(0.16339869281045752)" fill="none" stroke="currentColor" paint-order="fill stroke markers" d="m136.50034,145.00036l-119.0003,0c-8.54702,0 -15.50004,-6.95302 -15.50004,-15.50004l0,-19.50005c0,-8.54702 6.95302,-15.50004 15.50004,-15.50004l119.0003,0c8.54702,0 15.50004,6.95302 15.50004,15.50004l0,19.50005c0,8.54702 -6.95302,15.50004 -15.50004,15.50004zm-119.0003,-43.50011c-4.68701,0 -8.50002,3.81301 -8.50002,8.50002l0,19.50005c0,4.68701 3.81301,8.50002 8.50002,8.50002l119.0003,0c4.68701,0 8.50002,-3.81301 8.50002,-8.50002l0,-19.50005c0,-4.68701 -3.81301,-8.50002 -8.50002,-8.50002l-119.0003,0z" stroke-width="5" stroke-miterlimit="10" stroke-dasharray=""></path><path data-v-9833e8b2="" transform="scale(0.16339869281045752)" fill="none" stroke="currentColor" paint-order="fill stroke markers" d="m136.50034,101.50025l-120.0003,0c-8.54702,0 -15.50004,-6.95302 -15.50004,-15.50004l0,-0.535l23.00806,-73.52619c0.327,-10.93903 10.22603,-10.93903 13.99204,-10.93903l77.5002,0c5.38401,0 11.78303,2.51601 11.99403,14.39004l24.50606,70.01518l0,0.595c0,8.54702 -6.95302,15.50004 -15.50004,15.50004zm-128.48632,-15.01004c0.254,4.46001 3.96301,8.01002 8.48602,8.01002l120.0003,0c4.50401,0 8.20102,-3.52101 8.48202,-7.95502l-24.48206,-69.95018l0,-0.595c0,-8.00002 -2.89001,-8.00002 -5.00001,-8.00002l-77.5002,0c-6.71702,0 -7.00002,1.379 -7.00002,4.50001l0,0.535l-22.98606,73.45518z" stroke-width="5" stroke-miterlimit="10" stroke-dasharray=""></path><path data-v-9833e8b2="" transform="scale(0.16339869281045752)" fill="none" stroke="currentColor" paint-order="fill stroke markers" d="m53.00013,32.00008c-5.23801,0 -9.50002,-4.26201 -9.50002,-9.50002s4.26201,-9.50002 9.50002,-9.50002s9.50002,4.26201 9.50002,9.50002s-4.26201,9.50002 -9.50002,9.50002zm0,-14.00004c-2.48101,0 -4.50001,2.01901 -4.50001,4.50001s2.01901,4.50001 4.50001,4.50001s4.50001,-2.01901 4.50001,-4.50001s-2.01901,-4.50001 -4.50001,-4.50001zm-16.00004,72.86918c-6.89302,0 -12.50003,-5.60701 -12.50003,-12.50003s5.60701,-12.50003 12.50003,-12.50003s12.50003,5.60701 12.50003,12.50003s-5.60701,12.50003 -12.50003,12.50003zm0,-20.00005c-4.13601,0 -7.50002,3.36401 -7.50002,7.50002s3.36401,7.50002 7.50002,7.50002s7.50002,-3.36401 7.50002,-7.50002s-3.36401,-7.50002 -7.50002,-7.50002zm79.9722,20.00005c-6.89302,0 -12.50003,-5.60701 -12.50003,-12.50003s5.60701,-12.50003 12.50003,-12.50003s12.50003,5.60701 12.50003,12.50003s-5.60801,12.50003 -12.50003,12.50003zm0,-20.00005c-4.13601,0 -7.50002,3.36401 -7.50002,7.50002s3.36401,7.50002 7.50002,7.50002s7.50002,-3.36401 7.50002,-7.50002s-3.36501,-7.50002 -7.50002,-7.50002zm-17.00004,-38.8691c-5.23801,0 -9.50002,-4.26201 -9.50002,-9.50002s4.26201,-9.50002 9.50002,-9.50002s9.50002,4.26201 9.50002,9.50002s-4.26201,9.50002 -9.50002,9.50002zm0,-14.00004c-2.48101,0 -4.50001,2.01901 -4.50001,4.50001s2.01901,4.50001 4.50001,4.50001s4.50001,-2.01901 4.50001,-4.50001s-2.01901,-4.50001 -4.50001,-4.50001zm-20.23605,113.50029a3.00001,3.00001 0 1 1 -6.00002,0l0,-23.50006a3.00001,3.00001 0 1 1 6.00002,0l0,23.50006zm-36.15709,0a3.00001,3.00001 0 1 1 -6.00002,0l0,-23.50006a3.00001,3.00001 0 1 1 6.00002,0l0,23.50006zm-18.07905,0a3.00001,3.00001 0 1 1 -6.00002,0l0,-23.50006a3.00001,3.00001 0 1 1 6.00002,0l0,23.50006zm36.15709,0a3.00001,3.00001 0 1 1 -6.00002,0l0,-23.50006a3.00001,3.00001 0 1 1 6.00002,0l0,23.50006zm36.15709,0a3.00001,3.00001 0 1 1 -6.00002,0l0,-23.50006a3.00001,3.00001 0 1 1 6.00002,0l0,23.50006zm18.07905,0a3.00001,3.00001 0 1 1 -6.00002,0l0,-23.50006a3.00001,3.00001 0 1 1 6.00002,0l0,23.50006zm18.07905,0a3.00001,3.00001 0 1 1 -6.00002,0l0,-23.50006a3.00001,3.00001 0 1 1 6.00002,0l0,23.50006z" stroke-width="5" stroke-miterlimit="10" stroke-dasharray=""></path></g></svg>