<svg data-v-9833e8b2="" version="1.1" xmlns="http://www.w3.org/2000/svg" xmlns:xlink="http://www.w3.org/1999/xlink" width="25" height="12.5"><g data-v-9833e8b2=""><path data-v-9833e8b2="" transform="scale(0.12437810945273632)" fill="none" stroke="currentColor" paint-order="fill stroke markers" d="m196.96358,2.70474c-2.13778,-1.42519 -4.98816,-2.13778 -7.83854,-1.42519l-49.16904,14.96449l0,-7.12595c0,-4.27557 -3.56297,-7.83854 -8.55114,-7.83854l-121.85372,0c-4.98816,0 -8.55114,3.56297 -8.55114,7.83854l0,90.49954c0,4.27557 3.56297,7.83854 8.55114,7.83854l121.85372,0c4.98816,0 8.55114,-3.56297 8.55114,-7.83854l0,-7.12595l49.16904,14.96449c4.27557,1.42519 9.26373,-0.71259 10.68892,-4.98816c0,-0.71259 0.71259,-1.42519 0.71259,-2.13778l0,-90.49954c0,-2.85038 -1.42519,-5.70076 -3.56297,-7.12595zm-73.39727,89.07436l-105.46404,0l0,-74.10986l105.46404,0l0,74.10986zm59.85797,-2.85038l-42.0431,-12.82671l0,-42.0431l42.0431,-12.82671l0,67.69651z" stroke-width="5" stroke-miterlimit="10" stroke-dasharray=""></path></g></svg>