<svg data-v-9833e8b2="" version="1.1" xmlns="http://www.w3.org/2000/svg" xmlns:xlink="http://www.w3.org/1999/xlink" width="25" height="25"><g data-v-9833e8b2=""><path data-v-9833e8b2="" transform="scale(0.12376237623762376)" fill="none" stroke="currentColor" paint-order="fill stroke markers" d="m200.1005,165.80041l-5.30001,-47.50012c-0.2,-8.80002 -7.40002,-15.80004 -16.20004,-15.80004l-8.50002,0l0,-95.30024c0,-3.40001 -2.80001,-6.20002 -6.20002,-6.20002c-3.40001,0 -6.20002,2.80001 -6.20002,6.20002l0,95.40024l-49.20012,0l0,-95.40024c0,-3.40001 -2.80001,-6.20002 -6.20002,-6.20002s-6.20002,2.80001 -6.20002,6.20002l0,95.40024l-48.90012,0l0,-95.40024c0,-3.40001 -2.80001,-6.20002 -6.20002,-6.20002c-3.40001,0 -6.20002,2.80001 -6.20002,6.20002l0,95.40024l-12.30003,0c-8.80002,0 -15.90004,7.00002 -16.10004,15.80004l-5.40001,51.20013l0,6.00002c0,8.90002 7.30002,16.20004 16.20004,16.20004l167.70042,0c8.90002,0 16.20004,-7.30002 16.20004,-16.20004l0,-4.60001c-0.1,-1.8 -0.4,-3.60001 -1,-5.20001zm-181.40046,-47.10012c0,-2.10001 1.7,-3.90001 3.90001,-3.90001l156.20039,0c2.10001,0 3.90001,1.7 3.90001,3.90001l0,0.3l4.00001,35.90009c-0.6,-0.1 -1.1,-0.1 -1.7,-0.1l-167.80042,0c-0.7,0 -1.5,0.1 -2.20001,0.2l3.70001,-35.70009l0,-0.6zm170.00043,56.90014c0,2.10001 -1.7,3.80001 -3.90001,3.80001l-167.60042,0c-2.10001,0 -3.80001,-1.7 -3.90001,-3.80001l0,-4.60001c0,-2.10001 1.7,-3.90001 3.90001,-3.90001l167.70042,0c2.10001,0 3.90001,1.7 3.90001,3.90001l0,4.60001l-0.1,0z" stroke-width="5" stroke-miterlimit="10" stroke-dasharray=""></path></g></svg>