<svg data-v-9833e8b2="" version="1.1" xmlns="http://www.w3.org/2000/svg" xmlns:xlink="http://www.w3.org/1999/xlink" width="25" height="25"><g data-v-9833e8b2=""><path data-v-9833e8b2="" transform="scale(0.1488095238095238)" fill="none" stroke="currentColor" paint-order="fill stroke markers" d="m84.33355,84.33354m-83.33354,0a83.33354,83.33354 0 1 0 166.66709,0a83.33354,83.33354 0 1 0 -166.66709,0z" stroke-width="5" stroke-miterlimit="10" stroke-dasharray=""></path><path data-v-9833e8b2="" transform="scale(0.1488095238095238)" fill="none" stroke="currentColor" paint-order="fill stroke markers" d="m112.99363,77.06685l-58.54015,0a9.14336,9.14336 0 0 0 -9.15336,9.13669l0,38.75343a9.14002,9.14002 0 0 0 9.15336,9.13669l58.54015,0a9.14669,9.14669 0 0 0 9.15336,-9.13669l0,-38.75343a9.14669,9.14669 0 0 0 -9.15336,-9.13669zm-25.41673,28.2534l0,10.17003a3.85334,3.85334 0 1 1 -7.71002,0l0,-10.17003a7.70335,7.70335 0 0 1 3.85668,-14.38337a7.71002,7.71002 0 0 1 3.85334,14.38337z" stroke-width="5" stroke-miterlimit="10" stroke-dasharray=""></path><path data-v-9833e8b2="" transform="scale(0.1488095238095238)" fill="none" stroke="currentColor" paint-order="fill stroke markers" d="m64.45017,59.92348c0,-0.29333 0.00667,-3.78001 0.02,-4.06668c0.46,-10.25336 8.90336,-18.67338 19.25338,-18.67338a19.27671,19.27671 0 0 1 19.27671,19.27338l0,21.59339l7.71335,4.50001l0,-25.8234c0,-15.65337 -12.08336,-27.56674 -26.99007,-27.56674c-14.6267,0 -26.54007,11.47336 -26.97673,26.70007c-0.00667,0.28333 -0.01333,3.76668 -0.01333,4.05668l7.71669,0.00667z" stroke-width="5" stroke-miterlimit="10" stroke-dasharray=""></path></g></svg>