<svg data-v-9833e8b2="" version="1.1" xmlns="http://www.w3.org/2000/svg" xmlns:xlink="http://www.w3.org/1999/xlink" width="25" height="15"><g data-v-9833e8b2=""><path data-v-9833e8b2="" transform="scale(0.12376237623762376)" fill="none" stroke="currentColor" paint-order="fill stroke markers" d="m164.62105,53.92579l0,-1.5783a51.55793,51.55793 0 0 0 -51.55793,-51.34749a52.24186,52.24186 0 0 0 -46.82302,29.35645a31.56608,31.56608 0 0 0 -12.10033,-2.63051a26.30507,26.30507 0 0 0 -26.30507,21.99103a39.19455,39.19455 0 0 0 -26.83117,37.72147a39.93109,39.93109 0 0 0 38.4054,39.82587l0,-6.78671a32.61828,32.61828 0 0 1 -31.56608,-32.98655a33.19699,33.19699 0 0 1 22.62236,-31.56608l3.68271,-1.0522l0.5261,-3.68271a20.20229,20.20229 0 0 1 19.46575,-16.78263a17.36134,17.36134 0 0 1 8.94372,2.10441l6.31322,3.15661l3.15661,-6.31322a44.77122,44.77122 0 0 1 85.22842,18.99226l0,8.36501l6.83932,0a30.25083,30.25083 0 0 1 29.98778,29.72472a29.93517,29.93517 0 0 1 -29.98778,29.88256l-2.10441,0l0,6.31322l2.10441,0a36.40621,36.40621 0 0 0 0,-72.81243l0,0.10522z" stroke-width="5" stroke-miterlimit="10" stroke-dasharray=""></path><path data-v-9833e8b2="" transform="scale(0.12376237623762376)" fill="none" stroke="currentColor" paint-order="fill stroke markers" d="m56.24418,82.80876l17.36134,0a2.26224,2.26224 0 0 1 2.10441,2.1044l0,16.30914a2.26224,2.26224 0 0 1 -2.10441,2.10441l-17.36134,0a2.26224,2.26224 0 0 1 -2.1044,-2.10441l0,-16.04609c-0.5261,-1.0522 0.5261,-2.10441 2.1044,-2.10441l0,-0.26305zm0,23.67456l41.56201,0a2.26224,2.26224 0 0 1 2.10441,2.1044l0,16.30914a2.26224,2.26224 0 0 1 -2.10441,2.10441l-41.56201,0a2.26224,2.26224 0 0 1 -2.1044,-2.10441l0,-16.30914c-0.5261,-1.5783 0.5261,-2.1044 2.1044,-2.1044zm20.51795,4.20881l-18.41355,0l0,11.57423l36.82709,0l0,-11.57423l-18.41355,0zm27.88337,-4.20881l41.562,0a2.26224,2.26224 0 0 1 2.10441,2.1044l0,16.30914a2.26224,2.26224 0 0 1 -2.10441,2.10441l-41.562,0a2.26224,2.26224 0 0 1 -2.10441,-2.10441l0,-16.30914c-0.5261,-1.5783 0.5261,-2.1044 2.10441,-2.1044zm20.51795,4.20881l-18.41355,0l0,11.57423l36.82709,0l0,-11.57423l-18.41355,0zm-68.91928,-51.03183l41.56201,0a2.26224,2.26224 0 0 1 2.10441,2.10441l0,16.30914a2.26224,2.26224 0 0 1 -2.10441,2.1044l-41.56201,0a2.26224,2.26224 0 0 1 -2.1044,-2.1044l0,-16.30914c-0.5261,-1.0522 0.5261,-2.10441 2.1044,-2.10441zm20.51795,4.20881l-18.41355,0l0,11.57423l36.82709,0l0,-11.31118l-18.41355,-0.26305zm27.88337,-4.20881l41.562,0a2.26224,2.26224 0 0 1 2.10441,2.10441l0,16.30914a2.26224,2.26224 0 0 1 -2.10441,2.1044l-41.562,0a2.26224,2.26224 0 0 1 -2.10441,-2.1044l0,-16.30914c-0.5261,-1.0522 0.5261,-2.10441 2.10441,-2.10441zm20.51795,4.20881l-18.41355,0l0,11.57423l36.82709,0l0,-11.31118l-18.41355,-0.26305zm-44.71861,-27.35727l41.56201,0a2.26224,2.26224 0 0 1 2.1044,2.10441l0,16.30914a2.26224,2.26224 0 0 1 -2.1044,2.10441l-41.56201,0a2.26224,2.26224 0 0 1 -2.10441,-2.10441l0,-16.30914c-0.5261,-1.0522 0.5261,-2.10441 2.10441,-2.10441zm20.51795,4.20881l-18.41355,0l0,11.57423l36.82709,0l0,-11.57423l-18.41355,0zm-20.51795,42.08811l41.56201,0a2.26224,2.26224 0 0 1 2.1044,2.1044l0,16.30914a2.26224,2.26224 0 0 1 -2.1044,2.10441l-41.56201,0a2.26224,2.26224 0 0 1 -2.10441,-2.10441l0,-16.04609c-0.5261,-1.0522 0.5261,-2.10441 2.10441,-2.10441l0,-0.26305zm20.51795,4.73491l-18.41355,0l0,11.57423l36.82709,0l0,-11.57423l-18.41355,0zm27.88337,-4.73491l17.36134,0a2.26224,2.26224 0 0 1 2.10441,2.1044l0,16.30914a2.26224,2.26224 0 0 1 -2.10441,2.10441l-17.36134,0a2.26224,2.26224 0 0 1 -2.1044,-2.10441l0,-16.04609c-0.5261,-1.0522 0.5261,-2.10441 2.1044,-2.10441l0,-0.26305zm14.73084,4.73491l-12.62643,0l0,11.57423l12.62643,0l0,-11.57423zm-14.73084,-51.03183l17.36134,0a2.26224,2.26224 0 0 1 2.10441,2.10441l0,16.30914a2.26224,2.26224 0 0 1 -2.10441,2.10441l-17.36134,0a2.26224,2.26224 0 0 1 -2.1044,-2.10441l0,-16.30914c-0.5261,-1.0522 0.5261,-2.10441 2.1044,-2.10441zm14.73084,4.20881l-12.62643,0l0,11.57423l12.62643,0l0,-11.57423zm-72.60198,46.82302l-12.62643,0l0,11.57423l12.62643,0l0,-11.57423z" stroke-width="5" stroke-miterlimit="10" stroke-dasharray=""></path></g></svg>