<svg data-v-9833e8b2="" version="1.1" xmlns="http://www.w3.org/2000/svg" xmlns:xlink="http://www.w3.org/1999/xlink" width="27" height="25"><g data-v-9833e8b2=""><path data-v-9833e8b2="" transform="scale(0.14619883040935672)" fill="none" stroke="currentColor" paint-order="fill stroke markers" d="m6.17579,170.31683c-2.85157,0 -5.17579,-2.32422 -5.17579,-5.17579l0,-82.94943c0,-2.85157 2.32422,-5.17579 5.17579,-5.17579l33.14461,0l0,-0.17578c0,-12.168 4.64845,-20.60552 8.75002,-28.02741l0.01953,-0.03906c2.8711,-5.21486 5.37111,-9.70706 5.37111,-14.33597c0,-1.85547 0.9961,-3.57423 2.61719,-4.4922c0.78125,-0.44922 1.67969,-0.6836 2.57813,-0.6836c0.91797,0 1.83594,0.25391 2.61719,0.72266c1.89454,1.11328 3.37891,3.28126 4.53126,6.60158c2.96876,-12.85159 3.67188,-22.81256 1.99219,-29.06257c-0.60547,-2.22657 0.37109,-4.62892 2.36329,-5.8008c0.80078,-0.46875 1.71875,-0.72266 2.63673,-0.72266c1.32813,0 2.61719,0.50781 3.57423,1.42578c9.06252,8.65237 14.92191,19.08208 18.57427,27.73444l0.9961,-6.01564c0.33203,-1.95313 1.75782,-3.57423 3.67188,-4.1211c0.46875,-0.13672 0.95703,-0.19531 1.42578,-0.19531c1.48438,0 2.89063,0.625 3.8672,1.73829c0.82031,0.9375 20.1563,22.98834 20.1563,45.85949c0,3.22266 -0.27344,6.3672 -0.82031,9.58987l33.98446,0c2.85157,0 5.17579,2.32422 5.17579,5.17579l0,82.94943c0,2.85157 -2.32422,5.17579 -5.17579,5.17579l-152.05116,0zm146.8949,-10.37112l0,-17.30473l-10.39065,0l0,17.30473l10.39065,0zm-20.74224,0l0,-17.30473l-44.94152,0l0,17.30473l44.94152,0zm-55.29311,0l0,-17.30473l-44.94152,0l0,17.30473l44.94152,0zm-55.29311,0l0,-17.30473l-10.39065,0l0,17.30473l10.39065,0zm82.94943,-27.63679l0,-17.30473l-44.96105,0l0,17.30473l44.96105,0zm48.37903,0l0,-17.30473l-38.02744,0l0,17.30473l38.02744,0zm-103.69167,0l0,-17.30473l-38.02744,0l0,17.30473l38.02744,0zm42.2462,-27.65632c2.42188,0 8.20315,-2.8711 13.4766,-9.27737c4.39454,-5.31251 9.62893,-14.47269 9.62893,-27.96882c0,-10.89846 -5.83986,-22.18756 -10.56643,-29.53132l-2.71485,16.23051c-0.39063,2.40235 -2.59766,4.25782 -5.1172,4.31642l-0.07813,0c-2.53907,-0.03906 -4.72657,-1.95313 -5.05861,-4.47267c-0.01953,-0.17578 -2.50001,-16.95317 -12.50003,-32.44149c-1.58204,18.69145 -9.55081,40.3712 -10.52737,42.98839l0,0.01953c-0.76172,1.99219 -2.69532,3.33985 -4.82423,3.33985c-0.33203,0 -0.66406,-0.03906 -0.9961,-0.09766c-2.46094,-0.46875 -4.23829,-2.63673 -4.19923,-5.13673c0.03906,-3.35938 -0.05859,-6.89455 -0.27344,-10.19534c-0.25391,0.44922 -0.48828,0.89844 -0.76172,1.36719l-0.01953,0.01953c-3.67188,6.64064 -7.44142,13.51566 -7.44142,23.0274c0,8.6133 3.63282,15.76176 10.80081,21.26958c5.46876,4.19923 11.36722,6.09377 12.96878,6.56252l18.20317,0l0,-0.01953zm61.44547,0l0,-17.30473l-10.39065,0l0,17.30473l10.39065,0zm-20.74224,0l0,-17.30473l-10.83987,0c-2.46094,6.52345 -6.19142,12.51956 -10.74221,17.30473l21.58209,0zm-80.09786,0c-5.62501,-4.82423 -9.45315,-10.62503 -11.40628,-17.30473l-8.75002,0l0,17.30473l20.1563,0zm-30.48836,0l0,-17.30473l-10.39065,0l0,17.30473l10.39065,0z" stroke-width="5" stroke-miterlimit="10" stroke-dasharray=""></path></g></svg>