<svg data-v-9833e8b2="" version="1.1" xmlns="http://www.w3.org/2000/svg" xmlns:xlink="http://www.w3.org/1999/xlink" width="25" height="17.5"><g data-v-9833e8b2=""><path data-v-9833e8b2="" transform="scale(0.25252525252525254)" fill="none" stroke="currentColor" paint-order="fill stroke markers" d="m1,17.12451c0,-8.90857 7.21594,-16.12452 16.12452,-16.12452c8.90857,0 16.12452,7.21594 16.12452,16.12452c0,8.90857 -7.21594,16.12452 -16.12452,16.12452c-8.90857,0 -16.12452,-7.21594 -16.12452,-16.12452z" stroke-width="5" stroke-miterlimit="10" stroke-dasharray=""></path><path data-v-9833e8b2="" transform="scale(0.25252525252525254)" fill="none" stroke="currentColor" paint-order="fill stroke markers" d="m0.99999,50.12451c0,-8.90857 7.21595,-16.12452 16.12452,-16.12452c8.90857,0 16.12452,7.21595 16.12452,16.12452c0,8.90857 -7.21595,16.12452 -16.12452,16.12452c-8.90857,0 -16.12452,-7.21595 -16.12452,-16.12452z" stroke-width="5" stroke-miterlimit="10" stroke-dasharray=""></path><path data-v-9833e8b2="" transform="scale(0.25252525252525254)" fill="none" stroke="currentColor" paint-order="fill stroke markers" d="m32.99999,18.12451c0,-8.90857 7.21595,-16.12452 16.12452,-16.12452c8.90857,0 16.12452,7.21595 16.12452,16.12452c0,8.90857 -7.21595,16.12452 -16.12452,16.12452c-8.90857,0 -16.12452,-7.21595 -16.12452,-16.12452z" stroke-width="5" stroke-miterlimit="10" stroke-dasharray=""></path><path data-v-9833e8b2="" transform="scale(0.25252525252525254)" fill="none" stroke="currentColor" paint-order="fill stroke markers" d="m33.99999,50.12451c0,-8.90857 7.21595,-16.12452 16.12452,-16.12452c8.90857,0 16.12452,7.21595 16.12452,16.12452c0,8.90857 -7.21595,16.12452 -16.12452,16.12452c-8.90857,0 -16.12452,-7.21595 -16.12452,-16.12452z" stroke-width="5" stroke-miterlimit="10" stroke-dasharray=""></path><path data-v-9833e8b2="" transform="scale(0.25252525252525254)" fill="none" stroke="currentColor" paint-order="fill stroke markers" d="m65.99999,18.12451c0,-8.90857 7.21595,-16.12452 16.12452,-16.12452c8.90857,0 16.12452,7.21595 16.12452,16.12452c0,8.90857 -7.21595,16.12452 -16.12452,16.12452c-8.90857,0 -16.12452,-7.21595 -16.12452,-16.12452z" stroke-width="5" stroke-miterlimit="10" stroke-dasharray=""></path><path data-v-9833e8b2="" transform="scale(0.25252525252525254)" fill="none" stroke="currentColor" paint-order="fill stroke markers" d="m65.99999,51.12451c0,-8.90857 7.21595,-16.12452 16.12452,-16.12452c8.90857,0 16.12452,7.21595 16.12452,16.12452c0,8.90857 -7.21595,16.12452 -16.12452,16.12452c-8.90857,0 -16.12452,-7.21595 -16.12452,-16.12452z" stroke-width="5" stroke-miterlimit="10" stroke-dasharray=""></path></g></svg>