<svg data-v-9833e8b2="" version="1.1" xmlns="http://www.w3.org/2000/svg" xmlns:xlink="http://www.w3.org/1999/xlink" width="17" height="25"><g data-v-9833e8b2=""><path data-v-9833e8b2="" transform="scale(0.047080979284369114)" fill="none" stroke="currentColor" paint-order="fill stroke markers" d="m2.86,32.34134l0,-29.64695l12.84,0c4.31,0 7.8,3.41816 7.8,7.63945l0,0c0,4.22129 -3.49,7.63945 -7.8,7.63945l-12.84,0" stroke-width="5" stroke-miterlimit="10" stroke-dasharray=""></path><path data-v-9833e8b2="" transform="scale(0.047080979284369114)" fill="none" stroke="currentColor" paint-order="fill stroke markers" d="m1,83.27101l0,31.83105" stroke-width="5" stroke-miterlimit="10" stroke-dasharray=""></path><path data-v-9833e8b2="" transform="scale(0.047080979284369114)" fill="none" stroke="currentColor" paint-order="fill stroke markers" d="m1,167.50086l0,31.83105" stroke-width="5" stroke-miterlimit="10" stroke-dasharray=""></path><path data-v-9833e8b2="" transform="scale(0.047080979284369114)" fill="none" stroke="currentColor" paint-order="fill stroke markers" d="m1,250.75128l0,31.83105" stroke-width="5" stroke-miterlimit="10" stroke-dasharray=""></path><path data-v-9833e8b2="" transform="scale(0.047080979284369114)" fill="none" stroke="currentColor" paint-order="fill stroke markers" d="m8,114.61235l12,-30.36192l12,30.36192m-19.5,-10.77358l15,0" stroke-width="5" stroke-miterlimit="10" stroke-dasharray=""></path><path data-v-9833e8b2="" transform="scale(0.047080979284369114)" fill="none" stroke="currentColor" paint-order="fill stroke markers" d="m294,115.59177l12,-30.36192l12,30.36192m-19.5,-10.77358l15,0" stroke-width="5" stroke-miterlimit="10" stroke-dasharray=""></path><path data-v-9833e8b2="" transform="scale(0.047080979284369114)" fill="none" stroke="currentColor" paint-order="fill stroke markers" d="m294,191.98628l12,-30.36192l12,30.36192m-19.5,-10.77358l15,0" stroke-width="5" stroke-miterlimit="10" stroke-dasharray=""></path><path data-v-9833e8b2="" transform="scale(0.047080979284369114)" fill="none" stroke="currentColor" paint-order="fill stroke markers" d="m294,279.15437l12,-30.36192l12,30.36192m-19.5,-10.77358l15,0" stroke-width="5" stroke-miterlimit="10" stroke-dasharray=""></path><path data-v-9833e8b2="" transform="scale(0.047080979284369114)" fill="none" stroke="currentColor" paint-order="fill stroke markers" d="m28,365.34305l12,-30.36192l12,30.36192m-19.5,-10.77358l15,0" stroke-width="5" stroke-miterlimit="10" stroke-dasharray=""></path><path data-v-9833e8b2="" transform="scale(0.047080979284369114)" fill="none" stroke="currentColor" paint-order="fill stroke markers" d="m23,183.66123l-12,0l0,-13.71184l12,0c3.87,0 7,3.06557 7,6.85592l0,0c0,3.79034 -3.13,6.85592 -7,6.85592zm7,6.85592l0,0c0,-3.79034 -3.13,-6.85592 -7,-6.85592l-12,0l0,13.71184l12,0c3.87,0 7,-3.06557 7,-6.85592z" stroke-width="5" stroke-miterlimit="10" stroke-dasharray=""></path><path data-v-9833e8b2="" transform="scale(0.047080979284369114)" fill="none" stroke="currentColor" paint-order="fill stroke markers" d="m43.5,433.90222l-12,0l0,-13.71184l12,0c3.87,0 7,3.06557 7,6.85592l0,0c0,3.79034 -3.13,6.85592 -7,6.85592zm7,6.85592l0,0c0,-3.79034 -3.13,-6.85592 -7,-6.85592l-12,0l0,13.71184l12,0c3.87,0 7,-3.06557 7,-6.85592z" stroke-width="5" stroke-miterlimit="10" stroke-dasharray=""></path><path data-v-9833e8b2="" transform="scale(0.047080979284369114)" fill="none" stroke="currentColor" paint-order="fill stroke markers" d="m36.63,272.29845c-1.87,5.15173 -6.59,8.81475 -12.13,8.81475c-7.18,0 -13,-6.14094 -13,-13.71184s5.82,-13.71184 13,-13.71184c5.18,0 9.64,3.20269 11.73,7.83533" stroke-width="5" stroke-miterlimit="10" stroke-dasharray=""></path><path data-v-9833e8b2="" transform="scale(0.047080979284369114)" fill="none" stroke="currentColor" paint-order="fill stroke markers" d="m55.63,521.07032c-1.87,5.15173 -6.59,8.81475 -12.13,8.81475c-7.18,0 -13,-6.14094 -13,-13.71184s5.82,-13.71184 13,-13.71184c5.18,0 9.64,3.20269 11.73,7.83533" stroke-width="5" stroke-miterlimit="10" stroke-dasharray=""></path><path data-v-9833e8b2="" transform="scale(0.047080979284369114)" fill="none" stroke="currentColor" paint-order="fill stroke markers" d="m22.5,334.98113l0,19.09863c0,5.68062 -4.7,10.28388 -10.5,10.28388l0,0c-5.8,0 -10.5,-4.60326 -10.5,-10.28388l0,-19.09863" stroke-width="5" stroke-miterlimit="10" stroke-dasharray=""></path><path data-v-9833e8b2="" transform="scale(0.047080979284369114)" fill="none" stroke="currentColor" paint-order="fill stroke markers" d="m22.5,418.23155l0,19.09863c0,5.68062 -4.7,10.28388 -10.5,10.28388l0,0c-5.8,0 -10.5,-4.60326 -10.5,-10.28388l0,-19.09863" stroke-width="5" stroke-miterlimit="10" stroke-dasharray=""></path><path data-v-9833e8b2="" transform="scale(0.047080979284369114)" fill="none" stroke="currentColor" paint-order="fill stroke markers" d="m22.5,501.48198l0,19.09863c0,5.68062 -4.7,10.28388 -10.5,10.28388l0,0c-5.8,0 -10.5,-4.60326 -10.5,-10.28388l0,-19.09863" stroke-width="5" stroke-miterlimit="10" stroke-dasharray=""></path><path data-v-9833e8b2="" transform="scale(0.047080979284369114)" fill="none" stroke="currentColor" paint-order="fill stroke markers" d="m319.5,333.02229l-12.5,30.36192l-12.5,-30.36192" stroke-width="5" stroke-miterlimit="10" stroke-dasharray=""></path><path data-v-9833e8b2="" transform="scale(0.047080979284369114)" fill="none" stroke="currentColor" paint-order="fill stroke markers" d="m334.5,1l-9,30.36192l-9,-30.36192l-9,30.36192l-9,-30.36192" stroke-width="5" stroke-miterlimit="10" stroke-dasharray=""></path><path data-v-9833e8b2="" transform="scale(0.047080979284369114)" fill="none" stroke="currentColor" paint-order="fill stroke markers" d="m319.5,417.25214l-12.5,30.36192l-12.5,-30.36192" stroke-width="5" stroke-miterlimit="10" stroke-dasharray=""></path><path data-v-9833e8b2="" transform="scale(0.047080979284369114)" fill="none" stroke="currentColor" paint-order="fill stroke markers" d="m311.5,500.50256l-12.5,30.36192l-12.5,-30.36192" stroke-width="5" stroke-miterlimit="10" stroke-dasharray=""></path><path data-v-9833e8b2="" transform="scale(0.047080979284369114)" fill="none" stroke="currentColor" paint-order="fill stroke markers" d="m272.5,1l0,31.34134m21,-31.34134l-21,19.58834m23,11.753l-15.77,-18.50118" stroke-width="5" stroke-miterlimit="10" stroke-dasharray=""></path></g></svg>