<svg data-v-9833e8b2="" version="1.1" xmlns="http://www.w3.org/2000/svg" xmlns:xlink="http://www.w3.org/1999/xlink" width="7" height="25"><g data-v-9833e8b2=""><path data-v-9833e8b2="" transform="scale(0.05694760820045558)" fill="none" stroke="currentColor" paint-order="fill stroke markers" d="m45.73999,253.17l0,184.32" stroke-width="5" stroke-miterlimit="10" stroke-dasharray=""></path><path data-v-9833e8b2="" transform="scale(0.05694760820045558)" fill="none" stroke="currentColor" paint-order="fill stroke markers" d="m21.22998,271.08l0,108.36m0,-90.64c-11.17477,0 -20.23,8.16 -20.23,18.23c0,10.07 9.05523,18.23 20.23,18.23c11.17477,0 20.23,-8.16 20.23,-18.23c0,-10.06 -9.05523,-18.23 -20.23,-18.23zm0,36.46c-11.17477,0 -20.23,8.16 -20.23,18.23c0,10.07 9.05523,18.23 20.23,18.23c11.17477,0 20.23,-8.16 20.23,-18.23c0,-10.07 -9.05523,-18.23 -20.23,-18.23z" stroke-width="5" stroke-miterlimit="10" stroke-dasharray=""></path><path data-v-9833e8b2="" transform="scale(0.05694760820045558)" fill="none" stroke="currentColor" paint-order="fill stroke markers" d="m71.51999,227.85l-25.78,25.78l-25.78,-25.78m0,-24.31l25.78,25.78l25.78,-25.78" stroke-width="5" stroke-miterlimit="10" stroke-dasharray=""></path><path data-v-9833e8b2="" transform="scale(0.05694760820045558)" fill="none" stroke="currentColor" paint-order="fill stroke markers" d="m19.95999,78.43l25.78,-25.78l25.78,25.78m0,24.3l-25.78,-25.78l-25.78,25.78" stroke-width="5" stroke-miterlimit="10" stroke-dasharray=""></path><path data-v-9833e8b2="" transform="scale(0.05694760820045558)" fill="none" stroke="currentColor" paint-order="fill stroke markers" d="m45.73999,182.19l0,45.66" stroke-width="5" stroke-miterlimit="10" stroke-dasharray=""></path><path data-v-9833e8b2="" transform="scale(0.05694760820045558)" fill="none" stroke="currentColor" paint-order="fill stroke markers" d="m45.73999,78.98l0,48.21" stroke-width="5" stroke-miterlimit="10" stroke-dasharray=""></path><path data-v-9833e8b2="" transform="scale(0.05694760820045558)" fill="none" stroke="currentColor" paint-order="fill stroke markers" d="m45.73999,1l0,51.65" stroke-width="5" stroke-miterlimit="10" stroke-dasharray=""></path><path data-v-9833e8b2="" transform="scale(0.05694760820045558)" fill="none" stroke="currentColor" paint-order="fill stroke markers" d="m60.92999,183.29l-30.38,0l0,-56.71l30.38,0l0,56.71z" stroke-width="5" stroke-miterlimit="10" stroke-dasharray=""></path><path data-v-9833e8b2="" transform="scale(0.05694760820045558)" fill="none" stroke="currentColor" paint-order="fill stroke markers" d="m18.61,405.19l52,0" stroke-width="5" stroke-miterlimit="10" stroke-dasharray=""></path><path data-v-9833e8b2="" transform="scale(0.05694760820045558)" fill="none" stroke="currentColor" paint-order="fill stroke markers" d="m18.61,405.19l27,33" stroke-width="5" stroke-miterlimit="10" stroke-dasharray=""></path><path data-v-9833e8b2="" transform="scale(0.05694760820045558)" fill="none" stroke="currentColor" paint-order="fill stroke markers" d="m46.60999,436.19l25,-32" stroke-width="5" stroke-miterlimit="10" stroke-dasharray=""></path><path data-v-9833e8b2="" transform="scale(0.05694760820045558)" fill="none" stroke="currentColor" paint-order="fill stroke markers" d="m72.60998,273.67666l0,108.36m0,-90.64c-11.17477,0 -20.23,8.16 -20.23,18.23c0,10.07 9.05523,18.23 20.23,18.23c11.17477,0 20.23,-8.16 20.23,-18.23c0,-10.06 -9.05523,-18.23 -20.23,-18.23zm0,36.46c-11.17477,0 -20.23,8.16 -20.23,18.23c0,10.07 9.05523,18.23 20.23,18.23c11.17477,0 20.23,-8.16 20.23,-18.23c0,-10.07 -9.05523,-18.23 -20.23,-18.23z" stroke-width="5" stroke-miterlimit="10" stroke-dasharray=""></path></g></svg>