<svg data-v-9833e8b2="" version="1.1" xmlns="http://www.w3.org/2000/svg" xmlns:xlink="http://www.w3.org/1999/xlink" width="7" height="25"><g data-v-9833e8b2=""><path data-v-9833e8b2="" transform="scale(0.040783034257748776)" fill="none" stroke="currentColor" paint-order="fill stroke markers" d="m116.48001,438.19l-12,20" stroke-width="5" stroke-miterlimit="10" stroke-dasharray=""></path><path data-v-9833e8b2="" transform="scale(0.040783034257748776)" fill="none" stroke="currentColor" paint-order="fill stroke markers" d="m113.74001,514.33l-18.23,0l0,-33.42l18.23,0l0,33.42z" stroke-width="5" stroke-miterlimit="10" stroke-dasharray=""></path><path data-v-9833e8b2="" transform="scale(0.040783034257748776)" fill="none" stroke="currentColor" paint-order="fill stroke markers" d="m35.94001,507.23c0,8.67 -7.03,15.7 -15.7,15.7c-8.67,0 -15.7,-7.03 -15.7,-15.7c0,-8.67 7.03,-15.7 15.7,-15.7c8.67,0 15.7,7.03 15.7,15.7zm-26.44,-10.75l21.48,21.48m-21.48,0.01l21.48,-21.48" stroke-width="5" stroke-miterlimit="10" stroke-dasharray=""></path><path data-v-9833e8b2="" transform="scale(0.040783034257748776)" fill="none" stroke="currentColor" paint-order="fill stroke markers" d="m20.24001,469.75l0,22.28" stroke-width="5" stroke-miterlimit="10" stroke-dasharray=""></path><path data-v-9833e8b2="" transform="scale(0.040783034257748776)" fill="none" stroke="currentColor" paint-order="fill stroke markers" d="m5.55001,462.66l29.37,0m-29.37,8.11l29.37,0" stroke-width="5" stroke-miterlimit="10" stroke-dasharray=""></path><path data-v-9833e8b2="" transform="scale(0.040783034257748776)" fill="none" stroke="currentColor" paint-order="fill stroke markers" d="m104.63001,456.6l0,24.31" stroke-width="5" stroke-miterlimit="10" stroke-dasharray=""></path><path data-v-9833e8b2="" transform="scale(0.040783034257748776)" fill="none" stroke="currentColor" paint-order="fill stroke markers" d="m106.63001,446.56l0,-26.32" stroke-width="5" stroke-miterlimit="10" stroke-dasharray=""></path><path data-v-9833e8b2="" transform="scale(0.040783034257748776)" fill="none" stroke="currentColor" paint-order="fill stroke markers" d="m20.24001,543.68l0,-21.27" stroke-width="5" stroke-miterlimit="10" stroke-dasharray=""></path><path data-v-9833e8b2="" transform="scale(0.040783034257748776)" fill="none" stroke="currentColor" paint-order="fill stroke markers" d="m1.00001,543.68l38.48,0m-32.41,7.09l26.33,0m-20.25,7.09l14.18,0" stroke-width="5" stroke-miterlimit="10" stroke-dasharray=""></path><path data-v-9833e8b2="" transform="scale(0.040783034257748776)" fill="none" stroke="currentColor" paint-order="fill stroke markers" d="m104.63001,542.68l0,-28.26" stroke-width="5" stroke-miterlimit="10" stroke-dasharray=""></path><path data-v-9833e8b2="" transform="scale(0.040783034257748776)" fill="none" stroke="currentColor" paint-order="fill stroke markers" d="m66.61001,253.16999l0,359.32002" stroke-width="5" stroke-miterlimit="10" stroke-dasharray=""></path><path data-v-9833e8b2="" transform="scale(0.040783034257748776)" fill="none" stroke="currentColor" paint-order="fill stroke markers" d="m40.10001,276.08l0,111.36m0,-93.14942c-11.72716,0 -21.23,8.38591 -21.23,18.73471c0,10.34879 9.50284,18.73471 21.23,18.73471c11.72716,0 21.23,-8.38591 21.23,-18.73471c0,-10.33852 -9.50284,-18.73471 -21.23,-18.73471zm0,37.46941c-11.72716,0 -21.23,8.38591 -21.23,18.73471c0,10.34879 9.50284,18.73471 21.23,18.73471c11.72716,0 21.23,-8.38591 21.23,-18.73471c0,-10.34879 -9.50284,-18.73471 -21.23,-18.73471z" stroke-width="5" stroke-miterlimit="10" stroke-dasharray=""></path><path data-v-9833e8b2="" transform="scale(0.040783034257748776)" fill="none" stroke="currentColor" paint-order="fill stroke markers" d="m85.38001,542.68l38.48,0m-32.4,7.09l26.33,0m-20.25,7.09l14.18,0" stroke-width="5" stroke-miterlimit="10" stroke-dasharray=""></path><path data-v-9833e8b2="" transform="scale(0.040783034257748776)" fill="none" stroke="currentColor" paint-order="fill stroke markers" d="m92.39001,227.85l-25.78,25.78l-25.78,-25.78m0,-24.31l25.78,25.78l25.78,-25.78" stroke-width="5" stroke-miterlimit="10" stroke-dasharray=""></path><path data-v-9833e8b2="" transform="scale(0.040783034257748776)" fill="none" stroke="currentColor" paint-order="fill stroke markers" d="m40.83001,78.43l25.78,-25.78l25.78,25.78m0,24.3l-25.78,-25.78l-25.78,25.78" stroke-width="5" stroke-miterlimit="10" stroke-dasharray=""></path><path data-v-9833e8b2="" transform="scale(0.040783034257748776)" fill="none" stroke="currentColor" paint-order="fill stroke markers" d="m66.61001,182.19l0,45.66" stroke-width="5" stroke-miterlimit="10" stroke-dasharray=""></path><path data-v-9833e8b2="" transform="scale(0.040783034257748776)" fill="none" stroke="currentColor" paint-order="fill stroke markers" d="m66.61001,78.98l0,48.21" stroke-width="5" stroke-miterlimit="10" stroke-dasharray=""></path><path data-v-9833e8b2="" transform="scale(0.040783034257748776)" fill="none" stroke="currentColor" paint-order="fill stroke markers" d="m66.61001,1l0,51.65" stroke-width="5" stroke-miterlimit="10" stroke-dasharray=""></path><path data-v-9833e8b2="" transform="scale(0.040783034257748776)" fill="none" stroke="currentColor" paint-order="fill stroke markers" d="m81.80001,183.29l-30.38,0l0,-56.71l30.38,0l0,56.71z" stroke-width="5" stroke-miterlimit="10" stroke-dasharray=""></path><path data-v-9833e8b2="" transform="scale(0.040783034257748776)" fill="none" stroke="currentColor" paint-order="fill stroke markers" d="m96.48001,277.51l0,111.36m0,-93.14942c-11.72716,0 -21.23,8.38591 -21.23,18.73471c0,10.34879 9.50284,18.73471 21.23,18.73471c11.72716,0 21.23,-8.38591 21.23,-18.73471c0,-10.33852 -9.50284,-18.73471 -21.23,-18.73471zm0,37.46941c-11.72716,0 -21.23,8.38591 -21.23,18.73471c0,10.34879 9.50284,18.73471 21.23,18.73471c11.72716,0 21.23,-8.38591 21.23,-18.73471c0,-10.34879 -9.50284,-18.73471 -21.23,-18.73471z" stroke-width="5" stroke-miterlimit="10" stroke-dasharray=""></path><path data-v-9833e8b2="" transform="scale(0.040783034257748776)" fill="none" stroke="currentColor" paint-order="fill stroke markers" d="m19.48002,419.19l87,0" stroke-width="5" stroke-miterlimit="10" stroke-dasharray=""></path><path data-v-9833e8b2="" transform="scale(0.040783034257748776)" fill="none" stroke="currentColor" paint-order="fill stroke markers" d="m21.48001,460.19l0,-41" stroke-width="5" stroke-miterlimit="10" stroke-dasharray=""></path><path data-v-9833e8b2="" transform="scale(0.040783034257748776)" fill="none" stroke="currentColor" paint-order="fill stroke markers" d="m38.48002,574.19l57,0" stroke-width="5" stroke-miterlimit="10" stroke-dasharray=""></path><path data-v-9833e8b2="" transform="scale(0.040783034257748776)" fill="none" stroke="currentColor" paint-order="fill stroke markers" d="m40.48002,576.19l26,31" stroke-width="5" stroke-miterlimit="10" stroke-dasharray=""></path><path data-v-9833e8b2="" transform="scale(0.040783034257748776)" fill="none" stroke="currentColor" paint-order="fill stroke markers" d="m93.48002,574.19l-28,34" stroke-width="5" stroke-miterlimit="10" stroke-dasharray=""></path></g></svg>