<svg data-v-9833e8b2="" version="1.1" xmlns="http://www.w3.org/2000/svg" xmlns:xlink="http://www.w3.org/1999/xlink" width="12" height="25"><g data-v-9833e8b2=""><path data-v-9833e8b2="" transform="scale(0.028409090909090908)" fill="none" stroke="currentColor" paint-order="fill stroke markers" d="m185.32,183.29l-30.38,0l0,-56.71l30.38,0l0,56.71z" stroke-width="5" stroke-miterlimit="10" stroke-dasharray=""></path><path data-v-9833e8b2="" transform="scale(0.028409090909090908)" fill="none" stroke="currentColor" paint-order="fill stroke markers" d="m170.13,1l0,51.65" stroke-width="5" stroke-miterlimit="10" stroke-dasharray=""></path><path data-v-9833e8b2="" transform="scale(0.028409090909090908)" fill="none" stroke="currentColor" paint-order="fill stroke markers" d="m170.13,78.98l0,48.21" stroke-width="5" stroke-miterlimit="10" stroke-dasharray=""></path><path data-v-9833e8b2="" transform="scale(0.028409090909090908)" fill="none" stroke="currentColor" paint-order="fill stroke markers" d="m170.13,182.19l0,45.66" stroke-width="5" stroke-miterlimit="10" stroke-dasharray=""></path><path data-v-9833e8b2="" transform="scale(0.028409090909090908)" fill="none" stroke="currentColor" paint-order="fill stroke markers" d="m26.32,323.05l0,39.5" stroke-width="5" stroke-miterlimit="10" stroke-dasharray=""></path><path data-v-9833e8b2="" transform="scale(0.028409090909090908)" fill="none" stroke="currentColor" paint-order="fill stroke markers" d="m144.35,78.43l25.78,-25.78l25.78,25.78m0,24.3l-25.78,-25.78l-25.78,25.78" stroke-width="5" stroke-miterlimit="10" stroke-dasharray=""></path><path data-v-9833e8b2="" transform="scale(0.028409090909090908)" fill="none" stroke="currentColor" paint-order="fill stroke markers" d="m195.91,227.85l-25.78,25.78l-25.78,-25.78m0,-24.31l25.78,25.78l25.78,-25.78" stroke-width="5" stroke-miterlimit="10" stroke-dasharray=""></path><path data-v-9833e8b2="" transform="scale(0.028409090909090908)" fill="none" stroke="currentColor" paint-order="fill stroke markers" d="m33.41,278.49l-7.09,20.25l-7.09,-20.25l14.18,0z" stroke-width="5" stroke-miterlimit="10" stroke-dasharray=""></path><path data-v-9833e8b2="" transform="scale(0.028409090909090908)" fill="none" stroke="currentColor" paint-order="fill stroke markers" d="m26.32,279.19l0,-85.54l143.81,0" stroke-width="5" stroke-miterlimit="10" stroke-dasharray=""></path><path data-v-9833e8b2="" transform="scale(0.028409090909090908)" fill="none" stroke="currentColor" paint-order="fill stroke markers" d="m41.51,325.07l-31.39,0l0,-67.85l31.39,0l0,67.85z" stroke-width="5" stroke-miterlimit="10" stroke-dasharray=""></path><path data-v-9833e8b2="" transform="scale(0.028409090909090908)" fill="none" stroke="currentColor" paint-order="fill stroke markers" d="m1,362.54l50.64,0m-42.54,10.13l34.43,0m-26.33,10.13l18.23,0" stroke-width="5" stroke-miterlimit="10" stroke-dasharray=""></path><path data-v-9833e8b2="" transform="scale(0.028409090909090908)" fill="none" stroke="currentColor" paint-order="fill stroke markers" d="m231.9,532.68l38.48,0m-32.4,7.09l26.33,0m-20.25,7.09l14.18,0" stroke-width="5" stroke-miterlimit="10" stroke-dasharray=""></path><path data-v-9833e8b2="" transform="scale(0.028409090909090908)" fill="none" stroke="currentColor" paint-order="fill stroke markers" d="m129.62,286.08l0,108.36m0,-90.64c-10.07,0 -18.23,8.16 -18.23,18.23c0,10.07 8.16,18.23 18.23,18.23c10.07,0 18.23,-8.16 18.23,-18.23c0,-10.06 -8.16,-18.23 -18.23,-18.23zm0,36.46c-10.07,0 -18.23,8.16 -18.23,18.23c0,10.07 8.16,18.23 18.23,18.23c10.07,0 18.23,-8.16 18.23,-18.23c0,-10.07 -8.16,-18.23 -18.23,-18.23z" stroke-width="5" stroke-miterlimit="10" stroke-dasharray=""></path><path data-v-9833e8b2="" transform="scale(0.028409090909090908)" fill="none" stroke="currentColor" paint-order="fill stroke markers" d="m170.13,253.17l0,184.32" stroke-width="5" stroke-miterlimit="10" stroke-dasharray=""></path><path data-v-9833e8b2="" transform="scale(0.028409090909090908)" fill="none" stroke="currentColor" paint-order="fill stroke markers" d="m188.36,322.03c0,10.07 -8.16,18.23 -18.23,18.23c-10.07,0 -18.23,-8.16 -18.23,-18.23c0,-10.07 8.16,-18.23 18.23,-18.23c10.07,0 18.23,8.17 18.23,18.23zm0,36.46c0,10.07 -8.16,18.23 -18.23,18.23c-10.07,0 -18.23,-8.16 -18.23,-18.23c0,-10.07 8.16,-18.23 18.23,-18.23c10.07,0 18.23,8.16 18.23,18.23z" stroke-width="5" stroke-miterlimit="10" stroke-dasharray=""></path><path data-v-9833e8b2="" transform="scale(0.028409090909090908)" fill="none" stroke="currentColor" paint-order="fill stroke markers" d="m210.64,286.08l0,108.36m18.23,-72.41c0,10.07 -8.16,18.23 -18.23,18.23c-10.07,0 -18.23,-8.16 -18.23,-18.23c0,-10.07 8.16,-18.23 18.23,-18.23c10.06,0 18.23,8.17 18.23,18.23zm0,36.46c0,10.07 -8.16,18.23 -18.23,18.23c-10.07,0 -18.23,-8.16 -18.23,-18.23c0,-10.07 8.16,-18.23 18.23,-18.23c10.06,0 18.23,8.16 18.23,18.23z" stroke-width="5" stroke-miterlimit="10" stroke-dasharray=""></path><path data-v-9833e8b2="" transform="scale(0.028409090909090908)" fill="none" stroke="currentColor" paint-order="fill stroke markers" d="m129.62,549.39l0,108.36m0,-90.63c-10.07,0 -18.23,8.16 -18.23,18.23c0,10.07 8.16,18.23 18.23,18.23c10.07,0 18.23,-8.16 18.23,-18.23c0,-10.07 -8.16,-18.23 -18.23,-18.23zm0,36.46c-10.07,0 -18.23,8.16 -18.23,18.23c0,10.07 8.16,18.23 18.23,18.23c10.07,0 18.23,-8.16 18.23,-18.23c0,-10.07 -8.16,-18.23 -18.23,-18.23z" stroke-width="5" stroke-miterlimit="10" stroke-dasharray=""></path><path data-v-9833e8b2="" transform="scale(0.028409090909090908)" fill="none" stroke="currentColor" paint-order="fill stroke markers" d="m170.13,519.52l0,359.52" stroke-width="5" stroke-miterlimit="10" stroke-dasharray=""></path><path data-v-9833e8b2="" transform="scale(0.028409090909090908)" fill="none" stroke="currentColor" paint-order="fill stroke markers" d="m188.36,585.35c0,10.07 -8.16,18.23 -18.23,18.23c-10.07,0 -18.23,-8.16 -18.23,-18.23c0,-10.07 8.16,-18.23 18.23,-18.23c10.07,0 18.23,8.16 18.23,18.23zm-18.23,18.23c-10.07,0 -18.23,8.16 -18.23,18.23c0,10.07 8.16,18.23 18.23,18.23c10.07,0 18.23,-8.16 18.23,-18.23c0,-10.07 -8.16,-18.23 -18.23,-18.23z" stroke-width="5" stroke-miterlimit="10" stroke-dasharray=""></path><path data-v-9833e8b2="" transform="scale(0.028409090909090908)" fill="none" stroke="currentColor" paint-order="fill stroke markers" d="m210.64,549.39l0,108.36m0,-90.63c-10.07,0 -18.23,8.16 -18.23,18.23c0,10.07 8.16,18.23 18.23,18.23c10.07,0 18.23,-8.16 18.23,-18.23c0,-10.07 -8.17,-18.23 -18.23,-18.23zm0,36.46c-10.07,0 -18.23,8.16 -18.23,18.23c0,10.07 8.16,18.23 18.23,18.23c10.07,0 18.23,-8.16 18.23,-18.23c0,-10.07 -8.17,-18.23 -18.23,-18.23z" stroke-width="5" stroke-miterlimit="10" stroke-dasharray=""></path><path data-v-9833e8b2="" transform="scale(0.028409090909090908)" fill="none" stroke="currentColor" paint-order="fill stroke markers" d="m163.33,484.79l18.95,10.42l-18.95,10.42l0,-20.84zm6.8,-13.88c-13.42,0 -24.31,10.88 -24.31,24.31c0,13.42 10.88,24.31 24.31,24.31c13.42,0 24.31,-10.88 24.31,-24.31c-0.01,-13.43 -10.89,-24.31 -24.31,-24.31z" stroke-width="5" stroke-miterlimit="10" stroke-dasharray=""></path><path data-v-9833e8b2="" transform="scale(0.028409090909090908)" fill="none" stroke="currentColor" paint-order="fill stroke markers" d="m156.41,467.32l13.72,-9.67l13.72,9.67m-13.72,-30.85c-13.42,0 -24.31,10.88 -24.31,24.31s10.88,24.31 24.31,24.31c13.42,0 24.31,-10.88 24.31,-24.31s-10.89,-24.31 -24.31,-24.31zm0,7.09l0,14.18" stroke-width="5" stroke-miterlimit="10" stroke-dasharray=""></path><path data-v-9833e8b2="" transform="scale(0.028409090909090908)" fill="none" stroke="currentColor" paint-order="fill stroke markers" d="m170.13,410.24l129.63,0l0,40.41" stroke-width="5" stroke-miterlimit="10" stroke-dasharray=""></path><path data-v-9833e8b2="" transform="scale(0.028409090909090908)" fill="none" stroke="currentColor" paint-order="fill stroke markers" d="m251.15,532.68l0,-28.26" stroke-width="5" stroke-miterlimit="10" stroke-dasharray=""></path><path data-v-9833e8b2="" transform="scale(0.028409090909090908)" fill="none" stroke="currentColor" paint-order="fill stroke markers" d="m280.52,532.68l38.48,0m-32.41,7.09l26.33,0m-20.25,7.09l14.18,0" stroke-width="5" stroke-miterlimit="10" stroke-dasharray=""></path><path data-v-9833e8b2="" transform="scale(0.028409090909090908)" fill="none" stroke="currentColor" paint-order="fill stroke markers" d="m299.76,532.68l0,-21.27" stroke-width="5" stroke-miterlimit="10" stroke-dasharray=""></path><path data-v-9833e8b2="" transform="scale(0.028409090909090908)" fill="none" stroke="currentColor" paint-order="fill stroke markers" d="m251.15,436.56l0,-26.32" stroke-width="5" stroke-miterlimit="10" stroke-dasharray=""></path><path data-v-9833e8b2="" transform="scale(0.028409090909090908)" fill="none" stroke="currentColor" paint-order="fill stroke markers" d="m251.15,446.6l0,24.31" stroke-width="5" stroke-miterlimit="10" stroke-dasharray=""></path><path data-v-9833e8b2="" transform="scale(0.028409090909090908)" fill="none" stroke="currentColor" paint-order="fill stroke markers" d="m285.07,451.66l29.37,0m-29.37,8.11l29.37,0" stroke-width="5" stroke-miterlimit="10" stroke-dasharray=""></path><path data-v-9833e8b2="" transform="scale(0.028409090909090908)" fill="none" stroke="currentColor" paint-order="fill stroke markers" d="m299.76,458.75l0,22.28" stroke-width="5" stroke-miterlimit="10" stroke-dasharray=""></path><path data-v-9833e8b2="" transform="scale(0.028409090909090908)" fill="none" stroke="currentColor" paint-order="fill stroke markers" d="m315.46,496.23c0,8.67 -7.03,15.7 -15.7,15.7c-8.67,0 -15.7,-7.03 -15.7,-15.7c0,-8.67 7.03,-15.7 15.7,-15.7c8.67,0 15.7,7.03 15.7,15.7zm-26.44,-10.75l21.48,21.48m-21.48,0.01l21.48,-21.48" stroke-width="5" stroke-miterlimit="10" stroke-dasharray=""></path><path data-v-9833e8b2="" transform="scale(0.028409090909090908)" fill="none" stroke="currentColor" paint-order="fill stroke markers" d="m260.26,504.33l-18.23,0l0,-33.42l18.23,0l0,33.42z" stroke-width="5" stroke-miterlimit="10" stroke-dasharray=""></path><path data-v-9833e8b2="" transform="scale(0.028409090909090908)" fill="none" stroke="currentColor" paint-order="fill stroke markers" d="m263,428.19l-12,20" stroke-width="5" stroke-miterlimit="10" stroke-dasharray=""></path></g></svg>