<svg data-v-9833e8b2="" version="1.1" xmlns="http://www.w3.org/2000/svg" xmlns:xlink="http://www.w3.org/1999/xlink" width="25" height="20"><g data-v-9833e8b2=""><path data-v-9833e8b2="" transform="scale(0.14285714285714285)" fill="none" stroke="currentColor" paint-order="fill stroke markers" d="m87.47737,20.91431m-1.26953,0a1.26953,1.26953 0 1 0 2.53907,0a1.26953,1.26953 0 1 0 -2.53907,0z" stroke-width="5" stroke-miterlimit="10" stroke-dasharray=""></path><path data-v-9833e8b2="" transform="scale(0.14285714285714285)" fill="none" stroke="currentColor" paint-order="fill stroke markers" d="m10.73694,10.49338l154.32597,0l0,93.1227l-154.32597,0l0,-93.1227z" stroke-width="5" stroke-miterlimit="10" stroke-dasharray=""></path><path data-v-9833e8b2="" transform="scale(0.14285714285714285)" fill="none" stroke="currentColor" paint-order="fill stroke markers" d="m164.66877,113.10966l-153.50898,0c-5.60216,0 -10.15979,-4.55763 -10.15979,-10.15979l0,-91.79007c0,-5.60216 4.55763,-10.15979 10.15979,-10.15979l153.50918,0c5.60197,0 10.1596,4.55763 10.1596,10.15979l0,91.79027c0,5.60197 -4.55763,10.1596 -10.15979,10.1596zm-153.50898,-106.64089c-2.58673,0 -4.69103,2.1043 -4.69103,4.69103l0,91.79027c0,2.58653 2.1043,4.69083 4.69103,4.69083l153.50918,0c2.58653,0 4.69083,-2.1043 4.69083,-4.69103l0,-91.79007c0,-2.58673 -2.1043,-4.69103 -4.69103,-4.69103l-153.50898,0z" stroke-width="5" stroke-miterlimit="10" stroke-dasharray=""></path><path data-v-9833e8b2="" transform="scale(0.14285714285714285)" fill="none" stroke="currentColor" paint-order="fill stroke markers" d="m82.49688,108.29187l11.08147,0l0,35.28661l-11.08147,0l0,-35.28661z" stroke-width="5" stroke-miterlimit="10" stroke-dasharray=""></path><path data-v-9833e8b2="" transform="scale(0.14285714285714285)" fill="none" stroke="currentColor" paint-order="fill stroke markers" d="m121.41046,143.7193l-66.58708,0c-2.30958,0 -4.19923,-1.88965 -4.19923,-4.19923s1.88965,-4.19923 4.19923,-4.19923l66.58708,0c2.30958,0 4.19923,1.88965 4.19923,4.19923s-1.88965,4.19923 -4.19923,4.19923z" stroke-width="5" stroke-miterlimit="10" stroke-dasharray=""></path><path data-v-9833e8b2="" transform="scale(0.14285714285714285)" fill="none" stroke="currentColor" paint-order="fill stroke markers" d="m52.42259,42.87667c-0.91582,0.74668 -2.27598,0.6084 -3.02286,-0.30723l-23.30201,-28.57624c-0.74668,-0.91582 -0.6084,-2.27598 0.30723,-3.02286c0.91582,-0.74668 2.27598,-0.6084 3.02286,0.30723l23.30201,28.57605c0.74668,0.91602 0.6084,2.27618 -0.30723,3.02305z" stroke-width="5" stroke-miterlimit="10" stroke-dasharray=""></path><path data-v-9833e8b2="" transform="scale(0.14285714285714285)" fill="none" stroke="currentColor" paint-order="fill stroke markers" d="m53.39173,64.06149c-0.91582,0.74668 -2.27598,0.6084 -3.02286,-0.30723l-39.15088,-48.01223c-0.74668,-0.91582 -0.6084,-2.27598 0.30723,-3.02286c0.91582,-0.74668 2.27598,-0.6084 3.02286,0.30723l39.15088,48.01223c0.74688,0.91582 0.6086,2.27618 -0.30723,3.02286z" stroke-width="5" stroke-miterlimit="10" stroke-dasharray=""></path><path data-v-9833e8b2="" transform="scale(0.14285714285714285)" fill="none" stroke="currentColor" paint-order="fill stroke markers" d="m55.54115,46.75207m-1.9043,0a1.9043,1.9043 0 1 0 3.8086,0a1.9043,1.9043 0 1 0 -3.8086,0z" stroke-width="5" stroke-miterlimit="10" stroke-dasharray=""></path></g></svg>