<svg data-v-9833e8b2="" version="1.1" xmlns="http://www.w3.org/2000/svg" xmlns:xlink="http://www.w3.org/1999/xlink" width="25" height="17.5"><g data-v-9833e8b2=""><path data-v-9833e8b2="" transform="scale(0.12886597938144329)" fill="none" stroke="currentColor" paint-order="fill stroke markers" d="m193.2,2.6l-48.6,18c-12.1,-12.1 -28.8,-19.6 -47.3,-19.6c-18.5,0 -35.3,7.5 -47.4,19.7l-48.9,-18.1l0,130.8l48.8,-18.1c12.1,12.2 28.9,19.7 47.4,19.7c18.5,0 35.2,-7.5 47.3,-19.6l48.6,18l0.1,-130.8l0,0zm-180.5,114l0,-97.3l29.3,10.9c-7.4,10.8 -11.7,23.8 -11.7,37.8s4.3,27 11.7,37.8l-29.3,10.8zm168.8,0l-29.1,-10.8c7.4,-10.8 11.7,-23.8 11.7,-37.8c0,-14.1 -4.3,-27.1 -11.7,-37.9l29.1,-10.8l0,97.3l0,0z" stroke-width="5" stroke-miterlimit="10" stroke-dasharray=""></path><path data-v-9833e8b2="" transform="scale(0.12886597938144329)" fill="none" stroke="currentColor" paint-order="fill stroke markers" d="m96.7,121.2l0,0c-1.1,0.1 -2.1,0 -3.1,0l0,-29.7c-4,-0.6 -7.7,-2.2 -10.8,-4.5c0.1,0.1 0.2,0.2 0.2,0.2l-5.7,6.2l0,0l-15.2,16.5c-2.9,-2.6 -5.4,-5.6 -7.7,-8.8l0,0c-6.5,-9.2 -10.1,-20.5 -9.8,-32.6l0,-0.1c0,-1 0.1,-2 0.2,-3.1l0.3,0l28.6,0.8c0.5,-5.2 2.7,-9.8 6,-13.5l-17.2,-14.7l0,0l-5.2,-4.5c0.6,-0.7 1.2,-1.3 1.8,-2c0.4,-0.4 0.9,-0.9 1.3,-1.3c0.2,-0.2 0.3,-0.3 0.5,-0.5c1.2,-1.2 2.5,-2.3 3.9,-3.3l0,0c9.2,-7.2 20.8,-11.5 33.4,-11.5l0.1,0c1,0 2,0 3.1,0.1l0,30.7c4.1,0.8 7.8,2.7 10.8,5.4l4.7,-5.1l0,0l15.6,-16.9c0.6,0.6 1.2,1.2 1.8,1.8c0.2,0.2 0.4,0.5 0.6,0.7c0.4,0.4 0.7,0.8 1.1,1.2c0.2,0.3 0.5,0.6 0.8,0.8c0.3,0.3 0.6,0.7 0.9,1c0.3,0.3 0.5,0.6 0.8,0.9l0,0c7.5,9.6 11.9,21.8 11.5,35l0.1,0.1c-0.1,1 -0.1,2 -0.2,3.1l-0.3,0l-29.7,-0.9c-0.7,3.9 -2.4,7.4 -4.7,10.4l18.1,15.7l0,0l4.5,3.9c-0.6,0.7 -1.2,1.4 -1.9,2.1c-0.1,0.1 -0.2,0.2 -0.3,0.3c-0.5,0.5 -1.1,1.1 -1.6,1.6c-0.4,0.3 -0.7,0.7 -1.1,1c-0.3,0.3 -0.6,0.5 -0.9,0.8c-0.4,0.4 -0.9,0.7 -1.3,1.1c-9.4,7.2 -21.2,11.6 -34,11.6z" stroke-width="5" stroke-miterlimit="10" stroke-dasharray=""></path><path data-v-9833e8b2="" transform="scale(0.12886597938144329)" fill="none" stroke="currentColor" paint-order="fill stroke markers" d="m96.9,53.3c-8.4,0 -15.1,6.8 -15.1,15.1s6.8,15.1 15.1,15.1s15.1,-6.8 15.1,-15.1s-6.8,-15.1 -15.1,-15.1z" stroke-width="5" stroke-miterlimit="10" stroke-dasharray=""></path></g></svg>