<svg data-v-9833e8b2="" version="1.1" xmlns="http://www.w3.org/2000/svg" xmlns:xlink="http://www.w3.org/1999/xlink" width="25" height="20"><g data-v-9833e8b2=""><path data-v-9833e8b2="" transform="scale(0.1488095238095238)" fill="none" stroke="currentColor" paint-order="fill stroke markers" d="m145.7,44.4c-8.9,-25.3 -33,-43.4 -61.4,-43.4s-52.4,18.1 -61.4,43.4l-21.9,0l0,43.4l21.9,0c9,25.3 33,43.4 61.4,43.4s52.4,-18.1 61.4,-43.4l21.9,0l0,-43.4l-21.9,0z" stroke-width="5" stroke-miterlimit="10" stroke-dasharray=""></path><path data-v-9833e8b2="" transform="scale(0.1488095238095238)" fill="none" stroke="currentColor" paint-order="fill stroke markers" d="m122.9,89.3l-11.8,14.3c-3.4,4.1 -9.7,4.5 -13.6,0.6c-3.2,-3.2 -3.1,-9.1 -0.2,-12.6l3.6,-4.4l-10.2,-5.9c-1.9,0.6 -3.8,1.1 -5.9,1.1c-2,0 -3.8,-0.4 -5.6,-1l-20.1,11.7c-4.2,2.4 -9.6,0.5 -11.3,-4l-6.5,-17.4c-1.9,-5 0.9,-10.7 6.2,-12.1c4.6,-1.2 9.4,1.7 11.1,6.1l2,5.3l6.3,-3.6c-0.2,-1.1 -0.3,-2.2 -0.3,-3.3c0,-6.7 3.7,-12.6 9.1,-15.7l0,-20.7c0,-4.8 4.3,-8.5 9.1,-7.7l17.8,3c4.7,0.8 8.4,4.9 8.1,9.7c-0.4,5.5 -5.3,9.3 -10.6,8.4l-6.1,-1l0,8.4c5.4,3.2 9.1,9 9.1,15.7c0,1.1 -0.1,2.1 -0.3,3.1l17.9,10.3c4.3,2.4 5.3,8 2.2,11.7z" stroke-width="5" stroke-miterlimit="10" stroke-dasharray=""></path></g></svg>