<svg data-v-9833e8b2="" version="1.1" xmlns="http://www.w3.org/2000/svg" xmlns:xlink="http://www.w3.org/1999/xlink" width="24.5" height="25"><g data-v-9833e8b2=""><path data-v-9833e8b2="" transform="scale(0.1282051282051282)" fill="none" stroke="currentColor" paint-order="fill stroke markers" d="m158.4254,1a5.00001,5.00001 0 0 1 5.00001,5.00001l-0.00625,173.21919l17.58129,0c0.6875,0 1.25,0.5625 1.25,1.25l0,13.12503a1.25,1.25 0 0 1 -1.25,1.25l-178.75045,0a1.25,1.25 0 0 1 -1.25,-1.25l0,-13.12503c0,-0.6875 0.5625,-1.25 1.25,-1.25l17.41879,0l0,-173.21919a5.00001,5.00001 0 0 1 5.00001,-5.00001l133.75034,0l0.00625,0zm-10.62503,15.62504l-112.50028,0l0,162.50041l112.50028,0l0,-162.50041zm-89.30022,127.34407a12.50003,12.50003 0 1 1 0,25.00006a12.50003,12.50003 0 0 1 0,-25.00006zm50.15638,-15.46879a18.75005,18.75005 0 1 1 0,37.50009a18.75005,18.75005 0 0 1 0,-37.50009zm-30.23758,-25.15631a9.37502,9.37502 0 1 1 0,18.75005a9.37502,9.37502 0 0 1 0,-18.75005zm51.33138,-13.35628a10.93753,10.93753 0 1 1 0,21.87506a10.93753,10.93753 0 0 1 0,-21.87506zm6.17502,-51.48763c1.375,0 2.50001,1.125 2.50001,2.50001l0,32.50008a2.50001,2.50001 0 0 1 -2.50001,2.50001l-88.75022,0a2.50001,2.50001 0 0 1 -2.50001,-2.50001l0,-32.50008c0,-1.375 1.11875,-2.50001 2.50001,-2.50001l88.75022,0zm-13.12503,15.62504l-62.50016,0l0,6.25002l62.50016,0l0,-6.25002z" stroke-width="5" stroke-miterlimit="10" stroke-dasharray=""></path></g></svg>