<svg data-v-9833e8b2="" version="1.1" xmlns="http://www.w3.org/2000/svg" xmlns:xlink="http://www.w3.org/1999/xlink" width="25" height="17.5"><g data-v-9833e8b2=""><path data-v-9833e8b2="" transform="scale(0.13020833333333334)" fill="none" stroke="currentColor" paint-order="fill stroke markers" d="m183.41014,16.25381l-11.75814,0l0,2.22451l-25.7408,0l0,-8.58027c0,-5.0846 -4.13124,-8.89806 -8.89806,-8.89806l-19.38505,0c-5.0846,0 -8.89806,4.13124 -8.89806,8.89806l0,14.93602l-47.03258,0l0,-14.93602c0,-5.0846 -4.13124,-8.89806 -8.89806,-8.89806l-19.70284,0c-5.0846,0 -8.89806,4.13124 -8.89806,8.89806l0,24.78744l-23.1985,0l0,101.05649l153.17367,0l0,-27.32974l-131.56411,0l-6.35575,-46.397l7.94469,0l0,24.78744c0,5.0846 4.13124,8.89805 8.89806,8.89806l19.38505,0c5.0846,0 8.89806,-4.13124 8.89806,-8.89806l0,-14.93602l46.71479,0l0,14.93602c0,5.0846 4.13124,8.89805 8.89806,8.89806l19.38505,0c5.0846,0 8.89806,-4.13124 8.89806,-8.89806l0,-8.26248l25.7408,0l0,1.90673l11.75814,0c5.0846,0 8.89806,-4.13124 8.89806,-8.89806l0,-46.397c0.63558,-5.0846 -3.49566,-8.89806 -8.26248,-8.89806zm-11.75814,58.47294l-25.7408,0l0,-4.13124l25.7408,0l0,4.13124zm0,-10.16921l-25.7408,0l0,-5.0846l25.7408,0l0,5.0846zm0,-13.02929l-25.7408,0l0,-6.35575l25.7408,0l0,6.35575zm0,-13.98266l-25.7408,0l0,-5.0846l25.7408,0l0,5.0846zm0,-11.12257l-25.7408,0l0,-4.13124l25.7408,0l0,4.13124z" stroke-width="5" stroke-miterlimit="10" stroke-dasharray=""></path></g></svg>