<svg data-v-9833e8b2="" version="1.1" xmlns="http://www.w3.org/2000/svg" xmlns:xlink="http://www.w3.org/1999/xlink" width="25" height="22.5"><g data-v-9833e8b2=""><path data-v-9833e8b2="" transform="scale(0.1358695652173913)" fill="none" stroke="currentColor" paint-order="fill stroke markers" d="m182.13513,65.04l-17.5,10.01c-1.68,1 -3.7,0.33 -4.71,-1.34l-6.73,-11.67c-1.01,-1.67 -0.34,-3.66 1.35,-4.67l17.5,-10.01c1.68,-1 3.7,-0.34 4.71,1.33l6.73,11.67c1.01,1.67 0.33,3.68 -1.35,4.68l0,0zm-44.44,-24.69c-1.01,1.68 -3.03,2 -4.71,1.34l-11.78,-6.67c-1.69,-1 -2.36,-3 -1.35,-4.67l10.1,-17.35c1.01,-1.67 3.03,-2 4.71,-1.33l11.78,6.67c1.69,1 2.02,3 1.35,4.67l-10.1,17.34l0,0zm-38.65,-12.66l-13.47,0c-2.02,0 -3.37,-1.34 -3.37,-3.34l0,-20.01c0,-2 1.35,-3.34 3.37,-3.34l13.47,0c2.01,0 3.36,1.33 3.36,3.34l0,20.01c0,2 -1.35,3.34 -3.36,3.34l0,0zm-35.29,7.67l-11.79,6.67c-1.68,0.99 -3.7,0.33 -4.71,-1.34l-10.09,-17.34c-1.01,-1.67 -0.34,-3.67 1.34,-4.67l11.79,-6.67c1.68,-1 3.7,-0.34 4.71,1.33l10.09,17.34c1.01,1.67 0.34,3.68 -1.34,4.68l0,0zm-38.72,38.02c-1.01,1.67 -3.03,2 -4.71,1.33l-17.5,-10.01c-1.69,-1 -2.36,-3 -1.35,-4.67l6.74,-11.67c1.01,-1.67 3.03,-2 4.71,-1.34l17.5,10.01c1.69,1 2.02,3.01 1.35,4.67l-6.74,11.68l0,0z" stroke-width="5" stroke-miterlimit="10" stroke-dasharray=""></path><path data-v-9833e8b2="" transform="scale(0.1358695652173913)" fill="none" stroke="currentColor" paint-order="fill stroke markers" d="m115.69513,104.84l-28.55,39.68c-0.34,0.34 -1.01,0.67 -1.35,0.67l-0.34,0c-0.67,-0.34 -1.35,-1 -1.35,-2l4.04,-27.68l-21.54,0c-0.34,0 -0.67,0 -1.01,-0.33c-0.67,-0.67 -1.01,-1.67 -0.34,-2.33l34.34,-39.69c0.34,-0.33 1.01,-0.67 1.35,-0.67l0.33,0c0.67,0.34 1.35,1 1.35,2l-4.04,27.67l15.42,0c0.34,0 0.67,0 1.35,0.34c0.68,0.67 1.01,1.67 0.34,2.34l0,0z" stroke-width="5" stroke-miterlimit="10" stroke-dasharray=""></path><path data-v-9833e8b2="" transform="scale(0.1358695652173913)" fill="none" stroke="currentColor" paint-order="fill stroke markers" d="m93.66513,116.47" stroke-width="5" stroke-miterlimit="10" stroke-dasharray=""></path><path data-v-9833e8b2="" transform="scale(0.1358695652173913)" fill="none" stroke="currentColor" paint-order="fill stroke markers" d="m39.30513,168.1l0,-73.83c0,-33.76 20.28,-53.77 54.36,-53.77c34.09,0 54.36,20.01 54.36,53.77l0,73.83m-129.49,0l150.27,0" stroke-width="5" stroke-miterlimit="10" stroke-dasharray=""></path></g></svg>