<svg data-v-9833e8b2="" version="1.1" xmlns="http://www.w3.org/2000/svg" xmlns:xlink="http://www.w3.org/1999/xlink" width="19.5" height="25"><g data-v-9833e8b2=""><path data-v-9833e8b2="" transform="scale(0.15432098765432098)" fill="none" stroke="currentColor" paint-order="fill stroke markers" d="m21.04,155.58l0.89,0.81l-20.93,0l0,-23l16.53,0l0,13.12l3.51,3.22l0,5.85z" stroke-width="5" stroke-miterlimit="10" stroke-dasharray=""></path><path data-v-9833e8b2="" transform="scale(0.15432098765432098)" fill="none" stroke="currentColor" paint-order="fill stroke markers" d="m9.25,115.61l0,4l8.28,0l0,-4l-8.28,0z" stroke-width="5" stroke-miterlimit="10" stroke-dasharray=""></path><path data-v-9833e8b2="" transform="scale(0.15432098765432098)" fill="none" stroke="currentColor" paint-order="fill stroke markers" d="m9.25,124.01l0,4l8.28,0l0,-4l-8.28,0z" stroke-width="5" stroke-miterlimit="10" stroke-dasharray=""></path><path data-v-9833e8b2="" transform="scale(0.15432098765432098)" fill="none" stroke="currentColor" paint-order="fill stroke markers" d="m115.32,156.38l-21.04,0l1,-0.81l0,-5.85l3.51,-3.22l0,-13.12l16.53,0l0,23l0,0z" stroke-width="5" stroke-miterlimit="10" stroke-dasharray=""></path><path data-v-9833e8b2="" transform="scale(0.15432098765432098)" fill="none" stroke="currentColor" paint-order="fill stroke markers" d="m107.07,119.61l0,-4l-8.28,0l0,4l8.28,0z" stroke-width="5" stroke-miterlimit="10" stroke-dasharray=""></path><path data-v-9833e8b2="" transform="scale(0.15432098765432098)" fill="none" stroke="currentColor" paint-order="fill stroke markers" d="m107.07,128.01l0,-4l-8.28,0l0,4l8.28,0z" stroke-width="5" stroke-miterlimit="10" stroke-dasharray=""></path><path data-v-9833e8b2="" transform="scale(0.15432098765432098)" fill="none" stroke="currentColor" paint-order="fill stroke markers" d="m102.1,92.39l-87.88,0l6.68,-8.3l0.89,-1.1l0,-0.09l72.74,0l0,0.09l0.89,1.1z" stroke-width="5" stroke-miterlimit="10" stroke-dasharray=""></path><path data-v-9833e8b2="" transform="scale(0.15432098765432098)" fill="none" stroke="currentColor" paint-order="fill stroke markers" d="m13.25,96.39l0,12.67l4.28,0l4,0l0,4l0,2.55l0,4l0,4.41l0,4l0,5.37l0,11.36l2.21,2.03l1.3,1.19l0,1.76l0,4.09l2.83,2.58l0.48,0.44l1.31,1.19l0,1.77l0,1.2l56.41,0l0,-1.22l0,-1.91l1.49,-1.2l0.35,-0.28l3.38,-2.72l0,-3.94l0,-1.76l1.3,-1.19l2.21,-2.03l0,-11.36l0,-5.37l0,-4l0,-4.41l0,-4l0,-2.55l0,-4l4,0l4.28,0l0,-12.67l-89.83,0zm65.91,27.62l0,4l0,5.37l0,8.62l-42,0l0,-8.62l0,-5.37l0,-4l0,-3.01l42,0l0,3.01z" stroke-width="5" stroke-miterlimit="10" stroke-dasharray=""></path><path data-v-9833e8b2="" transform="scale(0.15432098765432098)" fill="none" stroke="currentColor" paint-order="fill stroke markers" d="m58.16,14.97c-4.82,0 -9.23,0.3 -13.22,0.85l0,-14.82l26.44,0l0,14.82c-3.99,-0.55 -8.4,-0.85 -13.22,-0.85z" stroke-width="5" stroke-miterlimit="10" stroke-dasharray=""></path><path data-v-9833e8b2="" transform="scale(0.15432098765432098)" fill="none" stroke="currentColor" paint-order="fill stroke markers" d="m94.48,33.88c-0.61,-5.9 -8.03,-11.83 -23.1,-14.02c-3.89,-0.57 -8.29,-0.89 -13.22,-0.89s-9.33,0.32 -13.22,0.89c-15.07,2.19 -22.48,8.12 -23.1,14.02l-0.06,0.53l0,44.49l72.75,0l0,-44.49l-0.05,-0.53zm-6.32,16.35l-60,0l0,-10.23l60,0l0,10.23z" stroke-width="5" stroke-miterlimit="10" stroke-dasharray=""></path></g></svg>