<svg data-v-9833e8b2="" version="1.1" xmlns="http://www.w3.org/2000/svg" xmlns:xlink="http://www.w3.org/1999/xlink" width="19.5" height="25"><g data-v-9833e8b2=""><path data-v-9833e8b2="" transform="scale(0.15060240963855423)" fill="none" stroke="currentColor" paint-order="fill stroke markers" d="m86.1,43.23l0,3.77l-55.88,0l0,-3.77l55.88,0m4,-4l-63.88,0l0,11.77l63.88,0l0,-11.77l0,0z" stroke-width="5" stroke-miterlimit="10" stroke-dasharray=""></path><path data-v-9833e8b2="" transform="scale(0.15060240963855423)" fill="none" stroke="currentColor" paint-order="fill stroke markers" d="m77.7,120.25l0,15.54l-39.08,0l0,-15.54l39.08,0m4,-4l-47.08,0l0,23.54l47.07,0l0,-23.54l0.01,0z" stroke-width="5" stroke-miterlimit="10" stroke-dasharray=""></path><path data-v-9833e8b2="" transform="scale(0.15060240963855423)" fill="none" stroke="currentColor" paint-order="fill stroke markers" d="m98.79,133.38l0,-3.37l8.28,0l0,-4l-8.28,0l0,-4.41l8.28,0l0,-4l-8.28,0l0,-4.55l8.28,0l0,-20.87l-8.53,-10.61l0,-48.11l-0.08,0c-0.87,-8.33 -10.15,-15.29 -27.08,-17.64l0,-14.82l-26.44,0l0,14.82c-16.93,2.35 -26.21,9.31 -27.08,17.64l-0.08,0l0,48.12l-8.53,10.61l0,20.87l8.28,0l0,4.55l-8.28,0l0,4l8.28,0l0,4.41l-8.28,0l0,4l8.28,0l0,3.37l-16.53,0l0,22.61l20.5,0l4.15,3.78l0,5.22l64.41,0l0,-5.22l4.69,-3.78l20.56,0l0,-22.62l-16.52,0zm-49.85,-128.38l18.44,0l0,10.37c-2.88,-0.26 -5.95,-0.4 -9.22,-0.4s-6.34,0.14 -9.22,0.4l0,-10.37zm-27.15,29.41l0.06,-0.53c0.77,-7.42 12.3,-14.91 36.32,-14.91s35.54,7.49 36.32,14.91l0.06,0.53l0,44.49l-72.76,0l0,-44.49zm-0.89,49.68l0.88,-1.1l0,-0.09l72.75,0l0,0.09l0.88,1.1l6.68,8.3l-87.87,0l6.68,-8.3zm0.14,67.91l-16.04,0l0,-14.62l12.53,0l0,9.12l3.51,3.22l0,2.28zm-7.79,-43.48l0,-12.13l89.82,0l0,12.13l-89.82,0zm74.3,48.15l-1.49,1.2l0,1.91l0,1.22l-56.4,0l0,-1.22l0,-1.77l-1.31,-1.19l-0.83,-0.75l60.77,0l-0.74,0.6zm7.24,-43.61l0,31.69l-2.21,2.03l-1.3,1.19l0,1.76l0,2.35l-66.24,0l0,-2.35l0,-1.76l-1.3,-1.19l-2.21,-2.03l0,-31.69l0,-0.54l73.26,0l0,0.54zm16.53,38.94l-16.04,0l0,-2.28l3.51,-3.22l0,-9.12l12.53,0l0,14.62z" stroke-width="5" stroke-miterlimit="10" stroke-dasharray=""></path></g></svg>