<svg data-v-9833e8b2="" version="1.1" xmlns="http://www.w3.org/2000/svg" xmlns:xlink="http://www.w3.org/1999/xlink" width="22" height="25"><g data-v-9833e8b2=""><path data-v-9833e8b2="" transform="scale(0.1388888888888889)" fill="none" stroke="currentColor" paint-order="fill stroke markers" d="m48.66,78.23l24.56,-50.78l24.56,50.78l-49.12,0l0,0z" stroke-width="5" stroke-miterlimit="10" stroke-dasharray=""></path><path data-v-9833e8b2="" transform="scale(0.1388888888888889)" fill="none" stroke="currentColor" paint-order="fill stroke markers" d="m147.2,74.1c0,40.37 -32.73,73.1 -73.1,73.1s-73.1,-32.73 -73.1,-73.1s32.73,-73.1 73.1,-73.1s73.1,32.73 73.1,73.1zm-73.1,105.62l0,-32.52m0,-146.2l0,20.29m-37.34,15.47l-14.35,-14.35m-21.41,51.69l20.29,0m1.12,51.69l14.34,-14.34m37.35,35.75l0,-20.29m51.69,-1.12l-14.34,-14.34m35.75,-37.35l-20.29,0m-1.12,-51.69l-14.34,14.34" stroke-width="5" stroke-miterlimit="10" stroke-dasharray=""></path></g></svg>