<svg data-v-9833e8b2="" version="1.1" xmlns="http://www.w3.org/2000/svg" xmlns:xlink="http://www.w3.org/1999/xlink" width="17" height="25"><g data-v-9833e8b2=""><path data-v-9833e8b2="" transform="scale(0.12376237623762376)" fill="none" stroke="currentColor" paint-order="fill stroke markers" d="m89.01992,16.75496l-47.53841,0l0,19.639l47.53841,0l0,-19.639zm-2.78994,17.06788l-42.01323,0l0,-14.27794l42.01323,0l0,14.27794z" stroke-width="5" stroke-miterlimit="10" stroke-dasharray=""></path><path data-v-9833e8b2="" transform="scale(0.12376237623762376)" fill="none" stroke="currentColor" paint-order="fill stroke markers" d="m89.84049,37.21453l-49.23426,0l0,-21.28014l49.23426,0l0,21.28014zm-47.53841,-1.64114l45.89727,0l0,-18.16197l-45.89727,0l0,18.16197zm44.74847,-1.09409l-43.76379,0l0,-15.75496l43.76379,0l0,15.75496zm-42.01323,-1.64114l40.37209,0l0,-12.47268l-40.31739,0l-0.05471,12.47268zm1.58644,8.31512a4.43108,4.43108 0 1 0 4.43108,4.43108a4.43108,4.43108 0 0 0 -4.43108,-4.43108zm0,7.49455a3.06346,3.06346 0 1 1 3.06346,-3.06346a3.06346,3.06346 0 0 1 -3.06346,3.06346z" stroke-width="5" stroke-miterlimit="10" stroke-dasharray=""></path><path data-v-9833e8b2="" transform="scale(0.12376237623762376)" fill="none" stroke="currentColor" paint-order="fill stroke markers" d="m46.62375,50.89072a5.47047,5.47047 0 1 1 5.47047,-5.47047a5.47047,5.47047 0 0 1 -5.47047,5.47047zm0,-7.49455a2.24289,2.24289 0 1 0 2.24289,2.24289a2.24289,2.24289 0 0 0 -2.24289,-2.24289zm18.59961,-2.24289a4.43108,4.43108 0 1 0 4.43108,4.43108a4.43108,4.43108 0 0 0 -4.43108,-4.43108zm0,7.49455a3.06346,3.06346 0 1 1 3.06346,-3.06346a3.06346,3.06346 0 0 1 -3.06346,3.06346z" stroke-width="5" stroke-miterlimit="10" stroke-dasharray=""></path><path data-v-9833e8b2="" transform="scale(0.12376237623762376)" fill="none" stroke="currentColor" paint-order="fill stroke markers" d="m65.22336,50.89072a5.47047,5.47047 0 1 1 5.47047,-5.47047a5.47047,5.47047 0 0 1 -5.47047,5.47047zm0,-7.49455a2.24289,2.24289 0 1 0 2.24289,2.24289a2.24289,2.24289 0 0 0 -2.24289,-2.24289zm18.65431,-2.24289a4.43108,4.43108 0 1 0 4.43108,4.43108a4.43108,4.43108 0 0 0 -4.43108,-4.43108zm0,7.49455a3.06346,3.06346 0 1 1 3.06347,-3.06346a3.06346,3.06346 0 0 1 -3.06347,3.06346z" stroke-width="5" stroke-miterlimit="10" stroke-dasharray=""></path><path data-v-9833e8b2="" transform="scale(0.12376237623762376)" fill="none" stroke="currentColor" paint-order="fill stroke markers" d="m83.87767,50.89072a5.47047,5.47047 0 1 1 5.47047,-5.47047a5.47047,5.47047 0 0 1 -5.47047,5.47047zm0,-7.49455a2.24289,2.24289 0 1 0 2.24289,2.24289a2.24289,2.24289 0 0 0 -2.24289,-2.24289z" stroke-width="5" stroke-miterlimit="10" stroke-dasharray=""></path><path data-v-9833e8b2="" transform="scale(0.12376237623762376)" fill="none" stroke="currentColor" paint-order="fill stroke markers" d="m119.10752,128.84496l-1.64114,0a8.75276,8.75276 0 0 0 -8.69805,8.91687l0,1.47703l-19.74841,0l0,-31.56463l-5.47047,-38.29331l-4.26697,0l0,-11.32388l18.98254,0a8.97158,8.97158 0 0 0 8.97158,-8.97158l0,-37.47274a8.97158,8.97158 0 0 0 -9.2451,-8.97158l-65.64568,0a8.97158,8.97158 0 0 0 -8.75276,8.97158l0,37.47274a8.97158,8.97158 0 0 0 8.97158,8.97158l18.92784,0l0,11.32388l-4.26697,0l-5.47047,38.29331l0,31.1817l-20.02193,0l0,-1.09409a8.75276,8.75276 0 0 0 -8.69805,-8.91687l-1.64114,0a8.75276,8.75276 0 0 0 -8.75276,8.91687l0,53.06359a8.75276,8.75276 0 0 0 8.75276,8.53394l1.64114,0a8.75276,8.75276 0 0 0 8.69805,-8.69805l0,-1.47703l87.03523,0l0,1.47703a8.75276,8.75276 0 0 0 8.69805,8.69805l1.64114,0a8.75276,8.75276 0 0 0 8.69805,-8.69805l0,-52.89948a8.75276,8.75276 0 0 0 -8.69805,-8.91687zm-86.59759,-73.57786a6.18163,6.18163 0 0 1 -6.18164,-6.18163l0,-37.47274a6.18163,6.18163 0 0 1 6.18164,-6.18163l65.64568,0a6.18163,6.18163 0 0 1 6.18163,6.18163l0,37.47274a6.18163,6.18163 0 0 1 -6.18163,6.18163l-65.64568,0l0,0zm21.88189,2.78994l21.88189,0l0,11.32388l-21.88189,0l0,-11.32388zm-10.17508,50.00013l5.47047,-35.99571l31.1817,0l5.47047,35.77689l0,15.75496l-42.12264,0l0,-15.53614zm42.01323,18.27138l0,12.41797l-42.01323,0l0,-12.36327l42.01323,-0.05471zm22.53835,15.48144l0,26.5865l-87.03523,0l0,-26.5865l87.03523,0zm-89.82517,48.79662a5.96282,5.96282 0 0 1 -5.90811,5.96282l-1.64114,0a5.96282,5.96282 0 0 1 -5.96282,-5.96282l0,-52.84477a5.96282,5.96282 0 0 1 5.96282,-6.12693l1.64114,0a5.96282,5.96282 0 0 1 5.90811,6.12693l0,53.06359l0,-0.21882zm2.78994,-4.26697l0,-15.20792l87.03523,0l0,15.20792l-87.03523,0zm103.33724,4.26697a5.96282,5.96282 0 0 1 -5.96282,5.96282l-1.64114,0a5.96282,5.96282 0 0 1 -5.96282,-5.96282l0,-52.84477a5.96282,5.96282 0 0 1 5.96282,-5.96282l1.64114,0a5.96282,5.96282 0 0 1 5.96282,5.96282l0,52.84477z" stroke-width="5" stroke-miterlimit="10" stroke-dasharray=""></path><path data-v-9833e8b2="" transform="scale(0.12376237623762376)" fill="none" stroke="currentColor" paint-order="fill stroke markers" d="m119.10752,201.0005l-1.64114,0a10.3939,10.3939 0 0 1 -10.3939,-10.22979l-83.69824,0a10.3939,10.3939 0 0 1 -10.3939,10.22979l-1.58644,0a10.3939,10.3939 0 0 1 -10.3939,-10.3939l0,-52.84477a10.3939,10.3939 0 0 1 10.3939,-10.3939l1.64114,0a10.3939,10.3939 0 0 1 10.3939,10.22979l16.41142,0l0,-29.54056l5.96282,-40.20798l4.04815,0l0,-8.151l-17.3414,0a10.61272,10.61272 0 0 1 -10.61272,-10.61272l0,-37.47274a10.61272,10.61272 0 0 1 10.61272,-10.61272l65.64568,0a10.61272,10.61272 0 0 1 10.61272,10.61272l0,37.47274a10.61272,10.61272 0 0 1 -10.61272,10.61272l-17.50551,0l0,7.98689l4.04815,0l5.90811,39.77034l0,29.97819l16.41142,0a10.3939,10.3939 0 0 1 10.3939,-10.22978l1.64114,0a10.3939,10.3939 0 0 1 10.3939,10.3939l0,53.06359a10.3939,10.3939 0 0 1 -10.33919,10.33919zm-1.64114,-67.72446a4.32167,4.32167 0 0 0 -4.32167,4.32167l0,53.06359a4.32167,4.32167 0 0 0 4.32167,4.32167l1.64114,0a4.32167,4.32167 0 0 0 4.32167,-4.32167l0,-52.89948a4.32167,4.32167 0 0 0 -4.32167,-4.32167l-1.64114,-0.16411zm-106.12718,0a4.32167,4.32167 0 0 0 -4.32167,4.32167l0,53.06359a4.32167,4.32167 0 0 0 4.32167,4.32167l1.64114,0a4.32167,4.32167 0 0 0 4.43108,-4.37638l0,-52.84477a4.32167,4.32167 0 0 0 -4.32167,-4.32167l-1.75055,-0.16411zm12.03504,51.42245l83.75295,0l0,-11.92563l-83.75295,0l0,11.92563zm0,-17.99786l83.75295,0l0,-23.46833l-83.75295,0l0,23.46833zm22.53835,-29.59526l38.67625,0l0,-9.08099l-38.67625,0l0,9.08099zm0,-15.20792l38.67625,0l0,-14.00441l-5.14225,-34.13575l-28.44646,0l-5.14225,34.46398l0.05471,13.67618zm9.79215,-54.21239l18.65431,0l0,-7.98689l-18.65431,0l0,7.98689zm-23.19481,-60.61284a4.54049,4.54049 0 0 0 -4.54049,4.54049l0,37.47274a4.54049,4.54049 0 0 0 4.54049,4.54049l65.64568,0a4.54049,4.54049 0 0 0 4.54049,-4.54049l0,-37.47274a4.54049,4.54049 0 0 0 -4.54049,-4.54049l-65.64568,0z" stroke-width="5" stroke-miterlimit="10" stroke-dasharray=""></path><path data-v-9833e8b2="" transform="scale(0.12376237623762376)" fill="none" stroke="currentColor" paint-order="fill stroke markers" d="m53.51654,183.98733l0,-24.34361l1.91467,0l1.47703,-11.92563a7.00221,7.00221 0 0 0 -8.31512,0l1.1488,11.92563l1.91466,0l0,24.39831" stroke-width="5" stroke-miterlimit="10" stroke-dasharray=""></path><path data-v-9833e8b2="" transform="scale(0.12376237623762376)" fill="none" stroke="currentColor" paint-order="fill stroke markers" d="m53.18832,183.98733l0,-24.78124l1.96937,0l1.42232,-11.37859a6.50986,6.50986 0 0 0 -7.60396,0l1.25821,11.43329l1.91467,0l0,24.78124l-0.87528,0l0,-24.07008l-1.85996,0l-1.2035,-12.6915a7.38514,7.38514 0 0 1 8.75276,0l-1.25821,12.36327l-1.85996,0l0,24.07008l-0.65646,0.27352z" stroke-width="5" stroke-miterlimit="10" stroke-dasharray=""></path><path data-v-9833e8b2="" transform="scale(0.12376237623762376)" fill="none" stroke="currentColor" paint-order="fill stroke markers" d="m51.8207,186.55845a8.26042,8.26042 0 1 1 8.26042,-8.26041a8.26042,8.26042 0 0 1 -8.26042,8.26041zm0,-13.78559a5.47047,5.47047 0 1 0 5.47047,5.47047a5.47047,5.47047 0 0 0 -5.47047,-5.47047z" stroke-width="5" stroke-miterlimit="10" stroke-dasharray=""></path><path data-v-9833e8b2="" transform="scale(0.12376237623762376)" fill="none" stroke="currentColor" paint-order="fill stroke markers" d="m55.70473,185.02672l-7.76807,0l-3.88404,-6.72868l3.88404,-6.72868l7.76807,0l3.88404,6.72868l-3.88404,6.72868zm-6.56457,-2.07878l5.47047,0l2.68053,-4.6499l-2.68053,-4.6499l-5.47047,0l-2.68053,4.6499l2.68053,4.6499z" stroke-width="5" stroke-miterlimit="10" stroke-dasharray=""></path></g></svg>