<svg data-v-9833e8b2="" version="1.1" xmlns="http://www.w3.org/2000/svg" xmlns:xlink="http://www.w3.org/1999/xlink" width="17" height="25"><g data-v-9833e8b2=""><path data-v-9833e8b2="" transform="scale(0.14450867052023122)" fill="none" stroke="currentColor" paint-order="fill stroke markers" d="m99.74,140l-2.22,0c-2.05,0 -3.72,1.67 -3.72,3.72l0,2.28l-9.08,0c-1.15,-2.28 -3.52,-3.86 -6.25,-3.86l-2.21,0l0,-6.18l0,-9.39l10.7,-43.32l3.29,0l0,-15.45l-6.45,0l0,-3.82l-5.09,0l0,3.82l-2.45,0l0,-40.54l-18.79,0l0,-13.94l-2.81,0l0,-12.32l-18.06,0l0,12.32l-2.81,0l0,13.95l-18.8,0l0,40.53l-2.45,0l0,-3.82l-5.09,0l0,3.82l-6.45,0l0,15.45l3.29,0l10.7,43.32l0,9.39l0,6.18l-2.21,0c-3.86,0 -7,3.14 -7,7l0,14.18c0,3.86 3.14,7 7,7l65.68,0c2.73,0 5.09,-1.57 6.25,-3.86l9.08,0l0,2.28c0,2.05 1.67,3.72 3.72,3.72l2.22,0c2.05,0 3.72,-1.67 3.72,-3.72l0,-25.02c0.01,-2.05 -1.66,-3.72 -3.71,-3.72zm-74.47,-56.75l0,3.82l5.09,0l0,-3.82l12.72,0l0,3.82l0.54,0l0,37.26l-24.63,0l0,-41.08l6.28,0zm40.71,3.82l0,-3.82l6.27,0l0,41.08l-24.63,0l0,-37.26l0.54,0l0,-3.82l12.72,0l0,3.82l5.1,0zm-46.99,41.26l53.26,0l0,3.63l-53.26,0l0,-3.63zm57.26,-45.08l2.45,0l0,3.82l3.19,0l-5.64,22.83l0,-26.65zm-4,-51.99l0,36.53l-6.27,0l0,-3.82l-5.09,0l0,3.82l-12.72,0l0,-3.82l-0.54,0l0,-32.71l24.62,0zm-31.65,-26.26l10.06,0l0,8.32l-10.06,0l0,-8.32zm-2.82,12.32l15.68,0l0,9.68l-15.68,0l0,-9.68zm-18.79,13.94l24.63,0l0,32.72l-0.54,0l0,3.82l-12.73,0l0,-3.82l-5.09,0l0,3.82l-6.27,0l0,-36.54zm-13.99,40.54l81.25,0l0,7.45l-81.25,0l0,-7.45zm4.35,15.27l3.19,0l0,-3.82l2.45,0l0,26.65l-5.64,-22.83zm9.64,48.89l53.26,0l0,6.18l-53.26,0l0,-6.18zm62.47,27.36c0,1.65 -1.35,3 -3,3l-65.68,0c-1.65,0 -3,-1.35 -3,-3l0,-14.18c0,-1.65 1.35,-3 3,-3l2.21,0l61.26,0l2.21,0c1.65,0 3,1.35 3,3l0,14.18zm12.33,-0.86l-8.33,0l0,-12.46l8.33,0l0,12.46zm5.67,6l-1.67,0l0,-2l0,-20.46l0,-2l1.67,0l0,24.46z" stroke-width="5" stroke-miterlimit="10" stroke-dasharray=""></path></g></svg>