<svg data-v-9833e8b2="" version="1.1" xmlns="http://www.w3.org/2000/svg" xmlns:xlink="http://www.w3.org/1999/xlink" width="17" height="25"><g data-v-9833e8b2=""><path data-v-9833e8b2="" transform="scale(0.1524390243902439)" fill="none" stroke="currentColor" paint-order="fill stroke markers" d="m19,126.85l49.26,0l0,10.88l-49.26,0l0,-10.88z" stroke-width="5" stroke-miterlimit="10" stroke-dasharray=""></path><path data-v-9833e8b2="" transform="scale(0.1524390243902439)" fill="none" stroke="currentColor" paint-order="fill stroke markers" d="m68.26,83.07l0,39.78l-22.63,0l0,-39.78l22.63,0z" stroke-width="5" stroke-miterlimit="10" stroke-dasharray=""></path><path data-v-9833e8b2="" transform="scale(0.1524390243902439)" fill="none" stroke="currentColor" paint-order="fill stroke markers" d="m41.63,122.85l-22.63,0l0,-39.78l22.63,0l0,39.78z" stroke-width="5" stroke-miterlimit="10" stroke-dasharray=""></path><path data-v-9833e8b2="" transform="scale(0.1524390243902439)" fill="none" stroke="currentColor" paint-order="fill stroke markers" d="m15.24,83.07l0,36l-0.24,-0.98l-8.39,-35.01l8.39,0l0.24,0l0,-0.01z" stroke-width="5" stroke-miterlimit="10" stroke-dasharray=""></path><path data-v-9833e8b2="" transform="scale(0.1524390243902439)" fill="none" stroke="currentColor" paint-order="fill stroke markers" d="m72.26,83.07l8.6,0l-8.6,35.9l0,-35.9z" stroke-width="5" stroke-miterlimit="10" stroke-dasharray=""></path><path data-v-9833e8b2="" transform="scale(0.1524390243902439)" fill="none" stroke="currentColor" paint-order="fill stroke markers" d="m33.79,13.85l19.68,0l0,13.15l-19.68,0l0,-13.15z" stroke-width="5" stroke-miterlimit="10" stroke-dasharray=""></path><path data-v-9833e8b2="" transform="scale(0.1524390243902439)" fill="none" stroke="currentColor" paint-order="fill stroke markers" d="m50.66,9.85l-14.05,0l0,-8.85l14.06,0l0,8.85l-0.01,0z" stroke-width="5" stroke-miterlimit="10" stroke-dasharray=""></path><path data-v-9833e8b2="" transform="scale(0.1524390243902439)" fill="none" stroke="currentColor" paint-order="fill stroke markers" d="m86.26,67.98l0,11.09l-14,0l-2,0l-2,0l-49.26,0l-2,0l-2,0l-14,0l0,-11.09l14,0l2,0l2,0l49.26,0l2,0l2,0l14,0z" stroke-width="5" stroke-miterlimit="10" stroke-dasharray=""></path><path data-v-9833e8b2="" transform="scale(0.1524390243902439)" fill="none" stroke="currentColor" paint-order="fill stroke markers" d="m94.47,142.28l0,19.9c0,0.3 -0.25,0.55 -0.55,0.55l-4.57,0c-0.3,0 -0.55,-0.25 -0.55,-0.55l0,-1.72l0,-1l-1,0l-6.47,0l-0.79,0l-0.18,0.77c-0.43,1.82 -2.02,3.09 -3.88,3.09l-65.69,0c-2.21,0 -4,-1.79 -4,-4l0,-14.18c0,-2.21 1.79,-4 4,-4l4.21,0l57.26,0l4.21,0c1.86,0 3.46,1.27 3.88,3.09l0.18,0.77l0.79,0l6.47,0l1,0l0,-1l0,-1.72c0,-0.3 0.25,-0.55 0.55,-0.55l4.57,0c0.32,0 0.56,0.25 0.56,0.55z" stroke-width="5" stroke-miterlimit="10" stroke-dasharray=""></path><path data-v-9833e8b2="" transform="scale(0.1524390243902439)" fill="none" stroke="currentColor" paint-order="fill stroke markers" d="m41.63,63.73l0,0.25l-22.63,0l0,-32.72l22.63,0l0,32.47z" stroke-width="5" stroke-miterlimit="10" stroke-dasharray=""></path><path data-v-9833e8b2="" transform="scale(0.1524390243902439)" fill="none" stroke="currentColor" paint-order="fill stroke markers" d="m68.26,63.98l-22.63,0l0,-0.25l0,-32.47l22.63,0l0,32.72z" stroke-width="5" stroke-miterlimit="10" stroke-dasharray=""></path></g></svg>