<svg data-v-9833e8b2="" version="1.1" xmlns="http://www.w3.org/2000/svg" xmlns:xlink="http://www.w3.org/1999/xlink" width="25" height="20"><g data-v-9833e8b2=""><path data-v-9833e8b2="" transform="scale(0.12437810945273632)" fill="none" stroke="currentColor" paint-order="fill stroke markers" d="m14.28493,7.64247a6.64246,6.64246 0 0 0 -6.64246,6.64246l0,139.49175a6.64246,6.64246 0 0 0 6.64246,6.64246l172.70407,0a6.64246,6.64246 0 0 0 6.64246,-6.64246l0,-139.49175a6.64246,6.64246 0 0 0 -6.64246,-6.64246l-172.70407,0zm0,-6.64247l172.70407,0c7.33682,0 13.28493,5.94811 13.28493,13.28493l0,139.49175c0,7.33682 -5.94811,13.28493 -13.28493,13.28493l-172.70407,0c-7.33682,0 -13.28493,-5.94811 -13.28493,-13.28493l0,-139.49175c0,-7.33682 5.94811,-13.28493 13.28493,-13.28493zm29.89109,39.85479l112.92189,0a6.64246,6.64246 0 0 1 6.64247,6.64246l0,73.06711a6.64246,6.64246 0 0 1 -6.64247,6.64246l-112.92189,0a6.64246,6.64246 0 0 1 -6.64247,-6.64246l0,-73.06711a6.64246,6.64246 0 0 1 6.64247,-6.64247l0,0zm0,23.24862l0,6.64246l19.92739,0l0,-6.64246l-19.92739,0zm6.64246,26.56986l-6.64246,0l0,6.64247l6.64246,0l0,6.64246l6.64247,0l0,-6.64246l6.64246,0l0,-6.64247l-6.64246,0l0,-6.64246l-6.64247,0l0,6.64246zm19.92739,-43.17602l0,73.06711l86.35204,0l0,-73.06711l-86.35204,0zm39.85479,19.92739l-6.64247,0l0,-3.32123l6.64247,0a3.32123,3.32123 0 1 1 6.64246,0l0,27.13668c3.87034,1.36835 6.64246,5.0589 6.64246,9.39687c0,5.50262 -4.46108,9.9637 -9.9637,9.9637s-9.9637,-4.46108 -9.9637,-9.9637c0,-4.33797 2.77212,-8.02853 6.64247,-9.39687l0,-3.88806l-6.64247,0l0,-3.32123l6.64247,0l0,-3.32123l-6.64247,0l0,-3.32123l6.64247,0l0,-3.32123l-6.64247,0l0,-3.32123l6.64247,0l0,-3.32123z" stroke-width="5" stroke-miterlimit="10" stroke-dasharray=""></path></g></svg>