<svg data-v-9833e8b2="" version="1.1" xmlns="http://www.w3.org/2000/svg" xmlns:xlink="http://www.w3.org/1999/xlink" width="25" height="22.5"><g data-v-9833e8b2=""><path data-v-9833e8b2="" transform="scale(0.12376237623762376)" fill="none" stroke="currentColor" paint-order="fill stroke markers" d="m168.00042,121.58343l-129.80033,0l0,-39.7001l129.80033,0l0,39.7001zm-119.9003,-10.00003l109.90028,0l0,-19.70005l-109.90028,0l0,19.70005zm113.00028,65.90017l-23.00006,0c-3.10001,0 -5.50001,2.00001 -5.50001,4.50001s2.50001,4.50001 5.50001,4.50001l23.00006,0c3.10001,0 5.50001,-2.00001 5.50001,-4.50001s-2.50001,-4.50001 -5.50001,-4.50001z" stroke-width="5" stroke-miterlimit="10" stroke-dasharray=""></path><path data-v-9833e8b2="" transform="scale(0.12376237623762376)" fill="none" stroke="currentColor" paint-order="fill stroke markers" d="m177.20044,57.08326c0.2,-0.6 0.2,-1.2 0.2,-1.8l0,-18.50005c0,-4.00001 -3.30001,-7.30002 -7.30002,-7.30002s-7.30002,3.30001 -7.30002,7.30002l0,18.50005c0,0.6 0.1,1.2 0.2,1.7l-17.20004,0c5.60001,-3.80001 7.00002,-8.20002 7.10002,-11.30003c0.3,-6.20002 -4.20001,-11.70003 -8.50002,-12.80003c-5.60001,-2.10001 -75.50019,-30.00008 -76.30019,-30.30008l-0.3,-0.1c-9.40002,-2.80001 -18.50005,-1.6 -26.50007,3.30001c-8.40002,5.30001 -14.50004,14.50004 -16.30004,24.60006c-2.10001,12.10003 2.80001,21.50005 6.40002,26.50007l-0.1,0c-14.40004,0 -30.30008,22.00006 -30.30008,51.50013l0,11.10003c0,29.40007 16.00004,51.50013 30.30008,51.50013l144.20036,0c14.60004,0 25.60006,-22.20006 25.60006,-51.50013l0,-11.10003c0,-28.10007 -10.20003,-49.60012 -23.90006,-51.30013zm-145.30037,-25.50006c1.4,-8.20002 6.30002,-15.60004 13.10003,-19.90005c4.40001,-2.80001 9.40002,-4.00001 14.60004,-3.70001c-1,1.4 -1.5,3.10001 -1.5,4.90001c0,4.80001 4.00001,8.80002 8.80002,8.80002c4.80001,0 8.80002,-4.00001 8.80002,-8.80002c15.30004,6.10002 43.90011,17.50004 58.10015,23.10006c-1.9,2.00001 -3.00001,4.80001 -3.00001,7.80002c0,4.20001 2.30001,7.90002 5.70001,9.90002c-3.60001,1.3 -8.00002,2.30001 -13.30003,2.90001c-0.3,0 -0.6,0.1 -0.9,0.2l-42.70011,0c0.1,-0.6 0.2,-1.2 0.2,-1.9l0,-17.90005c0,-6.40002 -5.20001,-11.50003 -11.50003,-11.50003l-3.90001,0c-6.40002,0 -11.50003,5.20001 -11.50003,11.50003l0,18.10005c0,0.6 0.1,1.3 0.2,1.9l-12.80003,0c-0.2,-0.4 -0.4,-0.7 -0.7,-1c-0.1,-0.2 -10.20003,-10.10003 -7.70002,-24.40006zm39.8001,5.40001l0,18.10005c0,0.7 -0.2,1.3 -0.6,1.9l-9.90002,0c-0.3,-0.5 -0.6,-1.2 -0.6,-1.9l0,-18.10005c0,-1.9 1.6,-3.50001 3.50001,-3.50001l3.90001,0c2.20001,-0.1 3.70001,1.5 3.70001,3.50001zm119.8003,82.50021c0,23.90006 -8.40002,41.80011 -16.00004,41.80011l-144.30036,0c-7.30002,0 -20.70005,-17.20004 -20.70005,-41.80011l0,-11.20003c0,-24.50006 13.40003,-41.80011 20.70005,-41.80011l31.50008,0c0.5,0.1 1,0.1 1.5,0.1l3.90001,0c0.5,0 1,0 1.5,-0.1l105.70027,0c7.50002,0 16.00004,18.00005 16.00004,41.90011l0,11.10003l0.2,0zm-119.9003,58.00015l-22.90006,0c-3.10001,0 -5.50001,2.00001 -5.50001,4.50001s2.50001,4.50001 5.50001,4.50001l22.90006,0c3.10001,0 5.50001,-2.00001 5.50001,-4.50001s-2.50001,-4.50001 -5.50001,-4.50001z" stroke-width="5" stroke-miterlimit="10" stroke-dasharray=""></path><path data-v-9833e8b2="" transform="scale(0.12376237623762376)" fill="none" stroke="currentColor" paint-order="fill stroke markers" d="m32.64436,36.41269a8.80002,8.80002 0 1 0 17.12898,-4.0447a8.80002,8.80002 0 1 0 -17.12898,4.0447z" stroke-width="5" stroke-miterlimit="10" stroke-dasharray=""></path><path data-v-9833e8b2="" transform="scale(0.12376237623762376)" fill="none" stroke="currentColor" paint-order="fill stroke markers" d="m85.19704,40.60038a8.80002,8.80002 0 1 0 12.44489,-12.44533a8.80002,8.80002 0 1 0 -12.44489,12.44533z" stroke-width="5" stroke-miterlimit="10" stroke-dasharray=""></path><path data-v-9833e8b2="" transform="scale(0.12376237623762376)" fill="none" stroke="currentColor" paint-order="fill stroke markers" d="m143.60036,135.28346c3.40001,-2.90001 6.10002,-5.30001 13.50003,-1.1c3.50001,2.00001 6.40002,2.70001 8.70002,2.70001c4.10001,0 6.80002,-2.30001 9.20002,-4.30001c0.8,-0.7 0.9,-2.00001 0.2,-2.80001c-0.7,-0.8 -1.9,-1 -2.80001,-0.2c-3.40001,2.90001 -6.10002,5.30001 -13.50003,1.1c-9.70002,-5.50001 -14.20004,-1.6 -17.90005,1.6c-0.8,0.7 -0.9,2.00001 -0.2,2.80001c0.8,0.8 2.00001,0.9 2.80001,0.2zm28.90007,4.20001c-3.40001,2.90001 -6.10002,5.30001 -13.50003,1.1c-9.70002,-5.50001 -14.20004,-1.6 -17.90005,1.6c-0.8,0.7 -0.9,2.00001 -0.2,2.80001c0.7,0.8 1.9,1 2.80001,0.2c3.40001,-2.90001 6.10002,-5.30001 13.50003,-1.1c3.50001,2.00001 6.40002,2.70001 8.70002,2.70001c4.10001,0 6.80002,-2.30001 9.20002,-4.30001c0.8,-0.7 0.9,-2.00001 0.2,-2.80001c-0.8,-0.8 -2.00001,-0.9 -2.80001,-0.2zm0,10.00003c-3.40001,2.90001 -6.10002,5.30001 -13.50003,1.1c-9.70002,-5.50001 -14.20004,-1.6 -17.90005,1.6c-0.8,0.7 -0.9,2.00001 -0.2,2.80001c0.7,0.8 1.9,1 2.80001,0.2c3.40001,-2.90001 6.10002,-5.30001 13.50003,-1.1c3.50001,2.00001 6.40002,2.70001 8.70002,2.70001c4.10001,0 6.80002,-2.30001 9.20002,-4.30001c0.8,-0.7 0.9,-2.00001 0.2,-2.80001c-0.8,-0.8 -2.00001,-0.9 -2.80001,-0.2z" stroke-width="5" stroke-miterlimit="10" stroke-dasharray=""></path></g></svg>