<svg data-v-9833e8b2="" version="1.1" xmlns="http://www.w3.org/2000/svg" xmlns:xlink="http://www.w3.org/1999/xlink" width="14.5" height="25"><g data-v-9833e8b2=""><path data-v-9833e8b2="" transform="scale(0.14705882352941177)" fill="none" stroke="currentColor" paint-order="fill stroke markers" d="m75,36l0,-7l-12,0l0,-10l0,-2l0,-2l-0.14,0c-0.99,-7.88 -7.72,-14 -15.86,-14l-2,0c-8.14,0 -14.87,6.12 -15.86,14l-0.14,0l0,2l0,2l0,10l-12,0l0,7l-16,0l0,133l10,0l0,-13l70,0l0,13l10,0l0,-133l-16,0zm-30,-31l2,0c5.94,0 10.88,4.33 11.83,10l-25.66,0c0.95,-5.67 5.89,-10 11.83,-10zm-12,14l26,0l0,10l-26,0l0,-10zm-12,14l8,0l34,0l8,0l0,3l-15,0l-20,0l-15,0l0,-3zm60,108l-70,0l0,-95l25,0l0,-6l20,0l0,6l25,0l0,95zm-74,24l-2,0l0,-125l12,0l15,0l0,2l-25,0l0,99l0,15l0,9zm4,-13l0,-7l70,0l0,7l-70,0zm76,13l-2,0l0,-9l0,-15l0,-99l-25,0l0,-2l15,0l12,0l0,125z" stroke-width="5" stroke-miterlimit="10" stroke-dasharray=""></path><path data-v-9833e8b2="" transform="scale(0.14705882352941177)" fill="none" stroke="currentColor" paint-order="fill stroke markers" d="m26,64l-8,0l0,-8l8,0l0,8zm24,-8l-8,0l0,8l8,0l0,-8zm24,0l-8,0l0,8l8,0l0,-8zm-36,16l-8,0l0,8l8,0l0,-8zm24,0l-8,0l0,8l8,0l0,-8zm-36,18l-8,0l0,8l8,0l0,-8zm24,0l-8,0l0,8l8,0l0,-8zm24,0l-8,0l0,8l8,0l0,-8zm-36,16l-8,0l0,8l8,0l0,-8zm24,0l-8,0l0,8l8,0l0,-8zm-36,18l-8,0l0,8l8,0l0,-8zm24,0l-8,0l0,8l8,0l0,-8zm24,0l-8,0l0,8l8,0l0,-8z" stroke-width="5" stroke-miterlimit="10" stroke-dasharray=""></path></g></svg>