<svg data-v-9833e8b2="" version="1.1" xmlns="http://www.w3.org/2000/svg" xmlns:xlink="http://www.w3.org/1999/xlink" width="24.5" height="25"><g data-v-9833e8b2=""><path data-v-9833e8b2="" transform="scale(0.12376237623762376)" fill="none" stroke="currentColor" paint-order="fill stroke markers" d="m35.84049,1l114.80354,0l0,9.61973l-114.80354,0l0,-9.61973zm-0.27523,190.38077l114.80354,0l0,9.61973l-114.80354,0l0,-9.61973z" stroke-width="5" stroke-miterlimit="10" stroke-dasharray=""></path><path data-v-9833e8b2="" transform="scale(0.12376237623762376)" fill="none" stroke="currentColor" paint-order="fill stroke markers" d="m183.53998,102.8922c0,-30.53521 -24.69714,-55.29948 -55.2055,-55.41137l0,-44.2096l-71.64564,0l0,44.2096l-0.273,0c-30.60458,0 -55.41584,24.80902 -55.41584,55.41584s24.82021,55.41137 55.41584,55.41137l0.26405,0l0,39.65595l71.65459,0l0,-39.65595c30.50836,-0.1186 55.2055,-24.88287 55.2055,-55.41584z" stroke-width="5" stroke-miterlimit="10" stroke-dasharray=""></path><path data-v-9833e8b2="" transform="scale(0.12376237623762376)" fill="none" stroke="currentColor" paint-order="fill stroke markers" d="m81.95434,109.30312q-0.6713,-0.29537 -1.30456,-0.63774a32.40367,32.40367 0 0 0 -6.64587,-5.80675c-3.44601,-4.56261 -5.20034,-10.21719 -6.09093,-14.74399c0.37145,-5.53823 -0.75186,-11.6851 -3.53551,-17.61716c-6.80251,-14.49337 -20.93562,-22.19766 -31.56902,-17.20766s-13.73481,20.78569 -6.93677,35.27907c3.29832,7.02628 8.31965,12.4571 13.82879,15.61892c2.4771,3.95396 3.992,8.50314 4.92287,12.44591c-0.70039,5.91192 0.36026,12.64058 3.39678,19.11192c6.80251,14.49337 20.93562,22.19766 31.56902,17.20766s13.7348,-20.78569 6.93677,-35.27907a38.57739,38.57739 0 0 0 -5.1086,-8.11826l0.53704,-0.25286zm69.27596,-18.8255q-0.69815,0.22377 -1.3963,0.40054a32.40367,32.40367 0 0 0 -8.81641,0.13426c-5.61207,-1.08527 -10.70053,-4.11507 -14.39268,-6.8853c-3.42811,-4.36345 -8.37783,-8.18315 -14.41506,-10.72961c-14.75294,-6.22296 -30.41214,-2.495 -34.97475,8.3286s3.69439,24.63896 18.44733,30.85968c7.16054,3.01637 14.51575,3.69439 20.72752,2.3585c4.47534,1.28218 8.65082,3.64292 11.98047,5.96115c3.43482,4.86245 8.7269,9.1543 15.31012,11.93348c14.75294,6.22519 30.41662,2.495 34.97475,-8.31965s-3.69439,-24.63896 -18.44733,-30.85968a38.57739,38.57739 0 0 0 -9.22814,-2.61807l0.23048,-0.56389z" stroke-width="5" stroke-miterlimit="10" stroke-dasharray=""></path></g></svg>