<svg data-v-9833e8b2="" version="1.1" xmlns="http://www.w3.org/2000/svg" xmlns:xlink="http://www.w3.org/1999/xlink" width="19.5" height="25"><g data-v-9833e8b2=""><path data-v-9833e8b2="" transform="scale(0.06234413965087282)" fill="none" stroke="currentColor" paint-order="fill stroke markers" d="m107,126.09l-7,5.18l-7.01,-5.18l0,-30.02c2.26,0.46 4.61,0.71 7.01,0.71s4.74,-0.24 7.01,-0.71l-0.01,30.02l0,0z" stroke-width="5" stroke-miterlimit="10" stroke-dasharray=""></path><path data-v-9833e8b2="" transform="scale(0.06234413965087282)" fill="none" stroke="currentColor" paint-order="fill stroke markers" d="m90.61,129.3l6.1,4.51l-41.71,30.83l0,-61.65l35.61,26.31z" stroke-width="5" stroke-miterlimit="10" stroke-dasharray=""></path><path data-v-9833e8b2="" transform="scale(0.06234413965087282)" fill="none" stroke="currentColor" paint-order="fill stroke markers" d="m145,164.64l-41.71,-30.83l6.09,-4.5l35.62,-26.33l0,61.66z" stroke-width="5" stroke-miterlimit="10" stroke-dasharray=""></path><path data-v-9833e8b2="" transform="scale(0.06234413965087282)" fill="none" stroke="currentColor" paint-order="fill stroke markers" d="m100,31.43c-16.91,0 -30.67,13.76 -30.67,30.67c0,14.5 10.12,26.68 23.67,29.85c2.25,0.53 4.6,0.82 7.01,0.82s4.75,-0.29 7.01,-0.82c13.55,-3.18 23.67,-15.35 23.67,-29.85c-0.02,-16.91 -13.78,-30.67 -30.69,-30.67zm16.01,46.51l-3.56,0l0,-24.65l-0.13,0l-10.72,24.65l-3.2,0l-10.72,-24.65l-0.13,0l0,24.65l-3.56,0l0,-30.98l4.43,0l11.54,26.43l0.13,0l11.5,-26.43l4.43,0l0,30.98l-0.01,0z" stroke-width="5" stroke-miterlimit="10" stroke-dasharray=""></path></g></svg>