<svg data-v-9833e8b2="" version="1.1" xmlns="http://www.w3.org/2000/svg" xmlns:xlink="http://www.w3.org/1999/xlink" width="25" height="25"><g data-v-9833e8b2=""><path data-v-9833e8b2="" transform="scale(0.1736111111111111)" fill="none" stroke="currentColor" paint-order="fill stroke markers" d="m41.75,114.75l-12,0l0,-97.75l0,-16l12,0l65,0l12,0l0,16l0,13l-12,0l0,-17l-65,0l0,101.75z" stroke-width="5" stroke-miterlimit="10" stroke-dasharray=""></path><path data-v-9833e8b2="" transform="scale(0.1736111111111111)" fill="none" stroke="currentColor" paint-order="fill stroke markers" d="m96.01,61l33.47,0c-1.45,4.41 -9.2,7 -16.74,7s-15.27,-2.59 -16.73,-7z" stroke-width="5" stroke-miterlimit="10" stroke-dasharray=""></path><path data-v-9833e8b2="" transform="scale(0.1736111111111111)" fill="none" stroke="currentColor" paint-order="fill stroke markers" d="m131.71,43.12l0,4.88l-10.26,0l-17.4,0l-10.26,0l0,-4.88l0.86,-0.79l1.3,-1.19l0,-1.76l0,-1.68l1.71,-1.38l2.9,-2.33l24.76,0l2.81,2.25l1.44,1.31l0,1.83l0,1.76l1.3,1.19l0.84,0.79z" stroke-width="5" stroke-miterlimit="10" stroke-dasharray=""></path><path data-v-9833e8b2="" transform="scale(0.1736111111111111)" fill="none" stroke="currentColor" paint-order="fill stroke markers" d="m134.25,52l0,1.91l0,3.09l-0.88,0l-2.14,0l-2.19,0l-32.57,0l-2.19,0l-2.14,0l-0.89,0l0,-3.09l0,-1.91l4.4,0l3.55,0l5.54,0l16.02,0l5.54,0l3.55,0l4.4,0z" stroke-width="5" stroke-miterlimit="10" stroke-dasharray=""></path><path data-v-9833e8b2="" transform="scale(0.1736111111111111)" fill="none" stroke="currentColor" paint-order="fill stroke markers" d="m114.12,127.65l-7.15,-7.15l14.3,0l-7.15,7.15zm-56.22,-7.15l-14.3,0l7.15,7.15l7.15,-7.15zm42.25,0l-14.3,0l7.15,7.15l7.15,-7.15zm42.24,0l-14.3,0l7.15,7.15l7.15,-7.15zm-63.36,0l-14.3,0l7.15,7.15l7.15,-7.15zm-46.57,9.98l7.73,7.73l7.73,-7.73l-7.73,-7.73l-7.73,7.73zm21.12,0l7.73,7.73l7.73,-7.73l-7.73,-7.73l-7.73,7.73zm-42.24,0l7.73,7.73l7.73,-7.73l-7.73,-7.73l-7.73,7.73zm105.61,0l7.73,7.73l7.73,-7.73l-7.73,-7.73l-7.73,7.73zm-42.25,0l7.73,7.73l7.73,-7.73l-7.73,-7.73l-7.73,7.73zm68.3,4.93l0,-9.86l-4.93,4.93l4.93,4.93zm-47.17,-4.93l7.73,7.73l7.73,-7.73l-7.73,-7.73l-7.73,7.73zm-10.03,10.02l14.39,0l-7.19,-7.19l-7.2,7.19zm-70.14,-20l-14.3,0l7.15,7.15l7.15,-7.15zm49.02,20l14.39,0l-7.19,-7.19l-7.2,7.19zm-27.9,-20l-14.3,0l7.15,7.15l7.15,-7.15zm6.78,20l14.39,0l-7.19,-7.19l-7.2,7.19zm63.37,0l14.39,0l-7.19,-7.19l-7.2,7.19zm-105.93,-14.7l0,9.36l4.68,-4.68l-4.68,-4.68zm0.31,14.7l14.39,0l-7.19,-7.19l-7.2,7.19zm126.74,0l14.39,0l-7.19,-7.19l-7.2,7.19zm-105.61,0l14.39,0l-7.19,-7.19l-7.2,7.19z" stroke-width="5" stroke-miterlimit="10" stroke-dasharray=""></path></g></svg>