<svg data-v-9833e8b2="" version="1.1" xmlns="http://www.w3.org/2000/svg" xmlns:xlink="http://www.w3.org/1999/xlink" width="25" height="10"><g data-v-9833e8b2=""><path data-v-9833e8b2="" transform="scale(0.13227513227513227)" fill="none" stroke="currentColor" paint-order="fill stroke markers" d="m177,27l-23,0l0,-20l23,0l0,20zm-19,-4l15,0l0,-12l-15,0l0,12z" stroke-width="5" stroke-miterlimit="10" stroke-dasharray=""></path><path data-v-9833e8b2="" transform="scale(0.13227513227513227)" fill="none" stroke="currentColor" paint-order="fill stroke markers" d="m183,29l0,-24c0,-2.21 -1.79,-4 -4,-4l-38,0c-2.21,0 -4,1.79 -4,4l0,7l-121.92,0l-6,7l-2.43,0l-4,10l-1.65,0l0,14l4,0l0,20l6,0l0,6l59,0l0,-6l13,0l0,6l17,0l0,-6l61,0l0,6l17,0l0,-6l6,0l0,-20l4,0l0,-14l-5,0zm-42,-6l0,-4l0,-7l0,-7l38,0l0,24l-38,0l0,-6zm0,10l20,0l0,6l-59.97,0l0,-6l35.97,0l4,0zm-124.08,-17l2.19,0l0,2l4,0l0,-2l3.89,0l0,2l4,0l0,-2l3.89,0l0,2l4,0l0,-2l3.89,0l0,2l4,0l0,-2l3.89,0l0,2l4,0l0,-2l3.89,0l0,2l4,0l0,-2l3.89,0l0,2l4,0l0,-2l3.89,0l0,2l4,0l0,-2l3.89,0l0,2l4,0l0,-2l3.89,0l0,2l4,0l0,-2l3.89,0l0,2l4,0l0,-2l3.89,0l0,2l4,0l0,-2l3.89,0l0,2l4,0l0,-2l3.89,0l0,2l4,0l0,-2l3.89,0l0,2l4,0l0,-2l3.43,0l0,3l-122.65,0l2.57,-3zm-7.57,7l127.65,0l0,6l-130.05,0l2.4,-6zm-4.35,10l92.03,0l0,6l-92.03,0l0,-6zm61,32l-51,0l0,-2l51,0l0,2zm30,0l-9,0l0,-2l9,0l0,2zm78,0l-9,0l0,-2l9,0l0,2zm6,-6l-171,0l0,-16l88.03,0l4,0l59.97,0l4,0l15,0l0,16zm4,-20l-19,0l0,-6l18,0l1,0l0,6z" stroke-width="5" stroke-miterlimit="10" stroke-dasharray=""></path></g></svg>