<svg data-v-9833e8b2="" version="1.1" xmlns="http://www.w3.org/2000/svg" xmlns:xlink="http://www.w3.org/1999/xlink" width="12" height="25"><g data-v-9833e8b2=""><path data-v-9833e8b2="" transform="scale(0.1282051282051282)" fill="none" stroke="currentColor" paint-order="fill stroke markers" d="m47.44,83.21c20.36,-2.54 36.12,-19.88 36.12,-40.93c0,-22.8 -18.48,-41.28 -41.28,-41.28s-41.28,18.49 -41.28,41.29c0,21.05 15.76,38.38 36.12,40.93l0,7.77l-30.96,0l0,103.21l72.24,0l0,-103.21l-30.96,0c0,0 0,-7.78 0,-7.78z" stroke-width="5" stroke-miterlimit="10" stroke-dasharray=""></path><path data-v-9833e8b2="" transform="scale(0.1282051282051282)" fill="none" stroke="currentColor" paint-order="fill stroke markers" d="m30.76,45.75l0,17.54l-7.55,0l0,-42.01l9.31,0l7.15,19.64c0.91,2.61 1.7,5.38 2.55,8.11l0.28,0c0.91,-2.73 1.64,-5.5 2.55,-8.11l6.99,-19.64l9.31,0l0,42.01l-7.67,0l0,-17.54c0,-3.97 0.63,-9.82 1.03,-13.79l-0.22,0l-3.41,9.87l-6.47,17.66l-4.83,0l-6.53,-17.66l-3.35,-9.87l-0.22,0c0.39,3.97 1.08,9.82 1.08,13.79z" stroke-width="5" stroke-miterlimit="10" stroke-dasharray=""></path></g></svg>