<svg data-v-9833e8b2="" version="1.1" xmlns="http://www.w3.org/2000/svg" xmlns:xlink="http://www.w3.org/1999/xlink" width="25" height="17.5"><g data-v-9833e8b2=""><path data-v-9833e8b2="" transform="scale(0.1404494382022472)" fill="none" stroke="currentColor" paint-order="fill stroke markers" d="m172.60043,8.39002c0,-4.09001 -3.47201,-7.39002 -7.76802,-7.39002l-85.64622,0c-4.31401,0 -7.78602,3.30001 -7.78602,7.39002l0,77.5842l101.20025,0l0,-77.5842zm-66.00017,66.94617c0,1.168 -0.996,2.13001 -2.20001,2.13001l-22.00006,0c-1.204,0 -2.20001,-0.962 -2.20001,-2.13001l0,-4.24601c0,-1.168 0.996,-2.13201 2.20001,-2.13201l22.00006,0c1.204,0 2.20001,0.964 2.20001,2.13201l0,4.24601zm0,-12.73603c0,1.168 -0.996,2.13001 -2.20001,2.13001l-22.00006,0c-1.204,0 -2.20001,-0.962 -2.20001,-2.13001l0,-4.24601c0,-1.168 0.996,-2.13201 2.20001,-2.13201l22.00006,0c1.204,0 2.20001,0.964 2.20001,2.13201l0,4.24601zm0,-12.75403c0,1.168 -0.996,2.13201 -2.20001,2.13201l-22.00006,0c-1.204,0 -2.20001,-0.964 -2.20001,-2.13201l0,-4.24601c0,-1.168 0.996,-2.13001 2.20001,-2.13001l22.00006,0c1.204,0 2.20001,0.962 2.20001,2.13001l0,4.24601zm30.80008,25.49006c0,1.168 -0.996,2.13001 -2.20001,2.13001l-22.00006,0c-1.204,0 -2.20001,-0.962 -2.20001,-2.13001l0,-4.24601c0,-1.168 0.996,-2.13201 2.20001,-2.13201l22.00006,0c1.204,0 2.20001,0.964 2.20001,2.13201l0,4.24601zm0,-12.73603c0,1.168 -0.996,2.13001 -2.20001,2.13001l-22.00006,0c-1.204,0 -2.20001,-0.962 -2.20001,-2.13001l0,-4.24601c0,-1.168 0.996,-2.13201 2.20001,-2.13201l22.00006,0c1.204,0 2.20001,0.964 2.20001,2.13201l0,4.24601zm0,-12.75403c0,1.168 -0.996,2.13201 -2.20001,2.13201l-22.00006,0c-1.204,0 -2.20001,-0.964 -2.20001,-2.13201l0,-4.24601c0,-1.168 0.996,-2.13001 2.20001,-2.13001l22.00006,0c1.204,0 2.20001,0.962 2.20001,2.13001l0,4.24601zm0,-12.73603c0,1.168 -0.996,2.13201 -2.20001,2.13201l-22.00006,0c-1.204,0 -2.20001,-0.964 -2.20001,-2.13201l0,-4.24601c0,-1.168 0.996,-2.13001 2.20001,-2.13001l22.00006,0c1.204,0 2.20001,0.962 2.20001,2.13001l0,4.24601zm0,-12.75403c0,1.17 -0.996,2.13201 -2.20001,2.13201l-22.00006,0c-1.204,0 -2.20001,-0.962 -2.20001,-2.13201l0,-4.24401c0,-1.17 0.996,-2.13201 2.20001,-2.13201l22.00006,0c1.204,0 2.20001,0.962 2.20001,2.13201l0,4.24401zm30.80008,50.98013c0,1.168 -0.996,2.13001 -2.20001,2.13001l-22.00006,0c-1.204,0 -2.20001,-0.962 -2.20001,-2.13001l0,-4.24601c0,-1.168 0.996,-2.13201 2.20001,-2.13201l22.00006,0c1.204,0 2.20001,0.964 2.20001,2.13201l0,4.24601zm0,-12.73603c0,1.168 -0.996,2.13001 -2.20001,2.13001l-22.00006,0c-1.204,0 -2.20001,-0.962 -2.20001,-2.13001l0,-4.24601c0,-1.168 0.996,-2.13201 2.20001,-2.13201l22.00006,0c1.204,0 2.20001,0.964 2.20001,2.13201l0,4.24601zm8.80002,32.02008l-26.57207,-0.034a15.68004,15.68004 0 0 0 -2.02801,-0.12c-0.67,0 -1.324,0.034 -1.976,0.12l-83.82421,-0.12l0,-59.47015c0,-1.254 -2.66401,-4.24601 -4.40001,-4.24601l-19.92005,0c-6.30802,0 -9.93403,2.37201 -12.03203,11.74003l-7.64802,22.24006l-13.20003,0c-2.04601,0 -4.40001,1.41 -4.40001,4.24601l0,38.2401l13.35403,0a14.46804,14.46804 0 0 0 -0.154,2.13401c0,8.21402 6.89202,14.86604 15.40004,14.86604s15.40004,-6.65202 15.40004,-14.86604c0,-0.722 -0.052,-1.428 -0.154,-2.13201l88.30822,0a14.46804,14.46804 0 0 0 -0.154,2.13201c0,8.21402 6.89202,14.86604 15.40004,14.86604s15.40004,-6.65202 15.40004,-14.86604c0,-0.722 -0.052,-1.428 -0.154,-2.13201l13.35403,0l0,-12.60003l0,0.002zm-123.20031,-33.31008c0,2.61201 -2.70001,3.42001 -4.72601,3.42001l-14.74804,0c-2.04401,0 -3.02401,-2.26801 -2.26801,-4.88001l5.72401,-18.34005c0.378,-1.288 1.736,-2.26801 3.06001,-2.26801l9.53802,0c1.324,0 3.42001,2.45801 3.42001,3.74601l0,18.32205z" stroke-width="5" stroke-miterlimit="10" stroke-dasharray=""></path></g></svg>