<svg data-v-9833e8b2="" version="1.1" xmlns="http://www.w3.org/2000/svg" xmlns:xlink="http://www.w3.org/1999/xlink" width="25" height="17.5"><g data-v-9833e8b2=""><path data-v-9833e8b2="" transform="scale(0.12886597938144329)" fill="none" stroke="currentColor" paint-order="fill stroke markers" d="m193.2,2.6l-48.6,18c-12.1,-12.1 -28.8,-19.6 -47.3,-19.6c-18.5,0 -35.3,7.5 -47.4,19.7l-48.9,-18.1l0,130.8l48.8,-18.1c12.1,12.2 28.9,19.7 47.4,19.7c18.5,0 35.2,-7.5 47.3,-19.6l48.6,18l0.1,-130.8l0,0zm-180.5,16.7l29.3,10.9c-3.5,5.2 -6.3,10.8 -8.3,16.8l-21,-3.8c0,0 0,-23.9 0,-23.9zm0,35.8l18.4,3.3c-0.5,3.1 -0.7,6.3 -0.7,9.6c0,4.6 0.5,9 1.3,13.3l-19,3.2c0,0 0,-29.4 0,-29.4zm0,61.5l0,-20.4l22.3,-3.7c1.8,4.7 4.2,9.1 7,13.2l-29.3,10.9zm168.8,0l-29.1,-10.8c2.8,-4.1 5.2,-8.6 7.1,-13.3l22,3.7l0,20.4zm0,-32.1l-18.6,-3.1c0.9,-4.3 1.3,-8.8 1.3,-13.3c0,-3.3 -0.2,-6.5 -0.7,-9.7l18,-3.3l0,29.4zm0,-41.3l-20.7,3.8c-2,-6 -4.8,-11.7 -8.4,-16.8l29.1,-10.8l0,23.8z" stroke-width="5" stroke-miterlimit="10" stroke-dasharray=""></path><path data-v-9833e8b2="" transform="scale(0.12886597938144329)" fill="none" stroke="currentColor" paint-order="fill stroke markers" d="m96.7,121.2l0,0c-1.1,0.1 -2.1,0 -3.1,0l0,-29.7c-4,-0.6 -7.7,-2.2 -10.8,-4.5c0.1,0.1 0.2,0.2 0.2,0.2l-5.7,6.2l0,0l-15.2,16.5c-2.9,-2.6 -5.4,-5.6 -7.7,-8.8l0,0c-2.3,-3.4 -4.3,-7 -5.9,-10.8l0,0c-0.7,-1.8 -1.3,-3.6 -1.9,-5.5c0,0 0,0 0,0c-0.3,-0.9 -0.5,-1.9 -0.7,-2.8c0,0 0,0 0,0c-0.2,-0.9 -0.4,-1.9 -0.6,-2.9c-0.6,-3.4 -0.8,-6.9 -0.7,-10.5l0,-0.1c0,-1 0.1,-2 0.2,-3.1l0.3,0l28.6,0.8c0.5,-5.2 2.7,-9.8 6,-13.5l-17.2,-14.8l0,0l-5.2,-4.5c0.6,-0.7 1.2,-1.3 1.8,-2c0.4,-0.4 0.9,-0.9 1.3,-1.3c0.2,-0.2 0.3,-0.3 0.5,-0.5c1.2,-1.2 2.5,-2.3 3.9,-3.3l0,0c9.2,-7.2 20.8,-11.5 33.4,-11.5l0.1,0c1,0 2,0 3.1,0.1l0,30.7c4.1,0.8 7.8,2.7 10.8,5.4l4.7,-5.1l0,0l15.6,-16.9c0.6,0.6 1.2,1.2 1.8,1.8c0.2,0.2 0.4,0.5 0.6,0.7c0.4,0.4 0.7,0.8 1.1,1.2c0.2,0.3 0.5,0.6 0.8,0.8c0.3,0.3 0.6,0.7 0.9,1c0.3,0.3 0.5,0.6 0.8,0.9l0,0c3.4,4.3 6.1,9.1 8,14.2l0,0c1.4,3.6 2.4,7.4 2.9,11.3l0,0c0.4,3.1 0.6,6.2 0.6,9.4l0.1,0.1c-0.1,1 -0.1,2 -0.2,3.1l-0.3,0l-29.7,-0.9c-0.7,3.9 -2.4,7.4 -4.7,10.4l18.1,15.7l0,0l4.5,3.9c-0.6,0.7 -1.2,1.4 -1.9,2.1c-0.1,0.1 -0.2,0.2 -0.3,0.3c-0.5,0.5 -1.1,1.1 -1.6,1.6c-0.4,0.3 -0.7,0.7 -1.1,1c-0.3,0.3 -0.6,0.5 -0.9,0.8c-0.4,0.4 -0.9,0.7 -1.3,1.1c-9.4,7.3 -21.2,11.7 -34,11.7z" stroke-width="5" stroke-miterlimit="10" stroke-dasharray=""></path><path data-v-9833e8b2="" transform="scale(0.12886597938144329)" fill="none" stroke="currentColor" paint-order="fill stroke markers" d="m96.9,53.3c-8.4,0 -15.1,6.8 -15.1,15.1s6.8,15.1 15.1,15.1s15.1,-6.8 15.1,-15.1s-6.8,-15.1 -15.1,-15.1z" stroke-width="5" stroke-miterlimit="10" stroke-dasharray=""></path></g></svg>