<svg data-v-9833e8b2="" version="1.1" xmlns="http://www.w3.org/2000/svg" xmlns:xlink="http://www.w3.org/1999/xlink" width="25" height="22.5"><g data-v-9833e8b2=""><path data-v-9833e8b2="" transform="scale(0.13440860215053763)" fill="none" stroke="currentColor" paint-order="fill stroke markers" d="m157.91,10.23l0,9.23c0,5.1 -4.13,9.23 -9.23,9.23l-41.54,0l0,18.46l-27.69,0l0,-18.46l-41.53,0c-5.1,0 -9.23,-4.13 -9.23,-9.23l0,-9.23c0,-5.1 4.13,-9.23 9.23,-9.23l110.76,0c5.1,0 9.23,4.13 9.23,9.23z" stroke-width="5" stroke-miterlimit="10" stroke-dasharray=""></path><path data-v-9833e8b2="" transform="scale(0.13440860215053763)" fill="none" stroke="currentColor" paint-order="fill stroke markers" d="m185.6,70.23l0,92.3c0,5.1 -4.13,9.23 -9.23,9.23l-9.23,0c-5.1,0 -9.23,-4.13 -9.23,-9.23l-129.22,0c0,5.1 -4.13,9.23 -9.23,9.23l-9.23,0c-5.1,0 -9.23,-4.13 -9.23,-9.23l0,-92.3c0,-5.1 4.13,-9.23 9.23,-9.23l9.23,0c5.1,0 9.23,4.13 9.23,9.23l27.69,0l0,-13.85l73.84,0l0,13.85l27.69,0c0,-5.1 4.13,-9.23 9.23,-9.23l9.23,0c5.1,0 9.23,4.13 9.23,9.23z" stroke-width="5" stroke-miterlimit="10" stroke-dasharray=""></path></g></svg>