<svg data-v-9833e8b2="" version="1.1" xmlns="http://www.w3.org/2000/svg" xmlns:xlink="http://www.w3.org/1999/xlink" width="25" height="17.5"><g data-v-9833e8b2=""><path data-v-9833e8b2="" transform="scale(0.14450867052023122)" fill="none" stroke="currentColor" paint-order="fill stroke markers" d="m1.25764,1l171.70571,0l0,119.89815l-171.95258,0l0,-119.15811c-0.02109,-0.3502 -0.04063,-0.69863 0.24688,-0.74004zm8.38791,12.08831l0,93.00766c23.80826,-28.08269 47.87942,-59.35406 71.54413,-87.5801c2.00801,13.94554 3.82931,28.07781 5.67423,42.18624c22.34049,-15.23051 47.54739,-30.74949 69.57049,-46.87356c0.43125,-0.31563 1.84571,-0.48906 1.48008,-1.48028l-148.02225,0c-0.2875,0.0416 -0.26777,0.39004 -0.24668,0.74004zm143.33493,12.33538c-3.54845,4.05665 -7.03928,8.15861 -10.60803,12.08851c-20.67681,22.76724 -40.85909,46.6677 -61.42945,69.07693c-0.725,0.79043 -2.08086,1.66387 -1.97344,2.96036l85.35939,0c-0.16406,-32.237 0.32949,-65.12927 -0.24629,-96.95454c-3.58321,4.24552 -7.34767,8.53654 -11.10218,12.82874zm-86.34612,47.12063c-8.76623,6.19787 -18.39575,12.40862 -27.63093,18.74927c-7.85451,5.39279 -15.89692,10.81565 -23.43697,16.03578c-1.06055,0.73418 -2.68399,1.47559 -2.467,2.22032l62.41598,0c-3.05489,-12.24027 -5.43439,-25.15651 -8.88108,-37.00537z" stroke-width="5" stroke-miterlimit="10" stroke-dasharray=""></path></g></svg>