<svg data-v-9833e8b2="" version="1.1" xmlns="http://www.w3.org/2000/svg" xmlns:xlink="http://www.w3.org/1999/xlink" width="24.5" height="25"><g data-v-9833e8b2=""><path data-v-9833e8b2="" transform="scale(0.1724137931034483)" fill="none" stroke="currentColor" paint-order="fill stroke markers" d="m1,97.5c0,-18.36549 14.87605,-33.24154 33.24154,-33.24154c18.36549,0 33.24154,14.87605 33.24154,33.24154c0,18.36549 -14.87605,33.24154 -33.24154,33.24154c-18.36549,0 -33.24154,-14.87605 -33.24154,-33.24154z" stroke-width="5" stroke-miterlimit="10" stroke-dasharray=""></path><path data-v-9833e8b2="" transform="scale(0.1724137931034483)" fill="none" stroke="currentColor" paint-order="fill stroke markers" d="m30,48.5c0,-18.36549 14.87605,-33.24154 33.24154,-33.24154c18.36549,0 33.24154,14.87605 33.24154,33.24154c0,18.36549 -14.87605,33.24154 -33.24154,33.24154c-18.36549,0 -33.24154,-14.87605 -33.24154,-33.24154z" stroke-width="5" stroke-miterlimit="10" stroke-dasharray=""></path><path data-v-9833e8b2="" transform="scale(0.1724137931034483)" fill="none" stroke="currentColor" paint-order="fill stroke markers" d="m34.24154,95.5l0,25" stroke-width="5" stroke-miterlimit="10" stroke-dasharray=""></path><path data-v-9833e8b2="" transform="scale(0.1724137931034483)" fill="none" stroke="currentColor" paint-order="fill stroke markers" d="m34.24154,97.5l23,-12" stroke-width="5" stroke-miterlimit="10" stroke-dasharray=""></path><path data-v-9833e8b2="" transform="scale(0.1724137931034483)" fill="none" stroke="currentColor" paint-order="fill stroke markers" d="m34.24154,97.5l-20,-12" stroke-width="5" stroke-miterlimit="10" stroke-dasharray=""></path><path data-v-9833e8b2="" transform="scale(0.1724137931034483)" fill="none" stroke="currentColor" paint-order="fill stroke markers" d="m61,97.5c0,-18.36549 14.87605,-33.24154 33.24154,-33.24154c18.36549,0 33.24154,14.87605 33.24154,33.24154c0,18.36549 -14.87605,33.24154 -33.24154,33.24154c-18.36549,0 -33.24154,-14.87605 -33.24154,-33.24154z" stroke-width="5" stroke-miterlimit="10" stroke-dasharray=""></path><path data-v-9833e8b2="" transform="scale(0.1724137931034483)" fill="none" stroke="currentColor" paint-order="fill stroke markers" d="m94.24154,95.5l0,25" stroke-width="5" stroke-miterlimit="10" stroke-dasharray=""></path><path data-v-9833e8b2="" transform="scale(0.1724137931034483)" fill="none" stroke="currentColor" paint-order="fill stroke markers" d="m94.24154,97.5l23,-12" stroke-width="5" stroke-miterlimit="10" stroke-dasharray=""></path><path data-v-9833e8b2="" transform="scale(0.1724137931034483)" fill="none" stroke="currentColor" paint-order="fill stroke markers" d="m94.24154,97.5l-20,-12" stroke-width="5" stroke-miterlimit="10" stroke-dasharray=""></path><path data-v-9833e8b2="" transform="scale(0.1724137931034483)" fill="none" stroke="currentColor" paint-order="fill stroke markers" d="m49.41738,58.32565l14.50001,-25.37502l14.50001,25.37502l-29.00002,0z" stroke-width="5" stroke-miterlimit="10" stroke-dasharray=""></path><path data-v-9833e8b2="" transform="scale(0.1724137931034483)" fill="none" stroke="currentColor" paint-order="fill stroke markers" d="m34.24154,131.5l0,13" stroke-width="5" stroke-miterlimit="10" stroke-dasharray=""></path><path data-v-9833e8b2="" transform="scale(0.1724137931034483)" fill="none" stroke="currentColor" paint-order="fill stroke markers" d="m95.24152,131l0,13" stroke-width="5" stroke-miterlimit="10" stroke-dasharray=""></path><path data-v-9833e8b2="" transform="scale(0.1724137931034483)" fill="none" stroke="currentColor" paint-order="fill stroke markers" d="m63.24152,1l0,13" stroke-width="5" stroke-miterlimit="10" stroke-dasharray=""></path></g></svg>