<svg data-v-9833e8b2="" version="1.1" xmlns="http://www.w3.org/2000/svg" xmlns:xlink="http://www.w3.org/1999/xlink" width="17" height="25"><g data-v-9833e8b2=""><path data-v-9833e8b2="" transform="scale(0.2066115702479339)" fill="none" stroke="currentColor" paint-order="fill stroke markers" d="m1,34.24154c0,-18.36549 14.87605,-33.24154 33.24154,-33.24154c18.36549,0 33.24154,14.87605 33.24154,33.24154c0,18.36549 -14.87605,33.24154 -33.24154,33.24154c-18.36549,0 -33.24154,-14.87605 -33.24154,-33.24154z" stroke-width="5" stroke-miterlimit="10" stroke-dasharray=""></path><path data-v-9833e8b2="" transform="scale(0.2066115702479339)" fill="none" stroke="currentColor" paint-order="fill stroke markers" d="m20.41738,44.06719l14.50001,-25.37502l14.50001,25.37502l-29.00002,0z" stroke-width="5" stroke-miterlimit="10" stroke-dasharray=""></path><path data-v-9833e8b2="" transform="scale(0.2066115702479339)" fill="none" stroke="currentColor" paint-order="fill stroke markers" d="m2,87.24154c0,-18.36549 14.87605,-33.24154 33.24154,-33.24154c18.36549,0 33.24154,14.87605 33.24154,33.24154c0,18.36549 -14.87605,33.24154 -33.24154,33.24154c-18.36549,0 -33.24154,-14.87605 -33.24154,-33.24154z" stroke-width="5" stroke-miterlimit="10" stroke-dasharray=""></path><path data-v-9833e8b2="" transform="scale(0.2066115702479339)" fill="none" stroke="currentColor" paint-order="fill stroke markers" d="m35.24154,85.24154l0,25" stroke-width="5" stroke-miterlimit="10" stroke-dasharray=""></path><path data-v-9833e8b2="" transform="scale(0.2066115702479339)" fill="none" stroke="currentColor" paint-order="fill stroke markers" d="m35.24154,87.24154l23,-12" stroke-width="5" stroke-miterlimit="10" stroke-dasharray=""></path><path data-v-9833e8b2="" transform="scale(0.2066115702479339)" fill="none" stroke="currentColor" paint-order="fill stroke markers" d="m35.24154,87.24154l-20,-12" stroke-width="5" stroke-miterlimit="10" stroke-dasharray=""></path></g></svg>