<svg data-v-9833e8b2="" version="1.1" xmlns="http://www.w3.org/2000/svg" xmlns:xlink="http://www.w3.org/1999/xlink" width="19.5" height="25"><g data-v-9833e8b2=""><path data-v-9833e8b2="" transform="scale(0.18115942028985507)" fill="none" stroke="currentColor" paint-order="fill stroke markers" d="m84.32,29.84l-14.22,0l0,-24.84c0,-2.21 -1.79,-4 -4,-4s-4,1.79 -4,4l0,24.84l-28.2,0l0,-24.84c0,-2.21 -1.79,-4 -4,-4s-4,1.79 -4,4l0,24.84l-14.22,0c-5.89,0 -10.68,4.79 -10.68,10.68l0,86.24c0,5.89 4.79,10.68 10.68,10.68l72.64,0c5.89,0 10.68,-4.79 10.68,-10.68l0,-86.24c0,-5.89 -4.79,-10.68 -10.68,-10.68zm2.68,96.92c0,1.48 -1.2,2.68 -2.68,2.68l-72.64,0c-1.48,0 -2.68,-1.2 -2.68,-2.68l0,-86.24c0,-1.48 1.2,-2.68 2.68,-2.68l72.64,0c1.48,0 2.68,1.2 2.68,2.68l0,86.24z" stroke-width="5" stroke-miterlimit="10" stroke-dasharray=""></path><path data-v-9833e8b2="" transform="scale(0.18115942028985507)" fill="none" stroke="currentColor" paint-order="fill stroke markers" d="m59.03,113l-22.06,0c-8.53,0 -15.47,-6.94 -15.47,-15.47l0,-2.07c0,-8.53 6.94,-15.47 15.47,-15.47l22.07,0c8.53,0 15.47,6.94 15.47,15.47l0,2.07c-0.01,8.53 -6.95,15.47 -15.48,15.47zm-22.06,-25c-4.12,0 -7.47,3.35 -7.47,7.47l0,2.07c0,4.12 3.35,7.47 7.47,7.47l22.07,0c4.12,0 7.47,-3.35 7.47,-7.47l0,-2.07c0,-4.12 -3.35,-7.47 -7.47,-7.47l-22.07,0z" stroke-width="5" stroke-miterlimit="10" stroke-dasharray=""></path></g></svg>