<svg data-v-9833e8b2="" version="1.1" xmlns="http://www.w3.org/2000/svg" xmlns:xlink="http://www.w3.org/1999/xlink" width="25" height="20"><g data-v-9833e8b2=""><path data-v-9833e8b2="" transform="scale(0.1141552511415525)" fill="none" stroke="currentColor" paint-order="fill stroke markers" d="m18.12182,87c0,-20.37468 16.50349,-36.87818 36.87818,-36.87818c20.37468,0 36.87818,16.50349 36.87818,36.87818c0,20.37468 -16.50349,36.87818 -36.87818,36.87818c-20.37468,0 -36.87818,-16.50349 -36.87818,-36.87818z" stroke-width="5" stroke-miterlimit="10" stroke-dasharray=""></path><path data-v-9833e8b2="" transform="scale(0.1141552511415525)" fill="none" stroke="currentColor" paint-order="fill stroke markers" d="m131.12182,86c0,-20.37468 16.50349,-36.87818 36.87818,-36.87818c20.37468,0 36.87818,16.50349 36.87818,36.87818c0,20.37468 -16.50349,36.87818 -36.87818,36.87818c-20.37468,0 -36.87818,-16.50349 -36.87818,-36.87818z" stroke-width="5" stroke-miterlimit="10" stroke-dasharray=""></path><path data-v-9833e8b2="" transform="scale(0.1141552511415525)" fill="none" stroke="currentColor" paint-order="fill stroke markers" d="m75.12182,116c0,-20.37468 16.50349,-36.87818 36.87818,-36.87818c20.37468,0 36.87818,16.50349 36.87818,36.87818c0,20.37468 -16.50349,36.87818 -36.87818,36.87818c-20.37468,0 -36.87818,-16.50349 -36.87818,-36.87818z" stroke-width="5" stroke-miterlimit="10" stroke-dasharray=""></path><path data-v-9833e8b2="" transform="scale(0.1141552511415525)" fill="none" stroke="currentColor" paint-order="fill stroke markers" d="m74.12182,52c0,-20.37468 16.50349,-36.87818 36.87818,-36.87818c20.37468,0 36.87818,16.50349 36.87818,36.87818c0,20.37468 -16.50349,36.87818 -36.87818,36.87818c-20.37468,0 -36.87818,-16.50349 -36.87818,-36.87818z" stroke-width="5" stroke-miterlimit="10" stroke-dasharray=""></path><path data-v-9833e8b2="" transform="scale(0.1141552511415525)" fill="none" stroke="currentColor" paint-order="fill stroke markers" d="m111,53l0,21" stroke-width="5" stroke-miterlimit="10" stroke-dasharray=""></path><path data-v-9833e8b2="" transform="scale(0.1141552511415525)" fill="none" stroke="currentColor" paint-order="fill stroke markers" d="m111,54l20,-11" stroke-width="5" stroke-miterlimit="10" stroke-dasharray=""></path><path data-v-9833e8b2="" transform="scale(0.1141552511415525)" fill="none" stroke="currentColor" paint-order="fill stroke markers" d="m110,53l-17,-11" stroke-width="5" stroke-miterlimit="10" stroke-dasharray=""></path><path data-v-9833e8b2="" transform="scale(0.1141552511415525)" fill="none" stroke="currentColor" paint-order="fill stroke markers" d="m55,85l25,0" stroke-width="5" stroke-miterlimit="10" stroke-dasharray=""></path><path data-v-9833e8b2="" transform="scale(0.1141552511415525)" fill="none" stroke="currentColor" paint-order="fill stroke markers" d="m55,85l-9,22" stroke-width="5" stroke-miterlimit="10" stroke-dasharray=""></path><path data-v-9833e8b2="" transform="scale(0.1141552511415525)" fill="none" stroke="currentColor" paint-order="fill stroke markers" d="m54,85l-9,-20" stroke-width="5" stroke-miterlimit="10" stroke-dasharray=""></path><path data-v-9833e8b2="" transform="scale(0.1141552511415525)" fill="none" stroke="currentColor" paint-order="fill stroke markers" d="m111,117l0,-24" stroke-width="5" stroke-miterlimit="10" stroke-dasharray=""></path><path data-v-9833e8b2="" transform="scale(0.1141552511415525)" fill="none" stroke="currentColor" paint-order="fill stroke markers" d="m110,115l21,12" stroke-width="5" stroke-miterlimit="10" stroke-dasharray=""></path><path data-v-9833e8b2="" transform="scale(0.1141552511415525)" fill="none" stroke="currentColor" paint-order="fill stroke markers" d="m111,116l-19,12" stroke-width="5" stroke-miterlimit="10" stroke-dasharray=""></path><path data-v-9833e8b2="" transform="scale(0.1141552511415525)" fill="none" stroke="currentColor" paint-order="fill stroke markers" d="m159.14944,70.98748l27.99642,16.00628l-28.0036,15.99373l0.00718,-32.00001z" stroke-width="5" stroke-miterlimit="10" stroke-dasharray=""></path><path data-v-9833e8b2="" transform="scale(0.1141552511415525)" fill="none" stroke="currentColor" paint-order="fill stroke markers" d="m111,153l0,15" stroke-width="5" stroke-miterlimit="10" stroke-dasharray=""></path><path data-v-9833e8b2="" transform="scale(0.1141552511415525)" fill="none" stroke="currentColor" paint-order="fill stroke markers" d="m111,1l0,13" stroke-width="5" stroke-miterlimit="10" stroke-dasharray=""></path><path data-v-9833e8b2="" transform="scale(0.1141552511415525)" fill="none" stroke="currentColor" paint-order="fill stroke markers" d="m205,85l13,0" stroke-width="5" stroke-miterlimit="10" stroke-dasharray=""></path><path data-v-9833e8b2="" transform="scale(0.1141552511415525)" fill="none" stroke="currentColor" paint-order="fill stroke markers" d="m17,86l-16,0" stroke-width="5" stroke-miterlimit="10" stroke-dasharray=""></path></g></svg>