<svg data-v-9833e8b2="" version="1.1" xmlns="http://www.w3.org/2000/svg" xmlns:xlink="http://www.w3.org/1999/xlink" width="22" height="25"><g data-v-9833e8b2=""><path data-v-9833e8b2="" transform="scale(0.26881720430107525)" fill="none" stroke="currentColor" paint-order="fill stroke markers" d="m1,58c0,-19.24207 15.58608,-34.82815 34.82815,-34.82815c19.24207,0 34.82815,15.58608 34.82815,34.82815c0,19.24207 -15.58608,34.82815 -34.82815,34.82815c-19.24207,0 -34.82815,-15.58608 -34.82815,-34.82815z" stroke-width="5" stroke-miterlimit="10" stroke-dasharray=""></path><path data-v-9833e8b2="" transform="scale(0.26881720430107525)" fill="none" stroke="currentColor" paint-order="fill stroke markers" d="m36.82815,58c0,0 0,-15 -0.83333,-15.5c-0.83333,-0.5 12.83333,-7.5 12.83333,-7.5" stroke-width="5" stroke-miterlimit="10" stroke-dasharray=""></path><path data-v-9833e8b2="" transform="scale(0.26881720430107525)" fill="none" stroke="currentColor" paint-order="fill stroke markers" d="m36.82815,57c0,0 13,9 13,9c0,0 -3,14 -3,14" stroke-width="5" stroke-miterlimit="10" stroke-dasharray=""></path><path data-v-9833e8b2="" transform="scale(0.26881720430107525)" fill="none" stroke="currentColor" paint-order="fill stroke markers" d="m35.82815,56c0,0 -13,10 -13,10c0,0 -12,-12 -12.83333,-12.5" stroke-width="5" stroke-miterlimit="10" stroke-dasharray=""></path><path data-v-9833e8b2="" transform="scale(0.26881720430107525)" fill="none" stroke="currentColor" paint-order="fill stroke markers" d="m35.82815,1l0,24" stroke-width="5" stroke-miterlimit="10" stroke-dasharray=""></path></g></svg>