<svg data-v-9833e8b2="" version="1.1" xmlns="http://www.w3.org/2000/svg" xmlns:xlink="http://www.w3.org/1999/xlink" width="25" height="5"><g data-v-9833e8b2=""><path data-v-9833e8b2="" transform="scale(0.35714285714285715)" fill="none" stroke="currentColor" paint-order="fill stroke markers" d="m36.5,-9.65758l-6.42857,0l0,-8.48485c0,-0.75006 -0.47946,-1.35758 -1.07143,-1.35758s-1.07143,0.60752 -1.07143,1.35758l0,8.48485l-6.42857,0l0,37.33333l6.42857,0l0,7.46667c0,0.75006 0.47946,1.35758 1.07143,1.35758s1.07143,-0.60752 1.07143,-1.35758l0,-7.46667l6.42857,0l0,-37.33333zm-2.14286,34.61818l-10.71429,0l0,-31.90303l10.71429,0l0,31.90303z" stroke-width="5" stroke-miterlimit="10" stroke-dasharray=""></path><path data-v-9833e8b2="" transform="scale(0.35714285714285715)" fill="none" stroke="currentColor" paint-order="fill stroke markers" d="m57.96293,1.5l11.32143,6.65628l-11.50254,6.34045l0.18111,-12.99673z" stroke-width="5" stroke-miterlimit="10" stroke-dasharray=""></path><path data-v-9833e8b2="" transform="scale(0.35714285714285715)" fill="none" stroke="currentColor" paint-order="fill stroke markers" d="m47.5,8.01401l10.35809,0" stroke-width="5" stroke-miterlimit="10" stroke-dasharray=""></path></g></svg>