<svg data-v-9833e8b2="" version="1.1" xmlns="http://www.w3.org/2000/svg" xmlns:xlink="http://www.w3.org/1999/xlink" width="22" height="25"><g data-v-9833e8b2=""><path data-v-9833e8b2="" transform="scale(0.17857142857142858)" fill="none" stroke="currentColor" paint-order="fill stroke markers" d="m36.39043,38.26169c-1.07,0 -2.15,-0.43 -2.93,-1.28l-1.41,-1.52c-3,-3.09 -3.33,-7.95 -0.73,-11.49l1.91,-2.61c0.25,-0.33 0.25,-0.79 0.02,-1.13l-2.43,-3.49c-2.16,-3.12 -2.13,-7.23 0.05,-10.31l2.09,-3.48c1.14,-1.89 3.59,-2.51 5.49,-1.37c1.89,1.14 2.51,3.59 1.37,5.49l-2.41,3.97c-0.25,0.33 -0.26,0.79 -0.02,1.13l2.43,3.5c2.18,3.15 2.13,7.34 -0.14,10.42l-1.91,2.61c-0.28,0.38 -0.25,0.91 0.09,1.25l1.47,1.58c1.5,1.62 1.41,4.15 -0.21,5.65c-0.78,0.73 -1.75,1.08 -2.73,1.08z" stroke-width="5" stroke-miterlimit="10" stroke-dasharray=""></path><path data-v-9833e8b2="" transform="scale(0.17857142857142858)" fill="none" stroke="currentColor" paint-order="fill stroke markers" d="m55.89043,38.26169c-1.07,0 -2.15,-0.43 -2.93,-1.28l-1.41,-1.52c-3,-3.09 -3.33,-7.95 -0.73,-11.49l1.92,-2.61c0.24,-0.33 0.25,-0.79 0.01,-1.13l-2.43,-3.5c-2.16,-3.12 -2.13,-7.23 0.05,-10.31l2.09,-3.48c1.14,-1.89 3.6,-2.51 5.49,-1.37c1.89,1.14 2.51,3.59 1.37,5.49l-2.41,3.97c-0.25,0.33 -0.26,0.79 -0.02,1.13l2.43,3.5c2.18,3.15 2.13,7.34 -0.14,10.42l-1.92,2.61c-0.28,0.38 -0.25,0.91 0.09,1.25l1.47,1.58c1.5,1.62 1.41,4.15 -0.21,5.65c-0.77,0.74 -1.74,1.09 -2.72,1.09z" stroke-width="5" stroke-miterlimit="10" stroke-dasharray=""></path><path data-v-9833e8b2="" transform="scale(0.17857142857142858)" fill="none" stroke="currentColor" paint-order="fill stroke markers" d="m75.39043,38.26169c-1.07,0 -2.14,-0.43 -2.93,-1.28l-1.41,-1.52c-3,-3.09 -3.33,-7.95 -0.73,-11.49l1.91,-2.61c0.25,-0.33 0.25,-0.79 0.01,-1.13l-2.43,-3.5c-2.16,-3.12 -2.13,-7.23 0.05,-10.31l2.09,-3.48c1.14,-1.89 3.59,-2.51 5.49,-1.37c1.89,1.14 2.51,3.6 1.37,5.49l-2.41,3.97c-0.25,0.33 -0.26,0.79 -0.02,1.14l2.43,3.5c2.18,3.15 2.13,7.34 -0.14,10.42l-1.91,2.61c-0.28,0.38 -0.25,0.91 0.08,1.25l1.47,1.58c1.5,1.62 1.41,4.15 -0.21,5.65c-0.76,0.73 -1.73,1.08 -2.71,1.08z" stroke-width="5" stroke-miterlimit="10" stroke-dasharray=""></path><path data-v-9833e8b2="" transform="scale(0.17857142857142858)" fill="none" stroke="currentColor" paint-order="fill stroke markers" d="m104.64043,139.01169l-99.64,0c-1.49,0 -2.86,-0.83 -3.55,-2.16s-0.58,-2.93 0.28,-4.15c11.56,-16.37 18.95,-49.54 19.29,-86.56c0.02,-2.19 1.81,-3.96 4,-3.96l59.61,0c2.19,0 3.98,1.77 4,3.96c0.34,37.03 7.73,70.2 19.29,86.56c0.86,1.22 0.97,2.82 0.28,4.15s-2.06,2.16 -3.56,2.16zm-92.5,-8l85.36,0c-9.81,-18.18 -16.06,-47.99 -16.81,-80.83l-51.74,0c-0.75,32.84 -7,62.65 -16.81,80.83z" stroke-width="5" stroke-miterlimit="10" stroke-dasharray=""></path><path data-v-9833e8b2="" transform="scale(0.17857142857142858)" fill="none" stroke="currentColor" paint-order="fill stroke markers" d="m54.82043,117.01169c-10.45,0 -18.96,-8.48 -19,-18.93c0,-0.13 -0.01,-0.4 0.01,-0.81c0.04,-1.61 0.23,-3 0.6,-4.17c0.58,-2.53 1.82,-5.51 3.75,-9.75c2.37,-5.21 2.78,-8.91 3.03,-11.12c0.22,-1.95 0.49,-4.37 3.01,-5.41c1.65,-0.68 3.37,-0.33 5.1,1.06c3.56,2.85 4.27,8.05 4.95,13.08c0.24,1.73 0.6,4.43 1.08,5.77c1.17,-0.96 3.36,-4.44 4.57,-9.63c0.38,-1.64 1.75,-2.87 3.43,-3.07c1.67,-0.2 3.29,0.67 4.05,2.18c0.18,0.36 4.42,8.99 4.42,21.79c0,10.49 -8.52,19.01 -19,19.01zm-6.21,-33.09c-0.33,0.88 -0.71,1.79 -1.15,2.74c-1.67,3.67 -2.86,6.49 -3.26,8.35c-0.03,0.15 -0.07,0.3 -0.12,0.45c-0.08,0.24 -0.22,0.82 -0.25,2.08c-0.01,0.22 -0.01,0.31 -0.01,0.35c0,0.02 0,0.09 0,0.12c0,6.07 4.93,11 11,11s11,-4.93 11,-11c0,-3.02 -0.28,-5.76 -0.68,-8.16c-2,2.87 -4.72,5.16 -8.32,5.16c-5.97,0 -7.44,-5.93 -8.21,-11.09z" stroke-width="5" stroke-miterlimit="10" stroke-dasharray=""></path></g></svg>