<svg data-v-9833e8b2="" version="1.1" xmlns="http://www.w3.org/2000/svg" xmlns:xlink="http://www.w3.org/1999/xlink" width="25" height="25"><g data-v-9833e8b2=""><path data-v-9833e8b2="" transform="scale(0.20161290322580644)" fill="none" stroke="currentColor" paint-order="fill stroke markers" d="m43.37,83.49c-0.88,0 -1.77,-0.29 -2.51,-0.89c-8.17,-6.58 -12.85,-16.38 -12.85,-26.86c0,-19.02 15.48,-34.5 34.5,-34.5s34.5,15.48 34.5,34.5c0,10.39 -4.61,20.12 -12.66,26.71c-1.71,1.4 -4.23,1.15 -5.63,-0.56c-1.4,-1.71 -1.15,-4.23 0.56,-5.63c6.18,-5.06 9.73,-12.54 9.73,-20.52c0,-14.61 -11.89,-26.5 -26.5,-26.5s-26.5,11.89 -26.5,26.5c0,8.05 3.6,15.57 9.88,20.64c1.72,1.39 1.99,3.91 0.6,5.62c-0.79,0.98 -1.95,1.49 -3.12,1.49z" stroke-width="5" stroke-miterlimit="10" stroke-dasharray=""></path><path data-v-9833e8b2="" transform="scale(0.20161290322580644)" fill="none" stroke="currentColor" paint-order="fill stroke markers" d="m99.68,123.01l-75.34,0c-4.94,0 -8.96,-4.02 -8.96,-8.96l0,-2.97c0,-0.53 -0.43,-0.96 -0.96,-0.96l-4.46,0c-4.94,0 -8.96,-4.02 -8.96,-8.96l0,-91.2c0,-4.94 4.02,-8.96 8.96,-8.96l104.09,0c4.94,0 8.96,4.02 8.96,8.96l0,91.2c0,4.94 -4.02,8.96 -8.96,8.96l-4.46,0c-0.53,0 -0.96,0.43 -0.96,0.96l0,2.97c0.01,4.94 -4.01,8.96 -8.95,8.96zm-89.71,-114c-0.53,0 -0.96,0.43 -0.96,0.96l0,91.2c0,0.53 0.43,0.96 0.96,0.96l4.46,0c4.94,0 8.96,4.02 8.96,8.96l0,2.97c0,0.53 0.43,0.96 0.96,0.96l75.34,0c0.53,0 0.96,-0.43 0.96,-0.96l0,-2.97c0,-4.94 4.02,-8.96 8.96,-8.96l4.46,0c0.53,0 0.96,-0.43 0.96,-0.96l0,-91.2c0,-0.53 -0.43,-0.96 -0.96,-0.96l-104.1,0z" stroke-width="5" stroke-miterlimit="10" stroke-dasharray=""></path><path data-v-9833e8b2="" transform="scale(0.20161290322580644)" fill="none" stroke="currentColor" paint-order="fill stroke markers" d="m102.6,97.09l-81.18,0c-5.11,0 -9.27,-4.16 -9.27,-9.27l0,-67.04c0,-5.11 4.16,-9.27 9.27,-9.27l81.19,0c5.11,0 9.27,4.16 9.27,9.27l0,67.04c-0.01,5.11 -4.16,9.27 -9.28,9.27zm-81.18,-77.58c-0.7,0 -1.27,0.57 -1.27,1.27l0,67.04c0,0.7 0.57,1.27 1.27,1.27l81.19,0c0.7,0 1.27,-0.57 1.27,-1.27l0,-67.04c0,-0.7 -0.57,-1.27 -1.27,-1.27l-81.19,0z" stroke-width="5" stroke-miterlimit="10" stroke-dasharray=""></path><path data-v-9833e8b2="" transform="scale(0.20161290322580644)" fill="none" stroke="currentColor" paint-order="fill stroke markers" d="m70.91,57.16c-0.99,-1.71 -2.46,-2.97 -4.14,-3.71l-12.99,-7.95l0.39,15.22c-0.19,1.83 0.16,3.73 1.15,5.44c2.49,4.3 7.99,5.78 12.29,3.29s5.78,-7.98 3.3,-12.29z" stroke-width="5" stroke-miterlimit="10" stroke-dasharray=""></path></g></svg>