<svg data-v-9833e8b2="" version="1.1" xmlns="http://www.w3.org/2000/svg" xmlns:xlink="http://www.w3.org/1999/xlink" width="9.5" height="25"><g data-v-9833e8b2=""><path data-v-9833e8b2="" transform="scale(0.1497005988023952)" fill="none" stroke="currentColor" paint-order="fill stroke markers" d="m33,91l0,-86c0,-2.21 -1.79,-4 -4,-4s-4,1.79 -4,4l0,86l-15.33,0l19.33,23.33l19.33,-23.33l-15.33,0z" stroke-width="5" stroke-miterlimit="10" stroke-dasharray=""></path><path data-v-9833e8b2="" transform="scale(0.1497005988023952)" fill="none" stroke="currentColor" paint-order="fill stroke markers" d="m57,30l-56,0l0,110l24,0l0,22c0,2.21 1.79,4 4,4s4,-1.79 4,-4l0,-22l24,0l0,-110zm-8,102l-40,0l0,-94l40,0l0,94z" stroke-width="5" stroke-miterlimit="10" stroke-dasharray=""></path></g></svg>