<svg data-v-9833e8b2="" version="1.1" xmlns="http://www.w3.org/2000/svg" xmlns:xlink="http://www.w3.org/1999/xlink" width="17" height="25"><g data-v-9833e8b2=""><path data-v-9833e8b2="" transform="scale(0.16891891891891891)" fill="none" stroke="currentColor" paint-order="fill stroke markers" d="m89,105l-38,0l0,-100c0,-2.21 -1.79,-4 -4,-4s-4,1.79 -4,4l0,100l-38,0c-2.21,0 -4,1.79 -4,4s1.79,4 4,4l84,0c2.21,0 4,-1.79 4,-4s-1.79,-4 -4,-4z" stroke-width="5" stroke-miterlimit="10" stroke-dasharray=""></path><path data-v-9833e8b2="" transform="scale(0.16891891891891891)" fill="none" stroke="currentColor" paint-order="fill stroke markers" d="m74.5,129l-55,0c-2.21,0 -4,-1.79 -4,-4s1.79,-4 4,-4l55,0c2.21,0 4,1.79 4,4s-1.79,4 -4,4z" stroke-width="5" stroke-miterlimit="10" stroke-dasharray=""></path><path data-v-9833e8b2="" transform="scale(0.16891891891891891)" fill="none" stroke="currentColor" paint-order="fill stroke markers" d="m61.5,147l-29,0c-2.21,0 -4,-1.79 -4,-4s1.79,-4 4,-4l29,0c2.21,0 4,1.79 4,4s-1.79,4 -4,4z" stroke-width="5" stroke-miterlimit="10" stroke-dasharray=""></path></g></svg>