<svg data-v-9833e8b2="" version="1.1" xmlns="http://www.w3.org/2000/svg" xmlns:xlink="http://www.w3.org/1999/xlink" width="17" height="25"><g data-v-9833e8b2=""><path data-v-9833e8b2="" transform="scale(0.16025641025641027)" fill="none" stroke="currentColor" paint-order="fill stroke markers" d="m50.44,155c-2.21,0 -4,-1.79 -4,-4l0,-30.72l4,0c22.85,0 41.44,-18.59 41.44,-41.44c0,-21.5 -16.46,-39.23 -37.44,-41.25l0,45.25l-53.44,0l0,-4c0,-25.92 20.04,-47.24 45.44,-49.28l0,-24.56c0,-2.21 1.79,-4 4,-4s4,1.79 4,4l0,24.56c25.4,2.04 45.44,23.36 45.44,49.28s-20.04,47.24 -45.44,49.28l0,22.88c0,2.21 -1.79,4 -4,4zm-41.25,-80.16l37.25,0l0,-37.25c-19.67,1.89 -35.36,17.58 -37.25,37.25z" stroke-width="5" stroke-miterlimit="10" stroke-dasharray=""></path></g></svg>