<svg data-v-9833e8b2="" version="1.1" xmlns="http://www.w3.org/2000/svg" xmlns:xlink="http://www.w3.org/1999/xlink" width="22" height="25"><g data-v-9833e8b2=""><path data-v-9833e8b2="" transform="scale(0.1736111111111111)" fill="none" stroke="currentColor" paint-order="fill stroke markers" d="m60.98,31.16c0,-0.05 0.02,-0.1 0.02,-0.16l0,-26c0,-2.21 -1.79,-4 -4,-4s-4,1.79 -4,4l0,26c0,0.05 0.01,0.1 0.02,0.16c-29.03,2.05 -52.02,26.3 -52.02,55.84c0,30.88 25.12,56 56,56s56,-25.12 56,-56c0,-29.54 -22.99,-53.79 -52.02,-55.84zm-3.98,103.84c-26.47,0 -48,-21.53 -48,-48s21.53,-48 48,-48s48,21.53 48,48s-21.53,48 -48,48z" stroke-width="5" stroke-miterlimit="10" stroke-dasharray=""></path><path data-v-9833e8b2="" transform="scale(0.1736111111111111)" fill="none" stroke="currentColor" paint-order="fill stroke markers" d="m59.55,83.14c-3.91,-9.36 1.39,-21.51 12.57,-27.96c1.91,-1.1 2.57,-3.55 1.46,-5.46c-1.1,-1.91 -3.55,-2.57 -5.46,-1.46c-14.88,8.59 -21.53,25.36 -15.73,38.47c-2.71,3.55 -6.85,5.94 -11.89,6.79c-6.1,1.04 -12.7,-0.28 -18.61,-3.69c-1.91,-1.11 -4.36,-0.45 -5.46,1.46c-1.1,1.91 -0.45,4.36 1.46,5.46c5.81,3.35 12.21,5.1 18.48,5.1c1.84,0 3.67,-0.15 5.47,-0.45c7.29,-1.23 13.31,-4.85 17.24,-10.26c10.05,1.29 17.92,11.95 17.92,24.86c0,2.21 1.79,4 4,4s4,-1.79 4,-4c0,-17.18 -11.2,-31.34 -25.45,-32.86z" stroke-width="5" stroke-miterlimit="10" stroke-dasharray=""></path></g></svg>