<svg data-v-9833e8b2="" version="1.1" xmlns="http://www.w3.org/2000/svg" xmlns:xlink="http://www.w3.org/1999/xlink" width="25" height="10"><g data-v-9833e8b2=""><path data-v-9833e8b2="" transform="scale(0.15337423312883436)" fill="none" stroke="currentColor" paint-order="fill stroke markers" d="m158,30.52l-47.5,0l0,-14.5c0,-2.21 -1.79,-4 -4,-4s-4,1.79 -4,4l0,14.5l-1.8,0l-48.2,-29.52l0,29.52l-47.5,0c-2.21,0 -4,1.79 -4,4s1.79,4 4,4l47.5,0l0,29.52l48.2,-29.52l1.8,0l0,14.5c0,2.21 1.79,4 4,4s4,-1.79 4,-4l0,-14.5l47.5,0c2.21,0 4,-1.79 4,-4s-1.79,-4 -4,-4zm-97.5,23.24l0,-38.48l31.42,19.24l-31.42,19.24z" stroke-width="5" stroke-miterlimit="10" stroke-dasharray=""></path></g></svg>