<svg data-v-9833e8b2="" version="1.1" xmlns="http://www.w3.org/2000/svg" xmlns:xlink="http://www.w3.org/1999/xlink" width="19.5" height="25"><g data-v-9833e8b2=""><path data-v-9833e8b2="" transform="scale(0.14792899408284024)" fill="none" stroke="currentColor" paint-order="fill stroke markers" d="m115.23778,83.9c-2.12,-7.9 -7.18,-14.49 -14.26,-18.58c-4.99,-2.88 -10.56,-4.26 -16.18,-4.09c2.82,-4.63 4.45,-10.07 4.45,-15.87c0,-15.52 -11.61,-28.36 -26.6,-30.33l0,-10.03c0,-2.21 -1.79,-4 -4,-4s-4,1.79 -4,4l0,10.02c-14.99,1.97 -26.6,14.81 -26.6,30.33c0,5.81 1.63,11.24 4.45,15.87c-5.62,-0.17 -11.19,1.21 -16.18,4.09c-7.08,4.09 -12.14,10.68 -14.26,18.58c-2.12,7.89 -1.03,16.14 3.06,23.22c4.09,7.08 10.69,12.14 18.58,14.26c2.64,0.71 5.31,1.06 7.97,1.06c0.25,0 0.5,-0.02 0.75,-0.02c-2.77,4.6 -4.37,9.99 -4.37,15.75c0,16.87 13.73,30.6 30.6,30.6s30.6,-13.73 30.6,-30.6c0,-5.76 -1.6,-11.14 -4.37,-15.75c0.25,0.01 0.5,0.02 0.75,0.02c2.66,0 5.33,-0.35 7.97,-1.06c7.89,-2.12 14.49,-7.18 18.58,-14.26c4.09,-7.07 5.17,-15.32 3.06,-23.21zm-56.59,22.27c0.25,0.48 0.51,0.95 0.79,1.41c-0.26,-0.01 -0.53,-0.02 -0.79,-0.02s-0.53,0.01 -0.79,0.02c0.28,-0.47 0.54,-0.93 0.79,-1.41zm0.53,-29.65c-0.18,0.32 -0.36,0.65 -0.53,0.97c-0.17,-0.32 -0.34,-0.65 -0.53,-0.97c-0.11,-0.2 -0.24,-0.39 -0.36,-0.59c0.3,0.01 0.59,0.02 0.89,0.02s0.59,-0.01 0.89,-0.02c-0.12,0.2 -0.25,0.39 -0.36,0.59zm-0.53,-53.76c12.46,0 22.6,10.14 22.6,22.6s-10.14,22.6 -22.6,22.6s-22.6,-10.14 -22.6,-22.6s10.14,-22.6 22.6,-22.6zm-32.88,90.89c-5.83,-1.56 -10.7,-5.3 -13.72,-10.53s-3.82,-11.32 -2.26,-17.15s5.3,-10.7 10.53,-13.72c3.48,-2.01 7.35,-3.04 11.26,-3.04c1.96,0 3.94,0.26 5.89,0.78c5.83,1.56 10.7,5.3 13.72,10.53c3.02,5.23 3.82,11.32 2.26,17.15c-1.56,5.83 -5.3,10.7 -10.53,13.72c-5.23,3.02 -11.32,3.82 -17.15,2.26zm32.88,47.11c-12.46,0 -22.6,-10.14 -22.6,-22.6s10.14,-22.6 22.6,-22.6s22.6,10.14 22.6,22.6s-10.14,22.6 -22.6,22.6zm46.6,-57.64c-3.02,5.23 -7.89,8.97 -13.72,10.53c-5.83,1.56 -11.92,0.76 -17.15,-2.26c-5.23,-3.02 -8.97,-7.89 -10.53,-13.72c-1.56,-5.83 -0.76,-11.92 2.26,-17.15c3.02,-5.23 7.89,-8.97 13.72,-10.53c1.95,-0.52 3.92,-0.78 5.89,-0.78c3.92,0 7.78,1.03 11.26,3.04c5.23,3.02 8.97,7.89 10.53,13.72s0.76,11.92 -2.26,17.15z" stroke-width="5" stroke-miterlimit="10" stroke-dasharray=""></path></g></svg>