<svg data-v-9833e8b2="" version="1.1" xmlns="http://www.w3.org/2000/svg" xmlns:xlink="http://www.w3.org/1999/xlink" width="14.5" height="25"><g data-v-9833e8b2=""><path data-v-9833e8b2="" transform="scale(0.16778523489932887)" fill="none" stroke="currentColor" paint-order="fill stroke markers" d="m75,62l-31,0l0,-57c0,-2.21 -1.79,-4 -4,-4s-4,1.79 -4,4l0,57l-31,0c-2.21,0 -4,1.79 -4,4s1.79,4 4,4l70,0c2.21,0 4,-1.79 4,-4s-1.79,-4 -4,-4z" stroke-width="5" stroke-miterlimit="10" stroke-dasharray=""></path><path data-v-9833e8b2="" transform="scale(0.16778523489932887)" fill="none" stroke="currentColor" paint-order="fill stroke markers" d="m75,79l-70,0c-2.21,0 -4,1.79 -4,4s1.79,4 4,4l31,0l0,57c0,2.21 1.79,4 4,4s4,-1.79 4,-4l0,-57l31,0c2.21,0 4,-1.79 4,-4s-1.79,-4 -4,-4z" stroke-width="5" stroke-miterlimit="10" stroke-dasharray=""></path></g></svg>