<svg data-v-9833e8b2="" version="1.1" xmlns="http://www.w3.org/2000/svg" xmlns:xlink="http://www.w3.org/1999/xlink" width="25" height="15"><g data-v-9833e8b2=""><path data-v-9833e8b2="" transform="scale(0.15337423312883436)" fill="none" stroke="currentColor" paint-order="fill stroke markers" d="m158,22l-72.5,0l0,-17c0,-2.21 -1.79,-4 -4,-4s-4,1.79 -4,4l0,17l-72.5,0c-2.21,0 -4,1.79 -4,4s1.79,4 4,4l153,0c2.21,0 4,-1.79 4,-4s-1.79,-4 -4,-4z" stroke-width="5" stroke-miterlimit="10" stroke-dasharray=""></path><path data-v-9833e8b2="" transform="scale(0.15337423312883436)" fill="none" stroke="currentColor" paint-order="fill stroke markers" d="m158,66l-153,0c-2.21,0 -4,1.79 -4,4s1.79,4 4,4l72.5,0l0,17c0,2.21 1.79,4 4,4s4,-1.79 4,-4l0,-17l72.5,0c2.21,0 4,-1.79 4,-4s-1.79,-4 -4,-4z" stroke-width="5" stroke-miterlimit="10" stroke-dasharray=""></path></g></svg>