<svg data-v-9833e8b2="" version="1.1" xmlns="http://www.w3.org/2000/svg" xmlns:xlink="http://www.w3.org/1999/xlink" width="22" height="25"><g data-v-9833e8b2=""><path data-v-9833e8b2="" transform="scale(0.15432098765432098)" fill="none" stroke="currentColor" paint-order="fill stroke markers" d="m119.31,85.68l-19.58,-0.03l-9.82,-16.94c-1.11,-1.91 -3.56,-2.56 -5.47,-1.46c-1.91,1.11 -2.56,3.56 -1.46,5.47l9.81,16.93l-9.75,16.88c-1.1,1.91 -0.45,4.36 1.46,5.46c0.63,0.36 1.32,0.54 2,0.54c1.38,0 2.73,-0.72 3.47,-2l9.75,-16.88l19.56,0.03c0,0 0,0 0.01,0c2.21,0 4,-1.79 4,-3.99c0.01,-2.21 -1.77,-4.01 -3.98,-4.01z" stroke-width="5" stroke-miterlimit="10" stroke-dasharray=""></path><path data-v-9833e8b2="" transform="scale(0.15432098765432098)" fill="none" stroke="currentColor" paint-order="fill stroke markers" d="m60.94,110.76c-1.1,-1.91 -3.54,-2.58 -5.46,-1.47l-16.97,9.76l-16.97,-9.76c-1.92,-1.1 -4.36,-0.44 -5.46,1.47c-1.1,1.92 -0.44,4.36 1.47,5.46l16.96,9.75l0,19.5c0,2.21 1.79,4 4,4s4,-1.79 4,-4l0,-19.5l16.96,-9.75c1.91,-1.1 2.57,-3.54 1.47,-5.46z" stroke-width="5" stroke-miterlimit="10" stroke-dasharray=""></path><path data-v-9833e8b2="" transform="scale(0.15432098765432098)" fill="none" stroke="currentColor" paint-order="fill stroke markers" d="m60.46,62.77l-16.96,-9.75l0,-19.5c0,-2.21 -1.79,-4 -4,-4s-4,1.79 -4,4l0,19.5l-16.96,9.75c-1.92,1.1 -2.57,3.55 -1.47,5.46c0.74,1.29 2.09,2.01 3.47,2.01c0.68,0 1.36,-0.17 1.99,-0.53l16.97,-9.76l16.97,9.76c1.92,1.1 4.36,0.44 5.46,-1.47c1.11,-1.92 0.45,-4.36 -1.47,-5.47z" stroke-width="5" stroke-miterlimit="10" stroke-dasharray=""></path><path data-v-9833e8b2="" transform="scale(0.15432098765432098)" fill="none" stroke="currentColor" paint-order="fill stroke markers" d="m133.73,79.79c-2.59,-9.68 -8.8,-17.76 -17.47,-22.77c-8.67,-5.01 -18.78,-6.34 -28.46,-3.75c-3.93,1.05 -7.59,2.71 -10.9,4.88c0.06,-0.88 0.1,-1.76 0.1,-2.66c0,-19.36 -14.75,-35.34 -33.6,-37.3l0,-13.19c0,-2.21 -1.79,-4 -4,-4s-4,1.79 -4,4l0,13.23c-18.75,2.05 -33.4,17.98 -33.4,37.27c0,14.84 8.67,27.7 21.21,33.77c-13.07,5.86 -22.21,18.99 -22.21,34.23c0,20.68 16.82,37.5 37.5,37.5s37.5,-16.82 37.5,-37.5c0,-1.14 -0.06,-2.27 -0.16,-3.39c0.94,0.66 1.91,1.29 2.91,1.87c5.78,3.34 12.19,5.04 18.69,5.04c3.26,0 6.54,-0.43 9.77,-1.29c9.68,-2.59 17.76,-8.8 22.77,-17.47c5.01,-8.68 6.34,-18.79 3.75,-28.47zm-123.73,-24.29c0,-16.27 13.23,-29.5 29.5,-29.5s29.5,13.23 29.5,29.5s-13.23,29.5 -29.5,29.5s-29.5,-13.23 -29.5,-29.5zm50.09,31.32c-0.14,2.02 -0.12,4.06 0.07,6.09c-1.69,-1.2 -3.48,-2.28 -5.37,-3.19c1.85,-0.82 3.62,-1.79 5.3,-2.9zm-21.59,66.18c-16.27,0 -29.5,-13.23 -29.5,-29.5s13.24,-29.5 29.5,-29.5s29.5,13.23 29.5,29.5s-13.23,29.5 -29.5,29.5zm84.55,-48.75c-3.94,6.82 -10.3,11.71 -17.91,13.75c-7.61,2.04 -15.56,0.99 -22.39,-2.95c-14.09,-8.13 -18.93,-26.21 -10.8,-40.3c5.46,-9.45 15.39,-14.74 25.6,-14.74c5,0 10.07,1.27 14.7,3.95c6.82,3.94 11.71,10.3 13.75,17.91s0.99,15.56 -2.95,22.38z" stroke-width="5" stroke-miterlimit="10" stroke-dasharray=""></path></g></svg>