<svg data-v-9833e8b2="" version="1.1" xmlns="http://www.w3.org/2000/svg" xmlns:xlink="http://www.w3.org/1999/xlink" width="24.5" height="25">
  <g data-v-9833e8b2="">
    <path data-v-9833e8b2="" transform="scale(0.24752475247524752)" fill="currentColor" d="m37.9989,100.0089c-1.03,0 -2.07,-0.4 -2.85,-1.2c-1.55,-1.57 -1.53,-4.11 0.05,-5.66l43.36,-42.65l-43.36,-42.64c-1.58,-1.55 -1.6,-4.08 -0.05,-5.66c1.55,-1.58 4.08,-1.6 5.66,-0.05l49.16,48.35l-49.17,48.36c-0.77,0.77 -1.79,1.15 -2.8,1.15z" />
    <path data-v-9833e8b2="" transform="scale(0.24752475247524752)" fill="currentColor" d="m4.9989,100.0089c-1.03,0 -2.07,-0.4 -2.85,-1.2c-1.55,-1.57 -1.53,-4.11 0.05,-5.66l43.36,-42.65l-43.36,-42.64c-1.58,-1.55 -1.6,-4.08 -0.05,-5.66c1.55,-1.58 4.08,-1.6 5.66,-0.05l49.16,48.35l-49.17,48.36c-0.77,0.77 -1.79,1.15 -2.8,1.15z" />
  </g>
</svg>