<svg data-v-9833e8b2="" version="1.1" xmlns="http://www.w3.org/2000/svg" xmlns:xlink="http://www.w3.org/1999/xlink" width="9.5" height="25"><g data-v-9833e8b2=""><path data-v-9833e8b2="" transform="scale(0.1488095238095238)" fill="none" stroke="currentColor" paint-order="fill stroke markers" d="m37.7,147.59999l1,0l0,19.8l-1,0l0,-19.8z" stroke-width="5" stroke-miterlimit="10" stroke-dasharray=""></path><path data-v-9833e8b2="" transform="scale(0.1488095238095238)" fill="none" stroke="currentColor" paint-order="fill stroke markers" d="m27.72754,131.23193l0.8584,-0.513l10.1061,16.91048l-0.8584,0.513l-10.1061,-16.91048z" stroke-width="5" stroke-miterlimit="10" stroke-dasharray=""></path><path data-v-9833e8b2="" transform="scale(0.1488095238095238)" fill="none" stroke="currentColor" paint-order="fill stroke markers" d="m37.7,121.5l1,0l0,13.6l-1,0l0,-13.6z" stroke-width="5" stroke-miterlimit="10" stroke-dasharray=""></path><path data-v-9833e8b2="" transform="scale(0.1488095238095238)" fill="none" stroke="currentColor" paint-order="fill stroke markers" d="m38.2,133.7c-3.2,0 -5.8,-2.6 -5.8,-5.8s2.6,-5.8 5.8,-5.8l0,1c-2.6,0 -4.8,2.2 -4.8,4.8s2.2,4.8 4.8,4.8l0,1z" stroke-width="5" stroke-miterlimit="10" stroke-dasharray=""></path><path data-v-9833e8b2="" transform="scale(0.1488095238095238)" fill="none" stroke="currentColor" paint-order="fill stroke markers" d="m46.9,109.1c0,-5 -4,-9 -9,-9l0,1c4.4,0 8,3.6 8,8c0,4.1 -3.2,7.6 -7.2,8l0,-8l0,-0.2l0,-0.8l-9.8,0l0,1c0,4.9 3.9,8.9 8.8,9l0,3.3l0,0.1l1,0l0,-0.1l0,-3.3c4.6,-0.4 8.2,-4.3 8.2,-9zm-17,0l7.8,0l0,8c-4.3,-0.1 -7.8,-3.7 -7.8,-8z" stroke-width="5" stroke-miterlimit="10" stroke-dasharray=""></path><path data-v-9833e8b2="" transform="scale(0.1488095238095238)" fill="none" stroke="currentColor" paint-order="fill stroke markers" d="m3.9,77.9l4.1,0l0,1l-4.1,0l0,-1z" stroke-width="5" stroke-miterlimit="10" stroke-dasharray=""></path><path data-v-9833e8b2="" transform="scale(0.1488095238095238)" fill="none" stroke="currentColor" paint-order="fill stroke markers" d="m2.9,75.19999l6.2,0l0,1l-6.2,0l0,-1z" stroke-width="5" stroke-miterlimit="10" stroke-dasharray=""></path><path data-v-9833e8b2="" transform="scale(0.1488095238095238)" fill="none" stroke="currentColor" paint-order="fill stroke markers" d="m6.5,72.4l0,-11.4l3.2,0l0,-1l-4.2,0l0,0.2l0,0.8l0,11.4l-4.5,0l0,1l10,0l0,-1l-4.5,0z" stroke-width="5" stroke-miterlimit="10" stroke-dasharray=""></path><path data-v-9833e8b2="" transform="scale(0.1488095238095238)" fill="none" stroke="currentColor" paint-order="fill stroke markers" d="m21.5,59.8l5.6,-3.1l0,6.2l-5.6,-3.1z" stroke-width="5" stroke-miterlimit="10" stroke-dasharray=""></path><path data-v-9833e8b2="" transform="scale(0.1488095238095238)" fill="none" stroke="currentColor" paint-order="fill stroke markers" d="m27.2,59.3l11.2,0l0,1l-11.2,0l0,-1z" stroke-width="5" stroke-miterlimit="10" stroke-dasharray=""></path><path data-v-9833e8b2="" transform="scale(0.1488095238095238)" fill="none" stroke="currentColor" paint-order="fill stroke markers" d="m10.1,54.9l24,0l0,10.1l-24,0l0,-10.1z" stroke-width="5" stroke-miterlimit="10" stroke-dasharray=""></path><path data-v-9833e8b2="" transform="scale(0.1488095238095238)" fill="none" stroke="currentColor" paint-order="fill stroke markers" d="m29.5,69l17,0l0,23.6l-17,0l0,-23.6z" stroke-width="5" stroke-miterlimit="10" stroke-dasharray=""></path><path data-v-9833e8b2="" transform="scale(0.1488095238095238)" fill="none" stroke="currentColor" paint-order="fill stroke markers" d="m37.5,26.7l1,0l0,74.5l-1,0l0,-74.5z" stroke-width="5" stroke-miterlimit="10" stroke-dasharray=""></path><path data-v-9833e8b2="" transform="scale(0.1488095238095238)" fill="none" stroke="currentColor" paint-order="fill stroke markers" d="m27.63051,10.4445l0.8584,-0.513l10.1061,16.91048l-0.8584,0.513l-10.1061,-16.91048z" stroke-width="5" stroke-miterlimit="10" stroke-dasharray=""></path><path data-v-9833e8b2="" transform="scale(0.1488095238095238)" fill="none" stroke="currentColor" paint-order="fill stroke markers" d="m39.4,13.1l3.5,2l-0.3,0.4l-3.8,-2.2l-3.7,2.3l-0.3,-0.4l3.5,-2l-3.5,-2l0.3,-0.4l3.8,2.2l3.8,-2.2l0.3,0.4l-3.6,1.9z" stroke-width="5" stroke-miterlimit="10" stroke-dasharray=""></path><path data-v-9833e8b2="" transform="scale(0.1488095238095238)" fill="none" stroke="currentColor" paint-order="fill stroke markers" d="m38.39999,1l1,0l0,11.9l-1,0l0,-11.9z" stroke-width="5" stroke-miterlimit="10" stroke-dasharray=""></path></g></svg>