<svg data-v-9833e8b2="" version="1.1" xmlns="http://www.w3.org/2000/svg" xmlns:xlink="http://www.w3.org/1999/xlink" width="17" height="25"><g data-v-9833e8b2=""><path data-v-9833e8b2="" transform="scale(0.13089005235602094)" fill="none" stroke="currentColor" paint-order="fill stroke markers" d="m45.5,1l27.8,0l0,16.7l-27.8,0l0,-16.7l0,0z" stroke-width="5" stroke-miterlimit="10" stroke-dasharray=""></path><path data-v-9833e8b2="" transform="scale(0.13089005235602094)" fill="none" stroke="currentColor" paint-order="fill stroke markers" d="m48.3,167.8l22.2,0l-5.6,22.2l-11.1,0l-5.5,-22.2l0,0z" stroke-width="5" stroke-miterlimit="10" stroke-dasharray=""></path><path data-v-9833e8b2="" transform="scale(0.13089005235602094)" fill="none" stroke="currentColor" paint-order="fill stroke markers" d="m14.9,156.7l16.7,11.1l-8.3,22.2l-11.2,0l2.8,-33.3l0,0z" stroke-width="5" stroke-miterlimit="10" stroke-dasharray=""></path><path data-v-9833e8b2="" transform="scale(0.13089005235602094)" fill="none" stroke="currentColor" paint-order="fill stroke markers" d="m103.9,156.7l2.8,33.4l-11.1,0l-8.3,-22.2l16.6,-11.2l0,0z" stroke-width="5" stroke-miterlimit="10" stroke-dasharray=""></path><path data-v-9833e8b2="" transform="scale(0.13089005235602094)" fill="none" stroke="currentColor" paint-order="fill stroke markers" d="m39.9,12.1l38.9,0c21.5,0 38.9,17.4 38.9,38.9l0,88.9c0,21.5 -17.4,38.9 -38.9,38.9l-38.9,0c-21.5,0 -38.9,-17.4 -38.9,-38.9l0,-88.9c0,-21.5 17.5,-38.9 38.9,-38.9l0,0z" stroke-width="5" stroke-miterlimit="10" stroke-dasharray=""></path><path data-v-9833e8b2="" transform="scale(0.13089005235602094)" fill="none" stroke="currentColor" paint-order="fill stroke markers" d="m1,51l116.7,0l0,88.9l-116.7,0l0,-88.9l0,0z" stroke-width="5" stroke-miterlimit="10" stroke-dasharray=""></path><path data-v-9833e8b2="" transform="scale(0.13089005235602094)" fill="none" stroke="currentColor" paint-order="fill stroke markers" d="m59.4,67.7c12.3,0 22.2,10 22.2,22.2c0,12.3 -10,22.2 -22.2,22.2c-12.3,0 -22.2,-10 -22.2,-22.2c0,-12.2 9.9,-22.2 22.2,-22.2l0,0z" stroke-width="5" stroke-miterlimit="10" stroke-dasharray=""></path></g></svg>