<svg data-v-9833e8b2="" version="1.1" xmlns="http://www.w3.org/2000/svg" xmlns:xlink="http://www.w3.org/1999/xlink" width="25" height="12.5"><g data-v-9833e8b2=""><path data-v-9833e8b2="" transform="scale(0.06157635467980296)" fill="none" stroke="currentColor" paint-order="fill stroke markers" d="m68.38281,197.81093l-58.59375,0c-3.23639,0 -5.85938,-2.62451 -5.85938,-5.85938l0,-121.09376c0,-3.23639 2.62298,-5.85938 5.85938,-5.85938l58.59375,0c3.23639,0 5.85938,2.62298 5.85938,5.85938l0,121.09376c0,3.23486 -2.62298,5.85938 -5.85938,5.85938zm0,0" stroke-width="5" stroke-miterlimit="10" stroke-dasharray=""></path><path data-v-9833e8b2="" transform="scale(0.06157635467980296)" fill="none" stroke="currentColor" paint-order="fill stroke markers" d="m62.52343,161.09218c0,12.94403 -10.49347,23.4375 -23.4375,23.4375s-23.4375,-10.49347 -23.4375,-23.4375c0,-12.94556 10.49347,-23.4375 23.4375,-23.4375s23.4375,10.49194 23.4375,23.4375zm0,0" stroke-width="5" stroke-miterlimit="10" stroke-dasharray=""></path><path data-v-9833e8b2="" transform="scale(0.06157635467980296)" fill="none" stroke="currentColor" paint-order="fill stroke markers" d="m50.80468,161.09218c0,6.47125 -5.24597,11.71875 -11.71875,11.71875s-11.71875,-5.2475 -11.71875,-11.71875c0,-6.47278 5.24597,-11.71875 11.71875,-11.71875s11.71875,5.24597 11.71875,11.71875zm0,0" stroke-width="5" stroke-miterlimit="10" stroke-dasharray=""></path><path data-v-9833e8b2="" transform="scale(0.06157635467980296)" fill="none" stroke="currentColor" paint-order="fill stroke markers" d="m192.21094,197.81093l-58.59375,0c-3.23639,0 -5.85938,-2.62451 -5.85938,-5.85938l0,-121.09376c0,-3.23639 2.62298,-5.85938 5.85938,-5.85938l58.59375,0c3.23639,0 5.85938,2.62298 5.85938,5.85938l0,121.09376c0,3.23486 -2.62298,5.85938 -5.85938,5.85938zm0,0" stroke-width="5" stroke-miterlimit="10" stroke-dasharray=""></path><path data-v-9833e8b2="" transform="scale(0.06157635467980296)" fill="none" stroke="currentColor" paint-order="fill stroke markers" d="m186.35157,161.09218c0,12.94403 -10.49347,23.4375 -23.4375,23.4375s-23.4375,-10.49347 -23.4375,-23.4375c0,-12.94556 10.49347,-23.4375 23.4375,-23.4375s23.4375,10.49194 23.4375,23.4375zm0,0" stroke-width="5" stroke-miterlimit="10" stroke-dasharray=""></path><path data-v-9833e8b2="" transform="scale(0.06157635467980296)" fill="none" stroke="currentColor" paint-order="fill stroke markers" d="m174.63282,161.09218c0,6.47125 -5.24597,11.71875 -11.71875,11.71875s-11.71875,-5.2475 -11.71875,-11.71875c0,-6.47278 5.24597,-11.71875 11.71875,-11.71875s11.71875,5.24597 11.71875,11.71875zm0,0" stroke-width="5" stroke-miterlimit="10" stroke-dasharray=""></path><path data-v-9833e8b2="" transform="scale(0.06157635467980296)" fill="none" stroke="currentColor" paint-order="fill stroke markers" d="m106.53436,9.78906c0,3.23639 -2.62298,5.85938 -5.85938,5.85938c-3.23639,0 -5.85938,-2.62298 -5.85938,-5.85938s2.62298,-5.85938 5.85938,-5.85938c3.23639,0 5.85938,2.62298 5.85938,5.85938zm0,0" stroke-width="5" stroke-miterlimit="10" stroke-dasharray=""></path><path data-v-9833e8b2="" transform="scale(0.06157635467980296)" fill="none" stroke="currentColor" paint-order="fill stroke markers" d="m68.38281,186.09218l-58.59375,0c-3.23639,0 -5.85938,-2.62451 -5.85938,-5.85938l0,11.71875c0,3.23486 2.62298,5.85938 5.85938,5.85938l58.59375,0c3.23639,0 5.85938,-2.62451 5.85938,-5.85938l0,-11.71875c0,3.23486 -2.62298,5.85938 -5.85938,5.85938zm0,0" stroke-width="5" stroke-miterlimit="10" stroke-dasharray=""></path><path data-v-9833e8b2="" transform="scale(0.06157635467980296)" fill="none" stroke="currentColor" paint-order="fill stroke markers" d="m192.21094,186.09218l-58.59375,0c-3.23639,0 -5.85938,-2.62451 -5.85938,-5.85938l0,11.71875c0,3.23486 2.62298,5.85938 5.85938,5.85938l58.59375,0c3.23639,0 5.85938,-2.62451 5.85938,-5.85938l0,-11.71875c0,3.23486 -2.62298,5.85938 -5.85938,5.85938zm0,0" stroke-width="5" stroke-miterlimit="10" stroke-dasharray=""></path><path data-v-9833e8b2="" transform="scale(0.06157635467980296)" fill="none" stroke="currentColor" paint-order="fill stroke markers" d="m68.38281,62.06873l-58.59375,0c-4.84619,0 -8.78906,3.94287 -8.78906,8.78906l0,121.09376c0,4.84466 3.94287,8.78906 8.78906,8.78906l58.59375,0c4.84619,0 8.78906,-3.9444 8.78906,-8.78906l0,-121.09376c0,-4.84772 -3.94287,-8.78906 -8.78906,-8.78906zm2.92969,129.88282c0,1.61438 -1.31378,2.92969 -2.92969,2.92969l-58.59375,0c-1.61591,0 -2.92969,-1.31531 -2.92969,-2.92969l0,-121.09376c0,-1.61591 1.31378,-2.92969 2.92969,-2.92969l58.59375,0c1.61591,0 2.92969,1.31378 2.92969,2.92969l0,121.09376zm0,0" stroke-width="5" stroke-miterlimit="10" stroke-dasharray=""></path><path data-v-9833e8b2="" transform="scale(0.06157635467980296)" fill="none" stroke="currentColor" paint-order="fill stroke markers" d="m61.49346,134.54035l-5.96313,5.96314c-4.51202,-3.61176 -10.22797,-5.7785 -16.4444,-5.7785s-11.93237,2.16675 -16.4444,5.7785l-5.96313,-5.96314l-4.14276,4.14276l5.96161,5.96314c-3.61175,4.51202 -5.7785,10.22949 -5.7785,16.44592c0,6.2149 2.16675,11.93237 5.7785,16.4444l-5.96161,5.96161l4.14276,4.14429l5.96313,-5.96314c4.51203,3.61176 10.22797,5.7785 16.4444,5.7785c6.21491,0 11.93238,-2.16675 16.4444,-5.7785l5.96313,5.96314l4.14276,-4.14429l-5.96313,-5.96161c3.61328,-4.51355 5.78003,-10.22949 5.78003,-16.4444c0,-6.21643 -2.16675,-11.9339 -5.7785,-16.44593l5.96161,-5.96313l-4.14276,-4.14276l-0.00001,0zm-22.40753,6.04401c4.599,0 8.8501,1.5213 12.2757,4.08936l-4.2038,4.20227c-2.31628,-1.53504 -5.09033,-2.43225 -8.0719,-2.43225s-5.75561,0.89721 -8.0719,2.43225l-4.2038,-4.2038c3.4256,-2.56653 7.6767,-4.08783 12.2757,-4.08783zm8.78906,20.50781c0,1.35498 -0.30823,2.63824 -0.85907,3.7857l-3.7857,-3.7857l3.7857,-3.78723c0.55084,1.14746 0.85907,2.43073 0.85907,3.78723zm-8.78906,-4.14429l-3.78723,-3.78723c1.14746,-0.54932 2.43225,-0.85754 3.78723,-0.85754s2.63977,0.30823 3.78723,0.85754l-3.78723,3.78723zm3.78723,12.07428c-1.14746,0.54932 -2.43225,0.85907 -3.78723,0.85907s-2.63977,-0.30975 -3.78723,-0.85907l3.78723,-3.78723l3.78723,3.78723zm-7.92999,-7.92999l-3.78723,3.7857c-0.55084,-1.14746 -0.85907,-2.43072 -0.85907,-3.7857c0,-1.35651 0.30823,-2.63977 0.85907,-3.78723l3.78723,3.78723zm-16.36505,0c0,-4.60053 1.52283,-8.85163 4.08936,-12.2757l4.20227,4.20227c-1.53503,2.31629 -2.43225,5.09033 -2.43225,8.07343c0,2.98157 0.89722,5.75561 2.43378,8.0719l-4.2038,4.20227c-2.56653,-3.4256 -4.08936,-7.67517 -4.08936,-12.27417zm20.50781,20.50781c-4.599,0 -8.8501,-1.52283 -12.27417,-4.09088l4.20227,-4.20227c2.31629,1.53504 5.09033,2.43225 8.0719,2.43225s5.75562,-0.89721 8.0719,-2.43225l4.2038,4.20227c-3.4256,2.56805 -7.6767,4.09088 -12.2757,4.09088zm16.41846,-8.23365l-4.2038,-4.2038c1.53656,-2.31628 2.43378,-5.09033 2.43378,-8.0719c0,-2.98157 -0.89721,-5.75561 -2.43378,-8.0719l4.2038,-4.20227c2.56653,3.42407 4.08936,7.67517 4.08936,12.2757c0,4.599 -1.52283,8.84857 -4.08936,12.27417zm0,0" stroke-width="5" stroke-miterlimit="10" stroke-dasharray=""></path><path data-v-9833e8b2="" transform="scale(0.06157635467980296)" fill="none" stroke="currentColor" paint-order="fill stroke markers" d="m15.64843,88.10938l46.875,0l0,5.85938l-46.875,0l0,-5.85938zm0,0" stroke-width="5" stroke-miterlimit="10" stroke-dasharray=""></path><path data-v-9833e8b2="" transform="scale(0.06157635467980296)" fill="none" stroke="currentColor" paint-order="fill stroke markers" d="m15.64843,100.08906l46.875,0l0,5.85938l-46.875,0l0,-5.85938zm0,0" stroke-width="5" stroke-miterlimit="10" stroke-dasharray=""></path><path data-v-9833e8b2="" transform="scale(0.06157635467980296)" fill="none" stroke="currentColor" paint-order="fill stroke markers" d="m15.64843,112.06874l46.875,0l0,5.85938l-46.875,0l0,-5.85938zm0,0" stroke-width="5" stroke-miterlimit="10" stroke-dasharray=""></path><path data-v-9833e8b2="" transform="scale(0.06157635467980296)" fill="none" stroke="currentColor" paint-order="fill stroke markers" d="m192.21094,62.06873l-58.59375,0c-4.84619,0 -8.78906,3.94287 -8.78906,8.78906l0,121.09376c0,4.84466 3.94287,8.78906 8.78906,8.78906l58.59375,0c4.84619,0 8.78906,-3.9444 8.78906,-8.78906l0,-121.09376c0,-4.84772 -3.94287,-8.78906 -8.78906,-8.78906zm2.92969,129.88282c0,1.61438 -1.31378,2.92969 -2.92969,2.92969l-58.59375,0c-1.61591,0 -2.92969,-1.31531 -2.92969,-2.92969l0,-121.09376c0,-1.61591 1.31378,-2.92969 2.92969,-2.92969l58.59375,0c1.61591,0 2.92969,1.31378 2.92969,2.92969l0,121.09376zm0,0" stroke-width="5" stroke-miterlimit="10" stroke-dasharray=""></path><path data-v-9833e8b2="" transform="scale(0.06157635467980296)" fill="none" stroke="currentColor" paint-order="fill stroke markers" d="m185.3216,134.54035l-5.96313,5.96314c-4.51202,-3.61176 -10.22797,-5.7785 -16.4444,-5.7785s-11.93237,2.16675 -16.4444,5.7785l-5.96313,-5.96314l-4.14276,4.14276l5.96314,5.96314c-3.61328,4.51202 -5.78003,10.22949 -5.78003,16.44592c0,6.2149 2.16675,11.93237 5.7785,16.4444l-5.96161,5.96161l4.14276,4.14429l5.96313,-5.96314c4.51203,3.61176 10.22797,5.7785 16.4444,5.7785c6.21491,0 11.93238,-2.16675 16.4444,-5.7785l5.96313,5.96314l4.14276,-4.14429l-5.96313,-5.96161c3.61328,-4.51355 5.78003,-10.22949 5.78003,-16.4444c0,-6.21643 -2.16675,-11.9339 -5.7785,-16.44593l5.96161,-5.96313l-4.14276,-4.14276l-0.00001,0zm-22.40753,6.04401c4.599,0 8.8501,1.5213 12.2757,4.08936l-4.2038,4.20227c-2.31628,-1.53504 -5.09033,-2.43225 -8.0719,-2.43225s-5.75561,0.89721 -8.0719,2.43225l-4.2038,-4.2038c3.4256,-2.56653 7.6767,-4.08783 12.2757,-4.08783zm8.78906,20.50781c0,1.35498 -0.30823,2.63824 -0.85907,3.7857l-3.7857,-3.7857l3.7857,-3.78723c0.55084,1.14746 0.85907,2.43073 0.85907,3.78723zm-8.78906,-4.14429l-3.78723,-3.78723c1.14746,-0.54932 2.43225,-0.85754 3.78723,-0.85754s2.63977,0.30823 3.78723,0.85754l-3.78723,3.78723zm3.78723,12.07428c-1.14746,0.54932 -2.43225,0.85907 -3.78723,0.85907s-2.63977,-0.30975 -3.78723,-0.85907l3.78723,-3.78723l3.78723,3.78723zm-7.92999,-7.92999l-3.78723,3.7857c-0.55084,-1.14746 -0.85907,-2.43072 -0.85907,-3.7857c0,-1.35651 0.30823,-2.63977 0.85907,-3.78723l3.78723,3.78723zm-16.36505,0c0,-4.60053 1.52283,-8.85163 4.08936,-12.2757l4.20227,4.20227c-1.53503,2.31629 -2.43225,5.09186 -2.43225,8.07343c0,2.98004 0.89722,5.75561 2.43225,8.0719l-4.20227,4.20227c-2.56653,-3.4256 -4.08936,-7.67517 -4.08936,-12.27417zm20.50781,20.50781c-4.599,0 -8.8501,-1.52283 -12.27417,-4.09088l4.20227,-4.20227c2.31629,1.53504 5.09033,2.43225 8.0719,2.43225s5.75562,-0.89721 8.0719,-2.43225l4.2038,4.20227c-3.4256,2.56805 -7.6767,4.09088 -12.2757,4.09088zm16.41846,-8.23365l-4.2038,-4.2038c1.53656,-2.31628 2.43378,-5.09033 2.43378,-8.0719c0,-2.98157 -0.89721,-5.75561 -2.43378,-8.0719l4.2038,-4.20227c2.56653,3.42407 4.08936,7.67517 4.08936,12.2757c0,4.599 -1.52283,8.84857 -4.08936,12.27417zm0,0" stroke-width="5" stroke-miterlimit="10" stroke-dasharray=""></path><path data-v-9833e8b2="" transform="scale(0.06157635467980296)" fill="none" stroke="currentColor" paint-order="fill stroke markers" d="m139.47656,88.10938l46.875,0l0,5.85938l-46.875,0l0,-5.85938zm0,0" stroke-width="5" stroke-miterlimit="10" stroke-dasharray=""></path><path data-v-9833e8b2="" transform="scale(0.06157635467980296)" fill="none" stroke="currentColor" paint-order="fill stroke markers" d="m139.47656,100.08906l46.875,0l0,5.85938l-46.875,0l0,-5.85938zm0,0" stroke-width="5" stroke-miterlimit="10" stroke-dasharray=""></path><path data-v-9833e8b2="" transform="scale(0.06157635467980296)" fill="none" stroke="currentColor" paint-order="fill stroke markers" d="m139.47656,112.06874l46.875,0l0,5.85938l-46.875,0l0,-5.85938zm0,0" stroke-width="5" stroke-miterlimit="10" stroke-dasharray=""></path><path data-v-9833e8b2="" transform="scale(0.06157635467980296)" fill="none" stroke="currentColor" paint-order="fill stroke markers" d="m54.64685,56.40467l5.85938,0l0,-14.77967l32.09534,0l0,-5.85938l-37.95471,0l0,20.63904l-0.00001,0.00001zm0,0" stroke-width="5" stroke-miterlimit="10" stroke-dasharray=""></path><path data-v-9833e8b2="" transform="scale(0.06157635467980296)" fill="none" stroke="currentColor" paint-order="fill stroke markers" d="m98.46093,35.76563l5.85938,0l0,5.85938l-5.85938,0l0,-5.85938zm0,0" stroke-width="5" stroke-miterlimit="10" stroke-dasharray=""></path><path data-v-9833e8b2="" transform="scale(0.06157635467980296)" fill="none" stroke="currentColor" paint-order="fill stroke markers" d="m98.46093,24.4375l5.85938,0l0,5.85938l-5.85938,0l0,-5.85938zm0,0" stroke-width="5" stroke-miterlimit="10" stroke-dasharray=""></path><path data-v-9833e8b2="" transform="scale(0.06157635467980296)" fill="none" stroke="currentColor" paint-order="fill stroke markers" d="m146.1828,56.40467l5.85938,0l0,-31.96717l-41.86249,0l0,5.85938l36.00312,0l0,26.10779l-0.00001,0zm0,0" stroke-width="5" stroke-miterlimit="10" stroke-dasharray=""></path><path data-v-9833e8b2="" transform="scale(0.06157635467980296)" fill="none" stroke="currentColor" paint-order="fill stroke markers" d="m177.4328,56.40467l5.85938,0l0,-49.54377l-41.47339,0l0,5.85938l35.61402,0l0,43.68439l-0.00001,0zm0,0" stroke-width="5" stroke-miterlimit="10" stroke-dasharray=""></path><path data-v-9833e8b2="" transform="scale(0.06157635467980296)" fill="none" stroke="currentColor" paint-order="fill stroke markers" d="m130.10004,6.8609l5.85938,0l0,5.85938l-5.85938,0l0,-5.85938zm0,0" stroke-width="5" stroke-miterlimit="10" stroke-dasharray=""></path><path data-v-9833e8b2="" transform="scale(0.06157635467980296)" fill="none" stroke="currentColor" paint-order="fill stroke markers" d="m118.38128,6.8609l5.85938,0l0,5.85938l-5.85938,0l0,-5.85938zm0,0" stroke-width="5" stroke-miterlimit="10" stroke-dasharray=""></path><path data-v-9833e8b2="" transform="scale(0.06157635467980296)" fill="none" stroke="currentColor" paint-order="fill stroke markers" d="m27.43279,12.72028l32.09687,0l0,-5.85938l-37.95624,0l0,49.54377l5.85938,0l0,-43.68439l-0.00001,0zm0,0" stroke-width="5" stroke-miterlimit="10" stroke-dasharray=""></path><path data-v-9833e8b2="" transform="scale(0.06157635467980296)" fill="none" stroke="currentColor" paint-order="fill stroke markers" d="m77.10778,6.8609l5.85938,0l0,5.85938l-5.85938,0l0,-5.85938zm0,0" stroke-width="5" stroke-miterlimit="10" stroke-dasharray=""></path><path data-v-9833e8b2="" transform="scale(0.06157635467980296)" fill="none" stroke="currentColor" paint-order="fill stroke markers" d="m65.38903,6.8609l5.85938,0l0,5.85938l-5.85938,0l0,-5.85938zm0,0" stroke-width="5" stroke-miterlimit="10" stroke-dasharray=""></path><path data-v-9833e8b2="" transform="scale(0.06157635467980296)" fill="none" stroke="currentColor" paint-order="fill stroke markers" d="m100.67499,1c-4.84619,0 -8.78906,3.94287 -8.78906,8.78906s3.94287,8.78906 8.78906,8.78906s8.78906,-3.94287 8.78906,-8.78906s-3.94287,-8.78906 -8.78906,-8.78906zm0,11.71875c-1.61591,0 -2.92969,-1.31378 -2.92969,-2.92969s1.31378,-2.92969 2.92969,-2.92969s2.92969,1.31378 2.92969,2.92969s-1.31378,2.92969 -2.92969,2.92969zm0,0" stroke-width="5" stroke-miterlimit="10" stroke-dasharray=""></path><path data-v-9833e8b2="" transform="scale(0.06157635467980296)" fill="none" stroke="currentColor" paint-order="fill stroke markers" d="m62.52343,81.99061l-5.85938,0l0,-5.85938l5.85938,0l0,5.85938zm-11.71875,0l-23.4375,0l0,-5.85938l23.4375,0l0,5.85938zm-29.29688,0l-5.85938,0l0,-5.85938l5.85938,0l0,5.85938zm0,0" stroke-width="5" stroke-miterlimit="10" stroke-dasharray=""></path><path data-v-9833e8b2="" transform="scale(0.06157635467980296)" fill="none" stroke="currentColor" paint-order="fill stroke markers" d="m186.35157,81.99061l-5.85938,0l0,-5.85938l5.85938,0l0,5.85938zm-11.71875,0l-23.4375,0l0,-5.85938l23.4375,0l0,5.85938zm-29.29688,0l-5.85938,0l0,-5.85938l5.85938,0l0,5.85938zm0,0" stroke-width="5" stroke-miterlimit="10" stroke-dasharray=""></path><path data-v-9833e8b2="" transform="scale(0.06157635467980296)" fill="none" stroke="currentColor" paint-order="fill stroke markers" d="m218.31249,163.375l40.625,0l0,6.25l-40.625,0l0,-6.25z" stroke-width="5" stroke-miterlimit="10" stroke-dasharray=""></path><path data-v-9833e8b2="" transform="scale(0.06157635467980296)" fill="none" stroke="currentColor" paint-order="fill stroke markers" d="m296.43749,163.375l109.375,0l0,6.25l-109.375,0l0,-6.25z" stroke-width="5" stroke-miterlimit="10" stroke-dasharray=""></path><path data-v-9833e8b2="" transform="scale(0.06157635467980296)" fill="none" stroke="currentColor" paint-order="fill stroke markers" d="m386.74999,123.0625c-14.0625,0.9375 -23.75,4.0625 -33.75,7.1875c-5.9375,1.875 -12.1875,3.75 -19.6875,5.3125c-11.875,2.5 -24.0625,3.4375 -36.875,3.125l-0.3125,6.25c1.875,0 4.0625,0 5.9375,0c10.9375,0 21.875,-1.25 32.1875,-3.4375c7.8125,-1.5625 14.0625,-3.75 20.3125,-5.625c9.6875,-3.125 19.0625,-5.9375 32.5,-6.875c5.9375,-0.3125 12.1875,-0.3125 18.4375,0l0.3125,-6.25c-6.25,0 -12.5,0 -19.0625,0.3125z" stroke-width="5" stroke-miterlimit="10" stroke-dasharray=""></path><path data-v-9833e8b2="" transform="scale(0.06157635467980296)" fill="none" stroke="currentColor" paint-order="fill stroke markers" d="m386.74999,135.5625l0.3125,6.25c5.9375,-0.3125 12.1875,-0.3125 18.4375,0l0.3125,-6.25c-6.25,-0.3125 -12.5,-0.3125 -19.0625,0z" stroke-width="5" stroke-miterlimit="10" stroke-dasharray=""></path><path data-v-9833e8b2="" transform="scale(0.06157635467980296)" fill="none" stroke="currentColor" paint-order="fill stroke markers" d="m354.87499,148.6875c5.625,-1.875 10.9375,-3.4375 17.1875,-4.6875l-1.25,-6.25c-6.5625,1.25 -11.875,3.125 -17.8125,5c-5.9375,1.875 -12.1875,3.75 -19.6875,5.3125c-6.875,1.5625 -14.0625,2.5 -21.5625,2.8125l0.3125,6.25c7.5,-0.3125 15,-1.5625 22.1875,-3.125c8.125,-1.25 14.375,-3.4375 20.625,-5.3125z" stroke-width="5" stroke-miterlimit="10" stroke-dasharray=""></path><path data-v-9833e8b2="" transform="scale(0.06157635467980296)" fill="none" stroke="currentColor" paint-order="fill stroke markers" d="m305.81249,157.4375l0,-6.25c-3.125,0 -6.25,0 -9.0625,0l-0.3125,6.25c1.875,0 4.0625,0 5.9375,0c1.25,0 2.1875,0 3.4375,0z" stroke-width="5" stroke-miterlimit="10" stroke-dasharray=""></path><path data-v-9833e8b2="" transform="scale(0.06157635467980296)" fill="none" stroke="currentColor" paint-order="fill stroke markers" d="m233.93749,135.25c8.125,0.3125 16.5625,1.5625 24.375,3.125l1.25,-6.25c-8.4375,-1.5625 -16.875,-2.8125 -25.625,-3.125c-5.3125,-0.3125 -10.625,-0.3125 -15.9375,0l0.3125,6.25c5.3125,-0.3125 10.3125,-0.3125 15.625,0z" stroke-width="5" stroke-miterlimit="10" stroke-dasharray=""></path><path data-v-9833e8b2="" transform="scale(0.06157635467980296)" fill="none" stroke="currentColor" paint-order="fill stroke markers" d="m249.87499,143.0625l-0.9375,6.25c3.125,0.3125 6.25,0.9375 9.0625,1.5625l1.25,-6.25c-2.8125,-0.3125 -5.9375,-0.9375 -9.375,-1.5625z" stroke-width="5" stroke-miterlimit="10" stroke-dasharray=""></path><path data-v-9833e8b2="" transform="scale(0.06157635467980296)" fill="none" stroke="currentColor" paint-order="fill stroke markers" d="m233.93749,148.0625c0.9375,0 2.1875,0 3.125,0.3125l0.3125,-6.25c-0.9375,0 -2.1875,0 -3.125,-0.3125c-5.3125,-0.3125 -10.9375,-0.3125 -15.9375,0l0.3125,6.25c5,-0.3125 10,-0.3125 15.3125,0z" stroke-width="5" stroke-miterlimit="10" stroke-dasharray=""></path><path data-v-9833e8b2="" transform="scale(0.06157635467980296)" fill="none" stroke="currentColor" paint-order="fill stroke markers" d="m265.18749,110.25l0,59.375c0,0.625 0,0.9375 0.3125,1.25l9.375,18.75c0.625,0.9375 1.5625,1.875 2.8125,1.875s2.1875,-0.625 2.8125,-1.875l9.375,-18.75c0.3125,-0.3125 0.3125,-0.625 0.3125,-1.25l0,-59.375l12.5,0l18.75,0l75,0l9.375,0l0,-6.25l-6.25,0l0,-65.625c0,-1.875 -1.25,-3.125 -3.125,-3.125l-75,0c-1.875,0 -3.125,1.25 -3.125,3.125l0,65.625l-13.125,0l-17.5,-78.125l5.625,0c1.875,0 3.125,-1.25 3.125,-3.125l0,-9.375c0,-5.3125 -4.0625,-9.375 -9.375,-9.375l-18.75,0c-5.3125,0 -9.375,4.0625 -9.375,9.375l0,9.375c0,1.875 1.25,3.125 3.125,3.125l5.625,0l-17.5,78.125l-31.875,0l0,6.25l34.375,0l12.5,0zm6.25,56.25l0,-8.125l12.5,4.0625l0,4.0625l-12.5,0zm0,-14.6875l0,-5.9375l12.5,4.0625l0,5.9375l-12.5,-4.0625zm0,-12.5l0,-5.9375l12.5,4.0625l0,5.9375l-12.5,-4.0625zm12.5,-8.4375l-12.5,-4.0625l0,-5.9375l12.5,4.0625l0,5.9375zm-6.25,50.625l-4.375,-8.75l8.75,0l-4.375,8.75zm6.25,-63.125l-12.5,-4.0625l0,-4.0625l12.5,0l0,8.125zm40.625,-76.875l68.75,0l0,62.5l-68.75,0l0,-62.5zm-59.0625,22.1875l19.375,8.75l-23.125,8.4375l3.75,-17.1875zm25.3125,4.6875l-17.5,-7.8125l14.375,-5.3125l3.125,13.125zm-23.75,-12.1875l3.4375,-15.3125l12.8125,9.375l-16.25,5.9375zm25.625,20l4.375,19.0625l-28.75,-10l24.375,-9.0625zm-27.5,-62.8125c0,-1.875 1.25,-3.125 3.125,-3.125l18.75,0c1.875,0 3.125,1.25 3.125,3.125l0,6.25l-6.25,0l-12.5,0l-6.25,0l0,-6.25zm16.25,12.5l4.0625,17.8125l-13.125,-9.375l1.5625,-8.4375l7.5,0zm-21.5625,63.125l38.4375,13.75l0.3125,1.25l-42.1875,0l3.4375,-15z" stroke-width="5" stroke-miterlimit="10" stroke-dasharray=""></path><path data-v-9833e8b2="" transform="scale(0.06157635467980296)" fill="none" stroke="currentColor" paint-order="fill stroke markers" d="m365.18749,69.625l-6.875,0l4.6875,-7.8125l-5.3125,-3.125l-7.5,12.5c-0.625,0.9375 -0.625,2.1875 0,3.125c0.625,0.9375 1.5625,1.5625 2.8125,1.5625l6.875,0l-4.6875,7.8125l5.3125,3.125l7.5,-12.5c0.625,-0.9375 0.625,-2.1875 0,-3.125c-0.625,-0.9375 -1.5625,-1.5625 -2.8125,-1.5625z" stroke-width="5" stroke-miterlimit="10" stroke-dasharray=""></path><path data-v-9833e8b2="" transform="scale(0.06157635467980296)" fill="none" stroke="currentColor" paint-order="fill stroke markers" d="m358.93749,47.75c-13.75,0 -25,11.25 -25,25s11.25,25 25,25s25,-11.25 25,-25s-11.25,-25 -25,-25zm0,43.75c-10.3125,0 -18.75,-8.4375 -18.75,-18.75s8.4375,-18.75 18.75,-18.75s18.75,8.4375 18.75,18.75s-8.4375,18.75 -18.75,18.75z" stroke-width="5" stroke-miterlimit="10" stroke-dasharray=""></path><path data-v-9833e8b2="" transform="scale(0.06157635467980296)" fill="none" stroke="currentColor" paint-order="fill stroke markers" d="m302.68749,10.25l6.25,0l0,6.25l-6.25,0l0,-6.25z" stroke-width="5" stroke-miterlimit="10" stroke-dasharray=""></path><path data-v-9833e8b2="" transform="scale(0.06157635467980296)" fill="none" stroke="currentColor" paint-order="fill stroke markers" d="m327.68749,10.25l6.25,0l0,6.25l-6.25,0l0,-6.25z" stroke-width="5" stroke-miterlimit="10" stroke-dasharray=""></path><path data-v-9833e8b2="" transform="scale(0.06157635467980296)" fill="none" stroke="currentColor" paint-order="fill stroke markers" d="m315.18749,10.25l6.25,0l0,6.25l-6.25,0l0,-6.25z" stroke-width="5" stroke-miterlimit="10" stroke-dasharray=""></path><path data-v-9833e8b2="" transform="scale(0.06157635467980296)" fill="none" stroke="currentColor" paint-order="fill stroke markers" d="m340.18749,10.25l6.25,0l0,6.25l-6.25,0l0,-6.25z" stroke-width="5" stroke-miterlimit="10" stroke-dasharray=""></path><path data-v-9833e8b2="" transform="scale(0.06157635467980296)" fill="none" stroke="currentColor" paint-order="fill stroke markers" d="m352.68749,22.75l6.25,0l0,6.25l-6.25,0l0,-6.25z" stroke-width="5" stroke-miterlimit="10" stroke-dasharray=""></path><path data-v-9833e8b2="" transform="scale(0.06157635467980296)" fill="none" stroke="currentColor" paint-order="fill stroke markers" d="m352.68749,10.25l6.25,0l0,6.25l-6.25,0l0,-6.25z" stroke-width="5" stroke-miterlimit="10" stroke-dasharray=""></path><path data-v-9833e8b2="" transform="scale(0.06157635467980296)" fill="none" stroke="currentColor" paint-order="fill stroke markers" d="m299.56249,179l0,0c0,1.875 1.25,3.125 3.125,3.125l0,0c1.875,0 3.125,-1.25 3.125,-3.125l0,0c0,-1.875 -1.25,-3.125 -3.125,-3.125l0,0c-1.875,0 -3.125,1.25 -3.125,3.125z" stroke-width="5" stroke-miterlimit="10" stroke-dasharray=""></path><path data-v-9833e8b2="" transform="scale(0.06157635467980296)" fill="none" stroke="currentColor" paint-order="fill stroke markers" d="m324.56249,188.375l0,0c0,1.875 1.25,3.125 3.125,3.125l0,0c1.875,0 3.125,-1.25 3.125,-3.125l0,0c0,-1.875 -1.25,-3.125 -3.125,-3.125l0,0c-1.875,0 -3.125,1.25 -3.125,3.125z" stroke-width="5" stroke-miterlimit="10" stroke-dasharray=""></path><path data-v-9833e8b2="" transform="scale(0.06157635467980296)" fill="none" stroke="currentColor" paint-order="fill stroke markers" d="m352.68749,182.125l0,0c0,1.875 1.25,3.125 3.125,3.125l0,0c1.875,0 3.125,-1.25 3.125,-3.125l0,0c0,-1.875 -1.25,-3.125 -3.125,-3.125l0,0c-1.875,0 -3.125,1.25 -3.125,3.125z" stroke-width="5" stroke-miterlimit="10" stroke-dasharray=""></path><path data-v-9833e8b2="" transform="scale(0.06157635467980296)" fill="none" stroke="currentColor" paint-order="fill stroke markers" d="m399.56249,179l0,0c-1.875,0 -3.125,1.25 -3.125,3.125l0,0c0,1.875 1.25,3.125 3.125,3.125l0,0c1.875,0 3.125,-1.25 3.125,-3.125l0,0c0,-1.875 -1.25,-3.125 -3.125,-3.125z" stroke-width="5" stroke-miterlimit="10" stroke-dasharray=""></path><path data-v-9833e8b2="" transform="scale(0.06157635467980296)" fill="none" stroke="currentColor" paint-order="fill stroke markers" d="m377.68749,185.25l0,0c-1.875,0 -3.125,1.25 -3.125,3.125l0,0c0,1.875 1.25,3.125 3.125,3.125l0,0c1.875,0 3.125,-1.25 3.125,-3.125l0,0c0,-1.875 -1.25,-3.125 -3.125,-3.125z" stroke-width="5" stroke-miterlimit="10" stroke-dasharray=""></path><path data-v-9833e8b2="" transform="scale(0.06157635467980296)" fill="none" stroke="currentColor" paint-order="fill stroke markers" d="m227.68749,179l0,0c0,-1.875 -1.25,-3.125 -3.125,-3.125l0,0c-1.875,0 -3.125,1.25 -3.125,3.125l0,0c0,1.875 1.25,3.125 3.125,3.125l0,0c1.875,0 3.125,-1.25 3.125,-3.125z" stroke-width="5" stroke-miterlimit="10" stroke-dasharray=""></path><path data-v-9833e8b2="" transform="scale(0.06157635467980296)" fill="none" stroke="currentColor" paint-order="fill stroke markers" d="m246.43749,185.25l0,0c-1.875,0 -3.125,1.25 -3.125,3.125l0,0c0,1.875 1.25,3.125 3.125,3.125l0,0c1.875,0 3.125,-1.25 3.125,-3.125l0,0c0,-1.875 -1.25,-3.125 -3.125,-3.125z" stroke-width="5" stroke-miterlimit="10" stroke-dasharray=""></path></g></svg>