<svg data-v-9833e8b2="" version="1.1" xmlns="http://www.w3.org/2000/svg" xmlns:xlink="http://www.w3.org/1999/xlink" width="12" height="25"><g data-v-9833e8b2=""><path data-v-9833e8b2="" transform="scale(0.13020833333333334)" fill="none" stroke="currentColor" paint-order="fill stroke markers" d="m26.7,77.9l17.1,0l0,79l-17.1,0l0,-79l0,0z" stroke-width="5" stroke-miterlimit="10" stroke-dasharray=""></path><path data-v-9833e8b2="" transform="scale(0.13020833333333334)" fill="none" stroke="currentColor" paint-order="fill stroke markers" d="m20.3,156.8l29.9,0l0,8.5l-29.9,0l0,-8.5l0,0z" stroke-width="5" stroke-miterlimit="10" stroke-dasharray=""></path><path data-v-9833e8b2="" transform="scale(0.13020833333333334)" fill="none" stroke="currentColor" paint-order="fill stroke markers" d="m1,165.4l68.3,0l0,25.6l-68.3,0l0,-25.6l0,0z" stroke-width="5" stroke-miterlimit="10" stroke-dasharray=""></path><path data-v-9833e8b2="" transform="scale(0.13020833333333334)" fill="none" stroke="currentColor" paint-order="fill stroke markers" d="m22.4,69.3l25.6,0l0,8.5l-25.6,0l0,-8.5l0,0z" stroke-width="5" stroke-miterlimit="10" stroke-dasharray=""></path><path data-v-9833e8b2="" transform="scale(0.13020833333333334)" fill="none" stroke="currentColor" paint-order="fill stroke markers" d="m9.6,50.1l51.2,0c3.5,0 6.4,2.9 6.4,6.4l0,6.4c0,3.5 -2.9,6.4 -6.4,6.4l-51.2,0c-3.5,0 -6.4,-2.9 -6.4,-6.4l0,-6.4c0,-3.5 2.8,-6.4 6.4,-6.4l0,0z" stroke-width="5" stroke-miterlimit="10" stroke-dasharray=""></path><path data-v-9833e8b2="" transform="scale(0.13020833333333334)" fill="none" stroke="currentColor" paint-order="fill stroke markers" d="m35.2,1c16.5,0 29.9,13.4 29.9,29.9s-13.4,29.9 -29.9,29.9s-29.9,-13.4 -29.9,-29.9s13.4,-29.9 29.9,-29.9l0,0z" stroke-width="5" stroke-miterlimit="10" stroke-dasharray=""></path><path data-v-9833e8b2="" transform="scale(0.13020833333333334)" fill="none" stroke="currentColor" paint-order="fill stroke markers" d="m35.2,13.8c9.4,0 17.1,7.6 17.1,17.1c0,9.4 -7.6,17.1 -17.1,17.1c-9.4,0 -17.1,-7.6 -17.1,-17.1c0,-9.4 7.7,-17.1 17.1,-17.1l0,0z" stroke-width="5" stroke-miterlimit="10" stroke-dasharray=""></path></g></svg>