<svg data-v-9833e8b2="" version="1.1" xmlns="http://www.w3.org/2000/svg" xmlns:xlink="http://www.w3.org/1999/xlink" width="25" height="10"><g data-v-9833e8b2=""><path data-v-9833e8b2="" transform="scale(0.13089005235602094)" fill="none" stroke="currentColor" paint-order="fill stroke markers" d="m123.5,27.5l11.6,0l0,12.2l-11.6,0l0,-12.2l0,0z" stroke-width="5" stroke-miterlimit="10" stroke-dasharray=""></path><path data-v-9833e8b2="" transform="scale(0.13089005235602094)" fill="none" stroke="currentColor" paint-order="fill stroke markers" d="m127,33.6c0,10.1 -8.2,18.3 -18.3,18.3l-50.8,0l0,10.2c0,2.2 -1.8,4.1 -4.1,4.1l-32.5,0c-2.2,0 -4.1,-1.8 -4.1,-4.1l0,-10.3c-9.1,-1 -16.2,-8.8 -16.2,-18.2c0,-9.4 7.1,-17.2 16.3,-18.2l0,-10.3c0,-2.2 1.8,-4.1 4.1,-4.1l32.5,0c2.2,0 4.1,1.8 4.1,4.1l0,10.2l50.8,0c10,0 18.2,8.2 18.2,18.3z" stroke-width="5" stroke-miterlimit="10" stroke-dasharray=""></path><path data-v-9833e8b2="" transform="scale(0.13089005235602094)" fill="none" stroke="currentColor" paint-order="fill stroke markers" d="m179.9,29.5l6.1,0c2.2,0 4.1,1.8 4.1,4.1c0,2.2 -1.8,4.1 -4.1,4.1l-6.1,0c-2.2,0 -4.1,-1.8 -4.1,-4.1c0,-2.2 1.8,-4.1 4.1,-4.1l0,0z" stroke-width="5" stroke-miterlimit="10" stroke-dasharray=""></path><path data-v-9833e8b2="" transform="scale(0.13089005235602094)" fill="none" stroke="currentColor" paint-order="fill stroke markers" d="m154.1,19.4l15.8,0c6.7,0 12.1,5.9 12.1,13.2l0,2c0,7.3 -5.4,13.2 -12.1,13.2l-15.8,0l0,-28.4l0,0z" stroke-width="5" stroke-miterlimit="10" stroke-dasharray=""></path><path data-v-9833e8b2="" transform="scale(0.13089005235602094)" fill="none" stroke="currentColor" paint-order="fill stroke markers" d="m135.1,13.3l18.9,0l0,40.7l-18.9,0l0,-40.7l0,0z" stroke-width="5" stroke-miterlimit="10" stroke-dasharray=""></path></g></svg>