<svg data-v-9833e8b2="" version="1.1" xmlns="http://www.w3.org/2000/svg" xmlns:xlink="http://www.w3.org/1999/xlink" width="25" height="25"><g data-v-9833e8b2=""><path data-v-9833e8b2="" transform="scale(0.12376237623762376)" fill="none" stroke="currentColor" paint-order="fill stroke markers" d="m1,1m100.00025,0l0,0q100.00025,0 100.00025,100.00025l0,0q0,100.00025 -100.00025,100.00025l0,0q-100.00025,0 -100.00025,-100.00025l0,0q0,-100.00025 100.00025,-100.00025z" stroke-width="5" stroke-miterlimit="10" stroke-dasharray=""></path><path data-v-9833e8b2="" transform="scale(0.12376237623762376)" fill="none" stroke="currentColor" paint-order="fill stroke markers" d="m133.50783,81.5277a9.63002,9.63002 0 0 1 9.61252,9.04502l0.0175,0.5875l0,63.04016a9.63002,9.63002 0 0 1 -9.04252,9.61252l-0.5875,0.0175l-63.04016,0a9.63002,9.63002 0 0 1 -9.61252,-9.04502l-0.0175,-0.585l0,-63.04016a9.63002,9.63002 0 0 1 9.04252,-9.61252l0.5875,-0.02l63.04016,0zm-2.15751,8.01252l-58.57515,0a3.87751,3.87751 0 0 0 -3.85751,3.49251l-0.02,0.385l0,58.53765c0,2.02251 1.55,3.68251 3.52501,3.86001l0.355,0.0175l58.56765,0a3.87751,3.87751 0 0 0 3.83001,-3.52751l0.015,-0.35l0.04,-58.53765a3.87751,3.87751 0 0 0 -3.88001,-3.87751z" stroke-width="5" stroke-miterlimit="10" stroke-dasharray=""></path><path data-v-9833e8b2="" transform="scale(0.12376237623762376)" fill="none" stroke="currentColor" paint-order="fill stroke markers" d="m174.09794,95.10024a9.63002,9.63002 0 0 1 9.61752,9.13502l0.0125,0.495l0,36.02759a9.63002,9.63002 0 0 1 -9.13752,9.55002l-0.4925,0.0125l-14.20004,0l0,-7.99502l11.87753,0a3.87751,3.87751 0 0 0 3.86001,-3.49501l0.0175,-0.3825l0,-31.52258a3.87751,3.87751 0 0 0 -3.49501,-3.85751l-0.3825,-0.02l-9.72002,0l0,-7.94752l12.04253,0zm-23.90756,-0.0625l0,8.01002l-6.99002,0l0,39.2751l8.84252,0l0,8.00002l-16.85004,0l0,-55.28764l15.00004,0l-0.0025,0.0025z" stroke-width="5" stroke-miterlimit="10" stroke-dasharray=""></path><path data-v-9833e8b2="" transform="scale(0.12376237623762376)" fill="none" stroke="currentColor" paint-order="fill stroke markers" d="m155.51539,80.9702a9.07502,9.07502 0 0 1 9.06002,8.59002l0.0125,0.4825l0,65.27516a9.07252,9.07252 0 1 1 -18.13755,0.57l0.005,-0.5475l0,-65.28516a9.07252,9.07252 0 0 1 6.83502,-8.79252l0.5925,-0.13l0.2475,-0.0375l-0.125,-0.125l1.51,0zm0.1475,8.01002l-0.135,0a1.0625,1.0625 0 0 0 -1.045,0.8725l-0.0175,0.19l0,65.30016a1.0625,1.0625 0 0 0 2.10001,0.22l0.025,-0.2225l0,-65.31016a1.0625,1.0625 0 0 0 -0.8725,-1.045l-0.055,-0.005zm-111.52528,6.12002l0,8.00002l-11.88753,0c-2.02251,0 -3.68251,1.5475 -3.86001,3.52501l-0.0175,0.35l0,31.47008a3.87751,3.87751 0 0 0 3.49501,3.86001l0.3825,0.0175l9.79752,0l0,8.00002l-12.04253,0a9.63002,9.63002 0 0 1 -9.61252,-9.04502l-0.0175,-0.5875l0,-36.02509a9.63002,9.63002 0 0 1 9.13752,-9.55002l0.4925,-0.015l14.13504,0l-0.0025,0zm24.76006,-0.0625l0,55.28264l-15.00004,0l0,-7.99502l7.00252,0l0,-39.2751l-8.84002,0l0,-8.01002l16.83754,0l0,-0.0025z" stroke-width="5" stroke-miterlimit="10" stroke-dasharray=""></path><path data-v-9833e8b2="" transform="scale(0.12376237623762376)" fill="none" stroke="currentColor" paint-order="fill stroke markers" d="m48.56262,80.9702a9.07502,9.07502 0 0 1 9.06002,8.59002l0.0125,0.4825l0,65.27516a9.07252,9.07252 0 1 1 -18.13755,0.57l0.005,-0.5475l0,-65.28516a9.07502,9.07502 0 0 1 7.18752,-8.87502l0.4825,-0.09l-0.12,-0.12l1.51,0zm0.1475,8.01002l-0.135,0a1.0625,1.0625 0 0 0 -1.045,0.8725l-0.0175,0.19l0,65.30016a1.0625,1.0625 0 0 0 2.10001,0.22l0.025,-0.2225l0,-65.31016a1.0625,1.0625 0 0 0 -0.8725,-1.045l-0.055,-0.005zm53.34013,-61.10515a24.82506,24.82506 0 0 1 24.85256,24.82506c0,13.71003 -11.11003,24.82256 -24.81756,24.82506c-13.70753,0.0075 -24.82506,-11.10003 -24.83506,-24.80756c-0.01,-13.47503 10.72003,-24.45006 24.10506,-24.83256l0.695,-0.01zm0,8.00002a16.82754,16.82754 0 1 0 0,33.65758a16.82754,16.82754 0 0 0 0,-33.66008l0,0.0025z" stroke-width="5" stroke-miterlimit="10" stroke-dasharray=""></path><path data-v-9833e8b2="" transform="scale(0.12376237623762376)" fill="none" stroke="currentColor" paint-order="fill stroke markers" d="m100.05025,71.19518a4.00001,4.00001 0 0 1 5.98252,3.07501l0.0175,0.3875l0,9.00502a4.00001,4.00001 0 0 1 -7.98252,0.365l-0.015,-0.365l0,-9.00502c0,-1.43 0.7625,-2.75001 2.00001,-3.46251l-0.0025,0zm2.00001,-32.47508a4.00001,4.00001 0 0 1 3.98251,3.63501l0.0175,0.365l0,8.29502a4.00001,4.00001 0 0 1 -7.98252,0.3625l-0.015,-0.3625l0,-8.29502a4.00001,4.00001 0 0 1 4.00001,-4.00001l-0.0025,0z" stroke-width="5" stroke-miterlimit="10" stroke-dasharray=""></path><path data-v-9833e8b2="" transform="scale(0.12376237623762376)" fill="none" stroke="currentColor" paint-order="fill stroke markers" d="m70.46767,82.1527a9.00502,9.00502 0 0 0 -9.00502,9.00752l0,63.04016a9.00502,9.00502 0 0 0 9.00502,9.00502l63.04016,0a9.00502,9.00502 0 0 0 9.00502,-9.00502l0,-63.04016a9.00502,9.00502 0 0 0 -9.00502,-9.00752l-63.04016,0z" stroke-width="5" stroke-miterlimit="10" stroke-dasharray=""></path><path data-v-9833e8b2="" transform="scale(0.12376237623762376)" fill="none" stroke="currentColor" paint-order="fill stroke markers" d="m121.7778,120.0053a18.44505,18.44505 0 0 0 -4.40001,-6.11502l-1.545,-1.415a0.4275,0.4275 0 0 0 -0.6875,0.175l-0.69,1.9775c-0.4325,1.2425 -1.225,2.51501 -2.34501,3.76001a0.3325,0.3325 0 0 1 -0.2175,0.1a0.2925,0.2925 0 0 1 -0.225,-0.0725a0.3125,0.3125 0 0 1 -0.1075,-0.2575c0.1975,-3.19251 -0.7575,-6.79752 -2.85251,-10.72003c-1.725,-3.26251 -4.13001,-5.80001 -7.13252,-7.57502l-2.19501,-1.29a0.425,0.425 0 0 0 -0.635,0.39l0.115,2.54751c0.0775,1.7375 -0.1225,3.28001 -0.6,4.55751a15.02254,15.02254 0 0 1 -2.49501,4.32751c-0.745,0.9075 -1.59,1.7275 -2.52001,2.44501a18.71505,18.71505 0 0 0 -5.32251,6.45002a18.45755,18.45755 0 0 0 -0.45,15.40504a18.65005,18.65005 0 0 0 9.94503,9.85002a18.67505,18.67505 0 0 0 7.26502,1.455a18.79505,18.79505 0 0 0 7.26752,-1.4475a18.50005,18.50005 0 0 0 5.93501,-3.96251a18.37505,18.37505 0 0 0 5.48001,-13.10503a18.27005,18.27005 0 0 0 -1.5875,-7.48002zm-6.42502,18.01005a15.05004,15.05004 0 0 1 -10.67003,4.37001a15.05004,15.05004 0 0 1 -10.66503,-4.37001a14.74254,14.74254 0 0 1 -4.41001,-10.53003c0,-2.31001 0.525,-4.52251 1.545,-6.58252a15.01254,15.01254 0 0 1 4.29001,-5.20001a18.48255,18.48255 0 0 0 3.10751,-3.01001c1.325,-1.6175 2.36751,-3.42501 3.09251,-5.36001c0.295,-0.8 0.51,-1.6275 0.6425,-2.47001c1.275,1.1775 2.35001,2.60001 3.24501,4.27001c1.775,3.32251 2.59001,6.27502 2.43251,8.79252a3.92501,3.92501 0 0 0 6.83502,2.87751c0.7075,-0.79 1.3175,-1.595 1.8275,-2.42251c0.74,0.95 1.3625,1.98751 1.855,3.10001c0.8425,1.89 1.2775,3.93501 1.275,6.00502c0,3.97501 -1.565,7.71752 -4.40501,10.53003l0.0025,0z" stroke-width="5" stroke-miterlimit="10" stroke-dasharray=""></path></g></svg>