<svg data-v-9833e8b2="" version="1.1" xmlns="http://www.w3.org/2000/svg" xmlns:xlink="http://www.w3.org/1999/xlink" width="25" height="25"><g data-v-9833e8b2=""><path data-v-9833e8b2="" transform="scale(0.09615384615384616)" fill="none" stroke="currentColor" paint-order="fill stroke markers" d="m230.5537,1.00039l-200.19562,0c-16.21332,0 -29.35808,13.1098 -29.35808,29.27898l0,200.35343c0,16.16918 13.14456,29.27898 29.35808,29.27898l200.19562,0c16.21332,0 29.35808,-13.1098 29.35808,-29.27898l0,-200.35382c-0.00332,-16.16918 -13.14456,-29.27898 -29.35808,-29.27898l0,0.00039zm7.82834,229.62909c0,4.3045 -3.51153,7.80646 -7.82854,7.80646l-200.19562,0c-4.317,0 -7.82873,-3.50196 -7.82873,-7.80646l0,-200.35382c0,-4.3045 3.51153,-7.80646 7.82873,-7.80646l200.19601,0c4.317,0 7.82854,3.50196 7.82854,5.11017l0,203.04993l-0.00039,0.0002z" stroke-width="5" stroke-miterlimit="10" stroke-dasharray=""></path><path data-v-9833e8b2="" transform="scale(0.09615384615384616)" fill="none" stroke="currentColor" paint-order="fill stroke markers" d="m179.75064,212.02827c-1.12207,-0.34512 -2.34727,-0.43145 -3.52091,-0.43145c-27.21999,-0.01738 -25.09674,-0.01738 -52.31654,0c-0.86309,0 -1.76036,-0.01738 -2.60626,0.15547c-3.78009,0.77676 -5.834,4.72931 -4.17716,8.1469c1.2086,2.51993 3.38302,3.34884 6.09318,3.33106c3.86622,-0.01738 5.43712,-0.01738 6.00666,-0.01738c0.3627,0 1.79512,0 6.1967,0c13.46332,0 26.90925,0 40.35498,0c0.94942,0 1.91602,0.03457 2.86524,-0.08633c2.69278,-0.32774 4.76388,-2.60626 4.9881,-5.35079c0.17285,-2.43399 -1.46739,-5.00568 -3.8836,-5.74787l-0.00039,0.00039z" stroke-width="5" stroke-miterlimit="10" stroke-dasharray=""></path><path data-v-9833e8b2="" transform="scale(0.09615384615384616)" fill="none" stroke="currentColor" paint-order="fill stroke markers" d="m194.16181,72.10311c-0.03242,-7.24943 -2.767,-13.35003 -8.57619,-17.84868c-3.67325,-2.81563 -7.88049,-4.17482 -12.57308,-4.38517l-2.08731,0l0,-16.50551l-12.75101,0l0,16.47289l-20.13032,-0.03242l0,-16.44067l-12.75101,0l0,16.40824l-0.50137,0c-13.04261,0.84141 -21.55396,10.6637 -21.35982,24.6608c0,0.40449 0.01621,0.85742 0.01621,1.29434l-36.76494,0l0,12.75101l36.84599,0c0.09707,21.3438 0.04883,53.64271 0,77.83438l-36.84599,0l0,12.75101l36.82958,0c0,4.45001 0,8.34983 0,11.47288c0,3.72188 0.48555,7.39514 2.20059,10.74456c4.33673,8.51154 11.39202,12.34652 20.72896,12.3305c24.11061,-0.03242 20.72896,0.01621 44.83976,-0.04883c2.29766,0 4.67638,-0.1293 6.86115,-0.76055c9.88713,-2.83184 15.95531,-10.89026 16.00375,-21.42466c0.09707,-25.00065 0.09707,-94.25883 0.01621,-119.27589l-0.00117,0.00176z" stroke-width="5" stroke-miterlimit="10" stroke-dasharray=""></path></g></svg>