<svg data-v-9833e8b2="" version="1.1" xmlns="http://www.w3.org/2000/svg" xmlns:xlink="http://www.w3.org/1999/xlink" width="25" height="25"><g data-v-9833e8b2=""><path data-v-9833e8b2="" transform="scale(0.12376237623762376)" fill="none" stroke="currentColor" paint-order="fill stroke markers" d="m63.50016,51.00013l0,-12.50003l-6.25002,0c-6.90353,0 -12.50003,-5.5965 -12.50003,-12.50003l0,-12.50003c0,-6.90353 5.5965,-12.50003 12.50003,-12.50003l87.50022,0c6.90353,0 12.50003,5.5965 12.50003,12.50003l0,12.50003c0,6.90353 -5.5965,12.50003 -12.50003,12.50003l-6.25002,0l0,12.50003c6.90353,0 12.50003,5.5965 12.50003,12.50003l0,25.00006l12.50003,0c0,-6.90353 5.5965,-12.50003 12.50003,-12.50003l12.50003,0c6.90353,0 12.50003,5.5965 12.50003,12.50003l0,100.00025c0,6.90353 -5.5965,12.50003 -12.50003,12.50003l-12.50003,0c-6.57502,0 -11.96429,-5.07618 -12.46253,-11.52347l-125.07531,0c-0.49824,6.44728 -5.88751,11.52347 -12.46253,11.52347l-12.50003,0c-6.90353,0 -12.50003,-5.5965 -12.50003,-12.50003l0,-100.00025c0,-6.90353 5.5965,-12.50003 12.50003,-12.50003l12.50003,0c6.90353,0 12.50003,5.5965 12.50003,12.50003l12.50003,0l0,-25.00006c0,-6.90353 5.5965,-12.50003 12.50003,-12.50003zm0,50.00013l-25.00006,0l0,75.97675l125.00031,0l0,-75.97675l-100.00025,0zm62.50016,-50.00013l0,-12.50003l-50.00013,0l0,12.50003l50.00013,0zm12.50003,-25.00006l6.25002,0l0,-12.50003l-87.50022,0l0,12.50003l81.2502,0zm-112.50028,62.50016l-12.50003,0l0,100.00025l12.50003,0l0,-100.00025zm150.00038,100.00025l12.50003,0l0,-100.00025l-12.50003,0l0,100.00025zm-112.50028,-125.00031l0,25.00006l75.00019,0l0,-25.00006l-75.00019,0z" stroke-width="5" stroke-miterlimit="10" stroke-dasharray=""></path></g></svg>