<svg data-v-9833e8b2="" version="1.1" xmlns="http://www.w3.org/2000/svg" xmlns:xlink="http://www.w3.org/1999/xlink" width="25" height="12.5"><g data-v-9833e8b2=""><path data-v-9833e8b2="" transform="scale(0.12376237623762376)" fill="none" stroke="currentColor" paint-order="fill stroke markers" d="m194.5169,34.31068l0,-0.80192l-4.87323,0l0,-1.11036a25.59987,25.59987 0 0 0 -19.06111,-19.06111l-125.22349,0l0,-6.16865l-0.86361,0l0,-4.93492l-9.5614,0l0,4.93492l-0.98698,0l0,6.16865l-15.42161,0a31.3984,31.3984 0 0 0 -16.28522,28.74588c0,23.13242 16.28522,28.80757 16.47028,28.86926l90.1239,0l0,11.72043l6.16864,0l0,-11.72043l12.33729,0l0,6.16865l0.80192,0l0,4.74986l9.62309,0l0,-4.74986l0.9253,0l0,-6.16865l1.72722,0l0,18.50593l13.38596,0l0,-18.50593l16.77871,0a25.78493,25.78493 0 0 0 5.30503,-1.97397l1.3571,-0.74024l-1.48047,-1.54216l8.57442,-8.88285l1.66553,1.72722l-9.00622,9.31465l3.08432,3.08432l0.61686,-0.61686l3.02264,2.96095l8.51273,-8.82116l-3.02264,-2.77589l0.49349,-0.49349l-3.02264,-3.20769l0.4318,-0.86361a24.67458,24.67458 0 0 0 2.2824,-6.16864l0,-1.17204l4.87323,0l0,-1.17204l5.11998,0l0,-15.29824l-4.87323,0zm-20.78833,33.06394a19.92472,19.92472 0 0 1 -3.08432,1.11036l-18.50593,0l0,18.50593l-9.25297,0l0,-18.13582l-6.53876,0l0,-53.17372l33.98923,0a23.44085,23.44085 0 0 1 16.53197,16.16185l-1.17204,0l0,20.85002l1.17204,0c-0.30843,0.98698 -0.67855,1.97397 -1.04867,2.89926l-1.23373,-1.23373l-11.53537,11.90548l0.67855,1.11036zm-36.27163,7.95755l-8.2043,0l0,-4.5648l8.08092,0l0.12337,4.5648zm-24.67458,-6.78551l0,11.65874l-1.91228,0l0,-11.35031l-4.13299,0l0,-53.17372l27.3271,0l0,53.17372l-21.28182,-0.30843zm23.93434,11.47368l-6.16865,0l0,-3.08432l6.16865,0l0,3.08432zm-32.20032,-64.33896l0,53.17372l-26.03168,0l0,-53.17372l26.03168,0zm-28.31408,0l0,53.17372l-25.84662,0l0,-53.17372l25.84662,0zm-33.31068,-11.8438l0,3.33107l-6.16865,0l0,-3.33107l6.16865,0zm-7.279,4.74986l8.08092,0l0,4.74986l-8.01924,0l-0.06169,-4.74986zm12.33729,7.09394l0,53.17372l-28.43745,0c-1.72722,-0.61686 -14.74306,-6.16865 -14.68137,-26.64854a29.17769,29.17769 0 0 1 14.68137,-26.52517l28.43745,0zm139.96655,18.13581l0.74024,0l0,16.53197l-0.74024,0l0,-16.53197zm6.60045,14.1262l0,-11.96717l3.51613,0l0,11.96717l-3.51613,0zm-4.25636,1.04867l0,-13.87945l2.65252,0l0,13.87945l-2.65252,0zm-10.36332,21.59026l-1.72722,-1.72722l8.45104,-8.57442l1.91228,1.91228l-8.6361,8.38936zm11.04187,-5.05829l-7.40237,7.46406l-2.46746,-2.46746l7.40237,-7.46406l2.46746,2.46746z" stroke-width="5" stroke-miterlimit="10" stroke-dasharray=""></path><path data-v-9833e8b2="" transform="scale(0.12376237623762376)" fill="none" stroke="currentColor" paint-order="fill stroke markers" d="m154.85252,89.7668l-14.98981,0l0,-18.50593l0,6.16865l-0.98698,0l0,4.74986l-11.10356,0l0,-4.74986l-0.9253,0l0,-6.16865l-10.98019,0l0,11.65874l-8.01924,0l0,-11.35031l-89.38366,0s-17.02546,-5.79853 -16.96377,-29.48612a32.38538,32.38538 0 0 1 16.71703,-29.30106l15.05149,0l0,-6.16865l0.9253,0l0,-5.11998l11.10356,0l0,4.68817l0.74024,0l0,6.16864l124.54493,0a26.58686,26.58686 0 0 1 19.5546,19.67798l0,0.43181l4.9966,0l0,0.86361l5.18166,0l0,17.02546l-5.18166,0l0,1.04867l-4.9966,0l0,0.55518a23.62591,23.62591 0 0 1 -2.34409,6.53876l0,0.37012l3.2077,3.14601l-0.49349,0.49349l3.02264,2.96095l-9.80814,9.5614l-3.02264,-3.02264l-0.61686,0.61686l-3.45444,-3.45444a22.70061,22.70061 0 0 1 -5.61347,2.03565l-16.16185,0l0,18.56762zm-13.44765,-1.54216l11.90548,0l0,-18.50593l17.45726,0a20.85002,20.85002 0 0 0 4.9966,-1.91228l0.4318,0l-1.29542,-1.3571l9.68477,-9.93152l1.66553,1.66553l0,-0.4318a24.67458,24.67458 0 0 0 2.22071,-6.16865l0,-0.4318l-1.54216,0l0,-18.13582l1.54216,0l0,-0.4318a24.98301,24.98301 0 0 0 -18.50593,-18.50593l-125.34686,0l0,-6.16864l-0.86361,0l0,-4.87323l-8.08092,0l0,4.68817l-0.9253,0l0,6.47708l-15.97679,0a30.84322,30.84322 0 0 0 -15.73004,27.88227c0,21.65194 14.43463,27.57384 15.79173,28.06733l90.5557,0l0,11.65874l4.93492,0l0,-11.78211l14.06451,0l0,6.16864l0.80192,0l0,4.9966l8.01924,0l0,-4.74986l0.98698,0l0,-6.16864l3.20769,0l0,17.95076zm40.9598,-17.70401l1.3571,1.3571l6.16864,-6.16865l-1.3571,-1.3571l-6.16864,6.16865zm-3.14601,-1.85059l0.86361,0.80192l7.40237,-7.46406l-0.86361,-0.80192l-7.40237,7.46406zm-2.15903,-2.15903l0.49349,0.49349l7.58743,-7.71081l-0.55518,-0.55518l-7.52575,7.77249zm12.33729,-16.65534l4.31805,0l0,-1.04867l5.18166,0l0,-13.69439l-5.18166,0l0,-0.86361l-4.31805,0l0,15.60667zm-37.01187,37.62873l-10.23995,0l0,-18.1975l-6.60045,0l0,-54.40745l34.79116,0a24.05771,24.05771 0 0 1 17.2722,16.40859l0,0.98698l-1.41879,0l0,19.61629l1.41879,0l0,0.98698a21.837,21.837 0 0 1 -1.11036,3.02264l-0.43181,1.11036l-1.48047,-1.54216l-10.85681,11.04187l1.11036,1.17204l-1.04867,0.4318a25.4765,25.4765 0 0 1 -3.14601,1.11036l-18.50593,0l0.24675,18.25919zm-8.88285,-1.54216l7.34069,0l0,-18.1975l19.43123,0l1.85059,-0.61686l-0.55518,-0.61686l0.74024,-0.74024l12.33729,-12.33729l0.98698,0.98698a3.08432,3.08432 0 0 1 0,-0.80192l-0.9253,0l0,-22.88567l1.3571,0a22.51555,22.51555 0 0 0 -15.9151,-14.31126l-33.06394,0l0,51.32312l6.60045,0l-0.18506,18.1975zm-29.91793,-4.74986l-3.45444,0l0,-11.90548l-4.25636,0l0,-54.40745l28.99263,0l0,54.40745l-21.28182,0l0,11.90548zm-1.91228,-1.54216l0.37012,0l0,-11.90548l21.28182,0l0,-51.32312l-25.78493,0l0,51.32312l4.13299,0l0,11.90548zm25.53819,1.41879l-7.89586,0l0,-4.68817l7.89586,0l0,4.68817zm-6.16864,-1.54216l4.81154,0l0,-1.60385l-4.81154,0l0,1.60385zm7.279,-3.20769l-9.80814,0l0,-6.16864l9.62309,0l0.18506,6.16864zm-8.08092,-1.54216l6.47708,0l0,-2.96095l-6.72382,0l0.24675,2.96095zm-81.54948,-5.24335l-29.73287,0c-1.54216,-0.61686 -15.23655,-6.16864 -15.23655,-27.38878a30.16467,30.16467 0 0 1 15.23655,-27.14204l29.73287,0l0,54.53082zm-29.17769,-1.54216l27.63553,0l0,-51.56987l-27.63553,0a28.6842,28.6842 0 0 0 -14.24957,25.66156c0,19.61629 12.15223,25.10638 14.24957,25.90831zm85.92922,1.29542l-27.7589,0l0,-54.40745l27.57384,0l0.18506,54.40745zm-26.03168,-1.54216l24.67458,0l0,-51.32312l-24.67458,0l0,51.32312zm-2.2824,1.54216l-27.7589,0l0,-54.40745l27.57384,0l0.18506,54.40745zm-26.03168,-1.54216l24.67458,0l0,-51.32312l-24.67458,0l0,51.32312zm142.55738,-18.01244l-4.19468,0l0,-15.35993l4.19468,0l0,15.35993zm-2.65252,-1.54216l1.23373,0l0,-12.33729l-1.23373,0l0,12.33729zm7.77249,0.55518l-5.05829,0l0,-13.57102l5.05829,0l0,13.57102zm-3.51613,-1.54216l1.97397,0l0,-10.4867l-1.97397,0l0,10.4867zm-150.69999,-33.00225l-9.68477,0l0,-6.16864l9.62309,0l0.06169,6.16864zm-8.14261,-1.54216l6.60045,0l0,-3.33107l-6.60045,0l0,3.33107zm7.21731,-4.93492l-7.83418,0l0,-4.62648l7.83418,0l0,4.62648zm-6.16864,-1.54216l4.74986,0l0,-1.54216l-4.87323,0l0.12337,1.54216z" stroke-width="5" stroke-miterlimit="10" stroke-dasharray=""></path><path data-v-9833e8b2="" transform="scale(0.12376237623762376)" fill="none" stroke="currentColor" paint-order="fill stroke markers" d="m154.54408,89.45836l-14.37294,0l0,-18.1975l-0.74024,0l0,6.16865l-0.98698,0l0,4.74986l-10.4867,0l0,-4.74986l-0.86361,0l0,-6.16865l-11.53537,0l0,11.65874l-7.40237,0l0,-11.65874l-89.63041,0s-16.77871,-5.55178 -16.71703,-29.17769a31.83021,31.83021 0 0 1 16.53197,-28.74588l15.23655,0l0,-6.16865l0.9253,0l0,-5.36672l10.4867,0l0,4.68817l0.80192,0l0,6.16864l124.79168,0a26.4018,26.4018 0 0 1 19.24617,19.43123l0,0.67855l4.93492,0l0,0.86361l5.11998,0l0,16.71703l-5.11998,0l0,1.04867l-4.93492,0l0,0.80192a22.70061,22.70061 0 0 1 -2.2824,6.16864l0,0.61686l3.14601,3.08432l-0.49349,0.49349l3.02264,2.96095l-9.49971,9.49971l-3.02264,-3.02264l-0.61686,0.61686l-3.39275,-3.76287l-0.37012,0a22.63893,22.63893 0 0 1 -5.49009,2.03565l-16.28522,0l0,18.56762zm-13.44765,-0.9253l12.33729,0l0,-18.1975l17.21052,0a22.94736,22.94736 0 0 0 5.05829,-1.91228l0.86361,-0.4318l-1.41879,-1.41879l8.94454,-9.25297l1.72722,1.78891l0.4318,-0.86361a25.78493,25.78493 0 0 0 2.22071,-6.16864l0.80192,-1.72722l4.74986,0l0,-1.23373l5.11998,0l0,-14.31126l-5.11998,0l0,-0.86361l-4.74986,0l-0.30843,-1.41879a25.59987,25.59987 0 0 0 -18.50593,-18.50593l-125.53192,0l0,-6.8472l-0.74024,0l0,-4.44142l-8.82116,0l0,4.44142l-0.9253,0l0,6.16865l-15.73004,0a30.84322,30.84322 0 0 0 -15.97679,28.74588c0,22.02206 14.92812,28.00565 16.03848,28.37576l90.24727,0l0,11.65874l5.55178,0l0,-11.78211l13.50933,0l0,6.16864l0.86361,0l0,4.68817l8.6361,0l0,-4.74986l0.98698,0l0,-6.16864l2.59083,0l-0.06169,18.25919zm40.83643,-18.01244l1.78891,1.78891l6.72382,-6.78551l-1.78891,-1.78891l-6.72382,6.78551zm-3.14601,-1.85059l1.29542,1.23373l7.83418,-7.89586l-1.29542,-1.23373l-7.83418,7.89587zm-2.15903,-2.15903l0.9253,0.9253l8.01924,-8.14261l-0.98698,-0.98698l-7.95755,8.2043zm-24.36615,20.85002l-9.80814,0l0,-18.50593l-6.60045,0l0,-53.66721l34.48272,0a23.81097,23.81097 0 0 1 16.96377,16.22354l0,0.55518l-1.23373,0l0,20.23315l1.29542,0l0,0.55518a28.6842,28.6842 0 0 1 -1.04867,3.02264l-0.24675,0.74024l-1.3571,-1.41879l-10.98019,11.41199l0.98698,1.04867l-0.61686,0a19.86304,19.86304 0 0 1 -3.14601,1.11036l-18.50593,0l-0.18506,18.69099zm-8.88285,-0.9253l7.95755,0l0,-18.50593l19.1228,0a21.09676,21.09676 0 0 0 2.40577,-0.80192l-0.67855,-0.74024l0.55518,-0.55518l11.8438,-12.33729l1.04867,1.11036c0,-0.55518 0.4318,-1.11036 0.61686,-1.66553l-1.04867,0l0,-21.89869l0.86361,0a22.94736,22.94736 0 0 0 -16.03848,-14.92812l-33.31068,0l0,51.93999l6.60045,0l0.06169,18.38256zm-30.10299,-5.61347l-2.83758,0l0,-11.96717l-4.13299,0l0,-53.66721l28.25239,0l0,53.66721l-21.28182,0l0,11.96717zm-1.91228,-0.9253l0.98698,0l0,-11.8438l21.28182,0l0,-51.93999l-26.4018,0l0,51.93999l4.13299,0l0,11.8438zm25.53819,0.80192l-7.279,0l0,-4.07131l7.09394,0l0.18506,4.07131zm-6.16864,-0.9253l5.42841,0l0,-2.22071l-5.61347,0l0.18506,2.22071zm7.279,-3.82456l-9.19128,0l0,-5.42841l9.00622,0l0.18506,5.42841zm-8.26598,-0.9253l6.97057,0l0,-3.57781l-7.03225,0l0.06169,3.57781zm-81.36442,-5.86021l-29.30106,0c-1.54216,-0.30843 -15.05149,-6.04527 -15.05149,-27.08035a29.91793,29.91793 0 0 1 15.05149,-26.8336l29.30106,0l0,53.91395zm-28.86926,-0.9253l27.94396,0l0,-52.12505l-27.94396,0a29.17769,29.17769 0 0 0 -14.558,25.96999c0,20.04809 12.52235,25.53819 14.558,26.15505zm85.43573,0.61686l-26.95698,0l0,-53.66721l26.95698,0l0,53.66721zm-26.03168,-0.9253l25.10638,0l0,-51.81661l-25.10638,0l0,51.81661zm-2.2824,0.9253l-26.95698,0l0,-53.66721l26.95698,0l0,53.66721zm-26.27843,-0.80192l25.10638,0l0,-51.93999l-25.10638,0l0,51.93999zm138.73282,-17.21052l-1.60385,0l0,-17.51895l1.60385,0l0,17.51895zm4.25637,-1.41879l-3.57781,0l0,-14.74306l3.57781,0l0,14.74306zm-2.65252,-0.9253l1.54216,0l0,-12.89247l-1.72722,0l0.18506,12.89247zm7.77249,0l-4.44142,0l0,-13.01584l4.37974,0l0.06169,13.01584zm-3.51613,-0.9253l2.59083,0l0,-11.16525l-2.59083,0l0,11.16525zm-150.76167,-33.6808l-9.00622,0l0,-5.79853l9.00622,0l0,5.79853zm-8.08092,-0.9253l7.21731,0l0,-3.94793l-7.279,0l0.06169,3.94793zm7.21731,-5.79853l-7.21731,0l0,-3.76287l7.21731,0l0,3.76287zm-6.16865,-0.9253l5.36672,0l0,-1.91228l-5.49009,0l0.12337,1.91228z" stroke-width="5" stroke-miterlimit="10" stroke-dasharray=""></path><path data-v-9833e8b2="" transform="scale(0.12376237623762376)" fill="none" stroke="currentColor" paint-order="fill stroke markers" d="m155.22264,90.1986l-15.79173,0l0,-12.33729l0,4.74986l-12.33729,0l0,-4.74986l-0.74024,0l0,-6.16864l-10.05489,0l0,11.72042l-8.88285,0l0,-11.72042l-89.13691,0c-0.67855,0 -17.33389,-6.16865 -17.2722,-30.0413a32.50876,32.50876 0 0 1 17.02546,-29.23938l14.74306,0l0,-6.16864l0.9253,0l0,-5.24335l12.33729,0l0,4.74986l0.74024,0l0,6.16865l123.98976,0a26.89529,26.89529 0 0 1 20.0481,19.98641l5.11997,0l0,1.17204l5.11998,0l0,17.7657l-5.11998,0l0,0.98698l-5.11997,0a24.67458,24.67458 0 0 1 -2.40577,6.66214l3.33107,3.26938l-0.74024,0.9253l3.02264,2.96095l-10.30164,10.42501l-3.02264,-3.02264l-0.61686,0.61686l-3.57781,-3.51613a22.70061,22.70061 0 0 1 -5.67515,2.03565l-15.60667,0l0,18.01244zm-11.10356,-4.68817l6.16865,0l0,-18.1975l19.86304,0l1.11036,-0.30843l-0.37012,-0.4318l0.98698,-1.04867l12.33729,-12.70741l0,-22.51555l0.67855,0a22.20712,22.20712 0 0 0 -14.86643,-13.44765l-32.44707,0l0,50.39783l6.60045,0l-0.06169,18.25919zm-12.83078,-6.72382l3.82456,0l0,-0.61686l-3.82456,0l0,0.61686zm-0.74024,-4.68817l5.61347,0l0,-2.09734l-5.61347,0l0,2.09734zm50.21277,-3.39275l3.02264,2.96095l8.08092,-8.2043l-3.08432,-2.77589l0.49349,-0.49349l-2.52914,-2.46746l2.2824,2.34409l-9.12959,8.94453l-2.22071,-2.15903l8.69779,-8.75948l-8.26598,8.32767l-0.30843,0l2.77589,2.77589l0.18506,-0.49349zm-0.86361,-1.85059l6.72382,-6.8472l-6.72382,6.8472zm-160.38476,-1.3571l27.14204,0l0,-50.58289l-27.14204,0a28.37576,28.37576 0 0 0 -13.75608,25.16807c-0.06169,19.18448 11.78211,24.67458 13.75608,25.41482zm92.09786,0l21.28182,0l0,-50.58289l-24.67458,0l0,50.39783l3.39276,0.18506zm-31.83021,0l23.56422,0l0,-50.58289l-23.62591,0l0.06169,50.58289zm-28.31408,0l23.56422,0l0,-50.58289l-23.62591,0l0.06169,50.58289zm136.75885,-17.14883l0,-15.97679l0,15.97679zm3.26938,-2.34408l0,-11.65874l0,11.65874zm4.25636,-1.04867l1.04867,0l0,-9.74646l-1.04867,0l0,9.74646zm-158.90428,-34.79116l5.67515,0l0,-2.34409l-5.67515,0l0,2.34409zm1.17204,-6.41539l3.88625,0l0,-0.67855l-3.88625,0l0,0.67855zm145.95013,67.85509l-2.89926,-2.89926l7.58743,-8.01924l2.89926,2.89926l-7.58743,8.01924zm-0.74024,-2.89926l0.74024,0.67855l5.61347,-5.67515l-0.67855,-0.74024l-5.67515,5.73684z" stroke-width="5" stroke-miterlimit="10" stroke-dasharray=""></path><path data-v-9833e8b2="" transform="scale(0.12376237623762376)" fill="none" stroke="currentColor" paint-order="fill stroke markers" d="m143.74896,69.22521l7.46406,0l0,-19.30786l-7.46406,0l0,19.30786zm5.30503,-17.14883l0,14.92812l-3.6395,0l0,-14.92812l3.6395,0z" stroke-width="5" stroke-miterlimit="10" stroke-dasharray=""></path><path data-v-9833e8b2="" transform="scale(0.12376237623762376)" fill="none" stroke="currentColor" paint-order="fill stroke markers" d="m152.01494,69.96545l-9.12959,0l0,-20.85002l9.00622,0l0.12337,20.85002zm-7.46406,-1.54216l6.16865,0l0,-17.7657l-6.16865,0l0,17.7657zm5.49009,-0.67855l-5.18166,0l0,-16.40859l5.18166,0l0,16.40859zm-3.6395,-1.54216l2.09734,0l0,-13.32427l-2.09734,0l0,13.32427z" stroke-width="5" stroke-miterlimit="10" stroke-dasharray=""></path><path data-v-9833e8b2="" transform="scale(0.12376237623762376)" fill="none" stroke="currentColor" paint-order="fill stroke markers" d="m151.70651,69.65701l-8.38936,0l0,-20.23315l8.38936,0l0,20.23315zm-7.46406,-0.80192l6.53876,0l0,-18.50593l-6.53876,0l0,18.50593zm5.49009,-1.29542l-4.5648,0l0,-15.9151l4.5648,0l0,15.9151zm-3.6395,-0.9253l2.96095,0l0,-14.06451l-2.7142,0l-0.24675,14.06451z" stroke-width="5" stroke-miterlimit="10" stroke-dasharray=""></path><path data-v-9833e8b2="" transform="scale(0.12376237623762376)" fill="none" stroke="currentColor" paint-order="fill stroke markers" d="m152.44675,70.39725l-9.93152,0l0,-21.77532l9.93152,0l0,21.77532zm-5.55178,-4.62648l1.17204,0l0,-12.33729l-1.17204,0l0,12.33729z" stroke-width="5" stroke-miterlimit="10" stroke-dasharray=""></path></g></svg>