<svg data-v-9833e8b2="" version="1.1" xmlns="http://www.w3.org/2000/svg" xmlns:xlink="http://www.w3.org/1999/xlink" width="14.5" height="25"><g data-v-9833e8b2=""><path data-v-9833e8b2="" transform="scale(0.13020833333333334)" fill="none" stroke="currentColor" paint-order="fill stroke markers" d="m28.26,161.65l-15.82,29.63l-9.44,0l0,-51.66c3.98,11.11 13.52,19.57 25.26,22.03z" stroke-width="5" stroke-miterlimit="10" stroke-dasharray=""></path><path data-v-9833e8b2="" transform="scale(0.13020833333333334)" fill="none" stroke="currentColor" paint-order="fill stroke markers" d="m102,139.63l0,51.66l-9.44,0l-15.82,-29.63c11.74,-2.47 21.28,-10.93 25.26,-22.03z" stroke-width="5" stroke-miterlimit="10" stroke-dasharray=""></path><path data-v-9833e8b2="" transform="scale(0.13020833333333334)" fill="none" stroke="currentColor" paint-order="fill stroke markers" d="m104.01,35.33l0,92.71c0,0.59 -0.02,1.18 -0.04,1.77c-0.17,3.43 -0.85,6.72 -1.96,9.81c-3.98,11.11 -13.52,19.57 -25.27,22.03c-2.28,0.48 -4.65,0.73 -7.07,0.73l-3.43,0l0,5.72c0,0.63 -0.51,1.14 -1.14,1.14l-25.19,0c-0.63,0 -1.14,-0.51 -1.14,-1.14l0,-5.72l-3.43,0c-2.42,0 -4.79,-0.25 -7.07,-0.73c-11.75,-2.46 -21.29,-10.92 -25.27,-22.03c-1.11,-3.09 -1.78,-6.39 -1.96,-9.81c-0.03,-0.59 -0.04,-1.17 -0.04,-1.77l0,-92.71c0,-2.67 0.3,-5.26 0.88,-7.75c0.13,-0.55 0.27,-1.1 0.42,-1.65c0.39,-1.36 0.85,-2.68 1.4,-3.97c5.21,-12.31 17.41,-20.96 31.63,-20.96l0,0l34.34,0c18.96,0 34.34,15.37 34.34,34.33z" stroke-width="5" stroke-miterlimit="10" stroke-dasharray=""></path><path data-v-9833e8b2="" transform="scale(0.13020833333333334)" fill="none" stroke="currentColor" paint-order="fill stroke markers" d="m44.49,188.13l-0.57,0c-0.63,0 -1.14,-0.51 -1.14,-1.14l0,-17.74l2.86,0l0,17.74c-0.01,0.63 -0.52,1.14 -1.15,1.14l0,0l0,0z" stroke-width="5" stroke-miterlimit="10" stroke-dasharray=""></path><path data-v-9833e8b2="" transform="scale(0.13020833333333334)" fill="none" stroke="currentColor" paint-order="fill stroke markers" d="m63.66,176.69l-3.15,0c-0.63,0 -1.14,-0.51 -1.14,-1.14l0,-6.3l2.86,0l0,4.58l1.43,0l0,2.86l0,0l0,0z" stroke-width="5" stroke-miterlimit="10" stroke-dasharray=""></path><path data-v-9833e8b2="" transform="scale(0.13020833333333334)" fill="none" stroke="currentColor" paint-order="fill stroke markers" d="m61.08,188.13l-0.57,0c-0.63,0 -1.14,-0.51 -1.14,-1.14l0,-6.58c0,-0.63 0.51,-1.14 1.14,-1.14l0.57,0l2.57,0l0,2.86l-1.43,0l0,4.86c0.01,0.63 -0.5,1.14 -1.14,1.14l0,0l0,0z" stroke-width="5" stroke-miterlimit="10" stroke-dasharray=""></path><path data-v-9833e8b2="" transform="scale(0.13020833333333334)" fill="none" stroke="currentColor" paint-order="fill stroke markers" d="m71.39,172.97l0,10.02c0,0.63 -0.51,1.14 -1.14,1.14l-5.44,0c-0.63,0 -1.14,-0.51 -1.14,-1.14l0,-10.02c0,-0.63 0.51,-1.14 1.14,-1.14l5.44,0c0.62,-0.01 1.14,0.51 1.14,1.14z" stroke-width="5" stroke-miterlimit="10" stroke-dasharray=""></path></g></svg>