<svg data-v-9833e8b2="" version="1.1" xmlns="http://www.w3.org/2000/svg" xmlns:xlink="http://www.w3.org/1999/xlink" width="25" height="20"><g data-v-9833e8b2=""><path data-v-9833e8b2="" transform="scale(0.12376237623762376)" fill="none" stroke="currentColor" paint-order="fill stroke markers" d="m66.37419,16.34292l19.34542,0c2.00125,0 3.33542,1.33417 3.33542,3.33542l0,6.00375c0,2.00125 1.33417,3.33542 3.33542,3.33542l12.0075,0c2.00125,0 3.33542,-1.33417 3.33542,-3.33542l0,-6.00375c0,-2.00125 1.33417,-3.33542 3.33542,-3.33542l19.34542,0c2.66833,0 4.0025,-2.00125 4.0025,-4.0025l0,-8.005c0,-2.00125 -1.33417,-3.33542 -3.33542,-3.33542l-64.7071,0c-2.00125,0 -3.33542,1.33417 -3.33542,3.33542l0,8.005c0,2.00125 1.33417,4.0025 3.33542,4.0025zm131.41546,47.36293l-8.005,0c-2.00125,0 -3.33542,1.33417 -3.33542,3.33542l0,3.33542c0,2.00125 -1.33417,3.33542 -3.33542,3.33542l-8.67209,0c-2.00125,0 -3.33542,-1.33417 -3.33542,-3.33542l0,-8.005c0,-2.00125 -1.33417,-3.33542 -3.33542,-3.33542l-14.00875,0c-2.00125,0 -4.66959,-1.33417 -6.00375,-2.66833l-11.34042,-13.34167c-1.33417,-1.33417 -4.0025,-2.00125 -6.00375,-2.00125l-65.37419,0c-2.00125,0 -4.66959,0.66708 -6.00375,2.66834l-16.01,20.01251c-1.33417,1.33417 -4.0025,2.66833 -6.00375,2.66833l-3.33542,0c-2.00125,0 -3.33542,1.33417 -3.33542,3.33542l0,16.67709c0,2.00125 -1.33417,3.33542 -3.33542,3.33542l-7.33792,0c-2.00125,0 -3.33542,-1.33417 -3.33542,-3.33542l0,-19.34542c0,-2.00125 -1.33417,-3.33542 -3.33542,-3.33542l-8.67209,0c-2.00125,0 -3.33542,1.33417 -3.33542,3.33542l0,64.7071c0,2.00125 1.33417,3.33542 3.33542,3.33542l8.005,0c2.00125,0 3.33542,-1.33417 3.33542,-3.33542l0,-19.34542c0,-2.00125 1.33417,-3.33542 3.33542,-3.33542l7.33792,0c2.00125,0 3.33542,1.33417 3.33542,3.33542l0,16.67709c0,2.00125 1.33417,3.33542 3.33542,3.33542l10.00625,0c2.00125,0 4.66959,1.33417 6.00375,2.66833l18.67834,19.34542c1.33417,1.33417 4.0025,2.66833 6.00375,2.66833l70.04377,0c2.00125,0 4.66959,-1.33417 6.00375,-2.66833l19.34542,-22.01376c1.33417,-1.33417 4.0025,-2.66833 6.00375,-2.66833l8.005,0c2.00125,0 3.33542,1.33417 3.33542,2.66833s1.33417,2.66833 3.33542,2.66833l8.005,0c2.00125,0 3.33542,-1.33417 3.33542,-3.33542l0,-64.7071c0,-2.00125 -2.00125,-3.33542 -3.33542,-3.33542zm-72.04502,42.02626l-32.02001,28.68459c-3.33542,2.66834 -4.0025,2.00125 -2.00125,-2.00125l4.66959,-8.67209c2.00125,-3.33542 0.66708,-8.005 -3.33542,-10.00625l-6.67084,-4.0025c-3.33542,-2.00125 -6.00375,-6.67084 -6.00375,-11.34042l2.00125,-26.01626c0,-4.0025 4.0025,-7.33792 8.005,-7.33792l26.01626,0c4.0025,0 6.00375,2.66834 4.0025,6.67084l-12.67459,22.68084c-2.00125,3.33542 0,6.67084 4.0025,6.67084l12.67459,0c3.33542,0 4.66959,2.00125 1.33417,4.66958zm0,0" stroke-width="5" stroke-miterlimit="10" stroke-dasharray=""></path></g></svg>