<svg data-v-9833e8b2="" version="1.1" xmlns="http://www.w3.org/2000/svg" xmlns:xlink="http://www.w3.org/1999/xlink" width="25" height="25"><g data-v-9833e8b2=""><path data-v-9833e8b2="" transform="scale(0.12376237623762376)" fill="none" stroke="currentColor" paint-order="fill stroke markers" d="m126.00031,108.00027l0,30.50008a22.50006,22.50006 0 1 1 -45.00011,0l0,-15.50004l-16.50004,0a3.50001,3.50001 0 0 1 0,-7.00002l16.50004,0l0,-10.50003l-21.50005,0a3.50001,3.50001 0 0 1 0,-7.00002l21.50005,0l0,-10.50003l-16.50004,0a3.50001,3.50001 0 0 1 0,-7.00002l16.50004,0l0,-12.50003a22.50006,22.50006 0 1 1 45.00011,0l0,32.50008l16.50004,0a3.50001,3.50001 0 0 1 0,7.00002l-16.50004,0zm-25.00006,93.00023c-55.23014,0 -100.00025,-44.77011 -100.00025,-100.00025s44.77011,-100.00025 100.00025,-100.00025s100.00025,44.77011 100.00025,100.00025s-44.77011,100.00025 -100.00025,100.00025zm0,-7.00002c51.36013,0 93.00023,-41.6401 93.00023,-93.00023c0,-51.36013 -41.6401,-93.00023 -93.00023,-93.00023c-51.36013,0 -93.00023,41.6401 -93.00023,93.00023c0,51.36013 41.6401,93.00023 93.00023,93.00023zm2.50001,-141.00035a15.50004,15.50004 0 0 0 -15.50004,15.50004l0,70.00018a15.50004,15.50004 0 0 0 31.00008,0l0,-70.00018a15.50004,15.50004 0 0 0 -15.50004,-15.50004z" stroke-width="5" stroke-miterlimit="10" stroke-dasharray=""></path></g></svg>