<svg data-v-9833e8b2="" version="1.1" xmlns="http://www.w3.org/2000/svg" xmlns:xlink="http://www.w3.org/1999/xlink" width="25" height="22.5"><g data-v-9833e8b2=""><path data-v-9833e8b2="" transform="scale(0.13297872340425532)" fill="none" stroke="currentColor" paint-order="fill stroke markers" d="m177.68,165.06l-166.58,0c-5.57,0 -10.1,-4.52 -10.1,-10.1l0,-143.86c0,-5.57 4.52,-10.1 10.1,-10.1l166.58,0c5.57,0 10.1,4.52 10.1,10.1l0,143.86c0,5.58 -4.53,10.1 -10.1,10.1l0,0l0,0z" stroke-width="5" stroke-miterlimit="10" stroke-dasharray=""></path><path data-v-9833e8b2="" transform="scale(0.13297872340425532)" fill="none" stroke="currentColor" paint-order="fill stroke markers" d="m177.68,160.01c2.78,0 5.05,-2.26 5.05,-5.05l0,-143.86c0,-2.78 -2.26,-5.05 -5.05,-5.05l-166.58,0c-2.78,0 -5.05,2.26 -5.05,5.05l0,143.86c0,2.78 2.26,5.05 5.05,5.05l166.58,0" stroke-width="5" stroke-miterlimit="10" stroke-dasharray=""></path><path data-v-9833e8b2="" transform="scale(0.13297872340425532)" fill="none" stroke="currentColor" paint-order="fill stroke markers" d="m81.77,152.44l-60.57,0c-4.18,0 -7.57,-3.39 -7.57,-7.57l0,-123.68c0,-4.18 3.39,-7.57 7.57,-7.57l60.57,0c4.18,0 7.57,3.39 7.57,7.57l0,123.67c0,4.19 -3.39,7.58 -7.57,7.58l0,0z" stroke-width="5" stroke-miterlimit="10" stroke-dasharray=""></path><path data-v-9833e8b2="" transform="scale(0.13297872340425532)" fill="none" stroke="currentColor" paint-order="fill stroke markers" d="m81.77,75.46c0,-3.48 -2.83,-6.31 -6.31,-6.31c-3.48,0 -6.31,2.83 -6.31,6.31l0,15.15c0,3.48 2.83,6.31 6.31,6.31c3.49,0 6.31,-2.83 6.31,-6.31l0,-15.15l0,0z" stroke-width="5" stroke-miterlimit="10" stroke-dasharray=""></path><path data-v-9833e8b2="" transform="scale(0.13297872340425532)" fill="none" stroke="currentColor" paint-order="fill stroke markers" d="m167.58,152.44l-60.57,0c-4.18,0 -7.57,-3.39 -7.57,-7.57l0,-123.68c0,-4.18 3.39,-7.57 7.57,-7.57l60.57,0c4.18,0 7.57,3.39 7.57,7.57l0,123.67c0.01,4.19 -3.39,7.58 -7.57,7.58l0,0z" stroke-width="5" stroke-miterlimit="10" stroke-dasharray=""></path><path data-v-9833e8b2="" transform="scale(0.13297872340425532)" fill="none" stroke="currentColor" paint-order="fill stroke markers" d="m119.63,75.46c0,-3.48 -2.83,-6.31 -6.31,-6.31c-3.49,0 -6.31,2.83 -6.31,6.31l0,15.15c0,3.48 2.83,6.31 6.31,6.31c3.48,0 6.31,-2.83 6.31,-6.31l0,-15.15l0,0z" stroke-width="5" stroke-miterlimit="10" stroke-dasharray=""></path></g></svg>