<svg data-v-9833e8b2="" version="1.1" xmlns="http://www.w3.org/2000/svg" xmlns:xlink="http://www.w3.org/1999/xlink" width="25" height="22.5"><g data-v-9833e8b2=""><path data-v-9833e8b2="" transform="scale(0.12376237623762376)" fill="none" stroke="currentColor" paint-order="fill stroke markers" d="m127.56028,1l0,16.1602l-116.56025,0l0,-16.1602l-10.00003,0l0,171.88051l10.00003,0l0,-16.4102l116.56025,0l0,16.4102l73.44022,0l0,-171.88051l-73.44022,0zm2.77012,145.74041l-119.33038,0l0,-119.6003l119.33038,0l0,119.6003zm29.10007,15.65004l-20.76021,0l0,-151.40038l20.76021,0l0,151.40038zm31.58992,0l-20.76997,0l0,-151.40038l20.75005,0l0.01992,151.40038z" stroke-width="5" stroke-miterlimit="10" stroke-dasharray=""></path><path data-v-9833e8b2="" transform="scale(0.12376237623762376)" fill="none" stroke="currentColor" paint-order="fill stroke markers" d="m73.05018,37.72021a49.22005,49.22005 0 1 0 49.22005,49.22005a49.22005,49.22005 0 0 0 -49.22005,-49.22005zm0,88.46018a39.24014,39.24014 0 1 1 39.24014,-39.24014a39.24014,39.24014 0 0 1 -39.24014,39.24014z" stroke-width="5" stroke-miterlimit="10" stroke-dasharray=""></path><path data-v-9833e8b2="" transform="scale(0.12376237623762376)" fill="none" stroke="currentColor" paint-order="fill stroke markers" d="m100.50025,83.49025c-2.43008,-1 -5.80001,-0.24004 -9.90002,1.5a12.16019,12.16019 0 0 1 -6.60998,0.58985a10.83011,10.83011 0 0 0 -3.54005,-6.36994c2.25997,-2.88985 6.15002,-8.78987 6.15002,-11.86995c0,-3.64005 -3.23009,-11.65003 -15.25004,-11.65003s-13.49007,4.80997 -13.49007,7.4301s2.00001,5.38986 5.28009,8.43986a12.75003,12.75003 0 0 1 3.40001,7.07013a10.94007,10.94007 0 0 0 -3.73009,5.00001c-3.80997,-0.52012 -9.87991,-0.88008 -12.35999,0.45996c-3.21993,1.73008 -8.76994,8.36994 -3.00001,18.86997s10.69007,9.4801 13.00003,8.2301s3.79005,-4.35997 5.00001,-8.6301a11.68011,11.68011 0 0 1 3.30001,-5.20001a11.00003,11.00003 0 0 0 8.00002,0.36016c1.75997,3.17989 5.74005,9.13987 8.60998,10.36995c3.37013,1.43008 12.05999,1.63008 16.79008,-9.35002s0.78008,-14.21 -1.65,-15.25004zm-41.36007,18.51001c-1.45996,3.43009 -3.15001,3.69005 -6.58009,-2.58985s0.47012,-9.5301 4.10997,-10.50003a21.10005,21.10005 0 0 1 6.11017,-0.24023a10.79007,10.79007 0 0 0 2.21993,5.36017a27.74011,27.74011 0 0 0 -5.85998,7.96994zm14.35004,-9.92991a4.88009,4.88009 0 1 1 4.91993,-4.88009a4.89005,4.89005 0 0 1 -4.91993,4.88009zm5.9299,-22.30006c-0.45996,1.87989 -2.11993,4.61993 -3.61993,6.8301a11.15003,11.15003 0 0 0 -4.60001,-0.21016a1.55,1.55 0 0 0 0,-0.21992a26.00007,26.00007 0 0 0 -4.55001,-10.4801c-2.33985,-2.91993 -1.75997,-4.51993 5.43009,-4.51993s8.21994,4.95001 7.33986,8.60002zm17.2602,27.41999c-2.83009,6.55998 -7.82014,5.55001 -10.84007,3.30997a24.26998,24.26998 0 0 1 -4.64005,-5.55997a11.08987,11.08987 0 0 0 2.60997,-4.24005a27.79011,27.79011 0 0 0 10.82014,-0.20996c3.61993,-1.03008 4.86993,0.14004 2.05001,6.70002z" stroke-width="5" stroke-miterlimit="10" stroke-dasharray=""></path></g></svg>