<svg data-v-9833e8b2="" version="1.1" xmlns="http://www.w3.org/2000/svg" xmlns:xlink="http://www.w3.org/1999/xlink" width="24.5" height="25"><g data-v-9833e8b2=""><path data-v-9833e8b2="" transform="scale(0.13227513227513227)" fill="none" stroke="currentColor" paint-order="fill stroke markers" d="m116.99,153.17l0,17.37l-22.31,0l0,17.84l-26.76,0l0,-17.84l-22.31,0l0,-17.37c-26.42,-13.15 -44.61,-40.35 -44.61,-71.86c0,-44.35 35.95,-80.31 80.31,-80.31s80.31,35.95 80.31,80.31c-0.01,31.51 -18.21,58.71 -44.63,71.86z" stroke-width="5" stroke-miterlimit="10" stroke-dasharray=""></path><path data-v-9833e8b2="" transform="scale(0.13227513227513227)" fill="none" stroke="currentColor" paint-order="fill stroke markers" d="m130.6,119.52l-4.94,-4.94l-11.09,11.09l4.94,4.94c-8.34,6.48 -18.36,10.87 -29.29,12.45l0,-8.21l-17.84,0l0,8.21c-10.93,-1.57 -20.94,-5.97 -29.29,-12.45l4.94,-4.94l-11.09,-11.09l-4.94,4.94c-6.48,-8.34 -10.87,-18.36 -12.45,-29.29l8.21,0l0,-17.85l-8.21,0c1.57,-10.93 5.96,-20.94 12.44,-29.28l4.95,4.95l11.09,-11.09l-4.95,-4.95c8.35,-6.48 18.36,-10.88 29.29,-12.45l0,8.21l17.84,0l0,-8.21c10.93,1.57 20.95,5.97 29.29,12.45l-4.95,4.95l11.09,11.09l4.95,-4.95c6.48,8.34 10.87,18.35 12.44,29.28l-8.21,0l0,17.85l8.21,0c-1.56,10.93 -5.95,20.94 -12.43,29.29z" stroke-width="5" stroke-miterlimit="10" stroke-dasharray=""></path><path data-v-9833e8b2="" transform="scale(0.13227513227513227)" fill="none" stroke="currentColor" paint-order="fill stroke markers" d="m56.4,85.5l24.9,-51.48l24.9,51.48l-49.8,0l0,0z" stroke-width="5" stroke-miterlimit="10" stroke-dasharray=""></path></g></svg>