<svg data-v-9833e8b2="" version="1.1" xmlns="http://www.w3.org/2000/svg" xmlns:xlink="http://www.w3.org/1999/xlink" width="17" height="25"><g data-v-9833e8b2=""><path data-v-9833e8b2="" transform="scale(0.13157894736842105)" fill="none" stroke="currentColor" paint-order="fill stroke markers" d="m37.23,161.02l-17.83,28.53l0,0l-11.95,0l0,-44.51c6.53,9.51 17.41,15.79 29.78,15.98z" stroke-width="5" stroke-miterlimit="10" stroke-dasharray=""></path><path data-v-9833e8b2="" transform="scale(0.13157894736842105)" fill="none" stroke="currentColor" paint-order="fill stroke markers" d="m114.13,145.03l0,44.51l-11.96,0l-17.83,-28.53c12.38,-0.18 23.26,-6.46 29.79,-15.98z" stroke-width="5" stroke-miterlimit="10" stroke-dasharray=""></path><path data-v-9833e8b2="" transform="scale(0.13157894736842105)" fill="none" stroke="currentColor" paint-order="fill stroke markers" d="m120.57,37.79l0,86.45c0,7.72 -2.38,14.87 -6.44,20.79c-6.53,9.52 -17.42,15.8 -29.79,15.99c-0.19,0 -0.38,0.01 -0.57,0.01l-45.97,0c-0.19,0 -0.38,-0.01 -0.57,-0.01c-12.37,-0.19 -23.26,-6.47 -29.79,-15.99c-4.06,-5.91 -6.44,-13.07 -6.44,-20.79l0,-86.45c0,-20.32 16.47,-36.79 36.79,-36.79l45.99,0c20.32,0 36.79,16.48 36.79,36.79z" stroke-width="5" stroke-miterlimit="10" stroke-dasharray=""></path></g></svg>