<svg data-v-9833e8b2="" version="1.1" xmlns="http://www.w3.org/2000/svg" xmlns:xlink="http://www.w3.org/1999/xlink" width="25" height="20"><g data-v-9833e8b2=""><path data-v-9833e8b2="" transform="scale(0.12886597938144329)" fill="none" stroke="currentColor" paint-order="fill stroke markers" d="m193.13,68.69l0,65.87c0,5.05 -4.09,9.15 -9.15,9.15c-5.05,0 -9.15,-4.1 -9.15,-9.15l0,-1.83l-31.61,0c-0.14,0.21 -0.3,0.4 -0.45,0.61c-0.39,0.54 -0.78,1.08 -1.18,1.61c-0.23,0.31 -0.47,0.61 -0.71,0.91c-0.4,0.49 -0.8,0.98 -1.21,1.46c-0.25,0.29 -0.49,0.57 -0.74,0.86c-0.48,0.54 -0.97,1.06 -1.47,1.57c-0.19,0.2 -0.38,0.41 -0.58,0.61c-0.69,0.69 -1.39,1.36 -2.11,2.01c-0.24,0.21 -0.48,0.42 -0.72,0.63c-0.51,0.45 -1.03,0.89 -1.56,1.31c-0.3,0.25 -0.61,0.48 -0.92,0.72c-0.49,0.38 -0.99,0.75 -1.49,1.11c-0.32,0.23 -0.64,0.46 -0.97,0.69c-0.55,0.38 -1.11,0.74 -1.67,1.1c-0.28,0.18 -0.56,0.37 -0.85,0.54c-0.83,0.51 -1.67,0.99 -2.52,1.45c-0.27,0.15 -0.55,0.28 -0.82,0.42c-0.62,0.32 -1.24,0.64 -1.87,0.93c-0.37,0.17 -0.74,0.33 -1.1,0.5c-0.56,0.25 -1.12,0.49 -1.69,0.72c-0.39,0.16 -0.78,0.31 -1.17,0.46c-0.6,0.23 -1.2,0.44 -1.8,0.64c-0.36,0.12 -0.72,0.25 -1.08,0.37c-0.94,0.3 -1.88,0.57 -2.84,0.82c-0.27,0.07 -0.55,0.12 -0.82,0.19c-0.72,0.17 -1.45,0.34 -2.19,0.49c-0.41,0.08 -0.82,0.15 -1.23,0.22c-0.62,0.11 -1.24,0.21 -1.86,0.29c-0.43,0.06 -0.87,0.12 -1.31,0.17c-0.64,0.07 -1.28,0.13 -1.92,0.18c-0.41,0.03 -0.83,0.07 -1.24,0.09c-0.86,0.05 -1.72,0.07 -2.59,0.08c-0.18,0 -0.36,0.02 -0.54,0.02s-0.36,-0.02 -0.54,-0.02c-0.87,-0.01 -1.73,-0.03 -2.59,-0.08c-0.42,-0.02 -0.83,-0.06 -1.24,-0.09c-0.64,-0.05 -1.28,-0.11 -1.92,-0.18c-0.44,-0.05 -0.87,-0.11 -1.31,-0.17c-0.62,-0.09 -1.24,-0.19 -1.86,-0.29c-0.41,-0.07 -0.82,-0.14 -1.23,-0.22c-0.74,-0.15 -1.46,-0.31 -2.19,-0.49c-0.27,-0.07 -0.55,-0.12 -0.82,-0.19c-0.96,-0.25 -1.9,-0.52 -2.84,-0.82c-0.36,-0.12 -0.72,-0.24 -1.08,-0.37c-0.61,-0.21 -1.21,-0.42 -1.8,-0.64c-0.39,-0.15 -0.78,-0.3 -1.17,-0.46c-0.57,-0.23 -1.13,-0.47 -1.69,-0.72c-0.37,-0.16 -0.74,-0.33 -1.1,-0.5c-0.63,-0.3 -1.25,-0.61 -1.87,-0.93c-0.27,-0.14 -0.55,-0.27 -0.82,-0.42c-0.86,-0.46 -1.7,-0.95 -2.52,-1.45c-0.29,-0.18 -0.56,-0.36 -0.85,-0.54c-0.56,-0.36 -1.12,-0.72 -1.67,-1.1c-0.33,-0.22 -0.65,-0.46 -0.97,-0.69c-0.5,-0.36 -1,-0.73 -1.49,-1.11c-0.31,-0.24 -0.62,-0.48 -0.92,-0.72c-0.53,-0.43 -1.04,-0.87 -1.56,-1.31c-0.24,-0.21 -0.49,-0.41 -0.72,-0.63c-0.72,-0.65 -1.43,-1.32 -2.11,-2.01c-0.2,-0.2 -0.38,-0.41 -0.58,-0.61c-0.5,-0.52 -0.99,-1.04 -1.47,-1.57c-0.25,-0.28 -0.5,-0.57 -0.74,-0.86c-0.41,-0.48 -0.82,-0.97 -1.21,-1.46c-0.24,-0.3 -0.48,-0.6 -0.71,-0.91c-0.41,-0.53 -0.8,-1.07 -1.18,-1.61c-0.15,-0.21 -0.3,-0.4 -0.45,-0.61l-33.48,0l0,1.83c0,5.05 -4.1,9.15 -9.15,9.15s-9.15,-4.1 -9.15,-9.15l0,-65.87c0,-5.05 4.09,-9.15 9.15,-9.15s9.15,4.1 9.15,9.15l0,1.83l33.45,0c0.12,-0.17 0.25,-0.33 0.37,-0.5c0.43,-0.6 0.86,-1.2 1.31,-1.78c0.21,-0.28 0.43,-0.56 0.65,-0.83c0.43,-0.54 0.87,-1.06 1.32,-1.59c0.22,-0.26 0.44,-0.52 0.67,-0.77c0.56,-0.63 1.14,-1.24 1.73,-1.84c0.12,-0.12 0.23,-0.24 0.35,-0.36c0.7,-0.7 1.42,-1.38 2.16,-2.04c0.24,-0.22 0.49,-0.43 0.74,-0.64c0.52,-0.45 1.04,-0.89 1.58,-1.32c0.29,-0.24 0.59,-0.47 0.88,-0.7c0.53,-0.41 1.07,-0.81 1.62,-1.2c0.28,-0.2 0.57,-0.41 0.86,-0.61c0.73,-0.5 1.47,-0.98 2.22,-1.44c0.11,-0.07 0.21,-0.14 0.32,-0.21c0.85,-0.52 1.72,-1.01 2.61,-1.48c0.08,-0.05 0.17,-0.1 0.25,-0.14l0,-19.14l0,0l10.98,0l0,-12.81l-37.54,0c-0.48,0 -0.95,-0.05 -1.42,-0.11c-4.89,-0.69 -8.65,-4.88 -8.65,-9.95c0,-5.56 4.51,-10.06 10.07,-10.06l104.3,0c5.56,0 10.07,4.51 10.07,10.06c0,5.1 -3.8,9.31 -8.73,9.97c-0.44,0.06 -0.88,0.1 -1.34,0.1l-37.51,0l0,12.81l10.98,0l0,19.14c0.08,0.04 0.15,0.09 0.22,0.13c0.9,0.48 1.79,0.98 2.66,1.51c0.03,0.02 0.07,0.04 0.1,0.06c0.83,0.51 1.64,1.04 2.45,1.59c0.26,0.18 0.5,0.36 0.76,0.54c0.58,0.41 1.16,0.84 1.72,1.27c0.27,0.21 0.54,0.42 0.81,0.64c0.57,0.45 1.12,0.92 1.66,1.4c0.22,0.19 0.45,0.38 0.67,0.58c0.75,0.67 1.48,1.36 2.19,2.07c0.09,0.09 0.18,0.19 0.27,0.29c0.61,0.62 1.21,1.26 1.8,1.92c0.22,0.25 0.43,0.5 0.65,0.75c0.45,0.53 0.9,1.06 1.33,1.6c0.22,0.27 0.44,0.55 0.65,0.83c0.45,0.59 0.88,1.18 1.31,1.79c0.12,0.17 0.25,0.33 0.37,0.5l31.62,0l0,-1.83c0,-5.05 4.1,-9.15 9.15,-9.15c5.05,-0.02 9.14,4.07 9.14,9.12z" stroke-width="5" stroke-miterlimit="10" stroke-dasharray=""></path><path data-v-9833e8b2="" transform="scale(0.12886597938144329)" fill="none" stroke="currentColor" paint-order="fill stroke markers" d="m21.13,86.99l21.96,0l0,29.28l-21.96,0l0,-29.28l0,0z" stroke-width="5" stroke-miterlimit="10" stroke-dasharray=""></path><path data-v-9833e8b2="" transform="scale(0.12886597938144329)" fill="none" stroke="currentColor" paint-order="fill stroke markers" d="m151.05,86.99l21.96,0l0,29.28l-21.96,0l0,-29.28l0,0z" stroke-width="5" stroke-miterlimit="10" stroke-dasharray=""></path><path data-v-9833e8b2="" transform="scale(0.12886597938144329)" fill="none" stroke="currentColor" paint-order="fill stroke markers" d="m122.9,105.99c-0.56,3.23 -1.74,6.25 -3.4,8.93c2.47,0.58 5.17,2.1 7.51,4.44c4.64,4.65 6.09,10.73 3.23,13.59c-2.86,2.86 -8.94,1.41 -13.59,-3.24c-2.24,-2.25 -3.72,-4.82 -4.35,-7.22c-2.58,1.77 -5.51,3.07 -8.65,3.79c1.23,2.13 1.99,4.98 1.99,8.13c0,6.57 -3.28,11.89 -7.32,11.89c-4.04,0 -7.32,-5.32 -7.32,-11.89c0,-3.08 0.72,-5.87 1.9,-7.98c-3.16,-0.64 -6.09,-1.89 -8.71,-3.59c-0.64,2.36 -2.1,4.89 -4.31,7.1c-4.65,4.64 -10.73,6.09 -13.59,3.23c-2.86,-2.86 -1.41,-8.94 3.23,-13.58c2.22,-2.22 4.77,-3.69 7.15,-4.33c-1.69,-2.64 -2.92,-5.6 -3.54,-8.78c-2.14,1.29 -5.08,2.09 -8.31,2.09c-6.57,0 -11.89,-3.28 -11.89,-7.32c0,-4.04 5.32,-7.32 11.89,-7.32c3.31,0 6.3,0.83 8.45,2.17c0.71,-3.21 2.02,-6.18 3.82,-8.81c-2.55,-0.52 -5.38,-2.05 -7.81,-4.48c-4.65,-4.65 -6.09,-10.73 -3.23,-13.59c2.86,-2.86 8.94,-1.41 13.58,3.24c2.48,2.48 4.02,5.36 4.5,7.95c2.71,-1.77 5.77,-3.03 9.06,-3.66c-1.55,-2.18 -2.54,-5.4 -2.54,-9c0,-6.57 3.28,-11.89 7.32,-11.89s7.32,5.32 7.32,11.89c0,3.6 -0.99,6.82 -2.54,9c3.31,0.63 6.4,1.91 9.12,3.7c0.42,-2.66 1.97,-5.66 4.54,-8.23c4.65,-4.65 10.73,-6.09 13.59,-3.23c2.86,2.86 1.41,8.94 -3.24,13.58c-2.52,2.52 -5.44,4.06 -8.06,4.52c1.86,2.65 3.22,5.66 3.95,8.92c2.18,-1.48 5.32,-2.42 8.82,-2.42c6.57,0 11.89,3.28 11.89,7.32s-5.32,7.32 -11.89,7.32c-3.37,0.02 -6.4,-0.85 -8.57,-2.24z" stroke-width="5" stroke-miterlimit="10" stroke-dasharray=""></path></g></svg>