<svg data-v-9833e8b2="" version="1.1" xmlns="http://www.w3.org/2000/svg" xmlns:xlink="http://www.w3.org/1999/xlink" width="25" height="17.5"><g data-v-9833e8b2=""><path data-v-9833e8b2="" transform="scale(0.12376237623762376)" fill="none" stroke="currentColor" paint-order="fill stroke markers" d="m195.4795,125.46465l-3.60156,0l0,-71.004l3.60156,0a5.58207,5.58207 0 0 0 0,-11.16415l-3.60156,0l0,-13.98868l-11.16415,0l0,13.98868l-8.32176,0l0,-21.61603l-17.63936,0l0,-20.68047l-45.08754,0l0,20.68047l-17.4317,0l0,-20.68047l-45.08754,0l0,20.68047l-17.47413,0l0,21.61603l-8.82861,0l0,-13.98868l-11.16415,0l0,13.98868l-3.09694,0a5.58207,5.58207 0 0 0 0,11.16415l3.09694,0l0,71.004l-3.09694,0a5.58207,5.58207 0 0 0 0,11.16415l188.89743,0a5.58207,5.58207 0 0 0 0,-11.16415zm-40.72682,-92.62003l6.47521,0l0,33.19102l-6.47521,0l0,-33.19102zm-33.92339,-20.68047l22.75924,0l0,74.55196l-22.75924,0l0,-74.55196zm-28.59586,20.68047l17.4317,0l0,33.19102l-17.4317,0l0,-33.19102zm-33.92339,-20.68047l22.75924,0l0,74.55196l-22.75924,0l0,-74.55196zm-17.47413,20.68047l6.30998,0l0,33.19102l-6.30998,0l0,-33.19102zm139.87788,92.62003l-159.87064,0l0,-71.004l8.82861,0l0,22.73914l17.47413,0l0,20.68047l45.08754,0l0,-20.68047l17.4317,0l0,20.68047l45.08754,0l0,-20.68047l17.63936,0l0,-22.73914l8.32176,0l0,71.004z" stroke-width="5" stroke-miterlimit="10" stroke-dasharray=""></path></g></svg>