<svg data-v-9833e8b2="" version="1.1" xmlns="http://www.w3.org/2000/svg" xmlns:xlink="http://www.w3.org/1999/xlink" width="25" height="25"><g data-v-9833e8b2=""><path data-v-9833e8b2="" transform="scale(0.125)" fill="none" stroke="currentColor" paint-order="fill stroke markers" d="m100.28566,100.31992m-99.28564,0a99.28564,99.28564 0 1 0 198.57129,0a99.28564,99.28564 0 1 0 -198.57129,0z" stroke-width="5" stroke-miterlimit="10" stroke-dasharray=""></path><path data-v-9833e8b2="" transform="scale(0.125)" fill="none" stroke="currentColor" paint-order="fill stroke markers" d="m118.32947,98.80138l0.11166,-0.11166c-7.19073,-7.19073 -17.10589,-11.63469 -28.07064,-11.63469c-10.96474,0 -20.90224,4.44396 -28.07064,11.63469l4.6896,4.68961c5.98483,-5.98483 14.2698,-9.69185 23.40337,-9.69185c8.28497,0 15.85533,3.08174 21.66151,8.10632l-0.11166,0.11166c7.19073,7.19073 17.10589,11.63469 28.07064,11.63469c10.96474,0 20.90224,-4.44396 28.07064,-11.63469l-4.68961,-4.68961c-5.98483,5.98483 -14.2698,9.69185 -23.40336,9.69185c-8.3073,0.02233 -15.85533,-3.05941 -21.66151,-8.10632zm-47.83397,-38.20912c8.28497,0 15.85533,3.08174 21.66151,8.10632l-0.11166,0.11166c7.19073,7.19073 17.10589,11.63469 28.07064,11.63469c10.96474,0 20.90224,-4.44396 28.07064,-11.63469l-4.68961,-4.68961c-5.98483,5.98483 -14.2698,9.69185 -23.40337,9.69185c-8.28497,0 -15.85533,-3.08174 -21.66151,-8.10632l0.11166,-0.11166c-7.19073,-7.19073 -17.10589,-11.63469 -28.07064,-11.63469c-10.96474,0 -20.90224,4.44396 -28.07064,11.63469l4.68961,4.68961c5.98483,-5.98483 14.2698,-9.69185 23.40337,-9.69185zm49.64282,79.43298c-8.28497,0 -15.85533,-3.08174 -21.66151,-8.10632l0.11166,-0.11166c-7.19073,-7.19073 -17.10589,-11.63469 -28.07064,-11.63469c-10.96474,0 -20.90224,4.44396 -28.07064,11.63469l4.68961,4.68961c5.98483,-5.98483 14.2698,-9.69185 23.40336,-9.69185c8.28497,0 15.85533,3.08174 21.66151,8.10632l-0.11166,0.11166c7.19073,7.19073 17.10589,11.63469 28.07064,11.63469c10.96474,0 20.90224,-4.44396 28.07064,-11.63469l-4.68961,-4.68961c-6.00716,5.98483 -14.2698,9.69185 -23.40336,9.69185z" stroke-width="5" stroke-miterlimit="10" stroke-dasharray=""></path></g></svg>