<svg data-v-9833e8b2="" version="1.1" xmlns="http://www.w3.org/2000/svg" xmlns:xlink="http://www.w3.org/1999/xlink" width="25" height="25"><g data-v-9833e8b2=""><path data-v-9833e8b2="" transform="scale(0.12626262626262627)" fill="none" stroke="currentColor" paint-order="fill stroke markers" d="m99.76293,26.55866c40.43029,0 73.20426,32.77397 73.20426,73.20426s-32.77397,73.20426 -73.20426,73.20426s-73.20426,-32.77397 -73.20426,-73.20426s32.77397,-73.20426 73.20426,-73.20426zm18.42029,10.94346a1.05127,1.05127 0 0 0 -0.89742,0c-1.81536,0.44102 -3.57432,1.07691 -5.25635,1.89229a6.30762,6.30762 0 0 0 -0.62563,0.3282l-0.48205,0.3282l0.27692,-0.13846l0.2,-0.10256l0.10256,-0.05128a24.76894,24.76894 0 0 1 5.26148,-1.89229l-0.65127,0.18461c-1.6769,0.48717 -4.34354,1.39486 -5.9589,2.66664a6.30762,6.30762 0 0 1 0.67691,-0.59999l0.06154,-0.05128l-0.5641,0.37948c-0.3641,0.26666 -0.69743,0.57948 -0.98973,0.92306l-0.41025,0.54871a6.78453,6.78453 0 0 0 -0.63076,1.99998a6.05121,6.05121 0 0 0 0,2.15382c0.15384,0.47179 0.35897,0.92306 0.61538,1.33844l-1.45639,-0.54871l-0.07179,0.18461l-0.08718,-0.02564l-1.52819,4.10252l0.11282,0.0359l-0.00513,0.01538l3.2974,1.2205l-2.79997,8.09221l-0.86666,0.05128l-0.83589,0.31794a10.51782,10.51782 0 0 0 -0.81025,0.38461l-0.5641,0.3282l0,-1.76921l-1.99998,0l0,-15.19982l-4.20508,0l0,15.19982l-1.99998,0l0,1.42562l-0.78973,-0.47692l-1.15383,-0.47179l-1.00512,0.35384c-0.51794,-1.5487 -1.05127,-3.08201 -1.58972,-4.61533l-1.30768,-3.69226l3.27176,-1.19999l-0.0359,-0.09744l0.0359,-0.01026l-0.01538,-0.02564l-0.03077,0.01026l-1.48203,-4.08713l-1.35896,0.51281l0.02051,-0.05128l1.3487,-0.49743l-0.06154,-0.17436l-1.17434,0.44615c0.11282,-0.24615 0.20513,-0.49743 0.28205,-0.75384a6.30762,6.30762 0 0 0 0,-2.2051a6.47172,6.47172 0 0 0 -0.6923,-2.1692a6.30762,6.30762 0 0 0 -2.62561,-2.26151a26.29712,26.29712 0 0 0 -5.26148,-1.89741a1.11794,1.11794 0 0 0 -0.31282,-0.09231a1.10255,1.10255 0 0 0 -1.21537,0.5641l-0.08205,0.21025l-0.07179,0.15897a17.23569,17.23569 0 0 0 -0.3282,1.05127a29.13812,29.13812 0 0 0 -0.88204,4.21021c-0.14359,0.89742 -0.08205,1.81536 0.18461,2.67689l0.2359,0.63589l0.06667,0.12308l0,0.01538l0.01026,0.01026l0.08205,0.22051l0.39487,0.64102c0.2923,0.41025 0.63589,0.77435 1.02563,1.0923c0.37435,0.28205 0.77948,0.51794 1.21024,0.70768l-1.36921,0.50256l1.52306,4.26149l0.05128,0.05128l0.02564,-0.01026l0.03077,0.06667l3.47175,-1.28204l2.80509,8.29734l-1.04101,0.37436a2.31792,2.31792 0 0 0 -1.03589,-0.8205a3.63073,3.63073 0 0 0 -2.51792,-0.25641l-0.26666,0.10256l-0.25641,0c-0.67179,0.2923 -1.32306,0.62563 -1.94869,0.99999l-0.10256,0.05128l0.15384,0l0.2359,-0.13846l0.18974,-0.11795l-0.47692,0.30769l-0.31794,0.19487l0,-0.12821l-0.15384,0.09231l0,48.86096c-2.3692,0.83589 -4.682,1.80511 -6.93838,2.90253l-2.15382,1.09742c-0.76922,0.40512 -1.52306,0.8205 -2.27177,1.26152l-0.47179,0l0,36.08162l0.10256,0.05128l0,0.10256l0.17948,0l0.18974,0.10769a51.38401,51.38401 0 0 0 13.41523,5.73326c1.55383,0.30256 3.11278,0.54871 4.682,0.74358c3.76406,0.74871 7.59991,1.15383 11.4614,1.20511l0.37948,0l-0.01026,0.10256c5.44609,-0.03077 10.87167,-0.71794 16.14853,-2.05126c4.73841,-1.41024 9.25117,-3.48201 13.4101,-6.15377l0.1641,-0.10256l0.30769,0l0,-0.58461l0.05128,0l0,-34.97394l-0.05128,0l0,-0.26154l-0.05128,0l0,-0.31795l-0.47179,0c-0.15384,-0.10256 -1.99998,-1.15383 -4.31277,-2.30766a45.07639,45.07639 0 0 0 -5.19994,-2.36407l-1.69229,-0.60512l0,-48.36866l-0.10769,0l0,-0.36923l-0.41538,-0.26154l-1.94869,-0.99999a1.15896,1.15896 0 0 0 -0.63076,0l-0.59486,-0.06667c-0.4,-0.02564 -0.79999,0 -1.19486,0.06667a2.15382,2.15382 0 0 0 -1.3128,0.57948a2.2051,2.2051 0 0 0 -0.35384,0.35897l-0.8205,-0.28718l2.74868,-7.9999l3.36919,1.24614l1.57947,-4.25636l0,-0.05128l-2.22561,-0.8205l0.34359,-0.18974l0.30256,-0.22051l0.3282,-0.10256c0.5282,-0.19487 1.0205,-0.47179 1.46152,-0.82563c0.58461,-0.48204 1.06665,-1.07178 1.4205,-1.73844l0.2359,-0.6564a6.30762,6.30762 0 0 0 0.18461,-2.76407a29.45606,29.45606 0 0 0 -1.21024,-5.25635a1.15896,1.15896 0 0 0 -0.63076,-0.68204l0.00513,0.00513zm-3.16406,25.66123l0.11282,0.05128l0.8923,0.47692l0,49.28147l0.73845,0c1.5487,0.36923 3.04612,0.92306 4.47174,1.63075c2.7333,1.21024 5.52301,2.73843 6.62556,3.36919l0,33.92268a63.85053,63.85053 0 0 1 -28.71761,7.31273l-2.14356,-0.06154a62.39413,62.39413 0 0 1 -3.93329,-0.30769c-7.02556,-0.8205 -13.87676,-2.82048 -20.25617,-5.91788l-1.9128,-0.97435l0,-33.77396l0.3282,-0.17948c1.30255,-0.72307 3.81534,-2.05126 6.24608,-3.12817c1.40511,-0.71794 2.88714,-1.26665 4.42046,-1.62562l0.73845,0l-0.00513,-0.47692l-0.52307,0a26.37405,26.37405 0 0 0 -0.05641,0.01538l0,-48.81994l0.57948,-0.30769l0,0.46153l0.94871,-0.47179a2.3692,2.3692 0 0 1 0.5282,-0.26154l0.4,-0.05128a3.2615,3.2615 0 0 1 0.81025,0.05128l0.21538,-0.02564a0.78973,0.78973 0 0 1 -0.06154,0.38974a1.05127,1.05127 0 0 1 -0.59999,1.06152l-0.55384,-0.00513l-0.00513,0.10256l-0.52307,0l0,49.58916l-1.33332,0.37948c-1.85639,0.5641 -3.67175,1.23076 -5.45122,1.99998c-1.18973,0.43589 -2.30766,1.04614 -3.31278,1.81536l-0.45128,0.3641l-0.86153,0.55384l0,30.45092l0.30769,0l0.00513,0.63076l0.47179,0c4.1538,2.32818 8.58964,4.09739 13.20497,5.26148a48.2302,48.2302 0 0 0 12.93831,1.31281l-0.00513,0.8564l0.10256,-1.69229l0.27179,0l0,0.83589l2.01536,0.01538a48.49173,48.49173 0 0 0 15.75879,-2.85125a47.33277,47.33277 0 0 0 8.15375,-3.52816l0.36923,0l0,-31.23553l-0.05641,-0.04615l0,-0.95383c-1.19999,-1.02563 -2.5692,-1.84613 -4.05123,-2.42048a53.54296,53.54296 0 0 0 -7.35889,-2.52305l0.10256,0.02564l0,0.41025l-0.25641,-0.06666l-0.00513,-47.4097l0.05128,0.02051l-0.05128,-0.12307l0,-1.56408l0.15384,0l0,-0.83589l-0.78461,0a1.05127,1.05127 0 0 1 -0.21025,0.02564l-0.3641,-0.87178a1.2564,1.2564 0 0 1 0.52307,-0.15384l1.35896,0l0,-0.01026zm-36.54316,89.52202c6.53838,2.57946 13.54343,3.85636 20.61514,3.73329l0.20513,0l0,0.21025a45.38921,45.38921 0 0 1 -12.83062,-1.36409a55.4096,55.4096 0 0 1 -7.98965,-2.57946zm25.09714,3.61534l-0.17436,0.01538l-1.96408,0.06667l2.13844,-0.08205zm10.09219,-1.65126l-1.63075,0.42564a49.28147,49.28147 0 0 1 -6.323,1.06153l-2.13331,0.1641l2.15382,-0.18461c2.3333,-0.25128 4.64097,-0.65127 6.91274,-1.19999l1.02563,-0.26666l-0.00513,0zm-1.16409,-52.14297l0,13.36394l0.42051,0l0,-0.11282l0.15897,0.00513c1.66665,0.39487 3.30253,0.89742 4.89738,1.50767l0.20513,0.08205a61.16851,61.16851 0 0 0 -4.73328,-1.48716l-0.26666,0a73.63503,73.63503 0 0 1 7.68709,2.63587c0.59486,0.28205 1.17947,0.57948 1.76408,0.8923l0.93845,0.5282l0.55384,0.3641l0,29.1894a52.59425,52.59425 0 0 1 -22.93306,5.93326l-1.89741,0.01026l0,-0.10256l-2.03074,0.01026a46.70714,46.70714 0 0 1 -10.06142,-1.27178a55.59421,55.59421 0 0 1 -10.73834,-3.72816l-2.041,-1.00512l-0.00513,-29.12273l0.72307,-0.47179c0.95383,-0.57948 1.96408,-1.06153 3.01535,-1.43588c1.53844,-0.61025 3.0974,-1.15896 4.66661,-1.66152l2.13844,-0.64615l-1.1487,0.35897c-0.42564,0.78461 -0.8564,1.56408 -1.29742,2.3333l-1.36409,2.29228l-2.94355,-0.78461l-3.57432,11.62037l0.44102,0.11795l-0.02051,0.09231l4.05123,1.09742c0.62051,0.79999 1.41024,1.45127 2.31279,1.89741c0.46153,0.26666 0.95896,0.47692 1.47178,0.63589c3.52304,1.10255 6.62556,2.15382 8.78451,2.78971l2.2051,0.68204c0.41025,0.15897 0.77435,0.33333 1.0923,0.52307c2.92304,1.88716 1.78459,4.84097 0.8564,7.26145l-0.26154,0.73332c-0.0718,0.29231 -0.09744,0.58461 -0.0718,0.88204l0.03077,0.19487l-0.11795,0.4a2.63074,2.63074 0 0 0 0,0.63076a3.21022,3.21022 0 0 0 0,0.63076c0.30769,0.42564 0.75384,0.74358 1.26152,0.8923c0.67691,0.22564 1.38973,0.33333 2.10254,0.31794c0.87179,0.07692 1.75382,0.07692 2.63074,0c0.92307,-0.15384 1.83588,-0.3641 2.7333,-0.63076l0.73845,-0.21025l0.19487,-0.19487c1.50767,-0.53845 2.92304,-1.29229 4.22559,-2.22561a18.61516,18.61516 0 0 0 6.46659,-9.67681c0.47179,-1.46152 0.76409,-2.96407 0.87178,-4.47174l0.1282,-1.26152c0.05128,-1.89741 -0.17948,-3.79483 -0.68204,-5.6307a12.83575,12.83575 0 0 0 -0.99999,-2.31279a17.14851,17.14851 0 0 0 -1.26152,-2.10254l-0.75384,-0.91281a19.09208,19.09208 0 0 0 -3.45637,-3.24612a3.73329,3.73329 0 0 0 -3.31278,-0.94358l0.46153,-0.07179a2.15382,2.15382 0 0 0 -1.30255,0.07179a1.78972,1.78972 0 0 0 -0.63076,0.31282l-0.47692,0.47692l-0.3641,0.57435l0,1.4205a10.51782,10.51782 0 0 1 -1.68716,4.05123a4.23585,4.23585 0 0 1 -2.96407,1.31281a8.10247,8.10247 0 0 1 -1.03076,-0.20513l-2.31279,-0.78973l-1.46152,-0.50256l0,-0.10256c0.11282,-1.97434 0.74871,-5.42558 1.5128,-9.44091c0.52307,-2.78971 1.21024,-5.78967 1.99998,-8.73323c0,-0.63076 0.42051,-1.3128 0.57435,-1.94869c0.15897,-0.62563 0.36923,-1.15383 0.57948,-1.68203l13.30754,0zm-41.60976,15.37931l0,0.28717l-0.10256,0.06154l0,33.84575l-0.3641,-0.18461l-0.21025,-33.60986l0.67692,-0.4zm33.5637,32.64577l0.12308,0.03077l-0.4923,0.17948c-0.8923,0.26154 -1.81024,0.45641 -2.7333,0.57435l0.73333,-0.20513a21.04078,21.04078 0 0 1 -1.73331,0.30769a4.87174,4.87174 0 0 1 -1.15896,-0.10256a19.56387,19.56387 0 0 0 5.26148,-0.78461zm-31.50732,-0.38974l0.25128,0.12821l-0.25128,0l0,-0.12821zm24.34843,-1.94869a1.26152,1.26152 0 0 0 0.00513,0.38974a1.15896,1.15896 0 0 0 0,0.42051a0.36923,0.36923 0 0 0 0,0.26153l0,0.31795a1.4205,1.4205 0 0 0 0.78973,0.42051c0.31282,0.04103 0.63076,0.05128 0.94871,0.04103l0.2359,-0.02564l-0.41025,0.1282c-0.77948,-0.05128 -1.39998,-0.21538 -1.61537,-0.5641a0.84102,0.84102 0 0 1 0,-0.47179a2.10254,2.10254 0 0 1 0,-0.78973l0.04615,-0.1282zm9.9486,-28.95863c0.42051,-0.15384 1.20511,0.21025 1.99998,0.78973c1.32306,0.98973 2.51279,2.15382 3.51791,3.47175c0.91794,1.23075 1.62562,2.59484 2.10254,4.05123a17.93312,17.93312 0 0 1 -6.3589,19.72284a16.62032,16.62032 0 0 1 -3.02561,1.64101l-0.1641,0.06154l0.55897,-0.28205c0.70768,-0.33333 1.37434,-0.73845 1.99998,-1.21024c0.88717,-0.63589 1.70767,-1.35896 2.45638,-2.15382l0.17948,-0.22564l-0.6564,0.67692a16.41006,16.41006 0 0 1 -0.81025,0.71794l-0.8564,0.66666a11.88704,11.88704 0 0 1 -1.9487,1.15896a14.887,14.887 0 0 1 -1.68716,0.93332l-0.15384,0.06667c-1.18973,0.33846 -2.41023,0.5641 -3.65124,0.66666l-0.33846,0.04103l-1.13332,-0.01026l0.2359,-0.06667a8.94348,8.94348 0 0 1 -1.26152,-0.57948a1.15896,1.15896 0 0 1 -0.63076,-0.36923l0,-0.94871l0.25641,-0.68204c0.8205,-1.63075 1.23588,-3.43586 1.21537,-5.25635c-0.15897,-1.73844 -1.26152,-3.42047 -4.26149,-4.57943l-0.78973,0l-1.68203,-0.47179l-8.73323,-2.78971a5.26148,5.26148 0 0 1 -2.57433,-1.73331a5.26148,5.26148 0 0 1 -1.05127,-2.84099a8.52298,8.52298 0 0 1 0,-1.15896c0.05128,-0.38974 0.14359,-0.77948 0.26154,-1.15383c0.13846,-0.37948 0.29743,-0.74871 0.47179,-1.10768l0.32307,-0.51281l0.35897,-0.48717a4.682,4.682 0 0 1 2.52817,-1.68203c0.99486,-0.30256 2.05126,-0.30256 3.05125,0l8.7281,2.89227l3.05125,0.99999c2.09741,0.89742 4.52815,0.44102 6.15377,-1.15383c1.10768,-1.56921 1.84613,-3.36919 2.15382,-5.26148l0,-1.36921l0.23077,-0.06667c0.15385,-0.02564 0.31282,0 0.46153,0.06667l0.41538,0.19487l0.07179,0.04103a5.88711,5.88711 0 0 0 -0.86153,-0.44615a1.32306,1.32306 0 0 0 -0.43589,-0.06667a0.99999,0.99999 0 0 1 0.28205,-0.19487zm18.50747,0.24615l0.15384,0.1282l0.01026,30.39451l-0.1641,0l0,-30.52272zm-27.33301,25.62534a12.35883,12.35883 0 0 1 -0.8564,2.37433l0.05128,-0.11282l0.0923,-0.23077a32.82012,32.82012 0 0 0 0.37436,-0.99999l0.33846,-1.03076zm9.84091,-25.1638l0.34871,0.24102l0.97435,0.75384l0.92306,0.8205c0.4,0.39487 0.78461,0.81025 1.1487,1.23588l0.53333,0.66153l0.63076,0.97948l0.57948,1.01537c0.34871,0.69743 0.64615,1.41537 0.8923,2.15382c0.55897,1.70255 0.84101,3.47688 0.84102,5.26148a18.19978,18.19978 0 0 1 -3.42047,10.57423l-0.66666,0.86666l-0.51282,0.58461l0.08205,-0.08205a16.41006,16.41006 0 0 0 1.36409,-1.68716c1.10768,-1.49742 1.95895,-3.16406 2.52305,-4.94353c0.53846,-1.70254 0.84102,-3.47175 0.8923,-5.25635c0,-1.78972 -0.28205,-3.56406 -0.84102,-5.26148a14.98957,14.98957 0 0 0 -1.66665,-3.42047l-0.43589,-0.63076l-0.51281,-0.63589a17.72287,17.72287 0 0 0 -2.95894,-2.77945l-0.38461,-0.26154l-0.33333,-0.18974zm-13.79471,17.89722l0.20513,0.01538l0.74871,0.30769c2.35895,1.08204 3.35381,2.52818 3.35381,4.05636l-0.03077,0.59486l-0.03077,-0.46153c-0.17948,-1.73331 -1.26152,-3.34355 -4.19995,-4.49738l-0.04103,-0.01538l-0.00513,0zm6.56915,-8.13836a4.36405,4.36405 0 0 0 -3.15381,0a3.53842,3.53842 0 0 0 -0.7282,0.38461c-0.34358,0.18461 -0.66666,0.41025 -0.95383,0.66666c-0.3641,0.41025 -0.66666,0.87179 -0.89743,1.36921a4.1538,4.1538 0 0 0 0,3.2615c0.41025,1.0564 1.23076,1.90254 2.26151,2.36407l1.68716,0l0.20513,0.05128a2.47177,2.47177 0 0 0 0.42564,0.15897l0.8923,-0.26154l0.45641,-0.24615a4.25636,4.25636 0 0 0 0.80512,-0.64615l0.13333,-0.14359a3.94867,3.94867 0 0 0 1.12819,-4.53841a4.10252,4.10252 0 0 0 -2.25638,-2.42048l-0.00513,0zm-0.74358,0.7282a2.8974,2.8974 0 0 1 1.82562,1.50255l0.13846,0.34358l0.03077,0.36923l-0.04103,0.5282c0.05128,0.34871 0.05128,0.70256 0,1.05127a3.21022,3.21022 0 0 1 -1.52306,1.52306a2.84099,2.84099 0 0 1 -1.15896,0.26666a3.10253,3.10253 0 0 1 -1.21024,0a3.15381,3.15381 0 0 1 -1.57947,-1.63075a3.05125,3.05125 0 0 1 0,-2.26151a2.89227,2.89227 0 0 1 1.57947,-1.57947l-0.15897,0l0.10256,-0.05128c0.25641,-0.05128 0.51794,-0.06667 0.77948,-0.05128l0.24102,0.03077l-0.64615,0.0718l0.57948,0l0.78461,-0.10256l0.25641,-0.01026zm2.21536,3.11279l-0.01026,0.30769a2.89227,2.89227 0 0 1 -0.8205,1.6769l0.04615,-0.06154l0.17436,-0.22564a3.2615,3.2615 0 0 0 0.34871,-0.64615a2.99484,2.99484 0 0 0 0.23077,-0.74871l0.03077,-0.30256zm-22.56384,-6.25634a9.93834,9.93834 0 0 0 0,1.04614c-0.40512,1.79485 0.15385,3.5897 1.35896,4.83584a5.25635,5.25635 0 0 1 -1.67177,-3.51791a6.15377,6.15377 0 0 1 0.31282,-2.3692l0,0.00513zm6.03583,-2.6974l-0.5641,0.01026a4.20508,4.20508 0 0 0 -1.99998,0.84102a4.10252,4.10252 0 0 0 -1.4205,1.73331a4.20508,4.20508 0 0 0 0,1.10768a3.89226,3.89226 0 0 0 0,1.10255a4.10252,4.10252 0 0 0 0.78973,2.05126a4.25636,4.25636 0 0 0 1.73844,1.31793c0.52307,0.25641 1.09742,0.37948 1.68203,0.36923l0.48205,-0.26666l0.98973,0l0.47692,-0.21538a3.78457,3.78457 0 0 0 1.42562,-1.3487a4.20508,4.20508 0 0 0 0.62051,-1.01024a4.10252,4.10252 0 0 0 -3.09227,-5.52814l-0.11282,-0.03077a3.99995,3.99995 0 0 0 -0.04103,0l-0.41538,-0.08205a5.26148,5.26148 0 0 0 -1.12306,-0.04103l0.5641,-0.01026zm3.18458,7.13838a3.78457,3.78457 0 0 1 -1.58972,1.07691l-0.78973,0l-0.10256,0.05128l-0.26666,0l0,-0.05128a4.23072,4.23072 0 0 0 2.74868,-1.07691zm-6.83069,-3.53329l-0.0359,0.28205a4.09226,4.09226 0 0 0 2.87176,4.2461a4.20508,4.20508 0 0 1 -0.54358,-0.17948a4.20508,4.20508 0 0 1 -1.57434,-0.94871a3.73329,3.73329 0 0 1 -0.78973,-1.89228a3.89226,3.89226 0 0 1 0,-1.10255l0.0718,-0.40512zm2.32305,3.15381a3.36406,3.36406 0 0 0 1.49742,0.40512c0.27692,0.05128 0.5641,0.06667 0.84102,0.05128l0.33846,-0.04615l-0.15384,0.02564a3.05125,3.05125 0 0 1 -2.38972,-0.34871l-0.13333,-0.08718zm1.28716,-5.62557l0.25641,0.0359l0.70255,0a3.36406,3.36406 0 0 1 0.71794,0.20513c1.54357,0.69743 2.26151,2.48715 1.63588,4.05123a3.21022,3.21022 0 0 1 -1.2564,1.41537l-0.10256,0.05128l0.29231,-0.21025l0.27692,-0.25641a3.2615,3.2615 0 0 0 0.88717,-2.94868l-0.06667,-0.20513l0.07179,0.42564c0.02564,0.30769 0,0.61538 -0.07179,0.92307l-0.13846,0.44102a2.89227,2.89227 0 0 1 -1.57434,1.57434a4.10252,4.10252 0 0 1 -1.15896,0a2.84099,2.84099 0 0 1 -1.10255,-0.25641a3.47175,3.47175 0 0 1 -1.21024,-0.89743a3.36406,3.36406 0 0 1 -0.57948,-1.4205l0,-0.78973a2.99996,2.99996 0 0 1 -0.02564,-0.36923l0.01538,-0.18461l0.25128,-0.37948a3.15381,3.15381 0 0 1 2.441,-1.2205l-0.25641,0.01538l-0.00513,0zm-8.19477,3.79483l0,0.02564l0.01538,0.08205l0,0.07179l0.01538,0.06154l0.01026,0.10256a3.99995,3.99995 0 0 0 0,0.78973l0.46153,-0.11795c0,0.26666 0.02564,0.53333 0.06154,0.79999l-0.93332,-0.61025l0.36923,-1.21024l0,0.00513zm21.65615,0.8205a2.89227,2.89227 0 0 1 0.66666,0.04103l-0.62563,0.07692l-0.04103,-0.11795zm-20.19976,-5.61532l-1.45639,4.78456l-0.01026,-0.13846a4.63071,4.63071 0 0 1 -0.01026,-0.24615l1.28204,-4.1179l0.07179,-0.10256l0.12308,-0.17948zm3.18458,3.23586l-0.0359,0.10769l0,-0.01026l0.0359,-0.09743zm15.96904,-0.8205l0.81025,0.18461c0.53333,0.10256 1.02563,0.15384 1.46665,0.15384a5.25122,5.25122 0 0 1 -2.59484,-0.46153l0.31794,0.12308zm-14.84598,0.12307l0,0.05128l-0.01026,0.01026l0.01026,-0.06154zm14.52803,-0.24102l0.31794,0.11795l-0.02051,0l-0.29743,-0.11795zm-16.56904,-4.14867l0.26154,0.15384a6.20505,6.20505 0 0 0 -1.63075,1.47178a7.8358,7.8358 0 0 0 -0.46153,0.61538l-0.38461,0.63076l0.26666,-0.5641l0.78973,-1.21024l0.78973,-0.78973c0.11795,-0.10256 0.24102,-0.21025 0.36923,-0.30769zm4.67687,2.83586l-0.05128,0.00513l-0.1641,0.01538l-0.01538,0l0.23077,-0.02051zm0.05128,0l-0.25641,0.01538l-0.01026,0.00513l0.27179,-0.02051l-0.00513,0zm-6.25634,-3.36919l0.99999,0.63076l-0.63076,0.5282a5.57429,5.57429 0 0 0 -0.78973,0.78973l-0.30769,0.42051l0.7282,-2.3692zm12.74344,-19.83053l3.7538,0a2.62561,2.62561 0 0 0 -0.29743,1.0564l-0.47179,1.68203a93.14762,93.14762 0 0 0 -1.99998,8.67682c-0.69743,3.69227 -1.19486,6.97428 -1.47691,9.09733l-0.08718,0.61538l-4.74353,-1.61024a6.20505,6.20505 0 0 0 -2.51279,-0.41025l-0.43589,-0.01026l-0.8564,0.10256l0.12307,-0.2c0.64102,-1.05127 1.71793,-2.87176 2.7333,-4.79481c1.99998,-3.63585 3.75893,-7.39478 5.26148,-11.25628c0,-0.5282 0.42051,-1.05127 0.57435,-1.57947l0.43589,-1.36921zm-9.1281,19.2049l-0.07692,0.12307l0,0.00513l-0.58974,0.18974l0.11795,-0.20513l0.45128,-0.10256l0.09744,-0.01026zm1.75382,-6.10249l-1.28204,0.34358a0.23077,0.23077 0 0 1 -0.05128,0.07692c-1.87177,0.57435 -3.70765,1.24101 -5.50763,1.99998c-1.44614,0.51794 -2.81022,1.24614 -4.05123,2.15382l0,0.02051l-0.15897,0.10256l0,-0.22564a40.97387,40.97387 0 0 1 11.05115,-4.47174zm-9.96398,2.2051l-0.65128,0.3641l0.31795,-0.18461l0.33333,-0.17948zm0.67179,-0.35897l-0.22564,0.12307l-0.24615,0.11795l0.47179,-0.24102zm0.18974,-0.08205l-0.05128,0.02051l-0.02051,0.01026l0.07179,-0.03077zm10.64603,-2.96919l-0.08205,0.18461l-0.29743,0.53845l0.37948,-0.71794l0,-0.00513zm5.1384,-11.89217l-0.01026,0.08205c-0.11282,0.39487 -0.34871,0.78973 -0.46666,1.17947c-0.22564,0.53333 -0.42051,1.07691 -0.57948,1.63588a102.40904,102.40904 0 0 1 -3.81534,8.50246l-0.24615,0.45128l0.97435,-2.12305a105.19363,105.19363 0 0 0 3.42047,-8.80502l0.28718,-0.92306l0.43589,0zm22.50743,-37.50212l0,48.70711l0.10256,0.02564l0,-48.72763l-0.10256,0l0,-0.00513zm3.05125,46.12766l0.10256,0.0359l0,0.33333l1.841,0.68717c0.65128,0.25641 1.29229,0.53333 1.93331,0.81025a65.74281,65.74281 0 0 0 -3.87688,-1.49742l0,-0.36923l0,0zm-0.99999,1.47178l0.10256,0c0.15384,0.05128 0.30256,0.10769 0.42051,0.15897l-0.52307,0l0,-0.15384l0,-0.00513zm-30.65605,-10.09732l4.04098,0c-0.21538,0.66666 -0.44615,1.32306 -0.68204,1.94869a99.61933,99.61933 0 0 1 -3.35893,7.80504l0,-9.75373zm26.60481,-4.10252l0,2.94355l-26.60481,0l0,-2.94355l26.60481,0zm-14.09727,-13.30241a3.42047,3.42047 0 0 1 2.47176,0.99486l0.3641,0.42051a3.52303,3.52303 0 0 1 0.6923,2.05126c0.05128,0.34871 0.05128,0.70768 0,1.0564a3.99995,3.99995 0 0 1 -0.47692,0.94358l-0.29231,0.57435c-0.43076,0.88717 -1.02563,2.17433 -1.44101,3.05637c-0.39487,0.82563 -0.78973,1.77434 -1.20511,2.7692l-0.11795,0.27692l-4.92302,0c1.07691,-4.19482 1.73844,-7.61017 1.98459,-8.98964a2.26151,2.26151 0 0 1 0,-0.63076a1.99998,1.99998 0 0 1 0,-0.5282a3.74354,3.74354 0 0 1 1.26665,-1.55383a3.36406,3.36406 0 0 1 1.6769,-0.44102zm14.09727,-6.6871l0,18.83055l-11.53832,0l0.29743,-0.71281c0.32307,-0.76922 0.65127,-1.50767 0.93332,-2.17433c0.33846,-0.79999 0.90768,-1.93844 1.31281,-2.73843l0.26666,-0.52307l0.24102,-0.42051a6.05121,6.05121 0 0 0 0.38974,-0.89743a5.26148,5.26148 0 0 0 0,-1.52306c0,-2.90766 -2.35895,-5.26148 -5.26148,-5.26148l-0.57948,0.04103l-0.1641,0.02564l-0.20513,-0.01026a5.26148,5.26148 0 0 0 -2.89227,0.8923c-0.86153,0.5641 -1.53844,1.36921 -1.9487,2.31279l0,0.84102c0,0.21025 0.1641,-0.3641 0,0.68717c-0.15384,1.05127 -0.52307,2.89227 -1.04614,5.25635l-0.25641,1.15383c-0.18461,0.79486 -0.38974,1.64101 -0.61538,2.51279l-0.13846,0.53846l-5.39994,0l-0.00513,-18.83055l26.60994,0zm-19.70746,14.61521c-0.25128,1.11793 -0.54358,2.33843 -0.87179,3.61534l-0.16923,0.59999l-0.20513,0c0.39487,-1.48203 0.74871,-2.87176 1.0205,-4.1538l0.22564,-0.06154zm6.5589,-7.03581a2.26151,2.26151 0 1 0 0,4.52302l0,-0.05128a2.2051,2.2051 0 0 0 2.26151,-2.21023a2.26151,2.26151 0 0 0 -2.26151,-2.26151zm0,1.10255l0.29231,0.02564a1.21024,1.21024 0 1 1 -1.45127,1.12819c0,-0.63589 0.51794,-1.15383 1.15896,-1.15383zm-0.95383,-4.03585l0.4923,0.0359c0.92306,0.1282 1.78972,0.4923 2.51792,1.06666l0.06154,0.05128l-0.50256,-0.25641a5.26148,5.26148 0 0 0 -5.68198,0.84614a4.89225,4.89225 0 0 1 1.12306,-0.96922c0.48205,-0.32307 1.0205,-0.5641 1.5846,-0.69743l0.4,-0.07692l0.00513,0zm3.07176,1.15383l0.01026,0.01026l0.0923,0.08205l-0.10256,-0.09231zm11.02551,-9.84604l0,2.89227l-26.61507,0l0,-2.89227l26.61507,0zm-9.19989,-11.205l0.21025,0l8.15375,2.64612a2.57433,2.57433 0 0 0 0.84102,0.51282l0,6.83582l-26.61507,0l0,-6.61531l9.20502,-2.99996l0,2.51279l0.63076,0l0,2.3692l6.94351,0l0,-2.3692l0.63076,0l0,-2.89227zm-1.52306,2.8974l0,1.47178l-5.26148,0l0,-1.47178l5.26148,0zm3.73329,-4.52302l5.27173,1.79485l0.04103,0.30769l0,0.15384a2.57433,2.57433 0 0 0 0.25641,1.24614l-7.77427,-2.51279l0.6923,-0.4c0.46666,-0.24102 0.95896,-0.44102 1.46665,-0.59999l0.05128,0l-0.00513,0.01026zm-10.64603,0.94871l0.07692,0.05128l-7.60504,2.441l0.0359,-0.10256l7.48709,-2.38972l0.00513,0zm7.28196,-1.52819l0,3.94867l-5.89737,0l0,-3.94867l5.89737,0zm-9.2563,0.73332c0.60512,0.20513 1.1846,0.46153 1.73331,0.78973l-7.19991,2.22561a3.3897,3.3897 0 0 0 0.07692,-0.33333a2.57433,2.57433 0 0 0 0.07692,-0.8564l5.31276,-1.82562zm20.13822,0.99486a2.47177,2.47177 0 0 1 1.4769,0.11282l0.6923,0.3641l-0.17436,0l-0.46153,-0.20513l-0.36923,-0.05128a2.7333,2.7333 0 0 0 -0.73845,0.05128l-0.42564,0l0,-0.27179zm-28.91248,0.30769a2.46151,2.46151 0 0 1 1.24101,0.06667a3.57432,3.57432 0 0 0 -1.30768,0l-0.21025,0l0.27692,-0.06667zm33.4355,-0.2l0,0.10769l-0.15384,-0.10256l0.15384,0l0,-0.00513zm-36.38419,-0.36923l-0.22051,0.00513l0,0.11795l0.22051,-0.12308zm6.91787,-9.57937l2.89227,8.19477l-1.48716,0.5282l-2.89227,-8.21529l1.48716,-0.50769zm22.14333,-0.06154l0.84614,0.31282l0.42564,0.17948l-1.85126,6.21531l-0.66666,1.88203l-1.55896,-0.55384l2.80509,-8.0358zm-16.92288,7.79991c0.17436,0.04615 0.34359,0.10256 0.51282,0.17436l0.47179,0.24102l-0.47179,-0.20513l-0.5641,-0.19487l0.05128,-0.01538zm6.83582,-14.83059l0,14.04086l-1.89741,0l0,-14.03573l1.89741,0l0,-0.00513zm-14.38444,6.79479l-0.55384,0.2l0.02564,0.07692l-2.65638,0.97435l-0.05128,-0.15384l3.23073,-1.09742l0.00513,0zm22.1023,-4.1538l1.89229,0.62051l1.34357,0.46153l0.19487,0.11282c0.26154,0.10256 0.53333,0.18461 0.80512,0.25128l0.41025,0.22564l0.34359,0l3.89226,1.30768l-0.34871,0.75896l-0.7282,1.49229l-2.28715,-0.83589l0.02051,-0.04103l-3.73842,-1.31793l-2.56407,-0.93332l0.76922,-2.10254l-0.00513,0zm-17.39466,-0.01026l0.78973,1.99998l-8.62554,3.15381l-0.82563,-2.25638l2.71792,-0.91281l1.4205,-0.04103c0.45128,-0.1282 0.8923,-0.30769 1.3128,-0.52307c0.35384,-0.18974 0.68204,-0.41025 0.98973,-0.66666l2.22049,-0.75384zm-3.89739,4.90764l0.02564,0.05641l-0.10256,0.0359l-0.02051,-0.05128l0.10256,-0.04103l-0.00513,0zm1.63588,-0.59999l0.01026,0.0359l-0.01026,0.0718l-0.12308,0.04103l-0.03077,-0.09231l0.15384,-0.05128l0,-0.00513zm19.17926,-5.65122l0.01538,0.00513l-1.47178,4.07175l3.27176,1.19486l-0.01026,0.02564l-3.30765,-1.17947l1.50254,-4.1179zm-16.33827,-0.18461l-0.05128,0.01538l1.50768,4.11277l0.06666,-0.02564l-1.52306,-4.10251zm-9.10758,3.29227l0.08718,0.03077l-1.43588,0.52307l-0.01026,-0.05641l1.35896,-0.49743zm4.46149,-0.4a4.94353,4.94353 0 0 1 -0.82563,0.31794a6.05121,6.05121 0 0 1 -0.15384,0.01538l0.87179,-0.30769l0.10769,-0.02564zm-3.64611,0.11795c0.04102,0 0.08205,0.01026 0.11795,0.01538l-0.24102,0.07692l-0.12307,-0.01538l0.24615,-0.07692zm-3.82047,-6.97428l-0.03077,0.90255a14.3588,14.3588 0 0 0 0.41025,3.32304l0.33846,0.54871c0.60512,0.87178 1.44614,1.55896 2.42561,1.97434l0.46153,0.1641l-0.28205,0.10256a6.13839,6.13839 0 0 1 -1.94357,-0.94871a5.26148,5.26148 0 0 1 -0.95383,-1.06153l-0.2923,-0.4923l-0.14359,-0.41538a6.30762,6.30762 0 0 1 -0.18461,-2.76407c0.05128,-0.44615 0.11795,-0.8923 0.19487,-1.33332zm37.70212,6.46146l-0.24102,0.16923l-0.20513,0.06667l-0.11795,0.04103c0.20513,-0.08718 0.4,-0.18461 0.5641,-0.27692zm-32.06116,0.02564l-0.3641,0.06154l-0.13333,0.01026l-0.02564,0l0.52307,-0.0718zm-3.57432,-10.6768l1.21537,0.33846c1.20511,0.37435 2.38459,0.84102 3.51791,1.39998c0.92819,0.37948 1.73331,1.01537 2.30767,1.841a4.84097,4.84097 0 0 1 0.5282,1.68203c0.10256,0.58974 0.10256,1.19486 0,1.78972a4.73328,4.73328 0 0 1 -1.70255,2.35382l-0.36923,0.23077l-1.47691,0.54871l-0.33846,0.0718a4.20508,4.20508 0 0 1 -1.79485,0a3.84098,3.84098 0 0 1 -1.52306,-0.78461a4.84097,4.84097 0 0 1 -1.15383,-1.36922l0,-0.26153a7.43581,7.43581 0 0 1 -0.39487,-2.21536c0.02564,-0.8205 0.16923,-1.72306 0.34358,-2.5692c0.34359,-1.28204 0.84102,-2.47177 0.84102,-3.05637zm35.92265,0l0.12307,0.41025c0.24102,0.78461 0.61538,2.05126 0.87179,3.32816c0.38461,1.33845 0.38461,2.75894 0,4.10252a4.84097,4.84097 0 0 1 -1.15383,1.36409a3.95893,3.95893 0 0 1 -1.21024,0.87179a4.67174,4.67174 0 0 1 -1.94869,0.20513l-0.20513,-0.03077a4.682,4.682 0 0 1 -1.87177,-0.70255a4.67687,4.67687 0 0 1 -1.91793,-2.54869a4.36405,4.36405 0 0 1 0.36923,-3.52816l0.18461,-0.26666c0.54358,-0.64102 1.23588,-1.1487 2.02562,-1.46665c1.50767,-0.74871 3.0974,-1.33332 4.73328,-1.73844zm-29.40991,9.45117a4.67687,4.67687 0 0 1 -0.08718,0.07692l-0.26666,0.09231a3.99995,3.99995 0 0 0 0.10256,-0.08718l0.25128,-0.08205zm-6.46146,-9.60501l0.46666,0.12308c1.77947,0.49743 5.72814,1.78459 6.63582,3.50252a4.682,4.682 0 0 1 -0.37948,5.70762l-0.22051,0.06667l0.28718,-0.30256c0.37948,-0.51281 0.68204,-1.07691 0.8923,-1.68203c0.10256,-0.61025 0.10256,-1.23076 0,-1.84613a5.68198,5.68198 0 0 0 -0.52307,-1.83588a6.25634,6.25634 0 0 0 -2.42048,-1.94869a25.19457,25.19457 0 0 0 -3.59996,-1.39486l-1.16409,-0.32307l0.03077,-0.06667l-0.00513,0zm32.68166,3.48714l-0.42564,0.06154a2.31279,2.31279 0 0 0 -0.95896,4.02559l0.34871,0.29231a2.26151,2.26151 0 0 0 2.91279,-0.29231a2.26151,2.26151 0 0 0 0,-3.2615l-0.30769,-0.30769a2.31279,2.31279 0 0 0 -1.99998,-0.4564l0.43076,-0.06154zm3.59996,-4.24098l0.27692,0.06667a1.26152,1.26152 0 0 1 0.47179,0.31795c0.5641,1.7128 0.97435,3.47175 1.21024,5.25635c0.14359,0.90255 0.08205,1.81536 -0.18461,2.67689l-0.21538,0.56922l0.11795,-0.6564a14.3588,14.3588 0 0 0 -0.63076,-6.54351l-0.4,-1.04101a1.10255,1.10255 0 0 0 -1.21024,-0.57948l0.27692,-0.06667a1.15896,1.15896 0 0 1 0.5641,0.06667l-0.27692,-0.06667zm-31.84578,4.42559a2.31279,2.31279 0 0 0 -2.79997,0.37435l-0.29231,0.35897a2.31279,2.31279 0 1 0 3.08714,-0.73332l0.00513,0zm26.76379,3.39996c0.18461,0.25128 0.42564,0.46153 0.70255,0.60512a1.94869,1.94869 0 0 1 -0.39487,-0.21025l-0.25641,-0.30769l-0.05128,-0.08718zm-26.76892,-0.91281a1.21024,1.21024 0 0 1 -1.94357,0.59999l-0.18461,-0.2l0.26154,0.20513a1.26152,1.26152 0 0 0 0.42051,0.1641l0.22564,0.02051c0.3641,0 0.70768,-0.15384 0.94871,-0.43076a1.3128,1.3128 0 0 0 0.22564,-0.27179l0.04615,-0.08718zm28.07146,-1.41024a1.10255,1.10255 0 0 1 1.21537,0.24615a1.3128,1.3128 0 0 1 0.31794,0.78973a1.05127,1.05127 0 0 1 -0.31794,0.73332a1.05127,1.05127 0 0 1 -1.57947,0a0.8923,0.8923 0 0 1 -0.31282,-0.73332a1.10255,1.10255 0 0 1 0.67692,-1.03589zm-29.23555,-0.17436c0.5641,0.10256 0.95896,0.63589 0.8923,1.21024a0.8923,0.8923 0 0 1 -0.10256,0.63076a1.05127,1.05127 0 0 1 -1.57947,0a1.05127,1.05127 0 0 1 -0.31795,-0.73845a1.3128,1.3128 0 0 1 0.31795,-0.78973a1.20511,1.20511 0 0 1 0.20513,-0.1641a1.21024,1.21024 0 0 1 0.58461,-0.15384l0,0.00513zm-1.05127,18.30748l0.05128,0l-0.25641,0.08718l0.20513,-0.0923l0,0.00513zm-1.57947,-10.10244l0.01538,-0.01026l0.62051,1.76921l-0.63589,-1.75895zm36.45085,-4.682l0.01026,0l-0.17948,0.26154l0.16923,-0.25641l0,-0.00513z" stroke-width="5" stroke-miterlimit="10" stroke-dasharray=""></path><path data-v-9833e8b2="" transform="scale(0.12626262626262627)" fill="none" stroke="currentColor" paint-order="fill stroke markers" d="m125.86518,187.45419l0.73333,-10.05116l1.4205,-0.47179l-0.73845,10.05116l-1.41537,0.47179z" stroke-width="5" stroke-miterlimit="10" stroke-dasharray=""></path><path data-v-9833e8b2="" transform="scale(0.12626262626262627)" fill="none" stroke="currentColor" paint-order="fill stroke markers" d="m126.75748,177.562l-0.68717,9.62553l1.05127,-0.36923l0.68717,-9.6204l-1.05127,0.3641zm-1.05127,10.10245l0.73332,-10.52295l1.78972,-0.63076l-0.78973,10.51782l-1.73331,0.63589zm-9.41527,2.09741l1.841,-9.88194l1.4205,-0.31794l-1.79485,9.88706l-1.46665,0.31282z" stroke-width="5" stroke-miterlimit="10" stroke-dasharray=""></path><path data-v-9833e8b2="" transform="scale(0.12626262626262627)" fill="none" stroke="currentColor" paint-order="fill stroke markers" d="m118.28578,179.87992l-1.52306,9.67681l1.10255,-0.26154l1.47178,-9.41527l-1.05127,0zm-2.2051,9.93834l1.89229,-10.51782l1.841,-0.36923l-1.89741,10.51783l-1.83588,0.36923zm-9.52296,1.26152l2.84099,-9.62553l1.47178,-0.15384l-2.84099,9.6204l-1.47178,0.15897z" stroke-width="5" stroke-miterlimit="10" stroke-dasharray=""></path><path data-v-9833e8b2="" transform="scale(0.12626262626262627)" fill="none" stroke="currentColor" paint-order="fill stroke markers" d="m109.55768,181.61323l-2.73843,9.2563l1.10768,0l2.7333,-9.30758l-1.10255,0.05128zm-3.31278,9.67681l2.99484,-10.04603l1.84613,0l-2.94868,9.99475l-1.89741,0.05128l0.00513,0zm-9.41527,0.05641l3.73329,-9.31271l1.47178,-0.05128l-3.68201,9.36399l-1.52306,0z" stroke-width="5" stroke-miterlimit="10" stroke-dasharray=""></path><path data-v-9833e8b2="" transform="scale(0.12626262626262627)" fill="none" stroke="currentColor" paint-order="fill stroke markers" d="m100.66548,182.19271l-3.57432,8.99476l1.15896,0l3.52304,-8.99476l-1.10768,0zm-4.10252,9.36399l3.89739,-9.68194l1.83588,0l-3.83585,9.68194l-1.89741,0zm-9.6204,-0.99999l4.78456,-8.83579l1.47178,0.15384l-4.78456,8.83579l-1.47178,-0.15384z" stroke-width="5" stroke-miterlimit="10" stroke-dasharray=""></path><path data-v-9833e8b2="" transform="scale(0.12626262626262627)" fill="none" stroke="currentColor" paint-order="fill stroke markers" d="m87.19897,190.39775l1.10768,0l4.63071,-8.46657l-1.10768,0l-4.62559,8.46144l-0.00513,0.00513zm1.31793,0.47179l-1.841,0l4.94353,-9.14861l1.89741,0l-4.99994,9.14861zm-11.25628,-2.10254l5.73327,-8.3076l1.47178,0.31282l-5.72814,8.25631l-1.47691,-0.26153z" stroke-width="5" stroke-miterlimit="10" stroke-dasharray=""></path><path data-v-9833e8b2="" transform="scale(0.12626262626262627)" fill="none" stroke="currentColor" paint-order="fill stroke markers" d="m77.57857,188.60802l1.10255,0.26154l5.26148,-7.99478l-1.10255,0l-5.26148,7.73324zm1.21024,0.63076l-1.78972,-0.36923l5.89224,-8.56913l1.841,0.3641l-5.94865,8.57426l0.00513,0zm-10.94346,-3.36406l6.57941,-7.57427l1.41537,0.47179l-6.57428,7.57427l-1.4205,-0.47179z" stroke-width="5" stroke-miterlimit="10" stroke-dasharray=""></path><path data-v-9833e8b2="" transform="scale(0.12626262626262627)" fill="none" stroke="currentColor" paint-order="fill stroke markers" d="m68.1633,185.82344l1.05127,0.3641l6.30762,-7.36401l-1.04614,-0.31282l-6.31274,7.31273zm1.15896,0.73333l-1.79485,-0.57948l6.84094,-7.88708l1.78972,0.57948l-6.83582,7.88709zm-2.05126,-173.88512l-0.15897,10.05116l-1.36921,0.52307l0.10256,-10.04604l1.42562,-0.5282z" stroke-width="5" stroke-miterlimit="10" stroke-dasharray=""></path><path data-v-9833e8b2="" transform="scale(0.12626262626262627)" fill="none" stroke="currentColor" paint-order="fill stroke markers" d="m66.00435,13.30241l0,9.68194l1.0564,-0.42051l0,-9.62553l-1.0564,0.36923l0,-0.00513zm-0.42051,10.20501l0,-10.5127l1.73844,-0.68204l0,10.51782l-1.73844,0.68204l0,-0.00513zm11.05115,-13.77932l-1.21537,9.99475l-1.4205,0.42051l1.21024,-9.99475l1.42562,-0.42051z" stroke-width="5" stroke-miterlimit="10" stroke-dasharray=""></path><path data-v-9833e8b2="" transform="scale(0.12626262626262627)" fill="none" stroke="currentColor" paint-order="fill stroke markers" d="m75.36834,10.30757l-1.15896,9.57424l1.0564,-0.31794l1.15383,-9.57424l-1.05127,0.31794zm-1.57947,10.04604l1.26665,-10.51783l1.78459,-0.5282l-1.26152,10.51783l-1.78972,0.5282zm12.5178,-12.46652l-2.25638,9.7845l-1.47691,0.20513l2.26151,-9.77937l1.47178,-0.21025z" stroke-width="5" stroke-miterlimit="10" stroke-dasharray=""></path><path data-v-9833e8b2="" transform="scale(0.12626262626262627)" fill="none" stroke="currentColor" paint-order="fill stroke markers" d="m85.20413,8.25631l-2.15382,9.41527l1.10255,0l2.15382,-9.41527l-1.10255,0zm-2.63074,9.88706l2.3692,-10.20501l1.841,-0.31282l-2.63074,10.20501l-1.57947,0.31282zm13.51779,-11.09731l-3.31278,9.46656l-1.47178,0.10256l3.31278,-9.51784l1.47178,-0.05128z" stroke-width="5" stroke-miterlimit="10" stroke-dasharray=""></path><path data-v-9833e8b2="" transform="scale(0.12626262626262627)" fill="none" stroke="currentColor" paint-order="fill stroke markers" d="m94.72196,7.25632l-3.15381,9.15374l1.10255,0l3.05125,-9.20502l-0.99999,0.05128zm-3.67688,9.57424l3.41534,-9.83578l1.89741,0l-3.42047,9.83578l-1.89741,0l0.00513,0zm14.88188,-9.63066l-4.25636,9.10246l-1.52819,-0.05128l4.25636,-9.09733l1.52819,0.04615z" stroke-width="5" stroke-miterlimit="10" stroke-dasharray=""></path><path data-v-9833e8b2="" transform="scale(0.12626262626262627)" fill="none" stroke="currentColor" paint-order="fill stroke markers" d="m100.45523,16.09212l1.10768,0l4.10252,-8.78451l-1.15896,0l-4.05123,8.78451zm1.31793,0.42051l-1.89741,0l4.42046,-9.41527l1.94869,0l-4.47174,9.41527zm13.88702,-8.04606l-5.21019,8.57426l-1.47178,-0.21025l5.20507,-8.62554l1.47691,0.26153z" stroke-width="5" stroke-miterlimit="10" stroke-dasharray=""></path><path data-v-9833e8b2="" transform="scale(0.12626262626262627)" fill="none" stroke="currentColor" paint-order="fill stroke markers" d="m109.29615,16.83057l1.05127,0l5.25635,-8.25631l-1.10255,0l-5.20507,8.25631zm1.26152,0.57948l-1.84613,-0.57948l5.26148,-8.8922l1.89741,0l-5.31276,9.47168zm14.67162,-6.68197l-6.10249,7.9435l-1.41537,-0.36923l6.10249,-7.99991l1.41537,0.42564z" stroke-width="5" stroke-miterlimit="10" stroke-dasharray=""></path><path data-v-9833e8b2="" transform="scale(0.12626262626262627)" fill="none" stroke="currentColor" paint-order="fill stroke markers" d="m118.02425,18.19466l1.05127,0.31794l5.89224,-7.67683l-1.10255,-0.31794l-5.84096,7.67683zm1.15896,0.68717l-1.78972,-0.47692l6.30762,-8.25631l1.84613,0.47179l-6.36403,8.25631l0,0.00513zm15.35879,-4.89225l-6.94351,7.31274l-1.36921,-0.57948l6.89223,-7.26145l1.4205,0.5282z" stroke-width="5" stroke-miterlimit="10" stroke-dasharray=""></path><path data-v-9833e8b2="" transform="scale(0.12626262626262627)" fill="none" stroke="currentColor" paint-order="fill stroke markers" d="m126.49082,20.66642l1.05127,0.42564l6.68197,-7.0512l-1.05127,-0.36923l-6.68197,6.99479zm1.15896,0.78973l-1.73331,-0.63076l7.14863,-7.57427l1.73844,0.68717l-7.15376,7.51786zm15.72802,-3.20509l-7.63068,6.51787l-1.31281,-0.68204l7.62555,-6.523l1.31793,0.68717z" stroke-width="5" stroke-miterlimit="10" stroke-dasharray=""></path><path data-v-9833e8b2="" transform="scale(0.12626262626262627)" fill="none" stroke="currentColor" paint-order="fill stroke markers" d="m134.69585,24.03561l0.99999,0.52307l7.36401,-6.25634l-0.99999,-0.5282l-7.36402,6.25634l0,0.00513zm1.05127,0.94358l-1.62562,-0.8923l7.93837,-6.73325l1.63075,0.84102l-7.9435,6.78453zm-127.43952,89.78355l9.83578,1.99998l0.31794,1.4205l-9.89219,-1.9487l-0.26154,-1.47178z" stroke-width="5" stroke-miterlimit="10" stroke-dasharray=""></path><path data-v-9833e8b2="" transform="scale(0.12626262626262627)" fill="none" stroke="currentColor" paint-order="fill stroke markers" d="m8.72811,116.08068l9.46656,1.89229l0,-1.10768l-9.46656,-1.89229l0,1.10768zm9.94347,2.30767l-10.25629,-1.99485l-0.36923,-1.841l10.25629,2.2051l0.36923,1.63588l0,-0.00513zm-11.52294,-13.4101l9.57425,3.05125l0.15897,1.47691l-9.57424,-2.99996l-0.15897,-1.52819z" stroke-width="5" stroke-miterlimit="10" stroke-dasharray=""></path><path data-v-9833e8b2="" transform="scale(0.12626262626262627)" fill="none" stroke="currentColor" paint-order="fill stroke markers" d="m7.46658,106.2449l9.36399,2.99484l0,-1.10255l-9.46655,-2.89227l0.10256,0.99999zm9.62553,3.36406l-9.93834,-3.10253l0,-1.84613l9.67681,3.21535l0.26154,1.73331zm-10.04604,-14.46137l9.20502,4.05123l0,1.46665l-9.20502,-3.99482l0,-1.52306z" stroke-width="5" stroke-miterlimit="10" stroke-dasharray=""></path><path data-v-9833e8b2="" transform="scale(0.12626262626262627)" fill="none" stroke="currentColor" paint-order="fill stroke markers" d="m7.19992,96.56296l8.8922,3.84611l0,-1.10768l-8.83579,-3.89739l-0.05128,1.15896l-0.00513,0zm9.21015,4.42046l-9.52296,-4.20508l0,-1.89741l9.57424,4.20508l-0.05128,1.89741zm-8.41528,-15.56905l8.7281,4.94353l-0.15384,1.47178l-8.73323,-4.94353l0.15897,-1.47178z" stroke-width="5" stroke-miterlimit="10" stroke-dasharray=""></path><path data-v-9833e8b2="" transform="scale(0.12626262626262627)" fill="none" stroke="currentColor" paint-order="fill stroke markers" d="m7.99478,86.78359l8.41016,4.73328l0.42564,-1.05127l-8.41528,-4.73328l-0.42051,1.05127zm8.7281,5.25635l-9.09733,-5.25122l0,-1.89741l9.20502,5.57942l-0.10256,1.57434l-0.00513,-0.00513zm-6.73325,-16.30237l8.15375,5.89224l-0.31282,1.4205l-8.20503,-5.84096l0.3641,-1.47178z" stroke-width="5" stroke-miterlimit="10" stroke-dasharray=""></path><path data-v-9833e8b2="" transform="scale(0.12626262626262627)" fill="none" stroke="currentColor" paint-order="fill stroke markers" d="m9.83579,77.15806l7.8358,5.62557l0,-1.10255l-7.57427,-5.6307l-0.26153,1.10768l0,0zm8.10247,6.20505l-8.4717,-6.10249l0.42051,-1.78459l8.46657,6.05121l-0.42051,1.83588l0.00513,0zm-4.94866,-16.98441l7.46658,6.72812l-0.47179,1.36921l-7.52299,-6.68197l0.5282,-1.41537z" stroke-width="5" stroke-miterlimit="10" stroke-dasharray=""></path><path data-v-9833e8b2="" transform="scale(0.12626262626262627)" fill="none" stroke="currentColor" paint-order="fill stroke markers" d="m12.67165,67.74279l7.21017,6.41531l0.3641,-1.05127l-7.20504,-6.41531l-0.36923,1.05127zm7.36401,6.94351l-7.72811,-6.84094l0.57948,-1.78459l7.77939,6.94351l-0.63076,1.68203zm-3.04612,-17.30749l6.67684,7.47171l-0.63076,1.3128l-6.73325,-7.4153l0.68717,-1.36921z" stroke-width="5" stroke-miterlimit="10" stroke-dasharray=""></path><path data-v-9833e8b2="" transform="scale(0.12626262626262627)" fill="none" stroke="currentColor" paint-order="fill stroke markers" d="m16.51263,58.90699l6.47172,7.20504l0.52307,-0.99999l-6.67684,-7.4153l-0.31794,1.21024zm6.57428,7.78452l-6.99479,-7.78452l0.73845,-1.84613l6.94351,7.73837l-0.68717,1.89228zm-1.21024,-17.83056l5.89737,8.15375l-0.79486,1.26152l-5.88198,-8.10247l0.77948,-1.3128z" stroke-width="5" stroke-miterlimit="10" stroke-dasharray=""></path><path data-v-9833e8b2="" transform="scale(0.12626262626262627)" fill="none" stroke="currentColor" paint-order="fill stroke markers" d="m21.30232,50.12248l5.67685,7.8358l0.36923,-0.94358l-5.26148,-7.84093l-0.78461,0.94871l0,0zm5.72814,8.46657l-6.15377,-8.41016l1.21024,-1.79485l6.10249,8.47169l-1.15896,1.73331zm0.68204,-17.67159l4.94866,8.73323l-0.89743,1.15383l-4.99994,-8.67682l0.94871,-1.21024z" stroke-width="5" stroke-miterlimit="10" stroke-dasharray=""></path><path data-v-9833e8b2="" transform="scale(0.12626262626262627)" fill="none" stroke="currentColor" paint-order="fill stroke markers" d="m26.97917,42.12771l4.84097,8.41528l0.78973,-0.8923l-4.78969,-8.41528l-0.84102,0.8923zm4.78969,8.99476l-5.26148,-8.99989l1.15896,-1.52306l5.25635,9.04605l-1.15383,1.47178l0,0.00513zm2.52305,-17.46133l4.05123,9.20502l-1.0564,1.05127l-3.99482,-9.15374l0.99999,-1.10255z" stroke-width="5" stroke-miterlimit="10" stroke-dasharray=""></path><path data-v-9833e8b2="" transform="scale(0.12626262626262627)" fill="none" stroke="currentColor" paint-order="fill stroke markers" d="m33.45089,34.76369l3.89226,8.83579l0.78973,-0.78973l-3.89739,-8.83579l-0.78461,0.78973zm3.78457,9.46656l-4.1538,-9.51784l1.26152,-1.36921l4.20508,9.7845l-1.31281,1.10255zm4.42046,-17.09211l3.05125,9.57425l-1.15896,0.94358l-3.05125,-9.56912l1.15896,-0.94871z" stroke-width="5" stroke-miterlimit="10" stroke-dasharray=""></path><path data-v-9833e8b2="" transform="scale(0.12626262626262627)" fill="none" stroke="currentColor" paint-order="fill stroke markers" d="m40.70721,28.13813l2.94868,9.20502l0.84102,-0.68717l-2.94868,-9.30758l-0.84102,0.78973zm2.78971,9.72809l-3.21022,-9.83578l1.47178,-1.21024l3.15894,9.94347l-1.4205,1.10255zm6.15377,-16.46134l1.99998,9.83578l-1.21024,0.84102l-2.05126,-9.83578l1.26152,-0.84102z" stroke-width="5" stroke-miterlimit="10" stroke-dasharray=""></path><path data-v-9833e8b2="" transform="scale(0.12626262626262627)" fill="none" stroke="currentColor" paint-order="fill stroke markers" d="m48.38918,22.08692l1.9487,9.47168l0.88717,-0.63589l-1.89229,-9.46655l-0.94358,0.63076zm1.89229,10.52295l-1.89741,-10.52295l1.52819,-1.05127l2.10254,10.20501l-1.73331,1.36921zm7.9435,-16.04596l0.94358,9.99988l-1.31281,0.68204l-0.99999,-9.99988l1.36922,-0.68204z" stroke-width="5" stroke-miterlimit="10" stroke-dasharray=""></path><path data-v-9833e8b2="" transform="scale(0.12626262626262627)" fill="none" stroke="currentColor" paint-order="fill stroke markers" d="m57.066,17.35364l0.94871,9.62553l0.94358,-0.52307l-0.8923,-9.62553l-0.99999,0.52307zm0.63076,9.99475l-0.99999,-10.51783l1.63075,-0.84101l0.99999,10.51269l-1.63075,0.84614zm94.09632,-3.94354l-8.364,5.67686l-1.21024,-0.84102l8.3076,-5.62557l1.26665,0.78973z" stroke-width="5" stroke-miterlimit="10" stroke-dasharray=""></path><path data-v-9833e8b2="" transform="scale(0.12626262626262627)" fill="none" stroke="currentColor" paint-order="fill stroke markers" d="m142.53165,28.24069l0.89743,0.63076l8.05119,-5.25635l-0.94871,-0.63076l-7.9999,5.25635zm0.89743,1.0564l-1.52819,-1.0564l8.63067,-5.83583l1.57434,0.99999l-8.67682,5.89224zm16.09212,0.15897l-8.83579,4.72815l-1.15383,-0.94358l8.83579,-4.73328l1.15383,0.94871z" stroke-width="5" stroke-miterlimit="10" stroke-dasharray=""></path><path data-v-9833e8b2="" transform="scale(0.12626262626262627)" fill="none" stroke="currentColor" paint-order="fill stroke markers" d="m149.84439,33.29191l0.84101,0.68204l8.52298,-4.52302l-0.84102,-0.73332l-8.52297,4.5743zm0.78973,1.10255l-1.4205,-1.15383l9.15374,-4.94353l1.47178,1.21024l-9.20502,4.88712zm15.98955,1.89741l-9.36399,3.78457l-0.99999,-1.10255l9.31271,-3.73842l1.05127,1.0564z" stroke-width="5" stroke-miterlimit="10" stroke-dasharray=""></path><path data-v-9833e8b2="" transform="scale(0.12626262626262627)" fill="none" stroke="currentColor" paint-order="fill stroke markers" d="m156.52636,39.07646l0.78973,0.78973l8.98964,-3.63073l-0.78461,-0.78461l-8.99476,3.6256zm0.73332,1.15896l-1.31281,-1.31793l9.62553,-3.89226l1.3128,1.31793l-9.62553,3.89226zm15.67674,3.57944l-9.67681,2.7333l-0.94871,-1.15896l9.67681,-2.7333l0.94871,1.15896z" stroke-width="5" stroke-miterlimit="10" stroke-dasharray=""></path><path data-v-9833e8b2="" transform="scale(0.12626262626262627)" fill="none" stroke="currentColor" paint-order="fill stroke markers" d="m162.62885,45.49177l0.68204,0.89743l9.30758,-2.68202l-0.68204,-0.57948l-9.30758,2.36407zm0.57435,1.26665l-1.15383,-1.4205l9.98963,-2.89227l1.15896,1.47178l-9.99475,2.84099zm15.19982,5.20507l-9.88706,1.73331l-0.84102,-1.26152l9.94347,-1.73331l0.78461,1.26152z" stroke-width="5" stroke-miterlimit="10" stroke-dasharray=""></path><path data-v-9833e8b2="" transform="scale(0.12626262626262627)" fill="none" stroke="currentColor" paint-order="fill stroke markers" d="m167.99289,52.59425l0.57435,0.8923l9.57425,-1.62562l-0.63076,-0.94871l-9.51783,1.68203zm0.42051,1.31793l-0.99999,-1.57947l10.25629,-1.78972l0.99999,1.57947l-10.25629,1.78972zm14.56906,6.78453l-9.99475,0.63076l-0.68204,-1.31793l10.04604,-0.63076l0.63076,1.31793z" stroke-width="5" stroke-miterlimit="10" stroke-dasharray=""></path><path data-v-9833e8b2="" transform="scale(0.12626262626262627)" fill="none" stroke="currentColor" paint-order="fill stroke markers" d="m172.56719,60.16852l0.5282,0.99999l9.6204,-0.63076l-0.47179,-0.99999l-9.67681,0.63076zm0.31794,1.36921l-0.84614,-1.68716l10.52295,-0.68204l0.78973,1.68203l-10.46654,0.68717zm13.72292,8.3076l-10.04604,-0.42051l-0.52307,-1.4205l10.04604,0.42051l0.52307,1.4205z" stroke-width="5" stroke-miterlimit="10" stroke-dasharray=""></path><path data-v-9833e8b2="" transform="scale(0.12626262626262627)" fill="none" stroke="currentColor" paint-order="fill stroke markers" d="m176.72099,69.42482l9.62553,0.36923l-0.36923,-1.05127l-9.67681,-0.36923l0.42051,1.05127zm10.15373,0.73845l-10.52295,-0.42051l-0.63076,-1.73844l10.52295,0.42051l0.63076,1.73844zm2.36407,9.14861l-9.93834,-1.47178l-0.36923,-1.47178l9.93834,1.52306l0.36923,1.4205z" stroke-width="5" stroke-miterlimit="10" stroke-dasharray=""></path><path data-v-9833e8b2="" transform="scale(0.12626262626262627)" fill="none" stroke="currentColor" paint-order="fill stroke markers" d="m179.45429,77.68113l9.57424,1.4205l-0.31282,-1.05127l-9.52297,-1.47178l0.26666,1.10255l-0.00513,0zm9.99988,1.84613l-10.52295,-1.52819l-0.42051,-1.841l10.51782,1.57947l0.42051,1.78459l0.00513,0.00513zm1.36409,9.51783l-9.72809,-2.57946l-0.15897,-1.47178l9.67681,2.57946l0.21025,1.47178z" stroke-width="5" stroke-miterlimit="10" stroke-dasharray=""></path><path data-v-9833e8b2="" transform="scale(0.12626262626262627)" fill="none" stroke="currentColor" paint-order="fill stroke markers" d="m181.24914,86.30667l9.35886,2.47689l0,-1.10768l-9.51783,-2.47177l0.15384,1.10255l0.00513,0zm9.77937,2.94868l-10.10245,-2.63074l0,-1.841l10.05116,2.63074l0.05128,1.841zm0.36923,9.56912l-9.41527,-3.57432l-0.05128,-1.47178l9.41527,3.57432l0.05128,1.47178z" stroke-width="5" stroke-miterlimit="10" stroke-dasharray=""></path><path data-v-9833e8b2="" transform="scale(0.12626262626262627)" fill="none" stroke="currentColor" paint-order="fill stroke markers" d="m182.14144,95.14759l9.04605,3.41534l0,-1.10255l-8.99477,-3.42047l-0.05128,1.10768zm9.41527,3.94354l-9.73322,-3.68201l0,-1.89741l9.73322,3.68714l0,1.89228zm-0.68717,9.56912l-8.93836,-4.52302l0.10256,-1.47178l8.99477,4.52302l-0.15897,1.47178z" stroke-width="5" stroke-miterlimit="10" stroke-dasharray=""></path><path data-v-9833e8b2="" transform="scale(0.12626262626262627)" fill="none" stroke="currentColor" paint-order="fill stroke markers" d="m182.08503,104.03467l8.62554,4.36405l0,-1.10255l-8.62554,-4.36918l0,1.10768zm8.94348,4.89225l-9.2563,-4.682l0,-1.89741l9.30758,4.73841l-0.05128,1.841zm-1.68203,9.46655l-8.41528,-5.47173l0.26154,-1.47178l8.46657,5.47173l-0.31282,1.47178z" stroke-width="5" stroke-miterlimit="10" stroke-dasharray=""></path><path data-v-9833e8b2="" transform="scale(0.12626262626262627)" fill="none" stroke="currentColor" paint-order="fill stroke markers" d="m181.14145,112.81918l8.10247,5.25635l0,-1.10255l-8.10247,-5.26148l0,1.10768zm8.35887,5.83583l-8.7281,-5.68198l0.31794,-1.841l8.7281,5.6307l-0.31282,1.89741l-0.00513,-0.00513zm-2.68202,9.20502l-7.77939,-6.30762l0.42051,-1.42562l7.78452,6.31275l-0.42564,1.4205z" stroke-width="5" stroke-miterlimit="10" stroke-dasharray=""></path><path data-v-9833e8b2="" transform="scale(0.12626262626262627)" fill="none" stroke="currentColor" paint-order="fill stroke markers" d="m179.19788,121.496l7.51786,6.10249l0.31282,-1.10768l-7.51786,-6.10249l-0.31795,1.10768l0.00513,0zm7.72811,6.68197l-8.10247,-6.57428l0.5282,-1.79485l8.10247,6.57941l-0.5282,1.78972zm-3.68201,8.88708l-7.04607,-7.15376l0.57435,-1.36921l7.0512,7.15376l-0.57948,1.36921z" stroke-width="5" stroke-miterlimit="10" stroke-dasharray=""></path><path data-v-9833e8b2="" transform="scale(0.12626262626262627)" fill="none" stroke="currentColor" paint-order="fill stroke markers" d="m176.40817,129.86l6.78453,6.8871l0.42051,-1.05127l-6.78453,-6.83582l-0.42051,0.99999zm6.8871,7.51786l-7.30761,-7.4153l0.68204,-1.73331l7.36402,7.4153l-0.73845,1.73331zm-4.5743,8.41528l-6.25634,-7.8358l0.73332,-1.31281l6.25634,7.8358l-0.73332,1.31281z" stroke-width="5" stroke-miterlimit="10" stroke-dasharray=""></path><path data-v-9833e8b2="" transform="scale(0.12626262626262627)" fill="none" stroke="currentColor" paint-order="fill stroke markers" d="m172.66976,137.79837l6.05121,7.57427l0.5282,-0.99486l-6.05121,-7.52299l-0.5282,0.94358zm6.10249,8.20503l-6.523,-8.20503l0.89743,-1.62562l6.73325,8.30759l-1.10768,1.52306zm-5.47173,7.99478l-5.36404,-8.46144l0.84614,-1.26665l5.36404,8.46657l-0.84614,1.26152z" stroke-width="5" stroke-miterlimit="10" stroke-dasharray=""></path><path data-v-9833e8b2="" transform="scale(0.12626262626262627)" fill="none" stroke="currentColor" paint-order="fill stroke markers" d="m168.14673,145.53161l5.26148,8.15375l0.63076,-0.94871l-5.25122,-8.15375l-0.63589,0.94871l-0.00513,0zm5.26148,8.78451l-5.57429,-8.78451l1.05127,-1.52306l5.73326,8.78451l-1.21024,1.52306zm-6.36403,7.25632l-4.47174,-8.98964l0.99999,-1.15896l4.47174,8.99477l-0.99999,1.15383z" stroke-width="5" stroke-miterlimit="10" stroke-dasharray=""></path><path data-v-9833e8b2="" transform="scale(0.12626262626262627)" fill="none" stroke="currentColor" paint-order="fill stroke markers" d="m162.78782,152.58281l4.30764,8.67682l0.73845,-0.84101l-4.31277,-8.68195l-0.73845,0.84614l0.00513,0zm4.20508,9.30758l-4.63071,-9.36399l1.21024,-1.36409l4.68199,9.30758l-1.26152,1.4205zm-6.99479,6.57428l-3.47175,-9.46656l1.10255,-0.99999l3.47175,9.41527l-1.10255,1.05127z" stroke-width="5" stroke-miterlimit="10" stroke-dasharray=""></path><path data-v-9833e8b2="" transform="scale(0.12626262626262627)" fill="none" stroke="currentColor" paint-order="fill stroke markers" d="m156.73661,158.83914l3.36406,9.09733l0.78973,-0.78461l-3.36406,-9.05118l-0.78973,0.73845zm3.20509,9.67681l-3.6256,-9.67681l1.36409,-1.26152l3.63073,9.7845l-1.36922,1.15383zm-7.67683,5.9948l-2.42048,-9.72809l1.15896,-0.8923l2.47177,9.72809l-1.21024,0.8923z" stroke-width="5" stroke-miterlimit="10" stroke-dasharray=""></path><path data-v-9833e8b2="" transform="scale(0.12626262626262627)" fill="none" stroke="currentColor" paint-order="fill stroke markers" d="m150.00336,164.83907l2.42048,9.41014l1.15383,-0.68204l-2.68202,-9.46655l-0.8923,0.73332l0,0.00513zm2.2051,9.98962l-2.57433,-10.10245l1.47178,-1.10255l2.47177,10.10244l-1.36409,1.10255l-0.00513,0zm-8.25631,4.94353l-1.41537,-9.93834l1.3128,-0.78973l1.4205,9.93835l-1.31793,0.78973z" stroke-width="5" stroke-miterlimit="10" stroke-dasharray=""></path><path data-v-9833e8b2="" transform="scale(0.12626262626262627)" fill="none" stroke="currentColor" paint-order="fill stroke markers" d="m142.74703,169.88517l1.36409,9.57425l0.94871,-0.5282l-1.36921,-9.57424l-0.94358,0.5282zm1.10255,9.99475l-1.47178,-10.52295l1.57434,-0.94358l1.47691,10.51783l-1.57947,0.94871zm-8.73323,4.20508l-0.3641,-10.04604l1.36409,-0.63076l0.36923,10.04604l-1.36921,0.63076z" stroke-width="5" stroke-miterlimit="10" stroke-dasharray=""></path><path data-v-9833e8b2="" transform="scale(0.12626262626262627)" fill="none" stroke="currentColor" paint-order="fill stroke markers" d="m134.96251,174.14666l0.31282,9.67681l1.05127,-0.47179l-0.3641,-9.68194l-0.99999,0.47692zm0,10.20501l-0.36923,-10.52295l1.68203,-0.78973l0.36923,10.52295l-1.68203,0.78461l0,0.00513zm-76.1632,-2.31792l7.36401,-6.83582l1.31793,0.63076l-7.31273,6.83582l-1.36921,-0.63076z" stroke-width="5" stroke-miterlimit="10" stroke-dasharray=""></path><path data-v-9833e8b2="" transform="scale(0.12626262626262627)" fill="none" stroke="currentColor" paint-order="fill stroke markers" d="m58.907,182.03374l0.99999,0.42051l7.04607,-6.57428l-0.99999,-0.47179l-7.04607,6.62556l0,0zm1.05127,0.84102l-1.68203,-0.73333l7.62555,-7.15376l1.68203,0.78973l-7.62555,7.09735zm-9.7845,-5.57429l8.05119,-6.05121l1.3128,0.73845l-8.05119,6.05121l-1.31281,-0.73845z" stroke-width="5" stroke-miterlimit="10" stroke-dasharray=""></path><path data-v-9833e8b2="" transform="scale(0.12626262626262627)" fill="none" stroke="currentColor" paint-order="fill stroke markers" d="m50.49172,177.24918l0.99999,0.57948l7.72811,-5.78967l-0.99486,-0.57435l-7.73324,5.78455zm0.99999,0.99999l-1.63075,-0.94871l8.35888,-6.25634l1.57947,0.94358l-8.3076,6.25634l0,0.00513zm-9.36399,-6.63069l8.67682,-5.15378l1.15896,0.89742l-8.62554,5.15379l-1.21024,-0.89743z" stroke-width="5" stroke-miterlimit="10" stroke-dasharray=""></path><path data-v-9833e8b2="" transform="scale(0.12626262626262627)" fill="none" stroke="currentColor" paint-order="fill stroke markers" d="m42.44566,171.61848l0.8923,0.68717l8.30759,-4.94353l-0.8923,-0.68717l-8.30759,4.94353zm0.8923,1.10768l-1.52306,-1.15896l8.98964,-5.26148l1.47691,1.10768l-8.94348,5.31276zm-8.57426,-7.63068l9.10246,-4.1538l1.10255,0.99999l-9.09733,4.20508l-1.10768,-1.05127z" stroke-width="5" stroke-miterlimit="10" stroke-dasharray=""></path><path data-v-9833e8b2="" transform="scale(0.12626262626262627)" fill="none" stroke="currentColor" paint-order="fill stroke markers" d="m35.08164,165.14676l0.78973,0.79486l8.77938,-4.05123l-0.78461,-0.73845l-8.78451,3.99995l0,-0.00513zm0.73332,1.21537l-1.36409,-1.31793l9.46656,-4.30764l1.36409,1.2564l-9.46656,4.36918zm-7.72811,-8.4717l9.51783,-3.20509l0.99999,1.10255l-9.52296,3.21022l-0.99486,-1.10768z" stroke-width="5" stroke-miterlimit="10" stroke-dasharray=""></path><path data-v-9833e8b2="" transform="scale(0.12626262626262627)" fill="none" stroke="currentColor" paint-order="fill stroke markers" d="m28.39967,157.99813l0.73845,0.84102l9.14861,-3.10253l-0.73333,-0.84102l-9.15374,3.10253zm0.63076,1.21024l-1.26152,-1.4205l10.10245,-3.31278l1.2564,1.4205l-10.09732,3.31278zm-6.78454,-9.20502l9.7845,-2.2051l0.8923,1.25639l-9.83578,2.15382l-0.84102,-1.20511z" stroke-width="5" stroke-miterlimit="10" stroke-dasharray=""></path><path data-v-9833e8b2="" transform="scale(0.12626262626262627)" fill="none" stroke="currentColor" paint-order="fill stroke markers" d="m22.50743,150.10591l0.68717,0.89743l9.41527,-2.10254l-0.63076,-0.89742l-9.47168,2.10254zm0.5282,1.31793l-0.94871,-1.52819l10.20501,-2.25638l1.05127,1.52306l-10.30757,2.25638l0,0.00513zm-5.78455,-9.88706l9.99475,-1.15896l0.73332,1.3128l-9.99475,1.15896l-0.73332,-1.3128z" stroke-width="5" stroke-miterlimit="10" stroke-dasharray=""></path><path data-v-9833e8b2="" transform="scale(0.12626262626262627)" fill="none" stroke="currentColor" paint-order="fill stroke markers" d="m17.51262,141.63935l0.57948,0.99999l9.57424,-1.10255l-0.31794,-0.94871l-9.83578,1.05127zm0.36923,1.4205l-1.05127,-1.68203l10.51783,-1.15896l0.8923,1.63075l-10.35885,1.21024zm-4.682,-10.51782l10.04604,0l0.57948,1.3128l-10.05116,0.10256l-0.57435,-1.41537z" stroke-width="5" stroke-miterlimit="10" stroke-dasharray=""></path><path data-v-9833e8b2="" transform="scale(0.12626262626262627)" fill="none" stroke="currentColor" paint-order="fill stroke markers" d="m13.46138,132.54202l0.42051,0.99999l9.68194,0l-0.42051,-0.99999l-9.68707,0l0.00513,0zm0,1.36921l-0.52307,-1.36921l10.51782,0l0.73845,1.73331l-10.73321,-0.3641zm-3.31278,-10.68193l9.99475,0.99999l0.42051,1.4205l-9.99475,-0.99999l-0.42051,-1.4205z" stroke-width="5" stroke-miterlimit="10" stroke-dasharray=""></path><path data-v-9833e8b2="" transform="scale(0.12626262626262627)" fill="none" stroke="currentColor" paint-order="fill stroke markers" d="m10.72808,124.49596l9.57424,0.94358l-0.31794,-1.05127l-9.62553,-0.99999l0.36923,1.10768zm10.10244,1.36409l-10.52295,-1.05127l-0.57948,-1.78972l10.51782,1.0564l0.57948,1.78459l0.00513,0zm78.3683,-103.03468a76.36833,76.36833 0 1 0 76.36833,76.31704c-0.06154,-42.14309 -34.22524,-76.28628 -76.37346,-76.31704m0,155.31611c-43.56871,0 -78.89137,-35.32266 -78.89137,-78.89137c0,-43.57384 35.32266,-78.8965 78.89137,-78.8965c43.57384,0 78.8965,35.32266 78.8965,78.8965c0,43.56872 -35.32266,78.89137 -78.8965,78.89137z" stroke-width="5" stroke-miterlimit="10" stroke-dasharray=""></path><path data-v-9833e8b2="" transform="scale(0.12626262626262627)" fill="none" stroke="currentColor" paint-order="fill stroke markers" d="m99.19883,3.68201a95.51682,95.51682 0 1 0 95.46041,95.46041c-0.08718,-52.68655 -42.77898,-95.37323 -95.46554,-95.46041m0,193.60284a98.14243,98.14243 0 1 1 98.09115,-98.1373c-0.05128,54.1532 -43.93281,98.05525 -98.08602,98.1373l-0.00513,0z" stroke-width="5" stroke-miterlimit="10" stroke-dasharray=""></path></g></svg>