<svg data-v-9833e8b2="" version="1.1" xmlns="http://www.w3.org/2000/svg" xmlns:xlink="http://www.w3.org/1999/xlink" width="25" height="22.5"><g data-v-9833e8b2=""><path data-v-9833e8b2="" transform="scale(0.12437810945273632)" fill="none" stroke="currentColor" paint-order="fill stroke markers" d="m196.29191,114.37703c-2.18602,0 -4.68434,1.01494 -4.68434,3.27904l0,4.84048l-27.55953,0l0,-48.87328l7.80723,-16.31712l0,-40.67568a7.3388,7.3388 0 0 0 -7.80723,-7.80723l-48.2487,0a7.3388,7.3388 0 0 0 -7.80723,-7.80723l-17.95664,0a7.3388,7.3388 0 0 0 -7.80723,7.80723l-48.56099,0a7.3388,7.3388 0 0 0 -7.80723,7.80723l0,40.67568l7.80723,7.80723l-16.23905,0l0,-7.80723l-8.50988,0l0,24.43664l7.80723,0l0,-7.80723l23.4217,0l0,16.31712l-18.97158,0c-6.79229,0 -11.94507,0 -11.94507,6.48l0,1.63952l16.31712,24.43664l-16.62941,0a7.3388,7.3388 0 0 0 -7.80723,7.80723l0,40.67568a7.3388,7.3388 0 0 0 7.80723,8.58796l182.68925,0l0,4.05976a4.68434,4.68434 0 0 0 4.68434,3.74747c2.2641,0 4.45012,-0.78072 4.45012,-3.04482l0,-65.97112a4.60627,4.60627 0 0 0 -4.45012,-4.29398zm-121.8709,-16.31712l48.87328,0l0,32.63423l-48.87328,0l0,-32.63423zm52.93304,-7.80723l-56.60244,0c-4.21591,0 -4.45012,0 -4.45012,4.05976l0,36.69399l-16.31712,0l0,-49.26364l105.2415,0l0,48.95135l-23.4217,0l0,-36.69399c-0.31229,-4.13783 -0.23422,-4.05976 -4.45012,-4.05976l0,0.31229zm-92.98414,-38.56773l0,-36.53785l129.05356,0l0,36.53785l-129.05356,0zm7.80723,5.62121l121.24633,0l-8.19759,16.31712l-105.2415,0l-15.61447,-16.31712l7.80723,0zm-23.4217,41.45641l23.10941,0l0,31.93158l-23.10941,-31.93158zm-7.80723,64.48774l0,-24.43664l161.21936,0l0,31.93158l-162.2343,0l1.01494,-7.49494zm170.43189,0l0,-24.43664l11.5547,0l0,31.93158l-12.25735,0l0.70265,-7.49494z" stroke-width="5" stroke-miterlimit="10" stroke-dasharray=""></path><path data-v-9833e8b2="" transform="scale(0.12437810945273632)" fill="none" stroke="currentColor" paint-order="fill stroke markers" d="m98.85765,106.25751a7.80723,7.80723 0 1 0 7.80723,7.80723a7.80723,7.80723 0 0 0 -7.80723,-7.80723zm-44.96966,44.5793a3.90362,3.90362 0 0 0 -3.90362,3.90362a3.90362,3.90362 0 0 0 7.80723,0a3.90362,3.90362 0 0 0 -3.90362,-3.90362zm88.14366,0a3.90362,3.90362 0 0 0 -3.90362,3.90362a3.90362,3.90362 0 0 0 3.90362,3.90362a3.90362,3.90362 0 0 0 3.90362,-3.90362a3.98169,3.98169 0 0 0 -3.90362,-3.90362z" stroke-width="5" stroke-miterlimit="10" stroke-dasharray=""></path></g></svg>