<svg data-v-9833e8b2="" version="1.1" xmlns="http://www.w3.org/2000/svg" xmlns:xlink="http://www.w3.org/1999/xlink" width="25" height="20"><g data-v-9833e8b2=""><path data-v-9833e8b2="" transform="scale(0.12562814070351758)" fill="none" stroke="currentColor" paint-order="fill stroke markers" d="m188.66444,1l-88.75025,0l-88.75045,0c0,0 -10.16373,1.51818 -10.16373,52.9992s5.51188,49.62028 10.16373,51.79102l15.19634,0l0,-17.36707l73.55432,0l73.55392,0l0,17.36707l15.19634,0c4.65186,-2.17093 10.16373,-0.30999 10.16373,-51.79102s-10.16393,-52.9992 -10.16393,-52.9992zm-36.08303,53.30939l-133.66431,0l0,-16.64436l133.66451,0l-0.0002,16.64436l0,0zm22.07909,-2.83668c-3.15587,0 -5.71414,-2.55827 -5.71414,-5.71414s2.55827,-5.71414 5.71414,-5.71414c3.15587,0 5.71414,2.55827 5.71414,5.71414c0,3.15587 -2.55847,5.71414 -5.71414,5.71414zm-143.47489,46.15702l138.01857,0l0,7.85609l-138.01857,0l0,-7.85609zm6.28935,18.38258l0,26.51449c0,0 8.83823,-6.27976 9.7686,-26.51449l-9.7686,0zm-5.01361,21.93278c0,0 1.85015,10.63442 2.64301,13.90681c0,0 5.28603,-5.71354 8.98613,-9.94248c0,0.0002 -7.13618,0.79306 -11.62914,-3.96432zm38.62031,-21.96057l0,26.51449c0,0 8.83823,-6.27976 9.7686,-26.51449l-9.7686,0zm-5.01361,21.93278c0,0 1.85015,10.63442 2.64301,13.90681c0,0 5.28603,-5.71354 8.98613,-9.94248c0,0 -7.13618,0.79287 -11.62914,-3.96432zm59.42086,-21.93278l0,26.51449c0,0 -8.83823,-6.27976 -9.7686,-26.51449l9.7686,0zm5.01381,21.93278c0,0 -1.85015,10.63442 -2.64301,13.90681c0,0 -5.28603,-5.71354 -8.98613,-9.94248c-0.0002,0 7.13598,0.79287 11.62914,-3.96432zm26.74393,-21.93278l0,26.51449c0,0 -8.83823,-6.27976 -9.7686,-26.51449l9.7686,0zm5.01361,21.93278c0,0 -1.85015,10.63442 -2.64301,13.90681c0,0 -5.28603,-5.71354 -8.98613,-9.94248c0,0 7.13598,0.79287 11.62914,-3.96432z" stroke-width="5" stroke-miterlimit="10" stroke-dasharray=""></path></g></svg>