<svg data-v-9833e8b2="" version="1.1" xmlns="http://www.w3.org/2000/svg" xmlns:xlink="http://www.w3.org/1999/xlink" width="19.5" height="25"><g data-v-9833e8b2=""><path data-v-9833e8b2="" transform="scale(0.1497005988023952)" fill="none" stroke="currentColor" paint-order="fill stroke markers" d="m80.28145,151.67746l19.38547,0l0,14.93754l-19.38547,0l0,-14.93754zm-62.13557,0l19.38546,0l0,14.93754l-19.38546,0l0,-14.93754zm0,-150.67746l19.38546,0l0,15.62504l-19.38546,0l0,-15.62504zm62.13557,0l19.38547,0l0,15.62504l-19.38547,0l0,-15.62504zm-55.89597,39.6876l15.62504,0l0,87.81272l-15.62504,0l0,-87.81272zm25.61465,-0.07292l15.62504,0l0,87.81272l-15.62504,0l0,-87.81272zm25.61465,-0.1875l15.62504,0l0,87.81272l-15.62504,0l0,-87.81272z" stroke-width="5" stroke-miterlimit="10" stroke-dasharray=""></path><path data-v-9833e8b2="" transform="scale(0.1497005988023952)" fill="none" stroke="currentColor" paint-order="fill stroke markers" d="m1,18.87505l0,130.20866l113.09403,0l0,-130.20866l-113.09403,0zm97.20858,116.27112l-81.2502,0l0,-101.59401l81.2502,0l0,101.59401z" stroke-width="5" stroke-miterlimit="10" stroke-dasharray=""></path></g></svg>