<svg data-v-9833e8b2="" version="1.1" xmlns="http://www.w3.org/2000/svg" xmlns:xlink="http://www.w3.org/1999/xlink" width="25" height="15"><g data-v-9833e8b2=""><path data-v-9833e8b2="" transform="scale(0.1282051282051282)" fill="none" stroke="currentColor" paint-order="fill stroke markers" d="m165.12,75.77l0,7.29l-43.77,0l0,-5.47l10.94,0l27.36,0l1.82,0l0,-43.77l18.24,0l0,-32.82l-164.12,0l0,32.82l18.24,0l0,43.77l1.82,0l27.36,0l10.94,0l0,5.47l-43.77,0l0,-7.29l-29.18,0l0,47.42l29.18,0l0,-7.3l134.95,0l0,7.3l29.18,0l0,-47.42l-29.19,0z" stroke-width="5" stroke-miterlimit="10" stroke-dasharray=""></path><path data-v-9833e8b2="" transform="scale(0.1282051282051282)" fill="none" stroke="currentColor" paint-order="fill stroke markers" d="m165.12,95.83l-63.83,0l0,-5.47l63.83,0l0,5.47zm-51.06,-12.77l-12.77,0l0,-5.47l12.77,0l0,5.47zm18.24,-34.65l-16.41,0l0,-12.76l16.41,0l0,12.76zm-23.71,-12.76l0,12.76l-7.29,0l0,-12.76l7.29,0zm-14.59,0l0,12.76l-7.29,0l0,-12.76l7.29,0zm7.3,-9.12l0,-5.47l32.83,0l0,5.47l-32.83,0zm-7.3,0l-32.82,0l0,-5.47l32.82,0l0,5.47zm-31,9.12l16.41,0l0,12.76l-16.41,0l0,-12.76zm47.41,34.65l0,-12.77l21.89,0l0,12.77l-21.89,0zm31.01,-43.77l0,-5.47l31,0l0,5.47l-31,0zm31,-18.24l0,5.47l-31,0l0,-5.47l31,0zm-38.3,0l0,5.47l-32.83,0l0,-5.47l32.83,0zm-40.12,0l0,5.47l-32.82,0l0,-5.47l32.82,0zm-40.12,0l0,5.47l-31,0l0,-5.47l31,0zm-31,12.77l31,0l0,5.47l-31,0l0,-5.47zm40.12,36.47l21.88,0l0,12.77l-21.88,0l0,-12.77zm18.24,20.06l12.76,0l0,5.47l-12.76,0l0,-5.47zm12.76,12.77l0,5.47l-63.83,0l0,-5.47l63.83,0zm-85.71,25.53l0,-32.83l14.59,0l0,32.83l-14.59,0zm21.88,-7.3l0,-5.47l134.95,0l0,5.47l-134.95,0zm156.84,7.3l-14.59,0l0,-32.83l14.59,0l0,32.83z" stroke-width="5" stroke-miterlimit="10" stroke-dasharray=""></path></g></svg>