<svg data-v-9833e8b2="" version="1.1" xmlns="http://www.w3.org/2000/svg" xmlns:xlink="http://www.w3.org/1999/xlink" width="25" height="15"><g data-v-9833e8b2=""><path data-v-9833e8b2="" transform="scale(0.12562814070351758)" fill="none" stroke="currentColor" paint-order="fill stroke markers" d="m196.80518,54.61049l-3.71368,0l0,2.55313l-4.04649,0c-3.12813,-18.94829 -12.2723,-18.94927 -12.2723,-18.94927l-67.88748,0l0,-19.03267l2.74708,0l0,-3.40411l-2.74708,0l0,-9.43889l-0.00098,0s0,-5.33869 -13.34456,-5.33869c-13.34437,0 -13.34437,5.33869 -13.34437,5.33869l-0.00098,0l0,9.43889l-2.74708,0l0,3.40411l2.74727,0l0,19.03267l-67.88728,0s-13.30726,0 -13.30726,33.26239s13.30726,33.26239 13.30726,33.26239l15.32894,0l0,9.45081l9.87522,0l0,-9.45081l112.05692,0l0,9.45081l9.87542,0l0,-9.45081l15.32894,0s9.14416,-0.00098 12.2723,-18.94927l4.04649,0l0,2.55313l4.95157,0l0,-33.73251l-1.23789,0zm-116.42939,-36.35712l0,-1.54727l30.3284,0l0,1.54727l-30.3284,0zm-43.03077,86.48557l0,7.28459l-5.54259,0l0,-22.28209l5.54259,0l0,14.9975zm59.1232,-76.46758l0,38.72393a0.92832,0.92832 0 0 1 -0.92832,0.92832l-69.25428,0l0,35.27997l-1.85684,0l0,-36.20829a0.92832,0.92832 0 0 1 0.92832,-0.92832l69.25428,0l0,-37.79541c-0.81934,-0.3584 -1.39258,-1.1752 -1.39258,-2.12676c0,-1.28184 1.03926,-2.3211 2.3211,-2.3211c1.28203,0 2.3211,1.03926 2.3211,2.3211c0,0.95156 -0.57324,1.76836 -1.39278,2.12657zm62.80914,76.46758l0,7.28459l-5.54279,0l0,-22.28209l5.54279,0l0,14.9975zm37.52783,-17.63383l-2.47579,0l0,-31.25672l2.47579,0l0,31.25672z" stroke-width="5" stroke-miterlimit="10" stroke-dasharray=""></path></g></svg>