<svg data-v-9833e8b2="" version="1.1" xmlns="http://www.w3.org/2000/svg" xmlns:xlink="http://www.w3.org/1999/xlink" width="25" height="15"><g data-v-9833e8b2=""><path data-v-9833e8b2="" transform="scale(0.13812154696132597)" fill="none" stroke="currentColor" paint-order="fill stroke markers" d="m75.92,1l104.88,42.16l-76.59,38.95l-103.21,-48.79l74.92,-32.32l0,0z" stroke-width="5" stroke-miterlimit="10" stroke-dasharray=""></path><path data-v-9833e8b2="" transform="scale(0.13812154696132597)" fill="none" stroke="currentColor" paint-order="fill stroke markers" d="m104.63,83.29l-0.03,0.01l0.03,0.02z" stroke-width="5" stroke-miterlimit="10" stroke-dasharray=""></path><path data-v-9833e8b2="" transform="scale(0.13812154696132597)" fill="none" stroke="currentColor" paint-order="fill stroke markers" d="m104.63,83.32l0,29.66l-2.07,-0.98l-101.56,-48.18l0,-29.66l103.6,49.14l0.03,0.02z" stroke-width="5" stroke-miterlimit="10" stroke-dasharray=""></path><path data-v-9833e8b2="" transform="scale(0.13812154696132597)" fill="none" stroke="currentColor" paint-order="fill stroke markers" d="m180.8,44.17l0,29.84l-62.8,32.25l-12.12,6.23l-1.1,0.57l-0.15,-0.07l0,-29.67l0,-0.03l2.27,-1.17l73.9,-37.95z" stroke-width="5" stroke-miterlimit="10" stroke-dasharray=""></path><path data-v-9833e8b2="" transform="scale(0.13812154696132597)" fill="none" stroke="currentColor" paint-order="fill stroke markers" d="m42.13,63.33l5.58,2.77l0,9.99l-5.58,-2.77l0,-9.99l0,0z" stroke-width="5" stroke-miterlimit="10" stroke-dasharray=""></path><path data-v-9833e8b2="" transform="scale(0.13812154696132597)" fill="none" stroke="currentColor" paint-order="fill stroke markers" d="m53.29,68.86l5.58,2.77l0,9.99l-5.58,-2.77l0,-9.99l0,0z" stroke-width="5" stroke-miterlimit="10" stroke-dasharray=""></path><path data-v-9833e8b2="" transform="scale(0.13812154696132597)" fill="none" stroke="currentColor" paint-order="fill stroke markers" d="m64.46,74.39l5.58,2.77l0,9.99l-5.58,-2.77l0,-9.99l0,0z" stroke-width="5" stroke-miterlimit="10" stroke-dasharray=""></path><path data-v-9833e8b2="" transform="scale(0.13812154696132597)" fill="none" stroke="currentColor" paint-order="fill stroke markers" d="m18.34,52.21l5.58,2.77l0,9.99l-5.58,-2.77l0,-9.99l0,0z" stroke-width="5" stroke-miterlimit="10" stroke-dasharray=""></path><path data-v-9833e8b2="" transform="scale(0.13812154696132597)" fill="none" stroke="currentColor" paint-order="fill stroke markers" d="m29.5,57.75l5.58,2.77l0,9.99l-5.58,-2.77l0,-9.99l0,0z" stroke-width="5" stroke-miterlimit="10" stroke-dasharray=""></path><path data-v-9833e8b2="" transform="scale(0.13812154696132597)" fill="none" stroke="currentColor" paint-order="fill stroke markers" d="m76.59,80.51l5.58,2.77l0,9.99l-5.58,-2.77l0,-9.99l0,0z" stroke-width="5" stroke-miterlimit="10" stroke-dasharray=""></path><path data-v-9833e8b2="" transform="scale(0.13812154696132597)" fill="none" stroke="currentColor" paint-order="fill stroke markers" d="m87.76,86.04l5.58,2.77l0,9.99l-5.58,-2.77l0,-9.99l0,0z" stroke-width="5" stroke-miterlimit="10" stroke-dasharray=""></path></g></svg>