<svg data-v-9833e8b2="" version="1.1" xmlns="http://www.w3.org/2000/svg" xmlns:xlink="http://www.w3.org/1999/xlink" width="25" height="25"><g data-v-9833e8b2=""><path data-v-9833e8b2="" transform="scale(0.32894736842105265)" fill="none" stroke="currentColor" paint-order="fill stroke markers" d="m9.54589,3.38164l57.64973,0c2.1715,0 2.94203,0.21014 3.71256,0.63044c0.77053,0.42029 1.40097,1.05072 1.82126,1.82125c0.42029,0.77053 0.63043,1.54106 0.63043,3.71256l0,57.64973c0,2.1715 -0.21014,2.94203 -0.63043,3.71256c-0.42029,0.77053 -1.05072,1.40097 -1.82126,1.82126c-0.77053,0.42029 -1.54106,0.63043 -3.71256,0.63043l-17.93236,0l-10.50724,0.07005l-0.63044,0l-10.92753,-0.07005l-17.65216,0c-2.1715,0 -2.94203,-0.21014 -3.71256,-0.63043s-1.40097,-1.05072 -1.82126,-1.82126c-0.42029,-0.77053 -0.63043,-1.54106 -0.63043,-3.71256l0,-57.64973c0,-2.1715 0.21014,-2.94203 0.63043,-3.71256c0.42029,-0.77053 1.05072,-1.40097 1.82126,-1.82126c0.84058,-0.42029 1.61111,-0.63043 3.71256,-0.63043z" stroke-width="5" stroke-miterlimit="10" stroke-dasharray=""></path><path data-v-9833e8b2="" transform="scale(0.32894736842105265)" fill="none" stroke="currentColor" paint-order="fill stroke markers" d="m38.47582,75.81155l-0.42029,0l-10.92753,-0.07005l-17.58212,0c-2.31159,0 -3.57246,-0.21015 -4.83333,-0.91063c-1.19082,-0.63043 -2.1715,-1.61111 -2.80193,-2.80193c-0.70048,-1.33092 -0.91063,-2.52174 -0.91063,-4.83333l0,-57.64973c0,-2.31159 0.21014,-3.57246 0.91063,-4.83333c0.63043,-1.19082 1.61111,-2.1715 2.80193,-2.80193c1.33092,-0.70048 2.52174,-0.91063 4.83333,-0.91063l57.64973,0c2.31159,0 3.57246,0.21014 4.83333,0.91063c1.19082,0.63043 2.1715,1.61111 2.80193,2.80193c0.70048,1.33092 0.91063,2.52174 0.91063,4.83333l0,57.64973c0,2.31159 -0.21015,3.57246 -0.91063,4.83333c-0.63043,1.19082 -1.61111,2.1715 -2.80193,2.80193c-1.33092,0.70048 -2.52174,0.91063 -4.83333,0.91063l-17.93236,0l-10.78743,0.07005zm-28.92994,-70.04827c-1.8913,0 -2.24154,0.21014 -2.52174,0.42029c-0.42029,0.1401 -0.70048,0.42029 -0.84058,0.84058c-0.1401,0.35024 -0.35024,0.70048 -0.35024,2.59179l0,57.64973c0,1.8913 0.21014,2.24154 0.35024,2.59179c0.21014,0.35024 0.49034,0.63043 0.84058,0.84058c0.28019,0.1401 0.70048,0.35024 2.59179,0.35024l17.58211,0l11.27777,0.07005l10.78743,-0.07005l18.00241,0c1.8913,0 2.24154,-0.21014 2.59179,-0.35024c0.35024,-0.21014 0.63043,-0.49034 0.84058,-0.84058c0.1401,-0.28019 0.35024,-0.70048 0.35024,-2.59179l0,-57.71977c0,-1.8913 -0.21014,-2.24154 -0.35024,-2.59179c-0.21014,-0.35024 -0.49034,-0.63043 -0.84058,-0.84058c-0.28019,-0.1401 -0.70048,-0.35024 -2.59179,-0.35024l-57.71977,0z" stroke-width="5" stroke-miterlimit="10" stroke-dasharray=""></path><path data-v-9833e8b2="" transform="scale(0.32894736842105265)" fill="none" stroke="currentColor" paint-order="fill stroke markers" d="m21.4541,20.82366l36.00481,0l0,26.68839l-36.00481,0l0,-26.68839z" stroke-width="5" stroke-miterlimit="10" stroke-dasharray=""></path><path data-v-9833e8b2="" transform="scale(0.32894736842105265)" fill="none" stroke="currentColor" paint-order="fill stroke markers" d="m47.02171,45.34055c-2.73188,0 -5.53381,-0.77053 -7.84541,-2.38164c-3.9227,-2.66184 -8.89613,-2.87198 -13.02898,-0.63044l-1.26087,0.70048c-0.28019,0.1401 -0.63044,0.1401 -0.91063,0s-0.42029,-0.49034 -0.42029,-0.77053l0,-16.1111c0,-0.35024 0.1401,-0.63044 0.42029,-0.77053l0.77053,-0.42029c4.76328,-2.73188 10.57729,-2.59179 15.20048,0.49034c4.0628,2.66183 9.10628,2.80193 13.30917,0.35024l0.70048,-0.42029c0.28019,-0.1401 0.63043,-0.1401 0.91063,0s0.42029,0.49034 0.42029,0.77053l0,16.1111c0,0.35024 -0.1401,0.63044 -0.42029,0.77053l-0.84058,0.49034c-2.1715,1.26087 -4.62319,1.82126 -7.00483,1.82126zm-14.92028,-6.37439c2.80193,0 5.60386,0.84058 8.05555,2.45169c3.85265,2.59179 8.89613,2.80193 12.88888,0.49034l0.42029,-0.21014l0,-14.00965c-4.62319,2.38164 -10.08695,2.10145 -14.49999,-0.77053c-4.0628,-2.66184 -9.10628,-2.80193 -13.30917,-0.42029l-0.28019,0.1401l0,14.0797c2.10145,-1.19082 4.41304,-1.75121 6.72463,-1.75121z" stroke-width="5" stroke-miterlimit="10" stroke-dasharray=""></path><path data-v-9833e8b2="" transform="scale(0.32894736842105265)" fill="none" stroke="currentColor" paint-order="fill stroke markers" d="m24.53622,58.92992c-0.70048,0 -1.19082,-0.56039 -1.19082,-1.19082l0,-31.31158c0,-0.70048 0.56039,-1.19082 1.19082,-1.19082s1.19082,0.56039 1.19082,1.19082l0,31.31158c0,0.63043 -0.49034,1.19082 -1.19082,1.19082z" stroke-width="5" stroke-miterlimit="10" stroke-dasharray=""></path></g></svg>