<svg data-v-9833e8b2="" version="1.1" xmlns="http://www.w3.org/2000/svg" xmlns:xlink="http://www.w3.org/1999/xlink" width="19.5" height="25"><g data-v-9833e8b2=""><path data-v-9833e8b2="" transform="scale(0.13513513513513514)" fill="none" stroke="currentColor" paint-order="fill stroke markers" d="m73.55,1l60.11,23.85l-74.62,40.43l-58.04,-25.92l72.55,-38.36l0,0z" stroke-width="5" stroke-miterlimit="10" stroke-dasharray=""></path><path data-v-9833e8b2="" transform="scale(0.13513513513513514)" fill="none" stroke="currentColor" paint-order="fill stroke markers" d="m58.26,66.77l0,0.05l0,117.86l-0.18,0.1l-1.12,-0.51l-55.95,-25.58l0,-118.08l57.25,26.16z" stroke-width="5" stroke-miterlimit="10" stroke-dasharray=""></path><path data-v-9833e8b2="" transform="scale(0.13513513513513514)" fill="none" stroke="currentColor" paint-order="fill stroke markers" d="m58.32,66.79l-0.06,-0.02l0,0.05z" stroke-width="5" stroke-miterlimit="10" stroke-dasharray=""></path><path data-v-9833e8b2="" transform="scale(0.13513513513513514)" fill="none" stroke="currentColor" paint-order="fill stroke markers" d="m133.65,25.91l0,117.86l-45.19,24.52l-27.35,14.84l-2.85,1.55l0,-117.86l0.05,-0.03l12.66,-6.87l62.68,-34.01z" stroke-width="5" stroke-miterlimit="10" stroke-dasharray=""></path><path data-v-9833e8b2="" transform="scale(0.13513513513513514)" fill="none" stroke="currentColor" paint-order="fill stroke markers" d="m14.91,59.92l6.95,3.45l0,12.43l-6.95,-3.45l0,-12.43z" stroke-width="5" stroke-miterlimit="10" stroke-dasharray=""></path><path data-v-9833e8b2="" transform="scale(0.13513513513513514)" fill="none" stroke="currentColor" paint-order="fill stroke markers" d="m14.91,59.92l6.95,3.44l0,12.43l-6.95,-3.45l0,-12.42l0,0z" stroke-width="5" stroke-miterlimit="10" stroke-dasharray=""></path><path data-v-9833e8b2="" transform="scale(0.13513513513513514)" fill="none" stroke="currentColor" paint-order="fill stroke markers" d="m28.8,66.81l6.95,3.45l0,12.43l-6.95,-3.45l0,-12.43z" stroke-width="5" stroke-miterlimit="10" stroke-dasharray=""></path><path data-v-9833e8b2="" transform="scale(0.13513513513513514)" fill="none" stroke="currentColor" paint-order="fill stroke markers" d="m28.8,66.81l6.95,3.44l0,12.44l-6.95,-3.44l0,-12.44l0,0z" stroke-width="5" stroke-miterlimit="10" stroke-dasharray=""></path><path data-v-9833e8b2="" transform="scale(0.13513513513513514)" fill="none" stroke="currentColor" paint-order="fill stroke markers" d="m42.7,73.7l6.95,3.44l0,12.43l-6.95,-3.44l0,-12.43z" stroke-width="5" stroke-miterlimit="10" stroke-dasharray=""></path><path data-v-9833e8b2="" transform="scale(0.13513513513513514)" fill="none" stroke="currentColor" paint-order="fill stroke markers" d="m42.7,73.7l6.95,3.44l0,12.43l-6.95,-3.44l0,-12.43l0,0z" stroke-width="5" stroke-miterlimit="10" stroke-dasharray=""></path></g></svg>