<svg data-v-9833e8b2="" version="1.1" xmlns="http://www.w3.org/2000/svg" xmlns:xlink="http://www.w3.org/1999/xlink" width="24.5" height="25"><g data-v-9833e8b2=""><path data-v-9833e8b2="" transform="scale(0.2403846153846154)" fill="none" stroke="currentColor" paint-order="fill stroke markers" d="m45.85457,1c-21.5999,0 -44.85457,6.51658 -44.85457,20.82377l0,60.86047c0.01464,14.30719 23.25467,20.82377 44.85457,20.82377s44.85457,-6.51658 44.85457,-20.82377l0,-60.86047c0,-14.30719 -23.25467,-20.82377 -44.85457,-20.82377zm38.4405,81.68424c0,7.95169 -17.2067,14.4097 -38.4405,14.4097s-38.4405,-6.458 -38.4405,-14.4097l0,-11.96415c6.61909,6.82411 22.58105,10.36795 38.4405,10.36795s31.82141,-3.54385 38.4405,-10.36795l0,11.96415zm0,-19.21293c-0.01464,0.02929 0,0.07322 0,0.10251c0,7.90776 -17.2067,14.32183 -38.4405,14.32183s-38.4405,-6.41407 -38.4405,-14.32183c0,-0.02929 0.01464,-0.07322 0.01464,-0.10251l-0.01464,0l0,-11.96415c6.61909,6.8241 22.58105,10.36795 38.4405,10.36795s31.82141,-3.54385 38.4405,-10.36795l0,11.96415zm0,-19.22757c-0.01464,0.02929 0,0.07322 0,0.10251c0,7.90776 -17.2067,14.32183 -38.4405,14.32183s-38.4405,-6.41407 -38.4405,-14.32183c0,-0.02929 0.01464,-0.07322 0.01464,-0.10251l-0.01464,0l0,-11.01229c8.39101,6.39943 23.78186,9.40145 38.4405,9.40145s30.04949,-3.00202 38.4405,-9.40145l0,11.01229zm-38.4405,-8.01027c-21.2338,0 -38.4405,-6.458 -38.4405,-14.4097c0,-7.96634 17.2067,-14.4097 38.4405,-14.4097s38.4405,6.458 38.4405,14.4097c0,7.95169 -17.2067,14.4097 -38.4405,14.4097z" stroke-width="5" stroke-miterlimit="10" stroke-dasharray=""></path><path data-v-9833e8b2="" transform="scale(0.2403846153846154)" fill="none" stroke="currentColor" paint-order="fill stroke markers" d="m71.48158,84.29508c0,1.77192 1.43511,3.20704 3.20704,3.20704s3.20704,-1.43511 3.20704,-3.20704s-1.43511,-3.20704 -3.20704,-3.20704s-3.20704,1.43511 -3.20704,3.20704zm0,-19.22757c0,1.77192 1.43511,3.20704 3.20704,3.20704s3.20704,-1.43511 3.20704,-3.20704s-1.43511,-3.20704 -3.20704,-3.20704s-3.20704,1.43511 -3.20704,3.20704zm0,-19.21293c0,1.77192 1.43511,3.20704 3.20704,3.20704s3.20704,-1.43511 3.20704,-3.20704s-1.43511,-3.20704 -3.20704,-3.20704s-3.20704,1.43511 -3.20704,3.20704z" stroke-width="5" stroke-miterlimit="10" stroke-dasharray=""></path></g></svg>