<svg data-v-9833e8b2="" version="1.1" xmlns="http://www.w3.org/2000/svg" xmlns:xlink="http://www.w3.org/1999/xlink" width="25" height="25"><g data-v-9833e8b2=""><path data-v-9833e8b2="" transform="scale(0.12376237623762376)" fill="none" stroke="currentColor" paint-order="fill stroke markers" d="m101.00026,101.00025m-95.46691,0a95.46691,95.46691 0 1 0 190.93381,0a95.46691,95.46691 0 1 0 -190.93381,0z" stroke-width="5" stroke-miterlimit="10" stroke-dasharray=""></path><path data-v-9833e8b2="" transform="scale(0.12376237623762376)" fill="none" stroke="currentColor" paint-order="fill stroke markers" d="m101.00026,10.06669c50.13346,0 90.93356,40.8001 90.93356,90.93356s-40.8001,90.93356 -90.93356,90.93356s-90.93356,-40.8001 -90.93356,-90.93356s40.8001,-90.93356 90.93356,-90.93356m0,-9.06669c-55.20014,0 -100.00025,44.80011 -100.00025,100.00025s44.80011,100.00025 100.00025,100.00025s100.00025,-44.80011 100.00025,-100.00025s-44.80011,-100.00025 -100.00025,-100.00025z" stroke-width="5" stroke-miterlimit="10" stroke-dasharray=""></path></g></svg>