<svg data-v-9833e8b2="" version="1.1" xmlns="http://www.w3.org/2000/svg" xmlns:xlink="http://www.w3.org/1999/xlink" width="25" height="22.5"><g data-v-9833e8b2=""><path data-v-9833e8b2="" transform="scale(0.13736263736263737)" fill="none" stroke="currentColor" paint-order="fill stroke markers" d="m101.9,122.95l-100.9,-49.61l79.44,-39.91l100.9,44.2l-79.44,45.32z" stroke-width="5" stroke-miterlimit="10" stroke-dasharray=""></path><path data-v-9833e8b2="" transform="scale(0.13736263736263737)" fill="none" stroke="currentColor" paint-order="fill stroke markers" d="m101.33,124.2l80.01,-45.65l0,32.26l-77.63,44.29l-2.41,1.38l0,-32.26l0.03,-0.02z" stroke-width="5" stroke-miterlimit="10" stroke-dasharray=""></path><path data-v-9833e8b2="" transform="scale(0.13736263736263737)" fill="none" stroke="currentColor" paint-order="fill stroke markers" d="m101.29,124.18l0,0.04l0,32.26l-0.15,0.08l-1.04,-0.52l-5.52,-2.74l-93.57,-46.42l0,-32.45l95.22,47.24l5.06,2.51z" stroke-width="5" stroke-miterlimit="10" stroke-dasharray=""></path><path data-v-9833e8b2="" transform="scale(0.13736263736263737)" fill="none" stroke="currentColor" paint-order="fill stroke markers" d="m13.09,91.24l6.04,3l0,10.82l-6.04,-3l0,-10.82l0,0z" stroke-width="5" stroke-miterlimit="10" stroke-dasharray=""></path><path data-v-9833e8b2="" transform="scale(0.13736263736263737)" fill="none" stroke="currentColor" paint-order="fill stroke markers" d="m25.17,97.24l6.04,3l0,10.82l-6.04,-3l0,-10.82l0,0z" stroke-width="5" stroke-miterlimit="10" stroke-dasharray=""></path><path data-v-9833e8b2="" transform="scale(0.13736263736263737)" fill="none" stroke="currentColor" paint-order="fill stroke markers" d="m37.25,103.23l6.04,3l0,10.82l-6.04,-3l0,-10.82l0,0z" stroke-width="5" stroke-miterlimit="10" stroke-dasharray=""></path><path data-v-9833e8b2="" transform="scale(0.13736263736263737)" fill="none" stroke="currentColor" paint-order="fill stroke markers" d="m74.94,1c3.98,0 7.21,3.23 7.21,7.21l0,43.27c0,3.98 -3.23,7.21 -7.21,7.21c-3.98,0 -7.21,-3.23 -7.21,-7.21l0,-43.26c0,-3.99 3.23,-7.22 7.21,-7.22l0,0z" stroke-width="5" stroke-miterlimit="10" stroke-dasharray=""></path><path data-v-9833e8b2="" transform="scale(0.13736263736263737)" fill="none" stroke="currentColor" paint-order="fill stroke markers" d="m138.05,28.05c3.98,0 7.21,3.23 7.21,7.21l0,43.27c0,3.98 -3.23,7.21 -7.21,7.21c-3.98,0 -7.21,-3.23 -7.21,-7.21l0,-43.27c-0.01,-3.98 3.22,-7.21 7.21,-7.21l0,0z" stroke-width="5" stroke-miterlimit="10" stroke-dasharray=""></path></g></svg>