<svg data-v-9833e8b2="" version="1.1" xmlns="http://www.w3.org/2000/svg" xmlns:xlink="http://www.w3.org/1999/xlink" width="19.5" height="25"><g data-v-9833e8b2=""><path data-v-9833e8b2="" transform="scale(0.13513513513513514)" fill="none" stroke="currentColor" paint-order="fill stroke markers" d="m18.8,1l86,0c9.8,0 17.8,8 17.8,17.8l0,148.3c0,9.8 -8,17.8 -17.8,17.8l-86,0c-9.8,0 -17.8,-8 -17.8,-17.8l0,-148.3c0,-9.8 7.9,-17.8 17.8,-17.8l0,0z" stroke-width="5" stroke-miterlimit="10" stroke-dasharray=""></path><path data-v-9833e8b2="" transform="scale(0.13513513513513514)" fill="none" stroke="currentColor" paint-order="fill stroke markers" d="m46.9,12.9l29.7,0c1.6,0 3,1.3 3,3c0,1.6 -1.3,3 -3,3l-29.7,0c-1.6,0 -3,-1.3 -3,-3c0.1,-1.7 1.4,-3 3,-3l0,0z" stroke-width="5" stroke-miterlimit="10" stroke-dasharray=""></path><path data-v-9833e8b2="" transform="scale(0.13513513513513514)" fill="none" stroke="currentColor" paint-order="fill stroke markers" d="m1,146.4l121.6,0l0,5.9l-121.6,0l0,-5.9l0,0z" stroke-width="5" stroke-miterlimit="10" stroke-dasharray=""></path><path data-v-9833e8b2="" transform="scale(0.13513513513513514)" fill="none" stroke="currentColor" paint-order="fill stroke markers" d="m61.8,159.5c4.9,0 8.9,4 8.9,8.9c0,4.9 -4,8.9 -8.9,8.9c-4.9,0 -8.9,-4 -8.9,-8.9c0,-4.9 4,-8.9 8.9,-8.9l0,0z" stroke-width="5" stroke-miterlimit="10" stroke-dasharray=""></path></g></svg>