<svg data-v-9833e8b2="" version="1.1" xmlns="http://www.w3.org/2000/svg" xmlns:xlink="http://www.w3.org/1999/xlink" width="27" height="25"><g data-v-9833e8b2=""><path data-v-9833e8b2="" transform="scale(0.1358695652173913)" fill="none" stroke="currentColor" paint-order="fill stroke markers" d="m65.3,1l91.1,0l0,16.1l-91.1,0l0,-16.1l0,0z" stroke-width="5" stroke-miterlimit="10" stroke-dasharray=""></path><path data-v-9833e8b2="" transform="scale(0.1358695652173913)" fill="none" stroke="currentColor" paint-order="fill stroke markers" d="m49.2,172.5l0,-13.4c-26.6,0 -48.2,-21.6 -48.2,-48.2l0,-24.2l37.5,0l0,21.4c0,4.4 3.6,8 8,8l2.7,0l0,-29.4l0,-16l0,-45.6l123.2,0l0,147.3l-123.2,0l0,0.1z" stroke-width="5" stroke-miterlimit="10" stroke-dasharray=""></path><path data-v-9833e8b2="" transform="scale(0.1358695652173913)" fill="none" stroke="currentColor" paint-order="fill stroke markers" d="m77,51.9l16.1,0l0,91.1l-16.1,0l0,-91.1l0,0z" stroke-width="5" stroke-miterlimit="10" stroke-dasharray=""></path><path data-v-9833e8b2="" transform="scale(0.1358695652173913)" fill="none" stroke="currentColor" paint-order="fill stroke markers" d="m103.8,51.9l16.1,0l0,91.1l-16.1,0l0,-91.1l0,0z" stroke-width="5" stroke-miterlimit="10" stroke-dasharray=""></path><path data-v-9833e8b2="" transform="scale(0.1358695652173913)" fill="none" stroke="currentColor" paint-order="fill stroke markers" d="m130.6,51.9l16.1,0l0,91.1l-16.1,0l0,-91.1l0,0z" stroke-width="5" stroke-miterlimit="10" stroke-dasharray=""></path><path data-v-9833e8b2="" transform="scale(0.1358695652173913)" fill="none" stroke="currentColor" paint-order="fill stroke markers" d="m43.9,161.8l133.9,0l0,21.4l-133.9,0l0,-21.4l0,0z" stroke-width="5" stroke-miterlimit="10" stroke-dasharray=""></path><path data-v-9833e8b2="" transform="scale(0.1358695652173913)" fill="none" stroke="currentColor" paint-order="fill stroke markers" d="m43.9,11.7l133.9,0l0,21.4l-133.9,0l0,-21.4l0,0z" stroke-width="5" stroke-miterlimit="10" stroke-dasharray=""></path></g></svg>