<svg data-v-9833e8b2="" version="1.1" xmlns="http://www.w3.org/2000/svg" xmlns:xlink="http://www.w3.org/1999/xlink" width="24.5" height="25"><g data-v-9833e8b2=""><path data-v-9833e8b2="" transform="scale(0.12437810945273632)" fill="none" stroke="currentColor" paint-order="fill stroke markers" d="m124.01593,1l-115.54326,0c-4.11134,0 -7.47268,3.36329 -7.47268,7.47268l0,151.27577c0,4.10939 3.36329,7.47268 7.47268,7.47268l115.54326,0c4.10939,0 7.47268,-3.36329 7.47268,-7.47268l0,-151.27577c0,-4.10939 -3.36329,-7.47268 -7.47268,-7.47268zm-75.74433,154.85586c0,0.28125 -0.22852,0.50781 -0.50781,0.50781l-19.38677,0c-0.28125,0 -0.50781,-0.22852 -0.50781,-0.50781l0,-7.85939c-0.00195,-0.2793 0.22656,-0.50781 0.50781,-0.50781l19.38677,0c0.2793,0 0.50781,0.22852 0.50781,0.50781l0,7.85939zm28.1739,0c0,0.28125 -0.22852,0.50781 -0.50781,0.50781l-19.38872,0c-0.2793,0 -0.50781,-0.22852 -0.50781,-0.50781l0,-7.85939c0,-0.2793 0.22852,-0.50781 0.50781,-0.50781l19.38872,0c0.2793,0 0.50781,0.22852 0.50781,0.50781l0,7.85939zm28.17195,0c0,0.28125 -0.22852,0.50781 -0.50781,0.50781l-19.38677,0c-0.2793,0 -0.50781,-0.22852 -0.50781,-0.50781l0,-7.85939c0,-0.2793 0.22852,-0.50781 0.50781,-0.50781l19.38677,0c0.28125,0 0.50781,0.22852 0.50781,0.50781l0,7.85939zm-38.37314,-16.65434c-21.84771,0 -39.55869,-17.71098 -39.55869,-39.55674c0,-21.84771 17.71098,-39.55869 39.55869,-39.55869c21.84576,0 39.55674,17.71098 39.55674,39.55869c0,21.84576 -17.71098,39.55674 -39.55674,39.55674zm49.42591,-92.47094c0,1.35352 -1.10742,2.46094 -2.46094,2.46094l-93.92992,0c-1.35352,0 -2.46094,-1.10742 -2.46094,-2.46094l0,-27.45124c-0.00195,-1.35352 1.10547,-2.4629 2.46094,-2.4629l93.92992,0c1.35352,0 2.46094,1.10938 2.46094,2.4629l0,27.45124zm-79.53926,39.94151l43.08214,43.08605c-3.97853,1.7168 -8.3633,2.66798 -12.97074,2.66798c-18.10551,0 -32.78133,-14.67582 -32.78133,-32.78133c0,-4.60939 0.95313,-8.99416 2.66993,-12.97269zm12.793,-14.86332l45.15441,45.15441a32.98446,32.98446 0 0 1 -10.5176,10.5176l-45.15246,-45.15636a32.95282,32.95282 0 0 1 10.51565,-10.51565zm50.10169,27.83601c0,4.60743 -0.95313,8.99221 -2.66993,12.97074l-43.08409,-43.08409c3.97853,-1.7168 8.36526,-2.66993 12.97269,-2.66993c18.10356,0 32.78133,14.67582 32.78133,32.78329zm-50.10169,-27.83601l45.15441,45.15441a32.98446,32.98446 0 0 1 -10.5176,10.5176l-45.15246,-45.15636a32.95282,32.95282 0 0 1 10.51565,-10.51565zm-12.793,14.86332l43.08214,43.08605c-3.97853,1.7168 -8.3633,2.66798 -12.97074,2.66798c-18.10551,0 -32.78133,-14.67582 -32.78133,-32.78133c0,-4.60939 0.95313,-8.99416 2.66993,-12.97269zm62.89469,12.97269c0,4.60743 -0.95313,8.99221 -2.66993,12.97074l-43.08409,-43.08409c3.97853,-1.7168 8.36526,-2.66993 12.97269,-2.66993c18.10356,0 32.78133,14.67582 32.78133,32.78329zm60.73257,-27.97663l-16.31059,0l0,34.04696l16.31059,0l0,-34.04696zm-6.34377,-37.82627l-3.6211,0l-4.00978,33.85751l11.64065,0l-4.00978,-33.85751zm12.76956,37.82627l0,34.04696l16.31059,0l0,-34.04696l-16.31059,0zm9.96682,-37.82627l-3.6211,0l-4.00978,33.85751l11.64065,0l-4.00978,-33.85751zm-100.85768,138.47691l0,10.44143c-0.04492,1.45508 0,2.79884 0.12695,4.03907l10.58401,0c-0.29688,-1.00977 -0.4375,-2.32618 -0.4375,-4.05274l0,-10.42776l-10.27346,0zm93.91039,5.25587c0,3.25001 -0.18359,7.959 -2.9629,10.22464c-2.04883,1.66797 -5.04884,2.13477 -7.97072,2.25196c-1.25,3.48243 -3.32813,6.59767 -6.70119,9.01565a18.80806,18.80806 0 0 1 -2.04883,1.27539l3.95118,0c6.6797,0 13.75394,-0.13086 19.23247,-4.59571c5.45509,-4.44728 6.77541,-11.43753 6.77541,-18.12309l0,-67.2404l-10.27542,0l0,67.19158zm-12.46097,-67.19158l0,67.40642c0,9.34963 -2.07032,15.03129 -7.07814,18.62309c-5.62306,4.02931 -13.98832,3.93165 -20.58794,3.93165l-60.86929,0c-12.77933,0.3125 -21.20123,-2.93165 -21.0274,-17.57231l0,-10.45315l10.27542,0l0,10.35549c0,8.10744 3.92384,7.39455 10.93753,7.39455l60.94351,0c3.87306,0 11.04886,0.35742 14.34574,-2.00586c1.96875,-1.41211 2.78516,-4.56056 2.78516,-10.27346l0,-67.40642l10.27542,0zm-94.05102,-88.31077l-7.13478,0c-2.55469,0 -4.64845,2.09376 -4.64845,4.64845l0,12.57034c0,2.54688 2.09961,4.64845 4.64845,4.64845l7.13478,0c2.55665,0 4.64845,-2.09376 4.64845,-4.64845l0,-12.57034c0,-2.56055 -2.0879,-4.64845 -4.64845,-4.64845zm-0.42188,16.79692l-6.29103,0l0,-11.72659l6.29103,0l0,11.72659zm6.50197,0.75977l4.3086,0l0,4.31056l-4.3086,0l0,-4.31056zm17.5059,-17.55668l-7.13478,0c-2.55274,0 -4.64845,2.09376 -4.64845,4.64845l0,12.57034c0,2.54688 2.09961,4.64845 4.64845,4.64845l7.13478,0c2.55469,0 4.64845,-2.09376 4.64845,-4.64845l0,-12.57034c0,-2.56055 -2.0879,-4.64845 -4.64845,-4.64845zm-0.42188,16.79692l-6.29103,0l0,-11.72659l6.29103,0l0,11.72659zm20.00786,-16.79692l-7.13478,0c-2.55469,0 -4.64845,2.09376 -4.64845,4.64845l0,12.57034c0,2.54688 2.10157,4.64845 4.64845,4.64845l7.13478,0c2.55469,0 4.64845,-2.09376 4.64845,-4.64845l0,-12.57034c0,-2.56055 -2.08594,-4.64845 -4.64845,-4.64845zm-0.42188,16.79692l-6.28908,0l0,-11.72659l6.28908,0l0,11.72659zm0.42188,-16.79692l-7.13478,0c-2.55469,0 -4.64845,2.09376 -4.64845,4.64845l0,12.57034c0,2.54688 2.10157,4.64845 4.64845,4.64845l7.13478,0c2.55469,0 4.64845,-2.09376 4.64845,-4.64845l0,-12.57034c0,-2.56055 -2.08594,-4.64845 -4.64845,-4.64845zm-0.42188,16.79692l-6.28908,0l0,-11.72659l6.28908,0l0,11.72659zm-19.16411,-16.79692l-7.13478,0c-2.55274,0 -4.64845,2.09376 -4.64845,4.64845l0,12.57034c0,2.54688 2.09961,4.64845 4.64845,4.64845l7.13478,0c2.55469,0 4.64845,-2.09376 4.64845,-4.64845l0,-12.57034c0,-2.56055 -2.0879,-4.64845 -4.64845,-4.64845zm-0.42188,16.79692l-6.29103,0l0,-11.72659l6.29103,0l0,11.72659zm-23.16412,-16.79692l-7.13478,0c-2.55469,0 -4.64845,2.09376 -4.64845,4.64845l0,12.57034c0,2.54688 2.09961,4.64845 4.64845,4.64845l7.13478,0c2.55665,0 4.64845,-2.09376 4.64845,-4.64845l0,-12.57034c0,-2.56055 -2.0879,-4.64845 -4.64845,-4.64845zm-0.42188,16.79692l-6.29103,0l0,-11.72659l6.29103,0l0,11.72659zm6.50197,0.75977l4.3086,0l0,4.31056l-4.3086,0l0,-4.31056z" stroke-width="5" stroke-miterlimit="10" stroke-dasharray=""></path></g></svg>