<svg data-v-9833e8b2="" version="1.1" xmlns="http://www.w3.org/2000/svg" xmlns:xlink="http://www.w3.org/1999/xlink" width="19.5" height="25"><g data-v-9833e8b2=""><path data-v-9833e8b2="" transform="scale(0.1282051282051282)" fill="none" stroke="currentColor" paint-order="fill stroke markers" d="m1,138.72865a2.70944,2.70944 0 0 1 2.64152,-2.64152l0.17358,0a2.64152,2.64152 0 0 1 2.64152,2.64152l0,31.68687a2.64152,2.64152 0 0 1 -2.64152,2.64152l-0.17358,0a2.70944,2.70944 0 0 1 -2.64152,-2.64152l0,-31.68687z" stroke-width="5" stroke-miterlimit="10" stroke-dasharray=""></path><path data-v-9833e8b2="" transform="scale(0.1282051282051282)" fill="none" stroke="currentColor" paint-order="fill stroke markers" d="m6.41511,167.65325l0,-3.25661l23.41138,0l0,3.25661l-23.41138,0z" stroke-width="5" stroke-miterlimit="10" stroke-dasharray=""></path><path data-v-9833e8b2="" transform="scale(0.1282051282051282)" fill="none" stroke="currentColor" paint-order="fill stroke markers" d="m6.40379,144.33621l0,-3.25661l23.41515,0l0,3.25661l-23.41515,0z" stroke-width="5" stroke-miterlimit="10" stroke-dasharray=""></path><path data-v-9833e8b2="" transform="scale(0.1282051282051282)" fill="none" stroke="currentColor" paint-order="fill stroke markers" d="m6.46794,164.34381l0,-10.03776l23.41138,0l0,10.03776l-23.41138,0z" stroke-width="5" stroke-miterlimit="10" stroke-dasharray=""></path><path data-v-9833e8b2="" transform="scale(0.1282051282051282)" fill="none" stroke="currentColor" paint-order="fill stroke markers" d="m6.44152,154.32491l0,-10.03776l23.41138,0l0,10.03776l-23.41138,0z" stroke-width="5" stroke-miterlimit="10" stroke-dasharray=""></path><path data-v-9833e8b2="" transform="scale(0.1282051282051282)" fill="none" stroke="currentColor" paint-order="fill stroke markers" d="m131.19655,138.72865a2.70944,2.70944 0 0 0 -2.64152,-2.64152l-0.17358,0a2.64152,2.64152 0 0 0 -2.64152,2.64152l0,31.68687a2.64152,2.64152 0 0 0 2.64152,2.64152l0.17736,0a2.70944,2.70944 0 0 0 2.64152,-2.64152l0,-31.68687l-0.00377,0z" stroke-width="5" stroke-miterlimit="10" stroke-dasharray=""></path><path data-v-9833e8b2="" transform="scale(0.1282051282051282)" fill="none" stroke="currentColor" paint-order="fill stroke markers" d="m125.78522,167.65325l0,-3.25661l-23.41515,0l0,3.25661l23.41515,0z" stroke-width="5" stroke-miterlimit="10" stroke-dasharray=""></path><path data-v-9833e8b2="" transform="scale(0.1282051282051282)" fill="none" stroke="currentColor" paint-order="fill stroke markers" d="m125.79277,144.33621l0,-3.25661l-23.41138,0l0,3.25661l23.41138,0z" stroke-width="5" stroke-miterlimit="10" stroke-dasharray=""></path><path data-v-9833e8b2="" transform="scale(0.1282051282051282)" fill="none" stroke="currentColor" paint-order="fill stroke markers" d="m125.73239,164.34381l0,-10.03776l-23.41515,0l0,10.03776l23.41515,0z" stroke-width="5" stroke-miterlimit="10" stroke-dasharray=""></path><path data-v-9833e8b2="" transform="scale(0.1282051282051282)" fill="none" stroke="currentColor" paint-order="fill stroke markers" d="m125.7588,154.32491l0,-10.03776l-23.41515,0l0,10.03776l23.41515,0z" stroke-width="5" stroke-miterlimit="10" stroke-dasharray=""></path><path data-v-9833e8b2="" transform="scale(0.1282051282051282)" fill="none" stroke="currentColor" paint-order="fill stroke markers" d="m46.06804,129.59655l0,-22.53213l2.50567,0l0,22.53213l-2.50567,0z" stroke-width="5" stroke-miterlimit="10" stroke-dasharray=""></path><path data-v-9833e8b2="" transform="scale(0.1282051282051282)" fill="none" stroke="currentColor" paint-order="fill stroke markers" d="m83.62662,129.59655l0,-22.53213l2.50189,0l0,22.53213l-2.50189,0z" stroke-width="5" stroke-miterlimit="10" stroke-dasharray=""></path><path data-v-9833e8b2="" transform="scale(0.1282051282051282)" fill="none" stroke="currentColor" paint-order="fill stroke markers" d="m48.56993,129.59655l0,-22.53213l17.52835,0l0,22.53213l-17.52835,0z" stroke-width="5" stroke-miterlimit="10" stroke-dasharray=""></path><path data-v-9833e8b2="" transform="scale(0.1282051282051282)" fill="none" stroke="currentColor" paint-order="fill stroke markers" d="m66.09828,129.59655l0,-22.53213l17.52835,0l0,22.53213l-17.52835,0z" stroke-width="5" stroke-miterlimit="10" stroke-dasharray=""></path><path data-v-9833e8b2="" transform="scale(0.1282051282051282)" fill="none" stroke="currentColor" paint-order="fill stroke markers" d="m36.52084,186.41179l0,-23.41515l8.01134,0l0,23.41515l-8.01134,0z" stroke-width="5" stroke-miterlimit="10" stroke-dasharray=""></path><path data-v-9833e8b2="" transform="scale(0.1282051282051282)" fill="none" stroke="currentColor" paint-order="fill stroke markers" d="m88.20399,186.41179l0,-23.41515l8.00757,0l0,23.41515l-8.00757,0z" stroke-width="5" stroke-miterlimit="10" stroke-dasharray=""></path><path data-v-9833e8b2="" transform="scale(0.1282051282051282)" fill="none" stroke="currentColor" paint-order="fill stroke markers" d="m43.87935,186.41179l0,-23.41515l22.53213,0l0,23.41515l-22.53213,0z" stroke-width="5" stroke-miterlimit="10" stroke-dasharray=""></path><path data-v-9833e8b2="" transform="scale(0.1282051282051282)" fill="none" stroke="currentColor" paint-order="fill stroke markers" d="m66.41148,186.41179l0,-23.41515l22.53591,0l0,23.41515l-22.53591,0z" stroke-width="5" stroke-miterlimit="10" stroke-dasharray=""></path><path data-v-9833e8b2="" transform="scale(0.1282051282051282)" fill="none" stroke="currentColor" paint-order="fill stroke markers" d="m23.5359,184.67971l85.12852,0c2.76605,0 5.00756,2.24152 5.00756,5.00756l0,5.00756l-95.14363,0l0,-5.00756c0,-2.76604 2.24151,-5.00756 5.00756,-5.00756z" stroke-width="5" stroke-miterlimit="10" stroke-dasharray=""></path><path data-v-9833e8b2="" transform="scale(0.1282051282051282)" fill="none" stroke="currentColor" paint-order="fill stroke markers" d="m106.29838,135.9777l0,33.66046c0,4.52831 -3.55473,8.20757 -7.93587,8.20757l-64.25299,0c-4.38114,0 -7.93587,-3.67548 -7.93587,-8.21134l0,-33.65669c0,-2.17736 0.83774,-4.26416 2.32454,-5.80379a7.80002,7.80002 0 0 1 5.61133,-2.40378l64.25299,0c4.38114,0 7.93587,3.67548 7.93587,8.20757z" stroke-width="5" stroke-miterlimit="10" stroke-dasharray=""></path><path data-v-9833e8b2="" transform="scale(0.1282051282051282)" fill="none" stroke="currentColor" paint-order="fill stroke markers" d="m26.50572,170.33627l0,-35.05669c0,-4.15095 3.36605,-7.50945 7.51323,-7.50945l12.52079,0l0,50.0756l-12.52079,0a7.50945,7.50945 0 0 1 -7.50945,-7.50945l-0.00377,0z" stroke-width="5" stroke-miterlimit="10" stroke-dasharray=""></path><path data-v-9833e8b2="" transform="scale(0.1282051282051282)" fill="none" stroke="currentColor" paint-order="fill stroke markers" d="m46.32087,177.84573l0,-50.0756l20.03401,0l0,50.0756l-20.03401,0z" stroke-width="5" stroke-miterlimit="10" stroke-dasharray=""></path><path data-v-9833e8b2="" transform="scale(0.1282051282051282)" fill="none" stroke="currentColor" paint-order="fill stroke markers" d="m84.89832,1a17.66042,17.66042 0 0 1 17.60382,17.60004l0,16.72457a17.66042,17.66042 0 0 1 -17.60382,17.60382l-38.55481,0a17.66042,17.66042 0 0 1 -17.60759,-17.60382l0,-16.72457a17.66042,17.66042 0 0 1 17.60759,-17.60004l38.55481,0z" stroke-width="5" stroke-miterlimit="10" stroke-dasharray=""></path><path data-v-9833e8b2="" transform="scale(0.1282051282051282)" fill="none" stroke="currentColor" paint-order="fill stroke markers" d="m84.89832,1a17.66042,17.66042 0 0 1 17.60382,17.60004l0,16.72457a17.66042,17.66042 0 0 1 -17.60382,17.60382l-8.23021,0a17.66042,17.66042 0 0 1 -17.60759,-17.60382l0,-16.72457a17.66042,17.66042 0 0 1 17.60759,-17.60004l8.22644,0l0.00377,0z" stroke-width="5" stroke-miterlimit="10" stroke-dasharray=""></path><path data-v-9833e8b2="" transform="scale(0.1282051282051282)" fill="none" stroke="currentColor" paint-order="fill stroke markers" d="m53.4756,52.97749l0,-51.93598l26.5812,0l0,51.93598l-26.5812,0z" stroke-width="5" stroke-miterlimit="10" stroke-dasharray=""></path><path data-v-9833e8b2="" transform="scale(0.1282051282051282)" fill="none" stroke="currentColor" paint-order="fill stroke markers" d="m28.82648,108.60782l0,-77.01906l5.1019,0l0,77.01906l-5.1019,0z" stroke-width="5" stroke-miterlimit="10" stroke-dasharray=""></path><path data-v-9833e8b2="" transform="scale(0.1282051282051282)" fill="none" stroke="currentColor" paint-order="fill stroke markers" d="m33.84159,108.60782l0,-77.01906l5.10567,0l0,77.01906l-5.10567,0z" stroke-width="5" stroke-miterlimit="10" stroke-dasharray=""></path><path data-v-9833e8b2="" transform="scale(0.1282051282051282)" fill="none" stroke="currentColor" paint-order="fill stroke markers" d="m38.94726,108.60782l0,-77.01906l5.10567,0l0,77.01906l-5.10567,0z" stroke-width="5" stroke-miterlimit="10" stroke-dasharray=""></path><path data-v-9833e8b2="" transform="scale(0.1282051282051282)" fill="none" stroke="currentColor" paint-order="fill stroke markers" d="m43.96614,108.60782l0,-77.01906l5.10567,0l0,77.01906l-5.10567,0z" stroke-width="5" stroke-miterlimit="10" stroke-dasharray=""></path><path data-v-9833e8b2="" transform="scale(0.1282051282051282)" fill="none" stroke="currentColor" paint-order="fill stroke markers" d="m49.07182,108.60782l0,-77.01906l5.10567,0l0,77.01906l-5.10567,0z" stroke-width="5" stroke-miterlimit="10" stroke-dasharray=""></path><path data-v-9833e8b2="" transform="scale(0.1282051282051282)" fill="none" stroke="currentColor" paint-order="fill stroke markers" d="m54.08692,108.60782l0,-77.01906l5.10567,0l0,77.01906l-5.10567,0z" stroke-width="5" stroke-miterlimit="10" stroke-dasharray=""></path><path data-v-9833e8b2="" transform="scale(0.1282051282051282)" fill="none" stroke="currentColor" paint-order="fill stroke markers" d="m59.1926,108.60782l0,-77.01906l5.10567,0l0,77.01906l-5.10567,0z" stroke-width="5" stroke-miterlimit="10" stroke-dasharray=""></path><path data-v-9833e8b2="" transform="scale(0.1282051282051282)" fill="none" stroke="currentColor" paint-order="fill stroke markers" d="m64.38884,108.60782l0,-77.01906l5.10567,0l0,77.01906l-5.10567,0z" stroke-width="5" stroke-miterlimit="10" stroke-dasharray=""></path><path data-v-9833e8b2="" transform="scale(0.1282051282051282)" fill="none" stroke="currentColor" paint-order="fill stroke markers" d="m69.49451,108.60782l0,-77.01906l5.1019,0l0,77.01906l-5.1019,0z" stroke-width="5" stroke-miterlimit="10" stroke-dasharray=""></path><path data-v-9833e8b2="" transform="scale(0.1282051282051282)" fill="none" stroke="currentColor" paint-order="fill stroke markers" d="m74.24547,108.60782l0,-77.01906l5.10567,0l0,77.01906l-5.10567,0z" stroke-width="5" stroke-miterlimit="10" stroke-dasharray=""></path><path data-v-9833e8b2="" transform="scale(0.1282051282051282)" fill="none" stroke="currentColor" paint-order="fill stroke markers" d="m79.00019,108.60782l0,-77.01906l5.81133,0l0,77.01906l-5.81133,0z" stroke-width="5" stroke-miterlimit="10" stroke-dasharray=""></path><path data-v-9833e8b2="" transform="scale(0.1282051282051282)" fill="none" stroke="currentColor" paint-order="fill stroke markers" d="m84.80776,108.60782l0,-77.01906l5.10567,0l0,77.01906l-5.10567,0z" stroke-width="5" stroke-miterlimit="10" stroke-dasharray=""></path><path data-v-9833e8b2="" transform="scale(0.1282051282051282)" fill="none" stroke="currentColor" paint-order="fill stroke markers" d="m89.91343,108.60782l0,-77.01906l5.10567,0l0,77.01906l-5.10567,0z" stroke-width="5" stroke-miterlimit="10" stroke-dasharray=""></path><path data-v-9833e8b2="" transform="scale(0.1282051282051282)" fill="none" stroke="currentColor" paint-order="fill stroke markers" d="m94.93231,108.60782l0,-77.01906l5.10567,0l0,77.01906l-5.10567,0z" stroke-width="5" stroke-miterlimit="10" stroke-dasharray=""></path><path data-v-9833e8b2="" transform="scale(0.1282051282051282)" fill="none" stroke="currentColor" paint-order="fill stroke markers" d="m100.03798,108.60782l0,-77.01906l5.10567,0l0,77.01906l-5.10567,0z" stroke-width="5" stroke-miterlimit="10" stroke-dasharray=""></path><path data-v-9833e8b2="" transform="scale(0.1282051282051282)" fill="none" stroke="currentColor" paint-order="fill stroke markers" d="m106.47574,108.60782c1.33208,0 2.4151,1.18113 2.4151,2.64152l0,3.3019c0,1.45661 -1.08302,2.64152 -2.4151,2.64152l-80.30209,0c-1.32076,-0.03774 -2.37736,-1.2 -2.4151,-2.64152l0,-3.34718c0,-1.45661 1.08302,-2.64152 2.4151,-2.64152l80.30209,0.04528z" stroke-width="5" stroke-miterlimit="10" stroke-dasharray=""></path><path data-v-9833e8b2="" transform="scale(0.1282051282051282)" fill="none" stroke="currentColor" paint-order="fill stroke markers" d="m106.47574,108.60782c1.33208,0 2.4151,1.18113 2.4151,2.64152l0,3.3019c0,1.45661 -1.08302,2.64152 -2.4151,2.64152l-80.30209,0c-1.32076,-0.03774 -2.37736,-1.2 -2.4151,-2.64152l0,-3.34718c0,-1.45661 1.08302,-2.64152 2.4151,-2.64152l80.30209,0.04528z" stroke-width="5" stroke-miterlimit="10" stroke-dasharray=""></path><path data-v-9833e8b2="" transform="scale(0.1282051282051282)" fill="none" stroke="currentColor" paint-order="fill stroke markers" d="m104.26064,27.18497a2.64152,2.64152 0 0 1 2.64152,2.64152l0,0.70566a2.64152,2.64152 0 0 1 -2.64152,2.64152l-76.75491,0a2.64152,2.64152 0 0 1 -2.64152,-2.64152l0,-0.70566a2.64152,2.64152 0 0 1 2.64152,-2.64152l76.75491,0z" stroke-width="5" stroke-miterlimit="10" stroke-dasharray=""></path><path data-v-9833e8b2="" transform="scale(0.1282051282051282)" fill="none" stroke="currentColor" paint-order="fill stroke markers" d="m104.26064,27.18497a2.64152,2.64152 0 0 1 2.64152,2.64152l0,0.70566a2.64152,2.64152 0 0 1 -2.64152,2.64152l-76.75491,0a2.64152,2.64152 0 0 1 -2.64152,-2.64152l0,-0.70566a2.64152,2.64152 0 0 1 2.64152,-2.64152l76.75491,0z" stroke-width="5" stroke-miterlimit="10" stroke-dasharray=""></path><path data-v-9833e8b2="" transform="scale(0.1282051282051282)" fill="none" stroke="currentColor" paint-order="fill stroke markers" d="m44.2303,1a7.41134,7.41134 0 0 0 6.77737,4.40001l28.95856,0a7.60379,7.60379 0 0 0 6.78115,-4.40001l-42.51709,0z" stroke-width="5" stroke-miterlimit="10" stroke-dasharray=""></path></g></svg>