<svg data-v-9833e8b2="" version="1.1" xmlns="http://www.w3.org/2000/svg" xmlns:xlink="http://www.w3.org/1999/xlink" width="19.5" height="25"><g data-v-9833e8b2=""><path data-v-9833e8b2="" transform="scale(0.125)" fill="none" stroke="currentColor" paint-order="fill stroke markers" d="m66.52087,58.11264c-16.94223,0 -30.72547,13.78324 -30.72547,30.72547c0,16.94184 13.78324,30.72469 30.72547,30.72469c16.94145,0 30.72469,-13.78285 30.72469,-30.72469c0,-16.94262 -13.78324,-30.72547 -30.72469,-30.72547z" stroke-width="5" stroke-miterlimit="10" stroke-dasharray=""></path><path data-v-9833e8b2="" transform="scale(0.125)" fill="none" stroke="currentColor" paint-order="fill stroke markers" d="m126.83079,15.06254l9.76565,0l0,-14.06254l-34.37509,0l0,14.06254l8.9844,0l0,33.97274c-10.5469,-12.43245 -26.92936,-20.27232 -44.83839,-20.27232c-33.1786,0 -59.9982,26.89616 -59.9982,60.07476c0,19.92778 9.74417,37.58642 24.68366,48.51458l-30.05281,62.47633l129.00423,0l-29.57234,-61.39976c15.79731,-10.82386 26.16374,-29.01062 26.16374,-49.60637c0,-0.75703 -0.01875,-1.49414 -0.04648,-2.2754l0.28164,0l0,-71.48455zm-60.30992,118.24795c-24.52233,0 -44.47277,-19.95044 -44.47277,-44.47277c0,-24.52233 19.95044,-44.47277 44.47277,-44.47277c24.52194,0 44.47238,19.95044 44.47238,44.47277c0,24.52233 -19.95044,44.47277 -44.47238,44.47277z" stroke-width="5" stroke-miterlimit="10" stroke-dasharray=""></path></g></svg>