<svg data-v-9833e8b2="" version="1.1" xmlns="http://www.w3.org/2000/svg" xmlns:xlink="http://www.w3.org/1999/xlink" width="25" height="20"><g data-v-9833e8b2=""><path data-v-9833e8b2="" transform="scale(0.13368983957219252)" fill="none" stroke="currentColor" paint-order="fill stroke markers" d="m126.6,46.7003c2.1,0 4.2,0.2 6.3,0.4c-5.7,-26.5 -34,-46.1 -66.2,-46.1c-36.1,-0.1 -65.7,24.5 -65.7,55.8c0,18 9.8,32.8 26.3,44.3l-6.5,19.8l23,-11.5c8.2,1.6 14.8,3.3 23,3.3c2.1,0 4.1,-0.1 6.1,-0.2c-1.3,-4.4 -2,-9 -2,-13.8c-0.1,-28.8 24.5,-52 55.7,-52z" stroke-width="5" stroke-miterlimit="10" stroke-dasharray=""></path><path data-v-9833e8b2="" transform="scale(0.13368983957219252)" fill="none" stroke="currentColor" paint-order="fill stroke markers" d="m91.3,28.9003c5,0 8.2,3.3 8.2,8.2c0,4.9 -3.3,8.2 -8.2,8.2c-4.9,0 -9.8,-3.3 -9.8,-8.2c0,-5 4.9,-8.2 9.8,-8.2z" stroke-width="5" stroke-miterlimit="10" stroke-dasharray=""></path><path data-v-9833e8b2="" transform="scale(0.13368983957219252)" fill="none" stroke="currentColor" paint-order="fill stroke markers" d="m45.4,45.3003c-4.9,0 -9.9,-3.3 -9.9,-8.2c0,-4.9 5,-8.2 9.9,-8.2s8.2,3.2 8.2,8.2c0,4.9 -3.3,8.2 -8.2,8.2z" stroke-width="5" stroke-miterlimit="10" stroke-dasharray=""></path><path data-v-9833e8b2="" transform="scale(0.13368983957219252)" fill="none" stroke="currentColor" paint-order="fill stroke markers" d="m186.6,97.8003c0,-26.2 -26.3,-47.6 -55.8,-47.6c-31.2,0 -55.8,21.4 -55.8,47.6c0,26.3 24.6,47.6 55.8,47.6c6.5,0 13.1,-1.6 19.7,-3.3l18,9.9l-4.9,-16.4c13.1,-9.8 23,-23 23,-37.8z" stroke-width="5" stroke-miterlimit="10" stroke-dasharray=""></path><path data-v-9833e8b2="" transform="scale(0.13368983957219252)" fill="none" stroke="currentColor" paint-order="fill stroke markers" d="m112.7,89.6003c-3.3,0 -6.6,-3.2 -6.6,-6.6c0,-3.3 3.3,-6.6 6.6,-6.6c5,0 8.2,3.3 8.2,6.6c0,3.4 -3.3,6.6 -8.2,6.6z" stroke-width="5" stroke-miterlimit="10" stroke-dasharray=""></path><path data-v-9833e8b2="" transform="scale(0.13368983957219252)" fill="none" stroke="currentColor" paint-order="fill stroke markers" d="m148.8,89.6003c-3.2,0 -6.5,-3.2 -6.5,-6.6c0,-3.3 3.3,-6.6 6.5,-6.6c4.9,0 8.2,3.3 8.2,6.6c0,3.4 -3.3,6.6 -8.2,6.6z" stroke-width="5" stroke-miterlimit="10" stroke-dasharray=""></path></g></svg>