<svg data-v-9833e8b2="" version="1.1" xmlns="http://www.w3.org/2000/svg" xmlns:xlink="http://www.w3.org/1999/xlink" width="14.5" height="25"><g data-v-9833e8b2=""><path data-v-9833e8b2="" transform="scale(0.13157894736842105)" fill="none" stroke="currentColor" paint-order="fill stroke markers" d="m26.5,1l49.1,0c10,0 18.2,8.1 18.2,18.2l0,96.4l-85.5,0l0,-96.4c0,-10 8.1,-18.2 18.2,-18.2l0,0z" stroke-width="5" stroke-miterlimit="10" stroke-dasharray=""></path><path data-v-9833e8b2="" transform="scale(0.13157894736842105)" fill="none" stroke="currentColor" paint-order="fill stroke markers" d="m17.4,33.7l1.8,0l0,74.5l-1.8,0l0,-74.5l0,0z" stroke-width="5" stroke-miterlimit="10" stroke-dasharray=""></path><path data-v-9833e8b2="" transform="scale(0.13157894736842105)" fill="none" stroke="currentColor" paint-order="fill stroke markers" d="m28.3,33.7l1.8,0l0,74.5l-1.8,0l0,-74.5l0,0z" stroke-width="5" stroke-miterlimit="10" stroke-dasharray=""></path><path data-v-9833e8b2="" transform="scale(0.13157894736842105)" fill="none" stroke="currentColor" paint-order="fill stroke markers" d="m39.2,33.7l1.8,0l0,74.5l-1.8,0l0,-74.5l0,0z" stroke-width="5" stroke-miterlimit="10" stroke-dasharray=""></path><path data-v-9833e8b2="" transform="scale(0.13157894736842105)" fill="none" stroke="currentColor" paint-order="fill stroke markers" d="m50.1,33.7l1.8,0l0,74.5l-1.8,0l0,-74.5l0,0z" stroke-width="5" stroke-miterlimit="10" stroke-dasharray=""></path><path data-v-9833e8b2="" transform="scale(0.13157894736842105)" fill="none" stroke="currentColor" paint-order="fill stroke markers" d="m61,33.7l1.8,0l0,74.5l-1.8,0l0,-74.5l0,0z" stroke-width="5" stroke-miterlimit="10" stroke-dasharray=""></path><path data-v-9833e8b2="" transform="scale(0.13157894736842105)" fill="none" stroke="currentColor" paint-order="fill stroke markers" d="m71.9,33.7l1.8,0l0,74.5l-1.8,0l0,-74.5l0,0z" stroke-width="5" stroke-miterlimit="10" stroke-dasharray=""></path><path data-v-9833e8b2="" transform="scale(0.13157894736842105)" fill="none" stroke="currentColor" paint-order="fill stroke markers" d="m82.8,33.7l1.8,0l0,74.5l-1.8,0l0,-74.5l0,0z" stroke-width="5" stroke-miterlimit="10" stroke-dasharray=""></path><path data-v-9833e8b2="" transform="scale(0.13157894736842105)" fill="none" stroke="currentColor" paint-order="fill stroke markers" d="m35.5,1l30.9,0l0,15.5l-30.9,0l0,-15.5l0,0z" stroke-width="5" stroke-miterlimit="10" stroke-dasharray=""></path><path data-v-9833e8b2="" transform="scale(0.13157894736842105)" fill="none" stroke="currentColor" paint-order="fill stroke markers" d="m31,113.7l40,0l0,10l-40,0l0,-10l0,0z" stroke-width="5" stroke-miterlimit="10" stroke-dasharray=""></path><path data-v-9833e8b2="" transform="scale(0.13157894736842105)" fill="none" stroke="currentColor" paint-order="fill stroke markers" d="m23.7,175.6l54.5,0l0,7.3l-54.5,0l0,-7.3l0,0z" stroke-width="5" stroke-miterlimit="10" stroke-dasharray=""></path><path data-v-9833e8b2="" transform="scale(0.13157894736842105)" fill="none" stroke="currentColor" paint-order="fill stroke markers" d="m11,180.1l80,0c3,0 5.5,2.4 5.5,5.5l0,3.6l-91,0l0,-3.6c0,-3.1 2.5,-5.5 5.5,-5.5l0,0z" stroke-width="5" stroke-miterlimit="10" stroke-dasharray=""></path><path data-v-9833e8b2="" transform="scale(0.13157894736842105)" fill="none" stroke="currentColor" paint-order="fill stroke markers" d="m2.8,131l13.6,0l0,34.6l-13.6,0l0,-34.6l0,0z" stroke-width="5" stroke-miterlimit="10" stroke-dasharray=""></path><path data-v-9833e8b2="" transform="scale(0.13157894736842105)" fill="none" stroke="currentColor" paint-order="fill stroke markers" d="m6.5,136.5l10,0l0,1.8l-10,0l0,-1.8l0,0z" stroke-width="5" stroke-miterlimit="10" stroke-dasharray=""></path><path data-v-9833e8b2="" transform="scale(0.13157894736842105)" fill="none" stroke="currentColor" paint-order="fill stroke markers" d="m6.5,141.9l10,0l0,1.8l-10,0l0,-1.8l0,0z" stroke-width="5" stroke-miterlimit="10" stroke-dasharray=""></path><path data-v-9833e8b2="" transform="scale(0.13157894736842105)" fill="none" stroke="currentColor" paint-order="fill stroke markers" d="m6.5,147.4l10,0l0,1.8l-10,0l0,-1.8l0,0z" stroke-width="5" stroke-miterlimit="10" stroke-dasharray=""></path><path data-v-9833e8b2="" transform="scale(0.13157894736842105)" fill="none" stroke="currentColor" paint-order="fill stroke markers" d="m6.5,152.8l10,0l0,1.8l-10,0l0,-1.8l0,0z" stroke-width="5" stroke-miterlimit="10" stroke-dasharray=""></path><path data-v-9833e8b2="" transform="scale(0.13157894736842105)" fill="none" stroke="currentColor" paint-order="fill stroke markers" d="m6.5,158.3l10,0l0,1.8l-10,0l0,-1.8l0,0z" stroke-width="5" stroke-miterlimit="10" stroke-dasharray=""></path><path data-v-9833e8b2="" transform="scale(0.13157894736842105)" fill="none" stroke="currentColor" paint-order="fill stroke markers" d="m85.5,131l13.6,0l0,34.6l-13.6,0l0,-34.6l0,0z" stroke-width="5" stroke-miterlimit="10" stroke-dasharray=""></path><path data-v-9833e8b2="" transform="scale(0.13157894736842105)" fill="none" stroke="currentColor" paint-order="fill stroke markers" d="m85.5,136.5l9.1,0l0,1.8l-9.1,0l0,-1.8l0,0z" stroke-width="5" stroke-miterlimit="10" stroke-dasharray=""></path><path data-v-9833e8b2="" transform="scale(0.13157894736842105)" fill="none" stroke="currentColor" paint-order="fill stroke markers" d="m85.5,141.9l9.1,0l0,1.8l-9.1,0l0,-1.8l0,0z" stroke-width="5" stroke-miterlimit="10" stroke-dasharray=""></path><path data-v-9833e8b2="" transform="scale(0.13157894736842105)" fill="none" stroke="currentColor" paint-order="fill stroke markers" d="m85.5,147.4l9.1,0l0,1.8l-9.1,0l0,-1.8l0,0z" stroke-width="5" stroke-miterlimit="10" stroke-dasharray=""></path><path data-v-9833e8b2="" transform="scale(0.13157894736842105)" fill="none" stroke="currentColor" paint-order="fill stroke markers" d="m85.5,152.8l9.1,0l0,1.8l-9.1,0l0,-1.8l0,0z" stroke-width="5" stroke-miterlimit="10" stroke-dasharray=""></path><path data-v-9833e8b2="" transform="scale(0.13157894736842105)" fill="none" stroke="currentColor" paint-order="fill stroke markers" d="m85.5,158.3l9.1,0l0,1.8l-9.1,0l0,-1.8l0,0z" stroke-width="5" stroke-miterlimit="10" stroke-dasharray=""></path><path data-v-9833e8b2="" transform="scale(0.13157894736842105)" fill="none" stroke="currentColor" paint-order="fill stroke markers" d="m96.5,129.2l1.8,0c1.5,0 2.7,1.2 2.7,2.7l0,32.7c0,1.5 -1.2,2.7 -2.7,2.7l-1.8,0c-1.5,0 -2.7,-1.2 -2.7,-2.7l0,-32.7c-0.1,-1.5 1.1,-2.7 2.7,-2.7l0,0z" stroke-width="5" stroke-miterlimit="10" stroke-dasharray=""></path><path data-v-9833e8b2="" transform="scale(0.13157894736842105)" fill="none" stroke="currentColor" paint-order="fill stroke markers" d="m3.7,129.2l1.8,0c1.5,0 2.7,1.2 2.7,2.7l0,32.7c0,1.5 -1.2,2.7 -2.7,2.7l-1.8,0c-1.5,0 -2.7,-1.2 -2.7,-2.7l0,-32.7c0,-1.5 1.2,-2.7 2.7,-2.7l0,0z" stroke-width="5" stroke-miterlimit="10" stroke-dasharray=""></path><path data-v-9833e8b2="" transform="scale(0.13157894736842105)" fill="none" stroke="currentColor" paint-order="fill stroke markers" d="m20.1,120.1l61.8,0c3,0 5.5,2.4 5.5,5.5l0,45.5c0,3 -2.4,5.5 -5.5,5.5l-61.8,0c-3,0 -5.5,-2.4 -5.5,-5.5l0,-45.5c0,-3.1 2.5,-5.5 5.5,-5.5l0,0z" stroke-width="5" stroke-miterlimit="10" stroke-dasharray=""></path><path data-v-9833e8b2="" transform="scale(0.13157894736842105)" fill="none" stroke="currentColor" paint-order="fill stroke markers" d="m7.4,106.5l87.3,0c2,0 3.6,1.6 3.6,3.6l0,1.8c0,2 -1.6,3.6 -3.6,3.6l-87.3,0c-2,0 -3.6,-1.6 -3.6,-3.6l0,-1.8c-0.1,-2 1.6,-3.6 3.6,-3.6l0,0z" stroke-width="5" stroke-miterlimit="10" stroke-dasharray=""></path><path data-v-9833e8b2="" transform="scale(0.13157894736842105)" fill="none" stroke="currentColor" paint-order="fill stroke markers" d="m7.4,28.3l87.3,0c2,0 3.6,1.6 3.6,3.6c0,2 -1.6,3.6 -3.6,3.6l-87.3,0c-2,0 -3.6,-1.6 -3.6,-3.6c-0.1,-2 1.6,-3.6 3.6,-3.6l0,0z" stroke-width="5" stroke-miterlimit="10" stroke-dasharray=""></path></g></svg>