<svg data-v-9833e8b2="" version="1.1" xmlns="http://www.w3.org/2000/svg" xmlns:xlink="http://www.w3.org/1999/xlink" width="25" height="22.5"><g data-v-9833e8b2=""><path data-v-9833e8b2="" transform="scale(0.14124293785310735)" fill="none" stroke="currentColor" paint-order="fill stroke markers" d="m132.25033,1c3.45177,0 6.25002,2.79825 6.25002,6.25002l0,25.2735l31.25008,0c3.45704,0 6.25002,2.79298 6.25002,6.25002l0,118.35967c0,3.45704 -2.79298,6.25002 -6.25002,6.25002l-162.50041,0c-3.45704,0 -6.25002,-2.79298 -6.25002,-6.25002l0,-118.35967c0,-3.45704 2.79298,-6.25002 6.25002,-6.25002l31.25008,0l0,-25.2735c0,-3.45177 2.79825,-6.25002 6.25002,-6.25002l87.50022,0zm29.68757,75.39081l-146.87537,0l0,72.85175l146.87537,0l0,-72.85175zm-68.75017,16.99223a1.5625,1.5625 0 0 1 1.5625,1.5625l0,11.71878l11.71878,0a1.5625,1.5625 0 0 1 1.5625,1.5625l0,9.37502a1.5625,1.5625 0 0 1 -1.5625,1.5625l-11.71878,0l0,11.71878a1.5625,1.5625 0 0 1 -1.5625,1.5625l-9.37502,0a1.5625,1.5625 0 0 1 -1.5625,-1.5625l0,-11.71878l-11.71878,0a1.5625,1.5625 0 0 1 -1.5625,-1.5625l0,-9.37502a1.5625,1.5625 0 0 1 1.5625,-1.5625l11.71878,0l0,-11.71878a1.5625,1.5625 0 0 1 1.5625,-1.5625l9.37502,0zm68.75017,-46.67981l-146.87537,0l0,17.18754l146.87537,0l0,-17.18754zm-37.50009,-31.6407l-71.87518,0l0,17.38286l71.87518,0l0,-17.38286z" stroke-width="5" stroke-miterlimit="10" stroke-dasharray=""></path></g></svg>