<svg data-v-9833e8b2="" version="1.1" xmlns="http://www.w3.org/2000/svg" xmlns:xlink="http://www.w3.org/1999/xlink" width="19.5" height="25"><g data-v-9833e8b2=""><path data-v-9833e8b2="" transform="scale(0.1358695652173913)" fill="none" stroke="currentColor" paint-order="fill stroke markers" d="m15.5,40.9l2.4,0c8,0 14.5,7.7 14.5,17.1l0,108.3c0,9.4 -6.5,17.1 -14.5,17.1l-2.4,0c-8,0 -14.5,-7.7 -14.5,-17.1l0,-108.3c0.1,-9.5 6.6,-17.1 14.5,-17.1l0,0z" stroke-width="5" stroke-miterlimit="10" stroke-dasharray=""></path><path data-v-9833e8b2="" transform="scale(0.1358695652173913)" fill="none" stroke="currentColor" paint-order="fill stroke markers" d="m63.8,1c4.7,0 8.6,3.8 8.6,8.6l0,37.1l-17.2,0l0,-37.2c0,-4.7 3.9,-8.5 8.6,-8.5l0,0z" stroke-width="5" stroke-miterlimit="10" stroke-dasharray=""></path><path data-v-9833e8b2="" transform="scale(0.1358695652173913)" fill="none" stroke="currentColor" paint-order="fill stroke markers" d="m49.5,40.9l59.9,0c9.4,0 17.1,7.7 17.1,17.1l0,108.3c0,9.4 -7.7,17.1 -17.1,17.1l-59.9,0c-9.4,0 -17.1,-7.7 -17.1,-17.1l0,-108.3c0,-9.5 7.7,-17.1 17.1,-17.1l0,0z" stroke-width="5" stroke-miterlimit="10" stroke-dasharray=""></path><path data-v-9833e8b2="" transform="scale(0.1358695652173913)" fill="none" stroke="currentColor" paint-order="fill stroke markers" d="m100.9,60.8c3.1,0 5.7,2.6 5.7,5.7l0,20c0,3.1 -2.6,5.7 -5.7,5.7c-3.1,0 -5.7,-2.6 -5.7,-5.7l0,-20c0,-3.1 2.5,-5.7 5.7,-5.7l0,0z" stroke-width="5" stroke-miterlimit="10" stroke-dasharray=""></path></g></svg>