<svg data-v-9833e8b2="" version="1.1" xmlns="http://www.w3.org/2000/svg" xmlns:xlink="http://www.w3.org/1999/xlink" width="24.5" height="25"><g data-v-9833e8b2=""><path data-v-9833e8b2="" transform="scale(0.1366120218579235)" fill="none" stroke="currentColor" paint-order="fill stroke markers" d="m46.8,48.5l0,0c-5,0 -9.1,-4.1 -9.1,-9.1l0,-29.3c0,-5 4.1,-9.1 9.1,-9.1l0,0c5,0 9.1,4.1 9.1,9.1l0,29.3c0,5 -4.1,9.1 -9.1,9.1z" stroke-width="5" stroke-miterlimit="10" stroke-dasharray=""></path><path data-v-9833e8b2="" transform="scale(0.1366120218579235)" fill="none" stroke="currentColor" paint-order="fill stroke markers" d="m23.4,33.4l126.6,0c12.3,0 22.4,10 22.4,22.4l0,104.3c0,12.3 -10,22.4 -22.4,22.4l-126.6,0c-12.3,0 -22.4,-10 -22.4,-22.4l0,-104.3c0,-12.4 10.1,-22.4 22.4,-22.4l0,0z" stroke-width="5" stroke-miterlimit="10" stroke-dasharray=""></path><path data-v-9833e8b2="" transform="scale(0.1366120218579235)" fill="none" stroke="currentColor" paint-order="fill stroke markers" d="m50.8,151.1l0,9.5c-10,-9.5 -16.2,-22.9 -16.2,-37.8s6.3,-28.3 16.2,-37.8l0,9.5c-6.1,7.8 -9.9,17.6 -9.9,28.3s3.8,20.5 9.9,28.3z" stroke-width="5" stroke-miterlimit="10" stroke-dasharray=""></path><path data-v-9833e8b2="" transform="scale(0.1366120218579235)" fill="none" stroke="currentColor" paint-order="fill stroke markers" d="m122.5,160.6l0,-9.5c6.1,-7.8 9.9,-17.6 9.9,-28.3s-3.7,-20.5 -9.9,-28.3l0,-9.5c10,9.5 16.2,22.9 16.2,37.8s-6.1,28.3 -16.2,37.8z" stroke-width="5" stroke-miterlimit="10" stroke-dasharray=""></path><path data-v-9833e8b2="" transform="scale(0.1366120218579235)" fill="none" stroke="currentColor" paint-order="fill stroke markers" d="m86.7,90.4c17.9,0 32.4,14.5 32.4,32.4s-14.5,32.4 -32.4,32.4s-32.4,-14.5 -32.4,-32.4s14.5,-32.4 32.4,-32.4l0,0z" stroke-width="5" stroke-miterlimit="10" stroke-dasharray=""></path><path data-v-9833e8b2="" transform="scale(0.1366120218579235)" fill="none" stroke="currentColor" paint-order="fill stroke markers" d="m105.4,55.8l-18.7,26.1l-18.7,-26.1l37.4,0l0,0z" stroke-width="5" stroke-miterlimit="10" stroke-dasharray=""></path></g></svg>