<svg data-v-9833e8b2="" version="1.1" xmlns="http://www.w3.org/2000/svg" xmlns:xlink="http://www.w3.org/1999/xlink" width="17" height="25"><g data-v-9833e8b2=""><path data-v-9833e8b2="" transform="scale(0.1388888888888889)" fill="none" stroke="currentColor" paint-order="fill stroke markers" d="m1,1l107.6,0l0,11.5l-107.6,0l0,-11.5l0,0z" stroke-width="5" stroke-miterlimit="10" stroke-dasharray=""></path><path data-v-9833e8b2="" transform="scale(0.1388888888888889)" fill="none" stroke="currentColor" paint-order="fill stroke markers" d="m1,18.3l107.6,0l0,11.5l-107.6,0l0,-11.5l0,0z" stroke-width="5" stroke-miterlimit="10" stroke-dasharray=""></path><path data-v-9833e8b2="" transform="scale(0.1388888888888889)" fill="none" stroke="currentColor" paint-order="fill stroke markers" d="m1,150.9l107.6,0l0,11.5l-107.6,0l0,-11.5l0,0z" stroke-width="5" stroke-miterlimit="10" stroke-dasharray=""></path><path data-v-9833e8b2="" transform="scale(0.1388888888888889)" fill="none" stroke="currentColor" paint-order="fill stroke markers" d="m1,168.2l107.6,0l0,11.5l-107.6,0l0,-11.5l0,0z" stroke-width="5" stroke-miterlimit="10" stroke-dasharray=""></path><path data-v-9833e8b2="" transform="scale(0.1388888888888889)" fill="none" stroke="currentColor" paint-order="fill stroke markers" d="m1,35.6l107.6,0l0,109.5l-107.6,0l0,-109.5l0,0z" stroke-width="5" stroke-miterlimit="10" stroke-dasharray=""></path></g></svg>