<svg data-v-9833e8b2="" version="1.1" xmlns="http://www.w3.org/2000/svg" xmlns:xlink="http://www.w3.org/1999/xlink" width="25" height="25"><g data-v-9833e8b2=""><path data-v-9833e8b2="" transform="scale(0.176056338028169)" fill="none" stroke="currentColor" paint-order="fill stroke markers" d="m71.30017,1a70.06684,70.06684 0 1 1 -0.46667,0l0.46667,0zm0,13.33337a57.13348,57.13348 0 1 0 57.13348,57.13348a57.13348,57.13348 0 0 0 -57.13348,-57.13348z" stroke-width="5" stroke-miterlimit="10" stroke-dasharray=""></path><path data-v-9833e8b2="" transform="scale(0.176056338028169)" fill="none" stroke="currentColor" paint-order="fill stroke markers" d="m65.10016,93.40023a25.7334,25.7334 0 0 0 6.26668,-22.20006a16.06671,16.06671 0 0 1 2.93334,21.73339a63.13349,63.13349 0 0 0 -10.06669,13.33337a18.40005,18.40005 0 0 0 0.4,13.33337a16.26671,16.26671 0 0 0 5.86668,-1.26667a25.40006,25.40006 0 0 0 17.20004,-30.66674a26.66673,26.66673 0 0 0 -16.33337,-16.46671a16.60004,16.60004 0 0 1 20.53338,8.40002a60.00015,60.00015 0 0 0 6.66668,15.13337a18.93338,18.93338 0 0 0 12.0667,6.66668a18.46671,18.46671 0 0 0 1.86667,-5.60001a25.5334,25.5334 0 0 0 -18.40005,-30.13341a26.66673,26.66673 0 0 0 -22.60006,5.73335a16.20004,16.20004 0 0 1 17.53338,-13.33337a66.66683,66.66683 0 0 0 16.66671,2.00001a20.40005,20.40005 0 0 0 11.6667,-7.06669a18.00005,18.00005 0 0 0 -4.00001,-4.40001a24.9334,24.9334 0 0 0 -41.86677,22.80006a16.06671,16.06671 0 0 1 -2.93334,-21.73339a68.00017,68.00017 0 0 0 10.06669,-13.33337a20.00005,20.00005 0 0 0 0,-13.33337a17.73338,17.73338 0 0 0 -5.93335,1.2a25.40006,25.40006 0 0 0 -17.13338,30.80008a25.9334,25.9334 0 0 0 16.26671,16.46671a16.46671,16.46671 0 0 1 -20.46672,-8.33335a65.80017,65.80017 0 0 0 -6.66668,-15.20004a20.00005,20.00005 0 0 0 -12.00003,-6.66668a15.4667,15.4667 0 0 0 -1.86667,5.60001a25.26673,25.26673 0 0 0 18.60005,30.06674a26.66673,26.66673 0 0 0 22.53339,-5.73335a16.33338,16.33338 0 0 1 -17.53338,13.33337a70.40018,70.40018 0 0 0 -16.66671,-2.06667a20.00005,20.00005 0 0 0 -11.6667,7.13335a17.86671,17.86671 0 0 0 4.00001,4.40001a25.9334,25.9334 0 0 0 35.60009,-0.66667l-0.6,0.06667z" stroke-width="5" stroke-miterlimit="10" stroke-dasharray=""></path></g></svg>