<svg data-v-9833e8b2="" version="1.1" xmlns="http://www.w3.org/2000/svg" xmlns:xlink="http://www.w3.org/1999/xlink" width="19.5" height="25"><g data-v-9833e8b2=""><path data-v-9833e8b2="" transform="scale(0.12376237623762376)" fill="none" stroke="currentColor" paint-order="fill stroke markers" d="m93.33408,65.91516l-34.43594,0a29.84242,29.84242 0 0 1 -29.80842,-29.80842l0,-5.29831a29.84242,29.84242 0 0 1 29.80842,-29.80842l34.43594,0a29.84242,29.84242 0 0 1 29.80842,29.80842l0,5.3014a29.84242,29.84242 0 0 1 -29.80842,29.80533zm-34.43594,-52.55036a17.46218,17.46218 0 0 0 -17.44363,17.44363l0,5.3014a17.46218,17.46218 0 0 0 17.44363,17.44054l34.43594,0a17.46218,17.46218 0 0 0 17.44363,-17.44363l0,-5.29831a17.46218,17.46218 0 0 0 -17.44363,-17.44363l-34.43594,0z" stroke-width="5" stroke-miterlimit="10" stroke-dasharray=""></path><path data-v-9833e8b2="" transform="scale(0.12376237623762376)" fill="none" stroke="currentColor" paint-order="fill stroke markers" d="m56.56737,28.51166l39.09747,0l0,12.36479l-39.09747,0l0,-12.36479zm7.45597,33.38494l24.18862,0l0,11.74655l-24.18862,0l0,-11.74655zm-63.02334,11.74655l12.36479,0l0,127.35735l-12.36479,0l0,-127.35735zm137.24919,0l12.36479,0l0,127.35735l-12.36479,0l0,-127.35735z" stroke-width="5" stroke-miterlimit="10" stroke-dasharray=""></path><path data-v-9833e8b2="" transform="scale(0.12376237623762376)" fill="none" stroke="currentColor" paint-order="fill stroke markers" d="m13.31842,98.24908l125.59537,0l0,12.36479l-125.59537,0l0,-12.36479zm0,73.34794l125.59537,0l0,12.36479l-125.59537,0l0,-12.36479zm0,-24.74813l125.59537,0l0,12.36479l-125.59537,0l0,-12.36479z" stroke-width="5" stroke-miterlimit="10" stroke-dasharray=""></path><path data-v-9833e8b2="" transform="scale(0.12376237623762376)" fill="none" stroke="currentColor" paint-order="fill stroke markers" d="m106.33875,104.43148l-12.36479,0l0,-13.44671a4.98301,4.98301 0 0 0 -4.97683,-4.97683l-25.76204,0a4.98301,4.98301 0 0 0 -4.97683,4.97683l0,13.44671l-12.36479,0l0,-13.44671a17.36326,17.36326 0 0 1 17.34162,-17.34162l25.76204,0a17.36326,17.36326 0 0 1 17.34162,17.34162l0,13.44671z" stroke-width="5" stroke-miterlimit="10" stroke-dasharray=""></path></g></svg>