<svg data-v-9833e8b2="" version="1.1" xmlns="http://www.w3.org/2000/svg" xmlns:xlink="http://www.w3.org/1999/xlink" width="25" height="25"><g data-v-9833e8b2=""><path data-v-9833e8b2="" transform="scale(0.12376237623762376)" fill="none" stroke="currentColor" paint-order="fill stroke markers" d="m1,1m22.22228,0l155.55595,0q22.22228,0 22.22228,22.22228l0,155.55595q0,22.22228 -22.22228,22.22228l-155.55595,0q-22.22228,0 -22.22228,-22.22228l0,-155.55595q0,-22.22228 22.22228,-22.22228z" stroke-width="5" stroke-miterlimit="10" stroke-dasharray=""></path><path data-v-9833e8b2="" transform="scale(0.12376237623762376)" fill="none" stroke="currentColor" paint-order="fill stroke markers" d="m89.59467,137.03923c0.17222,-0.05555 17.26115,-5.72224 23.16672,-7.56113a7.06113,7.06113 0 0 0 4.26668,-3.53334a6.55557,6.55557 0 0 0 0.37778,-5.10557a91.00578,91.00578 0 0 1 -1.02222,-23.33339l-9.66669,-0.58889a121.88364,121.88364 0 0 0 0.75,24.05006c-7.16113,2.28334 -20.28894,6.66668 -20.91672,6.84446l3.04445,9.2278z" stroke-width="5" stroke-miterlimit="10" stroke-dasharray=""></path><path data-v-9833e8b2="" transform="scale(0.12376237623762376)" fill="none" stroke="currentColor" paint-order="fill stroke markers" d="m39.57232,121.10586a98.5058,98.5058 0 0 1 4.37223,-9.30002a15.36115,15.36115 0 0 0 -1.02223,-13.12225l-0.6,-0.89445l-0.16667,-1.06667c-0.04444,-0.27778 -3.78334,-28.65007 8.26113,-47.17234l1.27778,-1.96667l2.32223,-0.20556a667.27946,667.27946 0 0 1 81.57798,-1.23889l2.8389,0.13333l1.25,2.57778c0.06111,0.12222 0.28889,0.60556 0.61667,1.4l19.80005,0a7.5778,7.5778 0 0 1 7.53335,7.56669c0,6.11113 0.05,17.77782 0,27.47229a7.60557,7.60557 0 0 1 -7.02224,7.53335c-7.1278,0.5 -17.51671,0.95 -20.70561,1.42778q-0.82778,1.9 -1.79445,3.73334l-0.92222,1.73889l-1.86667,0.59444a83.22243,83.22243 0 0 1 -12.87781,2.50001c-14.74448,2.11667 -25.37784,4.3889 -28.00007,14.48337c-4.27779,16.4556 -8.28891,39.44454 -6.99446,50.95013a6.88891,6.88891 0 0 1 -5.72779,7.44446l-2.31667,0.45556a102.77804,102.77804 0 0 1 -20.17783,2.62778a50.55568,50.55568 0 0 1 -14.51115,-2.08334a7.04446,7.04446 0 0 1 -4.67223,-4.35001c-4.6389,-13.11114 -9.89447,-27.97785 -0.47222,-51.23346l0,-0.00556zm118.46141,-37.82787c0.03333,-8.20558 0,-17.4056 0,-23.33339l-14.80559,0a57.77792,57.77792 0 0 1 0,24.12784c2.45001,-0.25 11.01114,-0.51111 14.80004,-0.78889l0.00556,-0.00556zm-109.41694,84.44466a60.11126,60.11126 0 0 0 28.93896,-1.11111l0.12778,0a204.0894,204.0894 0 0 1 7.46668,-51.7668c4.44446,-17.1056 22.65006,-19.72227 35.95009,-21.62783c3.46112,-0.49444 6.76668,-0.97222 9.44447,-1.62222a44.87789,44.87789 0 0 0 2.22223,-5.62224a48.17234,48.17234 0 0 0 -0.69445,-30.26119a667.15168,667.15168 0 0 0 -74.8113,1.14445c-6.97779,12.70559 -6.42779,31.58897 -5.74446,37.48343a24.90562,24.90562 0 0 1 0.98889,21.87228l-0.07222,0.14444a88.99467,88.99467 0 0 0 -3.97779,8.45002a52.67236,52.67236 0 0 0 0.14445,42.94455l0.01667,-0.02778zm23.98895,-107.10583l29.92785,-0.47222a8.2778,8.2778 0 0 1 6.88891,2.74445a11.19447,11.19447 0 0 1 1.38889,9.28336a42.16122,42.16122 0 0 1 -2.22223,7.6278a7.38335,7.38335 0 0 1 -6.17779,4.38335c-5.55557,0.52778 -24.25562,2.27223 -31.83897,2.72778l-0.43889,0a7.08891,7.08891 0 0 1 -4.89446,-1.93334a6.38335,6.38335 0 0 1 -2.01112,-4.68334a41.77233,41.77233 0 0 1 3.10001,-15.5556a6.86668,6.86668 0 0 1 6.2889,-4.12779l-0.01111,0.00555zm27.62785,14.03337a40.31121,40.31121 0 0 0 1.17222,-4.47779c0,-0.11111 0.04445,-0.21667 0.06111,-0.31111l-26.95562,0.42778a33.00008,33.00008 0 0 0 -1.48334,6.73891c7.9278,-0.58889 21.40005,-1.83334 27.21118,-2.38334l-0.00555,0.00555z" stroke-width="5" stroke-miterlimit="10" stroke-dasharray=""></path></g></svg>