<svg data-v-9833e8b2="" version="1.1" xmlns="http://www.w3.org/2000/svg" xmlns:xlink="http://www.w3.org/1999/xlink" width="25" height="22.5"><g data-v-9833e8b2=""><path data-v-9833e8b2="" transform="scale(0.13440860215053763)" fill="none" stroke="currentColor" paint-order="fill stroke markers" d="m110.65028,7.28335l-1.00834,0c-7.91669,-0.025 -14.50837,6.08335 -15.0917,13.97504c-0.50834,-7.79169 -9.62502,-11.5417 -9.62502,-11.5417a36.05842,36.05842 0 0 0 -11.6417,-2.54167l-23.70839,0a6.08335,6.08335 0 0 0 -6.08335,6.08335l0,41.11677a6.08335,6.08335 0 0 0 6.08335,6.08335l11.14169,0a6.08335,6.08335 0 0 1 6.08335,6.07502l0,79.23353c0,3.35834 2.71667,6.08335 6.07502,6.08335l45.98345,0a6.08335,6.08335 0 0 0 6.08335,-6.08335l0,-79.2252a6.08335,6.08335 0 0 1 6.06668,-6.08335l9.41669,0a6.08335,6.08335 0 0 0 6.08335,-6.07502l0,-41.1251a6.08335,6.08335 0 0 0 -6.08335,-6.08335l-29.77507,0m-88.21689,-6.16668l16.10004,0l0,66.95017l-16.10004,0l0,-66.9585l0,0.00833zm128.12532,0l16.10837,0l0,66.95017l-16.10837,0l0,-66.95017zm-96.32524,156.81706l81.03354,0l0,13.67503l-81.03354,0l0,-13.67503zm-40.73344,-135.65034l4.16668,0l0,25.00006l-4.16668,0a12.50003,12.50003 0 0 1 0,-25.00006zm155.70039,0l4.16668,0a12.50003,12.50003 0 0 1 0,25.00006l-4.16668,0l0,-25.00006z" stroke-width="5" stroke-miterlimit="10" stroke-dasharray=""></path></g></svg>