<svg data-v-9833e8b2="" version="1.1" xmlns="http://www.w3.org/2000/svg" xmlns:xlink="http://www.w3.org/1999/xlink" width="25" height="15"><g data-v-9833e8b2=""><path data-v-9833e8b2="" transform="scale(0.12626262626262627)" fill="none" stroke="currentColor" paint-order="fill stroke markers" d="m197.31726,29.43796l0,-9.22483l-19.53432,-19.21313l-176.78294,0l0,86.37222l29.37519,28.66437l166.94207,0l0,-86.59863zm-169.83272,-9.22483l-9.76716,-9.53022l150.14571,0l0,9.53022l-140.37855,0zm-6.80279,6.93442l0,21.88265l-9.76189,0l0,-31.4076l9.76716,9.53022l-0.00526,-0.00527zm9.84614,2.66952l137.32994,0l0,19.06044l-137.32994,0l0,-19.06044l0,0zm147.17607,0l9.84614,0l0,38.12088l-9.84614,-9.6092l0,-28.51168zm0,-9.60393l0,-7.62418l7.80846,7.62418l-7.80846,0z" stroke-width="5" stroke-miterlimit="10" stroke-dasharray=""></path></g></svg>