<svg data-v-9833e8b2="" version="1.1" xmlns="http://www.w3.org/2000/svg" xmlns:xlink="http://www.w3.org/1999/xlink" width="25" height="25"><g data-v-9833e8b2=""><path data-v-9833e8b2="" transform="scale(0.12437810945273632)" fill="none" stroke="currentColor" paint-order="fill stroke markers" d="m100.90246,1c-55.17448,0 -99.90246,44.72777 -99.90246,99.90246c0,55.17448 44.72777,99.90246 99.90246,99.90246c55.17468,0 99.90266,-44.72797 99.90266,-99.90246c0,-55.17468 -44.72797,-99.90246 -99.90266,-99.90246zm67.81816,167.72022c-8.80942,8.80942 -19.06664,15.72557 -30.48694,20.55578c-11.82164,5.00012 -24.38145,7.53533 -37.33102,7.53533c-12.94937,0 -25.50938,-2.5352 -37.33082,-7.53533c-11.4203,-4.83021 -21.67752,-11.74636 -30.48714,-20.55578c-8.80942,-8.80942 -15.72537,-19.06664 -20.55578,-30.48694c-5.00013,-11.82144 -7.53533,-24.38125 -7.53533,-37.33082s2.5352,-25.50938 7.53533,-37.33102c4.8304,-11.4203 11.74636,-21.67752 20.55578,-30.48694s19.06664,-15.72537 30.48714,-20.55578c11.82124,-5.00013 24.38125,-7.53533 37.33062,-7.53533c12.94937,0 25.50938,2.5352 37.33102,7.53533c11.4203,4.8304 21.67752,11.74636 30.48694,20.55578c8.80942,8.80942 15.72537,19.06684 20.55578,30.48694c5.00012,11.82164 7.53533,24.38145 7.53533,37.33102s-2.5352,25.50938 -7.53533,37.33082c-4.83021,11.4203 -11.74616,21.67752 -20.55558,30.48694z" stroke-width="5" stroke-miterlimit="10" stroke-dasharray=""></path><path data-v-9833e8b2="" transform="scale(0.12437810945273632)" fill="none" stroke="currentColor" paint-order="fill stroke markers" d="m95.16196,79.50367c4.93903,-1.38291 9.95632,-0.96421 14.35205,0.86177c2.2343,-8.40329 9.19458,-21.95486 12.65266,-28.18695c0.09245,-0.15155 0.1837,-0.3045 0.27255,-0.45964c0.13438,-0.23541 0.25677,-0.47541 0.38476,-0.71142c0.3644,-0.67349 1.15189,-2.20635 1.089,-2.58632c2.67238,-8.0385 -0.59202,-17.10929 -8.22958,-21.47366c-8.70599,-4.97497 -19.79644,-1.95017 -24.7712,6.75562c-0.80047,1.40068 -1.39269,2.86346 -1.78864,4.3522c-6.31415,17.66297 -0.85339,33.89431 3.25761,42.43098c0.89252,-0.38356 1.81999,-0.71362 2.7808,-0.98257z" stroke-width="5" stroke-miterlimit="10" stroke-dasharray=""></path><path data-v-9833e8b2="" transform="scale(0.12437810945273632)" fill="none" stroke="currentColor" paint-order="fill stroke markers" d="m164.1993,125.35199c-0.81266,-1.39349 -1.78345,-2.63763 -2.87484,-3.72483c-12.1433,-14.30413 -28.93711,-17.68853 -38.38407,-18.39516c-0.5417,4.67107 -2.57813,9.20477 -6.12007,12.82677c-0.73878,0.75555 -1.51949,1.44481 -2.33314,2.07117c6.1606,6.13624 14.41634,18.94045 18.08467,25.05174c0.08506,0.15534 0.17172,0.31129 0.26197,0.46563c0.13637,0.23441 0.28333,0.46024 0.4237,0.68926c0.40094,0.65232 1.33479,2.10052 1.695,2.2357c5.62549,6.33372 15.11279,8.04209 22.71161,3.61023c8.66147,-5.05204 11.58722,-16.16924 6.53519,-24.83051z" stroke-width="5" stroke-miterlimit="10" stroke-dasharray=""></path><path data-v-9833e8b2="" transform="scale(0.12437810945273632)" fill="none" stroke="currentColor" paint-order="fill stroke markers" d="m79.29063,103.55387c-8.39331,2.26805 -23.61492,3.01601 -30.74292,3.13741c-0.17751,-0.00439 -0.35541,-0.00699 -0.53412,-0.00619c-0.27135,0.0016 -0.5403,0.01557 -0.80866,0.02256c-0.76533,0.02116 -2.48668,0.10562 -2.78439,0.35022c-8.29787,1.70478 -14.52117,9.06719 -14.48163,17.86364c0.04452,10.0268 8.20901,18.11921 18.23602,18.07468c1.61313,-0.00699 3.17614,-0.22563 4.66328,-0.62696c18.46065,-3.36483 29.7885,-16.21796 35.12347,-24.0456c-0.77831,-0.58124 -1.52807,-1.21938 -2.24189,-1.91763c-3.66534,-3.58387 -5.81118,-8.13514 -6.42916,-12.85213z" stroke-width="5" stroke-miterlimit="10" stroke-dasharray=""></path><path data-v-9833e8b2="" transform="scale(0.12437810945273632)" fill="none" stroke="currentColor" paint-order="fill stroke markers" d="m101.09115,100.68222m-16.55999,0a16.18283,16.18283 0 1 0 33.11999,0a16.18283,16.18283 0 1 0 -33.11999,0z" stroke-width="5" stroke-miterlimit="10" stroke-dasharray=""></path></g></svg>