<svg data-v-9833e8b2="" version="1.1" xmlns="http://www.w3.org/2000/svg" xmlns:xlink="http://www.w3.org/1999/xlink" width="25" height="15"><g data-v-9833e8b2=""><path data-v-9833e8b2="" transform="scale(0.15151515151515152)" fill="none" stroke="currentColor" paint-order="fill stroke markers" d="m150.20038,1.26667l-135.13367,0c-9.33336,0 -14.0667,3.93334 -14.0667,11.80003l0,31.20008l24.7334,24.66673l2.80001,0l0,4.53335a3.13334,3.13334 0 0 0 2.86667,3.40001a3.13334,3.13334 0 0 0 3.00001,-3.40001l0,-4.40001l3.33334,0a255.60064,255.60064 0 0 0 10.53336,27.60007c2.06667,3.20001 21.46672,3.66668 32.86675,3.66668c5.46668,0 32.86675,0 35.60009,-3.53334a151.66705,151.66705 0 0 0 9.60002,-27.7334l4.80001,0l0,4.40001a3.13334,3.13334 0 0 0 2.86667,3.40001a3.13334,3.13334 0 0 0 2.93334,-3.40001l0,-4.40001l2.33334,0l24.80006,-24.40006l0.46667,-0.6l0,-31.26674c0,-7.86669 -5.00001,-11.80003 -14.2667,-11.80003l-0.06667,0.26667zm-90.80023,85.53355l-11.93336,-1.2l0,-12.13336l11.93336,1.4l0,11.93336zm5.80001,0l1.66667,-11.80003l30.53341,0l1.4,11.80003l-33.60008,0zm24.60006,-40.53344l0,-12.00003l8.46669,0l0,31.86675l-8.46669,0l0,-11.6667l-14.20004,0l0,11.6667l-6.66668,0l0,-32.13341l6.66668,0l0,12.00003l14.20004,0.26667zm26.66674,39.13343l-10.80003,1.4l0,-12.00003l10.80003,-1.33334l0,11.93336zm42.66677,-59.26682l-153.33372,0l0,-3.00001l153.33372,0l0,3.00001z" stroke-width="5" stroke-miterlimit="10" stroke-dasharray=""></path></g></svg>