<svg data-v-9833e8b2="" version="1.1" xmlns="http://www.w3.org/2000/svg" xmlns:xlink="http://www.w3.org/1999/xlink" width="25" height="22.5"><g data-v-9833e8b2=""><path data-v-9833e8b2="" transform="scale(0.16129032258064516)" fill="none" stroke="currentColor" paint-order="fill stroke markers" d="m17.05243,55.1668l19.16672,-37.50009l83.33354,0l19.16672,37.50009c1.66667,2.50001 4.16668,4.16668 6.66668,4.16668c5.83335,0 9.16669,-5.83335 6.66668,-10.83336l-21.66672,-43.33344c-1.66667,-2.50001 -4.16668,-4.16668 -7.50002,-4.16668l-90.00023,0c-3.33334,0 -5.83335,1.66667 -7.50002,5.00001l-21.66672,42.50011c-2.50001,5.00001 1.66667,10.83336 6.66668,10.83336c3.33334,0 5.83335,-1.66667 6.66668,-4.16668zm127.50032,20.83339l-16.66671,0c-5.00001,0 -8.33335,3.33334 -8.33335,8.33335s3.33334,8.33335 8.33335,8.33335l8.33335,0l-16.66671,33.33342l-83.33354,0l-16.66671,-33.33342l16.66671,0c5.00001,0 8.33335,-3.33334 8.33335,-8.33335s-3.33334,-8.33335 -8.33335,-8.33335l-25.00006,0c-7.50002,0 -12.50003,8.33335 -9.16669,15.00004l23.33339,47.50012c1.66667,2.50001 4.16668,4.16668 7.50002,4.16668l90.00023,0c3.33334,0 5.83335,-1.66667 7.50002,-5.00001l23.33339,-47.50012c3.33334,-5.83335 -1.66667,-14.1667 -9.16669,-14.1667z" stroke-width="5" stroke-miterlimit="10" stroke-dasharray=""></path><path data-v-9833e8b2="" transform="scale(0.16129032258064516)" fill="none" stroke="currentColor" paint-order="fill stroke markers" d="m82.05259,86.00021l0,-39.16676c0,-2.50001 -1.66667,-4.16668 -4.16668,-4.16668s-4.16668,1.66667 -4.16668,4.16668l0,39.16676c-2.50001,0.83334 -4.16668,3.33334 -4.16668,6.66668c0,5.00001 3.33334,8.33335 8.33335,8.33335s8.33335,-3.33334 8.33335,-8.33335c0,-3.33334 -1.66667,-5.83335 -4.16668,-6.66668z" stroke-width="5" stroke-miterlimit="10" stroke-dasharray=""></path><path data-v-9833e8b2="" transform="scale(0.16129032258064516)" fill="none" stroke="currentColor" paint-order="fill stroke markers" d="m94.55262,74.33352l0,-31.66675c0,-9.16669 -7.50002,-16.66671 -16.66671,-16.66671s-16.66671,7.50002 -16.66671,16.66671l0,31.66675c-5.00001,4.16668 -8.33335,10.83336 -8.33335,18.33338c0,14.1667 10.83336,25.00006 25.00006,25.00006s25.00006,-10.83336 25.00006,-25.00006c0,-7.50002 -3.33334,-14.1667 -8.33335,-18.33338zm-16.66671,35.00009c-9.16669,0 -16.66671,-7.50002 -16.66671,-16.66671c0,-5.83335 3.33334,-11.6667 8.33335,-14.1667l0,-35.83342c0,-4.16668 4.16668,-8.33335 8.33335,-8.33335s8.33335,4.16668 8.33335,8.33335l0,35.83342c5.00001,2.50001 8.33335,8.33335 8.33335,14.1667c0,9.16669 -7.50002,16.66671 -16.66671,16.66671zm37.50009,-50.00013l-8.33335,0c-2.50001,0 -4.16668,-1.66667 -4.16668,-4.16668s1.66667,-4.16668 4.16668,-4.16668l8.33335,0c2.50001,0 4.16668,1.66667 4.16668,4.16668s-1.66667,4.16668 -4.16668,4.16668zm0,-16.66671l-8.33335,0c-2.50001,0 -4.16668,-1.66667 -4.16668,-4.16668s1.66667,-4.16668 4.16668,-4.16668l8.33335,0c2.50001,0 4.16668,1.66667 4.16668,4.16668s-1.66667,4.16668 -4.16668,4.16668zm0,33.33342l-8.33335,0c-2.50001,0 -4.16668,-1.66667 -4.16668,-4.16668s1.66667,-4.16668 4.16668,-4.16668l8.33335,0c2.50001,0 4.16668,1.66667 4.16668,4.16668s-1.66667,4.16668 -4.16668,4.16668z" stroke-width="5" stroke-miterlimit="10" stroke-dasharray=""></path></g></svg>