<svg data-v-9833e8b2="" version="1.1" xmlns="http://www.w3.org/2000/svg" xmlns:xlink="http://www.w3.org/1999/xlink" width="27" height="25"><g data-v-9833e8b2=""><path data-v-9833e8b2="" transform="scale(0.13440860215053763)" fill="none" stroke="currentColor" paint-order="fill stroke markers" d="m9.1,1l159.3,0c4.5,0 8.1,3.6 8.1,8.1l0,168.7c0,4.5 -3.6,8.1 -8.1,8.1l-159.3,0c-4.5,0 -8.1,-3.6 -8.1,-8.1l0,-168.7c0,-4.4 3.6,-8.1 8.1,-8.1l0,0z" stroke-width="5" stroke-miterlimit="10" stroke-dasharray=""></path><path data-v-9833e8b2="" transform="scale(0.13440860215053763)" fill="none" stroke="currentColor" paint-order="fill stroke markers" d="m1,115.8l175.5,0l0,9.4l-175.5,0l0,-9.4l0,0z" stroke-width="5" stroke-miterlimit="10" stroke-dasharray=""></path><path data-v-9833e8b2="" transform="scale(0.13440860215053763)" fill="none" stroke="currentColor" paint-order="fill stroke markers" d="m32,141.4l113.4,0l0,24.3l-113.4,0l0,-24.3l0,0z" stroke-width="5" stroke-miterlimit="10" stroke-dasharray=""></path><path data-v-9833e8b2="" transform="scale(0.13440860215053763)" fill="none" stroke="currentColor" paint-order="fill stroke markers" d="m29.3,18.6l118.8,0c4.5,0 8.1,3.6 8.1,8.1l0,64.8c0,4.5 -3.6,8.1 -8.1,8.1l-118.8,0c-4.5,0 -8.1,-3.6 -8.1,-8.1l0,-64.8c0,-4.5 3.6,-8.1 8.1,-8.1l0,0z" stroke-width="5" stroke-miterlimit="10" stroke-dasharray=""></path><path data-v-9833e8b2="" transform="scale(0.13440860215053763)" fill="none" stroke="currentColor" paint-order="fill stroke markers" d="m41.5,36.1l43,0l0,13.5l-43,0l0,-13.5l0,0z" stroke-width="5" stroke-miterlimit="10" stroke-dasharray=""></path><path data-v-9833e8b2="" transform="scale(0.13440860215053763)" fill="none" stroke="currentColor" paint-order="fill stroke markers" d="m92.9,36.1l43,0l0,13.5l-43,0l0,-13.5l0,0z" stroke-width="5" stroke-miterlimit="10" stroke-dasharray=""></path><path data-v-9833e8b2="" transform="scale(0.13440860215053763)" fill="none" stroke="currentColor" paint-order="fill stroke markers" d="m45.5,65.8c4.5,0 8.1,3.6 8.1,8.1c0,4.5 -3.6,8.1 -8.1,8.1c-4.5,0 -8.1,-3.6 -8.1,-8.1c0,-4.4 3.6,-8.1 8.1,-8.1l0,0z" stroke-width="5" stroke-miterlimit="10" stroke-dasharray=""></path><path data-v-9833e8b2="" transform="scale(0.13440860215053763)" fill="none" stroke="currentColor" paint-order="fill stroke markers" d="m67.1,65.8c4.5,0 8.1,3.6 8.1,8.1c0,4.5 -3.6,8.1 -8.1,8.1c-4.5,0 -8.1,-3.6 -8.1,-8.1c0,-4.4 3.6,-8.1 8.1,-8.1l0,0z" stroke-width="5" stroke-miterlimit="10" stroke-dasharray=""></path><path data-v-9833e8b2="" transform="scale(0.13440860215053763)" fill="none" stroke="currentColor" paint-order="fill stroke markers" d="m88.7,65.8c4.5,0 8.1,3.6 8.1,8.1c0,4.5 -3.6,8.1 -8.1,8.1c-4.5,0 -8.1,-3.6 -8.1,-8.1c0,-4.4 3.6,-8.1 8.1,-8.1l0,0z" stroke-width="5" stroke-miterlimit="10" stroke-dasharray=""></path><path data-v-9833e8b2="" transform="scale(0.13440860215053763)" fill="none" stroke="currentColor" paint-order="fill stroke markers" d="m110.3,65.8c4.5,0 8.1,3.6 8.1,8.1c0,4.5 -3.6,8.1 -8.1,8.1c-4.5,0 -8.1,-3.6 -8.1,-8.1c0,-4.4 3.6,-8.1 8.1,-8.1l0,0z" stroke-width="5" stroke-miterlimit="10" stroke-dasharray=""></path><path data-v-9833e8b2="" transform="scale(0.13440860215053763)" fill="none" stroke="currentColor" paint-order="fill stroke markers" d="m131.9,65.8c4.5,0 8.1,3.6 8.1,8.1c0,4.5 -3.6,8.1 -8.1,8.1c-4.5,0 -8.1,-3.6 -8.1,-8.1c0,-4.4 3.6,-8.1 8.1,-8.1l0,0z" stroke-width="5" stroke-miterlimit="10" stroke-dasharray=""></path></g></svg>