<svg data-v-9833e8b2="" version="1.1" xmlns="http://www.w3.org/2000/svg" xmlns:xlink="http://www.w3.org/1999/xlink" width="24.5" height="25"><g data-v-9833e8b2=""><path data-v-9833e8b2="" transform="scale(0.1358695652173913)" fill="none" stroke="currentColor" paint-order="fill stroke markers" d="m84,10.8l26,0l0,30.9l-26,0l0,-30.9l0,0z" stroke-width="5" stroke-miterlimit="10" stroke-dasharray=""></path><path data-v-9833e8b2="" transform="scale(0.1358695652173913)" fill="none" stroke="currentColor" paint-order="fill stroke markers" d="m56.4,1l81.3,0l0,16.3l-81.3,0l0,-16.3l0,0z" stroke-width="5" stroke-miterlimit="10" stroke-dasharray=""></path><path data-v-9833e8b2="" transform="scale(0.1358695652173913)" fill="none" stroke="currentColor" paint-order="fill stroke markers" d="m167,42.2l0,92.3c0,27 -21.9,48.8 -48.8,48.8l-42.3,0c-27,0 -48.8,-21.9 -48.8,-48.8l0,-92.3l139.9,0z" stroke-width="5" stroke-miterlimit="10" stroke-dasharray=""></path><path data-v-9833e8b2="" transform="scale(0.1358695652173913)" fill="none" stroke="currentColor" paint-order="fill stroke markers" d="m167,56.4l-146.4,0l0,78.1l-19.6,0l0,-78.1l0,-19.6l19.5,0l146.5,0l0,19.6z" stroke-width="5" stroke-miterlimit="10" stroke-dasharray=""></path></g></svg>