<svg data-v-9833e8b2="" version="1.1" xmlns="http://www.w3.org/2000/svg" xmlns:xlink="http://www.w3.org/1999/xlink" width="27" height="25"><g data-v-9833e8b2=""><path data-v-9833e8b2="" transform="scale(0.13440860215053763)" fill="none" stroke="currentColor" paint-order="fill stroke markers" d="m47.1,1l84.6,0c8.5,0 15.4,5.7 15.4,12.6l0,63.1c0,7 -6.9,12.6 -15.4,12.6l-84.6,0c-8.5,0 -15.4,-5.7 -15.4,-12.6l0,-63.1c0.1,-7 6.9,-12.6 15.4,-12.6l0,0z" stroke-width="5" stroke-miterlimit="10" stroke-dasharray=""></path><path data-v-9833e8b2="" transform="scale(0.13440860215053763)" fill="none" stroke="currentColor" paint-order="fill stroke markers" d="m58.7,131.6l61.5,0l0,42.3l-61.5,0l0,-42.3l0,0z" stroke-width="5" stroke-miterlimit="10" stroke-dasharray=""></path><path data-v-9833e8b2="" transform="scale(0.13440860215053763)" fill="none" stroke="currentColor" paint-order="fill stroke markers" d="m26,162.4l126.8,0l0,23.1l-126.8,0l0,-23.1l0,0z" stroke-width="5" stroke-miterlimit="10" stroke-dasharray=""></path><path data-v-9833e8b2="" transform="scale(0.13440860215053763)" fill="none" stroke="currentColor" paint-order="fill stroke markers" d="m1,62.5l176.8,0l0,53.8l-176.8,0l0,-53.8l0,0z" stroke-width="5" stroke-miterlimit="10" stroke-dasharray=""></path><path data-v-9833e8b2="" transform="scale(0.13440860215053763)" fill="none" stroke="currentColor" paint-order="fill stroke markers" d="m89.4,20.2c38.2,0 69.2,31 69.2,69.2s-31,69.2 -69.2,69.2c-38.2,0 -69.2,-31 -69.2,-69.2s31,-69.2 69.2,-69.2l0,0z" stroke-width="5" stroke-miterlimit="10" stroke-dasharray=""></path><path data-v-9833e8b2="" transform="scale(0.13440860215053763)" fill="none" stroke="currentColor" paint-order="fill stroke markers" d="m89.4,47.1c23.3,0 42.3,18.9 42.3,42.3s-18.9,42.3 -42.3,42.3c-23.3,0 -42.3,-18.9 -42.3,-42.3s19,-42.3 42.3,-42.3l0,0z" stroke-width="5" stroke-miterlimit="10" stroke-dasharray=""></path></g></svg>