<svg data-v-9833e8b2="" version="1.1" xmlns="http://www.w3.org/2000/svg" xmlns:xlink="http://www.w3.org/1999/xlink" width="19.5" height="25"><g data-v-9833e8b2=""><path data-v-9833e8b2="" transform="scale(0.18518518518518517)" fill="none" stroke="currentColor" paint-order="fill stroke markers" d="m53,95.7l-7,5.2l-7,-5.2l0,-30c2.3,0.5 4.6,0.7 7,0.7s4.7,-0.2 7,-0.7l0,30l0,0z" stroke-width="5" stroke-miterlimit="10" stroke-dasharray=""></path><path data-v-9833e8b2="" transform="scale(0.18518518518518517)" fill="none" stroke="currentColor" paint-order="fill stroke markers" d="m36.6,98.9l6.1,4.5l-41.7,30.8l0,-61.6l35.6,26.3z" stroke-width="5" stroke-miterlimit="10" stroke-dasharray=""></path><path data-v-9833e8b2="" transform="scale(0.18518518518518517)" fill="none" stroke="currentColor" paint-order="fill stroke markers" d="m91,134.2l-41.7,-30.8l6.1,-4.5l35.6,-26.3l0,61.6z" stroke-width="5" stroke-miterlimit="10" stroke-dasharray=""></path><path data-v-9833e8b2="" transform="scale(0.18518518518518517)" fill="none" stroke="currentColor" paint-order="fill stroke markers" d="m46,1c-16.9,0 -30.7,13.8 -30.7,30.7c0,14.5 10.1,26.7 23.7,29.8c2.2,0.5 4.6,0.8 7,0.8s4.8,-0.3 7,-0.8c13.6,-3.2 23.7,-15.3 23.7,-29.8c0,-16.9 -13.8,-30.7 -30.7,-30.7z" stroke-width="5" stroke-miterlimit="10" stroke-dasharray=""></path><path data-v-9833e8b2="" transform="scale(0.18518518518518517)" fill="none" stroke="currentColor" paint-order="fill stroke markers" d="m62,47.5l-3.6,0l0,-24.6l-0.1,0l-10.7,24.7l-3.2,0l-10.7,-24.7l-0.1,0l0,24.7l-3.6,0l0,-31l4.4,0l11.6,26.4l0.1,0l11.5,-26.4l4.4,0l0,30.9l0,0z" stroke-width="5" stroke-miterlimit="10" stroke-dasharray=""></path></g></svg>