<svg data-v-9833e8b2="" version="1.1" xmlns="http://www.w3.org/2000/svg" xmlns:xlink="http://www.w3.org/1999/xlink" width="25" height="17.5"><g data-v-9833e8b2=""><path data-v-9833e8b2="" transform="scale(0.13227513227513227)" fill="none" stroke="currentColor" paint-order="fill stroke markers" d="m76.2,102.8l36.6,0l0,22.1l-36.6,0l0,-22.1l0,0z" stroke-width="5" stroke-miterlimit="10" stroke-dasharray=""></path><path data-v-9833e8b2="" transform="scale(0.13227513227513227)" fill="none" stroke="currentColor" paint-order="fill stroke markers" d="m49.8,118.8l89.4,0l0,12.2l-89.4,0l0,-12.2l0,0z" stroke-width="5" stroke-miterlimit="10" stroke-dasharray=""></path><path data-v-9833e8b2="" transform="scale(0.13227513227513227)" fill="none" stroke="currentColor" paint-order="fill stroke markers" d="m13.2,1l162.6,0c6.7,0 12.2,5.5 12.2,12.2l0,85.3c0,6.7 -5.5,12.2 -12.2,12.2l-162.6,0c-6.7,0 -12.2,-5.5 -12.2,-12.2l0,-85.3c0,-6.8 5.5,-12.2 12.2,-12.2l0,0z" stroke-width="5" stroke-miterlimit="10" stroke-dasharray=""></path><path data-v-9833e8b2="" transform="scale(0.13227513227513227)" fill="none" stroke="currentColor" paint-order="fill stroke markers" d="m15.2,15.2l158.5,0l0,81.3l-158.5,0l0,-81.3l0,0z" stroke-width="5" stroke-miterlimit="10" stroke-dasharray=""></path></g></svg>