<svg data-v-9833e8b2="" version="1.1" xmlns="http://www.w3.org/2000/svg" xmlns:xlink="http://www.w3.org/1999/xlink" width="22" height="25"><g data-v-9833e8b2=""><path data-v-9833e8b2="" transform="scale(0.13089005235602094)" fill="none" stroke="currentColor" paint-order="fill stroke markers" d="m5.9,1l146.6,0c2.7,0 4.9,2.2 4.9,4.9l0,179.5c0,2.7 -2.2,4.9 -4.9,4.9l-146.6,0c-2.7,0 -4.9,-2.2 -4.9,-4.9l0,-179.4c0,-2.8 2.2,-5 4.9,-5l0,0z" stroke-width="5" stroke-miterlimit="10" stroke-dasharray=""></path><path data-v-9833e8b2="" transform="scale(0.13089005235602094)" fill="none" stroke="currentColor" paint-order="fill stroke markers" d="m1,112.2l156.4,0l0,16.5l-156.4,0l0,-16.5l0,0z" stroke-width="5" stroke-miterlimit="10" stroke-dasharray=""></path><path data-v-9833e8b2="" transform="scale(0.13089005235602094)" fill="none" stroke="currentColor" paint-order="fill stroke markers" d="m25.7,142.6l107,0l0,30.5l-107,0l0,-30.5l0,0z" stroke-width="5" stroke-miterlimit="10" stroke-dasharray=""></path><path data-v-9833e8b2="" transform="scale(0.13089005235602094)" fill="none" stroke="currentColor" paint-order="fill stroke markers" d="m22.4,17.5l113.6,0c2.7,0 4.9,2.2 4.9,4.9l0,72.5c0,2.7 -2.2,4.9 -4.9,4.9l-113.6,0c-2.7,0 -4.9,-2.2 -4.9,-4.9l0,-72.5c-0.1,-2.7 2.2,-4.9 4.9,-4.9l0,0z" stroke-width="5" stroke-miterlimit="10" stroke-dasharray=""></path><path data-v-9833e8b2="" transform="scale(0.13089005235602094)" fill="none" stroke="currentColor" paint-order="fill stroke markers" d="m29.8,25.7l98.8,0l0,41.2l-98.8,0l0,-41.2l0,0z" stroke-width="5" stroke-miterlimit="10" stroke-dasharray=""></path><path data-v-9833e8b2="" transform="scale(0.13089005235602094)" fill="none" stroke="currentColor" paint-order="fill stroke markers" d="m36.4,75.9c3.6,0 6.6,3 6.6,6.6c0,3.6 -2.9,6.6 -6.6,6.6c-3.6,0 -6.6,-2.9 -6.6,-6.6c0,-3.6 2.9,-6.6 6.6,-6.6l0,0z" stroke-width="5" stroke-miterlimit="10" stroke-dasharray=""></path><path data-v-9833e8b2="" transform="scale(0.13089005235602094)" fill="none" stroke="currentColor" paint-order="fill stroke markers" d="m57.8,75.9c3.6,0 6.6,3 6.6,6.6c0,3.6 -3,6.6 -6.6,6.6s-6.6,-2.9 -6.6,-6.6c0,-3.6 3,-6.6 6.6,-6.6l0,0z" stroke-width="5" stroke-miterlimit="10" stroke-dasharray=""></path><path data-v-9833e8b2="" transform="scale(0.13089005235602094)" fill="none" stroke="currentColor" paint-order="fill stroke markers" d="m79.2,75.9c3.6,0 6.6,3 6.6,6.6c0,3.6 -2.9,6.6 -6.6,6.6c-3.6,0 -6.6,-2.9 -6.6,-6.6c0,-3.6 3,-6.6 6.6,-6.6l0,0z" stroke-width="5" stroke-miterlimit="10" stroke-dasharray=""></path><path data-v-9833e8b2="" transform="scale(0.13089005235602094)" fill="none" stroke="currentColor" paint-order="fill stroke markers" d="m100.6,75.9c3.6,0 6.6,3 6.6,6.6c0,3.6 -2.9,6.6 -6.6,6.6c-3.6,0 -6.6,-2.9 -6.6,-6.6c0,-3.6 3,-6.6 6.6,-6.6l0,0z" stroke-width="5" stroke-miterlimit="10" stroke-dasharray=""></path><path data-v-9833e8b2="" transform="scale(0.13089005235602094)" fill="none" stroke="currentColor" paint-order="fill stroke markers" d="m122,75.9c3.6,0 6.6,3 6.6,6.6c0,3.6 -3,6.6 -6.6,6.6s-6.6,-2.9 -6.6,-6.6c0,-3.6 3,-6.6 6.6,-6.6l0,0z" stroke-width="5" stroke-miterlimit="10" stroke-dasharray=""></path></g></svg>