<svg data-v-9833e8b2="" version="1.1" xmlns="http://www.w3.org/2000/svg" xmlns:xlink="http://www.w3.org/1999/xlink" width="27" height="25"><g data-v-9833e8b2=""><path data-v-9833e8b2="" transform="scale(0.1388888888888889)" fill="none" stroke="currentColor" paint-order="fill stroke markers" d="m36.7,1l14.3,0c19.7,0 35.7,16 35.7,35.7l0,107.1c0,19.7 -16,35.7 -35.7,35.7l-14.3,0c-19.7,0 -35.7,-16 -35.7,-35.7l0,-107.1c0,-19.8 16,-35.7 35.7,-35.7l0,0z" stroke-width="5" stroke-miterlimit="10" stroke-dasharray=""></path><path data-v-9833e8b2="" transform="scale(0.1388888888888889)" fill="none" stroke="currentColor" paint-order="fill stroke markers" d="m1,43.8l85.7,0l0,7.1l-85.7,0l0,-7.1l0,0z" stroke-width="5" stroke-miterlimit="10" stroke-dasharray=""></path><path data-v-9833e8b2="" transform="scale(0.1388888888888889)" fill="none" stroke="currentColor" paint-order="fill stroke markers" d="m43.9,61.6c11.8,0 21.4,9.6 21.4,21.4c0,11.8 -9.6,21.4 -21.4,21.4c-11.8,0 -21.4,-9.6 -21.4,-21.4c-0.1,-11.8 9.5,-21.4 21.4,-21.4l0,0z" stroke-width="5" stroke-miterlimit="10" stroke-dasharray=""></path><path data-v-9833e8b2="" transform="scale(0.1388888888888889)" fill="none" stroke="currentColor" paint-order="fill stroke markers" d="m43.9,111.6c11.8,0 21.4,9.6 21.4,21.4c0,11.8 -9.6,21.4 -21.4,21.4c-11.8,0 -21.4,-9.6 -21.4,-21.4c-0.1,-11.8 9.5,-21.4 21.4,-21.4l0,0z" stroke-width="5" stroke-miterlimit="10" stroke-dasharray=""></path><path data-v-9833e8b2="" transform="scale(0.1388888888888889)" fill="none" stroke="currentColor" paint-order="fill stroke markers" d="m122.4,1l14.3,0c19.7,0 35.7,16 35.7,35.7l0,107.1c0,19.7 -16,35.7 -35.7,35.7l-14.3,0c-19.7,0 -35.7,-16 -35.7,-35.7l0,-107.1c0,-19.8 16,-35.7 35.7,-35.7l0,0z" stroke-width="5" stroke-miterlimit="10" stroke-dasharray=""></path><path data-v-9833e8b2="" transform="scale(0.1388888888888889)" fill="none" stroke="currentColor" paint-order="fill stroke markers" d="m26,21.4l35.7,0l0,14.3l-35.7,0l0,-14.3l0,0z" stroke-width="5" stroke-miterlimit="10" stroke-dasharray=""></path><path data-v-9833e8b2="" transform="scale(0.1388888888888889)" fill="none" stroke="currentColor" paint-order="fill stroke markers" d="m86.7,36.7l85.7,0l0,7.1l-85.7,0l0,-7.1l0,0z" stroke-width="5" stroke-miterlimit="10" stroke-dasharray=""></path><path data-v-9833e8b2="" transform="scale(0.1388888888888889)" fill="none" stroke="currentColor" paint-order="fill stroke markers" d="m86.7,50.9l85.7,0l0,7.1l-85.7,0l0,-7.1l0,0z" stroke-width="5" stroke-miterlimit="10" stroke-dasharray=""></path><path data-v-9833e8b2="" transform="scale(0.1388888888888889)" fill="none" stroke="currentColor" paint-order="fill stroke markers" d="m86.7,122.3l85.7,0l0,7.1l-85.7,0l0,-7.1l0,0z" stroke-width="5" stroke-miterlimit="10" stroke-dasharray=""></path><path data-v-9833e8b2="" transform="scale(0.1388888888888889)" fill="none" stroke="currentColor" paint-order="fill stroke markers" d="m86.7,136.6l85.7,0l0,7.1l-85.7,0l0,-7.1l0,0z" stroke-width="5" stroke-miterlimit="10" stroke-dasharray=""></path></g></svg>