<svg data-v-9833e8b2="" version="1.1" xmlns="http://www.w3.org/2000/svg" xmlns:xlink="http://www.w3.org/1999/xlink" width="25" height="22.5"><g data-v-9833e8b2=""><path data-v-9833e8b2="" transform="scale(0.13513513513513514)" fill="none" stroke="currentColor" paint-order="fill stroke markers" d="m4.6,99.8l176.3,0l0,70.5l-176.3,0l0,-70.5l0,0z" stroke-width="5" stroke-miterlimit="10" stroke-dasharray=""></path><path data-v-9833e8b2="" transform="scale(0.13513513513513514)" fill="none" stroke="currentColor" paint-order="fill stroke markers" d="m39.8,124.5l21.2,0l0,21.2l-21.2,0l0,-21.2l0,0z" stroke-width="5" stroke-miterlimit="10" stroke-dasharray=""></path><path data-v-9833e8b2="" transform="scale(0.13513513513513514)" fill="none" stroke="currentColor" paint-order="fill stroke markers" d="m82.1,124.5l21.2,0l0,21.2l-21.2,0l0,-21.2l0,0z" stroke-width="5" stroke-miterlimit="10" stroke-dasharray=""></path><path data-v-9833e8b2="" transform="scale(0.13513513513513514)" fill="none" stroke="currentColor" paint-order="fill stroke markers" d="m124.4,124.5l21.2,0l0,21.2l-21.2,0l0,-21.2l0,0z" stroke-width="5" stroke-miterlimit="10" stroke-dasharray=""></path><path data-v-9833e8b2="" transform="scale(0.13513513513513514)" fill="none" stroke="currentColor" paint-order="fill stroke markers" d="m92.7,18.7c-40.9,0 -74,33.1 -74,74l-17.7,0c0,-50.6 41,-91.7 91.7,-91.7c50.6,0 91.7,41 91.7,91.7l-17.7,0c0,-40.8 -33.1,-74 -74,-74l0,0z" stroke-width="5" stroke-miterlimit="10" stroke-dasharray=""></path><path data-v-9833e8b2="" transform="scale(0.13513513513513514)" fill="none" stroke="currentColor" paint-order="fill stroke markers" d="m92.7,32.8c33.1,0 59.9,26.8 59.9,59.9l-17.6,0c0,-23.4 -18.9,-42.3 -42.3,-42.3c-23.4,0 -42.3,18.9 -42.3,42.3l-17.6,0c0,-33 26.8,-59.9 59.9,-59.9l0,0z" stroke-width="5" stroke-miterlimit="10" stroke-dasharray=""></path><path data-v-9833e8b2="" transform="scale(0.13513513513513514)" fill="none" stroke="currentColor" paint-order="fill stroke markers" d="m92.7,64.5c15.6,0 28.2,12.6 28.2,28.2l-56.4,0c0,-15.5 12.6,-28.2 28.2,-28.2l0,0z" stroke-width="5" stroke-miterlimit="10" stroke-dasharray=""></path></g></svg>