<svg data-v-9833e8b2="" version="1.1" xmlns="http://www.w3.org/2000/svg" xmlns:xlink="http://www.w3.org/1999/xlink" width="22" height="25"><g data-v-9833e8b2=""><path data-v-9833e8b2="" transform="scale(0.1366120218579235)" fill="none" stroke="currentColor" paint-order="fill stroke markers" d="m150.00002,155.3c0.2,0.8 0.4,1.6 0.4,2.5c0,13.7 -33.4,24.9 -74.7,24.9c-41.2,0 -74.7,-11.1 -74.7,-24.9c0,-0.8 0.1,-1.7 0.4,-2.5l-0.4,0l0.7,-0.9c0.9,-2.1 2.5,-4.1 4.8,-6.1l44.2,-55.3l49.8,0l44.2,55.3c2.3,1.9 4,3.9 4.8,6.1l0.7,0.9l-0.2,0z" stroke-width="5" stroke-miterlimit="10" stroke-dasharray=""></path><path data-v-9833e8b2="" transform="scale(0.1366120218579235)" fill="none" stroke="currentColor" paint-order="fill stroke markers" d="m75.70002,1c33,0 59.7,26.7 59.7,59.7c0,33 -26.7,59.7 -59.7,59.7c-33,0 -59.7,-26.7 -59.7,-59.7c0,-33 26.7,-59.7 59.7,-59.7l0,0z" stroke-width="5" stroke-miterlimit="10" stroke-dasharray=""></path><path data-v-9833e8b2="" transform="scale(0.1366120218579235)" fill="none" stroke="currentColor" paint-order="fill stroke markers" d="m75.70002,42.6c17,0 30.8,13.8 30.8,30.8c0,17 -13.8,30.8 -30.8,30.8c-17,0 -30.8,-13.8 -30.8,-30.8c0,-17 13.8,-30.8 30.8,-30.8l0,0z" stroke-width="5" stroke-miterlimit="10" stroke-dasharray=""></path><path data-v-9833e8b2="" transform="scale(0.1366120218579235)" fill="none" stroke="currentColor" paint-order="fill stroke markers" d="m65.70002,18.4l20,0l0,10l-20,0l0,-10l0,0z" stroke-width="5" stroke-miterlimit="10" stroke-dasharray=""></path></g></svg>