<svg data-v-9833e8b2="" version="1.1" xmlns="http://www.w3.org/2000/svg" xmlns:xlink="http://www.w3.org/1999/xlink" width="25" height="25"><g data-v-9833e8b2=""><path data-v-9833e8b2="" transform="scale(0.12437810945273632)" fill="none" stroke="currentColor" paint-order="fill stroke markers" d="m110.13374,183.01872c6.99987,-14.84518 8.95892,-33.10847 5.88171,-52.79902c6.71806,6.84987 11.75887,14.83609 9.79982,27.96766c-1.11816,9.99072 2.51813,16.27242 5.88171,19.9769c5.88171,6.2817 13.99974,8.27712 19.59964,8.27712l1.11816,0c22.67685,-1.13634 40.03562,-43.09465 43.11738,-51.08541c6.43624,-16.55424 9.518,-49.94452 -4.19992,-68.78054c-6.71806,-9.13619 -15.95879,-13.69974 -27.99948,-12.84521c-15.39971,1.14089 -31.35851,8.27712 -46.47641,20.26326c-0.28181,-0.28636 -0.55908,-0.57272 -1.11816,-0.57272c2.23632,-7.98622 6.71806,-15.69516 18.19966,-20.54507c8.95438,-3.99993 12.87703,-10.27254 13.99974,-15.12699c2.51359,-8.84984 -0.28636,-17.40877 -3.08176,-22.26322c-12.59977,-19.69054 -56.27168,-13.98156 -64.95334,-12.84522c-17.08605,2.57268 -47.59911,16.27242 -56.27623,37.67657c-4.48173,10.27254 -3.08176,21.11779 3.07721,30.82215c8.95892,13.69974 23.24048,23.97228 42.27649,31.39487c-9.24074,2.28178 -18.19966,2.56813 -28.55856,-5.42263c-7.83622,-5.99534 -15.1179,-5.99534 -19.8769,-4.85446c-8.68166,1.99996 -14.84063,8.84984 -17.07695,14.27246c-10.64071,20.83598 16.23606,56.7944 21.83596,63.64427c10.64071,13.41339 34.43572,30.82215 55.99896,30.82215c1.39543,0 2.7954,0 4.47264,-0.28636c10.64071,-0.28181 19.31782,-6.84533 24.36318,-17.69058l-0.00455,0zm-25.75406,-81.90757c0,-9.42255 7.55895,-17.12696 16.79969,-17.12695c9.23619,0 16.79514,7.7044 16.79514,17.12241s-7.55895,17.12241 -16.79514,17.12241c-9.52255,0 -16.79969,-7.41804 -16.79969,-17.12241l0,0.00455zm80.35305,-32.82666c6.71806,-0.56817 11.75433,1.42725 15.39517,6.85442c8.96347,12.2725 8.40439,38.52656 1.9636,54.50808c-8.68166,22.54504 -22.11777,41.66741 -30.51761,41.95376c-2.24087,0 -6.71806,-0.85453 -9.518,-3.99538c-1.68179,-1.99996 -2.52268,-4.84991 -1.9636,-8.27712c2.24087,-19.69054 -6.43624,-32.2494 -13.99974,-39.9538a32.18122,32.18122 0 0 0 6.16352,-18.84056c0,-6.27261 -1.68179,-11.98614 -4.759,-16.54969c12.59522,-9.13619 24.91772,-14.84518 37.23567,-15.69971zm-125.7113,-5.42262c-3.91811,-5.70444 -4.47719,-11.41343 -1.95451,-16.55424c6.15898,-13.98156 28.55401,-26.54042 45.3537,-29.10855c23.51774,-3.71357 46.47641,-0.85907 50.67178,5.9908c1.12271,1.99996 2.52268,6.56806 1.68179,10.27254c-0.84089,2.57268 -2.51814,4.5681 -5.87716,5.99989c-15.96334,7.13623 -22.68139,18.83601 -26.31769,30.24944l-1.40452,0c-12.87703,0 -23.51774,7.99076 -28.55402,19.12237c-15.39971,-6.84987 -26.5995,-15.4088 -33.59937,-25.97224zm57.95347,113.87515c-2.7954,6.27716 -7.27259,9.41801 -13.43611,10.27254c-14.84063,1.71361 -36.95386,-12.2725 -47.59002,-25.39953c-15.12245,-18.26784 -23.8041,-39.9538 -19.88145,-47.37639c1.11816,-1.99996 4.19992,-5.70899 7.83622,-6.56351c2.52268,-0.57272 5.32263,0 8.12258,2.28178c15.95425,12.55886 30.79488,10.84525 41.71286,7.41804c5.5999,9.70437 15.68153,16.27243 27.4404,16.27243l0.55908,0c2.79995,16.26788 0.84089,31.39487 -4.759,43.09465l-0.00454,0z" stroke-width="5" stroke-miterlimit="10" stroke-dasharray=""></path></g></svg>