<svg data-v-9833e8b2="" version="1.1" xmlns="http://www.w3.org/2000/svg" xmlns:xlink="http://www.w3.org/1999/xlink" width="24.5" height="25"><g data-v-9833e8b2=""><path data-v-9833e8b2="" transform="scale(0.12376237623762376)" fill="none" stroke="currentColor" paint-order="fill stroke markers" d="m172.51281,1.0026l-164.81372,0c-3.59812,-0.09995 -6.4966,2.69859 -6.6965,6.19676l0,187.10206c-0.09995,3.59812 2.69859,6.4966 6.19676,6.6965l164.81372,0c3.59812,0.09995 6.4966,-2.69859 6.6965,-6.19676l0,-187.10206c0.09995,-3.59812 -2.69859,-6.59655 -6.19676,-6.6965l0,0zm-117.63842,147.62272c0,1.49921 -1.19937,2.79853 -2.79853,2.79853l-30.48404,0c-1.49921,0 -2.79853,-1.19937 -2.79853,-2.79853l0,-30.58399c0,-1.49922 1.19937,-2.79854 2.79853,-2.79854l30.58399,0c1.49921,0 2.79853,1.19937 2.79853,2.79854l0,30.58399l-0.09995,0zm0,-50.17374c0,1.49922 -1.19937,2.79854 -2.79853,2.79854l-30.48404,0c-1.49921,0 -2.79853,-1.19937 -2.79853,-2.79854l0,-30.58399c0,-1.49921 1.19937,-2.79853 2.79853,-2.79853l30.58399,0c1.49921,0 2.79853,1.19937 2.79853,2.79853l0,30.58399l-0.09995,0zm0,-50.17373c0,1.49921 -1.19937,2.79853 -2.79853,2.79853l-30.48404,0c-1.49921,0 -2.79853,-1.19937 -2.79853,-2.79853l0,-30.58399c0,-1.49921 1.19937,-2.79853 2.79853,-2.79853l30.58399,0c1.49921,0 2.79853,1.19937 2.79853,2.79853l0,30.58399l-0.09995,0zm53.37206,100.34747c0,1.49921 -1.19937,2.79853 -2.79853,2.79853l-30.58399,0c-1.49922,0 -2.79854,-1.19937 -2.79854,-2.79853l0,-30.58399c0,-1.49922 1.19937,-2.79854 2.79854,-2.79854l30.58399,0c1.49921,0 2.79853,1.19937 2.79853,2.79854l0,30.58399zm0,-50.17374c0,1.49922 -1.19937,2.79854 -2.79853,2.79854l-30.58399,0c-1.49922,0 -2.79854,-1.19937 -2.79854,-2.79854l0,-30.58399c0,-1.49921 1.19937,-2.79853 2.79854,-2.79853l30.58399,0c1.49921,0 2.79853,1.19937 2.79853,2.79853l0,30.58399zm0,-50.17373c0,1.49921 -1.19937,2.79853 -2.79853,2.79853l-30.58399,0c-1.49922,0 -2.79854,-1.19937 -2.79854,-2.79853l0,-30.58399c0,-1.49921 1.19937,-2.79853 2.79854,-2.79853l30.58399,0c1.49921,0 2.79853,1.19937 2.79853,2.79853l0,30.58399zm52.67243,100.34747c0,1.49921 -1.19937,2.79853 -2.79853,2.79853l-30.58399,0c-1.49921,0 -2.79853,-1.19937 -2.79853,-2.79853l0,-30.58399c0,-1.49922 1.19937,-2.79854 2.79853,-2.79854l30.58399,0c1.49921,0 2.79853,1.19937 2.79853,2.79854l0,30.58399zm0,-50.17374c0,1.49922 -1.19937,2.79854 -2.79853,2.79854l-30.58399,0c-1.49921,0 -2.79853,-1.19937 -2.79853,-2.79854l0,-30.58399c0,-1.49921 1.19937,-2.79853 2.79853,-2.79853l30.58399,0c1.49921,0 2.79853,1.19937 2.79853,2.79853l0,30.58399zm0,-50.17373c0,1.49921 -1.19937,2.79853 -2.79853,2.79853l-30.58399,0c-1.49921,0 -2.79853,-1.19937 -2.79853,-2.79853l0,-30.58399c0,-1.49921 1.19937,-2.79853 2.79853,-2.79853l30.58399,0c1.49921,0 2.79853,1.19937 2.79853,2.79853l0,30.58399z" stroke-width="5" stroke-miterlimit="10" stroke-dasharray=""></path></g></svg>