<svg data-v-9833e8b2="" version="1.1" xmlns="http://www.w3.org/2000/svg" xmlns:xlink="http://www.w3.org/1999/xlink" width="25" height="22.5"><g data-v-9833e8b2=""><path data-v-9833e8b2="" transform="scale(0.12376237623762376)" fill="none" stroke="currentColor" paint-order="fill stroke markers" d="m201.04865,1l-200.04865,0l0,41.6768l16.67072,0l0,133.36577l166.70721,0l0,-133.36577l16.67072,0l0,-41.6768zm-33.34144,158.37185l-133.36577,0l0,-16.67072l133.36577,0l0,16.67072zm0,-33.34144l-133.36577,0l0,-16.67072l133.36577,0l0,16.67072zm0,-33.34144l-133.36577,0l0,-16.67072l133.36577,0l0,16.67072zm0,-33.34144l-133.36577,0l0,-16.67072l133.36577,0l0,16.67072z" stroke-width="5" stroke-miterlimit="10" stroke-dasharray=""></path></g></svg>