<svg data-v-9833e8b2="" version="1.1" xmlns="http://www.w3.org/2000/svg" xmlns:xlink="http://www.w3.org/1999/xlink" width="24.5" height="25"><g data-v-9833e8b2=""><path data-v-9833e8b2="" transform="scale(0.12886597938144329)" fill="none" stroke="currentColor" paint-order="fill stroke markers" d="m7.41549,1a6.41811,6.41811 0 0 0 -6.41549,6.41549l0,179.67824a6.41811,6.41811 0 0 0 6.41549,6.4181l158.28804,0a6.41811,6.41811 0 0 0 6.41549,-6.4181l0,-179.67824a6.41811,6.41811 0 0 0 -6.41549,-6.41549l-158.28804,0zm158.82332,177.00447a6.41811,6.41811 0 0 1 -6.41549,6.41811l-146.51977,0a6.41811,6.41811 0 0 1 -6.42072,-6.41811l0,-161.92531a6.41811,6.41811 0 0 1 6.42072,-6.4155l5.13083,0a22.53909,22.53909 0 0 0 6.41549,0l0,-1.92439a6.83327,6.83327 0 0 1 3.31611,-0.9635c1.82778,0 3.3135,0 3.3135,0.9635s-0.96089,0.9635 -2.1385,0.9635l-2.1385,0a22.62004,22.62004 0 0 0 6.41811,0l104.3843,0a22.6122,22.6122 0 0 0 6.41549,0l-2.12805,0c-1.17761,0 -2.1385,0 -2.1385,-0.9635s1.49617,-0.9635 3.31611,-0.9635s3.31611,0 3.31611,0.9635l0,1.38911a22.53909,22.53909 0 0 0 6.41549,0l6.41811,0a6.41549,6.41549 0 0 1 6.41549,6.41811l0.20367,162.45798zm0,0" stroke-width="5" stroke-miterlimit="10" stroke-dasharray=""></path><path data-v-9833e8b2="" transform="scale(0.12886597938144329)" fill="none" stroke="currentColor" paint-order="fill stroke markers" d="m27.30953,14.47593l0,0.74939l8.02133,0l0,2.55889l-8.02133,0l0,2.88789l-2.56672,0l0,-2.88789l-8.02133,0l0,-2.66594l8.02133,0l0,-0.64233l-13.15477,0l0,21.93331l1.82778,0l0,16.25676l-1.82778,0l0,33.89481l1.82778,0l0,16.25677l-1.82778,0l0,34.11675l1.82778,0l0,16.25676l-1.82778,0l0,26.41659l73.79777,0l0,-165.13175l-58.07628,0zm25.45309,72.62016l17.22026,0l0,4.91933l-17.21765,0l-0.00261,-4.91933zm23.42165,29.62564l-12.29832,0l0,-22.3537l8.34249,0l0,-9.62455l-8.34249,0l0,-6.84633l12.19388,0l0.10445,38.82458zm0,0m83.53199,-64.06356l0,-16.25677l1.82778,0l0,-21.93331l-14.55171,0l0,0.75722l8.01611,0l0,2.55889l-8.01611,0l0,2.88789l-2.45966,0l0,-2.88789l-8.02394,0l0,-2.66594l8.02132,0l0,-0.64233l-56.79162,0l0,165.13175l73.79516,0l0,-26.20248l-1.82778,0l0,-16.25677l1.82778,0l0,-34.11675l-1.82778,0l0,-16.47088l1.82778,0l0,-33.90264l-1.81733,0zm-50.58501,64.17061l-12.51766,0l0,-38.93163l12.19127,0l0,6.84372l-8.33988,0l0,9.62716l8.34249,0l0.32378,22.46076zm10.70555,-24.70631l-16.8051,0l0,-5.02639l17.32732,0l-0.52222,5.02639zm0,0" stroke-width="5" stroke-miterlimit="10" stroke-dasharray=""></path></g></svg>