<svg data-v-9833e8b2="" version="1.1" xmlns="http://www.w3.org/2000/svg" xmlns:xlink="http://www.w3.org/1999/xlink" width="25" height="25"><g data-v-9833e8b2=""><path data-v-9833e8b2="" transform="scale(0.1893939393939394)" fill="none" stroke="currentColor" paint-order="fill stroke markers" d="m112.00028,1l-92.00023,0a19.02005,19.02005 0 0 0 -19.00005,19.00005l0,92.00023a19.02005,19.02005 0 0 0 19.00005,19.00005l92.00023,0a19.02005,19.02005 0 0 0 19.00005,-19.00005l0,-92.00023a19.02005,19.02005 0 0 0 -19.00005,-19.00005zm13.00003,19.00005l0,43.00011l-16.00004,0l0,-29.00007a11.02003,11.02003 0 0 0 -11.00003,-11.00003l-29.00007,0l0,-16.00004l43.00011,0a13.02003,13.02003 0 0 1 13.00003,13.00003zm-96.00024,49.00012l14.00004,0l0,13.00003a7.00002,7.00002 0 0 0 7.00002,7.00002l13.00003,0l0,14.00004l-29.00007,0a5.00001,5.00001 0 0 1 -5.00001,-5.00001l0,-29.00007zm54.00014,-6.00002l-14.00004,0l0,-14.00004l13.00003,0a1,1 0 0 1 1,1l0,13.00003zm-34.00009,6.00002l14.00004,0l0,14.00004l-13.00003,0a1,1 0 0 1 -1,-1l0,-13.00003zm20.00005,0l14.00004,0l0,13.00003a1,1 0 0 1 -1,1l-13.00003,0l0,-14.00004zm-6.00002,-6.00002l-14.00004,0l0,-13.00003a1,1 0 0 1 1,-1l13.00003,0l0,14.00004zm-13.00003,-20.00005a7.00002,7.00002 0 0 0 -7.00002,7.00002l0,13.00003l-14.00004,0l0,-29.00007a5.00001,5.00001 0 0 1 5.00001,-5.00001l29.00007,0l0,14.00004l-13.00003,0zm19.00005,46.00012l13.00003,0a7.00002,7.00002 0 0 0 7.00002,-7.00002l0,-13.00003l14.00004,0l0,29.00007a5.00001,5.00001 0 0 1 -5.00001,5.00001l-29.00007,0l0,-14.00004zm20.00005,-26.00007l0,-13.00003a7.00002,7.00002 0 0 0 -7.00002,-7.00002l-13.00003,0l0,-14.00004l29.00007,0a5.00001,5.00001 0 0 1 5.00001,5.00001l0,29.00007l-14.00004,0zm-69.00017,-56.00014l43.00011,0l0,16.00004l-29.00007,0a11.02003,11.02003 0 0 0 -11.00003,11.00003l0,29.00007l-16.00004,0l0,-43.00011a13.02003,13.02003 0 0 1 13.00003,-13.00003zm-13.00003,105.00026l0,-43.00011l16.00004,0l0,29.00007a11.02003,11.02003 0 0 0 11.00003,11.00003l29.00007,0l0,16.00004l-43.00011,0a13.02003,13.02003 0 0 1 -13.00003,-13.00003zm105.00026,13.00003l-43.00011,0l0,-16.00004l29.00007,0a11.02003,11.02003 0 0 0 11.00003,-11.00003l0,-29.00007l16.00004,0l0,43.00011a13.02003,13.02003 0 0 1 -13.00003,13.00003z" stroke-width="5" stroke-miterlimit="10" stroke-dasharray=""></path></g></svg>