<svg data-v-9833e8b2="" version="1.1" xmlns="http://www.w3.org/2000/svg" xmlns:xlink="http://www.w3.org/1999/xlink" width="25" height="20"><g data-v-9833e8b2=""><path data-v-9833e8b2="" transform="scale(0.12376237623762376)" fill="none" stroke="currentColor" paint-order="fill stroke markers" d="m182.90157,1c10.03771,0 18.18571,12.21644 18.18571,27.28968c0,15.06213 -8.148,27.27857 -18.18571,27.27857c-7.92568,0 -14.66195,-7.5922 -17.15193,-18.18571l-38.97256,0a27.35638,27.35638 0 0 1 -16.62948,16.64059l0,37.93877l37.38297,0c5.02441,0 9.09286,4.06844 9.09286,9.09286l0,55.5798l-111.1596,0l0,-55.59092c0,-5.02441 4.06844,-9.09285 9.09286,-9.09285l37.39409,0l0,-37.93877a27.35638,27.35638 0 0 1 -16.64059,-16.62948l-38.96144,0c-2.48998,10.59351 -9.22625,18.18571 -17.15193,18.18571c-10.04883,0.01112 -18.19683,-12.21644 -18.19683,-27.27857c0,-15.07324 8.148,-27.28968 18.18571,-27.28968c7.9368,0 14.66195,7.5922 17.16304,18.18571l38.96144,0a27.3008,27.3008 0 0 1 51.4669,0l38.96144,0c2.50109,-10.59351 9.23736,-18.18571 17.16304,-18.18571zm-48.51005,100.04364l-66.69576,0l0,22.23192l66.69576,0l0,-22.23192zm-119.75224,-95.4861c-5.02442,0 -9.08174,10.15999 -9.08174,22.72102s4.05733,22.74326 9.08174,22.74326c5.02441,0 9.09285,-10.18222 9.09285,-22.73214c0,-12.56104 -4.06844,-22.74325 -9.09285,-22.74325l0,0.01112zm90.95079,0c-10.04883,0 -18.18571,10.1711 -18.18571,22.73214s8.13688,22.73214 18.18571,22.73214c10.04883,0 18.18571,-10.18222 18.18571,-22.73214c0,-12.56104 -8.13688,-22.74325 -18.18571,-22.74325l0,0.01112z" stroke-width="5" stroke-miterlimit="10" stroke-dasharray=""></path></g></svg>