<svg data-v-9833e8b2="" version="1.1" xmlns="http://www.w3.org/2000/svg" xmlns:xlink="http://www.w3.org/1999/xlink" width="24.5" height="25"><g data-v-9833e8b2=""><path data-v-9833e8b2="" transform="scale(0.13227513227513227)" fill="none" stroke="currentColor" paint-order="fill stroke markers" d="m176.00044,57.25014l-67.17517,0l-0.78125,-25.00006l18.53755,0c1.29375,3.63126 4.72501,6.25002 8.80002,6.25002s7.51252,-2.61876 8.80002,-6.25002l19.3188,0l0,-12.50003l-55.85639,0l-0.5875,-18.75005l-30.86258,0l-0.5875,18.75005l-62.10641,0l0,12.50003l19.32505,0c1.2875,3.63126 4.72501,6.25002 8.80002,6.25002s7.51252,-2.61876 8.80002,-6.25002l24.78756,0l-0.7875,25.00006l-73.42518,0l0,12.50003l19.32505,0c1.29375,3.63126 4.72501,6.25002 8.80002,6.25002s7.51252,-2.61876 8.80002,-6.25002l36.10634,0l-3.73126,118.7503l42.64386,0l-3.73126,-118.7503l29.85633,0c1.29375,3.63126 4.72501,6.25002 8.80002,6.25002s7.51252,-2.61876 8.80002,-6.25002l19.3313,0l0,-12.50003zm-92.80023,118.7503l5.10626,-162.50041l6.63752,0l5.10626,162.50041l-16.85004,0z" stroke-width="5" stroke-miterlimit="10" stroke-dasharray=""></path></g></svg>