<svg data-v-9833e8b2="" version="1.1" xmlns="http://www.w3.org/2000/svg" xmlns:xlink="http://www.w3.org/1999/xlink" width="25" height="25"><g data-v-9833e8b2=""><path data-v-9833e8b2="" transform="scale(0.12376237623762376)" fill="none" stroke="currentColor" paint-order="fill stroke markers" d="m101.00025,201.0005c-55.00014,0 -100.00025,-45.00011 -100.00025,-100.00025s45.00011,-100.00025 100.00025,-100.00025c11.6667,0 23.33339,2.50001 35.00009,5.83335c4.16668,1.66667 6.66668,6.66668 5.00001,10.83336c-1.66667,4.16668 -6.66668,6.66668 -10.83336,5.00001c-9.16669,-3.33334 -19.16671,-5.00001 -29.16674,-5.00001c-45.83345,0 -83.33354,37.50009 -83.33354,83.33354s37.50009,83.33354 83.33354,83.33354s83.33354,-37.50009 83.33354,-83.33354c0,-15.00004 -4.16668,-29.16674 -11.6667,-41.66677c-2.50001,-4.16668 -0.83333,-9.16669 3.33334,-11.6667c4.16668,-2.50001 9.16669,-0.83333 11.6667,3.33334c8.33335,15.00004 13.33337,32.50008 13.33337,50.00013c0,55.00014 -45.00011,100.00025 -100.00025,100.00025z" stroke-width="5" stroke-miterlimit="10" stroke-dasharray=""></path><path data-v-9833e8b2="" transform="scale(0.12376237623762376)" fill="none" stroke="currentColor" paint-order="fill stroke markers" d="m101.00025,151.83371c-3.33334,0 -5.83335,-1.66667 -7.50002,-5.00001l-34.16675,-71.66685c-1.66667,-4.16668 0,-9.16669 4.16668,-10.83336c4.16668,-1.66667 9.16669,0 10.83336,4.16668l26.66673,56.66681l26.66673,-57.50014c1.66667,-4.16668 6.66668,-5.83335 10.83336,-4.16668c4.16668,1.66667 5.83335,6.66668 4.16668,10.83336l-34.16675,71.66685c-1.66667,4.16668 -4.16668,5.83335 -7.50002,5.83335z" stroke-width="5" stroke-miterlimit="10" stroke-dasharray=""></path></g></svg>