<svg data-v-9833e8b2="" version="1.1" xmlns="http://www.w3.org/2000/svg" xmlns:xlink="http://www.w3.org/1999/xlink" width="25" height="15"><g data-v-9833e8b2=""><path data-v-9833e8b2="" transform="scale(0.12376237623762376)" fill="none" stroke="currentColor" paint-order="fill stroke markers" d="m155.16705,1l-133.33367,0c-11.6667,0 -20.83339,9.16669 -20.83339,20.83339l0,75.00019c0,11.6667 9.16669,20.83339 20.83339,20.83339l133.33367,0c11.6667,0 20.83339,-9.16669 20.83339,-20.83339l0,-75.00019c0,-11.6667 -9.16669,-20.83339 -20.83339,-20.83339zm4.16668,95.83358c0,2.50001 -1.66667,4.16668 -4.16668,4.16668l-133.33367,0c-2.50001,0 -4.16668,-1.66667 -4.16668,-4.16668l0,-75.00019c0,-2.50001 1.66667,-4.16668 4.16668,-4.16668l133.33367,0c2.50001,0 4.16668,1.66667 4.16668,4.16668l0,75.00019z" stroke-width="5" stroke-miterlimit="10" stroke-dasharray=""></path><path data-v-9833e8b2="" transform="scale(0.12376237623762376)" fill="none" stroke="currentColor" paint-order="fill stroke markers" d="m41.0001,34.33342c-5.00001,0 -8.33335,3.33334 -8.33335,8.33335l0,33.33342c0,5.00001 3.33334,8.33335 8.33335,8.33335s8.33335,-3.33334 8.33335,-8.33335l0,-33.33342c0,-5.00001 -3.33334,-8.33335 -8.33335,-8.33335zm31.66675,0c-5.00001,0 -8.33335,3.33334 -8.33335,8.33335l0,33.33342c0,5.00001 3.33334,8.33335 8.33335,8.33335s8.33335,-3.33334 8.33335,-8.33335l0,-33.33342c0,-5.00001 -3.33334,-8.33335 -8.33335,-8.33335zm31.66675,0c-5.00001,0 -8.33335,3.33334 -8.33335,8.33335l0,33.33342c0,5.00001 3.33334,8.33335 8.33335,8.33335s8.33335,-3.33334 8.33335,-8.33335l0,-33.33342c0,-5.00001 -3.33334,-8.33335 -8.33335,-8.33335zm31.66675,0c-5.00001,0 -8.33335,3.33334 -8.33335,8.33335l0,33.33342c0,5.00001 3.33334,8.33335 8.33335,8.33335s8.33335,-3.33334 8.33335,-8.33335l0,-33.33342c0,-5.00001 -3.33334,-8.33335 -8.33335,-8.33335zm56.66681,0l-8.33335,0l0,50.00013l8.33335,0c5.00001,0 8.33335,-3.33334 8.33335,-8.33335l0,-33.33342c0,-5.00001 -3.33334,-8.33335 -8.33335,-8.33335z" stroke-width="5" stroke-miterlimit="10" stroke-dasharray=""></path></g></svg>