<svg data-v-9833e8b2="" version="1.1" xmlns="http://www.w3.org/2000/svg" xmlns:xlink="http://www.w3.org/1999/xlink" width="24.5" height="25"><g data-v-9833e8b2=""><path data-v-9833e8b2="" transform="scale(0.16778523489932887)" fill="none" stroke="currentColor" paint-order="fill stroke markers" d="m6.26668,1l126.13365,0c2.90001,0 5.26668,2.36667 5.26668,5.26668l0,136.63368c0,2.90001 -2.36667,5.26668 -5.26668,5.26668l-126.13365,0c-2.90001,0 -5.26668,-2.36667 -5.26668,-5.26668l0,-136.63368c0,-2.90001 2.36667,-5.26668 5.26668,-5.26668zm120.86697,11.13336l-115.63363,-0.06667l0,41.46677l115.63363,0l0,-41.4001zm-93.30023,9.90002l10.50003,0l0,21.03338l-10.50003,0l0,-21.03338zm10.53336,0l0,21.03338l-10.50003,0l0,-21.03338l10.50003,0zm21.03338,0l10.50003,0l0,21.03338l-10.50003,0l0,-21.03338zm10.50003,0l0,21.03338l-10.50003,0l0,-21.03338l10.50003,0zm21.03339,0l10.50003,0l0,21.03338l-10.50003,0l0,-21.03338zm10.50003,0l0,21.03338l-10.50003,0l0,-21.03338l10.50003,0zm-16.10004,39.46677l-34.56675,0l-17.26671,38.9001l14.93337,0l-10.60003,38.43343l43.20011,-46.33345l-15.83337,0l20.13338,-31.00008z" stroke-width="5" stroke-miterlimit="10" stroke-dasharray=""></path></g></svg>