<svg data-v-9833e8b2="" version="1.1" xmlns="http://www.w3.org/2000/svg" xmlns:xlink="http://www.w3.org/1999/xlink" width="25" height="15"><g data-v-9833e8b2=""><path data-v-9833e8b2="" transform="scale(0.15151515151515152)" fill="none" stroke="currentColor" paint-order="fill stroke markers" d="m88.50022,26.00006l15.00004,0l-25.00006,25.00006l1.66667,-12.50003l-10.00003,0l20.83338,-25.00006l-2.50001,12.50003zm0.83334,66.66683c12.50003,0 25.00006,1.66667 36.66676,4.16668l26.66674,-74.16685c-21.66672,-9.16669 -45.83345,-13.33337 -70.00018,-13.33337s-49.16679,4.16668 -70.83351,13.33337l26.66673,74.16685c12.50003,-2.50001 24.16673,-3.33334 37.50009,-4.16668l6.66668,-33.33342l6.66668,33.33342zm-6.66668,-91.6669c29.16674,0 56.66681,5.83335 81.66687,16.66671l-32.50008,88.33356c-15.83337,-4.16668 -32.50008,-5.83335 -49.16679,-5.83335s-33.33342,1.66667 -49.16679,5.83335l-32.50008,-88.33356c25.00006,-10.83336 52.50013,-16.66671 81.66687,-16.66671z" stroke-width="5" stroke-miterlimit="10" stroke-dasharray=""></path></g></svg>