<svg data-v-9833e8b2="" version="1.1" xmlns="http://www.w3.org/2000/svg" xmlns:xlink="http://www.w3.org/1999/xlink" width="24.5" height="25"><g data-v-9833e8b2=""><path data-v-9833e8b2="" transform="scale(0.13297872340425532)" fill="none" stroke="currentColor" paint-order="fill stroke markers" d="m136.78981,51.00013l-105.26342,0c-4.21054,0 -7.89476,3.68422 -7.89476,7.89476l0,26.31586c0,4.21054 3.68422,7.89476 7.89476,7.89476l105.26342,0c4.21054,0 7.89476,-3.68422 7.89476,-7.89476l0,-26.31586c0,-4.73685 -3.68422,-7.89476 -7.89476,-7.89476zm-60.00015,34.21061l7.89476,-26.84217l24.7369,0l-7.89476,26.84217l-24.73691,0zm-45.78959,-0.52632l0.52632,-26.31586l45.78959,0l-7.89476,26.84217l-38.42115,-0.52632zm106.31606,0c0,0.52632 -0.52632,0.52632 0,0l-27.89481,0l7.89476,-26.84217l20.00005,0l0,26.84217zm2.10527,28.94744l-41.57905,0c-2.10527,0 -3.68422,1.57895 -3.68422,3.68422s1.57895,3.68422 3.68422,3.68422l41.57905,0c2.10527,0 3.68422,-1.57895 3.68422,-3.68422s-1.57895,-3.68422 -3.68422,-3.68422zm-99.47393,0l-12.63161,0c-2.10527,0 -3.68422,1.57895 -3.68422,3.68422s1.57895,3.68422 3.68422,3.68422l12.63161,0c2.10527,0 3.68422,-1.57895 3.68422,-3.68422s-1.57895,-3.68422 -3.68422,-3.68422zm28.94744,0l-13.15793,0c-2.10527,0 -3.68422,1.57895 -3.68422,3.68422s1.57895,3.68422 3.68422,3.68422l13.15793,0c2.10527,0 3.68422,-1.57895 3.68422,-3.68422s-1.57895,-3.68422 -3.68422,-3.68422z" stroke-width="5" stroke-miterlimit="10" stroke-dasharray=""></path><path data-v-9833e8b2="" transform="scale(0.13297872340425532)" fill="none" stroke="currentColor" paint-order="fill stroke markers" d="m157.8425,28.89481l-10.52634,0l-7.89476,-13.68425c-5.78949,-9.47371 -14.73688,-13.68424 -26.84217,-14.21056l-55.78962,0c-12.63161,0 -22.10532,4.73685 -27.89481,14.21056l-7.36844,13.68425l-11.05266,0c-5.26317,0 -9.47371,4.21054 -9.47371,9.47371l0,94.73708c0,5.26317 4.21054,9.47371 9.47371,9.47371l15.2632,0l0,24.21059c0.52632,0.52632 0.52632,0.52632 0.52632,1.05264l12.10529,12.10529c6.3158,6.31581 10.00003,7.36844 18.4211,7.36844l54.73698,0c8.42107,0 12.10529,-1.05263 18.4211,-7.36844l12.10529,-12.10529c0,-0.52632 0.52632,-0.52632 0.52632,-1.05264l0,-1.05263l0,-23.15795l15.2632,0c5.26317,0 9.47371,-4.21054 9.47371,-9.47371l0,-94.73708c0,-5.26317 -4.21054,-9.47371 -9.47371,-9.47371zm-122.63189,-10.00003c4.73686,-7.36844 11.57898,-10.52634 21.579,-10.52634l54.21066,0c10.52634,0 16.84215,3.1579 21.579,10.52634l5.26317,10.00003l-107.89501,0l5.26317,-10.00003zm100.00025,144.73721l-11.05266,11.05266c-4.73685,4.73685 -6.3158,4.73685 -13.15793,4.73685l-54.73698,0c-6.84212,0 -8.42107,-0.52632 -13.15793,-4.73685l-11.05266,-11.05266l0,-21.05268l12.63161,0l0,14.73688c0,2.10527 1.57895,3.68422 3.68422,3.68422s3.68422,-1.57895 3.68422,-3.68422l0,-14.73688l16.31583,0l0,14.73688c0,2.10527 1.57895,3.68422 3.68422,3.68422s3.68422,-1.57895 3.68422,-3.68422l0,-14.73688l16.31583,0l0,14.73688c0,2.10527 1.57895,3.68422 3.68422,3.68422s3.68422,-1.57895 3.68422,-3.68422l0,-14.73688l16.31583,0l0,14.73688c0,2.10527 1.57895,3.68422 3.68422,3.68422s3.68422,-1.57895 3.68422,-3.68422l0,-14.73688l11.57898,0l0,21.05268l0.52632,0zm24.73691,-30.52639c0,1.05263 -1.05264,2.10527 -2.10527,2.10527l-147.36879,0c-1.05263,0 -2.10527,-1.05263 -2.10527,-2.10527l0,-94.73708c0,-1.05264 1.05263,-2.10527 2.10527,-2.10527l147.36879,0c1.05263,0 2.10527,1.05263 2.10527,2.10527l0,94.73708l0,0z" stroke-width="5" stroke-miterlimit="10" stroke-dasharray=""></path></g></svg>