<svg data-v-9833e8b2="" version="1.1" xmlns="http://www.w3.org/2000/svg" xmlns:xlink="http://www.w3.org/1999/xlink" width="14.5" height="25"><g data-v-9833e8b2=""><path data-v-9833e8b2="" transform="scale(0.16339869281045752)" fill="none" stroke="currentColor" paint-order="fill stroke markers" d="m2,116c0,-20.37468 16.50349,-36.87818 36.87818,-36.87818c20.37468,0 36.87818,16.50349 36.87818,36.87818c0,20.37468 -16.50349,36.87818 -36.87818,36.87818c-20.37468,0 -36.87818,-16.50349 -36.87818,-36.87818z" stroke-width="5" stroke-miterlimit="10" stroke-dasharray=""></path><path data-v-9833e8b2="" transform="scale(0.16339869281045752)" fill="none" stroke="currentColor" paint-order="fill stroke markers" d="m1,52c0,-20.37468 16.50349,-36.87818 36.87818,-36.87818c20.37468,0 36.87818,16.50349 36.87818,36.87818c0,20.37468 -16.50349,36.87818 -36.87818,36.87818c-20.37468,0 -36.87818,-16.50349 -36.87818,-36.87818z" stroke-width="5" stroke-miterlimit="10" stroke-dasharray=""></path><path data-v-9833e8b2="" transform="scale(0.16339869281045752)" fill="none" stroke="currentColor" paint-order="fill stroke markers" d="m37.87818,53l0,21" stroke-width="5" stroke-miterlimit="10" stroke-dasharray=""></path><path data-v-9833e8b2="" transform="scale(0.16339869281045752)" fill="none" stroke="currentColor" paint-order="fill stroke markers" d="m37.87818,54l20,-11" stroke-width="5" stroke-miterlimit="10" stroke-dasharray=""></path><path data-v-9833e8b2="" transform="scale(0.16339869281045752)" fill="none" stroke="currentColor" paint-order="fill stroke markers" d="m36.87818,53l-17,-11" stroke-width="5" stroke-miterlimit="10" stroke-dasharray=""></path><path data-v-9833e8b2="" transform="scale(0.16339869281045752)" fill="none" stroke="currentColor" paint-order="fill stroke markers" d="m37.87818,117l0,-24" stroke-width="5" stroke-miterlimit="10" stroke-dasharray=""></path><path data-v-9833e8b2="" transform="scale(0.16339869281045752)" fill="none" stroke="currentColor" paint-order="fill stroke markers" d="m36.87818,115l21,12" stroke-width="5" stroke-miterlimit="10" stroke-dasharray=""></path><path data-v-9833e8b2="" transform="scale(0.16339869281045752)" fill="none" stroke="currentColor" paint-order="fill stroke markers" d="m37.87818,116l-19,12" stroke-width="5" stroke-miterlimit="10" stroke-dasharray=""></path><path data-v-9833e8b2="" transform="scale(0.16339869281045752)" fill="none" stroke="currentColor" paint-order="fill stroke markers" d="m37.87818,1l0,13" stroke-width="5" stroke-miterlimit="10" stroke-dasharray=""></path></g></svg>