<svg data-v-9833e8b2="" version="1.1" xmlns="http://www.w3.org/2000/svg" xmlns:xlink="http://www.w3.org/1999/xlink" width="25" height="25"><g data-v-9833e8b2=""><path data-v-9833e8b2="" transform="scale(0.14124293785310735)" fill="none" stroke="currentColor" paint-order="fill stroke markers" d="m88.50022,1c-48.32043,0 -87.50022,39.17979 -87.50022,87.50022c0,11.19143 2.18751,21.85552 6.01564,31.6993c0.9375,2.38282 1.95313,4.68751 3.08595,6.95314c6.99221,14.16019 17.65629,26.15241 30.82039,34.70712c2.08985,1.34766 4.21876,2.65626 6.44533,3.82813c12.24612,6.56252 26.25007,10.31253 41.13292,10.31253s28.88679,-3.75001 41.15245,-10.29299c2.22657,-1.17188 4.35548,-2.48047 6.44533,-3.82813c13.14456,-8.55471 23.80865,-20.54693 30.82039,-34.70712c1.13282,-2.26563 2.14844,-4.57032 3.08595,-6.95314c3.82813,-9.84377 6.01564,-20.50786 6.01564,-31.6993c-0.01953,-48.33997 -39.19932,-87.51975 -87.51975,-87.51975zm-36.67978,152.85195c-14.55082,-8.20315 -26.11335,-21.07427 -32.57821,-36.60165c3.8086,-2.32422 8.22268,-3.75001 13.00785,-3.75001c13.7891,0 25.00006,11.21097 25.00006,25.00006c0,5.82033 -2.08985,11.09378 -5.4297,15.3516zm73.34003,0c-3.33985,-4.23829 -5.41017,-9.53127 -5.41017,-15.3516c0,-13.7891 11.21097,-25.00006 25.00006,-25.00006c4.78517,0 9.19924,1.42578 12.98831,3.75001c-6.46486,15.52738 -18.02739,28.41804 -32.57821,36.60165zm34.76571,-42.51964c-4.51173,-2.51954 -9.64846,-4.08204 -15.17582,-4.08204c-17.26567,0 -31.25008,14.00394 -31.25008,31.25008c0,6.81642 2.2461,13.08597 5.95705,18.2227c-9.45315,4.31642 -19.90239,6.77736 -30.95711,6.77736c-11.05472,0 -21.50396,-2.46094 -30.95711,-6.77736c3.71095,-5.13673 5.95705,-11.40628 5.95705,-18.2227c0,-17.24614 -13.98441,-31.25008 -31.25008,-31.25008c-5.54689,0 -10.66409,1.5625 -15.17582,4.08204c-2.30469,-7.20705 -3.57423,-14.86332 -3.57423,-22.83209c0,-41.36729 33.65243,-75.00019 75.00019,-75.00019c41.36729,0 75.00019,33.65243 75.00019,75.00019c0,7.96877 -1.26953,15.62504 -3.57423,22.83209z" stroke-width="5" stroke-miterlimit="10" stroke-dasharray=""></path><path data-v-9833e8b2="" transform="scale(0.14124293785310735)" fill="none" stroke="currentColor" paint-order="fill stroke markers" d="m88.50022,38.50009c3.45704,0 6.25002,-2.79298 6.25002,-6.25002s-2.79298,-6.25002 -6.25002,-6.25002s-6.25002,2.79298 -6.25002,6.25002s2.79298,6.25002 6.25002,6.25002zm31.25008,-4.1211c-2.98829,-1.71875 -6.81642,-0.70313 -8.53518,2.28516c-1.71875,2.98829 -0.70313,6.79689 2.28516,8.55471c2.98829,1.71875 6.81642,0.6836 8.53518,-2.30469c1.71875,-2.98829 0.70313,-6.81642 -2.28516,-8.53518zm14.33597,20.56646c-2.98829,1.73829 -4.02345,5.56642 -2.28516,8.55471c1.71875,2.98829 5.54689,4.02345 8.53518,2.28516c2.98829,-1.71875 4.00392,-5.54689 2.28516,-8.53518c-1.71875,-2.98829 -5.54689,-4.02345 -8.53518,-2.30469zm4.41407,33.55477c0,3.45704 2.79298,6.25002 6.25002,6.25002s6.25002,-2.79298 6.25002,-6.25002s-2.79298,-6.25002 -6.25002,-6.26955c-3.45704,0.01953 -6.25002,2.81251 -6.25002,6.26955zm-72.71503,-51.83607c-1.71875,-2.98829 -5.54689,-4.00392 -8.53518,-2.28516c-2.98829,1.71875 -4.00392,5.54689 -2.28516,8.53518c1.71875,2.98829 5.54689,4.00392 8.53518,2.30469c2.98829,-1.75782 4.02345,-5.56642 2.28516,-8.55471zm-22.87115,18.2813c-2.98829,-1.71875 -6.81642,-0.6836 -8.53518,2.28516c-1.71875,2.98829 -0.70313,6.81642 2.28516,8.53518c2.98829,1.73829 6.81642,0.70313 8.53518,-2.28516c1.73829,-2.96876 0.70313,-6.79689 -2.28516,-8.53518zm-10.64456,27.28522c-3.45704,0 -6.25002,2.81251 -6.25002,6.25002c0,3.45704 2.79298,6.25002 6.25002,6.25002s6.25002,-2.79298 6.25002,-6.25002c0,-3.43751 -2.81251,-6.23048 -6.25002,-6.25002zm57.42202,0.13672c-10.19534,-12.12894 -25.48835,-24.0235 -25.48835,-24.0235s5.09767,18.67192 12.38284,32.73446c-0.35156,1.17188 -0.60547,2.38282 -0.60547,3.65235c0,6.89455 5.60548,12.50003 12.50003,12.50003c2.42188,0 4.66798,-0.72266 6.58205,-1.91407l0.35156,-0.19531l0.01953,0c3.33985,-2.2461 5.54689,-6.07423 5.54689,-10.39065c0.01953,-6.46486 -4.96095,-11.75784 -11.28909,-12.36331z" stroke-width="5" stroke-miterlimit="10" stroke-dasharray=""></path></g></svg>