<svg data-v-9833e8b2="" version="1.1" xmlns="http://www.w3.org/2000/svg" xmlns:xlink="http://www.w3.org/1999/xlink" width="25" height="17.5"><g data-v-9833e8b2=""><path data-v-9833e8b2="" transform="scale(0.1282051282051282)" fill="none" stroke="currentColor" paint-order="fill stroke markers" d="m176.23999,1l17.98,0l0,89.87l-17.98,0z" stroke-width="5" stroke-miterlimit="10" stroke-dasharray=""></path><path data-v-9833e8b2="" transform="scale(0.1282051282051282)" fill="none" stroke="currentColor" paint-order="fill stroke markers" d="m0.99999,53.18l17.98,0l0,53.92l-17.98,0z" stroke-width="5" stroke-miterlimit="10" stroke-dasharray=""></path><path data-v-9833e8b2="" transform="scale(0.1282051282051282)" fill="none" stroke="currentColor" paint-order="fill stroke markers" d="m27.61999,62.17l-8.62,0l0,35.95l10.06,0c-2.08,-6.5 -3.21,-13.42 -3.21,-20.61c0,-5.28 0.63,-10.41 1.77,-15.34z" stroke-width="5" stroke-miterlimit="10" stroke-dasharray=""></path><path data-v-9833e8b2="" transform="scale(0.1282051282051282)" fill="none" stroke="currentColor" paint-order="fill stroke markers" d="m176.23999,9.99l-78.57,0c35.42,2.15 63.49,31.55 63.49,67.52c0,1.47 -0.06,2.92 -0.16,4.37l15.24,0l0,-71.89z" stroke-width="5" stroke-miterlimit="10" stroke-dasharray=""></path><path data-v-9833e8b2="" transform="scale(0.1282051282051282)" fill="none" stroke="currentColor" paint-order="fill stroke markers" d="m97.66999,9.99c-1.38,-0.08 -2.76,-0.14 -4.16,-0.14c-32.09,0 -58.93,22.34 -65.89,52.32c-1.14,4.93 -1.77,10.06 -1.77,15.34c0,7.19 1.13,14.11 3.21,20.61c8.72,27.28 34.27,47.04 64.45,47.04c35.89,0 65.24,-27.96 67.49,-63.28c0.09,-1.45 0.16,-2.9 0.16,-4.37c0,-35.97 -28.07,-65.37 -63.49,-67.52z" stroke-width="5" stroke-miterlimit="10" stroke-dasharray=""></path><path data-v-9833e8b2="" transform="scale(0.1282051282051282)" fill="none" stroke="currentColor" paint-order="fill stroke markers" d="m93.50999,36.27c22.77,0 41.23,18.47 41.23,41.24s-18.47,41.23 -41.23,41.23c-22.78,0 -41.24,-18.47 -41.24,-41.23c0,-22.78 18.46,-41.24 41.24,-41.24l0,0z" stroke-width="5" stroke-miterlimit="10" stroke-dasharray=""></path><path data-v-9833e8b2="" transform="scale(0.1282051282051282)" fill="none" stroke="currentColor" paint-order="fill stroke markers" d="m93.50999,118.74c-22.78,0 -41.24,-18.47 -41.24,-41.23c0,-22.78 18.47,-41.24 41.24,-41.24s41.23,18.47 41.23,41.24c0.01,22.77 -18.46,41.23 -41.23,41.23l0,0l0,0z" stroke-width="5" stroke-miterlimit="10" stroke-dasharray=""></path><path data-v-9833e8b2="" transform="scale(0.1282051282051282)" fill="none" stroke="currentColor" paint-order="fill stroke markers" d="m93.50999,109.75c17.78,0 32.25,-14.47 32.25,-32.25c0,-17.79 -14.47,-32.25 -32.25,-32.25s-32.25,14.47 -32.25,32.25s14.47,32.25 32.25,32.25" stroke-width="5" stroke-miterlimit="10" stroke-dasharray=""></path></g></svg>