<svg data-v-9833e8b2="" version="1.1" xmlns="http://www.w3.org/2000/svg" xmlns:xlink="http://www.w3.org/1999/xlink" width="22" height="25"><g data-v-9833e8b2=""><path data-v-9833e8b2="" transform="scale(0.13020833333333334)" fill="none" stroke="currentColor" paint-order="fill stroke markers" d="m25.19,124.13l95.14,0c4.64,0 8.4,3.76 8.4,8.39c0,4.64 -3.75,8.4 -8.4,8.4l-95.14,0c-4.64,0 -8.4,-3.76 -8.4,-8.4s3.76,-8.39 8.4,-8.39l0,0z" stroke-width="5" stroke-miterlimit="10" stroke-dasharray=""></path><path data-v-9833e8b2="" transform="scale(0.13020833333333334)" fill="none" stroke="currentColor" paint-order="fill stroke markers" d="m55.97,1l33.59,0c6.18,0 11.2,5.01 11.2,11.19l0,22.39l-55.99,0l0,-22.4c0,-6.18 5.02,-11.18 11.2,-11.18l0,0z" stroke-width="5" stroke-miterlimit="10" stroke-dasharray=""></path><path data-v-9833e8b2="" transform="scale(0.13020833333333334)" fill="none" stroke="currentColor" paint-order="fill stroke markers" d="m100.75,12.18l5.59,0l0,11.2l-5.59,0z" stroke-width="5" stroke-miterlimit="10" stroke-dasharray=""></path><path data-v-9833e8b2="" transform="scale(0.13020833333333334)" fill="none" stroke="currentColor" paint-order="fill stroke markers" d="m106.34,6.6l11.19,0l0,22.38l-11.19,0z" stroke-width="5" stroke-miterlimit="10" stroke-dasharray=""></path><path data-v-9833e8b2="" transform="scale(0.13020833333333334)" fill="none" stroke="currentColor" paint-order="fill stroke markers" d="m111.94,101.74l0,-55.96c0,-6.18 -5.01,-11.2 -11.19,-11.2l-55.98,0c-6.18,0 -11.18,5.01 -11.18,11.19l0,55.97l-5.6,0l0,16.79l89.54,0l0,-16.79l-5.59,0z" stroke-width="5" stroke-miterlimit="10" stroke-dasharray=""></path><path data-v-9833e8b2="" transform="scale(0.13020833333333334)" fill="none" stroke="currentColor" paint-order="fill stroke markers" d="m44.77,51.37l11.2,0l0,50.37l-11.2,0z" stroke-width="5" stroke-miterlimit="10" stroke-dasharray=""></path><path data-v-9833e8b2="" transform="scale(0.13020833333333334)" fill="none" stroke="currentColor" paint-order="fill stroke markers" d="m67.16,51.37l11.2,0l0,50.37l-11.2,0z" stroke-width="5" stroke-miterlimit="10" stroke-dasharray=""></path><path data-v-9833e8b2="" transform="scale(0.13020833333333334)" fill="none" stroke="currentColor" paint-order="fill stroke markers" d="m89.55,51.37l11.2,0l0,50.37l-11.2,0z" stroke-width="5" stroke-miterlimit="10" stroke-dasharray=""></path><path data-v-9833e8b2="" transform="scale(0.13020833333333334)" fill="none" stroke="currentColor" paint-order="fill stroke markers" d="m133.33,146.51l-11.2,0c-4.55,0 -8.46,2.72 -10.21,6.62l0,-3.82c0,-1.54 -1.25,-2.79 -2.79,-2.79l-72.76,0c-1.54,0 -2.79,1.25 -2.79,2.79l0,3.75c-1.77,-3.86 -5.66,-6.55 -10.18,-6.55l-11.2,0c-6.18,0 -11.2,5.02 -11.2,11.2l0,22.39c0,6.18 5.02,11.19 11.2,11.19l11.2,0c5.76,0 10.5,-4.35 11.13,-9.94c2.04,2.4 7.57,7.4 18.38,7.4c24.08,0 29.54,-6.91 46.95,-8.66c6.17,-0.62 9.56,-0.39 11.07,-0.18l0,0.19c0,6.18 5.02,11.19 11.2,11.19l11.2,0c6.18,0 11.2,-5.01 11.2,-11.19l0,-22.39c0,-6.18 -5.02,-11.2 -11.2,-11.2z" stroke-width="5" stroke-miterlimit="10" stroke-dasharray=""></path></g></svg>