<svg data-v-9833e8b2="" version="1.1" xmlns="http://www.w3.org/2000/svg" xmlns:xlink="http://www.w3.org/1999/xlink" width="9.5" height="25"><g data-v-9833e8b2=""><path data-v-9833e8b2="" transform="scale(0.07621951219512195)" fill="none" stroke="currentColor" paint-order="fill stroke markers" d="m16,18l66,0l0,259l-66,0l0,-259z" stroke-width="5" stroke-miterlimit="10" stroke-dasharray=""></path><path data-v-9833e8b2="" transform="scale(0.07621951219512195)" fill="none" stroke="currentColor" paint-order="fill stroke markers" d="m28,276.99999l44,0l0,49l-44,0l0,-49z" stroke-width="5" stroke-miterlimit="10" stroke-dasharray=""></path><path data-v-9833e8b2="" transform="scale(0.07621951219512195)" fill="none" stroke="currentColor" paint-order="fill stroke markers" d="m5,327l92,0" stroke-width="5" stroke-miterlimit="10" stroke-dasharray=""></path><path data-v-9833e8b2="" transform="scale(0.07621951219512195)" fill="none" stroke="currentColor" paint-order="fill stroke markers" d="m50,285l0,41" stroke-width="5" stroke-miterlimit="10" stroke-dasharray=""></path><path data-v-9833e8b2="" transform="scale(0.07621951219512195)" fill="none" stroke="currentColor" paint-order="fill stroke markers" d="m1,1l96,0l0,17l-96,0l0,-17z" stroke-width="5" stroke-miterlimit="10" stroke-dasharray=""></path><path data-v-9833e8b2="" transform="scale(0.07621951219512195)" fill="none" stroke="currentColor" paint-order="fill stroke markers" d="m49,1l0,18" stroke-width="5" stroke-miterlimit="10" stroke-dasharray=""></path><path data-v-9833e8b2="" transform="scale(0.07621951219512195)" fill="none" stroke="currentColor" paint-order="fill stroke markers" d="m16,221l52,0" stroke-width="5" stroke-miterlimit="10" stroke-dasharray=""></path><path data-v-9833e8b2="" transform="scale(0.07621951219512195)" fill="none" stroke="currentColor" paint-order="fill stroke markers" d="m16,195.00001l52,0" stroke-width="5" stroke-miterlimit="10" stroke-dasharray=""></path><path data-v-9833e8b2="" transform="scale(0.07621951219512195)" fill="none" stroke="currentColor" paint-order="fill stroke markers" d="m15,172.00001l52,0" stroke-width="5" stroke-miterlimit="10" stroke-dasharray=""></path><path data-v-9833e8b2="" transform="scale(0.07621951219512195)" fill="none" stroke="currentColor" paint-order="fill stroke markers" d="m16,149.00001l52,0" stroke-width="5" stroke-miterlimit="10" stroke-dasharray=""></path><path data-v-9833e8b2="" transform="scale(0.07621951219512195)" fill="none" stroke="currentColor" paint-order="fill stroke markers" d="m16,126.00001l52,0" stroke-width="5" stroke-miterlimit="10" stroke-dasharray=""></path><path data-v-9833e8b2="" transform="scale(0.07621951219512195)" fill="none" stroke="currentColor" paint-order="fill stroke markers" d="m16,100.00001l52,0" stroke-width="5" stroke-miterlimit="10" stroke-dasharray=""></path><path data-v-9833e8b2="" transform="scale(0.07621951219512195)" fill="none" stroke="currentColor" paint-order="fill stroke markers" d="m16,74l52,0" stroke-width="5" stroke-miterlimit="10" stroke-dasharray=""></path></g></svg>