<svg data-v-9833e8b2="" version="1.1" xmlns="http://www.w3.org/2000/svg" xmlns:xlink="http://www.w3.org/1999/xlink" width="12" height="25"><g data-v-9833e8b2=""><path data-v-9833e8b2="" transform="scale(0.12690355329949238)" fill="none" stroke="currentColor" paint-order="fill stroke markers" d="m67.71,189.43l0,-6.67l-50.03,0l0,6.67l-16.67,0l0,6.67l86.7,0l0,-6.67z" stroke-width="5" stroke-miterlimit="10" stroke-dasharray=""></path><path data-v-9833e8b2="" transform="scale(0.12690355329949238)" fill="none" stroke="currentColor" paint-order="fill stroke markers" d="m17.68,1l53.37,0c9.21,0 16.67,7.46 16.67,16.67l0,6.67l-86.71,0l0,-6.67c0,-9.21 7.46,-16.67 16.67,-16.67l0,0z" stroke-width="5" stroke-miterlimit="10" stroke-dasharray=""></path><path data-v-9833e8b2="" transform="scale(0.12690355329949238)" fill="none" stroke="currentColor" paint-order="fill stroke markers" d="m1.01,154.41l86.72,0l0,6.67c0,9.21 -7.46,16.67 -16.68,16.67l-53.37,0c-9.21,0 -16.68,-7.46 -16.68,-16.67l0,-6.67l0.01,0z" stroke-width="5" stroke-miterlimit="10" stroke-dasharray=""></path><path data-v-9833e8b2="" transform="scale(0.12690355329949238)" fill="none" stroke="currentColor" paint-order="fill stroke markers" d="m1.01,29.35l86.71999,0l0,120.06l-86.71999,0l0,-120.06z" stroke-width="5" stroke-miterlimit="10" stroke-dasharray=""></path></g></svg>