<svg data-v-9833e8b2="" version="1.1" xmlns="http://www.w3.org/2000/svg" xmlns:xlink="http://www.w3.org/1999/xlink" width="25" height="15"><g data-v-9833e8b2=""><path data-v-9833e8b2="" transform="scale(0.12690355329949238)" fill="none" stroke="currentColor" paint-order="fill stroke markers" d="m1,109.07l195.54,0l0,18.01l-195.54,0z" stroke-width="5" stroke-miterlimit="10" stroke-dasharray=""></path><path data-v-9833e8b2="" transform="scale(0.12690355329949238)" fill="none" stroke="currentColor" paint-order="fill stroke markers" d="m8.72,16.44l180.1,0l0,87.48l-180.1,0z" stroke-width="5" stroke-miterlimit="10" stroke-dasharray=""></path><path data-v-9833e8b2="" transform="scale(0.12690355329949238)" fill="none" stroke="currentColor" paint-order="fill stroke markers" d="m24.15,1l10.29,0l0,10.29l-10.29,0z" stroke-width="5" stroke-miterlimit="10" stroke-dasharray=""></path><path data-v-9833e8b2="" transform="scale(0.12690355329949238)" fill="none" stroke="currentColor" paint-order="fill stroke markers" d="m39.59,1l10.29,0l0,10.29l-10.29,0z" stroke-width="5" stroke-miterlimit="10" stroke-dasharray=""></path><path data-v-9833e8b2="" transform="scale(0.12690355329949238)" fill="none" stroke="currentColor" paint-order="fill stroke markers" d="m55.03,1l10.29,0l0,10.29l-10.29,0z" stroke-width="5" stroke-miterlimit="10" stroke-dasharray=""></path><path data-v-9833e8b2="" transform="scale(0.12690355329949238)" fill="none" stroke="currentColor" paint-order="fill stroke markers" d="m132.22,1l10.29,0l0,10.29l-10.29,0z" stroke-width="5" stroke-miterlimit="10" stroke-dasharray=""></path><path data-v-9833e8b2="" transform="scale(0.12690355329949238)" fill="none" stroke="currentColor" paint-order="fill stroke markers" d="m147.66,1l10.29,0l0,10.29l-10.29,0z" stroke-width="5" stroke-miterlimit="10" stroke-dasharray=""></path><path data-v-9833e8b2="" transform="scale(0.12690355329949238)" fill="none" stroke="currentColor" paint-order="fill stroke markers" d="m163.1,1l10.29,0l0,10.29l-10.29,0z" stroke-width="5" stroke-miterlimit="10" stroke-dasharray=""></path><path data-v-9833e8b2="" transform="scale(0.12690355329949238)" fill="none" stroke="currentColor" paint-order="fill stroke markers" d="m47.31,37.03l102.92,0l0,46.31l-102.92,0z" stroke-width="5" stroke-miterlimit="10" stroke-dasharray=""></path></g></svg>