<svg data-v-9833e8b2="" version="1.1" xmlns="http://www.w3.org/2000/svg" xmlns:xlink="http://www.w3.org/1999/xlink" width="19.5" height="25"><g data-v-9833e8b2=""><path data-v-9833e8b2="" transform="scale(0.12376237623762376)" fill="none" stroke="currentColor" paint-order="fill stroke markers" d="m2.56,506.5602l224,0c8.83594,0 16,-7.16406 16,-16l0,-16c0,-8.83594 -7.16406,-16 -16,-16l-288,0c-8.83594,0 -16,7.16406 -16,16l0,16c0,8.83594 7.16406,16 16,16l32,0" stroke-width="5" stroke-miterlimit="10" stroke-dasharray=""></path><path data-v-9833e8b2="" transform="scale(0.12376237623762376)" fill="none" stroke="currentColor" paint-order="fill stroke markers" d="m202.56,114.5602c0,-8.83594 -7.16406,-16 -16,-16l-208,0c-8.83594,0 -16,7.16406 -16,16l0,8c0,8.83594 7.16406,16 16,16l208,0c8.83594,0 16,-7.16406 16,-16l0,-8zm0,0" stroke-width="5" stroke-miterlimit="10" stroke-dasharray=""></path><path data-v-9833e8b2="" transform="scale(0.12376237623762376)" fill="none" stroke="currentColor" paint-order="fill stroke markers" d="m58.56,138.5602l48,0l0,296l-48,0l0,-296zm0,0" stroke-width="5" stroke-miterlimit="10" stroke-dasharray=""></path><path data-v-9833e8b2="" transform="scale(0.12376237623762376)" fill="none" stroke="currentColor" paint-order="fill stroke markers" d="m58.56,34.5602l48,0l0,40l-48,0l0,-40zm0,0" stroke-width="5" stroke-miterlimit="10" stroke-dasharray=""></path><path data-v-9833e8b2="" transform="scale(0.12376237623762376)" fill="none" stroke="currentColor" paint-order="fill stroke markers" d="m10.56,138.5602l-32,0l-40,320l32,0l40,-320zm0,0" stroke-width="5" stroke-miterlimit="10" stroke-dasharray=""></path><path data-v-9833e8b2="" transform="scale(0.12376237623762376)" fill="none" stroke="currentColor" paint-order="fill stroke markers" d="m154.56,138.5602l32,0l40,320l-32,0l-40,-320zm0,0" stroke-width="5" stroke-miterlimit="10" stroke-dasharray=""></path><path data-v-9833e8b2="" transform="scale(0.12376237623762376)" fill="none" stroke="currentColor" paint-order="fill stroke markers" d="m122.56,16.28676c-0.00391,-3.16015 -2.56641,-5.72265 -5.72656,-5.72656l-68.54688,0c-3.16015,0.00391 -5.72265,2.56641 -5.72656,5.72656l0,12.54688c0.00391,3.16015 2.56641,5.72265 5.72656,5.72656l68.54688,0c3.16015,-0.00391 5.72265,-2.56641 5.72656,-5.72656l0,-12.54688zm0,0" stroke-width="5" stroke-miterlimit="10" stroke-dasharray=""></path><path data-v-9833e8b2="" transform="scale(0.12376237623762376)" fill="none" stroke="currentColor" paint-order="fill stroke markers" d="m122.56,80.28676c-0.00391,-3.16015 -2.56641,-5.72265 -5.72656,-5.72656l-68.54688,0c-3.16015,0.00391 -5.72265,2.56641 -5.72656,5.72656l0,12.54688c0.00391,3.16015 2.56641,5.72265 5.72656,5.72656l68.54688,0c3.16015,-0.00391 5.72265,-2.56641 5.72656,-5.72656l0,-12.54688zm0,0" stroke-width="5" stroke-miterlimit="10" stroke-dasharray=""></path><path data-v-9833e8b2="" transform="scale(0.12376237623762376)" fill="none" stroke="currentColor" paint-order="fill stroke markers" d="m122.56,440.28676c-0.00391,-3.16015 -2.56641,-5.72265 -5.72656,-5.72656l-68.54688,0c-3.16015,0.00391 -5.72265,2.56641 -5.72656,5.72656l0,12.54688c0.00391,3.16015 2.56641,5.72265 5.72656,5.72656l68.54688,0c3.16015,-0.00391 5.72265,-2.56641 5.72656,-5.72656l0,-12.54688zm0,0" stroke-width="5" stroke-miterlimit="10" stroke-dasharray=""></path><path data-v-9833e8b2="" transform="scale(0.12376237623762376)" fill="none" stroke="currentColor" paint-order="fill stroke markers" d="m125.69331,176.48074l-14.99939,-119.90815c3.58276,-1.39771 5.93872,-4.8523 5.93109,-8.69751l0,-3.125c0.00763,-2.48718 -0.98266,-4.87518 -2.74658,-6.62842c-1.76086,-1.75323 -4.14276,-2.74048 -6.62842,-2.74658l-21.875,0l0,-4.01001c0,-2.96173 -2.40021,-5.36347 -5.36194,-5.36499l-0.88806,0l0,-9.375l0.88806,0c2.96173,0 5.36347,-2.40326 5.36194,-5.36499l0,-4.89502c0,-2.96173 -2.40021,-5.36347 -5.36194,-5.36499l-26.77613,0c-1.42059,-0.00763 -2.78625,0.55542 -3.79028,1.5625c-0.99945,1.01013 -1.56098,2.37274 -1.5625,3.79334l0,4.90418c0.00305,1.41907 0.56457,2.78168 1.5625,3.79028c1.00708,1.00708 2.37427,1.56861 3.79639,1.5625l0.88806,0l0,9.38721l-0.88806,0c-1.42059,-0.00763 -2.78625,0.55542 -3.79029,1.5625c-0.99945,1.01013 -1.56097,2.37274 -1.5625,3.79334l0,4.01916l-21.875,0c-2.48413,0.00611 -4.86603,0.99335 -6.62842,2.74658c-1.77002,1.75171 -2.76489,4.13818 -2.76184,6.62842l0,3.125c-0.00916,3.84216 2.3407,7.29523 5.91888,8.69751l-14.99939,119.90815c-3.88641,1.22375 -6.53229,4.82178 -6.5445,8.89435l0,6.25c0,5.17731 4.19769,9.375 9.375,9.375l12.5,0c1.72577,0 3.125,-1.39923 3.125,-3.125s-1.39923,-3.125 -3.125,-3.125l-12.5,0c-1.72577,0 -3.125,-1.39923 -3.125,-3.125l0,-6.25c0,-1.72577 1.39923,-3.125 3.125,-3.125l112.50001,0c1.72577,0 3.125,1.39923 3.125,3.125l0,6.25c0,1.72577 -1.39923,3.125 -3.125,3.125l-87.50001,0c-1.72577,0 -3.125,1.39923 -3.125,3.125s1.39923,3.125 3.125,3.125l87.50001,0c5.17731,0 9.375,-4.19769 9.375,-9.375l0,-6.25c-0.01373,-4.07715 -2.66571,-7.67517 -6.5567,-8.89435zm-71.5683,-169.23067l25,0l0,3.125l-25,0l0,-3.125zm6.25,9.375l12.5,0l0,9.375l-12.5,0l0,-9.375zm-6.25,15.625l25,0l0,3.125l-25,0l0,-3.125zm-31.25,12.5c0,-1.72577 1.39923,-3.125 3.125,-3.125l81.25001,0c1.72577,0 3.125,1.39923 3.125,3.125l0,3.125c0,1.72577 -1.39923,3.125 -3.125,3.125l-81.25001,0c-1.72577,0 -3.125,-1.39923 -3.125,-3.125l0,-3.125zm30.36194,121.87501c-0.62408,0.00458 -1.24206,0.11902 -1.828,0.33722l2.71606,-1.64032l0,1.3031l-0.88806,0zm31.19049,-109.37501l-5.31159,3.53394l0,-3.53394l5.31159,0zm-11.56159,7.70264l-6.25,4.16565l-6.25,-4.16565l0,-7.70264l12.5,0l0,7.70264zm-18.74085,70.42237l0,7.83997l-13.43994,-7.83997l13.43994,0zm-13.43689,-6.25l13.43689,-7.83997l0,7.83997l-13.43689,0zm19.68689,6.25l12.5,0l0,11.48682l-6.25,3.64838l-6.25,-3.64838l0,-11.48682zm0.12512,18.7973l-0.12512,0.07477l0,-0.14648l0.12512,0.07171zm12.37488,-0.07171l0,0.14648l-0.12512,-0.07477l0.12512,-0.07171zm6.25,-10.88562l0,-7.83997l13.43689,0l-13.43689,7.83997zm0,-14.08997l0,-7.83997l13.43994,7.83997l-13.43994,0zm-6.25,0l-12.5,0l0,-11.48682l6.25,-3.64685l6.25,3.64685l0,11.48682zm0,-25.91858l-6.25,3.57208l-6.25,-3.57208l0,-8.45642l12.5,0l0,8.45642zm6.25,-8.45642l8.5434,0l-8.5434,4.88434l0,-4.88434zm-25,4.88434l-8.5434,-4.88434l8.5434,0l0,4.88434zm-8.5434,-11.13434l8.5434,-4.88434l0,4.88434l-8.5434,0zm33.5434,0l0,-4.88434l8.5434,4.88434l-8.5434,0zm-6.25,0l-12.5,0l0,-8.45642l6.25,-3.57208l6.25,3.57208l0,8.45642zm-12.5,-15.65247l0,-0.38452l0.3128,0.20905l-0.3128,0.17548zm12.1872,-0.17548l0.3128,-0.20905l0,0.38452l-0.3128,-0.17548zm-18.4372,-11.87439l-5.30243,-3.54767l5.31159,0l-0.00916,3.54767zm0,7.4997l0,8.12531l-16.43677,9.39026l3.28674,-26.28479l13.15002,8.76923zm-17.79327,28.36456l17.79327,10.16999l0,7.21436l-21.53778,12.57934l3.74451,-29.96369zm-5.05676,40.46021l22.85004,13.3316l0,7.56531l-27.54059,16.63056l4.69056,-37.52747zm29.10004,24.42779l6.25,-3.77502l6.25,3.77502l0,5.07507l-12.5,0l0,-5.07507zm18.75,5.07507l0,-1.3031l2.73743,1.65253c-0.59052,-0.22583 -1.21765,-0.34332 -1.84936,-0.34943l-0.88806,0zm0,-16.17127l22.85004,-13.3316l4.6875,37.52747l-27.53754,-16.63056l0,-7.56531zm0,-36.40747l0,-7.21436l17.79327,-10.16999l3.75061,29.9469l-21.54388,-12.56256zm0,-37.62818l0,-8.12378l13.15002,-8.76923l3.28827,26.28784l-16.43829,-9.39484zm-65.20997,99.58192l14.84375,-118.75001l6.20117,0l-14.84375,118.75001l-6.20117,0zm35.75745,-7.99103c-0.07171,0.06561 -0.15716,0.11902 -0.22583,0.18768c-0.99945,1.01013 -1.56098,2.37274 -1.5625,3.79334l0,4.01001l-11.44409,0l13.23242,-7.99103zm4.45252,7.99103l0,-3.125l25,0l0,3.125l-25,0zm31.25,0l0,-4.01001c-0.00153,-1.41754 -0.56305,-2.77863 -1.5625,-3.78418c-0.07782,-0.07782 -0.16937,-0.13123 -0.25024,-0.20295l13.24768,7.99713l-11.43494,0zm27.75879,0l-14.84375,-118.75001l6.20117,0l14.84375,118.75001l-6.20117,0zm0,0" stroke-width="5" stroke-miterlimit="10" stroke-dasharray=""></path></g></svg>