<svg data-v-9833e8b2="" version="1.1" xmlns="http://www.w3.org/2000/svg" xmlns:xlink="http://www.w3.org/1999/xlink" width="22" height="25"><g data-v-9833e8b2=""><path data-v-9833e8b2="" transform="scale(0.1724137931034483)" fill="none" stroke="currentColor" paint-order="fill stroke markers" d="m114.28028,136.56034l-10.56003,0a1.312,1.312 0 0 0 -1.28,1.288l0,5.85601a1.312,1.312 0 0 1 -1.28,1.288l-9.83202,0a1.312,1.312 0 0 1 -1.28,-1.288l0,-5.85601a1.312,1.312 0 0 0 -1.28,-1.288l-4.62401,0a1.312,1.312 0 0 1 -1.28,-1.288l0,-35.36009a1.312,1.312 0 0 1 1.28,-1.288l4.62401,0a1.312,1.312 0 0 0 1.28,-1.288l0,-5.86401a1.312,1.312 0 0 1 1.28,-1.288l9.83202,0a1.312,1.312 0 0 1 1.28,1.288l0,5.86401a1.312,1.312 0 0 0 1.28,1.288l10.56003,0a1.312,1.312 0 0 1 1.28,1.288l0,35.35209a1.312,1.312 0 0 1 -1.28,1.288l0,0.008zm-42.75211,-49.84013a1.232,1.232 0 0 1 0.064,0.384l0,10.32803a1.312,1.312 0 0 0 1.28,1.288l1.6,0a1.304,1.304 0 0 1 1.28,1.288l0,35.39209a1.312,1.312 0 0 1 -1.28,1.288l-1.6,0a1.312,1.312 0 0 0 -1.28,1.288l0,1.424a1.312,1.312 0 0 1 -1.28,1.296l-23.14406,0a1.312,1.312 0 0 1 -1.28,-1.296l0,-1.488a1.312,1.312 0 0 0 -1.28,-1.288l-1.768,0a1.312,1.312 0 0 1 -1.28,-1.288l0,-35.32009a1.304,1.304 0 0 1 1.28,-1.288l1.768,0a1.312,1.312 0 0 0 1.28,-1.288l0,-10.33603a1.288,1.288 0 0 1 0,-0.128a43.87211,43.87211 0 0 1 -31.08808,-42.08011c0.008,-24.23206 19.48005,-43.89611 43.48011,-43.89611s43.47211,19.66405 43.47211,43.89611a43.88011,43.88011 0 0 1 -30.26408,41.82411l0.04,0zm-13.24803,-71.81618a29.99208,29.99208 0 1 0 29.70407,29.99208a29.82408,29.82408 0 0 0 -29.70407,-29.99208zm14.80804,34.78409c0,-0.048 0,0 -0.056,0l-2.12801,-6.04002l-5.09601,14.67204a2.34401,2.34401 0 0 1 -2.04801,1.6l-0.144,0a2.32001,2.32001 0 0 1 -2.08001,-1.296l-5.20801,-10.57603l-1.248,1.888a2.12001,2.12001 0 0 1 -2.01601,0.944l-19.73605,0a2.53601,2.53601 0 0 1 0,-5.04801l18.40005,0l2.69601,-4.32801c0.416,-0.744 1.192,-0.72 2.03201,-0.72l0.048,0a2.22401,2.22401 0 0 1 2.01601,1.256l4.70401,9.52002l5.45601,-15.60804a2.24801,2.24801 0 0 1 2.19201,-1.488c0.984,0 1.864,0.12 2.19201,1.056l3.80001,10.28003l5.85601,0a2.53601,2.53601 0 0 1 0,5.04801l-7.49602,0a2.12001,2.12001 0 0 1 -2.13601,-1.184l0,0.024zm-57.60015,47.64012l0,-7.24802a1.312,1.312 0 0 1 1.28,-1.288l9.84002,0a1.312,1.312 0 0 1 1.28,1.288l0,7.24802a1.312,1.312 0 0 0 1.28,1.288l3.93601,0a1.304,1.304 0 0 1 1.28,1.288l0,35.35209a1.312,1.312 0 0 1 -1.28,1.288l-3.93601,0a1.312,1.312 0 0 0 -1.28,1.288l0,4.56801a1.312,1.312 0 0 1 -1.28,1.288l-9.83202,0a1.312,1.312 0 0 1 -1.28,-1.288l0,-4.56801a1.312,1.312 0 0 0 -1.28,-1.288l-11.93603,0a1.312,1.312 0 0 1 -1.28,-1.288l0,-35.34409a1.312,1.312 0 0 1 1.28,-1.312l11.93603,0a1.312,1.312 0 0 0 1.28,-1.272l-0.008,0z" stroke-width="5" stroke-miterlimit="10" stroke-dasharray=""></path></g></svg>