<svg data-v-9833e8b2="" version="1.1" xmlns="http://www.w3.org/2000/svg" xmlns:xlink="http://www.w3.org/1999/xlink" width="25" height="7.5"><g data-v-9833e8b2=""><path data-v-9833e8b2="" transform="scale(0.040257648953301126)" fill="none" stroke="currentColor" paint-order="fill stroke markers" d="m128.77775,100.25157c0.96953,-1.41367 1.50625,-2.92656 1.50625,-4.54102l0,-32.20977c0,-1.76914 -0.67344,-3.49883 -1.9832,-5.15c1.21445,-1.56953 1.89023,-3.24258 1.89023,-5.02031l0,-32.21094c0,-12.59375 -32.84375,-20.11953 -64.59532,-20.11953c-31.75196,0 -64.59571,7.52578 -64.59571,20.11953l0,32.21133c0,1.82266 0.70742,3.53555 1.98086,5.1375c-1.24766,1.61602 -1.88398,3.30586 -1.88398,5.03242l0,32.20977c0,1.66328 0.57539,3.21719 1.60508,4.66836c-0.99648,1.45352 -1.5082,2.96719 -1.5082,4.51289l0,32.21133c0,8.05586 14.28242,15.04883 37.30664,18.29688c6.26523,8.11094 16.07774,13.34844 27.09688,13.34844c10.9918,0 20.78203,-5.21328 27.04961,-13.29024c18.33711,-2.54219 37.73086,-8.66836 37.73086,-18.35469l0,-32.21133c0,-1.59102 -0.54336,-3.14805 -1.6,-4.64063l0,0.00001zm-35.79688,13.75195c13.80078,-1.95938 27.78438,-5.83359 33.98555,-11.67383c0.49883,0.85664 0.75703,1.71445 0.75703,2.56211c0,6.02188 -12.19453,11.90117 -31.1543,15.07266c-0.99688,-2.11328 -2.19844,-4.11055 -3.58828,-5.96094zm-27.38516,-110.35001c37.05196,0 61.94141,9.03086 61.94141,17.46602c0,8.43281 -24.88985,17.46211 -61.94141,17.46211c-37.05235,0 -61.9418,-9.0293 -61.9418,-17.46211c-0.00039,-8.43516 24.88946,-17.46602 61.9418,-17.46602zm0,37.58164c26.40235,0 53.54024,-5.20547 61.94141,-14.19844l0,26.29414c0,8.43281 -24.88985,17.46133 -61.94141,17.46133c-37.05235,0 -61.9418,-9.02852 -61.9418,-17.46133l0,-26.29414c8.40117,8.99297 35.53907,14.19844 61.9418,14.19844zm-60.7418,19.16367c9.56094,8.2832 35.48711,13.04688 60.7418,13.04688c25.35625,0 51.38985,-4.80273 60.85704,-13.14766c0.77773,1.07266 1.17773,2.14688 1.17773,3.20273c0,8.43281 -24.88946,17.46133 -61.93985,17.46133s-61.94063,-9.02852 -61.94063,-17.46133c0,-1.02305 0.37461,-2.06289 1.10391,-3.10195zm60.83633,23.2168c26.40235,0 53.53946,-5.20625 61.93985,-14.19844l0,26.29336c0,6.56055 -15.02227,13.05234 -36.63555,15.88516c-6.26836,-6.93984 -15.33125,-11.30977 -25.39766,-11.30977c-10.05742,0 -19.1125,4.36094 -25.38164,11.2875c-21.83985,-2.88086 -36.46602,-9.22617 -36.46602,-15.86289l0,-26.29336c8.40195,8.99219 35.53946,14.19844 61.94102,14.19844zm-61.15508,18.82656c6.24531,5.75703 20.07617,9.59102 33.69336,11.53789c-1.38438,1.84023 -2.58516,3.82539 -3.58086,5.92578c-18.74453,-3.18359 -30.80117,-9.03945 -30.80117,-15.01406c0.00039,-0.81094 0.23281,-1.63047 0.68867,-2.44961zm-0.68828,34.66094l0,-26.31758c4.59648,4.93242 14.99141,9.06289 29.73438,11.6293c-1.42813,3.76602 -2.2168,7.84297 -2.2168,12.10234c0,6.55273 1.85352,12.6793 5.06055,17.88867c-19.60938,-3.08867 -32.57813,-9.1207 -32.57813,-15.30274l0,0.00001zm61.7504,28.9918c-17.4125,0 -31.57969,-14.16563 -31.57969,-31.57735c0,-17.4125 14.16719,-31.57813 31.57969,-31.57813c17.41055,0 31.575,14.16563 31.575,31.57813c0,17.41172 -14.16445,31.57735 -31.575,31.57735zm62.12657,-28.9918c0,6.24023 -13.13867,12.29844 -32.99922,15.36797c3.23086,-5.22305 5.10195,-11.37305 5.10195,-17.95352c0,-4.23672 -0.7793,-8.29258 -2.19258,-12.04141c14.93594,-2.56133 25.45899,-6.71328 30.08985,-11.68594l0,26.31289l0,0.00001z" stroke-width="5" stroke-miterlimit="10" stroke-dasharray=""></path><path data-v-9833e8b2="" transform="scale(0.040257648953301126)" fill="none" stroke="currentColor" paint-order="fill stroke markers" d="m84.3508,120.18048c-5.12461,-6.78555 -12.25352,-10.94883 -18.3586,-10.63906l-2.51484,0.1168l8.41992,11.14961l-6.14531,4.64102l1.44688,1.91563l-24.92031,18.8211l5.54922,7.34922l24.92031,-18.82188l1.44648,1.91563l6.14648,-4.64023l8.42031,11.14727l0.79961,-2.38633c1.92891,-5.75273 -0.11641,-13.82656 -5.21016,-20.56875l0.00001,-0.00003zm-36.00508,29.63789l-2.35195,-3.11445l22.80391,-17.22188l2.35195,3.11289l-22.80391,17.22344zm26.36797,-16.90547l-5.2457,-6.94648l4.02852,-3.0418l5.24648,6.94492l-4.0293,3.04336zm12.87656,4.26875l-18.70039,-24.76133c4.56563,0.91484 9.58828,4.38672 13.34297,9.35977c3.7957,5.02266 5.74258,10.7668 5.35742,15.40156z" stroke-width="5" stroke-miterlimit="10" stroke-dasharray=""></path><path data-v-9833e8b2="" transform="scale(0.040257648953301126)" fill="none" stroke="currentColor" paint-order="fill stroke markers" d="m55.48204,28.06446l0.00078,0l18.40586,8.725l6.65703,-4.26484l3.54258,1.6793l1.13672,-2.39805l-2.04336,-0.96875l1.26406,-0.81016l3.54336,1.67852l1.13672,-2.39727l-2.16445,-1.02539c2.0082,-1.67305 3.04375,-3.65313 2.91328,-5.69453c-0.14766,-2.32539 -1.77656,-4.33945 -4.58398,-5.67109c-3.94141,-1.86992 -9.42852,-2.05391 -14.18867,-0.74375c0.27969,-0.75234 0.41758,-1.525 0.36758,-2.30938c-0.14766,-2.32617 -1.77734,-4.34102 -4.58555,-5.67227c-2.1793,-1.0332 -4.89961,-1.57852 -7.86602,-1.57852c-4.22891,0 -8.37774,1.10156 -11.39688,3.02266l-4.93711,-2.33984l-1.13672,2.39805l3.43633,1.62813l-1.26406,0.80938l-4.93633,-2.33984l-1.13594,2.39805l3.43789,1.62969l-6.66016,4.26484l21.05703,9.98008l0.00001,-0.00002zm28.67188,-8.74922c1.89805,0.89883 2.98867,2.12109 3.07227,3.44102c0.09063,1.41758 -0.9957,2.96094 -2.97383,4.24258l-6.32344,-2.99609l-1.13594,2.39805l4.82578,2.28672l-1.26406,0.81016l-6.32266,-2.99688l-1.13672,2.39805l4.82344,2.28672l-4.02227,2.57656l-15.5793,-7.38438l9.1207,-5.84258c0.03047,-0.01914 0.05547,-0.04063 0.08594,-0.05859l0.09063,0.14102c4.57305,-2.92813 12.07969,-3.51172 16.73945,-1.30234l0.00001,-0.00002zm-37.60742,-5.84336l1.26406,-0.80938l4.93008,2.33594l1.13672,-2.39805l-3.28594,-1.55625c2.4082,-1.12305 5.42617,-1.77773 8.42656,-1.77773c2.57578,0 4.90273,0.45703 6.7293,1.32305c1.89883,0.90039 2.99023,2.12188 3.07461,3.44297c0.09063,1.42734 -1.00859,2.98242 -3.01406,4.26797l-10.51992,6.73594l-15.40039,-7.29883l4.02461,-2.57813l4.9293,2.3375l1.13672,-2.39805l-3.43164,-1.62695l-0.00001,0z" stroke-width="5" stroke-miterlimit="10" stroke-dasharray=""></path><path data-v-9833e8b2="" transform="scale(0.040257648953301126)" fill="none" stroke="currentColor" paint-order="fill stroke markers" d="m242.80704,54.5414l124.81993,0l0,66.65665l-124.81993,0l0,-66.65665z" stroke-width="5" stroke-miterlimit="10" stroke-dasharray=""></path><path data-v-9833e8b2="" transform="scale(0.040257648953301126)" fill="none" stroke="currentColor" paint-order="fill stroke markers" d="m242.80704,121.19805l124.81993,0l0,7.89336l-124.81993,0l0,-7.89336z" stroke-width="5" stroke-miterlimit="10" stroke-dasharray=""></path><path data-v-9833e8b2="" transform="scale(0.040257648953301126)" fill="none" stroke="currentColor" paint-order="fill stroke markers" d="m321.31838,136.9543c5.49219,0 10.98438,0 16.44649,0c5.49219,0 10.98438,0 16.47656,0c0.84023,-0.96055 1.80078,-2.04102 2.85117,-3.24141c1.17031,-1.35039 2.49102,-2.88125 4.02148,-4.62188c-7.77305,0 -15.57617,0 -23.34922,0c-7.77305,0 -15.54609,0 -23.31914,0c1.53047,1.74063 2.85117,3.27148 4.05156,4.62188c1.05039,1.20078 1.98047,2.28086 2.82109,3.24141l0,0l0.00001,0z" stroke-width="5" stroke-miterlimit="10" stroke-dasharray=""></path><path data-v-9833e8b2="" transform="scale(0.040257648953301126)" fill="none" stroke="currentColor" paint-order="fill stroke markers" d="m254.99181,136.9543c5.46211,0 10.9543,0 16.44649,0c5.46211,0 10.9543,0 16.44649,0c0.84023,-0.96055 1.80078,-2.04102 2.85117,-3.24141c1.17031,-1.35039 2.52109,-2.88125 4.02148,-4.62188c-7.77305,0 -15.54609,0 -23.31914,0s-15.57617,0 -23.31914,0c1.50039,1.74063 2.85117,3.27148 4.02148,4.62188c1.05039,1.20078 1.98086,2.28086 2.85117,3.24141l0,0z" stroke-width="5" stroke-miterlimit="10" stroke-dasharray=""></path><path data-v-9833e8b2="" transform="scale(0.040257648953301126)" fill="none" stroke="currentColor" paint-order="fill stroke markers" d="m260.66408,128.13086c4.89219,0 8.85352,3.96172 8.85352,8.82344c0,4.8918 -3.96172,8.82344 -8.85352,8.82344c-4.86211,0 -8.82344,-3.93164 -8.82344,-8.82344c0,-4.86172 3.96133,-8.82344 8.82344,-8.82344l0,0zm21.51836,0c4.89219,0 8.85352,3.96172 8.85352,8.82344c0,4.8918 -3.96172,8.82344 -8.85352,8.82344c-4.86211,0 -8.82344,-3.93164 -8.82344,-8.82344c0,-4.86172 3.96172,-8.82344 8.82344,-8.82344l0,0zm44.83828,0c4.8918,0 8.85352,3.96172 8.85352,8.82344c0,4.8918 -3.96172,8.82344 -8.85352,8.82344c-4.86211,0 -8.82344,-3.93164 -8.82344,-8.82344c-0.00039,-4.86172 3.96133,-8.82344 8.82344,-8.82344l0,0zm21.51836,0c4.89219,0 8.82344,3.96172 8.82344,8.82344c0,4.8918 -3.93164,8.82344 -8.82344,8.82344c-4.89219,0 -8.82344,-3.93164 -8.82344,-8.82344c0,-4.86172 3.93164,-8.82344 8.82344,-8.82344l0,0z" stroke-width="5" stroke-miterlimit="10" stroke-dasharray=""></path><path data-v-9833e8b2="" transform="scale(0.040257648953301126)" fill="none" stroke="currentColor" paint-order="fill stroke markers" d="m260.66408,133.17266c-2.0707,0 -3.78164,1.68086 -3.78164,3.78164c0,2.10078 1.71094,3.81133 3.78164,3.81133c2.10078,0 3.81133,-1.71094 3.81133,-3.81133c0,-2.10078 -1.71055,-3.78164 -3.81133,-3.78164l0,0zm21.51836,0c-2.10078,0 -3.78125,1.68086 -3.78125,3.78164c0,2.10078 1.68047,3.81133 3.78125,3.81133s3.81133,-1.71094 3.81133,-3.81133c0.00039,-2.10078 -1.71016,-3.78164 -3.81133,-3.78164l0,0zm44.83828,0c-2.10078,0 -3.78164,1.68086 -3.78164,3.78164c0,2.10078 1.68086,3.81133 3.78164,3.81133c2.10078,0 3.81133,-1.71094 3.81133,-3.81133c0,-2.10078 -1.71055,-3.78164 -3.81133,-3.78164l0,0zm21.51836,0c-2.10078,0 -3.78125,1.68086 -3.78125,3.78164c0,2.10078 1.68047,3.81133 3.78125,3.81133c2.10078,0 3.81133,-1.71094 3.81133,-3.81133c0.00039,-2.10078 -1.71016,-3.78164 -3.81133,-3.78164l0,0z" stroke-width="5" stroke-miterlimit="10" stroke-dasharray=""></path><path data-v-9833e8b2="" transform="scale(0.040257648953301126)" fill="none" stroke="currentColor" paint-order="fill stroke markers" d="m238.18517,47.12851l134.06368,0l0,7.41289l-134.06368,0l0,-7.41289z" stroke-width="5" stroke-miterlimit="10" stroke-dasharray=""></path><path data-v-9833e8b2="" transform="scale(0.040257648953301126)" fill="none" stroke="currentColor" paint-order="fill stroke markers" d="m233.4129,111.5043l9.39375,0l0,6.96289l-9.39375,0l0,-6.96289z" stroke-width="5" stroke-miterlimit="10" stroke-dasharray=""></path><path data-v-9833e8b2="" transform="scale(0.040257648953301126)" fill="none" stroke="currentColor" paint-order="fill stroke markers" d="m226.00001,107.03243c2.46094,1.50078 4.92188,3.00117 7.41289,4.47188c0,2.34102 0,4.65195 0,6.96289c-2.49102,1.50039 -4.95195,3.00117 -7.41289,4.47188c0,-5.28242 0,-10.59453 0,-15.90664l0,0l0,-0.00001z" stroke-width="5" stroke-miterlimit="10" stroke-dasharray=""></path><path data-v-9833e8b2="" transform="scale(0.040257648953301126)" fill="none" stroke="currentColor" paint-order="fill stroke markers" d="m247.84884,59.58359l2.70117,0l49.45977,0l2.70117,0l0,4.44141l0,47.71914l0,4.41172l-2.70117,0l-49.45977,0l-2.70117,0l0,-4.41172l0,-47.71914l0,-4.44141zm49.81993,9.45352l-18.84727,18.84766l18.84727,18.81758l0,-37.66524zm-2.70117,42.07696l-19.68789,-19.68789l-19.68789,19.68789l39.37578,0zm-42.07657,-4.41172l18.81758,-18.81758l-18.81758,-18.84766l0,37.66524zm2.70078,-42.07696l19.68789,19.68789l19.68789,-19.68789l-39.37578,0zm57.17305,4.41172l18.84766,18.84766l-18.84766,18.81758l0,-37.66524zm2.70117,42.07696l19.68789,-19.68789l19.68789,19.68789l-39.37578,0zm42.07657,-4.41172l-18.81758,-18.81758l18.81758,-18.84766l0,37.66524zm-2.70078,-42.07696l-19.68789,19.68789l-19.68789,-19.68789l39.37578,0zm-47.11875,-5.0418l2.70117,0l49.45977,0l2.70117,0l0,4.44141l0,47.71914l0,4.41172l-2.70117,0l-49.46016,0l-2.70117,0l0,-4.41172l0,-47.71914l0,-4.44141l0.00039,0z" stroke-width="5" stroke-miterlimit="10" stroke-dasharray=""></path><path data-v-9833e8b2="" transform="scale(0.040257648953301126)" fill="none" stroke="currentColor" paint-order="fill stroke markers" d="m246.04806,47.12851l19.08789,-12.78516l26.98047,1.95078l19.23788,-10.29414l21.96876,10.14414l13.20547,0.18008l17.07657,10.8043l-117.55704,0z" stroke-width="5" stroke-miterlimit="10" stroke-dasharray=""></path><path data-v-9833e8b2="" transform="scale(0.040257648953301126)" fill="none" stroke="currentColor" paint-order="fill stroke markers" d="m492.06368,13.87344l7.23164,-2.8207l25.47656,65.59649l-7.23203,2.82031l-25.47617,-65.5961z" stroke-width="5" stroke-miterlimit="10" stroke-dasharray=""></path><path data-v-9833e8b2="" transform="scale(0.040257648953301126)" fill="none" stroke="currentColor" paint-order="fill stroke markers" d="m534.97423,113.67813c14.82383,-9.72227 10.68281,-19.86485 3.15078,-38.31953c-5.01133,1.95039 -10.65274,4.14102 -15.66406,6.09141c-4.98125,1.95039 -10.65274,4.14102 -15.66367,6.0918c6.90195,18.66445 10.71289,28.95703 28.17696,26.13633l0,0l-0.00001,-0.00001z" stroke-width="5" stroke-miterlimit="10" stroke-dasharray=""></path><path data-v-9833e8b2="" transform="scale(0.040257648953301126)" fill="none" stroke="currentColor" paint-order="fill stroke markers" d="m524.80197,80.55001l-2.34063,0.90039l-2.31055,0.90039l8.25195,21.27539c0.69023,1.80039 2.31055,2.88086 3.60078,2.3707l0,0c1.29023,-0.48008 1.7707,-2.3707 1.05039,-4.20117l-8.25195,-21.2457l0.00001,0z" stroke-width="5" stroke-miterlimit="10" stroke-dasharray=""></path><path data-v-9833e8b2="" transform="scale(0.040257648953301126)" fill="none" stroke="currentColor" paint-order="fill stroke markers" d="m504.03673,84.7211l17.10429,-6.66173l17.13438,-6.66171l1.32031,3.39062l-17.13438,6.66171l-17.1043,6.66173l-1.3203,-3.39062z" stroke-width="5" stroke-miterlimit="10" stroke-dasharray=""></path><path data-v-9833e8b2="" transform="scale(0.040257648953301126)" fill="none" stroke="currentColor" paint-order="fill stroke markers" d="m479.91056,13.6332l28.17696,-10.95274l1.68047,4.32109l-9.96211,3.8711l2.40039,6.12148l-8.28203,3.21054l-2.40078,-6.12148l-9.93242,3.87109l-1.68048,-4.32108z" stroke-width="5" stroke-miterlimit="10" stroke-dasharray=""></path><path data-v-9833e8b2="" transform="scale(0.040257648953301126)" fill="none" stroke="currentColor" paint-order="fill stroke markers" d="m479.64064,12.97305l-2.64063,1.05039l2.16055,5.58125l2.67031,-1.01992l-2.19023,-5.61172z" stroke-width="5" stroke-miterlimit="10" stroke-dasharray=""></path><path data-v-9833e8b2="" transform="scale(0.040257648953301126)" fill="none" stroke="currentColor" paint-order="fill stroke markers" d="m510.51837,1l-2.6707,1.02031l2.16054,5.61133l2.67071,-1.02031l-2.16055,-5.61133z" stroke-width="5" stroke-miterlimit="10" stroke-dasharray=""></path><path data-v-9833e8b2="" transform="scale(0.040257648953301126)" fill="none" stroke="currentColor" paint-order="fill stroke markers" d="m493.35392,20.41485l9.39258,-3.63086l0.78008,1.98047l-9.39258,3.63125l-0.78008,-1.98086z" stroke-width="5" stroke-miterlimit="10" stroke-dasharray=""></path><path data-v-9833e8b2="" transform="scale(0.040257648953301126)" fill="none" stroke="currentColor" paint-order="fill stroke markers" d="m480.39063,135.49376l139.77502,0l-12.12305,-8.52227l-2.5207,-5.76133l-6.9918,-0.93046l0,0l-5.46132,-7.77149l-5.6711,-0.06015l-4.0211,-5.85157l-9.8125,-3.87108l-7.11172,-10.62266l-9.90235,-1.32031l-9.09258,-6.42148l-7.50157,5.73125l-11.01289,1.08047l-6.8418,12.54296l-8.40195,1.77071l-7.35195,10.23243l-8.13203,1.26015l-7.77187,10.83281l-10.05274,7.68202z" stroke-width="5" stroke-miterlimit="10" stroke-dasharray=""></path><path data-v-9833e8b2="" transform="scale(0.040257648953301126)" fill="none" stroke="currentColor" paint-order="fill stroke markers" d="m541.81603,97.14414l-4.08086,12.09297l-0.36016,10.5629l-2.49062,-10.95313l-9.2125,-1.23008l10.26289,-1.23047l5.88125,-9.24219z" stroke-width="5" stroke-miterlimit="10" stroke-dasharray=""></path><path data-v-9833e8b2="" transform="scale(0.040257648953301126)" fill="none" stroke="currentColor" paint-order="fill stroke markers" d="m520.93087,115.59884l-3.51093,8.0418l0.75039,5.97148l5.52149,3.57109l-6.06172,-2.04062l-11.76289,0.06015l9.42227,-2.5207l0.11992,-8.58203l-5.52149,-1.56055l6.51211,-0.18008l4.53085,-2.76054z" stroke-width="5" stroke-miterlimit="10" stroke-dasharray=""></path><path data-v-9833e8b2="" transform="scale(0.040257648953301126)" fill="none" stroke="currentColor" paint-order="fill stroke markers" d="m550.87854,99.30469l7.7418,6.90156l-1.29024,15.24414l4.47109,-14.64374l9.60234,-2.34063l-11.37265,0.33008l-9.15234,-5.49141z" stroke-width="5" stroke-miterlimit="10" stroke-dasharray=""></path><path data-v-9833e8b2="" transform="scale(0.040257648953301126)" fill="none" stroke="currentColor" paint-order="fill stroke markers" d="m563.15157,124.45079l11.6125,1.17071l2.8211,5.5211l-0.84023,-5.6414l3.51055,-13.05313l-5.37109,10.23243l-11.73283,1.77029z" stroke-width="5" stroke-miterlimit="10" stroke-dasharray=""></path><path data-v-9833e8b2="" transform="scale(0.040257648953301126)" fill="none" stroke="currentColor" paint-order="fill stroke markers" d="m594.92932,123.70079l-5.10117,4.32109l-5.76134,-2.40039l5.76134,4.35078l6.21133,0.57031l-4.86094,-2.04062l3.75078,-4.80117z" stroke-width="5" stroke-miterlimit="10" stroke-dasharray=""></path><path data-v-9833e8b2="" transform="scale(0.040257648953301126)" fill="none" stroke="currentColor" paint-order="fill stroke markers" d="m540.16564,121.36017l4.44141,3.90117l8.7918,-2.85078l-7.26172,4.44102l7.38203,5.52148l-8.76211,-3.84102l-12.9332,3.48086l11.43282,-5.88164l-3.09103,-4.77109z" stroke-width="5" stroke-miterlimit="10" stroke-dasharray=""></path></g></svg>