<svg data-v-9833e8b2="" version="1.1" xmlns="http://www.w3.org/2000/svg" xmlns:xlink="http://www.w3.org/1999/xlink" width="17" height="25"><g data-v-9833e8b2=""><path data-v-9833e8b2="" transform="scale(0.1282051282051282)" fill="none" stroke="currentColor" paint-order="fill stroke markers" d="m119.68,125.93c-3.45,0 -6.24,2.8 -6.24,6.25l0,6.24l-6.25,0l0,-6.24l-87.45,0l-0.01,0l0,6.24l-6.25,0l0,-6.24c0,-3.45 -2.79,-6.25 -6.24,-6.25c-3.45,0 -6.24,2.8 -6.24,6.25l0,37.48c0,3.45 2.79,6.24 6.24,6.24c3.45,0 6.24,-2.79 6.24,-6.24l0,-6.25l6.25,0c0,6.9 5.59,12.5 12.49,12.5l18.74,0l0,6.24l-6.24,0c-3.45,0 -6.24,2.8 -6.24,6.25s2.79,6.24 6.24,6.24l37.48,0c3.45,0 6.24,-2.79 6.24,-6.24c0,-3.45 -2.79,-6.25 -6.24,-6.25l-6.24,0l0,-6.24l18.74,0c6.9,0 12.49,-5.6 12.49,-12.5l6.25,0l0,6.25c0,3.45 2.79,6.24 6.24,6.24s6.24,-2.79 6.24,-6.24l0,-37.48c0,-3.45 -2.79,-6.25 -6.24,-6.25z" stroke-width="5" stroke-miterlimit="10" stroke-dasharray=""></path><path data-v-9833e8b2="" transform="scale(0.1282051282051282)" fill="none" stroke="currentColor" paint-order="fill stroke markers" d="m32.22,1l62.47,0c6.9,0 12.49,5.59 12.49,12.49l0,12.5l-87.44,0l0,-12.5c0,-6.9 5.58,-12.49 12.48,-12.49l0,0z" stroke-width="5" stroke-miterlimit="10" stroke-dasharray=""></path><path data-v-9833e8b2="" transform="scale(0.1282051282051282)" fill="none" stroke="currentColor" paint-order="fill stroke markers" d="m107.19,113.44l-6.25,0l0,-12.5l6.24,0l0,-68.71l-87.44,0l0,68.71l6.24,0l0,12.5l-6.24,0c-3.45,0 -6.25,2.79 -6.25,6.24c0,3.45 2.8,6.24 6.25,6.24l87.45,0c3.45,0 6.25,-2.79 6.25,-6.24s-2.8,-6.24 -6.25,-6.24z" stroke-width="5" stroke-miterlimit="10" stroke-dasharray=""></path><path data-v-9833e8b2="" transform="scale(0.1282051282051282)" fill="none" stroke="currentColor" paint-order="fill stroke markers" d="m32.22,44.72l12.5,0l0,56.22l-12.5,0l0,-56.22z" stroke-width="5" stroke-miterlimit="10" stroke-dasharray=""></path><path data-v-9833e8b2="" transform="scale(0.1282051282051282)" fill="none" stroke="currentColor" paint-order="fill stroke markers" d="m57.22,44.72l12.48,0l0,56.22l-12.48,0l0,-56.22z" stroke-width="5" stroke-miterlimit="10" stroke-dasharray=""></path><path data-v-9833e8b2="" transform="scale(0.1282051282051282)" fill="none" stroke="currentColor" paint-order="fill stroke markers" d="m82.2,44.72l12.5,0l0,56.22l-12.5,0l0,-56.22z" stroke-width="5" stroke-miterlimit="10" stroke-dasharray=""></path></g></svg>