<svg data-v-9833e8b2="" version="1.1" xmlns="http://www.w3.org/2000/svg" xmlns:xlink="http://www.w3.org/1999/xlink" width="25" height="12.5"><g data-v-9833e8b2=""><path data-v-9833e8b2="" transform="scale(0.14124293785310735)" fill="none" stroke="currentColor" paint-order="fill stroke markers" d="m5.84376,23.79303l162.96916,0l0,44.19933l-162.96916,0l0,-44.19933z" stroke-width="5" stroke-miterlimit="10" stroke-dasharray=""></path><path data-v-9833e8b2="" transform="scale(0.14124293785310735)" fill="none" stroke="currentColor" paint-order="fill stroke markers" d="m173.63715,72.81659l-172.63715,0l0,-53.86732l172.63715,0l0,53.86732zm-162.96916,-9.66799l153.30117,0l0,-34.53134l-153.30117,0l0,34.53134z" stroke-width="5" stroke-miterlimit="10" stroke-dasharray=""></path><path data-v-9833e8b2="" transform="scale(0.14124293785310735)" fill="none" stroke="currentColor" paint-order="fill stroke markers" d="m6.52736,41.74229c-1.15235,0 -2.07032,-0.9375 -2.07032,-2.07032l0,-11.05472c0,-1.15235 0.9375,-2.07032 2.07032,-2.07032l162.96916,0c1.15235,0 2.07032,0.9375 2.07032,2.07032l0,11.05472c0,1.15235 -0.9375,2.07032 -2.07032,2.07032l-162.96916,0z" stroke-width="5" stroke-miterlimit="10" stroke-dasharray=""></path><path data-v-9833e8b2="" transform="scale(0.14124293785310735)" fill="none" stroke="currentColor" paint-order="fill stroke markers" d="m169.49652,28.61726l0,11.05472l-162.96916,0l0,-11.05472l162.96916,0m0,-4.14064l-162.96916,0c-2.28516,0 -4.14064,1.85547 -4.14064,4.14064l0,11.05472c0,2.28516 1.85547,4.14064 4.14064,4.14064l162.96916,0c2.28516,0 4.14064,-1.85547 4.14064,-4.14064l0,-11.05472c0,-2.28516 -1.85547,-4.14064 -4.14064,-4.14064z" stroke-width="5" stroke-miterlimit="10" stroke-dasharray=""></path><path data-v-9833e8b2="" transform="scale(0.14124293785310735)" fill="none" stroke="currentColor" paint-order="fill stroke markers" d="m16.4102,86.62522l-14.23832,0c-0.64453,0 -1.17188,-0.52735 -1.17188,-1.17188l0,-83.28146c0,-0.64453 0.52735,-1.17188 1.17188,-1.17188l14.23832,0c0.64453,0 1.17188,0.52735 1.17188,1.17188l0,83.28146c0,0.64453 -0.52735,1.17188 -1.17188,1.17188z" stroke-width="5" stroke-miterlimit="10" stroke-dasharray=""></path><path data-v-9833e8b2="" transform="scale(0.14124293785310735)" fill="none" stroke="currentColor" paint-order="fill stroke markers" d="m175.23872,86.62522l-14.23832,0c-0.64453,0 -1.17188,-0.52735 -1.17188,-1.17188l0,-83.28146c0,-0.64453 0.52735,-1.17188 1.17188,-1.17188l14.23832,0c0.64453,0 1.17188,0.52735 1.17188,1.17188l0,83.28146c0,0.64453 -0.52735,1.17188 -1.17188,1.17188z" stroke-width="5" stroke-miterlimit="10" stroke-dasharray=""></path></g></svg>