<svg data-v-9833e8b2="" version="1.1" xmlns="http://www.w3.org/2000/svg" xmlns:xlink="http://www.w3.org/1999/xlink" width="25" height="15"><g data-v-9833e8b2=""><path data-v-9833e8b2="" transform="scale(0.13089005235602094)" fill="none" stroke="currentColor" paint-order="fill stroke markers" d="m95.61856,82.04473c-12.40485,0 -22.49701,-10.08533 -22.49701,-22.48158c0,-12.39958 10.09216,-22.48744 22.49701,-22.48744c12.40446,0 22.49623,10.08786 22.49623,22.48744c-0.0002,12.39626 -10.09197,22.48158 -22.49623,22.48158zm0,-35.20362c-7.0201,0 -12.73141,5.70702 -12.73141,12.72184c0,7.01151 5.71131,12.71598 12.73141,12.71598c7.01951,0 12.73063,-5.70448 12.73063,-12.71598c-0.0002,-7.01463 -5.71112,-12.72184 -12.73063,-12.72184z" stroke-width="5" stroke-miterlimit="10" stroke-dasharray=""></path><path data-v-9833e8b2="" transform="scale(0.13089005235602094)" fill="none" stroke="currentColor" paint-order="fill stroke markers" d="m5.88344,118.97471a4.8828,4.8828 0 0 1 -4.8828,-4.8828l0,-108.20831c0,-2.69667 2.18613,-4.8828 4.8828,-4.8828s4.8828,2.18613 4.8828,4.8828l0,99.60091l67.30588,-40.2329c2.31464,-1.38359 5.31288,-0.6291 6.69647,1.68574s0.6289,5.31268 -1.68574,6.69627l-74.69395,44.6493a4.87889,4.87889 0 0 1 -2.50546,0.6918z" stroke-width="5" stroke-miterlimit="10" stroke-dasharray=""></path><path data-v-9833e8b2="" transform="scale(0.13089005235602094)" fill="none" stroke="currentColor" paint-order="fill stroke markers" d="m80.5727,55.4237a4.86092,4.86092 0 0 1 -2.50097,-0.69258l-74.69375,-44.65672c-2.31464,-1.38379 -3.06913,-4.38202 -1.68535,-6.69647c1.38379,-2.31484 4.38182,-3.06894 6.69647,-1.68535l74.69375,44.65672c2.31464,1.38379 3.06913,4.38202 1.68535,6.69647c-0.91445,1.52968 -2.53417,2.37792 -4.1955,2.37792zm104.78703,63.55101a4.88104,4.88104 0 0 1 -2.52617,-0.7041l-73.86036,-44.6493c-2.30761,-1.39511 -3.04765,-4.39686 -1.65253,-6.70467c1.39531,-2.308 4.39686,-3.04765 6.70467,-1.65253l66.45159,40.1706l0,-90.89312l-66.45139,40.17704c-2.30722,1.39531 -5.30956,0.65586 -6.70467,-1.65195c-1.39531,-2.30781 -0.65547,-5.30956 1.65214,-6.70487l73.86055,-44.65672a4.88319,4.88319 0 0 1 7.40916,4.1785l0,108.20831a4.88221,4.88221 0 0 1 -4.883,4.8828z" stroke-width="5" stroke-miterlimit="10" stroke-dasharray=""></path></g></svg>