<svg data-v-9833e8b2="" version="1.1" xmlns="http://www.w3.org/2000/svg" xmlns:xlink="http://www.w3.org/1999/xlink" width="25" height="20"><g data-v-9833e8b2=""><path data-v-9833e8b2="" transform="scale(0.13513513513513514)" fill="none" stroke="currentColor" paint-order="fill stroke markers" d="m1,1l98.17,72.55l-98.17,72.55z" stroke-width="5" stroke-miterlimit="10" stroke-dasharray=""></path><path data-v-9833e8b2="" transform="scale(0.13513513513513514)" fill="none" stroke="currentColor" paint-order="fill stroke markers" d="m184.46,1l-98.17,72.55l98.17,72.55z" stroke-width="5" stroke-miterlimit="10" stroke-dasharray=""></path><path data-v-9833e8b2="" transform="scale(0.13513513513513514)" fill="none" stroke="currentColor" paint-order="fill stroke markers" d="m91.33,118.11c-24.62,0 -44.56,-19.96 -44.56,-44.55c0,-24.62 19.96,-44.56 44.56,-44.56s44.55,19.96 44.55,44.56c0.01,24.6 -19.95,44.55 -44.55,44.55l0,0l0,0z" stroke-width="5" stroke-miterlimit="10" stroke-dasharray=""></path><path data-v-9833e8b2="" transform="scale(0.13513513513513514)" fill="none" stroke="currentColor" paint-order="fill stroke markers" d="m91.33,105.8c17.78,0 32.25,-14.47 32.25,-32.25c0,-17.79 -14.47,-32.25 -32.25,-32.25s-32.25,14.47 -32.25,32.25s14.47,32.25 32.25,32.25" stroke-width="5" stroke-miterlimit="10" stroke-dasharray=""></path></g></svg>