<svg data-v-9833e8b2="" version="1.1" xmlns="http://www.w3.org/2000/svg" xmlns:xlink="http://www.w3.org/1999/xlink" width="25" height="25"><g data-v-9833e8b2=""><path data-v-9833e8b2="" transform="scale(0.12376237623762376)" fill="none" stroke="currentColor" paint-order="fill stroke markers" d="m196.00049,1l-190.00048,0a5.00001,5.00001 0 0 0 -5.00001,5.00001l0,190.00048a5.00001,5.00001 0 0 0 5.00001,5.00001l190.00048,0a5.00001,5.00001 0 0 0 5.00001,-5.00001l0,-190.00048a5.00001,5.00001 0 0 0 -5.00001,-5.00001zm-8.33335,181.66712a5.00001,5.00001 0 0 1 -5.00001,5.00001l-163.33374,0a5.00001,5.00001 0 0 1 -5.00001,-5.00001l0,-163.33374a5.00001,5.00001 0 0 1 5.00001,-5.00001l163.33374,0a5.00001,5.00001 0 0 1 5.00001,5.00001l0,163.33374z" stroke-width="5" stroke-miterlimit="10" stroke-dasharray=""></path><path data-v-9833e8b2="" transform="scale(0.12376237623762376)" fill="none" stroke="currentColor" paint-order="fill stroke markers" d="m138.66701,129.33366l0.05,-0.06667l-60.56682,-60.56682l75.26686,-20.16672l-3.45001,-12.88337l-90.15023,24.15006l3.45001,12.88337l0.06667,-0.01667l-0.03333,0.03333l60.58349,60.60015l-75.30019,20.16672l3.45001,12.88337l90.15023,-24.15006l-3.45001,-12.88337l-0.06667,0.01667z" stroke-width="5" stroke-miterlimit="10" stroke-dasharray=""></path></g></svg>