<svg data-v-9833e8b2="" version="1.1" xmlns="http://www.w3.org/2000/svg" xmlns:xlink="http://www.w3.org/1999/xlink" width="25" height="17.5" viewBox="0 0 25 17.5" preserveAspectRatio="xMidYMid meet">
  <g data-v-9833e8b2="">
    <path data-v-9833e8b2="" transform="scale(0.13089005235602094)" fill="none" stroke="currentColor" paint-order="fill stroke markers" d="m174.72062,114.79l-170.7,0c0,5.72 4.63,10.35 10.35,10.35l160.35,0c5.72,0 10.34,-4.63 10.34,-10.35l0,-75.45l-10.34,17.07l0,58.38z" stroke-miterlimit="10" stroke-dasharray=""></path>
    <path data-v-9833e8b2="" transform="scale(0.13089005235602094)" fill="none" stroke="currentColor" paint-order="fill stroke markers" d="m55.66062,73.41l43.09,0l14.23,-23.27l-43.08,0l-14.24,23.27zm-3.16,5.18l-17.4,28.45l43.08,0l17.4,-28.45l-43.08,0zm135.62,-59.49l1.97,-3.24c2.81,-6.91 -2.21,-14.86 -10.05,-14.86l-30.94,0l-11.08,18.1l50.1,0zm-65.92,25.87l50.25,0l12.54,-20.7l-50.13,0l-12.66,20.7zm-36.48,-20.7l-12.66,20.7l43.09,0l12.65,-20.7l-43.08,0zm46.25,-5.17l11.07,-18.1l-43.08,0l-11.08,18.1l43.09,0zm-12.93,31.04l-14.24,23.27l50.38,0l4.79,-7.85l9.34,-15.42l-50.27,0zm-109.14,28.45l-7.3,11.97c-4.4,7.22 0.79,16.48 9.25,16.48l17.18,0l17.4,-28.45c0,0 -36.53,0 -36.53,0zm53.94,-28.45l-36.59,0l-14.19,23.27l36.55,0l14.23,-23.27zm20.4,56.9l44.35,0c3.78,0 7.28,-1.97 9.25,-5.19l14.18,-23.26l-50.38,0l-17.4,28.45zm9.66,-106.04l-30.39,0c-3.53,0 -6.45,1.7 -8.89,4.38c-0.2,0.26 -0.4,0.53 -0.57,0.81l-7.87,12.91l36.65,0l11.07,-18.1zm-14.24,23.27l-36.64,0l-12.61,20.7l36.6,0l12.65,-20.7z" stroke-miterlimit="10" stroke-dasharray=""></path>
  </g>
</svg>