<svg data-v-9833e8b2="" version="1.1" xmlns="http://www.w3.org/2000/svg" xmlns:xlink="http://www.w3.org/1999/xlink" width="24.5" height="25"><g data-v-9833e8b2=""><path data-v-9833e8b2="" transform="scale(0.12376237623762376)" fill="none" stroke="currentColor" paint-order="fill stroke markers" d="m15.30619,186.69432l152.59933,0l0,14.30619l-152.59933,0l0,-14.30619zm89.58058,-120.48194l-16.42827,32.63003l35.58664,0l-44.24189,51.4069l10.38391,-33.23804l-31.02058,0l22.11498,-50.79889l23.60521,0zm-82.42748,-47.29387l28.61238,0l0,11.92182l-28.61238,0l0,-11.92182zm0,-17.9185l28.61238,0l0,11.92182l-28.61238,0l0,-11.92182zm109.68077,17.9185l28.61238,0l0,11.92182l-28.61238,0l0,-11.92182zm0,-17.79928l28.61238,0l0,11.92182l-28.61238,0l0,-11.92182zm-54.84039,17.79928l28.61238,0l0,11.92182l-28.61238,0l0,-11.92182zm0.08345,-17.79928l28.44547,0l0,11.92182l-28.44547,0l0,-11.92182z" stroke-width="5" stroke-miterlimit="10" stroke-dasharray=""></path><path data-v-9833e8b2="" transform="scale(0.12376237623762376)" fill="none" stroke="currentColor" paint-order="fill stroke markers" d="m175.05862,177.38337l-166.90552,0a7.15309,7.15309 0 0 1 -7.15309,-7.15309l0,-131.14005l174.05862,0a7.15309,7.15309 0 0 1 7.15309,7.15309l0,123.98696a7.15309,7.15309 0 0 1 -7.15309,7.15309zm-159.75243,-14.30619l152.59933,0l0,-109.68077l-152.59933,0l0,109.68077z" stroke-width="5" stroke-miterlimit="10" stroke-dasharray=""></path></g></svg>