<svg data-v-9833e8b2="" version="1.1" xmlns="http://www.w3.org/2000/svg" xmlns:xlink="http://www.w3.org/1999/xlink" width="25" height="25"><g data-v-9833e8b2=""><path data-v-9833e8b2="" transform="scale(0.12376237623762376)" fill="none" stroke="currentColor" paint-order="fill stroke markers" d="m124.11146,154.75954l-123.11146,0l0,-153.75954l123.11146,0l0,153.75954zm-113.84102,-9.27044l104.57058,0l0,-135.21866l-104.57058,0l0,135.21866z" stroke-width="5" stroke-miterlimit="10" stroke-dasharray=""></path><path data-v-9833e8b2="" transform="scale(0.12376237623762376)" fill="none" stroke="currentColor" paint-order="fill stroke markers" d="m62.53256,95.28502a37.65653,37.65653 0 1 1 37.65653,-37.65653a37.69825,37.69825 0 0 1 -37.65653,37.65653zm0,-66.04263a28.38609,28.38609 0 1 0 28.38609,28.38609a28.41854,28.41854 0 0 0 -28.38609,-28.38609z" stroke-width="5" stroke-miterlimit="10" stroke-dasharray=""></path><path data-v-9833e8b2="" transform="scale(0.12376237623762376)" fill="none" stroke="currentColor" paint-order="fill stroke markers" d="m28.38952,70.99647l43.95116,-43.95116l6.55884,6.5542l-43.9558,43.95116l-6.5542,-6.5542z" stroke-width="5" stroke-miterlimit="10" stroke-dasharray=""></path><path data-v-9833e8b2="" transform="scale(0.12376237623762376)" fill="none" stroke="currentColor" paint-order="fill stroke markers" d="m43.12952,82.15344l43.95116,-43.95116l6.5542,6.55884l-43.95116,43.94653l-6.5542,-6.5542z" stroke-width="5" stroke-miterlimit="10" stroke-dasharray=""></path><path data-v-9833e8b2="" transform="scale(0.12376237623762376)" fill="none" stroke="currentColor" paint-order="fill stroke markers" d="m23.5967,106.65059l78.79875,0l0,9.27044l-78.79875,0l0,-9.27044z" stroke-width="5" stroke-miterlimit="10" stroke-dasharray=""></path><path data-v-9833e8b2="" transform="scale(0.12376237623762376)" fill="none" stroke="currentColor" paint-order="fill stroke markers" d="m83.85457,102.01537l9.27044,0l0,18.54088l-9.27044,0l0,-18.54088z" stroke-width="5" stroke-miterlimit="10" stroke-dasharray=""></path><path data-v-9833e8b2="" transform="scale(0.12376237623762376)" fill="none" stroke="currentColor" paint-order="fill stroke markers" d="m23.5967,125.19147l78.79875,0l0,9.27044l-78.79875,0l0,-9.27044z" stroke-width="5" stroke-miterlimit="10" stroke-dasharray=""></path><path data-v-9833e8b2="" transform="scale(0.12376237623762376)" fill="none" stroke="currentColor" paint-order="fill stroke markers" d="m56.04325,120.55625l9.27044,0l0,18.54088l-9.27044,0l0,-18.54088z" stroke-width="5" stroke-miterlimit="10" stroke-dasharray=""></path><path data-v-9833e8b2="" transform="scale(0.12376237623762376)" fill="none" stroke="currentColor" paint-order="fill stroke markers" d="m123.30493,189.7879a29.84619,29.84619 0 0 1 -29.80911,-29.81374l0,-10.94376l9.27044,0l0,10.92522a20.53866,20.53866 0 1 0 41.07733,0l0,-67.34976l9.27044,0l0,67.34976a29.84155,29.84155 0 0 1 -29.8091,29.83228z" stroke-width="5" stroke-miterlimit="10" stroke-dasharray=""></path><path data-v-9833e8b2="" transform="scale(0.12376237623762376)" fill="none" stroke="currentColor" paint-order="fill stroke markers" d="m147.01872,98.6641a15.99615,15.99615 0 0 1 -14.69365,-17.01126l0,-45.88868l29.4012,0l0,45.88868a15.99615,15.99615 0 0 1 -14.70755,17.01126zm-5.42321,-53.64341l0,36.61824c0,4.12535 2.53547,7.74082 5.42321,7.74082s5.42784,-3.61547 5.42784,-7.74082l0,-36.61824l-10.85105,0z" stroke-width="5" stroke-miterlimit="10" stroke-dasharray=""></path><path data-v-9833e8b2="" transform="scale(0.12376237623762376)" fill="none" stroke="currentColor" paint-order="fill stroke markers" d="m134.842,51.02794l23.1761,0l0,9.27044l-23.1761,0l0,-9.27044z" stroke-width="5" stroke-miterlimit="10" stroke-dasharray=""></path><path data-v-9833e8b2="" transform="scale(0.12376237623762376)" fill="none" stroke="currentColor" paint-order="fill stroke markers" d="m144.11244,9.31095l9.27044,0l0,32.44654l-9.27044,0l0,-32.44654z" stroke-width="5" stroke-miterlimit="10" stroke-dasharray=""></path><path data-v-9833e8b2="" transform="scale(0.12376237623762376)" fill="none" stroke="currentColor" paint-order="fill stroke markers" d="m152.58562,201.0005c-21.64648,0 -37.8234,-20.97901 -37.8234,-39.73775l0,-9.94255l9.27044,0l0,9.94255c0,14.09107 12.47338,30.46731 28.55296,30.46731s28.55296,-16.37623 28.55296,-30.46731l0,-66.74718l9.27044,0l0,66.74718c0,18.75874 -16.16765,39.73775 -37.8234,39.73775z" stroke-width="5" stroke-miterlimit="10" stroke-dasharray=""></path><path data-v-9833e8b2="" transform="scale(0.12376237623762376)" fill="none" stroke="currentColor" paint-order="fill stroke markers" d="m186.42737,98.6641a16.00078,16.00078 0 0 1 -14.69829,-17.01126l0,-45.88868l29.39657,0l0,45.88868a16.00078,16.00078 0 0 1 -14.69829,17.01126zm-5.42784,-53.66195l0,36.61824c0,4.12535 2.53547,7.74082 5.42784,7.74082s5.42784,-3.61547 5.42784,-7.74082l0,-36.61824l-10.85569,0z" stroke-width="5" stroke-miterlimit="10" stroke-dasharray=""></path><path data-v-9833e8b2="" transform="scale(0.12376237623762376)" fill="none" stroke="currentColor" paint-order="fill stroke markers" d="m176.55898,51.02794l18.54088,0l0,9.27044l-18.54088,0l0,-9.27044z" stroke-width="5" stroke-miterlimit="10" stroke-dasharray=""></path><path data-v-9833e8b2="" transform="scale(0.12376237623762376)" fill="none" stroke="currentColor" paint-order="fill stroke markers" d="m134.842,64.9336l23.1761,0l0,9.27044l-23.1761,0l0,-9.27044z" stroke-width="5" stroke-miterlimit="10" stroke-dasharray=""></path><path data-v-9833e8b2="" transform="scale(0.12376237623762376)" fill="none" stroke="currentColor" paint-order="fill stroke markers" d="m176.55898,64.9336l18.54088,0l0,9.27044l-18.54088,0l0,-9.27044z" stroke-width="5" stroke-miterlimit="10" stroke-dasharray=""></path><path data-v-9833e8b2="" transform="scale(0.12376237623762376)" fill="none" stroke="currentColor" paint-order="fill stroke markers" d="m181.19421,9.31095l9.27044,0l0,32.44654l-9.27044,0l0,-32.44654z" stroke-width="5" stroke-miterlimit="10" stroke-dasharray=""></path></g></svg>