<svg data-v-9833e8b2="" version="1.1" xmlns="http://www.w3.org/2000/svg" xmlns:xlink="http://www.w3.org/1999/xlink" width="24.5" height="25"><g data-v-9833e8b2=""><path data-v-9833e8b2="" transform="scale(0.13089005235602094)" fill="none" stroke="currentColor" paint-order="fill stroke markers" d="m169.05042,1.00072l-156.02039,0a11.90003,11.90003 0 0 0 -12.03003,11.76003l0,165.53042c0,6.57002 5.32001,11.90003 11.90003,11.90003l155.03039,0a11.90003,11.90003 0 0 0 11.90003,-11.62003l0,-165.67042a12.74003,12.74003 0 0 0 -11.90003,-11.90003l1.12,0zm-154.90039,10.64003l154.90039,0c1.42,0 2.59001,1.1 2.66001,2.51001l0,164.28041a2.94001,2.94001 0 0 1 -2.66001,2.66001l-156.02039,0a2.94001,2.94001 0 0 1 -2.66001,-2.66001l0,-165.53042a4.76001,4.76001 0 0 1 2.66001,-1.26l1.12,0zm80.7402,33.02008l-50.37013,64.93016l72.90018,0l-34.42009,50.37013l63.52016,-62.27016l-77.5202,0l25.90007,-53.03013l-0.01,0z" stroke-width="5" stroke-miterlimit="10" stroke-dasharray=""></path></g></svg>