<svg data-v-9833e8b2="" version="1.1" xmlns="http://www.w3.org/2000/svg" xmlns:xlink="http://www.w3.org/1999/xlink" width="25" height="22.5"><g data-v-9833e8b2=""><path data-v-9833e8b2="" transform="scale(0.12376237623762376)" fill="none" stroke="currentColor" paint-order="fill stroke markers" d="m196.41188,185.55195l-190.72896,0c-2.58676,0 -4.68293,-2.09617 -4.68293,-4.68293l0,-5.01742c0,-1.24878 0.49059,-2.43066 1.38258,-3.30035l4.50453,-4.52683l0,-123.78539c0,-1.76167 0.98118,-3.36725 2.56446,-4.17004c1.58327,-0.80279 3.45645,-0.64669 4.88362,0.37909l0.223,0.1784l39.0467,32.3568l0,-28.76656c0,-1.71707 0.93659,-3.30035 2.45296,-4.12544c1.51638,-0.82509 3.34495,-0.75819 4.79443,0.1784l0.1784,0.1338l46.16029,33.29339l0,-29.48014c0,-1.71707 0.93659,-3.27805 2.43066,-4.10314c1.49408,-0.82509 3.32265,-0.75819 4.77213,0.1561l0.223,0.1561l45.7143,33.24879l0,-56.44043l-0.69129,0c-2.58676,0 -4.68293,-2.09617 -4.68293,-4.68293l0,-6.86829c0,-2.58676 2.09617,-4.68293 4.68293,-4.68293l35.76865,0c2.58676,0 4.68293,2.09617 4.68293,4.68293l0,5.79791c0,2.58676 -2.09617,4.68293 -4.68293,4.68293l0,6.6899c0,2.45296 -2.00697,4.45993 -4.45993,4.45993s-4.45993,-2.00697 -4.45993,-4.45993l0,-10.92683c0,-0.71359 0.1561,-1.40488 0.44599,-2.00697l-18.84321,0c0.71359,0.82509 1.15958,1.89547 1.15958,3.07735l0,69.17353c0,1.67247 -0.89198,3.21115 -2.36376,3.99164c-1.49408,0.82509 -3.30035,0.73589 -4.83903,-0.2453l-0.223,-0.1561l-45.71429,-33.24879l0,29.65854c0,1.67247 -0.91429,3.21115 -2.36376,4.01394c-1.51638,0.82509 -3.32265,0.71359 -4.86132,-0.2676l-0.1784,-0.1338l-46.18259,-33.29339l0,29.68084c0,1.73937 -0.95889,3.30035 -2.47526,4.08084c-1.56098,0.80279 -3.45645,0.62439 -4.95052,-0.46829l-0.223,-0.1784l-39.069,-32.3568l0,116.5157c0,1.24878 -0.49059,2.43066 -1.38258,3.32265l-3.52335,3.52335l180.33732,0l-3.36725,-3.36725c-0.89199,-0.89199 -1.38258,-2.05157 -1.38258,-3.30035l0,-130.36379c0,-2.45296 2.00697,-4.45993 4.45993,-4.45993s4.45993,2.00697 4.45993,4.45993l0,128.60211l4.32613,4.32613c0.89198,0.89199 1.38258,2.05157 1.38258,3.30035l0,5.03972c-0.0223,2.58676 -2.11847,4.70523 -4.70523,4.70523zm-188.27599,-18.77631z" stroke-width="5" stroke-miterlimit="10" stroke-dasharray=""></path></g></svg>