<svg data-v-9833e8b2="" version="1.1" xmlns="http://www.w3.org/2000/svg" xmlns:xlink="http://www.w3.org/1999/xlink" width="25" height="25"><g data-v-9833e8b2=""><path data-v-9833e8b2="" transform="scale(0.12376237623762376)" fill="none" stroke="currentColor" paint-order="fill stroke markers" d="m19.75005,1c-10.62503,0 -18.75005,8.12502 -18.75005,18.75005l0,162.50041c0,10.62503 8.12502,18.75005 18.75005,18.75005l181.25046,0l0,-200.0005l-181.25046,0zm26.25007,43.75011l110.62528,0l0,8.12502l-110.62528,0l0,-8.12502zm104.37526,118.1253c-1.875,1.25 -4.37501,1.875 -6.25002,1.875s-3.12501,0 -4.37501,-0.625c-10.62503,-3.75001 -12.50003,-22.50006 -14.37504,-42.50011c-1.25,-16.25004 -3.12501,-35.00009 -10.00003,-34.37509c-5.00001,0 -8.12502,13.75003 -10.62503,25.00006c-3.12501,13.75003 -5.62501,26.25007 -14.37504,26.87507c-9.37502,0.625 -11.87503,-8.75002 -13.12503,-15.00004c-1.875,-8.12502 -3.12501,-9.37502 -6.25002,-8.75002c-5.00001,0.625 -6.87502,14.37504 -8.75002,24.37506c-1.875,11.87503 -3.75001,22.50006 -10.62503,22.50006c-10.00003,0 -13.12503,-13.12503 -13.75003,-20.62505l7.50002,-0.625s1.25,13.12503 6.87502,13.12503c1.25,-1.25 3.12501,-10.00003 3.75001,-15.62504c1.875,-13.75003 4.37501,-29.37507 15.00004,-30.62508c10.62503,-1.875 13.12503,8.12502 14.37504,14.37504c1.875,6.87502 3.12501,8.75002 6.25002,8.75002s5.62501,-12.50003 7.50002,-20.62505c3.75001,-15.00004 6.87502,-30.00008 17.50004,-31.25008c13.75003,-1.875 16.25004,20.00005 18.12505,41.2501c1.25,15.00004 3.12501,33.12508 9.37502,35.62509c1.875,0.625 3.12501,0 4.37501,-0.625c4.37501,-3.12501 6.87502,-13.75003 7.50002,-17.50004l5.00001,1.875c0,1.875 -2.50001,17.50004 -10.62503,23.12506z" stroke-width="5" stroke-miterlimit="10" stroke-dasharray=""></path></g></svg>