<svg data-v-9833e8b2="" version="1.1" xmlns="http://www.w3.org/2000/svg" xmlns:xlink="http://www.w3.org/1999/xlink" width="17" height="25" viewBox="0 0 17 25" preserveAspectRatio="xMidYMid meet">
  <g data-v-9833e8b2="" transform="translate(0, 0)" stroke-width="4">
    <path data-v-9833e8b2="" transform="scale(0.22321428571428573)" fill="none" stroke="currentColor" paint-order="fill stroke markers" d="m18,-14l0,29" stroke-miterlimit="10" stroke-dasharray=""></path>
    <path data-v-9833e8b2="" transform="scale(0.22321428571428573)" fill="none" stroke="currentColor" paint-order="fill stroke markers" d="m10.18975,21c0,-4.31506 3.49519,-7.81025 7.81025,-7.81025c4.31506,0 7.81025,3.49519 7.81025,7.81025c0,4.31506 -3.49519,7.81025 -7.81025,7.81025c-4.31506,0 -7.81025,-3.49519 -7.81025,-7.81025z" stroke-miterlimit="10" stroke-dasharray=""></path>
    <path data-v-9833e8b2="" transform="scale(0.22321428571428573)" fill="none" stroke="currentColor" paint-order="fill stroke markers" d="m38,22l -20,29" stroke-miterlimit="10" stroke-dasharray=""></path>
    <path data-v-9833e8b2="" transform="scale(0.22321428571428573)" fill="none" stroke="currentColor" paint-order="fill stroke markers" d="m11.18975,57c0,-4.31506 3.49519,-7.81025 7.81025,-7.81025c4.31506,0 7.81025,3.49519 7.81025,7.81025c0,4.31506 -3.49519,7.81025 -7.81025,7.81025c-4.31506,0 -7.81025,-3.49519 -7.81025,-7.81025z" stroke-miterlimit="10" stroke-dasharray=""></path>
    <path data-v-9833e8b2="" transform="scale(0.22321428571428573)" fill="none" stroke="currentColor" paint-order="fill stroke markers" d="m19,64.5l0,20" stroke-miterlimit="10" stroke-dasharray=""></path>
    <path data-v-9833e8b2="" transform="scale(0.22321428571428573)" fill="none" stroke="currentColor" paint-order="fill stroke markers" d="m1,85.5l36,0" stroke-miterlimit="10" stroke-dasharray=""></path>
    <path data-v-9833e8b2="" transform="scale(0.22321428571428573)" fill="none" stroke="currentColor" paint-order="fill stroke markers" d="m6,93.5l26,0" stroke-miterlimit="10" stroke-dasharray=""></path>
    <path data-v-9833e8b2="" transform="scale(0.22321428571428573)" fill="none" stroke="currentColor" paint-order="fill stroke markers" d="m11,100.5l14,0" stroke-miterlimit="10" stroke-dasharray=""></path>
  </g>
</svg>