<svg data-v-9833e8b2="" version="1.1" xmlns="http://www.w3.org/2000/svg" xmlns:xlink="http://www.w3.org/1999/xlink" width="22" height="25"><g data-v-9833e8b2=""><path data-v-9833e8b2="" transform="scale(0.12437810945273632)" fill="none" stroke="currentColor" paint-order="fill stroke markers" d="m156.73025,1l-148.96783,0c-3.73507,0 -6.76243,2.79531 -6.76243,6.24977l0,43.74801l0,99.99535l0,43.74801c0,3.45446 3.02715,6.24977 6.76243,6.24977l148.96783,0c3.73507,0 6.76243,-2.79511 6.76243,-6.24977l0,-43.74801l0,-99.99535l0,-43.74801c0,-3.45446 -3.02735,-6.24977 -6.76243,-6.24977zm-143.23071,62.49712l137.49359,0l0,74.99667l-137.49359,0l0,-74.99667zm137.49359,124.99424l-137.49359,0l0,-37.49823l137.49359,0l0,37.49823zm-137.49359,-137.49359l0,-37.49824l137.49359,0l0,37.49823l-137.49359,0z" stroke-width="5" stroke-miterlimit="10" stroke-dasharray=""></path><path data-v-9833e8b2="" transform="scale(0.12437810945273632)" fill="none" stroke="currentColor" paint-order="fill stroke markers" d="m32.24866,25.99889c-3.45446,0 -6.24977,2.79511 -6.24977,6.24977c0,3.45446 2.79531,6.24977 6.24977,6.24977c3.45446,0 6.24977,-2.79531 6.24977,-6.24977c0,-3.45446 -2.79531,-6.24977 -6.24977,-6.24977z" stroke-width="5" stroke-miterlimit="10" stroke-dasharray=""></path><path data-v-9833e8b2="" transform="scale(0.12437810945273632)" fill="none" stroke="currentColor" paint-order="fill stroke markers" d="m132.24402,25.99889c-3.45446,0 -6.24977,2.79511 -6.24977,6.24977c0,3.45446 2.79511,6.24977 6.24977,6.24977c3.45426,0 6.24977,-2.79531 6.24977,-6.24977c0,-3.45446 -2.79551,-6.24977 -6.24977,-6.24977z" stroke-width="5" stroke-miterlimit="10" stroke-dasharray=""></path><path data-v-9833e8b2="" transform="scale(0.12437810945273632)" fill="none" stroke="currentColor" paint-order="fill stroke markers" d="m32.24866,175.99182c3.45446,0 6.24977,-2.79511 6.24977,-6.24977c0,-3.45426 -2.79531,-6.24977 -6.24977,-6.24977c-3.45446,0 -6.24977,2.79531 -6.24977,6.24977c0,3.45466 2.79531,6.24977 6.24977,6.24977z" stroke-width="5" stroke-miterlimit="10" stroke-dasharray=""></path><path data-v-9833e8b2="" transform="scale(0.12437810945273632)" fill="none" stroke="currentColor" paint-order="fill stroke markers" d="m132.24402,175.99182c3.45426,0 6.24977,-2.79511 6.24977,-6.24977c0,-3.45426 -2.79531,-6.24977 -6.24977,-6.24977c-3.45446,0 -6.24977,2.79531 -6.24977,6.24977c0.0002,3.45466 2.79531,6.24977 6.24977,6.24977z" stroke-width="5" stroke-miterlimit="10" stroke-dasharray=""></path><path data-v-9833e8b2="" transform="scale(0.12437810945273632)" fill="none" stroke="currentColor" paint-order="fill stroke markers" d="m100.99556,113.4949l-37.49823,0l0,-24.99889l-37.49823,0l0,24.99889l0,12.49935l37.49823,0l37.49823,0l37.49823,0l0,-12.49935l0,-24.99889l-37.49823,0l0,24.99889zm-62.49712,0l0,-12.49954l12.49934,0l0,12.49954l-12.49934,0zm74.99647,-12.49954l12.49955,0l0,12.49954l-12.49955,0l0,-12.49954z" stroke-width="5" stroke-miterlimit="10" stroke-dasharray=""></path></g></svg>