<svg data-v-9833e8b2="" version="1.1" xmlns="http://www.w3.org/2000/svg" xmlns:xlink="http://www.w3.org/1999/xlink" width="19.5" height="25"><g data-v-9833e8b2=""><path data-v-9833e8b2="" transform="scale(0.21929824561403508)" fill="none" stroke="currentColor" paint-order="fill stroke markers" d="m30.30468,63.48014l-23.06256,0a6.25002,6.25002 0 0 1 -4.68751,-10.37503l43.75011,-50.00013a6.25002,6.25002 0 0 1 10.75003,5.62501l-10.56253,42.25011l23.25006,0a6.25002,6.25002 0 0 1 4.68751,10.37503l-43.75011,50.00013a6.25002,6.25002 0 0 1 -4.68751,2.12501a6.25002,6.25002 0 0 1 -6.25002,-7.75002l10.56253,-42.25011zm-9.31252,-12.50003l12.50003,0l5.06251,-20.12505l-17.56254,20.12505zm22.37506,12.50003l-5.06251,20.12505l17.62504,-20.12505l-12.56253,0z" stroke-width="5" stroke-miterlimit="10" stroke-dasharray=""></path></g></svg>