<svg data-v-9833e8b2="" version="1.1" xmlns="http://www.w3.org/2000/svg" xmlns:xlink="http://www.w3.org/1999/xlink" width="7" height="25"><g data-v-9833e8b2=""><path data-v-9833e8b2="" transform="scale(0.08865248226950355)" fill="none" stroke="currentColor" paint-order="fill stroke markers" d="m31.31783,1l-1,43" stroke-width="5" stroke-miterlimit="10" stroke-dasharray=""></path><path data-v-9833e8b2="" transform="scale(0.08865248226950355)" fill="none" stroke="currentColor" paint-order="fill stroke markers" d="m376.04202,279.09267l0,90l-40,0l0,-90l40,0m8,-8l-56,0l0,106l56,0l0,-106l0,0z" stroke-width="5" stroke-miterlimit="10" stroke-dasharray=""></path><path data-v-9833e8b2="" transform="scale(0.08865248226950355)" fill="none" stroke="currentColor" paint-order="fill stroke markers" d="m356.04202,409.09267c-2.21,0 -4,-1.79 -4,-4l0,-161c0,-2.21 1.79,-4 4,-4s4,1.79 4,4l0,161c0,2.21 -1.79,4 -4,4z" stroke-width="5" stroke-miterlimit="10" stroke-dasharray=""></path><path data-v-9833e8b2="" transform="scale(0.08865248226950355)" fill="none" stroke="currentColor" paint-order="fill stroke markers" d="m115.2702,226.0089c-1.03,0 -2.07,-0.4 -2.85,-1.2c-1.55,-1.57 -1.53,-4.11 0.05,-5.66l43.36,-42.65l-43.36,-42.64c-1.58,-1.55 -1.6,-4.08 -0.05,-5.66c1.55,-1.58 4.08,-1.6 5.66,-0.05l49.16,48.35l-49.17,48.36c-0.77,0.77 -1.79,1.15 -2.8,1.15z" stroke-width="5" stroke-miterlimit="10" stroke-dasharray=""></path><path data-v-9833e8b2="" transform="scale(0.08865248226950355)" fill="none" stroke="currentColor" paint-order="fill stroke markers" d="m82.2702,226.0089c-1.03,0 -2.07,-0.4 -2.85,-1.2c-1.55,-1.57 -1.53,-4.11 0.05,-5.66l43.36,-42.65l-43.36,-42.64c-1.58,-1.55 -1.6,-4.08 -0.05,-5.66c1.55,-1.58 4.08,-1.6 5.66,-0.05l49.16,48.35l-49.17,48.36c-0.77,0.77 -1.79,1.15 -2.8,1.15z" stroke-width="5" stroke-miterlimit="10" stroke-dasharray=""></path><path data-v-9833e8b2="" transform="scale(0.08865248226950355)" fill="none" stroke="currentColor" paint-order="fill stroke markers" d="m115.2702,494.0089c-1.03,0 -2.07,-0.4 -2.85,-1.2c-1.55,-1.57 -1.53,-4.11 0.05,-5.66l43.36,-42.65l-43.36,-42.64c-1.58,-1.55 -1.6,-4.08 -0.05,-5.66c1.55,-1.58 4.08,-1.6 5.66,-0.05l49.16,48.35l-49.17,48.36c-0.77,0.77 -1.79,1.15 -2.8,1.15z" stroke-width="5" stroke-miterlimit="10" stroke-dasharray=""></path><path data-v-9833e8b2="" transform="scale(0.08865248226950355)" fill="none" stroke="currentColor" paint-order="fill stroke markers" d="m82.2702,494.0089c-1.03,0 -2.07,-0.4 -2.85,-1.2c-1.55,-1.57 -1.53,-4.11 0.05,-5.66l43.36,-42.65l-43.36,-42.64c-1.58,-1.55 -1.6,-4.08 -0.05,-5.66c1.55,-1.58 4.08,-1.6 5.66,-0.05l49.16,48.35l-49.17,48.36c-0.77,0.77 -1.79,1.15 -2.8,1.15z" stroke-width="5" stroke-miterlimit="10" stroke-dasharray=""></path><path data-v-9833e8b2="" transform="scale(0.08865248226950355)" fill="none" stroke="currentColor" paint-order="fill stroke markers" d="m31.31783,93l-1,19" stroke-width="5" stroke-miterlimit="10" stroke-dasharray=""></path><path data-v-9833e8b2="" transform="scale(0.08865248226950355)" fill="none" stroke="currentColor" paint-order="fill stroke markers" d="m1,152c0,-7.9104 5.28864,-14.31782 11.81782,-14.31782c6.52918,0 11.81782,6.40742 11.81782,14.31782c0,7.9104 -5.28864,14.31782 -11.81782,14.31782c-6.52918,0 -11.81782,-6.40742 -11.81782,-14.31782z" stroke-width="5" stroke-miterlimit="10" stroke-dasharray=""></path><path data-v-9833e8b2="" transform="scale(0.08865248226950355)" fill="none" stroke="currentColor" paint-order="fill stroke markers" d="m31.31783,117l1,126.00001" stroke-width="5" stroke-miterlimit="10" stroke-dasharray=""></path><path data-v-9833e8b2="" transform="scale(0.08865248226950355)" fill="none" stroke="currentColor" paint-order="fill stroke markers" d="m2.5,180c0,-7.9104 5.28864,-14.31782 11.81782,-14.31782c6.52918,0 11.81782,6.40742 11.81782,14.31782c0,7.9104 -5.28864,14.31782 -11.81782,14.31782c-6.52918,0 -11.81782,-6.40742 -11.81782,-14.31782z" stroke-width="5" stroke-miterlimit="10" stroke-dasharray=""></path><path data-v-9833e8b2="" transform="scale(0.08865248226950355)" fill="none" stroke="currentColor" paint-order="fill stroke markers" d="m37.5,155c0,-7.9104 5.28864,-14.31782 11.81782,-14.31782c6.52918,0 11.81782,6.40742 11.81782,14.31782c0,7.9104 -5.28864,14.31782 -11.81782,14.31782c-6.52918,0 -11.81782,-6.40742 -11.81782,-14.31782z" stroke-width="5" stroke-miterlimit="10" stroke-dasharray=""></path><path data-v-9833e8b2="" transform="scale(0.08865248226950355)" fill="none" stroke="currentColor" paint-order="fill stroke markers" d="m36.5,183c0,-7.9104 5.28864,-14.31782 11.81782,-14.31782c6.52918,0 11.81782,6.40742 11.81782,14.31782c0,7.9104 -5.28864,14.31782 -11.81782,14.31782c-6.52918,0 -11.81782,-6.40742 -11.81782,-14.31782z" stroke-width="5" stroke-miterlimit="10" stroke-dasharray=""></path><path data-v-9833e8b2="" transform="scale(0.08865248226950355)" fill="none" stroke="currentColor" paint-order="fill stroke markers" d="m12.31783,129l3,89" stroke-width="5" stroke-miterlimit="10" stroke-dasharray=""></path><path data-v-9833e8b2="" transform="scale(0.08865248226950355)" fill="none" stroke="currentColor" paint-order="fill stroke markers" d="m47.81783,128.5l3,89" stroke-width="5" stroke-miterlimit="10" stroke-dasharray=""></path><path data-v-9833e8b2="" transform="scale(0.08865248226950355)" fill="none" stroke="currentColor" paint-order="fill stroke markers" d="m207.2713,1040.52l-47.5,0l0,-14.5c0,-2.21 -1.79,-4 -4,-4s-4,1.79 -4,4l0,14.5l-1.8,0l-48.2,-29.52l0,29.52l-47.5,0c-2.21,0 -4,1.79 -4,4s1.79,4 4,4l47.5,0l0,29.52l48.2,-29.52l1.8,0l0,14.5c0,2.21 1.79,4 4,4s4,-1.79 4,-4l0,-14.5l47.5,0c2.21,0 4,-1.79 4,-4s-1.79,-4 -4,-4zm-97.5,23.24l0,-38.48l31.42,19.24l-31.42,19.24z" stroke-width="5" stroke-miterlimit="10" stroke-dasharray=""></path></g></svg>