<svg data-v-9833e8b2="" version="1.1" xmlns="http://www.w3.org/2000/svg" xmlns:xlink="http://www.w3.org/1999/xlink" width="24.5" height="25"><g data-v-9833e8b2=""><path data-v-9833e8b2="" transform="scale(0.16233766233766234)" fill="none" stroke="currentColor" paint-order="fill stroke markers" d="m109.25632,22.50883a23.54392,23.54392 0 0 1 22.66672,24.31585l0,78.80722a24.84217,24.84217 0 0 1 -6.70177,17.2632a21.8597,21.8597 0 0 1 -15.96495,7.01756l-82.07038,0a23.57901,23.57901 0 0 1 -22.66672,-24.31585l0,-78.77213a23.57901,23.57901 0 0 1 22.66672,-24.31585l82.07038,0m0,-3.50878l-82.07038,0a27.08779,27.08779 0 0 0 -26.1755,27.82463l0,78.80722a27.08779,27.08779 0 0 0 26.1755,27.82463l82.07038,0a27.0527,27.0527 0 0 0 26.17551,-27.82463l0,-78.80722a27.0527,27.0527 0 0 0 -26.17551,-27.82463z" stroke-width="5" stroke-miterlimit="10" stroke-dasharray=""></path><path data-v-9833e8b2="" transform="scale(0.16233766233766234)" fill="none" stroke="currentColor" paint-order="fill stroke markers" d="m104.41421,33.77201a17.5439,17.5439 0 0 1 16.87724,18.00005l0,68.59666a17.5439,17.5439 0 0 1 -16.87724,17.96496l-72.45632,0a17.5439,17.5439 0 0 1 -16.84215,-17.96496l0,-68.59666a17.5439,17.5439 0 0 1 16.84215,-18.00005l72.45632,0m0,-3.50878l-72.45632,0a21.05268,21.05268 0 0 0 -20.35093,21.50883l0,68.59666a21.05268,21.05268 0 0 0 20.35093,21.47374l72.45632,0a21.05268,21.05268 0 0 0 20.38602,-21.47374l0,-68.59666a21.05268,21.05268 0 0 0 -20.38602,-21.50883zm5.71931,-25.75445a15.85969,15.85969 0 0 1 4.38598,7.01756l-92.49146,0a16.87724,16.87724 0 0 1 4.3158,-7.01756l83.78969,0m0,-3.50878l-83.78969,0c-5.15791,0 -9.29827,14.03512 -9.29827,14.03512l102.49148,0s-4.17545,-14.03512 -9.29827,-14.03512l-0.10526,0z" stroke-width="5" stroke-miterlimit="10" stroke-dasharray=""></path><path data-v-9833e8b2="" transform="scale(0.16233766233766234)" fill="none" stroke="currentColor" paint-order="fill stroke markers" d="m69.81763,108.68448l-6.98247,18.35092l19.08777,-23.71936l-13.96495,-2.77194l6.73686,-18.38601l-20.24566,25.36848l15.36846,1.1579z" stroke-width="5" stroke-miterlimit="10" stroke-dasharray=""></path><path data-v-9833e8b2="" transform="scale(0.16233766233766234)" fill="none" stroke="currentColor" paint-order="fill stroke markers" d="m85.99311,129.70208a1.7193,1.7193 0 0 1 -1.57895,-0.94737a1.75439,1.75439 0 0 1 0.77193,-2.35088c8.66669,-4.49124 14.03512,-10.00003 16.17548,-16.38601c2.56141,-7.64914 -0.84211,-25.50884 -8.77195,-38.35097c-1.26316,5.12282 -3.89475,12.07021 -8.49125,11.64915a6.10528,6.10528 0 0 1 -5.12282,-6.3158c0,-0.17544 0,-18.84215 -13.08775,-29.40358l0,0.91228c-1.47369,9.43862 -3.29825,21.05268 -16.14039,31.3685c-10.52634,8.28072 -16.66671,14.03512 -15.05267,26.772c1.19299,9.29827 6.6316,13.36845 13.50881,18.49127l0.66667,0.49123a1.75439,1.75439 0 0 1 -2.10527,2.80702l-0.84211,-0.31579c-7.01756,-5.193 -13.50881,-10.0702 -14.87723,-20.84216c-1.96492,-15.36846 6.52633,-22.14041 16.35092,-29.96499c11.75441,-9.40353 13.40354,-19.89479 14.87723,-29.15797c0.21053,-1.33334 0.38597,-2.5965 0.63158,-3.82457l0.45614,-2.63158l2.24562,1.47369c16.7018,11.19301 16.87724,33.12289 16.87724,34.03517s0.77193,2.66667 1.92983,2.77194c1.92983,0 4.49124,-6.70177 5.50879,-12.84214l0.70176,-4.07019l2.45615,3.29825c10.31582,14.03512 14.6667,35.57904 11.54389,44.94748c-2.28071,7.08774 -8.31581,13.29828 -17.82461,18.21057a1.68422,1.68422 0 0 1 -0.80702,0.17544z" stroke-width="5" stroke-miterlimit="10" stroke-dasharray=""></path></g></svg>