<svg data-v-9833e8b2="" version="1.1" xmlns="http://www.w3.org/2000/svg" xmlns:xlink="http://www.w3.org/1999/xlink" width="25" height="20"><g data-v-9833e8b2=""><path data-v-9833e8b2="" transform="scale(0.13227513227513227)" fill="none" stroke="currentColor" paint-order="fill stroke markers" d="m179.4215,19.94742l-15.2632,0l0,-11.05266c0,-4.21054 -3.1579,-7.89476 -7.36844,-7.89476l-31.05271,0c-4.21054,0 -7.36844,3.68422 -7.36844,7.89476l0,11.05266l-48.42118,0l0,-11.05266c0,-4.21054 -3.1579,-7.89476 -7.36844,-7.89476l-31.05271,0c-4.21054,0 -7.36844,3.68422 -7.36844,7.89476l0,11.05266l-15.2632,0c-4.21054,0 -7.89476,3.1579 -7.89476,7.36844l0,21.05269c0,4.21054 3.68422,7.89476 7.89476,7.89476l0.52632,0l0,84.21074c0,4.21054 3.68422,7.89476 7.89476,7.89476l154.73723,0c4.21054,0 7.89476,-3.68422 7.89476,-7.89476l0,-84.21074l0.52632,0c4.21054,0 7.89476,-3.68422 7.89476,-7.89476l0,-21.05269c-1.05263,-4.21054 -4.73685,-7.36844 -8.94739,-7.36844zm-53.68435,-11.05266l31.05271,0.52632l0,11.05266l-31.57903,0l0.52632,-11.57898zm-94.21076,0l31.05271,0l0,11.05266l-31.57903,0l0.52632,-11.05266zm140.52667,130.52665c0,0.52632 -0.52632,1.05264 -0.52632,1.57895l-155.26355,-0.52632l0,-84.21074l155.26355,0l0,83.1581l0.52632,0zm-163.68462,-90.52654l0.52632,-21.579l171.05306,0l0,20.00005c0,0.52632 -0.52632,1.05264 -0.52632,1.57895l-171.05306,0z" stroke-width="5" stroke-miterlimit="10" stroke-dasharray=""></path><path data-v-9833e8b2="" transform="scale(0.13227513227513227)" fill="none" stroke="currentColor" paint-order="fill stroke markers" d="m40.47378,102.05289l12.63161,0l0,12.63161c0,2.10527 1.57895,3.68422 3.68422,3.68422s3.68422,-1.57895 3.68422,-3.68422l0,-12.63161l12.63161,0c2.10527,0 3.68422,-1.57895 3.68422,-3.68422s-1.57895,-3.68422 -3.68422,-3.68422l-12.63161,0l0,-12.63161c0,-2.10527 -1.57895,-3.68422 -3.68422,-3.68422s-3.68422,1.57895 -3.68422,3.68422l0,12.63161l-12.63161,0c-2.10527,0 -3.68422,1.57895 -3.68422,3.68422s1.57895,3.68422 3.68422,3.68422zm73.6844,0l32.10534,0c2.10527,0 3.68422,-1.57895 3.68422,-3.68422s-1.57895,-3.68422 -3.68422,-3.68422l-32.10534,0c-2.10527,0 -3.68422,1.57895 -3.68422,3.68422s1.57895,3.68422 3.68422,3.68422z" stroke-width="5" stroke-miterlimit="10" stroke-dasharray=""></path></g></svg>