<svg data-v-9833e8b2="" version="1.1" xmlns="http://www.w3.org/2000/svg" xmlns:xlink="http://www.w3.org/1999/xlink" width="25" height="12.5"><g data-v-9833e8b2=""><path data-v-9833e8b2="" transform="scale(0.14124293785310735)" fill="none" stroke="currentColor" paint-order="fill stroke markers" d="m21.19536,21.19536l121.15265,0l0,53.84779l-121.15265,0l0,-53.84779z" stroke-width="5" stroke-miterlimit="10" stroke-dasharray=""></path><path data-v-9833e8b2="" transform="scale(0.14124293785310735)" fill="none" stroke="currentColor" paint-order="fill stroke markers" d="m170.16058,27.93366l-7.63674,0l0,-20.19536c0,-3.71095 -3.02735,-6.7383 -6.7383,-6.7383l-148.04725,0c-3.69142,0 -6.7383,3.02735 -6.7383,6.7383l0,80.76192c0,3.69142 3.02735,6.7383 6.7383,6.7383l148.08631,0c3.69142,0 6.7383,-3.02735 6.7383,-6.7383l0,-20.17583l7.63674,0c3.22266,0 5.83986,-2.61719 5.83986,-5.83986l0,-28.71101c-0.03906,-3.20313 -2.65626,-5.83986 -5.87892,-5.83986zm-21.07427,53.84779l-134.62925,0l0,-67.30486l134.60971,0l0,67.30486l0.01953,0z" stroke-width="5" stroke-miterlimit="10" stroke-dasharray=""></path></g></svg>