<svg data-v-9833e8b2="" version="1.1" xmlns="http://www.w3.org/2000/svg" xmlns:xlink="http://www.w3.org/1999/xlink" width="27" height="25"><g data-v-9833e8b2=""><path data-v-9833e8b2="" transform="scale(0.18518518518518517)" fill="none" stroke="currentColor" paint-order="fill stroke markers" d="m62.70398,108.05742l13.64003,-22.73339l-27.5334,0a5.00001,5.00001 0 0 1 -4.28668,-7.57335l18.18005,-30.30008a5.00001,5.00001 0 0 1 8.57336,5.14668l-13.64003,22.73339l27.5334,0a5.00001,5.00001 0 0 1 4.28668,7.56669l-18.18005,30.30674a5.00001,5.00001 0 0 1 -8.57336,-5.14668zm-57.80015,-50.49346l52.66013,-52.66013a13.33337,13.33337 0 0 1 18.85338,0l52.6668,52.6668a13.33337,13.33337 0 0 1 -9.43336,22.75339l-4.17334,0l0,41.21344a13.33337,13.33337 0 0 1 -13.33337,13.33337l-70.30684,0a13.33337,13.33337 0 0 1 -13.33337,-13.33337l0,-41.21344l-4.17334,0a13.33337,13.33337 0 0 1 -9.42669,-22.76006zm6.09335,9.42669a3.33334,3.33334 0 0 0 3.33334,3.33334l4.17334,0a10.00003,10.00003 0 0 1 10.00003,10.00003l0,41.21344a3.33334,3.33334 0 0 0 3.33334,3.33334l70.30684,0a3.33334,3.33334 0 0 0 3.33334,-3.33334l0,-41.21344a10.00003,10.00003 0 0 1 10.00003,-10.00003l4.17334,0a3.33334,3.33334 0 0 0 2.35334,-5.68668l-52.65346,-52.6668a3.33334,3.33334 0 0 0 -4.71335,0l-52.6668,52.6668a3.33334,3.33334 0 0 0 -0.97334,2.35334z" stroke-width="5" stroke-miterlimit="10" stroke-dasharray=""></path></g></svg>