<svg data-v-9833e8b2="" version="1.1" xmlns="http://www.w3.org/2000/svg" xmlns:xlink="http://www.w3.org/1999/xlink" width="27" height="25"><g data-v-9833e8b2=""><path data-v-9833e8b2="" transform="scale(0.23809523809523808)" fill="none" stroke="currentColor" paint-order="fill stroke markers" d="m30.65027,97.39114l3.05387,0l0,0.55525l-3.05387,0l0,-0.55525z" stroke-width="5" stroke-miterlimit="10" stroke-dasharray=""></path><path data-v-9833e8b2="" transform="scale(0.23809523809523808)" fill="none" stroke="currentColor" paint-order="fill stroke markers" d="m30.65027,98.27954l0,-1.22155l-2.22099,0l0,1.22155l2.22099,0z" stroke-width="5" stroke-miterlimit="10" stroke-dasharray=""></path><path data-v-9833e8b2="" transform="scale(0.23809523809523808)" fill="none" stroke="currentColor" paint-order="fill stroke markers" d="m30.65027,99.00136l3.05387,0l0,0.55525l-3.05387,0l0,-0.55525z" stroke-width="5" stroke-miterlimit="10" stroke-dasharray=""></path><path data-v-9833e8b2="" transform="scale(0.23809523809523808)" fill="none" stroke="currentColor" paint-order="fill stroke markers" d="m30.65027,99.88975l0,-1.22155l-2.22099,0l0,1.22155l2.22099,0z" stroke-width="5" stroke-miterlimit="10" stroke-dasharray=""></path><path data-v-9833e8b2="" transform="scale(0.23809523809523808)" fill="none" stroke="currentColor" paint-order="fill stroke markers" d="m1,102.16627c0,1.1105 0.8884,1.9989 1.9989,1.9989l2.55414,0c1.1105,0 1.99889,-0.8884 1.99889,-1.9989l0,-49.58369l-6.55193,0l0,49.58369zm91.50495,0c0,1.1105 0.8884,1.9989 1.99889,1.9989l2.55414,0c1.1105,0 1.9989,-0.8884 1.9989,-1.9989l0,-49.58369l-6.55193,0l0,49.58369z" stroke-width="5" stroke-miterlimit="10" stroke-dasharray=""></path><path data-v-9833e8b2="" transform="scale(0.23809523809523808)" fill="none" stroke="currentColor" paint-order="fill stroke markers" d="m86.56379,79.62319c0,1.05497 0.83287,1.88784 1.88784,1.88784s1.88784,-0.83287 1.88784,-1.88784l0,-27.0406l-3.77569,0l0,27.0406zm-5.94116,0c0,1.05497 0.83287,1.88784 1.88784,1.88784s1.88784,-0.83287 1.88784,-1.88784l0,-27.0406l-3.77569,0l0,27.0406zm-5.88563,0c0,1.05497 0.83287,1.88784 1.88784,1.88784s1.88784,-0.83287 1.88784,-1.88784l0,-27.0406l-3.77569,0l0,27.0406zm-5.94116,0c0,1.05497 0.83287,1.88784 1.88784,1.88784s1.88784,-0.83287 1.88784,-1.88784l0,-27.0406l-3.77569,0l0,27.0406zm-5.88563,0c0,1.05497 0.83287,1.88784 1.88784,1.88784s1.88784,-0.83287 1.88784,-1.88784l0,-27.0406l-3.77569,0l0,27.0406zm-5.88563,0c0,1.05497 0.83287,1.88784 1.88784,1.88784s1.88784,-0.83287 1.88784,-1.88784l0,-27.0406l-3.77569,0l0,27.0406zm-5.94116,0c0,1.05497 0.83287,1.88784 1.88784,1.88784s1.88785,-0.83287 1.88785,-1.88784l0,-27.0406l-3.77569,0l0,27.0406zm-5.88563,0c0,1.05497 0.83287,1.88784 1.88785,1.88784s1.88784,-0.83287 1.88784,-1.88784l0,-27.0406l-3.77569,0l0,27.0406zm-5.94116,0c0,1.05497 0.83287,1.88784 1.88784,1.88784s1.88784,-0.83287 1.88784,-1.88784l0,-27.0406l-3.77569,0l0,27.0406zm-5.88563,0c0,1.05497 0.83287,1.88784 1.88784,1.88784s1.88784,-0.83287 1.88784,-1.88784l0,-27.0406l-3.77569,0l0,27.0406zm-5.94116,0c0,1.05497 0.83287,1.88784 1.88784,1.88784s1.88784,-0.83287 1.88784,-1.88784l0,-27.0406l-3.77569,0l0,27.0406zm-5.88563,0c0,1.05497 0.83287,1.88784 1.88784,1.88784s1.88784,-0.83287 1.88784,-1.88784l0,-27.0406l-3.77569,0l0,27.0406zm-5.94116,0c0,1.05497 0.83287,1.88784 1.88784,1.88784s1.88784,-0.83287 1.88784,-1.88784l0,-27.0406l-3.77569,0l0,27.0406z" stroke-width="5" stroke-miterlimit="10" stroke-dasharray=""></path><path data-v-9833e8b2="" transform="scale(0.23809523809523808)" fill="none" stroke="currentColor" paint-order="fill stroke markers" d="m17.37983,92.89362c-3.99779,-4.05331 -3.94226,-10.43867 -3.88674,-13.15939l0,-27.15165l-3.77569,0l0,27.15165c-0.05553,3.22044 -0.11105,10.7163 4.94171,15.82458c3.16492,3.22044 7.829,4.83066 13.77016,4.83066l0,-3.77569c-4.88619,0 -8.60635,-1.27707 -11.04945,-3.72017z" stroke-width="5" stroke-miterlimit="10" stroke-dasharray=""></path><path data-v-9833e8b2="" transform="scale(0.23809523809523808)" fill="none" stroke="currentColor" paint-order="fill stroke markers" d="m5.55304,1l-2.55414,0c-1.1105,0 -1.9989,0.8884 -1.9989,1.9989l0,49.58369l6.55193,0l0,-49.58369c0,-1.1105 -0.8884,-1.99889 -1.99889,-1.99889l0,0zm91.50495,0l-2.55414,0c-1.1105,0 -1.99889,0.8884 -1.99889,1.9989l0,49.58369l6.55193,0l0,-49.58369c0,-1.1105 -0.8884,-1.99889 -1.9989,-1.99889l0,0z" stroke-width="5" stroke-miterlimit="10" stroke-dasharray=""></path><path data-v-9833e8b2="" transform="scale(0.23809523809523808)" fill="none" stroke="currentColor" paint-order="fill stroke markers" d="m88.45164,23.65414c-1.05497,0 -1.88784,0.83287 -1.88784,1.88784l0,27.0406l3.77569,0l0,-27.0406c0,-1.05497 -0.83287,-1.88784 -1.88784,-1.88784zm-5.94116,0c-1.05497,0 -1.88784,0.83287 -1.88784,1.88784l0,27.0406l3.77569,0l0,-27.0406c0,-1.05497 -0.83287,-1.88784 -1.88784,-1.88784zm-5.88563,0c-1.05497,0 -1.88784,0.83287 -1.88784,1.88784l0,27.0406l3.77569,0l0,-27.0406c0,-1.05497 -0.83287,-1.88784 -1.88784,-1.88784zm-5.94116,0c-1.05497,0 -1.88784,0.83287 -1.88784,1.88784l0,27.0406l3.77569,0l0,-27.0406c0,-1.05497 -0.83287,-1.88784 -1.88784,-1.88784zm-5.88563,0c-1.05497,0 -1.88784,0.83287 -1.88784,1.88784l0,27.0406l3.77569,0l0,-27.0406c0,-1.05497 -0.83287,-1.88784 -1.88784,-1.88784zm-5.88563,0c-1.05497,0 -1.88784,0.83287 -1.88784,1.88784l0,27.0406l3.77569,0l0,-27.0406c-0.05552,-1.05497 -0.8884,-1.88784 -1.88784,-1.88784zm-5.94116,0c-1.05497,0 -1.88784,0.83287 -1.88784,1.88784l0,27.0406l3.77569,0l0,-27.0406c0,-1.05497 -0.83287,-1.88784 -1.88785,-1.88784zm-5.88563,0c-1.05497,0 -1.88785,0.83287 -1.88785,1.88784l0,27.0406l3.77569,0l0,-27.0406c0,-1.05497 -0.8884,-1.88784 -1.88785,-1.88784l0,0zm-5.94116,0c-1.05497,0 -1.88784,0.83287 -1.88784,1.88784l0,27.0406l3.77569,0l0,-27.0406c0,-1.05497 -0.83287,-1.88784 -1.88784,-1.88784zm-5.88563,0c-1.05497,0 -1.88784,0.83287 -1.88784,1.88784l0,27.0406l3.77569,0l0,-27.0406c0,-1.05497 -0.8884,-1.88784 -1.88784,-1.88784zm-5.94116,0c-1.05497,0 -1.88784,0.83287 -1.88784,1.88784l0,27.0406l3.77569,0l0,-27.0406c0,-1.05497 -0.83287,-1.88784 -1.88784,-1.88784zm-5.88563,0c-1.05497,0 -1.88784,0.83287 -1.88784,1.88784l0,27.0406l3.77569,0l0,-27.0406c0,-1.05497 -0.83287,-1.88784 -1.88784,-1.88784zm-5.94116,0c-1.05497,0 -1.88784,0.83287 -1.88785,1.88784l0,27.0406l3.77569,0l0,-27.0406c0,-1.05497 -0.83287,-1.88784 -1.88784,-1.88784zm-5.88563,0c-1.05497,0 -1.88784,0.83287 -1.88784,1.88784l0,27.0406l3.77569,0l0,-27.0406c0,-1.05497 -0.83287,-1.88784 -1.88784,-1.88784z" stroke-width="5" stroke-miterlimit="10" stroke-dasharray=""></path></g></svg>