<svg data-v-9833e8b2="" version="1.1" xmlns="http://www.w3.org/2000/svg" xmlns:xlink="http://www.w3.org/1999/xlink" width="22" height="25"><g data-v-9833e8b2=""><path data-v-9833e8b2="" transform="scale(0.15822784810126583)" fill="none" stroke="currentColor" paint-order="fill stroke markers" d="m1,10.76565l117.1878,0" stroke-width="5" stroke-miterlimit="10" stroke-dasharray=""></path><path data-v-9833e8b2="" transform="scale(0.15822784810126583)" fill="none" stroke="currentColor" paint-order="fill stroke markers" d="m56.6642,10.76565l1.95313,0l0,119.72686l-1.95313,0l0,-119.72686z" stroke-width="5" stroke-miterlimit="10" stroke-dasharray=""></path><path data-v-9833e8b2="" transform="scale(0.15822784810126583)" fill="none" stroke="currentColor" paint-order="fill stroke markers" d="m64.28141,60.96109l8.59377,0l0,26.56237l-8.59377,0l0,-26.56237z" stroke-width="5" stroke-miterlimit="10" stroke-dasharray=""></path><path data-v-9833e8b2="" transform="scale(0.15822784810126583)" fill="none" stroke="currentColor" paint-order="fill stroke markers" d="m1,10.76565l117.1878,0l0,-9.76565l-117.1878,0l0,9.76565zm55.6642,136.71909l-55.6642,0l0,9.76565l117.1878,0l0,-9.76565l-59.57046,0l-1.95313,0z" stroke-width="5" stroke-miterlimit="10" stroke-dasharray=""></path><path data-v-9833e8b2="" transform="scale(0.15822784810126583)" fill="none" stroke="currentColor" paint-order="fill stroke markers" d="m72.87518,60.96109l-8.59377,0l0,26.56257l8.59377,0l0,-26.56257z" stroke-width="5" stroke-miterlimit="10" stroke-dasharray=""></path><path data-v-9833e8b2="" transform="scale(0.15822784810126583)" fill="none" stroke="currentColor" paint-order="fill stroke markers" d="m1,130.49251l117.1878,0" stroke-width="5" stroke-miterlimit="10" stroke-dasharray=""></path><path data-v-9833e8b2="" transform="scale(0.15822784810126583)" fill="none" stroke="currentColor" paint-order="fill stroke markers" d="m89.6721,76.1955l-9.76565,0l4.88282,-8.20315l4.88282,8.20315zm-2.34376,-4.10157" stroke-width="5" stroke-miterlimit="10" stroke-dasharray=""></path><path data-v-9833e8b2="" transform="scale(0.15822784810126583)" fill="none" stroke="currentColor" paint-order="fill stroke markers" d="m84.00802,72.87518l0.58594,0l-0.39063,0.97656l0.97656,-0.97656l-0.58594,0l0.58594,-1.17188l-0.78125,0l-0.39063,1.17188z" stroke-width="5" stroke-miterlimit="10" stroke-dasharray=""></path><path data-v-9833e8b2="" transform="scale(0.15822784810126583)" fill="none" stroke="currentColor" paint-order="fill stroke markers" d="m1,10.76565l0,136.71909m117.1878,-136.71909l0,136.71909" stroke-width="5" stroke-miterlimit="10" stroke-dasharray=""></path><path data-v-9833e8b2="" transform="scale(0.15822784810126583)" fill="none" stroke="currentColor" paint-order="fill stroke markers" d="m56.6642,130.49251l0,-119.72686l-55.6642,0l0,119.72686l55.6642,0zm16.21098,-69.53143l0,26.56257l-8.59377,0l0,-26.56257l8.59377,0zm-14.25785,-50.19544l0,119.72686l59.57046,0l0,-119.72686l-59.57046,0zm26.17194,57.22671l4.88282,8.20315l-9.76565,0l4.88282,-8.20315z" stroke-width="5" stroke-miterlimit="10" stroke-dasharray=""></path></g></svg>