<svg data-v-9833e8b2="" version="1.1" xmlns="http://www.w3.org/2000/svg" xmlns:xlink="http://www.w3.org/1999/xlink" width="25" height="25"><g data-v-9833e8b2=""><path data-v-9833e8b2="" transform="scale(0.12437810945273632)" fill="none" stroke="currentColor" paint-order="fill stroke markers" d="m164.91868,200.80492l-127.37563,0c-5.61951,0 -10.61464,-3.74634 -11.86342,-9.36586l-24.35122,-82.41953c-1.24878,-3.12195 1.24878,-6.86829 4.37073,-7.49268c3.12195,-1.24878 6.86829,1.24878 7.49268,4.37073l24.35122,82.41953l128.00002,0l23.10244,-83.04392c1.24878,-3.12195 4.37073,-4.99512 7.49268,-4.37073c3.12195,1.24878 4.99512,4.37073 4.37073,7.49268l-23.72683,83.04392c-1.24878,5.61951 -6.2439,9.36586 -11.86342,9.36586zm-34.96586,-162.34149c-0.62439,0 -1.87317,0 -2.49756,-0.62439c-3.12195,-1.24878 -4.37073,-4.99512 -3.12195,-8.11707l2.49756,-5.61951c1.24878,-3.12195 4.99512,-4.37073 8.11707,-3.12195c3.12195,1.24878 4.37073,4.99512 3.12195,8.11707l-2.49756,5.61951c-0.62439,1.87317 -3.12195,3.74634 -5.61951,3.74634zm-49.32684,-2.49756l-1.24878,0c-3.12195,-0.62439 -5.61951,-3.74634 -4.99512,-7.49268l1.24878,-6.2439c0.62439,-3.12195 3.74634,-5.61951 7.49268,-4.99512c3.12195,0.62439 5.61951,3.74634 4.99512,7.49268l-1.24878,6.2439c-0.62439,3.12195 -3.12195,4.99512 -6.2439,4.99512zm50.57562,-22.47805l-6.2439,0c-3.74634,0 -6.2439,-2.49756 -6.2439,-6.2439s2.49756,-6.2439 6.2439,-6.2439l6.2439,0c3.74634,0 6.2439,2.49756 6.2439,6.2439s-3.12195,6.2439 -6.2439,6.2439zm-30.59513,0l-6.2439,0c-3.74634,0 -6.2439,-2.49756 -6.2439,-6.2439s2.49756,-6.2439 6.2439,-6.2439l6.2439,0c3.74634,0 6.2439,2.49756 6.2439,6.2439s-3.12195,6.2439 -6.2439,6.2439z" stroke-width="5" stroke-miterlimit="10" stroke-dasharray=""></path><path data-v-9833e8b2="" transform="scale(0.12437810945273632)" fill="none" stroke="currentColor" paint-order="fill stroke markers" d="m155.55282,67.80977l-73.05367,99.27807l-9.36586,-4.37073l1.24878,-4.99512l18.73171,-68.05855l-24.97561,0l-2.49756,-2.49756c-1.24878,-1.87317 -1.87317,-3.74634 -1.24878,-5.61951l4.99512,-26.2244l0.62439,-3.12195c0.62439,-3.12195 3.74634,-5.61951 7.49268,-4.99512c3.12195,0.62439 5.61951,3.74634 4.99512,7.49268l-0.62439,3.12195l-3.74634,19.3561l25.6,0l2.49756,2.49756c1.24878,1.87317 1.87317,3.74634 1.24878,6.2439l-12.48781,43.08294l43.70733,-59.31708l-24.97561,0l-2.49756,-3.12195c-1.24878,-1.87317 -1.24878,-4.37073 -0.62439,-6.2439l2.49756,-4.99512l1.24878,-3.12195c1.24878,-3.12195 4.99512,-4.37073 8.11707,-3.12195c3.74634,0.62439 4.99512,4.37073 3.74634,7.49268l23.72683,0c2.49756,0 4.99512,1.24878 6.2439,3.74634s0.62439,4.99512 -0.62439,7.49268z" stroke-width="5" stroke-miterlimit="10" stroke-dasharray=""></path></g></svg>