<svg data-v-9833e8b2="" version="1.1" xmlns="http://www.w3.org/2000/svg" xmlns:xlink="http://www.w3.org/1999/xlink" width="25" height="20"><g data-v-9833e8b2=""><path data-v-9833e8b2="" transform="scale(0.13297872340425532)" fill="none" stroke="currentColor" paint-order="fill stroke markers" d="m187.05,28.2l0,108.8c0,7.51 -5.2,13.6 -11.63,13.6l-162.79,0c-6.42,0 -11.63,-6.09 -11.63,-13.6l0,-108.8c0,-7.51 5.2,-13.6 11.63,-13.6l11.63,0l0,-13.6l43.61,0l0,13.6l52.32,0l0,-13.6l43.61,0l0,13.6l11.63,0c6.42,0 11.62,6.09 11.62,13.6z" stroke-width="5" stroke-miterlimit="10" stroke-dasharray=""></path><path data-v-9833e8b2="" transform="scale(0.13297872340425532)" fill="none" stroke="currentColor" paint-order="fill stroke markers" d="m18.45,35l11.63,0l0,95.2l-11.63,0l0,-95.2l0,0zm23.26,0l11.62,0l0,95.2l-11.62,0l0,-95.2l0,0zm23.25,0l11.63,0l0,95.2l-11.63,0l0,-95.2l0,0zm23.26,0l11.63,0l0,95.2l-11.63,0l0,-95.2l0,0zm23.25,0l11.63,0l0,95.2l-11.63,0l0,-95.2l0,0zm23.26,0l11.63,0l0,95.2l-11.63,0l0,-95.2l0,0zm23.26,0l11.63,0l0,95.2l-11.63,0l0,-95.2l0,0z" stroke-width="5" stroke-miterlimit="10" stroke-dasharray=""></path></g></svg>