<svg data-v-9833e8b2="" version="1.1" xmlns="http://www.w3.org/2000/svg" xmlns:xlink="http://www.w3.org/1999/xlink" width="25" height="12.5"><g data-v-9833e8b2=""><path data-v-9833e8b2="" transform="scale(0.08038585209003216)" fill="none" stroke="currentColor" paint-order="fill stroke markers" d="m20.00001,169.19999l128.52573,-168.19999l162.27428,122.90453l-290.8,45.15436l0,0.14111z" stroke-width="5" stroke-miterlimit="10" stroke-dasharray=""></path><path data-v-9833e8b2="" transform="scale(0.08038585209003216)" fill="none" stroke="currentColor" paint-order="fill stroke markers" d="m13.3332,46.68046c1.11016,0 2.19063,0.11992 3.24063,0.36016l-9.12227,30.21758c-2.55078,-1.02031 -4.74141,-2.6707 -6.45156,-4.77109l7.5918,-25.05625c1.50039,-0.48047 3.09102,-0.75039 4.74141,-0.75039l0,0l-0.00001,-0.00001zm7.71172,2.01016c1.08047,0.60039 2.0707,1.32031 2.9707,2.13047l-8.28203,27.39688c-0.78008,0.12031 -1.59023,0.18008 -2.40039,0.18008c-0.41992,0 -0.81016,-0.03008 -1.23047,-0.06016l8.94219,-29.64727z" stroke-width="5" stroke-miterlimit="10" stroke-dasharray=""></path><path data-v-9833e8b2="" transform="scale(0.08038585209003216)" fill="none" stroke="currentColor" paint-order="fill stroke markers" d="m16.84414,46.68046c8.76211,0 15.84375,7.11172 15.84375,15.87422c0,8.73203 -7.08164,15.84414 -15.84375,15.84414c-8.76211,0 -15.84414,-7.11172 -15.84414,-15.84414c0.00039,-8.7625 7.08203,-15.87422 15.84414,-15.87422l0,0z" stroke-width="5" stroke-miterlimit="10" stroke-dasharray=""></path><path data-v-9833e8b2="" transform="scale(0.08038585209003216)" fill="none" stroke="currentColor" paint-order="fill stroke markers" d="m23.65586,39.89882c12.51289,0 22.65547,10.14258 22.65547,22.65586c0,12.4832 -10.14258,22.62578 -22.65547,22.62578c-12.51328,0 -22.65586,-10.14258 -22.65586,-22.62578c0,-12.51367 10.14297,-22.65586 22.65586,-22.65586l0,0z" stroke-width="5" stroke-miterlimit="10" stroke-dasharray=""></path><path data-v-9833e8b2="" transform="scale(0.08038585209003216)" fill="none" stroke="currentColor" paint-order="fill stroke markers" d="m3.61055,56.58281l53.65313,0c1.44023,0 2.61094,1.17031 2.61094,2.61055l0,9.0625c0,1.44023 -1.17031,2.64063 -2.61094,2.64063l-53.65313,0c-1.44063,0 -2.61055,-1.20039 -2.61055,-2.64063l0,-9.0625c-0.00039,-1.44023 1.16992,-2.61055 2.61055,-2.61055l0,0z" stroke-width="5" stroke-miterlimit="10" stroke-dasharray=""></path><path data-v-9833e8b2="" transform="scale(0.08038585209003216)" fill="none" stroke="currentColor" paint-order="fill stroke markers" d="m9.16209,54.42226c2.04023,-5.94141 6.21133,-10.74258 11.52266,-13.65352l0,26.40664l11.91328,0l0,0l11.91289,0l0,-26.40664c5.31133,2.91055 9.48242,7.71211 11.52305,13.65352l3.39063,0c2.61094,0 4.77148,2.13047 4.77148,4.77109l0,9.0625c0,2.64063 -2.16055,4.80117 -4.77148,4.80117l-4.35117,0c-4.05117,8.67227 -12.7832,14.28359 -22.47539,14.28359c-9.69258,0 -18.42461,-5.61133 -22.47578,-14.28359l-4.35117,0c-2.61055,0 -4.77109,-2.16055 -4.77109,-4.80117l0,-9.0625c0,-2.64063 2.16055,-4.77109 4.77109,-4.77109l3.39102,0l-0.00002,0z" stroke-width="5" stroke-miterlimit="10" stroke-dasharray=""></path><path data-v-9833e8b2="" transform="scale(0.08038585209003216)" fill="none" stroke="currentColor" paint-order="fill stroke markers" d="m66.08633,92.74179l0,0l-65.08633,0l0,3.63086l65.08633,0l0,0l65.08633,0l0,-3.63086l-65.08633,0z" stroke-width="5" stroke-miterlimit="10" stroke-dasharray=""></path><path data-v-9833e8b2="" transform="scale(0.08038585209003216)" fill="none" stroke="currentColor" paint-order="fill stroke markers" d="m6.94141,4.99999l0,0c-3.2707,0 -5.94141,2.6707 -5.94141,5.94141l0,56.23399l11.91289,0l0,0l11.91289,0l0,-56.23399c0,-3.2707 -2.6707,-5.94141 -5.94141,-5.94141l0,0c-6.81172,0 -4.68125,0 -11.94297,0l0,0l0.00001,0z" stroke-width="5" stroke-miterlimit="10" stroke-dasharray=""></path><path data-v-9833e8b2="" transform="scale(0.08038585209003216)" fill="none" stroke="currentColor" paint-order="fill stroke markers" d="m17.08399,12.74179l0,0c5.73125,0.38984 11.10274,1.05039 16.08399,2.07031l0,52.36289l-16.08399,0l0,0l-16.08399,0l0,-52.3625c4.98125,-1.02031 10.35274,-1.68047 16.08399,-2.0707l0,0z" stroke-width="5" stroke-miterlimit="10" stroke-dasharray=""></path><path data-v-9833e8b2="" transform="scale(0.08038585209003216)" fill="none" stroke="currentColor" paint-order="fill stroke markers" d="m63.17579,12.74179l0,0c36.66914,2.43047 58.03438,17.16445 62.1754,54.4336l-62.1754,0l0,0l-62.17579,0c4.14141,-37.26914 25.50664,-52.00274 62.17579,-54.4336l0,0z" stroke-width="5" stroke-miterlimit="10" stroke-dasharray=""></path><path data-v-9833e8b2="" transform="scale(0.08038585209003216)" fill="none" stroke="currentColor" paint-order="fill stroke markers" d="m70.40743,81.60898l0,0l62.1754,0c3.99102,0 7.23164,-3.24063 7.23164,-7.20195l0,0c0,-3.99102 -3.24063,-7.23164 -7.23164,-7.23164l-62.1754,0l0,0l-62.17579,0c-3.96094,0 -7.23164,3.24063 -7.23164,7.23164l0,0c0,3.96094 3.2707,7.20195 7.23164,7.20195l62.17579,0z" stroke-width="5" stroke-miterlimit="10" stroke-dasharray=""></path><path data-v-9833e8b2="" transform="scale(0.08038585209003216)" fill="none" stroke="currentColor" paint-order="fill stroke markers" d="m72.77813,92.74179l0,0l66.22657,0c3.06094,0 5.55117,-2.5207 5.55117,-5.58125l0,0c0,-3.06094 -2.49063,-5.55117 -5.55117,-5.55117l-66.22657,0l0,0l-66.22657,0c-3.06094,0 -5.55156,2.49063 -5.55156,5.55117l0,0c0,3.06094 2.49063,5.58125 5.55156,5.58125l66.22657,0z" stroke-width="5" stroke-miterlimit="10" stroke-dasharray=""></path></g></svg>