<svg data-v-9833e8b2="" version="1.1" xmlns="http://www.w3.org/2000/svg" xmlns:xlink="http://www.w3.org/1999/xlink" width="19.5" height="25"><g data-v-9833e8b2=""><path data-v-9833e8b2="" transform="scale(0.058004640371229696)" fill="none" stroke="currentColor" paint-order="fill stroke markers" d="m217.72551,41.97397c0,-22.63755 15.05228,-40.97397 33.63535,-40.97397c18.58307,0 33.63535,18.33642 33.63535,40.97397c0,22.63755 -15.05228,40.97397 -33.63535,40.97397c-18.58307,0 -33.63535,-18.33642 -33.63535,-40.97397z" stroke-width="5" stroke-miterlimit="10" stroke-dasharray=""></path><path data-v-9833e8b2="" transform="scale(0.058004640371229696)" fill="none" stroke="currentColor" paint-order="fill stroke markers" d="m52.6065,130.64898c0.2435,-18.02221 69.7169,-66.04759 69.7169,-66.04759l72.16312,15.90034l33.02379,30.5776l28.13139,69.7169c0,0 49.21726,-2.05266 57.48587,7.33862c8.26861,9.39128 9.1467,5.16697 -1.2231,17.12345c-10.3698,11.95648 -57.39061,14.93628 -77.05553,3.66932c-19.66492,-11.26696 -20.79277,-46.47794 -20.79277,-46.47794l-36.69311,69.7169c0,0 52.59346,37.91622 55.03967,51.37036l2.44621,13.45414c0,0 -34.61316,118.96672 -59.93208,129.64898c-25.31892,10.68226 -20.79276,-7.33862 -20.79276,-7.33862l31.80069,-116.19485c0,0 -62.63735,-45.00665 -70.94001,-63.60138c-8.30266,-18.59473 0,-26.90828 0,-26.90828l47.70104,-94.17898l-30.57759,-11.00794c0,0 -42.60196,34.93386 -56.26277,36.69311c-18.13184,8.3756 -23.30329,6.85503 -23.23896,-13.45414z" stroke-width="5" stroke-miterlimit="10" stroke-dasharray=""></path><path data-v-9833e8b2="" transform="scale(0.058004640371229696)" fill="none" stroke="currentColor" paint-order="fill stroke markers" d="m80.73788,294.54487l20.79276,-40.36242l25.68518,31.80069l2.4462,1.2231c0,0 -8.45611,28.31736 -29.35448,39.13932c-20.89837,10.82196 -89.28657,-2.4462 -89.28657,-2.4462c0,0 -11.25594,-5.22414 -3.66931,-2.44621c-26.60253,-31.33371 36.65847,-28.1397 73.38622,-26.90828z" stroke-width="5" stroke-miterlimit="10" stroke-dasharray=""></path></g></svg>