<svg data-v-9833e8b2="" version="1.1" xmlns="http://www.w3.org/2000/svg" xmlns:xlink="http://www.w3.org/1999/xlink" width="19.5" height="25"><g data-v-9833e8b2=""><path data-v-9833e8b2="" transform="scale(0.12254901960784313)" fill="none" stroke="currentColor" paint-order="fill stroke markers" d="m1,1l145.03378,0l0,202.95609l-145.03378,0l0,-202.95609z" stroke-width="5" stroke-miterlimit="10" stroke-dasharray=""></path><path data-v-9833e8b2="" transform="scale(0.12254901960784313)" fill="none" stroke="currentColor" paint-order="fill stroke markers" d="m17.875,21.06757l104.44256,0l0,159.1723l-104.44256,0l0,-159.1723z" stroke-width="5" stroke-miterlimit="10" stroke-dasharray=""></path><path data-v-9833e8b2="" transform="scale(0.12254901960784313)" fill="none" stroke="currentColor" paint-order="fill stroke markers" d="m52.08109,51.16892c0,-4.03166 3.26564,-7.2973 7.2973,-7.2973c4.03166,0 7.2973,3.26564 7.2973,7.2973c0,4.03166 -3.26564,7.2973 -7.2973,7.2973c-4.03166,0 -7.2973,-3.26564 -7.2973,-7.2973z" stroke-width="5" stroke-miterlimit="10" stroke-dasharray=""></path><path data-v-9833e8b2="" transform="scale(0.12254901960784313)" fill="none" stroke="currentColor" paint-order="fill stroke markers" d="m58.92229,80.81419c0,0 5.81945,1.92341 -5.92905,4.56081c-4.85121,1.21911 -20.80324,10.57333 -14.59459,-0.45608c1.66859,-2.52471 6.95864,-1.61941 10.94594,-5.0169c3.9873,-3.39749 9.5777,-17.78715 9.5777,-17.78715l5.47299,-2.73649c0,0 19.71431,1.33483 25.54053,5.01689c5.10425,2.56288 13.29949,16.74505 5.47297,16.41892c-3.41451,-0.30579 -4.7462,-7.43568 -7.75338,-9.5777c-3.00718,-2.14203 -8.20946,-2.73649 -8.20946,-2.73649c0,0 9.08267,12.57867 8.20946,19.61148c-0.37464,3.01737 -5.47297,5.01689 -5.47297,5.01689l8.20946,12.31419c0,0 6.23927,0.40046 7.75338,2.28041c1.51411,1.87995 3.64865,6.38513 0.45608,6.38513c-3.19257,0 -9.21434,0.57183 -13.22635,-1.82432c-4.01201,-2.39615 -8.66554,-11.85811 -8.66554,-11.85811l-6.38514,7.2973l1.82433,18.24324c0,0 -2.10312,4.41967 -5.92906,2.2804c-3.82594,-2.13927 -5.48341,-13.34362 -4.56081,-20.06756c0.79745,-5.8119 8.20946,-14.5946 8.20946,-14.5946l-10.94595,-12.77026z" stroke-width="5" stroke-miterlimit="10" stroke-dasharray=""></path><path data-v-9833e8b2="" transform="scale(0.12254901960784313)" fill="none" stroke="currentColor" paint-order="fill stroke markers" d="m27.90878,154.24324l17.78716,0l0.91216,-13.68243l18.69933,0.91216l0,-11.85811l17.33108,-0.91216l-0.91216,-10.94595l19.61148,0l0.45609,-12.31419l18.24324,-0.45608l-0.45608,7.2973l-12.77027,0l1.36824,11.85811l-18.69932,0.45607l-0.00001,11.40203l-18.24324,0.00001l-0.91216,11.8581l-17.78716,0.45609l0.45608,11.8581l-24.1723,0l-0.91216,-5.92905z" stroke-width="5" stroke-miterlimit="10" stroke-dasharray=""></path></g></svg>