<svg data-v-9833e8b2="" version="1.1" xmlns="http://www.w3.org/2000/svg" xmlns:xlink="http://www.w3.org/1999/xlink" width="19.5" height="25"><g data-v-9833e8b2=""><path data-v-9833e8b2="" transform="scale(0.06830601092896176)" fill="none" stroke="currentColor" paint-order="fill stroke markers" d="m131.36057,365.50272c0,0 91.63698,-144.68048 107.86374,-178.27481c16.22676,-33.59433 12.97336,-19.44857 29.96216,-58.42619c16.9888,-38.97762 -17.74622,-82.14913 -41.94702,-100.37321c-24.2008,-18.22408 -79.971,-29.94834 -110.85996,-26.96594c-30.88896,2.9824 -58.76917,17.23642 -79.3997,38.9508c-20.63053,21.71438 -35.11692,54.40945 -35.95458,79.39971c-0.83766,24.99026 19.4754,59.9243 19.4754,59.9243l110.85996,185.76534z" stroke-width="5" stroke-miterlimit="10" stroke-dasharray=""></path><path data-v-9833e8b2="" transform="scale(0.06830601092896176)" fill="none" stroke="currentColor" paint-order="fill stroke markers" d="m207.76403,119.81308a77.15254,76.40349 0 0 1 -76.28479,76.39865a77.15254,76.40349 0 0 1 -78.00077,-74.68011a77.15254,76.40349 0 0 1 74.53021,-78.07854a77.15254,76.40349 0 0 1 79.67729,72.92379" stroke-width="5" stroke-miterlimit="10" stroke-dasharray=""></path><path data-v-9833e8b2="" transform="scale(0.06830601092896176)" fill="none" stroke="currentColor" paint-order="fill stroke markers" d="m177.8019,119.81306a47.93944,52.43377 0 0 1 -47.40026,52.43045a47.93944,52.43377 0 0 1 -48.4665,-51.25106a47.93944,52.43377 0 0 1 46.31003,-53.58331a47.93944,52.43377 0 0 1 49.50822,50.04574" stroke-width="5" stroke-miterlimit="10" stroke-dasharray=""></path></g></svg>