<svg data-v-9833e8b2="" version="1.1" xmlns="http://www.w3.org/2000/svg" xmlns:xlink="http://www.w3.org/1999/xlink" width="22" height="25"><g data-v-9833e8b2=""><path data-v-9833e8b2="" transform="scale(0.0744047619047619)" fill="none" stroke="currentColor" paint-order="fill stroke markers" d="m40.49278,28.67568c0,-15.29043 12.38525,-27.67568 27.67568,-27.67568c15.29043,0 27.67568,12.38525 27.67568,27.67568c0,15.29043 -12.38525,27.67568 -27.67568,27.67568c-15.29043,0 -27.67568,-12.38525 -27.67568,-27.67568z" stroke-width="5" stroke-miterlimit="10" stroke-dasharray=""></path><path data-v-9833e8b2="" transform="scale(0.0744047619047619)" fill="none" stroke="currentColor" paint-order="fill stroke markers" d="m5.8982,139.37838c8.38846,-7.59204 47.56757,-3.45946 47.56757,-3.45946l22.48648,-57.08108l32.86487,-25.08108l57.08108,-12.10811c0,0 53.76612,37.53257 57.94594,52.75676c4.17982,15.22419 -9.51351,12.10811 -9.51351,12.10811l-57.08108,-32l-25.08108,7.78378c0,0 47.15045,65.20508 47.56757,86.48649c0.41712,21.28141 -12.97298,25.94594 -12.97298,25.94594l-56.21621,40.64865c0,0 39.28049,71.55119 34.59459,89.08109c-4.07757,15.25657 -10.76331,11.44892 -23.35135,6.05405c0,0 -55.63103,-69.67623 -51.02703,-100.32433c4.604,-30.6481 51.02703,-52.75676 51.02703,-52.75676l-29.4054,-55.35135c0,0 -11.42647,29.27692 -16.43244,35.45946c-5.00597,6.18254 -6.91892,5.18919 -6.91892,5.18919l-66.59459,-3.45946c0,0 -4.929,-12.29985 3.45946,-19.89189z" stroke-width="5" stroke-miterlimit="10" stroke-dasharray=""></path><path data-v-9833e8b2="" transform="scale(0.0744047619047619)" fill="none" stroke="currentColor" paint-order="fill stroke markers" d="m188.38469,195.5946l16.43242,25.08108c0,0 61.70363,-6.36184 72.64866,5.18919c10.94503,11.55103 0.86486,21.62162 0.86486,21.62162c0,0 -70.30814,12.4081 -86.48649,9.51351c-7.86162,0.26219 -16.27359,-19.10353 -28.54054,-35.45946l25.08109,-25.94594z" stroke-width="5" stroke-miterlimit="10" stroke-dasharray=""></path></g></svg>