<svg data-v-9833e8b2="" version="1.1" xmlns="http://www.w3.org/2000/svg" xmlns:xlink="http://www.w3.org/1999/xlink" width="17" height="25"><g data-v-9833e8b2=""><path data-v-9833e8b2="" transform="scale(0.024366471734892786)" fill="none" stroke="currentColor" paint-order="fill stroke markers" d="m218.15421,981.18157a98.69912,43.81843 0 1 0 197.39824,0a98.69912,43.81843 0 1 0 -197.39824,0z" stroke-width="5" stroke-miterlimit="10" stroke-dasharray=""></path><path data-v-9833e8b2="" transform="scale(0.024366471734892786)" fill="none" stroke="currentColor" paint-order="fill stroke markers" d="m323.98594,1a322.98594,322.98594 0 0 1 322.98594,322.98594c0,300.75374 -310.228,334.61343 -325.83898,643.46873c-17.44124,-308.02092 -320.1329,-339.75429 -320.1329,-643.46873a322.98594,322.98594 0 0 1 322.98594,-322.98594z" stroke-width="5" stroke-miterlimit="10" stroke-dasharray=""></path><path data-v-9833e8b2="" transform="scale(0.024366471734892786)" fill="none" stroke="currentColor" paint-order="fill stroke markers" d="m237.31805,546.03877l-20.07896,0a48.44789,48.44789 0 0 1 -40.37324,-23.7933a67.7463,67.7463 0 0 1 -8.77446,-29.60704l0,-126.07218l-22.82433,0s-32.9984,-1.2112 -27.91137,-31.11431a40.37324,40.37324 0 0 1 12.59645,-22.15145l155.70614,-162.00437a51.13944,51.13944 0 0 1 72.94099,0l155.75997,161.95053s16.71452,16.33771 12.81177,32.00253a25.75813,25.75813 0 0 1 -26.91549,21.23632l-24.06246,0l0,124.64566a63.70898,63.70898 0 0 1 -12.46187,36.44358a47.18286,47.18286 0 0 1 -36.76657,18.46403l-28.04594,0l-161.60063,0z" stroke-width="5" stroke-miterlimit="10" stroke-dasharray=""></path><path data-v-9833e8b2="" transform="scale(0.024366471734892786)" fill="none" stroke="currentColor" paint-order="fill stroke markers" d="m305.3335,475.78933s-83.24962,-11.78899 -83.24962,-78.88932s108.76551,-73.56004 84.67614,-156.89042c0,0 81.39246,24.22395 61.52883,99.26435a64.59719,64.59719 0 0 0 18.84084,-19.2715a105.32033,105.32033 0 0 1 41.26146,76.11702c0,46.07933 -57.08777,79.77753 -84.19167,79.31997c0,0 29.23022,-37.43946 2.69155,-61.36733c-37.43946,-34.15576 -21.31708,-56.25338 -21.31708,-56.25338s-92.26631,42.82255 -20.24045,117.97061z" stroke-width="5" stroke-miterlimit="10" stroke-dasharray=""></path><path data-v-9833e8b2="" transform="scale(0.024366471734892786)" fill="none" stroke="currentColor" paint-order="fill stroke markers" d="m451.00016,298.87378l20.18662,34.96323l-256.397,148.03522l-20.18662,-34.96323l256.397,-148.03522z" stroke-width="5" stroke-miterlimit="10" stroke-dasharray=""></path></g></svg>