<svg data-v-9833e8b2="" version="1.1" xmlns="http://www.w3.org/2000/svg" xmlns:xlink="http://www.w3.org/1999/xlink" width="22" height="25"><g data-v-9833e8b2=""><path data-v-9833e8b2="" transform="scale(0.05668934240362812)" fill="none" stroke="currentColor" paint-order="fill stroke markers" d="m404.41264,587.44713c7.09762,0 14.19524,-7.45656 14.19524,-17.39863l0,-34.79727l45.62757,0c25.34865,0 47.65546,-11.18483 61.8507,-31.06899c13.1813,-17.39863 20.27892,-41.01106 22.30681,-69.59453c26.36259,-6.2138 39.54389,-26.09795 39.54389,-58.4097c-2.02789,-70.83729 -57.79492,-98.178 -93.28302,-98.178l-171.35686,0c-38.52994,0 -94.29697,48.46762 -94.29697,123.03319l0,32.31174c0,13.67036 9.12551,24.85519 20.27892,24.85519l6.08368,0c2.02789,44.73934 23.32075,77.05109 52.72519,77.05109l33.46022,0l0,34.79727c0,8.69931 6.08368,17.39863 14.19524,17.39863l16.22313,0l0,13.67036c0,29.82623 20.27892,54.68142 44.61362,54.68142l13.18129,0l0,29.82623c0,17.39863 12.16735,32.31175 26.36259,32.31175l47.65546,0c14.19524,0 26.36259,-14.91311 26.36259,-32.31175l0,-77.05109c0,-17.39863 -12.16735,-32.31175 -26.36259,-32.31175l-47.65546,0c-14.19524,0 -26.36259,14.91311 -26.36259,32.31175l0,29.82623l-13.18129,0c-16.22313,0 -30.41838,-16.15587 -30.41838,-37.28278l0,-13.67036l18.25103,0l-0.00001,0zm39.54389,21.12691c0,-8.69932 5.06973,-14.91311 12.16735,-14.91311l47.65546,0c7.09762,0 12.16735,6.2138 12.16735,14.91311l0,77.05109c0,8.69932 -5.06973,14.91312 -12.16735,14.91312l-47.65546,0c-7.09762,0 -12.16735,-6.2138 -12.16735,-14.91312l0,-29.82623l29.40443,0c4.05578,0 7.09762,-3.72828 7.09762,-8.69932s-3.04184,-8.69932 -7.09762,-8.69932l-29.40443,0l0,-29.82623l0,0.00001zm-174.3987,-151.61666l111.53405,0c11.15341,0 22.30681,-4.97103 31.43233,-13.67035c3.04184,13.67035 9.12551,26.09795 18.25103,34.79726c10.13946,11.18483 24.3347,17.39863 37.516,17.39863l7.09762,0c27.37654,-6.2138 43.59968,-34.79727 43.59968,-78.29385c0,-33.55451 -5.06973,-57.16694 -32.44627,-82.02213c4.05578,-2.48552 9.12551,-4.97103 15.20919,-7.45656c4.05578,-1.24276 6.08368,-6.2138 5.06973,-11.18483c-1.01394,-4.97104 -5.06973,-7.45656 -9.12551,-6.2138c-11.1534,3.72828 -20.27892,9.94207 -27.37654,17.39863l-1.01395,1.24276c-10.13946,9.94207 -18.25103,24.85519 -27.37654,45.9821c-13.1813,31.06899 -37.516,64.6235 -60.83675,64.6235l-131.81297,0c-3.04184,0 -6.08368,-3.72828 -6.08368,-7.45656l0,-32.31175c0,-64.6235 47.65546,-105.63456 80.10173,-105.63456l171.35686,0c20.27892,0 77.05989,14.91311 79.08778,80.77936c0,22.36967 -7.09762,34.79726 -25.34865,41.01107c0,-7.45656 0,-16.15587 -1.01394,-23.61243c0,-4.97104 -4.05578,-8.69932 -8.11157,-7.45656c-4.05578,0 -7.09762,4.97103 -6.08368,9.94207c4.05578,41.01107 -3.04184,75.80833 -18.25103,96.93524c-12.16735,17.39863 -29.40443,26.09795 -51.71124,26.09795l-155.13373,0c-21.29286,0 -36.50205,-24.85519 -38.52994,-60.89522l-0.00001,0.00003zm184.53816,-73.32281c7.09762,-17.39863 13.1813,-28.58347 20.27892,-36.04003c25.34865,21.12691 30.41838,39.7683 30.41838,70.83729c0,34.79726 -11.15341,57.16694 -31.43232,60.89522c-12.16735,1.24276 -23.32076,-2.48552 -32.44627,-12.4276c-8.11157,-8.69932 -14.19524,-22.36967 -14.19524,-34.79726c10.13946,-14.91311 20.27892,-32.31175 27.37654,-48.46762l-0.00001,0zm-98.35276,151.61666l47.65546,0l0,34.79727l-24.3347,0l-1.01394,0l-22.30681,0l0,-34.79727l-0.00001,0z" stroke-width="5" stroke-miterlimit="10" stroke-dasharray=""></path></g></svg>