<svg data-v-9833e8b2="" version="1.1" xmlns="http://www.w3.org/2000/svg" xmlns:xlink="http://www.w3.org/1999/xlink" width="22" height="25"><g data-v-9833e8b2=""><path data-v-9833e8b2="" transform="scale(0.16666666666666666)" fill="none" stroke="currentColor" paint-order="fill stroke markers" d="m11.82817,3.88392l101.15704,0a9.06815,10.29479 0 0 1 9.06815,10.29479l0,121.64259a9.06815,10.29479 0 0 1 -9.06815,10.29479l-100.37676,0a9.06815,10.29479 0 0 1 -9.06815,-10.29479l0,-122.52842a8.28947,9.41077 0 0 1 8.28787,-9.40896z" stroke-width="5" stroke-miterlimit="10" stroke-dasharray=""></path><path data-v-9833e8b2="" transform="scale(0.16666666666666666)" fill="none" stroke="currentColor" paint-order="fill stroke markers" d="m112.9852,148.99999l-100.37676,0a11.62121,13.19319 0 0 1 -11.60845,-13.1787l0,-122.52842a10.84093,12.30737 0 0 1 10.82817,-12.29288l101.15704,0a11.62121,13.19319 0 0 1 11.60845,13.1787l0,121.64259a11.62121,13.19319 0 0 1 -11.60845,13.1787zm-101.15704,-142.23397a5.75556,6.5341 0 0 0 -5.74439,6.52142l0,122.53385a6.54222,7.42717 0 0 0 6.52945,7.41268l100.37197,0a6.54222,7.42717 0 0 0 6.52945,-7.41268l0,-121.64259a6.54222,7.42717 0 0 0 -6.52945,-7.41268l-101.15704,0z" stroke-width="5" stroke-miterlimit="10" stroke-dasharray=""></path><path data-v-9833e8b2="" transform="scale(0.16666666666666666)" fill="none" stroke="currentColor" paint-order="fill stroke markers" d="m10.07453,3.88392l104.83504,0a7.15016,8.11736 0 0 1 7.15016,8.11736l0,72.18125a7.15016,8.11736 0 0 1 -7.15016,8.11736l-104.22071,0a7.15016,8.11736 0 0 1 -7.15016,-8.11736l0,-72.88049a6.54222,7.42717 0 0 1 6.53583,-7.41811z" stroke-width="5" stroke-miterlimit="10" stroke-dasharray=""></path><path data-v-9833e8b2="" transform="scale(0.16666666666666666)" fill="none" stroke="currentColor" paint-order="fill stroke markers" d="m114.90319,95.18198l-104.21273,0a9.70003,11.01214 0 0 1 -9.68886,-10.99946l0,-72.87868a9.08411,10.3129 0 0 1 9.07453,-10.30384l104.83504,0a9.70003,11.01214 0 0 1 9.68886,10.99946l0,72.18306a9.70003,11.01214 0 0 1 -9.69684,10.99946zm-104.83504,-88.41596a4.00033,4.54144 0 0 0 -3.98916,4.52876l0,72.88773a4.61625,5.24069 0 0 0 4.60987,5.23344l104.21433,0a4.61625,5.24069 0 0 0 4.60987,-5.23344l0,-72.18306a4.61625,5.24069 0 0 0 -4.60987,-5.23344l-104.83504,0z" stroke-width="5" stroke-miterlimit="10" stroke-dasharray=""></path><path data-v-9833e8b2="" transform="scale(0.16666666666666666)" fill="none" stroke="currentColor" paint-order="fill stroke markers" d="m28.29541,119.9996m-9.31229,0a9.31229,10.57195 0 1 0 18.62457,0a9.31229,10.57195 0 1 0 -18.62457,0z" stroke-width="5" stroke-miterlimit="10" stroke-dasharray=""></path><path data-v-9833e8b2="" transform="scale(0.16666666666666666)" fill="none" stroke="currentColor" paint-order="fill stroke markers" d="m28.29541,133.45184a11.85099,13.45405 0 1 1 11.84301,-13.45405a11.86535,13.47035 0 0 1 -11.84301,13.45405zm0,-21.14208a6.77199,7.68803 0 1 0 6.77199,7.68803a6.77997,7.69709 0 0 0 -6.77199,-7.68078l0,-0.00725z" stroke-width="5" stroke-miterlimit="10" stroke-dasharray=""></path><path data-v-9833e8b2="" transform="scale(0.16666666666666666)" fill="none" stroke="currentColor" paint-order="fill stroke markers" d="m62.79682,119.9996m-9.31229,0a9.31229,10.57195 0 1 0 18.62457,0a9.31229,10.57195 0 1 0 -18.62457,0z" stroke-width="5" stroke-miterlimit="10" stroke-dasharray=""></path><path data-v-9833e8b2="" transform="scale(0.16666666666666666)" fill="none" stroke="currentColor" paint-order="fill stroke markers" d="m62.79682,133.45184a11.85099,13.45405 0 1 1 11.85099,-13.45405a11.86535,13.47035 0 0 1 -11.85099,13.45405zm0,-21.13483a6.77199,7.68803 0 1 0 6.77199,7.68803a6.77997,7.69709 0 0 0 -6.77199,-7.68803z" stroke-width="5" stroke-miterlimit="10" stroke-dasharray=""></path><path data-v-9833e8b2="" transform="scale(0.16666666666666666)" fill="none" stroke="currentColor" paint-order="fill stroke markers" d="m97.29824,119.9996m-9.31229,0a9.31229,10.57195 0 1 0 18.62457,0a9.31229,10.57195 0 1 0 -18.62457,0z" stroke-width="5" stroke-miterlimit="10" stroke-dasharray=""></path><path data-v-9833e8b2="" transform="scale(0.16666666666666666)" fill="none" stroke="currentColor" paint-order="fill stroke markers" d="m97.29824,133.45184a11.85099,13.45405 0 1 1 11.85258,-13.45405a11.86535,13.47035 0 0 1 -11.85258,13.45405zm0,-21.14208a6.77199,7.68803 0 1 0 6.77199,7.68803a6.77997,7.69709 0 0 0 -6.77199,-7.68078l0,-0.00725zm-52.85154,-46.54844a2.51476,2.85493 0 0 1 -1.62758,-0.6775a19.36975,21.98986 0 0 1 -6.81667,-16.847c0,-6.76416 2.61529,-13.03016 7.18048,-17.18938a2.52274,2.86399 0 1 1 3.15143,4.46174c-3.36206,3.06869 -5.28962,7.70796 -5.28962,12.72583a14.33703,16.27638 0 0 0 5.02793,12.48308a2.52274,2.86399 0 0 1 -1.62598,5.04323zm-11.96747,9.83647a2.51317,2.85312 0 0 1 -1.75523,-0.80793c-6.20394,-6.82213 -9.76226,-16.45934 -9.76226,-26.44798c0,-10.29297 3.74981,-20.13669 10.28724,-27.0023a2.52274,2.86399 0 0 1 3.43387,4.20632c-5.50823,5.78414 -8.66764,14.09714 -8.66764,22.7978c0,8.43799 2.99825,16.57527 8.22564,22.32499a2.52274,2.86399 0 0 1 -1.75523,4.92186l-0.00638,0.00725zm48.12359,-9.83647a2.52274,2.86399 0 0 1 -1.5813,-5.09576c3.36206,-3.06869 5.28962,-7.70796 5.28962,-12.72583a14.33543,16.27456 0 0 0 -5.02634,-12.48308a2.52274,2.86399 0 0 1 3.25675,-4.37297a19.36975,21.98986 0 0 1 6.81667,16.847c0,6.76416 -2.61529,13.03016 -7.18048,17.18938a2.50519,2.84406 0 0 1 -1.57492,0.64127zm12.02172,9.83647a2.52274,2.86399 0 0 1 -1.71374,-4.96715c5.50823,-5.78776 8.66764,-14.09714 8.66764,-22.7978c0,-8.43799 -2.99825,-16.57527 -8.22564,-22.32499a2.52274,2.86399 0 1 1 3.51046,-4.11393c6.20394,6.82213 9.76226,16.45934 9.76226,26.44798c0,10.29297 -3.74981,20.13488 -10.28883,27.0023a2.50998,2.8495 0 0 1 -1.71215,0.75359zm-29.82772,-42.1338l-6.93156,7.86918a10.39734,11.80377 0 1 0 13.86312,0l-6.93156,-7.86918z" stroke-width="5" stroke-miterlimit="10" stroke-dasharray=""></path></g></svg>