<svg data-v-9833e8b2="" version="1.1" xmlns="http://www.w3.org/2000/svg" xmlns:xlink="http://www.w3.org/1999/xlink" width="24.5" height="25"><g data-v-9833e8b2=""><path data-v-9833e8b2="" transform="scale(0.03125)" fill="none" stroke="currentColor" paint-order="fill stroke markers" d="m689,538.99999l-41.47,0a90.422,90.422 0 0 1 -77.03,43l-36.5,0l0,162l44.5,0a27.5,27.5 0 0 1 0,55l-422,0a27.5,27.5 0 0 1 0,-55l45.5,0l0,-162l-35.5,0a90.422,90.422 0 0 1 -77.03,-43l-41.47,0a47,47 0 0 1 0,-94l40.86,0a90.414,90.414 0 0 1 77.64,-44l35.5,0l0,-91.08a58.993,58.993 0 0 1 2.71,-117.91a166.178,166.178 0 0 1 125.29,-131.63l0,-20.88a38.5,38.5 0 0 1 77,0l0,21.12a166.217,166.217 0 0 1 124.29,131.38l0.71,0a58.992,58.992 0 0 1 2,117.95l0,91.05l36.5,0a90.414,90.414 0 0 1 77.64,44l40.86,0a47,47 0 0 1 0,94zm-319,-138a90,90 0 1 0 90,90a89.994,89.994 0 0 0 -90,-90zm0.5,140a48.5,48.5 0 1 1 48.5,-48.5a48.495,48.495 0 0 1 -48.5,48.5z" stroke-width="5" stroke-miterlimit="10" stroke-dasharray=""></path></g></svg>