<svg data-v-9833e8b2="" version="1.1" xmlns="http://www.w3.org/2000/svg" xmlns:xlink="http://www.w3.org/1999/xlink" width="22" height="25"><g data-v-9833e8b2=""><path data-v-9833e8b2="" transform="scale(0.06944444444444445)" fill="none" stroke="currentColor" paint-order="fill stroke markers" d="m25.49325,18.73649l217.9054,0l0,230.57433l-217.9054,0l0,-230.57433z" stroke-width="5" stroke-miterlimit="10" stroke-dasharray=""></path><path data-v-9833e8b2="" transform="scale(0.06944444444444445)" fill="none" stroke="currentColor" paint-order="fill stroke markers" d="m169.59749,152.30368c-104.76059,4.29749 -105.50203,2.64257 -105.50203,2.64257l-0.66673,-27.02798l106.11922,-3.51855l-28.74253,-34.10609l32.93055,-1.6167l39.81875,44.55574l-36.90743,55.0877l-27.04447,0.48207l19.99467,-36.49876z" stroke-width="5" stroke-miterlimit="10" stroke-dasharray=""></path><path data-v-9833e8b2="" transform="scale(0.06944444444444445)" fill="none" stroke="currentColor" paint-order="fill stroke markers" d="m1,1l275.33783,0l0,358.10809l-275.33783,0l0,-358.10809z" stroke-width="5" stroke-miterlimit="10" stroke-dasharray=""></path><path data-v-9833e8b2="" transform="scale(0.06944444444444445)" fill="none" stroke="currentColor" paint-order="fill stroke markers" d="m22.11488,266.20268l223.81757,0l0,70.94595l-223.81757,0l0,-70.94595z" stroke-width="5" stroke-miterlimit="10" stroke-dasharray=""></path></g></svg>