<svg data-v-9833e8b2="" version="1.1" xmlns="http://www.w3.org/2000/svg" xmlns:xlink="http://www.w3.org/1999/xlink" width="22" height="25"><g data-v-9833e8b2=""><path data-v-9833e8b2="" transform="scale(0.050200803212851405)" fill="none" stroke="currentColor" paint-order="fill stroke markers" d="m9.4375,1.9375l0.9375,371.25l101.25,0l-22.5,-31.875l0,-308.4375l216.5625,9.375l-2.8125,207.1875c0,0 20.7363,-4.49772 27.1875,1.875c6.4512,6.37272 5.80728,24.64518 -0.9375,30.9375c-6.74478,6.29232 -23.4375,2.8125 -23.4375,2.8125l0,88.125l77.8125,0.9375l0.9375,-373.125l-375,0.9375z" stroke-width="5" stroke-miterlimit="10" stroke-dasharray=""></path><path data-v-9833e8b2="" transform="scale(0.050200803212851405)" fill="none" stroke="currentColor" paint-order="fill stroke markers" d="m141.625,72.71875c0,-12.17196 11.32769,-22.03125 25.3125,-22.03125c13.98481,0 25.3125,9.85929 25.3125,22.03125c0,12.17196 -11.32769,22.03125 -25.3125,22.03125c-13.98481,0 -25.3125,-9.85929 -25.3125,-22.03125z" stroke-width="5" stroke-miterlimit="10" stroke-dasharray=""></path><path data-v-9833e8b2="" transform="scale(0.050200803212851405)" fill="none" stroke="currentColor" paint-order="fill stroke markers" d="m92.875,155.6875l0.9375,30.9375c0,0 27.05138,2.52126 38.4375,-4.6875c11.38612,-7.20876 22.5,-35.625 22.5,-35.625l24.375,55.3125c0,0 -62.12039,88.04596 -54.375,112.5c7.74539,24.45404 25.3125,14.0625 25.3125,14.0625l58.125,-117.1875l2.8125,1.875c0,0 -1.875,62.8125 11.25,64.6875c13.125,1.875 76.84767,6.79453 97.5,0.9375c20.65233,-5.85703 1.875,-25.3125 1.875,-25.3125l-75,-0.9375l-3.75,-56.25l-30,-64.6875l36.5625,-3.75c0,0 23.16429,39.69901 34.6875,39.375c11.52321,-0.32401 10.3125,-13.125 10.3125,-13.125l-37.5,-50.625l-107.8125,2.8125l-30,50.625l-26.25,-0.9375z" stroke-width="5" stroke-miterlimit="10" stroke-dasharray=""></path><path data-v-9833e8b2="" transform="scale(0.050200803212851405)" fill="none" stroke="currentColor" paint-order="fill stroke markers" d="m141.625,371.3125c0,0 -12.35031,-4.82666 -12.1875,-11.25c0.16281,-6.42334 6.7091,-14.60999 16.875,-14.0625c10.1659,0.54749 27.1875,28.125 27.1875,28.125l-31.875,-2.8125z" stroke-width="5" stroke-miterlimit="10" stroke-dasharray=""></path><path data-v-9833e8b2="" transform="scale(0.050200803212851405)" fill="none" stroke="currentColor" paint-order="fill stroke markers" d="m1,410.7061c0,-0.51953 0,-0.9561 0,-0.9561l391.875,0c0,0 0,0.43658 0,0.9561l0,86.21279c0,0.51953 0,0.9561 0,0.9561l-391.875,0c0,0 0,-0.43658 0,-0.9561l0,-86.21279z" stroke-width="5" stroke-miterlimit="10" stroke-dasharray=""></path></g></svg>