<svg data-v-9833e8b2="" version="1.1" xmlns="http://www.w3.org/2000/svg" xmlns:xlink="http://www.w3.org/1999/xlink" width="25" height="17.5"><g data-v-9833e8b2=""><path data-v-9833e8b2="" transform="scale(0.08741258741258741)" fill="none" stroke="currentColor" paint-order="fill stroke markers" d="m1,1l74,0l0,176l-31,36l-12,0l-31,-36l0,-176z" stroke-width="5" stroke-miterlimit="10" stroke-dasharray=""></path><path data-v-9833e8b2="" transform="scale(0.08741258741258741)" fill="none" stroke="currentColor" paint-order="fill stroke markers" d="m73,3l0,173.25755l-29.91711,34.74245l-10.16578,0l-29.91711,-34.74245l0,-173.25755l70,0z" stroke-width="5" stroke-miterlimit="10" stroke-dasharray=""></path><path data-v-9833e8b2="" transform="scale(0.08741258741258741)" fill="none" stroke="currentColor" paint-order="fill stroke markers" d="m3,27l70,148" stroke-width="5" stroke-miterlimit="10" stroke-dasharray=""></path><path data-v-9833e8b2="" transform="scale(0.08741258741258741)" fill="none" stroke="currentColor" paint-order="fill stroke markers" d="m73,27l-70,148" stroke-width="5" stroke-miterlimit="10" stroke-dasharray=""></path><path data-v-9833e8b2="" transform="scale(0.08741258741258741)" fill="none" stroke="currentColor" paint-order="fill stroke markers" d="m1,173l74,0l0,4l-74,0l0,-4z" stroke-width="5" stroke-miterlimit="10" stroke-dasharray=""></path><path data-v-9833e8b2="" transform="scale(0.08741258741258741)" fill="none" stroke="currentColor" paint-order="fill stroke markers" d="m71,1l74,0l0,176l-31,36l-12,0l-31,-36l0,-176z" stroke-width="5" stroke-miterlimit="10" stroke-dasharray=""></path><path data-v-9833e8b2="" transform="scale(0.08741258741258741)" fill="none" stroke="currentColor" paint-order="fill stroke markers" d="m143,3l0,173.25755l-29.91711,34.74245l-10.16578,0l-29.91711,-34.74245l0,-173.25755l70,0z" stroke-width="5" stroke-miterlimit="10" stroke-dasharray=""></path><path data-v-9833e8b2="" transform="scale(0.08741258741258741)" fill="none" stroke="currentColor" paint-order="fill stroke markers" d="m73,27l70,148" stroke-width="5" stroke-miterlimit="10" stroke-dasharray=""></path><path data-v-9833e8b2="" transform="scale(0.08741258741258741)" fill="none" stroke="currentColor" paint-order="fill stroke markers" d="m143,27l-70,148" stroke-width="5" stroke-miterlimit="10" stroke-dasharray=""></path><path data-v-9833e8b2="" transform="scale(0.08741258741258741)" fill="none" stroke="currentColor" paint-order="fill stroke markers" d="m71,173l74,0l0,4l-74,0l0,-4z" stroke-width="5" stroke-miterlimit="10" stroke-dasharray=""></path><path data-v-9833e8b2="" transform="scale(0.08741258741258741)" fill="none" stroke="currentColor" paint-order="fill stroke markers" d="m141,1l74,0l0,176l-31,36l-12,0l-31,-36l0,-176z" stroke-width="5" stroke-miterlimit="10" stroke-dasharray=""></path><path data-v-9833e8b2="" transform="scale(0.08741258741258741)" fill="none" stroke="currentColor" paint-order="fill stroke markers" d="m213,3l0,173.25755l-29.91711,34.74245l-10.16578,0l-29.91711,-34.74245l0,-173.25755l70,0z" stroke-width="5" stroke-miterlimit="10" stroke-dasharray=""></path><path data-v-9833e8b2="" transform="scale(0.08741258741258741)" fill="none" stroke="currentColor" paint-order="fill stroke markers" d="m143,27l70,148" stroke-width="5" stroke-miterlimit="10" stroke-dasharray=""></path><path data-v-9833e8b2="" transform="scale(0.08741258741258741)" fill="none" stroke="currentColor" paint-order="fill stroke markers" d="m213,27l-70,148" stroke-width="5" stroke-miterlimit="10" stroke-dasharray=""></path><path data-v-9833e8b2="" transform="scale(0.08741258741258741)" fill="none" stroke="currentColor" paint-order="fill stroke markers" d="m141,173l74,0l0,4l-74,0l0,-4z" stroke-width="5" stroke-miterlimit="10" stroke-dasharray=""></path><path data-v-9833e8b2="" transform="scale(0.08741258741258741)" fill="none" stroke="currentColor" paint-order="fill stroke markers" d="m211,1l74,0l0,176l-31,36l-12,0l-31,-36l0,-176z" stroke-width="5" stroke-miterlimit="10" stroke-dasharray=""></path><path data-v-9833e8b2="" transform="scale(0.08741258741258741)" fill="none" stroke="currentColor" paint-order="fill stroke markers" d="m283,3l0,173.25755l-29.91711,34.74245l-10.16578,0l-29.91711,-34.74245l0,-173.25755l70,0z" stroke-width="5" stroke-miterlimit="10" stroke-dasharray=""></path><path data-v-9833e8b2="" transform="scale(0.08741258741258741)" fill="none" stroke="currentColor" paint-order="fill stroke markers" d="m213,27l70,148" stroke-width="5" stroke-miterlimit="10" stroke-dasharray=""></path><path data-v-9833e8b2="" transform="scale(0.08741258741258741)" fill="none" stroke="currentColor" paint-order="fill stroke markers" d="m283,27l-70,148" stroke-width="5" stroke-miterlimit="10" stroke-dasharray=""></path><path data-v-9833e8b2="" transform="scale(0.08741258741258741)" fill="none" stroke="currentColor" paint-order="fill stroke markers" d="m211,173l74,0l0,4l-74,0l0,-4z" stroke-width="5" stroke-miterlimit="10" stroke-dasharray=""></path><path data-v-9833e8b2="" transform="scale(0.08741258741258741)" fill="none" stroke="currentColor" paint-order="fill stroke markers" d="m2,2l282,0l0,24l-282,0l0,-24z" stroke-width="5" stroke-miterlimit="10" stroke-dasharray=""></path></g></svg>