<svg data-v-9833e8b2="" version="1.1" xmlns="http://www.w3.org/2000/svg" xmlns:xlink="http://www.w3.org/1999/xlink" width="25" height="25"><g data-v-9833e8b2=""><path data-v-9833e8b2="" transform="scale(0.13812154696132597)" fill="none" stroke="currentColor" paint-order="fill stroke markers" d="m180.6,90.8c0,49.6 -40.2,89.8 -89.8,89.8s-89.8,-40.2 -89.8,-89.8s40.2,-89.8 89.8,-89.8s89.8,40.2 89.8,89.8z" stroke-width="5" stroke-miterlimit="10" stroke-dasharray=""></path><path data-v-9833e8b2="" transform="scale(0.13812154696132597)" fill="none" stroke="currentColor" paint-order="fill stroke markers" d="m161.3,98.2l-0.4,0l-39.8,-1.2c-0.9,5.2 -3.2,9.9 -6.3,13.9l24.3,21l0,0l6,5.2c-0.8,0.9 -1.6,1.9 -2.5,2.8c-0.1,0.1 -0.3,0.3 -0.4,0.4c-0.7,0.7 -1.5,1.5 -2.1,2.1c-0.5,0.4 -0.9,0.9 -1.5,1.3c-0.4,0.4 -0.8,0.7 -1.2,1.1c-0.5,0.5 -1.2,0.9 -1.7,1.5c-12.5,9.9 -28.1,15.8 -45.3,15.8l-0.1,0.1c-1.3,0 -2.7,-0.1 -4.2,-0.1l0,-39.8c-5.4,-0.8 -10.3,-2.9 -14.5,-6c0.1,0.1 0.3,0.3 0.3,0.3l-7.6,8.3l-20.2,22c-3.9,-3.5 -7.2,-7.5 -10.3,-11.8l0,0c-8.7,-12.3 -13.5,-27.5 -13.1,-43.7l0,-0.1c0,-1.3 0.1,-2.7 0.3,-4.2l0.4,0l38.3,1.1c0.7,-7 3.6,-13.1 8,-18.1l-23,-19.7l0,0l-7,-6c0.8,-0.9 1.6,-1.7 2.4,-2.7c0.5,-0.5 1.2,-1.2 1.7,-1.7c0.3,-0.3 0.4,-0.4 0.7,-0.7c1.6,-1.6 3.3,-3.1 5.2,-4.4c12.3,-9.6 27.9,-15.4 44.8,-15.4l0.1,0c1.3,0 2.7,0 4.2,0.1l0,41.2c5.5,1.1 10.5,3.6 14.5,7.2l6.3,-6.8l0,0l20.9,-22.6c0.8,0.8 1.6,1.6 2.4,2.4c0.3,0.3 0.5,0.7 0.8,0.9c0.5,0.5 0.9,1.1 1.5,1.6c0.3,0.4 0.7,0.8 1.1,1.1c0.4,0.4 0.8,0.9 1.2,1.3c0.4,0.4 0.7,0.8 1.1,1.2c10,12.9 15.9,29.2 15.4,46.9c0,0 -0.2,3.1 -0.7,4.2z" stroke-width="5" stroke-miterlimit="10" stroke-dasharray=""></path></g></svg>