<svg data-v-9833e8b2="" version="1.1" xmlns="http://www.w3.org/2000/svg" xmlns:xlink="http://www.w3.org/1999/xlink" width="25" height="20"><g data-v-9833e8b2=""><path data-v-9833e8b2="" transform="scale(0.14450867052023122)" fill="none" stroke="currentColor" paint-order="fill stroke markers" d="m66.25407,16.37489s-6.58205,5.29298 -7.71486,9.02346c0,0 -11.95316,-15.87895 -22.46099,-15.21488c0,0 -0.19531,-0.56641 0.66406,-1.52344c0,0 6.1133,-5.27345 8.80862,-6.79689c2.67579,-1.52344 4.4922,-0.56641 4.4922,-0.56641s7.96877,4.53126 16.21098,15.07816zm78.80879,57.67593l15.58598,23.61334l-2.96876,2.40235s-6.97267,-11.38675 -12.61722,-1.6211l-6.21095,-9.76565s5.15626,-4.4922 6.21095,-14.62894zm27.81257,37.38291l0,11.1719l-35.66415,-0.17578s-0.09766,-6.79689 0.66406,-8.9844c0.78125,-2.18751 9.17971,-11.38675 11.56253,-12.91019c2.40235,-1.52344 5.93751,0.78125 5.93751,0.78125s12.05081,5.50783 17.50004,10.11721zm-62.715,6.40627l0,-10.11721l-4.02345,0l0,14.60941l21.81646,0s-0.29297,-4.4922 -2.8711,-5.93751s-8.02736,-1.81641 -12.81253,1.34766l-2.10938,0.09766zm-36.62119,-10.62503l0,6.1133l-26.46491,0l0,2.69532l26.48444,0l0,6.1133l3.41798,0l0,-14.92191l-3.43751,0zm-31.15242,13.76957l-13.76957,0l0,-14.43363l13.76957,0l0,14.43363zm-19.31645,-5.52736l0,-2.48047l-6.01564,0l0,-6.50392l-3.71095,0l0,6.50392l-6.91408,0l0,2.48047l6.89455,0l0,5.35158s0.72266,4.88282 -4.90236,3.73048c-0.6836,-1.66016 -1.97266,-2.77344 -3.45704,-2.77344c-2.20704,0 -3.96485,2.36329 -3.96485,5.29298s1.75782,5.31251 3.96485,5.31251c1.34766,0 2.53907,-0.89844 3.26173,-2.28516c1.58204,0 4.51173,-0.09766 5.83986,-0.78125c3.20313,-1.66016 3.00782,-7.55861 3.00782,-7.55861l0,-6.30861l5.99611,0.01953zm7.24611,24.94147l-7.53908,0l0,-14.92191l149.00428,1.26953l0,15.42973l-13.88675,0l-5.62501,-8.16408l-119.43389,-1.03516l-2.51954,7.42189zm66.07439,-126.19172c-19.06255,0 -35.35165,11.93362 -42.03136,28.80867l21.28912,9.86331c3.02735,-8.78908 11.26956,-15.11723 21.01568,-15.11723c12.28519,0 22.24615,10.05862 22.24615,22.42193c0,6.91408 -3.10548,13.12503 -8.00783,17.22661l15.01957,17.42192c9.66799,-8.41799 15.82035,-20.85943 15.82035,-34.78524c-0.03906,-25.29303 -20.33208,-45.83996 -45.35168,-45.83996z" stroke-width="5" stroke-miterlimit="10" stroke-dasharray=""></path><path data-v-9833e8b2="" transform="scale(0.14450867052023122)" fill="none" stroke="currentColor" paint-order="fill stroke markers" d="m96.52758,43.01558c-8.49612,0 -15.48832,6.46486 -16.40629,14.76566l4.00392,2.94923l-0.03906,0.46875c0,6.09377 4.88282,11.03518 10.89846,11.03518c2.28516,0 4.37501,-0.72266 6.13283,-1.91407l3.98439,3.5547c4.72657,-2.92969 7.91018,-8.18361 7.91018,-14.17972c0.01953,-9.2383 -7.38283,-16.67973 -16.48442,-16.67973zm10.89846,22.69537l-2.26563,-0.60547c0.46875,-1.23047 0.74219,-2.53907 0.74219,-3.94532c0,-6.09377 -4.88282,-11.03518 -10.89846,-11.03518c-1.17188,0 -2.28516,0.23438 -3.35938,0.58594l-0.80078,-1.79688c1.58204,-0.82031 3.32032,-1.32813 5.17579,-1.32813c6.71877,0 12.168,6.0547 12.168,13.51566c0,1.64063 -0.3125,3.1836 -0.76172,4.60939z" stroke-width="5" stroke-miterlimit="10" stroke-dasharray=""></path><path data-v-9833e8b2="" transform="scale(0.14450867052023122)" fill="none" stroke="currentColor" paint-order="fill stroke markers" d="m76.05878,59.46093s-0.54688,7.0508 3.32032,13.00785s12.168,10.82034 25.60553,6.75783l12.30472,14.68754c-6.62111,4.78517 -14.80472,7.61721 -23.6524,7.61721c-22.0899,0 -40.01963,-17.65629 -40.01963,-39.45322c0,-3.76954 0.52735,-7.44142 1.54297,-10.89846l20.89849,8.28127z" stroke-width="5" stroke-miterlimit="10" stroke-dasharray=""></path></g></svg>