<svg data-v-9833e8b2="" version="1.1" xmlns="http://www.w3.org/2000/svg" xmlns:xlink="http://www.w3.org/1999/xlink" width="25" height="25"><g data-v-9833e8b2=""><path data-v-9833e8b2="" transform="scale(0.14124293785310735)" fill="none" stroke="currentColor" paint-order="fill stroke markers" d="m30.82429,70.86346l22.14849,0c2.98829,0 5.1172,2.12891 5.1172,5.1172l0,16.19145c0,37.05087 30.23445,67.30486 67.30486,67.30486l20.87896,0l0,8.94534l29.82429,0l0,-77.53926l-29.84383,0l0,7.6758l-22.14849,0c-2.98829,0 -5.1172,-2.12891 -5.1172,-5.1172l0,-16.19145c0,-37.05087 -30.23445,-67.30486 -67.30486,-67.30486l-20.85943,0l0,-8.94534l-29.82429,0l0,77.51973l29.82429,0l0,-7.65627zm80.07833,22.55865c0,7.6758 5.95705,13.63285 13.63285,13.63285l26.40632,0l0,44.29699l-25.13678,0c-32.36336,0 -58.78921,-26.40632 -58.78921,-58.78921l0,-16.19145c0,-7.6758 -5.95705,-13.63285 -13.63285,-13.63285l-26.40632,0l0,-44.72668l25.13678,0c32.36336,0 58.78921,26.40632 58.78921,58.78921l0,16.62114zm57.07046,66.46501l-12.77347,0l0,-60.91812l12.77347,0l0,60.91812zm-158.45743,-150.80116l12.77347,0l0,60.91812l-12.77347,0l0,-60.91812zm0,0" stroke-width="5" stroke-miterlimit="10" stroke-dasharray=""></path></g></svg>