<svg data-v-9833e8b2="" version="1.1" xmlns="http://www.w3.org/2000/svg" xmlns:xlink="http://www.w3.org/1999/xlink" width="25" height="25"><g data-v-9833e8b2=""><path data-v-9833e8b2="" transform="scale(0.14124293785310735)" fill="none" stroke="currentColor" paint-order="fill stroke markers" d="m28.70007,136.50034c0,2.10001 1.7,3.70001 3.70001,3.70001s3.70001,-1.7 3.70001,-3.70001c0,-2.10001 -1.7,-3.80001 -3.70001,-3.80001s-3.70001,1.7 -3.70001,3.80001z" stroke-width="5" stroke-miterlimit="10" stroke-dasharray=""></path><path data-v-9833e8b2="" transform="scale(0.14124293785310735)" fill="none" stroke="currentColor" paint-order="fill stroke markers" d="m29.70007,143.10036l1.2,0c-1.2,2.10001 -3.30001,2.90001 -4.50001,4.60001c-2.70001,3.60001 -1.3,8.60002 2.70001,10.30003c3.10001,1.3 6.60002,0.1 8.20002,-3.00001c1.1,-2.20001 -0.2,-3.10001 1.1,-5.20001c0.2,-0.9 -2.20001,-0.8 -2.30001,1.3c-0.2,3.80001 -3.80001,4.20001 -5.40001,3.00001c-0.7,-0.5 -2.00001,-2.20001 -0.7,-4.40001c1.4,-2.40001 3.40001,-2.30001 4.20001,-6.60002l3.40001,0l1,-3.50001l1.2,-4.30001l1.1,-3.80001l0.9,-3.10001l-3.10001,-4.90001l-1.4,0l7.10002,-76.50019l61.90016,0l0,128.40032l28.20007,0l0,-128.60032l41.6001,0l-13.90003,-14.20004l-0.7,0l-27.00007,-28.10007l0,-3.50001l-4.50001,0l-0.8,1.1l-88.20022,30.60008l-26.10007,0l-13.90003,14.10004l19.50005,0l7.10002,76.50019l-1.5,0l-3.10001,4.90001l2.20001,7.70002l2.00001,7.10002l2.50001,0l0,0.1zm130.70033,-110.50028l-5.60001,0l-18.60005,-25.20006l24.20006,25.20006zm-4.20001,1.9l4.30001,0l-0.3,0.3l-1.9,1.9l-2.10001,-2.20001zm15.40004,9.50002l-6.00002,0l-6.50002,-6.60002l3.00001,-3.00001l0.1,0l9.40002,9.60002zm-17.20004,0l-1.8,0l5.60001,-5.70001l5.40001,5.50001l0.2,0.2l-9.40002,0zm-3.40001,0l-1.2,0l-2.40001,-2.50001l7.00002,-7.10002l3.00001,3.00001l-6.20002,6.30002l-0.2,0.3zm-4.40001,-3.30001l-5.90001,-6.00002l-0.3,-0.3l12.30003,0l-6.10002,6.30002zm1.6,3.30001l-3.20001,0l1.6,-1.6l1.4,1.4l0.2,0.2zm-4.90001,0l-1.2,0l-6.40002,-6.60002l3.00001,-3.00001l0.1,0l0.3,0.3l6.70002,6.80002l-2.20001,2.20001l-0.3,0.3zm-8.80002,-5.20001l0.4,-0.4l5.40001,5.50001l0.2,0.2l-6.00002,0l0,-5.30001zm0,-4.30001l2.60001,0l-0.3,0.3l-1.9,1.9l-0.4,-0.4l0,-1.8zm0,-1.9l0,-26.20007l19.30005,26.20007l-19.30005,0zm-105.80027,91.90023c0.7,0 1.2,0.5 1.2,1.2s-0.5,1.2 -1.2,1.2s-1.2,-0.5 -1.2,-1.2c0.1,-0.6 0.6,-1.2 1.2,-1.2zm-13.80003,-80.4002l-1.8,0l0.2,-0.2l1,-1l6.60002,-2.30001l3.40001,3.50001l-3.10001,0l0,-0.3l-0.9,0l0,0.3l-5.40001,0zm17.10004,0l-3.20001,0l0.2,-0.2l1.4,-1.4l1.6,1.6zm-4.20001,-6.00002l7.80002,-2.70001l-5.20001,5.30001l-2.60001,-2.60001zm-0.7,6.00002l-1.2,0l-0.2,-0.2l-3.60001,-3.70001l4.50001,-1.5l3.00001,3.00001l-2.50001,2.40001zm-11.50003,-2.70001l3.00001,-3.10001l1.5,1.5l-4.50001,1.6zm-4.90001,2.70001l1,-0.4l-0.3,0.4l-0.7,0zm4.10001,-9.60002l3.00001,3.00001l-4.70001,4.80001l-5.10001,1.8l-2.70001,0l9.50002,-9.60002zm6.00002,0l-2.10001,2.20001l-1.9,-2.00001l-0.3,-0.2l4.30001,0zm1.7,0l3.40001,3.40001l-4.50001,1.5l-1.9,-1.9l3.00001,-3.00001zm13.20003,0l-8.60002,3.00001l-2.90001,-3.00001l11.50003,0zm2.60001,0l3.00001,3.00001l-6.50002,6.60002l-1.2,0l-0.2,-0.2l-2.20001,-2.20001l6.70002,-6.80002l0.2,-0.2l0.2,-0.2zm12.20003,2.90001l-2.60001,-2.70001l-0.3,-0.3l9.40002,0l-6.50002,3.00001zm8.60002,-2.90001l0.9,0l-0.3,0.2l-5.90001,6.00002l-2.70001,-2.70001l8.00002,-3.50001zm-9.80002,3.40001l-4.20001,1.9l-2.20001,-2.30001l2.70001,-2.70001l0.3,-0.3l3.40001,3.40001zm-5.30001,2.40001l-6.80002,3.00001l4.90001,-5.00001l1.9,2.00001zm0.2,-5.80001l-2.10001,2.20001l-1.9,-2.00001l-0.3,-0.3l4.30001,0.1zm78.0002,-29.00007l-61.10015,27.20007l-17.50004,0l78.6002,-27.20007zm7.60002,13.50003l-3.90001,-4.00001l3.90001,-5.50001l0,9.50002zm-0.1,2.00001l-8.10002,0l3.40001,-4.80001l4.70001,4.80001zm0.1,1.6l-6.30002,3.60001l-3.20001,-3.30001l0.3,-0.4l9.20002,0.1zm-9.40002,32.60008l-8.20002,-8.30002l16.40004,0l-8.20002,8.30002zm0,3.40001l9.40002,9.60002l-18.90005,0l9.50002,-9.60002zm7.20002,-26.00007l-12.20003,0l7.90002,-4.60001l4.50001,4.50001l-0.2,0.1zm-13.60003,-0.8l5.40001,-7.60002l2.80001,2.80001l-8.20002,4.80001zm15.80004,0.8l-5.20001,-5.30001l5.20001,-3.00001l0,8.30002zm0,32.20008l-0.6,-0.6l-7.10002,-7.30002l7.10002,-7.30002l0.6,-0.7l0,15.90004zm0,25.00006l-0.6,-0.6l-7.10002,-7.30002l7.10002,-7.30002l0.6,-0.6l0,15.80004zm0,3.40001l-18.90005,0l9.50002,-9.60002l9.40002,9.60002zm0,21.60005l-7.80002,-7.90002l7.10002,-7.30002l0.6,-0.6l0,15.80004l0.1,0zm0,3.40001l-18.90005,0l0.6,-0.6l8.80002,-9.00002l9.50002,9.60002zm0,21.90006l-0.6,-0.6l-7.10002,-7.30002l7.10002,-7.30002l0.6,-0.7l0,15.90004zm0,3.40001l-18.90005,0l9.40002,-9.60002l9.50002,9.60002zm0,21.60005l-0.6,-0.6l-7.10002,-7.30002l7.10002,-7.30002l0.6,-0.6l0,15.80004zm0,3.40001l-18.90005,0l9.50002,-9.60002l9.40002,9.60002zm-18.90005,-19.20005l0.6,0.6l7.10002,7.30002l-7.10002,7.30002l-0.6,0.6l0,-15.80004zm0,-3.40001l18.80005,0l-0.6,0.6l-8.80002,9.00002l-9.40002,-9.60002zm0,-21.60005l0.6,0.7l7.10002,7.30002l-7.10002,7.30002l-0.6,0.6l0,-15.90004zm0,-3.40001l18.90005,0l-0.6,0.6l-8.80002,9.00002l-8.80002,-9.00002l-0.7,-0.6zm0,-21.90006l0.6,0.6l7.10002,7.30002l-7.10002,7.30002l-0.6,0.6l0,-15.80004zm0,-3.40001l18.80005,0l-9.50002,9.60002l-9.30002,-9.60002zm0,-21.60005l0.6,0.6l7.10002,7.30002l-7.10002,7.30002l-0.6,0.6l0,-15.80004zm0,-3.40001l18.80005,0l-0.6,0.6l-8.80002,9.00002l-9.40002,-9.60002zm0,-21.60005l0.6,0.7l7.10002,7.30002l-7.10002,7.30002l-0.6,0.6l0,-15.90004zm-47.70012,-16.30004l64.80016,-28.80007l-20.40005,28.80007l-44.40011,0zm4.40001,1.8l-0.2,0.2l-1.9,1.9l-2.10001,-2.20001l4.20001,0.1zm3.70001,0.2l-0.3,-0.3l12.30003,0l-0.2,0.3l-5.90001,6.00002l-5.90001,-6.00002zm19.70005,-0.2l-0.3,0.3l-1.9,1.9l-1.8,-2.00001l-0.3,-0.3l4.30001,0.1zm15.30004,0.1l0,0.4l-5.70001,5.80001l-5.90001,-6.00002l-0.3,-0.3l11.80003,0l0.1,0.1zm-2.70001,9.20002l-2.20001,-2.20001l4.80001,-4.90001l0,6.10002l-1,1l-0.2,0.2l-0.1,0.1l-1.2,0l-0.1,-0.3zm-4.60001,0.3l0.2,-0.2l1.4,-1.4l1.6,1.6l-3.20001,0zm-3.00001,-0.3l-6.20002,-6.30002l2.70001,-2.80001l0.3,-0.3l7.00002,7.10002l-2.20001,2.20001l-0.2,0.2l-1.2,0l-0.1,-0.1l-0.1,0zm-12.70003,0.3l0.2,-0.2l5.40001,-5.50001l5.60001,5.70001l-11.20003,0zm-2.80001,0l-2.40001,-2.50001l7.00002,-7.10002l3.00001,3.00001l-6.20002,6.30002l-0.1,0.1l-0.2,0.2l-1.1,0zm-4.90001,0l1.6,-1.6l1.6,1.6l-3.20001,0zm-3.00001,-0.3l-6.20002,-6.30002l2.70001,-2.70001l0.3,-0.3l7.00002,7.10002l-2.20001,2.20001l-0.2,0.2l-1.2,0l-0.2,-0.2zm-12.70003,0.3l5.60001,-5.70001l5.60001,5.70001l-11.20003,0zm-3.10001,-0.3l-2.20001,-2.20001l6.70002,-6.80002l0.3,-0.3l3.00001,3.00001l-6.20002,6.30002l-0.2,0.2l-1.2,0l-0.1,-0.1l-0.1,-0.1zm-4.60001,0.3l0.2,-0.2l1.4,-1.4l1.6,1.6l-3.20001,0zm-3.10001,-0.3l-3.40001,-3.40001l4.20001,-1.9l3.00001,3.10001l-2.20001,2.20001l-0.2,0.3l-1.2,0l-0.2,-0.3zm-4.50001,0.3l0,-0.3l-0.9,0l0,0.3l-6.10002,0l7.00002,-3.10001l3.10001,3.10001l-3.10001,0zm-8.30002,79.3002l-7.70002,0l-7.10002,-76.60019l22.00006,0l-7.20002,76.60019zm0.6,3.60001c-0.7,0 -1.2,-0.5 -1.2,-1.2s0.5,-1.2 1.2,-1.2s1.2,0.5 1.2,1.2c-0.1,0.6 -0.6,1.2 -1.2,1.2zm-2.20001,14.40004c0,-0.7 0.5,-1.2 1.2,-1.2s1.2,0.6 1.2,1.2c0,0.7 -0.5,1.2 -1.2,1.2c-0.6,0 -1.2,-0.6 -1.2,-1.2zm-6.80002,-8.60002c0,-2.60001 2.00001,-4.70001 4.60001,-4.70001c2.50001,0 4.60001,2.10001 4.60001,4.70001s-2.10001,4.60001 -4.60001,4.60001c-2.60001,0.1 -4.60001,-2.00001 -4.60001,-4.60001zm1.1,9.80002c-0.6,0 -1.2,-0.5 -1.2,-1.2s0.5,-1.2 1.2,-1.2s1.2,0.6 1.2,1.2s-0.6,1.2 -1.2,1.2z" stroke-width="5" stroke-miterlimit="10" stroke-dasharray=""></path></g></svg>