<svg data-v-9833e8b2="" version="1.1" xmlns="http://www.w3.org/2000/svg" xmlns:xlink="http://www.w3.org/1999/xlink" width="25" height="17.5"><g data-v-9833e8b2=""><path data-v-9833e8b2="" transform="scale(0.1358695652173913)" fill="none" stroke="currentColor" paint-order="fill stroke markers" d="m94.83398,46.25566c-0.72266,0.64453 -1.54297,-2.75391 0.21484,-8.18361c0.23438,-0.72266 1.25,-0.80078 1.28907,-0.07813c0.21484,3.35938 2.30469,4.84376 2.59766,5.46876c0.29297,0.625 -1.95313,2.2461 -3.16407,3.04688c-0.37109,0.23438 -0.625,-0.50781 -0.9375,-0.25391zm8.26174,-4.76564c-0.72266,0.64453 -1.54297,-2.75391 0.21484,-8.18361c0.23438,-0.72266 1.25,-0.80078 1.28907,-0.07813c0.21484,3.35938 2.30469,4.84376 2.59766,5.46876c0.29297,0.625 -1.95313,2.2461 -3.16407,3.04688c-0.39063,0.23438 -0.64453,-0.52735 -0.9375,-0.25391zm8.26174,-4.78517c-0.72266,0.64453 -1.54297,-2.75391 0.21484,-8.18361c0.23438,-0.72266 1.25,-0.80078 1.28907,-0.07813c0.21484,3.35938 2.30469,4.84376 2.59766,5.46876c0.29297,0.625 -1.95313,2.2461 -3.16407,3.04688c-0.39063,0.25391 -0.64453,-0.50781 -0.9375,-0.25391zm8.26174,-4.76564c-0.72266,0.64453 -1.54297,-2.75391 0.21484,-8.18361c0.23438,-0.72266 1.25,-0.80078 1.28907,-0.07813c0.21484,3.35938 2.30469,4.84376 2.59766,5.46876c0.29297,0.625 -1.95313,2.2461 -3.16407,3.04688c-0.39063,0.25391 -0.64453,-0.50781 -0.9375,-0.25391zm8.26174,-4.76564c-0.72266,0.64453 -1.54297,-2.75391 0.21484,-8.18361c0.23438,-0.72266 1.25,-0.80078 1.28907,-0.07813c0.21484,3.35938 2.30469,4.84376 2.59766,5.46876c0.29297,0.625 -1.95313,2.2461 -3.16407,3.04688c-0.39063,0.23438 -0.64453,-0.50781 -0.9375,-0.25391zm8.24221,-4.76564c-0.72266,0.64453 -1.54297,-2.75391 0.21484,-8.18361c0.23438,-0.72266 1.25,-0.80078 1.28907,-0.07813c0.21484,3.35938 2.30469,4.84376 2.59766,5.46876c0.29297,0.625 -1.95313,2.2461 -3.16407,3.04688c-0.37109,0.23438 -0.64453,-0.52735 -0.9375,-0.25391zm8.26174,-4.76564c-0.72266,0.64453 -1.54297,-2.75391 0.21484,-8.18361c0.23438,-0.72266 1.25,-0.80078 1.28907,-0.07813c0.21484,3.35938 2.30469,4.84376 2.59766,5.46876c0.29297,0.625 -1.95313,2.2461 -3.16407,3.04688c-0.39063,0.23438 -0.64453,-0.52735 -0.9375,-0.25391zm8.26174,-4.78517c-0.72266,0.64453 -1.54297,-2.75391 0.21484,-8.18361c0.23438,-0.72266 1.25,-0.80078 1.28907,-0.07813c0.21484,3.35938 2.30469,4.84376 2.59766,5.46876c0.29297,0.625 -1.95313,2.2461 -3.16407,3.04688c-0.39063,0.25391 -0.64453,-0.50781 -0.9375,-0.25391zm6.97267,-3.63282c-0.85938,0.42969 -0.74219,-3.06641 2.38282,-7.83205c0.42969,-0.64453 1.42578,-0.44922 1.26953,0.25391c-0.6836,3.30079 0.9375,5.27345 1.05469,5.95705c0.11719,0.6836 -2.48047,1.64063 -3.8672,2.08985c-0.44922,0.15625 -0.48828,-0.625 -0.83985,-0.46875zm7.44142,0.76172c-0.95703,0.11719 0.27344,-3.14454 4.76564,-6.64064c0.60547,-0.46875 1.48438,0.03906 1.11328,0.66406c-1.71875,2.89063 -0.82031,5.29298 -0.91797,5.97658c-0.11719,0.6836 -2.8711,0.76172 -4.33595,0.74219c-0.44922,-0.01953 -0.23438,-0.80078 -0.625,-0.74219zm5.35158,3.41798c-0.91797,-0.33203 1.67969,-2.67579 7.26564,-3.75001c0.76172,-0.13672 1.3086,0.70313 0.70313,1.09375c-2.85157,1.79688 -3.12501,4.33595 -3.53517,4.90236c-0.41016,0.56641 -2.91016,-0.64453 -4.19923,-1.3086c-0.39063,-0.21484 0.13672,-0.82031 -0.23438,-0.9375zm2.77344,5.41017c-0.56641,-0.78125 2.89063,-1.28907 8.12502,0.9375c0.70313,0.29297 0.6836,1.3086 -0.01953,1.3086c-3.35938,-0.09766 -7.3633,2.26563 -8.00783,2.50001c-0.64453,0.23438 0.27344,-2.5586 -0.41016,-3.84767c-0.23438,-0.41016 0.52735,-0.58594 0.3125,-0.89844zm0.25391,5.19533c0.07813,-0.95703 3.02735,0.89844 5.56642,5.99611c0.35156,0.6836 -0.33203,1.44532 -0.85938,0.97656c-2.50001,-2.2461 -6.79689,-2.03126 -7.44142,-2.28516c-0.64453,-0.23438 1.60157,-2.79298 1.89454,-4.19923c0.09766,-0.44922 0.82031,-0.09766 0.83985,-0.48828zm-3.47657,5.85939c0.42969,-0.85938 2.44141,1.99219 2.81251,7.6758c0.05859,0.76172 -0.85938,1.21094 -1.17188,0.56641c-1.44532,-3.04688 -3.92579,-3.65235 -4.4336,-4.1211c-0.50781,-0.46875 0.9961,-2.81251 1.81641,-4.00392c0.27344,-0.37109 0.78125,0.23438 0.97656,-0.11719zm-5.87892,4.29689c0.72266,-0.625 1.50391,2.77344 -0.29297,8.18361c-0.23438,0.72266 -1.25,0.80078 -1.28907,0.07813c-0.17578,-3.35938 -2.2461,-4.86329 -2.53907,-5.4883c-0.29297,-0.625 1.97266,-2.22657 3.20313,-3.00782c0.37109,-0.27344 0.625,0.48828 0.91797,0.23438zm-8.3008,4.68751c0.72266,-0.625 1.50391,2.77344 -0.29297,8.18361c-0.23438,0.72266 -1.25,0.80078 -1.28907,0.07813c-0.17578,-3.35938 -2.2461,-4.86329 -2.53907,-5.4883c-0.29297,-0.625 1.97266,-2.22657 3.20313,-3.00782c0.37109,-0.25391 0.625,0.50781 0.91797,0.23438zm-8.28127,4.70704c0.72266,-0.625 1.50391,2.77344 -0.29297,8.18361c-0.23438,0.72266 -1.25,0.80078 -1.28907,0.07813c-0.17578,-3.35938 -2.2461,-4.86329 -2.53907,-5.4883c-0.29297,-0.625 1.97266,-2.22657 3.20313,-3.00782c0.37109,-0.27344 0.60547,0.48828 0.91797,0.23438zm-8.3008,4.68751c0.72266,-0.625 1.50391,2.77344 -0.29297,8.18361c-0.23438,0.72266 -1.25,0.80078 -1.28907,0.07813c-0.17578,-3.35938 -2.2461,-4.86329 -2.53907,-5.4883c-0.29297,-0.625 1.97266,-2.22657 3.20313,-3.00782c0.37109,-0.25391 0.60547,0.48828 0.91797,0.23438zm-8.3008,4.70704c0.72266,-0.625 1.50391,2.77344 -0.29297,8.18361c-0.23438,0.72266 -1.25,0.80078 -1.28907,0.07813c-0.17578,-3.35938 -2.2461,-4.86329 -2.53907,-5.4883c-0.29297,-0.625 1.97266,-2.22657 3.20313,-3.00782c0.37109,-0.27344 0.625,0.48828 0.91797,0.23438zm-8.3008,4.68751c0.72266,-0.625 1.50391,2.77344 -0.29297,8.18361c-0.23438,0.72266 -1.25,0.80078 -1.28907,0.07813c-0.17578,-3.35938 -2.2461,-4.86329 -2.53907,-5.4883c-0.29297,-0.625 1.97266,-2.22657 3.20313,-3.00782c0.37109,-0.27344 0.625,0.48828 0.91797,0.23438zm-8.3008,4.70704c0.72266,-0.625 1.50391,2.77344 -0.29297,8.18361c-0.23438,0.72266 -1.25,0.80078 -1.28907,0.07813c-0.17578,-3.35938 -2.2461,-4.86329 -2.53907,-5.4883c-0.29297,-0.625 1.97266,-2.22657 3.20313,-3.00782c0.37109,-0.27344 0.625,0.48828 0.91797,0.23438zm-8.3008,4.68751c0.72266,-0.625 1.50391,2.77344 -0.29297,8.18361c-0.23438,0.72266 -1.25,0.80078 -1.28907,0.07813c-0.17578,-3.35938 -2.2461,-4.86329 -2.53907,-5.4883c-0.29297,-0.625 1.97266,-2.22657 3.20313,-3.00782c0.37109,-0.27344 0.625,0.48828 0.91797,0.23438z" stroke-width="5" stroke-miterlimit="10" stroke-dasharray=""></path><path data-v-9833e8b2="" transform="scale(0.1358695652173913)" fill="none" stroke="currentColor" paint-order="fill stroke markers" d="m3.66188,110.88473l9.72659,16.83598c2.69532,4.66798 9.53127,5.78126 15.25394,2.48047l39.6876,-22.91021c6.64064,-3.82813 8.65237,-11.69925 4.16017,-16.15238l-28.5157,-28.22273c-4.94142,-4.88282 -14.7266,-2.83204 -18.86724,3.96485l-20.89849,34.29696c-1.97266,3.2422 -2.16797,6.87502 -0.54688,9.70706zm9.04299,-2.32422c-1.07422,-1.85547 -1.89454,-2.8711 0.60547,-6.50392l15.91801,-25.21491c3.28126,-4.78517 10.97659,-5.68361 14.37504,-2.5586l19.55083,18.00786c3.08595,2.85157 1.3086,8.26174 -3.67188,11.13284l-29.70711,17.14848c-4.90236,2.83204 -8.24221,3.65235 -10.95706,-1.07422l-6.1133,-10.93753z" stroke-width="5" stroke-miterlimit="10" stroke-dasharray=""></path><path data-v-9833e8b2="" transform="scale(0.1358695652173913)" fill="none" stroke="currentColor" paint-order="fill stroke markers" d="m21.80645,133.65823c-4.10157,0 -7.81252,-1.79688 -9.76565,-5.15626l-9.72659,-16.83598c-1.9336,-3.33985 -1.71875,-7.55861 0.54688,-11.28909l20.89849,-34.29696c2.44141,-3.98439 6.69924,-6.71877 11.42581,-7.30471c3.84767,-0.46875 7.46096,0.625 9.88284,3.02735l28.5157,28.22273c2.20704,2.18751 3.20313,5.17579 2.79298,8.37893c-0.52735,4.08204 -3.2422,7.91018 -7.26564,10.2344l-39.6876,22.91021c-2.44141,1.42578 -5.09767,2.10938 -7.61721,2.10938zm15.11723,-71.87518c-0.44922,0 -0.89844,0.01953 -1.34766,0.07813c-3.73048,0.44922 -7.22658,2.69532 -9.14065,5.82033l-20.89849,34.29696c-1.67969,2.73438 -1.875,5.78126 -0.52735,8.10549l9.72659,16.83598c2.26563,3.92579 8.14455,4.78517 13.12503,1.91407l39.6876,-22.91021c3.1836,-1.83594 5.31251,-4.8047 5.72267,-7.92971c0.29297,-2.22657 -0.39063,-4.27735 -1.89454,-5.76173l-28.5157,-28.22273c-1.44532,-1.44532 -3.57423,-2.22657 -5.93751,-2.22657zm-13.37894,62.65641l-0.11719,0c-2.44141,-0.03906 -4.41407,-1.40625 -5.99611,-4.14064c0,0 0,-0.01953 -0.01953,-0.01953l-6.07423,-10.95706l-0.13672,-0.25391c-1.28907,-2.18751 -1.91407,-3.92579 0.80078,-7.89064l15.89848,-25.17584c0.01953,-0.01953 0.01953,-0.03906 0.03906,-0.05859c1.85547,-2.71485 5.13673,-4.57032 8.75002,-4.98048c3.1836,-0.35156 6.07423,0.42969 7.96877,2.14844l19.51177,18.04692c1.52344,1.40625 2.22657,3.35938 1.97266,5.50783c-0.35156,3.10548 -2.61719,6.21095 -5.91798,8.12502l-29.70711,17.14848c-2.12891,1.25 -4.64845,2.50001 -6.97267,2.50001zm-3.39845,-5.68361c1.3086,2.2461 2.46094,2.5586 3.33985,2.57813c1.6211,0.03906 3.76954,-1.09375 5.4883,-2.08985l29.70711,-17.14848c2.46094,-1.42578 4.14064,-3.63282 4.37501,-5.76173c0.09766,-0.80078 -0.01953,-1.95313 -0.9961,-2.8711l-19.55083,-18.00786c-1.19141,-1.09375 -3.2422,-1.60157 -5.4883,-1.34766c-2.73438,0.3125 -5.15626,1.66016 -6.50392,3.61329l-15.89848,25.17584c-0.01953,0.01953 -0.01953,0.03906 -0.03906,0.05859c-1.81641,2.63673 -1.52344,3.12501 -0.6836,4.57032l0.15625,0.27344s0,0.01953 0.01953,0.01953l6.07423,10.93753z" stroke-width="5" stroke-miterlimit="10" stroke-dasharray=""></path><path data-v-9833e8b2="" transform="scale(0.1358695652173913)" fill="none" stroke="currentColor" paint-order="fill stroke markers" d="m78.66207,42.11503l-17.05082,-12.83206c-2.44141,-1.91407 -5.44923,-3.94532 -8.39846,-2.2461l-33.84774,19.57036c-1.95313,1.13282 -2.63673,3.63282 -1.50391,5.60548c1.13282,1.95313 3.63282,2.63673 5.60548,1.50391l30.41023,-17.57817c0.25391,-0.11719 0.60547,-0.11719 1.05469,0.29297l15.62504,10.37112c1.13282,1.95313 3.63282,2.63673 5.60548,1.50391l0.9961,-0.56641c1.97266,-1.15235 2.63673,-3.67188 1.50391,-5.62501z" stroke-width="5" stroke-miterlimit="10" stroke-dasharray=""></path><path data-v-9833e8b2="" transform="scale(0.1358695652173913)" fill="none" stroke="currentColor" paint-order="fill stroke markers" d="m21.43536,55.826c-0.48828,0 -0.9961,-0.05859 -1.46485,-0.19531c-1.46485,-0.39063 -2.67579,-1.32813 -3.43751,-2.63673c-0.76172,-1.3086 -0.95703,-2.83204 -0.56641,-4.29689s1.32813,-2.67579 2.63673,-3.43751l33.86727,-19.55083c4.08204,-2.36329 8.16408,0.82031 10.13674,2.36329l17.03129,12.81253c0.17578,0.11719 0.3125,0.29297 0.41016,0.46875c1.5625,2.69532 0.625,6.17189 -2.07032,7.73439l-0.9961,0.56641c-1.3086,0.76172 -2.83204,0.95703 -4.29689,0.56641c-1.32813,-0.35156 -2.46094,-1.17188 -3.22266,-2.30469l-15.25394,-10.13674l-29.92195,17.2852c-0.89844,0.48828 -1.875,0.76172 -2.85157,0.76172zm34.12118,-27.85163c-0.52735,0 -1.05469,0.13672 -1.54297,0.41016l-33.86727,19.57036c-0.58594,0.33203 -1.01563,0.87891 -1.19141,1.54297s-0.07813,1.34766 0.25391,1.9336s0.87891,1.01563 1.54297,1.19141c0.66406,0.17578 1.34766,0.07813 1.9336,-0.25391l30.41023,-17.57817c0.03906,-0.01953 0.05859,-0.03906 0.09766,-0.03906c0.41016,-0.19531 1.50391,-0.56641 2.69532,0.42969l15.54691,10.31253c0.19531,0.13672 0.37109,0.3125 0.48828,0.52735c0.33203,0.58594 0.87891,1.01563 1.54297,1.19141c0.66406,0.17578 1.34766,0.07813 1.9336,-0.25391l0.9961,-0.56641c1.13282,-0.64453 1.5625,-2.05079 1.05469,-3.22266l-16.75785,-12.61722l-0.01953,-0.01953c-1.95313,-1.52344 -3.63282,-2.5586 -5.1172,-2.5586z" stroke-width="5" stroke-miterlimit="10" stroke-dasharray=""></path><path data-v-9833e8b2="" transform="scale(0.1358695652173913)" fill="none" stroke="currentColor" paint-order="fill stroke markers" d="m104.83401,71.64635l66.50407,-38.41807c6.4258,-3.71095 8.63283,-11.99222 4.92189,-18.39848l-0.91797,-1.58204c-3.71095,-6.4258 -11.99222,-8.63283 -18.39848,-4.92189l-66.50407,38.39853c-1.46485,0.83985 -1.95313,2.71485 -1.11328,4.1797l11.34768,19.62896c0.83985,1.44532 2.69532,1.95313 4.16017,1.11328z" stroke-width="5" stroke-miterlimit="10" stroke-dasharray=""></path><path data-v-9833e8b2="" transform="scale(0.1358695652173913)" fill="none" stroke="currentColor" paint-order="fill stroke markers" d="m103.31057,73.61902c-0.41016,0 -0.80078,-0.05859 -1.21094,-0.15625c-1.19141,-0.3125 -2.18751,-1.07422 -2.81251,-2.14844l-11.30862,-19.62896c-0.625,-1.07422 -0.78125,-2.30469 -0.46875,-3.4961c0.3125,-1.19141 1.07422,-2.18751 2.14844,-2.81251l66.50407,-38.41807c3.45704,-1.99219 7.51955,-2.53907 11.40628,-1.48438c3.88673,1.03516 7.12892,3.51563 9.14065,6.99221l0.91797,1.58204c4.14064,7.18752 1.67969,16.38676 -5.50783,20.54693l-66.50407,38.39853c-0.70313,0.41016 -1.50391,0.625 -2.30469,0.625zm60.33218,-65.56657c-2.07032,0 -4.08204,0.54688 -5.91798,1.58204l-66.50407,38.4376c-0.35156,0.19531 -0.58594,0.52735 -0.70313,0.89844c-0.09766,0.39063 -0.05859,0.78125 0.15625,1.13282l11.34768,19.62896c0.19531,0.35156 0.52735,0.58594 0.89844,0.70313c0.39063,0.09766 0.78125,0.05859 1.13282,-0.15625l66.50407,-38.41807c5.68361,-3.28126 7.63674,-10.58596 4.35548,-16.26957l-0.91797,-1.58204c-1.58204,-2.73438 -4.16017,-4.70704 -7.24611,-5.52736c-1.01563,-0.29297 -2.05079,-0.42969 -3.10548,-0.42969z" stroke-width="5" stroke-miterlimit="10" stroke-dasharray=""></path><path data-v-9833e8b2="" transform="scale(0.1358695652173913)" fill="none" stroke="currentColor" paint-order="fill stroke markers" d="m102.58791,65.72837l63.86735,-36.89462c3.61329,-2.08985 4.86329,-6.75783 2.77344,-10.39065l-0.50781,-0.89844c-2.08985,-3.61329 -6.75783,-4.86329 -10.39065,-2.77344l-63.86735,36.89462c-3.61329,2.08985 -4.86329,6.75783 -2.77344,10.39065l0.50781,0.89844c2.10938,3.61329 6.77736,4.86329 10.39065,2.77344z" stroke-width="5" stroke-miterlimit="10" stroke-dasharray=""></path><path data-v-9833e8b2="" transform="scale(0.1358695652173913)" fill="none" stroke="currentColor" paint-order="fill stroke markers" d="m98.81837,67.52525c-0.72266,0 -1.46485,-0.09766 -2.18751,-0.29297c-2.16797,-0.58594 -3.98439,-1.97266 -5.09767,-3.88673l-0.50781,-0.89844c-2.30469,-4.00392 -0.9375,-9.14065 3.06641,-11.44534l63.86735,-36.89462c1.9336,-1.11328 4.1797,-1.40625 6.34767,-0.82031c2.16797,0.58594 3.98439,1.97266 5.09767,3.88673l0.50781,0.89844c2.30469,4.00392 0.9375,9.14065 -3.06641,11.44534l-63.86735,36.89462l-0.39063,-0.6836l0.39063,0.6836c-1.26953,0.72266 -2.69532,1.11328 -4.16017,1.11328zm63.30094,-52.98841c-1.17188,0 -2.34376,0.3125 -3.37891,0.91797l-63.86735,36.89462c-3.26173,1.875 -4.37501,6.0547 -2.50001,9.31643l0.50781,0.89844c0.89844,1.5625 2.38282,2.69532 4.14064,3.16407c1.75782,0.46875 3.59376,0.23438 5.17579,-0.66406l63.86735,-36.89462c3.26173,-1.875 4.37501,-6.0547 2.50001,-9.31643l-0.50781,-0.89844c-0.89844,-1.5625 -2.38282,-2.69532 -4.14064,-3.16407c-0.60547,-0.17578 -1.19141,-0.25391 -1.79688,-0.25391z" stroke-width="5" stroke-miterlimit="10" stroke-dasharray=""></path><path data-v-9833e8b2="" transform="scale(0.1358695652173913)" fill="none" stroke="currentColor" paint-order="fill stroke markers" d="m101.25978,86.49014l6.50392,-3.78907c1.11328,-0.64453 1.50391,-2.08985 0.83985,-3.20313l-22.77349,-39.16025c-0.64453,-1.11328 -2.08985,-1.50391 -3.20313,-0.83985l-6.50392,3.78907c-1.11328,0.64453 -1.50391,2.08985 -0.83985,3.20313l22.79303,39.17979c0.625,1.09375 2.07032,1.46485 3.1836,0.82031z" stroke-width="5" stroke-miterlimit="10" stroke-dasharray=""></path><path data-v-9833e8b2="" transform="scale(0.1358695652173913)" fill="none" stroke="currentColor" paint-order="fill stroke markers" d="m100.10743,88.38468c-0.33203,0 -0.6836,-0.03906 -1.01563,-0.13672c-1.01563,-0.27344 -1.85547,-0.91797 -2.38282,-1.81641l-22.79303,-39.16025c-1.07422,-1.85547 -0.44922,-4.25782 1.40625,-5.33204l6.50392,-3.78907c0.89844,-0.52735 1.95313,-0.66406 2.96876,-0.39063c1.01563,0.27344 1.85547,0.91797 2.38282,1.81641l22.79303,39.17979c0.52735,0.89844 0.66406,1.95313 0.39063,2.96876c-0.27344,1.01563 -0.91797,1.85547 -1.81641,2.38282l-6.50392,3.73048c-0.58594,0.35156 -1.26953,0.54688 -1.9336,0.54688zm-16.30863,-47.65637c-0.11719,0 -0.25391,0.01953 -0.39063,0.09766l-6.50392,3.78907c-0.37109,0.21484 -0.48828,0.70313 -0.27344,1.07422l22.79303,39.17979c0.13672,0.23438 0.35156,0.33203 0.46875,0.35156c0.11719,0.03906 0.35156,0.05859 0.58594,-0.07813l6.50392,-3.78907c0.37109,-0.21484 0.48828,-0.70313 0.27344,-1.07422l-22.77349,-39.16025c-0.13672,-0.23438 -0.35156,-0.33203 -0.46875,-0.35156c-0.05859,-0.01953 -0.11719,-0.03906 -0.21484,-0.03906z" stroke-width="5" stroke-miterlimit="10" stroke-dasharray=""></path><path data-v-9833e8b2="" transform="scale(0.1358695652173913)" fill="none" stroke="currentColor" paint-order="fill stroke markers" d="m55.81045,120.80663l49.37512,-28.73054c1.81641,-1.05469 2.44141,-3.39845 1.38672,-5.21486l-26.46491,-45.50793c-1.97266,-3.39845 -6.38673,-4.57032 -9.78518,-2.59766l-42.03136,24.45319c-4.27735,2.48047 -5.7422,8.02736 -3.2422,12.30472l25.54694,43.90636c1.05469,1.81641 3.41798,2.44141 5.21486,1.38672z" stroke-width="5" stroke-miterlimit="10" stroke-dasharray=""></path><path data-v-9833e8b2="" transform="scale(0.1358695652173913)" fill="none" stroke="currentColor" paint-order="fill stroke markers" d="m53.91591,122.89648c-0.46875,0 -0.9375,-0.05859 -1.38672,-0.17578c-1.38672,-0.37109 -2.5586,-1.25 -3.28126,-2.50001l-25.54694,-43.92589c-2.92969,-5.03908 -1.21094,-11.50394 3.8086,-14.43363l42.01182,-24.43366c4.16017,-2.42188 9.51174,-0.9961 11.93362,3.14454l26.46491,45.50793c0.72266,1.23047 0.91797,2.69532 0.54688,4.08204c-0.37109,1.38672 -1.25,2.5586 -2.50001,3.28126l-49.35559,28.71101c-0.83985,0.48828 -1.75782,0.74219 -2.69532,0.74219zm19.98052,-83.53537c-0.95703,0 -1.91407,0.25391 -2.81251,0.76172l-41.99229,24.43366c-1.69922,0.9961 -2.92969,2.59766 -3.43751,4.53126c-0.50781,1.9336 -0.23438,3.92579 0.74219,5.64455l25.54694,43.90636c0.29297,0.50781 0.78125,0.87891 1.36719,1.03516c0.58594,0.15625 1.19141,0.07813 1.71875,-0.23438l49.37512,-28.73054c0.52735,-0.29297 0.87891,-0.78125 1.03516,-1.36719s0.07813,-1.19141 -0.23438,-1.71875l-26.46491,-45.50793c-1.03516,-1.75782 -2.91016,-2.75391 -4.84376,-2.75391z" stroke-width="5" stroke-miterlimit="10" stroke-dasharray=""></path><path data-v-9833e8b2="" transform="scale(0.1358695652173913)" fill="none" stroke="currentColor" paint-order="fill stroke markers" d="m53.3454,89.04952l-4.34142,7.32619l-16.97075,-10.05667l4.34122,-7.32619l16.97094,10.05667z" stroke-width="5" stroke-miterlimit="10" stroke-dasharray=""></path><path data-v-9833e8b2="" transform="scale(0.1358695652173913)" fill="none" stroke="currentColor" paint-order="fill stroke markers" d="m49.01355,97.93548c-0.27344,0 -0.54688,-0.07813 -0.80078,-0.21484l-16.9727,-10.05862c-0.74219,-0.44922 -0.9961,-1.40625 -0.54688,-2.14844l4.33595,-7.32424c0.21484,-0.35156 0.54688,-0.60547 0.95703,-0.72266c0.41016,-0.09766 0.82031,-0.03906 1.19141,0.17578l16.9727,10.05862c0.74219,0.44922 0.9961,1.40625 0.54688,2.14844l-4.33595,7.32424c-0.21484,0.35156 -0.54688,0.60547 -0.95703,0.72266c-0.13672,0.01953 -0.25391,0.03906 -0.39063,0.03906zm-14.82426,-12.14847l14.27738,8.45705l2.75391,-4.62892l-14.27738,-8.45705l-2.75391,4.62892z" stroke-width="5" stroke-miterlimit="10" stroke-dasharray=""></path><path data-v-9833e8b2="" transform="scale(0.1358695652173913)" fill="none" stroke="currentColor" paint-order="fill stroke markers" d="m30.47835,95.12298l13.30081,-22.44146c1.23047,-2.07032 0.52735,-4.76564 -1.52344,-5.99611l-0.50781,-0.3125c-2.07032,-1.23047 -4.76564,-0.52735 -5.99611,1.52344l-13.32035,22.48053c-1.23047,2.07032 -0.52735,4.76564 1.52344,5.99611l0.50781,0.3125c2.08985,1.21094 4.78517,0.50781 6.01564,-1.5625z" stroke-width="5" stroke-miterlimit="10" stroke-dasharray=""></path><path data-v-9833e8b2="" transform="scale(0.1358695652173913)" fill="none" stroke="currentColor" paint-order="fill stroke markers" d="m26.70881,98.83392c-1.03516,0 -2.07032,-0.27344 -3.00782,-0.82031l-0.50781,-0.3125c-2.81251,-1.66016 -3.75001,-5.31251 -2.08985,-8.12502l13.28128,-22.44146c0.80078,-1.36719 2.08985,-2.32422 3.63282,-2.71485c1.54297,-0.39063 3.14454,-0.17578 4.4922,0.64453l0.50781,0.3125c1.36719,0.80078 2.32422,2.08985 2.71485,3.63282c0.39063,1.54297 0.17578,3.14454 -0.64453,4.4922l-13.30081,22.44146c-1.07422,1.85547 -3.06641,2.89063 -5.07814,2.89063zm12.793,-31.48445c-0.23438,0 -0.46875,0.03906 -0.70313,0.09766c-0.72266,0.19531 -1.34766,0.64453 -1.71875,1.28907l-13.30081,22.42193c-0.78125,1.32813 -0.35156,3.06641 0.97656,3.84767l0.50781,0.3125c1.32813,0.78125 3.06641,0.35156 3.84767,-0.97656l13.30081,-22.44146c0.37109,-0.64453 0.48828,-1.40625 0.29297,-2.12891s-0.64453,-1.34766 -1.28907,-1.71875l-0.50781,-0.3125c-0.41016,-0.25391 -0.89844,-0.39063 -1.40625,-0.39063zm-9.02346,27.77351z" stroke-width="5" stroke-miterlimit="10" stroke-dasharray=""></path><path data-v-9833e8b2="" transform="scale(0.1358695652173913)" fill="none" stroke="currentColor" paint-order="fill stroke markers" d="m60.26358,122.85742l20.35161,-11.75784c3.20313,-1.85547 4.31642,-5.99611 2.46094,-9.19924l-9.39455,-16.26957c-1.85547,-3.20313 -5.99611,-4.31642 -9.19924,-2.46094l-20.35161,11.75784c-3.20313,1.85547 -4.31642,5.99611 -2.46094,9.19924l9.39455,16.26957c1.83594,3.20313 5.99611,4.31642 9.19924,2.46094z" stroke-width="5" stroke-miterlimit="10" stroke-dasharray=""></path><path data-v-9833e8b2="" transform="scale(0.1358695652173913)" fill="none" stroke="currentColor" paint-order="fill stroke markers" d="m56.92373,125.31836c-0.72266,0 -1.44532,-0.09766 -2.16797,-0.29297c-2.14844,-0.56641 -3.94532,-1.95313 -5.03908,-3.8672l-9.39455,-16.26957c-2.28516,-3.96485 -0.91797,-9.04299 3.02735,-11.34768l20.35161,-11.75784c3.96485,-2.28516 9.04299,-0.91797 11.34768,3.02735l9.39455,16.26957c2.28516,3.96485 0.91797,9.04299 -3.02735,11.34768l-20.35161,11.75784c-1.28907,0.76172 -2.71485,1.13282 -4.14064,1.13282zm3.33985,-2.46094zm7.57814,-39.04307c-0.87891,0 -1.75782,0.21484 -2.57813,0.6836l-20.35161,11.75784c-2.48047,1.42578 -3.32032,4.58986 -1.89454,7.07033l9.39455,16.26957c0.6836,1.19141 1.79688,2.05079 3.14454,2.40235c1.34766,0.35156 2.73438,0.17578 3.92579,-0.50781l20.35161,-11.75784c2.48047,-1.42578 3.32032,-4.58986 1.89454,-7.07033l-9.39455,-16.26957c-0.95703,-1.64063 -2.71485,-2.57813 -4.4922,-2.57813z" stroke-width="5" stroke-miterlimit="10" stroke-dasharray=""></path><path data-v-9833e8b2="" transform="scale(0.1358695652173913)" fill="none" stroke="currentColor" paint-order="fill stroke markers" d="m55.92763,66.91978l17.89067,-10.33206c0.87891,-0.50781 1.19141,-1.66016 0.6836,-2.53907l-0.11719,-0.21484c-0.50781,-0.87891 -1.66016,-1.19141 -2.53907,-0.6836l-17.89067,10.33206c-0.87891,0.50781 -1.19141,1.66016 -0.6836,2.53907l0.11719,0.21484c0.50781,0.87891 1.66016,1.19141 2.53907,0.6836z" stroke-width="5" stroke-miterlimit="10" stroke-dasharray=""></path><path data-v-9833e8b2="" transform="scale(0.1358695652173913)" fill="none" stroke="currentColor" paint-order="fill stroke markers" d="m55.00966,67.95494c-0.23438,0 -0.46875,-0.03906 -0.6836,-0.09766c-0.6836,-0.17578 -1.25,-0.625 -1.60157,-1.23047l-0.11719,-0.21484c-0.72266,-1.26953 -0.29297,-2.89063 0.97656,-3.61329l17.89067,-10.33206c1.26953,-0.72266 2.89063,-0.29297 3.61329,0.97656l0.11719,0.21484c0.35156,0.60547 0.44922,1.32813 0.25391,2.01172c-0.17578,0.6836 -0.625,1.25 -1.23047,1.60157l-17.89067,10.33206c-0.42969,0.21484 -0.87891,0.35156 -1.32813,0.35156zm17.75395,-14.29691c-0.17578,0 -0.37109,0.03906 -0.54688,0.13672l-17.89067,10.33206c-0.50781,0.29297 -0.70313,0.95703 -0.39063,1.48438l0.11719,0.21484c0.29297,0.50781 0.95703,0.70313 1.48438,0.39063l17.89067,-10.33206c0.25391,-0.13672 0.42969,-0.37109 0.50781,-0.66406s0.03906,-0.56641 -0.09766,-0.82031l-0.11719,-0.21484c-0.21484,-0.33203 -0.58594,-0.52735 -0.95703,-0.52735z" stroke-width="5" stroke-miterlimit="10" stroke-dasharray=""></path><path data-v-9833e8b2="" transform="scale(0.1358695652173913)" fill="none" stroke="currentColor" paint-order="fill stroke markers" d="m59.42374,72.97448l17.89067,-10.33206c0.87891,-0.50781 1.19141,-1.66016 0.6836,-2.53907l-0.11719,-0.21484c-0.50781,-0.87891 -1.66016,-1.19141 -2.53907,-0.6836l-17.89067,10.33206c-0.87891,0.50781 -1.19141,1.66016 -0.6836,2.53907l0.11719,0.21484c0.50781,0.87891 1.64063,1.19141 2.53907,0.6836z" stroke-width="5" stroke-miterlimit="10" stroke-dasharray=""></path><path data-v-9833e8b2="" transform="scale(0.1358695652173913)" fill="none" stroke="currentColor" paint-order="fill stroke markers" d="m58.48623,73.99011c-0.91797,0 -1.79688,-0.46875 -2.28516,-1.32813l-0.11719,-0.21484c-0.72266,-1.26953 -0.29297,-2.89063 0.97656,-3.61329l17.89067,-10.33206c0.60547,-0.35156 1.32813,-0.44922 2.01172,-0.25391c0.6836,0.17578 1.25,0.625 1.60157,1.23047l0.11719,0.21484c0.35156,0.60547 0.44922,1.32813 0.25391,2.01172c-0.17578,0.6836 -0.625,1.25 -1.23047,1.60157l-17.89067,10.33206c-0.41016,0.25391 -0.87891,0.35156 -1.32813,0.35156zm17.75395,-14.27738c-0.19531,0 -0.37109,0.03906 -0.52735,0.13672l-17.89067,10.33206c-0.50781,0.29297 -0.70313,0.95703 -0.39063,1.48438l0.11719,0.21484c0.13672,0.25391 0.37109,0.42969 0.66406,0.50781c0.27344,0.07813 0.56641,0.03906 0.82031,-0.09766l17.89067,-10.33206c0.25391,-0.13672 0.42969,-0.37109 0.50781,-0.66406c0.07813,-0.27344 0.03906,-0.56641 -0.09766,-0.82031l-0.11719,-0.21484c-0.13672,-0.25391 -0.37109,-0.42969 -0.66406,-0.50781c-0.11719,-0.01953 -0.21484,-0.03906 -0.3125,-0.03906z" stroke-width="5" stroke-miterlimit="10" stroke-dasharray=""></path><path data-v-9833e8b2="" transform="scale(0.1358695652173913)" fill="none" stroke="currentColor" paint-order="fill stroke markers" d="m62.91984,79.00965l17.89067,-10.33206c0.87891,-0.50781 1.19141,-1.66016 0.6836,-2.53907l-0.11719,-0.21484c-0.50781,-0.87891 -1.66016,-1.19141 -2.53907,-0.6836l-17.89067,10.33206c-0.87891,0.50781 -1.19141,1.66016 -0.6836,2.53907l0.11719,0.21484c0.50781,0.89844 1.64063,1.21094 2.53907,0.6836z" stroke-width="5" stroke-miterlimit="10" stroke-dasharray=""></path><path data-v-9833e8b2="" transform="scale(0.1358695652173913)" fill="none" stroke="currentColor" paint-order="fill stroke markers" d="m61.98234,80.04481c-0.91797,0 -1.79688,-0.46875 -2.28516,-1.32813l-0.11719,-0.21484c-0.72266,-1.26953 -0.29297,-2.89063 0.97656,-3.61329l17.89067,-10.33206c1.26953,-0.72266 2.89063,-0.29297 3.61329,0.97656l0.11719,0.21484c0.35156,0.60547 0.44922,1.32813 0.25391,2.01172c-0.17578,0.6836 -0.625,1.25 -1.23047,1.60157l-17.89067,10.33206c-0.41016,0.23438 -0.87891,0.35156 -1.32813,0.35156zm0.9375,-1.03516zm16.81645,-13.24222c-0.19531,0 -0.37109,0.03906 -0.52735,0.13672l-17.89067,10.33206c-0.50781,0.29297 -0.70313,0.95703 -0.39063,1.48438l0.11719,0.21484c0.29297,0.50781 0.95703,0.70313 1.48438,0.39063l17.89067,-10.33206c0.50781,-0.29297 0.70313,-0.95703 0.39063,-1.48438l-0.11719,-0.21484c-0.13672,-0.25391 -0.37109,-0.42969 -0.66406,-0.50781c-0.09766,0 -0.19531,-0.01953 -0.29297,-0.01953z" stroke-width="5" stroke-miterlimit="10" stroke-dasharray=""></path><path data-v-9833e8b2="" transform="scale(0.1358695652173913)" fill="none" stroke="currentColor" paint-order="fill stroke markers" d="m68.46673,98.61908l0.03906,-0.17578c0.19531,-0.72266 -0.23438,-1.48438 -0.97656,-1.67969l-6.54299,-1.75782c-0.72266,-0.19531 -1.48438,0.23438 -1.67969,0.97656l-0.03906,0.17578c-0.19531,0.72266 0.23438,1.48438 0.97656,1.67969l6.54299,1.75782c0.72266,0.19531 1.48438,-0.23438 1.67969,-0.97656z" stroke-width="5" stroke-miterlimit="10" stroke-dasharray=""></path><path data-v-9833e8b2="" transform="scale(0.1358695652173913)" fill="none" stroke="currentColor" paint-order="fill stroke markers" d="m67.1386,100.41596c-0.19531,0 -0.37109,-0.01953 -0.54688,-0.07813l-6.54299,-1.75782c-0.54688,-0.15625 -1.01563,-0.50781 -1.3086,-0.9961s-0.37109,-1.07422 -0.21484,-1.6211l0.03906,-0.17578c0.15625,-0.54688 0.50781,-1.01563 0.9961,-1.3086s1.07422,-0.37109 1.6211,-0.21484l6.54299,1.75782c0.54688,0.15625 1.01563,0.50781 1.3086,0.9961c0.29297,0.48828 0.37109,1.07422 0.21484,1.6211l-0.03906,0.17578c-0.15625,0.54688 -0.50781,1.01563 -0.9961,1.3086c-0.33203,0.19531 -0.70313,0.29297 -1.07422,0.29297zm-6.48439,-4.64845c-0.09766,0 -0.19531,0.01953 -0.29297,0.07813c-0.13672,0.07813 -0.23438,0.19531 -0.27344,0.35156l-0.03906,0.17578c-0.03906,0.15625 -0.01953,0.3125 0.05859,0.44922c0.07813,0.13672 0.19531,0.23438 0.35156,0.27344l6.54299,1.75782c0.15625,0.03906 0.3125,0.01953 0.44922,-0.05859c0.13672,-0.07813 0.23438,-0.19531 0.27344,-0.35156l0.03906,-0.17578c0.03906,-0.15625 0.01953,-0.3125 -0.05859,-0.44922c-0.07813,-0.13672 -0.19531,-0.23438 -0.35156,-0.27344l-6.54299,-1.75782c-0.05859,-0.01953 -0.11719,-0.01953 -0.15625,-0.01953zm7.81252,2.85157z" stroke-width="5" stroke-miterlimit="10" stroke-dasharray=""></path><path data-v-9833e8b2="" transform="scale(0.1358695652173913)" fill="none" stroke="currentColor" paint-order="fill stroke markers" d="m65.40031,110.02536l0.03906,-0.17578c0.19531,-0.72266 -0.23438,-1.48438 -0.97656,-1.67969l-6.54299,-1.75782c-0.72266,-0.19531 -1.48438,0.23438 -1.67969,0.97656l-0.03906,0.17578c-0.19531,0.72266 0.23438,1.48438 0.97656,1.67969l6.54299,1.75782c0.74219,0.19531 1.48438,-0.25391 1.67969,-0.97656z" stroke-width="5" stroke-miterlimit="10" stroke-dasharray=""></path><path data-v-9833e8b2="" transform="scale(0.1358695652173913)" fill="none" stroke="currentColor" paint-order="fill stroke markers" d="m64.09172,111.82224c-0.19531,0 -0.37109,-0.01953 -0.54688,-0.07813l-6.54299,-1.75782c-0.54688,-0.15625 -1.01563,-0.50781 -1.3086,-0.9961c-0.29297,-0.48828 -0.37109,-1.07422 -0.21484,-1.6211l0.03906,-0.17578c0.3125,-1.15235 1.48438,-1.81641 2.63673,-1.52344l6.54299,1.75782c1.15235,0.3125 1.81641,1.48438 1.52344,2.63673l-0.03906,0.17578c-0.15625,0.54688 -0.50781,1.01563 -0.9961,1.3086c-0.35156,0.17578 -0.72266,0.27344 -1.09375,0.27344zm-6.48439,-4.66798c-0.25391,0 -0.48828,0.17578 -0.56641,0.42969l-0.03906,0.17578c-0.03906,0.15625 -0.01953,0.3125 0.05859,0.44922c0.07813,0.13672 0.19531,0.23438 0.35156,0.27344l6.54299,1.75782c0.15625,0.03906 0.3125,0.01953 0.44922,-0.05859c0.13672,-0.07813 0.23438,-0.19531 0.27344,-0.35156l0.03906,-0.17578c0.07813,-0.3125 -0.09766,-0.625 -0.41016,-0.72266l-6.54299,-1.75782c-0.05859,-0.01953 -0.11719,-0.01953 -0.15625,-0.01953zm7.79299,2.8711z" stroke-width="5" stroke-miterlimit="10" stroke-dasharray=""></path><path data-v-9833e8b2="" transform="scale(0.1358695652173913)" fill="none" stroke="currentColor" paint-order="fill stroke markers" d="m70.92767,105.39644l0.03906,-0.17578c0.19531,-0.72266 -0.23438,-1.48438 -0.97656,-1.67969l-14.21879,-3.8086c-0.72266,-0.19531 -1.48438,0.23438 -1.67969,0.97656l-0.03906,0.17578c-0.19531,0.72266 0.23438,1.48438 0.97656,1.67969l14.21879,3.8086c0.72266,0.17578 1.48438,-0.25391 1.67969,-0.97656z" stroke-width="5" stroke-miterlimit="10" stroke-dasharray=""></path><path data-v-9833e8b2="" transform="scale(0.1358695652173913)" fill="none" stroke="currentColor" paint-order="fill stroke markers" d="m69.59954,107.19332c-0.19531,0 -0.37109,-0.01953 -0.54688,-0.07813l-14.21879,-3.8086c-0.54688,-0.15625 -1.01563,-0.50781 -1.3086,-0.9961c-0.29297,-0.48828 -0.37109,-1.07422 -0.21484,-1.6211l0.03906,-0.17578c0.3125,-1.15235 1.48438,-1.81641 2.63673,-1.52344l14.21879,3.8086c1.15235,0.3125 1.81641,1.48438 1.52344,2.63673l-0.03906,0.17578c-0.15625,0.54688 -0.50781,1.01563 -0.9961,1.3086c-0.35156,0.17578 -0.72266,0.27344 -1.09375,0.27344zm-14.17972,-6.71877c-0.25391,0 -0.48828,0.17578 -0.56641,0.42969l-0.03906,0.17578c-0.03906,0.15625 -0.01953,0.3125 0.05859,0.44922c0.07813,0.13672 0.19531,0.23438 0.35156,0.27344l14.21879,3.8086c0.15625,0.03906 0.3125,0.01953 0.44922,-0.05859c0.13672,-0.07813 0.23438,-0.19531 0.27344,-0.35156l0.03906,-0.17578c0.07813,-0.3125 -0.09766,-0.625 -0.41016,-0.72266l-14.21879,-3.8086c-0.03906,-0.01953 -0.09766,-0.01953 -0.15625,-0.01953zm15.50785,4.92189z" stroke-width="5" stroke-miterlimit="10" stroke-dasharray=""></path></g></svg>