<svg data-v-9833e8b2="" version="1.1" xmlns="http://www.w3.org/2000/svg" xmlns:xlink="http://www.w3.org/1999/xlink" width="12" height="25"><g data-v-9833e8b2=""><path data-v-9833e8b2="" transform="scale(0.12437810945273632)" fill="none" stroke="currentColor" paint-order="fill stroke markers" d="m81.96523,110.91697a3.77128,3.77128 0 0 1 -1.18859,7.31484l-6.92049,0l6.71499,75.1701l0.872,0a3.77683,3.77683 0 0 1 0.11664,7.54811l-8.75892,0a3.77683,3.77683 0 0 1 -0.11664,-7.54811l0.31103,0l-1.1997,-13.42442l-28.7206,-15.98489l-28.55953,15.89603l-1.32745,13.51329l0.16663,0a3.77683,3.77683 0 0 1 0.11108,7.54811l-8.75892,0a3.77683,3.77683 0 0 1 -0.12219,-7.54811l1.02197,0l7.35927,-75.1701l-7.48146,0a3.77683,3.77683 0 0 1 -1.29968,-7.30928l77.76945,0l0.01111,-0.00555zm-12.89122,38.60146l-18.23989,10.15302l20.14496,11.21386l-1.90508,-21.36688zm-51.60932,0.22217l-2.05504,21.01141l19.90613,-11.08056l-17.85109,-9.93641l0,0.00555zm50.13191,-16.7236l-48.49343,0l-0.83313,8.52565l24.80491,13.80766l25.26035,-14.0576l-0.7387,-8.27571zm-1.32189,-14.78519l-45.72746,0l-0.70538,7.23708l47.08267,0l-0.64984,-7.23708zm-2.69377,-83.107a11.10833,11.10833 0 0 1 11.10833,11.10833l0,49.80422a11.10833,11.10833 0 0 1 -11.10833,11.10833l-41.00642,0a11.10833,11.10833 0 0 1 -11.10833,-11.10833l0,-49.80422a11.10833,11.10833 0 0 1 11.10833,-11.10833l41.00086,0l0.00555,0zm-20.32825,-34.1248l0.18329,0.01111c0.03888,0 0.07776,0.01111 0.11108,0.01666l0.24994,0.03888l0.04443,0.01111a3.76572,3.76572 0 0 1 0.88867,0.30548l0.12219,0.05554a3.91013,3.91013 0 0 1 0.21106,0.12775l0.10553,0.06665l33.09173,22.16113l2.38829,0a3.77683,3.77683 0 0 1 0.35547,7.53145l-0.11108,0.00555l0,0.01111l-75.64775,0l0,-0.01111a3.77683,3.77683 0 0 1 -3.53245,-3.64353l0,-0.11664a3.77683,3.77683 0 0 1 3.65464,-3.77683l2.50493,0l33.10284,-22.16113l0.1944,-0.12775l0.09997,-0.05554l0.03888,-0.00555l0.25549,-0.12219a3.74906,3.74906 0 0 1 0.94421,-0.27771l0.1944,-0.02222l0.12775,-0.00555l0.23883,-0.01666l0.18884,0.00555l-0.00555,-0.00555z" stroke-width="5" stroke-miterlimit="10" stroke-dasharray=""></path></g></svg>