<svg data-v-9833e8b2="" version="1.1" xmlns="http://www.w3.org/2000/svg" xmlns:xlink="http://www.w3.org/1999/xlink" width="22" height="25"><g data-v-9833e8b2=""><path data-v-9833e8b2="" transform="scale(0.1366120218579235)" fill="none" stroke="currentColor" paint-order="fill stroke markers" d="m62.68765,71.60851c10.84586,0 19.66672,-8.82502 19.66672,-19.67088s-8.82502,-19.67088 -19.66672,-19.67088c-10.84586,0 -19.67088,8.82502 -19.67088,19.67088s8.82502,19.67088 19.67088,19.67088zm0,-33.01258c7.35418,0 13.33753,5.98335 13.33753,13.3417s-5.98335,13.3417 -13.33753,13.3417c-7.35835,0 -13.3417,-5.98335 -13.3417,-13.3417s5.98335,-13.3417 13.3417,-13.3417z" stroke-width="5" stroke-miterlimit="10" stroke-dasharray=""></path><path data-v-9833e8b2="" transform="scale(0.1366120218579235)" fill="none" stroke="currentColor" paint-order="fill stroke markers" d="m140.33368,128.42949c-2.02917,-8.28335 -7.47919,-12.77503 -14.63754,-11.98336c-7.98335,0.875 -15.13337,8.13335 -15.29587,15.53754c-0.11667,5.37085 0.80834,9.70002 2.71667,13.97504a165.20875,165.20875 0 0 1 -23.10006,5.67501l3.27918,-40.8376c18.53755,-10.65419 31.07508,-30.61258 31.07508,-53.48347a3.16667,3.16667 0 0 0 -3.16251,-3.16251l-7.70419,0c0.03333,-0.74167 0.1125,-1.46667 0.1125,-2.21667c0,-28.0834 -22.84589,-50.93346 -50.92929,-50.93346s-50.93346,22.85423 -50.93346,50.93763c0,0.74584 0.07917,1.475 0.1125,2.21667l-7.70419,0a3.16667,3.16667 0 0 0 -3.16251,3.16251c0,22.87089 12.53753,42.82927 31.07508,53.48347l4.22501,52.6293c0.8125,9.25419 7.96252,16.78754 15.94171,16.78754l20.88755,0c7.97502,0 15.12921,-7.52919 15.94171,-16.80838l0.43333,-5.39168c0.2,0.00833 0.39167,0.05833 0.59584,0.02917c2.24167,-0.35417 14.32087,-2.35001 26.09173,-6.39168c2.01251,3.22084 4.52501,6.64168 7.52919,10.64169a3.15834,3.15834 0 0 0 4.42918,0.63334a3.16251,3.16251 0 0 0 0.63334,-4.42918c-2.63334,-3.51251 -4.80835,-6.45835 -6.55835,-9.13336c6.98335,-2.92501 13.18337,-6.65002 16.25837,-11.2667c2.04584,-3.07501 2.66667,-6.32502 1.85,-9.67086zm-77.64603,-121.09614c24.59173,0 44.60011,20.00838 44.60011,44.60428s-20.00838,44.60428 -44.60011,44.60428s-44.60428,-20.00838 -44.60428,-44.60428s20.00838,-44.60428 44.60428,-44.60428zm-55.27097,53.14597l5.11251,0c4.08334,24.02089 24.99173,42.38761 50.15846,42.38761s46.07095,-18.36671 50.15429,-42.38761l5.11251,0c-1.64584,29.05841 -25.8084,52.19596 -55.26681,52.19596c-29.46674,0 -53.62514,-23.13756 -55.27097,-52.19596zm75.35019,102.39192c-0.525,5.96668 -4.93751,11.01253 -9.63752,11.01253l-20.88755,0c-4.70001,0 -9.11252,-5.04168 -9.63336,-10.98753l-3.91251,-48.75012a61.31682,61.31682 0 0 0 23.99589,4.85835c8.50419,0 16.61254,-1.72917 23.99173,-4.85835l-3.91668,48.72512zm50.45846,-28.28757c-2.37084,3.55417 -7.78335,6.65002 -14.15004,9.21252c-1.6875,-3.66668 -2.44584,-7.21668 -2.34584,-11.6667c0.09167,-4.21668 4.87501,-8.86669 9.65419,-9.39169c0.28333,-0.02917 0.55833,-0.04583 0.82917,-0.04583c4.27084,0 6.15002,3.87501 6.97502,7.24168c0.3875,1.6 0.08333,3.07501 -0.9625,4.65001z" stroke-width="5" stroke-miterlimit="10" stroke-dasharray=""></path></g></svg>