<svg data-v-9833e8b2="" version="1.1" xmlns="http://www.w3.org/2000/svg" xmlns:xlink="http://www.w3.org/1999/xlink" width="27" height="25"><g data-v-9833e8b2=""><path data-v-9833e8b2="" transform="scale(0.1358695652173913)" fill="none" stroke="currentColor" paint-order="fill stroke markers" d="m113.77242,82.35769l7.9271,-8.25898l-11.67482,-11.19128l-7.91835,8.25898l-19.32505,20.15859c-2.9498,3.08501 -3.3623,7.64002 -1.34459,11.16419c0.43959,0.76209 0.95042,1.4975 1.63167,2.14334c1.6323,1.56021 3.67709,2.36709 5.7571,2.54646c-3.32605,1.34542 -7.29023,0.73542 -10.04336,-1.91896c-3.75668,-3.59563 -3.88293,-9.54148 -0.27792,-13.30733l21.6738,-22.61568l-21.30609,-20.42755c-5.46106,-5.23689 -14.12379,-5.05772 -19.3513,0.40333l-57.44514,59.91994c-5.48814,21.75464 11.54128,53.09534 16.99337,58.32327c5.46043,5.22814 37.48301,20.92047 58.98661,14.5092l57.44494,-59.91932c5.22856,-5.46126 5.0396,-14.13254 -0.42125,-19.36067l-21.30672,-20.42755zm63.93745,-41.55469l-39.53739,-37.89614c-2.71688,-2.61813 -7.05668,-2.52876 -9.67544,0.19729l-11.55003,12.05211c-2.61792,2.74417 -2.51938,7.06648 0.20667,9.68461l15.29816,14.6617l-19.76401,20.6338l11.6669,11.18211l19.77255,-20.6338l12.57191,12.05211c2.72605,2.60959 7.05773,2.51084 9.67627,-0.20604l11.54065,-12.05211c2.60917,-2.72605 2.52876,-7.05731 -0.20625,-9.67565zm-36.21051,-10.74295l4.72585,-4.9323l11.67565,11.20024l-4.72564,4.92334l-11.67586,-11.19128z" stroke-width="5" stroke-miterlimit="10" stroke-dasharray=""></path></g></svg>