<svg data-v-9833e8b2="" version="1.1" xmlns="http://www.w3.org/2000/svg" xmlns:xlink="http://www.w3.org/1999/xlink" width="19.5" height="25"><g data-v-9833e8b2=""><path data-v-9833e8b2="" transform="scale(0.12315270935960591)" fill="none" stroke="currentColor" paint-order="fill stroke markers" d="m98.48033,202.87544l-35.99313,0c-3.63284,0 -6.58866,-2.95555 -6.58866,-6.58866l0,-0.20407l0.02062,-0.20327c0.04606,-0.45206 4.6074,-45.69106 4.6074,-85.54949c0,-25.38491 0.07365,-29.68165 0.08623,-30.2245c0.02919,-3.34575 2.5134,-6.61009 5.80907,-7.62937c-0.20246,-16.02361 -2.1698,-20.44328 -7.79166,-25.54532c-4.82005,-4.39128 -11.27641,-6.61544 -19.19528,-6.61544c-1.59347,0 -3.27157,0.08972 -4.98796,0.26674c-6.97002,0.74692 -17.7001,11.78364 -21.89213,17.52602c-1.56963,2.15052 -3.36744,3.24131 -5.34281,3.24131c-1.40306,0 -2.73648,-0.58035 -3.7547,-1.63418c-2.46626,-2.55277 -2.49652,-7.43441 -2.44698,-8.86987c0.18586,-5.10419 3.38619,-12.38889 8.35192,-19.01906c4.46198,-5.95717 12.4387,-14.1642 25.10022,-19.43176c19.91355,-8.2831 36.89833,-9.51984 45.25025,-9.51984c4.64249,0 11.68053,0.41644 16.93925,1.34708c3.75871,0.66497 6.07259,3.31522 7.93146,5.44485c0.67381,0.77156 2.07553,2.37708 2.5525,2.37708c0.66497,0 1.94832,-0.52732 3.61008,-1.93466l0,-0.64596c0,-3.63284 2.95555,-6.58866 6.58866,-6.58866l22.28152,0c3.63231,0 6.58759,2.95555 6.58759,6.58866l0,35.9934c0,3.63284 -2.95502,6.58866 -6.58759,6.58866l-22.28152,0c-3.63284,0 -6.58866,-2.95555 -6.58866,-6.58866l0,-4.11249c-1.21398,-0.65265 -2.654,-1.08945 -3.75737,-1.08945c-0.327,0 -0.47429,0.04365 -0.48018,0.04553l-0.02598,0.00777c-2.27183,0.67622 -7.93628,4.56134 -10.37389,8.88004c-2.16578,3.84656 -2.19015,9.92745 -2.18238,23.12646l0.38618,0.09668c3.94939,1.00938 6.01662,4.62267 6.04233,7.69659c0.01259,0.5466 0.0857,4.85165 0.0857,30.22289c0,39.85816 4.56161,85.09743 4.60767,85.54949l0.02062,0.20327l0,0.20407c0.00027,3.63258 -2.95528,6.58813 -6.58839,6.58813zm-34.38707,-8.0343l32.78101,0c-0.8578,-8.96735 -4.46814,-48.84024 -4.46814,-84.51093c0,-26.642 -0.08061,-29.92321 -0.08382,-30.04989l-0.0008,-0.03267c-0.0075,-0.01982 -0.01901,-0.04258 -0.03026,-0.06079l-6.39798,-1.59883l-0.00107,-5.75256c-0.00884,-15.00647 -0.01312,-21.85544 3.21801,-27.59327c3.60526,-6.38673 11.06751,-11.43763 15.07422,-12.63286c0.85431,-0.25817 1.79781,-0.38913 2.80451,-0.38913c3.47162,0 7.65321,1.60257 10.40549,3.98769l1.38619,1.2014l0,6.60152l19.38891,0l0,-33.10185l-19.38891,0l0,2.61624l-1.17595,1.17649c-3.56535,3.5675 -7.08759,5.37655 -10.46869,5.37655c-4.12829,0 -6.7156,-2.96359 -8.60473,-5.12749c-1.13551,-1.30075 -2.30986,-2.6457 -3.27933,-2.81736c-4.75309,-0.84119 -11.38675,-1.22443 -15.53914,-1.22443c-7.75283,0 -23.53996,1.15667 -42.16454,8.90415c-10.98556,4.57018 -17.89426,11.67491 -21.75555,16.83025c-3.84361,5.13151 -5.80719,9.85032 -6.481,12.71428c1.92207,-2.21211 4.4261,-4.86745 7.24935,-7.40387c6.31871,-5.67704 12.05359,-8.82675 17.0453,-9.36157c2.00509,-0.20675 3.96064,-0.31093 5.82835,-0.31093c9.98315,0 18.26009,2.92904 24.60049,8.70543c8.86076,8.04153 10.4387,16.02146 10.4387,34.46447l0,2.98046l-5.66284,1.71559c-0.05169,0.03294 -0.12721,0.1248 -0.16765,0.20059c-0.01125,0.53187 -0.08275,4.92422 -0.08275,29.9824c0.00027,35.67069 -3.60981,75.54331 -4.46734,84.51093z" stroke-width="5" stroke-miterlimit="10" stroke-dasharray=""></path><path data-v-9833e8b2="" transform="scale(0.12315270935960591)" fill="none" stroke="currentColor" paint-order="fill stroke markers" d="m147.65078,1" stroke-width="5" stroke-miterlimit="10" stroke-dasharray=""></path></g></svg>