<svg data-v-9833e8b2="" version="1.1" xmlns="http://www.w3.org/2000/svg" xmlns:xlink="http://www.w3.org/1999/xlink" width="27" height="25"><g data-v-9833e8b2=""><path data-v-9833e8b2="" transform="scale(0.12376237623762376)" fill="none" stroke="currentColor" paint-order="fill stroke markers" d="m131.29958,193.76857l-22.9427,-22.9427c-5.86036,-5.86036 -15.3367,-5.86036 -21.19706,0l-25.68585,25.68585c9.72571,2.86784 20.19955,4.48879 30.92277,4.48879c13.71575,0 26.80805,-2.49377 38.90284,-7.23194z" stroke-width="5" stroke-miterlimit="10" stroke-dasharray=""></path><path data-v-9833e8b2="" transform="scale(0.12376237623762376)" fill="none" stroke="currentColor" paint-order="fill stroke markers" d="m97.75835,1c-53.49141,0 -96.75835,43.26694 -96.75835,96.75835c0,38.2794 22.19457,71.32187 54.48892,87.03264l31.79559,-31.79559c5.86036,-5.86036 15.3367,-5.86036 21.19706,0l31.79559,31.79559c32.29434,-15.71076 54.48891,-48.75324 54.48891,-87.03264c-0.24938,-53.49141 -43.51632,-96.75835 -97.00772,-96.75835zm12.59355,98.75337c2.24439,0 4.23941,1.37157 4.98754,3.36659c0.87282,1.99502 0.37407,4.3641 -1.24689,5.98505l-27.18211,27.3068c-0.87282,0.74813 -1.99502,1.24689 -3.11721,1.24689c-1.1222,0 -2.24439,-0.49875 -3.11721,-1.24689c-0.87282,-0.87282 -1.37157,-1.99502 -1.37157,-3.11721c0,-1.24689 0.49875,-2.36908 1.37157,-3.11721l21.32175,-21.69581l-16.95765,0c-2.24439,0 -4.23941,-1.37157 -4.98754,-3.36659c-0.87282,-1.99502 -0.37407,-4.3641 1.1222,-5.86036l27.3068,-27.80556c0.87282,-0.87282 1.99502,-1.37157 3.11721,-1.37157c1.24689,0 2.36908,0.49876 3.11721,1.37157c0.87282,0.87282 1.37158,1.99502 1.37158,3.11721c0,1.24689 -0.49876,2.36908 -1.37158,3.11721l-21.69581,22.06988l17.33171,0zm35.66094,-32.04497c-1.62095,0.99751 -3.86535,0.49876 -4.86285,-1.24689c-8.97758,-14.58856 -25.1871,-24.31427 -43.39163,-24.31427c-18.32922,0 -34.28936,9.72571 -43.26694,24.0649c-0.99751,1.74564 -3.36659,2.1197 -4.86286,0.99751c-1.62095,-0.99751 -2.11971,-3.11721 -0.99751,-4.73817c10.22446,-16.33421 28.429,-27.43149 49.25199,-27.43149c20.94768,0 39.15222,11.09728 49.37668,27.55618c0.87282,1.99502 0.49876,4.11472 -1.24689,5.11223z" stroke-width="5" stroke-miterlimit="10" stroke-dasharray=""></path></g></svg>