<svg data-v-9833e8b2="" version="1.1" xmlns="http://www.w3.org/2000/svg" xmlns:xlink="http://www.w3.org/1999/xlink" width="27" height="25"><g data-v-9833e8b2=""><path data-v-9833e8b2="" transform="scale(0.13812154696132597)" fill="none" stroke="currentColor" paint-order="fill stroke markers" d="m14.7,163.1l13.7,0l0,10.7c0,3.8 -3.1,6.8 -6.8,6.8c-3.8,0 -6.8,-3.1 -6.8,-6.8l0,-10.7l-0.1,0z" stroke-width="5" stroke-miterlimit="10" stroke-dasharray=""></path><path data-v-9833e8b2="" transform="scale(0.13812154696132597)" fill="none" stroke="currentColor" paint-order="fill stroke markers" d="m81.5,163.1l13.7,0l0,10.7c0,3.8 -3.1,6.8 -6.8,6.8c-3.8,0 -6.8,-3.1 -6.8,-6.8l0,-10.7l-0.1,0z" stroke-width="5" stroke-miterlimit="10" stroke-dasharray=""></path><path data-v-9833e8b2="" transform="scale(0.13812154696132597)" fill="none" stroke="currentColor" paint-order="fill stroke markers" d="m148.2,163.1l13.7,0l0,10.7c0,3.8 -3.1,6.8 -6.8,6.8c-3.8,0 -6.8,-3.1 -6.8,-6.8l0,-10.7l-0.1,0z" stroke-width="5" stroke-miterlimit="10" stroke-dasharray=""></path><path data-v-9833e8b2="" transform="scale(0.13812154696132597)" fill="none" stroke="currentColor" paint-order="fill stroke markers" d="m175.6,64.3l0,99.2l-174.6,0l0,-99.2l34.3,-30.8l0,0l0,-22.3l106,0l0,22.2l34.3,30.9z" stroke-width="5" stroke-miterlimit="10" stroke-dasharray=""></path><path data-v-9833e8b2="" transform="scale(0.13812154696132597)" fill="none" stroke="currentColor" paint-order="fill stroke markers" d="m35.3,66l17.1,-30.8l0,-24l12,0l0,25.7l-12,32.5l0,65l-17.1,0l0,-68.4z" stroke-width="5" stroke-miterlimit="10" stroke-dasharray=""></path><path data-v-9833e8b2="" transform="scale(0.13812154696132597)" fill="none" stroke="currentColor" paint-order="fill stroke markers" d="m124.2,134.4l0,-65l-12,-32.5l0,-25.7l12,0l0,24l17.1,30.8l0,68.4l-17.1,0z" stroke-width="5" stroke-miterlimit="10" stroke-dasharray=""></path><path data-v-9833e8b2="" transform="scale(0.13812154696132597)" fill="none" stroke="currentColor" paint-order="fill stroke markers" d="m81.5,11.2l13.7,0l0,123.2l-13.7,0l0,-126.6l0,3.4z" stroke-width="5" stroke-miterlimit="10" stroke-dasharray=""></path><path data-v-9833e8b2="" transform="scale(0.13812154696132597)" fill="none" stroke="currentColor" paint-order="fill stroke markers" d="m31.8,1l112.9,0l0,10.3l-112.9,0l0,-10.3l0,0z" stroke-width="5" stroke-miterlimit="10" stroke-dasharray=""></path><path data-v-9833e8b2="" transform="scale(0.13812154696132597)" fill="none" stroke="currentColor" paint-order="fill stroke markers" d="m1,134.4l174.5,0l0,20.5l-174.5,0l0,-20.5l0,0z" stroke-width="5" stroke-miterlimit="10" stroke-dasharray=""></path></g></svg>