<svg data-v-9833e8b2="" version="1.1" xmlns="http://www.w3.org/2000/svg" xmlns:xlink="http://www.w3.org/1999/xlink" width="22" height="25"><g data-v-9833e8b2=""><path data-v-9833e8b2="" transform="scale(0.0700280112044818)" fill="none" stroke="currentColor" paint-order="fill stroke markers" d="m41.12433,28.1877l0,2.58931l-2.67496,0l0,35.73241l56.84281,55.02273l-24.60959,23.82161l-62.05897,-60.07188c-2.94245,-2.9777 -4.81492,-6.86166 -4.94867,-11.26348l0,0l0,-43.2414l-2.67496,0l0,-2.58931l40.12433,0zm243.42096,251.1626l0,38.83958l-15.1135,0l-12.57229,-38.83958l27.68579,0zm-0.53499,-246.63132l18.1897,54.11648l-22.87087,7.25005l-18.1897,-54.11648l22.87087,-7.25005zm-17.25346,119.75536l-11.63606,34.69669l0,88.42477l26.21456,81.30418l-242.35098,0l26.21456,-81.17472l0,-88.42477l-11.63606,-34.82615l213.19396,0z" stroke-width="5" stroke-miterlimit="10" stroke-dasharray=""></path><path data-v-9833e8b2="" transform="scale(0.0700280112044818)" fill="none" stroke="currentColor" paint-order="fill stroke markers" d="m267.69307,153.769l-215.06643,0l-15.51474,-46.60749l26.74956,-80.26846l64.19893,0l0,-9.06257l-5.34991,0l0,3.88396l-40.12433,0l0,-15.53583l40.12433,0l0,3.88396l5.34991,0l0,-9.06257l64.19893,0l0,25.89305l64.19893,0l26.74956,80.26846l-0.2675,0.77679z" stroke-width="5" stroke-miterlimit="10" stroke-dasharray=""></path><path data-v-9833e8b2="" transform="scale(0.0700280112044818)" fill="none" stroke="currentColor" paint-order="fill stroke markers" d="m63.86146,70.91124l192.5968,0l0,62.14332l-192.5968,0l0,-62.14332z" stroke-width="5" stroke-miterlimit="10" stroke-dasharray=""></path><path data-v-9833e8b2="" transform="scale(0.0700280112044818)" fill="none" stroke="currentColor" paint-order="fill stroke markers" d="m107.59698,177.07275l17.78845,9.96882l-12.3048,44.66551l-20.59716,0l3.0762,-10.74562l-4.81492,-2.71877l0,0l-10.83357,-6.08487l6.95488,-25.11626l12.43854,0l0,0l5.48366,0l2.8087,-9.96882zm105.12576,0l-17.78845,9.96882l12.3048,44.66551l20.59716,0l-3.0762,-10.74562l4.81492,-2.71877l0,0l10.83357,-6.08487l-6.95488,-25.11626l-12.43854,0l0,0l-5.48366,0l-2.8087,-9.96882zm-132.81155,113.92943l160.49734,0l0,49.1968l-160.49734,0l0,-49.1968zm160.49734,51.7861l0,5.17861l10.69982,0l0,5.17861l-181.89698,0l0,-5.17861l10.69982,0l0,-5.17861l160.49734,0zm0,-64.73263l0,10.35722l-160.49734,0l0,-10.35722l160.49734,0zm0,-31.07166l-26.74956,15.53583l0,12.94653l-106.86448,0l0,-12.94653l-26.8833,-15.53583l160.49734,0zm0,-12.94653l0,10.35722l-21.39964,0l0,-10.35722l21.39964,0zm-24.0746,0l0,10.35722l-21.39964,0l0,-10.35722l21.39964,0zm-24.0746,0l0,10.35722l-21.39964,0l0,-10.35722l21.39964,0zm-24.0746,0l0,10.35722l-16.04973,0l0,-10.35722l16.04973,0zm-18.72469,0l0,10.35722l-21.39964,0l0,-10.35722l21.39964,0zm-24.0746,0l0,10.35722l-21.39964,0l0,-10.35722l21.39964,0zm-24.0746,0l0,10.35722l-21.39964,0l0,-10.35722l21.39964,0zm148.46004,-80.26846l-68.21137,37.41546l0,40.2637l-42.79929,0l0,-40.2637l-68.21137,-37.41546l179.22203,0zm-160.49734,-72.50054l0,51.7861l-18.72469,0l0,-51.7861l18.72469,0zm32.09947,0l0,51.7861l-21.39964,0l0,-51.7861l21.39964,0zm-24.0746,0l0,51.7861l-5.34991,0l0,-51.7861l5.34991,0zm32.09947,0l0,51.7861l-5.34991,0l0,-51.7861l5.34991,0zm24.0746,0l0,51.7861l-21.39964,0l0,-51.7861l21.39964,0zm8.02487,0l0,51.7861l-5.34991,0l0,-51.7861l5.34991,0zm24.0746,0l0,51.7861l-21.39964,0l0,-51.7861l21.39964,0zm8.02487,0l0,51.7861l-5.34991,0l0,-51.7861l5.34991,0zm32.09947,0l0,51.7861l-5.34991,0l0,-51.7861l5.34991,0zm-8.02487,0l0,51.7861l-21.39964,0l0,-51.7861l21.39964,0zm32.09947,0l0,51.7861l-21.39964,0l0,-51.7861l21.39964,0z" stroke-width="5" stroke-miterlimit="10" stroke-dasharray=""></path><path data-v-9833e8b2="" transform="scale(0.0700280112044818)" fill="none" stroke="currentColor" paint-order="fill stroke markers" d="m240.40853,316.89523l0,2.58931l-10.69982,0l0,20.71444l-2.67496,0l0,-20.71444l-2.67496,0l0,20.71444l-2.67496,0l0,-20.71444l-10.69982,0l0,20.71444l-2.67496,0l0,-20.71444l-2.67496,0l0,20.71444l-2.67496,0l0,-20.71444l-10.69982,0l0,20.71444l-2.67496,0l0,-20.71444l-2.67496,0l0,20.71444l-2.67496,0l0,-20.71444l-10.69982,0l0,20.71444l-2.67496,0l0,-20.71444l-2.67496,0l0,20.71444l-2.67496,0l0,-20.71444l-10.69982,0l0,20.71444l-2.67496,0l0,-20.71444l-2.67496,0l0,20.71444l-2.67496,0l0,-20.71444l-10.69982,0l0,20.71444l-2.67496,0l0,-20.71444l-2.67496,0l0,20.71444l-2.67496,0l0,-20.71444l-10.69982,0l0,20.71444l-2.67496,0l0,-20.71444l-2.67496,0l0,20.71444l-2.67496,0l0,-20.71444l-10.69982,0l0,20.71444l-2.67496,0l0,-20.71444l-2.67496,0l0,20.71444l-2.67496,0l0,-20.71444l-10.69982,0l0,-2.58931l160.49734,0zm-147.12256,-25.89305l0,20.71444l2.67496,0l0,-20.71444l2.67496,0l0,20.71444l10.69982,0l0,-20.71444l2.67496,0l0,20.71444l2.67496,0l0,-20.71444l2.67496,0l0,20.71444l10.69982,0l0,-20.71444l2.67496,0l0,20.71444l2.67496,0l0,-20.71444l2.67496,0l0,20.71444l10.69982,0l0,-20.71444l2.67496,0l0,20.71444l2.67496,0l0,-20.71444l2.67496,0l0,20.71444l10.69982,0l0,-20.71444l2.67496,0l0,20.71444l2.67496,0l0,-20.71444l2.67496,0l0,20.71444l10.69982,0l0,-20.71444l2.67496,0l0,20.71444l2.67496,0l0,-20.71444l2.67496,0l0,20.71444l10.69982,0l0,-20.71444l2.67496,0l0,20.71444l2.67496,0l0,-20.71444l2.67496,0l0,20.71444l10.69982,0l0,-20.71444l2.67496,0l0,20.71444l2.67496,0l0,-20.71444l2.67496,0l0,20.71444l10.69982,0l0,2.58931l-160.49734,0l0,-2.58931l10.69982,0l0,-20.71444l2.67496,0z" stroke-width="5" stroke-miterlimit="10" stroke-dasharray=""></path></g></svg>