<svg data-v-9833e8b2="" version="1.1" xmlns="http://www.w3.org/2000/svg" xmlns:xlink="http://www.w3.org/1999/xlink" width="12" height="25"><g data-v-9833e8b2=""><path data-v-9833e8b2="" transform="scale(0.13089005235602094)" fill="none" stroke="currentColor" paint-order="fill stroke markers" d="m3.7,51.7l64,0l0,53.4l-64,0l0,-53.4l0,0z" stroke-width="5" stroke-miterlimit="10" stroke-dasharray=""></path><path data-v-9833e8b2="" transform="scale(0.13089005235602094)" fill="none" stroke="currentColor" paint-order="fill stroke markers" d="m1,105l69.4,0l0,85.4l-69.4,0l0,-85.4l0,0z" stroke-width="5" stroke-miterlimit="10" stroke-dasharray=""></path><path data-v-9833e8b2="" transform="scale(0.13089005235602094)" fill="none" stroke="currentColor" paint-order="fill stroke markers" d="m1,118.4l69.4,0l0,21.3l-69.4,0l0,-21.3l0,0z" stroke-width="5" stroke-miterlimit="10" stroke-dasharray=""></path><path data-v-9833e8b2="" transform="scale(0.13089005235602094)" fill="none" stroke="currentColor" paint-order="fill stroke markers" d="m1,30.3l69.4,0l0,21.3l-69.4,0l0,-21.3l0,0z" stroke-width="5" stroke-miterlimit="10" stroke-dasharray=""></path><path data-v-9833e8b2="" transform="scale(0.13089005235602094)" fill="none" stroke="currentColor" paint-order="fill stroke markers" d="m17,51.7l5.3,0l0,53.4l-5.3,0l0,-53.4l0,0z" stroke-width="5" stroke-miterlimit="10" stroke-dasharray=""></path><path data-v-9833e8b2="" transform="scale(0.13089005235602094)" fill="none" stroke="currentColor" paint-order="fill stroke markers" d="m33,51.7l5.3,0l0,53.4l-5.3,0l0,-53.4l0,0z" stroke-width="5" stroke-miterlimit="10" stroke-dasharray=""></path><path data-v-9833e8b2="" transform="scale(0.13089005235602094)" fill="none" stroke="currentColor" paint-order="fill stroke markers" d="m49,51.7l5.3,0l0,53.4l-5.3,0l0,-53.4l0,0z" stroke-width="5" stroke-miterlimit="10" stroke-dasharray=""></path><path data-v-9833e8b2="" transform="scale(0.13089005235602094)" fill="none" stroke="currentColor" paint-order="fill stroke markers" d="m65.1,1l0,8l0,8l0,13.3l-58.8,0l0,-21.3l24,0l0,-8l34.8,0z" stroke-width="5" stroke-miterlimit="10" stroke-dasharray=""></path><path data-v-9833e8b2="" transform="scale(0.13089005235602094)" fill="none" stroke="currentColor" paint-order="fill stroke markers" d="m35.7,153.1c13.3,0 24,4.8 24,10.7c0,5.9 -10.8,10.7 -24,10.7c-13.3,0 -24,-4.8 -24,-10.7c0,-5.9 10.7,-10.7 24,-10.7l0,0z" stroke-width="5" stroke-miterlimit="10" stroke-dasharray=""></path></g></svg>