<svg data-v-9833e8b2="" version="1.1" xmlns="http://www.w3.org/2000/svg" xmlns:xlink="http://www.w3.org/1999/xlink" width="25" height="25"><g data-v-9833e8b2=""><path data-v-9833e8b2="" transform="scale(0.13440860215053763)" fill="none" stroke="currentColor" paint-order="fill stroke markers" d="m41.1,117.4l72.3,0l40.2,64.3l-152.6,0l40.1,-64.3l0,0z" stroke-width="5" stroke-miterlimit="10" stroke-dasharray=""></path><path data-v-9833e8b2="" transform="scale(0.13440860215053763)" fill="none" stroke="currentColor" paint-order="fill stroke markers" d="m185.7,65.2l-33.1,0c0.6,3.9 1,7.9 1,12.1c0,42.2 -34.2,76.3 -76.3,76.3c-42.2,0 -76.3,-34.2 -76.3,-76.3c0,-40.8 32,-74.1 72.3,-76.2l0,-0.1l112.5,0l0,64.2l-0.1,0z" stroke-width="5" stroke-miterlimit="10" stroke-dasharray=""></path><path data-v-9833e8b2="" transform="scale(0.13440860215053763)" fill="none" stroke="currentColor" paint-order="fill stroke markers" d="m77.3,21c31.1,0 56.2,25.2 56.2,56.2c0,31.1 -25.2,56.2 -56.2,56.2c-31.1,0 -56.2,-25.2 -56.2,-56.2c0,-31 25.1,-56.2 56.2,-56.2l0,0z" stroke-width="5" stroke-miterlimit="10" stroke-dasharray=""></path></g></svg>