<svg data-v-9833e8b2="" version="1.1" xmlns="http://www.w3.org/2000/svg" xmlns:xlink="http://www.w3.org/1999/xlink" width="25" height="22.5"><g data-v-9833e8b2=""><path data-v-9833e8b2="" transform="scale(0.13089005235602094)" fill="none" stroke="currentColor" paint-order="fill stroke markers" d="m30.9,115.5l14.9,0l0,29.9l-14.9,0l0,-29.9l0,0z" stroke-width="5" stroke-miterlimit="10" stroke-dasharray=""></path><path data-v-9833e8b2="" transform="scale(0.13089005235602094)" fill="none" stroke="currentColor" paint-order="fill stroke markers" d="m145.4,115.5l14.9,0l0,29.9l-14.9,0l0,-29.9l0,0z" stroke-width="5" stroke-miterlimit="10" stroke-dasharray=""></path><path data-v-9833e8b2="" transform="scale(0.13089005235602094)" fill="none" stroke="currentColor" paint-order="fill stroke markers" d="m65.7,165.3l59.7,0l0,14.9l-59.7,0l0,-14.9l0,0z" stroke-width="5" stroke-miterlimit="10" stroke-dasharray=""></path><path data-v-9833e8b2="" transform="scale(0.13089005235602094)" fill="none" stroke="currentColor" paint-order="fill stroke markers" d="m80.7,60.7l29.9,0l0,34.9l-29.9,0l0,-34.9l0,0z" stroke-width="5" stroke-miterlimit="10" stroke-dasharray=""></path><path data-v-9833e8b2="" transform="scale(0.13089005235602094)" fill="none" stroke="currentColor" paint-order="fill stroke markers" d="m70.7,40.8l49.8,0l0,19.9l-49.8,0l0,-19.9l0,0z" stroke-width="5" stroke-miterlimit="10" stroke-dasharray=""></path><path data-v-9833e8b2="" transform="scale(0.13089005235602094)" fill="none" stroke="currentColor" paint-order="fill stroke markers" d="m95.6,1c37.1,0 67.2,10 67.2,22.4c0,12.4 -30.1,22.4 -67.2,22.4c-37.1,0 -67.2,-10 -67.2,-22.4c0,-12.4 30.1,-22.4 67.2,-22.4l0,0z" stroke-width="5" stroke-miterlimit="10" stroke-dasharray=""></path><path data-v-9833e8b2="" transform="scale(0.13089005235602094)" fill="none" stroke="currentColor" paint-order="fill stroke markers" d="m23.4,15.9l144.3,0l0,14.9l-144.3,0l0,-14.9l0,0z" stroke-width="5" stroke-miterlimit="10" stroke-dasharray=""></path><path data-v-9833e8b2="" transform="scale(0.13089005235602094)" fill="none" stroke="currentColor" paint-order="fill stroke markers" d="m1,93.1l29.9,0l0,74.7l-29.9,0l0,-74.7l0,0z" stroke-width="5" stroke-miterlimit="10" stroke-dasharray=""></path><path data-v-9833e8b2="" transform="scale(0.13089005235602094)" fill="none" stroke="currentColor" paint-order="fill stroke markers" d="m160.3,93.1l29.9,0l0,74.7l-29.9,0l0,-74.7l0,0z" stroke-width="5" stroke-miterlimit="10" stroke-dasharray=""></path><path data-v-9833e8b2="" transform="scale(0.13089005235602094)" fill="none" stroke="currentColor" paint-order="fill stroke markers" d="m45.8,115.5l20,-19.9l59.7,0l19.9,19.9l0,29.8l-19.9,20l-59.8,0l-19.9,-19.9l0,-29.9l0,0z" stroke-width="5" stroke-miterlimit="10" stroke-dasharray=""></path></g></svg>