<svg data-v-9833e8b2="" version="1.1" xmlns="http://www.w3.org/2000/svg" xmlns:xlink="http://www.w3.org/1999/xlink" width="25" height="17.5"><g data-v-9833e8b2=""><path data-v-9833e8b2="" transform="scale(0.13157894736842105)" fill="none" stroke="currentColor" paint-order="fill stroke markers" d="m167.8,86.5l21.4,0l0,51.3l-21.4,0l0,-51.3l0,0z" stroke-width="5" stroke-miterlimit="10" stroke-dasharray=""></path><path data-v-9833e8b2="" transform="scale(0.13157894736842105)" fill="none" stroke="currentColor" paint-order="fill stroke markers" d="m22.4,99.3l19.3,0l0,25.7l-19.3,0l0,-25.7l0,0z" stroke-width="5" stroke-miterlimit="10" stroke-dasharray=""></path><path data-v-9833e8b2="" transform="scale(0.13157894736842105)" fill="none" stroke="currentColor" paint-order="fill stroke markers" d="m148.6,99.3l19.3,0l0,25.7l-19.3,0l0,-25.7l0,0z" stroke-width="5" stroke-miterlimit="10" stroke-dasharray=""></path><path data-v-9833e8b2="" transform="scale(0.13157894736842105)" fill="none" stroke="currentColor" paint-order="fill stroke markers" d="m63,26.6l12.8,0l0,59.9l-12.8,0l0,-59.9l0,0z" stroke-width="5" stroke-miterlimit="10" stroke-dasharray=""></path><path data-v-9833e8b2="" transform="scale(0.13157894736842105)" fill="none" stroke="currentColor" paint-order="fill stroke markers" d="m88.7,26.6l12.8,0l0,59.9l-12.8,0l0,-59.9l0,0z" stroke-width="5" stroke-miterlimit="10" stroke-dasharray=""></path><path data-v-9833e8b2="" transform="scale(0.13157894736842105)" fill="none" stroke="currentColor" paint-order="fill stroke markers" d="m114.3,26.6l12.8,0l0,59.9l-12.8,0l0,-59.9l0,0z" stroke-width="5" stroke-miterlimit="10" stroke-dasharray=""></path><path data-v-9833e8b2="" transform="scale(0.13157894736842105)" fill="none" stroke="currentColor" paint-order="fill stroke markers" d="m63,48l68.4,0c4.7,0 8.6,3.8 8.6,8.6l0,8.6c0,4.7 -3.8,8.6 -8.6,8.6l-68.4,0c-4.7,0 -8.6,-3.8 -8.6,-8.6l0,-8.6c0.1,-4.8 3.9,-8.6 8.6,-8.6l0,0z" stroke-width="5" stroke-miterlimit="10" stroke-dasharray=""></path><path data-v-9833e8b2="" transform="scale(0.13157894736842105)" fill="none" stroke="currentColor" paint-order="fill stroke markers" d="m41.6,1l111.2,0c4.7,0 8.6,3.8 8.6,8.6l0,8.6c0,4.7 -3.8,8.6 -8.6,8.6l-111.2,0c-4.7,0 -8.6,-3.8 -8.6,-8.6l0,-8.6c0.1,-4.8 3.9,-8.6 8.6,-8.6l0,0z" stroke-width="5" stroke-miterlimit="10" stroke-dasharray=""></path><path data-v-9833e8b2="" transform="scale(0.13157894736842105)" fill="none" stroke="currentColor" paint-order="fill stroke markers" d="m1,86.5l21.4,0l0,51.3l-21.4,0l0,-51.3l0,0z" stroke-width="5" stroke-miterlimit="10" stroke-dasharray=""></path><path data-v-9833e8b2="" transform="scale(0.13157894736842105)" fill="none" stroke="currentColor" paint-order="fill stroke markers" d="m41.6,86.5l106.9,0l0,51.3l-106.9,0l0,-51.3l0,0z" stroke-width="5" stroke-miterlimit="10" stroke-dasharray=""></path></g></svg>