<svg data-v-9833e8b2="" version="1.1" xmlns="http://www.w3.org/2000/svg" xmlns:xlink="http://www.w3.org/1999/xlink" width="17" height="25"><g data-v-9833e8b2=""><path data-v-9833e8b2="" transform="scale(0.13297872340425532)" fill="none" stroke="currentColor" paint-order="fill stroke markers" d="m1.1,118.3l109.7,0l-46.3,68.9l-17.2,0l-46.2,-68.9l0,0z" stroke-width="5" stroke-miterlimit="10" stroke-dasharray=""></path><path data-v-9833e8b2="" transform="scale(0.13297872340425532)" fill="none" stroke="currentColor" paint-order="fill stroke markers" d="m110.8,18.2l0,100.1l-0.8,0c-4.4,3.1 -26.9,5.4 -54.1,5.4s-49.7,-2.3 -54.1,-5.4l-0.8,0l0,-100.1c0,-3.4 1.6,-6.5 4.2,-8.5c4.5,-5 25.5,-8.7 50.7,-8.7c25.2,0 46.2,3.8 50.7,8.7c2.6,2 4.2,5.1 4.2,8.5z" stroke-width="5" stroke-miterlimit="10" stroke-dasharray=""></path></g></svg>