<svg data-v-9833e8b2="" version="1.1" xmlns="http://www.w3.org/2000/svg" xmlns:xlink="http://www.w3.org/1999/xlink" width="19.5" height="25"><g data-v-9833e8b2=""><path data-v-9833e8b2="" transform="scale(0.13089005235602094)" fill="none" stroke="currentColor" paint-order="fill stroke markers" d="m1,39.5l140.2,0l0,151.2l-140.2,0l0,-151.2l0,0z" stroke-width="5" stroke-miterlimit="10" stroke-dasharray=""></path><path data-v-9833e8b2="" transform="scale(0.13089005235602094)" fill="none" stroke="currentColor" paint-order="fill stroke markers" d="m13.8,63l2.3,-1.5c0,0 6.2,9.6 15.2,9.6c4.4,0 6.9,-2.6 9.5,-5.2c2.8,-2.8 5.8,-5.8 11.1,-5.8c5.3,0 7.4,2.8 9.6,5.6c2.1,2.7 4.2,5.4 9.1,5.4c5.1,0 8.3,-2.9 11.3,-5.8c2.9,-2.7 5.6,-5.2 9.9,-5.2c4.4,0 7.8,2.8 11.1,5.6c3.2,2.7 6.5,5.4 10.6,5.4c8.4,0 12.4,-9.6 12.4,-9.6l2.5,1.1c-0.2,0.5 -4.8,11.3 -15,11.3c-5.2,0 -9,-3.2 -12.4,-6.1c-3,-2.5 -5.9,-4.9 -9.3,-4.9c-3,0 -5,1.7 -8,4.5c-3.1,2.9 -7,6.5 -13.2,6.5c-6.3,0 -9.1,-3.6 -11.3,-6.5c-2,-2.6 -3.5,-4.5 -7.4,-4.5c-4.2,0 -6.5,2.3 -9.2,5c-2.8,2.8 -6,6 -11.5,6c-10.2,0 -17,-10.4 -17.3,-10.9l0,0" stroke-width="5" stroke-miterlimit="10" stroke-dasharray=""></path><path data-v-9833e8b2="" transform="scale(0.13089005235602094)" fill="none" stroke="currentColor" paint-order="fill stroke markers" d="m13.8,79.5l2.3,-1.5c0,0 6.2,9.6 15.2,9.6c4.4,0 6.9,-2.6 9.5,-5.2c2.8,-2.8 5.8,-5.8 11.1,-5.8c5.3,0 7.4,2.8 9.6,5.6c2.1,2.7 4.2,5.4 9.1,5.4c5.1,0 8.3,-2.9 11.3,-5.8c2.9,-2.7 5.6,-5.2 9.9,-5.2c4.4,0 7.8,2.8 11.1,5.6c3.2,2.7 6.5,5.4 10.6,5.4c8.6,0.1 12.6,-9.6 12.6,-9.6l2.5,1.1c-0.2,0.5 -4.8,11.3 -15,11.3c-5.2,0 -9,-3.2 -12.4,-6.1c-3,-2.5 -5.9,-4.9 -9.3,-4.9c-3,0 -5,1.7 -8,4.5c-3.1,2.9 -7,6.5 -13.2,6.5c-6.3,0 -9.1,-3.6 -11.3,-6.5c-2,-2.6 -3.5,-4.5 -7.4,-4.5c-4.2,0 -6.5,2.3 -9.2,5c-2.8,2.8 -6,6 -11.5,6c-10.4,0 -17.2,-10.4 -17.5,-10.9l0,0" stroke-width="5" stroke-miterlimit="10" stroke-dasharray=""></path><path data-v-9833e8b2="" transform="scale(0.13089005235602094)" fill="none" stroke="currentColor" paint-order="fill stroke markers" d="m13.8,96l2.3,-1.5c0,0 6.2,9.6 15.2,9.6c4.4,0 6.9,-2.6 9.5,-5.2c2.8,-2.8 5.8,-5.8 11.1,-5.8c5.3,0 7.4,2.8 9.6,5.6c2.1,2.7 4.2,5.4 9.1,5.4c5.1,0 8.3,-2.9 11.3,-5.8c2.9,-2.7 5.6,-5.2 9.9,-5.2c4.4,0 7.8,2.8 11.1,5.6c3.2,2.7 6.5,5.4 10.6,5.4c8.4,0 12.4,-9.6 12.4,-9.6l2.5,1.1c-0.2,0.5 -4.8,11.3 -15,11.3c-5.2,0 -9,-3.2 -12.4,-6.1c-3,-2.5 -5.9,-4.9 -9.3,-4.9c-3,0 -5,1.7 -8,4.5c-3.1,2.9 -7,6.5 -13.2,6.5c-6.3,0 -9.1,-3.6 -11.3,-6.5c-2,-2.6 -3.5,-4.5 -7.4,-4.5c-4.2,0 -6.5,2.3 -9.2,5c-2.8,2.8 -6,6 -11.5,6c-10.2,0 -17,-10.4 -17.3,-10.9l0,0" stroke-width="5" stroke-miterlimit="10" stroke-dasharray=""></path><path data-v-9833e8b2="" transform="scale(0.13089005235602094)" fill="none" stroke="currentColor" paint-order="fill stroke markers" d="m34,137.1l74.2,0l0,53.6l-74.2,0l0,-53.6l0,0z" stroke-width="5" stroke-miterlimit="10" stroke-dasharray=""></path><path data-v-9833e8b2="" transform="scale(0.13089005235602094)" fill="none" stroke="currentColor" paint-order="fill stroke markers" d="m21.6,17.5c2.3,0 4.1,1.8 4.1,4.1l0,11c0,2.3 -1.8,4.1 -4.1,4.1c-2.3,0 -4.1,-1.8 -4.1,-4.1l0,-11c0,-2.2 1.8,-4.1 4.1,-4.1l0,0z" stroke-width="5" stroke-miterlimit="10" stroke-dasharray=""></path><path data-v-9833e8b2="" transform="scale(0.13089005235602094)" fill="none" stroke="currentColor" paint-order="fill stroke markers" d="m38.1,12c2.3,0 4.1,1.8 4.1,4.1l0,16.5c0,2.3 -1.8,4.1 -4.1,4.1c-2.3,0 -4.1,-1.8 -4.1,-4.1l0,-16.4c0,-2.3 1.8,-4.2 4.1,-4.2l0,0z" stroke-width="5" stroke-miterlimit="10" stroke-dasharray=""></path><path data-v-9833e8b2="" transform="scale(0.13089005235602094)" fill="none" stroke="currentColor" paint-order="fill stroke markers" d="m54.6,6.5c2.3,0 4.1,1.8 4.1,4.1l0,22c0,2.3 -1.8,4.1 -4.1,4.1c-2.3,0 -4.1,-1.8 -4.1,-4.1l0,-22c0,-2.2 1.8,-4.1 4.1,-4.1l0,0z" stroke-width="5" stroke-miterlimit="10" stroke-dasharray=""></path><path data-v-9833e8b2="" transform="scale(0.13089005235602094)" fill="none" stroke="currentColor" paint-order="fill stroke markers" d="m71.1,1c2.3,0 4.1,1.8 4.1,4.1l0,27.5c0,2.3 -1.8,4.1 -4.1,4.1c-2.3,0 -4.1,-1.8 -4.1,-4.1l0,-27.4c0,-2.3 1.8,-4.2 4.1,-4.2l0,0z" stroke-width="5" stroke-miterlimit="10" stroke-dasharray=""></path><path data-v-9833e8b2="" transform="scale(0.13089005235602094)" fill="none" stroke="currentColor" paint-order="fill stroke markers" d="m87.6,6.5c2.3,0 4.1,1.8 4.1,4.1l0,22c0,2.3 -1.8,4.1 -4.1,4.1c-2.3,0 -4.1,-1.8 -4.1,-4.1l0,-22c0,-2.2 1.8,-4.1 4.1,-4.1l0,0z" stroke-width="5" stroke-miterlimit="10" stroke-dasharray=""></path><path data-v-9833e8b2="" transform="scale(0.13089005235602094)" fill="none" stroke="currentColor" paint-order="fill stroke markers" d="m104.1,12c2.3,0 4.1,1.8 4.1,4.1l0,16.5c0,2.3 -1.8,4.1 -4.1,4.1c-2.3,0 -4.1,-1.8 -4.1,-4.1l0,-16.4c0,-2.3 1.8,-4.2 4.1,-4.2l0,0z" stroke-width="5" stroke-miterlimit="10" stroke-dasharray=""></path><path data-v-9833e8b2="" transform="scale(0.13089005235602094)" fill="none" stroke="currentColor" paint-order="fill stroke markers" d="m120.6,17.5c2.3,0 4.1,1.8 4.1,4.1l0,11c0,2.3 -1.8,4.1 -4.1,4.1c-2.3,0 -4.1,-1.8 -4.1,-4.1l0,-11c0,-2.2 1.8,-4.1 4.1,-4.1l0,0z" stroke-width="5" stroke-miterlimit="10" stroke-dasharray=""></path></g></svg>