<svg data-v-9833e8b2="" version="1.1" xmlns="http://www.w3.org/2000/svg" xmlns:xlink="http://www.w3.org/1999/xlink" width="25" height="12.5"><g data-v-9833e8b2=""><path data-v-9833e8b2="" transform="scale(0.13966480446927373)" fill="none" stroke="currentColor" paint-order="fill stroke markers" d="m1,36.7l177.4,0l0,49.8l-177.4,0l0,-49.8l0,0z" stroke-width="5" stroke-miterlimit="10" stroke-dasharray=""></path><path data-v-9833e8b2="" transform="scale(0.13966480446927373)" fill="none" stroke="currentColor" paint-order="fill stroke markers" d="m178.4,45.4l-0.9,0l-13.1,13.1l-12.4,-12.4l-12.4,12.4l-12.4,-12.4l-12.4,12.4l-12.4,-12.4l-12.7,12.4l-12.4,-12.4l-12.4,12.4l-12.5,-12.4l-12.4,12.4l-12.5,-12.4l-12.4,12.4l-13.2,-13.1l-0.9,0l0,-13.3c0,-17.2 13.9,-31.1 31.1,-31.1l115.1,0c17.2,0 31.1,13.9 31.1,31.1l0,12.4l0,0l0,0l0,0.9l0.1,0z" stroke-width="5" stroke-miterlimit="10" stroke-dasharray=""></path></g></svg>