<svg data-v-9833e8b2="" version="1.1" xmlns="http://www.w3.org/2000/svg" xmlns:xlink="http://www.w3.org/1999/xlink" width="22" height="25"><g data-v-9833e8b2=""><path data-v-9833e8b2="" transform="scale(0.02617801047120419)" fill="none" stroke="currentColor" paint-order="fill stroke markers" d="m671.98947,1l-609.01052,0c-32.33685,0 -61.97895,26.94737 -61.97895,59.28421l0,762.61053c0,32.33684 26.94737,59.28421 61.97895,59.28421l134.73684,0l0,53.89473c0,10.77895 8.08421,18.86316 18.86316,18.86316s18.86316,-8.08421 18.86316,-18.86316l0,-56.58947l113.17894,0l0,56.58947c0,10.77895 8.08421,18.86316 18.86316,18.86316s18.86316,-8.08421 18.86316,-18.86316l0,-56.58947l113.17894,0l0,56.58947c0,10.77895 8.08422,18.86316 18.86316,18.86316s18.86316,-8.08421 18.86316,-18.86316l0,-56.58947l134.73684,0c32.33685,0 61.97895,-26.94737 61.97895,-59.28421l0,-759.91579c-2.69474,-32.33684 -29.6421,-59.28421 -61.97895,-59.28421zm21.5579,821.89474c0,10.77894 -10.77895,21.55789 -24.25263,21.55789l-606.31579,0c-13.47369,0 -24.25264,-8.08421 -24.25264,-21.55789l0,-762.61053c0,-10.77895 10.77895,-21.5579 24.25264,-21.5579l606.31579,0c13.47368,0 24.25263,8.08422 24.25263,21.5579l0,762.61053z" stroke-width="5" stroke-miterlimit="10" stroke-dasharray=""></path><path data-v-9833e8b2="" transform="scale(0.02617801047120419)" fill="none" stroke="currentColor" paint-order="fill stroke markers" d="m588.45263,89.92631l-441.93684,0c-32.33684,0 -61.97895,26.94737 -61.97895,59.28421l0,584.7579c0,32.33684 26.94737,59.28421 61.97895,59.28421l439.2421,0c32.33685,0 61.97895,-26.94737 61.97895,-59.28421l0,-587.45263c0,-32.33684 -26.94737,-56.58948 -59.28421,-56.58947l0,-0.00001zm21.5579,641.34737c0,10.77895 -10.77895,21.5579 -24.25264,21.5579l-439.2421,0c-13.47368,0 -24.25263,-8.08421 -24.25263,-21.5579l0,-584.75789c2.69473,-10.77895 13.47368,-18.86316 24.25263,-18.86316l439.2421,0c13.47369,0 24.25264,8.08421 24.25264,18.86316l0,584.75789z" stroke-width="5" stroke-miterlimit="10" stroke-dasharray=""></path><path data-v-9833e8b2="" transform="scale(0.02617801047120419)" fill="none" stroke="currentColor" paint-order="fill stroke markers" d="m432.15789,566.89474l0,-2.69474s0,-2.69474 -2.69473,-2.69474c0,0 0,-2.69474 -2.69474,-2.69474l-2.69474,-2.69473l-2.69473,-2.69474l-2.69474,0l-59.28421,0l40.42105,-64.67368c5.38948,-8.08421 2.69474,-21.5579 -5.38947,-26.94737c-8.08421,-5.38948 -21.5579,-2.69474 -26.94737,5.38947l-61.97895,91.62105l0,16.16843s0,2.69473 2.69474,2.69473c0,0 0,2.69474 2.69474,2.69474l2.69473,2.69474l2.69474,2.69473c2.69474,2.69474 5.38947,2.69474 8.08421,2.69474l59.28421,0l-37.72632,67.36842c-5.38947,8.08421 -2.69473,21.5579 8.08422,26.94737c2.69473,2.69474 5.38947,2.69474 8.08421,2.69474c5.38947,0 13.47368,-2.69474 16.16842,-10.77895l53.89473,-94.31579l0,-2.69474l0,-2.69473l0,-8.08421c0,2.69473 0,0 0,0zm86.23158,-385.34737l-301.81052,0c-24.25263,0 -40.42106,18.86315 -40.42106,40.42105l0,99.70526c0,24.25263 18.86316,40.42106 40.42106,40.42106l299.11579,0c24.25263,0 40.42105,-18.86316 40.42105,-40.42106l0,-97.01052c2.69474,-24.25264 -16.16842,-43.11579 -37.72632,-43.11579zm2.69474,142.82105c0,2.69474 -2.69474,2.69474 -2.69474,2.69474l-301.81052,0c-2.69474,0 -2.69474,-2.69474 -2.69474,-2.69474l0,-99.70526c0,-2.69474 2.69474,-2.69474 2.69474,-2.69474l299.11579,0c2.69473,0 2.69473,2.69474 2.69473,2.69474l0,99.70526l2.69474,0z" stroke-width="5" stroke-miterlimit="10" stroke-dasharray=""></path></g></svg>