<svg data-v-9833e8b2="" version="1.1" xmlns="http://www.w3.org/2000/svg" xmlns:xlink="http://www.w3.org/1999/xlink" width="25" height="22.5"><g data-v-9833e8b2=""><path data-v-9833e8b2="" transform="scale(0.1282051282051282)" fill="none" stroke="currentColor" paint-order="fill stroke markers" d="m161.4,99.9l0,51.1l-126.9,0l0,-99.2l-6.9,-28l63.4,-22.8l70.4,98.9z" stroke-width="5" stroke-miterlimit="10" stroke-dasharray=""></path><path data-v-9833e8b2="" transform="scale(0.1282051282051282)" fill="none" stroke="currentColor" paint-order="fill stroke markers" d="m47.2,64.5l46.1,0l0,86.5l-46.1,0l0,-86.5l0,0z" stroke-width="5" stroke-miterlimit="10" stroke-dasharray=""></path><path data-v-9833e8b2="" transform="scale(0.1282051282051282)" fill="none" stroke="currentColor" paint-order="fill stroke markers" d="m70.2,41.4c12.7,0 23.1,10.3 23.1,23.1c0,12.7 -10.3,23.1 -23.1,23.1c-12.7,0 -23.1,-10.3 -23.1,-23.1c0.1,-12.8 10.4,-23.1 23.1,-23.1l0,0z" stroke-width="5" stroke-miterlimit="10" stroke-dasharray=""></path><path data-v-9833e8b2="" transform="scale(0.1282051282051282)" fill="none" stroke="currentColor" paint-order="fill stroke markers" d="m70.2,56.4c4.5,0 8.1,3.6 8.1,8.1c0,4.5 -3.6,8.1 -8.1,8.1c-4.5,0 -8.1,-3.6 -8.1,-8.1c0.1,-4.5 3.7,-8.1 8.1,-8.1l0,0z" stroke-width="5" stroke-miterlimit="10" stroke-dasharray=""></path><path data-v-9833e8b2="" transform="scale(0.1282051282051282)" fill="none" stroke="currentColor" paint-order="fill stroke markers" d="m70.2,47.2c1.9,0 3.5,1.5 3.5,3.5c0,1.9 -1.5,3.5 -3.5,3.5c-1.9,0 -3.5,-1.5 -3.5,-3.5c0.1,-2 1.6,-3.5 3.5,-3.5l0,0z" stroke-width="5" stroke-miterlimit="10" stroke-dasharray=""></path><path data-v-9833e8b2="" transform="scale(0.1282051282051282)" fill="none" stroke="currentColor" paint-order="fill stroke markers" d="m84.1,62.2c1.9,0 3.5,1.5 3.5,3.5s-1.5,3.5 -3.5,3.5c-1.9,0 -3.5,-1.5 -3.5,-3.5s1.6,-3.5 3.5,-3.5l0,0z" stroke-width="5" stroke-miterlimit="10" stroke-dasharray=""></path><path data-v-9833e8b2="" transform="scale(0.1282051282051282)" fill="none" stroke="currentColor" paint-order="fill stroke markers" d="m70.2,74.8c1.9,0 3.5,1.5 3.5,3.5c0,1.9 -1.5,3.5 -3.5,3.5c-1.9,0 -3.5,-1.5 -3.5,-3.5c0.1,-1.9 1.6,-3.5 3.5,-3.5l0,0z" stroke-width="5" stroke-miterlimit="10" stroke-dasharray=""></path><path data-v-9833e8b2="" transform="scale(0.1282051282051282)" fill="none" stroke="currentColor" paint-order="fill stroke markers" d="m56.4,61c1.9,0 3.5,1.5 3.5,3.5c0,1.9 -1.5,3.5 -3.5,3.5c-1.9,0 -3.5,-1.5 -3.5,-3.5c0,-1.9 1.6,-3.5 3.5,-3.5l0,0z" stroke-width="5" stroke-miterlimit="10" stroke-dasharray=""></path><path data-v-9833e8b2="" transform="scale(0.1282051282051282)" fill="none" stroke="currentColor" paint-order="fill stroke markers" d="m102.5,116.4l46.1,0l0,34.6l-46.1,0l0,-34.6l0,0z" stroke-width="5" stroke-miterlimit="10" stroke-dasharray=""></path><path data-v-9833e8b2="" transform="scale(0.1282051282051282)" fill="none" stroke="currentColor" paint-order="fill stroke markers" d="m125.6,93.3c12.7,0 23.1,10.3 23.1,23.1c0,12.7 -10.3,23.1 -23.1,23.1c-12.7,0 -23.1,-10.3 -23.1,-23.1c0,-12.8 10.4,-23.1 23.1,-23.1l0,0z" stroke-width="5" stroke-miterlimit="10" stroke-dasharray=""></path><path data-v-9833e8b2="" transform="scale(0.1282051282051282)" fill="none" stroke="currentColor" paint-order="fill stroke markers" d="m125.6,108.3c4.5,0 8.1,3.6 8.1,8.1c0,4.5 -3.6,8.1 -8.1,8.1c-4.5,0 -8.1,-3.6 -8.1,-8.1c0,-4.5 3.6,-8.1 8.1,-8.1l0,0z" stroke-width="5" stroke-miterlimit="10" stroke-dasharray=""></path><path data-v-9833e8b2="" transform="scale(0.1282051282051282)" fill="none" stroke="currentColor" paint-order="fill stroke markers" d="m125.6,99.1c1.9,0 3.5,1.5 3.5,3.5c0,1.9 -1.5,3.5 -3.5,3.5c-1.9,0 -3.5,-1.5 -3.5,-3.5c0,-2 1.6,-3.5 3.5,-3.5l0,0z" stroke-width="5" stroke-miterlimit="10" stroke-dasharray=""></path><path data-v-9833e8b2="" transform="scale(0.1282051282051282)" fill="none" stroke="currentColor" paint-order="fill stroke markers" d="m139.5,114.1c1.9,0 3.5,1.5 3.5,3.5c0,1.9 -1.5,3.5 -3.5,3.5c-1.9,0 -3.5,-1.5 -3.5,-3.5c0,-2 1.5,-3.5 3.5,-3.5l0,0z" stroke-width="5" stroke-miterlimit="10" stroke-dasharray=""></path><path data-v-9833e8b2="" transform="scale(0.1282051282051282)" fill="none" stroke="currentColor" paint-order="fill stroke markers" d="m125.6,126.8c1.9,0 3.5,1.5 3.5,3.5s-1.5,3.5 -3.5,3.5c-1.9,0 -3.5,-1.5 -3.5,-3.5s1.6,-3.5 3.5,-3.5l0,0z" stroke-width="5" stroke-miterlimit="10" stroke-dasharray=""></path><path data-v-9833e8b2="" transform="scale(0.1282051282051282)" fill="none" stroke="currentColor" paint-order="fill stroke markers" d="m111.8,112.9c1.9,0 3.5,1.5 3.5,3.5c0,1.9 -1.5,3.5 -3.5,3.5c-1.9,0 -3.5,-1.5 -3.5,-3.5c0,-1.9 1.6,-3.5 3.5,-3.5l0,0z" stroke-width="5" stroke-miterlimit="10" stroke-dasharray=""></path><path data-v-9833e8b2="" transform="scale(0.1282051282051282)" fill="none" stroke="currentColor" paint-order="fill stroke markers" d="m194.8,155.6l0,11.5l-193.8,0l0,-11.5l21.9,0l0,-4.6l150,0l0,4.6l21.9,0z" stroke-width="5" stroke-miterlimit="10" stroke-dasharray=""></path></g></svg>