<svg data-v-9833e8b2="" version="1.1" xmlns="http://www.w3.org/2000/svg" xmlns:xlink="http://www.w3.org/1999/xlink" width="25" height="7.5"><g data-v-9833e8b2=""><path data-v-9833e8b2="" transform="scale(0.03551136363636364)" fill="none" stroke="currentColor" paint-order="fill stroke markers" d="m818.91447,360.15636c3.40006,-9.3416 -1.4165,-19.67076 -10.75811,-23.07083c-9.3416,-3.40006 -19.67076,1.4165 -23.07083,10.75811c-3.40006,9.3416 1.4165,19.67076 10.75811,23.07083c9.3416,3.40006 19.67076,-1.4165 23.07083,-10.75811z" stroke-width="5" stroke-miterlimit="10" stroke-dasharray=""></path><path data-v-9833e8b2="" transform="scale(0.03551136363636364)" fill="none" stroke="currentColor" paint-order="fill stroke markers" d="m922.91447,360.15636c3.40006,-9.3416 -1.4165,-19.67076 -10.75811,-23.07083c-9.3416,-3.40006 -19.67076,1.4165 -23.07083,10.75811c-3.40006,9.3416 1.4165,19.67076 10.75811,23.07083c9.3416,3.40006 19.67076,-1.4165 23.07083,-10.75811z" stroke-width="5" stroke-miterlimit="10" stroke-dasharray=""></path><path data-v-9833e8b2="" transform="scale(0.03551136363636364)" fill="none" stroke="currentColor" paint-order="fill stroke markers" d="m870.91447,360.15636c3.40006,-9.3416 -1.4165,-19.67076 -10.75811,-23.07083c-9.3416,-3.40006 -19.67076,1.4165 -23.07083,10.75811c-3.40006,9.3416 1.4165,19.67076 10.75811,23.07083c9.3416,3.40006 19.67076,-1.4165 23.07083,-10.75811z" stroke-width="5" stroke-miterlimit="10" stroke-dasharray=""></path><path data-v-9833e8b2="" transform="scale(0.03551136363636364)" fill="none" stroke="currentColor" paint-order="fill stroke markers" d="m974.91447,360.15636c3.40006,-9.3416 -1.4165,-19.67076 -10.75811,-23.07083c-9.3416,-3.40006 -19.67076,1.4165 -23.07083,10.75811c-3.40006,9.3416 1.4165,19.67076 10.75811,23.07083c9.3416,3.40006 19.67076,-1.4165 23.07083,-10.75811z" stroke-width="5" stroke-miterlimit="10" stroke-dasharray=""></path><path data-v-9833e8b2="" transform="scale(0.03551136363636364)" fill="none" stroke="currentColor" paint-order="fill stroke markers" d="m156,198l68,68l156,0l30,30l344,0l18,18l6,6l2.96386,2.96386l6.07571,-6.07571l6.0757,6.07571l6.07571,-6.07571l6.07571,6.07571l6.07571,-6.07571l6.07571,6.07571l6.07571,-6.07571l6.07571,6.07571l6.07571,-6.07571l6.07571,6.07571l6.0757,-6.07571l6.07571,6.07571l6.07571,-6.07571l6.07571,6.07571l6.07571,-6.07571l6.07571,6.07571l6.07571,-6.07571l6.07571,6.07571l6.07571,-6.07571l6.07571,6.07571l6.07571,-6.07571l6.0757,6.07571l6.07571,-6.07571l6.07571,6.07571l6.07571,-6.07571l6.07571,6.07571l6.07571,-6.07571l6.07571,6.07571l6.07571,-6.07571l6.07571,6.07571l6.07571,-6.07571l6.0757,6.07571l6.07571,-6.07571" stroke-width="5" stroke-miterlimit="10" stroke-dasharray=""></path><path data-v-9833e8b2="" transform="scale(0.03551136363636364)" fill="none" stroke="currentColor" paint-order="fill stroke markers" d="m239.25456,1l0,84.20101l154.58183,0l0,-5.92965l36.87273,0l0,5.92965l56.72728,0l0,-5.92965l36.87273,0l0,5.92965l22.69091,0l0,35.57789l22.69091,0l0,-5.92965l36.87273,0l0,5.92965l96.43637,0l0,116.22111l-156.00001,0l0,-21.34673l-407.0182,0l0,-11.8593l-28.36364,-23.62415l0,-113.94369l-110.61819,0l0,-46.25126l110.61819,0l0,-18.97487z" stroke-width="5" stroke-miterlimit="10" stroke-dasharray=""></path><path data-v-9833e8b2="" transform="scale(0.03551136363636364)" fill="none" stroke="currentColor" paint-order="fill stroke markers" d="m111.61819,37.17085l170.18183,0l0,11.8593l-170.18183,0l0,-11.8593z" stroke-width="5" stroke-miterlimit="10" stroke-dasharray=""></path><path data-v-9833e8b2="" transform="scale(0.03551136363636364)" fill="none" stroke="currentColor" paint-order="fill stroke markers" d="m46.38182,12.8593l24.10909,0l0,60.48241l-24.10909,0z" stroke-width="5" stroke-miterlimit="10" stroke-dasharray=""></path><path data-v-9833e8b2="" transform="scale(0.03551136363636364)" fill="none" stroke="currentColor" paint-order="fill stroke markers" d="m87.50909,12.8593l24.10909,0l0,60.48241l-24.10909,0z" stroke-width="5" stroke-miterlimit="10" stroke-dasharray=""></path><path data-v-9833e8b2="" transform="scale(0.03551136363636364)" fill="none" stroke="currentColor" paint-order="fill stroke markers" d="m111.61819,105.36181l53.89091,45.06533l112.03637,0l21.27273,17.78894l242.5091,0l17.01818,14.23116l144.65455,0l0,54.55276l-156.00001,0l0,-21.34673l-407.0182,0l0,-11.8593l-28.36364,-23.71859z" stroke-width="5" stroke-miterlimit="10" stroke-dasharray=""></path><path data-v-9833e8b2="" transform="scale(0.03551136363636364)" fill="none" stroke="currentColor" paint-order="fill stroke markers" d="m111.61819,129.0804l46.8,39.13568l112.03637,0l21.27273,17.78894l242.5091,0l12.76364,10.67337l0,18.97487" stroke-width="5" stroke-miterlimit="10" stroke-dasharray=""></path><path data-v-9833e8b2="" transform="scale(0.03551136363636364)" fill="none" stroke="currentColor" paint-order="fill stroke markers" d="m570.40003,221.58292l0,1.18593l-1.41818,0l0,-1.18593l1.41818,0zm-10.23575,-3.54544l1.00281,0.83858l-2.00561,1.67716l-1.00281,-0.83858l2.00561,-1.67715zm19.05332,0l2.00561,1.67715l-1.00281,0.83858l-2.00561,-1.67716l1.00281,-0.83858zm-7.52104,-8.80508c1.10766,0.92627 1.10766,2.42805 0,3.35432c-1.10767,0.92626 -2.90356,0.92626 -4.01123,0c-1.10766,-0.92627 -1.10766,-2.42805 0,-3.35432c1.10767,-0.92626 2.90356,-0.92626 4.01123,0zm-14.76925,1.08419l0,1.18593l-1.41818,0l0,-1.18593l1.41818,0zm26.94546,0l0,1.18593l-1.41818,0l0,-1.18593l1.41818,0zm-3.65236,-9.0507l1.00281,0.83858l-2.00561,1.67715l-1.00281,-0.83858l2.00561,-1.67716zm-21.05892,0l2.00561,1.67716l-1.00281,0.83858l-2.00561,-1.67715l1.00281,-0.83858zm11.23855,-2.21564l0,1.18593l-1.41818,0l0,-1.18593l1.41818,0z" stroke-width="5" stroke-miterlimit="10" stroke-dasharray=""></path><path data-v-9833e8b2="" transform="scale(0.03551136363636364)" fill="none" stroke="currentColor" paint-order="fill stroke markers" d="m644.14548,221.58292l0,1.18593l-1.41818,0l0,-1.18593l1.41818,0zm-10.23575,-3.54544l1.00281,0.83858l-2.00561,1.67716l-1.00281,-0.83858l2.00561,-1.67715zm19.05332,0l2.00561,1.67715l-1.00281,0.83858l-2.00561,-1.67716l1.00281,-0.83858zm-11.53227,-8.80508c1.10767,-0.92626 2.90356,-0.92626 4.01123,0c1.10766,0.92627 1.10766,2.42805 0,3.35432c-1.10767,0.92626 -2.90356,0.92626 -4.01123,0c-1.10766,-0.92627 -1.10766,-2.42805 0,-3.35432zm-10.75802,1.08419l0,1.18593l-1.41818,0l0,-1.18593l1.41818,0zm26.94546,0l0,1.18593l-1.41818,0l0,-1.18593l1.41818,0zm-3.65236,-9.0507l1.00281,0.83858l-2.00561,1.67715l-1.00281,-0.83858l2.00561,-1.67716zm-21.05892,0l2.00561,1.67716l-1.00281,0.83858l-2.00561,-1.67715l1.00281,-0.83858zm11.23855,-2.21564l0,1.18593l-1.41818,0l0,-1.18593l1.41818,0z" stroke-width="5" stroke-miterlimit="10" stroke-dasharray=""></path><path data-v-9833e8b2="" transform="scale(0.03551136363636364)" fill="none" stroke="currentColor" paint-order="fill stroke markers" d="m607.27276,221.58292l0,1.18593l-1.41818,0l0,-1.18593l1.41818,0zm-10.23575,-3.54544l1.00281,0.83858l-2.00561,1.67716l-1.00281,-0.83858l2.00561,-1.67715zm19.05332,0l2.00561,1.67715l-1.00281,0.83858l-2.00561,-1.67716l1.00281,-0.83858zm-11.53227,-8.80508c1.10767,-0.92626 2.90356,-0.92626 4.01123,0c1.10766,0.92627 1.10766,2.42805 0,3.35432c-1.10767,0.92626 -2.90356,0.92626 -4.01123,0c-1.10766,-0.92627 -1.10766,-2.42805 0,-3.35432zm-10.75802,1.08419l0,1.18593l-1.41818,0l0,-1.18593l1.41818,0zm26.94546,0l0,1.18593l-1.41818,0l0,-1.18593l1.41818,0zm-3.65236,-9.0507l1.00281,0.83858l-2.00561,1.67715l-1.00281,-0.83858l2.00561,-1.67716zm-21.05892,0l2.00561,1.67716l-1.00281,0.83858l-2.00561,-1.67715l1.00281,-0.83858zm11.23855,-2.21564l0,1.18593l-1.41818,0l0,-1.18593l1.41818,0z" stroke-width="5" stroke-miterlimit="10" stroke-dasharray=""></path><path data-v-9833e8b2="" transform="scale(0.03551136363636364)" fill="none" stroke="currentColor" paint-order="fill stroke markers" d="m681.01821,221.58292l0,1.18593l-1.41818,0l0,-1.18593l1.41818,0zm-10.23575,-3.54544l1.00281,0.83858l-2.00561,1.67716l-1.00281,-0.83858l2.00561,-1.67715zm19.05332,0l2.00561,1.67715l-1.00281,0.83858l-2.00561,-1.67716l1.00281,-0.83858zm-11.53227,-8.80508c1.10767,-0.92626 2.90356,-0.92626 4.01123,0c1.10766,0.92627 1.10766,2.42805 0,3.35432c-1.10767,0.92626 -2.90356,0.92626 -4.01123,0c-1.10766,-0.92627 -1.10766,-2.42805 0,-3.35432zm-10.75802,1.08419l0,1.18593l-1.41818,0l0,-1.18593l1.41818,0zm26.94546,0l0,1.18593l-1.41818,0l0,-1.18593l1.41818,0zm-3.65236,-9.0507l1.00281,0.83858l-2.00561,1.67715l-1.00281,-0.83858l2.00561,-1.67716zm-21.05892,0l2.00561,1.67716l-1.00281,0.83858l-2.00561,-1.67715l1.00281,-0.83858zm11.23855,-2.21564l0,1.18593l-1.41818,0l0,-1.18593l1.41818,0z" stroke-width="5" stroke-miterlimit="10" stroke-dasharray=""></path></g></svg>