<svg data-v-9833e8b2="" version="1.1" xmlns="http://www.w3.org/2000/svg" xmlns:xlink="http://www.w3.org/1999/xlink" width="25" height="7.5"><g data-v-9833e8b2=""><path data-v-9833e8b2="" transform="scale(0.04208754208754209)" fill="none" stroke="currentColor" paint-order="fill stroke markers" d="m201.92121,1l0,72.78392l130.35959,0l0,-5.12563l31.09495,0l0,5.12563l47.83838,0l0,-5.12563l31.09495,0l0,5.12563l19.13535,0l0,30.75377l19.13535,0l0,-5.12563l31.09495,0l0,5.12563l81.32525,0l0,100.46231l-131.55555,0l0,-18.45226l-343.2404,0l0,-10.25126l-23.91919,-20.4l0,-98.51457l-93.28485,0l0,-39.9799l93.28485,0l0,-16.40201l107.63636,0z" stroke-width="5" stroke-miterlimit="10" stroke-dasharray=""></path><path data-v-9833e8b2="" transform="scale(0.04208754208754209)" fill="none" stroke="currentColor" paint-order="fill stroke markers" d="m94.28485,32.26633l143.51515,0l0,10.25126l-143.51515,0l0,-10.25126zm-55.01414,-21.01508l20.33131,0l0,52.28141l-20.33131,0l0,-52.28141zm34.68283,0l20.33131,0l0,52.28141l-20.33131,0l0,-52.28141z" stroke-width="5" stroke-miterlimit="10" stroke-dasharray=""></path><path data-v-9833e8b2="" transform="scale(0.04208754208754209)" fill="none" stroke="currentColor" paint-order="fill stroke markers" d="m94.28485,91.21105l45.44646,38.95477l94.48081,0l17.93939,15.37688l204.50909,0l14.35151,12.30151l121.98788,0l0,47.15578l-131.55555,0l0,-18.45226l-343.2404,0l0,-10.25126l-23.91919,-20.50251l0,-44.0804l0,-20.50251z" stroke-width="5" stroke-miterlimit="10" stroke-dasharray=""></path><path data-v-9833e8b2="" transform="scale(0.04208754208754209)" fill="none" stroke="currentColor" paint-order="fill stroke markers" d="m94.28485,111.71357l39.46667,33.82915l94.48081,0l17.93939,15.37688l204.50909,0l10.76364,9.22613l0,16.40201" stroke-width="5" stroke-miterlimit="10" stroke-dasharray=""></path><path data-v-9833e8b2="" transform="scale(0.04208754208754209)" fill="none" stroke="currentColor" paint-order="fill stroke markers" d="m94.28485,102.48744l40.66263,34.85427l95.67677,0l17.93939,15.37688l203.31313,0l10.76364,9.22613l3.58788,3.07538l1.79394,1.53769l3.64768,-3.12663l3.64768,3.12663l3.64768,-3.12663l3.64768,3.12663l3.64768,-3.12663l3.64768,3.12663l3.64768,-3.12663l3.64768,3.12663l3.64768,-3.12663l3.64768,3.12663l3.64768,-3.12663l3.64768,3.12663l3.64768,-3.12663l3.64768,3.12663l3.64768,-3.12663l3.64768,3.12663l3.64768,-3.12663l3.64768,3.12663l3.64768,-3.12663l3.64768,3.12663l3.64768,-3.12663l3.64768,3.12663l3.64768,-3.12663l3.64768,3.12663l3.64768,-3.12663l3.64768,3.12663l3.64768,-3.12663l3.64768,3.12663l3.64768,-3.12663l3.64768,3.12663l3.64768,-3.12663l3.64768,3.12663l3.64768,-3.12663" stroke-width="5" stroke-miterlimit="10" stroke-dasharray=""></path><path data-v-9833e8b2="" transform="scale(0.04208754208754209)" fill="none" stroke="currentColor" paint-order="fill stroke markers" d="m490.80524,185.62512c2.03313,-4.76683 -0.83717,-10.09749 -6.45818,-11.8402c-5.56121,-1.74271 -11.7802,0.71759 -13.81333,5.53568c-2.03313,4.76683 0.83717,10.09749 6.45818,11.8402c5.62101,1.69146 11.7802,-0.76884 13.81333,-5.53568zm30.97535,0c2.03313,-4.76683 -0.83717,-10.09749 -6.45818,-11.8402c-5.56121,-1.74271 -11.7802,0.71759 -13.81333,5.53568c-2.03313,4.76683 0.83717,10.09749 6.45818,11.8402c5.62101,1.69146 11.7802,-0.76884 13.81333,-5.53568zm30.97535,0c2.03313,-4.76683 -0.83717,-10.09749 -6.45818,-11.8402c-5.56121,-1.74271 -11.7802,0.71759 -13.81333,5.53568c-2.03313,4.76683 0.83717,10.09749 6.45818,11.8402c5.62101,1.69146 11.7802,-0.76884 13.81333,-5.53568zm30.97535,0c2.03313,-4.76683 -0.83717,-10.09749 -6.45818,-11.8402c-5.56121,-1.74271 -11.7802,0.71759 -13.81333,5.53568c-2.03313,4.76683 0.83717,10.09749 6.45818,11.8402c5.62101,1.69146 11.7802,-0.76884 13.81333,-5.53568z" stroke-width="5" stroke-miterlimit="10" stroke-dasharray=""></path><path data-v-9833e8b2="" transform="scale(0.04208754208754209)" fill="none" stroke="currentColor" paint-order="fill stroke markers" d="m491.46302,181.93467c-0.1196,-2.10151 -1.13616,-4.1005 -2.75071,-5.63819l1.67434,-1.43518l-0.83717,-0.71759l-1.67434,1.43518c-1.01657,-0.76884 -2.15273,-1.38392 -3.46828,-1.79397c-1.01657,-0.30754 -2.03313,-0.51256 -3.10949,-0.56382l0,-1.02513l-1.19596,0l0,1.02513c-2.45172,0.10251 -4.78384,0.97387 -6.57778,2.35779l-1.67434,-1.43518l-0.83717,0.71759l1.67434,1.43518c-0.89697,0.87136 -1.61455,1.84523 -2.09293,2.97286c-0.35879,0.87136 -0.59798,1.74271 -0.65778,2.66533l-1.19596,0l0,1.02513l1.19596,0c0.1196,2.10151 1.13616,4.1005 2.75071,5.63819l-1.67434,1.43518l0.83717,0.71759l1.67434,-1.43518c1.01657,0.76884 2.15273,1.38392 3.46828,1.79397c1.01657,0.30754 2.03313,0.51256 3.10949,0.56382l0,1.02513l1.19596,0l0,-1.02513c2.45172,-0.10251 4.78384,-0.97387 6.57778,-2.35779l1.67434,1.43518l0.83717,-0.71759l-1.67434,-1.43518c0.89697,-0.87136 1.61455,-1.84523 2.09293,-2.97286c0.35879,-0.87136 0.59798,-1.74271 0.65778,-2.66533l1.19596,0l0,-1.02513l-1.19596,0zm-1.73414,3.33166c-1.79394,4.25427 -7.29535,6.45829 -12.25859,4.9206s-7.53455,-6.25327 -5.74061,-10.50754s7.29535,-6.45829 12.25859,-4.9206s7.53455,6.25327 5.74061,10.50754zm-7.35515,-4.25427c0.95677,0.8201 0.95677,2.10151 0,2.92161s-2.45172,0.8201 -3.40848,0c-0.95677,-0.8201 -0.95677,-2.10151 0,-2.92161c1.01657,-0.8201 2.51152,-0.8201 3.40848,0zm40.06465,0.92261c-0.1196,-2.10151 -1.13616,-4.1005 -2.75071,-5.63819l1.67434,-1.43518l-0.83717,-0.71759l-1.67434,1.43518c-1.01657,-0.76884 -2.15273,-1.38392 -3.46828,-1.79397c-1.01657,-0.30754 -2.03313,-0.51256 -3.10949,-0.56382l0,-1.02513l-1.19596,0l0,1.02513c-2.45172,0.10251 -4.78384,0.97387 -6.57778,2.35779l-1.67434,-1.43518l-0.83717,0.71759l1.67434,1.43518c-0.89697,0.87136 -1.61455,1.84523 -2.09293,2.97286c-0.35879,0.87136 -0.59798,1.74271 -0.65778,2.66533l-1.19596,0l0,1.02513l1.19596,0c0.1196,2.10151 1.13616,4.1005 2.75071,5.63819l-1.67434,1.43518l0.83717,0.71759l1.67434,-1.43518c1.01657,0.76884 2.15273,1.38392 3.46828,1.79397c1.01657,0.30754 2.03313,0.51256 3.10949,0.56382l0,1.02513l1.19596,0l0,-1.02513c2.45172,-0.10251 4.78384,-0.97387 6.57778,-2.35779l1.67434,1.43518l0.83717,-0.71759l-1.67434,-1.43518c0.89697,-0.87136 1.61455,-1.84523 2.09293,-2.97286c0.35879,-0.87136 0.59798,-1.74271 0.65778,-2.66533l1.19596,0l0,-1.02513l-1.19596,0zm-1.79394,3.33166c-1.79394,4.25427 -7.29535,6.45829 -12.25859,4.9206s-7.53455,-6.25327 -5.74061,-10.50754s7.29535,-6.45829 12.25859,-4.9206c5.02303,1.53769 7.59434,6.25327 5.74061,10.50754zm-7.29535,-4.25427c0.95677,0.8201 0.95677,2.10151 0,2.92161s-2.45172,0.8201 -3.40848,0c-0.95677,-0.8201 -0.95677,-2.10151 0,-2.92161c0.95677,-0.8201 2.51152,-0.8201 3.40848,0zm40.06465,0.92261c-0.1196,-2.10151 -1.13616,-4.1005 -2.75071,-5.63819l1.67434,-1.43518l-0.83717,-0.71759l-1.67434,1.43518c-1.01657,-0.76884 -2.15273,-1.38392 -3.46828,-1.79397c-1.01657,-0.30754 -2.03313,-0.51256 -3.10949,-0.56382l0,-1.02513l-1.19596,0l0,1.02513c-2.45172,0.10251 -4.78384,0.97387 -6.57778,2.35779l-1.67434,-1.43518l-0.83717,0.71759l1.67434,1.43518c-0.89697,0.87136 -1.61455,1.84523 -2.09293,2.97286c-0.35879,0.87136 -0.59798,1.74271 -0.65778,2.66533l-1.19596,0l0,1.02513l1.19596,0c0.1196,2.10151 1.13616,4.1005 2.75071,5.63819l-1.67434,1.43518l0.83717,0.71759l1.67434,-1.43518c1.01657,0.76884 2.15273,1.38392 3.46828,1.79397c1.01657,0.30754 2.03313,0.51256 3.10949,0.56382l0,1.02513l1.19596,0l0,-1.02513c2.45172,-0.10251 4.78384,-0.97387 6.57778,-2.35779l1.67434,1.43518l0.83717,-0.71759l-1.67434,-1.43518c0.89697,-0.87136 1.61455,-1.84523 2.09293,-2.97286c0.35879,-0.87136 0.59798,-1.74271 0.65778,-2.66533l1.19596,0l0,-1.02513l-1.19596,0zm-1.79394,3.33166c-1.79394,4.25427 -7.29535,6.45829 -12.25859,4.9206s-7.53455,-6.25327 -5.74061,-10.50754s7.29535,-6.45829 12.25859,-4.9206c5.02303,1.53769 7.53455,6.25327 5.74061,10.50754zm-7.29535,-4.25427c0.95677,0.8201 0.95677,2.10151 0,2.92161s-2.45172,0.8201 -3.40848,0c-0.95677,-0.8201 -0.95677,-2.10151 0,-2.92161c0.95677,-0.8201 2.45172,-0.8201 3.40848,0zm40.00485,0.92261c-0.1196,-2.10151 -1.13616,-4.1005 -2.75071,-5.63819l1.67434,-1.43518l-0.83717,-0.71759l-1.67434,1.43518c-1.01657,-0.76884 -2.15273,-1.38392 -3.46828,-1.79397c-1.01657,-0.30754 -2.03313,-0.51256 -3.10949,-0.56382l0,-1.02513l-1.19596,0l0,1.02513c-2.45172,0.10251 -4.78384,0.97387 -6.57778,2.35779l-1.67434,-1.43518l-0.83717,0.71759l1.67434,1.43518c-0.89697,0.87136 -1.61455,1.84523 -2.09293,2.97286c-0.35879,0.87136 -0.59798,1.74271 -0.65778,2.66533l-1.19596,0l0,1.02513l1.19596,0c0.1196,2.10151 1.13616,4.1005 2.75071,5.63819l-1.67434,1.43518l0.83717,0.71759l1.67434,-1.43518c1.01657,0.76884 2.15273,1.38392 3.46828,1.79397c1.01657,0.30754 2.03313,0.51256 3.10949,0.56382l0,1.02513l1.19596,0l0,-1.02513c2.45172,-0.10251 4.78384,-0.97387 6.57778,-2.35779l1.67434,1.43518l0.83717,-0.71759l-1.61455,-1.43518c0.89697,-0.87136 1.61455,-1.84523 2.09293,-2.97286c0.35879,-0.87136 0.59798,-1.74271 0.65778,-2.66533l1.19596,0l0,-1.02513l-1.25576,0zm-1.73414,3.33166c-1.79394,4.25427 -7.29535,6.45829 -12.25859,4.9206s-7.53455,-6.25327 -5.74061,-10.50754s7.29535,-6.45829 12.25859,-4.9206s7.53455,6.25327 5.74061,10.50754zm-7.29535,-4.25427c0.95677,0.8201 0.95677,2.10151 0,2.92161s-2.45172,0.8201 -3.40848,0c-0.95677,-0.8201 -0.95677,-2.10151 0,-2.92161s2.45172,-0.8201 3.40848,0z" stroke-width="5" stroke-miterlimit="10" stroke-dasharray=""></path></g></svg>