<svg data-v-9833e8b2="" version="1.1" xmlns="http://www.w3.org/2000/svg" xmlns:xlink="http://www.w3.org/1999/xlink" width="25" height="7.5"><g data-v-9833e8b2=""><path data-v-9833e8b2="" transform="scale(0.03536067892503536)" fill="none" stroke="currentColor" paint-order="fill stroke markers" d="m240.27273,1l0,81.34674l155.24243,0l0,-5.72864l37.0303,0l0,5.72864l56.9697,0l0,-5.72864l37.0303,0l0,5.72864l22.78788,0l0,34.37186l22.78788,0l0,-5.72864l37.0303,0l0,5.72864l96.84849,0l0,112.28141l-156.66667,0l0,-20.62312l-408.75758,0l0,-11.45729l-28.48485,-22.8l0,-110.10453l-111.09091,0l0,-44.68342l111.09091,0l0,-18.33166l128.18182,0z" stroke-width="5" stroke-miterlimit="10" stroke-dasharray=""></path><path data-v-9833e8b2="" transform="scale(0.03536067892503536)" fill="none" stroke="currentColor" paint-order="fill stroke markers" d="m112.09091,35.94473l170.90909,0l0,11.45729l-170.90909,0l0,-11.45729z" stroke-width="5" stroke-miterlimit="10" stroke-dasharray=""></path><path data-v-9833e8b2="" transform="scale(0.03536067892503536)" fill="none" stroke="currentColor" paint-order="fill stroke markers" d="m46.57576,12.45729l24.21212,0l0,58.43216l-24.21212,0l0,-58.43216z" stroke-width="5" stroke-miterlimit="10" stroke-dasharray=""></path><path data-v-9833e8b2="" transform="scale(0.03536067892503536)" fill="none" stroke="currentColor" paint-order="fill stroke markers" d="m87.87879,12.45729l24.21212,0l0,58.43216l-24.21212,0l0,-58.43216z" stroke-width="5" stroke-miterlimit="10" stroke-dasharray=""></path><path data-v-9833e8b2="" transform="scale(0.03536067892503536)" fill="none" stroke="currentColor" paint-order="fill stroke markers" d="m112.09091,101.82413l54.12121,43.53769l112.51515,0l21.36364,17.18593l243.54546,0l17.09091,13.74874l145.27273,0l0,52.70352l-156.66667,0l0,-20.62312l-408.75758,0l0,-11.45729l-28.48485,-22.91457l0,-49.26633l0,-22.91457z" stroke-width="5" stroke-miterlimit="10" stroke-dasharray=""></path><path data-v-9833e8b2="" transform="scale(0.03536067892503536)" fill="none" stroke="currentColor" paint-order="fill stroke markers" d="m112.09091,124.7387l47,37.80905l112.51515,0l21.36364,17.18593l243.54546,0l12.81818,10.31156l0,18.33166" stroke-width="5" stroke-miterlimit="10" stroke-dasharray=""></path><path data-v-9833e8b2="" transform="scale(0.03536067892503536)" fill="none" stroke="currentColor" paint-order="fill stroke markers" d="m112.09091,114.42714l48.42424,38.95478l113.9394,0l21.36364,17.18593l242.12121,0l12.81818,10.31156l4.27273,3.43719l2.13636,1.71859l4.34394,-3.49447l4.34394,3.49447l4.34394,-3.49447l4.34394,3.49447l4.34394,-3.49447l4.34394,3.49447l4.34394,-3.49447l4.34394,3.49447l4.34394,-3.49447l4.34394,3.49447l4.34394,-3.49447l4.34394,3.49447l4.34394,-3.49447l4.34394,3.49447l4.34394,-3.49447l4.34394,3.49447l4.34394,-3.49447l4.34394,3.49447l4.34394,-3.49447l4.34394,3.49447l4.34394,-3.49447l4.34394,3.49447l4.34394,-3.49447l4.34394,3.49447l4.34394,-3.49447l4.34394,3.49447l4.34394,-3.49447l4.34394,3.49447l4.34394,-3.49447l4.34394,3.49447l4.34394,-3.49447l4.34394,3.49447l4.34394,-3.49447" stroke-width="5" stroke-miterlimit="10" stroke-dasharray=""></path><path data-v-9833e8b2="" transform="scale(0.03536067892503536)" fill="none" stroke="currentColor" paint-order="fill stroke markers" d="m584.29849,207.34574c2.42121,-5.32764 -0.99697,-11.28543 -7.69091,-13.23317c-6.62273,-1.94774 -14.02879,0.80201 -16.45,6.18694c-2.42121,5.32764 0.99697,11.28543 7.69091,13.23317c6.69394,1.89045 14.02879,-0.8593 16.45,-6.18694z" stroke-width="5" stroke-miterlimit="10" stroke-dasharray=""></path><path data-v-9833e8b2="" transform="scale(0.03536067892503536)" fill="none" stroke="currentColor" paint-order="fill stroke markers" d="m585.08182,203.22112c-0.14242,-2.34874 -1.35303,-4.58291 -3.27576,-6.30151l1.99394,-1.60402l-0.99697,-0.80201l-1.99394,1.60402c-1.21061,-0.8593 -2.56364,-1.54673 -4.1303,-2.00503c-1.21061,-0.34372 -2.42121,-0.57286 -3.70303,-0.63015l0,-1.14573l-1.42424,0l0,1.14573c-2.9197,0.11457 -5.69697,1.08844 -7.83333,2.63518l-1.99394,-1.60402l-0.99697,0.80201l1.99394,1.60402c-1.06818,0.97387 -1.92273,2.06231 -2.49242,3.32261c-0.42727,0.97387 -0.71212,1.94774 -0.78333,2.97889l-1.42424,0l0,1.14573l1.42424,0c0.14242,2.34874 1.35303,4.58291 3.27576,6.30151l-1.99394,1.60402l0.99697,0.80201l1.99394,-1.60402c1.21061,0.8593 2.56364,1.54673 4.1303,2.00503c1.21061,0.34372 2.42121,0.57286 3.70303,0.63015l0,1.14573l1.42424,0l0,-1.14573c2.9197,-0.11457 5.69697,-1.08844 7.83333,-2.63518l1.99394,1.60402l0.99697,-0.80201l-1.99394,-1.60402c1.06818,-0.97387 1.92273,-2.06231 2.49242,-3.32261c0.42727,-0.97387 0.71212,-1.94774 0.78333,-2.97889l1.42424,0l0,-1.14573l-1.42424,0zm-2.06515,3.72362c-2.13636,4.75477 -8.68788,7.21809 -14.59848,5.4995c-5.91061,-1.71859 -8.97273,-6.98895 -6.83636,-11.74372c2.13636,-4.75477 8.68788,-7.21809 14.59848,-5.4995c5.91061,1.71859 8.97273,6.98895 6.83636,11.74372zm-8.75909,-4.75477c1.13939,0.91658 1.13939,2.34874 0,3.26533c-1.13939,0.91658 -2.9197,0.91658 -4.05909,0c-1.13939,-0.91658 -1.13939,-2.34874 0,-3.26533c1.21061,-0.91658 2.99091,-0.91658 4.05909,0z" stroke-width="5" stroke-miterlimit="10" stroke-dasharray=""></path><path data-v-9833e8b2="" transform="scale(0.03536067892503536)" fill="none" stroke="currentColor" paint-order="fill stroke markers" d="m621.18637,207.34574c2.42121,-5.32764 -0.99697,-11.28543 -7.69091,-13.23317c-6.62273,-1.94774 -14.02879,0.80201 -16.45,6.18694c-2.42121,5.32764 0.99697,11.28543 7.69091,13.23317c6.69394,1.89045 14.02879,-0.8593 16.45,-6.18694z" stroke-width="5" stroke-miterlimit="10" stroke-dasharray=""></path><path data-v-9833e8b2="" transform="scale(0.03536067892503536)" fill="none" stroke="currentColor" paint-order="fill stroke markers" d="m621.9697,203.22112c-0.14242,-2.34874 -1.35303,-4.58291 -3.27576,-6.30151l1.99394,-1.60402l-0.99697,-0.80201l-1.99394,1.60402c-1.21061,-0.8593 -2.56364,-1.54673 -4.1303,-2.00503c-1.21061,-0.34372 -2.42121,-0.57286 -3.70303,-0.63015l0,-1.14573l-1.42424,0l0,1.14573c-2.9197,0.11457 -5.69697,1.08844 -7.83333,2.63518l-1.99394,-1.60402l-0.99697,0.80201l1.99394,1.60402c-1.06818,0.97387 -1.92273,2.06231 -2.49242,3.32261c-0.42727,0.97387 -0.71212,1.94774 -0.78333,2.97889l-1.42424,0l0,1.14573l1.42424,0c0.14242,2.34874 1.35303,4.58291 3.27576,6.30151l-1.99394,1.60402l0.99697,0.80201l1.99394,-1.60402c1.21061,0.8593 2.56364,1.54673 4.1303,2.00503c1.21061,0.34372 2.42121,0.57286 3.70303,0.63015l0,1.14573l1.42424,0l0,-1.14573c2.9197,-0.11457 5.69697,-1.08844 7.83333,-2.63518l1.99394,1.60402l0.99697,-0.80201l-1.99394,-1.60402c1.06818,-0.97387 1.92273,-2.06231 2.49242,-3.32261c0.42727,-0.97387 0.71212,-1.94774 0.78333,-2.97889l1.42424,0l0,-1.14573l-1.42424,0zm-2.13636,3.72362c-2.13636,4.75477 -8.68788,7.21809 -14.59848,5.4995c-5.91061,-1.71859 -8.97273,-6.98895 -6.83636,-11.74372c2.13636,-4.75477 8.68788,-7.21809 14.59848,-5.4995c5.98182,1.71859 9.04394,6.98895 6.83636,11.74372zm-8.68788,-4.75477c1.13939,0.91658 1.13939,2.34874 0,3.26533c-1.13939,0.91658 -2.9197,0.91658 -4.05909,0c-1.13939,-0.91658 -1.13939,-2.34874 0,-3.26533c1.13939,-0.91658 2.99091,-0.91658 4.05909,0z" stroke-width="5" stroke-miterlimit="10" stroke-dasharray=""></path><path data-v-9833e8b2="" transform="scale(0.03536067892503536)" fill="none" stroke="currentColor" paint-order="fill stroke markers" d="m658.07425,207.34574c2.42121,-5.32764 -0.99697,-11.28543 -7.69091,-13.23317c-6.62273,-1.94774 -14.02879,0.80201 -16.45,6.18694c-2.42121,5.32764 0.99697,11.28543 7.69091,13.23317c6.69394,1.89045 14.02879,-0.8593 16.45,-6.18694z" stroke-width="5" stroke-miterlimit="10" stroke-dasharray=""></path><path data-v-9833e8b2="" transform="scale(0.03536067892503536)" fill="none" stroke="currentColor" paint-order="fill stroke markers" d="m658.85758,203.22112c-0.14242,-2.34874 -1.35303,-4.58291 -3.27576,-6.30151l1.99394,-1.60402l-0.99697,-0.80201l-1.99394,1.60402c-1.21061,-0.8593 -2.56364,-1.54673 -4.1303,-2.00503c-1.21061,-0.34372 -2.42121,-0.57286 -3.70303,-0.63015l0,-1.14573l-1.42424,0l0,1.14573c-2.9197,0.11457 -5.69697,1.08844 -7.83333,2.63518l-1.99394,-1.60402l-0.99697,0.80201l1.99394,1.60402c-1.06818,0.97387 -1.92273,2.06231 -2.49242,3.32261c-0.42727,0.97387 -0.71212,1.94774 -0.78333,2.97889l-1.42424,0l0,1.14573l1.42424,0c0.14242,2.34874 1.35303,4.58291 3.27576,6.30151l-1.99394,1.60402l0.99697,0.80201l1.99394,-1.60402c1.21061,0.8593 2.56364,1.54673 4.1303,2.00503c1.21061,0.34372 2.42121,0.57286 3.70303,0.63015l0,1.14573l1.42424,0l0,-1.14573c2.9197,-0.11457 5.69697,-1.08844 7.83333,-2.63518l1.99394,1.60402l0.99697,-0.80201l-1.99394,-1.60402c1.06818,-0.97387 1.92273,-2.06231 2.49242,-3.32261c0.42727,-0.97387 0.71212,-1.94774 0.78333,-2.97889l1.42424,0l0,-1.14573l-1.42424,0zm-2.13636,3.72362c-2.13636,4.75477 -8.68788,7.21809 -14.59848,5.4995c-5.91061,-1.71859 -8.97273,-6.98895 -6.83636,-11.74372c2.13636,-4.75477 8.68788,-7.21809 14.59848,-5.4995c5.98182,1.71859 8.97273,6.98895 6.83636,11.74372zm-8.68788,-4.75477c1.13939,0.91658 1.13939,2.34874 0,3.26533c-1.13939,0.91658 -2.9197,0.91658 -4.05909,0c-1.13939,-0.91658 -1.13939,-2.34874 0,-3.26533c1.13939,-0.91658 2.9197,-0.91658 4.05909,0z" stroke-width="5" stroke-miterlimit="10" stroke-dasharray=""></path><path data-v-9833e8b2="" transform="scale(0.03536067892503536)" fill="none" stroke="currentColor" paint-order="fill stroke markers" d="m694.96213,207.34574c2.42121,-5.32764 -0.99697,-11.28543 -7.69091,-13.23317c-6.62273,-1.94774 -14.02879,0.80201 -16.45,6.18694c-2.42121,5.32764 0.99697,11.28543 7.69091,13.23317c6.69394,1.89045 14.02879,-0.8593 16.45,-6.18694z" stroke-width="5" stroke-miterlimit="10" stroke-dasharray=""></path><path data-v-9833e8b2="" transform="scale(0.03536067892503536)" fill="none" stroke="currentColor" paint-order="fill stroke markers" d="m695.67425,203.22112c-0.14242,-2.34874 -1.35303,-4.58291 -3.27576,-6.30151l1.99394,-1.60402l-0.99697,-0.80201l-1.99394,1.60402c-1.21061,-0.8593 -2.56364,-1.54673 -4.1303,-2.00503c-1.21061,-0.34372 -2.42121,-0.57286 -3.70303,-0.63015l0,-1.14573l-1.42424,0l0,1.14573c-2.9197,0.11457 -5.69697,1.08844 -7.83333,2.63518l-1.99394,-1.60402l-0.99697,0.80201l1.99394,1.60402c-1.06818,0.97387 -1.92273,2.06231 -2.49242,3.32261c-0.42727,0.97387 -0.71212,1.94774 -0.78333,2.97889l-1.42424,0l0,1.14573l1.42424,0c0.14242,2.34874 1.35303,4.58291 3.27576,6.30151l-1.99394,1.60402l0.99697,0.80201l1.99394,-1.60402c1.21061,0.8593 2.56364,1.54673 4.1303,2.00503c1.21061,0.34372 2.42121,0.57286 3.70303,0.63015l0,1.14573l1.42424,0l0,-1.14573c2.9197,-0.11457 5.69697,-1.08844 7.83333,-2.63518l1.99394,1.60402l0.99697,-0.80201l-1.92273,-1.60402c1.06818,-0.97387 1.92273,-2.06231 2.49242,-3.32261c0.42727,-0.97387 0.71212,-1.94774 0.78333,-2.97889l1.42424,0l0,-1.14573l-1.49545,0zm-2.06515,3.72362c-2.13636,4.75477 -8.68788,7.21809 -14.59848,5.4995c-5.91061,-1.71859 -8.97273,-6.98895 -6.83636,-11.74372c2.13636,-4.75477 8.68788,-7.21809 14.59848,-5.4995c5.91061,1.71859 8.97273,6.98895 6.83636,11.74372zm-8.68788,-4.75477c1.13939,0.91658 1.13939,2.34874 0,3.26533c-1.13939,0.91658 -2.9197,0.91658 -4.05909,0c-1.13939,-0.91658 -1.13939,-2.34874 0,-3.26533c1.13939,-0.91658 2.9197,-0.91658 4.05909,0z" stroke-width="5" stroke-miterlimit="10" stroke-dasharray=""></path></g></svg>