<svg data-v-9833e8b2="" version="1.1" xmlns="http://www.w3.org/2000/svg" xmlns:xlink="http://www.w3.org/1999/xlink" width="25" height="15"><g data-v-9833e8b2=""><path data-v-9833e8b2="" transform="scale(0.13297872340425532)" fill="none" stroke="currentColor" paint-order="fill stroke markers" d="m1,1l186.4,0l0,110.8l-186.4,0l0,-110.8l0,0z" stroke-width="5" stroke-miterlimit="10" stroke-dasharray=""></path><path data-v-9833e8b2="" transform="scale(0.13297872340425532)" fill="none" stroke="currentColor" paint-order="fill stroke markers" d="m94.2,36.3c-29.2,0 -52.9,23.7 -52.9,52.9l-12.6,0c0,-36.2 29.3,-65.5 65.5,-65.5c36.2,0 65.5,29.3 65.5,65.5l-12.6,0c0,-29.3 -23.7,-52.9 -52.9,-52.9l0,0z" stroke-width="5" stroke-miterlimit="10" stroke-dasharray=""></path><path data-v-9833e8b2="" transform="scale(0.13297872340425532)" fill="none" stroke="currentColor" paint-order="fill stroke markers" d="m94.2,46.3c23.6,0 42.8,19.2 42.8,42.8l-12.6,0c0,-16.7 -13.5,-30.2 -30.2,-30.2c-16.7,0 -30.2,13.5 -30.2,30.2l-12.6,0c0,-23.6 19.1,-42.8 42.8,-42.8l0,0z" stroke-width="5" stroke-miterlimit="10" stroke-dasharray=""></path><path data-v-9833e8b2="" transform="scale(0.13297872340425532)" fill="none" stroke="currentColor" paint-order="fill stroke markers" d="m94.2,69c11.1,0 20.1,9 20.1,20.2l-40.3,0c0,-11.2 9.1,-20.2 20.2,-20.2l0,0z" stroke-width="5" stroke-miterlimit="10" stroke-dasharray=""></path></g></svg>