<svg data-v-9833e8b2="" version="1.1" xmlns="http://www.w3.org/2000/svg" xmlns:xlink="http://www.w3.org/1999/xlink" width="14.5" height="25"><g data-v-9833e8b2=""><path data-v-9833e8b2="" transform="scale(0.12755102040816327)" fill="none" stroke="currentColor" paint-order="fill stroke markers" d="m69.9,52.6l19.3,0l0,17.9l-19.3,0l0,-17.9l0,0z" stroke-width="5" stroke-miterlimit="10" stroke-dasharray=""></path><path data-v-9833e8b2="" transform="scale(0.12755102040816327)" fill="none" stroke="currentColor" paint-order="fill stroke markers" d="m91.9,46.4l4.1,0c1.5,0 2.8,1.2 2.8,2.8l0,24.8c0,1.5 -1.2,2.8 -2.8,2.8l-4.1,0c-1.5,0 -2.8,-1.2 -2.8,-2.8l0,-24.9c0,-1.5 1.3,-2.7 2.8,-2.7l0,0z" stroke-width="5" stroke-miterlimit="10" stroke-dasharray=""></path><path data-v-9833e8b2="" transform="scale(0.12755102040816327)" fill="none" stroke="currentColor" paint-order="fill stroke markers" d="m47.1,151.7l42,0l0,17.9l-42,0l0,-17.9l0,0z" stroke-width="5" stroke-miterlimit="10" stroke-dasharray=""></path><path data-v-9833e8b2="" transform="scale(0.12755102040816327)" fill="none" stroke="currentColor" paint-order="fill stroke markers" d="m91.9,145.5l4.1,0c1.5,0 2.8,1.2 2.8,2.8l0,24.7c0,1.5 -1.2,2.8 -2.8,2.8l-4.1,0c-1.5,0 -2.8,-1.2 -2.8,-2.8l0,-24.8c0,-1.5 1.3,-2.7 2.8,-2.7l0,0z" stroke-width="5" stroke-miterlimit="10" stroke-dasharray=""></path><path data-v-9833e8b2="" transform="scale(0.12755102040816327)" fill="none" stroke="currentColor" paint-order="fill stroke markers" d="m26.5,10.6l17.9,0l0,6.9l-17.9,0l0,-6.9l0,0z" stroke-width="5" stroke-miterlimit="10" stroke-dasharray=""></path><path data-v-9833e8b2="" transform="scale(0.12755102040816327)" fill="none" stroke="currentColor" paint-order="fill stroke markers" d="m23.1,1l24.8,0c1.5,0 2.8,1.2 2.8,2.8l0,4.1c0,1.5 -1.2,2.8 -2.8,2.8l-24.8,0c-1.5,0 -2.8,-1.2 -2.8,-2.8l0,-4.2c0,-1.5 1.2,-2.7 2.8,-2.7l0,0z" stroke-width="5" stroke-miterlimit="10" stroke-dasharray=""></path><path data-v-9833e8b2="" transform="scale(0.12755102040816327)" fill="none" stroke="currentColor" paint-order="fill stroke markers" d="m1,33l68.9,0l0,101.2l-68.9,0l0,-101.2l0,0z" stroke-width="5" stroke-miterlimit="10" stroke-dasharray=""></path><path data-v-9833e8b2="" transform="scale(0.12755102040816327)" fill="none" stroke="currentColor" paint-order="fill stroke markers" d="m12,17.5l46.8,0c6.1,0 11,4.9 11,11l0,4.5l-68.8,0l0,-4.5c0,-6.1 5,-11 11,-11l0,0z" stroke-width="5" stroke-miterlimit="10" stroke-dasharray=""></path><path data-v-9833e8b2="" transform="scale(0.12755102040816327)" fill="none" stroke="currentColor" paint-order="fill stroke markers" d="m1,134.2l68.9,0l-25.5,40.2l-17.9,0l-25.5,-40.2z" stroke-width="5" stroke-miterlimit="10" stroke-dasharray=""></path><path data-v-9833e8b2="" transform="scale(0.12755102040816327)" fill="none" stroke="currentColor" paint-order="fill stroke markers" d="m26.5,174.4l17.9,0l0,11l-17.9,0l0,-11l0,0z" stroke-width="5" stroke-miterlimit="10" stroke-dasharray=""></path><path data-v-9833e8b2="" transform="scale(0.12755102040816327)" fill="none" stroke="currentColor" paint-order="fill stroke markers" d="m23.1,185.4l24.8,0c1.5,0 2.8,1.2 2.8,2.8l0,4.1c0,1.5 -1.2,2.8 -2.8,2.8l-24.8,0c-1.5,0 -2.8,-1.2 -2.8,-2.8l0,-4.1c0,-1.6 1.2,-2.8 2.8,-2.8l0,0z" stroke-width="5" stroke-miterlimit="10" stroke-dasharray=""></path></g></svg>