<svg data-v-9833e8b2="" version="1.1" xmlns="http://www.w3.org/2000/svg" xmlns:xlink="http://www.w3.org/1999/xlink" width="9.5" height="25"><g data-v-9833e8b2=""><path data-v-9833e8b2="" transform="scale(0.13297872340425532)" fill="none" stroke="currentColor" paint-order="fill stroke markers" d="m4.3,150.8l3.2,0l0,6.4l-3.2,0l0,-6.4l0,0z" stroke-width="5" stroke-miterlimit="10" stroke-dasharray=""></path><path data-v-9833e8b2="" transform="scale(0.13297872340425532)" fill="none" stroke="currentColor" paint-order="fill stroke markers" d="m2.3,148.5l0.6,0c0.7,0 1.3,0.6 1.3,1.3l0,8.3c0,0.7 -0.6,1.3 -1.3,1.3l-0.6,0c-0.7,0 -1.3,-0.6 -1.3,-1.3l0,-8.3c0.1,-0.7 0.6,-1.3 1.3,-1.3l0,0z" stroke-width="5" stroke-miterlimit="10" stroke-dasharray=""></path><path data-v-9833e8b2="" transform="scale(0.13297872340425532)" fill="none" stroke="currentColor" paint-order="fill stroke markers" d="m50.9,177.9l3.2,0l0,6.4l-3.2,0l0,-6.4l0,0z" stroke-width="5" stroke-miterlimit="10" stroke-dasharray=""></path><path data-v-9833e8b2="" transform="scale(0.13297872340425532)" fill="none" stroke="currentColor" paint-order="fill stroke markers" d="m55.4,175.7l0.6,0c0.7,0 1.3,0.6 1.3,1.3l0,8.3c0,0.7 -0.6,1.3 -1.3,1.3l-0.6,0c-0.7,0 -1.3,-0.6 -1.3,-1.3l0,-8.3c0,-0.7 0.6,-1.3 1.3,-1.3l0,0z" stroke-width="5" stroke-miterlimit="10" stroke-dasharray=""></path><path data-v-9833e8b2="" transform="scale(0.13297872340425532)" fill="none" stroke="currentColor" paint-order="fill stroke markers" d="m7.5,169l43.4,0l0,18.8l-43.4,0l0,-18.8l0,0z" stroke-width="5" stroke-miterlimit="10" stroke-dasharray=""></path><path data-v-9833e8b2="" transform="scale(0.13297872340425532)" fill="none" stroke="currentColor" paint-order="fill stroke markers" d="m26,1l6.4,0l0,7.7l-6.4,0l0,-7.7l0,0z" stroke-width="5" stroke-miterlimit="10" stroke-dasharray=""></path><path data-v-9833e8b2="" transform="scale(0.13297872340425532)" fill="none" stroke="currentColor" paint-order="fill stroke markers" d="m25,3.8l8.3,0c0.7,0 1.3,0.6 1.3,1.3l0,0.6c0,0.7 -0.6,1.3 -1.3,1.3l-8.3,0c-0.7,0 -1.3,-0.6 -1.3,-1.3l0,-0.6c0,-0.7 0.6,-1.3 1.3,-1.3l0,0z" stroke-width="5" stroke-miterlimit="10" stroke-dasharray=""></path><path data-v-9833e8b2="" transform="scale(0.13297872340425532)" fill="none" stroke="currentColor" paint-order="fill stroke markers" d="m7.5,148.2l43.4,0l0,20.8l-43.4,0l0,-20.8l0,0z" stroke-width="5" stroke-miterlimit="10" stroke-dasharray=""></path><path data-v-9833e8b2="" transform="scale(0.13297872340425532)" fill="none" stroke="currentColor" paint-order="fill stroke markers" d="m18.6,8.6l21.1,0l0,134.5l-21.1,0l0,-134.5l0,0z" stroke-width="5" stroke-miterlimit="10" stroke-dasharray=""></path><path data-v-9833e8b2="" transform="scale(0.13297872340425532)" fill="none" stroke="currentColor" paint-order="fill stroke markers" d="m18.6,142.5l21.1,0l11.2,5.7l-43.4,0l11.1,-5.7l0,0z" stroke-width="5" stroke-miterlimit="10" stroke-dasharray=""></path></g></svg>