<svg data-v-9833e8b2="" version="1.1" xmlns="http://www.w3.org/2000/svg" xmlns:xlink="http://www.w3.org/1999/xlink" width="25" height="17.5"><g data-v-9833e8b2=""><path data-v-9833e8b2="" transform="scale(0.12755102040816327)" fill="none" stroke="currentColor" paint-order="fill stroke markers" d="m1,68.2l194,0l-25.9,51.7l-142.2,0l-25.9,-51.7l0,0z" stroke-width="5" stroke-miterlimit="10" stroke-dasharray=""></path><path data-v-9833e8b2="" transform="scale(0.12755102040816327)" fill="none" stroke="currentColor" paint-order="fill stroke markers" d="m20.4,41.1l84.1,0l31,27.1l-115.1,0l0,-27.1l0,0z" stroke-width="5" stroke-miterlimit="10" stroke-dasharray=""></path><path data-v-9833e8b2="" transform="scale(0.12755102040816327)" fill="none" stroke="currentColor" paint-order="fill stroke markers" d="m20.4,14l32.3,0l31,27.1l-63.3,0l0,-27.1l0,0z" stroke-width="5" stroke-miterlimit="10" stroke-dasharray=""></path><path data-v-9833e8b2="" transform="scale(0.12755102040816327)" fill="none" stroke="currentColor" paint-order="fill stroke markers" d="m24.3,1l12.9,0l0,13.1l-12.9,0l0,-13.1l0,0z" stroke-width="5" stroke-miterlimit="10" stroke-dasharray=""></path><path data-v-9833e8b2="" transform="scale(0.12755102040816327)" fill="none" stroke="currentColor" paint-order="fill stroke markers" d="m136.8,26.8l12.9,0l0,41.4l-12.9,0l0,-41.4l0,0z" stroke-width="5" stroke-miterlimit="10" stroke-dasharray=""></path><path data-v-9833e8b2="" transform="scale(0.12755102040816327)" fill="none" stroke="currentColor" paint-order="fill stroke markers" d="m160.1,39.7l12.9,0l0,28.4l-12.9,0l0,-28.4l0,0z" stroke-width="5" stroke-miterlimit="10" stroke-dasharray=""></path><path data-v-9833e8b2="" transform="scale(0.12755102040816327)" fill="none" stroke="currentColor" paint-order="fill stroke markers" d="m28.2,122.5l97,0l0,10.3l-97,0l0,-10.3l0,0z" stroke-width="5" stroke-miterlimit="10" stroke-dasharray=""></path><path data-v-9833e8b2="" transform="scale(0.12755102040816327)" fill="none" stroke="currentColor" paint-order="fill stroke markers" d="m131.6,122.5l37.5,0l0,10.3l-37.5,0l0,-10.3l0,0z" stroke-width="5" stroke-miterlimit="10" stroke-dasharray=""></path><path data-v-9833e8b2="" transform="scale(0.12755102040816327)" fill="none" stroke="currentColor" paint-order="fill stroke markers" d="m160.1,77.3c3.6,0 6.5,2.9 6.5,6.5c0,3.6 -2.9,6.5 -6.5,6.5c-3.6,0 -6.5,-2.9 -6.5,-6.5c0,-3.7 2.9,-6.5 6.5,-6.5l0,0z" stroke-width="5" stroke-miterlimit="10" stroke-dasharray=""></path><path data-v-9833e8b2="" transform="scale(0.12755102040816327)" fill="none" stroke="currentColor" paint-order="fill stroke markers" d="m139.4,77.3c3.6,0 6.5,2.9 6.5,6.5c0,3.6 -2.9,6.5 -6.5,6.5c-3.6,0 -6.5,-2.9 -6.5,-6.5c0,-3.7 2.9,-6.5 6.5,-6.5l0,0z" stroke-width="5" stroke-miterlimit="10" stroke-dasharray=""></path><path data-v-9833e8b2="" transform="scale(0.12755102040816327)" fill="none" stroke="currentColor" paint-order="fill stroke markers" d="m118.7,77.3c3.6,0 6.5,2.9 6.5,6.5c0,3.6 -2.9,6.5 -6.5,6.5c-3.6,0 -6.5,-2.9 -6.5,-6.5c0,-3.7 2.9,-6.5 6.5,-6.5l0,0z" stroke-width="5" stroke-miterlimit="10" stroke-dasharray=""></path><path data-v-9833e8b2="" transform="scale(0.12755102040816327)" fill="none" stroke="currentColor" paint-order="fill stroke markers" d="m98,77.3c3.6,0 6.5,2.9 6.5,6.5c0,3.6 -2.9,6.5 -6.5,6.5c-3.6,0 -6.5,-2.9 -6.5,-6.5c0,-3.7 2.9,-6.5 6.5,-6.5l0,0z" stroke-width="5" stroke-miterlimit="10" stroke-dasharray=""></path><path data-v-9833e8b2="" transform="scale(0.12755102040816327)" fill="none" stroke="currentColor" paint-order="fill stroke markers" d="m77.3,77.3c3.6,0 6.5,2.9 6.5,6.5c0,3.6 -2.9,6.5 -6.5,6.5c-3.6,0 -6.5,-2.9 -6.5,-6.5c0,-3.7 2.9,-6.5 6.5,-6.5l0,0z" stroke-width="5" stroke-miterlimit="10" stroke-dasharray=""></path><path data-v-9833e8b2="" transform="scale(0.12755102040816327)" fill="none" stroke="currentColor" paint-order="fill stroke markers" d="m56.6,77.3c3.6,0 6.5,2.9 6.5,6.5c0,3.6 -2.9,6.5 -6.5,6.5c-3.6,0 -6.5,-2.9 -6.5,-6.5c0.1,-3.7 3,-6.5 6.5,-6.5l0,0z" stroke-width="5" stroke-miterlimit="10" stroke-dasharray=""></path><path data-v-9833e8b2="" transform="scale(0.12755102040816327)" fill="none" stroke="currentColor" paint-order="fill stroke markers" d="m35.9,77.3c3.6,0 6.5,2.9 6.5,6.5c0,3.6 -2.9,6.5 -6.5,6.5c-3.6,0 -6.5,-2.9 -6.5,-6.5c0.1,-3.7 3,-6.5 6.5,-6.5l0,0z" stroke-width="5" stroke-miterlimit="10" stroke-dasharray=""></path></g></svg>