<svg data-v-9833e8b2="" version="1.1" xmlns="http://www.w3.org/2000/svg" xmlns:xlink="http://www.w3.org/1999/xlink" width="25" height="10"><g data-v-9833e8b2=""><path data-v-9833e8b2="" transform="scale(0.12755102040816327)" fill="none" stroke="currentColor" paint-order="fill stroke markers" d="m34,4l126,0l0,68l-126,0l0,-68l0,0z" stroke-width="5" stroke-miterlimit="10" stroke-dasharray=""></path><path data-v-9833e8b2="" transform="scale(0.12755102040816327)" fill="none" stroke="currentColor" paint-order="fill stroke markers" d="m6,24l24,-20l0,68l-24,-20l0,-28l0,0z" stroke-width="5" stroke-miterlimit="10" stroke-dasharray=""></path><path data-v-9833e8b2="" transform="scale(0.12755102040816327)" fill="none" stroke="currentColor" paint-order="fill stroke markers" d="m32,1l6,0c2.2,0 4,1.8 4,4l0,66c0,2.2 -1.8,4 -4,4l-6,0c-2.2,0 -4,-1.8 -4,-4l0,-66c0,-2.2 1.8,-4 4,-4l0,0z" stroke-width="5" stroke-miterlimit="10" stroke-dasharray=""></path><path data-v-9833e8b2="" transform="scale(0.12755102040816327)" fill="none" stroke="currentColor" paint-order="fill stroke markers" d="m5,21l2,0c2.2,0 4,1.8 4,4l0,26c0,2.2 -1.8,4 -4,4l-2,0c-2.2,0 -4,-1.8 -4,-4l0,-26c0,-2.2 1.8,-4 4,-4l0,0z" stroke-width="5" stroke-miterlimit="10" stroke-dasharray=""></path><path data-v-9833e8b2="" transform="scale(0.12755102040816327)" fill="none" stroke="currentColor" paint-order="fill stroke markers" d="m190,24l0,28l-24,20l0,-68l24,20l0,0z" stroke-width="5" stroke-miterlimit="10" stroke-dasharray=""></path><path data-v-9833e8b2="" transform="scale(0.12755102040816327)" fill="none" stroke="currentColor" paint-order="fill stroke markers" d="m158,1l6,0c2.2,0 4,1.8 4,4l0,66c0,2.2 -1.8,4 -4,4l-6,0c-2.2,0 -4,-1.8 -4,-4l0,-66c0,-2.2 1.8,-4 4,-4l0,0z" stroke-width="5" stroke-miterlimit="10" stroke-dasharray=""></path><path data-v-9833e8b2="" transform="scale(0.12755102040816327)" fill="none" stroke="currentColor" paint-order="fill stroke markers" d="m189,21l2,0c2.2,0 4,1.8 4,4l0,26c0,2.2 -1.8,4 -4,4l-2,0c-2.2,0 -4,-1.8 -4,-4l0,-26c0,-2.2 1.8,-4 4,-4l0,0z" stroke-width="5" stroke-miterlimit="10" stroke-dasharray=""></path></g></svg>