<svg data-v-9833e8b2="" version="1.1" xmlns="http://www.w3.org/2000/svg" xmlns:xlink="http://www.w3.org/1999/xlink" width="25" height="7.5"><g data-v-9833e8b2=""><path data-v-9833e8b2="" transform="scale(0.12953367875647667)" fill="none" stroke="currentColor" paint-order="fill stroke markers" d="m93.1,8l7.1,0c2.6,0 4.7,1.9 4.7,4.2l0,17l-16.6,0l0,-17c0,-2.3 2.2,-4.2 4.8,-4.2l0,0z" stroke-width="5" stroke-miterlimit="10" stroke-dasharray=""></path><path data-v-9833e8b2="" transform="scale(0.12953367875647667)" fill="none" stroke="currentColor" paint-order="fill stroke markers" d="m78.9,29.3l35.4,0c9.8,0 17.7,7.9 17.7,17.7c0,9.8 -7.9,17.7 -17.7,17.7l-35.4,0c-9.8,0 -17.7,-7.9 -17.7,-17.7c0,-9.8 7.9,-17.7 17.7,-17.7l0,0z" stroke-width="5" stroke-miterlimit="10" stroke-dasharray=""></path><path data-v-9833e8b2="" transform="scale(0.12953367875647667)" fill="none" stroke="currentColor" paint-order="fill stroke markers" d="m54.1,28.1l9.5,0l0,37.8l-9.4,0l0,-37.8l-0.1,0z" stroke-width="5" stroke-miterlimit="10" stroke-dasharray=""></path><path data-v-9833e8b2="" transform="scale(0.12953367875647667)" fill="none" stroke="currentColor" paint-order="fill stroke markers" d="m129.6,28.1l9.4,0l0,37.8l-9.4,0l0,-37.8l0,0z" stroke-width="5" stroke-miterlimit="10" stroke-dasharray=""></path><path data-v-9833e8b2="" transform="scale(0.12953367875647667)" fill="none" stroke="currentColor" paint-order="fill stroke markers" d="m107.2,17.5l0,9.4l-23.6,0l-8.6,-14.2l-74,0l0,-11.7l77.9,0l0,0.2l0.1,-0.1l9.4,16.3l18.8,0l0,0.1z" stroke-width="5" stroke-miterlimit="10" stroke-dasharray=""></path><path data-v-9833e8b2="" transform="scale(0.12953367875647667)" fill="none" stroke="currentColor" paint-order="fill stroke markers" d="m192.2,12.8l-74,0l-8.6,14.1l-23.6,0l0,-9.4l18.8,0l9.4,-16.3l0.1,0.1l0,-0.2l77.9,0l0,11.7z" stroke-width="5" stroke-miterlimit="10" stroke-dasharray=""></path></g></svg>