<svg data-v-9833e8b2="" version="1.1" xmlns="http://www.w3.org/2000/svg" xmlns:xlink="http://www.w3.org/1999/xlink" width="14.5" height="25"><g data-v-9833e8b2=""><path data-v-9833e8b2="" transform="scale(0.12953367875647667)" fill="none" stroke="currentColor" paint-order="fill stroke markers" d="m7.8,157.7l23.4,0l0,17.4l-23.4,0l0,-17.4l0,0z" stroke-width="5" stroke-miterlimit="10" stroke-dasharray=""></path><path data-v-9833e8b2="" transform="scale(0.12953367875647667)" fill="none" stroke="currentColor" paint-order="fill stroke markers" d="m31.1,157.7l22.5,0l0,17.4l-22.5,0l0,-17.4l0,0z" stroke-width="5" stroke-miterlimit="10" stroke-dasharray=""></path><path data-v-9833e8b2="" transform="scale(0.12953367875647667)" fill="none" stroke="currentColor" paint-order="fill stroke markers" d="m53.6,157.7l22.5,0l0,17.4l-22.5,0l0,-17.4l0,0z" stroke-width="5" stroke-miterlimit="10" stroke-dasharray=""></path><path data-v-9833e8b2="" transform="scale(0.12953367875647667)" fill="none" stroke="currentColor" paint-order="fill stroke markers" d="m76.1,157.7l22.5,0l0,17.4l-22.5,0l0,-17.4l0,0z" stroke-width="5" stroke-miterlimit="10" stroke-dasharray=""></path><path data-v-9833e8b2="" transform="scale(0.12953367875647667)" fill="none" stroke="currentColor" paint-order="fill stroke markers" d="m7.8,175.1l12.3,0l0,17.8l-12.3,0l0,-17.8l0,0z" stroke-width="5" stroke-miterlimit="10" stroke-dasharray=""></path><path data-v-9833e8b2="" transform="scale(0.12953367875647667)" fill="none" stroke="currentColor" paint-order="fill stroke markers" d="m87.6,175.1l11,0l0,17.8l-11,0l0,-17.8l0,0z" stroke-width="5" stroke-miterlimit="10" stroke-dasharray=""></path><path data-v-9833e8b2="" transform="scale(0.12953367875647667)" fill="none" stroke="currentColor" paint-order="fill stroke markers" d="m20.1,175.1l22.5,0l0,17.8l-22.5,0l0,-17.8l0,0z" stroke-width="5" stroke-miterlimit="10" stroke-dasharray=""></path><path data-v-9833e8b2="" transform="scale(0.12953367875647667)" fill="none" stroke="currentColor" paint-order="fill stroke markers" d="m42.6,175.1l22.5,0l0,17.8l-22.5,0l0,-17.8l0,0z" stroke-width="5" stroke-miterlimit="10" stroke-dasharray=""></path><path data-v-9833e8b2="" transform="scale(0.12953367875647667)" fill="none" stroke="currentColor" paint-order="fill stroke markers" d="m65.1,175.1l22.5,0l0,17.8l-22.5,0l0,-17.8l0,0z" stroke-width="5" stroke-miterlimit="10" stroke-dasharray=""></path><path data-v-9833e8b2="" transform="scale(0.12953367875647667)" fill="none" stroke="currentColor" paint-order="fill stroke markers" d="m42.6,1l21.2,0l0,22.9l-21.2,0l0,-22.9l0,0z" stroke-width="5" stroke-miterlimit="10" stroke-dasharray=""></path><path data-v-9833e8b2="" transform="scale(0.12953367875647667)" fill="none" stroke="currentColor" paint-order="fill stroke markers" d="m88.9,39.6l0,118.1l-71.4,0l0,-118.1l0.6,0l24.8,-16.5l20.4,0l24.8,16.5l0.8,0z" stroke-width="5" stroke-miterlimit="10" stroke-dasharray=""></path><path data-v-9833e8b2="" transform="scale(0.12953367875647667)" fill="none" stroke="currentColor" paint-order="fill stroke markers" d="m4.8,123.3l21.2,0l0,17.8l-21.2,0l0,-17.8l0,0z" stroke-width="5" stroke-miterlimit="10" stroke-dasharray=""></path><path data-v-9833e8b2="" transform="scale(0.12953367875647667)" fill="none" stroke="currentColor" paint-order="fill stroke markers" d="m1,117.8l10.2,0l0,28.9l-10.2,0l0,-28.9l0,0z" stroke-width="5" stroke-miterlimit="10" stroke-dasharray=""></path></g></svg>