<svg data-v-9833e8b2="" version="1.1" xmlns="http://www.w3.org/2000/svg" xmlns:xlink="http://www.w3.org/1999/xlink" width="25" height="22.5"><g data-v-9833e8b2=""><path data-v-9833e8b2="" transform="scale(0.13157894736842105)" fill="none" stroke="currentColor" paint-order="fill stroke markers" d="m36,91.1l19.5,-14.7l79.4,0l19.5,14.7l-118.4,0l0,0z" stroke-width="5" stroke-miterlimit="10" stroke-dasharray=""></path><path data-v-9833e8b2="" transform="scale(0.13157894736842105)" fill="none" stroke="currentColor" paint-order="fill stroke markers" d="m73.6,44.1l0,-10.8l43.1,0l0,10.8l-43.1,0l0,0z" stroke-width="5" stroke-miterlimit="10" stroke-dasharray=""></path><path data-v-9833e8b2="" transform="scale(0.13157894736842105)" fill="none" stroke="currentColor" paint-order="fill stroke markers" d="m46.7,33.4c-8.9,0 -16.1,-7.3 -16.1,-16.2c0,-9 7.2,-16.2 16.1,-16.2l96.9,0c8.9,0 16.1,7.3 16.1,16.2c0,9 -7.2,16.2 -16.1,16.2l-96.9,0l0,0z" stroke-width="5" stroke-miterlimit="10" stroke-dasharray=""></path><path data-v-9833e8b2="" transform="scale(0.13157894736842105)" fill="none" stroke="currentColor" paint-order="fill stroke markers" d="m57.5,76.4c-8.9,0 -16.1,-7.2 -16.1,-16.2c0,-9 7.2,-16.2 16.1,-16.2l75.4,0c8.9,0 16.1,7.3 16.1,16.2c0,9 -7.2,16.2 -16.1,16.2l-75.4,0l0,0z" stroke-width="5" stroke-miterlimit="10" stroke-dasharray=""></path><path data-v-9833e8b2="" transform="scale(0.13157894736842105)" fill="none" stroke="currentColor" paint-order="fill stroke markers" d="m1,173.3l0,-82.2l188.4,0l0,82.2l-188.4,0l0,0z" stroke-width="5" stroke-miterlimit="10" stroke-dasharray=""></path></g></svg>