<svg data-v-9833e8b2="" version="1.1" xmlns="http://www.w3.org/2000/svg" xmlns:xlink="http://www.w3.org/1999/xlink" width="25" height="22.5"><g data-v-9833e8b2=""><path data-v-9833e8b2="" transform="scale(0.13157894736842105)" fill="none" stroke="currentColor" paint-order="fill stroke markers" d="m36,83.2l118.4,0l-19.5,14.7l-79.4,0l-19.5,-14.7l0,0z" stroke-width="5" stroke-miterlimit="10" stroke-dasharray=""></path><path data-v-9833e8b2="" transform="scale(0.13157894736842105)" fill="none" stroke="currentColor" paint-order="fill stroke markers" d="m73.6,130.2l43.1,0l0,10.8l-43.1,0l0,-10.8l0,0z" stroke-width="5" stroke-miterlimit="10" stroke-dasharray=""></path><path data-v-9833e8b2="" transform="scale(0.13157894736842105)" fill="none" stroke="currentColor" paint-order="fill stroke markers" d="m46.7,140.9l96.9,0c8.9,0 16.1,7.2 16.1,16.2c0,8.9 -7.2,16.2 -16.1,16.2l-96.9,0c-8.9,0 -16.1,-7.2 -16.1,-16.2c0,-8.9 7.2,-16.2 16.1,-16.2l0,0z" stroke-width="5" stroke-miterlimit="10" stroke-dasharray=""></path><path data-v-9833e8b2="" transform="scale(0.13157894736842105)" fill="none" stroke="currentColor" paint-order="fill stroke markers" d="m57.5,97.9l75.4,0c8.9,0 16.1,7.2 16.1,16.2c0,8.9 -7.2,16.2 -16.1,16.2l-75.4,0c-8.9,0 -16.1,-7.2 -16.1,-16.2c0,-9 7.2,-16.2 16.1,-16.2l0,0z" stroke-width="5" stroke-miterlimit="10" stroke-dasharray=""></path><path data-v-9833e8b2="" transform="scale(0.13157894736842105)" fill="none" stroke="currentColor" paint-order="fill stroke markers" d="m1,1l188.4,0l0,82.2l-188.4,0l0,-82.2l0,0z" stroke-width="5" stroke-miterlimit="10" stroke-dasharray=""></path></g></svg>