<svg data-v-9833e8b2="" version="1.1" xmlns="http://www.w3.org/2000/svg" xmlns:xlink="http://www.w3.org/1999/xlink" width="25" height="17.5"><g data-v-9833e8b2=""><path data-v-9833e8b2="" transform="scale(0.16129032258064516)" fill="none" stroke="currentColor" paint-order="fill stroke markers" d="m22.19146,102.79713c-2.36329,0 -4.27735,-1.91407 -4.27735,-4.27735s1.91407,-4.27735 4.27735,-4.27735s4.27735,1.91407 4.27735,4.27735s-1.91407,4.27735 -4.27735,4.27735zm0,-7.77346c-1.9336,0 -3.4961,1.5625 -3.4961,3.4961c0,1.9336 1.5625,3.4961 3.4961,3.4961s3.4961,-1.5625 3.4961,-3.4961c0,-1.9336 -1.5625,-3.4961 -3.4961,-3.4961zm27.53913,7.77346c-2.36329,0 -4.27735,-1.91407 -4.27735,-4.27735s1.91407,-4.27735 4.27735,-4.27735s4.27735,1.91407 4.27735,4.27735s-1.91407,4.27735 -4.27735,4.27735zm0,-7.77346c-1.9336,0 -3.4961,1.5625 -3.4961,3.4961c0,1.9336 1.5625,3.4961 3.4961,3.4961s3.4961,-1.5625 3.4961,-3.4961c0,-1.9336 -1.5625,-3.4961 -3.4961,-3.4961zm50.05872,7.81252c-2.36329,0 -4.27735,-1.91407 -4.27735,-4.27735s1.91407,-4.27735 4.27735,-4.27735s4.27735,1.91407 4.27735,4.27735s-1.9336,4.27735 -4.27735,4.27735zm0,-7.75393c-1.9336,0 -3.4961,1.5625 -3.4961,3.4961c0,1.9336 1.5625,3.4961 3.4961,3.4961c1.9336,0 3.4961,-1.5625 3.4961,-3.4961c-0.01953,-1.9336 -1.58204,-3.4961 -3.4961,-3.4961zm27.53913,7.77346c-2.36329,0 -4.27735,-1.91407 -4.27735,-4.27735s1.91407,-4.27735 4.27735,-4.27735s4.27735,1.91407 4.27735,4.27735s-1.9336,4.27735 -4.27735,4.27735zm0,-7.77346c-1.9336,0 -3.4961,1.5625 -3.4961,3.4961c0,1.9336 1.5625,3.4961 3.4961,3.4961c1.9336,0 3.4961,-1.5625 3.4961,-3.4961c-0.01953,-1.91407 -1.58204,-3.4961 -3.4961,-3.4961z" stroke-width="5" stroke-miterlimit="10" stroke-dasharray=""></path><path data-v-9833e8b2="" transform="scale(0.16129032258064516)" fill="none" stroke="currentColor" paint-order="fill stroke markers" d="m36.17587,19.59379l17.71489,0l0,0.78125l-17.71489,0l0,-0.78125zm0,17.40239l17.71489,0l0,0.78125l-17.71489,0l0,-0.78125zm0,17.40239l17.71489,0l0,0.78125l-17.71489,0l0,-0.78125zm91.15257,57.18764c-6.69924,0 -12.26566,-5.09767 -12.98831,-11.64065l-1.5625,0c-0.72266,6.52345 -6.28908,11.64065 -12.98831,11.64065s-12.26566,-5.09767 -12.98831,-11.64065l-24.08209,0c-0.72266,6.52345 -6.28908,11.64065 -12.98831,11.64065s-12.26566,-5.09767 -12.98831,-11.64065l-1.5625,0c-0.72266,6.52345 -6.28908,11.64065 -12.98831,11.64065s-12.26566,-5.09767 -12.98831,-11.64065l-8.20315,0l0,-24.45319l146.93396,0l0,24.45319l-7.61721,0c-0.72266,6.52345 -6.28908,11.64065 -12.98831,11.64065zm-17.20707,-14.37504l6.85549,0l0,1.36719c0.03906,5.66408 4.66798,10.27346 10.33206,10.27346s10.29299,-4.60939 10.33206,-10.27346l0,-1.36719l7.53908,0l0,-18.98442l-141.44567,0l0,18.98442l8.10549,0l0,1.36719c0.03906,5.66408 4.66798,10.27346 10.33206,10.27346s10.29299,-4.60939 10.33206,-10.27346l0,-1.36719l6.85549,0l0,1.36719c0.03906,5.66408 4.66798,10.27346 10.33206,10.27346s10.29299,-4.60939 10.33206,-10.27346l0,-1.36719l29.35554,0l0,1.36719c0.03906,5.66408 4.66798,10.27346 10.33206,10.27346s10.29299,-4.60939 10.33206,-10.27346l0.07813,-1.36719z" stroke-width="5" stroke-miterlimit="10" stroke-dasharray=""></path><path data-v-9833e8b2="" transform="scale(0.16129032258064516)" fill="none" stroke="currentColor" paint-order="fill stroke markers" d="m34.80868,1l2.73438,0l0,64.06266l-2.73438,0l0,-64.06266zm17.73442,0l2.73438,0l0,64.06266l-2.73438,0l0,-64.06266z" stroke-width="5" stroke-miterlimit="10" stroke-dasharray=""></path><path data-v-9833e8b2="" transform="scale(0.16129032258064516)" fill="none" stroke="currentColor" paint-order="fill stroke markers" d="m108.67605,78.22676l-68.18377,0c-9.12112,0 -17.71489,-3.57423 -24.21881,-10.07815c-6.48439,-6.48439 -10.07815,-15.09769 -10.07815,-24.21881s3.57423,-17.71489 10.07815,-24.21881s15.09769,-10.07815 24.21881,-10.07815l68.18377,0c9.12112,0 17.71489,3.57423 24.21881,10.07815c6.48439,6.48439 10.07815,15.09769 10.07815,24.21881s-3.57423,17.71489 -10.07815,24.21881s-15.09769,10.07815 -24.21881,10.07815zm-68.18377,-65.82048c-17.40239,0 -31.54305,14.16019 -31.54305,31.54305c0,17.40239 14.16019,31.54305 31.54305,31.54305l68.18377,0c17.40239,0 31.54305,-14.16019 31.54305,-31.54305s-14.16019,-31.54305 -31.54305,-31.54305l-68.18377,0zm106.07449,71.40643l7.44142,0l0,7.81252l-7.44142,0l0,-7.81252z" stroke-width="5" stroke-miterlimit="10" stroke-dasharray=""></path></g></svg>