<svg data-v-9833e8b2="" version="1.1" xmlns="http://www.w3.org/2000/svg" xmlns:xlink="http://www.w3.org/1999/xlink" width="25" height="22.5"><g data-v-9833e8b2=""><path data-v-9833e8b2="" transform="scale(0.14792899408284024)" fill="none" stroke="currentColor" paint-order="fill stroke markers" d="m62.81461,144.00231c-18.35356,0 -33.28719,-14.93363 -33.28719,-33.28915l0,-5.64064c-2.8711,-1.25977 -4.89845,-4.28907 -4.89845,-7.82033l0,-15.86527c0,-1.74219 0.49414,-3.36329 1.33789,-4.70704c-14.7266,-5.73244 -24.96686,-20.07427 -24.96686,-36.50595c0,-21.59966 17.57231,-39.17393 39.17197,-39.17393s39.17197,17.57231 39.17197,39.17393c0,8.8594 -2.92579,17.06645 -7.91018,23.65631l11.50784,0l0,7.57619l0.45508,0l0,-0.16797c0,-4.71486 2.16016,-8.50393 5.31642,-9.83401l0,-6.81252c0,-18.35551 14.93363,-33.28915 33.28915,-33.28915l12.75589,0c18.35551,0 33.28915,14.93363 33.28915,33.28915l0,20.01958l-21.15826,0l0,-20.01958c0,-6.68947 -5.44337,-12.13284 -12.13284,-12.13284l-12.75589,0c-6.68947,0 -12.13284,5.44337 -12.13284,12.13284l0,7.15627c2.77149,1.56641 4.6172,5.13283 4.6172,9.49026l0,24.18365c0,4.35939 -1.84375,7.92385 -4.6172,9.49026l0,5.8008c0,18.35551 -14.93363,33.28915 -33.28915,33.28915l-13.76371,0zm-12.13089,-33.28915c0,6.68947 5.44337,12.13284 12.13284,12.13284l13.76566,0.00195c6.68752,0 12.12894,-5.44337 12.12894,-12.13284l0,-5.45704c-3.15626,-1.33203 -5.31642,-5.1172 -5.31642,-9.83401l0,-0.31445l-0.45508,0l0,8.10549l-16.79496,0l1.92383,-12.95902l-3.20899,0l0,-13.46488l3.15235,0l-1.11328,-7.92971a38.95303,38.95303 0 0 1 -12.50784,7.83791c0.83789,1.3418 1.32618,2.95313 1.32618,4.68751l0,15.86527c0,3.58595 -2.0918,6.65627 -5.03322,7.87893l0,5.58205z" stroke-width="5" stroke-miterlimit="10" stroke-dasharray=""></path><path data-v-9833e8b2="" transform="scale(0.14792899408284024)" fill="none" stroke="currentColor" paint-order="fill stroke markers" d="m134.7562,26.11139l-12.75784,0c-15.70316,0 -28.48054,12.77542 -28.48054,28.48054l0,11.10745l-2.26368,0c-1.68555,0 -3.05274,2.48047 -3.05274,5.53908l0,4.97658l-3.2168,0l0,5.38478l-6.85549,0l0,-12.96097l-6.41213,0l1.82813,12.96097l-3.87892,0l0,3.84571l3.97462,0l-1.92383,12.95902l6.41213,0l0,-12.95902l6.85549,0l0,4.85353l3.2168,0l0,5.12306c0,3.0586 1.36719,5.53908 3.05274,5.53908l2.26368,0l0,9.75393c0,9.35549 -7.584,16.9395 -16.94145,16.9395l-2.10157,0l0,-0.00195l-11.66409,0c-9.35745,0 -16.94145,-7.58596 -16.94145,-16.94145l0,-9.8262l1.98047,0c1.68555,0 3.05274,-1.62696 3.05274,-3.63477l0,-15.86527c0,-2.00782 -1.36719,-3.63477 -3.05274,-3.63477l-4.02149,0l0,-3.41016c17.2559,-1.82813 30.70125,-16.42778 30.70125,-34.16805c0,-18.97856 -15.3848,-34.36532 -34.36337,-34.36532s-34.36337,15.38676 -34.36337,34.36532c0,17.52543 13.12308,31.97469 30.07625,34.08798l0,3.49024l-3.39649,0c-1.68555,0 -3.05274,1.62696 -3.05274,3.63477l0,15.86527c0,2.00782 1.36719,3.63477 3.05274,3.63477l1.84766,0l0,9.8262c0,15.70316 12.77542,28.48054 28.48054,28.48054l2.10157,0l0,0.00195l11.66409,0c15.70512,0 28.48054,-12.77738 28.48054,-28.48054l0,-9.75393l1.56446,0c1.68555,0 3.05274,-2.48047 3.05274,-5.53908l0,-24.1817c0,-3.0586 -1.36719,-5.53908 -3.05274,-5.53908l-1.56446,0l0,-11.10745c0,-9.35549 7.58596,-16.94145 16.9395,-16.94145l12.75784,0c9.35549,0 16.9395,7.58596 16.9395,16.94145l0,15.21098l11.53909,0l0,-15.21098c0.00391,-15.70512 -12.77152,-28.48054 -28.47663,-28.48054z" stroke-width="5" stroke-miterlimit="10" stroke-dasharray=""></path><path data-v-9833e8b2="" transform="scale(0.14792899408284024)" fill="none" stroke="currentColor" paint-order="fill stroke markers" d="m10.61916,40.17393a29.55476,29.55672 0 1 0 59.10952,0a29.55476,29.55672 0 1 0 -59.10952,0z" stroke-width="5" stroke-miterlimit="10" stroke-dasharray=""></path><path data-v-9833e8b2="" transform="scale(0.14792899408284024)" fill="none" stroke="currentColor" paint-order="fill stroke markers" d="m37.55283,14.99808l4.21681,0l0,8.36721l-4.21681,0l0,-8.36721zm12.8012,11.50042l5.9174,-5.91564l2.98126,2.98223l-5.9174,5.91544l-2.98126,-2.98204zm6.83947,11.26722l8.36721,0l0,4.21681l-8.36721,0l0,-4.21681zm-6.1133,15.7891l2.98243,-2.98126l5.91544,5.9174l-2.98204,2.98126l-5.91584,-5.9174zm-12.50198,3.85353l4.21681,0l0,8.36721l-4.21681,0l0,-8.36721zm-11.56839,-6.1133l2.98048,2.98243l-5.91603,5.91603l-2.98243,-2.98243l5.91798,-5.91603zm-12.22464,-12.50394l8.36721,0l0,4.21681l-8.36721,0l0,-4.21681zm5.58205,-14.50277l2.98165,-2.98165l5.91662,5.91642l-2.98184,2.98165l-5.91642,-5.91642z" stroke-width="5" stroke-miterlimit="10" stroke-dasharray=""></path><path data-v-9833e8b2="" transform="scale(0.14792899408284024)" fill="none" stroke="currentColor" paint-order="fill stroke markers" d="m52.27747,24.67584l-12.37698,10.96292c-0.18164,-0.01953 -0.36524,-0.0293 -0.55274,-0.0293c-2.92188,0 -5.28908,2.36915 -5.28908,5.29103c0,2.92188 2.36915,5.29103 5.28908,5.29103c2.92188,0 5.29103,-2.36719 5.29103,-5.29103c0,-0.82422 -0.19336,-1.59961 -0.5293,-2.29493l8.16799,-13.92972z" stroke-width="5" stroke-miterlimit="10" stroke-dasharray=""></path></g></svg>