<svg data-v-9833e8b2="" version="1.1" xmlns="http://www.w3.org/2000/svg" xmlns:xlink="http://www.w3.org/1999/xlink" width="22" height="25"><g data-v-9833e8b2=""><path data-v-9833e8b2="" transform="scale(0.12437810945273632)" fill="none" stroke="currentColor" paint-order="fill stroke markers" d="m162.631,63.26849a82.0234,82.0234 0 1 0 -90.56751,101.04827l0,11.39214a7.74665,7.74665 0 0 0 3.07588,6.15175a7.63273,7.63273 0 0 0 -0.68353,3.1898l0,7.74665a7.86058,7.86058 0 0 0 7.86058,7.86058l3.07588,0a7.86058,7.86058 0 0 0 7.86058,-7.86058l0,-7.74665a7.63273,7.63273 0 0 0 -0.68353,-3.1898a7.9745,7.9745 0 0 0 2.96196,-6.15175l0,-11.61998a81.79556,81.79556 0 0 0 67.21362,-61.85931a89.54221,89.54221 0 0 0 2.05058,-19.13879a115.97197,115.97197 0 0 0 -2.16451,-19.82232zm-14.3541,40.44209l-10.48077,-3.07588a4.44293,4.44293 0 0 0 -5.46823,2.84804a4.21509,4.21509 0 0 0 2.73411,5.3543l9.91116,3.30372a68.35283,68.35283 0 0 1 -124.63,0l11.39214,-3.64548a4.21509,4.21509 0 0 0 2.73411,-4.7847l41.92307,-11.39214a7.86058,7.86058 0 0 0 14.69586,-3.98725l18.56919,-5.12646l-2.05058,-6.60744l-18.34134,6.83528a8.08842,8.08842 0 0 0 -11.39214,-1.02529a8.31626,8.31626 0 0 0 -2.73411,6.03783l-41.0117,14.01233a3.98725,3.98725 0 0 0 -5.12646,-2.05058l-11.39214,3.7594a68.35283,68.35283 0 0 1 -2.16451,-34.17642l13.78449,4.44294a4.32901,4.32901 0 0 0 5.3543,-2.84804a4.10117,4.10117 0 0 0 -2.73411,-5.3543l-14.3541,-4.7847a68.35283,68.35283 0 0 1 20.50585,-28.48035l8.65803,11.39214a4.32901,4.32901 0 1 0 6.9492,-5.01254l-8.65803,-11.39214a69.60597,69.60597 0 0 1 34.17642,-11.39214l0,14.01233a4.32901,4.32901 0 0 0 8.65803,0l0,-13.67057a68.35283,68.35283 0 0 1 32.80936,11.39214l-8.08842,11.39214a4.32901,4.32901 0 0 0 1.02529,6.03783a4.21509,4.21509 0 0 0 6.03783,-0.91137l8.08842,-11.39214a71.99832,71.99832 0 0 1 17.08821,21.3033a58.32775,58.32775 0 0 1 2.84804,7.40489l-12.64527,4.10117a4.32901,4.32901 0 0 0 -2.73411,5.46823a4.21509,4.21509 0 0 0 5.46823,2.73411l12.07567,-3.87333a69.71989,69.71989 0 0 1 1.36706,12.98704a68.35283,68.35283 0 0 1 -2.84804,20.16409z" stroke-width="5" stroke-miterlimit="10" stroke-dasharray=""></path><path data-v-9833e8b2="" transform="scale(0.12437810945273632)" fill="none" stroke="currentColor" paint-order="fill stroke markers" d="m93.9364,132.19094l-20.50585,0a3.41764,3.41764 0 0 0 -3.30372,3.41764a3.30372,3.30372 0 0 0 3.30372,3.41764l20.50585,0a3.41764,3.41764 0 0 0 3.41764,-3.41764a3.30372,3.30372 0 0 0 -3.41764,-3.41764z" stroke-width="5" stroke-miterlimit="10" stroke-dasharray=""></path></g></svg>