<svg data-v-9833e8b2="" version="1.1" xmlns="http://www.w3.org/2000/svg" xmlns:xlink="http://www.w3.org/1999/xlink" width="12" height="25"><g data-v-9833e8b2=""><path data-v-9833e8b2="" transform="scale(0.12626262626262627)" fill="none" stroke="currentColor" paint-order="fill stroke markers" d="m63.12,190.74l0,-15.17l-36.94,0l0,15.17l-25.17,0l0,6.59l87.28,0l0,-6.59z" stroke-width="5" stroke-miterlimit="10" stroke-dasharray=""></path><path data-v-9833e8b2="" transform="scale(0.12626262626262627)" fill="none" stroke="currentColor" paint-order="fill stroke markers" d="m4.36,1l80.58,0c1.85,0 3.36,1.5 3.36,3.36l0,3.36c0,1.85 -1.5,3.36 -3.36,3.36l-80.58,0c-1.85,0 -3.36,-1.5 -3.36,-3.36l0,-3.37c0.01,-1.85 1.51,-3.35 3.36,-3.35l0,0z" stroke-width="5" stroke-miterlimit="10" stroke-dasharray=""></path><path data-v-9833e8b2="" transform="scale(0.12626262626262627)" fill="none" stroke="currentColor" paint-order="fill stroke markers" d="m84.94,1l-80.58,0c-1.85,0 -3.36,1.5 -3.36,3.36l0,3.36c0,1.85 1.5,3.36 3.36,3.36l80.58,0c1.85,0 3.36,-1.5 3.36,-3.36l0,-3.37c-0.01,-1.85 -1.51,-3.35 -3.36,-3.35z" stroke-width="5" stroke-miterlimit="10" stroke-dasharray=""></path><path data-v-9833e8b2="" transform="scale(0.12626262626262627)" fill="none" stroke="currentColor" paint-order="fill stroke markers" d="m7.72,16.1l73.86,0l0,147.72c0,3.71 -3.01,6.71 -6.72,6.71l-60.42,0c-3.71,0 -6.72,-3.01 -6.72,-6.71l0,-147.72l0,0z" stroke-width="5" stroke-miterlimit="10" stroke-dasharray=""></path><path data-v-9833e8b2="" transform="scale(0.12626262626262627)" fill="none" stroke="currentColor" paint-order="fill stroke markers" d="m7.72,16.1l0,147.72c0,3.71 3.01,6.71 6.72,6.71l60.43,0c3.71,0 6.72,-3.01 6.72,-6.71l0,-147.72l-73.87,0z" stroke-width="5" stroke-miterlimit="10" stroke-dasharray=""></path></g></svg>