<svg data-v-9833e8b2="" version="1.1" xmlns="http://www.w3.org/2000/svg" xmlns:xlink="http://www.w3.org/1999/xlink" width="25" height="25"><g data-v-9833e8b2=""><path data-v-9833e8b2="" transform="scale(0.19230769230769232)" fill="none" stroke="currentColor" paint-order="fill stroke markers" d="m22.87506,52.25013l16.25004,0c2.18751,0 3.75001,1.5625 3.75001,3.75001l0,11.87503c0,27.18757 22.18756,49.37512 49.37512,49.37512l15.31254,0l0,6.56252l21.87506,0l0,-56.87514l-21.87506,0l0,5.62501l-16.25004,0c-2.18751,0 -3.75001,-1.5625 -3.75001,-3.75001l0,-11.87503c0,-27.18757 -22.18756,-49.37512 -49.37512,-49.37512l-15.31254,0l0,-6.56252l-21.87506,0l0,56.87514l21.87506,0l0,-5.62501zm58.75015,16.56254c0,5.62501 4.37501,10.00003 10.00003,10.00003l19.37505,0l0,32.50008l-18.43755,0c-23.75006,0 -43.12511,-19.37505 -43.12511,-43.12511l0,-11.87503c0,-5.62501 -4.37501,-10.00003 -10.00003,-10.00003l-19.37505,0l0,-32.81258l18.43755,0c23.75006,0 43.12511,19.37505 43.12511,43.12511l0,12.18753zm41.87511,48.75012l-9.37502,0l0,-44.68761l9.37502,0l0,44.68761zm-105.00026,-105.31277zm-11.25003,-5.31251l9.37502,0l0,44.68761l-9.37502,0l0,-44.68761zm11.25003,41.2501z" stroke-width="5" stroke-miterlimit="10" stroke-dasharray=""></path></g></svg>