<svg data-v-9833e8b2="" version="1.1" xmlns="http://www.w3.org/2000/svg" xmlns:xlink="http://www.w3.org/1999/xlink" width="25" height="17.5"><g data-v-9833e8b2=""><path data-v-9833e8b2="" transform="scale(0.21929824561403508)" fill="none" stroke="currentColor" paint-order="fill stroke markers" d="m110.68711,77.26918l-99.1599,0c-1.44531,0 -2.61718,-1.26953 -2.61718,-2.83202l0,-60.15609c0,-1.5625 1.17187,-2.83202 2.61718,-2.83202l99.1599,0c1.44531,0 2.61718,1.26953 2.61718,2.83202l0,60.15609c0,1.5625 -1.17187,2.83202 -2.61718,2.83202zm-98.35912,-3.71093l97.53881,0l0,-58.39829l-97.53881,0l0,58.39829z" stroke-width="5" stroke-miterlimit="10" stroke-dasharray=""></path><path data-v-9833e8b2="" transform="scale(0.21929824561403508)" fill="none" stroke="currentColor" paint-order="fill stroke markers" d="m30.58966,13.30451l3.71093,0l0,62.10921l-3.71093,0l0,-62.10921zm-20.89838,41.60145l-5.85936,0c-1.5625,0 -2.83202,-1.26953 -2.83202,-2.83202l0,-16.60152c0,-1.5625 1.26953,-2.83202 2.83202,-2.83202l5.85936,0c1.5625,0 2.83202,1.26953 2.83202,2.83202l0,16.60152c0,1.5625 -1.26953,2.83202 -2.83202,2.83202zm-4.98046,-3.71093l4.10155,0l0,-14.84371l-4.10155,0l0,14.84371z" stroke-width="5" stroke-miterlimit="10" stroke-dasharray=""></path><path data-v-9833e8b2="" transform="scale(0.21929824561403508)" fill="none" stroke="currentColor" paint-order="fill stroke markers" d="m43.08963,84.59338l-14.84371,0c-1.5625,0 -2.83202,-1.26953 -2.83202,-2.83202l0,-5.27342c0,-1.5625 1.26953,-2.83202 2.83202,-2.83202l14.84371,0c1.5625,0 2.83202,1.26953 2.83202,2.83202l0,5.27342c0,1.5625 -1.26953,2.83202 -2.83202,2.83202zm-13.96481,-3.71093l13.0859,0l0,-3.51562l-13.0859,0l0,3.51562zm71.58185,3.90624l-9.37498,0c-1.5625,0 -2.83202,-1.26953 -2.83202,-2.83202l0,-5.46874c0,-1.5625 1.26953,-2.83202 2.83202,-2.83202l9.37498,0c1.5625,0 2.83202,1.26953 2.83202,2.83202l0,5.46874c0,1.5625 -1.26953,2.83202 -2.83202,2.83202zm-8.49607,-3.71093l7.61717,0l0,-3.71093l-7.61717,0l0,3.71093zm-35.83975,-66.01545l-24.414,0c-1.5625,0 -2.83202,-1.26953 -2.83202,-2.83202l0,-8.39842c0,-1.5625 1.26953,-2.83202 2.83202,-2.83202l24.414,0c1.5625,0 2.83202,1.26953 2.83202,2.83202l0,8.39842c0,1.5625 -1.26953,2.83202 -2.83202,2.83202zm-23.5351,-3.71093l22.65619,0l0,-6.64061l-22.65619,0l0,6.64061z" stroke-width="5" stroke-miterlimit="10" stroke-dasharray=""></path><path data-v-9833e8b2="" transform="scale(0.21929824561403508)" fill="none" stroke="currentColor" paint-order="fill stroke markers" d="m40.55058,8.12874m-0.8789,0a0.8789,0.8789 0 1 0 1.75781,0a0.8789,0.8789 0 1 0 -1.75781,0z" stroke-width="5" stroke-miterlimit="10" stroke-dasharray=""></path><path data-v-9833e8b2="" transform="scale(0.21929824561403508)" fill="none" stroke="currentColor" paint-order="fill stroke markers" d="m40.55058,9.78889c-0.91797,0 -1.66015,-0.74219 -1.66015,-1.66015s0.74219,-1.66015 1.66015,-1.66015s1.66015,0.74219 1.66015,1.66015s-0.74219,1.66015 -1.66015,1.66015zm0,-1.75781c-0.05859,0 -0.09766,0.03906 -0.09766,0.09766s0.03906,0.09766 0.09766,0.09766s0.09766,-0.03906 0.09766,-0.09766s-0.03906,-0.09766 -0.09766,-0.09766z" stroke-width="5" stroke-miterlimit="10" stroke-dasharray=""></path><path data-v-9833e8b2="" transform="scale(0.21929824561403508)" fill="none" stroke="currentColor" paint-order="fill stroke markers" d="m48.94899,8.12874m-0.8789,0a0.8789,0.8789 0 1 0 1.75781,0a0.8789,0.8789 0 1 0 -1.75781,0z" stroke-width="5" stroke-miterlimit="10" stroke-dasharray=""></path><path data-v-9833e8b2="" transform="scale(0.21929824561403508)" fill="none" stroke="currentColor" paint-order="fill stroke markers" d="m48.94899,9.78889c-0.91797,0 -1.66015,-0.74219 -1.66015,-1.66015s0.74219,-1.66015 1.66015,-1.66015s1.66015,0.74219 1.66015,1.66015s-0.74219,1.66015 -1.66015,1.66015zm0,-1.75781c-0.05859,0 -0.09766,0.03906 -0.09766,0.09766s0.03906,0.09766 0.09766,0.09766s0.09766,-0.03906 0.09766,-0.09766s-0.03906,-0.09766 -0.09766,-0.09766z" stroke-width="5" stroke-miterlimit="10" stroke-dasharray=""></path><path data-v-9833e8b2="" transform="scale(0.21929824561403508)" fill="none" stroke="currentColor" paint-order="fill stroke markers" d="m80.74548,63.97244l-6.642,-11.6903s4.94209,-3.27563 4.11131,-8.27029l13.47572,0.65422s2.52643,13.51311 -10.94503,19.30637zm-14.5323,-26.11481l-6.20318,-12.67841c11.0771,-7.07915 21.46401,-0.0361 21.46401,-0.0361l-6.4162,13.08448c-3.9835,-3.32075 -8.84464,-0.36997 -8.84464,-0.36997l0,0zm1.03528,14.50572l-6.58235,11.30679c-11.27308,-5.06685 -11.01319,-18.92737 -11.01319,-18.92737l13.47998,-0.64971c-0.409,6.073 4.11557,8.27029 4.11557,8.27029l0,0zm3.40834,-12.02418a4.38398,4.64273 0 1 1 -0.0213,0l0.0213,0z" stroke-width="5" stroke-miterlimit="10" stroke-dasharray=""></path></g></svg>