<svg data-v-9833e8b2="" version="1.1" xmlns="http://www.w3.org/2000/svg" xmlns:xlink="http://www.w3.org/1999/xlink" width="25" height="15"><g data-v-9833e8b2=""><path data-v-9833e8b2="" transform="scale(0.12953367875647667)" fill="none" stroke="currentColor" paint-order="fill stroke markers" d="m28.05,11.61l-27.05,22.53l0,62.43l15.93,0c0,-11.73 9.5,-21.24 21.24,-21.24c11.73,0 21.23,9.5 21.23,21.24l0,-84.96l-31.35,0z" stroke-width="5" stroke-miterlimit="10" stroke-dasharray=""></path><path data-v-9833e8b2="" transform="scale(0.12953367875647667)" fill="none" stroke="currentColor" paint-order="fill stroke markers" d="m70.01,1l0,95.56l58.41,0c0,-11.73 9.5,-21.24 21.24,-21.24c11.73,0 21.23,9.5 21.23,21.24l21.24,0l0,-95.56l-122.12,0z" stroke-width="5" stroke-miterlimit="10" stroke-dasharray=""></path><path data-v-9833e8b2="" transform="scale(0.12953367875647667)" fill="none" stroke="currentColor" paint-order="fill stroke markers" d="m38.16,107.18c5.85,0 10.61,-4.76 10.61,-10.62c0,-5.85 -4.76,-10.62 -10.61,-10.62c-5.86,0 -10.62,4.76 -10.62,10.62s4.76,10.62 10.62,10.62" stroke-width="5" stroke-miterlimit="10" stroke-dasharray=""></path><path data-v-9833e8b2="" transform="scale(0.12953367875647667)" fill="none" stroke="currentColor" paint-order="fill stroke markers" d="m149.66,107.18c5.85,0 10.61,-4.76 10.61,-10.62c0,-5.85 -4.76,-10.62 -10.61,-10.62c-5.86,0 -10.62,4.76 -10.62,10.62c0,5.86 4.75,10.62 10.62,10.62" stroke-width="5" stroke-miterlimit="10" stroke-dasharray=""></path></g></svg>