<svg data-v-9833e8b2="" version="1.1" xmlns="http://www.w3.org/2000/svg" xmlns:xlink="http://www.w3.org/1999/xlink" width="25" height="25"><g data-v-9833e8b2=""><path data-v-9833e8b2="" transform="scale(0.12376237623762376)" fill="none" stroke="currentColor" paint-order="fill stroke markers" d="m177.55183,120.20625l11.71875,0l0,32.95899l-11.71875,0l0,-32.95899zm0,0" stroke-width="5" stroke-miterlimit="10" stroke-dasharray=""></path><path data-v-9833e8b2="" transform="scale(0.12376237623762376)" fill="none" stroke="currentColor" paint-order="fill stroke markers" d="m125.13484,91.59449l-11.46088,2.44598l5.58624,26.1673l-20.66498,0l-3.9093,5.77087l3.9093,5.94788l13.54218,0l-13.54218,13.25378l-3.9093,7.98493l3.9093,8.41217l28.28522,27.68097l-28.28522,0l-3.9093,5.86548l3.9093,5.8548l49.89319,0l-23.35358,-109.38416zm-18.16254,61.78436l16.02173,-15.67993l8.46405,39.64234l-24.48578,-23.9624zm0,0" stroke-width="5" stroke-miterlimit="10" stroke-dasharray=""></path><path data-v-9833e8b2="" transform="scale(0.12376237623762376)" fill="none" stroke="currentColor" paint-order="fill stroke markers" d="m70.31,189.25838l28.28522,-27.68097l0,-16.3971l-13.54218,-13.25378l13.5437,0l0,-11.71875l-20.66498,0l9.37653,-43.91938l-11.46088,-2.44598l-27.14387,127.13624l49.8932,0l0,-11.72027l-28.28675,0zm3.88641,-51.55945l16.02173,15.67993l-24.48578,23.9624l8.46405,-39.64234zm0,0" stroke-width="5" stroke-miterlimit="10" stroke-dasharray=""></path><path data-v-9833e8b2="" transform="scale(0.12376237623762376)" fill="none" stroke="currentColor" paint-order="fill stroke markers" d="m196.21639,108.08161l-97.62116,-40.4358l-13.34686,11.84693l13.34686,19.88678l86.40137,35.78797l11.21979,-27.08588zm0,0" stroke-width="5" stroke-miterlimit="10" stroke-dasharray=""></path><path data-v-9833e8b2="" transform="scale(0.12376237623762376)" fill="none" stroke="currentColor" paint-order="fill stroke markers" d="m43.80396,44.94989l-11.21979,27.08588l66.01105,27.34375l0,-31.73371l-54.79126,-22.69592zm0,0" stroke-width="5" stroke-miterlimit="10" stroke-dasharray=""></path><path data-v-9833e8b2="" transform="scale(0.12376237623762376)" fill="none" stroke="currentColor" paint-order="fill stroke markers" d="m20.5221,84.03223l11.72028,0l0,116.951l-11.72028,0l0,-116.951zm0,0" stroke-width="5" stroke-miterlimit="10" stroke-dasharray=""></path><path data-v-9833e8b2="" transform="scale(0.12376237623762376)" fill="none" stroke="currentColor" paint-order="fill stroke markers" d="m165.82393,147.30586l35.17609,0l0,53.67279l-35.17609,0l0,-53.67279zm0,0" stroke-width="5" stroke-miterlimit="10" stroke-dasharray=""></path><path data-v-9833e8b2="" transform="scale(0.12376237623762376)" fill="none" stroke="currentColor" paint-order="fill stroke markers" d="m24.98377,1l-23.98377,57.90253l0,40.43732l25.42572,10.53314l38.28125,-92.41944l-39.72321,-16.45355zm0,0" stroke-width="5" stroke-miterlimit="10" stroke-dasharray=""></path></g></svg>