<svg data-v-9833e8b2="" version="1.1" xmlns="http://www.w3.org/2000/svg" xmlns:xlink="http://www.w3.org/1999/xlink" width="25" height="12.5"><g data-v-9833e8b2=""><path data-v-9833e8b2="" transform="scale(0.12376237623762376)" fill="none" stroke="currentColor" paint-order="fill stroke markers" d="m2.83391,78.86765c0,2.03795 -1.83391,3.46626 -1.83391,5.30017c0.10202,5.81028 2.95615,10.39629 2.95615,10.39629l61.95968,0l0,-93.5641l-36.47908,0l-19.9764,33.22681s-4.79006,3.56828 -5.81028,7.13407c-1.53033,4.9941 -0.9182,28.02867 -0.81618,37.50676zm20.28247,-44.64083c-2.85413,0 -4.0759,-1.32629 -1.93593,-5.50421l10.69987,-18.66256l27.92914,0l0,24.25883l-36.69307,0l0,-0.09207zm71.54975,-24.46039l-1.11975,0l0,-4.69052l1.11975,0l0,4.69052zm0,0" stroke-width="5" stroke-miterlimit="10" stroke-dasharray=""></path><path data-v-9833e8b2="" transform="scale(0.12376237623762376)" fill="none" stroke="currentColor" paint-order="fill stroke markers" d="m177.7344,84.16781a12.02864,12.02864 0 1 1 -12.02864,12.02864a12.04855,12.04855 0 0 1 12.02864,-12.02864zm-14.47468,12.02864a12.02615,12.02615 0 1 0 -12.02615,12.02615a12.04855,12.04855 0 0 0 12.02615,-12.02615zm-136.67709,-12.02864l-0.10202,0a12.04855,12.04855 0 0 0 -12.02615,12.02864a12.04855,12.04855 0 0 0 12.02615,12.02615l0.20404,0c6.62396,-0.10202 11.92413,-5.70825 11.72008,-12.33222a12.08587,12.08587 0 0 0 -11.82211,-11.72257zm0,0" stroke-width="5" stroke-miterlimit="10" stroke-dasharray=""></path><path data-v-9833e8b2="" transform="scale(0.12376237623762376)" fill="none" stroke="currentColor" paint-order="fill stroke markers" d="m58.78923,84.16781l0,10.3938l142.27337,0l0,-10.3938l-89.78182,0l0,6.41245l-2.23951,0l0,-0.49767l-14.37514,0l0,0.49767l-2.34402,0l0,-6.41245l-33.53288,0zm0,0" stroke-width="5" stroke-miterlimit="10" stroke-dasharray=""></path><path data-v-9833e8b2="" transform="scale(0.12376237623762376)" fill="none" stroke="currentColor" paint-order="fill stroke markers" d="m94.66612,36.26476l-1.11975,0l0,-3.26221l1.11975,0l0,3.26221zm14.27063,51.36931l-14.27063,0l0,-3.46626l14.37266,0l0,3.46626l-0.10202,0zm0,0" stroke-width="5" stroke-miterlimit="10" stroke-dasharray=""></path><path data-v-9833e8b2="" transform="scale(0.12376237623762376)" fill="none" stroke="currentColor" paint-order="fill stroke markers" d="m86.91992,15.37017c-13.96208,0 -17.53036,14.16861 -17.53036,29.86009l0,6.71852c0,15.79847 3.56828,29.86009 17.53036,29.86009l5.30017,0l0,-65.5205l2.34153,0l0,2.54806l14.47468,0l0,-2.54806l2.34402,0l0,65.73947l67.68287,0c13.96457,0 17.53036,-14.16612 17.53036,-29.86009l0,-6.71852c0,-15.79847 -3.56579,-29.86009 -17.53036,-29.86009c0,-0.20404 -92.13828,-0.20404 -92.13828,-0.20404l-0.00498,-0.01493zm0,0" stroke-width="5" stroke-miterlimit="10" stroke-dasharray=""></path><path data-v-9833e8b2="" transform="scale(0.12376237623762376)" fill="none" stroke="currentColor" paint-order="fill stroke markers" d="m89.97809,11.69987l0,-2.85164c0,-2.23951 1.32629,-4.0759 3.05817,-4.0759l18.04047,0c1.62986,0 3.05817,1.83391 3.05817,4.0759l0,2.85164l-24.15681,0zm55.03961,0l-24.15681,0l0,-2.85164c0,-2.23951 1.32629,-4.0759 3.05817,-4.0759l18.04047,0c1.62986,0 3.05817,1.83391 3.05817,4.0759l0,2.85164zm31.08435,0l-24.15432,0l0,-2.85164c0,-2.23951 1.3238,-4.0759 3.05817,-4.0759l18.04047,0c1.62986,0 3.05568,1.83391 3.05568,4.0759l0,2.85164zm-67.16529,63.80603l-14.27063,0l0,-10.9064l14.37266,0l0,10.9064l-0.10202,0zm0,-14.16861l-14.27063,0l0,-10.90391l14.37266,0l0,10.90391l-0.10202,0zm0,20.58853l-14.27063,0l0,-3.16019l14.37266,0l0,3.16019l-0.10202,0zm0,-34.75465l-14.27063,0l0,-10.9064l14.37266,0l0,10.9064l-0.10202,0zm0,-14.16861l-14.27063,0l0,-10.90391l14.37266,0l0,10.90391l-0.10202,0zm0,0" stroke-width="5" stroke-miterlimit="10" stroke-dasharray=""></path></g></svg>