<svg data-v-9833e8b2="" version="1.1" xmlns="http://www.w3.org/2000/svg" xmlns:xlink="http://www.w3.org/1999/xlink" width="19.5" height="25"><g data-v-9833e8b2=""><path data-v-9833e8b2="" transform="scale(0.12376237623762376)" fill="none" stroke="currentColor" paint-order="fill stroke markers" d="m95.44581,1l-21.44318,0l-7.82013,12.4588l7.82013,12.4588l21.44318,0l0,-24.9176zm0,0" stroke-width="5" stroke-miterlimit="10" stroke-dasharray=""></path><path data-v-9833e8b2="" transform="scale(0.12376237623762376)" fill="none" stroke="currentColor" paint-order="fill stroke markers" d="m52.55793,1l21.4447,0l0,24.9176l-21.4447,0l0,-24.9176zm0,0" stroke-width="5" stroke-miterlimit="10" stroke-dasharray=""></path><path data-v-9833e8b2="" transform="scale(0.12376237623762376)" fill="none" stroke="currentColor" paint-order="fill stroke markers" d="m112.41206,20.05823l-38.40942,0l-3.9093,5.85938l3.9093,5.85938l18.8385,0l-18.8385,18.17017l-3.9093,7.88879l3.9093,8.39234l29.97589,28.91235l-29.97589,0l-3.9093,5.85938l3.9093,5.85938l26.91193,0l-26.91193,20.18127l-3.9093,7.1518l3.9093,7.49664l52.11182,39.08082l10.13489,0l-23.83728,-160.71168zm-29.96979,38.02948l20.78858,-20.05005l6.94122,46.79566l-27.7298,-26.74561zm1.32599,76.27717l30.37262,-22.77679l7.60193,51.2558l-37.97455,-28.47901zm0,0" stroke-width="5" stroke-miterlimit="10" stroke-dasharray=""></path><path data-v-9833e8b2="" transform="scale(0.12376237623762376)" fill="none" stroke="currentColor" paint-order="fill stroke markers" d="m47.08918,106.85938l26.91346,0l0,-11.71875l-29.97742,0l29.97742,-28.91235l0,-16.27961l-18.84003,-18.17169l18.84003,0l0,-11.71875l-38.41095,0l-23.83728,160.71168l10.13489,0l52.11335,-39.08082l0,-14.64844l-26.91346,-20.18127zm-2.31629,-68.82172l20.78858,20.05005l-27.7298,26.74561l6.94122,-46.79566zm-18.51196,124.80622l7.60193,-51.2558l30.37262,22.77679l-37.97455,28.47901zm0,0" stroke-width="5" stroke-miterlimit="10" stroke-dasharray=""></path><path data-v-9833e8b2="" transform="scale(0.12376237623762376)" fill="none" stroke="currentColor" paint-order="fill stroke markers" d="m147.00373,176.08241l-73.0011,0l-7.82013,12.4588l7.82013,12.4588l73.0011,0l0,-24.9176zm0,0" stroke-width="5" stroke-miterlimit="10" stroke-dasharray=""></path><path data-v-9833e8b2="" transform="scale(0.12376237623762376)" fill="none" stroke="currentColor" paint-order="fill stroke markers" d="m1,176.08241l73.00263,0l0,24.9176l-73.00263,0l0,-24.9176zm0,0" stroke-width="5" stroke-miterlimit="10" stroke-dasharray=""></path></g></svg>