<svg data-v-9833e8b2="" version="1.1" xmlns="http://www.w3.org/2000/svg" xmlns:xlink="http://www.w3.org/1999/xlink" width="25" height="22.5"><g data-v-9833e8b2=""><path data-v-9833e8b2="" transform="scale(0.14792899408284024)" fill="none" stroke="currentColor" paint-order="fill stroke markers" d="m79.3998,103.19973l-14.99996,2.19999c-1.2,0.2 -1.99999,1.2 -1.8,2.39999c0.2,1 1,1.8 1.99999,1.8l0.4,0l14.99996,-2.19999c1.2,-0.2 1.99999,-1.2 1.8,-2.39999c-0.2,-1.2 -1.4,-1.99999 -2.39999,-1.8zm17.19996,-10.39997l-14.79996,2.19999c-1.2,0.2 -1.99999,1.2 -1.8,2.39999c0.2,1 1,1.8 1.99999,1.8l0.4,0l14.99996,-2.19999c1.2,-0.2 1.99999,-1.2 1.8,-2.39999c-0.4,-1.2 -1.4,-1.99999 -2.59999,-1.8zm17.39995,-10.39997l-14.99996,2.19999c-1.2,0.2 -1.99999,1.2 -1.8,2.39999c0.2,1 1,1.8 1.99999,1.8l0.4,0l14.99996,-2.19999c1.2,-0.2 1.99999,-1.2 1.8,-2.39999c-0.2,-1.2 -1.2,-1.99999 -2.39999,-1.8zm17.39995,-10.39997l-14.99996,2.19999c-1.2,0.2 -1.99999,1.2 -1.8,2.39999c0.2,1 1,1.8 1.99999,1.8l0.4,0l14.99996,-2.19999c1.2,-0.2 1.99999,-1.2 1.8,-2.39999c-0.2,-1.2 -1.4,-1.99999 -2.39999,-1.8zm17.19996,-10.19997l-14.79996,2.19999c-1.2,0.2 -1.99999,1.2 -1.8,2.39999c0.2,1 1,1.8 1.99999,1.8l0.4,0l14.99996,-2.19999c1.2,-0.2 1.99999,-1.2 1.8,-2.39999c-0.4,-1.2 -1.4,-1.99999 -2.59999,-1.8zm-145.19962,-4.19999c1.2,0 1.99999,-1 1.99999,-1.99999l0,-5.59999c1.99999,-1.8 4.39999,-3.39999 6.99998,-4.39999l0,4.19999c0,1.2 1,1.99999 1.99999,1.99999c1.2,0 1.99999,-1 1.99999,-1.99999l0,-5.79998c2.39999,-0.8 4.99999,-1.4 7.99998,-1.99999l0,4.39999c0,1.2 1,1.99999 1.99999,1.99999c1.2,0 1.99999,-1 1.99999,-1.99999l0,-4.99999c2.39999,-0.4 5.19999,-0.8 7.99998,-1l0,4.59999c0,1.2 1,1.99999 1.99999,1.99999c1.2,0 1.99999,-1 1.99999,-1.99999l0,-6.79998l0,-0.2l0,-0.2c0,-0.2 0,-0.4 -0.2,-0.4c-0.4,-0.8 -1.2,-1.4 -1.99999,-1.4c-11.59997,1 -20.59995,2.79999 -27.19993,5.39999c-3.59999,1.4 -6.79998,3.39999 -9.39998,6.19998c-0.4,0.4 -0.6,1 -0.6,1.4l0,6.39998c0.2,1.2 1.2,2.19999 2.39999,2.19999zm42.99989,-34.39991c1.2,0 1.99999,-1 1.99999,-1.99999l0,-5.59999c1.99999,-1.8 4.39999,-3.39999 6.99998,-4.39999l0,4.19999c0,1.2 1,1.99999 1.99999,1.99999c1.2,0 1.99999,-1 1.99999,-1.99999l0,-5.79998c2.39999,-0.8 4.99999,-1.4 7.99998,-1.99999l0,4.39999c0,1.2 1,1.99999 1.99999,1.99999c1.2,0 1.99999,-1 1.99999,-1.99999l0,-4.99999c2.39999,-0.4 5.19999,-0.8 7.99998,-1l0,4.59999c0,1.2 1,1.99999 1.99999,1.99999c1.2,0 1.99999,-1 1.99999,-1.99999l0,-4.99999c2.59999,-0.2 5.19999,-0.4 7.99998,-0.4l0,4.79999c0,1.2 1,1.99999 1.99999,1.99999c1.2,0 1.99999,-1 1.99999,-1.99999l0,-4.99999c2.59999,0 5.19999,-0.2 7.99998,-0.2l0,5.39999l0.2,0.2c0,0.2 0.2,0.2 0.2,0.4c0,0 0.2,0.2 0.4,0.2s0.2,0.2 0.4,0.2l1.6,0c0.2,0 0.2,-0.2 0.4,-0.2l0.2,-0.2l0.4,-0.4l0.2,-0.2l0,-0.4l0,-4.99999c2.79999,0 5.39999,0 7.99998,0.2l0,4.99999c0,1.2 1,1.99999 1.99999,1.99999c1.2,0 1.99999,-1 1.99999,-1.99999l0,-4.79999c2.79999,0.2 5.39999,0.2 7.99998,0.4l0,4.99999c0,1.2 1,1.99999 1.99999,1.99999c1.2,0 1.99999,-1 1.99999,-1.99999l0,-4.59999c2.79999,0.2 5.59999,0.6 7.99998,1l0,4.99999c0,1.2 1,1.99999 1.99999,1.99999c1.2,0 1.99999,-1 1.99999,-1.99999l0,-4.39999c2.99999,0.6 5.59999,1.2 7.99998,1.99999l0,5.79998c0,1.2 1,1.99999 1.99999,1.99999c1.2,0 1.99999,-1 1.99999,-1.99999l0,-4.19999c2.59999,1 4.99999,2.59999 6.99998,4.39999l0,5.59999c0,1.2 1,1.99999 1.99999,1.99999c1.2,0 1.99999,-1 1.99999,-1.99999l0,-6.59998c0,-0.6 -0.2,-1.2 -0.6,-1.4c-2.79999,-2.59999 -5.99998,-4.59999 -9.39998,-5.99998c-10.79997,-4.19999 -27.19993,-6.19998 -51.79987,-6.19998c-24.59994,0 -40.99989,1.99999 -51.79987,6.19998c-3.59999,1.4 -6.79998,3.39999 -9.39998,6.19998c-0.4,0.4 -0.6,1 -0.6,1.4l0,6.39998c1.4,1 2.39999,1.99999 3.59999,1.99999z" stroke-width="5" stroke-miterlimit="10" stroke-dasharray=""></path><path data-v-9833e8b2="" transform="scale(0.14792899408284024)" fill="none" stroke="currentColor" paint-order="fill stroke markers" d="m154.9996,19.79995c-9.79997,-3.79999 -25.19993,-5.59999 -48.79987,-5.59999c-23.39994,0 -38.9999,1.8 -48.79987,5.59999c-7.99998,3.19999 -13.19997,10.79997 -13.19997,19.59995l0,103.99973c0,1.2 1,1.99999 1.99999,1.99999l119.79969,0c1.2,0 1.99999,-1 1.99999,-1.99999l0,-103.99973c0.2,-8.79998 -4.99999,-16.39996 -12.99997,-19.59995zm-106.59972,121.59968l0,-21.79994l14.19996,-1.99999c1.2,-0.2 1.99999,-1.2 1.8,-2.39999c-0.2,-1.2 -1.2,-1.8 -2.39999,-1.8l-13.59996,1.99999l0,-75.9998c0,-6.99998 4.19999,-13.19997 10.59997,-15.79996c9.19998,-3.59999 24.59994,-5.39999 47.19988,-5.39999s37.9999,1.8 47.19988,5.39999c6.39998,2.59999 10.59997,8.79998 10.59997,15.79996l0,12.19997l-12.99997,1.99999c-1.2,0.2 -1.99999,1.2 -1.8,2.39999c0.2,1 1,1.8 1.99999,1.8l0.4,0l12.39997,-1.8l0,85.59978l-115.5997,0l0,-0.2zm-8.59998,0l-34.39991,0l0,-70.19982c0,-4.59999 2.79999,-8.59998 6.99998,-10.39997c4.99999,-1.99999 13.39997,-4.79999 26.59993,-5.39999c1.2,0 1.99999,-1 1.99999,-2.19999c0,-1.2 -1,-1.99999 -2.19999,-1.99999c-13.99996,0.6 -22.59994,3.39999 -27.99993,5.59999c-5.79998,2.39999 -9.59998,7.79998 -9.59998,14.19996l0,72.19981c0,1.2 1,1.99999 1.99999,1.99999l36.59991,0c1.2,0 1.99999,-1 1.99999,-1.99999s-0.8,-1.8 -1.99999,-1.8z" stroke-width="5" stroke-miterlimit="10" stroke-dasharray=""></path><path data-v-9833e8b2="" transform="scale(0.14792899408284024)" fill="none" stroke="currentColor" paint-order="fill stroke markers" d="m38.7999,53.39986c-12.99997,0.6 -21.19995,3.19999 -27.19993,5.39999c-4.99999,1.99999 -8.19998,6.79998 -8.19998,12.19997l0,72.19981l44.39988,0l0,-89.99977l-8.99998,0l0,0.2z" stroke-width="5" stroke-miterlimit="10" stroke-dasharray=""></path><path data-v-9833e8b2="" transform="scale(0.14792899408284024)" fill="none" stroke="currentColor" paint-order="fill stroke markers" d="m46.39988,143.39963l119.79969,0l0,-103.99973c0,-7.79998 -4.59999,-14.79996 -11.79997,-17.59995c-9.59998,-3.79999 -25.39993,-5.59999 -47.99988,-5.59999s-38.3999,1.8 -47.99988,5.59999c-7.19998,2.79999 -11.79997,9.99997 -11.79997,17.59995l0,103.99973l-0.2,0z" stroke-width="5" stroke-miterlimit="10" stroke-dasharray=""></path></g></svg>