<svg data-v-9833e8b2="" version="1.1" xmlns="http://www.w3.org/2000/svg" xmlns:xlink="http://www.w3.org/1999/xlink" width="25" height="17.5"><g data-v-9833e8b2=""><path data-v-9833e8b2="" transform="scale(0.16447368421052633)" fill="none" stroke="currentColor" paint-order="fill stroke markers" d="m121.73663,107.37331l0,-24.63287c0,-4.91798 -4.00196,-8.91994 -8.9219,-8.91994l-13.92191,0l0,-29.47664l13.92191,0c21.17193,0 38.39853,17.22465 38.39853,38.39658l0,24.63287l-29.47664,0z" stroke-width="5" stroke-miterlimit="10" stroke-dasharray=""></path><path data-v-9833e8b2="" transform="scale(0.16447368421052633)" fill="none" stroke="currentColor" paint-order="fill stroke markers" d="m112.81473,48.32629l-9.93753,0l0,21.50982l9.93753,0c7.11525,0 12.90628,5.78908 12.90628,12.90238l0,20.65044l21.50787,0l0,-20.64849c0,-19.00395 -15.40824,-34.41415 -34.41415,-34.41415z" stroke-width="5" stroke-miterlimit="10" stroke-dasharray=""></path><path data-v-9833e8b2="" transform="scale(0.16447368421052633)" fill="none" stroke="currentColor" paint-order="fill stroke markers" d="m1,107.37331l0,-24.63287c0,-21.17193 17.22465,-38.39658 38.39853,-38.39658l13.91996,0l0,29.47664l-13.91996,0c-4.91993,0 -8.92385,4.00196 -8.92385,8.91994l0,24.63287l-29.47468,0z" stroke-width="5" stroke-miterlimit="10" stroke-dasharray=""></path><path data-v-9833e8b2="" transform="scale(0.16447368421052633)" fill="none" stroke="currentColor" paint-order="fill stroke markers" d="m39.39853,48.32629c-19.00786,0 -34.41415,15.40824 -34.41415,34.4122l0,20.65044l21.50787,0l0,-20.64849c0,-7.1133 5.78908,-12.90238 12.90628,-12.90238l9.93753,0l0,-21.51177l-9.93753,0z" stroke-width="5" stroke-miterlimit="10" stroke-dasharray=""></path><path data-v-9833e8b2="" transform="scale(0.16447368421052633)" fill="none" stroke="currentColor" paint-order="fill stroke markers" d="m55.70912,82.69356c-5.71095,0 -10.3594,-4.6465 -10.3594,-10.35745l0,-26.66022c0,-5.17775 3.81837,-9.48049 8.78713,-10.24026c1.48633,-2.57032 4.2715,-4.30079 7.39846,-4.30079l6.8926,0l0,-8.19729l-25.46881,0c-4.39454,0 -7.96877,-3.57423 -7.96877,-7.96682c0,-4.39454 3.57423,-7.96877 7.96877,-7.96877l0.0957,0l25.37311,1.22071l0,-7.22267l15.3516,0l0,7.2383l25.37116,-1.23633l0.09766,0c4.39259,0 7.96682,3.57423 7.96682,7.96877c0,4.39259 -3.57423,7.96682 -7.96682,7.96682l-25.46881,0l-0.00195,8.19729l6.8926,0c3.12696,0 5.91212,1.72852 7.39846,4.30079c4.96876,0.75977 8.78713,5.06056 8.78713,10.24026l0,26.66022c0,5.71095 -4.6465,10.35745 -10.35745,10.35745l-40.78917,0z" stroke-width="5" stroke-miterlimit="10" stroke-dasharray=""></path><path data-v-9833e8b2="" transform="scale(0.16447368421052633)" fill="none" stroke="currentColor" paint-order="fill stroke markers" d="m109.25027,10.98635l-29.4532,1.4336l0,-7.43557l-7.38283,0l0,7.41994l-29.4532,-1.41797c-2.20118,0 -3.98439,1.78321 -3.98439,3.98439c0,2.19922 1.78321,3.98243 3.98439,3.98243l29.4532,0l0,16.16606l-10.87698,0c-2.38868,0 -4.34571,1.8418 -4.53517,4.18165l-1.29297,0c-3.52149,0 -6.37502,2.85352 -6.37502,6.37502l0,26.66218c0,3.51954 2.85352,6.37306 6.37502,6.37306l40.79307,0c3.51954,0 6.37306,-2.85352 6.37306,-6.37306l0,-26.66413c0,-3.52149 -2.85352,-6.37502 -6.37306,-6.37502l-1.29493,0c-0.18945,-2.33985 -2.14454,-4.18165 -4.53517,-4.18165l-10.87698,0l0,-16.1641l29.45515,0c2.19922,0 3.98243,-1.78321 3.98243,-3.98243c0.00195,-2.20118 -1.78321,-3.98439 -3.98243,-3.98439z" stroke-width="5" stroke-miterlimit="10" stroke-dasharray=""></path><path data-v-9833e8b2="" transform="scale(0.16447368421052633)" fill="none" stroke="currentColor" paint-order="fill stroke markers" d="m96.50219,43.28526l-4.96876,0l-0.29688,-3.66212c-0.01953,-0.25586 -0.23633,-0.51953 -0.56445,-0.51953l-29.13484,0c-0.32617,0 -0.54297,0.26367 -0.56445,0.51953l-0.29492,3.66212l-4.96876,0c-1.31836,0 -2.39063,1.07227 -2.39063,2.39063l0,2.65235l45.57238,0l0,-2.65235c0.00195,-1.31836 -1.07032,-2.39063 -2.38868,-2.39063z" stroke-width="5" stroke-miterlimit="10" stroke-dasharray=""></path></g></svg>