<svg data-v-9833e8b2="" version="1.1" xmlns="http://www.w3.org/2000/svg" xmlns:xlink="http://www.w3.org/1999/xlink" width="25" height="22.5"><g data-v-9833e8b2=""><path data-v-9833e8b2="" transform="scale(0.13513513513513514)" fill="none" stroke="currentColor" paint-order="fill stroke markers" d="m164.1,62.17c-11.26,0 -20.38,9.12 -20.38,20.38l-20.38,0l0,-40.77l-20.39,0l0,-20.4l50.97,0c5.62,0 10.18,-4.56 10.18,-10.18c0,-5.64 -4.56,-10.2 -10.18,-10.2l-50.97,0l-20.4,0l-50.97,0c-5.62,0 -10.18,4.56 -10.18,10.2c0,5.62 4.56,10.18 10.18,10.18l50.97,0l0,20.4l-20.38,0l0,40.77l-20.39,0c0,-11.26 -9.12,-20.38 -20.38,-20.38c-11.26,0 -20.4,9.12 -20.4,20.38l0,71.35c0,11.26 9.14,20.4 20.4,20.4c11.26,0 20.38,-9.14 20.38,-20.4l101.93,0c0,11.26 9.12,20.4 20.38,20.4c11.26,0 20.4,-9.14 20.4,-20.4l0,-71.35c0.01,-11.26 -9.13,-20.38 -20.39,-20.38z" stroke-width="5" stroke-miterlimit="10" stroke-dasharray=""></path></g></svg>