<svg data-v-9833e8b2="" version="1.1" xmlns="http://www.w3.org/2000/svg" xmlns:xlink="http://www.w3.org/1999/xlink" width="25" height="22.5"><g data-v-9833e8b2=""><path data-v-9833e8b2="" transform="scale(0.13736263736263737)" fill="none" stroke="currentColor" paint-order="fill stroke markers" d="m107.73053,7.20002l-1,0a14.90004,14.90004 0 0 0 -14.90004,13.80003c-0.5,-7.70002 -9.50002,-11.40003 -9.50002,-11.40003a35.60009,35.60009 0 0 0 -11.50003,-2.50001l-23.40006,0a6.00002,6.00002 0 0 0 -6.00002,6.00002l0,40.6001a6.00002,6.00002 0 0 0 6.00002,6.00002l11.00003,0a6.00002,6.00002 0 0 1 6.00002,6.00002l0,70.00018a6.00002,6.00002 0 0 0 6.00002,6.00002l45.40011,0a6.00002,6.00002 0 0 0 6.00002,-6.00002l0,-70.00018a6.00002,6.00002 0 0 1 6.00002,-6.00002l9.30002,0a6.00002,6.00002 0 0 0 6.00002,-6.00002l0,-40.6001a6.00002,6.00002 0 0 0 -6.00002,-6.00002l-29.40007,0" stroke-width="5" stroke-miterlimit="10" stroke-dasharray=""></path><path data-v-9833e8b2="" transform="scale(0.13736263736263737)" fill="none" stroke="currentColor" paint-order="fill stroke markers" d="m20.63031,1l15.90004,0l0,66.10017l-15.90004,0l0,-66.10017z" stroke-width="5" stroke-miterlimit="10" stroke-dasharray=""></path><path data-v-9833e8b2="" transform="scale(0.13736263736263737)" fill="none" stroke="currentColor" paint-order="fill stroke markers" d="m147.13063,1l15.90004,0l0,66.10017l-15.90004,0l0,-66.10017z" stroke-width="5" stroke-miterlimit="10" stroke-dasharray=""></path><path data-v-9833e8b2="" transform="scale(0.13736263736263737)" fill="none" stroke="currentColor" paint-order="fill stroke markers" d="m52.03039,147.60037l80.0002,0l0,13.50003l-80.0002,0l0,-13.50003z" stroke-width="5" stroke-miterlimit="10" stroke-dasharray=""></path><path data-v-9833e8b2="" transform="scale(0.13736263736263737)" fill="none" stroke="currentColor" paint-order="fill stroke markers" d="m13.83029,30.20007l-3.00001,0c-1.4,0 -2.50001,-2.60001 -2.50001,-5.80001a10.00003,10.00003 0 0 0 -7.30002,10.00003a7.50002,7.50002 0 0 0 2.40001,6.20002c2.70001,1.9 4.90001,2.40001 4.90001,1.1a2.50001,2.50001 0 0 1 2.50001,-2.60001c1.4,0 2.50001,1.8 2.50001,3.90001s0.6,3.90001 1.3,3.90001s1.3,-2.70001 1.3,-6.00002l0,-13.00003c0,-3.30001 -0.6,-6.00002 -1.3,-6.00002s-1.3,1.9 -1.3,4.10001l0,4.10001m160.8004,-5.00001l0,2.30001a2.50001,2.50001 0 0 1 -2.50001,2.30001c-1.4,0 -2.50001,-1.8 -2.50001,-3.90001s-0.6,-3.90001 -1.3,-3.90001s-1.3,2.70001 -1.3,6.00002l0,13.10003c0,3.30001 0.6,6.00002 1.3,6.00002s1.3,-1.9 1.3,-4.10001s1.1,-4.10001 2.50001,-4.10001s2.50001,2.60001 2.50001,5.80001a10.00003,10.00003 0 0 0 0,-19.30005" stroke-width="5" stroke-miterlimit="10" stroke-dasharray=""></path></g></svg>