<svg data-v-9833e8b2="" version="1.1" xmlns="http://www.w3.org/2000/svg" xmlns:xlink="http://www.w3.org/1999/xlink" width="25" height="15"><g data-v-9833e8b2=""><path data-v-9833e8b2="" transform="scale(0.14204545454545456)" fill="none" stroke="currentColor" paint-order="fill stroke markers" d="m163.46058,22.54292l0,56.89438l-49.78503,-28.4179l49.78503,-28.47649m12.49997,-21.54291l-87.48024,50.0194l87.48024,49.94128l0,-99.96068z" stroke-width="5" stroke-miterlimit="10" stroke-dasharray=""></path><path data-v-9833e8b2="" transform="scale(0.14204545454545456)" fill="none" stroke="currentColor" paint-order="fill stroke markers" d="m13.49997,22.54292l49.78503,28.47649l-49.78503,28.4179l0,-56.89438m-12.49997,-21.54291l0,99.96068l87.48024,-49.94128l-87.48024,-50.0194z" stroke-width="5" stroke-miterlimit="10" stroke-dasharray=""></path><path data-v-9833e8b2="" transform="scale(0.14204545454545456)" fill="none" stroke="currentColor" paint-order="fill stroke markers" d="m59,50.96098c0,-16.0221 12.9779,-29 29,-29c16.0221,0 29,12.9779 29,29c0,16.0221 -12.9779,29 -29,29c-16.0221,0 -29,-12.9779 -29,-29z" stroke-width="5" stroke-miterlimit="10" stroke-dasharray=""></path></g></svg>