<svg data-v-9833e8b2="" version="1.1" xmlns="http://www.w3.org/2000/svg" xmlns:xlink="http://www.w3.org/1999/xlink" width="27" height="25"><g data-v-9833e8b2=""><path data-v-9833e8b2="" transform="scale(0.14204545454545456)" fill="none" stroke="currentColor" paint-order="fill stroke markers" d="m74.47284,35.61337l-67.59587,0c-3.2461,0 -5.87697,-2.63087 -5.87697,-5.87697l0,-22.85943c0,-3.2461 2.63087,-5.87697 5.87697,-5.87697l67.59587,0c3.2461,0 5.87697,2.63087 5.87697,5.87697l0,22.85748c0.00195,3.24806 -2.62891,5.87892 -5.87697,5.87892zm-61.71695,-11.75589l55.83998,0l0,-11.10159l-55.83998,0l0,11.10159zm149.23475,152.11562l-22.86139,0c-3.24415,0 -5.87697,-2.63282 -5.87697,-5.87697l0,-67.59783c0,-3.24415 2.63282,-5.87697 5.87697,-5.87697l22.86139,0c3.24415,0 5.87697,2.63282 5.87697,5.87697l0,67.59587c0,3.2461 -2.63282,5.87892 -5.87697,5.87892zm-16.98442,-11.75589l11.1055,0l0,-55.83998l-11.1055,0l0,55.83998z" stroke-width="5" stroke-miterlimit="10" stroke-dasharray=""></path><path data-v-9833e8b2="" transform="scale(0.14204545454545456)" fill="none" stroke="currentColor" paint-order="fill stroke markers" d="m139.27379,161.99064l-53.6974,0c-39.79502,0 -72.16815,-32.37508 -72.16815,-72.16815l0,-57.61733l11.75589,0l0,57.61733c0,33.31258 27.10163,60.41226 60.41226,60.41226l53.6974,0l0,11.75589z" stroke-width="5" stroke-miterlimit="10" stroke-dasharray=""></path><path data-v-9833e8b2="" transform="scale(0.14204545454545456)" fill="none" stroke="currentColor" paint-order="fill stroke markers" d="m139.14488,122.81476l-48.34387,0c-14.59183,0 -26.46491,-11.87112 -26.46491,-26.46296l0,-66.60368l11.75589,0l0,66.60564c0,8.1094 6.59767,14.70707 14.70902,14.70707l48.34387,0l0,11.75394z" stroke-width="5" stroke-miterlimit="10" stroke-dasharray=""></path><path data-v-9833e8b2="" transform="scale(0.14204545454545456)" fill="none" stroke="currentColor" paint-order="fill stroke markers" d="m72.66424,138.94175c-14.59183,0 -26.46296,-11.87112 -26.46296,-26.46296c0,-3.24415 2.63087,-5.87697 5.87697,-5.87697s5.87697,2.63282 5.87697,5.87697c0,8.1094 6.59767,14.70707 14.70707,14.70707c3.2461,0 5.87697,2.63282 5.87697,5.87697c0.00195,3.2461 -2.62891,5.87892 -5.87501,5.87892z" stroke-width="5" stroke-miterlimit="10" stroke-dasharray=""></path></g></svg>