<svg data-v-9833e8b2="" version="1.1" xmlns="http://www.w3.org/2000/svg" xmlns:xlink="http://www.w3.org/1999/xlink" width="17" height="25"><g data-v-9833e8b2=""><path data-v-9833e8b2="" transform="scale(0.13736263736263737)" fill="none" stroke="currentColor" paint-order="fill stroke markers" d="m97.56,30.53c-0.34,-16.71 -21.44,-29.53 -45.75,-29.53c-23.98,0 -43.46,13.13 -44.3,29.53l-0.08,0l0,30.45l90.14,0l0,-30.45l-0.01,0z" stroke-width="5" stroke-miterlimit="10" stroke-dasharray=""></path><path data-v-9833e8b2="" transform="scale(0.13736263736263737)" fill="none" stroke="currentColor" paint-order="fill stroke markers" d="m7.44,168.29l0,-103.01l90.14,0l0,103.02l-90.14,0l0,-0.01z" stroke-width="5" stroke-miterlimit="10" stroke-dasharray=""></path><path data-v-9833e8b2="" transform="scale(0.13736263736263737)" fill="none" stroke="currentColor" paint-order="fill stroke markers" d="m5.29,172.59l94.43,0c2.37,0 4.29,1.92 4.29,4.29c0,2.37 -1.92,4.29 -4.29,4.29l-94.43,0c-2.37,0 -4.29,-1.92 -4.29,-4.29c0,-2.37 1.92,-4.29 4.29,-4.29l0,0z" stroke-width="5" stroke-miterlimit="10" stroke-dasharray=""></path></g></svg>