<svg data-v-9833e8b2="" version="1.1" xmlns="http://www.w3.org/2000/svg" xmlns:xlink="http://www.w3.org/1999/xlink" width="25" height="17.5"><g data-v-9833e8b2=""><path data-v-9833e8b2="" transform="scale(0.14367816091954022)" fill="none" stroke="currentColor" paint-order="fill stroke markers" d="m14,11.84999l147,0l0,97l-147,0l0,-97z" stroke-width="5" stroke-miterlimit="10" stroke-dasharray=""></path><path data-v-9833e8b2="" transform="scale(0.14367816091954022)" fill="none" stroke="currentColor" paint-order="fill stroke markers" d="m1,109.84999l172,0l0,14l-172,0l0,-14z" stroke-width="5" stroke-miterlimit="10" stroke-dasharray=""></path><path data-v-9833e8b2="" transform="scale(0.14367816091954022)" fill="none" stroke="currentColor" paint-order="fill stroke markers" d="m32,6.84999l36,0l0,5l-36,0l0,-5z" stroke-width="5" stroke-miterlimit="10" stroke-dasharray=""></path><path data-v-9833e8b2="" transform="scale(0.14367816091954022)" fill="none" stroke="currentColor" paint-order="fill stroke markers" d="m36,1.28334l7,0l0,5l-7,0l0,-5z" stroke-width="5" stroke-miterlimit="10" stroke-dasharray=""></path><path data-v-9833e8b2="" transform="scale(0.14367816091954022)" fill="none" stroke="currentColor" paint-order="fill stroke markers" d="m45.5,1.78333l7,0l0,5l-7,0l0,-5z" stroke-width="5" stroke-miterlimit="10" stroke-dasharray=""></path><path data-v-9833e8b2="" transform="scale(0.14367816091954022)" fill="none" stroke="currentColor" paint-order="fill stroke markers" d="m56.5,1.78333l7,0l0,5l-7,0l0,-5z" stroke-width="5" stroke-miterlimit="10" stroke-dasharray=""></path><path data-v-9833e8b2="" transform="scale(0.14367816091954022)" fill="none" stroke="currentColor" paint-order="fill stroke markers" d="m106,6.56665l36,0l0,5l-36,0l0,-5z" stroke-width="5" stroke-miterlimit="10" stroke-dasharray=""></path><path data-v-9833e8b2="" transform="scale(0.14367816091954022)" fill="none" stroke="currentColor" paint-order="fill stroke markers" d="m110,1l7,0l0,5l-7,0l0,-5z" stroke-width="5" stroke-miterlimit="10" stroke-dasharray=""></path><path data-v-9833e8b2="" transform="scale(0.14367816091954022)" fill="none" stroke="currentColor" paint-order="fill stroke markers" d="m119.5,1.49998l7,0l0,5l-7,0l0,-5z" stroke-width="5" stroke-miterlimit="10" stroke-dasharray=""></path><path data-v-9833e8b2="" transform="scale(0.14367816091954022)" fill="none" stroke="currentColor" paint-order="fill stroke markers" d="m130.5,1.49998l7,0l0,5l-7,0l0,-5z" stroke-width="5" stroke-miterlimit="10" stroke-dasharray=""></path></g></svg>