<svg data-v-9833e8b2="" version="1.1" xmlns="http://www.w3.org/2000/svg" xmlns:xlink="http://www.w3.org/1999/xlink" width="25" height="22.5"><g data-v-9833e8b2=""><path data-v-9833e8b2="" transform="scale(0.1968503937007874)" fill="none" stroke="currentColor" paint-order="fill stroke markers" d="m57.25016,26.00006l0,-12.50003l-37.50009,0a6.25002,6.25002 0 1 1 0,-12.50003l87.50022,0a6.25002,6.25002 0 0 1 0,12.50003l-37.50009,0l0,12.50003l6.25002,0a6.25002,6.25002 0 0 1 6.25002,6.25002l0,18.75005l7.31252,0a18.7563,18.7563 0 0 1 36.43759,6.25002l0,37.50009a18.75005,18.75005 0 0 1 -36.43759,6.25002l-52.12513,0a18.7563,18.7563 0 0 1 -36.43759,-6.25002l0,-37.50009a18.75005,18.75005 0 0 1 36.43759,-6.25002l7.31252,0l0,-18.75005a6.25002,6.25002 0 0 1 6.25002,-6.25002l6.25002,0zm-6.25002,37.50009l-12.50003,0l0,25.00006l50.00013,0l0,-25.00006l-37.50009,0zm-25.00006,-6.25002a6.25002,6.25002 0 1 0 -12.50003,0l0,37.50009a6.25002,6.25002 0 0 0 12.50003,0l0,-37.50009zm75.00019,37.50009a6.25002,6.25002 0 0 0 12.50003,0l0,-37.50009a6.25002,6.25002 0 0 0 -12.50003,0l0,37.50009zm-43.75011,-43.75011l12.50003,0l0,-12.50003l-12.50003,0l0,12.50003z" stroke-width="5" stroke-miterlimit="10" stroke-dasharray=""></path></g></svg>