<svg data-v-9833e8b2="" version="1.1" xmlns="http://www.w3.org/2000/svg" xmlns:xlink="http://www.w3.org/1999/xlink" width="25" height="25"><g data-v-9833e8b2=""><path data-v-9833e8b2="" transform="scale(0.13368983957219252)" fill="none" stroke="currentColor" paint-order="fill stroke markers" d="m14.76739,178.6732a6.98049,6.98049 0 0 1 -8.52932,4.94142c-3.68751,-0.90235 -6.03712,-4.79298 -4.98634,-8.53322l45.00207,-168.85394c0.94922,-3.78907 4.78907,-5.98634 8.59377,-4.98634a6.96291,6.96291 0 0 1 4.98829,8.58401l-45.05871,168.84808l-0.00977,0zm74.49628,-134.3226c0,-2.29688 1.95313,-4.14454 4.29689,-4.14454a4.13478,4.13478 0 0 1 4.14454,4.14454l0,14.66801c0,2.29883 -1.84961,4.2422 -4.14454,4.2422a4.31251,4.31251 0 0 1 -4.29689,-4.2422l0,-14.66801zm0,36.37314a4.2461,4.2461 0 0 1 4.29689,-4.23634c2.29493,0 4.14454,1.8418 4.14454,4.23634l0,17.51958c0,2.38868 -1.84961,4.3379 -4.14454,4.3379a4.33595,4.33595 0 0 1 -4.29689,-4.3379l0,-17.51958zm0,36.42783a4.29689,4.29689 0 0 1 4.29689,-4.29689c2.29493,0 4.14454,1.89454 4.14454,4.29689l0,20.4063a4.10157,4.10157 0 0 1 -4.14454,4.14064c-2.34376,0 -4.29689,-1.79688 -4.29689,-4.14064l0,-20.4063zm0,36.27158c0,-2.29297 1.95313,-4.14064 4.29689,-4.14064a4.13478,4.13478 0 0 1 4.14454,4.14064l0,23.50006a4.13868,4.13868 0 0 1 -4.14454,4.14649c-2.34376,0 -4.29689,-1.85157 -4.29689,-4.14649l0,-23.50006zm0,-145.34802a4.29689,4.29689 0 0 1 4.29689,-4.29689c2.29493,0 4.14454,1.89844 4.14454,4.29689l0,11.58206c0,2.29297 -1.84961,4.29689 -4.14454,4.29689a4.35939,4.35939 0 0 1 -4.29689,-4.29689l0,-11.58206zm37.92392,1.75782a7.01955,7.01955 0 0 1 13.56839,-3.59767l45.05675,168.84613a6.88869,6.88869 0 0 1 -5.04298,8.53322a7.05861,7.05861 0 0 1 -8.5801,-4.94142l-45.00207,-168.84808l0,0.00781z" stroke-width="5" stroke-miterlimit="10" stroke-dasharray=""></path></g></svg>