<svg data-v-9833e8b2="" version="1.1" xmlns="http://www.w3.org/2000/svg" xmlns:xlink="http://www.w3.org/1999/xlink" width="25" height="17.5"><g data-v-9833e8b2=""><path data-v-9833e8b2="" transform="scale(0.1404494382022472)" fill="none" stroke="currentColor" paint-order="fill stroke markers" d="m42.11121,48.7779l40.0001,0l-13.33337,-23.33339l-26.66673,0l0,23.33339zm78.88909,32.2223l-88.88911,0c-4.44446,0 -7.7778,1.11111 -11.11114,4.44446c-2.22223,2.22223 -4.44446,6.66668 -4.44446,10.00003c0,4.44445 2.22223,6.66668 4.44446,10.00003s6.66668,4.44445 11.11114,4.44445l88.88911,0c4.44445,0 7.7778,-1.11111 11.11114,-4.44445c2.22223,-2.22223 4.44445,-5.55557 4.44445,-10.00003s-2.22223,-7.7778 -4.44445,-10.00003c-2.22223,-3.33334 -6.66668,-4.44446 -11.11114,-4.44446zm2.22223,5.55557c-4.44446,0 -8.88891,4.44445 -8.88891,8.88891s4.44445,8.88891 8.88891,8.88891s8.88891,-4.44446 8.88891,-8.88891c-1.11111,-5.55557 -4.44446,-8.88891 -8.88891,-8.88891zm-65.55572,0l0,17.77782l37.77787,0l0,-17.77782l-37.77787,0zm-26.66673,0c-4.44446,0 -8.88891,4.44445 -8.88891,8.88891s4.44445,8.88891 8.88891,8.88891s8.88891,-4.44446 8.88891,-8.88891c0,-5.55557 -3.33334,-8.88891 -8.88891,-8.88891zm102.22248,-18.88894c3.33334,1.11111 6.66668,3.33334 10.00003,6.66668l0,-33.33342l15.55559,0l2.22223,32.2223l16.66671,42.22233c1.11111,3.33334 -1.11111,6.66668 -4.44445,6.66668l-30.00008,0l0,-5.55557c-5.55557,5.55557 -13.33337,8.88891 -22.22228,8.88891l-88.88911,0c-7.7778,0 -16.66671,-3.33334 -22.22228,-8.88891s-8.88891,-12.22225 -8.88891,-21.11116c0,-6.66668 2.22223,-13.33337 6.66668,-17.77782c1.11111,-1.11111 2.22223,-2.22223 2.22223,-3.33334c1.11111,-2.22223 3.33334,-3.33334 5.55557,-4.44446l0,-21.11116l6.66668,0l0,-31.11119c0,-7.7778 6.66668,-13.33337 13.33337,-13.33337l44.44456,0l3.33334,4.44445l22.22228,38.88899l6.66668,0l0,-5.55557l-2.22223,0l0,-23.33339l2.22223,0l0,-2.22223l-7.7778,-8.88891l7.7778,-6.66668l11.11114,12.22225l0,6.66668l2.22223,0l0,23.33339l-2.22223,0l0,5.55557l11.11114,0l0,18.88894l-1.11111,0zm0,0" stroke-width="5" stroke-miterlimit="10" stroke-dasharray=""></path></g></svg>