<svg data-v-9833e8b2="" version="1.1" xmlns="http://www.w3.org/2000/svg" xmlns:xlink="http://www.w3.org/1999/xlink" width="25" height="25"><g data-v-9833e8b2=""><path data-v-9833e8b2="" transform="scale(0.125)" fill="none" stroke="currentColor" paint-order="fill stroke markers" d="m14.36145,1.11931l172.1309,0a11.68675,11.68675 0 0 1 13.17867,13.17867l0,64.58794a11.68675,11.68675 0 0 1 -13.24084,13.24084l-172.06873,0a11.68675,11.68675 0 0 1 -13.24084,-13.24084l0,-64.58794a11.68675,11.68675 0 0 1 13.24084,-13.17867zm0,0" stroke-width="5" stroke-miterlimit="10" stroke-dasharray=""></path><path data-v-9833e8b2="" transform="scale(0.125)" fill="none" stroke="currentColor" paint-order="fill stroke markers" d="m24.30762,17.65482l69.68535,0a5.84338,5.84338 0 0 1 6.21636,6.58934l0,11.62458a5.84338,5.84338 0 0 1 -6.21636,6.58934l-69.68535,0a5.84338,5.84338 0 0 1 -6.58934,-6.58934l0,-11.62458a5.84338,5.84338 0 0 1 6.58934,-6.58934zm0,0m-4.91092,41.33877l162.12256,0a1.49193,1.49193 0 0 1 1.67841,1.67841l0,4.97309a1.49193,1.49193 0 0 1 -1.67841,1.67842l-162.12256,0a1.49193,1.49193 0 0 1 -1.67842,-1.67842l0,-4.97309a1.49193,1.49193 0 0 1 1.67842,-1.67841l0,0zm0,0" stroke-width="5" stroke-miterlimit="10" stroke-dasharray=""></path><path data-v-9833e8b2="" transform="scale(0.125)" fill="none" stroke="currentColor" paint-order="fill stroke markers" d="m79.75751,199.54539a12.43271,12.43271 0 0 0 -24.86542,0l-8.26775,0a12.43271,12.43271 0 0 0 -12.43271,-12.43271l0,-128.11909l132.40838,0l0,128.11909a12.43271,12.43271 0 0 0 -12.43271,12.43271l-8.26775,0a12.43271,12.43271 0 1 0 -24.86542,0l-8.39208,0a12.43271,12.43271 0 0 0 -24.86542,0l-8.0191,0zm0,0" stroke-width="5" stroke-miterlimit="10" stroke-dasharray=""></path><path data-v-9833e8b2="" transform="scale(0.125)" fill="none" stroke="currentColor" paint-order="fill stroke markers" d="m95.11191,114.69214l-13.55166,0a1.67842,1.67842 0 0 1 -1.67842,-1.67842l0,-3.17034a1.67842,1.67842 0 0 1 1.67842,-1.67842l13.67598,0l0,-4.53794l-2.11356,-3.54332l-11.56242,0a1.67842,1.67842 0 0 1 -1.67842,-1.67841l0,-3.17034a1.67842,1.67842 0 0 1 1.67842,-1.3676l8.32992,0l-8.32992,-15.54089a1.67842,1.67842 0 0 1 1.42976,-2.42438l7.21097,0a1.67842,1.67842 0 0 1 1.55409,0.93245l7.52179,15.04358a1.67842,1.67842 0 0 0 2.98385,0l7.27314,-15.04358a1.67842,1.67842 0 0 1 1.55409,-0.93245l6.71367,0a1.67842,1.67842 0 0 1 1.42976,2.42438l-8.26775,15.54089l8.51641,0a1.67842,1.67842 0 0 1 1.67842,1.67841l0,3.17034a1.67842,1.67842 0 0 1 -1.67842,1.67841l-12.05973,0l-1.98923,3.54332l0,4.53794l14.04896,0a1.67842,1.67842 0 0 1 1.67842,1.67842l0,3.17034a1.67842,1.67842 0 0 1 -1.67842,1.67842l-14.04896,0l0,8.82723a1.67842,1.67842 0 0 1 -1.67842,1.67841l-7.02448,0a1.67842,1.67842 0 0 1 -1.67842,-1.67841l0.06216,-9.13804zm0,0" stroke-width="5" stroke-miterlimit="10" stroke-dasharray=""></path><path data-v-9833e8b2="" transform="scale(0.125)" fill="none" stroke="currentColor" paint-order="fill stroke markers" d="m85.53873,133.46553l4.97309,0a1.49193,1.49193 0 0 1 1.67842,1.67841l0,38.0441a1.49193,1.49193 0 0 1 -1.67842,1.67842l-4.97309,0a1.49193,1.49193 0 0 1 -1.67841,-1.67842l0,-38.0441a1.49193,1.49193 0 0 1 1.67841,-1.67841zm-33.07101,0l21.50859,0a1.49193,1.49193 0 0 1 1.67842,1.67841l0,38.0441a1.49193,1.49193 0 0 1 -1.67842,1.67842l-21.50859,0a1.49193,1.49193 0 0 1 -1.98923,-1.67842l0,-38.0441a1.49193,1.49193 0 0 1 1.67842,-1.67841l0.31082,0zm91.00745,0l4.97309,0a1.49193,1.49193 0 0 1 1.67841,1.67841l0,38.0441a1.49193,1.49193 0 0 1 -1.67841,1.67842l-4.72443,0a1.49193,1.49193 0 0 1 -1.67842,-1.67842l0,-38.0441a1.49193,1.49193 0 0 1 1.67842,-1.67841l-0.24865,0zm-24.86543,0l13.24084,0a1.49193,1.49193 0 0 1 1.67842,1.67841l0,38.0441a1.49193,1.49193 0 0 1 -1.67842,1.67842l-12.99218,0a1.49193,1.49193 0 0 1 -1.67841,-1.67842l0,-38.0441a1.49193,1.49193 0 0 1 1.67841,-1.67841l-0.24865,0zm-16.53551,0l4.97309,0a1.49193,1.49193 0 0 1 1.67842,1.67841l0,38.0441a1.49193,1.49193 0 0 1 -1.67842,1.67842l-4.97309,0a1.49193,1.49193 0 0 1 -1.67841,-1.67842l0,-38.0441a1.49193,1.49193 0 0 1 1.67841,-1.67841zm16.78416,-115.81071l13.24084,0a1.49193,1.49193 0 0 1 1.67842,1.67842l0,13.17867a1.49193,1.49193 0 0 1 -1.67842,1.67842l-13.24084,0a1.49193,1.49193 0 0 1 -1.67841,-1.67842l0,-13.24084a1.49193,1.49193 0 0 1 1.67841,-1.61625zm24.86543,0l13.24084,0a1.49193,1.49193 0 0 1 1.67841,1.67842l0,13.17867a1.49193,1.49193 0 0 1 -1.67841,1.67842l-13.24084,0a1.49193,1.49193 0 0 1 -1.67842,-1.67842l0,-13.24084a1.49193,1.49193 0 0 1 1.67842,-1.61625zm24.86542,0l13.24084,0a1.49193,1.49193 0 0 1 1.67841,1.67842l0,13.17867a1.49193,1.49193 0 0 1 -1.67841,1.67842l-13.55166,0a1.42976,1.42976 0 0 1 -1.67842,-1.67842l0,-13.24084a1.42976,1.42976 0 0 1 1.67842,-1.67842l0.31082,0.06216zm0,0" stroke-width="5" stroke-miterlimit="10" stroke-dasharray=""></path></g></svg>