<svg data-v-9833e8b2="" version="1.1" xmlns="http://www.w3.org/2000/svg" xmlns:xlink="http://www.w3.org/1999/xlink" width="25" height="25"><g data-v-9833e8b2=""><path data-v-9833e8b2="" transform="scale(0.1524390243902439)" fill="none" stroke="currentColor" paint-order="fill stroke markers" d="m82.2502,163.50041c-44.87511,0 -81.2502,-36.37509 -81.2502,-81.2502s36.37509,-81.2502 81.2502,-81.2502s81.2502,36.37509 81.2502,81.2502s-36.37509,81.2502 -81.2502,81.2502zm-52.31263,-96.18774l0,35.25009c0,2.81251 0.46875,5.21876 1.40625,7.21877c0.9375,2.00001 2.18751,3.65626 3.75001,4.96876c1.5,1.375 3.20001,2.40626 5.11251,3.09376c1.90625,0.6875 3.82501,1.03125 5.76251,1.03125c1.9375,0 3.85626,-0.34375 5.76251,-1.03125c1.9125,-0.6875 3.64376,-1.71875 5.20626,-3.09376c1.5,-1.3125 2.71876,-2.96876 3.65626,-4.96876c0.9375,-2.00001 1.40625,-4.40626 1.40625,-7.21877l0,-21.00005l-17.15629,0l0,8.43752l7.59377,0l0,12.56253c0,2.31251 -0.6375,4.01251 -1.925,5.10626a6.78127,6.78127 0 0 1 -4.54376,1.64375c-1.75,0 -3.26251,-0.54375 -4.55001,-1.6375c-1.28125,-1.1 -1.91875,-2.80001 -1.91875,-5.11251l0,-35.25009c0,-2.31251 0.6375,-4.01251 1.91875,-5.10626c1.2875,-1.1 2.80001,-1.64375 4.55001,-1.64375c1.75,0 3.26251,0.54375 4.54376,1.64375c1.2875,1.09375 1.925,2.79376 1.925,5.10626l0,3.37501l9.56252,0l0,-3.37501c0,-2.68751 -0.46875,-5.06251 -1.40625,-7.12502a15.70004,15.70004 0 0 0 -3.65626,-5.15626a17.00004,17.00004 0 0 0 -5.20001,-3.00001a16.88754,16.88754 0 0 0 -5.76876,-1.03125c-1.9375,0 -3.85626,0.34375 -5.76251,1.03125a15.05629,15.05629 0 0 0 -8.86252,8.15627c-0.9375,2.06251 -1.40625,4.43751 -1.40625,7.12502zm40.5001,51.00013l9.56252,0l0,-26.06257l4.87501,0c3.56251,0 6.43752,-0.60625 8.62502,-1.83125c2.18751,-1.21875 3.93751,-2.91876 5.25001,-5.10626c1.125,-1.8125 1.85625,-3.75001 2.20001,-5.81251c0.35,-2.06251 0.51875,-4.59376 0.51875,-7.59377c0,-4.00001 -0.3125,-7.16877 -0.9375,-9.51877c-0.625,-2.34376 -1.75,-4.38751 -3.37501,-6.13752a13.31253,13.31253 0 0 0 -5.43751,-3.65626c-2.00001,-0.6875 -4.31251,-1.03125 -6.93752,-1.03125l-14.34379,0l0,66.75017zm9.56252,-57.75015l4.96876,0c1.875,0 3.31251,0.28125 4.31251,0.84375c1,0.5625 1.75,1.375 2.25001,2.43751c0.5,1.0625 0.78125,2.29376 0.84375,3.70626c0.0625,1.40625 0.09375,2.88751 0.09375,4.45001c0,1.6875 -0.04375,3.21876 -0.14375,4.59376a8.56252,8.56252 0 0 1 -0.8875,3.46876a5.31251,5.31251 0 0 1 -2.34376,2.34376c-1.0625,0.5625 -2.56251,0.84375 -4.50001,0.84375l-4.59376,0l0,-22.68756zm59.5314,10.21878l0,-4.68751c0,-3.87501 -1.4375,-7.31252 -4.31251,-10.31253a16.78129,16.78129 0 0 0 -5.11251,-3.46876a15.86254,15.86254 0 0 0 -6.51252,-1.3125c-2.81251,0 -5.23126,0.48125 -7.26252,1.45a14.18129,14.18129 0 0 0 -5.01876,3.89376c-1.375,1.625 -2.40626,3.56251 -3.09376,5.81251c-0.6875,2.25001 -1.03125,4.62501 -1.03125,7.12502c0,4.18751 0.7,7.66877 2.11251,10.45003c1.40625,2.78751 4.16876,5.01876 8.29377,6.70627l6.84377,2.81251c1.1875,0.5 2.13751,0.96875 2.85626,1.40625c0.725,0.4375 1.3,1 1.7375,1.6875c0.375,0.6875 0.625,1.59375 0.75,2.71876a53.56263,53.56263 0 0 1 0.05,8.38752a7.40002,7.40002 0 0 1 -0.89375,3.14376a5.05001,5.05001 0 0 1 -2.10626,2.01876c-0.9125,0.46875 -2.17501,0.7 -3.80001,0.7c-2.43751,0 -4.16876,-0.7 -5.20001,-2.10626a7.81252,7.81252 0 0 1 -1.55,-4.73751l0,-3.00001l-9.56252,0l0,3.56251c0,2.25001 0.41875,4.32501 1.26875,6.23752c0.84375,1.90625 1.98125,3.57501 3.41876,5.01251c1.4375,1.4375 3.15626,2.56251 5.15626,3.37501c2.00001,0.8125 4.15626,1.21875 6.46877,1.21875c3.06251,0 5.65626,-0.5 7.78127,-1.5c2.12501,-1 3.84376,-2.37501 5.15626,-4.12501c1.25,-1.6875 2.15626,-3.73126 2.71876,-6.14377c0.5625,-2.40626 0.84375,-5.01251 0.84375,-7.82502c0,-2.43751 -0.125,-4.60626 -0.375,-6.51877a17.75004,17.75004 0 0 0 -1.40625,-5.10626a12.36253,12.36253 0 0 0 -3.09376,-3.79376a18.12505,18.12505 0 0 0 -5.15626,-2.86251l-7.31252,-2.90626c-1.25,-0.5 -2.23126,-1 -2.95626,-1.5a5.21251,5.21251 0 0 1 -1.6375,-1.78125a6.23127,6.23127 0 0 1 -0.70625,-2.34376a31.70008,31.70008 0 0 1 -0.1375,-3.28126c0,-1.125 0.09375,-2.20001 0.28125,-3.23751c0.1875,-1.03125 0.53125,-1.95 1.03125,-2.76251c0.5,-0.75 1.15625,-1.375 1.96875,-1.875c0.8125,-0.5 1.875,-0.75 3.18751,-0.75c2.43751,0 4.16876,0.79375 5.20001,2.39376c1.0375,1.59375 1.55,3.48126 1.55,5.66876l0,2.15626l9.56252,0z" stroke-width="5" stroke-miterlimit="10" stroke-dasharray=""></path></g></svg>