<svg data-v-9833e8b2="" version="1.1" xmlns="http://www.w3.org/2000/svg" xmlns:xlink="http://www.w3.org/1999/xlink" width="25" height="22.5"><g data-v-9833e8b2=""><path data-v-9833e8b2="" transform="scale(0.12376237623762376)" fill="none" stroke="currentColor" paint-order="fill stroke markers" d="m194.35746,187.69031a6.66742,6.66742 0 0 1 -6.66742,-6.66742l0,-20.00263l-173.35501,0l0,20.00282a6.66742,6.66742 0 0 1 -13.33503,0l0,-173.35555a6.66742,6.66742 0 0 1 13.33503,0l0,20.00263l173.35501,0l0,-20.00263a6.66742,6.66742 0 0 1 13.33503,0l0,173.35555a6.66742,6.66742 0 0 1 -6.66779,6.66724l0.00018,0zm-166.6874,-146.68495l-13.33503,0l0,106.67968l13.33503,0l0,-106.6795l0,-0.00018zm26.66987,0l-13.33466,0l0,106.67968l13.33485,0l0,-106.6795l-0.00018,-0.00018zm26.67006,0l-13.33503,0l0,106.67968l13.33503,0l0,-106.6795l0,-0.00018zm26.67006,0l-13.33503,0l0,106.67968l13.33503,0l0,-106.6795l0,-0.00018zm26.67006,0l-13.33503,0l0,106.67968l13.33503,0l0,-106.6795l0,-0.00018zm13.33466,106.67968l13.33503,0l0,-106.6795l-13.33503,0l0,106.6795zm40.00527,-106.6795l-13.33503,0l0,106.6795l13.33503,0l0,-106.6795z" stroke-width="5" stroke-miterlimit="10" stroke-dasharray=""></path></g></svg>