<svg data-v-9833e8b2="" version="1.1" xmlns="http://www.w3.org/2000/svg" xmlns:xlink="http://www.w3.org/1999/xlink" width="25" height="25"><g data-v-9833e8b2=""><path data-v-9833e8b2="" transform="scale(0.12376237623762376)" fill="none" stroke="currentColor" paint-order="fill stroke markers" d="m101.00025,101.00025m-100.00025,0a100.00025,100.00025 0 1 0 200.0005,0a100.00025,100.00025 0 1 0 -200.0005,0z" stroke-width="5" stroke-miterlimit="10" stroke-dasharray=""></path><path data-v-9833e8b2="" transform="scale(0.12376237623762376)" fill="none" stroke="currentColor" paint-order="fill stroke markers" d="m103.79401,31.91883a6.25002,6.25002 0 0 1 2.79376,2.79376l56.75014,113.49404a6.25002,6.25002 0 0 1 -5.59376,9.04377l-113.49404,0a6.25002,6.25002 0 0 1 -5.58751,-9.04377l56.75014,-113.49404a6.25002,6.25002 0 0 1 8.38127,-2.79376zm-0.4625,19.96255a5.13126,5.13126 0 0 0 -6.88752,2.30001l-41.73761,83.48146a5.13126,5.13126 0 0 0 4.58751,7.42502l83.48146,0a5.13126,5.13126 0 0 0 4.59376,-7.42502l-41.74386,-83.48146a5.13126,5.13126 0 0 0 -2.29376,-2.30001zm-4.02501,8.18752a2.35626,2.35626 0 0 1 3.01876,-0.8125l0.2625,0.15a2.35626,2.35626 0 0 1 0.7875,0.9l38.2751,76.54394l0.10625,0.25a2.35626,2.35626 0 0 1 -2.21251,3.15626l-76.54394,0l-0.275,-0.01875a2.35626,2.35626 0 0 1 -1.83125,-3.38751l38.2751,-76.54394l0.1375,-0.2375zm-3.53126,23.56881l-0.36875,0.63125l-18.10005,36.20634a6.25002,6.25002 0 0 0 4.86251,9.00627l0.725,0.04375l36.20634,0a6.25002,6.25002 0 0 0 5.88126,-8.37502l-0.2875,-0.675l-18.1063,-36.20634a6.25002,6.25002 0 0 0 -10.81253,-0.625l0,-0.00625z" stroke-width="5" stroke-miterlimit="10" stroke-dasharray=""></path></g></svg>