<svg data-v-9833e8b2="" version="1.1" xmlns="http://www.w3.org/2000/svg" xmlns:xlink="http://www.w3.org/1999/xlink" width="25" height="12.5"><g data-v-9833e8b2=""><path data-v-9833e8b2="" transform="scale(0.13227513227513227)" fill="none" stroke="currentColor" paint-order="fill stroke markers" d="m38.29517,55.90891c-10.28988,0 -18.66238,8.37015 -18.66238,18.6578c0,10.29125 8.3725,18.66159 18.66238,18.66159s18.66238,-8.37035 18.66238,-18.66159c0,-10.28765 -8.3725,-18.6578 -18.66238,-18.6578z" stroke-width="5" stroke-miterlimit="10" stroke-dasharray=""></path><path data-v-9833e8b2="" transform="scale(0.13227513227513227)" fill="none" stroke="currentColor" paint-order="fill stroke markers" d="m187.81006,67.99395l-0.91882,-4.60789c-0.50228,-2.71017 -1.75968,-3.45566 -3.41583,-4.25273l-15.82638,0c3.26054,4.2927 5.2157,9.6297 5.2157,15.43318c0,1.3353 -0.13331,2.63842 -0.33079,3.91795l7.12489,0c7.18665,0.0002 9.08205,-3.77445 8.15124,-10.49051z" stroke-width="5" stroke-miterlimit="10" stroke-dasharray=""></path><path data-v-9833e8b2="" transform="scale(0.13227513227513227)" fill="none" stroke="currentColor" paint-order="fill stroke markers" d="m147.25635,55.90891c-10.28768,0 -18.66238,8.37015 -18.66238,18.6578c0,10.29125 8.3745,18.66159 18.66238,18.66159c10.29408,0 18.66278,-8.37035 18.66278,-18.66159c0,-10.28765 -8.3689,-18.6578 -18.66278,-18.6578z" stroke-width="5" stroke-miterlimit="10" stroke-dasharray=""></path><path data-v-9833e8b2="" transform="scale(0.13227513227513227)" fill="none" stroke="currentColor" paint-order="fill stroke markers" d="m24.01342,53.35004c3.30371,-2.2281 7.14927,-3.6983 11.30384,-4.18198l6.24424,0l0,0.02878c4.03984,0.51825 7.78267,1.98086 11.00723,4.15319l24.89063,0l55.46926,0c4.08781,-2.76613 9.01829,-4.38464 14.32752,-4.38464c5.30944,0 10.24211,1.61831 14.33172,4.38464l19.35794,0l-2.13645,-11.90576c-1.74989,-7.23411 -5.39498,-9.28293 -15.18258,-10.57846c-13.12209,-1.74182 -35.5253,-5.09776 -35.5253,-5.09776c-10.63666,-7.90786 -19.62297,-16.2824 -35.79233,-17.72503l-1.05233,-2.11237c-0.10174,-0.20746 -1.88341,-4.93067 -7.68893,-4.93067l-36.4569,0c-5.75056,0 -7.21963,3.2484 -7.83344,4.56971c-0.50508,1.08807 -1.08212,2.34182 -1.08212,2.34182c-17.03821,1.60631 -34.49675,18.71336 -34.49295,26.48171l0.04377,18.95659l20.26716,0l0,0.0002zm139.75307,-14.44065c0.60981,0 6.76831,0 9.86715,0c0.55025,0.889 0.89284,1.95288 1.21183,3.2564l1.2596,7.01506l-4.95466,0c-3.75262,0 -5.46274,-0.99653 -7.06113,-3.8464l-1.74969,-3.51543c-1.06632,-2.17633 0.60561,-2.90963 1.4269,-2.90963zm-44.10106,-11.1047l-42.20586,0l-4.2591,0l0,-0.04497l-23.55648,0l9.10343,-14.33591l25.90499,0.01199c16.36443,0 23.57707,5.46471 35.01302,14.3689zm-76.7146,-20.52913c0.49109,-1.05808 1.03334,-2.2259 4.16016,-2.2259l36.4571,0c2.51821,0 3.55555,1.52677 3.9501,2.43715l0.10273,0.22745l0.04277,0.08574c-9.49558,0 -30.66617,0.0038 -44.94013,-0.03218l0.22726,-0.49227zm-2.5272,6.14825l10.2519,0.01199l-9.10543,14.32392l-14.80082,0l0,0.04497l-11.85789,0c3.38805,-4.95425 14.78004,-14.38089 25.51224,-14.38089zm-32.6733,25.48558l7.05133,0c1.92918,0 3.49778,2.0726 1.66814,4.41222c-0.81908,1.04409 -4.77118,5.82726 -4.77118,5.82726l-3.97208,0l0.02378,-10.23948z" stroke-width="5" stroke-miterlimit="10" stroke-dasharray=""></path><path data-v-9833e8b2="" transform="scale(0.13227513227513227)" fill="none" stroke="currentColor" paint-order="fill stroke markers" d="m2.9034,59.13353c-1.01636,1.45062 -1.82764,3.02895 -1.87941,5.97876l-0.02398,4.24074c0,5.80328 4.51034,6.67629 11.96202,8.74489c-0.1595,-1.15582 -0.27103,-2.33163 -0.27103,-3.53141c0,-5.79948 1.92918,-11.14447 5.17972,-15.43318l-14.96732,0l0,0.0002z" stroke-width="5" stroke-miterlimit="10" stroke-dasharray=""></path><path data-v-9833e8b2="" transform="scale(0.13227513227513227)" fill="none" stroke="currentColor" paint-order="fill stroke markers" d="m58.69965,59.13353c3.25654,4.2887 5.19971,9.6297 5.19971,15.43318c0,1.3353 -0.13352,2.63442 -0.32879,3.90996l58.4148,0.004c-0.19748,-1.27954 -0.33079,-2.57866 -0.33079,-3.91396c0,-5.80348 1.95516,-11.14048 5.2117,-15.43318l-68.16662,0z" stroke-width="5" stroke-miterlimit="10" stroke-dasharray=""></path></g></svg>