<svg data-v-9833e8b2="" version="1.1" xmlns="http://www.w3.org/2000/svg" xmlns:xlink="http://www.w3.org/1999/xlink" width="24.5" height="25"><g data-v-9833e8b2=""><path data-v-9833e8b2="" transform="scale(0.12376237623762376)" fill="none" stroke="currentColor" paint-order="fill stroke markers" d="m159.33373,93.50023l-40.0001,24.16673l25.00006,27.50007l-85.83355,49.16679l3.33334,6.66668l94.1669,-54.1668l-25.00006,-27.50007l31.66675,-18.33338l-3.33334,-7.50002zm-100.83359,85.83355s-36.66676,-36.66676 -45.83345,-60.83349c-1.66667,-5.00001 -2.50001,-9.16669 -2.50001,-14.1667c0,-24.16673 20.00005,-44.16678 45.00011,-44.16678c25.00006,0 45.00011,20.00005 45.00011,44.16678c0,5.00001 -0.83334,10.00003 -2.50001,14.1667c-3.33334,9.16669 -11.6667,22.50006 -24.16673,36.66676l-7.50002,8.33335l5.83335,5.00001l7.50002,-8.33335c13.33337,-15.83337 21.66672,-29.16674 25.00006,-39.16676c1.66667,-5.83335 3.33334,-10.83336 3.33334,-16.66671c0,-28.33341 -24.16673,-51.6668 -53.33347,-51.6668c-29.16674,0 -53.33347,23.33339 -53.33347,51.6668c0,5.83335 0.83334,11.6667 2.50001,16.66671c9.16669,25.8334 45.83345,61.66682 47.50012,63.33349l2.50001,2.50001l5.00001,-5.83335l0,-1.66667zm-2.50001,-95.00024c-12.50003,0 -22.50006,10.00003 -22.50006,22.50006c0,12.50003 10.00003,22.50006 22.50006,22.50006s22.50006,-10.00003 22.50006,-22.50006c0,-12.50003 -10.00003,-22.50006 -22.50006,-22.50006zm0,37.50009c-5.00001,0 -10.00003,-2.50001 -13.33337,-7.50002c-2.50001,-5.00001 -2.50001,-10.00003 0,-15.00004c2.50001,-5.00001 7.50002,-7.50002 13.33337,-7.50002c8.33335,0 15.00004,6.66668 15.00004,15.00004s-6.66668,15.00004 -15.00004,15.00004zm100.83359,-120.83364c-19.16671,0 -35.00009,15.00004 -35.00009,33.33342c0,4.16668 0.83334,7.50002 1.66667,10.83336c5.83335,16.66671 29.16674,39.16677 30.00008,40.0001l2.50001,2.50001l5.00001,-5.83335l-2.50001,-2.50001s-22.50006,-22.50006 -28.3334,-36.66676c-0.83334,-2.50001 -1.66667,-5.83335 -1.66667,-8.33335c0,-14.1667 11.6667,-25.8334 26.66674,-25.8334c15.00004,0 26.66673,11.6667 26.66673,25.8334c0,3.33334 -0.83334,5.83335 -1.66667,8.33335c-1.66667,5.83335 -6.66668,13.33337 -15.00004,22.50006l-5.83335,6.66668l5.83335,5.00001l5.83335,-6.66668c8.33335,-10.00003 13.33337,-18.33338 15.83337,-25.00006c1.66667,-3.33334 1.66667,-7.50002 1.66667,-10.83336c2.50001,-18.33338 -13.33337,-33.33342 -31.66675,-33.33342zm15.00004,35.00009c0,-5.83335 -2.50001,-10.83336 -7.50002,-14.1667c-5.00001,-2.50001 -10.83336,-2.50001 -15.83337,0c-5.00001,2.50001 -7.50002,8.33335 -7.50002,14.1667c0,8.33335 7.50002,15.00004 15.83337,15.00004c8.33335,0 15.00004,-6.66668 15.00004,-15.00004zm-15.00004,7.50002c-2.50001,0 -5.83335,-1.66667 -6.66668,-4.16668c-1.66667,-2.50001 -1.66667,-5.83335 0,-7.50002c1.66667,-2.50001 4.16668,-4.16668 6.66668,-4.16668c4.16668,0 7.50002,3.33334 7.50002,7.50002c0,5.00001 -3.33334,8.33335 -7.50002,8.33335z" stroke-width="5" stroke-miterlimit="10" stroke-dasharray=""></path></g></svg>