<svg data-v-9833e8b2="" version="1.1" xmlns="http://www.w3.org/2000/svg" xmlns:xlink="http://www.w3.org/1999/xlink" width="25" height="22.5"><g data-v-9833e8b2=""><path data-v-9833e8b2="" transform="scale(0.13297872340425532)" fill="none" stroke="currentColor" paint-order="fill stroke markers" d="m187.27348,45.83651a18.73727,18.73727 0 0 0 -18.68614,-18.32827l-26.45712,0l0,-14.67284l13.49697,0a5.90492,5.90492 0 1 0 0,-11.83541l-38.77822,0a5.90492,5.90492 0 1 0 0,11.83541l13.4714,0l0,14.67284l-72.36726,0l0,-14.67284l13.4714,0a5.90492,5.90492 0 1 0 0,-11.83541l-38.77822,0a5.90492,5.90492 0 1 0 0,11.83541l13.49697,0l0,14.67284l-26.45712,0a18.73727,18.73727 0 0 0 -18.68614,18.32827l0,2.99081c0,0.51125 0.12781,1.0225 0.23006,1.53375a18.7117,18.7117 0 0 0 18.43052,14.95402l33.74242,0l-0.66462,1.73825a44.83651,44.83651 0 0 0 -2.40287,23.31294l0.12781,0.818l-0.69019,0.46012a81.7998,81.7998 0 0 0 -37.65347,69.01858a5.90492,5.90492 0 1 0 11.83541,0a70.45008,70.45008 0 0 1 29.16674,-57.00423l1.17587,-0.84356l0.69019,1.27812c0.17894,0.35787 0.409,0.69019 0.6135,1.0225s0.818,1.4315 1.27812,2.12168s0.71575,1.07362 1.09918,1.61043l1.09919,1.48262c0.43456,0.56237 0.84356,1.09918 1.30368,1.636l1.07362,1.17587q1.38037,1.50818 2.86299,2.86299l0.99694,0.89469c0.58794,0.51125 1.17587,0.97137 1.78937,1.4315l1.17587,0.86912c0.6135,0.43456 1.227,0.86912 1.86606,1.27812l1.48262,0.86912a43.86514,43.86514 0 0 0 45.01545,0l1.48262,-0.86912c0.63906,-0.409 1.25256,-0.84356 1.86606,-1.27812l1.17587,-0.86912c0.6135,-0.46012 1.20143,-0.94581 1.78937,-1.4315l0.99694,-0.89469q1.50818,-1.35481 2.86299,-2.86299l1.07362,-1.17587c0.46012,-0.53681 0.86912,-1.07362 1.30368,-1.636l1.09918,-1.48262c0.38344,-0.53681 0.74131,-1.07362 1.09919,-1.61043s0.86912,-1.40594 1.27812,-2.12168s0.43456,-0.66462 0.6135,-1.0225l0.69019,-1.27812l1.17587,0.84356a70.45008,70.45008 0 0 1 29.11561,56.95311a5.90492,5.90492 0 1 0 11.83541,0a81.7998,81.7998 0 0 0 -37.65347,-69.01858l-0.63906,-0.46012l0.12781,-0.818a44.83651,44.83651 0 0 0 -2.40287,-23.31294l-0.66462,-1.73825l33.74242,0a18.7117,18.7117 0 0 0 18.27714,-14.92846c0,-0.51125 0.17894,-1.0225 0.23006,-1.53375l0,-0.33231l0,-1.38037l0,-0.89469s0.15337,-0.23006 0.15337,-0.35787l0,0zm-62.8836,7.66873a5.82824,5.82824 0 0 0 -0.99693,0l-0.51125,0.12781l-0.48568,0.15338l-0.53681,0.23006l-0.409,0.2045l-0.51125,0.33231l-0.15337,0l-0.17894,0.17894l-0.35787,0.28119l-0.17894,0.23006l-0.28119,0.33231a5.8538,5.8538 0 0 0 -0.409,0.6135l-0.17894,0.33231a5.77711,5.77711 0 0 0 -0.30675,0.74131l0,0.30675a5.82824,5.82824 0 0 0 -0.17894,0.84356l0,1.27812a5.8538,5.8538 0 0 0 0.15338,0.84356l0,0.25562a5.93049,5.93049 0 0 0 0.33231,0.86912l0,0.12781a5.87936,5.87936 0 0 0 0.6135,0.97137a32.31092,32.31092 0 0 1 6.95298,20.09207l0,2.045c0,0.69019 0,1.25256 -0.12781,1.86606s0,0.818 -0.15338,1.227s-0.2045,1.32925 -0.33231,1.96831s-0.17894,0.76687 -0.25562,1.12475s-0.33231,1.27812 -0.51125,1.91718s-0.25562,0.76687 -0.38344,1.15031s-0.43456,1.20143 -0.66462,1.76381s-0.35787,0.818 -0.56237,1.227s-0.51125,1.07362 -0.79244,1.58487s-0.48569,0.86912 -0.74131,1.27812s-0.56237,0.94581 -0.86912,1.38037l-0.92025,1.30368l-0.97137,1.25256l-1.07362,1.227l-1.12475,1.17587l-1.15031,1.07362l-1.25256,1.09918l-1.12475,0.86912l-1.4315,1.0225l-1.15031,0.71575l-1.55931,0.89469l-1.20143,0.58794l-1.61043,0.74131l-1.32925,0.51125l-1.58487,0.56237l-1.50818,0.409l-1.50818,0.35788l-1.66156,0.28119l-1.4315,0.2045l-7.00411,0l-1.4315,-0.2045l-1.76381,0.15337l-1.50818,-0.35787l-1.50819,-0.409l-1.58487,-0.56237l-1.32925,-0.51125l-1.73825,-0.71575l-1.20143,-0.58794l-1.48262,-0.89468l-1.15031,-0.71575l-1.4315,-1.0225l-1.12475,-0.818l-1.27812,-1.17587l-1.15031,-1.07362l-1.12475,-1.17587l-1.07362,-1.227l-0.97137,-1.25256c-0.30675,-0.43456 -0.63906,-0.86912 -0.92025,-1.30368s-0.58794,-0.92025 -0.86912,-1.38037s-0.51125,-0.84356 -0.74131,-1.27812s-0.53681,-1.04806 -0.79244,-1.58487s-0.38344,-0.818 -0.56237,-1.227s-0.46012,-1.17587 -0.66462,-1.76381s-0.28119,-0.76687 -0.38344,-1.15031s-0.35787,-1.27812 -0.51125,-1.91718s-0.17894,-0.76687 -0.25562,-1.12475s-0.23006,-1.30368 -0.33231,-1.96831s0,-0.818 -0.15337,-1.227s0,-1.25256 -0.12781,-1.86606s0,-1.35481 0,-2.045a32.31092,32.31092 0 0 1 6.92742,-20.27101a5.90492,5.90492 0 0 0 0.6135,-0.97137a5.95605,5.95605 0 0 0 0.33231,-0.86912l0,-0.25562a5.87936,5.87936 0 0 0 0.15338,-0.84356l0,-0.23006l0,-0.35787l0,-0.51125l0,-0.17894a5.8538,5.8538 0 0 0 -0.17894,-0.84356l0,-0.30675a5.80267,5.80267 0 0 0 -0.30675,-0.71575l-0.17894,-0.33231a5.90492,5.90492 0 0 0 -0.409,-0.58794l-0.30675,-0.66462l-0.17894,-0.23006l-0.35787,-0.28119l-0.17894,-0.17894l-0.15338,0l-0.51125,-0.33231l-0.409,-0.2045l-0.53681,-0.23006l-0.48569,-0.15337l-0.51125,-0.12781a5.82824,5.82824 0 0 0 -0.99694,0l-44.27414,0a6.90186,6.90186 0 0 1 -6.85073,-6.77404l0,-0.409l0,-0.2045a6.90186,6.90186 0 0 1 6.85073,-6.6718l148.92675,0a6.90186,6.90186 0 0 1 6.85073,6.6718l0,0.6135a6.90186,6.90186 0 0 1 -6.85073,6.77404l-44.19745,-0.10225z" stroke-width="5" stroke-miterlimit="10" stroke-dasharray=""></path><path data-v-9833e8b2="" transform="scale(0.13297872340425532)" fill="none" stroke="currentColor" paint-order="fill stroke markers" d="m94.68633,70.6832a14.67284,14.67284 0 0 0 -14.77509,14.57059a14.67284,14.67284 0 1 0 14.77509,-14.57059z" stroke-width="5" stroke-miterlimit="10" stroke-dasharray=""></path></g></svg>