<svg data-v-9833e8b2="" version="1.1" xmlns="http://www.w3.org/2000/svg" xmlns:xlink="http://www.w3.org/1999/xlink" width="25" height="22.5"><g data-v-9833e8b2=""><path data-v-9833e8b2="" transform="scale(0.1524390243902439)" fill="none" stroke="currentColor" paint-order="fill stroke markers" d="m92.21117,1l12.94925,0l0,106.56277l-12.94925,0l0,-106.56277z" stroke-width="5" stroke-miterlimit="10" stroke-dasharray=""></path><path data-v-9833e8b2="" transform="scale(0.1524390243902439)" fill="none" stroke="currentColor" paint-order="fill stroke markers" d="m94.59399,11.8594c-0.48828,1.48438 -0.95703,2.96876 -1.91407,5.4297c-0.48828,2.46094 -1.91407,6.91408 -3.35938,14.31644c-1.44532,6.91408 -2.8711,13.80863 -3.35938,20.72271c-0.48828,6.91408 -0.95703,14.80472 0,23.67193c0.48828,8.88674 1.91407,17.26567 4.31642,24.66803l-1.44532,0c-0.48828,0 -1.91407,-0.48828 -4.31642,-0.48828c-2.40235,-0.48828 -4.31642,-0.48828 -6.23048,-0.9961c-1.91407,0 -4.8047,-0.48828 -7.6758,-0.48828c-3.35938,0 -6.23048,-0.48828 -9.12112,-0.48828l-9.58987,0c-3.35938,0 -6.71877,0.48828 -9.58987,0.9961c-2.8711,0.48828 -5.76173,1.48438 -9.12112,2.46094c-2.8711,0.9961 -5.76173,1.97266 -7.6758,3.45704c0.48828,-0.9961 0.95703,-2.46094 1.44532,-3.94532s2.40235,-4.94142 4.31642,-9.86331l7.18752,-14.80472c2.40235,-4.94142 6.23048,-10.35159 10.07815,-16.77739c4.31642,-6.40627 8.63283,-12.32425 12.94925,-17.75395c4.31642,-5.4297 9.58987,-10.8594 15.3516,-16.2891c5.78126,-5.93751 11.52347,-10.37112 17.75395,-13.82816zm-88.80882,99.60963c0.52735,0 2.65626,1.05469 7.44142,2.65626c4.25782,1.60157 7.44142,2.65626 9.57034,3.1836l10.09768,2.65626c4.78517,1.05469 9.04299,2.12891 12.75394,2.12891s7.96877,0.52735 12.75394,0.52735s9.57034,-0.52735 14.88285,-1.60157c4.78517,-1.05469 9.57034,-2.65626 14.3555,-4.25782c8.22268,-3.37891 15.80082,-5.50783 25.50788,-7.44142c7.96877,-1.05469 14.88285,-1.60157 20.19536,-1.05469c5.31251,0.52735 10.09768,1.60157 14.3555,2.65626s6.91408,2.65626 9.04299,3.71095s2.65626,1.60157 2.65626,2.12891l0,14.3555l-6.91408,-3.71095c-16.48442,-6.38673 -38.26182,-5.31251 -65.37126,3.71095c-7.96877,2.65626 -16.48442,4.25782 -24.98053,4.78517c-8.49612,0.52735 -15.93754,0.52735 -22.32427,-0.52735s-12.22659,-2.12891 -17.53911,-3.71095c-5.31251,-1.60157 -9.57034,-2.65626 -12.22659,-3.71095l-4.25782,-2.12891l0,-14.3555zm-4.78517,27.5196l2.12891,0.52735c6.38673,2.12891 11.69925,3.71095 15.93754,4.78517c4.25782,1.05469 10.62503,2.65626 19.14067,3.71095c7.96877,1.60157 16.48442,1.60157 24.98053,1.05469s16.48442,-2.65626 23.92584,-5.83986c6.38673,-2.65626 12.75394,-4.78517 19.14067,-5.83986c6.38673,-1.60157 12.22659,-2.12891 17.01176,-2.65626c4.78517,0 9.57034,0 13.82816,0.52735s7.96877,1.05469 11.15237,2.12891s5.83986,1.60157 7.96877,2.65626c2.12891,1.05469 4.25782,1.60157 5.31251,2.12891l1.60157,1.05469l0,14.88285c-0.52735,-0.52735 -1.60157,-1.05469 -3.1836,-1.60157c-1.60157,-0.52735 -4.25782,-1.60157 -9.04299,-3.1836c-4.78517,-1.60157 -10.09768,-2.12891 -15.4102,-2.65626c-5.31251,-0.52735 -12.75394,0 -21.26958,1.05469c-9.04299,1.05469 -18.06645,3.1836 -27.63679,6.38673c-7.96877,2.65626 -16.48442,4.25782 -25.50788,4.78517c-7.96877,0.52735 -15.93754,0.52735 -22.85162,-0.52735c-6.91408,-1.05469 -13.28128,-2.12891 -19.14067,-3.71095c-5.83986,-1.60157 -10.09768,-2.65626 -13.28128,-4.25782l-4.8047,-1.58204l0,-13.82816z" stroke-width="5" stroke-miterlimit="10" stroke-dasharray=""></path></g></svg>