<svg data-v-9833e8b2="" version="1.1" xmlns="http://www.w3.org/2000/svg" xmlns:xlink="http://www.w3.org/1999/xlink" width="25" height="22.5"><g data-v-9833e8b2=""><path data-v-9833e8b2="" transform="scale(0.15337423312883436)" fill="none" stroke="currentColor" paint-order="fill stroke markers" d="m83.61974,56.47871l75.02876,25.92864a5.7143,5.7143 0 0 1 3.18572,8.07145l-25.90721,49.02155a5.7143,5.7143 0 0 1 -5.05001,3.04287l-98.25739,0a5.7143,5.7143 0 0 1 -5.05001,-3.04287l-25.90721,-49.01441a5.7143,5.7143 0 0 1 3.18572,-8.07145l75.0359,-25.93578a5.7143,5.7143 0 0 1 3.73572,0zm42.08582,-22.57863a5.7143,5.7143 0 0 1 5.7143,5.7143l0,22.42149l-47.80012,-16.52147a5.7143,5.7143 0 0 0 -3.00001,-0.20714l-0.73572,0.20714l-47.1644,16.30004l0,-22.20006a5.7143,5.7143 0 0 1 5.7143,-5.7143l87.27165,0zm-21.92863,-32.90008a5.7143,5.7143 0 0 1 5.7143,5.7143l0,16.21433l-54.83585,0l0,-16.21433a5.7143,5.7143 0 0 1 5.7143,-5.7143l43.40725,0z" stroke-width="5" stroke-miterlimit="10" stroke-dasharray=""></path></g></svg>