<svg data-v-9833e8b2="" version="1.1" xmlns="http://www.w3.org/2000/svg" xmlns:xlink="http://www.w3.org/1999/xlink" width="27" height="25"><g data-v-9833e8b2=""><path data-v-9833e8b2="" transform="scale(0.13368983957219252)" fill="none" stroke="currentColor" paint-order="fill stroke markers" d="m156.86039,153.48038a22.24006,22.24006 0 0 0 11.74003,-7.65002c3.08001,-3.82001 4.64001,-8.24002 4.64001,-13.22003l0,-76.13019c0,-3.00001 -0.63,-5.72001 -1.9,-8.17002a25.10006,25.10006 0 0 0 -4.82001,-6.50002a39.0701,39.0701 0 0 0 -6.54002,-5.12001a119.9403,119.9403 0 0 0 -6.90002,-4.01001a86.66022,86.66022 0 0 0 -7.17002,-3.38001a63.90016,63.90016 0 0 0 -9.10002,-2.97001a94.94024,94.94024 0 0 0 -12.07003,-2.08001a144.60036,144.60036 0 0 0 -16.00004,-0.78c-5.35001,0 -10.00003,0.22 -14.00004,0.7a91.70023,91.70023 0 0 0 -10.55003,1.75a50.20013,50.20013 0 0 0 -7.80002,2.41001c-2.20001,0.93 -4.20001,1.78 -5.98002,2.60001a51.73013,51.73013 0 0 0 -13.74003,9.47002a35.68009,35.68009 0 0 0 -5.98002,7.47002c-1.63,2.70001 -2.45001,5.60001 -2.45001,8.61002l0,76.13019c0,4.98001 1.52,9.40002 4.53001,13.22003c3.05001,3.83001 6.90002,6.39002 11.62003,7.65002l-24.02006,33.20008l23.43006,0l4.90001,-10.58003l83.97021,0l4.90001,10.58003l23.43006,0l-24.14006,-33.20008zm-67.21017,-117.13029a5.55001,5.55001 0 0 1 4.00001,-1.56l34.54009,0c1.56,0 2.90001,0.52 4.02001,1.56a5.34001,5.34001 0 0 1 1.63,4.01001a5.10001,5.10001 0 0 1 -1.63,3.83001a5.55001,5.55001 0 0 1 -4.02001,1.56l-34.53009,0a5.67001,5.67001 0 0 1 -4.01001,-1.56a5.10001,5.10001 0 0 1 -1.64,-3.83001c0,-1.63 0.52,-2.97001 1.64,-4.00001l0,-0.01zm-30.20008,20.17005l102.32026,0l0,32.68008l-102.31026,0l0,-32.68008l-0.01,0zm11.45003,86.90022a7.80002,7.80002 0 0 1 -5.64001,2.26001a8.10002,8.10002 0 0 1 -5.83001,-2.26001a7.30002,7.30002 0 0 1 -2.38001,-5.39001c0,-2.19001 0.78,-4.04001 2.38001,-5.57001a8.04002,8.04002 0 0 1 5.83001,-2.26001c2.19001,0 4.05001,0.74 5.64001,2.26001a7.46002,7.46002 0 0 1 2.38001,5.57001a7.16002,7.16002 0 0 1 -2.38001,5.39001zm2.94001,21.87006l5.27001,-10.95003l63.24016,0l5.10001,10.95003l-73.63019,0l0.02,0zm76.50019,-21.87006a7.30002,7.30002 0 0 1 -2.38001,-5.39001c0,-2.19001 0.78,-4.04001 2.38001,-5.57001a8.04002,8.04002 0 0 1 5.83001,-2.26001a8.10002,8.10002 0 0 1 5.83001,2.26001a7.46002,7.46002 0 0 1 2.38001,5.57001a7.16002,7.16002 0 0 1 -2.38001,5.39001a8.04002,8.04002 0 0 1 -5.83001,2.26001a8.20002,8.20002 0 0 1 -5.83001,-2.26001zm-132.48033,-142.42036c-9.32002,0 -16.86004,7.58002 -16.86004,16.90004c0,7.35002 4.72001,13.59003 11.25003,15.93004l0,152.85038l11.26003,0l0,-152.88038a16.86004,16.86004 0 0 0 11.25003,-15.93004a16.90004,16.90004 0 0 0 -16.90004,-16.87004z" stroke-width="5" stroke-miterlimit="10" stroke-dasharray=""></path></g></svg>