<svg data-v-9833e8b2="" version="1.1" xmlns="http://www.w3.org/2000/svg" xmlns:xlink="http://www.w3.org/1999/xlink" width="14.5" height="25"><g data-v-9833e8b2=""><path data-v-9833e8b2="" transform="scale(0.1524390243902439)" fill="none" stroke="currentColor" paint-order="fill stroke markers" d="m10.19199,162.9926l-7.55861,-2.40235c-1.23047,-0.39063 -1.91407,-1.71875 -1.52344,-2.94923l13.08597,-41.17198c0.39063,-1.23047 1.71875,-1.91407 2.94923,-1.52344l7.55861,2.40235c1.23047,0.39063 1.91407,1.71875 1.52344,2.94923l-13.08597,41.17198c-0.39063,1.23047 -1.71875,1.91407 -2.94923,1.52344zm70.50799,-3.75001l7.55861,-2.40235c1.23047,-0.39063 1.91407,-1.71875 1.52344,-2.94923l-13.08597,-41.17198c-0.39063,-1.23047 -1.71875,-1.91407 -2.94923,-1.52344l-7.55861,2.40235c-1.23047,0.39063 -1.91407,1.71875 -1.52344,2.94923l13.08597,41.17198c0.39063,1.23047 1.71875,1.91407 2.94923,1.52344z" stroke-width="5" stroke-miterlimit="10" stroke-dasharray=""></path><path data-v-9833e8b2="" transform="scale(0.1524390243902439)" fill="none" stroke="currentColor" paint-order="fill stroke markers" d="m80.11404,29.78913s-0.19531,-4.53126 -2.75391,-9.06252s-6.89455,-10.05862 -6.89455,-10.05862s-1.38672,-3.35938 -5.52736,-4.72657c-5.85939,-1.95313 -11.42581,-4.92189 -11.42581,-4.92189l-3.35938,0l-2.36329,1.77735l-1.81641,1.13282l0,11.87503l16.77739,0c3.26173,0 5.91798,2.65626 5.91798,5.91798l3.33985,52.7931c0,3.26173 -1.97266,8.47658 -9.25784,12.61722l-18.12505,7.08986l-18.14458,-7.08986c-8.08596,-2.94923 -8.08596,-10.46878 -8.08596,-13.71097l2.16797,-51.71888c0,-3.26173 2.65626,-5.91798 5.91798,-5.91798l17.94926,0l0,-11.87503l-1.36719,-0.15625l-3.16407,-2.75391l-3.14454,0l-14.39457,6.89455s-2.40235,1.17188 -4.53126,3.5547c-3.65235,4.10157 -6.50392,10.64456 -6.50392,10.64456s-2.5586,3.75001 -2.75391,10.25393s-5.1172,71.73846 -5.1172,71.73846s-1.38672,2.94923 2.16797,6.30861c3.5547,3.35938 26.211,24.23834 26.211,24.23834s5.72267,5.91798 10.25393,5.91798s6.1133,0.21484 6.89455,0.15625c1.77735,-0.09766 4.39454,-1.09375 7.30471,-4.10157c5.31251,-5.52736 27.98835,-26.40632 27.98835,-26.40632s2.98829,-2.36329 2.94923,-6.30861c-0.05859,-5.72267 -7.10939,-74.10175 -7.10939,-74.10175zm-49.41419,70.03924c-2.03126,0 -3.69142,-1.66016 -3.69142,-3.69142s1.66016,-3.69142 3.69142,-3.69142c2.03126,0 3.69142,1.66016 3.69142,3.69142s-1.64063,3.69142 -3.69142,3.69142zm14.45316,34.51181c-2.03126,0 -3.69142,-1.66016 -3.69142,-3.69142c0,-2.03126 1.66016,-3.69142 3.69142,-3.69142c2.03126,0 3.69142,1.66016 3.69142,3.69142c0,2.03126 -1.64063,3.69142 -3.69142,3.69142zm32.07039,-26.46491c-2.03126,0 -3.69142,-1.66016 -3.69142,-3.69142s1.66016,-3.69142 3.69142,-3.69142c2.03126,0 3.69142,1.66016 3.69142,3.69142s-1.66016,3.69142 -3.69142,3.69142z" stroke-width="5" stroke-miterlimit="10" stroke-dasharray=""></path></g></svg>