<svg data-v-9833e8b2="" version="1.1" xmlns="http://www.w3.org/2000/svg" xmlns:xlink="http://www.w3.org/1999/xlink" width="25" height="25"><g data-v-9833e8b2=""><path data-v-9833e8b2="" transform="scale(0.13227513227513227)" fill="none" stroke="currentColor" paint-order="fill stroke markers" d="m121.78848,1.01715l-1,0.175a5.62501,5.62501 0 0 0 -4.16251,5.87501l0.175,1l45.21261,169.97543a5.62501,5.62501 0 0 0 11.03753,-1.8875l-0.1625,-1l-45.21261,-169.97543a5.62501,5.62501 0 0 0 -5.87501,-4.16251l-0.0125,0zm-55.15014,0l1,0.175a5.62501,5.62501 0 0 1 4.16251,5.87501l-0.1625,1l-45.21261,169.97543a5.62501,5.62501 0 0 1 -11.05003,-1.8875l0.175,-1l45.21261,-169.97543a5.62501,5.62501 0 0 1 5.87501,-4.16251z" stroke-width="5" stroke-miterlimit="10" stroke-dasharray=""></path><path data-v-9833e8b2="" transform="scale(0.13227513227513227)" fill="none" stroke="currentColor" paint-order="fill stroke markers" d="m37.97577,20.3797l0.7125,0.1125a3.12501,3.12501 0 0 1 2.30001,3.12501l-0.1125,0.7125l-33.75008,123.75031a3.12501,3.12501 0 0 1 -6.12502,-0.9375l0.1,-0.7125l33.75008,-123.75031a3.12501,3.12501 0 0 1 3.12501,-2.30001zm110.38778,0.125a3.12501,3.12501 0 0 0 -2.25001,3.16251l0.125,0.7125l36.00009,123.75031a3.12501,3.12501 0 0 0 6.12502,-1.0375l-0.125,-0.7125l-36.00009,-123.75031a3.12501,3.12501 0 0 0 -3.16251,-2.25001l-0.7125,0.125z" stroke-width="5" stroke-miterlimit="10" stroke-dasharray=""></path><path data-v-9833e8b2="" transform="scale(0.13227513227513227)" fill="none" stroke="currentColor" paint-order="fill stroke markers" d="m133.48851,57.25479a5.62501,5.62501 0 0 1 1,11.16253l-1,0.0875l-78.7502,0a5.62501,5.62501 0 0 1 -1,-11.16253l1,-0.0875l78.7502,0zm13.50003,56.25014a5.62501,5.62501 0 0 1 1,11.16253l-1,0.0875l-103.50026,0a5.62501,5.62501 0 0 1 -1,-11.16253l1,-0.0875l103.50026,0z" stroke-width="5" stroke-miterlimit="10" stroke-dasharray=""></path></g></svg>