<svg data-v-9833e8b2="" version="1.1" xmlns="http://www.w3.org/2000/svg" xmlns:xlink="http://www.w3.org/1999/xlink" width="25" height="20"><g data-v-9833e8b2=""><path data-v-9833e8b2="" transform="scale(0.15060240963855423)" fill="none" stroke="currentColor" paint-order="fill stroke markers" d="m52.30628,127.25154l-45.95959,0c-2.94801,0 -5.34669,-2.39869 -5.34669,-5.34669l0,-115.55815c0,-2.94801 2.39869,-5.34669 5.34669,-5.34669l45.95959,0c2.94801,0 5.34669,2.39869 5.34669,5.34669l0,22.26568l-5.93263,0l0,-21.67974l-44.78771,0l0,114.36796l44.7694,0l0,-72.89447l5.93263,0l0,73.49872c0.01831,2.94801 -2.38038,5.34669 -5.32838,5.34669z" stroke-width="5" stroke-miterlimit="10" stroke-dasharray=""></path><path data-v-9833e8b2="" transform="scale(0.15060240963855423)" fill="none" stroke="currentColor" paint-order="fill stroke markers" d="m29.32649,55.29091c-9.44827,0 -17.13872,-7.69045 -17.13872,-17.13872s7.69045,-17.13872 17.13872,-17.13872c9.44827,0 17.13872,7.69045 17.13872,17.13872s-7.69045,17.13872 -17.13872,17.13872zm0,-28.3448c-6.17067,0 -11.18777,5.0171 -11.18777,11.18777s5.0171,11.18777 11.18777,11.18777s11.18777,-5.0171 11.18777,-11.18777s-5.0171,-11.18777 -11.18777,-11.18777z" stroke-width="5" stroke-miterlimit="10" stroke-dasharray=""></path><path data-v-9833e8b2="" transform="scale(0.15060240963855423)" fill="none" stroke="currentColor" paint-order="fill stroke markers" d="m155.44985,50.65833l-114.49614,0l0,-5.93263l114.51445,0c2.0691,0 3.73536,-1.68457 3.73536,-3.73536l0,-4.98048c0,-2.0691 -1.68457,-3.73536 -3.73536,-3.73536l-114.51445,0l0,-5.93263l114.51445,0c5.34669,0 9.6863,4.33961 9.6863,9.6863l0,4.98048c-0.01831,5.31007 -4.35792,9.64968 -9.70461,9.64968zm-139.54503,10.38211l26.84333,0l0,7.85524l-26.84333,0l0,-7.85524z" stroke-width="5" stroke-miterlimit="10" stroke-dasharray=""></path><path data-v-9833e8b2="" transform="scale(0.15060240963855423)" fill="none" stroke="currentColor" paint-order="fill stroke markers" d="m66.51164,45.61431l13.18546,-18.10094l5.29872,3.85987l-13.18546,18.10075l-5.29872,-3.85969zm12.68521,-0.00916l13.18546,-18.10094l5.29854,3.85987l-13.18546,18.10094l-5.29853,-3.85987zm33.74679,-0.00128l13.18546,-18.10094l5.29872,3.85987l-13.18546,18.10075l-5.29872,-3.85969zm12.67441,0.00568l13.18546,-18.10094l5.29853,3.85987l-13.18546,18.10075l-5.29854,-3.85969z" stroke-width="5" stroke-miterlimit="10" stroke-dasharray=""></path></g></svg>