<svg data-v-9833e8b2="" version="1.1" xmlns="http://www.w3.org/2000/svg" xmlns:xlink="http://www.w3.org/1999/xlink" width="19.5" height="25"><g data-v-9833e8b2=""><path data-v-9833e8b2="" transform="scale(0.1282051282051282)" fill="none" stroke="currentColor" paint-order="fill stroke markers" d="m132.25033,38.50009l-125.00031,0c-3.75001,0 -6.25002,-2.50001 -6.25002,-6.25002l0,-25.00006c0,-3.75001 2.50001,-6.25002 6.25002,-6.25002l125.00031,0c3.75001,0 6.25002,2.50001 6.25002,6.25002l0,25.00006c0,3.75001 -2.50001,6.25002 -6.25002,6.25002zm0,156.25039l-125.00031,0c-3.75001,0 -6.25002,-2.50001 -6.25002,-6.25002l0,-25.00006c0,-3.75001 2.50001,-6.25002 6.25002,-6.25002l125.00031,0c3.75001,0 6.25002,2.50001 6.25002,6.25002l0,25.00006c0,3.75001 -2.50001,6.25002 -6.25002,6.25002z" stroke-width="5" stroke-miterlimit="10" stroke-dasharray=""></path><path data-v-9833e8b2="" transform="scale(0.1282051282051282)" fill="none" stroke="currentColor" paint-order="fill stroke markers" d="m107.25027,69.75017l0,25.00006l25.00006,0l0,-25.00006l-25.00006,0zm31.25008,50.00013l0,-25.00006l-6.25002,0l0,25.00006l6.25002,0zm-31.25008,-75.00019l-25.00006,0l0,25.00006l25.00006,0l0,-25.00006zm31.25008,0l-6.25002,0l0,25.00006l6.25002,0l0,-25.00006zm-31.25008,75.00019l0,-25.00006l-25.00006,0l0,25.00006l25.00006,0zm-50.00013,-75.00019l-25.00006,0l0,25.00006l25.00006,0l0,-25.00006zm-56.25014,50.00013l0,25.00006l6.25002,0l0,-25.00006l-6.25002,0zm0,-50.00013l0,25.00006l6.25002,0l0,-25.00006l-6.25002,0zm106.25027,100.00025l-25.00006,0l0,-25.00006l-25.00006,0l0,25.00006l-25.00006,0l0,-25.00006l-25.00006,0l0,25.00006l-6.25002,0l0,6.25002l137.50035,0l0,-6.25002l-6.25002,0l0,-25.00006l-25.00006,0l0,25.00006zm-75.00019,-75.00019l-25.00006,0l0,25.00006l25.00006,0l0,-25.00006zm50.00013,25.00006l0,-25.00006l-25.00006,0l0,25.00006l25.00006,0zm-50.00013,0l0,25.00006l25.00006,0l0,-25.00006l-25.00006,0z" stroke-width="5" stroke-miterlimit="10" stroke-dasharray=""></path></g></svg>