<svg data-v-9833e8b2="" version="1.1" xmlns="http://www.w3.org/2000/svg" xmlns:xlink="http://www.w3.org/1999/xlink" width="25" height="12.5"><g data-v-9833e8b2=""><path data-v-9833e8b2="" transform="scale(0.12437810945273632)" fill="none" stroke="currentColor" paint-order="fill stroke markers" d="m64.55903,32.56734l-4.64385,6.42893l0.13729,0l-0.11969,0.17057l81.10171,0l-0.12865,-0.17057l0.21537,0l-7.28243,-9.35938l-2.49938,-3.31031l-0.07616,0l-12.01877,-15.44653l-7.41908,0l0,-2.64467l5.09572,0l0,-7.23539l-33.44651,0l0,7.23539l5.73576,0l0,2.64467l-8.98623,0l-11.15726,15.44653l-0.13313,0l-4.37471,6.24076zm21.15573,-29.32718l28.96652,0l0,2.75507l-28.96652,0l0,-2.75507zm-84.71476,17.41306l3.20023,0l0,80.00563l-3.20023,0l0,-80.00563z" stroke-width="5" stroke-miterlimit="10" stroke-dasharray=""></path><path data-v-9833e8b2="" transform="scale(0.12437810945273632)" fill="none" stroke="currentColor" paint-order="fill stroke markers" d="m191.55356,26.32658l-58.20922,0l10.90349,14.44006l-87.39047,0l10.12231,-14.44006l-30.117,0l0,4.83298l-0.10561,0.24354c-0.12705,0.29282 -3.19991,7.1717 -11.20207,7.1717s-11.07502,-6.87888 -11.20207,-7.1717l-0.10561,-0.24354l0,-4.83298l-5.72456,0l0,-5.67336l-3.20023,0l0,80.00563l3.20023,0l0,-5.67336l27.15647,0l0,14.31429l13.44095,0l0,-14.31429l39.77048,0l0,-1.26089l0.27458,-0.34851c0.12897,-0.16353 3.24727,-4.00796 11.03278,-4.00796c7.78551,0 10.90413,3.84443 11.0331,4.00796l0.27458,0.34851l0,1.26089l39.77048,0l0,14.31429l13.44095,0l0,-14.31429l26.83645,0l0,5.67336l3.20023,0l0,-80.00563l-3.20023,0l0,5.67336zm-150.11392,80.73336l-3.52025,0l0,-17.28154l3.52025,0l0,17.28154zm5.44038,0l-3.52025,0l0,-17.28154l3.44024,0l0,5.20741l0.08001,0l0,12.07413zm110.15655,0l-3.52025,0l0,-17.28154l3.52025,0l0,17.28154zm5.44038,0l-3.52025,0l0,-17.28154l3.52025,0l0,17.28154zm36.59905,-78.40615l0,-8.00056l-3.20023,0l0,80.00563l3.20023,0l0,-8.00056l1.92013,0l0,-64.0045l-1.92013,0z" stroke-width="5" stroke-miterlimit="10" stroke-dasharray=""></path><path data-v-9833e8b2="" transform="scale(0.12437810945273632)" fill="none" stroke="currentColor" paint-order="fill stroke markers" d="m15.52774,30.57712l0.0496,0.11841c0.02752,0.06592 2.84692,6.59886 9.97798,6.59886s9.95014,-6.53294 9.97766,-6.59886l0.0496,-0.11841l0,-14.08387l2.03118,0l0,-7.23507l-24.11754,0l0,7.23507l2.0315,0l0,14.08387zm0.20865,-19.07878l19.63722,0l0,2.75475l-19.63722,0l0,-2.75475zm94.48889,82.85991l-0.12897,-0.16417c-0.11393,-0.14465 -2.86868,-3.54585 -9.8983,-3.54585s-9.78437,3.4012 -9.8983,3.54585l-0.12897,0.16417l0,4.93027l-2.0315,0l0,7.23507l24.11722,0l0,-7.23507l-2.0315,0l0,-4.93027l0.00032,0zm-0.20866,9.92518l-19.6369,0l0,-2.75475l19.6369,0l0,2.75475z" stroke-width="5" stroke-miterlimit="10" stroke-dasharray=""></path></g></svg>