<svg data-v-9833e8b2="" version="1.1" xmlns="http://www.w3.org/2000/svg" xmlns:xlink="http://www.w3.org/1999/xlink" width="17" height="25"><g data-v-9833e8b2=""><path data-v-9833e8b2="" transform="scale(0.22935779816513763)" fill="none" stroke="currentColor" paint-order="fill stroke markers" d="m31.60008,1l2.30001,0l0,9.10002l-2.30001,0l0,-9.10002zm8.70002,1.7l6.60002,0l0,2.40001l-6.60002,0l0,-2.40001zm-23.30006,88.60022s-11.10003,1.6 -12.10003,-9.90002l5.50001,0s0.3,7.30002 8.00002,3.50001l-1.4,6.40002zm-8.83302,-53.60013l-1.735,0c-0.681,0 -1.233,-0.552 -1.233,-1.233l0,-10.53403c0,-0.681 0.552,-1.233 1.233,-1.233l1.735,0c0.681,0 1.233,0.552 1.233,1.233l0,10.53503c0,0.68 -0.552,1.232 -1.233,1.232z" stroke-width="5" stroke-miterlimit="10" stroke-dasharray=""></path><path data-v-9833e8b2="" transform="scale(0.22935779816513763)" fill="none" stroke="currentColor" paint-order="fill stroke markers" d="m3,23.60006l8.70002,0l0,2.50001l-8.70002,0l0,-2.50001zm63.67016,77.7002l-7.39502,0c2.10001,-1.844 3.42601,-4.54901 3.42601,-7.56302l0,-67.88117c0,-3.28101 -2.66001,-5.94101 -5.94101,-5.94101l-1.859,0c-1.861,-2.26801 -4.68601,-3.71501 -7.84902,-3.71501l-2.15201,0l0,-11.10003l-3.00001,0l0,11.10003l-2.20001,0l0,-5.49801c0,-1.216 -0.986,-2.20201 -2.20201,-2.20201l-7.19602,0c-1.216,0 -2.20201,0.986 -2.20201,2.20201l0,9.21302l-1.859,0c-3.28101,0 -5.94101,2.66001 -5.94101,5.94101l0,18.74405l-7.50002,0l0,-6.18702c0,-1.001 -0.812,-1.813 -1.813,-1.813l-7.27402,0c-1.001,0 -1.813,0.812 -1.813,1.813l0,6.18702l-0.9,0l0,7.40002l0.9,0l0,27.58707c0,1.001 0.812,1.813 1.813,1.813l7.27402,0c1.001,0 1.813,-0.812 1.813,-1.813l0,-27.58707l7.50002,0l0,31.40008l-4.10001,0l0,8.90002l4.10001,0l0,1.437c0,3.01401 1.326,5.71901 3.42601,7.56302l-7.79602,0c-1.729,0 -3.13001,1.402 -3.13001,3.13001l0,1.239c0,1.729 1.402,3.13001 3.13001,3.13001l50.73913,0c1.729,0 3.13001,-1.402 3.13001,-3.13001l0,-1.239c0.001,-1.728 -1.401,-3.13001 -3.12901,-3.13001z" stroke-width="5" stroke-miterlimit="10" stroke-dasharray=""></path></g></svg>