<svg data-v-9833e8b2="" version="1.1" xmlns="http://www.w3.org/2000/svg" xmlns:xlink="http://www.w3.org/1999/xlink" width="25" height="12.5"><g data-v-9833e8b2=""><path data-v-9833e8b2="" transform="scale(0.13812154696132597)" fill="none" stroke="currentColor" paint-order="fill stroke markers" d="m122.20031,59.20015l13.10003,0l0,14.20004l-13.10003,0l0,-14.20004zm34.90009,0l13.10003,0l0,14.20004l-13.10003,0l0,-14.20004z" stroke-width="5" stroke-miterlimit="10" stroke-dasharray=""></path><path data-v-9833e8b2="" transform="scale(0.13812154696132597)" fill="none" stroke="currentColor" paint-order="fill stroke markers" d="m124.00031,59.20015l9.50002,0l0,14.20004l-9.50002,0l0,-14.20004zm35.10009,0l9.50002,0l0,14.20004l-9.50002,0l0,-14.20004z" stroke-width="5" stroke-miterlimit="10" stroke-dasharray=""></path><path data-v-9833e8b2="" transform="scale(0.13812154696132597)" fill="none" stroke="currentColor" paint-order="fill stroke markers" d="m12.10003,33.00008l6.20002,0l0,16.20004l-6.20002,0l0,-16.20004z" stroke-width="5" stroke-miterlimit="10" stroke-dasharray=""></path><path data-v-9833e8b2="" transform="scale(0.13812154696132597)" fill="none" stroke="currentColor" paint-order="fill stroke markers" d="m12.10003,35.90009l6.20002,0l0,10.40003l-6.20002,0l0,-10.40003z" stroke-width="5" stroke-miterlimit="10" stroke-dasharray=""></path><path data-v-9833e8b2="" transform="scale(0.13812154696132597)" fill="none" stroke="currentColor" paint-order="fill stroke markers" d="m12.10003,39.5001l6.20002,0l0,3.30001l-6.20002,0l0,-3.30001z" stroke-width="5" stroke-miterlimit="10" stroke-dasharray=""></path><path data-v-9833e8b2="" transform="scale(0.13812154696132597)" fill="none" stroke="currentColor" paint-order="fill stroke markers" d="m111.80028,41.9001l9.10002,0l0,6.20002l-9.10002,0l0,-6.20002z" stroke-width="5" stroke-miterlimit="10" stroke-dasharray=""></path><path data-v-9833e8b2="" transform="scale(0.13812154696132597)" fill="none" stroke="currentColor" paint-order="fill stroke markers" d="m111.80028,43.00011l9.10002,0l0,4.00001l-9.10002,0l0,-4.00001z" stroke-width="5" stroke-miterlimit="10" stroke-dasharray=""></path><path data-v-9833e8b2="" transform="scale(0.13812154696132597)" fill="none" stroke="currentColor" paint-order="fill stroke markers" d="m111.80028,44.30011l9.10002,0l0,1.3l-9.10002,0l0,-1.3z" stroke-width="5" stroke-miterlimit="10" stroke-dasharray=""></path><path data-v-9833e8b2="" transform="scale(0.13812154696132597)" fill="none" stroke="currentColor" paint-order="fill stroke markers" d="m126.10032,27.30007l36.60009,0l0,35.30009l-36.60009,0l0,-35.30009z" stroke-width="5" stroke-miterlimit="10" stroke-dasharray=""></path><path data-v-9833e8b2="" transform="scale(0.13812154696132597)" fill="none" stroke="currentColor" paint-order="fill stroke markers" d="m126.10032,33.60008l36.60009,0l0,22.70006l-36.60009,0l0,-22.70006z" stroke-width="5" stroke-miterlimit="10" stroke-dasharray=""></path><path data-v-9833e8b2="" transform="scale(0.13812154696132597)" fill="none" stroke="currentColor" paint-order="fill stroke markers" d="m126.10032,41.3001l36.60009,0l0,7.30002l-36.60009,0l0,-7.30002z" stroke-width="5" stroke-miterlimit="10" stroke-dasharray=""></path><path data-v-9833e8b2="" transform="scale(0.13812154696132597)" fill="none" stroke="currentColor" paint-order="fill stroke markers" d="m170.90043,64.00016l-10.50003,0c-1.5,0 -2.70001,-1.2 -2.70001,-2.70001l0,-32.70008c0,-1.5 1.2,-2.70001 2.70001,-2.70001l10.50003,0c1.5,0 2.70001,1.2 2.70001,2.70001l0,32.70008c0,1.5 -1.2,2.70001 -2.70001,2.70001z" stroke-width="5" stroke-miterlimit="10" stroke-dasharray=""></path><path data-v-9833e8b2="" transform="scale(0.13812154696132597)" fill="none" stroke="currentColor" paint-order="fill stroke markers" d="m169.50042,58.50014l-7.70002,0c-1.5,0 -2.70001,-1.2 -2.70001,-2.70001l0,-21.60005c0,-1.5 1.2,-2.70001 2.70001,-2.70001l7.70002,0c1.5,0 2.70001,1.2 2.70001,2.70001l0,21.60005c0.1,1.4 -1.2,2.70001 -2.70001,2.70001z" stroke-width="5" stroke-miterlimit="10" stroke-dasharray=""></path><path data-v-9833e8b2="" transform="scale(0.13812154696132597)" fill="none" stroke="currentColor" paint-order="fill stroke markers" d="m169.50042,52.70013l-7.70002,0c-1.5,0 -2.70001,-1.2 -2.70001,-2.70001l0,-10.00003c0,-1.5 1.2,-2.70001 2.70001,-2.70001l7.70002,0c1.5,0 2.70001,1.2 2.70001,2.70001l0,10.00003c0.1,1.4 -1.2,2.70001 -2.70001,2.70001z" stroke-width="5" stroke-miterlimit="10" stroke-dasharray=""></path><path data-v-9833e8b2="" transform="scale(0.13812154696132597)" fill="none" stroke="currentColor" paint-order="fill stroke markers" d="m124.80031,64.00016l-3.70001,0c-1.5,0 -2.70001,-1.2 -2.70001,-2.70001l0,-32.70008c0,-1.5 1.2,-2.70001 2.70001,-2.70001l3.70001,0c1.5,0 2.70001,1.2 2.70001,2.70001l0,32.70008c0,1.5 -1.2,2.70001 -2.70001,2.70001z" stroke-width="5" stroke-miterlimit="10" stroke-dasharray=""></path><path data-v-9833e8b2="" transform="scale(0.13812154696132597)" fill="none" stroke="currentColor" paint-order="fill stroke markers" d="m123.50031,58.50014l-1.1,0c-1.8,0 -3.20001,-1.2 -3.20001,-2.70001l0,-21.60005c0,-1.5 1.5,-2.70001 3.20001,-2.70001l1.1,0c1.8,0 3.20001,1.2 3.20001,2.70001l0,21.60005c0,1.4 -1.4,2.70001 -3.20001,2.70001z" stroke-width="5" stroke-miterlimit="10" stroke-dasharray=""></path><path data-v-9833e8b2="" transform="scale(0.13812154696132597)" fill="none" stroke="currentColor" paint-order="fill stroke markers" d="m123.50031,52.70013l-1.1,0c-1.8,0 -3.20001,-1.2 -3.20001,-2.70001l0,-10.00003c0,-1.5 1.5,-2.70001 3.20001,-2.70001l1.1,0c1.8,0 3.20001,1.2 3.20001,2.70001l0,10.00003c0,1.4 -1.4,2.70001 -3.20001,2.70001z" stroke-width="5" stroke-miterlimit="10" stroke-dasharray=""></path><path data-v-9833e8b2="" transform="scale(0.13812154696132597)" fill="none" stroke="currentColor" paint-order="fill stroke markers" d="m6.40001,29.60007l5.90001,0l0,23.30006l-5.90001,0l0,-23.30006z" stroke-width="5" stroke-miterlimit="10" stroke-dasharray=""></path><path data-v-9833e8b2="" transform="scale(0.13812154696132597)" fill="none" stroke="currentColor" paint-order="fill stroke markers" d="m7.50002,32.90008l3.60001,0l0,16.50004l-3.60001,0l0,-16.50004z" stroke-width="5" stroke-miterlimit="10" stroke-dasharray=""></path><path data-v-9833e8b2="" transform="scale(0.13812154696132597)" fill="none" stroke="currentColor" paint-order="fill stroke markers" d="m7.50002,38.80009l3.60001,0l0,4.80001l-3.60001,0l0,-4.80001z" stroke-width="5" stroke-miterlimit="10" stroke-dasharray=""></path><path data-v-9833e8b2="" transform="scale(0.13812154696132597)" fill="none" stroke="currentColor" paint-order="fill stroke markers" d="m27.50007,6.70001l16.20004,0l0,6.20002l-16.20004,0l0,-6.20002z" stroke-width="5" stroke-miterlimit="10" stroke-dasharray=""></path><path data-v-9833e8b2="" transform="scale(0.13812154696132597)" fill="none" stroke="currentColor" paint-order="fill stroke markers" d="m30.40007,6.70001l10.40003,0l0,6.20002l-10.40003,0l0,-6.20002z" stroke-width="5" stroke-miterlimit="10" stroke-dasharray=""></path><path data-v-9833e8b2="" transform="scale(0.13812154696132597)" fill="none" stroke="currentColor" paint-order="fill stroke markers" d="m33.90008,6.70001l3.30001,0l0,6.20002l-3.30001,0l0,-6.20002z" stroke-width="5" stroke-miterlimit="10" stroke-dasharray=""></path><path data-v-9833e8b2="" transform="scale(0.13812154696132597)" fill="none" stroke="currentColor" paint-order="fill stroke markers" d="m23.80006,1l23.30006,0l0,5.90001l-23.30006,0l0,-5.90001z" stroke-width="5" stroke-miterlimit="10" stroke-dasharray=""></path><path data-v-9833e8b2="" transform="scale(0.13812154696132597)" fill="none" stroke="currentColor" paint-order="fill stroke markers" d="m27.30007,2.2l16.50004,0l0,3.60001l-16.50004,0l0,-3.60001z" stroke-width="5" stroke-miterlimit="10" stroke-dasharray=""></path><path data-v-9833e8b2="" transform="scale(0.13812154696132597)" fill="none" stroke="currentColor" paint-order="fill stroke markers" d="m33.10008,2.2l4.80001,0l0,3.60001l-4.80001,0l0,-3.60001z" stroke-width="5" stroke-miterlimit="10" stroke-dasharray=""></path><path data-v-9833e8b2="" transform="scale(0.13812154696132597)" fill="none" stroke="currentColor" paint-order="fill stroke markers" d="m18.30004,12.90003l34.40009,0l0,46.20012l-34.40009,0l0,-46.20012z" stroke-width="5" stroke-miterlimit="10" stroke-dasharray=""></path><path data-v-9833e8b2="" transform="scale(0.13812154696132597)" fill="none" stroke="currentColor" paint-order="fill stroke markers" d="m19.20005,14.00003l32.50008,0l0,44.10011l-32.50008,0l0,-44.10011z" stroke-width="5" stroke-miterlimit="10" stroke-dasharray=""></path><path data-v-9833e8b2="" transform="scale(0.13812154696132597)" fill="none" stroke="currentColor" paint-order="fill stroke markers" d="m1,72.70018l179.10045,0l0,9.80002l-179.10045,0l0,-9.80002z" stroke-width="5" stroke-miterlimit="10" stroke-dasharray=""></path><path data-v-9833e8b2="" transform="scale(0.13812154696132597)" fill="none" stroke="currentColor" paint-order="fill stroke markers" d="m1.9,73.80018l177.20045,0l0,7.60002l-177.20045,0l0,-7.60002z" stroke-width="5" stroke-miterlimit="10" stroke-dasharray=""></path><path data-v-9833e8b2="" transform="scale(0.13812154696132597)" fill="none" stroke="currentColor" paint-order="fill stroke markers" d="m52.70013,21.20005l35.40009,0l0,35.40009l-35.40009,0l0,-35.40009z" stroke-width="5" stroke-miterlimit="10" stroke-dasharray=""></path><path data-v-9833e8b2="" transform="scale(0.13812154696132597)" fill="none" stroke="currentColor" paint-order="fill stroke markers" d="m52.70013,56.60014l35.40009,0l0,9.70002l-35.40009,0l0,-9.70002z" stroke-width="5" stroke-miterlimit="10" stroke-dasharray=""></path><path data-v-9833e8b2="" transform="scale(0.13812154696132597)" fill="none" stroke="currentColor" paint-order="fill stroke markers" d="m54.10013,29.60007l32.50008,0l0,25.50006l-32.50008,0l0,-25.50006z" stroke-width="5" stroke-miterlimit="10" stroke-dasharray=""></path><path data-v-9833e8b2="" transform="scale(0.13812154696132597)" fill="none" stroke="currentColor" paint-order="fill stroke markers" d="m18.30004,59.20015l34.40009,0l0,14.20004l-34.40009,0l0,-14.20004z" stroke-width="5" stroke-miterlimit="10" stroke-dasharray=""></path><path data-v-9833e8b2="" transform="scale(0.13812154696132597)" fill="none" stroke="currentColor" paint-order="fill stroke markers" d="m88.10022,12.90003l27.00007,0l0,46.20012l-27.00007,0l0,-46.20012z" stroke-width="5" stroke-miterlimit="10" stroke-dasharray=""></path><path data-v-9833e8b2="" transform="scale(0.13812154696132597)" fill="none" stroke="currentColor" paint-order="fill stroke markers" d="m89.10022,19.20005l25.10006,0l0,38.9001l-25.10006,0l0,-38.9001z" stroke-width="5" stroke-miterlimit="10" stroke-dasharray=""></path><path data-v-9833e8b2="" transform="scale(0.13812154696132597)" fill="none" stroke="currentColor" paint-order="fill stroke markers" d="m88.10022,59.20015l27.00007,0l0,14.20004l-27.00007,0l0,-14.20004z" stroke-width="5" stroke-miterlimit="10" stroke-dasharray=""></path></g></svg>