<svg data-v-9833e8b2="" version="1.1" xmlns="http://www.w3.org/2000/svg" xmlns:xlink="http://www.w3.org/1999/xlink" width="24.5" height="25"><g data-v-9833e8b2=""><path data-v-9833e8b2="" transform="scale(0.13368983957219252)" fill="none" stroke="currentColor" paint-order="fill stroke markers" d="m163.16,174.95l0,11.79l-162.16,0l0,-11.79l11.79,0l0,-173.95l91.4,0l0,44.23l47.17,0l0,129.73l11.8,0l0,-0.01z" stroke-width="5" stroke-miterlimit="10" stroke-dasharray=""></path><path data-v-9833e8b2="" transform="scale(0.13368983957219252)" fill="none" stroke="currentColor" paint-order="fill stroke markers" d="m136.63,62.91l0,23.59l-23.59,0l0,-23.59l23.59,0zm-23.59,58.97l23.59,0l0,-23.59l-23.59,0l0,23.59zm-84.03,-73.71l23.59,0l0,-23.59l-23.59,0l0,23.59zm35.38,0l23.59,0l0,-23.59l-23.59,0l0,23.59zm-35.38,35.38l23.59,0l0,-23.59l-23.59,0l0,23.59zm35.38,0l23.59,0l0,-23.59l-23.59,0l0,23.59zm-35.38,35.38l23.59,0l0,-23.59l-23.59,0l0,23.59zm35.38,0l23.59,0l0,-23.59l-23.59,0l0,23.59zm-35.38,35.38l23.59,0l0,-23.59l-23.59,0l0,23.59zm35.38,0l23.59,0l0,-23.59l-23.59,0l0,23.59z" stroke-width="5" stroke-miterlimit="10" stroke-dasharray=""></path></g></svg>