<svg data-v-9833e8b2="" version="1.1" xmlns="http://www.w3.org/2000/svg" xmlns:xlink="http://www.w3.org/1999/xlink" width="14.5" height="25"><g data-v-9833e8b2=""><path data-v-9833e8b2="" transform="scale(0.12886597938144329)" fill="none" stroke="currentColor" paint-order="fill stroke markers" d="m102.78,38.23007l0,-27.3l-101.78,0l0,27.3l22.34,0l0,117.91l-22.34,0l0,27.3l101.77,0l0,-27.3l-22.34,0l0,-117.91l22.35,0z" stroke-width="5" stroke-miterlimit="10" stroke-dasharray=""></path><path data-v-9833e8b2="" transform="scale(0.12886597938144329)" fill="none" stroke="currentColor" paint-order="fill stroke markers" d="m28.31,156.13007l0,-117.9l2.48,0l0,117.91l-2.48,0l0,-0.01zm7.45,0l0,-117.9l2.48,0l0,117.91l-2.48,0l0,-0.01zm7.44,0l0,-117.9l2.48,0l0,117.91l-2.48,0l0,-0.01zm7.45,0l0,-117.9l2.48,0l0,117.91l-2.48,0l0,-0.01zm7.45,0l0,-117.9l2.48,0l0,117.91l-2.48,0l0,-0.01zm7.44,0l0,-117.9l2.48,0l0,117.91l-2.48,0l0,-0.01zm9.93,0l-2.48,0l0,-117.9l2.48,0l0,117.9z" stroke-width="5" stroke-miterlimit="10" stroke-dasharray=""></path><path data-v-9833e8b2="" transform="scale(0.12886597938144329)" fill="none" stroke="currentColor" paint-order="fill stroke markers" d="m20.86,3.48007l0,187.41c0,1.37 -1.11,2.48 -2.48,2.48l-7.45,0c-1.37,0 -2.48,-1.11 -2.48,-2.48l0,-187.41c0,-1.37 1.11,-2.48 2.48,-2.48l7.45,0c1.37,-0.01 2.48,1.1 2.48,2.48z" stroke-width="5" stroke-miterlimit="10" stroke-dasharray=""></path><path data-v-9833e8b2="" transform="scale(0.12886597938144329)" fill="none" stroke="currentColor" paint-order="fill stroke markers" d="m95.33,3.48007l0,187.41c0,1.37 -1.11,2.48 -2.48,2.48l-7.45,0c-1.37,0 -2.48,-1.11 -2.48,-2.48l0,-187.41c0,-1.37 1.11,-2.48 2.48,-2.48l7.45,0c1.37,-0.01 2.48,1.1 2.48,2.48z" stroke-width="5" stroke-miterlimit="10" stroke-dasharray=""></path></g></svg>