<svg data-v-9833e8b2="" version="1.1" xmlns="http://www.w3.org/2000/svg" xmlns:xlink="http://www.w3.org/1999/xlink" width="25" height="22.5"><g data-v-9833e8b2=""><path data-v-9833e8b2="" transform="scale(0.12376237623762376)" fill="none" stroke="currentColor" paint-order="fill stroke markers" d="m107.35156,127.29779l0,-66.46973c-7.32762,0 -13.29395,5.40266 -13.29395,12.09217l0,42.30665c0,6.66824 5.94505,12.0709 13.29395,12.0709zm6.64697,-66.46973l59.82275,0l0,9.24195l-59.82275,0l0,-9.24195zm0,35.82984l59.82275,0l0,13.29395l-59.82275,0l0,-13.29395zm0,-19.94092l59.82275,0l0,13.29394l-59.82275,0l0,-13.29394zm79.76367,38.48863l0,-42.28538c0,-6.66824 -5.96632,-12.09217 -13.29394,-12.09217l0,66.46973c7.34889,0 13.29394,-5.40266 13.29394,-12.09217zm-66.46973,-61.02453l33.23486,0a6.63634,6.63634 0 0 0 6.64697,-6.64697l0,-13.29394l-46.52881,0l0,13.29394a6.63634,6.63634 0 0 0 6.64697,6.64697zm-73.1167,-26.58789l13.29395,0l0,-13.29395l-13.29395,0l0,-13.29395l-13.29395,0l0,13.29395l-13.29395,0l0,13.29395l26.58789,0z" stroke-width="5" stroke-miterlimit="10" stroke-dasharray=""></path><path data-v-9833e8b2="" transform="scale(0.12376237623762376)" fill="none" stroke="currentColor" paint-order="fill stroke markers" d="m167.17432,147.23871l0,-13.29395l6.64697,0l0,-17.34594l-59.82275,0l0,17.34594l6.64697,0l0,13.29395l-66.46973,0l0,-33.23486l13.29395,0l0,-13.29395l6.64697,0l0,6.64697l13.29394,0l0,-26.58789l-13.29394,0l0,6.64697l-6.64697,0l0,-13.29395l-13.29395,0l0,-26.58789l13.29395,0l0,-13.29394l-39.88184,0l0,13.29394l13.29395,0l0,26.58789l-6.64697,0l0,39.88184l6.64697,0l0,19.94092l-26.58789,0a13.31522,13.31522 0 0 0 -13.29395,13.29395l0,26.58789l199.43045,0l0,-26.58789l-33.25613,0zm-13.29395,0l-19.94092,0l0,-13.29395l19.94092,0l0,13.29395z" stroke-width="5" stroke-miterlimit="10" stroke-dasharray=""></path><path data-v-9833e8b2="" transform="scale(0.12376237623762376)" fill="none" stroke="currentColor" paint-order="fill stroke markers" d="m27.58789,114.00385l0,-39.88184a13.31522,13.31522 0 0 0 -13.29394,13.29395l-13.29395,0l0,13.29394l13.29395,0a13.28331,13.28331 0 0 0 13.29394,13.29395z" stroke-width="5" stroke-miterlimit="10" stroke-dasharray=""></path><path data-v-9833e8b2="" transform="scale(0.12376237623762376)" fill="none" stroke="currentColor" paint-order="fill stroke markers" d="m166.14271,1.00531a34.28774,34.28774 0 0 0 0,68.56485a34.28774,34.28774 0 1 0 0,-68.56485z" stroke-width="5" stroke-miterlimit="10" stroke-dasharray=""></path><path data-v-9833e8b2="" transform="scale(0.12376237623762376)" fill="none" stroke="currentColor" paint-order="fill stroke markers" d="m166.00445,62.68922a5.626,5.626 0 0 1 -5.87061,-5.8706a5.75362,5.75362 0 0 1 5.96632,-5.99823a5.90251,5.90251 0 0 1 4.25406,1.64845a5.99823,5.99823 0 0 1 1.64845,4.33914a5.64727,5.64727 0 0 1 -5.99823,5.88124zm-3.8712,-16.23988l-1.79734,-35.30872l11.82629,0l-1.80798,35.30872l-8.22098,0z" stroke-width="5" stroke-miterlimit="10" stroke-dasharray=""></path></g></svg>