<svg data-v-9833e8b2="" version="1.1" xmlns="http://www.w3.org/2000/svg" xmlns:xlink="http://www.w3.org/1999/xlink" width="22" height="25"><g data-v-9833e8b2=""><path data-v-9833e8b2="" transform="scale(0.13440860215053763)" fill="none" stroke="currentColor" paint-order="fill stroke markers" d="m141.45,71.25l0,11.79c0.1,0.08 0.2,0.16 0.3,0.24c0.03,0.03 0.06,0.05 0.1,0.08c0.22,0.18 0.43,0.38 0.63,0.58c0.04,0.04 0.08,0.08 0.12,0.12c0.2,0.2 0.39,0.41 0.58,0.63c0.03,0.03 0.05,0.06 0.08,0.1c0.17,0.21 0.34,0.44 0.5,0.66c0.02,0.03 0.04,0.05 0.06,0.08c0.16,0.24 0.31,0.49 0.45,0.74c0.03,0.05 0.06,0.1 0.08,0.15c0.13,0.25 0.26,0.51 0.37,0.78c0.02,0.04 0.04,0.09 0.05,0.13c0.11,0.27 0.21,0.53 0.3,0.81c0.01,0.02 0.01,0.04 0.02,0.06c0.09,0.29 0.16,0.58 0.22,0.87c0.01,0.06 0.02,0.11 0.04,0.17c0.06,0.29 0.1,0.58 0.13,0.88c0.01,0.05 0.01,0.11 0.01,0.16c0.03,0.31 0.05,0.63 0.05,0.95l0,9.23c0,0.32 -0.02,0.64 -0.05,0.95c-0.01,0.05 -0.01,0.11 -0.01,0.16c-0.03,0.3 -0.08,0.59 -0.13,0.88c-0.01,0.06 -0.02,0.11 -0.04,0.17c-0.06,0.3 -0.14,0.59 -0.22,0.87c-0.01,0.02 -0.01,0.04 -0.02,0.06c-0.09,0.28 -0.19,0.54 -0.3,0.81c-0.02,0.04 -0.04,0.09 -0.05,0.14c-0.11,0.26 -0.24,0.52 -0.37,0.78c-0.03,0.05 -0.06,0.1 -0.08,0.15c-0.14,0.25 -0.29,0.5 -0.45,0.74c-0.02,0.03 -0.04,0.05 -0.06,0.08c-0.16,0.23 -0.32,0.45 -0.49,0.66c-0.03,0.03 -0.05,0.07 -0.08,0.1c-0.18,0.22 -0.38,0.43 -0.58,0.63c-0.04,0.04 -0.08,0.08 -0.12,0.12c-0.2,0.2 -0.41,0.39 -0.63,0.58c-0.03,0.03 -0.06,0.05 -0.1,0.08c-0.1,0.08 -0.2,0.16 -0.3,0.24l0,49.21c0.1,0.07 0.19,0.15 0.28,0.22c0.04,0.03 0.09,0.07 0.13,0.1c0.21,0.18 0.42,0.37 0.62,0.56c0.05,0.05 0.09,0.09 0.14,0.14c0.2,0.2 0.39,0.41 0.57,0.62c0.03,0.03 0.06,0.07 0.08,0.11c0.17,0.21 0.34,0.43 0.49,0.66c0.02,0.03 0.04,0.06 0.06,0.08c0.16,0.24 0.31,0.49 0.45,0.74c0.03,0.05 0.06,0.1 0.08,0.15c0.14,0.25 0.26,0.51 0.38,0.78c0.02,0.04 0.04,0.09 0.05,0.13c0.11,0.27 0.21,0.54 0.3,0.82c0.01,0.02 0.01,0.03 0.02,0.05c0.09,0.29 0.16,0.58 0.23,0.88c0.01,0.06 0.02,0.11 0.04,0.17c0.06,0.29 0.1,0.58 0.13,0.88c0.01,0.05 0.01,0.11 0.01,0.16c0.03,0.31 0.05,0.63 0.05,0.95l0,9.23c0,1.42 -0.29,2.76 -0.81,3.99c-1.56,3.68 -5.2,6.26 -9.44,6.26l0,0l-124.06,0c-5.31,0 -9.67,-4.04 -10.2,-9.2c-0.03,-0.34 -0.05,-0.69 -0.05,-1.05l0,-9.23c0,-0.32 0.02,-0.64 0.05,-0.95c0.01,-0.05 0.01,-0.11 0.01,-0.16c0.03,-0.3 0.08,-0.59 0.13,-0.88c0.01,-0.06 0.02,-0.11 0.04,-0.17c0.06,-0.3 0.14,-0.59 0.23,-0.88c0.01,-0.02 0.01,-0.03 0.02,-0.05c0.09,-0.28 0.19,-0.55 0.3,-0.82c0.02,-0.04 0.03,-0.09 0.05,-0.13c0.11,-0.27 0.24,-0.53 0.38,-0.78c0.03,-0.05 0.05,-0.1 0.08,-0.15c0.14,-0.25 0.29,-0.5 0.45,-0.74c0.02,-0.03 0.04,-0.05 0.06,-0.08c0.16,-0.23 0.32,-0.45 0.49,-0.66c0.03,-0.03 0.05,-0.07 0.08,-0.1c0.18,-0.22 0.37,-0.43 0.57,-0.63c0.04,-0.05 0.09,-0.09 0.13,-0.13c0.2,-0.2 0.41,-0.39 0.62,-0.56c0.04,-0.03 0.08,-0.07 0.12,-0.1c0.09,-0.08 0.19,-0.15 0.28,-0.23l0,-49.21c-0.11,-0.08 -0.21,-0.16 -0.31,-0.25c-0.03,-0.02 -0.06,-0.05 -0.09,-0.07c-0.22,-0.18 -0.43,-0.38 -0.64,-0.58c-0.04,-0.04 -0.08,-0.08 -0.12,-0.12c-0.2,-0.2 -0.4,-0.42 -0.58,-0.64c-0.03,-0.03 -0.05,-0.06 -0.07,-0.09c-0.17,-0.22 -0.34,-0.44 -0.5,-0.67c-0.02,-0.03 -0.04,-0.05 -0.06,-0.08c-0.16,-0.24 -0.31,-0.49 -0.45,-0.74c-0.03,-0.05 -0.06,-0.1 -0.08,-0.15c-0.14,-0.25 -0.26,-0.51 -0.37,-0.78c-0.02,-0.04 -0.04,-0.09 -0.05,-0.13c-0.11,-0.27 -0.21,-0.53 -0.3,-0.81c-0.01,-0.02 -0.01,-0.04 -0.02,-0.06c-0.09,-0.29 -0.16,-0.58 -0.22,-0.87c-0.01,-0.06 -0.02,-0.11 -0.04,-0.17c-0.06,-0.29 -0.1,-0.58 -0.13,-0.88c-0.01,-0.05 -0.01,-0.11 -0.01,-0.16c-0.03,-0.31 -0.05,-0.63 -0.05,-0.95l0,-9.23c0,-0.32 0.02,-0.64 0.05,-0.95c0.01,-0.05 0.01,-0.11 0.01,-0.16c0.03,-0.3 0.08,-0.59 0.13,-0.88c0.01,-0.06 0.02,-0.11 0.04,-0.17c0.06,-0.3 0.14,-0.59 0.22,-0.87c0.01,-0.02 0.01,-0.04 0.02,-0.06c0.09,-0.28 0.19,-0.55 0.3,-0.81c0.02,-0.04 0.04,-0.09 0.05,-0.13c0.11,-0.27 0.24,-0.52 0.37,-0.78c0.03,-0.05 0.06,-0.1 0.08,-0.15c0.14,-0.25 0.29,-0.5 0.45,-0.74c0.02,-0.03 0.04,-0.05 0.06,-0.08c0.16,-0.23 0.32,-0.45 0.5,-0.67c0.03,-0.03 0.05,-0.06 0.07,-0.09c0.18,-0.22 0.38,-0.43 0.58,-0.64c0.04,-0.04 0.08,-0.08 0.12,-0.12c0.21,-0.2 0.42,-0.4 0.64,-0.58c0.03,-0.02 0.06,-0.05 0.09,-0.07c0.1,-0.08 0.2,-0.17 0.31,-0.24l0,-11.79c-0.1,-0.07 -0.19,-0.15 -0.28,-0.22c-0.04,-0.03 -0.09,-0.07 -0.13,-0.1c-0.21,-0.18 -0.42,-0.36 -0.61,-0.56c-0.05,-0.05 -0.1,-0.1 -0.15,-0.15c-0.19,-0.2 -0.38,-0.4 -0.56,-0.61c-0.03,-0.04 -0.06,-0.08 -0.1,-0.12c-0.16,-0.2 -0.32,-0.41 -0.47,-0.63c-0.02,-0.04 -0.05,-0.07 -0.08,-0.11c-0.16,-0.23 -0.3,-0.48 -0.44,-0.72c-0.03,-0.06 -0.06,-0.11 -0.09,-0.17c-0.13,-0.25 -0.26,-0.5 -0.37,-0.76c-0.02,-0.05 -0.04,-0.1 -0.06,-0.15c-0.11,-0.26 -0.2,-0.52 -0.29,-0.79c-0.01,-0.02 -0.02,-0.05 -0.02,-0.07c-0.09,-0.28 -0.16,-0.57 -0.22,-0.87c-0.01,-0.06 -0.03,-0.11 -0.04,-0.17c-0.06,-0.29 -0.1,-0.58 -0.13,-0.88c-0.01,-0.05 -0.01,-0.11 -0.01,-0.16c-0.03,-0.31 -0.05,-0.63 -0.05,-0.95l0,-12.3c0,-0.35 0.02,-0.7 0.05,-1.05c0.52,-5.17 4.89,-9.2 10.2,-9.2l9.62,0c0.01,-0.02 0.03,-0.03 0.05,-0.05c0.11,-0.11 0.22,-0.22 0.34,-0.33c0.03,-0.02 0.05,-0.05 0.08,-0.07c0.15,-0.14 0.3,-0.27 0.46,-0.41c0.04,-0.03 0.08,-0.06 0.12,-0.1c0.12,-0.1 0.25,-0.2 0.38,-0.3c0.06,-0.04 0.12,-0.09 0.18,-0.13c0.12,-0.09 0.24,-0.18 0.37,-0.27c0.06,-0.04 0.13,-0.09 0.19,-0.13c0.13,-0.09 0.27,-0.18 0.41,-0.28c0.06,-0.04 0.11,-0.08 0.17,-0.11c0.4,-0.26 0.83,-0.51 1.28,-0.76c0.07,-0.04 0.14,-0.07 0.2,-0.11c0.16,-0.09 0.32,-0.17 0.49,-0.26c0.08,-0.04 0.17,-0.09 0.25,-0.13c0.16,-0.08 0.33,-0.16 0.49,-0.24c0.08,-0.04 0.17,-0.08 0.25,-0.12c0.19,-0.09 0.38,-0.18 0.58,-0.27c0.06,-0.03 0.13,-0.06 0.19,-0.09c0.26,-0.12 0.53,-0.23 0.8,-0.35c0.05,-0.02 0.11,-0.05 0.17,-0.07c0.22,-0.09 0.44,-0.18 0.67,-0.27c0.1,-0.04 0.2,-0.08 0.3,-0.12c0.19,-0.07 0.38,-0.15 0.58,-0.22c0.11,-0.04 0.22,-0.08 0.33,-0.12c0.2,-0.07 0.4,-0.14 0.6,-0.22c0.1,-0.04 0.21,-0.07 0.31,-0.11c0.25,-0.09 0.51,-0.18 0.77,-0.26c0.06,-0.02 0.11,-0.04 0.17,-0.06c0.31,-0.1 0.63,-0.21 0.96,-0.31c0.1,-0.03 0.2,-0.06 0.3,-0.09c0.23,-0.07 0.46,-0.14 0.7,-0.21c0.12,-0.04 0.25,-0.07 0.38,-0.11c0.22,-0.06 0.44,-0.13 0.66,-0.19c0.13,-0.04 0.26,-0.07 0.39,-0.11c0.24,-0.07 0.48,-0.13 0.72,-0.19c0.11,-0.03 0.23,-0.06 0.34,-0.09c0.35,-0.09 0.71,-0.18 1.07,-0.27c0.05,-0.01 0.1,-0.02 0.15,-0.04c0.31,-0.08 0.63,-0.15 0.95,-0.23c0.13,-0.03 0.27,-0.06 0.4,-0.09c0.25,-0.06 0.49,-0.11 0.74,-0.17c0.15,-0.03 0.29,-0.06 0.44,-0.1c0.25,-0.05 0.5,-0.11 0.75,-0.16c0.14,-0.03 0.28,-0.06 0.42,-0.09c0.29,-0.06 0.59,-0.12 0.89,-0.18c0.1,-0.02 0.2,-0.04 0.3,-0.06c0.4,-0.08 0.8,-0.15 1.21,-0.23c0.1,-0.02 0.21,-0.04 0.32,-0.06c0.31,-0.06 0.61,-0.11 0.92,-0.16c0.15,-0.03 0.3,-0.05 0.45,-0.08c0.27,-0.05 0.55,-0.09 0.83,-0.14c0.16,-0.03 0.31,-0.05 0.47,-0.08c0.29,-0.05 0.59,-0.09 0.88,-0.14c0.14,-0.02 0.28,-0.04 0.42,-0.06c0.41,-0.06 0.81,-0.12 1.23,-0.18c0.03,0 0.06,-0.01 0.08,-0.01c0.44,-0.06 0.89,-0.12 1.34,-0.18c0.13,-0.02 0.26,-0.03 0.39,-0.05c0.32,-0.04 0.65,-0.08 0.97,-0.12c0.15,-0.02 0.31,-0.04 0.47,-0.05c0.31,-0.04 0.63,-0.07 0.94,-0.11c0.09,-0.01 0.19,-0.02 0.28,-0.03l0,-9.93c-0.05,-0.02 -0.1,-0.04 -0.15,-0.05c-0.11,-0.04 -0.21,-0.08 -0.31,-0.12c-0.08,-0.03 -0.15,-0.06 -0.22,-0.09c-0.1,-0.04 -0.19,-0.08 -0.28,-0.12c-0.07,-0.03 -0.14,-0.06 -0.2,-0.09c-0.09,-0.04 -0.17,-0.08 -0.25,-0.12c-0.06,-0.03 -0.12,-0.06 -0.18,-0.09c-0.08,-0.04 -0.15,-0.08 -0.22,-0.12c-0.05,-0.03 -0.11,-0.06 -0.16,-0.1c-0.07,-0.04 -0.13,-0.09 -0.19,-0.13c-0.04,-0.03 -0.09,-0.06 -0.13,-0.09c-0.06,-0.04 -0.11,-0.09 -0.16,-0.14c-0.04,-0.03 -0.07,-0.06 -0.11,-0.09c-0.05,-0.05 -0.09,-0.09 -0.13,-0.14c-0.03,-0.03 -0.06,-0.06 -0.08,-0.09c-0.04,-0.05 -0.07,-0.1 -0.1,-0.15c-0.01,-0.02 -0.03,-0.05 -0.05,-0.07l-0.14,0l0,-13.32l0.14,0c0.02,-0.03 0.04,-0.07 0.07,-0.1c0.02,-0.03 0.04,-0.07 0.07,-0.1c0.03,-0.04 0.07,-0.09 0.11,-0.13c0.03,-0.03 0.05,-0.06 0.08,-0.09c0.07,-0.07 0.15,-0.14 0.24,-0.21c0.04,-0.03 0.08,-0.06 0.12,-0.09c0.06,-0.04 0.11,-0.08 0.17,-0.12c0.05,-0.03 0.11,-0.07 0.16,-0.1c0.06,-0.04 0.12,-0.07 0.18,-0.11c0.06,-0.03 0.12,-0.07 0.19,-0.1c0.07,-0.03 0.13,-0.07 0.2,-0.1c0.07,-0.03 0.14,-0.07 0.21,-0.1c0.07,-0.03 0.14,-0.07 0.22,-0.1c0.08,-0.03 0.16,-0.07 0.24,-0.1c0.08,-0.03 0.16,-0.06 0.24,-0.09c0.08,-0.03 0.17,-0.06 0.26,-0.1c0.08,-0.03 0.17,-0.06 0.25,-0.09c0.09,-0.03 0.19,-0.06 0.28,-0.09c0.09,-0.03 0.18,-0.06 0.27,-0.09c0.1,-0.03 0.2,-0.06 0.3,-0.09c0.1,-0.03 0.19,-0.06 0.29,-0.08c0.11,-0.03 0.21,-0.06 0.32,-0.09c0.1,-0.03 0.2,-0.05 0.31,-0.08c0.11,-0.03 0.23,-0.06 0.35,-0.09c0.11,-0.03 0.21,-0.05 0.32,-0.08c0.12,-0.03 0.24,-0.06 0.37,-0.08c0.11,-0.02 0.23,-0.05 0.34,-0.07c0.1,-0.05 0.23,-0.07 0.36,-0.1c0.12,-0.02 0.24,-0.05 0.36,-0.07c0.13,-0.03 0.26,-0.05 0.4,-0.08c0.12,-0.02 0.25,-0.04 0.37,-0.07c0.29,-0.05 0.59,-0.1 0.9,-0.15c0.11,-0.02 0.21,-0.03 0.31,-0.05c0.14,-0.02 0.29,-0.04 0.44,-0.06c0.14,-0.02 0.28,-0.04 0.42,-0.06c0.14,-0.02 0.29,-0.04 0.43,-0.06c0.15,-0.02 0.3,-0.04 0.45,-0.06c0.15,-0.02 0.3,-0.04 0.44,-0.05c0.15,-0.02 0.31,-0.04 0.47,-0.05c0.15,-0.02 0.3,-0.03 0.46,-0.05c0.16,-0.02 0.32,-0.03 0.48,-0.05c0.16,-0.02 0.31,-0.03 0.47,-0.05c0.16,-0.02 0.33,-0.03 0.49,-0.05c0.16,-0.01 0.32,-0.03 0.48,-0.04c0.17,-0.01 0.34,-0.03 0.52,-0.04c0.16,-0.01 0.32,-0.02 0.48,-0.04c0.18,-0.01 0.35,-0.03 0.53,-0.04c0.16,-0.01 0.32,-0.02 0.48,-0.03c0.18,-0.01 0.37,-0.02 0.55,-0.03c0.16,-0.01 0.32,-0.02 0.48,-0.03c0.19,-0.01 0.38,-0.02 0.58,-0.03c0.16,-0.01 0.32,-0.01 0.48,-0.02c0.2,-0.01 0.4,-0.01 0.6,-0.02c0.16,-0.01 0.32,-0.01 0.47,-0.02c0.21,-0.01 0.43,-0.01 0.64,-0.02c0.15,0 0.3,-0.01 0.45,-0.01c0.24,0 0.49,-0.01 0.73,-0.01c0.13,0 0.25,0 0.38,-0.01c0.37,0 0.75,-0.01 1.12,-0.01c0.38,0 0.75,0 1.12,0.01c0.13,0 0.25,0 0.38,0.01c0.24,0 0.49,0.01 0.73,0.01c0.15,0 0.3,0.01 0.45,0.01c0.21,0.01 0.43,0.01 0.64,0.02c0.16,0 0.32,0.01 0.48,0.02c0.2,0.01 0.4,0.01 0.6,0.02c0.16,0.01 0.32,0.01 0.48,0.02c0.19,0.01 0.39,0.02 0.58,0.03c0.16,0.01 0.32,0.02 0.48,0.03c0.18,0.01 0.37,0.02 0.55,0.03c0.16,0.01 0.33,0.02 0.49,0.03c0.18,0.01 0.35,0.02 0.53,0.04c0.16,0.01 0.32,0.02 0.48,0.04c0.17,0.01 0.34,0.03 0.51,0.04c0.16,0.01 0.32,0.03 0.48,0.04c0.16,0.01 0.33,0.03 0.49,0.05c0.16,0.02 0.32,0.03 0.47,0.05c0.16,0.02 0.32,0.03 0.48,0.05c0.15,0.02 0.31,0.03 0.46,0.05c0.16,0.02 0.31,0.04 0.46,0.05c0.15,0.02 0.3,0.04 0.45,0.05c0.15,0.02 0.29,0.04 0.44,0.06c0.15,0.02 0.3,0.04 0.44,0.06c0.14,0.02 0.27,0.04 0.4,0.06c0.15,0.02 0.31,0.04 0.45,0.07c0.07,0.01 0.15,0.02 0.22,0.04c0.35,0.05 0.69,0.11 1.02,0.17c0.11,0.02 0.23,0.04 0.34,0.06c0.14,0.03 0.28,0.05 0.42,0.08c0.11,0.02 0.23,0.04 0.34,0.07c0.13,0.03 0.26,0.06 0.4,0.08c0.11,0.02 0.22,0.05 0.33,0.07c0.13,0.03 0.25,0.06 0.38,0.09c0.11,0.02 0.21,0.05 0.31,0.07c0.12,0.03 0.24,0.06 0.35,0.09c0.1,0.03 0.2,0.05 0.3,0.08c0.11,0.03 0.22,0.06 0.33,0.09c0.1,0.03 0.19,0.05 0.29,0.08c0.1,0.03 0.21,0.06 0.31,0.09c0.09,0.03 0.18,0.06 0.27,0.09c0.1,0.03 0.19,0.06 0.29,0.1c0.08,0.03 0.17,0.06 0.25,0.09c0.09,0.03 0.18,0.07 0.27,0.1c0.08,0.03 0.15,0.06 0.23,0.09c0.08,0.03 0.16,0.07 0.24,0.1c0.07,0.03 0.14,0.06 0.21,0.1c0.07,0.03 0.15,0.07 0.22,0.1c0.07,0.03 0.13,0.07 0.19,0.1c0.06,0.03 0.13,0.07 0.19,0.1c0.06,0.03 0.12,0.07 0.17,0.1c0.06,0.03 0.11,0.07 0.17,0.1c0.06,0.04 0.11,0.08 0.16,0.12c0.04,0.03 0.09,0.06 0.13,0.1c0.09,0.07 0.17,0.14 0.24,0.21c0.03,0.03 0.06,0.06 0.09,0.1c0.04,0.04 0.08,0.08 0.11,0.12c0.03,0.03 0.05,0.07 0.07,0.1c0.02,0.03 0.05,0.07 0.07,0.1l0.14,0l0,0.51l0,12.3l0,0.51l-0.14,0c-0.02,0.03 -0.04,0.06 -0.07,0.1c-0.03,0.04 -0.05,0.08 -0.08,0.12c-0.03,0.04 -0.07,0.08 -0.1,0.12c-0.03,0.04 -0.07,0.08 -0.11,0.12c-0.04,0.04 -0.09,0.08 -0.13,0.12c-0.04,0.04 -0.09,0.08 -0.14,0.11c-0.05,0.04 -0.11,0.08 -0.16,0.12c-0.05,0.04 -0.11,0.07 -0.16,0.11c-0.06,0.04 -0.12,0.08 -0.19,0.11c-0.06,0.04 -0.12,0.07 -0.19,0.11c-0.07,0.04 -0.14,0.07 -0.21,0.11c-0.07,0.03 -0.14,0.07 -0.21,0.1c-0.08,0.04 -0.16,0.07 -0.24,0.11c-0.08,0.03 -0.16,0.07 -0.24,0.1c-0.09,0.03 -0.17,0.07 -0.26,0.1c-0.09,0.03 -0.18,0.07 -0.27,0.1c-0.06,0.02 -0.11,0.04 -0.17,0.06l0,10.05c0.26,0.03 0.52,0.06 0.77,0.09c0.09,0.01 0.18,0.02 0.27,0.03c0.32,0.04 0.63,0.08 0.95,0.12c0.11,0.01 0.23,0.03 0.34,0.04c0.31,0.04 0.61,0.08 0.91,0.12c0.11,0.02 0.22,0.03 0.34,0.05c0.31,0.04 0.61,0.09 0.92,0.13c0.06,0.01 0.12,0.02 0.17,0.03c0.72,0.11 1.42,0.22 2.12,0.33c0.01,0 0.01,0 0.02,0c0.27,0.04 0.54,0.09 0.8,0.14c0.14,0.02 0.28,0.05 0.43,0.07c0.24,0.04 0.48,0.09 0.72,0.13c0.16,0.03 0.32,0.06 0.48,0.09c0.23,0.04 0.46,0.09 0.69,0.13c0.17,0.03 0.33,0.06 0.5,0.1c0.22,0.04 0.44,0.09 0.66,0.13c0.17,0.04 0.35,0.07 0.52,0.11c0.31,0.06 0.61,0.13 0.91,0.19c0.25,0.05 0.5,0.11 0.74,0.16c0.18,0.04 0.37,0.08 0.55,0.13c0.19,0.04 0.38,0.09 0.56,0.13c0.18,0.04 0.36,0.09 0.53,0.13c0.19,0.05 0.37,0.09 0.56,0.14c0.17,0.04 0.34,0.09 0.51,0.13c0.19,0.05 0.38,0.1 0.56,0.15c0.16,0.04 0.32,0.08 0.48,0.13c0.2,0.06 0.4,0.11 0.61,0.17c0.14,0.04 0.27,0.08 0.41,0.11c0.32,0.09 0.64,0.19 0.96,0.28c0.1,0.03 0.19,0.06 0.29,0.09c0.23,0.07 0.46,0.14 0.68,0.21c0.13,0.04 0.25,0.08 0.38,0.12c0.19,0.06 0.38,0.12 0.57,0.19c0.13,0.04 0.26,0.09 0.38,0.13c0.19,0.06 0.37,0.13 0.55,0.19c0.12,0.04 0.24,0.08 0.36,0.13c0.2,0.07 0.39,0.14 0.58,0.21c0.1,0.04 0.2,0.07 0.29,0.11c0.28,0.11 0.56,0.22 0.84,0.33c0.02,0.01 0.04,0.02 0.07,0.03c0.25,0.1 0.5,0.21 0.75,0.31c0.09,0.04 0.17,0.08 0.26,0.11c0.18,0.08 0.35,0.15 0.53,0.23c0.1,0.04 0.19,0.09 0.28,0.13c0.16,0.08 0.32,0.15 0.48,0.23c0.09,0.04 0.18,0.09 0.27,0.13c0.16,0.08 0.32,0.16 0.48,0.24c0.08,0.04 0.15,0.08 0.23,0.12c0.21,0.11 0.42,0.22 0.62,0.33c0.02,0.01 0.04,0.02 0.06,0.03c0.22,0.12 0.44,0.25 0.65,0.37c0.06,0.03 0.11,0.07 0.17,0.1c0.15,0.09 0.3,0.18 0.44,0.27c0.07,0.04 0.13,0.09 0.2,0.13c0.13,0.08 0.25,0.17 0.38,0.25c0.07,0.05 0.13,0.09 0.2,0.14c0.12,0.09 0.24,0.17 0.36,0.26c0.06,0.04 0.12,0.09 0.17,0.13c0.14,0.11 0.27,0.21 0.4,0.32c0.03,0.02 0.06,0.05 0.09,0.07c0.16,0.13 0.31,0.27 0.46,0.4c0.03,0.03 0.06,0.06 0.1,0.09c0.11,0.1 0.22,0.21 0.32,0.31c0.02,0.02 0.03,0.03 0.05,0.05l10.65,0l0,0c4.25,0 7.89,2.58 9.44,6.26c0.52,1.23 0.81,2.57 0.81,3.99l0,12.3c0,0.32 -0.02,0.64 -0.05,0.95c-0.01,0.05 -0.01,0.11 -0.01,0.16c-0.03,0.3 -0.08,0.59 -0.13,0.88c-0.01,0.06 -0.02,0.11 -0.04,0.17c-0.06,0.29 -0.14,0.58 -0.22,0.87c-0.01,0.02 -0.02,0.05 -0.02,0.07c-0.09,0.27 -0.18,0.53 -0.29,0.79c-0.02,0.05 -0.04,0.1 -0.06,0.15c-0.11,0.26 -0.24,0.51 -0.37,0.76c-0.03,0.06 -0.06,0.11 -0.09,0.17c-0.14,0.25 -0.28,0.49 -0.44,0.72c-0.03,0.04 -0.05,0.07 -0.08,0.11c-0.15,0.21 -0.3,0.42 -0.47,0.62c-0.03,0.04 -0.07,0.08 -0.1,0.13c-0.18,0.21 -0.36,0.41 -0.56,0.61c-0.05,0.05 -0.1,0.1 -0.15,0.15c-0.2,0.19 -0.4,0.38 -0.61,0.55c-0.04,0.04 -0.09,0.07 -0.14,0.11c-0.13,0.08 -0.22,0.16 -0.32,0.23z" stroke-width="5" stroke-miterlimit="10" stroke-dasharray=""></path></g></svg>