<svg data-v-9833e8b2="" version="1.1" xmlns="http://www.w3.org/2000/svg" xmlns:xlink="http://www.w3.org/1999/xlink" width="25" height="25"><g data-v-9833e8b2=""><path data-v-9833e8b2="" transform="scale(0.12376237623762376)" fill="none" stroke="currentColor" paint-order="fill stroke markers" d="m41.53168,185.13731l50.66855,0l0,10.60003l-50.66855,0l0,-10.60003zm159.46882,-59.61068l-24.00006,0l0,-6.62633l-10.66845,0l0,6.62633l-93.33181,0a10.6474,10.6474 0 0 1 -10.66845,-10.60003l0,-83.4581l8.00002,0l0,-10.59476l-8.00002,0l0,-19.87374l-53.33171,0l0,19.87374l-8.00002,0l0,10.60003l8.00002,0l0,83.4581c0,35.06325 28.7106,63.58963 64.00016,63.58963l93.33181,0l0,9.27371l10.66845,0l0,-9.27371l24.00006,0l0,-52.99487zm-181.33203,-113.9266l32.00008,0l0,9.27371l-32.00008,0l0,-9.27371zm53.33171,156.31618c-29.4106,0 -53.33171,-23.76848 -53.33171,-52.98961l0,-83.4581l32.00008,0l0,83.4581c0,11.6895 9.56844,21.19479 21.33163,21.19479l93.33181,0l0,31.79482l-93.33181,0zm117.33187,0l-13.33161,0l0,-31.79482l13.33161,0l0,31.79482z" stroke-width="5" stroke-miterlimit="10" stroke-dasharray=""></path><path data-v-9833e8b2="" transform="scale(0.12376237623762376)" fill="none" stroke="currentColor" paint-order="fill stroke markers" d="m115.43187,90.24759s-0.92105,-6.95265 2.7579,-10.93161c0,0 0,11.92108 6.4316,12.91582c0,0 14.4474,-2.02632 16.54215,-17.88426c1.83685,-13.91056 -5.5158,-17.88426 -5.5158,-17.88426s0,7.94739 -3.67369,7.94739c0,0 3.67369,-15.89478 -12.86319,-19.87373c0,0 0,7.94739 -9.1895,13.91056c-12.31056,7.98949 -3.67896,31.80008 5.51054,31.80008z" stroke-width="5" stroke-miterlimit="10" stroke-dasharray=""></path><path data-v-9833e8b2="" transform="scale(0.12376237623762376)" fill="none" stroke="currentColor" paint-order="fill stroke markers" d="m122.63715,110.78449c23.52638,0 42.66853,-19.01584 42.66853,-42.38958s-19.14215,-42.39485 -42.66853,-42.39485s-42.66853,19.01584 -42.66853,42.38958s19.14215,42.39484 42.66853,42.39484zm0,-79.48441c20.58426,0 37.33167,16.64215 37.33167,37.09483s-16.74741,37.09483 -37.33167,37.09483s-37.33167,-16.64215 -37.33167,-37.09483s16.74215,-37.09483 37.33167,-37.09483z" stroke-width="5" stroke-miterlimit="10" stroke-dasharray=""></path></g></svg>