<svg data-v-9833e8b2="" version="1.1" xmlns="http://www.w3.org/2000/svg" xmlns:xlink="http://www.w3.org/1999/xlink" width="25" height="12.5"><g data-v-9833e8b2=""><path data-v-9833e8b2="" transform="scale(0.12626262626262627)" fill="none" stroke="currentColor" paint-order="fill stroke markers" d="m29.9345,95.17064l-15.46749,0a4.76411,4.76411 0 0 1 -4.76411,-4.76411l0,-73.93904a4.76411,4.76411 0 0 1 4.76411,-4.76411l15.46749,0a4.76411,4.76411 0 0 1 4.82763,4.76411l0,73.93904a4.76411,4.76411 0 0 1 -4.82763,4.76411zm-13.87945,-6.35215l12.35493,0l0,-70.69944l-12.35493,0l0,70.69944z" stroke-width="5" stroke-miterlimit="10" stroke-dasharray=""></path><path data-v-9833e8b2="" transform="scale(0.12626262626262627)" fill="none" stroke="currentColor" paint-order="fill stroke markers" d="m10.94157,93.01091l-7.08265,-5.46285a6.98737,6.98737 0 0 1 -2.85847,-5.71694l0,-54.72378a6.95561,6.95561 0 0 1 2.3503,-5.11348l7.36849,-6.89208l4.31946,4.54179l-7.43202,7.05089a0.63522,0.63522 0 0 0 -0.25409,0.47641l0,54.69202a0.69874,0.69874 0 0 0 0.28585,0.60345l7.17793,5.52637l-3.87481,5.0182z" stroke-width="5" stroke-miterlimit="10" stroke-dasharray=""></path><path data-v-9833e8b2="" transform="scale(0.12626262626262627)" fill="none" stroke="currentColor" paint-order="fill stroke markers" d="m105.20749,90.1842l-76.79751,0l0,-73.71671l76.79751,0l0,73.71671zm-70.44536,-6.35215l64.09321,0l0,-61.01241l-64.09321,0l0,61.01241z" stroke-width="5" stroke-miterlimit="10" stroke-dasharray=""></path><path data-v-9833e8b2="" transform="scale(0.12626262626262627)" fill="none" stroke="currentColor" paint-order="fill stroke markers" d="m32.79297,29.07651l68.34915,0l0,3.17608l-68.34915,0l0,-3.17608z" stroke-width="5" stroke-miterlimit="10" stroke-dasharray=""></path><path data-v-9833e8b2="" transform="scale(0.12626262626262627)" fill="none" stroke="currentColor" paint-order="fill stroke markers" d="m32.79297,40.38334l68.34915,0l0,3.17608l-68.34915,0l0,-3.17608z" stroke-width="5" stroke-miterlimit="10" stroke-dasharray=""></path><path data-v-9833e8b2="" transform="scale(0.12626262626262627)" fill="none" stroke="currentColor" paint-order="fill stroke markers" d="m32.79297,51.6584l68.34915,0l0,3.17608l-68.34915,0l0,-3.17608z" stroke-width="5" stroke-miterlimit="10" stroke-dasharray=""></path><path data-v-9833e8b2="" transform="scale(0.12626262626262627)" fill="none" stroke="currentColor" paint-order="fill stroke markers" d="m32.79297,62.96523l68.34915,0l0,3.17608l-68.34915,0l0,-3.17608z" stroke-width="5" stroke-miterlimit="10" stroke-dasharray=""></path><path data-v-9833e8b2="" transform="scale(0.12626262626262627)" fill="none" stroke="currentColor" paint-order="fill stroke markers" d="m32.85649,74.2403l68.34915,0l0,3.17608l-68.34915,0l0,-3.17608z" stroke-width="5" stroke-miterlimit="10" stroke-dasharray=""></path><path data-v-9833e8b2="" transform="scale(0.12626262626262627)" fill="none" stroke="currentColor" paint-order="fill stroke markers" d="m153.03919,97.52094l-46.9424,0a6.35215,6.35215 0 0 1 -6.35215,-6.35215l0,-76.22581a6.35215,6.35215 0 0 1 6.35215,-6.35215l6.638,0l0,6.35215l-6.638,0l0,76.22581l46.9424,0l0,-76.22581l6.35215,0l0,76.22581a6.35215,6.35215 0 0 1 -6.35215,6.35215z" stroke-width="5" stroke-miterlimit="10" stroke-dasharray=""></path><path data-v-9833e8b2="" transform="scale(0.12626262626262627)" fill="none" stroke="currentColor" paint-order="fill stroke markers" d="m159.4231,19.35772l-49.4515,0l0,-12.00557a6.35215,6.35215 0 0 1 6.35215,-6.35215l36.74719,0a6.35215,6.35215 0 0 1 6.35215,6.35215l0,12.00557zm-43.09935,-6.35215l36.74719,0l0,-5.65342l-36.74719,0l0,5.65342z" stroke-width="5" stroke-miterlimit="10" stroke-dasharray=""></path><path data-v-9833e8b2="" transform="scale(0.12626262626262627)" fill="none" stroke="currentColor" paint-order="fill stroke markers" d="m155.67533,98.06087l0,-6.35215l11.71972,0l0,-72.351l-11.17979,0l0,-6.35215l12.7043,0a5.0182,5.0182 0 0 1 4.82763,5.24052l0,74.76482a4.92292,4.92292 0 0 1 -4.60531,5.04996l-13.46656,0zm11.71972,-5.0182zm0,-74.98714z" stroke-width="5" stroke-miterlimit="10" stroke-dasharray=""></path><path data-v-9833e8b2="" transform="scale(0.12626262626262627)" fill="none" stroke="currentColor" paint-order="fill stroke markers" d="m160.78882,98.06087l-51.77003,0l7.84491,-29.69631a6.35215,6.35215 0 0 1 6.35215,-4.82763l23.40768,0a6.35215,6.35215 0 0 1 6.35215,4.95468l7.81315,29.56926zm-43.51224,-6.35215l35.25444,0l-5.81222,-21.6926l-23.56648,0l-5.87574,21.6926z" stroke-width="5" stroke-miterlimit="10" stroke-dasharray=""></path><path data-v-9833e8b2="" transform="scale(0.12626262626262627)" fill="none" stroke="currentColor" paint-order="fill stroke markers" d="m170.44409,105.3976l-70.69944,0a6.35215,6.35215 0 0 1 -6.35215,-6.35215l0,-4.2877l3.17608,0l0,-3.17608l80.22767,0l0,7.46378a6.35215,6.35215 0 0 1 -6.35215,6.35215zm-70.69944,-7.33673l0,0.98458l70.69944,0l0,-0.98458l-70.69944,0z" stroke-width="5" stroke-miterlimit="10" stroke-dasharray=""></path><path data-v-9833e8b2="" transform="scale(0.12626262626262627)" fill="none" stroke="currentColor" paint-order="fill stroke markers" d="m191.56499,51.69017l-23.59824,0l0,-21.27971l23.59824,0a6.35215,6.35215 0 0 1 6.35215,6.35215l0,8.5754a6.35215,6.35215 0 0 1 -6.35215,6.35215zm-17.24609,-6.35215l17.24609,0l0,-8.5754l-17.24609,0l0,8.5754z" stroke-width="5" stroke-miterlimit="10" stroke-dasharray=""></path></g></svg>