<svg data-v-9833e8b2="" version="1.1" xmlns="http://www.w3.org/2000/svg" xmlns:xlink="http://www.w3.org/1999/xlink" width="25" height="25"><g data-v-9833e8b2=""><path data-v-9833e8b2="" transform="scale(0.13368983957219252)" fill="none" stroke="currentColor" paint-order="fill stroke markers" d="m143.91,10.52c0,0 0,0 0,0c0,1.32 -0.27,2.57 -0.75,3.71c-1.45,3.42 -4.83,5.82 -8.78,5.82l-21.43,0l0,7.14l-11.9,0l0,11.91l-14.29,0l0,-11.91l-11.9,0l0,-7.14l-21.44,0c-5.26,0 -9.53,-4.26 -9.53,-9.53c0,-5.26 4.27,-9.52 9.53,-9.52l80.96,0c0.66,0 1.3,0.07 1.92,0.19c4.34,0.89 7.61,4.73 7.61,9.33c0,0 0,0 0,0z" stroke-width="5" stroke-miterlimit="10" stroke-dasharray=""></path><path data-v-9833e8b2="" transform="scale(0.13368983957219252)" fill="none" stroke="currentColor" paint-order="fill stroke markers" d="m115.33,43.86l0,23.81l-42.86,0l0,-23.81l42.86,0z" stroke-width="5" stroke-miterlimit="10" stroke-dasharray=""></path><path data-v-9833e8b2="" transform="scale(0.13368983957219252)" fill="none" stroke="currentColor" paint-order="fill stroke markers" d="m186.77,87.92l0,88.11c0,5.91 -4.8,10.71 -10.72,10.71c-5.92,0 -10.72,-4.8 -10.72,-10.71l0,-5.96l-31.1,0c-0.03,0.03 -0.07,0.06 -0.1,0.09c-0.61,0.61 -1.23,1.2 -1.87,1.78c-0.15,0.13 -0.3,0.26 -0.45,0.39c-0.53,0.47 -1.06,0.94 -1.61,1.39c-0.25,0.21 -0.52,0.4 -0.78,0.61c-0.46,0.36 -0.91,0.73 -1.38,1.08c-0.34,0.25 -0.69,0.49 -1.04,0.74c-0.4,0.28 -0.79,0.57 -1.19,0.85c-0.41,0.28 -0.84,0.54 -1.26,0.81c-0.35,0.22 -0.69,0.46 -1.05,0.67c-0.45,0.27 -0.92,0.53 -1.38,0.79c-0.34,0.19 -0.67,0.4 -1.02,0.58c-0.53,0.29 -1.07,0.55 -1.61,0.82c-0.28,0.14 -0.56,0.3 -0.85,0.43c-0.58,0.28 -1.17,0.54 -1.76,0.8c-0.26,0.11 -0.51,0.24 -0.77,0.35c-0.61,0.26 -1.24,0.5 -1.86,0.73c-0.24,0.09 -0.48,0.2 -0.73,0.29c-0.64,0.23 -1.29,0.44 -1.94,0.65c-0.24,0.08 -0.48,0.17 -0.72,0.24c-0.67,0.21 -1.36,0.39 -2.04,0.58c-0.22,0.06 -0.44,0.13 -0.67,0.19c-0.66,0.17 -1.33,0.32 -2,0.46c-0.25,0.06 -0.5,0.12 -0.76,0.18c-0.65,0.13 -1.31,0.24 -1.98,0.35c-0.28,0.05 -0.56,0.11 -0.84,0.15c-0.71,0.11 -1.43,0.19 -2.14,0.27c-0.24,0.03 -0.47,0.07 -0.71,0.09c-0.83,0.08 -1.67,0.14 -2.51,0.19c-0.13,0.01 -0.26,0.02 -0.39,0.03c-0.97,0.05 -1.95,0.07 -2.94,0.07c-0.99,0 -1.97,-0.03 -2.94,-0.07c-0.07,0 -0.13,-0.01 -0.2,-0.01c-0.91,-0.05 -1.81,-0.11 -2.7,-0.21c-0.13,-0.01 -0.26,-0.04 -0.39,-0.05c-0.83,-0.09 -1.65,-0.19 -2.47,-0.31c-0.17,-0.03 -0.34,-0.06 -0.51,-0.09c-0.77,-0.13 -1.55,-0.26 -2.31,-0.41c-0.1,-0.02 -0.2,-0.05 -0.3,-0.07c-0.83,-0.17 -1.65,-0.36 -2.47,-0.57c-0.06,-0.01 -0.11,-0.03 -0.17,-0.05c-0.85,-0.22 -1.7,-0.46 -2.54,-0.72c-0.08,-0.02 -0.16,-0.05 -0.24,-0.08c-0.81,-0.26 -1.62,-0.53 -2.42,-0.82c-0.08,-0.03 -0.16,-0.06 -0.23,-0.09c-0.79,-0.29 -1.58,-0.6 -2.36,-0.93c-0.08,-0.03 -0.16,-0.07 -0.24,-0.11c-0.77,-0.33 -1.54,-0.67 -2.29,-1.04c-0.09,-0.04 -0.18,-0.09 -0.27,-0.14c-0.74,-0.36 -1.47,-0.73 -2.18,-1.12c-0.17,-0.09 -0.34,-0.2 -0.51,-0.29c-0.63,-0.35 -1.26,-0.7 -1.88,-1.08c-0.21,-0.13 -0.41,-0.27 -0.62,-0.39c-0.57,-0.36 -1.14,-0.71 -1.7,-1.09c-0.28,-0.19 -0.55,-0.39 -0.83,-0.59c-0.47,-0.33 -0.94,-0.65 -1.4,-1c-0.37,-0.28 -0.73,-0.58 -1.1,-0.86c-0.35,-0.28 -0.71,-0.54 -1.05,-0.83c-0.45,-0.37 -0.89,-0.77 -1.33,-1.15c-0.24,-0.21 -0.49,-0.41 -0.73,-0.63c-0.56,-0.51 -1.11,-1.04 -1.65,-1.57c-0.1,-0.1 -0.21,-0.2 -0.32,-0.3l-31.1,0l0,5.96c0,5.91 -4.8,10.71 -10.72,10.71s-10.71,-4.8 -10.71,-10.71l0,-88.09c0,-5.92 4.8,-10.72 10.71,-10.72s10.72,4.8 10.72,10.72l0,5.95l26.82,0c0.06,-0.07 0.13,-0.14 0.19,-0.22c0.84,-1.03 1.71,-2.03 2.61,-3c0.19,-0.2 0.38,-0.39 0.56,-0.59c0.94,-0.98 1.9,-1.94 2.91,-2.85c0.08,-0.07 0.17,-0.14 0.25,-0.22c0.97,-0.87 1.97,-1.7 3,-2.5c0.19,-0.15 0.37,-0.29 0.56,-0.44c1.06,-0.8 2.15,-1.57 3.26,-2.3c0.11,-0.07 0.21,-0.15 0.32,-0.22l0,-9.1l61.92,0l0,9.1c0.1,0.07 0.2,0.15 0.31,0.22c1.12,0.73 2.22,1.5 3.28,2.31c0.18,0.14 0.36,0.28 0.53,0.42c1.04,0.81 2.05,1.65 3.03,2.52c0.08,0.07 0.16,0.13 0.23,0.2c1.01,0.91 1.98,1.87 2.92,2.86c0.19,0.19 0.37,0.39 0.56,0.58c0.91,0.97 1.78,1.97 2.62,3.01c0.06,0.07 0.13,0.14 0.19,0.21l26.82,0l0,-5.95c0,-5.92 4.8,-10.72 10.72,-10.72c5.93,0.01 10.73,4.81 10.73,10.73z" stroke-width="5" stroke-miterlimit="10" stroke-dasharray=""></path></g></svg>