<svg data-v-9833e8b2="" version="1.1" xmlns="http://www.w3.org/2000/svg" xmlns:xlink="http://www.w3.org/1999/xlink" width="25" height="22.5"><g data-v-9833e8b2=""><path data-v-9833e8b2="" transform="scale(0.13966480446927373)" fill="none" stroke="currentColor" paint-order="fill stroke markers" d="m38.50009,113.50028l-1.25,-5.00001c7.50002,-2.50001 12.50003,-7.50002 12.50003,-15.00004l0,-61.25015c0,-3.75001 -2.50001,-7.50002 -5.00001,-11.25003c-1.25,-1.25 -2.50001,-2.50001 -5.00001,-2.50001c-5.00001,-1.25 -12.50003,-1.25 -17.50004,0c-6.25002,2.50001 -10.00003,7.50002 -10.00003,13.75003l0,61.25015c0,6.25002 5.00001,12.50003 12.50003,15.00004l-1.25,5.00001c-8.75002,-2.50001 -15.00004,-10.00003 -15.00004,-18.75005l0,-61.25015c0,-7.50002 5.00001,-15.00004 12.50003,-17.50004c6.25002,-2.50001 13.75003,-2.50001 20.00005,0c2.50001,1.25 3.75001,2.50001 6.25002,3.75001c5.00001,3.75001 7.50002,8.75002 7.50002,15.00004l0,61.25015c0,6.25002 -7.50002,13.75003 -16.25004,17.50004zm123.75031,0l-1.25,-5.00001c7.50002,-2.50001 12.50003,-7.50002 12.50003,-15.00004l0,-61.25015c0,-3.75001 -2.50001,-7.50002 -5.00001,-11.25003c-1.25,-1.25 -2.50001,-2.50001 -5.00001,-2.50001c-5.00001,-1.25 -12.50003,-1.25 -17.50004,0c-6.25002,2.50001 -10.00003,7.50002 -10.00003,13.75003l0,61.25015c0,6.25002 5.00001,12.50003 12.50003,15.00004l-1.25,5.00001c-10.00003,-2.50001 -16.25004,-11.25003 -16.25004,-18.75005l0,-61.25015c0,-7.50002 5.00001,-15.00004 12.50003,-17.50004c6.25002,-2.50001 13.75003,-2.50001 20.00005,0c2.50001,1.25 3.75001,2.50001 6.25002,3.75001c5.00001,3.75001 7.50002,8.75002 7.50002,15.00004l0,61.25015c0,6.25002 -6.25002,13.75003 -15.00004,17.50004zm-62.50016,-1.25l-1.25,-5.00001c7.50002,-2.50001 12.50003,-7.50002 12.50003,-15.00004l0,-61.25015c0,-3.75001 -2.50001,-7.50002 -5.00001,-11.25003c-1.25,-1.25 -2.50001,-2.50001 -5.00001,-2.50001c-5.00001,-1.25 -12.50003,-1.25 -17.50004,0c-6.25002,2.50001 -10.00003,7.50002 -10.00003,13.75003l0,61.25015c0,6.25002 5.00001,12.50003 12.50003,15.00004l-1.25,5.00001c-10.00003,-2.50001 -16.25004,-11.25003 -16.25004,-18.75005l0,-61.25015c0,-7.50002 5.00001,-15.00004 12.50003,-17.50004c6.25002,-2.50001 13.75003,-2.50001 20.00005,0c2.50001,1.25 3.75001,2.50001 6.25002,3.75001c5.00001,3.75001 7.50002,8.75002 7.50002,15.00004l0,61.25015c0,7.50002 -5.00001,15.00004 -15.00004,17.50004z" stroke-width="5" stroke-miterlimit="10" stroke-dasharray=""></path><path data-v-9833e8b2="" transform="scale(0.13966480446927373)" fill="none" stroke="currentColor" paint-order="fill stroke markers" d="m37.25009,114.75029l-2.50001,-7.50002l1.25,0c7.50002,-2.50001 11.25003,-7.50002 11.25003,-13.75003l0,-61.25015c0,-3.75001 -1.25,-7.50002 -5.00001,-10.00003c-1.25,-1.25 -2.50001,-2.50001 -3.75001,-2.50001c-5.00001,-1.25 -11.25003,-1.25 -16.25004,0c-5.00001,2.50001 -8.75002,7.50002 -8.75002,12.50003l0,61.25015c0,6.25002 5.00001,11.25003 11.25003,13.75003l1.25,0l-2.50001,7.50002l-1.25,0c-10.00003,-2.50001 -16.25004,-11.25003 -16.25004,-20.00005l0,-61.25015c0,-8.75002 5.00001,-15.00004 13.75003,-18.75005c6.25002,-2.50001 15.00004,-2.50001 21.25005,0c2.50001,1.25 5.00001,2.50001 6.25002,3.75001c5.00001,3.75001 7.50002,10.00003 7.50002,15.00004l0,61.25015c1.25,8.75002 -6.25002,16.25004 -17.50004,20.00005zm1.25,-5.00001l1.25,2.50001c8.75002,-2.50001 13.75003,-10.00003 13.75003,-17.50004l0,-61.25015c0,-5.00001 -2.50001,-10.00003 -6.25002,-13.75003c-1.25,-1.25 -3.75001,-2.50001 -6.25002,-3.75001c-6.25002,-2.50001 -13.75003,-2.50001 -20.00005,0c-7.50002,3.75001 -12.50003,10.00003 -12.50003,16.25004l0,61.25015c0,7.50002 5.00001,15.00004 13.75003,17.50004l1.25,-2.50001c-7.50002,-2.50001 -11.25003,-8.75002 -11.25003,-15.00004l0,-61.25015c0,-6.25002 3.75001,-12.50003 11.25003,-15.00004c5.00001,-1.25 12.50003,-2.50001 18.75005,0c1.25,1.25 3.75001,1.25 5.00001,2.50001c3.75001,3.75001 6.25002,7.50002 6.25002,11.25003l0,61.25015c-2.50001,8.75002 -7.50002,13.75003 -15.00004,17.50004zm122.50031,5.00001l-2.50001,-7.50002l1.25,0c6.25002,-2.50001 11.25003,-7.50002 11.25003,-13.75003l0,-61.25015c0,-3.75001 -1.25,-7.50002 -5.00001,-10.00003c-1.25,-1.25 -2.50001,-2.50001 -3.75001,-2.50001c-5.00001,-1.25 -11.25003,-1.25 -16.25004,0c-5.00001,2.50001 -8.75002,7.50002 -8.75002,12.50003l0,61.25015c0,6.25002 5.00001,11.25003 11.25003,13.75003l1.25,0l-2.50001,7.50002l-1.25,0c-10.00003,-3.75001 -16.25004,-11.25003 -16.25004,-20.00005l0,-61.25015c0,-8.75002 5.00001,-15.00004 13.75003,-18.75005c6.25002,-2.50001 15.00004,-2.50001 21.25005,0c2.50001,1.25 5.00001,2.50001 6.25002,3.75001c5.00001,3.75001 7.50002,10.00003 7.50002,15.00004l0,61.25015c0,8.75002 -6.25002,16.25004 -17.50004,20.00005zm1.25,-5.00001l1.25,2.50001c8.75002,-2.50001 13.75003,-10.00003 13.75003,-17.50004l0,-61.25015c0,-5.00001 -2.50001,-10.00003 -6.25002,-13.75003c-1.25,-1.25 -3.75001,-2.50001 -6.25002,-3.75001c-6.25002,-2.50001 -13.75003,-2.50001 -20.00005,0c-7.50002,3.75001 -12.50003,10.00003 -12.50003,16.25004l0,61.25015c0,7.50002 5.00001,13.75003 13.75003,17.50004l1.25,-2.50001c-7.50002,-2.50001 -12.50003,-8.75002 -12.50003,-15.00004l0,-61.25015c0,-6.25002 3.75001,-12.50003 11.25003,-15.00004c5.00001,-1.25 12.50003,-2.50001 18.75005,0c2.50001,1.25 3.75001,1.25 5.00001,2.50001c3.75001,3.75001 6.25002,7.50002 6.25002,11.25003l0,61.25015c-2.50001,8.75002 -7.50002,15.00004 -13.75003,17.50004zm-77.5002,5.00001c-11.25003,-3.75001 -17.50004,-11.25003 -17.50004,-20.00005l0,-61.25015c0,-8.75002 5.00001,-15.00004 13.75003,-18.75005c6.25002,-2.50001 15.00004,-2.50001 21.25005,0c2.50001,1.25 5.00001,2.50001 6.25002,3.75001c5.00001,3.75001 7.50002,10.00003 7.50002,15.00004l0,61.25015c0,8.75002 -6.25002,17.50004 -16.25004,20.00005l-1.25,0l-2.50001,-7.50002l1.25,0c7.50002,-2.50001 11.25003,-7.50002 11.25003,-13.75003l0,-61.25015c0,-3.75001 -1.25,-7.50002 -5.00001,-10.00003c-1.25,-1.25 -2.50001,-2.50001 -3.75001,-2.50001c-5.00001,-1.25 -11.25003,-1.25 -16.25004,0c-5.00001,2.50001 -8.75002,7.50002 -8.75002,12.50003l0,61.25015c0,6.25002 5.00001,11.25003 11.25003,13.75003l1.25,0l-2.50001,7.50002zm15.00004,-6.25002l1.25,2.50001c8.75002,-2.50001 13.75003,-10.00003 13.75003,-17.50004l0,-61.25015c0,-5.00001 -2.50001,-10.00003 -6.25002,-13.75003c-1.25,-1.25 -3.75001,-2.50001 -6.25002,-3.75001c-6.25002,-2.50001 -13.75003,-2.50001 -20.00005,0c-7.50002,3.75001 -12.50003,10.00003 -12.50003,16.25004l0,61.25015c0,7.50002 5.00001,13.75003 13.75003,17.50004l1.25,-2.50001c-7.50002,-2.50001 -12.50003,-8.75002 -12.50003,-15.00004l0,-61.25015c0,-6.25002 3.75001,-12.50003 11.25003,-15.00004c5.00001,-1.25 12.50003,-2.50001 18.75005,0c1.25,1.25 3.75001,1.25 5.00001,2.50001c3.75001,3.75001 6.25002,7.50002 6.25002,11.25003l0,61.25015c-1.25,10.00003 -6.25002,15.00004 -13.75003,17.50004z" stroke-width="5" stroke-miterlimit="10" stroke-dasharray=""></path><path data-v-9833e8b2="" transform="scale(0.13966480446927373)" fill="none" stroke="currentColor" paint-order="fill stroke markers" d="m39.7501,18.50004c-5.00001,-1.25 -12.50003,-1.25 -17.50004,0l-1.25,-5.00001c6.25002,-2.50001 13.75003,-2.50001 21.25005,0c-1.25,0 -2.50001,5.00001 -2.50001,5.00001zm62.50016,-2.50001l-5.00001,0l0,-6.25002c0,-1.25 -2.50001,-2.50001 -5.00001,-2.50001s-5.00001,1.25 -5.00001,2.50001l0,6.25002l-5.00001,0l0,-6.25002c0,-3.75001 3.75001,-7.50002 10.00003,-7.50002c5.00001,0 10.00003,3.75001 10.00003,7.50002l0,6.25002zm61.25015,0l-5.00001,0l0,-6.25002c0,-1.25 -2.50001,-2.50001 -5.00001,-2.50001s-5.00001,1.25 -5.00001,2.50001l0,6.25002l-5.00001,0l0,-6.25002c0,-3.75001 3.75001,-7.50002 10.00003,-7.50002c5.00001,0 10.00003,3.75001 10.00003,7.50002l0,6.25002z" stroke-width="5" stroke-miterlimit="10" stroke-dasharray=""></path><path data-v-9833e8b2="" transform="scale(0.13966480446927373)" fill="none" stroke="currentColor" paint-order="fill stroke markers" d="m21.00005,19.75005l-2.50001,-6.25002l1.25,0c6.25002,-2.50001 15.00004,-2.50001 21.25005,0l1.25,0l-2.50001,6.25002l-1.25,0c-5.00001,-1.25 -11.25003,-1.25 -17.50004,0zm10.00003,-3.75001c2.50001,0 5.00001,0 7.50002,1.25l1.25,-2.50001c-5.00001,-2.50001 -12.50003,-2.50001 -17.50004,0l1.25,2.50001c2.50001,-1.25 5.00001,-1.25 7.50002,-1.25zm133.75034,1.25l-7.50002,0l0,-7.50002s-1.25,-1.25 -3.75001,-1.25s-3.75001,1.25 -3.75001,1.25l0,7.50002l-7.50002,0l0,-7.50002c0,-5.00001 5.00001,-8.75002 11.25003,-8.75002s11.25003,3.75001 11.25003,8.75002l0,7.50002zm-5.00001,-2.50001l2.50001,0l0,-5.00001c0,-3.75001 -3.75001,-6.25002 -8.75002,-6.25002s-8.75002,2.50001 -8.75002,6.25002l0,5.00001l2.50001,0l0,-5.00001c0,-2.50001 2.50001,-3.75001 6.25002,-3.75001s6.25002,1.25 6.25002,3.75001l0,5.00001zm-56.25014,2.50001l-7.50002,0l0,-7.50002s-1.25,-1.25 -3.75001,-1.25s-3.75001,1.25 -3.75001,1.25l0,7.50002l-7.50002,0l0,-7.50002c0,-5.00001 5.00001,-8.75002 11.25003,-8.75002s11.25003,3.75001 11.25003,8.75002l0,7.50002zm-5.00001,-2.50001l2.50001,0l0,-5.00001c0,-3.75001 -3.75001,-6.25002 -8.75002,-6.25002s-8.75002,2.50001 -8.75002,6.25002l0,5.00001l2.50001,0l0,-5.00001c0,-2.50001 2.50001,-3.75001 6.25002,-3.75001s6.25002,1.25 6.25002,3.75001l0,5.00001z" stroke-width="5" stroke-miterlimit="10" stroke-dasharray=""></path><path data-v-9833e8b2="" transform="scale(0.13966480446927373)" fill="none" stroke="currentColor" paint-order="fill stroke markers" d="m39.7501,16.00004l-5.00001,0l0,-6.25002c0,-1.25 -2.50001,-2.50001 -5.00001,-2.50001s-5.00001,1.25 -5.00001,2.50001l0,6.25002l-5.00001,0l0,-6.25002c0,-3.75001 3.75001,-7.50002 10.00003,-7.50002c5.00001,0 10.00003,3.75001 10.00003,7.50002l0,6.25002zm-16.25004,112.50028c-1.25,0 -2.50001,-1.25 -2.50001,-2.50001l0,-16.25004c0,-1.25 1.25,-2.50001 2.50001,-2.50001s2.50001,1.25 2.50001,2.50001l0,16.25004c0,2.50001 -1.25,2.50001 -2.50001,2.50001zm13.75003,0c-1.25,0 -2.50001,-1.25 -2.50001,-2.50001l0,-16.25004c0,-1.25 1.25,-2.50001 2.50001,-2.50001s2.50001,1.25 2.50001,2.50001l0,16.25004c0,2.50001 -1.25,2.50001 -2.50001,2.50001zm-1.25,8.75002l-10.00003,0c-1.25,0 -2.50001,-1.25 -2.50001,-2.50001s1.25,-2.50001 2.50001,-2.50001l10.00003,0c1.25,0 2.50001,1.25 2.50001,2.50001s-1.25,2.50001 -2.50001,2.50001z" stroke-width="5" stroke-miterlimit="10" stroke-dasharray=""></path><path data-v-9833e8b2="" transform="scale(0.13966480446927373)" fill="none" stroke="currentColor" paint-order="fill stroke markers" d="m36.00009,138.50035l-10.00003,0c-2.50001,0 -3.75001,-1.25 -3.75001,-3.75001s1.25,-3.75001 3.75001,-3.75001l10.00003,0c2.50001,0 3.75001,1.25 3.75001,3.75001s-2.50001,3.75001 -3.75001,3.75001zm-10.00003,-5.00001s-1.25,1.25 0,0c-1.25,1.25 -1.25,2.50001 0,2.50001l10.00003,0s1.25,0 1.25,-1.25s0,-1.25 -1.25,-1.25l-10.00003,0zm11.25003,-3.75001c-2.50001,0 -3.75001,-1.25 -3.75001,-3.75001l0,-16.25004c0,-2.50001 1.25,-3.75001 3.75001,-3.75001s3.75001,1.25 3.75001,3.75001l0,16.25004c0,2.50001 -1.25,3.75001 -3.75001,3.75001zm0,-20.00005s-1.25,0 0,0l-1.25,17.50004s0,1.25 1.25,1.25s1.25,0 1.25,-1.25l-1.25,-17.50004c1.25,0 1.25,0 0,0zm-13.75003,20.00005c-2.50001,0 -3.75001,-1.25 -3.75001,-3.75001l0,-16.25004c0,-1.25 0,-2.50001 1.25,-2.50001c1.25,-1.25 1.25,-1.25 2.50001,-1.25c2.50001,0 3.75001,1.25 3.75001,3.75001l0,16.25004c0,2.50001 -1.25,3.75001 -3.75001,3.75001zm0,-20.00005c-1.25,0 -1.25,0 0,0l-1.25,17.50004s0,1.25 1.25,1.25s1.25,0 1.25,-1.25l-1.25,-17.50004c1.25,0 1.25,0 0,0zm17.50004,-92.50023l-7.50002,0l0,-7.50002s-1.25,-1.25 -3.75001,-1.25s-3.75001,1.25 -3.75001,1.25l0,7.50002l-7.50002,0l0,-7.50002c0,-5.00001 5.00001,-8.75002 11.25003,-8.75002s11.25003,3.75001 11.25003,8.75002l0,7.50002zm-3.75001,-2.50001l2.50001,0l0,-5.00001c0,-3.75001 -3.75001,-6.25002 -8.75002,-6.25002s-8.75002,2.50001 -8.75002,6.25002l0,5.00001l2.50001,0l0,-5.00001c0,-2.50001 2.50001,-3.75001 6.25002,-3.75001s6.25002,1.25 6.25002,3.75001l0,5.00001z" stroke-width="5" stroke-miterlimit="10" stroke-dasharray=""></path><path data-v-9833e8b2="" transform="scale(0.13966480446927373)" fill="none" stroke="currentColor" paint-order="fill stroke markers" d="m84.75021,128.50032l-47.50012,0c-1.25,0 -2.50001,-1.25 -2.50001,-2.50001s1.25,-2.50001 2.50001,-2.50001l47.50012,0c1.25,0 2.50001,1.25 2.50001,2.50001c0,2.50001 -1.25,2.50001 -2.50001,2.50001zm62.50016,0l-47.50012,0c-1.25,0 -2.50001,-1.25 -2.50001,-2.50001s1.25,-2.50001 2.50001,-2.50001l47.50012,0c1.25,0 2.50001,1.25 2.50001,2.50001c0,2.50001 -1.25,2.50001 -2.50001,2.50001zm26.25007,0l-12.50003,0c-1.25,0 -2.50001,-1.25 -2.50001,-2.50001s1.25,-2.50001 2.50001,-2.50001l12.50003,0c1.25,0 2.50001,1.25 2.50001,2.50001c0,2.50001 -1.25,2.50001 -2.50001,2.50001zm1.25,21.25005l-136.25034,0c-1.25,0 -2.50001,-1.25 -2.50001,-2.50001s1.25,-2.50001 2.50001,-2.50001l136.25034,0c1.25,0 2.50001,1.25 2.50001,2.50001s-1.25,2.50001 -2.50001,2.50001z" stroke-width="5" stroke-miterlimit="10" stroke-dasharray=""></path><path data-v-9833e8b2="" transform="scale(0.13966480446927373)" fill="none" stroke="currentColor" paint-order="fill stroke markers" d="m174.75044,151.00038l-136.25034,0c-2.50001,0 -3.75001,-1.25 -3.75001,-3.75001s1.25,-3.75001 3.75001,-3.75001l136.25034,0c2.50001,0 3.75001,1.25 3.75001,3.75001s-2.50001,3.75001 -3.75001,3.75001zm-136.25034,-5.00001c-1.25,0 -1.25,1.25 0,0c-1.25,1.25 0,2.50001 0,2.50001l136.25034,0s1.25,0 1.25,-1.25s0,-1.25 -1.25,-1.25l-136.25034,0zm135.00034,-16.25004l-12.50003,0c-2.50001,0 -3.75001,-1.25 -3.75001,-3.75001s1.25,-3.75001 3.75001,-3.75001l12.50003,0c2.50001,0 3.75001,1.25 3.75001,3.75001s-1.25,3.75001 -3.75001,3.75001zm-12.50003,-3.75001s-1.25,0 0,0c-1.25,1.25 0,2.50001 0,2.50001l12.50003,0s1.25,0 1.25,-1.25s0,-1.25 -1.25,-1.25l-12.50003,0zm-13.75003,3.75001l-47.50012,0c-2.50001,0 -3.75001,-1.25 -3.75001,-3.75001s1.25,-3.75001 3.75001,-3.75001l47.50012,0c2.50001,0 3.75001,1.25 3.75001,3.75001s-2.50001,3.75001 -3.75001,3.75001zm-47.50012,-3.75001s-1.25,0 0,0c-1.25,1.25 0,2.50001 0,2.50001l47.50012,0s1.25,0 1.25,-1.25s0,-1.25 -1.25,-1.25l-47.50012,0zm-15.00004,3.75001l-47.50012,0c-2.50001,0 -3.75001,-1.25 -3.75001,-3.75001s1.25,-3.75001 3.75001,-3.75001l47.50012,0c2.50001,0 3.75001,1.25 3.75001,3.75001s-1.25,3.75001 -3.75001,3.75001zm-47.50012,-3.75001s-1.25,0 0,0c-1.25,1.25 0,2.50001 0,2.50001l47.50012,0s1.25,0 1.25,-1.25s0,-1.25 -1.25,-1.25l-47.50012,0z" stroke-width="5" stroke-miterlimit="10" stroke-dasharray=""></path><path data-v-9833e8b2="" transform="scale(0.13966480446927373)" fill="none" stroke="currentColor" paint-order="fill stroke markers" d="m84.75021,128.50032c-1.25,0 -2.50001,-1.25 -2.50001,-2.50001l0,-16.25004c0,-1.25 1.25,-2.50001 2.50001,-2.50001s2.50001,1.25 2.50001,2.50001l0,16.25004c0,2.50001 -1.25,2.50001 -2.50001,2.50001zm13.75003,0c-1.25,0 -2.50001,-1.25 -2.50001,-2.50001l0,-16.25004c0,-1.25 1.25,-2.50001 2.50001,-2.50001s2.50001,1.25 2.50001,2.50001l0,16.25004c0,2.50001 -1.25,2.50001 -2.50001,2.50001zm76.25019,25.00006c-1.25,0 -2.50001,-1.25 -2.50001,-2.50001l0,-7.50002c0,-1.25 1.25,-2.50001 2.50001,-2.50001s2.50001,1.25 2.50001,2.50001l0,7.50002c0,1.25 -1.25,2.50001 -2.50001,2.50001zm0,-21.25005c-1.25,0 -2.50001,-1.25 -2.50001,-2.50001l0,-7.50002c0,-1.25 1.25,-2.50001 2.50001,-2.50001s2.50001,1.25 2.50001,2.50001l0,7.50002c0,2.50001 -1.25,2.50001 -2.50001,2.50001zm-170.00043,21.25005c-1.25,0 -2.50001,-1.25 -2.50001,-2.50001l0,-7.50002c0,-1.25 1.25,-2.50001 2.50001,-2.50001s2.50001,1.25 2.50001,2.50001l0,7.50002c0,1.25 -1.25,2.50001 -2.50001,2.50001zm0,-21.25005c-1.25,0 -2.50001,-1.25 -2.50001,-2.50001l0,-7.50002c0,-1.25 1.25,-2.50001 2.50001,-2.50001s2.50001,1.25 2.50001,2.50001l0,7.50002c0,2.50001 -1.25,2.50001 -2.50001,2.50001zm91.25023,5.00001l-8.75002,0c-1.25,0 -2.50001,-1.25 -2.50001,-2.50001s1.25,-2.50001 2.50001,-2.50001l8.75002,0c1.25,0 2.50001,1.25 2.50001,2.50001s-1.25,2.50001 -2.50001,2.50001zm62.50016,0l-8.75002,0c-1.25,0 -2.50001,-1.25 -2.50001,-2.50001s1.25,-2.50001 2.50001,-2.50001l8.75002,0c1.25,0 2.50001,1.25 2.50001,2.50001s-1.25,2.50001 -2.50001,2.50001zm-11.25003,-8.75002c-1.25,0 -2.50001,-1.25 -2.50001,-2.50001l0,-16.25004c0,-1.25 1.25,-2.50001 2.50001,-2.50001s2.50001,1.25 2.50001,2.50001l0,16.25004c0,2.50001 -1.25,2.50001 -2.50001,2.50001zm13.75003,0c-1.25,0 -2.50001,-1.25 -2.50001,-2.50001l0,-16.25004c0,-1.25 1.25,-2.50001 2.50001,-2.50001s2.50001,1.25 2.50001,2.50001l0,16.25004c0,2.50001 -1.25,2.50001 -2.50001,2.50001z" stroke-width="5" stroke-miterlimit="10" stroke-dasharray=""></path><path data-v-9833e8b2="" transform="scale(0.13966480446927373)" fill="none" stroke="currentColor" paint-order="fill stroke markers" d="m174.75044,154.75039c-2.50001,0 -3.75001,-1.25 -3.75001,-3.75001l0,-7.50002c0,-2.50001 1.25,-3.75001 3.75001,-3.75001s3.75001,1.25 3.75001,3.75001l0,7.50002c0,2.50001 -1.25,3.75001 -3.75001,3.75001zm0,-12.50003s-1.25,1.25 0,0l-1.25,8.75002s0,1.25 1.25,1.25s1.25,0 1.25,-1.25l-1.25,-8.75002c1.25,1.25 1.25,0 0,0zm-170.00043,12.50003c-2.50001,0 -3.75001,-1.25 -3.75001,-3.75001l0,-7.50002c0,-2.50001 1.25,-3.75001 3.75001,-3.75001s3.75001,1.25 3.75001,3.75001l0,7.50002c0,2.50001 -2.50001,3.75001 -3.75001,3.75001zm0,-12.50003c-1.25,0 -1.25,1.25 0,0l-1.25,8.75002s0,1.25 1.25,1.25c0,0 1.25,0 1.25,-1.25l-1.25,-8.75002c1.25,1.25 0,0 0,0zm153.75039,-3.75001l-8.75002,0c-2.50001,0 -3.75001,-1.25 -3.75001,-3.75001s1.25,-3.75001 3.75001,-3.75001l8.75002,0c2.50001,0 3.75001,1.25 3.75001,3.75001s-2.50001,3.75001 -3.75001,3.75001zm-8.75002,-5.00001s-1.25,1.25 0,0c-1.25,1.25 -1.25,2.50001 0,2.50001l8.75002,0s1.25,0 1.25,-1.25s0,-1.25 -1.25,-1.25l-8.75002,0zm-53.75014,5.00001l-8.75002,0c-2.50001,0 -3.75001,-1.25 -3.75001,-3.75001s1.25,-3.75001 3.75001,-3.75001l8.75002,0c2.50001,0 3.75001,1.25 3.75001,3.75001s-1.25,3.75001 -3.75001,3.75001zm-7.50002,-5.00001c-1.25,0 -1.25,1.25 0,0c-1.25,1.25 -1.25,2.50001 0,2.50001l8.75002,0s1.25,0 1.25,-1.25s0,-1.25 -1.25,-1.25l-8.75002,0zm86.25022,0c-2.50001,0 -3.75001,-1.25 -3.75001,-3.75001l0,-7.50002c0,-2.50001 1.25,-3.75001 3.75001,-3.75001s3.75001,1.25 3.75001,3.75001l0,7.50002c0,2.50001 -1.25,3.75001 -3.75001,3.75001zm0,-11.25003s-1.25,0 0,0l-1.25,8.75002s0,1.25 1.25,1.25s1.25,0 1.25,-1.25l-1.25,-8.75002c1.25,0 1.25,0 0,0zm-170.00043,11.25003c-2.50001,0 -3.75001,-1.25 -3.75001,-3.75001l0,-7.50002c0,-2.50001 1.25,-3.75001 3.75001,-3.75001s3.75001,1.25 3.75001,3.75001l0,7.50002c0,2.50001 -2.50001,3.75001 -3.75001,3.75001zm0,-11.25003c-1.25,0 -1.25,0 0,0l-1.25,8.75002s0,1.25 1.25,1.25c0,0 1.25,0 1.25,-1.25l-1.25,-8.75002c1.25,0 0,0 0,0zm156.25039,7.50002c-2.50001,0 -3.75001,-1.25 -3.75001,-3.75001l0,-16.25004c0,-2.50001 1.25,-3.75001 3.75001,-3.75001s3.75001,1.25 3.75001,3.75001l0,16.25004c0,2.50001 -1.25,3.75001 -3.75001,3.75001zm0,-20.00005s-1.25,0 0,0l-1.25,17.50004s0,1.25 1.25,1.25s1.25,0 1.25,-1.25l-1.25,-17.50004c1.25,0 1.25,0 0,0zm-13.75003,20.00005c-2.50001,0 -3.75001,-1.25 -3.75001,-3.75001l0,-16.25004c0,-2.50001 1.25,-3.75001 3.75001,-3.75001s3.75001,1.25 3.75001,3.75001l0,16.25004c0,2.50001 -2.50001,3.75001 -3.75001,3.75001zm0,-20.00005c-1.25,0 -1.25,0 0,0l-1.25,17.50004s0,1.25 1.25,1.25s1.25,0 1.25,-1.25l-1.25,-17.50004c1.25,0 0,0 0,0zm-48.75012,20.00005c-2.50001,0 -3.75001,-1.25 -3.75001,-3.75001l0,-16.25004c0,-2.50001 1.25,-3.75001 3.75001,-3.75001s3.75001,1.25 3.75001,3.75001l0,16.25004c0,2.50001 -1.25,3.75001 -3.75001,3.75001zm0,-20.00005s-1.25,0 0,0l-1.25,17.50004s0,1.25 1.25,1.25c0,0 1.25,0 1.25,-1.25l-1.25,-17.50004c1.25,0 1.25,0 0,0zm-13.75003,20.00005c-2.50001,0 -3.75001,-1.25 -3.75001,-3.75001l0,-16.25004c0,-2.50001 1.25,-3.75001 3.75001,-3.75001s3.75001,1.25 3.75001,3.75001l0,16.25004c0,2.50001 -1.25,3.75001 -3.75001,3.75001zm0,-20.00005s-1.25,0 0,0l-1.25,17.50004s0,1.25 1.25,1.25s1.25,0 1.25,-1.25l-1.25,-17.50004c1.25,0 1.25,0 0,0z" stroke-width="5" stroke-miterlimit="10" stroke-dasharray=""></path><path data-v-9833e8b2="" transform="scale(0.13966480446927373)" fill="none" stroke="currentColor" paint-order="fill stroke markers" d="m23.50006,128.50032l-18.75005,0c-1.25,0 -2.50001,-1.25 -2.50001,-2.50001s1.25,-2.50001 2.50001,-2.50001l18.75005,0c1.25,0 2.50001,1.25 2.50001,2.50001c0,2.50001 -1.25,2.50001 -2.50001,2.50001zm15.00004,21.25005l-32.50008,0c-1.25,0 -2.50001,-1.25 -2.50001,-2.50001s1.25,-2.50001 2.50001,-2.50001l32.50008,0c1.25,0 2.50001,1.25 2.50001,2.50001c-1.25,1.25 -1.25,2.50001 -2.50001,2.50001zm-7.50002,-45.00011c-5.00001,0 -10.00003,-5.00001 -10.00003,-10.00003s5.00001,-10.00003 10.00003,-10.00003s10.00003,5.00001 10.00003,10.00003c0,6.25002 -5.00001,10.00003 -10.00003,10.00003zm0,-15.00004c-2.50001,0 -5.00001,2.50001 -5.00001,5.00001s2.50001,5.00001 5.00001,5.00001s5.00001,-2.50001 5.00001,-5.00001s-2.50001,-5.00001 -5.00001,-5.00001zm61.25015,15.00004c-5.00001,0 -10.00003,-5.00001 -10.00003,-10.00003s5.00001,-10.00003 10.00003,-10.00003s10.00003,5.00001 10.00003,10.00003s-3.75001,10.00003 -10.00003,10.00003zm0,-15.00004c-2.50001,0 -5.00001,2.50001 -5.00001,5.00001s2.50001,5.00001 5.00001,5.00001s5.00001,-2.50001 5.00001,-5.00001s-2.50001,-5.00001 -5.00001,-5.00001zm61.25015,15.00004c-5.00001,0 -10.00003,-5.00001 -10.00003,-10.00003s5.00001,-10.00003 10.00003,-10.00003s10.00003,5.00001 10.00003,10.00003c0,6.25002 -3.75001,10.00003 -10.00003,10.00003zm0,-15.00004c-2.50001,0 -5.00001,2.50001 -5.00001,5.00001s2.50001,5.00001 5.00001,5.00001s5.00001,-2.50001 5.00001,-5.00001c1.25,-2.50001 -1.25,-5.00001 -5.00001,-5.00001z" stroke-width="5" stroke-miterlimit="10" stroke-dasharray=""></path><path data-v-9833e8b2="" transform="scale(0.13966480446927373)" fill="none" stroke="currentColor" paint-order="fill stroke markers" d="m38.50009,151.00038l-32.50008,0c-2.50001,0 -3.75001,-1.25 -3.75001,-3.75001s1.25,-3.75001 3.75001,-3.75001l32.50008,0c2.50001,0 3.75001,1.25 3.75001,3.75001s-2.50001,3.75001 -3.75001,3.75001zm-33.75008,-5.00001s-1.25,1.25 0,0c-1.25,1.25 0,2.50001 0,2.50001l32.50008,0c1.25,0 1.25,0 1.25,-1.25s0,-1.25 -1.25,-1.25l-32.50008,0zm18.75005,-16.25004l-18.75005,0c-2.50001,0 -3.75001,-1.25 -3.75001,-3.75001s1.25,-3.75001 3.75001,-3.75001l18.75005,0c2.50001,0 3.75001,1.25 3.75001,3.75001s-1.25,3.75001 -3.75001,3.75001zm-18.75005,-3.75001c-1.25,0 -1.25,0 0,0c-1.25,1.25 -1.25,2.50001 0,2.50001l18.75005,0s1.25,0 1.25,-1.25s0,-1.25 -1.25,-1.25l-18.75005,0zm148.75037,-20.00005c-6.25002,0 -11.25003,-5.00001 -11.25003,-11.25003s5.00001,-11.25003 11.25003,-11.25003s11.25003,5.00001 11.25003,11.25003s-5.00001,11.25003 -11.25003,11.25003zm0,-20.00005c-5.00001,0 -8.75002,3.75001 -8.75002,8.75002c0,5.00001 3.75001,8.75002 8.75002,8.75002s8.75002,-3.75001 8.75002,-8.75002c0,-5.00001 -3.75001,-8.75002 -8.75002,-8.75002zm-61.25015,20.00005c-6.25002,0 -11.25003,-5.00001 -11.25003,-11.25003s5.00001,-11.25003 11.25003,-11.25003s11.25003,5.00001 11.25003,11.25003s-5.00001,11.25003 -11.25003,11.25003zm0,-20.00005c-5.00001,0 -8.75002,3.75001 -8.75002,8.75002c0,5.00001 3.75001,8.75002 8.75002,8.75002s8.75002,-3.75001 8.75002,-8.75002c0,-5.00001 -3.75001,-8.75002 -8.75002,-8.75002zm-61.25015,20.00005c-6.25002,0 -11.25003,-5.00001 -11.25003,-11.25003s5.00001,-11.25003 11.25003,-11.25003s11.25003,5.00001 11.25003,11.25003s-5.00001,11.25003 -11.25003,11.25003zm0,-20.00005c-5.00001,0 -8.75002,3.75001 -8.75002,8.75002c0,5.00001 3.75001,8.75002 8.75002,8.75002s8.75002,-3.75001 8.75002,-8.75002c0,-5.00001 -3.75001,-8.75002 -8.75002,-8.75002zm122.50031,15.00004c-3.75001,0 -6.25002,-2.50001 -6.25002,-6.25002s2.50001,-6.25002 6.25002,-6.25002s6.25002,2.50001 6.25002,6.25002s-2.50001,6.25002 -6.25002,6.25002zm0,-10.00003c-2.50001,0 -3.75001,1.25 -3.75001,3.75001s1.25,3.75001 3.75001,3.75001s3.75001,-1.25 3.75001,-3.75001s-1.25,-3.75001 -3.75001,-3.75001zm-61.25015,10.00003c-3.75001,0 -6.25002,-2.50001 -6.25002,-6.25002s2.50001,-6.25002 6.25002,-6.25002s6.25002,2.50001 6.25002,6.25002s-2.50001,6.25002 -6.25002,6.25002zm0,-10.00003c-2.50001,0 -3.75001,1.25 -3.75001,3.75001s1.25,3.75001 3.75001,3.75001s3.75001,-1.25 3.75001,-3.75001s-1.25,-3.75001 -3.75001,-3.75001zm-61.25015,10.00003c-3.75001,0 -6.25002,-2.50001 -6.25002,-6.25002s2.50001,-6.25002 6.25002,-6.25002s6.25002,2.50001 6.25002,6.25002s-2.50001,6.25002 -6.25002,6.25002zm0,-10.00003c-2.50001,0 -3.75001,1.25 -3.75001,3.75001s1.25,3.75001 3.75001,3.75001s3.75001,-1.25 3.75001,-3.75001s-1.25,-3.75001 -3.75001,-3.75001z" stroke-width="5" stroke-miterlimit="10" stroke-dasharray=""></path></g></svg>