<svg data-v-9833e8b2="" version="1.1" xmlns="http://www.w3.org/2000/svg" xmlns:xlink="http://www.w3.org/1999/xlink" width="25" height="17.5"><g data-v-9833e8b2=""><path data-v-9833e8b2="" transform="scale(0.1404494382022472)" fill="none" stroke="currentColor" paint-order="fill stroke markers" d="m110.68028,27.28007l49.60012,0l0,9.92002l-49.60012,0l0,-9.92002zm43.64011,16.04004l-37.72009,0l-5.92001,-6.12002l49.60012,0l-5.96002,6.12002zm-37.72009,0l37.64009,0l0,9.60002l-37.64009,0l0,-9.60002z" stroke-width="5" stroke-miterlimit="10" stroke-dasharray=""></path><path data-v-9833e8b2="" transform="scale(0.1404494382022472)" fill="none" stroke="currentColor" paint-order="fill stroke markers" d="m160.2804,59.28015l-6.00002,-6.40002l0,-9.56002l6.00002,6.36002l0,9.60002zm-49.60012,0l5.96002,-6.40002l0,-9.56002l-5.96002,6.36002l0,9.60002zm5.92001,40.4401l37.64009,0l0,9.60002l-37.64009,0l0,-9.60002zm43.68011,-6.36002l-6.00002,6.36002l0,9.60002l6.00002,-6.36002l0,-9.60002z" stroke-width="5" stroke-miterlimit="10" stroke-dasharray=""></path><path data-v-9833e8b2="" transform="scale(0.1404494382022472)" fill="none" stroke="currentColor" paint-order="fill stroke markers" d="m110.68028,93.36023l5.96002,6.36002l0,9.60002l-5.96002,-6.36002l0,-9.60002zm5.92001,-37.40009l37.64009,0l0,10.24003l-37.64009,0l0,-10.24003zm0,13.64003l37.64009,0l0,12.44003l-37.64009,0l0,-12.44003zm-11.92003,49.24012l61.52015,0l0,10.92003l-61.52015,0l0,-10.92003zm55.60014,-46.28012l-6.00002,-6.36002l0,-10.24003l6.00002,6.36002l0,10.24003z" stroke-width="5" stroke-miterlimit="10" stroke-dasharray=""></path><path data-v-9833e8b2="" transform="scale(0.1404494382022472)" fill="none" stroke="currentColor" paint-order="fill stroke markers" d="m110.68028,72.56018l5.96002,-6.36002l0,-10.24003l-5.96002,6.36002l0,10.24003zm5.92001,12.92003l37.64009,0l0,10.24003l-37.64009,0l0,-10.24003zm43.68011,-6.36002l-6.00002,6.36002l0,10.24003l6.00002,-6.36002l0,-10.24003z" stroke-width="5" stroke-miterlimit="10" stroke-dasharray=""></path><path data-v-9833e8b2="" transform="scale(0.1404494382022472)" fill="none" stroke="currentColor" paint-order="fill stroke markers" d="m110.68028,79.1202l5.96002,6.36002l0,10.24003l-5.96002,-6.36002l0,-10.24003zm49.60012,-3.32001l-6.00002,-6.20002l0,12.44003l6.00002,-6.24002zm-49.60012,0l5.96002,-6.20002l0,12.44003l-5.96002,-6.24002zm43.60011,33.52008l-37.68009,0l-3.40001,6.76002l45.28011,0l-4.20001,-6.76002zm8.80002,-61.20015l9.60002,0a4.48001,4.48001 0 0 1 4.36001,4.44001l0,48.28012a4.48001,4.48001 0 0 1 -4.48001,4.48001l-9.60002,0l0,-57.20014l0.12,0zm-55.04014,57.16014l-9.60002,0a4.48001,4.48001 0 0 1 -4.48001,-4.48001l0,-48.24012a4.48001,4.48001 0 0 1 4.48001,-4.48001l9.60002,0l0,57.20014zm-24.32006,-22.08006l6.96002,8.92002l0,-30.84008l-6.96002,8.92002l0,13.00003zm-7.28002,-12.92003l7.28002,0l0,12.88003l-7.28002,0l0,-12.88003zm-31.08008,-69.28017l18.52005,0l0,23.16006l-18.52005,0l0,-23.16006z" stroke-width="5" stroke-miterlimit="10" stroke-dasharray=""></path><path data-v-9833e8b2="" transform="scale(0.1404494382022472)" fill="none" stroke="currentColor" paint-order="fill stroke markers" d="m36.60009,23.16006l36.04009,0l0,6.60002l-36.04009,0l0,-6.60002zm1.8,44.32011l0,18.52005l-12.56003,0l0,-18.52005l12.56003,0z" stroke-width="5" stroke-miterlimit="10" stroke-dasharray=""></path><path data-v-9833e8b2="" transform="scale(0.1404494382022472)" fill="none" stroke="currentColor" paint-order="fill stroke markers" d="m26.84006,58.72015l0,36.04009l-6.60002,0l0,-36.04009l6.60002,0zm-14.24004,8.76002l0,18.52005l-11.60003,0l0,-18.52005l11.60003,0z" stroke-width="5" stroke-miterlimit="10" stroke-dasharray=""></path><path data-v-9833e8b2="" transform="scale(0.1404494382022472)" fill="none" stroke="currentColor" paint-order="fill stroke markers" d="m18.24004,58.72015l0,36.04009l-6.60002,0l0,-36.04009l6.60002,0zm27.12007,-21.52005l18.52005,0l0,64.80016a9.24002,9.24002 0 0 1 -9.24002,9.24002a9.24002,9.24002 0 0 1 -9.24002,-9.24002l0,-64.80016l-0.04,0z" stroke-width="5" stroke-miterlimit="10" stroke-dasharray=""></path><path data-v-9833e8b2="" transform="scale(0.1404494382022472)" fill="none" stroke="currentColor" paint-order="fill stroke markers" d="m36.60009,31.56008l36.04009,0l0,6.60002l-36.04009,0l0,-6.60002zm29.92008,17.32004l0,57.20014a10.60003,10.60003 0 0 0 5.96002,-9.52002l0,-38.1601a10.60003,10.60003 0 0 0 -5.96002,-9.52002zm-23.96006,0l0,57.20014a10.60003,10.60003 0 0 1 -5.96002,-9.52002l0,-38.1601a10.60003,10.60003 0 0 1 5.96002,-9.52002z" stroke-width="5" stroke-miterlimit="10" stroke-dasharray=""></path></g></svg>