<svg data-v-9833e8b2="" version="1.1" xmlns="http://www.w3.org/2000/svg" xmlns:xlink="http://www.w3.org/1999/xlink" width="25" height="20"><g data-v-9833e8b2=""><path data-v-9833e8b2="" transform="scale(0.13157894736842105)" fill="none" stroke="currentColor" paint-order="fill stroke markers" d="m189.95,1l0,4.11l0,57.5l0,4.11l-12.32,0l0,-4.11l-13.41,0c0.06,0.35 0.11,0.71 0.16,1.06c0.06,0.38 0.12,0.77 0.18,1.15c0.11,0.74 0.2,1.48 0.28,2.22c0.04,0.37 0.09,0.73 0.12,1.1c0.08,0.86 0.15,1.73 0.2,2.61c0.01,0.24 0.04,0.48 0.05,0.73c0.06,1.15 0.09,2.3 0.09,3.46c0,38.56 -31.27,69.83 -69.83,69.83l-82.15,0l0,4.11l-12.32,0l0,-4.11l0,0l0,-57.5l0,-4.11l0,0l12.32,0l0,0l0,4.11l13.41,0c-0.06,-0.36 -0.11,-0.73 -0.17,-1.09c-0.06,-0.36 -0.12,-0.72 -0.17,-1.08c-0.11,-0.78 -0.21,-1.57 -0.3,-2.36c-0.04,-0.32 -0.08,-0.64 -0.11,-0.96c-0.09,-0.91 -0.15,-1.82 -0.21,-2.73c-0.01,-0.21 -0.03,-0.42 -0.04,-0.63c-0.06,-1.15 -0.09,-2.31 -0.09,-3.47c0,-38.57 31.26,-69.83 69.83,-69.83l82.15,0l0,-4.11l12.33,0l0,-0.01z" stroke-width="5" stroke-miterlimit="10" stroke-dasharray=""></path><path data-v-9833e8b2="" transform="scale(0.13157894736842105)" fill="none" stroke="currentColor" paint-order="fill stroke markers" d="m144.77,76.03c0.44,-15.27 -5.93,-29.18 -16.34,-38.79l-18.96,20.59c-2.83,-2.49 -6.29,-4.26 -10.13,-5.02l0,-28.8c-0.97,-0.05 -1.9,-0.09 -2.88,-0.09l-0.04,0.04c-15.28,0 -29,6.73 -38.3,17.44l20.86,18.12c-3.11,3.41 -5.16,7.79 -5.62,12.64l-26.8,-0.78l-0.27,0c-0.09,0.97 -0.13,1.9 -0.18,2.88l0.05,0.04c-0.44,15.27 5.93,29.18 16.34,38.79l19.62,-21.3c-0.07,-0.07 -0.14,-0.15 -0.21,-0.22c2.9,2.21 6.35,3.7 10.13,4.23l0,27.82c0.97,0.04 1.9,0.09 2.88,0.09l0.04,-0.04c15.28,0 29,-6.73 38.3,-17.44l-21.15,-18.37c2.22,-2.77 3.78,-6.09 4.44,-9.72l27.82,0.81l0.27,0c0.09,-0.97 0.13,-1.9 0.18,-2.88l-0.05,-0.04z" stroke-width="5" stroke-miterlimit="10" stroke-dasharray=""></path><path data-v-9833e8b2="" transform="scale(0.13157894736842105)" fill="none" stroke="currentColor" paint-order="fill stroke markers" d="m82.13,74.22c0,-7.17 5.79,-12.96 12.96,-12.96c7.17,0 12.96,5.79 12.96,12.96c0,7.17 -5.79,12.96 -12.96,12.96c-7.17,0 -12.96,-5.79 -12.96,-12.96l0,0z" stroke-width="5" stroke-miterlimit="10" stroke-dasharray=""></path></g></svg>