<svg data-v-9833e8b2="" version="1.1" xmlns="http://www.w3.org/2000/svg" xmlns:xlink="http://www.w3.org/1999/xlink" width="25" height="25"><g data-v-9833e8b2=""><path data-v-9833e8b2="" transform="scale(0.12376237623762376)" fill="none" stroke="currentColor" paint-order="fill stroke markers" d="m201.00002,101.00002c0,8.48236 -1.05743,16.71448 -3.04108,24.57581c-8.90198,35.22492 -36.48987,63.00812 -71.6034,72.17866c-8.09784,2.11945 -16.59699,3.24554 -25.35553,3.24554c-3.1311,0 -6.22864,-0.14343 -9.28497,-0.4242c-13.43689,-1.23749 -26.09863,-5.13153 -37.46185,-11.15112c-6.36292,-3.37219 -12.31842,-7.40815 -17.77497,-12.02088c-10.27069,-8.6853 -18.76831,-19.40002 -24.86572,-31.52619l0,-0.00458c-6.79169,-13.49793 -10.61249,-28.7384 -10.61249,-44.87305c0,-55.22919 44.77082,-100.00001 100.00001,-100.00001s100.00001,44.77082 100.00001,100.00001zm0,0" stroke-width="5" stroke-miterlimit="10" stroke-dasharray=""></path><path data-v-9833e8b2="" transform="scale(0.12376237623762376)" fill="none" stroke="currentColor" paint-order="fill stroke markers" d="m70.32069,85.05153c-3.19977,0 -5.14832,-3.50952 -3.47138,-6.23474c1.09253,-1.77765 2.52686,-3.07159 3.72925,-4.15497c2.06452,-1.86157 2.73285,-2.60773 2.73285,-4.32739c0,-1.71814 -0.66834,-2.46429 -2.73285,-4.32586c-2.29187,-2.06604 -5.4306,-4.89502 -5.4306,-10.39124c0,-5.49469 3.13873,-8.32367 5.4306,-10.38818c1.13831,-1.02691 1.85089,-1.71356 2.26288,-2.41089c0.71411,-1.21155 2.05384,-1.91498 3.45917,-1.91498c3.19977,0 5.14832,3.50952 3.4729,6.23627c-1.09405,1.77612 -2.52838,3.07007 -3.72925,4.15344c-2.06604,1.86005 -2.73285,2.6062 -2.73285,4.32434c0,1.71967 0.66681,2.46582 2.73285,4.32739c2.29187,2.06451 5.43061,4.89502 5.43061,10.38971s-3.13873,8.32367 -5.43061,10.38971c-1.1383,1.02692 -1.85242,1.71356 -2.2644,2.41241c-0.71259,1.21155 -2.05231,1.91498 -3.45917,1.91498zm0,0" stroke-width="5" stroke-miterlimit="10" stroke-dasharray=""></path><path data-v-9833e8b2="" transform="scale(0.12376237623762376)" fill="none" stroke="currentColor" paint-order="fill stroke markers" d="m40.534,85.05153c-3.19977,0 -5.14832,-3.50952 -3.4729,-6.23474c1.09405,-1.77765 2.52838,-3.07159 3.73077,-4.15497c2.06451,-1.86157 2.73285,-2.60773 2.73285,-4.32739c0,-1.71814 -0.66834,-2.46429 -2.73285,-4.32586c-2.29187,-2.06604 -5.43061,-4.89502 -5.43061,-10.39124c0,-5.49469 3.13873,-8.32367 5.43061,-10.38818c1.1383,-1.02691 1.85089,-1.71356 2.26288,-2.41089c0.71411,-1.21155 2.0523,-1.91498 3.45917,-1.91498c3.19977,0 5.14831,3.50952 3.4729,6.23627c-1.09405,1.77612 -2.52838,3.07007 -3.73077,4.15344c-2.06452,1.86005 -2.73132,2.6062 -2.73132,4.32434c0,1.71967 0.66681,2.46582 2.73132,4.32739c2.29187,2.06451 5.4306,4.89502 5.4306,10.38971s-3.13721,8.32367 -5.4306,10.38971c-1.1383,1.02692 -1.85089,1.71356 -2.26288,2.41241c-0.71411,1.21155 -2.05231,1.91498 -3.45917,1.91498zm0,0" stroke-width="5" stroke-miterlimit="10" stroke-dasharray=""></path><path data-v-9833e8b2="" transform="scale(0.12376237623762376)" fill="none" stroke="currentColor" paint-order="fill stroke markers" d="m126.35554,197.75448c-8.09784,2.11945 -16.59699,3.24554 -25.35553,3.24554c-24.59259,0 -47.10541,-8.87299 -64.52179,-23.59619c-10.27069,-8.6853 -18.76831,-19.40002 -24.86572,-31.52619l0,-0.00458c2.79083,-14.48517 6.39954,-29.19617 10.51331,-44.0857c29.24958,-4.08172 58.49915,-4.08172 87.7472,0c9.12629,33.03681 15.78064,65.1764 16.48255,95.96711zm0,0" stroke-width="5" stroke-miterlimit="10" stroke-dasharray=""></path><path data-v-9833e8b2="" transform="scale(0.12376237623762376)" fill="none" stroke="currentColor" paint-order="fill stroke markers" d="m44.00385,99.49855c-3.5141,26.59912 -6.28967,52.63977 -7.52563,77.90528c-10.27069,-8.6853 -18.76831,-19.40002 -24.86572,-31.52619c2.79083,-14.48517 6.39954,-29.19617 10.51331,-44.09027c7.29523,-1.01624 14.58893,-1.77918 21.87805,-2.28882zm0,0" stroke-width="5" stroke-miterlimit="10" stroke-dasharray=""></path><path data-v-9833e8b2="" transform="scale(0.12376237623762376)" fill="none" stroke="currentColor" paint-order="fill stroke markers" d="m116.76692,103.0981c0,1.54266 -0.62561,2.93732 -1.63421,3.94898c-1.01166,1.00861 -2.40631,1.63421 -3.94898,1.63421l-90.36866,0c-3.08227,0 -5.58014,-2.49939 -5.58014,-5.58319c0,-1.53961 0.62408,-2.93732 1.63421,-3.94592c1.00861,-1.00861 2.40631,-1.63421 3.9444,-1.63421l90.37018,0c3.0838,0 5.58319,2.49939 5.58319,5.58014zm0,0" stroke-width="5" stroke-miterlimit="10" stroke-dasharray=""></path><path data-v-9833e8b2="" transform="scale(0.12376237623762376)" fill="none" stroke="currentColor" paint-order="fill stroke markers" d="m116.76692,103.0981c0,1.54266 -0.62561,2.93732 -1.63421,3.94898c-1.01166,1.00861 -2.40631,1.63421 -3.94898,1.63421l-73.10944,0c-3.0838,0 -5.58319,-2.49939 -5.58319,-5.58319c0,-1.53961 0.62561,-2.93732 1.63574,-3.94592c1.01013,-1.00861 2.40631,-1.63421 3.94745,-1.63421l73.10944,0c3.0838,0 5.58319,2.49939 5.58319,5.58014zm0,0" stroke-width="5" stroke-miterlimit="10" stroke-dasharray=""></path><path data-v-9833e8b2="" transform="scale(0.12376237623762376)" fill="none" stroke="currentColor" paint-order="fill stroke markers" d="m197.95894,125.57582c-8.90198,35.22492 -36.48987,63.00812 -71.6034,72.17866c-8.09784,2.11945 -16.59699,3.24554 -25.35553,3.24554c-3.1311,0 -6.22864,-0.14343 -9.28497,-0.4242c-13.43689,-1.23749 -26.09863,-5.13153 -37.46185,-11.15112c-0.2533,-40.6662 8.34656,-83.29011 20.47729,-127.20033c36.19996,-5.04914 72.39991,-5.04914 108.59986,0c5.92651,21.44928 11.00769,42.59186 14.6286,63.35144zm0,0" stroke-width="5" stroke-miterlimit="10" stroke-dasharray=""></path><path data-v-9833e8b2="" transform="scale(0.12376237623762376)" fill="none" stroke="currentColor" paint-order="fill stroke markers" d="m91.71504,200.57583c-13.43689,-1.23749 -26.09863,-5.13153 -37.46185,-11.15112c-0.24872,-40.66162 8.35113,-83.29011 20.47729,-127.20033c9.02863,-1.25732 18.05267,-2.20337 27.07367,-2.83203c-6.44836,48.87696 -10.89325,96.22346 -10.08911,141.18348zm0,0" stroke-width="5" stroke-miterlimit="10" stroke-dasharray=""></path><path data-v-9833e8b2="" transform="scale(0.12376237623762376)" fill="none" stroke="currentColor" paint-order="fill stroke markers" d="m191.86458,63.84639c0,1.90888 -0.77362,3.63617 -2.02332,4.88739c-1.25122,1.2497 -2.97852,2.02332 -4.88739,2.02332l-111.84846,0c-3.81317,0 -6.90613,-3.09296 -6.90613,-6.91071c0,-1.9043 0.77362,-3.63464 2.02179,-4.88281c1.2497,-1.24817 2.98004,-2.02332 4.88434,-2.02332l111.84846,0c3.81775,0 6.9107,3.09296 6.9107,6.90613zm0,0" stroke-width="5" stroke-miterlimit="10" stroke-dasharray=""></path><path data-v-9833e8b2="" transform="scale(0.12376237623762376)" fill="none" stroke="currentColor" paint-order="fill stroke markers" d="m191.86458,63.84639c0,1.90888 -0.77362,3.63617 -2.02332,4.88739c-1.25122,1.2497 -2.97852,2.02332 -4.88739,2.02332l-90.48616,0c-3.81622,0 -6.90918,-3.09296 -6.90918,-6.91071c0,-1.9043 0.77362,-3.63464 2.02179,-4.88281c1.25275,-1.24817 2.97852,-2.02332 4.88739,-2.02332l90.48616,0c3.81775,0 6.9107,3.09296 6.9107,6.90613zm0,0" stroke-width="5" stroke-miterlimit="10" stroke-dasharray=""></path><path data-v-9833e8b2="" transform="scale(0.12376237623762376)" fill="none" stroke="currentColor" paint-order="fill stroke markers" d="m129.89405,47.45692c-3.19977,0 -5.14832,-3.50952 -3.4729,-6.23627c1.09405,-1.77765 2.52838,-3.07159 3.73077,-4.15344c2.06451,-1.86157 2.73285,-2.60773 2.73285,-4.32739c0,-1.71814 -0.66834,-2.4643 -2.73285,-4.32587c-2.29187,-2.06604 -5.43061,-4.89502 -5.43061,-10.39124c0,-5.49469 3.13873,-8.32367 5.43061,-10.38818c1.1383,-1.02692 1.85089,-1.71356 2.26288,-2.41089c0.71411,-1.21155 2.0523,-1.91498 3.45916,-1.91498c3.19977,0 5.14832,3.50952 3.4729,6.23627c-1.09405,1.77765 -2.52838,3.07007 -3.73077,4.15344c-2.06452,1.86157 -2.73132,2.60773 -2.73132,4.32587c0,1.71814 0.66681,2.4643 2.73132,4.32587c2.29187,2.06604 5.4306,4.89502 5.4306,10.38971c0,5.49622 -3.13721,8.3252 -5.4306,10.39124c-1.1383,1.02539 -1.85089,1.71356 -2.26288,2.41089c-0.71411,1.21155 -2.05231,1.91498 -3.45917,1.91498zm0,0" stroke-width="5" stroke-miterlimit="10" stroke-dasharray=""></path><path data-v-9833e8b2="" transform="scale(0.12376237623762376)" fill="none" stroke="currentColor" paint-order="fill stroke markers" d="m100.10737,47.45692c-3.19977,0 -5.14831,-3.50952 -3.4729,-6.23627c1.09405,-1.77765 2.52838,-3.07159 3.73077,-4.15344c2.06452,-1.86157 2.73132,-2.60773 2.73132,-4.32739c0,-1.71814 -0.66681,-2.4643 -2.73132,-4.32587c-2.29187,-2.06604 -5.4306,-4.89502 -5.4306,-10.39124c0,-5.49469 3.13873,-8.32367 5.4306,-10.38818c1.1383,-1.02692 1.85089,-1.71356 2.26288,-2.41089c0.71411,-1.21155 2.05231,-1.91498 3.45917,-1.91498c3.19977,0 5.14832,3.50952 3.47138,6.23627c-1.09253,1.77765 -2.52686,3.07007 -3.72925,4.15344c-2.06451,1.86157 -2.73285,2.60773 -2.73285,4.32587c0,1.71814 0.66834,2.4643 2.73285,4.32587c2.29187,2.06604 5.43061,4.89502 5.43061,10.38971c0,5.49622 -3.13721,8.3252 -5.43061,10.39124c-1.1383,1.02539 -1.85242,1.71356 -2.26288,2.41089c-0.71411,1.21155 -2.0523,1.91498 -3.45917,1.91498zm0,0" stroke-width="5" stroke-miterlimit="10" stroke-dasharray=""></path><path data-v-9833e8b2="" transform="scale(0.12376237623762376)" fill="none" stroke="currentColor" paint-order="fill stroke markers" d="m159.68074,47.45692c-3.19977,0 -5.14832,-3.50952 -3.4729,-6.23627c1.09405,-1.77765 2.52838,-3.07159 3.73077,-4.15344c2.06452,-1.86157 2.73132,-2.60773 2.73132,-4.32739c0,-1.71814 -0.66681,-2.4643 -2.73132,-4.32587c-2.29187,-2.06604 -5.4306,-4.89502 -5.4306,-10.39124c0,-5.49469 3.13873,-8.32367 5.4306,-10.38818c1.1383,-1.02692 1.85089,-1.71356 2.26288,-2.41089c0.71411,-1.21155 2.05231,-1.91498 3.45917,-1.91498c3.19977,0 5.14832,3.50952 3.47138,6.23627c-1.09253,1.77765 -2.52686,3.07007 -3.72925,4.15344c-2.06451,1.86157 -2.73285,2.60773 -2.73285,4.32587c0,1.71814 0.66834,2.4643 2.73285,4.32587c2.29187,2.06604 5.43061,4.89502 5.43061,10.38971c0,5.49622 -3.13721,8.3252 -5.43061,10.39124c-1.1383,1.02539 -1.85241,1.71356 -2.26288,2.41089c-0.71411,1.21155 -2.0523,1.91498 -3.45916,1.91498zm0,0" stroke-width="5" stroke-miterlimit="10" stroke-dasharray=""></path></g></svg>