<svg data-v-9833e8b2="" version="1.1" xmlns="http://www.w3.org/2000/svg" xmlns:xlink="http://www.w3.org/1999/xlink" width="25" height="22.5"><g data-v-9833e8b2=""><path data-v-9833e8b2="" transform="scale(0.1724137931034483)" fill="none" stroke="currentColor" paint-order="fill stroke markers" d="m16.06367,13.87344l7.23164,-2.8207l25.47656,65.59649l-7.23203,2.82031z" stroke-width="5" stroke-miterlimit="10" stroke-dasharray=""></path><path data-v-9833e8b2="" transform="scale(0.1724137931034483)" fill="none" stroke="currentColor" paint-order="fill stroke markers" d="m58.97422,113.67813c14.82383,-9.72227 10.68281,-19.86485 3.15078,-38.31953c-5.01133,1.95039 -10.65274,4.14102 -15.66406,6.09141c-4.98125,1.95039 -10.65274,4.14102 -15.66367,6.0918c6.90195,18.66445 10.71289,28.95703 28.17696,26.13633l0,0z" stroke-width="5" stroke-miterlimit="10" stroke-dasharray=""></path><path data-v-9833e8b2="" transform="scale(0.1724137931034483)" fill="none" stroke="currentColor" paint-order="fill stroke markers" d="m48.80196,80.55001l-2.34063,0.90039l-2.31055,0.90039l8.25195,21.27539c0.69023,1.80039 2.31055,2.88086 3.60078,2.3707l0,0c1.29023,-0.48008 1.7707,-2.3707 1.05039,-4.20117l-8.25195,-21.2457z" stroke-width="5" stroke-miterlimit="10" stroke-dasharray=""></path><path data-v-9833e8b2="" transform="scale(0.1724137931034483)" fill="none" stroke="currentColor" paint-order="fill stroke markers" d="m28.03672,84.7211l17.10429,-6.66173l17.13438,-6.66171l1.32031,3.39062l-17.13438,6.66171l-17.1043,6.66173z" stroke-width="5" stroke-miterlimit="10" stroke-dasharray=""></path><path data-v-9833e8b2="" transform="scale(0.1724137931034483)" fill="none" stroke="currentColor" paint-order="fill stroke markers" d="m3.91055,13.6332l28.17696,-10.95274l1.68047,4.32109l-9.96211,3.8711l2.40039,6.12148l-8.28203,3.21054l-2.40078,-6.12148l-9.93242,3.87109z" stroke-width="5" stroke-miterlimit="10" stroke-dasharray=""></path><path data-v-9833e8b2="" transform="scale(0.1724137931034483)" fill="none" stroke="currentColor" paint-order="fill stroke markers" d="m3.64063,12.97305l-2.64063,1.05039l2.16055,5.58125l2.67031,-1.01992z" stroke-width="5" stroke-miterlimit="10" stroke-dasharray=""></path><path data-v-9833e8b2="" transform="scale(0.1724137931034483)" fill="none" stroke="currentColor" paint-order="fill stroke markers" d="m34.51836,1l-2.6707,1.02031l2.16054,5.61133l2.67071,-1.02031z" stroke-width="5" stroke-miterlimit="10" stroke-dasharray=""></path><path data-v-9833e8b2="" transform="scale(0.1724137931034483)" fill="none" stroke="currentColor" paint-order="fill stroke markers" d="m17.35391,20.41485l9.39258,-3.63086l0.78008,1.98047l-9.39258,3.63125z" stroke-width="5" stroke-miterlimit="10" stroke-dasharray=""></path><path data-v-9833e8b2="" transform="scale(0.1724137931034483)" fill="none" stroke="currentColor" paint-order="fill stroke markers" d="m4.39062,135.49376l139.77502,0l-12.12305,-8.52227l-2.5207,-5.76133l-6.9918,-0.93046l0,0l-5.46132,-7.77149l-5.6711,-0.06015l-4.0211,-5.85157l-9.8125,-3.87108l-7.11172,-10.62266l-9.90235,-1.32031l-9.09258,-6.42148l-7.50157,5.73125l-11.01289,1.08047l-6.8418,12.54296l-8.40195,1.77071l-7.35195,10.23243l-8.13203,1.26015l-7.77187,10.83281z" stroke-width="5" stroke-miterlimit="10" stroke-dasharray=""></path><path data-v-9833e8b2="" transform="scale(0.1724137931034483)" fill="none" stroke="currentColor" paint-order="fill stroke markers" d="m65.81602,97.14414l-4.08086,12.09297l-0.36016,10.5629l-2.49062,-10.95313l-9.2125,-1.23008l10.26289,-1.23047z" stroke-width="5" stroke-miterlimit="10" stroke-dasharray=""></path><path data-v-9833e8b2="" transform="scale(0.1724137931034483)" fill="none" stroke="currentColor" paint-order="fill stroke markers" d="m44.93086,115.59884l-3.51093,8.0418l0.75039,5.97148l5.52149,3.57109l-6.06172,-2.04062l-11.76289,0.06015l9.42227,-2.5207l0.11992,-8.58203l-5.52149,-1.56055l6.51211,-0.18008z" stroke-width="5" stroke-miterlimit="10" stroke-dasharray=""></path><path data-v-9833e8b2="" transform="scale(0.1724137931034483)" fill="none" stroke="currentColor" paint-order="fill stroke markers" d="m74.87853,99.30469l7.7418,6.90156l-1.29024,15.24414l4.47109,-14.64374l9.60234,-2.34063l-11.37265,0.33008z" stroke-width="5" stroke-miterlimit="10" stroke-dasharray=""></path><path data-v-9833e8b2="" transform="scale(0.1724137931034483)" fill="none" stroke="currentColor" paint-order="fill stroke markers" d="m87.15156,124.45079l11.6125,1.17071l2.8211,5.5211l-0.84023,-5.6414l3.51055,-13.05313l-5.37109,10.23243z" stroke-width="5" stroke-miterlimit="10" stroke-dasharray=""></path><path data-v-9833e8b2="" transform="scale(0.1724137931034483)" fill="none" stroke="currentColor" paint-order="fill stroke markers" d="m118.92931,123.70079l-5.10117,4.32109l-5.76134,-2.40039l5.76134,4.35078l6.21133,0.57031l-4.86094,-2.04062z" stroke-width="5" stroke-miterlimit="10" stroke-dasharray=""></path><path data-v-9833e8b2="" transform="scale(0.1724137931034483)" fill="none" stroke="currentColor" paint-order="fill stroke markers" d="m64.16563,121.36017l4.44141,3.90117l8.7918,-2.85078l-7.26172,4.44102l7.38203,5.52148l-8.76211,-3.84102l-12.9332,3.48086l11.43282,-5.88164z" stroke-width="5" stroke-miterlimit="10" stroke-dasharray=""></path></g></svg>