<svg data-v-9833e8b2="" version="1.1" xmlns="http://www.w3.org/2000/svg" xmlns:xlink="http://www.w3.org/1999/xlink" width="17" height="25"><g data-v-9833e8b2=""><path data-v-9833e8b2="" transform="scale(0.22321428571428573)" fill="none" stroke="currentColor" paint-order="fill stroke markers" d="m18,1l0,13" stroke-width="5" stroke-miterlimit="10" stroke-dasharray=""></path><path data-v-9833e8b2="" transform="scale(0.22321428571428573)" fill="none" stroke="currentColor" paint-order="fill stroke markers" d="m10.18975,21c0,-4.31506 3.49519,-7.81025 7.81025,-7.81025c4.31506,0 7.81025,3.49519 7.81025,7.81025c0,4.31506 -3.49519,7.81025 -7.81025,7.81025c-4.31506,0 -7.81025,-3.49519 -7.81025,-7.81025z" stroke-width="5" stroke-miterlimit="10" stroke-dasharray=""></path><path data-v-9833e8b2="" transform="scale(0.22321428571428573)" fill="none" stroke="currentColor" paint-order="fill stroke markers" d="m36,30l-24,23" stroke-width="5" stroke-miterlimit="10" stroke-dasharray=""></path><path data-v-9833e8b2="" transform="scale(0.22321428571428573)" fill="none" stroke="currentColor" paint-order="fill stroke markers" d="m11.18975,57c0,-4.31506 3.49519,-7.81025 7.81025,-7.81025c4.31506,0 7.81025,3.49519 7.81025,7.81025c0,4.31506 -3.49519,7.81025 -7.81025,7.81025c-4.31506,0 -7.81025,-3.49519 -7.81025,-7.81025z" stroke-width="5" stroke-miterlimit="10" stroke-dasharray=""></path><path data-v-9833e8b2="" transform="scale(0.22321428571428573)" fill="none" stroke="currentColor" paint-order="fill stroke markers" d="m19,64.5l0,15" stroke-width="5" stroke-miterlimit="10" stroke-dasharray=""></path><path data-v-9833e8b2="" transform="scale(0.22321428571428573)" fill="none" stroke="currentColor" paint-order="fill stroke markers" d="m1,80l33,0" stroke-width="5" stroke-miterlimit="10" stroke-dasharray=""></path><path data-v-9833e8b2="" transform="scale(0.22321428571428573)" fill="none" stroke="currentColor" paint-order="fill stroke markers" d="m5,86l24,0" stroke-width="5" stroke-miterlimit="10" stroke-dasharray=""></path><path data-v-9833e8b2="" transform="scale(0.22321428571428573)" fill="none" stroke="currentColor" paint-order="fill stroke markers" d="m8,92l19,0" stroke-width="5" stroke-miterlimit="10" stroke-dasharray=""></path></g></svg>