<svg data-v-9833e8b2="" version="1.1" xmlns="http://www.w3.org/2000/svg" xmlns:xlink="http://www.w3.org/1999/xlink" width="25" height="12.5"><g data-v-9833e8b2=""><path data-v-9833e8b2="" transform="scale(0.13440860215053763)" fill="none" stroke="currentColor" paint-order="fill stroke markers" d="m1,98.26l0,-15.81l44.29,-30.43l0,-0.64l-44.29,-34.48l0,-15.9l59.52,47.43l0,6.99l-59.52,42.84l0,0z" stroke-width="5" stroke-miterlimit="10" stroke-dasharray=""></path><path data-v-9833e8b2="" transform="scale(0.13440860215053763)" fill="none" stroke="currentColor" paint-order="fill stroke markers" d="m63.59,98.26l0,-15.81l44.29,-30.43l0,-0.64l-44.29,-34.48l0,-15.9l59.52,47.43l0,6.99l-59.52,42.84l0,0z" stroke-width="5" stroke-miterlimit="10" stroke-dasharray=""></path><path data-v-9833e8b2="" transform="scale(0.13440860215053763)" fill="none" stroke="currentColor" paint-order="fill stroke markers" d="m126.19,98.26l0,-15.81l44.28,-30.43l0,-0.64l-44.28,-34.48l0,-15.9l59.51,47.43l0,6.99l-59.51,42.84l0,0z" stroke-width="5" stroke-miterlimit="10" stroke-dasharray=""></path></g></svg>