<svg data-v-9833e8b2="" version="1.1" xmlns="http://www.w3.org/2000/svg" xmlns:xlink="http://www.w3.org/1999/xlink" width="25" height="25"><g data-v-9833e8b2=""><path data-v-9833e8b2="" transform="scale(0.13736263736263737)" fill="none" stroke="currentColor" paint-order="fill stroke markers" d="m150.23,115.87c-0.28,0.74 -0.4,1.54 -0.71,2.27l16.24,27.06l-21.92,21.89l-26.96,-16.17c-1.07,0.46 -2.24,0.72 -3.34,1.12l-7.49,29.94l-31,0l-7.87,-31.49c-0.72,-0.32 -1.36,-0.77 -2.06,-1.12l-27.31,16.39l-21.92,-21.91l17.78,-29.62l-32.67,-8.17l0,-31.01l33.54,-8.37l-17.33,-28.87l21.92,-21.92l29.63,17.79l8.16,-32.68l31.01,0l8.39,33.54l28.88,-17.33l21.89,21.92l-17.77,29.64l32.67,8.15l0,31.01l-31.76,7.94z" stroke-width="5" stroke-miterlimit="10" stroke-dasharray=""></path></g></svg>