<svg data-v-9833e8b2="" version="1.1" xmlns="http://www.w3.org/2000/svg" xmlns:xlink="http://www.w3.org/1999/xlink" width="25" height="15"><g data-v-9833e8b2=""><path data-v-9833e8b2="" transform="scale(0.13227513227513227)" fill="none" stroke="currentColor" paint-order="fill stroke markers" d="m81.6,75.8l-20.38,0l0,-37.4l20.38,0l0,37.4l0,0l0,0z" stroke-width="5" stroke-miterlimit="10" stroke-dasharray=""></path><path data-v-9833e8b2="" transform="scale(0.13227513227513227)" fill="none" stroke="currentColor" paint-order="fill stroke markers" d="m49.09,107.86l-32.06,0c-2.95,0 -5.35,-2.39 -5.35,-5.34l0,-21.37c0,-2.95 2.39,-5.35 5.35,-5.35l32.06,0c2.95,0 5.35,2.39 5.35,5.35l0,21.37c0,2.94 -2.39,5.34 -5.35,5.34l0,0l0,0z" stroke-width="5" stroke-miterlimit="10" stroke-dasharray=""></path><path data-v-9833e8b2="" transform="scale(0.13227513227513227)" fill="none" stroke="currentColor" paint-order="fill stroke markers" d="m182.67,107.86l-176.32,0c-2.95,0 -5.35,-2.39 -5.35,-5.34c0,-2.95 2.39,-5.35 5.35,-5.35l176.32,0c2.95,0 5.35,2.39 5.35,5.35c0,2.94 -2.4,5.34 -5.35,5.34l0,0l0,0z" stroke-width="5" stroke-miterlimit="10" stroke-dasharray=""></path><path data-v-9833e8b2="" transform="scale(0.13227513227513227)" fill="none" stroke="currentColor" paint-order="fill stroke markers" d="m43.75,86.49l-21.37,0c-11.8,0 -21.37,-9.57 -21.37,-21.37l0,-21.38c0,-11.8 9.57,-21.37 21.37,-21.37l21.37,0c11.8,0 21.37,9.57 21.37,21.37l0,21.37c0,11.81 -9.57,21.38 -21.37,21.38l0,0l0,0z" stroke-width="5" stroke-miterlimit="10" stroke-dasharray=""></path><path data-v-9833e8b2="" transform="scale(0.13227513227513227)" fill="none" stroke="currentColor" paint-order="fill stroke markers" d="m155.95,107.86l-42.74,0c-17.71,0 -32.05,-14.35 -32.05,-32.05l0,-42.75c0,-17.71 14.34,-32.06 32.05,-32.06l42.74,0c17.71,0 32.06,14.35 32.06,32.06l0,42.74c0.01,17.7 -14.35,32.06 -32.06,32.06l0,0l0,0z" stroke-width="5" stroke-miterlimit="10" stroke-dasharray=""></path></g></svg>