<svg data-v-9833e8b2="" version="1.1" xmlns="http://www.w3.org/2000/svg" xmlns:xlink="http://www.w3.org/1999/xlink" width="25" height="15"><g data-v-9833e8b2=""><path data-v-9833e8b2="" transform="scale(0.12953367875647667)" fill="none" stroke="currentColor" paint-order="fill stroke markers" d="m164.4,40.3l16.6,0l0,15.8l-16.6,0l0,-15.8l0,0z" stroke-width="5" stroke-miterlimit="10" stroke-dasharray=""></path><path data-v-9833e8b2="" transform="scale(0.12953367875647667)" fill="none" stroke="currentColor" paint-order="fill stroke markers" d="m156.6,32.4l3.9,0c2.2,0 3.9,1.8 3.9,3.9l0,23.6c0,2.2 -1.8,3.9 -3.9,3.9l-3.9,0l0,-31.4l0,0z" stroke-width="5" stroke-miterlimit="10" stroke-dasharray=""></path><path data-v-9833e8b2="" transform="scale(0.12953367875647667)" fill="none" stroke="currentColor" paint-order="fill stroke markers" d="m156.6,63.9l-23.7,16.4c-0.3,4 -3.7,7.2 -7.8,7.2l-92.6,0c-17.4,0.1 -31.5,-14 -31.5,-31.4l0,-15.8c0,-17.4 14.1,-31.5 31.5,-31.5l13.8,0l0,-3.9c0,-2.2 1.8,-3.9 3.9,-3.9l11.8,0c2.2,0 3.9,1.8 3.9,3.9l0,3.9l59.1,0c4.1,0 7.5,3.2 7.8,7.2l23.7,16.4l0,31.5l0.1,0z" stroke-width="5" stroke-miterlimit="10" stroke-dasharray=""></path><path data-v-9833e8b2="" transform="scale(0.12953367875647667)" fill="none" stroke="currentColor" paint-order="fill stroke markers" d="m46.3,38.3l11.8,0c2.2,0 3.9,1.8 3.9,3.9l0,13.9c0,2.2 -1.8,3.9 -3.9,3.9l-11.8,0c-2.2,0 -3.9,-1.8 -3.9,-3.9l0,-13.8c-0.1,-2.2 1.7,-4 3.9,-4l0,0z" stroke-width="5" stroke-miterlimit="10" stroke-dasharray=""></path><path data-v-9833e8b2="" transform="scale(0.12953367875647667)" fill="none" stroke="currentColor" paint-order="fill stroke markers" d="m30.5,87.6l-3.9,0l0,-78.8l3.9,0l0,78.8l0,0l0,0z" stroke-width="5" stroke-miterlimit="10" stroke-dasharray=""></path><path data-v-9833e8b2="" transform="scale(0.12953367875647667)" fill="none" stroke="currentColor" paint-order="fill stroke markers" d="m125.1,8.8l0,7.9l-35.5,0l0,-7.9l-3.9,0l0,78.8l3.9,0l0,-7.9l35.4,0l0,7.9l3.9,0l0,-78.8l-3.8,0z" stroke-width="5" stroke-miterlimit="10" stroke-dasharray=""></path><path data-v-9833e8b2="" transform="scale(0.12953367875647667)" fill="none" stroke="currentColor" paint-order="fill stroke markers" d="m125.1,75.8l-35.5,0l0,-7.9l35.4,0l0,7.9l0.1,0z" stroke-width="5" stroke-miterlimit="10" stroke-dasharray=""></path><path data-v-9833e8b2="" transform="scale(0.12953367875647667)" fill="none" stroke="currentColor" paint-order="fill stroke markers" d="m125.1,63.9l-35.5,0l0,-7.8l35.4,0l0,7.8l0.1,0z" stroke-width="5" stroke-miterlimit="10" stroke-dasharray=""></path><path data-v-9833e8b2="" transform="scale(0.12953367875647667)" fill="none" stroke="currentColor" paint-order="fill stroke markers" d="m125.1,52.1l-35.5,0l0,-7.9l35.4,0l0,7.9l0.1,0z" stroke-width="5" stroke-miterlimit="10" stroke-dasharray=""></path><path data-v-9833e8b2="" transform="scale(0.12953367875647667)" fill="none" stroke="currentColor" paint-order="fill stroke markers" d="m125.1,40.3l-35.5,0l0,-7.9l35.4,0l0,7.9l0.1,0z" stroke-width="5" stroke-miterlimit="10" stroke-dasharray=""></path><path data-v-9833e8b2="" transform="scale(0.12953367875647667)" fill="none" stroke="currentColor" paint-order="fill stroke markers" d="m125.1,28.5l-35.5,0l0,-7.9l35.4,0l0,7.9l0.1,0z" stroke-width="5" stroke-miterlimit="10" stroke-dasharray=""></path><path data-v-9833e8b2="" transform="scale(0.12953367875647667)" fill="none" stroke="currentColor" paint-order="fill stroke markers" d="m140.8,93.5l0,13.7l-106.3,0l0,-13.7l51.2,0l0,-5.9l43.3,0l0,5.9l11.8,0z" stroke-width="5" stroke-miterlimit="10" stroke-dasharray=""></path><path data-v-9833e8b2="" transform="scale(0.12953367875647667)" fill="none" stroke="currentColor" paint-order="fill stroke markers" d="m170.3,10.8l19.7,7.9l-5.9,31.5l-5.9,-2l-7.9,-37.4l0,0z" stroke-width="5" stroke-miterlimit="10" stroke-dasharray=""></path><path data-v-9833e8b2="" transform="scale(0.12953367875647667)" fill="none" stroke="currentColor" paint-order="fill stroke markers" d="m192,87.6l-19.7,-7.9l5.9,-31.5l5.9,2l7.9,37.4l0,0z" stroke-width="5" stroke-miterlimit="10" stroke-dasharray=""></path></g></svg>