<svg data-v-9833e8b2="" version="1.1" xmlns="http://www.w3.org/2000/svg" xmlns:xlink="http://www.w3.org/1999/xlink" width="24.5" height="25"><g data-v-9833e8b2=""><path data-v-9833e8b2="" transform="scale(0.12376237623762376)" fill="none" stroke="currentColor" paint-order="fill stroke markers" d="m62.39022,201.00001c-0.94147,0 -1.86463,-0.45166 -2.43073,-1.29089c-0.90637,-1.34125 -0.55237,-3.16162 0.78888,-4.06799l68.19611,-46.04645l-56.62079,-45.77179c-0.64545,-0.52185 -1.03912,-1.29089 -1.0849,-2.11945c-0.04425,-0.82703 0.26245,-1.63421 0.84686,-2.22321l47.92328,-48.26203c1.13983,-1.14898 2.9953,-1.15509 4.14276,-0.01526c1.14899,1.13983 1.15509,2.9953 0.01526,4.14276l-45.63599,45.961l57.17774,46.22193c0.72174,0.58441 1.12457,1.47553 1.0849,2.40479c-0.0412,0.92773 -0.51727,1.78223 -1.28784,2.30255l-71.4798,48.26203c-0.50202,0.34027 -1.0727,0.50202 -1.63574,0.50202zm0,0" stroke-width="5" stroke-miterlimit="10" stroke-dasharray=""></path><path data-v-9833e8b2="" transform="scale(0.12376237623762376)" fill="none" stroke="currentColor" paint-order="fill stroke markers" d="m139.75381,201.00001c-0.56457,0 -1.13525,-0.16174 -1.63727,-0.50202l-71.4798,-48.26203c-0.76904,-0.52032 -1.24664,-1.37482 -1.28632,-2.30255c-0.0412,-0.92926 0.36163,-1.82037 1.0849,-2.40479l57.17774,-46.22193l-45.63752,-45.961c-1.13983,-1.14746 -1.13373,-3.00293 0.01373,-4.14276c1.14899,-1.13983 3.00446,-1.13373 4.14429,0.01526l47.92328,48.26203c0.58441,0.58899 0.89111,1.39618 0.84686,2.2232c-0.04578,0.82855 -0.43945,1.5976 -1.08338,2.11945l-56.62232,45.77179l68.19763,46.04645c1.34125,0.90637 1.69373,2.72675 0.78888,4.06799c-0.5661,0.83923 -1.49078,1.29089 -2.43072,1.29089zm0,0" stroke-width="5" stroke-miterlimit="10" stroke-dasharray=""></path><path data-v-9833e8b2="" transform="scale(0.12376237623762376)" fill="none" stroke="currentColor" paint-order="fill stroke markers" d="m127.9786,104.47443l-53.81318,0c-1.61743,0 -2.92969,-1.31073 -2.92969,-2.92969s1.31225,-2.92969 2.92969,-2.92969l53.81318,0c1.61743,0 2.92969,1.31073 2.92969,2.92969c0,1.61743 -1.31226,2.92969 -2.92969,2.92969zm0,0" stroke-width="5" stroke-miterlimit="10" stroke-dasharray=""></path><path data-v-9833e8b2="" transform="scale(0.12376237623762376)" fill="none" stroke="currentColor" paint-order="fill stroke markers" d="m133.86697,152.73646l-65.59144,0c-1.61743,0 -2.92969,-1.31073 -2.92969,-2.92969c0,-1.61743 1.31226,-2.92969 2.92969,-2.92969l65.59144,0c1.61743,0 2.92969,1.31226 2.92969,2.92969c0,1.61896 -1.31226,2.92969 -2.92969,2.92969zm0,0" stroke-width="5" stroke-miterlimit="10" stroke-dasharray=""></path><path data-v-9833e8b2="" transform="scale(0.12376237623762376)" fill="none" stroke="currentColor" paint-order="fill stroke markers" d="m142.66366,197.7148c0.10223,0.83313 -0.15869,1.66931 -0.71411,2.29798c-0.55695,0.62714 -1.35498,0.98724 -2.19422,0.98724l-77.36817,0c-0.83771,0 -1.63727,-0.36011 -2.19269,-0.98724c-0.55542,-0.62866 -0.81634,-1.46484 -0.71564,-2.29798l17.66663,-144.78761c0.18005,-1.46942 1.42822,-2.57568 2.90833,-2.57568l41.59394,-2.92816c1.48163,0 2.72827,1.10473 2.90832,2.57416l18.10761,147.7173zm-76.96687,-2.57416l70.75043,0l-17.39349,-141.85945l-36.40595,2.92969l-16.95099,138.92976zm0,0" stroke-width="5" stroke-miterlimit="10" stroke-dasharray=""></path><path data-v-9833e8b2="" transform="scale(0.12376237623762376)" fill="none" stroke="currentColor" paint-order="fill stroke markers" d="m15.04066,201.00001c-1.61896,0 -2.92969,-1.31225 -2.92969,-2.92969l0,-116.75568c0,-1.61743 1.31073,-2.92969 2.92969,-2.92969c1.61743,0 2.92969,1.31225 2.92969,2.92969l0,116.75568c0,1.61743 -1.31225,2.92969 -2.92969,2.92969zm0,0" stroke-width="5" stroke-miterlimit="10" stroke-dasharray=""></path><path data-v-9833e8b2="" transform="scale(0.12376237623762376)" fill="none" stroke="currentColor" paint-order="fill stroke markers" d="m156.55984,201.00001l-110.97718,0c-1.61743,0 -2.92969,-1.31225 -2.92969,-2.92969c0,-1.61896 1.31226,-2.92969 2.92969,-2.92969l110.97718,0c1.61896,0 2.92969,1.31073 2.92969,2.92969c0,1.61743 -1.31073,2.92969 -2.92969,2.92969zm0,0" stroke-width="5" stroke-miterlimit="10" stroke-dasharray=""></path><path data-v-9833e8b2="" transform="scale(0.12376237623762376)" fill="none" stroke="currentColor" paint-order="fill stroke markers" d="m164.13277,105.67225c-1.61743,0 -2.92969,-1.31226 -2.92969,-2.92969l0,-33.13751c0,-1.61743 1.31226,-2.92969 2.92969,-2.92969c1.61896,0 2.92969,1.31225 2.92969,2.92969l0,33.13751c0,1.61743 -1.31073,2.92969 -2.92969,2.92969zm0,0" stroke-width="5" stroke-miterlimit="10" stroke-dasharray=""></path><path data-v-9833e8b2="" transform="scale(0.12376237623762376)" fill="none" stroke="currentColor" paint-order="fill stroke markers" d="m172.06582,128.9892c0,1.6388 -1.32904,2.96784 -2.96784,2.96784l-9.93042,0c-1.6388,0 -2.96631,-1.32904 -2.96631,-2.96784l0,-23.28033c0,-1.63879 1.32751,-2.96631 2.96631,-2.96631l9.93042,0c1.63879,0 2.96784,1.32752 2.96784,2.96631l0,23.28033zm0,0" stroke-width="5" stroke-miterlimit="10" stroke-dasharray=""></path><path data-v-9833e8b2="" transform="scale(0.12376237623762376)" fill="none" stroke="currentColor" paint-order="fill stroke markers" d="m165.37332,102.74256l0,29.21448l3.72467,0c1.63879,0 2.96784,-1.32904 2.96784,-2.96784l0,-23.28033c0,-1.63879 -1.32904,-2.96631 -2.96784,-2.96631l-3.72467,0zm0,0" stroke-width="5" stroke-miterlimit="10" stroke-dasharray=""></path><path data-v-9833e8b2="" transform="scale(0.12376237623762376)" fill="none" stroke="currentColor" paint-order="fill stroke markers" d="m184.97781,62.00617c0.75684,-0.55847 1.20239,-1.44348 1.20239,-2.38495l0,-41.54816c0,-0.93994 -0.44555,-1.82495 -1.20239,-2.38495l-18.75,-13.86261c-1.24512,-0.92011 -2.94495,-0.92011 -4.19007,0l-18.74847,13.86261c-0.75684,0.56 -1.20392,1.44501 -1.20392,2.38495l0,41.54816c0,0.94147 0.44708,1.82648 1.20392,2.38648l19.07959,14.10675c1.04828,0.77514 2.47955,0.77514 3.52783,0l19.08112,-14.10828zm0,0" stroke-width="5" stroke-miterlimit="10" stroke-dasharray=""></path><path data-v-9833e8b2="" transform="scale(0.12376237623762376)" fill="none" stroke="currentColor" paint-order="fill stroke markers" d="m165.89669,1.58136c-1.04828,-0.77514 -2.47955,-0.77514 -3.52783,0l-3.51715,2.60163l13.49335,9.9762c2.05841,1.5213 3.27148,3.92761 3.27148,6.48651l0,36.40442c0,2.5589 -1.21307,4.96521 -3.27148,6.48651l-13.49335,9.9762l3.51715,2.60163c1.04828,0.77514 2.47955,0.77514 3.52783,0l19.08112,-14.10675c0.75684,-0.56 1.20239,-1.44501 1.20239,-2.38648l0,-41.54816c0,-0.93994 -0.44555,-1.82495 -1.20239,-2.38495l-19.08112,-14.10675zm0,0" stroke-width="5" stroke-miterlimit="10" stroke-dasharray=""></path><path data-v-9833e8b2="" transform="scale(0.12376237623762376)" fill="none" stroke="currentColor" paint-order="fill stroke markers" d="m172.06582,38.8479c0,4.3808 -3.55225,7.93152 -7.93305,7.93152s-7.93152,-3.55072 -7.93152,-7.93152s3.55072,-7.93305 7.93152,-7.93305s7.93305,3.55225 7.93305,7.93305zm0,0" stroke-width="5" stroke-miterlimit="10" stroke-dasharray=""></path><path data-v-9833e8b2="" transform="scale(0.12376237623762376)" fill="none" stroke="currentColor" paint-order="fill stroke markers" d="m142.08535,25.72992l-133.13294,38.36365c-5.83496,1.68152 -9.20105,7.77436 -7.51953,13.60779c1.67999,5.83496 7.77282,9.20105 13.60779,7.52106l127.04469,-36.61042l0,-22.88208zm0,0" stroke-width="5" stroke-miterlimit="10" stroke-dasharray=""></path><path data-v-9833e8b2="" transform="scale(0.12376237623762376)" fill="none" stroke="currentColor" paint-order="fill stroke markers" d="m134.15383,50.89777l7.93152,-2.28577l0,-22.88208l-7.93152,2.28577l0,22.88208zm0,0" stroke-width="5" stroke-miterlimit="10" stroke-dasharray=""></path><path data-v-9833e8b2="" transform="scale(0.12376237623762376)" fill="none" stroke="currentColor" paint-order="fill stroke markers" d="m11.9355,77.69983c-1.32293,0 -2.52228,-0.90179 -2.84576,-2.24304c-0.37995,-1.57318 0.58746,-3.15552 2.16064,-3.53547l1.37329,-0.33111c1.57318,-0.37842 3.15552,0.58746 3.53546,2.16064c0.37995,1.57318 -0.58899,3.15552 -2.16064,3.53546l-1.37482,0.33112c-0.23041,0.05646 -0.46081,0.08239 -0.68817,0.08239zm0,0" stroke-width="5" stroke-miterlimit="10" stroke-dasharray=""></path></g></svg>