<svg data-v-9833e8b2="" version="1.1" xmlns="http://www.w3.org/2000/svg" xmlns:xlink="http://www.w3.org/1999/xlink" width="25" height="15"><g data-v-9833e8b2=""><path data-v-9833e8b2="" transform="scale(0.13368983957219252)" fill="none" stroke="currentColor" paint-order="fill stroke markers" d="m1,11.28l185.11,0l-51.42,78.84l-82.27,0l-51.42,-78.84l0,0z" stroke-width="5" stroke-miterlimit="10" stroke-dasharray=""></path><path data-v-9833e8b2="" transform="scale(0.13368983957219252)" fill="none" stroke="currentColor" paint-order="fill stroke markers" d="m132.98,96.98c0,1.89 -1.53,3.43 -3.43,3.43l-3.6,0c0.11,0.55 0.17,1.13 0.17,1.71c0,4.73 -3.84,8.57 -8.57,8.57s-8.57,-3.84 -8.57,-8.57c0,-0.59 0.06,-1.16 0.17,-1.71l-31.2,0c0.11,0.55 0.17,1.13 0.17,1.71c0,4.73 -3.84,8.57 -8.57,8.57c-4.73,0 -8.57,-3.84 -8.57,-8.57c0,-0.59 0.06,-1.16 0.17,-1.71l-3.6,0c-1.89,0 -3.43,-1.53 -3.43,-3.43c0,-1.89 1.53,-3.43 3.43,-3.43l71.99,0c1.9,0 3.44,1.54 3.44,3.43z" stroke-width="5" stroke-miterlimit="10" stroke-dasharray=""></path><path data-v-9833e8b2="" transform="scale(0.13368983957219252)" fill="none" stroke="currentColor" paint-order="fill stroke markers" d="m93.56,1c51.12,0 92.56,4.6 92.56,10.28c0,5.68 -41.44,10.29 -92.56,10.29s-92.56,-4.61 -92.56,-10.29c0,-5.68 41.44,-10.28 92.56,-10.28l0,0z" stroke-width="5" stroke-miterlimit="10" stroke-dasharray=""></path></g></svg>