<svg data-v-9833e8b2="" version="1.1" xmlns="http://www.w3.org/2000/svg" xmlns:xlink="http://www.w3.org/1999/xlink" width="25" height="20"><g data-v-9833e8b2=""><path data-v-9833e8b2="" transform="scale(0.16891891891891891)" fill="none" stroke="currentColor" paint-order="fill stroke markers" d="m17.80703,29.5414l124.81993,0l0,66.65665l-124.81993,0l0,-66.65665z" stroke-width="5" stroke-miterlimit="10" stroke-dasharray=""></path><path data-v-9833e8b2="" transform="scale(0.16891891891891891)" fill="none" stroke="currentColor" paint-order="fill stroke markers" d="m17.80703,96.19805l124.81993,0l0,7.89336l-124.81993,0l0,-7.89336z" stroke-width="5" stroke-miterlimit="10" stroke-dasharray=""></path><path data-v-9833e8b2="" transform="scale(0.16891891891891891)" fill="none" stroke="currentColor" paint-order="fill stroke markers" d="m96.31837,111.9543c5.49219,0 10.98438,0 16.44649,0c5.49219,0 10.98438,0 16.47656,0c0.84023,-0.96055 1.80078,-2.04102 2.85117,-3.24141c1.17031,-1.35039 2.49102,-2.88125 4.02148,-4.62188c-7.77305,0 -15.57617,0 -23.34922,0c-7.77305,0 -15.54609,0 -23.31914,0c1.53047,1.74063 2.85117,3.27148 4.05156,4.62188c1.05039,1.20078 1.98047,2.28086 2.82109,3.24141l0,0z" stroke-width="5" stroke-miterlimit="10" stroke-dasharray=""></path><path data-v-9833e8b2="" transform="scale(0.16891891891891891)" fill="none" stroke="currentColor" paint-order="fill stroke markers" d="m29.9918,111.9543c5.46211,0 10.9543,0 16.44649,0c5.46211,0 10.9543,0 16.44649,0c0.84023,-0.96055 1.80078,-2.04102 2.85117,-3.24141c1.17031,-1.35039 2.52109,-2.88125 4.02148,-4.62188c-7.77305,0 -15.54609,0 -23.31914,0s-15.57617,0 -23.31914,0c1.50039,1.74063 2.85117,3.27148 4.02148,4.62188c1.05039,1.20078 1.98086,2.28086 2.85117,3.24141l0,0z" stroke-width="5" stroke-miterlimit="10" stroke-dasharray=""></path><path data-v-9833e8b2="" transform="scale(0.16891891891891891)" fill="none" stroke="currentColor" paint-order="fill stroke markers" d="m35.66407,103.13086c4.89219,0 8.85352,3.96172 8.85352,8.82344c0,4.8918 -3.96172,8.82344 -8.85352,8.82344c-4.86211,0 -8.82344,-3.93164 -8.82344,-8.82344c0,-4.86172 3.96133,-8.82344 8.82344,-8.82344l0,0zm21.51836,0c4.89219,0 8.85352,3.96172 8.85352,8.82344c0,4.8918 -3.96172,8.82344 -8.85352,8.82344c-4.86211,0 -8.82344,-3.93164 -8.82344,-8.82344c0,-4.86172 3.96172,-8.82344 8.82344,-8.82344l0,0zm44.83828,0c4.8918,0 8.85352,3.96172 8.85352,8.82344c0,4.8918 -3.96172,8.82344 -8.85352,8.82344c-4.86211,0 -8.82344,-3.93164 -8.82344,-8.82344c-0.00039,-4.86172 3.96133,-8.82344 8.82344,-8.82344l0,0zm21.51836,0c4.89219,0 8.82344,3.96172 8.82344,8.82344c0,4.8918 -3.93164,8.82344 -8.82344,8.82344c-4.89219,0 -8.82344,-3.93164 -8.82344,-8.82344c0,-4.86172 3.93164,-8.82344 8.82344,-8.82344l0,0z" stroke-width="5" stroke-miterlimit="10" stroke-dasharray=""></path><path data-v-9833e8b2="" transform="scale(0.16891891891891891)" fill="none" stroke="currentColor" paint-order="fill stroke markers" d="m35.66407,108.17266c-2.0707,0 -3.78164,1.68086 -3.78164,3.78164c0,2.10078 1.71094,3.81133 3.78164,3.81133c2.10078,0 3.81133,-1.71094 3.81133,-3.81133c0,-2.10078 -1.71055,-3.78164 -3.81133,-3.78164l0,0zm21.51836,0c-2.10078,0 -3.78125,1.68086 -3.78125,3.78164c0,2.10078 1.68047,3.81133 3.78125,3.81133s3.81133,-1.71094 3.81133,-3.81133c0.00039,-2.10078 -1.71016,-3.78164 -3.81133,-3.78164l0,0zm44.83828,0c-2.10078,0 -3.78164,1.68086 -3.78164,3.78164c0,2.10078 1.68086,3.81133 3.78164,3.81133c2.10078,0 3.81133,-1.71094 3.81133,-3.81133c0,-2.10078 -1.71055,-3.78164 -3.81133,-3.78164l0,0zm21.51836,0c-2.10078,0 -3.78125,1.68086 -3.78125,3.78164c0,2.10078 1.68047,3.81133 3.78125,3.81133c2.10078,0 3.81133,-1.71094 3.81133,-3.81133c0.00039,-2.10078 -1.71016,-3.78164 -3.81133,-3.78164l0,0z" stroke-width="5" stroke-miterlimit="10" stroke-dasharray=""></path><path data-v-9833e8b2="" transform="scale(0.16891891891891891)" fill="none" stroke="currentColor" paint-order="fill stroke markers" d="m13.18516,22.12851l134.06368,0l0,7.41289l-134.06368,0l0,-7.41289z" stroke-width="5" stroke-miterlimit="10" stroke-dasharray=""></path><path data-v-9833e8b2="" transform="scale(0.16891891891891891)" fill="none" stroke="currentColor" paint-order="fill stroke markers" d="m8.41289,86.5043l9.39375,0l0,6.96289l-9.39375,0l0,-6.96289z" stroke-width="5" stroke-miterlimit="10" stroke-dasharray=""></path><path data-v-9833e8b2="" transform="scale(0.16891891891891891)" fill="none" stroke="currentColor" paint-order="fill stroke markers" d="m1,82.03243c2.46094,1.50078 4.92188,3.00117 7.41289,4.47188c0,2.34102 0,4.65195 0,6.96289c-2.49102,1.50039 -4.95195,3.00117 -7.41289,4.47188c0,-5.28242 0,-10.59453 0,-15.90664l0,0z" stroke-width="5" stroke-miterlimit="10" stroke-dasharray=""></path><path data-v-9833e8b2="" transform="scale(0.16891891891891891)" fill="none" stroke="currentColor" paint-order="fill stroke markers" d="m22.84883,34.58359l2.70117,0l49.45977,0l2.70117,0l0,4.44141l0,47.71914l0,4.41172l-2.70117,0l-49.45977,0l-2.70117,0l0,-4.41172l0,-47.71914l0,-4.44141zm49.81993,9.45352l-18.84727,18.84766l18.84727,18.81758l0,-37.66524zm-2.70117,42.07696l-19.68789,-19.68789l-19.68789,19.68789l39.37578,0zm-42.07657,-4.41172l18.81758,-18.81758l-18.81758,-18.84766l0,37.66524zm2.70078,-42.07696l19.68789,19.68789l19.68789,-19.68789l-39.37578,0zm57.17305,4.41172l18.84766,18.84766l-18.84766,18.81758l0,-37.66524zm2.70117,42.07696l19.68789,-19.68789l19.68789,19.68789l-39.37578,0zm42.07657,-4.41172l-18.81758,-18.81758l18.81758,-18.84766l0,37.66524zm-2.70078,-42.07696l-19.68789,19.68789l-19.68789,-19.68789l39.37578,0zm-47.11875,-5.0418l2.70117,0l49.45977,0l2.70117,0l0,4.44141l0,47.71914l0,4.41172l-2.70117,0l-49.46016,0l-2.70117,0l0,-4.41172l0,-47.71914l0,-4.44141l0.00039,0z" stroke-width="5" stroke-miterlimit="10" stroke-dasharray=""></path><path data-v-9833e8b2="" transform="scale(0.16891891891891891)" fill="none" stroke="currentColor" paint-order="fill stroke markers" d="m21.04805,22.12851l19.08789,-12.78516l26.98047,1.95078l19.23788,-10.29414l21.96876,10.14414l13.20547,0.18008l17.07657,10.8043z" stroke-width="5" stroke-miterlimit="10" stroke-dasharray=""></path></g></svg>