<svg data-v-9833e8b2="" version="1.1" xmlns="http://www.w3.org/2000/svg" xmlns:xlink="http://www.w3.org/1999/xlink" width="25" height="25"><g data-v-9833e8b2=""><path data-v-9833e8b2="" transform="scale(0.13227513227513227)" fill="none" stroke="currentColor" paint-order="fill stroke markers" d="m1.3125,160.375l40.625,0l0,6.25l-40.625,0l0,-6.25z" stroke-width="5" stroke-miterlimit="10" stroke-dasharray=""></path><path data-v-9833e8b2="" transform="scale(0.13227513227513227)" fill="none" stroke="currentColor" paint-order="fill stroke markers" d="m79.4375,160.375l109.375,0l0,6.25l-109.375,0l0,-6.25z" stroke-width="5" stroke-miterlimit="10" stroke-dasharray=""></path><path data-v-9833e8b2="" transform="scale(0.13227513227513227)" fill="none" stroke="currentColor" paint-order="fill stroke markers" d="m169.75,120.0625c-14.0625,0.9375 -23.75,4.0625 -33.75,7.1875c-5.9375,1.875 -12.1875,3.75 -19.6875,5.3125c-11.875,2.5 -24.0625,3.4375 -36.875,3.125l-0.3125,6.25c1.875,0 4.0625,0 5.9375,0c10.9375,0 21.875,-1.25 32.1875,-3.4375c7.8125,-1.5625 14.0625,-3.75 20.3125,-5.625c9.6875,-3.125 19.0625,-5.9375 32.5,-6.875c5.9375,-0.3125 12.1875,-0.3125 18.4375,0l0.3125,-6.25c-6.25,0 -12.5,0 -19.0625,0.3125z" stroke-width="5" stroke-miterlimit="10" stroke-dasharray=""></path><path data-v-9833e8b2="" transform="scale(0.13227513227513227)" fill="none" stroke="currentColor" paint-order="fill stroke markers" d="m169.75,132.5625l0.3125,6.25c5.9375,-0.3125 12.1875,-0.3125 18.4375,0l0.3125,-6.25c-6.25,-0.3125 -12.5,-0.3125 -19.0625,0z" stroke-width="5" stroke-miterlimit="10" stroke-dasharray=""></path><path data-v-9833e8b2="" transform="scale(0.13227513227513227)" fill="none" stroke="currentColor" paint-order="fill stroke markers" d="m137.875,145.6875c5.625,-1.875 10.9375,-3.4375 17.1875,-4.6875l-1.25,-6.25c-6.5625,1.25 -11.875,3.125 -17.8125,5c-5.9375,1.875 -12.1875,3.75 -19.6875,5.3125c-6.875,1.5625 -14.0625,2.5 -21.5625,2.8125l0.3125,6.25c7.5,-0.3125 15,-1.5625 22.1875,-3.125c8.125,-1.25 14.375,-3.4375 20.625,-5.3125z" stroke-width="5" stroke-miterlimit="10" stroke-dasharray=""></path><path data-v-9833e8b2="" transform="scale(0.13227513227513227)" fill="none" stroke="currentColor" paint-order="fill stroke markers" d="m88.8125,154.4375l0,-6.25c-3.125,0 -6.25,0 -9.0625,0l-0.3125,6.25c1.875,0 4.0625,0 5.9375,0c1.25,0 2.1875,0 3.4375,0z" stroke-width="5" stroke-miterlimit="10" stroke-dasharray=""></path><path data-v-9833e8b2="" transform="scale(0.13227513227513227)" fill="none" stroke="currentColor" paint-order="fill stroke markers" d="m16.9375,132.25c8.125,0.3125 16.5625,1.5625 24.375,3.125l1.25,-6.25c-8.4375,-1.5625 -16.875,-2.8125 -25.625,-3.125c-5.3125,-0.3125 -10.625,-0.3125 -15.9375,0l0.3125,6.25c5.3125,-0.3125 10.3125,-0.3125 15.625,0z" stroke-width="5" stroke-miterlimit="10" stroke-dasharray=""></path><path data-v-9833e8b2="" transform="scale(0.13227513227513227)" fill="none" stroke="currentColor" paint-order="fill stroke markers" d="m32.875,140.0625l-0.9375,6.25c3.125,0.3125 6.25,0.9375 9.0625,1.5625l1.25,-6.25c-2.8125,-0.3125 -5.9375,-0.9375 -9.375,-1.5625z" stroke-width="5" stroke-miterlimit="10" stroke-dasharray=""></path><path data-v-9833e8b2="" transform="scale(0.13227513227513227)" fill="none" stroke="currentColor" paint-order="fill stroke markers" d="m16.9375,145.0625c0.9375,0 2.1875,0 3.125,0.3125l0.3125,-6.25c-0.9375,0 -2.1875,0 -3.125,-0.3125c-5.3125,-0.3125 -10.9375,-0.3125 -15.9375,0l0.3125,6.25c5,-0.3125 10,-0.3125 15.3125,0z" stroke-width="5" stroke-miterlimit="10" stroke-dasharray=""></path><path data-v-9833e8b2="" transform="scale(0.13227513227513227)" fill="none" stroke="currentColor" paint-order="fill stroke markers" d="m48.1875,107.25l0,59.375c0,0.625 0,0.9375 0.3125,1.25l9.375,18.75c0.625,0.9375 1.5625,1.875 2.8125,1.875s2.1875,-0.625 2.8125,-1.875l9.375,-18.75c0.3125,-0.3125 0.3125,-0.625 0.3125,-1.25l0,-59.375l12.5,0l18.75,0l75,0l9.375,0l0,-6.25l-6.25,0l0,-65.625c0,-1.875 -1.25,-3.125 -3.125,-3.125l-75,0c-1.875,0 -3.125,1.25 -3.125,3.125l0,65.625l-13.125,0l-17.5,-78.125l5.625,0c1.875,0 3.125,-1.25 3.125,-3.125l0,-9.375c0,-5.3125 -4.0625,-9.375 -9.375,-9.375l-18.75,0c-5.3125,0 -9.375,4.0625 -9.375,9.375l0,9.375c0,1.875 1.25,3.125 3.125,3.125l5.625,0l-17.5,78.125l-31.875,0l0,6.25l34.375,0l12.5,0zm6.25,56.25l0,-8.125l12.5,4.0625l0,4.0625l-12.5,0zm0,-14.6875l0,-5.9375l12.5,4.0625l0,5.9375l-12.5,-4.0625zm0,-12.5l0,-5.9375l12.5,4.0625l0,5.9375l-12.5,-4.0625zm12.5,-8.4375l-12.5,-4.0625l0,-5.9375l12.5,4.0625l0,5.9375zm-6.25,50.625l-4.375,-8.75l8.75,0l-4.375,8.75zm6.25,-63.125l-12.5,-4.0625l0,-4.0625l12.5,0l0,8.125zm40.625,-76.875l68.75,0l0,62.5l-68.75,0l0,-62.5zm-59.0625,22.1875l19.375,8.75l-23.125,8.4375l3.75,-17.1875zm25.3125,4.6875l-17.5,-7.8125l14.375,-5.3125l3.125,13.125zm-23.75,-12.1875l3.4375,-15.3125l12.8125,9.375l-16.25,5.9375zm25.625,20l4.375,19.0625l-28.75,-10l24.375,-9.0625zm-27.5,-62.8125c0,-1.875 1.25,-3.125 3.125,-3.125l18.75,0c1.875,0 3.125,1.25 3.125,3.125l0,6.25l-6.25,0l-12.5,0l-6.25,0l0,-6.25zm16.25,12.5l4.0625,17.8125l-13.125,-9.375l1.5625,-8.4375l7.5,0zm-21.5625,63.125l38.4375,13.75l0.3125,1.25l-42.1875,0l3.4375,-15z" stroke-width="5" stroke-miterlimit="10" stroke-dasharray=""></path><path data-v-9833e8b2="" transform="scale(0.13227513227513227)" fill="none" stroke="currentColor" paint-order="fill stroke markers" d="m148.1875,66.625l-6.875,0l4.6875,-7.8125l-5.3125,-3.125l-7.5,12.5c-0.625,0.9375 -0.625,2.1875 0,3.125c0.625,0.9375 1.5625,1.5625 2.8125,1.5625l6.875,0l-4.6875,7.8125l5.3125,3.125l7.5,-12.5c0.625,-0.9375 0.625,-2.1875 0,-3.125c-0.625,-0.9375 -1.5625,-1.5625 -2.8125,-1.5625z" stroke-width="5" stroke-miterlimit="10" stroke-dasharray=""></path><path data-v-9833e8b2="" transform="scale(0.13227513227513227)" fill="none" stroke="currentColor" paint-order="fill stroke markers" d="m141.9375,44.75c-13.75,0 -25,11.25 -25,25s11.25,25 25,25s25,-11.25 25,-25s-11.25,-25 -25,-25zm0,43.75c-10.3125,0 -18.75,-8.4375 -18.75,-18.75s8.4375,-18.75 18.75,-18.75s18.75,8.4375 18.75,18.75s-8.4375,18.75 -18.75,18.75z" stroke-width="5" stroke-miterlimit="10" stroke-dasharray=""></path><path data-v-9833e8b2="" transform="scale(0.13227513227513227)" fill="none" stroke="currentColor" paint-order="fill stroke markers" d="m85.6875,7.25l6.25,0l0,6.25l-6.25,0l0,-6.25z" stroke-width="5" stroke-miterlimit="10" stroke-dasharray=""></path><path data-v-9833e8b2="" transform="scale(0.13227513227513227)" fill="none" stroke="currentColor" paint-order="fill stroke markers" d="m110.6875,7.25l6.25,0l0,6.25l-6.25,0l0,-6.25z" stroke-width="5" stroke-miterlimit="10" stroke-dasharray=""></path><path data-v-9833e8b2="" transform="scale(0.13227513227513227)" fill="none" stroke="currentColor" paint-order="fill stroke markers" d="m98.1875,7.25l6.25,0l0,6.25l-6.25,0l0,-6.25z" stroke-width="5" stroke-miterlimit="10" stroke-dasharray=""></path><path data-v-9833e8b2="" transform="scale(0.13227513227513227)" fill="none" stroke="currentColor" paint-order="fill stroke markers" d="m123.1875,7.25l6.25,0l0,6.25l-6.25,0l0,-6.25z" stroke-width="5" stroke-miterlimit="10" stroke-dasharray=""></path><path data-v-9833e8b2="" transform="scale(0.13227513227513227)" fill="none" stroke="currentColor" paint-order="fill stroke markers" d="m135.6875,19.75l6.25,0l0,6.25l-6.25,0l0,-6.25z" stroke-width="5" stroke-miterlimit="10" stroke-dasharray=""></path><path data-v-9833e8b2="" transform="scale(0.13227513227513227)" fill="none" stroke="currentColor" paint-order="fill stroke markers" d="m135.6875,7.25l6.25,0l0,6.25l-6.25,0l0,-6.25z" stroke-width="5" stroke-miterlimit="10" stroke-dasharray=""></path><path data-v-9833e8b2="" transform="scale(0.13227513227513227)" fill="none" stroke="currentColor" paint-order="fill stroke markers" d="m82.5625,176l0,0c0,1.875 1.25,3.125 3.125,3.125l0,0c1.875,0 3.125,-1.25 3.125,-3.125l0,0c0,-1.875 -1.25,-3.125 -3.125,-3.125l0,0c-1.875,0 -3.125,1.25 -3.125,3.125z" stroke-width="5" stroke-miterlimit="10" stroke-dasharray=""></path><path data-v-9833e8b2="" transform="scale(0.13227513227513227)" fill="none" stroke="currentColor" paint-order="fill stroke markers" d="m107.5625,185.375l0,0c0,1.875 1.25,3.125 3.125,3.125l0,0c1.875,0 3.125,-1.25 3.125,-3.125l0,0c0,-1.875 -1.25,-3.125 -3.125,-3.125l0,0c-1.875,0 -3.125,1.25 -3.125,3.125z" stroke-width="5" stroke-miterlimit="10" stroke-dasharray=""></path><path data-v-9833e8b2="" transform="scale(0.13227513227513227)" fill="none" stroke="currentColor" paint-order="fill stroke markers" d="m135.6875,179.125l0,0c0,1.875 1.25,3.125 3.125,3.125l0,0c1.875,0 3.125,-1.25 3.125,-3.125l0,0c0,-1.875 -1.25,-3.125 -3.125,-3.125l0,0c-1.875,0 -3.125,1.25 -3.125,3.125z" stroke-width="5" stroke-miterlimit="10" stroke-dasharray=""></path><path data-v-9833e8b2="" transform="scale(0.13227513227513227)" fill="none" stroke="currentColor" paint-order="fill stroke markers" d="m182.5625,176l0,0c-1.875,0 -3.125,1.25 -3.125,3.125l0,0c0,1.875 1.25,3.125 3.125,3.125l0,0c1.875,0 3.125,-1.25 3.125,-3.125l0,0c0,-1.875 -1.25,-3.125 -3.125,-3.125z" stroke-width="5" stroke-miterlimit="10" stroke-dasharray=""></path><path data-v-9833e8b2="" transform="scale(0.13227513227513227)" fill="none" stroke="currentColor" paint-order="fill stroke markers" d="m160.6875,182.25l0,0c-1.875,0 -3.125,1.25 -3.125,3.125l0,0c0,1.875 1.25,3.125 3.125,3.125l0,0c1.875,0 3.125,-1.25 3.125,-3.125l0,0c0,-1.875 -1.25,-3.125 -3.125,-3.125z" stroke-width="5" stroke-miterlimit="10" stroke-dasharray=""></path><path data-v-9833e8b2="" transform="scale(0.13227513227513227)" fill="none" stroke="currentColor" paint-order="fill stroke markers" d="m10.6875,176l0,0c0,-1.875 -1.25,-3.125 -3.125,-3.125l0,0c-1.875,0 -3.125,1.25 -3.125,3.125l0,0c0,1.875 1.25,3.125 3.125,3.125l0,0c1.875,0 3.125,-1.25 3.125,-3.125z" stroke-width="5" stroke-miterlimit="10" stroke-dasharray=""></path><path data-v-9833e8b2="" transform="scale(0.13227513227513227)" fill="none" stroke="currentColor" paint-order="fill stroke markers" d="m29.4375,182.25l0,0c-1.875,0 -3.125,1.25 -3.125,3.125l0,0c0,1.875 1.25,3.125 3.125,3.125l0,0c1.875,0 3.125,-1.25 3.125,-3.125l0,0c0,-1.875 -1.25,-3.125 -3.125,-3.125z" stroke-width="5" stroke-miterlimit="10" stroke-dasharray=""></path></g></svg>