<svg data-v-9833e8b2="" version="1.1" xmlns="http://www.w3.org/2000/svg" xmlns:xlink="http://www.w3.org/1999/xlink" width="25" height="20"><g data-v-9833e8b2=""><path data-v-9833e8b2="" transform="scale(0.12376237623762376)" fill="none" stroke="currentColor" paint-order="fill stroke markers" d="m191.625,32.25l-10.38125,0l-9.39375,-23.48438c-1.74687,-4.35312 -6.78438,-7.76563 -11.475,-7.76563l-118.75,0c-4.69062,0 -9.72812,3.4125 -11.475,7.76563l-9.39375,23.48438l-10.38125,0c-5.16875,0 -9.375,4.20625 -9.375,9.375l0,6.25c0,5.16875 4.20625,9.375 9.375,9.375l3.125,0l0,62.5c0,8.61562 7.00938,15.625 15.625,15.625l19.03125,0c0.60312,3.56875 2.2125,6.79063 4.53125,9.375l-42.3125,0c-1.72812,0 -3.125,1.4 -3.125,3.125s1.39688,3.125 3.125,3.125l181.25,0c1.72812,0 3.125,-1.4 3.125,-3.125s-1.39688,-3.125 -3.125,-3.125l-42.3125,0c2.31875,-2.58437 3.92812,-5.80625 4.53125,-9.375l19.03125,0c8.61562,0 15.625,-7.00938 15.625,-15.625l0,-62.5l3.125,0c5.16875,0 9.375,-4.20625 9.375,-9.375l0,-6.25c0,-5.16875 -4.20625,-9.375 -9.375,-9.375zm-155.67188,-21.15938c0.80313,-2.0125 3.50937,-3.84062 5.67188,-3.84062l118.75,0c2.1625,0 4.86875,1.82813 5.66875,3.84062l8.4625,21.15938l-147.01563,0l8.4625,-21.15938zm18.17188,46.15938l0,21.875l-34.375,0l0,-21.875l34.375,0zm18.75,0l0,57.34375c-1.95937,-0.69688 -4.05625,-1.09375 -6.25,-1.09375s-4.29063,0.39687 -6.25,1.09375l0,-57.34375l12.5,0zm50,0l0,21.875l-43.75,0l0,-21.875l43.75,0zm18.75,0l0,57.34375c-1.95937,-0.69688 -4.05625,-1.09375 -6.25,-1.09375s-4.29063,0.39687 -6.25,1.09375l0,-57.34375l12.5,0zm40.625,40.625l-34.375,0l0,-12.5l34.375,0l0,12.5zm-59.375,0l-43.75,0l0,-12.5l43.75,0l0,12.5zm-37.78125,37.5l31.8125,0c0.60312,3.56875 2.2125,6.79063 4.53125,9.375l-40.875,0c2.31875,-2.58437 3.92812,-5.80625 4.53125,-9.375zm31.8125,-6.25l-31.8125,0c-0.72188,-4.26563 -2.88125,-8.0375 -5.96875,-10.80938l0,-14.19062l43.75,0l0,14.19062c-3.0875,2.77187 -5.25,6.54375 -5.96875,10.80938zm-97.15625,-43.75l34.375,0l0,12.5l-34.375,0l0,-12.5zm0,34.375l0,-15.625l34.375,0l0,14.19062c-3.0875,2.77187 -5.25,6.54375 -5.96875,10.80938l-19.03125,0c-5.16875,0 -9.375,-4.20625 -9.375,-9.375zm34.375,12.5c0,-6.89375 5.60625,-12.5 12.5,-12.5s12.5,5.60625 12.5,12.5s-5.60625,12.5 -12.5,12.5s-12.5,-5.60625 -12.5,-12.5zm68.75,0c0,-6.89375 5.60625,-12.5 12.5,-12.5s12.5,5.60625 12.5,12.5s-5.60625,12.5 -12.5,12.5s-12.5,-5.60625 -12.5,-12.5zm50,-3.125l-19.03125,0c-0.71875,-4.26563 -2.88125,-8.0375 -5.96875,-10.80938l0,-14.19062l34.375,0l0,15.625c0,5.16875 -4.20625,9.375 -9.375,9.375zm9.375,-50l-34.375,0l0,-21.875l34.375,0l0,21.875zm12.5,-31.25c0,1.72187 -1.4,3.125 -3.125,3.125l-181.25,0c-1.725,0 -3.125,-1.40313 -3.125,-3.125l0,-6.25c0,-1.72187 1.4,-3.125 3.125,-3.125l181.25,0c1.725,0 3.125,1.40313 3.125,3.125l0,6.25z" stroke-width="5" stroke-miterlimit="10" stroke-dasharray=""></path><path data-v-9833e8b2="" transform="scale(0.12376237623762376)" fill="none" stroke="currentColor" paint-order="fill stroke markers" d="m133.15625,130.03125c-0.56562,0.59375 -0.90625,1.40625 -0.90625,2.21875s0.34063,1.625 0.90625,2.21875c0.59062,0.5625 1.40625,0.90625 2.21875,0.90625s1.62187,-0.34375 2.21875,-0.90625c0.5625,-0.59375 0.90625,-1.40625 0.90625,-2.21875s-0.34375,-1.625 -0.90625,-2.21875c-1.15625,-1.15625 -3.28125,-1.15625 -4.4375,0z" stroke-width="5" stroke-miterlimit="10" stroke-dasharray=""></path><path data-v-9833e8b2="" transform="scale(0.12376237623762376)" fill="none" stroke="currentColor" paint-order="fill stroke markers" d="m64.40625,130.03125c-0.56562,0.59375 -0.90625,1.40625 -0.90625,2.21875s0.34063,1.625 0.90625,2.21875c0.59062,0.5625 1.40625,0.90625 2.21875,0.90625s1.62187,-0.34375 2.21875,-0.90625c0.5625,-0.59375 0.90625,-1.40625 0.90625,-2.21875s-0.34375,-1.625 -0.90625,-2.21875c-1.1875,-1.15625 -3.28125,-1.15625 -4.4375,0z" stroke-width="5" stroke-miterlimit="10" stroke-dasharray=""></path></g></svg>