<svg data-v-9833e8b2="" version="1.1" xmlns="http://www.w3.org/2000/svg" xmlns:xlink="http://www.w3.org/1999/xlink" width="12" height="25"><g data-v-9833e8b2=""><path data-v-9833e8b2="" transform="scale(0.17985611510791366)" fill="none" stroke="currentColor" paint-order="fill stroke markers" d="m28.70704,2.58656c-0.35039,11.73008 -0.24336,23.48906 -0.24336,35.2168l0,38.39844c0,1.80156 -0.02031,3.60781 -0.04023,5.41602c-0.86836,-0.51328 -1.8375,-0.83477 -2.77734,-0.89531c-1.31055,-0.08477 -2.5875,0.27227 -3.64805,0.94648c-0.00664,-1.00469 -0.01328,-2.00938 -0.01328,-3.01172l0,-19.4211c0,-12.79961 0.07383,-25.60117 -0.02695,-38.39805c-0.04453,-5.70195 -0.05586,-11.41758 -0.19414,-17.12188c0.79258,-0.90859 1.78164,-1.61641 3.06992,-1.94922c1.45742,-0.375 2.83281,-0.0043 3.87344,0.81953z" stroke-width="5" stroke-miterlimit="10" stroke-dasharray=""></path><path data-v-9833e8b2="" transform="scale(0.17985611510791366)" fill="none" stroke="currentColor" paint-order="fill stroke markers" d="m77.27301,266.09559c-0.72,3.566 -1.492,7.121 -2.338,10.654c-1.177,4.921 -2.303,10.305 -4.275,14.843c-0.595,1.36 -1.503,2.692 -2.572,3.715c-0.972,0.926 -2.063,1.6 -3.172,1.823l-0.006,0c-1.137,-0.229 -2.263,-0.926 -3.246,-1.886c-1.04,-1.017 -1.926,-2.32 -2.503,-3.652c-1.978,-4.538 -3.104,-9.922 -4.281,-14.843c-1.143,-4.784 -2.16,-9.602 -3.075,-14.454c0.114,-6.796 0.103,-13.597 0.154,-20.404c0.011,-1.709 0.029,-3.418 0.046,-5.127c0.011,-0.714 0.017,-1.429 0.023,-2.143c0.063,-6.281 0.097,-12.568 -0.166,-18.838l0,-0.006c0.583,-0.96 1.246,-1.852 1.995,-2.669c0.474,-0.52 0.983,-1.012 1.526,-1.457c0.309,-0.263 0.623,-0.509 0.949,-0.737c2.475,-1.755 5.487,-2.749 8.887,-2.629c2.698,0.103 5.315,0.949 7.527,2.44c0.057,0.04 0.114,0.08 0.171,0.12c0.829,0.566 1.6,1.229 2.298,1.972c0.011,0.017 0.023,0.029 0.04,0.046c1.017,1.103 1.772,2.298 2.361,3.561c-0.166,6.081 -0.309,12.162 -0.406,18.244c-0.011,0.709 -0.023,1.417 -0.034,2.132c-0.131,9.766 -0.137,19.533 0.097,29.295z" stroke-width="5" stroke-miterlimit="10" stroke-dasharray=""></path><path data-v-9833e8b2="" transform="scale(0.17985611510791366)" fill="none" stroke="currentColor" paint-order="fill stroke markers" d="m125.84801,239.47959c-1.475,11.425 -3.366,22.913 -5.824,34.321c-4.429,20.581 -10.019,45.466 -23.599,62.19c-6.447,7.944 -13.546,12.151 -20.804,14.037c-3.629,0.714 -7.344,1.194 -11.077,1.252c-3.738,-0.057 -7.453,-0.537 -11.076,-1.252c-7.264,-1.886 -14.357,-6.093 -20.81,-14.037c-13.58,-16.723 -19.169,-41.608 -23.599,-62.19c-2.458,-11.408 -4.349,-22.896 -5.824,-34.321c9.899,1.646 19.998,2.132 30.08,0.989c0.292,-0.029 0.577,-0.063 0.869,-0.097c5.412,-0.669 10.739,-1.692 15.883,-3.075c0.017,1.532 0.034,3.063 0.046,4.595c0.028,3.698 0.034,7.39 0.057,11.082c0.006,1.137 0.011,2.269 0.023,3.4c0.274,2.012 0.56,4.024 0.869,6.036c0.206,1.372 0.423,2.743 0.652,4.109l0,0.006c0.834,5.007 1.812,9.973 2.989,14.872c0.36,1.52 0.743,3.035 1.149,4.538c1.177,4.372 2.635,9.773 6.201,11.957c0.006,0.006 0.011,0.006 0.017,0.011c0.006,0 0.006,0.006 0.011,0.006c0.006,0.006 0.011,0.006 0.017,0.011c0.04,0.023 0.08,0.052 0.126,0.074c0.006,0.006 0.011,0.006 0.017,0.011c0.732,0.463 1.56,0.714 2.406,0.737c0.086,0.006 0.177,0.006 0.263,0.006c0.943,0.023 1.858,-0.229 2.663,-0.743c0.006,-0.006 0.011,-0.006 0.017,-0.011c0.04,-0.023 0.086,-0.051 0.126,-0.074c0,0 0.006,0 0.006,-0.006c0.006,0 0.006,-0.006 0.011,-0.006c3.595,-2.172 5.053,-7.59 6.23,-11.974c0.343,-1.263 0.669,-2.532 0.983,-3.807c0.926,-3.806 1.732,-7.647 2.446,-11.522c0.263,-1.452 0.514,-2.904 0.754,-4.361c0.303,-1.817 0.589,-3.641 0.857,-5.464c0.029,-1.435 0.046,-2.869 0.051,-4.304c0,0 0,0 0,-0.006c0.057,-6.39 0.029,-12.785 -0.057,-19.175c4.984,1.337 10.139,2.338 15.375,3.006c0.177,0.023 0.348,0.046 0.526,0.069c10.375,1.27 20.766,0.801 30.95,-0.89z" stroke-width="5" stroke-miterlimit="10" stroke-dasharray=""></path><path data-v-9833e8b2="" transform="scale(0.17985611510791366)" fill="none" stroke="currentColor" paint-order="fill stroke markers" d="m49.17305,93.435c-0.00664,0 -0.01563,0.00234 -0.02227,0.00234c-4.07891,0.39531 -8.27617,0.23203 -12.31055,-0.32383c-2.04727,-0.28125 -4.0543,-0.69414 -5.99219,-1.24336c-0.03125,-2.10078 -0.07813,-4.20195 -0.13398,-6.30039c-0.01563,-0.59844 -0.03125,-1.19883 -0.04688,-1.79727c-0.09609,-0.15625 -0.20078,-0.3082 -0.3125,-0.45547c-0.28594,-0.375 -0.61602,-0.71875 -0.98242,-1.02695c-0.01133,-1.21211 -0.02031,-2.42227 -0.02031,-3.63242l0,-19.4211c0,-12.79961 0.07383,-25.60117 -0.02695,-38.39805c-0.04688,-5.95859 -0.0582,-11.93086 -0.21211,-17.8918c-0.0043,-0.12266 -0.00664,-0.24766 -0.01133,-0.3707c-0.00234,-0.11367 -0.00664,-0.22539 -0.00898,-0.33945c-0.11602,-0.10508 -0.23906,-0.20313 -0.36602,-0.29688c-0.92891,-0.68086 -2.09414,-1.04492 -3.29297,-0.91289c-1.48477,0.16289 -2.71719,0.88203 -3.69063,1.89766c-0.14727,0.15391 -0.29023,0.31719 -0.42656,0.48672c-0.00898,0.29688 -0.01563,0.59609 -0.02227,0.89531c-0.00234,0 -0.00234,0.00234 -0.00234,0.00234c-0.29453,11.15859 -0.19648,22.34141 -0.19648,33.49532l0,38.39844c0,2.06523 -0.02461,4.13477 -0.04922,6.20898c-0.31016,0.29688 -0.59141,0.625 -0.83047,0.98242c-0.25469,0.37734 -0.46445,0.78125 -0.61836,1.2168c0.00234,0.00234 0.00234,0.00234 0,0.0043c-0.01328,0.40195 -0.02656,0.80391 -0.03359,1.20547c-0.00234,0.00234 -0.00234,0.00234 0,0.0043c-0.00234,0.00234 -0.00234,0.00234 -0.00234,0.0043c-0.04922,2.01367 -0.03359,4.02969 -0.01094,6.04805c-1.92891,0.54492 -3.9293,0.95547 -5.96758,1.23672c-4.03438,0.55586 -8.23164,0.71875 -12.31055,0.32383c-0.00664,0 -0.01563,-0.00234 -0.02227,-0.00234c-0.08477,-0.00664 -0.16758,-0.01563 -0.25,-0.02461c0.0043,0.03125 0.00664,0.06016 0.00664,0.09141c0.61172,8.94141 2.38438,18.24922 5.41172,27.03438c1.33945,3.88711 3.08984,7.80078 5.55234,11.0043c2.55195,3.31758 5.7625,5.47656 9.11328,6.35859c1.41094,0.37266 2.78828,0.52461 4.12813,0.49336c1.33945,0.03125 2.71719,-0.1207 4.12578,-0.49336c3.35117,-0.88203 6.56172,-3.04063 9.11328,-6.35859c2.4625,-3.20391 4.21289,-7.11758 5.55234,-11.0043c3.02734,-8.78516 4.8,-18.09297 5.41172,-27.03438c0,-0.03125 0.00234,-0.06016 0.00664,-0.09141c-0.08164,0.00859 -0.16406,0.01758 -0.24883,0.02422zm-27.18867,-14.77774l0,-19.4211c0,-12.79961 0.07383,-25.60117 -0.02695,-38.39805c-0.04453,-5.70195 -0.05586,-11.41758 -0.19414,-17.12188c0.79258,-0.90859 1.78164,-1.61641 3.06992,-1.94922c1.45781,-0.375 2.8332,-0.0043 3.87344,0.81914c-0.35039,11.73008 -0.24336,23.48906 -0.24336,35.2168l0,38.39844c0,1.80156 -0.02031,3.60781 -0.04023,5.41602c-0.86836,-0.51328 -1.8375,-0.83477 -2.77734,-0.89531c-1.31055,-0.08477 -2.5875,0.27227 -3.64805,0.94648c-0.00625,-1.00391 -0.01328,-2.00859 -0.01328,-3.01133zm-1.72539,5.63086c0.22773,-0.375 0.48672,-0.72344 0.7793,-1.04258c0.29023,-0.31914 0.61406,-0.60938 0.9668,-0.85742c0.9668,-0.68555 2.14336,-1.07383 3.47148,-1.02695c1.05391,0.04023 2.07617,0.3707 2.94023,0.95313c0.34805,0.23203 0.67188,0.50703 0.96445,0.81719c0.0043,0.00664 0.00898,0.01133 0.01563,0.01797c0.39727,0.43086 0.69219,0.89766 0.92227,1.39102c-0.06484,2.37539 -0.1207,4.75078 -0.15859,7.12656c-0.0043,0.27695 -0.00898,0.55352 -0.01328,0.83281c-0.05156,3.81563 -0.05352,7.63086 0.03789,11.44414c-0.28125,1.39297 -0.58281,2.78164 -0.91328,4.16172c-0.45977,1.92227 -0.89961,4.02539 -1.66992,5.79805c-0.43984,1.01133 -1.33281,1.98047 -2.24375,2.16328l-0.00234,0c-0.91328,-0.18086 -1.80625,-1.15195 -2.24609,-2.16328c-0.77266,-1.77266 -1.2125,-3.87578 -1.67227,-5.79805c-0.44648,-1.86875 -0.84375,-3.75078 -1.20117,-5.64609c0.04453,-2.65469 0.04023,-5.31133 0.06016,-7.97031c0.0043,-0.66758 0.01133,-1.33516 0.01797,-2.00273c0.0043,-0.27891 0.00664,-0.5582 0.00898,-0.83711c0.02461,-2.45352 0.03789,-4.90938 -0.06484,-7.35859l0,-0.00273l0.00039,0zm26.62539,22.66524c-1.73008,8.03945 -3.91367,17.76016 -9.21836,24.29297c-2.51836,3.10313 -5.29141,4.74648 -8.12656,5.4832c-1.41758,0.27891 -2.86875,0.46641 -4.32695,0.48906c-1.46016,-0.02227 -2.91133,-0.20977 -4.32656,-0.48906c-2.8375,-0.73672 -5.6082,-2.38008 -8.12891,-5.4832c-5.30469,-6.53242 -7.48789,-16.25313 -9.21836,-24.29297c-0.96016,-4.45625 -1.69883,-8.94375 -2.275,-13.40664c3.97852,0.66094 8.0375,0.84375 12.08945,0.34844c2.11406,-0.26133 4.19492,-0.66094 6.2043,-1.20117c0.00664,0.59844 0.01328,1.19648 0.01797,1.79492c0.01094,1.44453 0.01328,2.88672 0.02227,4.32891c0.00234,0.44414 0.0043,0.88633 0.00898,1.32813c0.10703,0.78594 0.21875,1.57188 0.33945,2.35781c0.08047,0.53594 0.16523,1.07148 0.25469,1.60508l0,0.00234c0.42656,2.56289 0.94883,5.09688 1.61641,7.58203c0.45977,1.70781 1.0293,3.81758 2.42227,4.6707c0.00234,0.00234 0.0043,0.00234 0.00664,0.0043c0.00234,0 0.00234,0.00234 0.0043,0.00234c0.00234,0.00234 0.0043,0.00234 0.00664,0.0043c0.01563,0.00898 0.03125,0.02031 0.04922,0.02891c0.00234,0.00234 0.0043,0.00234 0.00664,0.0043c0.28594,0.18086 0.60938,0.27891 0.93984,0.28789c0.03359,0.00234 0.06914,0.00234 0.10273,0.00234c0.36836,0.00898 0.72578,-0.08945 1.04023,-0.29023c0.00234,-0.00234 0.0043,-0.00234 0.00664,-0.0043c0.01563,-0.00898 0.03359,-0.01992 0.04922,-0.02891c0,0 0.00234,0 0.00234,-0.00234c0.00234,0 0.00234,-0.00234 0.0043,-0.00234c1.4043,-0.84844 1.97383,-2.96484 2.43359,-4.67734c0.53125,-1.9668 0.9668,-3.96719 1.33945,-5.98789c0.10273,-0.56719 0.20078,-1.13438 0.29453,-1.70352c0.11836,-0.70977 0.23008,-1.42227 0.33477,-2.13438c0.01133,-0.56055 0.01797,-1.1207 0.01992,-1.68125c0,0 0,0 0,-0.00234c0.02227,-2.49609 0.01133,-4.99414 -0.02227,-7.49023c2.01172,0.54023 4.09453,0.93984 6.21094,1.20117c4.05234,0.4957 8.11094,0.3125 12.08945,-0.34844c-0.575,4.46367 -1.31406,8.95117 -2.27422,13.40742z" stroke-width="5" stroke-miterlimit="10" stroke-dasharray=""></path><path data-v-9833e8b2="" transform="scale(0.17985611510791366)" fill="none" stroke="currentColor" paint-order="fill stroke markers" d="m22.82461,83.47446c-0.74414,1.0418 -0.89297,16.81875 -0.29766,19.20039c0.59531,2.38125 1.0418,9.0793 2.53008,9.82344c1.48828,0.74414 3.42344,-11.31172 3.42344,-13.84219c0,-2.53047 -0.14883,-13.24649 -0.59531,-14.4375c-0.44648,-1.19063 -5.06055,-0.74414 -5.06055,-0.74414z" stroke-width="5" stroke-miterlimit="10" stroke-dasharray=""></path><path data-v-9833e8b2="" transform="scale(0.17985611510791366)" fill="none" stroke="currentColor" paint-order="fill stroke markers" d="m30.14688,92.49946c0.0043,-0.27891 0.00898,-0.55586 0.01328,-0.83281c0.03789,-2.37539 0.09375,-4.75078 0.15859,-7.12656c-0.23008,-0.49336 -0.52461,-0.95977 -0.92227,-1.39102c-0.00664,-0.00664 -0.01133,-0.01133 -0.01563,-0.01797c-0.27227,-0.29023 -0.57383,-0.54922 -0.89766,-0.77031c1.95117,8.7918 0.69414,18.075 -0.58281,27.05c-0.25664,1.80156 -0.58047,3.7418 -1.87539,5.01875c-0.26563,0.26328 -0.58711,0.47305 -0.9332,0.625c-0.34844,-0.15195 -0.66992,-0.36172 -0.93555,-0.625c-1.29492,-1.27695 -1.61641,-3.21719 -1.87305,-5.01875c-1.26133,-8.86758 -2.50508,-18.03711 -0.64961,-26.73516c-0.21211,0.17422 -0.41094,0.36602 -0.59609,0.56914c-0.29258,0.31914 -0.55156,0.66758 -0.7793,1.04258l0,0.00234c0.10273,2.44922 0.08906,4.90508 0.06484,7.35859c-0.00234,0.27891 -0.00469,0.5582 -0.00898,0.83711c-0.00664,0.66758 -0.01328,1.33516 -0.01797,2.00273c-0.01992,2.65898 -0.01563,5.31563 -0.06016,7.97031c0.35703,1.89531 0.75469,3.77734 1.20117,5.64609c0.45977,1.92227 0.89961,4.02539 1.67227,5.79805c0.22539,0.52031 0.57148,1.0293 0.97773,1.42656c0.38398,0.375 0.82383,0.64727 1.26797,0.73672l0.00234,0c0.4332,-0.08711 0.85938,-0.35039 1.23906,-0.71211c0.41758,-0.39961 0.77266,-0.91992 1.00469,-1.45117c0.77031,-1.77266 1.21016,-3.87578 1.66992,-5.79805c0.33047,-1.37969 0.63203,-2.76836 0.91328,-4.16172c-0.09102,-3.8125 -0.08867,-7.62773 -0.0375,-11.44336z" stroke-width="5" stroke-miterlimit="10" stroke-dasharray=""></path><path data-v-9833e8b2="" transform="scale(0.17985611510791366)" fill="none" stroke="currentColor" paint-order="fill stroke markers" d="m51.71401,266.52459c0.834,5.007 1.812,9.973 2.989,14.872c-1,-1.315 -1.857,-2.755 -2.589,-4.207c-2.898,-5.733 -4.464,-12.031 -6.556,-18.106c-2.092,-6.075 -4.847,-12.145 -9.562,-16.512c-0.829,-0.766 -1.726,-1.475 -2.681,-2.103c0.292,-0.029 0.577,-0.063 0.869,-0.097c5.412,-0.669 10.739,-1.692 15.883,-3.075c0.017,1.532 0.034,3.063 0.046,4.595c0.028,3.698 0.034,7.39 0.057,11.082c0.006,1.137 0.011,2.269 0.023,3.4c0.274,2.012 0.56,4.024 0.869,6.036c0.206,1.372 0.423,2.743 0.652,4.109l0,0.006z" stroke-width="5" stroke-miterlimit="10" stroke-dasharray=""></path><path data-v-9833e8b2="" transform="scale(0.17985611510791366)" fill="none" stroke="currentColor" paint-order="fill stroke markers" d="m94.37401,240.30259c-4.47,3.309 -8.036,7.841 -10.042,13.037c-2.663,6.893 -2.658,14.569 -5.121,21.536c-0.914,2.595 -2.395,5.144 -4.264,7.253c0.926,-3.806 1.732,-7.647 2.446,-11.522c0.263,-1.452 0.514,-2.904 0.754,-4.361c0.303,-1.817 0.589,-3.641 0.857,-5.464c0.029,-1.435 0.046,-2.869 0.051,-4.304c0,0 0,0 0,-0.006c0.057,-6.39 0.029,-12.785 -0.057,-19.175c4.985,1.337 10.14,2.337 15.376,3.006z" stroke-width="5" stroke-miterlimit="10" stroke-dasharray=""></path><path data-v-9833e8b2="" transform="scale(0.17985611510791366)" fill="none" stroke="currentColor" paint-order="fill stroke markers" d="m4.81524,97.76313c-0.62813,1.25586 4.76289,36.16797 20.24219,36.16797c16.37227,0 21.13516,-32.59571 21.13516,-36.3168c0,-3.72109 -8.18633,-1.48828 -9.52578,-0.14883c-1.33945,1.33945 -4.01875,22.9211 -11.7582,22.9211c-7.73984,0 -11.01406,-20.8375 -12.05586,-22.62344c-1.04219,-1.78594 -7.59102,-0.89297 -8.0375,0z" stroke-width="5" stroke-miterlimit="10" stroke-dasharray=""></path><path data-v-9833e8b2="" transform="scale(0.17985611510791366)" fill="none" stroke="currentColor" paint-order="fill stroke markers" d="m23.8668,4.14359c-0.20898,1.2543 -1.0418,72.0379 0,73.82422c1.0418,1.78594 2.08359,2.08359 2.82773,-0.44648c0.74414,-2.53008 0.44648,-72.18672 0.44648,-73.37774c0,-1.19102 -3.12539,-0.89297 -3.27422,0z" stroke-width="5" stroke-miterlimit="10" stroke-dasharray=""></path></g></svg>