<svg data-v-9833e8b2="" version="1.1" xmlns="http://www.w3.org/2000/svg" xmlns:xlink="http://www.w3.org/1999/xlink" width="25" height="17.5"><g data-v-9833e8b2=""><path data-v-9833e8b2="" transform="scale(0.17123287671232876)" fill="none" stroke="currentColor" paint-order="fill stroke markers" d="m55.67344,62.54532l-8.40195,-18.66485l0.33008,-18.99453l19.83477,-23.88594l11.76328,0l19.83477,23.88594l0.36016,18.99453l-8.40235,18.66485z" stroke-width="5" stroke-miterlimit="10" stroke-dasharray=""></path><path data-v-9833e8b2="" transform="scale(0.17123287671232876)" fill="none" stroke="currentColor" paint-order="fill stroke markers" d="m55.67344,62.54532l-8.40234,-18.66485l0.11992,-7.17188c4.65117,-9.63242 14.52383,-16.32422 25.92656,-16.32422c11.43281,0 21.30547,6.69141 25.92617,16.32422l0.15,7.17188l-8.40195,18.66485l-35.31836,0z" stroke-width="5" stroke-miterlimit="10" stroke-dasharray=""></path><path data-v-9833e8b2="" transform="scale(0.17123287671232876)" fill="none" stroke="currentColor" paint-order="fill stroke markers" d="m67.43633,1c1.95039,0 3.90117,0 5.85156,0c1.95039,0 3.90117,0 5.85156,0c-0.33008,5.19141 -0.63008,9.87266 -0.87031,14.04336c-0.23984,3.81094 -0.45,7.26211 -0.66016,10.41289c-1.44063,0 -2.88086,0 -4.32109,0c-1.44023,0 -2.88086,0 -4.32109,0c-0.21016,-3.15078 -0.41992,-6.60156 -0.66016,-10.41289c-0.23984,-4.17109 -0.54023,-8.85234 -0.87031,-14.04336l0,0z" stroke-width="5" stroke-miterlimit="10" stroke-dasharray=""></path><path data-v-9833e8b2="" transform="scale(0.17123287671232876)" fill="none" stroke="currentColor" paint-order="fill stroke markers" d="m77.90899,20.775l-0.3,4.68125c-1.44063,0 -2.88086,0 -4.32109,0c-1.44023,0 -2.88086,0 -4.32109,0l-0.3,-4.68125c1.53047,-0.23984 3.06094,-0.39023 4.65117,-0.39023c1.56055,0 3.09063,0.15 4.59102,0.39023l0,0z" stroke-width="5" stroke-miterlimit="10" stroke-dasharray=""></path><path data-v-9833e8b2="" transform="scale(0.17123287671232876)" fill="none" stroke="currentColor" paint-order="fill stroke markers" d="m9.40195,53.63282l10.4125,-5.97148c1.80039,-1.05039 4.14102,-0.42031 5.19141,1.38047l23.58594,40.87032c1.05,1.80039 0.41992,4.14102 -1.38047,5.19141l-10.38242,6.00156l-27.42696,-47.47227z" stroke-width="5" stroke-miterlimit="10" stroke-dasharray=""></path><path data-v-9833e8b2="" transform="scale(0.17123287671232876)" fill="none" stroke="currentColor" paint-order="fill stroke markers" d="m8.86172,52.70274l-5.61133,3.24102l28.50703,49.33203l5.61172,-3.21054z" stroke-width="5" stroke-miterlimit="10" stroke-dasharray=""></path><path data-v-9833e8b2="" transform="scale(0.17123287671232876)" fill="none" stroke="currentColor" paint-order="fill stroke markers" d="m1,57.23398l2.25039,-1.29023l28.50703,49.33203l-2.25039,1.32071z" stroke-width="5" stroke-miterlimit="10" stroke-dasharray=""></path><path data-v-9833e8b2="" transform="scale(0.17123287671232876)" fill="none" stroke="currentColor" paint-order="fill stroke markers" d="m30.67734,58.88438l5.70156,-3.30078c0.99023,-0.57031 2.28086,-0.24023 2.85078,0.78008l10.14258,17.58438c0.57031,0.99023 0.24023,2.28086 -0.75,2.85078l-5.70156,3.2707l-12.24336,-21.18516z" stroke-width="5" stroke-miterlimit="10" stroke-dasharray=""></path><path data-v-9833e8b2="" transform="scale(0.17123287671232876)" fill="none" stroke="currentColor" paint-order="fill stroke markers" d="m41.26992,59.90469l6.27149,-3.60078l6.03164,10.47226l-6.24141,3.60117z" stroke-width="5" stroke-miterlimit="10" stroke-dasharray=""></path><path data-v-9833e8b2="" transform="scale(0.17123287671232876)" fill="none" stroke="currentColor" paint-order="fill stroke markers" d="m137.38399,53.63282l-10.4125,-5.97148c-1.80039,-1.05039 -4.14102,-0.42031 -5.19141,1.38047l-23.58594,40.87032c-1.05,1.80039 -0.42031,4.14102 1.38047,5.19141l10.38281,6.00156l27.42656,-47.47227z" stroke-width="5" stroke-miterlimit="10" stroke-dasharray=""></path><path data-v-9833e8b2="" transform="scale(0.17123287671232876)" fill="none" stroke="currentColor" paint-order="fill stroke markers" d="m137.92384,52.70274l5.61172,3.24102l-28.50703,49.33203l-5.61172,-3.21054z" stroke-width="5" stroke-miterlimit="10" stroke-dasharray=""></path><path data-v-9833e8b2="" transform="scale(0.17123287671232876)" fill="none" stroke="currentColor" paint-order="fill stroke markers" d="m145.78594,57.23398l-2.25039,-1.29023l-28.50703,49.33203l2.25039,1.32071z" stroke-width="5" stroke-miterlimit="10" stroke-dasharray=""></path><path data-v-9833e8b2="" transform="scale(0.17123287671232876)" fill="none" stroke="currentColor" paint-order="fill stroke markers" d="m116.1086,58.88438l-5.70156,-3.30078c-0.99023,-0.57031 -2.28047,-0.24023 -2.85039,0.78008l-10.14258,17.58438c-0.57031,0.99023 -0.24023,2.28086 0.75,2.85078l5.70156,3.2707l12.24297,-21.18516z" stroke-width="5" stroke-miterlimit="10" stroke-dasharray=""></path><path data-v-9833e8b2="" transform="scale(0.17123287671232876)" fill="none" stroke="currentColor" paint-order="fill stroke markers" d="m105.51602,59.90469l-6.27148,-3.60078l-6.03163,10.47226l6.24141,3.60117z" stroke-width="5" stroke-miterlimit="10" stroke-dasharray=""></path><path data-v-9833e8b2="" transform="scale(0.17123287671232876)" fill="none" stroke="currentColor" paint-order="fill stroke markers" d="m73.31797,22.06524c14.94375,0 27.0668,12.12305 27.0668,27.0668c0,14.97383 -12.12305,27.0668 -27.0668,27.0668c-14.94375,0 -27.0668,-12.09297 -27.0668,-27.0668c0,-14.94375 12.12305,-27.0668 27.0668,-27.0668l0,0z" stroke-width="5" stroke-miterlimit="10" stroke-dasharray=""></path><path data-v-9833e8b2="" transform="scale(0.17123287671232876)" fill="none" stroke="currentColor" paint-order="fill stroke markers" d="m73.31797,27.85664c10.68281,0 19.35469,8.67227 19.35469,19.35469c0,10.68281 -8.67227,19.35508 -19.35469,19.35508c-10.68281,0 -19.325,-8.67227 -19.325,-19.35508c0.00039,-10.68242 8.64219,-19.35469 19.325,-19.35469l0,0z" stroke-width="5" stroke-miterlimit="10" stroke-dasharray=""></path><path data-v-9833e8b2="" transform="scale(0.17123287671232876)" fill="none" stroke="currentColor" paint-order="fill stroke markers" d="m73.31797,29.38711c9.84258,0 17.82422,7.98203 17.82422,17.82422c0,9.84258 -7.98203,17.82461 -17.82422,17.82461c-9.84258,0 -17.82461,-7.98203 -17.82461,-17.82461c0,-9.84258 7.98203,-17.82422 17.82461,-17.82422l0,0z" stroke-width="5" stroke-miterlimit="10" stroke-dasharray=""></path><path data-v-9833e8b2="" transform="scale(0.17123287671232876)" fill="none" stroke="currentColor" paint-order="fill stroke markers" d="m73.31797,43.73047c1.95039,0 3.51094,1.56016 3.51094,3.48086c0,1.9207 -1.56055,3.48086 -3.51094,3.48086c-1.9207,0 -3.48086,-1.56016 -3.48086,-3.48086c0,-1.92031 1.56016,-3.48086 3.48086,-3.48086l0,0zm9.5125,0c1.92031,0 3.48086,1.56016 3.48086,3.48086c0,1.9207 -1.56055,3.48086 -3.48086,3.48086c-1.9207,0 -3.51094,-1.56016 -3.51094,-3.48086c0,-1.92031 1.59023,-3.48086 3.51094,-3.48086l0,0zm-18.99492,0c1.92031,0 3.48086,1.56016 3.48086,3.48086c0,1.9207 -1.56055,3.48086 -3.48086,3.48086s-3.48086,-1.56016 -3.48086,-3.48086c0,-1.92031 1.56055,-3.48086 3.48086,-3.48086l0,0zm4.74141,8.25234c1.92031,0 3.48086,1.56016 3.48086,3.51094c0,1.92031 -1.56055,3.48086 -3.48086,3.48086c-1.92031,0 -3.48086,-1.56055 -3.48086,-3.48086c-0.00039,-1.95078 1.56016,-3.51094 3.48086,-3.51094l0,0zm9.51211,0c1.92031,0 3.48086,1.56016 3.48086,3.51094c0,1.92031 -1.56055,3.48086 -3.48086,3.48086c-1.95039,0 -3.51094,-1.56055 -3.51094,-3.48086c0,-1.95078 1.56055,-3.51094 3.51094,-3.51094l0,0zm-9.51211,-16.53438c1.92031,0 3.48086,1.56016 3.48086,3.48086c0,1.95039 -1.56055,3.51094 -3.48086,3.51094c-1.92031,0 -3.48086,-1.56055 -3.48086,-3.51094c-0.00039,-1.92031 1.56016,-3.48086 3.48086,-3.48086l0,0zm9.51211,0c1.92031,0 3.48086,1.56016 3.48086,3.48086c0,1.95039 -1.56055,3.51094 -3.48086,3.51094c-1.95039,0 -3.51094,-1.56055 -3.51094,-3.51094c0,-1.92031 1.56055,-3.48086 3.51094,-3.48086l0,0z" stroke-width="5" stroke-miterlimit="10" stroke-dasharray=""></path><path data-v-9833e8b2="" transform="scale(0.17123287671232876)" fill="none" stroke="currentColor" paint-order="fill stroke markers" d="m73.31797,44.60078c-1.44063,0 -2.58086,1.17031 -2.58086,2.61055c0,1.44063 1.14023,2.61055 2.58086,2.61055c1.44023,0 2.61055,-1.17031 2.61055,-2.61055c0,-1.44023 -1.17031,-2.61055 -2.61055,-2.61055l0,0zm9.5125,0c-1.44063,0 -2.61055,1.17031 -2.61055,2.61055c0,1.44063 1.17031,2.61055 2.61055,2.61055c1.44023,0 2.58047,-1.17031 2.58047,-2.61055c0,-1.44023 -1.14023,-2.61055 -2.58047,-2.61055l0,0zm-18.99492,0c-1.44023,0 -2.61055,1.17031 -2.61055,2.61055c0,1.44063 1.17031,2.61055 2.61055,2.61055s2.61094,-1.17031 2.61094,-2.61055c0,-1.44023 -1.1707,-2.61055 -2.61094,-2.61055l0,0zm4.74141,8.28203c-1.44063,0 -2.61094,1.17031 -2.61094,2.61055c0,1.44023 1.17031,2.58086 2.61094,2.58086c1.44023,0 2.61055,-1.14023 2.61055,-2.58086c0,-1.44023 -1.17031,-2.61055 -2.61055,-2.61055l0,0zm9.51211,0c-1.44023,0 -2.61094,1.17031 -2.61094,2.61055c0,1.44023 1.17031,2.58086 2.61094,2.58086c1.41016,0 2.58047,-1.14023 2.58047,-2.58086c0.00039,-1.44023 -1.17031,-2.61055 -2.58047,-2.61055l0,0zm-9.51211,-16.53399c-1.44063,0 -2.61094,1.14023 -2.61094,2.58086c0,1.44023 1.17031,2.61055 2.61094,2.61055c1.44023,0 2.61055,-1.17031 2.61055,-2.61055c0,-1.44063 -1.17031,-2.58086 -2.61055,-2.58086l0,0zm9.51211,0c-1.44023,0 -2.61094,1.14023 -2.61094,2.58086c0,1.44023 1.17031,2.61055 2.61094,2.61055c1.41016,0 2.58047,-1.17031 2.58047,-2.61055c0.00039,-1.44063 -1.17031,-2.58086 -2.58047,-2.58086l0,0z" stroke-width="5" stroke-miterlimit="10" stroke-dasharray=""></path></g></svg>