<svg data-v-9833e8b2="" version="1.1" xmlns="http://www.w3.org/2000/svg" xmlns:xlink="http://www.w3.org/1999/xlink" width="9.5" height="25"><g data-v-9833e8b2=""><path data-v-9833e8b2="" transform="scale(0.1488095238095238)" fill="none" stroke="currentColor" paint-order="fill stroke markers" d="m28.04,167.74c14.91,0 27.04,-12.13 27.04,-27.04l0,-112.66c0,-14.91 -12.13,-27.04 -27.04,-27.04s-27.04,12.13 -27.04,27.04l0,112.66c0,14.91 12.13,27.04 27.04,27.04" stroke-width="5" stroke-miterlimit="10" stroke-dasharray=""></path><path data-v-9833e8b2="" transform="scale(0.1488095238095238)" fill="none" stroke="currentColor" paint-order="fill stroke markers" d="m52.83,28.04c0,13.69 -11.1,24.79 -24.79,24.79s-24.78,-11.1 -24.78,-24.79c0,-13.69 11.09,-24.78 24.78,-24.78s24.79,11.09 24.79,24.78z" stroke-width="5" stroke-miterlimit="10" stroke-dasharray=""></path><path data-v-9833e8b2="" transform="scale(0.1488095238095238)" fill="none" stroke="currentColor" paint-order="fill stroke markers" d="m52.83,140.7c0,13.69 -11.1,24.79 -24.79,24.79s-24.78,-11.1 -24.78,-24.79c0,-13.69 11.09,-24.78 24.78,-24.78s24.79,11.09 24.79,24.78z" stroke-width="5" stroke-miterlimit="10" stroke-dasharray=""></path></g></svg>