<svg data-v-9833e8b2="" version="1.1" xmlns="http://www.w3.org/2000/svg" xmlns:xlink="http://www.w3.org/1999/xlink" width="25" height="25"><g data-v-9833e8b2=""><path data-v-9833e8b2="" transform="scale(0.14124293785310735)" fill="none" stroke="currentColor" paint-order="fill stroke markers" d="m88.9,1c-48.5,0 -87.9,39.3 -87.9,87.9s39.3,87.9 87.9,87.9s87.9,-39.3 87.9,-87.9s-39.4,-87.9 -87.9,-87.9z" stroke-width="5" stroke-miterlimit="10" stroke-dasharray=""></path><path data-v-9833e8b2="" transform="scale(0.14124293785310735)" fill="none" stroke="currentColor" paint-order="fill stroke markers" d="m88.1,158.8c-1.4,0 -2.7,-0.1 -4,-0.1l0,-39c-5.3,-0.7 -10.1,-2.8 -14.2,-5.9c0.1,0.1 0.2,0.2 0.3,0.3l-27.5,29.8c-14.6,-13.5 -23.5,-32.9 -22.9,-54.3l-0.1,-0.1c0.1,-1.4 0.1,-2.7 0.2,-4l0.4,0l37.6,1.1c0.6,-6.8 3.5,-12.9 7.9,-17.7l-29.2,-25.4c13,-15 32.3,-24.4 53.7,-24.4l0.1,-0.1c1.4,0 2.7,0.1 4,0.1l0,40.4c5.4,1.1 10.2,3.6 14.2,7l26.6,-28.8c14.6,13.5 23.5,32.9 22.9,54.3l0.1,0.1c-0.1,1.4 -0.1,2.7 -0.2,4l-0.4,0l-39,-1.1c-0.9,5.1 -3.1,9.7 -6.2,13.6l29.6,25.7c-13.2,15 -32.4,24.4 -53.9,24.5l0,0z" stroke-width="5" stroke-miterlimit="10" stroke-dasharray=""></path><path data-v-9833e8b2="" transform="scale(0.14124293785310735)" fill="none" stroke="currentColor" paint-order="fill stroke markers" d="m107.3,88.9c0,10.2 -8.2,18.4 -18.4,18.4s-18.4,-8.2 -18.4,-18.4s8.2,-18.4 18.4,-18.4s18.4,8.2 18.4,18.4z" stroke-width="5" stroke-miterlimit="10" stroke-dasharray=""></path></g></svg>