<svg data-v-9833e8b2="" version="1.1" xmlns="http://www.w3.org/2000/svg" xmlns:xlink="http://www.w3.org/1999/xlink" width="24.5" height="25"><g data-v-9833e8b2=""><path data-v-9833e8b2="" transform="scale(0.13513513513513514)" fill="none" stroke="currentColor" paint-order="fill stroke markers" d="m35.75009,95.75063l2.0543,3.42501l17.12504,10.17913l0,25.84186l-21.33345,-12.13773l0,-11.74573l-14.58344,8.51662l0,10.76663l67.73357,39.35029l66.07106,-39.2501l0,-10.27932a12.12503,12.12503 0 0 1 -5.87501,-10.37503a12.02933,12.02933 0 0 1 12.04163,-12.04163a12.02933,12.02933 0 0 1 12.04163,12.04163a12.25843,12.25843 0 0 1 -5.77912,10.37503l0,17.32504l-78.40449,46.59191l-80.25841,-46.69211l0,-24.95827l27.01667,-15.75824l0,-0.1959l0.1959,0.0957l1.9584,-1.07481l-0.0043,0zm25.35006,16.93325l24.76256,14.19183l23.49186,-13.31253l0,25.64577l-23.49186,13.90003l-24.76256,-14.58324l0,-25.84186zm76.54199,-15.85824l0,26.23327l-21.33345,12.13773l0,-25.84186l21.33345,-12.52933l0,0.0002zm-51.77943,-32.69188l23.49186,14.09593l0,29.16667l-23.49186,13.31253l-24.76256,-14.29164l0,-27.79167l24.76276,-14.48773l-0.0002,-0.0041zm16.73754,21.82935l-14.09164,8.32072l0,17.22504l14.09183,-8.02502l0,-17.52504l-0.0002,0.0043zm-34.84579,0.5832l0,16.05434l14.09574,8.12502l0,-16.34594l-14.09574,-7.83342zm-9.98342,-38.4626l21.63345,12.52503l-24.47096,14.09593l0,28.29167l-21.24166,-12.23734l0,-28.58347l24.08326,-14.09183l-0.0041,0zm27.40827,-47.08332l80.067,46.49582l0,27.11257l-29.07097,17.02934l0,-0.0959l-19.77075,11.45003l0,-28.28327l-24.37506,-14.19183l21.63326,-12.52933l24.07936,14.19183l0,14.39164l15.27074,-8.90823l0,-12.92093l-67.73767,-39.3542l-66.06677,39.2499l0,10.18323a12.12503,12.12503 0 0 1 5.87501,10.37503c0,6.65431 -5.38341,12.13753 -12.04163,12.13753a12.02933,12.02933 0 0 1 -12.04183,-12.04163a12.12503,12.12503 0 0 1 5.87501,-10.37503l0,-17.32504l78.30449,-46.59191l-0.0002,0.00039zm0.6836,70.86678l-14.97523,8.80842l14.29183,7.92912l14.38754,-8.51662l-13.70433,-8.22092l0.0002,0zm0,-39.6417l21.43755,12.23323l-21.43755,12.43343l-21.43365,-12.43343l21.43365,-12.23323z" stroke-width="5" stroke-miterlimit="10" stroke-dasharray=""></path></g></svg>