<svg data-v-9833e8b2="" version="1.1" xmlns="http://www.w3.org/2000/svg" xmlns:xlink="http://www.w3.org/1999/xlink" width="25" height="17.5"><g data-v-9833e8b2=""><path data-v-9833e8b2="" transform="scale(0.12953367875647667)" fill="none" stroke="currentColor" paint-order="fill stroke markers" d="m192.0084,82.58433c0,-26.25102 -21.36293,-47.60874 -47.61934,-47.60874c-1.9205,0 -3.79683,0.1427 -5.65097,0.36235c-6.86875,-20.19472 -26.10292,-34.33794 -47.85338,-34.33794c-27.88031,0 -50.55995,22.67404 -50.55995,50.56035c-21.68711,0 -39.32476,17.64365 -39.32476,39.32456c0,21.67612 17.63765,39.32496 39.32476,39.32496l106.74129,0l0,-0.13711c25.00586,-1.39925 44.94235,-22.1368 44.94235,-47.48843zm-47.61934,36.38995l-104.0643,0c-15.48731,0 -28.08957,-12.60166 -28.08957,-28.08937c0,-15.48711 12.60226,-28.08897 28.08957,-28.08897l11.23519,0l0,-11.23559c0,-21.68111 17.63805,-39.32456 39.32476,-39.32456c16.58237,0 31.24143,10.59342 36.83704,25.80652c-18.04917,6.77021 -30.95263,24.15564 -30.95263,44.54202l11.23579,0c0,-20.05721 16.32674,-36.37276 36.38435,-36.37276c20.05721,0 36.38395,16.31555 36.38395,36.37276c-0.0002,20.06861 -16.32694,36.38995 -36.38415,36.38995z" stroke-width="5" stroke-miterlimit="10" stroke-dasharray=""></path></g></svg>