<svg data-v-9833e8b2="" version="1.1" xmlns="http://www.w3.org/2000/svg" xmlns:xlink="http://www.w3.org/1999/xlink" width="25" height="25"><g data-v-9833e8b2=""><path data-v-9833e8b2="" transform="scale(0.12376237623762376)" fill="none" stroke="currentColor" paint-order="fill stroke markers" d="m101.00025,101.00025m-100.00025,0a100.00025,100.00025 0 1 0 200.0005,0a100.00025,100.00025 0 1 0 -200.0005,0z" stroke-width="5" stroke-miterlimit="10" stroke-dasharray=""></path><path data-v-9833e8b2="" transform="scale(0.12376237623762376)" fill="none" stroke="currentColor" paint-order="fill stroke markers" d="m163.50041,101.00025c0,-34.52509 -27.97507,-62.50016 -62.50016,-62.50016s-62.50016,27.97507 -62.50016,62.50016a62.48766,62.48766 0 0 0 105.18776,45.60011a3.60001,3.60001 0 0 0 1.8875,-1.2375a4.16251,4.16251 0 0 0 0.95,-1.525a62.46266,62.46266 0 0 0 16.97504,-42.83761zm-67.37517,53.97514c-0.075,-0.1375 -0.225,-0.2125 -0.375,-0.3625a71.72518,71.72518 0 0 1 -16.25004,-20.40005c5.47501,-2.25001 11.30003,-3.63751 17.35004,-4.07501l0,24.83756l-0.725,0zm-49.17512,-49.96263l16.10004,0c0.4375,8.73752 2.32501,17.25004 5.53751,25.27506c-3.06251,1.75 -5.90001,3.71251 -8.67502,5.97502a53.82514,53.82514 0 0 1 -12.96253,-31.25008zm13.40003,-39.8501c2.70001,2.18751 5.53751,4.07501 8.45002,5.82501a77.25019,77.25019 0 0 0 -5.75001,25.71256l-16.02504,0a54.40014,54.40014 0 0 1 13.32503,-31.53758zm45.37511,-18.13755c0.15,0.1375 0.225,0.2875 0.45,0.4375c6.47502,5.61251 11.87503,12.31253 15.87504,19.66255c-5.38751,2.18751 -11.07503,3.50001 -16.90004,3.93751l0,-24.03756l0.5875,0l-0.0125,0zm49.25012,49.67513l-16.10004,0a79.5877,79.5877 0 0 0 -5.82501,-25.71256c2.98751,-1.675 5.82501,-3.63751 8.52502,-5.82501a54.00014,54.00014 0 0 1 13.40003,31.53758zm-58.12515,0l-25.42506,0a71.00018,71.00018 0 0 1 4.95001,-22.07506a63.55016,63.55016 0 0 0 20.47505,4.75001l0,17.32504zm0,8.31252l0,16.75004a64.91266,64.91266 0 0 0 -20.76255,4.80001a72.22518,72.22518 0 0 1 -4.66251,-21.55005l25.42506,0zm8.30002,0l25.35006,0a72.21268,72.21268 0 0 1 -4.66251,21.62505a65.02516,65.02516 0 0 0 -20.68755,-4.87501l0,-16.76254l0,0.0125zm0,-8.31252l0,-17.32504a64.52516,64.52516 0 0 0 20.40005,-4.66251c2.76251,7.00002 4.43751,14.42504 4.95001,22.00006l-25.35006,0l0,-0.0125zm24.40006,-33.28758a79.2502,79.2502 0 0 0 -8.66252,-12.82503c5.38751,2.12501 10.33753,5.10001 14.71254,8.75002c-1.9625,1.525 -4.00001,2.91251 -6.05002,4.07501zm-32.70008,-16.46254l0,24.03756a55.53764,55.53764 0 0 1 -16.90004,-3.93751a70.40018,70.40018 0 0 1 15.80004,-19.58755l0.5125,-0.5125c0.15,0.075 0.375,0.075 0.5875,0zm-24.40006,16.46254c-2.12501,-1.25 -4.08751,-2.62501 -6.05002,-4.07501a54.00014,54.00014 0 0 1 14.63754,-8.67502a75.20019,75.20019 0 0 0 -8.58752,12.75003zm-0.375,74.52519c2.48751,4.72501 5.47501,9.25002 8.88752,13.40003a55.21264,55.21264 0 0 1 -15.15004,-9.11252c2.03751,-1.6 4.15001,-2.98751 6.26252,-4.28751zm33.07508,17.11254l0,-24.83756a55.87514,55.87514 0 0 1 17.26254,4.07501a71.72518,71.72518 0 0 1 -16.25004,20.40005c-0.125,0.15 -0.2125,0.2125 -0.35,0.3625a1,1 0 0 0 -0.6625,0zm24.70006,-17.05004c2.11251,1.3125 4.22501,2.70001 6.18752,4.30001a53.55013,53.55013 0 0 1 -15.07504,9.03752c3.42501,-4.08751 6.41252,-8.60002 8.87502,-13.33753l0.0125,0zm3.56251,-7.65002a79.0002,79.0002 0 0 0 5.53751,-25.33756l16.10004,0a54.32514,54.32514 0 0 1 -13.03753,31.38758a67.91267,67.91267 0 0 0 -8.60002,-6.05002z" stroke-width="5" stroke-miterlimit="10" stroke-dasharray=""></path></g></svg>