<svg data-v-9833e8b2="" version="1.1" xmlns="http://www.w3.org/2000/svg" xmlns:xlink="http://www.w3.org/1999/xlink" width="25" height="25"><g data-v-9833e8b2=""><path data-v-9833e8b2="" transform="scale(0.12437810945273632)" fill="none" stroke="currentColor" paint-order="fill stroke markers" d="m189.47702,1l-177.41367,0a11.10336,11.10336 0 0 0 -11.06335,11.10336l0,177.43368a11.10336,11.10336 0 0 0 11.08335,11.08335l177.39367,0a11.10336,11.10336 0 0 0 11.08335,-11.08335l0,-177.43368a11.12336,11.12336 0 0 0 -11.08335,-11.10336zm-173.25241,14.64443l112.51404,0l0,41.59258l-112.47403,0l-0.04001,-41.59258zm112.81413,157.0275l-113.09421,0l0,-44.23338l113.09421,0l0,44.23338zm0.3201,-56.87721l-113.09421,0l0,-42.59288l113.13422,0l-0.04001,42.59288zm35.6908,-94.16849a14.98453,14.98453 0 1 1 -14.98453,14.98453a14.96453,14.96453 0 0 1 14.98453,-14.98453zm1.0003,56.57712a14.96453,14.96453 0 1 1 -15.00454,14.96453a14.96453,14.96453 0 0 1 14.98453,-14.96453l0.02001,0zm1.0003,88.14667a15.12458,15.12458 0 1 1 15.14458,-15.10457a15.12458,15.12458 0 0 1 -15.14458,15.10457z" stroke-width="5" stroke-miterlimit="10" stroke-dasharray=""></path><path data-v-9833e8b2="" transform="scale(0.12437810945273632)" fill="none" stroke="currentColor" paint-order="fill stroke markers" d="m29.60865,34.57015a8.46256,8.46256 0 1 0 2.48075,-6.00182a8.46256,8.46256 0 0 0 -2.48075,6.00182zm23.26704,0.3201a8.48257,8.48257 0 1 0 4.24128,-7.34222a8.46256,8.46256 0 0 0 -4.24128,7.34222zm26.62806,-7.06213l30.60926,0l0,13.96422l-30.60926,0l0,-13.96422zm-49.67503,65.93995a8.48257,8.48257 0 0 0 16.94513,0a8.46256,8.46256 0 0 0 -8.48257,-8.48257a8.46256,8.46256 0 0 0 -8.46256,8.48257zm23.18702,0.3201a8.48257,8.48257 0 1 0 4.24128,-7.32221a8.46256,8.46256 0 0 0 -4.24128,7.32221zm26.70808,-7.02212l30.60926,0l0,13.96422l-30.60926,0l0,-13.96422zm-50.71534,64.59954a8.48257,8.48257 0 0 0 16.94513,0a8.48257,8.48257 0 0 0 -14.48438,-6.00182a8.38254,8.38254 0 0 0 -2.46074,6.00182zm23.18702,0.3201a8.52258,8.52258 0 1 0 4.28129,-7.34222a8.48257,8.48257 0 0 0 -4.28129,7.34222zm26.62806,-7.04213l30.60926,0l0,13.96422l-30.60926,0l0,-13.96422z" stroke-width="5" stroke-miterlimit="10" stroke-dasharray=""></path></g></svg>