<svg data-v-9833e8b2="" version="1.1" xmlns="http://www.w3.org/2000/svg" xmlns:xlink="http://www.w3.org/1999/xlink" width="25" height="22.5"><g data-v-9833e8b2=""><path data-v-9833e8b2="" transform="scale(0.13440860215053763)" fill="none" stroke="currentColor" paint-order="fill stroke markers" d="m25.91357,156.98305l129.61212,0l0,8.89503l-129.61212,0l0,-8.89503z" stroke-width="5" stroke-miterlimit="10" stroke-dasharray=""></path><path data-v-9833e8b2="" transform="scale(0.13440860215053763)" fill="none" stroke="currentColor" paint-order="fill stroke markers" d="m61.89055,138.80042l56.20216,0l0,18.18342l-56.20216,0l0,-18.18342z" stroke-width="5" stroke-miterlimit="10" stroke-dasharray=""></path><path data-v-9833e8b2="" transform="scale(0.13440860215053763)" fill="none" stroke="currentColor" paint-order="fill stroke markers" d="m6.21034,2.44l167.88725,0l0,121.14461l-167.88725,0l0,-121.14461z" stroke-width="5" stroke-miterlimit="10" stroke-dasharray=""></path><path data-v-9833e8b2="" transform="scale(0.13440860215053763)" fill="none" stroke="currentColor" paint-order="fill stroke markers" d="m1,1l184.99028,0l0,131.59417l-184.99028,0l0,-131.59417z" stroke-width="5" stroke-miterlimit="10" stroke-dasharray=""></path><path data-v-9833e8b2="" transform="scale(0.13440860215053763)" fill="none" stroke="currentColor" paint-order="fill stroke markers" d="m25.77581,158.39476l129.61212,0l0,8.89503l-129.61212,0l0,-8.89503z" stroke-width="5" stroke-miterlimit="10" stroke-dasharray=""></path><path data-v-9833e8b2="" transform="scale(0.13440860215053763)" fill="none" stroke="currentColor" paint-order="fill stroke markers" d="m61.75084,140.21076l56.20216,0l0,18.18342l-56.20216,0l0,-18.18342z" stroke-width="5" stroke-miterlimit="10" stroke-dasharray=""></path><path data-v-9833e8b2="" transform="scale(0.13440860215053763)" fill="none" stroke="currentColor" paint-order="fill stroke markers" d="m92.46226,71.72392c-10.28078,-24.07103 -18.66108,-42.24645 -2.1479,-43.68723c26.51513,-0.65834 2.82985,32.19005 2.1479,43.68723z" stroke-width="5" stroke-miterlimit="10" stroke-dasharray=""></path><path data-v-9833e8b2="" transform="scale(0.13440860215053763)" fill="none" stroke="currentColor" paint-order="fill stroke markers" d="m35.00449,94.62402l30.56118,-32.56469l26.67922,27.67883l16.5961,-16.59532l26.96118,26.94771l10.31083,-44.23533l-111.10851,38.76879z" stroke-width="5" stroke-miterlimit="10" stroke-dasharray=""></path></g></svg>