<svg data-v-9833e8b2="" version="1.1" xmlns="http://www.w3.org/2000/svg" xmlns:xlink="http://www.w3.org/1999/xlink" width="17" height="25"><g data-v-9833e8b2=""><path data-v-9833e8b2="" transform="scale(0.12755102040816327)" fill="none" stroke="currentColor" paint-order="fill stroke markers" d="m104.69026,195.00049l-93.69024,0a10.00003,10.00003 0 0 1 -10.00003,-10.00003l0,-174.00044a10.00003,10.00003 0 0 1 10.00003,-10.00003l93.73024,0a10.00003,10.00003 0 0 1 10.00003,10.00003l0,174.00044a10.00003,10.00003 0 0 1 -10.00003,10.00003l-0.04,0zm-46.89012,-10.00003a6.69002,6.69002 0 1 0 -6.68002,-6.69002a6.67002,6.67002 0 0 0 6.68002,6.69002zm46.89012,-164.00041l-93.69024,0l0,140.53035l93.68024,0l0,-140.58035l0.01,0.05z" stroke-width="5" stroke-miterlimit="10" stroke-dasharray=""></path></g></svg>