<svg data-v-9833e8b2="" version="1.1" xmlns="http://www.w3.org/2000/svg" xmlns:xlink="http://www.w3.org/1999/xlink" width="25" height="17.5"><g data-v-9833e8b2=""><path data-v-9833e8b2="" transform="scale(0.15060240963855423)" fill="none" stroke="currentColor" paint-order="fill stroke markers" d="m150.34315,42.9089l-31.4616,11.52776l0,-2.00137c0,-10.6469 -8.62639,-19.27329 -19.27388,-19.27329l-35.60439,0l0,-2.76192c0,-3.26251 -2.66231,-5.92404 -5.94416,-5.92404l-9.30588,0l0,-8.12541l27.71941,0c1.64024,1.80098 3.98263,2.9418 6.62326,2.9418l33.02254,0c4.9838,0 9.02737,-4.02228 9.02737,-9.00569l0,-0.28027c0,-4.96368 -4.04356,-9.00647 -9.02737,-9.00647l-33.02235,0c-2.64083,0 -4.98302,1.16035 -6.62326,2.94239l-40.40811,0c-2.842,0 -5.14474,2.30118 -5.14474,5.14337l0,15.39027l-1.30059,0c-3.28223,0 -5.94279,2.66153 -5.94279,5.92404l0,2.76192l-3.38282,0c-10.64788,0 -19.2938,8.62639 -19.2938,19.27329l0,44.89152c0,10.66663 8.64612,19.29302 19.2938,19.29302l79.31387,0c9.84788,0 17.95356,-7.4049 19.11372,-16.93149l31.62156,11.56761c7.3258,2.68184 15.09027,-2.74141 15.09027,-10.5471l0,-47.25227c0,-7.80549 -7.76447,-13.22913 -15.09008,-10.54768zm-87.34006,61.76305l-42.70929,0c-2.542,0 -4.60392,-2.06133 -4.60392,-4.60333c0,-2.542 2.06211,-4.60314 4.60392,-4.60314l42.70929,0c2.54161,0 4.60236,2.06133 4.60236,4.60314c0,2.542 -2.06075,4.60333 -4.60236,4.60333zm6.94455,-50.35481c0,1.78125 -1.44043,3.22208 -3.24239,3.22208l-4.74259,0c-1.78184,0 -3.22266,-1.44082 -3.22266,-3.22208l0,-4.74337c0,-1.78125 1.44082,-3.24259 3.22266,-3.24259l4.74279,0c1.80196,0 3.24239,1.46133 3.24239,3.24259l0,4.74337l-0.0002,0zm13.74886,0.0998c0,1.78106 -1.44102,3.22266 -3.22149,3.22266l-4.74396,0c-1.78067,0 -3.24122,-1.4418 -3.24122,-3.22266l0,-4.74357c0,-1.78125 1.46055,-3.24181 3.24122,-3.24181l4.74396,0c1.78047,0 3.22149,1.46055 3.22149,3.24181l0,4.74357zm13.76957,0c0,1.78106 -1.46075,3.22266 -3.24259,3.22266l-4.74259,0c-1.78067,0 -3.22286,-1.4418 -3.22286,-3.22266l0,-4.74357c0,-1.78125 1.44219,-3.24181 3.22286,-3.24181l4.74259,0c1.78184,0 3.24259,1.46055 3.24259,3.24181l0,4.74357z" stroke-width="5" stroke-miterlimit="10" stroke-dasharray=""></path></g></svg>