<svg data-v-9833e8b2="" version="1.1" xmlns="http://www.w3.org/2000/svg" xmlns:xlink="http://www.w3.org/1999/xlink" width="25" height="25"><g data-v-9833e8b2=""><path data-v-9833e8b2="" transform="scale(0.12376237623762376)" fill="none" stroke="currentColor" paint-order="fill stroke markers" d="m101.00025,63.50016c58.75015,0 100.00025,-16.25004 100.00025,-32.50008c0,-13.75003 -41.2501,-30.00008 -100.00025,-30.00008s-100.00025,16.25004 -100.00025,32.50008c0,15.00004 41.2501,30.00008 100.00025,30.00008z" stroke-width="5" stroke-miterlimit="10" stroke-dasharray=""></path><path data-v-9833e8b2="" transform="scale(0.12376237623762376)" fill="none" stroke="currentColor" paint-order="fill stroke markers" d="m101.00025,83.50021c-41.2501,0 -82.50021,-7.50002 -100.00025,-23.75006l0,17.50004c0,16.25004 41.2501,32.50008 100.00025,32.50008s100.00025,-17.50004 100.00025,-32.50008l0,-17.50004c-17.50004,16.25004 -58.75015,23.75006 -100.00025,23.75006z" stroke-width="5" stroke-miterlimit="10" stroke-dasharray=""></path><path data-v-9833e8b2="" transform="scale(0.12376237623762376)" fill="none" stroke="currentColor" paint-order="fill stroke markers" d="m101.00025,129.75032c-41.2501,0 -82.50021,-7.50002 -100.00025,-23.75006l0,17.50004c0,16.25004 41.2501,32.50008 100.00025,32.50008s100.00025,-17.50004 100.00025,-32.50008l0,-17.50004c-17.50004,16.25004 -58.75015,23.75006 -100.00025,23.75006z" stroke-width="5" stroke-miterlimit="10" stroke-dasharray=""></path><path data-v-9833e8b2="" transform="scale(0.12376237623762376)" fill="none" stroke="currentColor" paint-order="fill stroke markers" d="m101.00025,174.75044c-41.2501,0 -82.50021,-7.50002 -100.00025,-23.75006l0,18.75005c0,13.75003 41.2501,31.25008 100.00025,31.25008s100.00025,-17.50004 100.00025,-32.50008l0,-18.75005c-17.50004,16.25004 -58.75015,25.00006 -100.00025,25.00006z" stroke-width="5" stroke-miterlimit="10" stroke-dasharray=""></path></g></svg>