<svg data-v-9833e8b2="" version="1.1" xmlns="http://www.w3.org/2000/svg" xmlns:xlink="http://www.w3.org/1999/xlink" width="25" height="20"><g data-v-9833e8b2=""><path data-v-9833e8b2="" transform="scale(0.15151515151515152)" fill="none" stroke="currentColor" paint-order="fill stroke markers" d="m110.9228,79.11472c0,15.43363 -12.55667,27.9903 -27.9903,27.9903s-27.9903,-12.55667 -27.9903,-27.9903s12.55667,-27.9903 27.9903,-27.9903s27.9903,12.55667 27.9903,27.9903zm53.88295,46.46105c-0.00391,8.28908 -4.66603,12.94535 -13.04495,12.95511c-22.97857,0.02539 -45.95715,0.00977 -68.93572,0.00977c-22.90045,0 -45.80285,0.00195 -68.7033,-0.00195c-5.16212,0 -9.57229,-1.53125 -11.81058,-6.59181c-0.79102,-1.78907 -1.2461,-3.88282 -1.25,-5.83986c-0.07617,-30.66414 -0.07031,-61.32828 -0.04102,-91.99242c0.00781,-7.62307 4.7129,-12.28323 12.39066,-12.33597c8.15041,-0.05664 16.30473,-0.14063 24.45319,0.03906c4.04884,0.08984 6.79299,-1.4961 8.75002,-4.92579c1.69141,-2.9629 3.51759,-5.84962 5.334,-8.74026c2.99415,-4.76173 7.16213,-7.21486 12.96097,-7.15041c12.57425,0.14258 25.15241,0.09961 37.72861,0.01758c5.69923,-0.03711 9.94924,1.97266 12.77347,7.17971c1.98633,3.66212 4.5879,6.99025 6.91408,10.46878c1.58594,2.3711 3.9004,3.11915 6.63478,3.10548c7.52932,-0.0332 15.0723,0.24805 22.58795,-0.07813c8.87307,-0.38281 13.34769,6.37502 13.31839,13.28519c-0.12891,30.19734 -0.04883,60.39664 -0.06055,90.59593zm-123.20148,-84.0217c0,-2.15821 -1.74805,-3.90626 -3.90626,-3.90626l-12.18167,0c-2.15821,0 -3.90626,1.74805 -3.90626,3.90626s1.74805,3.90626 3.90626,3.90626l12.18167,0c2.15821,0 3.90626,-1.75 3.90626,-3.90626zm77.13105,37.56064c0,-19.74224 -16.06059,-35.80282 -35.80282,-35.80282s-35.80282,16.06059 -35.80282,35.80282s16.06059,35.80282 35.80282,35.80282s35.80282,-16.06059 35.80282,-35.80282z" stroke-width="5" stroke-miterlimit="10" stroke-dasharray=""></path></g></svg>