<svg data-v-9833e8b2="" version="1.1" xmlns="http://www.w3.org/2000/svg" xmlns:xlink="http://www.w3.org/1999/xlink" width="25" height="22.5"><g data-v-9833e8b2=""><path data-v-9833e8b2="" transform="scale(0.06544502617801047)" fill="none" stroke="currentColor" paint-order="fill stroke markers" d="m37.85593,1l233.99998,0l0,225.00001l-233.99998,0l0,-225.00001z" stroke-width="5" stroke-miterlimit="10" stroke-dasharray=""></path><path data-v-9833e8b2="" transform="scale(0.06544502617801047)" fill="none" stroke="currentColor" paint-order="fill stroke markers" d="m50.85593,67c0,-21.54696 17.90055,-39 40,-39c22.09945,0 40,17.45304 40,39c0,21.54696 -17.90055,39 -40,39c-22.09945,0 -40,-17.45304 -40,-39z" stroke-width="5" stroke-miterlimit="10" stroke-dasharray=""></path><path data-v-9833e8b2="" transform="scale(0.06544502617801047)" fill="none" stroke="currentColor" paint-order="fill stroke markers" d="m177.85593,65c0,-25.96685 12.53039,-47 28,-47c15.46961,0 28,21.03315 28,47c0,25.96685 -12.53039,47 -28,47c-15.46961,0 -28,-21.03315 -28,-47z" stroke-width="5" stroke-miterlimit="10" stroke-dasharray=""></path><path data-v-9833e8b2="" transform="scale(0.06544502617801047)" fill="none" stroke="currentColor" paint-order="fill stroke markers" d="m212.06113,176l-44.3647,17.06277l-71.78359,-6.5174l0,-21.09075l71.78359,-6.5174l44.3647,17.06277z" stroke-width="5" stroke-miterlimit="10" stroke-dasharray=""></path><path data-v-9833e8b2="" transform="scale(0.06544502617801047)" fill="none" stroke="currentColor" paint-order="fill stroke markers" d="m41.85593,222c-2.05467,1.48801 -2.70782,1.84055 -3.396,2.28265c-0.73429,0.47171 -1.78956,1.35355 -2.12133,1.68802c-0.68209,0.68762 -1.00029,1.07388 -1.6925,1.83832c-0.35784,0.39517 -1.52974,1.59506 -1.96217,1.99234c-0.44318,0.40717 -1.38911,1.22116 -1.88533,1.63467c-0.50743,0.42285 -1.03183,0.8479 -2.10934,1.73065c-1.12121,0.91855 -1.69541,1.39453 -2.28,1.88c-0.59542,0.49448 -1.20039,0.99954 -1.815,1.51501c-0.6254,0.52454 -1.90648,1.60324 -2.5595,2.16031c-0.66301,0.56558 -1.33189,1.14328 -1.9935,1.746c-0.66949,0.60992 -1.33274,1.24213 -1.9755,1.90802c-0.64944,0.67282 -1.89,2.11377 -2.46684,2.8895c-0.58623,0.78836 -1.14209,1.62482 -1.671,2.5065c-0.54427,0.90729 -1.06293,1.86987 -1.563,2.88449c-0.51913,1.05328 -1.51919,3.33942 -2.0085,4.57233c-0.50709,1.27771 -0.99718,2.60614 -1.4685,3.9765c-0.47989,1.39529 -0.93512,2.81934 -1.3605,4.2645c-0.42669,1.44962 -1.18328,4.36084 -1.50717,5.80917c-0.32138,1.4371 -0.60463,2.87601 -0.867,4.31702c-0.26298,1.44434 -0.50371,2.90094 -0.741,4.371c-0.24007,1.48727 -0.72137,4.53326 -0.97734,6.09564c-0.25868,1.57895 -0.52349,3.15918 -0.783,4.72803c-0.25515,1.54254 -0.50235,3.04474 -0.729,4.49399c-0.21584,1.38013 -0.57751,3.88074 -0.70184,4.97968c-0.11343,1.00262 -0.19252,1.92874 -0.2145,2.793c-0.02079,0.81741 0.00721,1.60709 0.0915,2.379c0.08495,0.77786 0.41075,2.40057 0.645,3.27148c0.24895,0.92554 0.5568,1.89291 0.9315,2.89349c0.39359,1.05103 0.8575,2.13293 1.3995,3.2355c0.56536,1.15012 1.92794,3.51013 2.73383,4.70602c0.83625,1.24094 1.76783,2.48404 2.796,3.71848c1.06407,1.27753 2.22997,2.54474 3.498,3.7905c1.3103,1.28726 4.23611,3.80478 5.84733,5.02585c1.65531,1.25449 3.40339,2.46301 5.22,3.633c1.84012,1.18512 3.73609,2.31738 5.67,3.39902c1.93295,1.08112 5.84113,3.07587 7.79583,3.98233c1.93225,0.89606 3.87373,1.72855 5.82751,2.496c1.94813,0.76526 3.92012,1.47052 5.9175,2.11798c2.00945,0.6514 6.13794,1.81241 8.2615,2.32883c2.14855,0.52249 4.33052,0.99353 6.537,1.41452c2.21565,0.42276 4.44538,0.79266 6.681,1.10849c2.22854,0.31482 6.6615,0.79483 8.85333,0.95551c2.17101,0.15915 4.3282,0.25992 6.471,0.29999c2.13007,0.03983 4.25134,0.02011 6.36301,-0.06c2.10718,-0.07996 6.31116,-0.40015 8.40733,-0.63983c2.09068,-0.23904 4.16022,-0.53461 6.19499,-0.8895c2.00204,-0.34918 3.95242,-0.75058 5.83501,-1.2135c1.8242,-0.44858 5.21642,-1.4801 6.75533,-2.0755c1.46376,-0.56631 2.82574,-1.18808 4.071,-1.875c1.18739,-0.655 2.27481,-1.3689 3.24301,-2.14499c0.93047,-0.74585 2.50114,-2.39139 3.12982,-3.28018c0.61827,-0.87408 1.13283,-1.81033 1.55251,-2.78549c0.42265,-0.98209 0.7518,-2.01892 1.0125,-3.09149c0.26668,-1.09723 0.62503,-3.4227 0.74217,-4.64468c0.12076,-1.25955 0.19023,-2.564 0.20399,-3.91049c0.01421,-1.39011 -0.03079,-2.82666 -0.138,-4.30649c-0.11082,-1.52979 -0.5163,-4.73251 -0.80783,-6.40201c-0.29874,-1.71078 -0.6581,-3.43759 -1.0515,-5.16751c-0.39232,-1.72516 -0.81532,-3.42188 -1.2495,-5.07748c-0.42075,-1.6044 -1.25577,-4.58331 -1.64835,-5.93384c-0.36627,-1.26007 -0.71761,-2.43408 -1.03949,-3.534c-0.30167,-1.03082 -0.58209,-2.0007 -0.8235,-2.922c-0.22888,-0.8735 -0.59204,-2.52411 -0.71617,-3.3165c-0.12093,-0.77185 -0.20398,-1.53244 -0.267,-2.28152c-0.06224,-0.73996 -0.10234,-1.47592 -0.14099,-2.2095c-0.0387,-0.73444 -0.11882,-2.21878 -0.17784,-2.97299c-0.05962,-0.76184 -0.13258,-1.52734 -0.21449,-2.29349c-0.08177,-0.76483 -0.17249,-1.52429 -0.26851,-2.27551c-0.09468,-0.74078 -0.29404,-2.1767 -0.39549,-2.86649c-0.09859,-0.67023 -0.19841,-1.32025 -0.3,-1.95001c-0.09845,-0.61023 -0.19824,-1.20029 -0.3,-1.76999c-0.09831,-0.55032 -0.29745,-1.59052 -0.40016,-2.08002c-0.09872,-0.47052 -0.19995,-0.92108 -0.3105,-1.34998c-0.10597,-0.4111 -0.21896,-0.80215 -0.3465,-1.17001c-0.1221,-0.35217 -0.40251,-0.99384 -0.56435,-1.28067c-0.15715,-0.27853 -0.33273,-0.5394 -0.5145,-0.79199c-0.18192,-0.25281 -0.37561,-0.50061 -0.5685,-0.75601c-0.19781,-0.26193 -0.59995,-0.8252 -0.79517,-1.13748c-0.20232,-0.32364 -0.39609,-0.66452 -0.57899,-1.01852c-0.18449,-0.35706 -0.35518,-0.72153 -0.507,-1.09048c-0.14946,-0.36319 -0.38751,-1.07986 -0.47166,-1.42651c-0.08096,-0.33353 -0.13847,-0.65982 -0.192,-0.97498c-0.05177,-0.30484 -0.09642,-0.60098 -0.15601,-0.88501c-0.05791,-0.27603 -0.2197,-0.79889 -0.33749,-1.0405c-0.11832,-0.24268 -0.26469,-0.47449 -0.4185,-0.70651c-0.15717,-0.23706 -0.32681,-0.47412 -0.49049,-0.72449c-0.16843,-0.25763 -0.48901,-0.8201 -0.62651,-1.13333c-0.14288,-0.3255 -0.26665,-0.67365 -0.375,-1.03952c-0.11191,-0.37784 -0.20595,-0.77347 -0.285,-1.1835c-0.08112,-0.42068 -0.19835,-1.30014 -0.24066,-1.75531c-0.04309,-0.46353 -0.07465,-0.93591 -0.117,-1.41452c-0.04294,-0.48508 -0.09282,-0.97595 -0.17099,-1.46848c-0.07909,-0.49829 -0.32254,-1.49905 -0.49701,-1.99567c-0.17743,-0.50504 -0.39221,-1.0051 -0.612,-1.51053c-0.2222,-0.51096 -0.45435,-1.02271 -0.666,-1.54648c-0.2124,-0.52563 -0.57138,-1.60638 -0.6935,-2.16367c-0.12193,-0.5564 -0.20151,-1.11743 -0.2565,-1.67252c-0.05385,-0.5434 -0.08025,-1.07321 -0.0945,-1.58249c-0.01355,-0.48407 -0.01294,-1.35751 -0.01367,-1.73782c-0.00066,-0.34235 -0.00166,-0.64874 -0.0105,-0.92102c-0.0078,-0.24042 -0.01962,-0.45142 -0.04649,-0.633c-0.02325,-0.15714 -0.10233,-0.40372 -0.16417,-0.4895c-0.05649,-0.07834 -0.1292,-0.13638 -0.20399,-0.18149c-0.07274,-0.04388 -0.14992,-0.0748 -0.222,-0.1095c-0.06926,-0.03336 -0.19093,-0.11478 -0.23117,-0.17334c-0.04156,-0.06046 -0.06772,-0.13486 -0.08549,-0.21451c-0.01877,-0.08411 -0.02534,-0.17465 -0.03151,-0.26849l-0.00316,-0.09683" stroke-width="5" stroke-miterlimit="10" stroke-dasharray=""></path><path data-v-9833e8b2="" transform="scale(0.06544502617801047)" fill="none" stroke="currentColor" paint-order="fill stroke markers" d="m263.85592,242c-2.60449,0.00449 -3.47141,-0.01135 -4.42117,0.22217c-0.80978,0.1991 -1.6684,0.63049 -2.24548,1.44449c-0.44537,0.6282 -0.66644,1.51633 -0.77084,2c-0.2316,1.073 -0.29572,1.67825 -0.39584,3c-0.05457,0.72021 -0.08499,1.48862 -0.05099,2.30701c0.0365,0.87823 0.1459,1.82404 0.36301,2.82901c0.23645,1.09454 0.5376,2.2962 1.68799,4.86398c0.65994,1.47302 1.52435,2.99646 2.4855,4.59601c1.01517,1.68942 2.14539,3.41422 3.35852,5.172c1.24686,1.80664 2.54343,3.63394 5.32266,7.23199c1.39227,1.80249 2.82388,3.5625 4.26749,5.29202c1.4299,1.7131 2.87009,3.38193 4.3125,5.004c1.41614,1.5925 2.81018,3.14471 5.58667,6.03732c1.32584,1.38129 2.64178,2.69882 3.96451,3.948c1.30032,1.22806 2.62357,2.40485 3.99149,3.51599c1.37201,1.11447 2.77567,2.22934 5.87735,4.20267c1.61508,1.02756 3.33755,1.97861 5.12399,2.89651c1.81897,0.93463 3.69989,1.81271 5.62799,2.6355c1.94144,0.82849 3.90219,1.64001 7.91467,2.96799c1.98993,0.6586 3.99966,1.22546 6.02249,1.716c2.02423,0.49088 4.07657,0.89966 6.1575,1.21201c2.1012,0.31537 4.24231,0.60477 8.65335,0.73868c2.271,0.06894 4.57758,-0.00565 6.89398,-0.147c2.31598,-0.14136 4.60944,-0.36795 6.858,-0.66901c2.19766,-0.29425 4.33215,-0.59283 8.24802,-1.51733c1.79666,-0.42416 3.46326,-0.92929 5.00549,-1.4895c1.46182,-0.53101 2.82257,-1.12585 4.07849,-1.7865c1.21121,-0.63715 2.37656,-1.29956 4.41602,-2.89066c1.00659,-0.78531 1.93326,-1.6535 2.80649,-2.54852c0.8588,-0.88025 1.64886,-1.7916 2.36551,-2.71948c0.69403,-0.89856 1.35645,-1.77808 2.328,-3.56534c0.44617,-0.82077 0.79108,-1.64392 1.06198,-2.45551c0.26477,-0.79327 0.4563,-1.60373 0.59402,-2.4285c0.14072,-0.84256 0.23947,-1.72256 0.34399,-3.616c0.05679,-1.02856 0.08557,-2.11334 0.078,-3.2475c-0.00787,-1.17935 -0.05688,-2.40015 -0.17401,-3.6525c-0.12033,-1.28638 -0.24719,-2.61377 -0.90399,-5.26666c-0.33847,-1.36707 -0.81107,-2.72733 -1.3335,-4.095c-0.53201,-1.39276 -1.13602,-2.78436 -1.77451,-4.185c-0.64706,-1.41949 -1.33615,-2.83932 -2.72534,-5.72c-0.70123,-1.45413 -1.40057,-2.91769 -2.11349,-4.3815c-0.71506,-1.4682 -1.44025,-2.93552 -2.19449,-4.3905c-0.75479,-1.45605 -1.50418,-2.91788 -3.19202,-5.728c-0.84265,-1.40292 -1.74243,-2.76575 -2.66699,-4.10101c-0.91824,-1.32611 -1.86496,-2.61475 -2.82901,-3.867c-0.95081,-1.23505 -1.90036,-2.44025 -3.83734,-4.69867c-0.93463,-1.08975 -1.87592,-2.13025 -2.814,-3.13348c-0.92075,-0.98471 -1.84662,-1.93509 -2.77798,-2.85449c-0.92139,-0.90955 -1.84387,-1.80432 -3.74133,-3.51202c-0.94803,-0.85321 -1.91693,-1.68686 -2.90399,-2.505c-0.99164,-0.82193 -2.00629,-1.62842 -3.048,-2.41498c-1.05093,-0.79355 -2.11853,-1.59018 -4.38135,-3.08002c-1.1546,-0.76019 -2.35083,-1.48843 -3.57599,-2.19598c-1.23624,-0.71396 -2.50104,-1.39966 -3.79199,-2.052c-1.29645,-0.65512 -2.60321,-1.30423 -5.29868,-2.41867c-1.34613,-0.55655 -2.71371,-1.05453 -4.09052,-1.51501c-1.37402,-0.45953 -2.75974,-0.87451 -4.1535,-1.245c-1.39005,-0.36951 -2.78235,-0.72321 -5.58932,-1.23999c-1.3952,-0.25687 -2.79062,-0.45346 -4.173,-0.62399c-1.36172,-0.168 -2.70135,-0.30026 -4.01099,-0.40802c-1.27243,-0.10471 -2.50336,-0.19122 -4.81601,-0.30133c-1.07071,-0.05099 -2.08789,-0.08435 -3.05701,-0.1095c-0.92694,-0.02405 -1.81796,-0.03821 -2.67899,-0.04648c-0.83698,-0.00803 -1.65601,-0.01001 -3.26401,-0.01068c-0.79984,-0.00034 -1.59866,0 -2.39551,0c-0.79382,0 -1.58365,0 -2.3685,0c-0.77881,0 -1.55066,-0.00015 -3.06934,0c-0.74481,0.00009 -1.47864,-0.00024 -2.2005,0.00449c-0.70883,0.00464 -1.40375,0.01312 -2.0835,0.03152c-0.66391,0.01797 -1.31186,0.03268 -2.54932,0.13065c-0.59067,0.04675 -1.16043,0.11404 -1.70999,0.186c-0.53046,0.06946 -1.0401,0.14682 -1.53003,0.22202c-0.47006,0.07214 -0.91867,0.15121 -1.75998,0.25867c-0.38962,0.04974 -0.76114,0.08429 -1.1145,0.1095c-0.336,0.02396 -0.65628,0.03815 -0.96152,0.04648c-0.29114,0.00793 -0.56931,0.00964 -1.09067,0.01068c-0.24533,0.00049 -0.48276,-0.00043 -0.71399,0.009c-0.22748,0.00928 -0.45349,0.02701 -0.67801,0.06299c-0.22833,0.03659 -0.46564,0.07922 -0.94131,0.26135c-0.25876,0.09909 -0.51813,0.23199 -0.78149,0.3765c-0.26877,0.14746 -0.53265,0.30844 -0.7905,0.47549c-0.25317,0.164 -0.49603,0.32651 -0.92801,0.64801c-0.19202,0.14291 -0.3642,0.27939 -0.5145,0.414c-0.13889,0.12436 -0.26123,0.24872 -0.36151,0.37799c-0.09598,0.12372 -0.18643,0.25192 -0.29068,0.54132c-0.05463,0.15167 -0.08487,0.31717 -0.1185,0.48602c-0.03436,0.17249 -0.065,0.3483 -0.1095,0.52197c-0.04453,0.17374 -0.08188,0.35626 -0.272,0.65869c-0.09671,0.15384 -0.23111,0.28522 -0.37198,0.40948c-0.14191,0.12521 -0.29468,0.23633 -0.444,0.3465l-0.14536,0.10617l-0.13733,0.10318" stroke-width="5" stroke-miterlimit="10" stroke-dasharray=""></path></g></svg>