<svg data-v-9833e8b2="" version="1.1" xmlns="http://www.w3.org/2000/svg" xmlns:xlink="http://www.w3.org/1999/xlink" width="24.5" height="25"><g data-v-9833e8b2=""><path data-v-9833e8b2="" transform="scale(0.15432098765432098)" fill="none" stroke="currentColor" paint-order="fill stroke markers" d="m151.41459,129.00032c1,2.00001 1,4.00001 1,6.00002l0,3.00001c0,2.00001 0,5.00001 -1,7.00002c0,2.00001 -1,4.00001 -2.00001,5.00001c-1,1 -2.00001,2.00001 -5.00001,2.00001c0,2.00001 -27.00007,9.00002 -64.00016,9.00002c-34.00009,0 -63.00016,-5.00001 -68.00017,-6.00002c-5.00001,-1 -7.00002,-2.00001 -8.00002,-3.00001c-1,-1 -2.00001,-3.00001 -3.00001,-8.00002c-1,-4.00001 0,-5.00001 1,-12.00003c1,-4.00001 2.00001,-7.00002 5.00001,-9.00002c3.00001,-2.00001 6.00002,-4.00001 9.00002,-5.00001c4.00001,-1 20.00005,-7.00002 24.00006,-8.00002c4.00001,-1 7.00002,-2.00001 10.00003,-4.00001c2.00001,-1 4.00001,-3.00001 5.00001,-4.00001c1,-1 2.00001,-2.00001 2.00001,-3.00001c0,-1 1,-3.00001 1,-4.00001l0,-4.00001c0,-3.00001 -1,-5.00001 -3.00001,-6.00002c-1,-1 -3.00001,-3.00001 -5.00001,-4.00001c-1,-2.00001 -1,-3.00001 -2.00001,-4.00001c-1,-1 -1,-3.00001 -2.00001,-4.00001c0,-2.00001 -1,-3.00001 -1,-5.00001c-1,0 -2.00001,-1 -2.00001,-1c-1,-1 -2.00001,-1 -3.00001,-2.00001c-1,-1 -1,-3.00001 -2.00001,-4.00001l0,-5.00001c0,-1 0,-3.00001 1,-4.00001c0,-1 1,-2.00001 2.00001,-3.00001c0,-4.00001 0,-8.00002 1,-12.00003c0,-3.00001 1,-7.00002 2.00001,-11.00003c1,-4.00001 3.00001,-7.00002 5.00001,-10.00003c2.00001,-3.00001 4.00001,-5.00001 7.00002,-7.00002c3.00001,-2.00001 5.00001,-3.00001 8.00002,-4.00001c3.00001,-1 5.00001,-2.00001 8.00002,-2.00001c1,-2.00001 4.00001,-2.00001 7.00002,-2.00001c3.00001,0 6.00002,0 9.00002,1c3.00001,1 6.00002,2.00001 8.00002,3.00001c2.00001,1 5.00001,2.00001 7.00002,4.00001c2.00001,1 4.00001,3.00001 5.00001,4.00001c3.00001,3.00001 5.00001,7.00002 6.00002,11.00003l3.00001,12.00003c-1,4.00001 0,8.00002 0,13.00003c1,0 1,1 2.00001,2.00001c0,1 1,2.00001 1,3.00001l0,4.00001c0,2.00001 -1,4.00001 -2.00001,5.00001c-1,1 -1,2.00001 -2.00001,3.00001c-1,1 -2.00001,1 -3.00001,2.00001c0,2.00001 -1,3.00001 -1,5.00001c-1,1 -1,3.00001 -2.00001,4.00001c-1,1 -1,2.00001 -2.00001,3.00001c-1,1 -2.00001,2.00001 -3.00001,2.00001c-1,1 -2.00001,1 -2.00001,2.00001l-2.00001,2.00001c0,1 -1,2.00001 -1,3.00001l0,5.00001c0,2.00001 1,3.00001 1,5.00001c1,2.00001 2.00001,3.00001 4.00001,5.00001s4.00001,3.00001 7.00002,4.00001l9.00002,3.00001c3.00001,1 16.00004,6.00002 19.00005,7.00002c3.00001,1 6.00002,3.00001 8.00002,4.00001c1,2.00001 2.00001,4.00001 3.00001,7.00002z" stroke-width="5" stroke-miterlimit="10" stroke-dasharray=""></path></g></svg>