<svg data-v-9833e8b2="" version="1.1" xmlns="http://www.w3.org/2000/svg" xmlns:xlink="http://www.w3.org/1999/xlink" width="25" height="25"><g data-v-9833e8b2=""><path data-v-9833e8b2="" transform="scale(0.13227513227513227)" fill="none" stroke="currentColor" paint-order="fill stroke markers" d="m166.2181,23.11358c-25.29815,-25.25737 -62.07416,-29.52352 -82.11455,-9.45971c-16.91727,16.89581 -16.47942,45.7124 -0.71981,69.45835c-0.39083,0.31707 -0.77951,0.56098 -1.13385,0.90205l-77.51533,77.45484c-5.51298,5.53405 -4.85424,15.1643 1.52585,21.50283c6.35415,6.36371 15.99025,7.04625 21.50361,1.53639l0.89054,-0.90263s21.16215,5.60781 22.30869,4.63239c1.15902,-0.97463 -3.12195,-23.4041 -3.12195,-23.4041l5.58556,-5.99766s21.07747,5.82634 22.51649,4.53424c1.43941,-1.24371 -4.68351,-21.94147 -4.68351,-21.94147l9.09971,-9.50829s19.72215,7.92351 20.56449,6.48488c0.84156,-1.38907 -0.14595,-26.86654 -0.14595,-26.86654l4.5122,-4.51044c0.32995,-0.36566 0.59805,-0.75512 0.87805,-1.14537c23.79747,15.74927 52.5965,16.21308 69.53757,-0.70732c20.05269,-20.04059 15.7963,-56.7805 -9.48781,-82.06245zm-12.47922,60.09679c-9.78225,9.77581 -28.34693,7.04527 -41.48391,-6.07122c-13.13659,-13.14069 -15.87942,-31.69327 -6.09795,-41.46967c9.76976,-9.7762 28.34576,-7.04586 41.47123,6.09464c13.16078,13.14108 15.89288,31.66927 6.11064,41.44625z" stroke-width="5" stroke-miterlimit="10" stroke-dasharray=""></path></g></svg>