<svg data-v-9833e8b2="" version="1.1" xmlns="http://www.w3.org/2000/svg" xmlns:xlink="http://www.w3.org/1999/xlink" width="25" height="20"><g data-v-9833e8b2=""><path data-v-9833e8b2="" transform="scale(0.14204545454545456)" fill="none" stroke="currentColor" paint-order="fill stroke markers" d="m175.00822,139.49644l-11.81644,-41.6212l0,-90.62523c0,-3.45704 -2.79298,-6.25002 -6.25002,-6.25002l-137.50035,0c-3.45704,0 -6.25002,2.79298 -6.25002,6.25002l0,90.62523l-11.81644,41.6212c-1.46485,4.08204 1.54297,8.37893 5.87892,8.37893l161.87541,0c4.33595,0 7.34377,-4.29689 5.87892,-8.37893zm-147.75428,-124.43391l121.87531,0l0,77.14863l-121.87531,0l0,-77.14863zm44.58996,118.7503l1.58204,-7.22658l29.35554,0l1.58204,7.22658l-32.51961,0zm43.75011,0l-3.73048,-16.93364c-0.15625,-0.72266 -0.80078,-1.23047 -1.52344,-1.23047l-44.45324,0c-0.74219,0 -1.36719,0.50781 -1.52344,1.23047l-3.73048,16.93364l-43.02745,0l8.26174,-29.10164l124.64875,0l8.26174,29.10164l-43.1837,0z" stroke-width="5" stroke-miterlimit="10" stroke-dasharray=""></path></g></svg>