<svg data-v-9833e8b2="" version="1.1" xmlns="http://www.w3.org/2000/svg" xmlns:xlink="http://www.w3.org/1999/xlink" width="25" height="25"><g data-v-9833e8b2=""><path data-v-9833e8b2="" transform="scale(0.17006802721088435)" fill="none" stroke="currentColor" paint-order="fill stroke markers" d="m80.20812,112.13664c12.7273,-0.90909 26.3637,0 39.09101,0c3.63637,0 8.18184,-0.90909 10.00003,2.72728c2.72728,3.63637 -0.90909,8.18184 -5.45456,8.18184l-42.72738,0c-4.54546,-0.90909 -5.45456,-9.09093 -0.90909,-10.90912zm-32.72736,0c3.63637,-0.90909 8.18184,2.72728 6.36365,7.27274c-0.90909,3.63637 -6.36365,4.54547 -9.09093,1.81819c-2.72728,-2.72728 -0.90909,-8.18184 2.72728,-9.09093zm-18.18186,0c3.63637,-0.90909 8.18184,2.72728 6.36365,7.27274c-0.90909,3.63637 -6.36365,4.54547 -9.09093,1.81819c-2.72728,-2.72728 -0.90909,-8.18184 2.72728,-9.09093zm50.90922,-41.81829c12.7273,-0.90909 26.3637,0 39.09101,0c3.63637,0 8.18184,-0.90909 10.00003,2.72728c2.72728,3.63637 -0.90909,8.18184 -5.45456,8.18184l-42.72738,0c-4.54546,-1.81819 -5.45456,-10.00003 -0.90909,-10.90912zm-32.72736,-0.90909c3.63637,-1.81819 8.18184,2.72728 6.36365,6.36365c-0.90909,3.63637 -6.36365,4.54547 -9.09093,1.81819c-2.72728,-1.81819 -0.90909,-6.36365 2.72728,-8.18184zm-18.18186,0c3.63637,-1.81819 8.18184,2.72728 6.36365,6.36365c-0.90909,3.63637 -6.36365,4.54547 -9.09093,1.81819c-2.72728,-1.81819 -0.90909,-6.36365 2.72728,-8.18184zm50.90922,-43.63647c12.7273,-0.90909 26.3637,0 39.09101,0c3.63637,0 8.18184,-0.90909 10.00003,2.72728c1.81819,2.72728 0,7.27274 -3.63637,7.27274l-39.09101,0c-2.72728,0 -5.45456,0 -7.27275,-1.81819c-3.63637,-1.81819 -1.81819,-7.27274 0.90909,-8.18184zm-32.72736,0c3.63637,-1.81819 8.18184,2.72728 6.36365,6.36365c-0.90909,3.63637 -6.36365,4.54547 -9.09093,1.81819c-2.72728,-1.81819 -0.90909,-7.27274 2.72728,-8.18184zm-18.18186,0c3.63637,-1.81819 8.18184,2.72728 6.36365,6.36365c-0.90909,3.63637 -6.36365,4.54547 -9.09093,1.81819c-2.72728,-1.81819 -0.90909,-7.27274 2.72728,-8.18184zm-19.09096,76.36383l0,34.54554l127.27305,0l0,-34.54554l-127.27305,0zm0,-45.45466l0,34.54554l127.27305,0l0,-34.54554l-127.27305,0zm0,-46.36375l0,35.45463l127.27305,0l0,-35.45463l-127.27305,0zm-6.36365,-8.18184c1.81819,-1.81819 4.54547,-0.90909 7.27274,-0.90909l126.36395,0c1.81819,0 4.54547,0 6.36365,0.90909c2.72728,2.72728 2.72728,7.27274 2.72728,10.00003l0,126.36395c0.90909,4.54546 -3.63637,9.09093 -8.18184,8.18184l-129.09124,0c-4.54546,0.90909 -9.09093,-3.63637 -8.18184,-8.18184l0,-129.09124c0,-2.72728 0.90909,-5.45456 2.72728,-7.27274z" stroke-width="5" stroke-miterlimit="10" stroke-dasharray=""></path></g></svg>