<svg data-v-9833e8b2="" version="1.1" xmlns="http://www.w3.org/2000/svg" xmlns:xlink="http://www.w3.org/1999/xlink" width="25" height="15"><g data-v-9833e8b2=""><path data-v-9833e8b2="" transform="scale(0.12376237623762376)" fill="none" stroke="currentColor" paint-order="fill stroke markers" d="m11.00003,61.00017l185.00047,0l0,45.00011l-185.00047,0l0,-45.00011z" stroke-width="5" stroke-miterlimit="10" stroke-dasharray=""></path><path data-v-9833e8b2="" transform="scale(0.12376237623762376)" fill="none" stroke="currentColor" paint-order="fill stroke markers" d="m16.00004,66.00018l165.00042,0l0,5.00001l-165.00042,0l0,-5.00001zm0,30.00008l165.00042,0l0,5.00001l-165.00042,0l0,-5.00001zm155.00039,-10.00003l5.00001,0l0,-5.00001l-5.00001,0l0,5.00001zm-5.00001,-10.00003l15.00004,0l0,15.00004l-15.00004,0l0,-15.00004zm-20.00005,10.00003l5.00001,0l0,-5.00001l-5.00001,0l0,5.00001zm-5.00001,-10.00003l15.00004,0l0,15.00004l-15.00004,0l0,-15.00004zm-20.00005,10.00003l5.00001,0l0,-5.00001l-5.00001,0l0,5.00001zm-5.00001,-10.00003l15.00004,0l0,15.00004l-15.00004,0l0,-15.00004zm-20.00005,10.00003l5.00001,0l0,-5.00001l-5.00001,0l0,5.00001zm-5.00001,-10.00003l15.00004,0l0,15.00004l-15.00004,0l0,-15.00004zm-20.00005,10.00003l5.00001,0l0,-5.00001l-5.00001,0l0,5.00001zm-5.00001,-10.00003l15.00004,0l0,15.00004l-15.00004,0l0,-15.00004zm-20.00005,10.00003l5.00001,0l0,-5.00001l-5.00001,0l0,5.00001zm-5.00001,-10.00003l15.00004,0l0,15.00004l-15.00004,0l0,-15.00004z" stroke-width="5" stroke-miterlimit="10" stroke-dasharray=""></path><path data-v-9833e8b2="" transform="scale(0.12376237623762376)" fill="none" stroke="currentColor" paint-order="fill stroke markers" d="m31.00008,106.00028l13.4167,0l-5.00001,15.00004l-3.41667,0l-5.00001,-15.00004z" stroke-width="5" stroke-miterlimit="10" stroke-dasharray=""></path><path data-v-9833e8b2="" transform="scale(0.12376237623762376)" fill="none" stroke="currentColor" paint-order="fill stroke markers" d="m44.33344,111.00029l0.53333,-1.58334l-2.46667,-3.41667l-1.66667,0l-1.66667,5.00001l5.26668,0zm-18.06671,-5.00001l-1.66667,0l-2.46667,3.41667l0.53333,1.58334l5.26668,0l-1.66667,-5.00001zm3.33334,10.00003l7.80002,0l1.66667,-5.00001l-11.13336,0l1.66667,5.00001zm-8.60002,-10.00003l25.00006,0l-5.00001,15.00004l-15.00004,0l-5.00001,-15.00004z" stroke-width="5" stroke-miterlimit="10" stroke-dasharray=""></path><path data-v-9833e8b2="" transform="scale(0.12376237623762376)" fill="none" stroke="currentColor" paint-order="fill stroke markers" d="m166.00042,106.00028l13.4167,0l-5.00001,15.00004l-3.41667,0l-5.00001,-15.00004z" stroke-width="5" stroke-miterlimit="10" stroke-dasharray=""></path><path data-v-9833e8b2="" transform="scale(0.12376237623762376)" fill="none" stroke="currentColor" paint-order="fill stroke markers" d="m179.33378,111.00029l0.53333,-1.58334l-2.46667,-3.41667l-1.66667,0l-1.66667,5.00001l5.26668,0zm-18.06671,-5.00001l-1.66667,0l-2.46667,3.41667l0.53333,1.58334l5.26668,0l-1.66667,-5.00001zm3.33334,10.00003l7.80002,0l1.66667,-5.00001l-11.13336,0l1.66667,5.00001zm-8.60002,-10.00003l25.00006,0l-5.00001,15.00004l-15.00004,0l-5.00001,-15.00004zm-130.00033,-20.00005l5.00001,0l0,5.00001l-5.00001,0l0,-5.00001zm-10.00003,0l5.00001,0l0,5.00001l-5.00001,0l0,-5.00001zm10.00003,-10.00003l5.00001,0l0,5.00001l-5.00001,0l0,-5.00001zm-10.00003,0l5.00001,0l0,5.00001l-5.00001,0l0,-5.00001z" stroke-width="5" stroke-miterlimit="10" stroke-dasharray=""></path><path data-v-9833e8b2="" transform="scale(0.12376237623762376)" fill="none" stroke="currentColor" paint-order="fill stroke markers" d="m16.00004,56.00015l27.70007,-39.61677l8.61669,-5.00001l3.08334,-4.23334a15.00004,15.00004 0 0 1 12.13336,-6.15002l74.71685,0a15.00004,15.00004 0 0 1 12.08336,6.18335l3.33334,4.56668l9.01669,5.53335l26.90007,38.71676" stroke-width="5" stroke-miterlimit="10" stroke-dasharray=""></path><path data-v-9833e8b2="" transform="scale(0.12376237623762376)" fill="none" stroke="currentColor" paint-order="fill stroke markers" d="m141.71702,1.00001a15.00004,15.00004 0 0 1 12.13336,6.18335l3.33334,4.56668l9.01669,5.53335l26.85007,38.71676l-10.00003,0l-20.65005,-28.1834l-7.53335,-7.66669a21.45005,21.45005 0 0 0 -2.98334,-6.66668c-1.36667,-1.66667 -9.28336,-10.20003 -14.15004,-9.85002q-4.86668,0.33333 3.98334,-2.63334z" stroke-width="5" stroke-miterlimit="10" stroke-dasharray=""></path><path data-v-9833e8b2="" transform="scale(0.12376237623762376)" fill="none" stroke="currentColor" paint-order="fill stroke markers" d="m11.00003,56.00015a5.00001,5.00001 0 0 0 -5.00001,5.00001l0,40.0001a5.00001,5.00001 0 0 0 5.00001,5.00001l180.00045,0a5.00001,5.00001 0 0 0 5.00001,-5.00001l0,-40.0001a5.00001,5.00001 0 0 0 -5.00001,-5.00001l-180.00045,0zm0,-5.00001l180.00045,0a10.00003,10.00003 0 0 1 10.00003,10.00003l0,40.0001a10.00003,10.00003 0 0 1 -10.00003,10.00003l-180.00045,0a10.00003,10.00003 0 0 1 -10.00003,-10.00003l0,-40.0001a10.00003,10.00003 0 0 1 10.00003,-10.00003z" stroke-width="5" stroke-miterlimit="10" stroke-dasharray=""></path><path data-v-9833e8b2="" transform="scale(0.12376237623762376)" fill="none" stroke="currentColor" paint-order="fill stroke markers" d="m33.80008,19.25006l-1.66667,1.46667l0.96667,-0.55l0.7,-0.91667zm136.30034,2.28334l-1.5,-1.41667l0.6,0.86667l0.9,0.55zm-136.93368,-1.38334l8.56669,-5.00001l3.70001,-5.08335a10.00003,10.00003 0 0 1 8.10002,-4.06668l94.7169,0a10.00003,10.00003 0 0 1 8.08335,4.11668l3.90001,5.36668l8.96669,5.50001l24.30006,35.01675l6.08335,0l-26.91674,-38.73343l-9.01669,-5.53335l-3.33334,-4.56668a15.00004,15.00004 0 0 0 -12.0667,-6.16668l-94.7169,0a15.00004,15.00004 0 0 0 -12.13336,6.18335l-3.08334,4.23334l-8.61669,5.00001l-27.70007,39.58343l6.10002,0l25.06673,-35.85009zm136.93368,1.36667l-1.5,-1.41667l0.6,0.86667l0.9,0.55zm-136.30034,-2.26667l-1.66667,1.46667l0.96667,-0.55l0.7,-0.91667zm159.7004,36.75009l6.08335,0l-26.91674,-38.73343l-9.01669,-5.53335l-3.33334,-4.56668a15.00004,15.00004 0 0 0 -12.0667,-6.16668l-94.7169,0a15.00004,15.00004 0 0 0 -12.13336,6.18335l-3.08334,4.23334l-8.61669,5.00001l-27.70007,39.58343l6.10002,0l25.00006,-35.85009l8.56669,-5.00001l3.70001,-5.08335a10.00003,10.00003 0 0 1 8.16669,-4.06668l94.7169,0a10.00003,10.00003 0 0 1 8.08335,4.11668l3.90001,5.36668l8.96669,5.50001l24.30006,35.01675z" stroke-width="5" stroke-miterlimit="10" stroke-dasharray=""></path></g></svg>