<svg data-v-9833e8b2="" version="1.1" xmlns="http://www.w3.org/2000/svg" xmlns:xlink="http://www.w3.org/1999/xlink" width="22" height="25"><g data-v-9833e8b2=""><path data-v-9833e8b2="" transform="scale(0.2)" fill="none" stroke="currentColor" paint-order="fill stroke markers" d="m24,41c0,-15.24101 12.34522,-27.58623 27.58623,-27.58623c15.24101,0 27.58623,12.34522 27.58623,27.58623c0,15.24101 -12.34522,27.58623 -27.58623,27.58623c-15.24101,0 -27.58623,-12.34522 -27.58623,-27.58623z" stroke-width="5" stroke-miterlimit="10" stroke-dasharray=""></path><path data-v-9833e8b2="" transform="scale(0.2)" fill="none" stroke="currentColor" paint-order="fill stroke markers" d="m50.58623,18l0,21" stroke-width="5" stroke-miterlimit="10" stroke-dasharray=""></path><path data-v-9833e8b2="" transform="scale(0.2)" fill="none" stroke="currentColor" paint-order="fill stroke markers" d="m50.58623,38l18,14" stroke-width="5" stroke-miterlimit="10" stroke-dasharray=""></path><path data-v-9833e8b2="" transform="scale(0.2)" fill="none" stroke="currentColor" paint-order="fill stroke markers" d="m50.58623,38l-15,15" stroke-width="5" stroke-miterlimit="10" stroke-dasharray=""></path><path data-v-9833e8b2="" transform="scale(0.2)" fill="none" stroke="currentColor" paint-order="fill stroke markers" d="m48.00001,84c0,-15.24101 12.34522,-27.58623 27.58623,-27.58623c15.24101,0 27.58623,12.34522 27.58623,27.58623c0,15.24101 -12.34522,27.58623 -27.58623,27.58623c-15.24101,0 -27.58623,-12.34522 -27.58623,-27.58623z" stroke-width="5" stroke-miterlimit="10" stroke-dasharray=""></path><path data-v-9833e8b2="" transform="scale(0.2)" fill="none" stroke="currentColor" paint-order="fill stroke markers" d="m74.58624,61l0,21" stroke-width="5" stroke-miterlimit="10" stroke-dasharray=""></path><path data-v-9833e8b2="" transform="scale(0.2)" fill="none" stroke="currentColor" paint-order="fill stroke markers" d="m74.58624,81l18,14" stroke-width="5" stroke-miterlimit="10" stroke-dasharray=""></path><path data-v-9833e8b2="" transform="scale(0.2)" fill="none" stroke="currentColor" paint-order="fill stroke markers" d="m74.58624,81l-15,15" stroke-width="5" stroke-miterlimit="10" stroke-dasharray=""></path><path data-v-9833e8b2="" transform="scale(0.2)" fill="none" stroke="currentColor" paint-order="fill stroke markers" d="m1,84c0,-15.24101 12.34522,-27.58623 27.58623,-27.58623c15.24101,0 27.58623,12.34522 27.58623,27.58623c0,15.24101 -12.34522,27.58623 -27.58623,27.58623c-15.24101,0 -27.58623,-12.34522 -27.58623,-27.58623z" stroke-width="5" stroke-miterlimit="10" stroke-dasharray=""></path><path data-v-9833e8b2="" transform="scale(0.2)" fill="none" stroke="currentColor" paint-order="fill stroke markers" d="m27.58623,61l0,21" stroke-width="5" stroke-miterlimit="10" stroke-dasharray=""></path><path data-v-9833e8b2="" transform="scale(0.2)" fill="none" stroke="currentColor" paint-order="fill stroke markers" d="m27.58623,81l18,14" stroke-width="5" stroke-miterlimit="10" stroke-dasharray=""></path><path data-v-9833e8b2="" transform="scale(0.2)" fill="none" stroke="currentColor" paint-order="fill stroke markers" d="m27.58623,81l-15,15" stroke-width="5" stroke-miterlimit="10" stroke-dasharray=""></path><path data-v-9833e8b2="" transform="scale(0.2)" fill="none" stroke="currentColor" paint-order="fill stroke markers" d="m50.58623,13l0,-12" stroke-width="5" stroke-miterlimit="10" stroke-dasharray=""></path><path data-v-9833e8b2="" transform="scale(0.2)" fill="none" stroke="currentColor" paint-order="fill stroke markers" d="m77.58623,123l0,-12" stroke-width="5" stroke-miterlimit="10" stroke-dasharray=""></path><path data-v-9833e8b2="" transform="scale(0.2)" fill="none" stroke="currentColor" paint-order="fill stroke markers" d="m29.58623,124l0,-12" stroke-width="5" stroke-miterlimit="10" stroke-dasharray=""></path></g></svg>