<svg data-v-9833e8b2="" version="1.1" xmlns="http://www.w3.org/2000/svg" xmlns:xlink="http://www.w3.org/1999/xlink" width="25" height="12.5"><g data-v-9833e8b2=""><path data-v-9833e8b2="" transform="scale(0.1736111111111111)" fill="none" stroke="currentColor" paint-order="fill stroke markers" d="m1,31.33333c0,-11.33607 10.52476,-20.51828 23.51828,-20.51828c12.99353,0 23.51829,9.18221 23.51829,20.51828c0,11.33607 -10.52476,20.51829 -23.51829,20.51829c-12.99352,0 -23.51828,-9.18222 -23.51828,-20.51829z" stroke-width="5" stroke-miterlimit="10" stroke-dasharray=""></path><path data-v-9833e8b2="" transform="scale(0.1736111111111111)" fill="none" stroke="currentColor" paint-order="fill stroke markers" d="m96,35.33333c0,-11.33607 10.52476,-20.51828 23.51828,-20.51828c12.99353,0 23.51829,9.18221 23.51829,20.51828c0,11.33607 -10.52476,20.51829 -23.51829,20.51829c-12.99352,0 -23.51828,-9.18222 -23.51828,-20.51829z" stroke-width="5" stroke-miterlimit="10" stroke-dasharray=""></path><path data-v-9833e8b2="" transform="scale(0.1736111111111111)" fill="none" stroke="currentColor" paint-order="fill stroke markers" d="m47,33.33333c0,-11.33607 10.52476,-20.51828 23.51828,-20.51828c12.99353,0 23.51828,9.18222 23.51828,20.51828c0,11.33607 -10.52476,20.51828 -23.51828,20.51828c-12.99353,0 -23.51828,-9.18222 -23.51828,-20.51828z" stroke-width="5" stroke-miterlimit="10" stroke-dasharray=""></path><path data-v-9833e8b2="" transform="scale(0.1736111111111111)" fill="none" stroke="currentColor" paint-order="fill stroke markers" d="m23.51829,1l0,61" stroke-width="5" stroke-miterlimit="10" stroke-dasharray=""></path><path data-v-9833e8b2="" transform="scale(0.1736111111111111)" fill="none" stroke="currentColor" paint-order="fill stroke markers" d="m120.01828,3l0,62.99999" stroke-width="5" stroke-miterlimit="10" stroke-dasharray=""></path></g></svg>