<svg data-v-9833e8b2="" version="1.1" xmlns="http://www.w3.org/2000/svg" xmlns:xlink="http://www.w3.org/1999/xlink" width="24.5" height="25"><g data-v-9833e8b2=""><path data-v-9833e8b2="" transform="scale(0.176056338028169)" fill="none" stroke="currentColor" paint-order="fill stroke markers" d="m112.31,24l-17.56,0c-4.96,0 -9,4.04 -9,9l0,97.75c0,0.55 -0.45,1 -1,1l-44.56,0c-0.55,0 -1,-0.45 -1,-1l0,-13.31l21.19,0c4.96,0 9,-4.04 9,-9l0,-75.44c0,-4.96 -4.04,-9 -9,-9l-6.75,0l0,-19c0,-2.21 -1.79,-4 -4,-4s-4,1.79 -4,4l0,19l-20.88,0l0,-19c0,-2.21 -1.79,-4 -4,-4s-4,1.79 -4,4l0,19l-6.75,0c-4.96,0 -9,4.04 -9,9l0,75.44c0,4.96 4.04,9 9,9l21.19,0l0,13.31c0,4.96 4.04,9 9,9l44.56,0c4.96,0 9,-4.04 9,-9l0,-97.75c0,-0.55 0.45,-1 1,-1l17.56,0c0.55,0 1,0.45 1,1l0,104c0,2.21 1.79,4 4,4s4,-1.79 4,-4l0,-104c0,-4.96 -4.03,-9 -9,-9zm-102.31,8l50.38,0c0.55,0 1,0.45 1,1l0,75.44c0,0.55 -0.45,1 -1,1l-9.38,0l0,-58.44c0,-4.96 -4.04,-9 -9,-9l-33,0l0,-9c0,-0.55 0.45,-1 1,-1zm-1,76.44l0,-58.44l33,0c0.55,0 1,0.45 1,1l0,58.44l-33,0c-0.55,0 -1,-0.45 -1,-1z" stroke-width="5" stroke-miterlimit="10" stroke-dasharray=""></path></g></svg>