<svg data-v-9833e8b2="" version="1.1" xmlns="http://www.w3.org/2000/svg" xmlns:xlink="http://www.w3.org/1999/xlink" width="22" height="25"><g data-v-9833e8b2=""><path data-v-9833e8b2="" transform="scale(0.21367521367521367)" fill="none" stroke="currentColor" paint-order="fill stroke markers" d="m27.58623,13l0,-12" stroke-width="5" stroke-miterlimit="10" stroke-dasharray=""></path><path data-v-9833e8b2="" transform="scale(0.21367521367521367)" fill="none" stroke="currentColor" paint-order="fill stroke markers" d="m27.58623,38l-15,15" stroke-width="5" stroke-miterlimit="10" stroke-dasharray=""></path><path data-v-9833e8b2="" transform="scale(0.21367521367521367)" fill="none" stroke="currentColor" paint-order="fill stroke markers" d="m27.58623,38l18,14" stroke-width="5" stroke-miterlimit="10" stroke-dasharray=""></path><path data-v-9833e8b2="" transform="scale(0.21367521367521367)" fill="none" stroke="currentColor" paint-order="fill stroke markers" d="m27.58623,18l0,21" stroke-width="5" stroke-miterlimit="10" stroke-dasharray=""></path><path data-v-9833e8b2="" transform="scale(0.21367521367521367)" fill="none" stroke="currentColor" paint-order="fill stroke markers" d="m1,41c0,-15.24101 12.34522,-27.58623 27.58623,-27.58623c15.24101,0 27.58623,12.34522 27.58623,27.58623c0,15.24101 -12.34522,27.58623 -27.58623,27.58623c-15.24101,0 -27.58623,-12.34522 -27.58623,-27.58623z" stroke-width="5" stroke-miterlimit="10" stroke-dasharray=""></path><path data-v-9833e8b2="" transform="scale(0.21367521367521367)" fill="none" stroke="currentColor" paint-order="fill stroke markers" d="m72.55753,64.91888l-15.4016,-14.58735" stroke-width="5" stroke-miterlimit="10" stroke-dasharray=""></path><path data-v-9833e8b2="" transform="scale(0.21367521367521367)" fill="none" stroke="currentColor" paint-order="fill stroke markers" d="m72.55852,64.91917l-13.50629,18.37335" stroke-width="5" stroke-miterlimit="10" stroke-dasharray=""></path><path data-v-9833e8b2="" transform="scale(0.21367521367521367)" fill="none" stroke="currentColor" paint-order="fill stroke markers" d="m92.55004,64.3765l-20.99226,0.56998" stroke-width="5" stroke-miterlimit="10" stroke-dasharray=""></path><path data-v-9833e8b2="" transform="scale(0.21367521367521367)" fill="none" stroke="currentColor" paint-order="fill stroke markers" d="m68.83727,38.42417c15.2354,-0.41367 27.91114,11.59193 28.32481,26.82733c0.41367,15.2354 -11.59193,27.91114 -26.82733,28.32481c-15.2354,0.41367 -27.91114,-11.59193 -28.32481,-26.82733c-0.41367,-15.2354 11.59193,-27.91114 26.82733,-28.32481z" stroke-width="5" stroke-miterlimit="10" stroke-dasharray=""></path><path data-v-9833e8b2="" transform="scale(0.21367521367521367)" fill="none" stroke="currentColor" paint-order="fill stroke markers" d="m57.16881,89.41934c-0.23168,15.23925 -12.76314,27.39538 -28.00239,27.1637c-15.23925,-0.23168 -27.39538,-12.76314 -27.1637,-28.00239c0.23168,-15.23925 12.76314,-27.39538 28.00239,-27.1637c15.23925,0.23168 27.39538,12.76314 27.1637,28.00239z" stroke-width="5" stroke-miterlimit="10" stroke-dasharray=""></path><path data-v-9833e8b2="" transform="scale(0.21367521367521367)" fill="none" stroke="currentColor" paint-order="fill stroke markers" d="m30.23628,112.01304l0.31923,-20.99757" stroke-width="5" stroke-miterlimit="10" stroke-dasharray=""></path><path data-v-9833e8b2="" transform="scale(0.21367521367521367)" fill="none" stroke="currentColor" paint-order="fill stroke markers" d="m30.54058,92.01515l-17.7851,-14.27201" stroke-width="5" stroke-miterlimit="10" stroke-dasharray=""></path><path data-v-9833e8b2="" transform="scale(0.21367521367521367)" fill="none" stroke="currentColor" paint-order="fill stroke markers" d="m30.54122,92.01541l15.22629,-14.77025" stroke-width="5" stroke-miterlimit="10" stroke-dasharray=""></path></g></svg>