<svg data-v-9833e8b2="" version="1.1" xmlns="http://www.w3.org/2000/svg" xmlns:xlink="http://www.w3.org/1999/xlink" width="19.5" height="25"><g data-v-9833e8b2=""><path data-v-9833e8b2="" transform="scale(0.16233766233766234)" fill="none" stroke="currentColor" paint-order="fill stroke markers" d="m21.99999,42c0,-15.24101 12.34522,-27.58623 27.58623,-27.58623c15.24101,0 27.58623,12.34522 27.58623,27.58623c0,15.24101 -12.34522,27.58623 -27.58623,27.58623c-15.24101,0 -27.58623,-12.34522 -27.58623,-27.58623z" stroke-width="5" stroke-miterlimit="10" stroke-dasharray=""></path><path data-v-9833e8b2="" transform="scale(0.16233766233766234)" fill="none" stroke="currentColor" paint-order="fill stroke markers" d="m1,85c0,-15.24101 12.34522,-27.58623 27.58623,-27.58623c15.24101,0 27.58623,12.34522 27.58623,27.58623c0,15.24101 -12.34522,27.58623 -27.58623,27.58623c-15.24101,0 -27.58623,-12.34522 -27.58623,-27.58623z" stroke-width="5" stroke-miterlimit="10" stroke-dasharray=""></path><path data-v-9833e8b2="" transform="scale(0.16233766233766234)" fill="none" stroke="currentColor" paint-order="fill stroke markers" d="m48,86c0,-15.24101 12.34522,-27.58623 27.58623,-27.58623c15.24101,0 27.58623,12.34522 27.58623,27.58623c0,15.24101 -12.34522,27.58623 -27.58623,27.58623c-15.24101,0 -27.58623,-12.34522 -27.58623,-27.58623z" stroke-width="5" stroke-miterlimit="10" stroke-dasharray=""></path><path data-v-9833e8b2="" transform="scale(0.16233766233766234)" fill="none" stroke="currentColor" paint-order="fill stroke markers" d="m21.99999,126c0,-15.24101 12.34522,-27.58623 27.58623,-27.58623c15.24101,0 27.58623,12.34522 27.58623,27.58623c0,15.24101 -12.34522,27.58623 -27.58623,27.58623c-15.24101,0 -27.58623,-12.34522 -27.58623,-27.58623z" stroke-width="5" stroke-miterlimit="10" stroke-dasharray=""></path><path data-v-9833e8b2="" transform="scale(0.16233766233766234)" fill="none" stroke="currentColor" paint-order="fill stroke markers" d="m48.58622,1l0,13" stroke-width="5" stroke-miterlimit="10" stroke-dasharray=""></path></g></svg>