<svg data-v-9833e8b2="" version="1.1" xmlns="http://www.w3.org/2000/svg" xmlns:xlink="http://www.w3.org/1999/xlink" width="25" height="25"><g data-v-9833e8b2=""><path data-v-9833e8b2="" transform="scale(0.1984126984126984)" fill="none" stroke="currentColor" paint-order="fill stroke markers" d="m63,97.66l-33.52,-54.74l67.04,0l-33.52,54.74zm-19.24,-46.74l19.24,31.42l19.24,-31.42l-38.48,0z" stroke-width="5" stroke-miterlimit="10" stroke-dasharray=""></path><path data-v-9833e8b2="" transform="scale(0.1984126984126984)" fill="none" stroke="currentColor" paint-order="fill stroke markers" d="m63,125c-34.19,0 -62,-27.81 -62,-62s27.81,-62 62,-62s62,27.81 62,62s-27.81,62 -62,62zm0,-116c-29.78,0 -54,24.22 -54,54s24.22,54 54,54s54,-24.22 54,-54s-24.22,-54 -54,-54z" stroke-width="5" stroke-miterlimit="10" stroke-dasharray=""></path></g></svg>