<svg data-v-9833e8b2="" version="1.1" xmlns="http://www.w3.org/2000/svg" xmlns:xlink="http://www.w3.org/1999/xlink" width="12" height="25"><g data-v-9833e8b2=""><path data-v-9833e8b2="" transform="scale(0.15527950310559005)" fill="none" stroke="currentColor" paint-order="fill stroke markers" d="m40,118.5c0,-10.75 -8.75,-19.5 -19.5,-19.5c-10.75,0 -19.5,8.75 -19.5,19.5c0,9.38 6.66,17.23 15.5,19.08l0,18.42c0,2.21 1.79,4 4,4s4,-1.79 4,-4l0,-18.42c8.84,-1.85 15.5,-9.7 15.5,-19.08zm-19.5,11.5c-6.34,0 -11.5,-5.16 -11.5,-11.5s5.16,-11.5 11.5,-11.5c6.34,0 11.5,5.16 11.5,11.5s-5.16,11.5 -11.5,11.5z" stroke-width="5" stroke-miterlimit="10" stroke-dasharray=""></path><path data-v-9833e8b2="" transform="scale(0.15527950310559005)" fill="none" stroke="currentColor" paint-order="fill stroke markers" d="m60.99,122.04l-34.25,-61.09c7.7,-2.61 13.26,-9.89 13.26,-18.46c0,-9.38 -6.66,-17.23 -15.5,-19.08l0,-18.41c0,-2.21 -1.79,-4 -4,-4s-4,1.79 -4,4l0,18.42c-8.84,1.85 -15.5,9.7 -15.5,19.08c0,9.92 7.46,18.12 17.06,19.33l35.95,64.13c0.73,1.31 2.09,2.04 3.49,2.04c0.66,0 1.33,-0.17 1.95,-0.51c1.93,-1.08 2.62,-3.52 1.54,-5.45zm-51.99,-79.54c0,-6.34 5.16,-11.5 11.5,-11.5c6.34,0 11.5,5.16 11.5,11.5s-5.16,11.5 -11.5,11.5c-6.34,0 -11.5,-5.16 -11.5,-11.5z" stroke-width="5" stroke-miterlimit="10" stroke-dasharray=""></path></g></svg>