<svg data-v-9833e8b2="" version="1.1" xmlns="http://www.w3.org/2000/svg" xmlns:xlink="http://www.w3.org/1999/xlink" width="9.5" height="25"><g data-v-9833e8b2=""><path data-v-9833e8b2="" transform="scale(0.5319148936170213)" fill="none" stroke="currentColor" paint-order="fill stroke markers" d="m10.97246,27.09999l1,0l0,19.8l-1,0l0,-19.8z" stroke-width="5" stroke-miterlimit="10" stroke-dasharray=""></path><path data-v-9833e8b2="" transform="scale(0.5319148936170213)" fill="none" stroke="currentColor" paint-order="fill stroke markers" d="m1,10.73193l0.8584,-0.513l10.1061,16.91048l-0.8584,0.513l-10.1061,-16.91048z" stroke-width="5" stroke-miterlimit="10" stroke-dasharray=""></path><path data-v-9833e8b2="" transform="scale(0.5319148936170213)" fill="none" stroke="currentColor" paint-order="fill stroke markers" d="m10.97246,1l1,0l0,13.6l-1,0l0,-13.6z" stroke-width="5" stroke-miterlimit="10" stroke-dasharray=""></path><path data-v-9833e8b2="" transform="scale(0.5319148936170213)" fill="none" stroke="currentColor" paint-order="fill stroke markers" d="m11.47246,13.2c-3.2,0 -5.8,-2.6 -5.8,-5.8s2.6,-5.8 5.8,-5.8l0,1c-2.6,0 -4.8,2.2 -4.8,4.8s2.2,4.8 4.8,4.8l0,1z" stroke-width="5" stroke-miterlimit="10" stroke-dasharray=""></path></g></svg>