<svg data-v-9833e8b2="" version="1.1" xmlns="http://www.w3.org/2000/svg" xmlns:xlink="http://www.w3.org/1999/xlink" width="12" height="25"><g data-v-9833e8b2=""><path data-v-9833e8b2="" transform="scale(0.15432098765432098)" fill="none" stroke="currentColor" paint-order="fill stroke markers" d="m24.51,23.42l0,-18.42c0,-2.21 -1.79,-4 -4,-4s-4,1.79 -4,4l0,18.42c-8.84,1.85 -15.5,9.7 -15.5,19.08c0,10.75 8.75,19.5 19.5,19.5s19.5,-8.75 19.5,-19.5c0,-9.38 -6.66,-17.23 -15.5,-19.08zm-4,30.58c-6.34,0 -11.5,-5.16 -11.5,-11.5s5.16,-11.5 11.5,-11.5s11.5,5.16 11.5,11.5s-5.16,11.5 -11.5,11.5z" stroke-width="5" stroke-miterlimit="10" stroke-dasharray=""></path><path data-v-9833e8b2="" transform="scale(0.15432098765432098)" fill="none" stroke="currentColor" paint-order="fill stroke markers" d="m58.26,39.35c-1.85,-1.21 -4.33,-0.69 -5.54,1.16l-34.47,52.63c-9.69,1.12 -17.25,9.37 -17.25,19.36c0,9.38 6.66,17.23 15.5,19.08l0,6.42l-15.32,0l19.33,23.33l19.33,-23.33l-15.33,0l0,-6.42c8.84,-1.85 15.5,-9.7 15.5,-19.08c0,-8.42 -5.38,-15.59 -12.87,-18.32l32.28,-49.29c1.21,-1.85 0.69,-4.33 -1.16,-5.54zm-26.25,73.15c0,6.34 -5.16,11.5 -11.5,11.5s-11.5,-5.16 -11.5,-11.5s5.16,-11.5 11.5,-11.5s11.5,5.16 11.5,11.5z" stroke-width="5" stroke-miterlimit="10" stroke-dasharray=""></path></g></svg>