<svg data-v-9833e8b2="" version="1.1" xmlns="http://www.w3.org/2000/svg" xmlns:xlink="http://www.w3.org/1999/xlink" width="12" height="25"><g data-v-9833e8b2=""><path data-v-9833e8b2="" transform="scale(0.16778523489932887)" fill="none" stroke="currentColor" paint-order="fill stroke markers" d="m36.99976,125l0,-52.47l-28.95,-34.12c-1.43,-1.68 -3.95,-1.89 -5.64,-0.46c-1.68,1.43 -1.89,3.95 -0.46,5.64l27.05,31.88l0,49.53l-15.33,0l19.33,23.33l19.33,-23.33l-15.33,0z" stroke-width="5" stroke-miterlimit="10" stroke-dasharray=""></path><path data-v-9833e8b2="" transform="scale(0.16778523489932887)" fill="none" stroke="currentColor" paint-order="fill stroke markers" d="m32.99976,41c-2.21,0 -4,-1.79 -4,-4l0,-32c0,-2.21 1.79,-4 4,-4s4,1.79 4,4l0,32c0,2.21 -1.79,4 -4,4z" stroke-width="5" stroke-miterlimit="10" stroke-dasharray=""></path></g></svg>