<svg data-v-9833e8b2="" version="1.1" xmlns="http://www.w3.org/2000/svg" xmlns:xlink="http://www.w3.org/1999/xlink" width="24.5" height="25"><g data-v-9833e8b2=""><path data-v-9833e8b2="" transform="scale(0.12376237623762376)" fill="none" stroke="currentColor" paint-order="fill stroke markers" d="m79.69316,102.09974l-8.07498,-8.11942a4.00554,4.00554 0 0 1 0.05,-5.71109a4.11943,4.11943 0 0 1 5.77776,0.05l7.96942,8.01387c1.31389,-0.57222 2.76388,-0.88889 4.2861,-0.88889c6.02776,0 10.91942,4.97221 10.91942,11.11108s-4.88888,11.11108 -10.91942,11.11108c-6.03332,0 -10.92219,-4.97221 -10.92219,-11.11108c0,-1.58333 0.325,-3.09166 0.91389,-4.45554l0,-0.00001zm65.75261,79.45535l0,6.48332a12.96108,12.96108 0 0 1 -12.96108,12.96108l-85.18867,0a12.96108,12.96108 0 0 1 -12.96108,-12.96108l0,-6.48332l-8.93331,0a24.39994,24.39994 0 0 1 -24.39994,-24.39994l0,-131.75521a24.39994,24.39994 0 0 1 24.39994,-24.39994l128.97744,0a24.39994,24.39994 0 0 1 24.39994,24.39994l0,131.75521a24.39994,24.39994 0 0 1 -24.39994,24.39994l-8.93331,0l0.00001,0zm-120.04413,-163.88846a7.73331,7.73331 0 0 0 -7.73331,7.73331l0,131.75521a7.73331,7.73331 0 0 0 7.73331,7.73331l128.97744,0a7.73331,7.73331 0 0 0 7.73331,-7.73331l0,-131.75521a7.73331,7.73331 0 0 0 -7.73331,-7.73331l-128.97744,0zm99.17752,123.80524a5.55276,5.55276 0 0 1 -7.79442,-0.98055a5.56387,5.56387 0 0 1 0.98055,-7.80553c12.09163,-9.3972 19.34717,-24.04716 19.34717,-39.96379c0,-27.66937 -21.79717,-50.04432 -48.61099,-50.04432c-26.81382,0 -48.61099,22.37494 -48.61099,50.04432c0,15.92774 7.26665,30.58881 19.37773,39.98878a5.56387,5.56387 0 0 1 0.98611,7.80276a5.55276,5.55276 0 0 1 -7.79442,0.98611c-14.8083,-11.49442 -23.6805,-29.39159 -23.6805,-48.77765c0,-33.74991 26.70549,-61.16651 59.72207,-61.16651s59.72207,27.4166 59.72207,61.16651c0,19.36939 -8.85553,37.25268 -23.64438,48.74987zm1.42222,-48.77765a2.72222,2.72222 0 0 1 -2.69444,2.74999a2.72222,2.72222 0 0 1 -2.69444,-2.74999c0,-18.46384 -14.38885,-33.4138 -32.11103,-33.4138c-17.72218,0 -32.11103,14.94996 -32.11103,33.41102a2.72222,2.72222 0 0 1 -2.69444,2.75277a2.72222,2.72222 0 0 1 -2.69444,-2.74999c0,-21.48606 16.77773,-38.91657 37.4999,-38.91657s37.4999,17.43329 37.4999,38.91657l0.00002,0z" stroke-width="5" stroke-miterlimit="10" stroke-dasharray=""></path></g></svg>