<svg data-v-9833e8b2="" version="1.1" xmlns="http://www.w3.org/2000/svg" xmlns:xlink="http://www.w3.org/1999/xlink" width="14.5" height="25"><g data-v-9833e8b2=""><path data-v-9833e8b2="" transform="scale(0.16666666666666666)" fill="none" stroke="currentColor" paint-order="fill stroke markers" d="m74.67635,4.52c-1.65,-1.47 -4.18,-1.33 -5.65,0.32l-26.52,29.68l0,-29.52c0,-2.21 -1.79,-4 -4,-4s-4,1.79 -4,4l0,29.52l-26.52,-29.69c-1.47,-1.65 -4,-1.79 -5.65,-0.32c-1.65,1.47 -1.79,4 -0.32,5.65l32.49,36.37l0,98.47c0,2.21 1.79,4 4,4s4,-1.79 4,-4l0,-98.47l32.48,-36.36c1.48,-1.65 1.33,-4.18 -0.31,-5.65z" stroke-width="5" stroke-miterlimit="10" stroke-dasharray=""></path></g></svg>