<svg data-v-9833e8b2="" version="1.1" xmlns="http://www.w3.org/2000/svg" xmlns:xlink="http://www.w3.org/1999/xlink" width="7" height="25"><g data-v-9833e8b2=""><path data-v-9833e8b2="" transform="scale(0.07418397626112759)" fill="none" stroke="currentColor" paint-order="fill stroke markers" d="m56,302.19l-28,34" stroke-width="5" stroke-miterlimit="10" stroke-dasharray=""></path><path data-v-9833e8b2="" transform="scale(0.07418397626112759)" fill="none" stroke="currentColor" paint-order="fill stroke markers" d="m3,304.19l26,31" stroke-width="5" stroke-miterlimit="10" stroke-dasharray=""></path><path data-v-9833e8b2="" transform="scale(0.07418397626112759)" fill="none" stroke="currentColor" paint-order="fill stroke markers" d="m1,302.19l57,0" stroke-width="5" stroke-miterlimit="10" stroke-dasharray=""></path><path data-v-9833e8b2="" transform="scale(0.07418397626112759)" fill="none" stroke="currentColor" paint-order="fill stroke markers" d="m44.31999,183.29l-30.38,0l0,-56.71l30.38,0l0,56.71z" stroke-width="5" stroke-miterlimit="10" stroke-dasharray=""></path><path data-v-9833e8b2="" transform="scale(0.07418397626112759)" fill="none" stroke="currentColor" paint-order="fill stroke markers" d="m29.12999,1l0,51.65" stroke-width="5" stroke-miterlimit="10" stroke-dasharray=""></path><path data-v-9833e8b2="" transform="scale(0.07418397626112759)" fill="none" stroke="currentColor" paint-order="fill stroke markers" d="m29.12999,78.98l0,48.21" stroke-width="5" stroke-miterlimit="10" stroke-dasharray=""></path><path data-v-9833e8b2="" transform="scale(0.07418397626112759)" fill="none" stroke="currentColor" paint-order="fill stroke markers" d="m29.12999,182.19l0,45.66" stroke-width="5" stroke-miterlimit="10" stroke-dasharray=""></path><path data-v-9833e8b2="" transform="scale(0.07418397626112759)" fill="none" stroke="currentColor" paint-order="fill stroke markers" d="m3.34999,78.43l25.78,-25.78l25.78,25.78m0,24.3l-25.78,-25.78l-25.78,25.78" stroke-width="5" stroke-miterlimit="10" stroke-dasharray=""></path><path data-v-9833e8b2="" transform="scale(0.07418397626112759)" fill="none" stroke="currentColor" paint-order="fill stroke markers" d="m54.90999,227.85l-25.78,25.78l-25.78,-25.78m0,-24.31l25.78,25.78l25.78,-25.78" stroke-width="5" stroke-miterlimit="10" stroke-dasharray=""></path><path data-v-9833e8b2="" transform="scale(0.07418397626112759)" fill="none" stroke="currentColor" paint-order="fill stroke markers" d="m29.12999,253.16998l0,50.32001" stroke-width="5" stroke-miterlimit="10" stroke-dasharray=""></path></g></svg>