<svg data-v-9833e8b2="" version="1.1" xmlns="http://www.w3.org/2000/svg" xmlns:xlink="http://www.w3.org/1999/xlink" width="24.5" height="25"><g data-v-9833e8b2=""><path data-v-9833e8b2="" transform="scale(0.15432098765432098)" fill="none" stroke="currentColor" paint-order="fill stroke markers" d="m93.57,41.17c-1.1,-1.91 -3.54,-2.58 -5.46,-1.47l-16.48,9.48l-16.48,-9.48c-1.92,-1.1 -4.36,-0.44 -5.46,1.47c-1.1,1.92 -0.44,4.36 1.47,5.46l16.47,9.47l0,18.93c0,2.21 1.79,4 4,4s4,-1.79 4,-4l0,-18.93l16.47,-9.47c1.91,-1.1 2.57,-3.54 1.47,-5.46z" stroke-width="5" stroke-miterlimit="10" stroke-dasharray=""></path><path data-v-9833e8b2="" transform="scale(0.15432098765432098)" fill="none" stroke="currentColor" paint-order="fill stroke markers" d="m59.57,98.17c-1.1,-1.91 -3.55,-2.58 -5.46,-1.47l-16.48,9.48l-16.48,-9.48c-1.92,-1.1 -4.36,-0.44 -5.46,1.47c-1.1,1.92 -0.44,4.36 1.47,5.46l16.47,9.47l0,18.93c0,2.21 1.79,4 4,4s4,-1.79 4,-4l0,-18.93l16.47,-9.47c1.91,-1.1 2.57,-3.54 1.47,-5.46z" stroke-width="5" stroke-miterlimit="10" stroke-dasharray=""></path><path data-v-9833e8b2="" transform="scale(0.15432098765432098)" fill="none" stroke="currentColor" paint-order="fill stroke markers" d="m104.63,74c-0.89,0 -1.77,0.04 -2.64,0.11c3.96,-5.85 6.27,-12.9 6.27,-20.47c0,-18.85 -14.31,-34.41 -32.63,-36.41l0,-12.23c0,-2.21 -1.79,-4 -4,-4s-4,1.79 -4,4l0,12.22c-18.32,2 -32.63,17.56 -32.63,36.41c0,7.61 2.34,14.69 6.33,20.55c-1.22,-0.12 -2.45,-0.19 -3.7,-0.19c-20.2,0 -36.63,16.43 -36.63,36.63c0,18.95 14.47,34.59 32.95,36.45l0,9.93c0,2.21 1.79,4 4,4s4,-1.79 4,-4l0,-10c13.06,-1.54 24.04,-9.98 29.18,-21.56c5.13,11.57 16.1,20 29.14,21.56l0,10c0,2.21 1.79,4 4,4s4,-1.79 4,-4l0,-9.92c18.5,-1.83 33,-17.48 33,-36.45c-0.01,-20.2 -16.44,-36.63 -36.64,-36.63zm-33,-49c15.79,0 28.63,12.84 28.63,28.63c0,15.79 -12.84,28.63 -28.63,28.63c-15.79,0 -28.63,-12.84 -28.63,-28.63c-0.01,-15.79 12.84,-28.63 28.63,-28.63zm2.63,65.16c-1.21,1.79 -2.26,3.69 -3.14,5.68c-0.9,-2.02 -1.96,-3.95 -3.2,-5.76c1.22,0.12 2.45,0.19 3.7,0.19c0.89,-0.01 1.77,-0.05 2.64,-0.11zm-35.37,49.07c-0.31,-0.07 -0.62,-0.13 -0.95,-0.13c-0.35,0 -0.68,0.06 -1,0.14c-15.47,-0.36 -27.95,-13.05 -27.95,-28.61c0,-15.79 12.84,-28.63 28.63,-28.63s28.63,12.84 28.63,28.63c0.01,15.37 -12.16,27.94 -27.36,28.6zm66.37,0.02c-0.32,-0.08 -0.65,-0.14 -1,-0.14c-0.33,0 -0.64,0.05 -0.94,0.12c-15.18,-0.69 -27.32,-13.25 -27.32,-28.6c0,-15.79 12.84,-28.63 28.63,-28.63s28.63,12.84 28.63,28.63c0,15.58 -12.51,28.28 -28,28.62z" stroke-width="5" stroke-miterlimit="10" stroke-dasharray=""></path><path data-v-9833e8b2="" transform="scale(0.15432098765432098)" fill="none" stroke="currentColor" paint-order="fill stroke markers" d="m126.57,98.17c-1.1,-1.91 -3.54,-2.58 -5.46,-1.47l-16.48,9.48l-16.48,-9.48c-1.92,-1.1 -4.36,-0.44 -5.46,1.47c-1.1,1.92 -0.44,4.36 1.47,5.46l16.47,9.47l0,18.93c0,2.21 1.79,4 4,4s4,-1.79 4,-4l0,-18.93l16.47,-9.47c1.91,-1.1 2.57,-3.54 1.47,-5.46z" stroke-width="5" stroke-miterlimit="10" stroke-dasharray=""></path></g></svg>