<svg data-v-9833e8b2="" version="1.1" xmlns="http://www.w3.org/2000/svg" xmlns:xlink="http://www.w3.org/1999/xlink" width="25" height="20"><g data-v-9833e8b2=""><path data-v-9833e8b2="" transform="scale(0.1358695652173913)" fill="none" stroke="currentColor" paint-order="fill stroke markers" d="m109.09,34.73c-1.11,-1.91 -3.56,-2.56 -5.47,-1.46l-12.05,6.99l-12.02,-6.94c-1.91,-1.11 -4.36,-0.45 -5.46,1.46c-1.1,1.91 -0.45,4.36 1.46,5.46l12.02,6.94l-0.02,13.93c0,2.21 1.78,4 3.99,4.01c0,0 0,0 0.01,0c2.21,0 4,-1.79 4,-3.99l0.02,-13.94l12.06,-6.99c1.92,-1.11 2.57,-3.55 1.46,-5.47z" stroke-width="5" stroke-miterlimit="10" stroke-dasharray=""></path><path data-v-9833e8b2="" transform="scale(0.1358695652173913)" fill="none" stroke="currentColor" paint-order="fill stroke markers" d="m61.26,68.51l-13.94,-0.02l-6.99,-12.06c-1.11,-1.91 -3.56,-2.56 -5.47,-1.46c-1.91,1.11 -2.56,3.56 -1.46,5.47l6.99,12.05l-6.94,12.02c-1.1,1.91 -0.45,4.36 1.46,5.46c0.63,0.36 1.32,0.54 2,0.54c1.38,0 2.73,-0.72 3.47,-2l6.94,-12.02l13.93,0.02c0,0 0,0 0.01,0c2.21,0 4,-1.79 4,-3.99c0,-2.21 -1.79,-4 -4,-4.01z" stroke-width="5" stroke-miterlimit="10" stroke-dasharray=""></path><path data-v-9833e8b2="" transform="scale(0.1358695652173913)" fill="none" stroke="currentColor" paint-order="fill stroke markers" d="m107.64,104.74l-12.06,-6.99l-0.02,-13.94c0,-2.21 -1.79,-3.99 -4,-3.99c0,0 0,0 -0.01,0c-2.21,0 -4,1.8 -3.99,4.01l0.02,13.93l-12.02,6.94c-1.91,1.1 -2.57,3.55 -1.46,5.46c0.74,1.28 2.08,2 3.47,2c0.68,0 1.37,-0.17 2,-0.54l12.02,-6.94l12.05,6.99c0.63,0.37 1.32,0.54 2,0.54c1.38,0 2.72,-0.71 3.46,-2c1.1,-1.91 0.45,-4.36 -1.46,-5.47z" stroke-width="5" stroke-miterlimit="10" stroke-dasharray=""></path><path data-v-9833e8b2="" transform="scale(0.1358695652173913)" fill="none" stroke="currentColor" paint-order="fill stroke markers" d="m125.51,81.35l0,6.2l31.23,-11.94l0,-6.23l-31.23,-11.94l0,6.2l6.88,2.5l0,12.7l-6.88,2.51zm24.49,-8.83l-11.96,4.28l0,-8.6l11.96,4.32z" stroke-width="5" stroke-miterlimit="10" stroke-dasharray=""></path><path data-v-9833e8b2="" transform="scale(0.1358695652173913)" fill="none" stroke="currentColor" paint-order="fill stroke markers" d="m76.18,71.9c0.04,0.02 0.08,0.05 0.11,0.07c0.3,0.18 0.62,0.33 0.93,0.5c-0.31,0.17 -0.62,0.33 -0.93,0.5c-0.04,0.02 -0.08,0.05 -0.12,0.07c0.02,-0.38 0.02,-0.76 0.01,-1.14z" stroke-width="5" stroke-miterlimit="10" stroke-dasharray=""></path><path data-v-9833e8b2="" transform="scale(0.1358695652173913)" fill="none" stroke="currentColor" paint-order="fill stroke markers" d="m107.83,73.51c-0.59,-0.37 -1.2,-0.71 -1.82,-1.04c0.62,-0.33 1.23,-0.67 1.83,-1.04c-0.01,0.36 -0.03,0.71 -0.03,1.07c-0.01,0.34 0,0.68 0.02,1.01z" stroke-width="5" stroke-miterlimit="10" stroke-dasharray=""></path><path data-v-9833e8b2="" transform="scale(0.1358695652173913)" fill="none" stroke="currentColor" paint-order="fill stroke markers" d="m179,68.5l-10.27,0c-1.97,-14.99 -14.81,-26.6 -30.33,-26.6c-5.96,0 -11.53,1.72 -16.23,4.68c0.38,-10.95 -5.14,-21.76 -15.27,-27.61c-3.42,-1.97 -7.11,-3.24 -10.9,-3.79l0,-10.18c0,-2.21 -1.79,-4 -4,-4s-4,1.79 -4,4l0,10.08c-1.45,0.17 -2.89,0.45 -4.32,0.83c-7.9,2.12 -14.49,7.18 -18.58,14.26c-2.83,4.9 -4.21,10.35 -4.1,15.86c-0.03,-0.02 -0.06,-0.04 -0.09,-0.06c-7.08,-4.09 -15.33,-5.17 -23.22,-3.06c-7.9,2.12 -14.49,7.18 -18.58,14.26c-2.05,3.55 -3.34,7.39 -3.86,11.33l-10.25,0c-2.21,0 -4,1.79 -4,4s1.79,4 4,4l10.27,0c0.18,1.3 0.43,2.6 0.77,3.89c2.12,7.9 7.18,14.49 14.26,18.58c4.71,2.72 9.95,4.11 15.25,4.11c2.66,0 5.33,-0.35 7.97,-1.06c2.66,-0.71 5.17,-1.77 7.5,-3.12c-0.11,5.39 1.2,10.87 4.08,15.86c4.09,7.08 10.69,12.14 18.58,14.26c1.43,0.38 2.88,0.65 4.32,0.83l0,9.64c0,2.21 1.79,4 4,4s4,-1.79 4,-4l0,-9.74c3.79,-0.55 7.48,-1.81 10.9,-3.79c7.08,-4.09 12.14,-10.68 14.26,-18.58c0.79,-2.96 1.14,-5.97 1.04,-8.95c4.7,2.95 10.26,4.66 16.21,4.66c15.52,0 28.36,-11.61 30.33,-26.6l10.26,0c2.21,0 4,-1.79 4,-4s-1.79,-3.99 -4,-3.99zm-113.83,15.27c-3.02,5.23 -7.89,8.97 -13.72,10.53c-5.83,1.56 -11.92,0.76 -17.15,-2.26s-8.97,-7.89 -10.53,-13.72c-1.56,-5.83 -0.76,-11.92 2.26,-17.15c3.02,-5.23 7.89,-8.97 13.72,-10.53c1.95,-0.52 3.92,-0.78 5.89,-0.78c3.92,0 7.78,1.03 11.26,3.04c10.79,6.23 14.5,20.08 8.27,30.87zm6.85,-49.6c3.02,-5.23 7.89,-8.97 13.72,-10.53c1.95,-0.52 3.92,-0.78 5.89,-0.78c3.92,0 7.78,1.03 11.26,3.04c10.79,6.23 14.5,20.08 8.27,30.87c-3.02,5.23 -7.89,8.97 -13.72,10.53c-5.83,1.56 -11.92,0.76 -17.15,-2.26s-8.97,-7.89 -10.53,-13.72c-1.56,-5.83 -0.75,-11.92 2.26,-17.15zm41.41,71.15c-1.56,5.83 -5.3,10.7 -10.53,13.72s-11.32,3.82 -17.15,2.26c-5.83,-1.56 -10.71,-5.3 -13.72,-10.53c-6.23,-10.79 -2.52,-24.64 8.27,-30.87c3.48,-2.01 7.35,-3.04 11.26,-3.04c1.96,0 3.94,0.26 5.89,0.78c5.83,1.56 10.71,5.3 13.72,10.53c3.02,5.23 3.82,11.32 2.26,17.15zm24.97,-10.22c-12.46,0 -22.6,-10.14 -22.6,-22.6s10.14,-22.6 22.6,-22.6s22.6,10.14 22.6,22.6s-10.14,22.6 -22.6,22.6z" stroke-width="5" stroke-miterlimit="10" stroke-dasharray=""></path></g></svg>