<svg data-v-9833e8b2="" version="1.1" xmlns="http://www.w3.org/2000/svg" xmlns:xlink="http://www.w3.org/1999/xlink" width="7" height="25"><g data-v-9833e8b2=""><path data-v-9833e8b2="" transform="scale(0.21008403361344538)" fill="none" stroke="currentColor" paint-order="fill stroke markers" d="m1.25529,75.6431c0,0 27.96257,3.8852 15.45447,9.22818c-12.5081,5.34298 -15.25062,6.03479 -15.70976,5.17827" stroke-width="5" stroke-miterlimit="10" stroke-dasharray=""></path><path data-v-9833e8b2="" transform="scale(0.21008403361344538)" fill="none" stroke="currentColor" paint-order="fill stroke markers" d="m1.25529,60.6431c0,0 27.96257,3.8852 15.45447,9.22818c-12.5081,5.34298 -15.25062,6.03479 -15.70976,5.17827" stroke-width="5" stroke-miterlimit="10" stroke-dasharray=""></path><path data-v-9833e8b2="" transform="scale(0.21008403361344538)" fill="none" stroke="currentColor" paint-order="fill stroke markers" d="m2.25529,44.6431c0,0 27.96257,3.8852 15.45447,9.22818c-12.5081,5.34298 -15.25062,6.03479 -15.70976,5.17827" stroke-width="5" stroke-miterlimit="10" stroke-dasharray=""></path><path data-v-9833e8b2="" transform="scale(0.21008403361344538)" fill="none" stroke="currentColor" paint-order="fill stroke markers" d="m1.81463,29.53709c0,0 27.96257,3.8852 15.45447,9.22818c-12.5081,5.34298 -15.25062,6.03479 -15.70976,5.17827" stroke-width="5" stroke-miterlimit="10" stroke-dasharray=""></path><path data-v-9833e8b2="" transform="scale(0.21008403361344538)" fill="none" stroke="currentColor" paint-order="fill stroke markers" d="m2.46492,91l0,27" stroke-width="5" stroke-miterlimit="10" stroke-dasharray=""></path><path data-v-9833e8b2="" transform="scale(0.21008403361344538)" fill="none" stroke="currentColor" paint-order="fill stroke markers" d="m3.46492,1l0,28" stroke-width="5" stroke-miterlimit="10" stroke-dasharray=""></path></g></svg>