<svg data-v-9833e8b2="" version="1.1" xmlns="http://www.w3.org/2000/svg" xmlns:xlink="http://www.w3.org/1999/xlink" width="25" height="25"><g data-v-9833e8b2=""><path data-v-9833e8b2="" transform="scale(0.1984126984126984)" fill="none" stroke="currentColor" paint-order="fill stroke markers" d="m63,125c-34.19,0 -62,-27.81 -62,-62s27.81,-62 62,-62s62,27.81 62,62s-27.81,62 -62,62zm0,-116c-29.78,0 -54,24.22 -54,54s24.22,54 54,54s54,-24.22 54,-54s-24.22,-54 -54,-54z" stroke-width="5" stroke-miterlimit="10" stroke-dasharray=""></path><path data-v-9833e8b2="" transform="scale(0.1984126984126984)" fill="none" stroke="currentColor" paint-order="fill stroke markers" d="m102.47,41.46c-1.1,-1.91 -3.54,-2.58 -5.46,-1.47l-34.01,19.55l-34.01,-19.56c-1.92,-1.1 -4.36,-0.44 -5.46,1.47c-1.1,1.92 -0.44,4.36 1.47,5.46l34,19.55l0,39.09c0,2.21 1.79,4 4,4s4,-1.79 4,-4l0,-39.09l33.99,-19.55c1.92,-1.09 2.58,-3.54 1.48,-5.45z" stroke-width="5" stroke-miterlimit="10" stroke-dasharray=""></path></g></svg>