<svg data-v-9833e8b2="" version="1.1" xmlns="http://www.w3.org/2000/svg" xmlns:xlink="http://www.w3.org/1999/xlink" width="25" height="25"><g data-v-9833e8b2=""><path data-v-9833e8b2="" transform="scale(0.1984126984126984)" fill="none" stroke="currentColor" paint-order="fill stroke markers" d="m107.07,106.55c11.08,-11.2 17.93,-26.59 17.93,-43.55s-6.85,-32.35 -17.93,-43.55c-0.08,-0.09 -0.14,-0.2 -0.23,-0.29c-0.09,-0.09 -0.19,-0.15 -0.29,-0.23c-11.2,-11.08 -26.59,-17.93 -43.55,-17.93s-32.35,6.85 -43.55,17.93c-0.09,0.08 -0.2,0.14 -0.29,0.23c-0.09,0.09 -0.15,0.19 -0.23,0.29c-11.08,11.2 -17.93,26.59 -17.93,43.55s6.85,32.35 17.93,43.55c0.08,0.09 0.14,0.2 0.23,0.29c0.09,0.09 0.19,0.15 0.29,0.23c11.2,11.08 26.59,17.93 43.55,17.93s32.35,-6.85 43.55,-17.93c0.09,-0.08 0.2,-0.14 0.29,-0.23c0.09,-0.09 0.15,-0.19 0.23,-0.29zm-3.19,-8.33l-35.22,-35.22l35.22,-35.22c8.16,9.46 13.12,21.77 13.12,35.22s-4.96,25.76 -13.12,35.22zm-5.66,-76.1l-35.22,35.22l-35.22,-35.22c9.46,-8.16 21.77,-13.12 35.22,-13.12s25.76,4.96 35.22,13.12zm-76.1,5.66l35.22,35.22l-35.22,35.22c-8.16,-9.46 -13.12,-21.77 -13.12,-35.22s4.96,-25.76 13.12,-35.22zm5.66,76.1l35.22,-35.22l35.22,35.22c-9.46,8.16 -21.77,13.12 -35.22,13.12s-25.76,-4.96 -35.22,-13.12z" stroke-width="5" stroke-miterlimit="10" stroke-dasharray=""></path></g></svg>