<svg data-v-9833e8b2="" version="1.1" xmlns="http://www.w3.org/2000/svg" xmlns:xlink="http://www.w3.org/1999/xlink" width="25" height="15"><g data-v-9833e8b2=""><path data-v-9833e8b2="" transform="scale(0.1358695652173913)" fill="none" stroke="currentColor" paint-order="fill stroke markers" d="m42.96,81.9l17.97,9.35l-8.99,4.12l-17.98,-9.35l9,-4.12l0,0z" stroke-width="5" stroke-miterlimit="10" stroke-dasharray=""></path><path data-v-9833e8b2="" transform="scale(0.1358695652173913)" fill="none" stroke="currentColor" paint-order="fill stroke markers" d="m84.9,1l98.87,42.43l-83.9,41.04l-98.87,-46.91l83.9,-36.56l0,0z" stroke-width="5" stroke-miterlimit="10" stroke-dasharray=""></path><path data-v-9833e8b2="" transform="scale(0.1358695652173913)" fill="none" stroke="currentColor" paint-order="fill stroke markers" d="m100.26,85.55l0,26.69l-0.14,-0.07l-1.74,-0.83l-97.37,-46.33l0,-26.69l99.11,47.16l0.14,0.07z" stroke-width="5" stroke-miterlimit="10" stroke-dasharray=""></path><path data-v-9833e8b2="" transform="scale(0.1358695652173913)" fill="none" stroke="currentColor" paint-order="fill stroke markers" d="m183.77,44.33l0,26.85l-72.18,35.63l-0.56,0.28l-9.66,4.77l-0.95,0.47l-0.17,-0.08l0,-26.69l5.12,-2.53l2.28,-1.13l76.12,-37.57z" stroke-width="5" stroke-miterlimit="10" stroke-dasharray=""></path><path data-v-9833e8b2="" transform="scale(0.1358695652173913)" fill="none" stroke="currentColor" paint-order="fill stroke markers" d="m54.05,72.54l5.02,2.49l0,8.99l-5.02,-2.49l0,-8.99l0,0z" stroke-width="5" stroke-miterlimit="10" stroke-dasharray=""></path><path data-v-9833e8b2="" transform="scale(0.1358695652173913)" fill="none" stroke="currentColor" paint-order="fill stroke markers" d="m64.1,77.52l5.02,2.49l0,8.99l-5.02,-2.49l0,-8.99l0,0z" stroke-width="5" stroke-miterlimit="10" stroke-dasharray=""></path><path data-v-9833e8b2="" transform="scale(0.1358695652173913)" fill="none" stroke="currentColor" paint-order="fill stroke markers" d="m22.6,57.56l5.02,2.49l0,8.99l-5.02,-2.49l0,-8.99l0,0z" stroke-width="5" stroke-miterlimit="10" stroke-dasharray=""></path><path data-v-9833e8b2="" transform="scale(0.1358695652173913)" fill="none" stroke="currentColor" paint-order="fill stroke markers" d="m12.12,51.57l5.02,2.49l0,8.99l-5.02,-2.49l0,-8.99l0,0z" stroke-width="5" stroke-miterlimit="10" stroke-dasharray=""></path><path data-v-9833e8b2="" transform="scale(0.1358695652173913)" fill="none" stroke="currentColor" paint-order="fill stroke markers" d="m75.02,83.03l5.02,2.49l0,8.99l-5.02,-2.49l0,-8.99l0,0z" stroke-width="5" stroke-miterlimit="10" stroke-dasharray=""></path><path data-v-9833e8b2="" transform="scale(0.1358695652173913)" fill="none" stroke="currentColor" paint-order="fill stroke markers" d="m85.07,88l5.02,2.49l0,8.99l-5.02,-2.49l0,-8.99l0,0z" stroke-width="5" stroke-miterlimit="10" stroke-dasharray=""></path></g></svg>