<svg data-v-9833e8b2="" version="1.1" xmlns="http://www.w3.org/2000/svg" xmlns:xlink="http://www.w3.org/1999/xlink" width="25" height="12.5"><g data-v-9833e8b2=""><path data-v-9833e8b2="" transform="scale(0.12437810945273632)" fill="none" stroke="currentColor" paint-order="fill stroke markers" d="m22.33334,4.55556a17.77779,17.77779 0 0 0 -17.77779,17.77779l0,56.88892a17.77779,17.77779 0 0 0 17.77779,17.77779l156.44453,0a17.77779,17.77779 0 0 0 17.77779,-17.77779l0,-56.88892a17.77779,17.77779 0 0 0 -17.77779,-17.77779l-156.44453,0z" stroke-width="5" stroke-miterlimit="10" stroke-dasharray=""></path><path data-v-9833e8b2="" transform="scale(0.12437810945273632)" fill="none" stroke="currentColor" paint-order="fill stroke markers" d="m22.33334,4.55556a17.77779,17.77779 0 0 0 -17.77779,17.77779l0,56.88892a17.77779,17.77779 0 0 0 17.77779,17.77779l156.44453,0a17.77779,17.77779 0 0 0 17.77779,-17.77779l0,-56.88892a17.77779,17.77779 0 0 0 -17.77779,-17.77779l-156.44453,0zm0,-3.55556l156.44453,0a21.33334,21.33334 0 0 1 21.33335,21.33334l0,56.88892a21.33334,21.33334 0 0 1 -21.33335,21.33334l-156.44453,0a21.33334,21.33334 0 0 1 -21.33334,-21.33334l0,-56.88892a21.33334,21.33334 0 0 1 21.33334,-21.33334z" stroke-width="5" stroke-miterlimit="10" stroke-dasharray=""></path><path data-v-9833e8b2="" transform="scale(0.12437810945273632)" fill="none" stroke="currentColor" paint-order="fill stroke markers" d="m56.35559,27.5389l38.7778,0l0,3.48334l-8.31667,0l0,13.20001l10.90001,0l0,3.43333l-10.90001,0l0,22.05557l-3.63334,0l0,-22.05557l-14.3889,0c-0.44444,5.12778 -1.38889,9.36112 -2.88889,12.74445c-1.88889,4.18334 -5.02223,7.41667 -9.40556,9.70556l-1.93889,-3.08333c4.03334,-2.29445 6.86667,-5.33334 8.46112,-9.11112c1.04444,-2.88889 1.74445,-6.27778 2.13889,-10.25556l-11.49445,0l0,-3.43333l11.70001,0c0,-0.65 0.05556,-1.24445 0.05556,-1.74445l0,-11.44445l-9.07223,0l0,-3.48889l0.00556,-0.00556zm12.7389,3.48334l0,11.45001c0,0.6 -0.05,1.19444 -0.05,1.74445l14.1389,0l0,-13.19445l-14.0889,0zm39.62224,-6.66667l3.53889,0.3c-0.45,3.38333 -0.9,6.51667 -1.34445,9.40556l7.36667,0l0,2.08889c-0.4,8.06667 -1.79445,14.98334 -4.18334,20.86112c2.33889,2.43889 4.27778,4.62778 5.77778,6.61667l-2.38889,2.78889c-1.39445,-1.83889 -3.03889,-3.83334 -4.98334,-5.92223a36.63335,36.63335 0 0 1 -7.41667,9.85556l-2.23889,-2.83333a32.72224,32.72224 0 0 0 7.22223,-9.66667a262.31681,262.31681 0 0 0 -6.42223,-6.31667c1.19444,-4.33334 2.23889,-9.01112 3.13333,-14.0389l-3.98334,0l0,-3.43333l4.58334,0c0.5,-3.13334 0.94445,-6.37223 1.33889,-9.70556zm2.83889,30.06668c1.88889,-4.97778 2.98889,-10.60556 3.33333,-16.92779l-4.52778,0c-0.94444,5.22778 -1.88889,9.55556 -2.88889,12.99445c1.44445,1.34445 2.78889,2.63889 4.08334,3.93334zm33.00002,-5.37778l0,21.20557l-3.43333,0l0,-2.98889l-15.22779,0l0,2.98889l-3.43889,0l0,-21.20557l22.10557,0l-0.00556,0zm-18.66668,14.83334l15.23334,0l0,-11.54445l-15.22779,0l0,11.55556l-0.00556,-0.01111zm-5.37222,-19.31112l-0.55,-3.23889c2.88889,-1.49445 6.47223,-7.06667 10.75556,-16.82223l3.38333,1.14444c-2.98889,6.47223 -5.92223,11.59445 -8.91112,15.42779a169.52787,169.52787 0 0 0 15.92779,-1.73889c-1.38889,-2.73889 -2.78334,-5.27778 -4.22778,-7.56667l3.08333,-1.49445c2.73889,4.38334 5.32778,9.16112 7.72223,14.3889l-3.33889,1.58889c-0.6,-1.34445 -1.14444,-2.63889 -1.74445,-3.88334c-6.61667,0.94444 -13.9889,1.69445 -22.10001,2.19445z" stroke-width="5" stroke-miterlimit="10" stroke-dasharray=""></path></g></svg>