<svg data-v-9833e8b2="" version="1.1" xmlns="http://www.w3.org/2000/svg" xmlns:xlink="http://www.w3.org/1999/xlink" width="25" height="22.5"><g data-v-9833e8b2=""><path data-v-9833e8b2="" transform="scale(0.12376237623762376)" fill="none" stroke="currentColor" paint-order="fill stroke markers" d="m1,101.02432c0,13.81586 33.58317,25.00608 75.01824,25.00608c4.72615,0 9.36478,-0.15004 13.84087,-0.4251c-0.87521,4.16351 -1.33782,8.50207 -1.33782,12.92814c0,13.50328 4.27604,25.98132 11.54031,36.20881c-7.53933,0.8377 -15.6288,1.30032 -24.04335,1.30032c-40.24729,0 -73.09277,-10.56507 -74.93072,-23.83079l-0.08752,-1.17529l0,-50.01216zm150.03649,-62.5152l0,37.50912a62.5152,62.5152 0 0 0 -56.98886,36.78394c-5.7764,0.47512 -11.81537,0.72518 -18.02938,0.72518c-40.24729,0 -73.09277,-10.56507 -74.93072,-23.8308l-0.08752,-1.17528l0,-50.01216c0,13.81586 33.58317,25.00608 75.01824,25.00608c40.24729,0 73.09277,-10.56507 74.93072,-23.83079l0.08752,-1.17529zm-75.01824,-37.50912c41.43508,0 75.01824,11.19022 75.01824,25.00608s-33.58317,25.00608 -75.01824,25.00608s-75.01824,-11.19022 -75.01824,-25.00608s33.58317,-25.00608 75.01824,-25.00608zm75.01824,87.52128a50.01216,50.01216 0 1 1 0,100.02432a50.01216,50.01216 0 0 1 0,-100.02432zm6.25152,18.75456l-12.50304,0a3.12576,3.12576 0 0 0 -3.12576,3.12576l0,28.13184l-17.91686,0l-0.71267,0.08752a3.12576,3.12576 0 0 0 -1.58789,5.15125l27.28164,29.75724l0.63766,0.53763a3.12576,3.12576 0 0 0 3.77592,-0.35009l0.18755,-0.18755l27.28164,-29.75724l0.47511,-0.68767a3.12576,3.12576 0 0 0 -0.66266,-3.72591l-0.62515,-0.45011a3.12576,3.12576 0 0 0 -1.50036,-0.37509l-17.87935,0l0.0125,-28.13184a3.12576,3.12576 0 0 0 -3.12576,-3.12576l-0.0125,0z" stroke-width="5" stroke-miterlimit="10" stroke-dasharray=""></path></g></svg>