<svg data-v-9833e8b2="" version="1.1" xmlns="http://www.w3.org/2000/svg" xmlns:xlink="http://www.w3.org/1999/xlink" width="25" height="15"><g data-v-9833e8b2=""><path data-v-9833e8b2="" transform="scale(0.1388888888888889)" fill="none" stroke="currentColor" paint-order="fill stroke markers" d="m90.2,1l89.21,39.11l-89.21,43.89l-89.2,-43.89l89.2,-39.11l0,0z" stroke-width="5" stroke-miterlimit="10" stroke-dasharray=""></path><path data-v-9833e8b2="" transform="scale(0.1388888888888889)" fill="none" stroke="currentColor" paint-order="fill stroke markers" d="m89.74,85.12l0,0.04l0,28.54l-0.14,0.07l-0.99,-0.49l-87.61,-43.49l0,-28.72l88.74,44.05z" stroke-width="5" stroke-miterlimit="10" stroke-dasharray=""></path><path data-v-9833e8b2="" transform="scale(0.1388888888888889)" fill="none" stroke="currentColor" paint-order="fill stroke markers" d="m179.4,40.92l0,28.54l-83.29,41.1l-4.32,2.13l-2.06,1.01l0,-28.54l0,-0.04l0.04,0.02l1.51,-0.74l88.12,-43.48z" stroke-width="5" stroke-miterlimit="10" stroke-dasharray=""></path><path data-v-9833e8b2="" transform="scale(0.1388888888888889)" fill="none" stroke="currentColor" paint-order="fill stroke markers" d="m11.68,55.94l5.35,2.65l0,9.58l-5.35,-2.66l0,-9.57z" stroke-width="5" stroke-miterlimit="10" stroke-dasharray=""></path><path data-v-9833e8b2="" transform="scale(0.1388888888888889)" fill="none" stroke="currentColor" paint-order="fill stroke markers" d="m11.68,55.94l5.35,2.65l0,9.58l-5.35,-2.66l0,-9.57z" stroke-width="5" stroke-miterlimit="10" stroke-dasharray=""></path><path data-v-9833e8b2="" transform="scale(0.1388888888888889)" fill="none" stroke="currentColor" paint-order="fill stroke markers" d="m22.37,61.25l5.34,2.65l0,9.57l-5.34,-2.65l0,-9.57z" stroke-width="5" stroke-miterlimit="10" stroke-dasharray=""></path><path data-v-9833e8b2="" transform="scale(0.1388888888888889)" fill="none" stroke="currentColor" paint-order="fill stroke markers" d="m22.37,61.25l5.34,2.65l0,9.57l-5.34,-2.65l0,-9.57z" stroke-width="5" stroke-miterlimit="10" stroke-dasharray=""></path><path data-v-9833e8b2="" transform="scale(0.1388888888888889)" fill="none" stroke="currentColor" paint-order="fill stroke markers" d="m33.05,66.55l5.34,2.65l0,9.57l-5.34,-2.65l0,-9.57z" stroke-width="5" stroke-miterlimit="10" stroke-dasharray=""></path><path data-v-9833e8b2="" transform="scale(0.1388888888888889)" fill="none" stroke="currentColor" paint-order="fill stroke markers" d="m33.05,66.55l5.34,2.65l0,9.57l-5.34,-2.65l0,-9.57z" stroke-width="5" stroke-miterlimit="10" stroke-dasharray=""></path></g></svg>