<svg data-v-9833e8b2="" version="1.1" xmlns="http://www.w3.org/2000/svg" xmlns:xlink="http://www.w3.org/1999/xlink" width="25" height="20"><g data-v-9833e8b2=""><path data-v-9833e8b2="" transform="scale(0.12376237623762376)" fill="none" stroke="currentColor" paint-order="fill stroke markers" d="m173.90943,159.63705l-145.72633,0a27.21302,27.21302 0 0 1 -27.1831,-27.1831l0,-104.27086a27.21302,27.21302 0 0 1 27.1831,-27.1831l145.72633,0a27.21302,27.21302 0 0 1 27.18309,27.1831l0,104.27086a27.21302,27.21302 0 0 1 -27.18309,27.1831l0,0zm-145.72633,-149.16038a17.72637,17.72637 0 0 0 -17.70642,17.70642l0,104.27086a17.72637,17.72637 0 0 0 17.70642,17.70642l145.72633,0a17.72637,17.72637 0 0 0 17.70642,-17.70642l0,-104.27086a17.72637,17.72637 0 0 0 -17.70642,-17.70642l-145.72633,0z" stroke-width="5" stroke-miterlimit="10" stroke-dasharray=""></path><path data-v-9833e8b2="" transform="scale(0.12376237623762376)" fill="none" stroke="currentColor" paint-order="fill stroke markers" d="m52.70275,6.25457l9.47668,0l0,148.12792l-9.47668,0l0,-148.12792z" stroke-width="5" stroke-miterlimit="10" stroke-dasharray=""></path></g></svg>