<svg data-v-9833e8b2="" version="1.1" xmlns="http://www.w3.org/2000/svg" xmlns:xlink="http://www.w3.org/1999/xlink" width="25" height="12.5"><g data-v-9833e8b2=""><path data-v-9833e8b2="" transform="scale(0.16666666666666666)" fill="none" stroke="currentColor" paint-order="fill stroke markers" d="m1,1m16.23749,0l116.3687,0q16.23749,0 16.23749,16.23749l0,40.59373q0,16.23749 -16.23749,16.23749l-116.3687,0q-16.23749,0 -16.23749,-16.23749l0,-40.59373q0,-16.23749 16.23749,-16.23749z" stroke-width="5" stroke-miterlimit="10" stroke-dasharray=""></path><path data-v-9833e8b2="" transform="scale(0.16666666666666666)" fill="none" stroke="currentColor" paint-order="fill stroke markers" d="m53.14603,44.73975l0,2.57939c-3.86486,1.39541 -8.22446,2.53711 -13.15068,3.44624l-0.33828,-2.65551c5.15033,-0.83302 9.6241,-1.96626 13.48896,-3.37013zm-7.01088,-27.27814l2.53711,0.98524c-1.93243,4.92622 -3.90292,8.86297 -5.87341,11.8187a142.03578,142.03578 0 0 0 5.3829,-0.79496c0.71885,-1.36158 1.47998,-2.76545 2.23266,-4.20314l2.38911,0.87107c-3.44624,6.40197 -6.32586,10.95185 -8.63885,13.67501a67.36023,67.36023 0 0 0 8.52468,-2.27071l0,2.42294c-4.0932,1.40387 -8.03418,2.35105 -11.82292,2.84156l-0.71885,-2.461c0.49474,-0.22834 0.90913,-0.49474 1.25164,-0.79919c1.4377,-1.47575 3.22213,-3.9748 5.34061,-7.53944c-2.15654,0.34251 -4.31731,0.64696 -6.51191,0.94719l-0.68502,-2.49482a2.8627,2.8627 0 0 0 1.13747,-1.02753c2.11849,-3.4843 3.94098,-7.46333 5.45478,-11.97092zm6.5542,4.81205l9.05325,0l0,-4.58371l2.76968,0l0,4.57948l9.01519,0l0,2.65128l-9.01519,0l0,5.60701l7.91578,0l0,2.65128l-18.48706,0l0,-2.65128l7.80161,0l0,-5.60278l-9.05325,0l0,-2.65551l0,0.00423zm18.63929,14.69831l0,15.23111l-2.65128,0l0,-1.81403l-10.83345,0l0,1.81826l-2.69356,0l0,-15.23533l16.17829,0zm-13.48896,10.83768l10.83768,0l0,-8.26252l-10.83345,0l0,8.26252l-0.00423,0zm20.30955,-26.33096l14.81248,0l0,-3.78875l2.80773,0l0,3.78875l14.73637,0l0,2.61322l-14.73637,0l0,3.71263l11.93287,0l0,10.72351l-9.6241,0c2.72739,3.86063 7.34916,7.27304 13.79341,10.30489l-1.86055,2.34682c-6.70219,-3.75069 -11.40007,-7.95383 -14.13169,-12.65171l-0.10994,0l0,13.75113l-2.80773,0l0,-13.75113l-0.10994,0c-2.87962,5.15033 -7.65361,9.39576 -14.36003,12.72783l-1.59415,-2.49905c6.29203,-2.65128 10.87574,-6.06369 13.7173,-10.233l-9.50993,0l0,-10.71505l11.85675,0l0,-3.72109l-14.81248,0l0,-2.61322l0,0.00423zm26.82569,14.54609l0,-5.64507l-9.20547,0l0,5.64507l9.20547,0zm-12.00898,0l0,-5.64507l-9.13359,0l0,5.64507l9.13359,0z" stroke-width="5" stroke-miterlimit="10" stroke-dasharray=""></path></g></svg>