<svg data-v-9833e8b2="" version="1.1" xmlns="http://www.w3.org/2000/svg" xmlns:xlink="http://www.w3.org/1999/xlink" width="22" height="25"><g data-v-9833e8b2=""><path data-v-9833e8b2="" transform="scale(0.15060240963855423)" fill="none" stroke="currentColor" paint-order="fill stroke markers" d="m105.74636,165.57073l-88.47679,0c-8.96487,0 -16.26957,-7.30471 -16.26957,-16.26957l0,-132.03158c0,-8.96487 7.30471,-16.26957 16.26957,-16.26957l88.47679,0c8.96487,0 16.26957,7.30471 16.26957,16.26957l0,15.50785l-12.73441,0l0,-15.50785c0,-1.95313 -1.58204,-3.53517 -3.53517,-3.53517l-88.47679,0c-1.95313,0 -3.53517,1.58204 -3.53517,3.53517l0,132.05111c0,1.95313 1.58204,3.53517 3.53517,3.53517l88.47679,0c1.95313,0 3.53517,-1.58204 3.53517,-3.53517l0,-14.53129l12.73441,0l0,14.53129c0,8.96487 -7.30471,16.25004 -16.26957,16.25004z" stroke-width="5" stroke-miterlimit="10" stroke-dasharray=""></path><path data-v-9833e8b2="" transform="scale(0.15060240963855423)" fill="none" stroke="currentColor" paint-order="fill stroke markers" d="m121.9964,62.48453l0,-20.31255l-12.73441,0l0,20.31255l-35.68368,0l0,-19.12114l-12.73441,0l0,19.12114l-16.73832,0l0,12.73441l7.61721,0l0,15.83988c0,21.89459 17.81254,39.6876 39.6876,39.6876c21.89459,0 39.6876,-17.81254 39.6876,-39.6876l0,-15.83988l7.61721,0l0,-12.73441l-16.71879,0zm-3.61329,28.59382c0,14.86332 -12.08987,26.95319 -26.95319,26.95319s-26.95319,-12.08987 -26.95319,-26.95319l0,-15.83988l53.92592,0l0,15.83988l-0.01953,0z" stroke-width="5" stroke-miterlimit="10" stroke-dasharray=""></path></g></svg>