<svg data-v-9833e8b2="" version="1.1" xmlns="http://www.w3.org/2000/svg" xmlns:xlink="http://www.w3.org/1999/xlink" width="22" height="25"><g data-v-9833e8b2=""><path data-v-9833e8b2="" transform="scale(0.16129032258064516)" fill="none" stroke="currentColor" paint-order="fill stroke markers" d="m99.03931,7.05678c-7.53371,-3.84522 -16.19883,-6.05678 -25.44092,-6.05678c-9.25051,0 -17.91545,2.21137 -25.44916,6.05678l-47.14923,0l0,18.03539l25.42627,3.193l3.65058,0.45776l0,40.55247l21.95532,6.92763l0,16.52678l8.02718,4.83509l-0.42609,0l0,20.96618l8.42507,0l0,15.83116l-4.7375,0l0,19.55699l10.74191,5.23958l9.80496,-5.23958l0,-19.55681l-4.73768,0l0,-15.83116l8.42525,0l0,-20.84661l7.60091,-4.95485l0,-16.52549l21.9555,-6.92909l0,-40.55229l3.65077,-0.45776l25.42591,-3.193l0,-18.03538l-47.14904,0z" stroke-width="5" stroke-miterlimit="10" stroke-dasharray=""></path><path data-v-9833e8b2="" transform="scale(0.16129032258064516)" fill="none" stroke="currentColor" paint-order="fill stroke markers" d="m10.63247,4.42591l14.60178,0l0,2.62336l-14.60178,0l0,-2.62336zm111.32163,0l14.60142,0l0,2.62336l-14.60142,0l0,-2.62336zm-22.60754,151.16969l-3.36567,0.72748l4.0102,1.38666l0.67456,-1.91895l1.81366,0.28455l0.27796,-2.05372l-2.72169,-0.0899l-0.68903,1.66388zm-42.20976,-8.97988l-4.49012,-6.37172l-4.49745,3.89045l3.53065,3.89796l-3.53065,4.60255l10.92154,3.18586l-4.81971,-4.96254l2.88575,-4.24256zm43.47667,6.01924l-3.53083,-4.60255l3.53083,-3.89796l-4.49763,-3.89045l-4.49049,6.37172l2.88593,4.24256l-4.81221,4.96254l10.91439,-3.18586zm-52.63673,0.7945l-2.72077,0.08258l0.2774,2.0539l1.81385,-0.27759l0.67456,1.91895l4.01039,-1.38648l-3.36549,-0.72712l-0.68994,-1.66425z" stroke-width="5" stroke-miterlimit="10" stroke-dasharray=""></path></g></svg>