<svg data-v-9833e8b2="" version="1.1" xmlns="http://www.w3.org/2000/svg" xmlns:xlink="http://www.w3.org/1999/xlink" width="25" height="17.5"><g data-v-9833e8b2=""><path data-v-9833e8b2="" transform="scale(0.1358695652173913)" fill="none" stroke="currentColor" paint-order="fill stroke markers" d="m114.8,78.2l-1.6,0l0,14l-17.5,0l0,-49.1l17.5,0l0,14l1.6,0c4.5,-14.2 17.8,-24.6 33.5,-24.6c19.4,0 35.1,15.7 35.1,35.1s-15.7,35.1 -35.1,35.1c-15.7,0.1 -29,-10.2 -33.5,-24.5z" stroke-width="5" stroke-miterlimit="10" stroke-dasharray=""></path><path data-v-9833e8b2="" transform="scale(0.1358695652173913)" fill="none" stroke="currentColor" paint-order="fill stroke markers" d="m78.1,134.3l-63.1,0c-5.8,0 -10.5,-4.7 -10.5,-10.5c0,-4.6 2.9,-8.4 7,-9.9l0,-17.1c-6.6,-7.9 -10.5,-18.1 -10.5,-29.1s4,-21.2 10.5,-29.1l0,-17.2c-4.1,-1.5 -7,-5.3 -7,-9.9c0,-5.8 4.7,-10.5 10.5,-10.5l63.2,0c5.8,0 10.5,4.7 10.5,10.5c0,4.6 -2.9,8.4 -7,9.9l0,14.7l10.5,0l0,63.2l-10.6,0l0,14.7c4.1,1.5 7,5.3 7,9.9c0,5.7 -4.6,10.4 -10.5,10.4z" stroke-width="5" stroke-miterlimit="10" stroke-dasharray=""></path></g></svg>