<svg data-v-9833e8b2="" version="1.1" xmlns="http://www.w3.org/2000/svg" xmlns:xlink="http://www.w3.org/1999/xlink" width="22" height="25"><g data-v-9833e8b2=""><path data-v-9833e8b2="" transform="scale(0.15432098765432098)" fill="none" stroke="currentColor" paint-order="fill stroke markers" d="m72.57713,53.56986c-0.79746,-0.63906 -1.69219,-1.07559 -2.617,-1.37227c-3.18848,-1.03047 -6.80627,-0.07148 -9.0094,2.70723c-2.21055,2.77872 -2.32364,6.52365 -0.60156,9.39651c0.49629,0.83086 1.12793,1.59766 1.93282,2.23321c0.80469,0.63906 1.6918,1.0791 2.60958,1.37227c3.18848,1.02696 6.8131,0.06797 9.02424,-2.71075c2.20313,-2.7752 2.31583,-6.51642 0.58652,-9.38889c-0.49668,-0.83516 -1.1209,-1.59805 -1.9252,-2.23731z" stroke-width="5" stroke-miterlimit="10" stroke-dasharray=""></path><path data-v-9833e8b2="" transform="scale(0.15432098765432098)" fill="none" stroke="currentColor" paint-order="fill stroke markers" d="m30.23855,141.34527l0,-20.01294c0.9586,-2.00489 1.49629,-4.24962 1.49629,-6.62013a15.36723,15.36723 0 0 0 -0.55195,-4.0795c1.88516,1.35938 3.85489,2.55665 5.85392,3.66954l0.13516,0.11699l0.03047,-0.03047c24.71862,13.67582 56.35581,8.01272 74.50937,-14.84847c18.14594,-22.85709 16.48403,-54.96049 -2.43614,-75.93476c-1.60254,-1.77813 -3.29395,-3.50431 -5.14435,-5.10958l-5.21915,6.56115l-14.25824,17.96567l-5.1588,6.49377c1.82012,2.0793 2.97833,4.54611 3.5422,7.14025c0.98535,4.53478 0.0752,9.45295 -3.04571,13.37484c-3.11309,3.92169 -7.68576,5.92189 -12.33284,5.99357c-2.64747,0.04531 -5.31701,-0.52656 -7.75373,-1.82735l-5.15841,6.49396l-18.47719,23.28229l-4.73771,5.9631l-0.40332,0.50391a15.32211,15.32211 0 0 0 -2.97559,-5.58576l22.04439,-27.76999l5.15841,-6.50099c-5.00099,-5.71544 -5.38419,-14.34457 -0.49629,-20.50786c4.8879,-6.16623 13.38617,-7.74182 20.0938,-4.16603l5.1588,-6.50099l17.22446,-21.68736l0.02715,0.02148l8.06877,-10.1637l-8.27971,-6.5799l-6.95471,8.75647c-24.22819,-11.63675 -54.08803,-5.51193 -71.51053,16.42446c-17.41704,21.93716 -16.6266,52.4181 0.1918,73.3744a15.45355,15.45355 0 0 0 -2.50821,-0.20723c-8.49045,0 -15.37094,6.87756 -15.37094,15.36391c0,6.62717 4.19552,12.27444 10.07678,14.43168l0,32.68602l115.22353,0l0,-20.48443l-96.06177,0zm31.41902,-57.76636c8.91174,2.17305 18.68013,-0.79746 24.7567,-8.45627c6.0756,-7.65178 6.76017,-17.83813 2.6168,-26.01999l14.98012,-18.86391c15.55902,17.98813 16.73969,44.99289 1.40625,64.30114c-15.33402,19.31548 -41.90264,24.30104 -62.95133,13.21644l19.19145,-24.1774zm-45.28644,27.29421c2.12051,0 3.83536,1.71856 3.83536,3.83907c0,2.12032 -1.71485,3.83888 -3.83536,3.83888c-2.12051,0 -3.8504,-1.71856 -3.8504,-3.83888c0,-2.12051 1.72989,-3.83907 3.8504,-3.83907z" stroke-width="5" stroke-miterlimit="10" stroke-dasharray=""></path></g></svg>