<svg data-v-9833e8b2="" version="1.1" xmlns="http://www.w3.org/2000/svg" xmlns:xlink="http://www.w3.org/1999/xlink" width="19.5" height="25"><g data-v-9833e8b2=""><path data-v-9833e8b2="" transform="scale(0.12562814070351758)" fill="none" stroke="currentColor" paint-order="fill stroke markers" d="m77.91405,56.02803c10.48252,1.23896 20.25232,4.89789 28.77056,10.43115l9.33989,-11.5478l10.82908,9.34609l-9.03829,11.18225c0.34037,0.33357 0.67414,0.67414 1.00172,1.01411c12.49136,12.90888 20.22014,30.73464 20.22014,50.42854c0,19.6941 -7.72878,37.51346 -20.22014,50.42854c-12.48557,12.90288 -29.74651,20.88789 -48.79844,20.88789c-19.05833,0 -36.31307,-7.98501 -48.80463,-20.88789c-12.49156,-12.91508 -20.21395,-30.73444 -20.21395,-50.42854c0,-19.6939 7.72238,-37.51986 20.21395,-50.42854c10.71356,-11.06652 24.94495,-18.51909 40.79984,-20.41301l0,-7.15737l-10.97658,0l0,-10.367c-0.63537,-0.33358 -1.24516,-0.68034 -1.83576,-1.04609c-6.18162,-3.78085 -10.00104,-9.26274 -10.00104,-15.53431c0,-6.25857 3.81922,-11.74387 10.00104,-15.52471c5.44352,-3.34774 12.8765,-5.41135 21.00341,-5.41135c8.12012,0 15.55349,2.06381 21.00341,5.41135c6.18182,3.78085 10.00085,9.26594 10.00085,15.52471c0,6.27156 -3.81902,11.75346 -10.00085,15.53431c-0.67395,0.41732 -1.36727,0.80246 -2.09898,1.17461l0,10.23848l-11.19524,0l0,7.14457l0,0zm-26.87685,-28.88609l0,-0.93717l38.07208,0l0,1.1812c1.82916,-1.66887 2.88825,-3.54341 2.88825,-5.44992c0,-2.6642 -2.08599,-5.28303 -5.46871,-7.34983c-4.09543,-2.5163 -9.86634,-4.06985 -16.32397,-4.06985c-6.45764,0 -12.22854,1.55355 -16.33037,4.06985c-3.37632,2.067 -5.46911,4.68583 -5.46911,7.34983c0,1.81657 0.96295,3.60097 2.63182,5.20588l0,0zm-16.25962,67.40727l8.23564,8.50526l4.11462,-4.24933l-8.23564,-8.51165l-4.11462,4.25573l0,0zm3.94773,68.74276l8.23584,-8.49866l-4.11462,-4.26252l-8.23564,8.51165l4.11442,4.24953l0,0zm66.53446,-4.08284l-8.23604,-8.51165l-4.11462,4.26212l8.23584,8.51205l4.11482,-4.26252l0,0zm11.80483,-35.21501l-11.64453,0l0,6.00814l11.64453,0l0,-6.00814l0,0zm-44.25391,51.49382l0,-12.02927l-5.82187,0l0,12.02947l5.82187,0l0,-0.0002zm-49.83794,-45.71672l11.64433,0l0,-6.02153l-11.64433,0l0,6.02153l0,0zm44.25351,-51.50081l0,12.03587l5.82247,0l0,-12.03587l-5.82247,0l0,0zm11.47745,45.81325c-0.41072,-0.96295 -0.94996,-1.82317 -1.57893,-2.58066c7.80593,-9.62849 14.69987,-20.14919 20.85591,-31.40219c-1.53416,-1.20039 -3.06193,-2.41357 -4.59589,-3.60756c-8.51825,9.7702 -15.82971,20.31008 -22.01153,31.58207c-1.95148,-0.39773 -4.03108,-0.19267 -5.98236,0.69333c-5.09696,2.33682 -7.395,8.49906 -5.14193,13.7629c2.25308,5.26344 8.21665,7.63864 13.31341,5.30202c0.62878,-0.28241 1.22597,-0.62898 1.76481,-1.02711c7.51712,3.5562 15.57928,6.23939 24.36734,7.75436c0.7383,-2.13116 1.47001,-4.26232 2.20831,-6.39348c-7.06083,-4.13381 -14.53318,-7.22812 -22.33851,-9.50018c0.05096,-1.51518 -0.21865,-3.09431 -0.86062,-4.5835l0,0zm26.92181,-33.99584c-9.11524,-9.41024 -21.70294,-15.23251 -35.60675,-15.23251c-13.9104,0 -26.4919,5.82227 -35.60695,15.23251c-9.10885,9.42343 -14.74484,22.42865 -14.74484,36.79455s5.63599,27.37111 14.74484,36.78175c9.11504,9.42304 21.69654,15.23891 35.60695,15.23891c13.90381,0 26.49151,-5.81587 35.60675,-15.23891c9.10885,-9.41064 14.74484,-22.41586 14.74484,-36.78175s-5.63599,-27.37091 -14.74484,-36.79455z" stroke-width="5" stroke-miterlimit="10" stroke-dasharray=""></path></g></svg>