<svg data-v-9833e8b2="" version="1.1" xmlns="http://www.w3.org/2000/svg" xmlns:xlink="http://www.w3.org/1999/xlink" width="25" height="10"><g data-v-9833e8b2=""><path data-v-9833e8b2="" transform="scale(0.12376237623762376)" fill="none" stroke="currentColor" paint-order="fill stroke markers" d="m14.66323,38.3319l5.93355,0l0,9.64201l-5.93355,0l0,-9.64201zm168.48802,-0.37085l15.57556,0l0,10.01286l2.22508,0l0,-12.23794l-15.57556,0l0,-20.52018l-18.54233,0l0,-6.79886l-2.22508,0l0,9.02394l18.54234,0l0,20.52018z" stroke-width="5" stroke-miterlimit="10" stroke-dasharray=""></path><path data-v-9833e8b2="" transform="scale(0.12376237623762376)" fill="none" stroke="currentColor" paint-order="fill stroke markers" d="m8.60607,17.44087l150.67873,0l0.07046,-9.01528l-2.22483,-0.01731l-0.0534,6.80751l-150.69603,0l0,32.75813l2.22508,0l0,-30.53305zm151.35021,-16.44087l4.00267,0l0,21.50911l-4.00267,0l0,-21.50911z" stroke-width="5" stroke-miterlimit="10" stroke-dasharray=""></path><path data-v-9833e8b2="" transform="scale(0.12376237623762376)" fill="none" stroke="currentColor" paint-order="fill stroke markers" d="m21.5857,38.3319l5.93355,0l0,9.64201l-5.93355,0l0,-9.64201zm168.48802,2.71954l5.93355,0l0,6.92247l-5.93355,0l0,-6.92247zm11.00179,23.78017l0,-15.12708l-196.05429,0l0,33.1045l-4.02121,0l0,5.19185l199.70466,0l0,-5.19185l-15.20471,0l0,-17.97766l15.57556,0l0,0.00025zm-2.10146,19.70803l0,1.73062l-196.24342,0l0,-1.73062l196.24342,0zm-33.93643,-36.56573l23.78363,0l0,-4.38637l-23.09955,0l0,-19.59505l-2.10146,0l0,3.70847l-3.33762,0l0,-1.97785l-4.20293,0l0,1.97785l-11.61986,0l0,-1.97785l-4.20293,0l0,1.97785l-11.61986,0l0,-1.97785l-4.20293,0l0,1.97785l-11.61986,0l0,-1.97785l-4.20293,0l0,1.97785l-11.61986,0l0,-1.97785l-4.20293,0l0,1.97785l-11.61986,0l0,-1.97785l-4.20293,0l0,1.97785l-11.61986,0l0,-1.97785l-4.20293,0l0,1.97785l-2.87431,0l0,-3.70847l-2.10146,0l0,3.70847l-3.43033,0l0,-3.70847l-2.10146,0l0,18.78957l-21.87996,0l0,5.19185l131.52697,0l0,-0.74169l3.33762,0l0,0.74169l1.41762,0l0,0zm-108.87046,-6.92247l-3.43033,0l0,-2.71954l3.43033,0l0,2.71954zm0,-4.45016l-3.43033,0l0,-2.71954l3.43033,0l0,2.71954zm0,-4.45016l-3.43033,0l0,-2.71954l3.43033,0l0,2.71954zm4.97553,8.90032l-2.87406,0l0,-2.71954l2.87406,0l0,2.71954zm0,-4.45016l-2.87406,0l0,-2.71954l2.87406,0l0,2.71954zm0,-4.45016l-2.87406,0l0,-2.71954l2.87406,0l0,2.71954zm2.96677,14.58664l-1.73062,0l0,-19.77849l1.73062,0l0,19.77849zm15.82279,0l-1.73062,0l0,-19.77849l1.73062,0l0,19.77849zm15.82279,0l-1.73062,0l0,-19.77849l1.73062,0l0,19.77849zm15.82279,0l-1.73062,0l0,-19.77849l1.73062,0l0,19.77849zm15.82279,0l-1.73062,0l0,-19.77849l1.73062,0l0,19.77849zm15.82279,0l-1.73062,0l0,-19.77849l1.73062,0l0,19.77849zm15.82279,0l-1.73062,0l0,-19.77849l1.73062,0l0,19.77849zm1.23616,-17.30618l3.33762,0l0,2.71954l-3.33762,0l0,-2.71954zm0,4.45016l3.33762,0l0,2.71954l-3.33762,0l0,-2.71954zm0,4.45016l3.33762,0l0,2.71954l-3.33762,0l0,-2.71954zm0,7.1697l0,-2.71954l3.33762,0l0,2.71954l-3.33762,0z" stroke-width="5" stroke-miterlimit="10" stroke-dasharray=""></path></g></svg>