<svg data-v-9833e8b2="" version="1.1" xmlns="http://www.w3.org/2000/svg" xmlns:xlink="http://www.w3.org/1999/xlink" width="19.5" height="25"><g data-v-9833e8b2=""><path data-v-9833e8b2="" transform="scale(0.13440860215053763)" fill="none" stroke="currentColor" paint-order="fill stroke markers" d="m7.7,58l26.8,0l0,46.9l-26.8,0l0,-46.9l0,0z" stroke-width="5" stroke-miterlimit="10" stroke-dasharray=""></path><path data-v-9833e8b2="" transform="scale(0.13440860215053763)" fill="none" stroke="currentColor" paint-order="fill stroke markers" d="m88.1,58l26.8,0l0,46.9l-26.8,0l0,-46.9l0,0z" stroke-width="5" stroke-miterlimit="10" stroke-dasharray=""></path><path data-v-9833e8b2="" transform="scale(0.13440860215053763)" fill="none" stroke="currentColor" paint-order="fill stroke markers" d="m1,54.6l16.8,0l0,53.6l-16.8,0l0,-53.6l0,0z" stroke-width="5" stroke-miterlimit="10" stroke-dasharray=""></path><path data-v-9833e8b2="" transform="scale(0.13440860215053763)" fill="none" stroke="currentColor" paint-order="fill stroke markers" d="m104.9,54.6l16.8,0l0,53.6l-16.8,0l0,-53.6l0,0z" stroke-width="5" stroke-miterlimit="10" stroke-dasharray=""></path><path data-v-9833e8b2="" transform="scale(0.13440860215053763)" fill="none" stroke="currentColor" paint-order="fill stroke markers" d="m27.8,34.5l67,0l0,140.8l-67,0l0,-140.8l0,0z" stroke-width="5" stroke-miterlimit="10" stroke-dasharray=""></path><path data-v-9833e8b2="" transform="scale(0.13440860215053763)" fill="none" stroke="currentColor" paint-order="fill stroke markers" d="m21.1,11.1l80.5,0l0,33.5l-80.5,0l0,-33.5l0,0z" stroke-width="5" stroke-miterlimit="10" stroke-dasharray=""></path><path data-v-9833e8b2="" transform="scale(0.13440860215053763)" fill="none" stroke="currentColor" paint-order="fill stroke markers" d="m14.4,1l93.9,0l0,20.1l-93.9,0l0,-20.1l0,0z" stroke-width="5" stroke-miterlimit="10" stroke-dasharray=""></path><path data-v-9833e8b2="" transform="scale(0.13440860215053763)" fill="none" stroke="currentColor" paint-order="fill stroke markers" d="m21.1,165.3l80.5,0l0,20.1l-80.5,0l0,-20.1l0,0z" stroke-width="5" stroke-miterlimit="10" stroke-dasharray=""></path><path data-v-9833e8b2="" transform="scale(0.13440860215053763)" fill="none" stroke="currentColor" paint-order="fill stroke markers" d="m61.3,88.2c13,0 23.5,10.5 23.5,23.5c0,13 -10.5,23.5 -23.5,23.5c-13,0 -23.5,-10.5 -23.5,-23.5c0,-13 10.5,-23.5 23.5,-23.5l0,0z" stroke-width="5" stroke-miterlimit="10" stroke-dasharray=""></path></g></svg>