<svg data-v-9833e8b2="" version="1.1" xmlns="http://www.w3.org/2000/svg" xmlns:xlink="http://www.w3.org/1999/xlink" width="24.5" height="25"><g data-v-9833e8b2=""><path data-v-9833e8b2="" transform="scale(0.13513513513513514)" fill="none" stroke="currentColor" paint-order="fill stroke markers" d="m100.3,46.1l54.2,0l0,138.4l-54.2,0l0,-138.4l0,0z" stroke-width="5" stroke-miterlimit="10" stroke-dasharray=""></path><path data-v-9833e8b2="" transform="scale(0.13513513513513514)" fill="none" stroke="currentColor" paint-order="fill stroke markers" d="m115.3,64.2l24.1,0l0,24.1l-24.1,0l0,-24.1l0,0z" stroke-width="5" stroke-miterlimit="10" stroke-dasharray=""></path><path data-v-9833e8b2="" transform="scale(0.13513513513513514)" fill="none" stroke="currentColor" paint-order="fill stroke markers" d="m115.3,100.3l24.1,0l0,24.1l-24.1,0l0,-24.1l0,0z" stroke-width="5" stroke-miterlimit="10" stroke-dasharray=""></path><path data-v-9833e8b2="" transform="scale(0.13513513513513514)" fill="none" stroke="currentColor" paint-order="fill stroke markers" d="m13,1l93.3,0l0,183.6l-93.3,0l0,-183.6l0,0z" stroke-width="5" stroke-miterlimit="10" stroke-dasharray=""></path><path data-v-9833e8b2="" transform="scale(0.13513513513513514)" fill="none" stroke="currentColor" paint-order="fill stroke markers" d="m29.5,25.1l24.1,0l0,24.1l-24.1,0l0,-24.1l0,0z" stroke-width="5" stroke-miterlimit="10" stroke-dasharray=""></path><path data-v-9833e8b2="" transform="scale(0.13513513513513514)" fill="none" stroke="currentColor" paint-order="fill stroke markers" d="m65.7,25.1l24.1,0l0,24.1l-24.1,0l0,-24.1l0,0z" stroke-width="5" stroke-miterlimit="10" stroke-dasharray=""></path><path data-v-9833e8b2="" transform="scale(0.13513513513513514)" fill="none" stroke="currentColor" paint-order="fill stroke markers" d="m29.5,61.2l24.1,0l0,24.1l-24.1,0l0,-24.1l0,0z" stroke-width="5" stroke-miterlimit="10" stroke-dasharray=""></path><path data-v-9833e8b2="" transform="scale(0.13513513513513514)" fill="none" stroke="currentColor" paint-order="fill stroke markers" d="m65.7,61.2l24.1,0l0,24.1l-24.1,0l0,-24.1l0,0z" stroke-width="5" stroke-miterlimit="10" stroke-dasharray=""></path><path data-v-9833e8b2="" transform="scale(0.13513513513513514)" fill="none" stroke="currentColor" paint-order="fill stroke markers" d="m29.5,97.3l24.1,0l0,24.1l-24.1,0l0,-24.1l0,0z" stroke-width="5" stroke-miterlimit="10" stroke-dasharray=""></path><path data-v-9833e8b2="" transform="scale(0.13513513513513514)" fill="none" stroke="currentColor" paint-order="fill stroke markers" d="m65.7,97.3l24.1,0l0,24.1l-24.1,0l0,-24.1l0,0z" stroke-width="5" stroke-miterlimit="10" stroke-dasharray=""></path><path data-v-9833e8b2="" transform="scale(0.13513513513513514)" fill="none" stroke="currentColor" paint-order="fill stroke markers" d="m29.5,133.4l24.1,0l0,24.1l-24.1,0l0,-24.1l0,0z" stroke-width="5" stroke-miterlimit="10" stroke-dasharray=""></path><path data-v-9833e8b2="" transform="scale(0.13513513513513514)" fill="none" stroke="currentColor" paint-order="fill stroke markers" d="m65.7,133.4l24.1,0l0,24.1l-24.1,0l0,-24.1l0,0z" stroke-width="5" stroke-miterlimit="10" stroke-dasharray=""></path><path data-v-9833e8b2="" transform="scale(0.13513513513513514)" fill="none" stroke="currentColor" paint-order="fill stroke markers" d="m1,178.6l165.5,0l0,6l-165.5,0l0,-6l0,0z" stroke-width="5" stroke-miterlimit="10" stroke-dasharray=""></path></g></svg>