<svg data-v-9833e8b2="" version="1.1" xmlns="http://www.w3.org/2000/svg" xmlns:xlink="http://www.w3.org/1999/xlink" width="25" height="12.5"><g data-v-9833e8b2=""><path data-v-9833e8b2="" transform="scale(0.13297872340425532)" fill="none" stroke="currentColor" paint-order="fill stroke markers" d="m186.23043,21.4649l0,17.39685l-16.15421,0l0,-8.69842l0,-8.69842l16.15421,0z" stroke-width="5" stroke-miterlimit="10" stroke-dasharray=""></path><path data-v-9833e8b2="" transform="scale(0.13297872340425532)" fill="none" stroke="currentColor" paint-order="fill stroke markers" d="m186.30623,21.46366a8.69842,1.24263 90 1 0 0,17.39685a8.69842,1.24263 90 1 0 0,-17.39685z" stroke-width="5" stroke-miterlimit="10" stroke-dasharray=""></path><path data-v-9833e8b2="" transform="scale(0.13297872340425532)" fill="none" stroke="currentColor" paint-order="fill stroke markers" d="m28.3379,84.91617l-0.45232,-0.00497c-14.88921,-0.3293 -26.88558,-16.89109 -26.88558,-37.27398c0,-20.58917 12.23992,-37.27895 27.3379,-37.27895l131.71897,0c9.60803,0 17.39685,16.68979 17.39685,37.27895c0,20.58917 -7.78882,37.27895 -17.39685,37.27895l-131.71897,0z" stroke-width="5" stroke-miterlimit="10" stroke-dasharray=""></path><path data-v-9833e8b2="" transform="scale(0.13297872340425532)" fill="none" stroke="currentColor" paint-order="fill stroke markers" d="m125.26318,63.79143m4.97053,0l9.94105,0q4.97053,0 4.97053,4.97053l0,0q0,4.97053 -4.97053,4.97053l-9.94105,0q-4.97053,0 -4.97053,-4.97053l0,0q0,-4.97053 4.97053,-4.97053z" stroke-width="5" stroke-miterlimit="10" stroke-dasharray=""></path><path data-v-9833e8b2="" transform="scale(0.13297872340425532)" fill="none" stroke="currentColor" paint-order="fill stroke markers" d="m130.23371,68.76196m-3.7279,0a3.7279,3.7279 0 1 0 7.45579,0a3.7279,3.7279 0 1 0 -7.45579,0z" stroke-width="5" stroke-miterlimit="10" stroke-dasharray=""></path><path data-v-9833e8b2="" transform="scale(0.13297872340425532)" fill="none" stroke="currentColor" paint-order="fill stroke markers" d="m128.99108,83.67354l12.42632,0l0,11.56393a1.24263,1.24263 0 0 1 -0.83629,1.17429c-1.79187,0.62132 -3.58499,0.93073 -5.37687,0.93073c-1.79187,0 -3.58499,-0.31066 -5.37687,-0.93073a1.24263,1.24263 0 0 1 -0.83629,-1.17429l0,-11.56393zm-91.95475,0l12.42632,0l0,11.56393a1.24263,1.24263 0 0 1 -0.83629,1.17429c-1.79188,0.62132 -3.58499,0.93073 -5.37687,0.93073c-1.79187,0 -3.58499,-0.31066 -5.37687,-0.93073a1.24263,1.24263 0 0 1 -0.83629,-1.17429l0,-11.56393z" stroke-width="5" stroke-miterlimit="10" stroke-dasharray=""></path><path data-v-9833e8b2="" transform="scale(0.13297872340425532)" fill="none" stroke="currentColor" paint-order="fill stroke markers" d="m49.7733,29.3084m-6.52382,0a6.52382,6.52382 0 1 0 13.04763,0a6.52382,6.52382 0 1 0 -13.04763,0z" stroke-width="5" stroke-miterlimit="10" stroke-dasharray=""></path><path data-v-9833e8b2="" transform="scale(0.13297872340425532)" fill="none" stroke="currentColor" paint-order="fill stroke markers" d="m28.3379,10.39678l4.97053,0l0,74.55791l-4.97053,0l0,-74.55791zm126.74845,0l4.97053,0l0,74.55791l-4.97053,0l0,-74.55791z" stroke-width="5" stroke-miterlimit="10" stroke-dasharray=""></path><path data-v-9833e8b2="" transform="scale(0.13297872340425532)" fill="none" stroke="currentColor" paint-order="fill stroke markers" d="m50.70527,2.24263l14.91158,0l0,8.69842l-14.91158,0l0,-8.69842z" stroke-width="5" stroke-miterlimit="10" stroke-dasharray=""></path><path data-v-9833e8b2="" transform="scale(0.13297872340425532)" fill="none" stroke="currentColor" paint-order="fill stroke markers" d="m50.70527,2.24263a7.45579,1.24263 0 1 0 14.91158,0a7.45579,1.24263 0 1 0 -14.91158,0z" stroke-width="5" stroke-miterlimit="10" stroke-dasharray=""></path><path data-v-9833e8b2="" transform="scale(0.13297872340425532)" fill="none" stroke="currentColor" paint-order="fill stroke markers" d="m112.83686,2.24263l14.91158,0l0,8.69842l-14.91158,0l0,-8.69842z" stroke-width="5" stroke-miterlimit="10" stroke-dasharray=""></path><path data-v-9833e8b2="" transform="scale(0.13297872340425532)" fill="none" stroke="currentColor" paint-order="fill stroke markers" d="m112.83686,2.24263a7.45579,1.24263 0 1 0 14.91158,0a7.45579,1.24263 0 1 0 -14.91158,0z" stroke-width="5" stroke-miterlimit="10" stroke-dasharray=""></path></g></svg>