<svg data-v-9833e8b2="" version="1.1" xmlns="http://www.w3.org/2000/svg" xmlns:xlink="http://www.w3.org/1999/xlink" width="27" height="25"><g data-v-9833e8b2=""><path data-v-9833e8b2="" transform="scale(0.19083969465648856)" fill="none" stroke="currentColor" paint-order="fill stroke markers" d="m1,1l0,97.32251l109.70535,0l0,-97.32251l-109.70535,0zm100.55885,88.176l-91.41234,0l0,-79.0295l91.41234,0l0,79.0295z" stroke-width="5" stroke-miterlimit="10" stroke-dasharray=""></path><path data-v-9833e8b2="" transform="scale(0.19083969465648856)" fill="none" stroke="currentColor" paint-order="fill stroke markers" d="m20.77349,16.75395l0,28.12507l70.15838,0l0,-28.12507l-70.15838,0zm60.78336,18.75005l-51.40833,0l0,-9.37502l51.40833,0l0,9.37502zm38.33408,-22.6856l9.37502,0l0,71.25409l-9.37502,0l0,-71.25409zm-96.0061,82.65841l9.37502,0l0,35.18564l-9.37502,0l0,-35.18564zm53.12513,0l9.37502,0l0,35.18564l-9.37502,0l0,-35.18564zm18.84184,8.37502l9.37502,0l0,26.80866l-9.37502,0l0,-26.80866z" stroke-width="5" stroke-miterlimit="10" stroke-dasharray=""></path><path data-v-9833e8b2="" transform="scale(0.19083969465648856)" fill="none" stroke="currentColor" paint-order="fill stroke markers" d="m105.22741,121.28624l0,9.37502l-81.342,0l0,-9.37502l81.342,0z" stroke-width="5" stroke-miterlimit="10" stroke-dasharray=""></path></g></svg>