<svg data-v-9833e8b2="" version="1.1" xmlns="http://www.w3.org/2000/svg" xmlns:xlink="http://www.w3.org/1999/xlink" width="25" height="20"><g data-v-9833e8b2=""><path data-v-9833e8b2="" transform="scale(0.13368983957219252)" fill="none" stroke="currentColor" paint-order="fill stroke markers" d="m4.9,134l18.5,-92.5l-6.9,0l0,-25l59.7,0l0,25l-6.9,0l18.5,92.5l-82.9,0z" stroke-width="5" stroke-miterlimit="10" stroke-dasharray=""></path><path data-v-9833e8b2="" transform="scale(0.13368983957219252)" fill="none" stroke="currentColor" paint-order="fill stroke markers" d="m87.7,134l20.5,-106l-7,0l0,-27l67.4,0l0,27l-7,0l20.5,106l-94.4,0z" stroke-width="5" stroke-miterlimit="10" stroke-dasharray=""></path><path data-v-9833e8b2="" transform="scale(0.13368983957219252)" fill="none" stroke="currentColor" paint-order="fill stroke markers" d="m1,126.3l185,0l0,7.7l-185,0l0,-7.7l0,0z" stroke-width="5" stroke-miterlimit="10" stroke-dasharray=""></path><path data-v-9833e8b2="" transform="scale(0.13368983957219252)" fill="none" stroke="currentColor" paint-order="fill stroke markers" d="m1,141.7l185,0l0,7.7l-185,0l0,-7.7l0,0z" stroke-width="5" stroke-miterlimit="10" stroke-dasharray=""></path></g></svg>