<svg data-v-9833e8b2="" version="1.1" xmlns="http://www.w3.org/2000/svg" xmlns:xlink="http://www.w3.org/1999/xlink" width="25" height="17.5"><g data-v-9833e8b2=""><path data-v-9833e8b2="" transform="scale(0.1282051282051282)" fill="none" stroke="currentColor" paint-order="fill stroke markers" d="m97.7,1l96.7,0l0,62.2l-96.7,0l0,-62.2l0,0z" stroke-width="5" stroke-miterlimit="10" stroke-dasharray=""></path><path data-v-9833e8b2="" transform="scale(0.1282051282051282)" fill="none" stroke="currentColor" paint-order="fill stroke markers" d="m1,77l97.8,0l0,62.2l-97.8,0l0,-62.2l0,0z" stroke-width="5" stroke-miterlimit="10" stroke-dasharray=""></path><path data-v-9833e8b2="" transform="scale(0.1282051282051282)" fill="none" stroke="currentColor" paint-order="fill stroke markers" d="m97.7,1c38.2,0 69.1,30.9 69.1,69.1c0,38.2 -30.9,69.1 -69.1,69.1c-38.2,0 -69.1,-30.9 -69.1,-69.1c0,-38.1 30.9,-69.1 69.1,-69.1l0,0z" stroke-width="5" stroke-miterlimit="10" stroke-dasharray=""></path><path data-v-9833e8b2="" transform="scale(0.1282051282051282)" fill="none" stroke="currentColor" paint-order="fill stroke markers" d="m142.7,72.2c0.4,-13.9 -5.4,-26.6 -14.9,-35.4l-17.3,18.8c-2.6,-2.3 -5.7,-3.9 -9.2,-4.6l0,-26.3c-0.9,0 -1.7,-0.1 -2.6,-0.1l0,0c-13.9,0 -26.4,6.1 -34.9,15.9l19,16.5c-2.8,3.1 -4.7,7.1 -5.1,11.5l-24.4,-0.7l-0.2,0c-0.3,1 -0.3,1.9 -0.4,2.7l0,0c-0.4,13.9 5.4,26.6 14.9,35.4l17.9,-19.4c-0.1,-0.1 -0.1,-0.1 -0.2,-0.2c2.6,2 5.8,3.4 9.2,3.9l0,25.4c0.9,0 1.7,0.1 2.6,0.1l0,0c13.9,0 26.4,-6.1 34.9,-15.9l-19.3,-16.7c2,-2.5 3.4,-5.6 4,-8.9l25.4,0.7l0.2,0c0.3,-1 0.4,-1.8 0.4,-2.7l0,0z" stroke-width="5" stroke-miterlimit="10" stroke-dasharray=""></path><path data-v-9833e8b2="" transform="scale(0.1282051282051282)" fill="none" stroke="currentColor" paint-order="fill stroke markers" d="m85.5,70.5c0,-6.5 5.3,-11.8 11.8,-11.8c6.5,0 11.8,5.3 11.8,11.8c0,6.5 -5.3,11.8 -11.8,11.8c-6.5,0 -11.8,-5.3 -11.8,-11.8l0,0z" stroke-width="5" stroke-miterlimit="10" stroke-dasharray=""></path></g></svg>