<svg data-v-9833e8b2="" version="1.1" xmlns="http://www.w3.org/2000/svg" xmlns:xlink="http://www.w3.org/1999/xlink" width="25" height="20"><g data-v-9833e8b2=""><path data-v-9833e8b2="" transform="scale(0.14450867052023122)" fill="none" stroke="currentColor" paint-order="fill stroke markers" d="m18.26567,100.39131l70.42986,0l10.78128,22.55865l-15.52738,0l-6.62111,-7.18752l-40.97667,0l-7.32424,7.18752l-20.41021,0l9.64846,-22.55865zm97.01196,-33.35946s-3.45704,37.94931 -2.46094,40.95713c0,0 1.15235,1.01563 3.02735,1.44532s27.16804,0.56641 45.4298,-1.44532c0,0 9.19924,-0.29297 10.62503,-3.16407c1.42578,-2.8711 0.85938,-8.76955 0.85938,-8.76955s-1.71875,-19.39458 -1.60157,-22.42193c0.13672,-3.02735 -1.15235,-11.64065 -1.71875,-12.20706l-49.43372,-1.13282c0.01953,-0.01953 -8.6133,0.41016 -4.72657,6.7383zm-10.33206,-1.73829l0,6.62111l-11.36722,0l0,17.81254l11.36722,0l0,4.90236l5.15626,0l0,-29.33601l-5.15626,0zm0,0" stroke-width="5" stroke-miterlimit="10" stroke-dasharray=""></path><path data-v-9833e8b2="" transform="scale(0.14450867052023122)" fill="none" stroke="currentColor" paint-order="fill stroke markers" d="m122.03546,15.85985c-2.16797,-4.74611 -10.21487,-9.06252 -24.57037,-11.93362c-14.37504,-2.8711 -58.92593,-4.74611 -69.70721,-0.15625c-3.8672,1.64063 -9.62893,5.89845 -10.33206,12.36331c-0.72266,6.46486 2.01172,13.51566 6.75783,19.68755c0,0 3.16407,3.59376 1.15235,10.62503c-2.01172,7.0508 -6.03517,15.09769 -5.89845,46.69934l69.59002,0.29297s0.72266,-14.80472 0.27344,-25.15631c0,0 -1.01563,-7.0508 -2.73438,-9.06252c-1.71875,-2.01172 -6.19142,-7.91018 -6.19142,-10.50784c0,-2.57813 0.29297,-10.05862 8.47658,-14.08207c8.20315,-4.02345 21.28912,-2.8711 21.28912,-2.8711s7.61721,0 10.05862,-4.74611c-0.03906,0.05859 3.98439,-6.40627 1.83594,-11.15237zm-55.76186,1.42578l4.02345,0l0,12.36331l-4.02345,0l0,-12.36331zm-6.62111,0l4.02345,0l0,12.36331l-4.02345,0l0,-12.36331zm-5.76173,0l4.02345,0l0,12.36331l-4.02345,0l0,-12.36331zm23.00787,66.40642l-37.07041,0l0,-4.31642l37.08994,0l0,4.31642l-0.01953,0zm0,-7.46096l-37.07041,0l0,-4.31642l37.08994,0l0,4.31642l-0.01953,0zm28.16413,62.09l-104.06276,0l0,-8.49612l104.06276,0l0,8.49612zm0,0" stroke-width="5" stroke-miterlimit="10" stroke-dasharray=""></path></g></svg>