<svg data-v-9833e8b2="" version="1.1" xmlns="http://www.w3.org/2000/svg" xmlns:xlink="http://www.w3.org/1999/xlink" width="25" height="22.5"><g data-v-9833e8b2=""><path data-v-9833e8b2="" transform="scale(0.13157894736842105)" fill="none" stroke="currentColor" paint-order="fill stroke markers" d="m112.00423,172.19091a2.38096,2.38096 0 0 1 -2.38096,-2.38096l0,-65.20016a2.38096,2.38096 0 0 1 4.76192,0l0,65.20016a2.38096,2.38096 0 0 1 -2.38096,2.38096zm29.66198,0a2.38096,2.38096 0 0 1 -2.38096,-2.38096l0,-65.20016a2.38096,2.38096 0 1 1 4.76192,0l0,65.20016a2.38096,2.38096 0 0 1 -2.38096,2.38096zm-80.19068,-19.09052l-20.47624,0a2.38096,2.38096 0 0 1 -2.38096,-2.38096l0,-33.33342l-22.80482,-42.50487a14.76194,14.76194 0 0 1 -2.51429,-8.23812l0,-63.26206a2.38096,2.38096 0 0 1 2.38096,-2.38096l71.9478,0a2.38096,2.38096 0 0 1 2.38096,2.38096l0,63.26206a14.76194,14.76194 0 0 1 -2.52858,8.2524l-23.62387,42.53344l0,33.30008a2.38096,2.38096 0 0 1 -2.38096,2.37143l0,0zm-18.09528,-4.76192l15.71432,0l0,-31.53817a2.40953,2.40953 0 0 1 0.3,-1.15715l23.97625,-43.15249a1.42858,1.42858 0 0 1 0.11429,-0.18095a10.04764,10.04764 0 0 0 1.76191,-5.66668l0,-60.8811l-67.18588,0l0,60.8811a10.04288,10.04288 0 0 0 1.75715,5.66668a2.34286,2.34286 0 0 1 0.13333,0.21429l23.14291,43.15249a2.38096,2.38096 0 0 1 0.28572,1.12381l0,31.53817z" stroke-width="5" stroke-miterlimit="10" stroke-dasharray=""></path><path data-v-9833e8b2="" transform="scale(0.13157894736842105)" fill="none" stroke="currentColor" paint-order="fill stroke markers" d="m61.25649,103.28121l-19.59053,0a2.38096,2.38096 0 0 1 -2.38096,-2.75715l2.66191,-16.42861a2.38096,2.38096 0 0 1 2.35239,-2.00001l14.30956,0a2.38096,2.38096 0 0 1 2.35239,2.00001l2.64763,16.43338a2.38096,2.38096 0 0 1 -2.35239,2.75715l0,-0.00476zm-16.81433,-4.76192l14.01908,0l-1.90477,-11.6667l-10.2286,0l-1.88572,11.6667z" stroke-width="5" stroke-miterlimit="10" stroke-dasharray=""></path><path data-v-9833e8b2="" transform="scale(0.13157894736842105)" fill="none" stroke="currentColor" paint-order="fill stroke markers" d="m51.4517,113.88123c-6.40002,0 -12.44765,-5.79049 -12.44765,-11.90479a2.38096,2.38096 0 0 1 4.76192,0c0,3.54287 3.88096,7.14288 7.68573,7.14288s7.6905,-3.61429 7.6905,-7.14288a2.38096,2.38096 0 0 1 4.76192,0c0,6.1143 -6.04763,11.90479 -12.45241,11.90479zm25.61435,26.78578l-8.48097,0a2.38096,2.38096 0 0 1 -2.25715,-3.13334l11.38574,-34.20485a2.38096,2.38096 0 0 1 2.25715,-1.62858l61.71444,0.47619a2.38096,2.38096 0 0 1 1.08572,4.49049l-64.61921,33.72866a2.41429,2.41429 0 0 1 -1.08572,0.27143zm-5.1762,-4.76192l4.59525,0l55.63347,-29.04769l-50.45251,-0.38095l-9.77622,29.42865zm-37.962,5.20954l-4.64287,0a2.38096,2.38096 0 0 1 -1.27619,-0.37619l-25.90483,-16.49528a2.38096,2.38096 0 0 1 1.27619,-4.39049l30.5477,0a2.38096,2.38096 0 0 1 2.38096,2.38096l0,16.50004a2.38096,2.38096 0 0 1 -2.38096,2.38096zm-3.96668,-4.76192l1.58572,0l0,-11.73812l-20.00005,0l18.41433,11.73812zm111.19552,35.83819l-119.25268,0a2.38096,2.38096 0 0 1 0,-4.76192l119.25268,0a2.38096,2.38096 0 1 1 0,4.76192zm-85.98593,-12.95241l-7.3143,0a2.38096,2.38096 0 1 1 0,-4.76192l7.32859,0a2.38096,2.38096 0 1 1 0,4.76192l-0.01429,0zm131.97176,-58.62872l-13.19527,0a1.42858,1.42858 0 0 1 0,-2.85715l13.19527,0a1.42858,1.42858 0 0 1 0,2.85715z" stroke-width="5" stroke-miterlimit="10" stroke-dasharray=""></path><path data-v-9833e8b2="" transform="scale(0.13157894736842105)" fill="none" stroke="currentColor" paint-order="fill stroke markers" d="m142.37574,106.70503l-13.78099,0a2.38096,2.38096 0 0 1 -2.38096,-2.38096l0,-41.34296a2.38096,2.38096 0 0 1 2.38096,-2.38096l13.78099,0a2.38096,2.38096 0 0 1 2.38096,2.38096l0,41.34296a2.38096,2.38096 0 0 1 -2.38096,2.38096zm-11.40003,-4.76192l9.01907,0l0,-36.58104l-9.01907,0l0,36.58104z" stroke-width="5" stroke-miterlimit="10" stroke-dasharray=""></path><path data-v-9833e8b2="" transform="scale(0.13157894736842105)" fill="none" stroke="currentColor" paint-order="fill stroke markers" d="m186.65204,161.19564l-13.19527,0a2.38096,2.38096 0 0 1 -2.38096,-2.38096l0,-31.28579a2.38096,2.38096 0 0 1 2.38096,-2.38096l1.4,0l0,-38.90962l-32.18103,0a2.38096,2.38096 0 0 1 -2.38096,-2.38096l0,-6.78097a2.38096,2.38096 0 0 1 2.38096,-2.38096l36.19057,0a7.56192,7.56192 0 0 1 7.54764,7.5524l0,42.90011l0.25714,0a2.38096,2.38096 0 0 1 2.38096,2.38096l0,31.28579a2.38096,2.38096 0 0 1 -2.40001,2.38096zm-10.81431,-4.76192l8.43336,0l0,-26.52388l-0.25714,0a2.38096,2.38096 0 0 1 -2.38096,-2.38096l0,-45.28107a2.79048,2.79048 0 0 0 -2.78572,-2.79048l-33.80961,0l0,2.01905l32.20008,0a2.38096,2.38096 0 0 1 2.38096,2.38096l0,43.67154a2.38096,2.38096 0 0 1 -2.38096,2.38096l-1.4,0l0,26.52388zm-47.24298,-66.69064l-17.22385,0a9.52383,9.52383 0 1 1 0,-19.07148l17.22385,0a2.38096,2.38096 0 0 1 2.38096,2.38096l0,14.30956a2.38096,2.38096 0 0 1 -2.38096,2.38096zm-17.22385,-14.30956a4.76192,4.76192 0 1 0 0,9.54764l14.84289,0l0,-9.54764l-14.84289,0zm12.2286,-6.10002l-7.32859,0a1.42858,1.42858 0 1 1 0,-2.85715l7.32859,0a1.42858,1.42858 0 0 1 0,2.85715z" stroke-width="5" stroke-miterlimit="10" stroke-dasharray=""></path><path data-v-9833e8b2="" transform="scale(0.13157894736842105)" fill="none" stroke="currentColor" paint-order="fill stroke markers" d="m112.36138,86.43355a1.42858,1.42858 0 0 1 -1.42858,-1.42857l0,-11.7286a1.42858,1.42858 0 0 1 2.85715,0l0,11.7286a1.42858,1.42858 0 0 1 -1.42857,1.42857z" stroke-width="5" stroke-miterlimit="10" stroke-dasharray=""></path><path data-v-9833e8b2="" transform="scale(0.13157894736842105)" fill="none" stroke="currentColor" paint-order="fill stroke markers" d="m112.36138,79.18115l14.66194,0l0,2.85715l-14.66194,0l0,-2.85715zm35.19057,-6.43335a1.42858,1.42858 0 0 1 -1.42858,-1.42857l0,-5.3762a1.42858,1.42858 0 0 1 2.85715,0l0,5.3762a1.42858,1.42858 0 0 1 -1.42858,1.42857l0,0zm0,24.44292a1.42858,1.42858 0 0 1 -1.42858,-1.42857l0,-5.3762a1.42858,1.42858 0 0 1 2.85715,0l0,5.3762a1.42858,1.42858 0 0 1 -1.42858,1.42857l0,0zm-125.77651,75.00019a2.38096,2.38096 0 0 1 -2.38096,-2.38096l0,-100.18121a2.38096,2.38096 0 0 1 4.76192,0l0,100.18121a2.38096,2.38096 0 0 1 -2.38096,2.38096zm59.89063,0a2.38096,2.38096 0 0 1 -2.38096,-2.38096l0,-100.18121a2.38096,2.38096 0 0 1 4.76192,0l0,100.18121a2.38096,2.38096 0 0 1 -2.38096,2.38096zm-6.94287,-97.97644l-4.14287,0a1.42858,1.42858 0 0 1 0,-2.85715l4.14287,0a1.42858,1.42858 0 0 1 0,2.85715zm-14.52861,0l-30.43341,0a1.42858,1.42858 0 0 1 0,-2.85715l30.43817,0a1.42858,1.42858 0 0 1 0,2.85715l-0.00476,0zm13.06194,-15.15242a1.42858,1.42858 0 0 1 -1.42858,-1.42858l0,-28.34769a1.42858,1.42858 0 0 1 2.85715,0l0,28.34769a1.42858,1.42858 0 0 1 -1.42857,1.42858zm-51.31918,1.95715a1.42858,1.42858 0 0 1 -1.42857,-1.42858l0,-31.85722a1.42858,1.42858 0 0 1 2.85715,0l0,31.85722a1.42858,1.42858 0 0 1 -1.42858,1.42858zm38.9001,-47.70012l-31.85722,0a1.42858,1.42858 0 0 1 0,-2.85715l31.85722,0a1.42858,1.42858 0 0 1 0,2.85715zm-38.9001,6.28573a1.42858,1.42858 0 0 1 -1.42857,-1.42858l0,-6.46192a1.42858,1.42858 0 0 1 2.85715,0l0,6.46192a1.42858,1.42858 0 0 1 -1.42858,1.42858zm58.16205,29.68579a1.42858,1.42858 0 0 1 -1.42857,-1.42857l0,-9.2905a1.42858,1.42858 0 0 1 2.85715,0l0,9.2905a1.42858,1.42858 0 0 1 -1.42858,1.42857zm6.35716,79.18115a1.42858,1.42858 0 0 1 -0.7381,-2.65239c3.06667,-1.84286 5.88097,-3.45239 8.85716,-5.16192c1.75715,-1.00476 3.53334,-2.02382 5.38573,-3.10477a1.42858,1.42858 0 1 1 1.42857,2.46667c-1.85715,1.08572 -3.64287,2.10477 -5.40001,3.11429c-2.96667,1.70477 -5.77144,3.30953 -8.80955,5.13335a1.42858,1.42858 0 0 1 -0.72381,0.20476zm18.69052,-10.54288a1.42858,1.42858 0 0 1 -0.64762,-2.70001l2.31905,-1.19048a1.42858,1.42858 0 0 1 1.30477,2.54286l-2.32382,1.19048a1.46191,1.46191 0 0 1 -0.65238,0.15714zm-70.01446,27.64769l-4.41906,0a1.42858,1.42858 0 0 1 0,-2.85715l4.40001,0a1.42858,1.42858 0 0 1 0,2.85715l0.01905,0zm40.56677,0l-7.81907,0a1.42858,1.42858 0 0 1 0,-2.85715l7.81907,0a1.42858,1.42858 0 1 1 0,2.85715zm0,7.79526l-46.91917,0a2.38096,2.38096 0 0 1 0,-4.76192l46.91917,0a2.38096,2.38096 0 1 1 0,4.76192z" stroke-width="5" stroke-miterlimit="10" stroke-dasharray=""></path></g></svg>