<svg data-v-9833e8b2="" version="1.1" xmlns="http://www.w3.org/2000/svg" xmlns:xlink="http://www.w3.org/1999/xlink" width="25" height="22.5"><g data-v-9833e8b2=""><path data-v-9833e8b2="" transform="scale(0.12376237623762376)" fill="none" stroke="currentColor" paint-order="fill stroke markers" d="m201.0005,1l0,12.50003l-25.00006,0l0,62.50016l25.00006,0l0,62.50016l-62.50016,0l0,-62.50016l25.00006,0l0,-62.50016l-37.50009,0l0,175.00044l-50.00013,0l0,-175.00044l-37.50009,0l0,37.50009l25.00006,0l0,62.50016l-62.50016,0l0,-62.50016l25.00006,0l0,-37.50009l-25.00006,0l0,-12.50003l200.0005,0zm-87.50022,160.2504l-20.87505,14.75004l20.87505,0l0,-14.75004zm-25.00006,-26.96257l0,41.71261l27.33757,-23.35006l-27.33757,-18.36255zm25.00006,-25.90007l-24.96256,18.82505l24.96256,17.03754l0,-35.87509l0,0.0125zm75.00019,-19.88755l-37.50009,0l0,37.50009l37.50009,0l0,-37.50009zm-100.00025,-8.83752l0,40.5251l27.27507,-20.22505l-27.27507,-20.30005zm-37.50009,-16.16254l-37.50009,0l0,37.50009l37.50009,0l0,-37.50009zm62.50016,-12.67503l-25.61256,21.42505l25.61256,19.27505l0,-40.7001zm-25.00006,-24.95006l0,38.9751l25.12506,-21.10005l-25.12506,-17.87505zm25.00006,0l-9.87502,0l9.87502,10.82503l0,-10.82503z" stroke-width="5" stroke-miterlimit="10" stroke-dasharray=""></path></g></svg>