<svg data-v-9833e8b2="" version="1.1" xmlns="http://www.w3.org/2000/svg" xmlns:xlink="http://www.w3.org/1999/xlink" width="25" height="20"><g data-v-9833e8b2=""><path data-v-9833e8b2="" transform="scale(0.12953367875647667)" fill="none" stroke="currentColor" paint-order="fill stroke markers" d="m1,1l168.5,0l0,137.3c0,11 -8.9,20 -20,20l-128.5,0c-11,0 -20,-8.9 -20,-20l0,-137.3l0,0z" stroke-width="5" stroke-miterlimit="10" stroke-dasharray=""></path><path data-v-9833e8b2="" transform="scale(0.12953367875647667)" fill="none" stroke="currentColor" paint-order="fill stroke markers" d="m1,33.4l144.5,0l0,2.5l-144.5,0l0,-2.5l0,0z" stroke-width="5" stroke-miterlimit="10" stroke-dasharray=""></path><path data-v-9833e8b2="" transform="scale(0.12953367875647667)" fill="none" stroke="currentColor" paint-order="fill stroke markers" d="m144.6,1l47.4,0l0,35l-17.4,12.5l-12.5,0l-17.5,-12.5l0,-35l0,0z" stroke-width="5" stroke-miterlimit="10" stroke-dasharray=""></path><path data-v-9833e8b2="" transform="scale(0.12953367875647667)" fill="none" stroke="currentColor" paint-order="fill stroke markers" d="m123.3,30.9l0,103.6l15,0c1,0 1.9,-0.6 2.3,-1.6l-3.6,-5.9l3.7,0l7.5,0l3.7,0l-3.7,6.2l0,1.2c0,4.1 -3.4,7.5 -7.5,7.5l-109.7,0c-4.1,0 -7.5,-3.4 -7.5,-7.5l0,-1.2l-3.7,-6.2l3.7,0l7.5,0l3.7,0l-3.6,5.9c0.4,0.9 1.3,1.6 2.3,1.6l17.5,0l0,-1.3l-3.7,-6.2l15,0l-3.7,6.2l0,1.2l27.5,0l0,-1.2l-3.7,-6.2l15,0l-3.7,6.2l0,1.2l20,0l0,-105.9c0,-5.5 4.5,-10 10,-10l35,0l0,10l-32.5,0c-1.6,0 -2.8,1.1 -2.8,2.4z" stroke-width="5" stroke-miterlimit="10" stroke-dasharray=""></path><path data-v-9833e8b2="" transform="scale(0.12953367875647667)" fill="none" stroke="currentColor" paint-order="fill stroke markers" d="m18.5,122.1l17.5,0l0,7.5l-17.5,0l0,-7.5l0,0z" stroke-width="5" stroke-miterlimit="10" stroke-dasharray=""></path><path data-v-9833e8b2="" transform="scale(0.12953367875647667)" fill="none" stroke="currentColor" paint-order="fill stroke markers" d="m46,122.1l17.5,0l0,7.5l-17.5,0l0,-7.5l0,0z" stroke-width="5" stroke-miterlimit="10" stroke-dasharray=""></path><path data-v-9833e8b2="" transform="scale(0.12953367875647667)" fill="none" stroke="currentColor" paint-order="fill stroke markers" d="m80.9,122.1l17.5,0l0,7.5l-17.5,0l0,-7.5l0,0z" stroke-width="5" stroke-miterlimit="10" stroke-dasharray=""></path><path data-v-9833e8b2="" transform="scale(0.12953367875647667)" fill="none" stroke="currentColor" paint-order="fill stroke markers" d="m135.8,122.1l17.5,0l0,7.5l-17.5,0l0,-7.5l0,0z" stroke-width="5" stroke-miterlimit="10" stroke-dasharray=""></path><path data-v-9833e8b2="" transform="scale(0.12953367875647667)" fill="none" stroke="currentColor" paint-order="fill stroke markers" d="m158.3,14.7l20,0l0,17.5l-20,0l0,-17.5l0,0z" stroke-width="5" stroke-miterlimit="10" stroke-dasharray=""></path></g></svg>