<svg data-v-9833e8b2="" version="1.1" xmlns="http://www.w3.org/2000/svg" xmlns:xlink="http://www.w3.org/1999/xlink" width="25" height="20"><g data-v-9833e8b2=""><path data-v-9833e8b2="" transform="scale(0.12376237623762376)" fill="none" stroke="currentColor" paint-order="fill stroke markers" d="m25.19765,113.99569l21.99786,0l0,25.29754l-30.79701,0l0,15.69181l184.70873,0l0,-15.69181l-20.53134,0l0,-15.03187l12.61211,0a7.91923,7.91923 0 0 0 7.91923,-7.84591l0,-51.32835a7.91923,7.91923 0 0 0 -7.91923,-7.84591l-12.61211,0l0,-20.38469l-46.41549,0l0,20.45801l-18.77151,0a7.77258,7.77258 0 0 0 -5.49946,2.41977l-6.23273,6.45271l0,11.65887l-15.25185,0l0,-10.26567l-10.26567,0l0,-25.22422l15.3985,0l0,-25.95748l-15.3985,0l0,-15.3985l-25.81083,0l0,15.3985l-15.47183,0l0,25.95748l15.47183,0l0,25.22422l-27.1307,0l-10.26567,10.26567l-13.93198,0l0,5.42614l10.26567,0l0,14.66524l-10.26567,0l0,5.71945l13.93198,0l10.26567,10.339zm149.87878,25.29754l-35.41656,0l0,-15.03187l35.41656,0l0,15.03187zm0.36663,-76.47924l12.68544,0a7.33262,7.33262 0 0 1 7.33262,7.33262l0,40.8427a7.33262,7.33262 0 0 1 -7.33262,7.33262l-12.68544,0l0,-55.50794zm-35.78319,-20.45801l35.41656,0l0,14.66524l-35.41656,0l0,-14.66524zm-5.13283,20.45801l35.48989,0l0,15.03187l-35.48989,0l0,-15.03187zm0,20.45801l35.48989,0l0,14.66524l-35.48989,0l0,-14.66524zm0,20.53134l35.48989,0l0,14.66524l-35.48989,0l0,-14.66524zm-61.814,35.48989l-20.38469,0l0,-25.29754l20.38469,0l0,25.29754zm36.14982,-68.99997a7.33262,7.33262 0 0 1 7.33262,-7.33262l12.61211,0l0,55.9479l-12.39213,0a7.33262,7.33262 0 0 1 -7.33262,-7.33262l-0.21998,-41.28266zm-20.45801,12.97874l15.25185,0l0,14.66524l-15.25185,0l0,-14.66524zm0,20.53134l15.25185,0l0,11.58554l6.45271,6.52603a7.77258,7.77258 0 0 0 5.49947,2.34644l18.77151,0l0,15.03187l-56.24121,0l0,-25.29754l10.26567,0l0,-10.19234zm-71.71304,-19.13814l11.65887,-11.58554l29.33048,0l0,-36.22315l-15.32518,0l0,-14.66524l15.32518,0l0,-15.69181l14.66524,0l0,15.32518l15.32518,0l0,15.03187l-14.95855,0l0,36.22315l10.19234,0l0,35.48989l-54.5547,0l-11.65887,-11.65887l0,-12.24548z" stroke-width="5" stroke-miterlimit="10" stroke-dasharray=""></path></g></svg>