<svg data-v-9833e8b2="" version="1.1" xmlns="http://www.w3.org/2000/svg" xmlns:xlink="http://www.w3.org/1999/xlink" width="17" height="25"><g data-v-9833e8b2=""><path data-v-9833e8b2="" transform="scale(0.1497005988023952)" fill="none" stroke="currentColor" paint-order="fill stroke markers" d="m1,162.40041l104.50026,0l0,3.60001l-104.50026,0l0,-3.60001z" stroke-width="5" stroke-miterlimit="10" stroke-dasharray=""></path><path data-v-9833e8b2="" transform="scale(0.1497005988023952)" fill="none" stroke="currentColor" paint-order="fill stroke markers" d="m79.0002,4.50001l0,158.0004l15.30004,0l0,-143.80036s-0.3,-9.10002 -15.30004,-14.20004z" stroke-width="5" stroke-miterlimit="10" stroke-dasharray=""></path><path data-v-9833e8b2="" transform="scale(0.1497005988023952)" fill="none" stroke="currentColor" paint-order="fill stroke markers" d="m63.20016,1.4l0,161.00041l15.80004,0l0,-158.0004c-4.10001,-1.4 -9.30002,-2.40001 -15.80004,-3.00001z" stroke-width="5" stroke-miterlimit="10" stroke-dasharray=""></path><path data-v-9833e8b2="" transform="scale(0.1497005988023952)" fill="none" stroke="currentColor" paint-order="fill stroke markers" d="m53.70013,1c-3.60001,0 -6.80002,0.1 -9.80002,0.4l0,161.00041l19.40005,0l0,-161.00041c-3.00001,-0.2 -6.20002,-0.4 -9.60002,-0.4z" stroke-width="5" stroke-miterlimit="10" stroke-dasharray=""></path><path data-v-9833e8b2="" transform="scale(0.1497005988023952)" fill="none" stroke="currentColor" paint-order="fill stroke markers" d="m27.90007,4.50001l0,157.9004l16.00004,0l0,-161.00041c-6.70002,0.6 -11.90003,1.7 -16.00004,3.10001z" stroke-width="5" stroke-miterlimit="10" stroke-dasharray=""></path><path data-v-9833e8b2="" transform="scale(0.1497005988023952)" fill="none" stroke="currentColor" paint-order="fill stroke markers" d="m12.60003,162.40041l15.30004,0l0,-157.8004c-14.80004,5.10001 -15.20004,14.10004 -15.20004,14.10004l-0.1,143.70036z" stroke-width="5" stroke-miterlimit="10" stroke-dasharray=""></path><path data-v-9833e8b2="" transform="scale(0.1497005988023952)" fill="none" stroke="currentColor" paint-order="fill stroke markers" d="m9.80002,91.30023l18.30005,0l0,3.60001l-18.30005,0l0,-3.60001z" stroke-width="5" stroke-miterlimit="10" stroke-dasharray=""></path><path data-v-9833e8b2="" transform="scale(0.1497005988023952)" fill="none" stroke="currentColor" paint-order="fill stroke markers" d="m12.10003,92.50023l16.00004,0l0,1.2l-16.00004,0l0,-1.2z" stroke-width="5" stroke-miterlimit="10" stroke-dasharray=""></path><path data-v-9833e8b2="" transform="scale(0.1497005988023952)" fill="none" stroke="currentColor" paint-order="fill stroke markers" d="m78.30019,91.30023l18.30005,0l0,3.60001l-18.30005,0l0,-3.60001z" stroke-width="5" stroke-miterlimit="10" stroke-dasharray=""></path><path data-v-9833e8b2="" transform="scale(0.1497005988023952)" fill="none" stroke="currentColor" paint-order="fill stroke markers" d="m78.30019,92.50023l16.00004,0l0,1.2l-16.00004,0l0,-1.2z" stroke-width="5" stroke-miterlimit="10" stroke-dasharray=""></path><path data-v-9833e8b2="" transform="scale(0.1497005988023952)" fill="none" stroke="currentColor" paint-order="fill stroke markers" d="m28.10007,91.30023l16.00004,0l0,3.60001l-16.00004,0l0,-3.60001z" stroke-width="5" stroke-miterlimit="10" stroke-dasharray=""></path><path data-v-9833e8b2="" transform="scale(0.1497005988023952)" fill="none" stroke="currentColor" paint-order="fill stroke markers" d="m28.10007,92.50023l16.00004,0l0,1.2l-16.00004,0l0,-1.2z" stroke-width="5" stroke-miterlimit="10" stroke-dasharray=""></path><path data-v-9833e8b2="" transform="scale(0.1497005988023952)" fill="none" stroke="currentColor" paint-order="fill stroke markers" d="m44.10011,91.30023l18.30005,0l0,3.60001l-18.30005,0l0,-3.60001z" stroke-width="5" stroke-miterlimit="10" stroke-dasharray=""></path><path data-v-9833e8b2="" transform="scale(0.1497005988023952)" fill="none" stroke="currentColor" paint-order="fill stroke markers" d="m44.10011,92.50023l18.30005,0l0,1.2l-18.30005,0l0,-1.2z" stroke-width="5" stroke-miterlimit="10" stroke-dasharray=""></path><path data-v-9833e8b2="" transform="scale(0.1497005988023952)" fill="none" stroke="currentColor" paint-order="fill stroke markers" d="m62.30015,91.30023l16.00004,0l0,3.60001l-16.00004,0l0,-3.60001z" stroke-width="5" stroke-miterlimit="10" stroke-dasharray=""></path><path data-v-9833e8b2="" transform="scale(0.1497005988023952)" fill="none" stroke="currentColor" paint-order="fill stroke markers" d="m62.30015,92.50023l16.00004,0l0,1.2l-16.00004,0l0,-1.2z" stroke-width="5" stroke-miterlimit="10" stroke-dasharray=""></path><path data-v-9833e8b2="" transform="scale(0.1497005988023952)" fill="none" stroke="currentColor" paint-order="fill stroke markers" d="m9.80002,16.60004l18.30005,0l0,3.60001l-18.30005,0l0,-3.60001z" stroke-width="5" stroke-miterlimit="10" stroke-dasharray=""></path><path data-v-9833e8b2="" transform="scale(0.1497005988023952)" fill="none" stroke="currentColor" paint-order="fill stroke markers" d="m12.10003,17.80004l16.00004,0l0,1.2l-16.00004,0l0,-1.2z" stroke-width="5" stroke-miterlimit="10" stroke-dasharray=""></path><path data-v-9833e8b2="" transform="scale(0.1497005988023952)" fill="none" stroke="currentColor" paint-order="fill stroke markers" d="m78.30019,16.60004l18.30005,0l0,3.60001l-18.30005,0l0,-3.60001z" stroke-width="5" stroke-miterlimit="10" stroke-dasharray=""></path><path data-v-9833e8b2="" transform="scale(0.1497005988023952)" fill="none" stroke="currentColor" paint-order="fill stroke markers" d="m78.30019,17.80004l16.00004,0l0,1.2l-16.00004,0l0,-1.2z" stroke-width="5" stroke-miterlimit="10" stroke-dasharray=""></path><path data-v-9833e8b2="" transform="scale(0.1497005988023952)" fill="none" stroke="currentColor" paint-order="fill stroke markers" d="m28.10007,16.60004l16.00004,0l0,3.60001l-16.00004,0l0,-3.60001z" stroke-width="5" stroke-miterlimit="10" stroke-dasharray=""></path><path data-v-9833e8b2="" transform="scale(0.1497005988023952)" fill="none" stroke="currentColor" paint-order="fill stroke markers" d="m28.10007,17.80004l16.00004,0l0,1.2l-16.00004,0l0,-1.2z" stroke-width="5" stroke-miterlimit="10" stroke-dasharray=""></path><path data-v-9833e8b2="" transform="scale(0.1497005988023952)" fill="none" stroke="currentColor" paint-order="fill stroke markers" d="m44.10011,16.60004l18.30005,0l0,3.60001l-18.30005,0l0,-3.60001z" stroke-width="5" stroke-miterlimit="10" stroke-dasharray=""></path><path data-v-9833e8b2="" transform="scale(0.1497005988023952)" fill="none" stroke="currentColor" paint-order="fill stroke markers" d="m44.10011,17.80004l18.30005,0l0,1.2l-18.30005,0l0,-1.2z" stroke-width="5" stroke-miterlimit="10" stroke-dasharray=""></path><path data-v-9833e8b2="" transform="scale(0.1497005988023952)" fill="none" stroke="currentColor" paint-order="fill stroke markers" d="m62.30015,16.60004l16.00004,0l0,3.60001l-16.00004,0l0,-3.60001z" stroke-width="5" stroke-miterlimit="10" stroke-dasharray=""></path><path data-v-9833e8b2="" transform="scale(0.1497005988023952)" fill="none" stroke="currentColor" paint-order="fill stroke markers" d="m62.30015,17.80004l16.00004,0l0,1.2l-16.00004,0l0,-1.2z" stroke-width="5" stroke-miterlimit="10" stroke-dasharray=""></path></g></svg>