<svg data-v-9833e8b2="" version="1.1" xmlns="http://www.w3.org/2000/svg" xmlns:xlink="http://www.w3.org/1999/xlink" width="25" height="12.5"><g data-v-9833e8b2=""><path data-v-9833e8b2="" transform="scale(0.13157894736842105)" fill="none" stroke="currentColor" paint-order="fill stroke markers" d="m52.49502,15.60993l-10.47093,16.35355l-19.55739,0.0072l0,19.22981l-7.00987,0l0,-19.22981l-14.45684,0l0,26.91162l5.41054,0l0,25.93268l9.04669,0l0,-18.25427l7.00986,0l0,18.25427l16.97154,-0.01079l17.49258,15.76895l77.78766,0l18.93681,-17.06747l12.61508,0l0.01999,7.7034c5.98136,0 11.96272,0 17.94208,0l5.56964,-5.23586c0,-16.74449 0,-33.49258 0,-50.23707l-5.56964,-5.23606l-17.48039,0l0,7.70699l-10.2125,0l0,-10.20311l-21.90081,0l-13.56024,-12.39443l-20.79655,0l0,-4.17798l20.79675,0l0,-10.43155l-68.58407,0l0,10.43155l20.79855,0l0,4.17798l-20.79855,0l0,0.0004z" stroke-width="5" stroke-miterlimit="10" stroke-dasharray=""></path></g></svg>