<svg data-v-9833e8b2="" version="1.1" xmlns="http://www.w3.org/2000/svg" xmlns:xlink="http://www.w3.org/1999/xlink" width="25" height="17.5"><g data-v-9833e8b2=""><path data-v-9833e8b2="" transform="scale(0.13297872340425532)" fill="none" stroke="currentColor" paint-order="fill stroke markers" d="m18.4,117.4l0,-52.4l76.3,0l0,52.4l-76.3,0l0,0z" stroke-width="5" stroke-miterlimit="10" stroke-dasharray=""></path><path data-v-9833e8b2="" transform="scale(0.13297872340425532)" fill="none" stroke="currentColor" paint-order="fill stroke markers" d="m1,123.2l0,-64l17.4,0l0,64l-17.4,0l0,0z" stroke-width="5" stroke-miterlimit="10" stroke-dasharray=""></path><path data-v-9833e8b2="" transform="scale(0.13297872340425532)" fill="none" stroke="currentColor" paint-order="fill stroke markers" d="m35.9,59.2c0,-32.1 26.1,-58.2 58.2,-58.2s58.2,26 58.2,58.2c0,32.1 -26,58.2 -58.2,58.2s-58.2,-26.1 -58.2,-58.2l0,0z" stroke-width="5" stroke-miterlimit="10" stroke-dasharray=""></path><path data-v-9833e8b2="" transform="scale(0.13297872340425532)" fill="none" stroke="currentColor" paint-order="fill stroke markers" d="m76.6,62.1l0,-5.8c0,-12.9 10.4,-23.3 23.3,-23.3l69.8,0l0,52.4l-69.8,0c-12.9,0 -23.3,-10.4 -23.3,-23.3l0,0z" stroke-width="5" stroke-miterlimit="10" stroke-dasharray=""></path><path data-v-9833e8b2="" transform="scale(0.13297872340425532)" fill="none" stroke="currentColor" paint-order="fill stroke markers" d="m169.7,91.2l0,-64l17.5,0l0,64l-17.5,0l0,0z" stroke-width="5" stroke-miterlimit="10" stroke-dasharray=""></path></g></svg>