<svg data-v-9833e8b2="" version="1.1" xmlns="http://www.w3.org/2000/svg" xmlns:xlink="http://www.w3.org/1999/xlink" width="25" height="12.5"><g data-v-9833e8b2=""><path data-v-9833e8b2="" transform="scale(0.12626262626262627)" fill="none" stroke="currentColor" paint-order="fill stroke markers" d="m197.00049,10.72734l0,-7.40002l-15.40004,0l-0.4,-1.2c-0.2,-0.8 -1.2,-1.4 -2.00001,-1c-0.8,0.2 -1.4,1.2 -1,2.00001l0,0.2l-27.00007,1.2c-3.00001,-0.6 -6.20002,-0.6 -9.40002,0.4l-69.60018,22.60006c-5.00001,1.6 -8.80002,5.20001 -10.60003,9.60002c-1.4,3.00001 -1.8,6.40002 -1.4,9.80002c0.2,1 0.4,2.00001 0.6,2.80001l1,2.80001l-10.20003,3.40001l2.80001,8.40002l3.20001,-1l-3.00001,12.80003l-4.20001,0l0,4.40001l0,-47.80012l-46.80012,0l0,7.00002l4.00001,0l0,20.40005l-4.00001,0l0,20.20005l-2.60001,0l0,13.40003l19.80005,0c2.00001,4.20001 6.20002,7.00002 11.20003,7.00002c4.80001,0 9.20002,-2.80001 11.20003,-7.00002l9.40002,0c2.00001,4.20001 6.20002,7.00002 11.00003,7.00002s9.20002,-2.80001 11.00003,-7.00002l24.60006,0c2.00001,4.20001 6.20002,7.00002 11.00003,7.00002s9.20002,-2.80001 11.00003,-7.00002l9.40002,0c2.00001,4.20001 6.20002,7.00002 11.20003,7.00002c6.80002,0 12.40003,-5.60001 12.40003,-12.40003c0,-1.2 -0.2,-2.40001 -0.6,-3.60001l9.60002,0l0,12.40003l13.20003,0l0,-57.20014l11.20003,-7.40002c0.4,0.6 1.2,1 1.8,0.6c0.8,-0.2 1.4,-1.2 1,-2.00001l-3.40001,-10.60003l10.00003,-9.80002zm-185.00047,29.20007l17.20004,0l0,20.40005l-17.20004,0l0,-20.40005zm20.00005,55.60014c-1.8,0 -3.60001,-0.6 -4.80001,-1.8c-1.4,-1.4 -2.40001,-3.20001 -2.40001,-5.40001c0,-4.00001 3.20001,-7.20002 7.20002,-7.20002s7.20002,3.20001 7.20002,7.20002c0,2.20001 -1,4.00001 -2.40001,5.40001c-1.4,1.2 -3.00001,1.8 -4.80001,1.8zm37.8001,-24.60006c1,1 2.20001,1.8 3.40001,2.60001c4.20001,2.40001 9.40002,3.20001 14.20004,1.6l61.00015,-19.80005l0,20.60005l-7.20002,0l0,-5.20001l-14.80004,0l0,5.20001l-7.20002,0l0,-5.20001l-14.80004,0l0,5.20001l-34.00009,0l-0.6,-5.00001zm-6.40002,24.60006c-1.8,0 -3.60001,-0.6 -4.80001,-1.8c-1.4,-1.4 -2.40001,-3.20001 -2.40001,-5.40001c0,-4.00001 3.20001,-7.20002 7.20002,-7.20002s7.20002,3.20001 7.20002,7.20002c0,2.20001 -1,4.00001 -2.40001,5.40001c-1.2,1.2 -2.80001,1.8 -4.80001,1.8zm46.80012,0c-1.8,0 -3.60001,-0.6 -4.80001,-1.8c-1.4,-1.4 -2.40001,-3.20001 -2.40001,-5.40001c0,-4.00001 3.20001,-7.20002 7.20002,-7.20002s7.20002,3.20001 7.20002,7.20002c0,2.20001 -1,4.00001 -2.40001,5.40001c-1.2,1.2 -3.00001,1.8 -4.80001,1.8zm31.60008,0c-1.8,0 -3.60001,-0.6 -4.80001,-1.8c-1.4,-1.4 -2.40001,-3.20001 -2.40001,-5.40001c0,-4.00001 3.20001,-7.20002 7.20002,-7.20002s7.20002,3.20001 7.20002,7.20002c0,2.20001 -1,4.00001 -2.40001,5.40001c-1.2,1.2 -3.00001,1.8 -4.80001,1.8z" stroke-width="5" stroke-miterlimit="10" stroke-dasharray=""></path></g></svg>