<svg data-v-9833e8b2="" version="1.1" xmlns="http://www.w3.org/2000/svg" xmlns:xlink="http://www.w3.org/1999/xlink" width="22" height="25"><g data-v-9833e8b2=""><path data-v-9833e8b2="" transform="scale(0.12376237623762376)" fill="none" stroke="currentColor" paint-order="fill stroke markers" d="m158.2244,189.27547l-14.61604,0c-0.956,0 -1.776,0.828 -1.776,1.793l0,8.13802c0,0.965 -0.819,1.794 -1.775,1.794l-13.66003,0c-0.956,0 -1.776,-0.829 -1.776,-1.794l0,-8.13802c0,-0.965 -0.819,-1.793 -1.776,-1.793l-6.41902,0c-0.956,0 -1.776,-0.828 -1.776,-1.794l0,-49.10312c0,-0.965 0.82,-1.792 1.776,-1.792l6.41902,0c0.957,0 1.776,-0.828 1.776,-1.793l0,-8.13902c0,-0.965 0.82,-1.793 1.776,-1.793l13.66003,0c0.956,0 1.775,0.828 1.775,1.793l0,8.13902c0,0.965 0.82,1.793 1.776,1.793l14.61604,0c0.956,0 1.776,0.827 1.776,1.792l0,49.10312c0,0.966 -0.82,1.794 -1.776,1.794zm-59.37715,-69.22317c0.056,0.171 0.094,0.348 0.094,0.534l0,14.34504c0,0.965 0.819,1.793 1.775,1.793l2.18601,0c0.957,0 1.776,0.827 1.776,1.793l0,49.10312c0,0.965 -0.819,1.793 -1.776,1.793l-2.18601,0c-0.956,0 -1.775,0.828 -1.775,1.794l0,2.06701c0,0.966 -0.819,1.795 -1.776,1.795l-32.10108,0c-0.956,0 -1.776,-0.829 -1.776,-1.795l0,-2.06701c0,-0.966 -0.819,-1.794 -1.775,-1.794l-2.45901,0c-0.957,0 -1.776,-0.828 -1.776,-1.793l0,-49.10312c0,-0.966 0.819,-1.793 1.776,-1.793l2.45901,0c0.956,0 1.775,-0.828 1.775,-1.793l0,-14.34504c0,-0.062 0.013,-0.121 0.019,-0.181c-24.95806,-7.48302 -43.18311,-30.81808 -43.18311,-58.44015c0,-33.65408 27.04607,-60.96515 60.37615,-60.96515c33.46608,0 60.37615,27.31107 60.37615,60.96515c0,27.19507 -17.66404,50.23913 -42.02911,58.08715zm-18.34705,-99.74225c-22.81206,0 -41.2531,18.62105 -41.2531,41.6551c0,23.03406 18.44105,41.6551 41.2531,41.6551c22.81106,0 41.2531,-18.62105 41.2531,-41.6551c0,-23.03406 -18.44205,-41.6551 -41.2531,-41.6551zm20.56505,48.31512c-0.026,-0.064 -0.052,0.043 -0.076,-0.023l-2.95801,-8.38802l-7.07802,20.37305c-0.432,1.239 -1.549,2.11601 -2.83901,2.19701c-0.067,0.005 -0.135,0.018 -0.202,0.018a3.22001,3.22001 0 0 1 -2.88501,-1.804l-7.23602,-14.68504l-1.684,2.65001c-0.577,1.02 -1.646,1.308 -2.80301,1.308l-27.46007,0c-1.783,0 -3.22701,-1.697 -3.22701,-3.50701c0,-1.806 1.444,-3.50401 3.22701,-3.50401l25.58806,0l3.74601,-6.00602c0.579,-1.029 1.659,-1.005 2.81701,-1.005l0.072,0c1.19,0 2.26501,0.658 2.79601,1.739l6.53702,13.22703l7.58602,-21.66505c0.454,-1.307 1.673,-2.06401 3.03901,-2.06401l0.002,0c1.366,0 2.58401,0.163 3.04001,1.469l5.24301,14.30504l8.13502,0c1.779,0 3.22601,1.698 3.22601,3.50401c0,1.81 -1.447,3.50701 -3.22601,3.50701l-10.41403,0c-1.298,0 -2.46001,-0.448 -2.96601,-1.646zm-79.9852,66.16817l0,-10.07003c0,-0.965 0.819,-1.793 1.775,-1.793l13.66003,0c0.957,0 1.776,0.828 1.776,1.793l0,10.07003c0,0.965 0.819,1.793 1.776,1.793l5.46401,0c0.957,0 1.776,0.827 1.776,1.792l0,49.10312c0,0.966 -0.819,1.794 -1.776,1.794l-5.46401,0c-0.957,0 -1.776,0.828 -1.776,1.793l0,6.34502c0,0.965 -0.819,1.793 -1.776,1.793l-13.66003,0c-0.956,0 -1.775,-0.828 -1.775,-1.793l0,-6.34502c0,-0.965 -0.82,-1.793 -1.776,-1.793l-16.52804,0c-0.956,0 -1.776,-0.828 -1.776,-1.794l0,-49.10312c0,-0.965 0.82,-1.792 1.776,-1.792l16.52804,0c0.956,0 1.776,-0.828 1.776,-1.793z" stroke-width="5" stroke-miterlimit="10" stroke-dasharray=""></path></g></svg>