<svg data-v-9833e8b2="" version="1.1" xmlns="http://www.w3.org/2000/svg" xmlns:xlink="http://www.w3.org/1999/xlink" width="19.5" height="25"><g data-v-9833e8b2=""><path data-v-9833e8b2="" transform="scale(0.1366120218579235)" fill="none" stroke="currentColor" paint-order="fill stroke markers" d="m11.23877,1l59.95977,0l0,14.75238l-59.95977,0l0,-14.75238zm0,21.16646l59.95977,0l0,9.12225c-33.11566,0 -59.95977,26.84411 -59.95977,59.95977l0,-69.08201zm103.76555,132.1538l-87.73036,0l-16.10647,18.52956l0,9.45483l59.98352,0l59.95977,0.11878l0,-7.72065l-16.10647,-20.38252zm-43.80579,-94.64331l0,21.00017c-2.30432,0 -4.48986,0.66516 -6.31905,1.80544l-1.92423,-3.94347l-0.2138,-0.45136c-1.2353,-2.51812 -1.85296,-5.29755 -1.85296,-8.10075c0,-2.8507 1.16404,-5.41633 3.01699,-7.29305c1.94798,-1.92422 4.56112,-3.01699 7.29305,-3.01699zm0,24.94364l0,10.83267l-0.57014,-1.16404l-0.78394,-1.6154l-0.28507,-0.57014l-2.92197,-6.05774c1.28282,-0.90272 2.8507,-1.42535 4.56112,-1.42535zm4.53737,14.60985c-1.33033,0.92648 -2.92197,1.4016 -4.53737,1.4016l0,-10.73764l0.54638,1.14028l0.8077,1.63915l0.26132,0.57014l2.92197,5.98647zm5.77267,16.13022c0,2.8507 -1.16404,5.41633 -3.01699,7.29305c-1.87671,1.85296 -4.44234,3.01699 -7.29305,3.01699l0,-21.0952c2.20929,0 4.39483,-0.61765 6.2953,-1.78169l1.92422,3.91971l0.23756,0.49887c1.21155,2.56563 1.85296,5.32131 1.85296,8.14826zm0,0" stroke-width="5" stroke-miterlimit="10" stroke-dasharray=""></path><path data-v-9833e8b2="" transform="scale(0.1366120218579235)" fill="none" stroke="currentColor" paint-order="fill stroke markers" d="m79.20426,92.62631l0,0.04751l-10.78516,0l1.16404,-0.57014l1.63915,-0.78394l0.54638,-0.28507l6.05774,-2.94572c0.85521,1.28282 1.37784,2.8507 1.37784,4.53737zm24.99115,0.04751l-21.02393,0l0,-0.04751c0,-2.20929 -0.61765,-4.39483 -1.78169,-6.27155l3.94347,-1.92422l0.45136,-0.23756c2.51812,-1.21155 5.29755,-1.85296 8.10075,-1.85296c2.73192,0 5.36882,1.09277 7.29305,3.01699c1.92422,1.94798 3.01699,4.58488 3.01699,7.3168zm0,0" stroke-width="5" stroke-miterlimit="10" stroke-dasharray=""></path><path data-v-9833e8b2="" transform="scale(0.1366120218579235)" fill="none" stroke="currentColor" paint-order="fill stroke markers" d="m59.24935,92.67383c0,2.23305 0.64141,4.39483 1.80544,6.2953l-3.94347,1.90047l-0.49887,0.23756a18.41791,18.41791 0 0 1 -8.10075,1.87671c-2.8507,0 -5.41633,-1.16404 -7.29305,-3.01699c-1.92422,-1.92422 -3.01699,-4.56112 -3.01699,-7.29305l21.04768,0zm14.72863,0l-1.16404,0.57014l-1.6154,0.78394l-0.57014,0.28507l-5.98647,2.89821c-0.90272,-1.28282 -1.42535,-2.8507 -1.44911,-4.53737l10.78516,0zm0,0" stroke-width="5" stroke-miterlimit="10" stroke-dasharray=""></path><path data-v-9833e8b2="" transform="scale(0.1366120218579235)" fill="none" stroke="currentColor" paint-order="fill stroke markers" d="m69.55939,92.10369l-2.94573,-6.05774c-2.06676,1.44911 -3.4446,3.8722 -3.4446,6.58037l0,0.04751l6.65164,0l-0.26131,-0.57014zm8.24328,-4.01474c-1.44911,-2.09052 -3.8722,-3.46835 -6.60413,-3.46835c-1.71042,0 -3.27831,0.52263 -4.58488,1.42535c-2.06676,1.44911 -3.4446,3.8722 -3.4446,6.58037l0,0.04751l8.00572,0l0,1.35408l-0.57014,0.28507l-5.96272,2.89821c1.44911,2.06676 3.84845,3.42084 6.55661,3.42084c1.6154,0 3.20704,-0.49887 4.53737,-1.4016c2.06676,-1.42535 3.4446,-3.84845 3.46835,-6.55661l0,-0.04751c0,-1.68666 -0.52263,-3.25455 -1.4016,-4.53737zm7.50685,-3.63465c-2.82695,-4.86995 -8.07699,-8.14826 -14.11097,-8.14826c-3.01699,0 -5.82018,0.8077 -8.24328,2.23305c-4.84619,2.82695 -8.07699,8.07699 -8.07699,14.11097l0,0.04751c0.02376,2.99324 0.8077,5.79643 2.23305,8.19577c2.82695,4.82244 8.07699,8.07699 14.08722,8.07699c2.99324,0 5.79643,-0.8077 8.19577,-2.20929c4.84619,-2.82695 8.10075,-8.05323 8.1245,-14.06346l0,-0.04751c0,-2.89821 -0.76019,-5.72516 -2.20929,-8.19577zm-7.81567,18.36327c-1.90047,1.16404 -4.06225,1.78169 -6.2953,1.78169c-4.27605,0 -8.02948,-2.23305 -10.14375,-5.63014c-1.16404,-1.90047 -1.80544,-4.06225 -1.80544,-6.2953l0,-0.04751c0,-4.29981 2.25681,-8.05323 5.65389,-10.14375c1.8292,-1.16404 3.99098,-1.80544 6.31905,-1.80544c4.29981,0 8.05323,2.28056 10.1675,5.67765c1.16404,1.87671 1.78169,4.06225 1.78169,6.27155l0,0.04751c-0.02376,4.27605 -2.30432,8.02948 -5.67765,10.14375zm-6.2953,-18.19698c-1.71042,0 -3.27831,0.52263 -4.58488,1.42535c-2.06676,1.44911 -3.4446,3.8722 -3.4446,6.58037l0,0.04751c0.02376,1.68667 0.54638,3.25455 1.44911,4.53737c1.44911,2.06676 3.84845,3.42084 6.55661,3.42084c1.6154,0 3.20704,-0.49887 4.53737,-1.4016c2.06676,-1.42535 3.4446,-3.84845 3.46835,-6.55661l0,-0.04751c0,-1.68666 -0.52263,-3.25455 -1.4016,-4.53737c-1.42535,-2.09052 -3.84845,-3.46835 -6.58037,-3.46835zm6.60413,3.46835c-1.44911,-2.09052 -3.8722,-3.46835 -6.60413,-3.46835c-1.71042,0 -3.27831,0.52263 -4.58488,1.42535c-2.06676,1.44911 -3.4446,3.8722 -3.4446,6.58037l0,0.04751l9.3598,0l0.26132,0.57014l2.92197,5.98647c2.06676,-1.42535 3.4446,-3.84845 3.46835,-6.55661l0,-0.04751c0.02376,-1.68666 -0.49887,-3.25455 -1.37784,-4.53737zm0,0" stroke-width="5" stroke-miterlimit="10" stroke-dasharray=""></path><path data-v-9833e8b2="" transform="scale(0.1366120218579235)" fill="none" stroke="currentColor" paint-order="fill stroke markers" d="m79.20426,92.62631l0,0.04751c0,2.70817 -1.37784,5.13126 -3.46835,6.55661c-1.33033,0.92648 -2.92197,1.4016 -4.53737,1.4016c-2.70817,0 -5.13126,-1.35408 -6.55661,-3.42084c-0.90272,-1.28282 -1.42535,-2.8507 -1.44911,-4.53737l0,-0.04751c0,-2.70817 1.35408,-5.10751 3.4446,-6.58037c1.30657,-0.90272 2.87446,-1.42535 4.58488,-1.42535c2.73192,0 5.15502,1.37784 6.60413,3.46835c0.85521,1.28282 1.37784,2.8507 1.37784,4.53737zm0,0" stroke-width="5" stroke-miterlimit="10" stroke-dasharray=""></path><path data-v-9833e8b2="" transform="scale(0.1366120218579235)" fill="none" stroke="currentColor" paint-order="fill stroke markers" d="m71.19854,31.28871c-33.11566,0 -59.95977,26.84411 -59.95977,59.95977c0,3.06451 0.23756,6.0815 0.68892,9.02722c0.33258,2.30432 0.83146,4.58488 1.42535,6.81793c3.20704,11.75914 9.92994,22.09294 18.93341,29.78983c1.90047,1.6154 3.8722,3.11202 5.96272,4.48986c9.45483,6.22403 20.78637,9.85868 32.94936,9.85868c33.11566,0 59.98352,-26.86787 59.98352,-59.98352c-0.02376,-33.11566 -26.86787,-59.95977 -59.98352,-59.95977zm0,102.10265c-23.25698,0 -42.11912,-18.86215 -42.11912,-42.11912s18.86215,-42.11912 42.11912,-42.11912c23.28073,0 42.11912,18.86215 42.11912,42.11912s-18.86215,42.11912 -42.11912,42.11912zm8.97971,-117.61522l-79.17825,0c0,-1.75793 0.71268,-3.34957 1.85296,-4.51361c1.16404,-1.14028 2.75568,-1.85296 4.51361,-1.85296l66.42136,0c3.53962,-0.02376 6.39032,2.82695 6.39032,6.36657zm0,0" stroke-width="5" stroke-miterlimit="10" stroke-dasharray=""></path></g></svg>