<svg data-v-9833e8b2="" version="1.1" xmlns="http://www.w3.org/2000/svg" xmlns:xlink="http://www.w3.org/1999/xlink" width="22" height="25"><g data-v-9833e8b2=""><path data-v-9833e8b2="" transform="scale(0.14204545454545456)" fill="none" stroke="currentColor" paint-order="fill stroke markers" d="m144.02157,2.77542c-2.82928,-2.5561 -7.21953,-2.32196 -9.79515,0.50732l-1.42439,1.58049c1.09269,0.97561 1.19025,2.67318 0.19512,3.76586c-0.52683,0.58537 -1.24878,0.87805 -1.99025,0.87805c-0.6439,0 -1.2683,-0.23415 -1.77561,-0.70244l-8.01953,8.89758l-3.55123,3.96099l-3.57074,3.94147l-18.43907,20.50737l-14.6537,16.2537c-0.05854,-0.05854 -0.11707,-0.09756 -0.17561,-0.1561l-0.37073,-0.33171c-3.57074,-3.1805 -6.80977,-5.54148 -10.10734,-5.54148c-2.30244,0 -4.66343,1.15122 -7.21953,3.96098l-2.47806,2.75123l-50.63427,56.19526c-6.86831,7.62929 -7.27807,18.8098 -1.6,26.84885c-0.03902,0.03902 -0.09756,0.09756 -0.13658,0.1561c-0.89756,0.99512 -1.73659,1.97074 -2.53659,2.8683c-0.23415,0.25366 -0.44878,0.48781 -0.68293,0.74146c-0.05854,0.05854 -0.13658,0.13659 -0.21463,0.23415c-1.99025,2.18537 -3.37562,4.7805 -3.74635,7.68782c-0.37073,2.88781 0.37073,5.81465 1.87317,8.46831c0.83903,1.54147 1.95123,2.8683 3.16098,3.94147c0,0 0.01951,0 0.01951,0.01951c3.1805,2.82928 7.04392,4.17562 10.82929,4.89757c3.78538,0.72195 7.53173,0.76098 10.65369,0.70244c7.06343,-0.21463 14.10735,-1.7561 20.60493,-4.50733c7.08295,-3.06342 12.09759,-7.70734 17.48297,-10.61466c7.21953,-4.07806 17.87321,-3.10245 27.55129,-1.93171c8.4488,0.9561 16.95614,2.18537 23.92201,5.61953l3.5122,-7.16099c-8.56588,-4.19513 -17.97078,-5.36587 -26.51714,-6.3805c-9.61954,-1.03415 -21.79518,-2.82927 -32.31228,2.84879c-6.45855,3.60976 -11.25857,7.98051 -16.74151,10.24393c-5.5805,2.36098 -11.66832,3.70733 -17.73663,3.86342c-2.79025,0.07805 -6.02928,0 -8.93661,-0.56585c-2.90732,-0.54634 -5.38538,-1.56098 -6.94636,-2.98537c-0.62439,-0.56585 -1.1122,-1.17074 -1.54147,-1.9122c-0.85854,-1.58049 -1.03415,-2.67318 -0.91708,-3.64879c0.11707,-0.93659 0.56585,-2.00976 1.73659,-3.31708c0.01951,-0.03903 0.07805,-0.07805 0.11707,-0.13659c0.27317,-0.29268 0.50732,-0.56585 0.76098,-0.81951c0.85854,-0.9561 1.69756,-1.93171 2.47806,-2.80976c8.74148,5.79514 20.64395,4.50733 27.90251,-3.53172l50.63427,-56.0977l-11.161,-10.0488l0.13659,0.11707l11.02442,9.91222l2.47806,-2.75123c6.10733,-6.79026 2.69269,-11.49271 -3.20001,-16.93663l-0.29268,-0.25366c-0.13659,-0.11707 -0.27317,-0.25366 -0.40976,-0.37073l8.17563,-9.05368l35.64887,-39.55132l4.44879,-4.9366c-1.09268,-0.97561 -1.17073,-2.65366 -0.19512,-3.76586c0.52683,-0.58537 1.24878,-0.87805 1.97074,-0.87805c0.6439,0 1.26829,0.23415 1.79513,0.70244l1.42439,-1.58049c2.5561,-2.84879 2.32196,-7.21953 -0.50732,-9.79515l0,0zm-46.26353,79.18069c0.11707,2.16586 -0.85854,4.39026 -3.06342,6.82929l-2.08781,2.28293l-10.55612,-9.52198l-9.97076,-8.99514l-10.55612,-9.52198l2.08781,-2.28293c2.28293,-2.51708 4.48782,-3.76586 6.75124,-3.76586c3.25855,0 6.57563,2.5561 10.24393,5.87319c0.78049,0.70244 1.56098,1.42439 2.38049,2.18537c0.87805,0.8 1.77561,1.63903 2.7122,2.47806c0.91707,0.83903 1.85366,1.63903 2.73171,2.41952c0.83903,0.74146 1.65854,1.44391 2.41952,2.16586c3.76586,3.41464 6.71221,6.51709 6.90733,9.85368zm25.67811,-47.92207l-8.39027,-7.57075l3.57074,-3.94147l8.39027,7.57075l-3.57074,3.94147zm7.14148,-7.88295l-8.39027,-7.59026l3.57074,-3.94147l8.40978,7.57075l-3.59025,3.96099z" stroke-width="5" stroke-miterlimit="10" stroke-dasharray=""></path></g></svg>