<svg data-v-9833e8b2="" version="1.1" xmlns="http://www.w3.org/2000/svg" xmlns:xlink="http://www.w3.org/1999/xlink" width="25" height="15"><g data-v-9833e8b2=""><path data-v-9833e8b2="" transform="scale(0.12886597938144329)" fill="none" stroke="currentColor" paint-order="fill stroke markers" d="m148.64362,39.79989l0,81.10819l-38.18613,0l0,-81.10819l-24.34739,0l0,-38.79989l72.38693,0l34.9763,38.79989l-44.82971,0zm-133.65973,-6.66018l-13.98389,-12.05135l13.66871,-12.08039l6.02568,-0.00415l14.19538,24.1815l-19.90589,-0.04562zm19.90589,0.04562l-17.73283,-0.29029l17.73283,0.29029zm18.79447,0l-16.04912,0l-14.57692,-24.17736l15.34412,0l15.28191,24.17736zm17.4135,0l-14.63083,0l-15.28191,-24.17736l14.63083,0l15.28191,24.17736zm8.83324,0l-6.05885,0l-15.28191,-24.17736l21.34077,0l0,24.17736z" stroke-width="5" stroke-miterlimit="10" stroke-dasharray=""></path></g></svg>