<svg data-v-9833e8b2="" version="1.1" xmlns="http://www.w3.org/2000/svg" xmlns:xlink="http://www.w3.org/1999/xlink" width="25" height="17.5"><g data-v-9833e8b2=""><path data-v-9833e8b2="" transform="scale(0.13020833333333334)" fill="none" stroke="currentColor" paint-order="fill stroke markers" d="m30.60534,137.15824a29.57902,29.57902 0 1 1 0,-59.21067l130.84243,0a29.57902,29.57902 0 0 1 0,59.21067l-130.84243,0zm130.21085,-47.36854a18.21057,18.21057 0 0 0 -17.68425,17.73689a17.73689,17.73689 0 1 0 17.73689,-17.73689l-0.05263,0zm-65.05279,0a18.21057,18.21057 0 0 0 -17.73689,17.73689a17.4211,17.4211 0 0 0 17.73689,17.78952a17.73689,17.73689 0 1 0 0,-35.5264zm-65.10543,0a17.78952,17.78952 0 0 0 -17.73689,17.73689a17.4211,17.4211 0 0 0 17.73689,17.73689a17.78952,17.78952 0 0 0 17.73689,-17.73689a17.4211,17.4211 0 0 0 -17.78952,-17.73689l0.05263,0zm-0.05263,-88.7897l23.68427,0l0,29.57902l5.89475,-5.89475l5.89475,5.89475l0,-29.57902l29.68429,0l0,65.10543l-65.15806,0l0,-65.10543zm76.94756,17.73689l17.73689,0l0,23.68427l5.89475,-5.89475l5.89475,5.89475l0,-23.68427l17.73689,0l0,47.36854l-47.36854,0l0.10526,-47.36854z" stroke-width="5" stroke-miterlimit="10" stroke-dasharray=""></path></g></svg>