<svg data-v-9833e8b2="" version="1.1" xmlns="http://www.w3.org/2000/svg" xmlns:xlink="http://www.w3.org/1999/xlink" width="25" height="20"><g data-v-9833e8b2=""><path data-v-9833e8b2="" transform="scale(0.12376237623762376)" fill="none" stroke="currentColor" paint-order="fill stroke markers" d="m60.37515,163.50041c-21.87506,0 -40.0001,-14.37504 -45.62511,-35.62509l11.87503,-3.12501c4.37501,15.62504 18.12505,26.25007 33.75008,26.25007c16.25004,0 30.00008,-10.62503 33.12508,-26.25007l11.87503,3.12501c-4.37501,20.62505 -23.12506,35.62509 -45.00011,35.62509zm-33.75008,-55.00014l-11.87503,-3.12501c5.00001,-20.62505 23.75006,-35.62509 45.62511,-35.62509s40.6251,14.37504 45.62511,35.62509l-11.87503,3.12501c-4.37501,-15.62504 -18.12505,-26.25007 -33.75008,-26.25007c-16.25004,0 -30.00008,10.62503 -33.75008,26.25007zm118.1253,-20.00005l-30.62508,0c-8.12502,0 -15.00004,-5.00001 -17.50004,-12.50003l-6.25002,-19.37505c-1.25,-3.12501 -1.25,-6.87502 -0.625,-10.00003l7.50002,-30.62508c1.875,-9.37502 9.37502,-15.00004 17.50004,-15.00004l30.00008,0c10.62503,0 18.75005,8.12502 18.75005,18.75005l0,50.00013c0,10.62503 -8.12502,18.75005 -18.75005,18.75005zm-30.00008,-75.00019c-3.12501,0 -5.62501,1.875 -6.25002,5.00001l-7.50002,30.62508l0,3.12501l6.25002,19.37505c0.625,2.50001 3.12501,4.37501 5.62501,4.37501l31.87508,0c3.75001,0 6.25002,-2.50001 6.25002,-6.25002l0,-50.00013c0,-3.75001 -2.50001,-6.25002 -6.25002,-6.25002l-30.00008,0z" stroke-width="5" stroke-miterlimit="10" stroke-dasharray=""></path><path data-v-9833e8b2="" transform="scale(0.12376237623762376)" fill="none" stroke="currentColor" paint-order="fill stroke markers" d="m194.75049,132.25033l-11.25003,0c-3.75001,0 -6.25002,-2.50001 -6.25002,-6.25002s2.50001,-6.25002 6.25002,-6.25002l5.00001,0c-2.50001,-18.12505 -15.00004,-33.12508 -32.50008,-37.50009c-3.12501,-0.625 -5.00001,-4.37501 -4.37501,-7.50002c0.625,-3.12501 4.37501,-5.00001 7.50002,-4.37501c25.00006,6.87502 41.87511,30.00008 41.87511,56.25014c0,3.12501 -2.50001,5.62501 -6.25002,5.62501zm-62.50016,0l-18.75005,0c-3.75001,0 -6.25002,-2.50001 -6.25002,-6.25002l0,-37.50009c0,-3.75001 2.50001,-6.25002 6.25002,-6.25002s6.25002,2.50001 6.25002,6.25002l0,31.25008l12.50003,0c3.75001,0 6.25002,2.50001 6.25002,6.25002s-2.50001,6.25002 -6.25002,6.25002z" stroke-width="5" stroke-miterlimit="10" stroke-dasharray=""></path><path data-v-9833e8b2="" transform="scale(0.12376237623762376)" fill="none" stroke="currentColor" paint-order="fill stroke markers" d="m157.25039,163.50041c-17.50004,0 -31.25008,-13.75003 -31.25008,-31.25008s13.75003,-31.25008 31.25008,-31.25008s31.25008,13.75003 31.25008,31.25008s-13.75003,31.25008 -31.25008,31.25008zm0,-50.00013c-10.62503,0 -18.75005,8.12502 -18.75005,18.75005s8.12502,18.75005 18.75005,18.75005s18.75005,-8.12502 18.75005,-18.75005s-8.12502,-18.75005 -18.75005,-18.75005zm-53.12513,18.75005l-87.50022,0c-8.75002,0 -15.62504,-6.87502 -15.62504,-15.62504s6.87502,-15.62504 15.62504,-15.62504l87.50022,0c8.75002,0 15.62504,6.87502 15.62504,15.62504s-6.87502,15.62504 -15.62504,15.62504zm-87.50022,-18.75005c-1.875,0 -3.12501,1.25 -3.12501,3.12501s1.25,3.12501 3.12501,3.12501l87.50022,0c1.875,0 3.12501,-1.25 3.12501,-3.12501s-1.25,-3.12501 -3.12501,-3.12501l-87.50022,0z" stroke-width="5" stroke-miterlimit="10" stroke-dasharray=""></path><path data-v-9833e8b2="" transform="scale(0.12376237623762376)" fill="none" stroke="currentColor" paint-order="fill stroke markers" d="m157.25039,132.25033m-6.25002,0a6.25002,6.25002 0 1 0 12.50003,0a6.25002,6.25002 0 1 0 -12.50003,0z" stroke-width="5" stroke-miterlimit="10" stroke-dasharray=""></path><path data-v-9833e8b2="" transform="scale(0.12376237623762376)" fill="none" stroke="currentColor" paint-order="fill stroke markers" d="m132.25033,69.75017l-8.12502,0c-5.00001,0 -9.37502,-3.12501 -11.87503,-8.12502l-3.75001,-9.37502c-1.25,-2.50001 -1.25,-5.62501 -0.625,-8.12502l4.37501,-15.62504c1.25,-5.62501 6.25002,-9.37502 11.87503,-9.37502l8.12502,0c6.87502,0 12.50003,5.62501 12.50003,12.50003l0,25.00006c0,7.50002 -5.62501,13.12503 -12.50003,13.12503zm-7.50002,-37.50009l-4.37501,15.62504l3.75001,9.37502l8.12502,0l0,-25.00006l-7.50002,0zm0,-6.25002l0,6.25002l0,-6.25002z" stroke-width="5" stroke-miterlimit="10" stroke-dasharray=""></path></g></svg>