<svg data-v-9833e8b2="" version="1.1" xmlns="http://www.w3.org/2000/svg" xmlns:xlink="http://www.w3.org/1999/xlink" width="25" height="20"><g data-v-9833e8b2=""><path data-v-9833e8b2="" transform="scale(0.12376237623762376)" fill="none" stroke="currentColor" paint-order="fill stroke markers" d="m193.90683,58.91256a13.30288,13.30288 0 0 0 -12.02761,-7.79169l-27.60598,0l0,-0.21004c0,-2.46553 -1.3903,-4.611 -3.42074,-5.70124a26.25569,26.25569 0 0 0 6.75646,-17.68383a26.55076,26.55076 0 0 0 -26.51575,-26.52575c-3.50076,0 -6.62644,0.83518 -6.62644,0.83518l-60.47311,16.27853a16.52358,16.52358 0 0 0 -12.88279,16.09349c0,3.86084 1.34029,7.41661 3.57077,10.23222l-0.4401,0c-3.57077,0 -6.4714,2.90063 -6.4714,6.4714l0,0.21004l-27.60599,0a13.30288,13.30288 0 0 0 -12.03261,7.79669c-4.66601,10.19721 -7.13155,22.44487 -7.13155,35.42768c0,12.97781 2.46553,25.23047 7.13655,35.42768a13.30288,13.30288 0 0 0 12.02761,7.79669l19.49423,0l-1.49032,10.44226l-0.62514,0a3.13068,3.13068 0 0 0 0,6.26136l23.38507,0a3.13068,3.13068 0 0 0 0,-6.26136l-0.62514,0l-1.49032,-10.44226l84.4183,0l-1.49032,10.44226l-0.62514,0a3.13068,3.13068 0 0 0 0,6.26136l23.38507,0a3.13068,3.13068 0 0 0 0,-6.26136l-0.62514,0l-1.49032,-10.44226l19.49423,0a13.30288,13.30288 0 0 0 12.02761,-7.79669c4.67101,-10.19721 7.13655,-22.44987 7.13655,-35.42768c0,-12.98281 -2.46553,-25.23047 -7.13655,-35.42768l0,-0.005zm-62.81362,-51.6362a20.2794,20.2794 0 0 1 20.25439,20.25439c0,6.0113 -2.61056,11.5475 -7.10154,15.36333l0,-18.70406c0,-3.57077 -2.90063,-6.4764 -6.4714,-6.4764l-13.3679,0c-3.56577,0 -6.4714,2.90063 -6.4714,6.4764l0,18.70406a20.03434,20.03434 0 0 1 -7.10154,-15.36333a20.2794,20.2794 0 0 1 20.25439,-20.25439l0.005,0zm-6.89149,23.80516l0,-6.9015c0,-0.11502 0.09002,-0.21005 0.20504,-0.21005l13.3679,0c0.11502,0 0.20504,0.09502 0.20504,0.21005l0,6.88649l-13.77799,0l0,0.015zm13.77799,6.26136l0,7.10154l-13.77799,0l0,-7.10154l13.77799,0zm-28.65621,-24.94041c-2.99065,4.29593 -4.75103,9.50206 -4.75103,15.12328c0,6.32137 2.19047,12.23765 6.09132,16.91367l-30.12653,0a16.48357,16.48357 0 0 0 -3.08067,-23.46009l31.86691,-8.57686zm-41.70904,11.57251c5.64122,0 10.22722,4.591 10.22722,10.23222a10.24222,10.24222 0 0 1 -10.23222,10.23222a10.24222,10.24222 0 0 1 -10.22722,-10.23222c0,-5.64122 4.58599,-10.23222 10.22722,-10.23222l0.005,0zm-13.57794,26.93584c0,-0.11502 0.10002,-0.21005 0.21004,-0.21005l93.55028,0c0.11502,0 0.20504,0.10002 0.20504,0.21005l0,6.68145a0.21004,0.21004 0 0 1 -0.20504,0.21004l-93.55028,0a0.21004,0.21004 0 0 1 -0.21004,-0.21004l0,-6.68145zm-9.54207,97.10105l2.42052,-16.94367a0.21004,0.21004 0 0 1 0.20504,-0.18004l4.23092,0c0.10002,0 0.19004,0.07502 0.20505,0.18004l2.42052,16.94367l-9.48206,0zm103.57246,0l2.42053,-16.94367a0.21004,0.21004 0 0 1 0.20504,-0.18004l4.23092,0c0.10002,0 0.19004,0.07502 0.20504,0.18004l2.42052,16.94367l-9.48206,0zm40.1437,-20.84452c-1.15025,2.51054 -3.63579,4.1359 -6.33137,4.1359l-0.88019,0l0,-50.32091a3.13068,3.13068 0 0 0 -6.26636,0l0,50.32091l-13.24287,0l-0.16003,-1.12024a6.50141,6.50141 0 0 0 -6.41139,-5.56121l-4.22592,0a6.50141,6.50141 0 0 0 -6.40639,5.56121l-0.16004,1.12024l-86.21369,0l-0.16003,-1.12024a6.50141,6.50141 0 0 0 -6.40639,-5.56121l-4.23092,0a6.50141,6.50141 0 0 0 -6.40139,5.56121l-0.16504,1.12024l-13.23787,0l0,-50.32091a3.13068,3.13068 0 0 0 -6.26636,0l0,50.32091l-0.88019,0c-2.69558,0 -5.18112,-1.62535 -6.33137,-4.1359c-4.23592,-9.25201 -6.56642,-20.90453 -6.56642,-32.82212c0,-11.91258 2.3305,-23.57011 6.56642,-32.82212c1.15025,-2.51554 3.63579,-4.1409 6.33137,-4.1409l0.88019,0l0,10.23222a3.13068,3.13068 0 0 0 6.26636,0l0,-10.23222l20.46444,0l0,0.21005c0,3.57077 2.90063,6.4764 6.4714,6.4764l6.89149,0l0,0.20504a3.13068,3.13068 0 0 0 6.26636,0l0,-0.20504l67.23458,0l0,0.20504a3.13068,3.13068 0 0 0 6.26636,0l0,-0.20504l6.89149,0c3.57077,0 6.4714,-2.90563 6.4714,-6.4764l0,-0.21005l20.46444,0l0,10.23222a3.13068,3.13068 0 0 0 6.26636,0l0,-10.23222l0.88019,0c2.70059,0 5.18112,1.62535 6.33137,4.1409c4.23592,9.25201 6.57142,20.90453 6.57142,32.82212c0,11.91258 -2.33551,23.57011 -6.57142,32.82212z" stroke-width="5" stroke-miterlimit="10" stroke-dasharray=""></path></g></svg>