<svg data-v-9833e8b2="" version="1.1" xmlns="http://www.w3.org/2000/svg" xmlns:xlink="http://www.w3.org/1999/xlink" width="22" height="25"><g data-v-9833e8b2=""><path data-v-9833e8b2="" transform="scale(0.12376237623762376)" fill="none" stroke="currentColor" paint-order="fill stroke markers" d="m81.85959,101.00025m-80.85958,0a80.85958,80.85958 0 1 0 161.71916,0a80.85958,80.85958 0 1 0 -161.71916,0z" stroke-width="5" stroke-miterlimit="10" stroke-dasharray=""></path><path data-v-9833e8b2="" transform="scale(0.12376237623762376)" fill="none" stroke="currentColor" paint-order="fill stroke markers" d="m120.06281,3.30469l-77.8127,0c-5.31251,0 -9.64846,4.33595 -9.64846,9.64846l0,35.78134l12.07034,0l0,-25.70319c0,-5.31251 4.33595,-9.64846 9.64846,-9.64846l56.13295,0c5.31251,0 9.64846,4.33595 9.64846,9.64846l0,25.70319l12.07034,0l0,-35.78134c0,-5.31251 -4.33595,-9.64846 -9.64846,-9.64846l-2.46094,0z" stroke-width="5" stroke-miterlimit="10" stroke-dasharray=""></path><path data-v-9833e8b2="" transform="scale(0.12376237623762376)" fill="none" stroke="currentColor" paint-order="fill stroke markers" d="m53.50014,11.03909l-10.35159,10.31253l0,26.25007l-3.78907,0l0,-24.37506c0,-6.75783 5.46876,-12.18753 12.18753,-12.18753l1.95313,0zm73.24237,-4.60939l3.78907,0l0,41.17198l-3.78907,0l0,-41.17198z" stroke-width="5" stroke-miterlimit="10" stroke-dasharray=""></path><path data-v-9833e8b2="" transform="scale(0.12376237623762376)" fill="none" stroke="currentColor" paint-order="fill stroke markers" d="m38.65636,86.78147l83.75021,0l0,17.38286l-83.75021,0l0,-17.38286z" stroke-width="5" stroke-miterlimit="10" stroke-dasharray=""></path><path data-v-9833e8b2="" transform="scale(0.12376237623762376)" fill="none" stroke="currentColor" paint-order="fill stroke markers" d="m122.40657,106.46902l-83.75021,0c-1.25,0 -2.30469,-1.01563 -2.30469,-2.30469l0,-17.38286c0,-1.25 1.01563,-2.30469 2.30469,-2.30469l83.75021,0c1.25,0 2.30469,1.01563 2.30469,2.30469l0,17.38286c-0.03906,1.25 -1.05469,2.30469 -2.30469,2.30469zm-81.44552,-4.60939l79.14082,0l0,-12.81253l-79.14082,0l0,12.81253z" stroke-width="5" stroke-miterlimit="10" stroke-dasharray=""></path><path data-v-9833e8b2="" transform="scale(0.12376237623762376)" fill="none" stroke="currentColor" paint-order="fill stroke markers" d="m25.57039,163.81291l-15.42973,0l0,19.8438l14.92191,0" stroke-width="5" stroke-miterlimit="10" stroke-dasharray=""></path><path data-v-9833e8b2="" transform="scale(0.12376237623762376)" fill="none" stroke="currentColor" paint-order="fill stroke markers" d="m25.06257,185.9614l-14.92191,0c-1.25,0 -2.30469,-1.01563 -2.30469,-2.30469l0,-19.88286c0,-1.25 1.01563,-2.30469 2.30469,-2.30469l15.42973,0c1.25,0 2.30469,1.01563 2.30469,2.30469s-1.01563,2.30469 -2.30469,2.30469l-13.1641,0l0,15.27348l12.61722,0c1.25,0 2.30469,1.01563 2.30469,2.30469c0,1.28907 -1.01563,2.30469 -2.26563,2.30469z" stroke-width="5" stroke-miterlimit="10" stroke-dasharray=""></path><path data-v-9833e8b2="" transform="scale(0.12376237623762376)" fill="none" stroke="currentColor" paint-order="fill stroke markers" d="m138.14879,85.96115l15.42973,0l0,19.8438l-14.92191,0" stroke-width="5" stroke-miterlimit="10" stroke-dasharray=""></path><path data-v-9833e8b2="" transform="scale(0.12376237623762376)" fill="none" stroke="currentColor" paint-order="fill stroke markers" d="m153.57852,108.10964l-14.92191,0c-1.25,0 -2.30469,-1.01563 -2.30469,-2.30469s1.01563,-2.30469 2.30469,-2.30469l12.61722,0l0,-15.27348l-13.1641,0c-1.25,0 -2.30469,-1.01563 -2.30469,-2.30469c0,-1.25 1.01563,-2.30469 2.30469,-2.30469l15.42973,0c1.25,0 2.30469,1.01563 2.30469,2.30469l0,19.88286c0.03906,1.28907 -0.97656,2.30469 -2.26563,2.30469z" stroke-width="5" stroke-miterlimit="10" stroke-dasharray=""></path><path data-v-9833e8b2="" transform="scale(0.12376237623762376)" fill="none" stroke="currentColor" paint-order="fill stroke markers" d="m25.57039,198.69581l0,-150.00038l26.09382,0l0,100.62525l0.07813,48.12512l-13.08597,1.25l-13.08597,0z" stroke-width="5" stroke-miterlimit="10" stroke-dasharray=""></path><path data-v-9833e8b2="" transform="scale(0.12376237623762376)" fill="none" stroke="currentColor" paint-order="fill stroke markers" d="m39.35948,48.69543l10.50784,0l0,147.93006l-10.50784,0l0,-147.93006z" stroke-width="5" stroke-miterlimit="10" stroke-dasharray=""></path><path data-v-9833e8b2="" transform="scale(0.12376237623762376)" fill="none" stroke="currentColor" paint-order="fill stroke markers" d="m139.16442,198.69581l0,-150.00038l-26.09382,0l0,150.00038l13.04691,0l13.04691,0z" stroke-width="5" stroke-miterlimit="10" stroke-dasharray=""></path><path data-v-9833e8b2="" transform="scale(0.12376237623762376)" fill="none" stroke="currentColor" paint-order="fill stroke markers" d="m127.64096,48.69543l10.50784,0l0,147.93006l-10.50784,0l0,-147.93006z" stroke-width="5" stroke-miterlimit="10" stroke-dasharray=""></path><path data-v-9833e8b2="" transform="scale(0.12376237623762376)" fill="none" stroke="currentColor" paint-order="fill stroke markers" d="m82.3674,95.45336m-17.38286,0a17.38286,17.38286 0 1 0 34.76571,0a17.38286,17.38286 0 1 0 -34.76571,0z" stroke-width="5" stroke-miterlimit="10" stroke-dasharray=""></path><path data-v-9833e8b2="" transform="scale(0.12376237623762376)" fill="none" stroke="currentColor" paint-order="fill stroke markers" d="m82.40647,115.14091c-10.8594,0 -19.68755,-8.82815 -19.68755,-19.68755c0,-10.8594 8.82815,-19.68755 19.68755,-19.68755c10.8594,0 19.68755,8.82815 19.68755,19.68755c-0.03906,10.8594 -8.86721,19.68755 -19.68755,19.68755zm0,-34.76571c-8.32033,0 -15.07816,6.75783 -15.07816,15.07816s6.75783,15.07816 15.07816,15.07816s15.07816,-6.75783 15.07816,-15.07816s-6.75783,-15.07816 -15.07816,-15.07816zm-30.74226,120.6253l-26.09382,0c-1.25,0 -2.30469,-1.01563 -2.30469,-2.30469l0,-150.00038c0,-1.25 1.01563,-2.30469 2.30469,-2.30469l26.09382,0c1.25,0 2.30469,1.01563 2.30469,2.30469l0,150.00038c0,1.28907 -1.01563,2.30469 -2.30469,2.30469zm-23.78912,-4.57032l21.52349,0l0,-145.43005l-21.52349,0l0,145.43005zm111.28934,4.57032l-26.09382,0c-1.25,0 -2.30469,-1.01563 -2.30469,-2.30469l0,-150.00038c0,-1.25 1.01563,-2.30469 2.30469,-2.30469l26.09382,0c1.25,0 2.30469,1.01563 2.30469,2.30469l0,150.00038c0,1.28907 -1.01563,2.30469 -2.30469,2.30469zm-23.82818,-4.57032l21.52349,0l0,-145.43005l-21.52349,0l0,145.43005z" stroke-width="5" stroke-miterlimit="10" stroke-dasharray=""></path><path data-v-9833e8b2="" transform="scale(0.12376237623762376)" fill="none" stroke="currentColor" paint-order="fill stroke markers" d="m132.17222,51.00013l-12.07034,0c-1.25,0 -2.30469,-1.01563 -2.30469,-2.30469l0,-25.66413c0,-4.06251 -3.28126,-7.34377 -7.34377,-7.34377l-56.13295,0c-4.06251,0 -7.34377,3.28126 -7.34377,7.34377l0,25.70319c0,1.25 -1.01563,2.30469 -2.30469,2.30469l-12.07034,0c-1.25,0 -2.30469,-1.01563 -2.30469,-2.30469l0,-35.78134c0,-6.60158 5.35158,-11.95316 11.95316,-11.95316l80.27364,0c6.56252,0 11.95316,5.35158 11.95316,11.95316l0,35.78134c-0.03906,1.25 -1.05469,2.26563 -2.30469,2.26563zm-9.80471,-4.57032l7.50002,0l0,-33.47665c0,-4.06251 -3.28126,-7.34377 -7.34377,-7.34377l-80.27364,0c-4.06251,0 -7.34377,3.28126 -7.34377,7.34377l0,33.47665l7.50002,0l0,-23.3985c0,-6.56252 5.35158,-11.95316 11.95316,-11.95316l56.13295,0c6.56252,0 11.95316,5.35158 11.95316,11.95316l0,23.3985l-0.07813,0z" stroke-width="5" stroke-miterlimit="10" stroke-dasharray=""></path><path data-v-9833e8b2="" transform="scale(0.12376237623762376)" fill="none" stroke="currentColor" paint-order="fill stroke markers" d="m119.82844,198.69581l-74.883,0c-3.47657,0 -6.28908,-2.81251 -6.28908,-6.28908l0,-36.83603c0,-3.47657 2.81251,-6.28908 6.28908,-6.28908l74.883,0c3.47657,0 6.28908,2.81251 6.28908,6.28908l0,36.83603c0,3.47657 -2.81251,6.28908 -6.28908,6.28908z" stroke-width="5" stroke-miterlimit="10" stroke-dasharray=""></path><path data-v-9833e8b2="" transform="scale(0.12376237623762376)" fill="none" stroke="currentColor" paint-order="fill stroke markers" d="m48.61732,160.0629l33.24227,0l0,27.8907l-33.24227,0l0,-27.8907z" stroke-width="5" stroke-miterlimit="10" stroke-dasharray=""></path><path data-v-9833e8b2="" transform="scale(0.12376237623762376)" fill="none" stroke="currentColor" paint-order="fill stroke markers" d="m81.85959,190.25829l-33.24227,0c-1.25,0 -2.30469,-1.01563 -2.30469,-2.30469l0,-27.8907c0,-1.25 1.01563,-2.30469 2.30469,-2.30469l33.24227,0c1.25,0 2.30469,1.01563 2.30469,2.30469l0,27.8907c0,1.28907 -1.01563,2.30469 -2.30469,2.30469zm-30.93758,-4.57032l28.67195,0l0,-23.32037l-28.67195,0l0,23.32037z" stroke-width="5" stroke-miterlimit="10" stroke-dasharray=""></path><path data-v-9833e8b2="" transform="scale(0.12376237623762376)" fill="none" stroke="currentColor" paint-order="fill stroke markers" d="m91.74243,163.81291m-2.85157,0a2.85157,2.85157 0 1 0 5.70314,0a2.85157,2.85157 0 1 0 -5.70314,0z" stroke-width="5" stroke-miterlimit="10" stroke-dasharray=""></path><path data-v-9833e8b2="" transform="scale(0.12376237623762376)" fill="none" stroke="currentColor" paint-order="fill stroke markers" d="m102.52371,163.81291m-2.85157,0a2.85157,2.85157 0 1 0 5.70314,0a2.85157,2.85157 0 1 0 -5.70314,0z" stroke-width="5" stroke-miterlimit="10" stroke-dasharray=""></path><path data-v-9833e8b2="" transform="scale(0.12376237623762376)" fill="none" stroke="currentColor" paint-order="fill stroke markers" d="m113.26592,163.81291m-2.85157,0a2.85157,2.85157 0 1 0 5.70314,0a2.85157,2.85157 0 1 0 -5.70314,0z" stroke-width="5" stroke-miterlimit="10" stroke-dasharray=""></path><path data-v-9833e8b2="" transform="scale(0.12376237623762376)" fill="none" stroke="currentColor" paint-order="fill stroke markers" d="m91.28401,176.84692a2.85157,2.85157 0 1 0 0.91369,-5.62947a2.85157,2.85157 0 1 0 -0.91369,5.62947z" stroke-width="5" stroke-miterlimit="10" stroke-dasharray=""></path><path data-v-9833e8b2="" transform="scale(0.12376237623762376)" fill="none" stroke="currentColor" paint-order="fill stroke markers" d="m100.49207,176.02128a2.85157,2.85157 0 1 0 4.03266,-4.0328a2.85157,2.85157 0 1 0 -4.03266,4.0328z" stroke-width="5" stroke-miterlimit="10" stroke-dasharray=""></path><path data-v-9833e8b2="" transform="scale(0.12376237623762376)" fill="none" stroke="currentColor" paint-order="fill stroke markers" d="m111.23977,176.03454a2.85157,2.85157 0 1 0 4.03266,-4.0328a2.85157,2.85157 0 1 0 -4.03266,4.0328z" stroke-width="5" stroke-miterlimit="10" stroke-dasharray=""></path><path data-v-9833e8b2="" transform="scale(0.12376237623762376)" fill="none" stroke="currentColor" paint-order="fill stroke markers" d="m89.1087,185.33545a2.85157,2.85157 0 1 0 5.26901,-2.1825a2.85157,2.85157 0 1 0 -5.26901,2.1825z" stroke-width="5" stroke-miterlimit="10" stroke-dasharray=""></path><path data-v-9833e8b2="" transform="scale(0.12376237623762376)" fill="none" stroke="currentColor" paint-order="fill stroke markers" d="m101.85504,187.03463a2.85157,2.85157 0 1 0 1.31065,-5.55049a2.85157,2.85157 0 1 0 -1.31065,5.55049z" stroke-width="5" stroke-miterlimit="10" stroke-dasharray=""></path><path data-v-9833e8b2="" transform="scale(0.12376237623762376)" fill="none" stroke="currentColor" paint-order="fill stroke markers" d="m112.6123,187.05364a2.85157,2.85157 0 1 0 1.31065,-5.5505a2.85157,2.85157 0 1 0 -1.31065,5.5505z" stroke-width="5" stroke-miterlimit="10" stroke-dasharray=""></path><path data-v-9833e8b2="" transform="scale(0.12376237623762376)" fill="none" stroke="currentColor" paint-order="fill stroke markers" d="m118.42218,196.66456l-0.39063,0l0,-46.91418l0.39063,0c4.06251,0 7.34377,3.28126 7.34377,7.34377l0,32.22664c0,4.06251 -3.28126,7.34377 -7.34377,7.34377z" stroke-width="5" stroke-miterlimit="10" stroke-dasharray=""></path><path data-v-9833e8b2="" transform="scale(0.12376237623762376)" fill="none" stroke="currentColor" paint-order="fill stroke markers" d="m116.6253,201.0005l-68.47673,0c-6.48439,0 -11.7969,-5.27345 -11.7969,-11.7969l0,-30.3907c0,-6.48439 5.27345,-11.7969 11.7969,-11.7969l68.47673,0c6.48439,0 11.7969,5.27345 11.7969,11.7969l0,30.3907c-0.03906,6.52345 -5.31251,11.7969 -11.7969,11.7969zm-68.47673,-49.37512c-3.98439,0 -7.18752,3.2422 -7.18752,7.18752l0,30.3907c0,3.98439 3.2422,7.18752 7.18752,7.18752l68.47673,0c3.98439,0 7.18752,-3.2422 7.18752,-7.18752l0,-30.3907c0,-3.98439 -3.2422,-7.18752 -7.18752,-7.18752l-68.47673,0z" stroke-width="5" stroke-miterlimit="10" stroke-dasharray=""></path></g></svg>