<svg data-v-9833e8b2="" version="1.1" xmlns="http://www.w3.org/2000/svg" xmlns:xlink="http://www.w3.org/1999/xlink" width="25" height="22.5"><g data-v-9833e8b2=""><path data-v-9833e8b2="" transform="scale(0.13157894736842105)" fill="none" stroke="currentColor" paint-order="fill stroke markers" d="m171.3,45.8l0,22.4l17.9,0l0,26.9l-17.9,0l0,22.5l-17.9,0l0,-71.7l17.9,0l0,-0.1z" stroke-width="5" stroke-miterlimit="10" stroke-dasharray=""></path><path data-v-9833e8b2="" transform="scale(0.13157894736842105)" fill="none" stroke="currentColor" paint-order="fill stroke markers" d="m1,81.7c0,-44.6 36.1,-80.7 80.7,-80.7s80.7,36.1 80.7,80.7s-36.1,80.7 -80.7,80.7s-80.7,-36.1 -80.7,-80.7l0,0z" stroke-width="5" stroke-miterlimit="10" stroke-dasharray=""></path><path data-v-9833e8b2="" transform="scale(0.13157894736842105)" fill="none" stroke="currentColor" paint-order="fill stroke markers" d="m85.9,107.6l-51.7,-25l51.7,-25l0,50l0,0z" stroke-width="5" stroke-miterlimit="10" stroke-dasharray=""></path><path data-v-9833e8b2="" transform="scale(0.13157894736842105)" fill="none" stroke="currentColor" paint-order="fill stroke markers" d="m5.5,90.7l0,-18l22.4,0l0,18l-22.4,0l0,0z" stroke-width="5" stroke-miterlimit="10" stroke-dasharray=""></path><path data-v-9833e8b2="" transform="scale(0.13157894736842105)" fill="none" stroke="currentColor" paint-order="fill stroke markers" d="m135.4,90.7l0,-18l22.4,0l0,18l-22.4,0l0,0z" stroke-width="5" stroke-miterlimit="10" stroke-dasharray=""></path><path data-v-9833e8b2="" transform="scale(0.13157894736842105)" fill="none" stroke="currentColor" paint-order="fill stroke markers" d="m72.7,27.9l0,-22.4l17.9,0l0,22.4l-17.9,0l0,0z" stroke-width="5" stroke-miterlimit="10" stroke-dasharray=""></path><path data-v-9833e8b2="" transform="scale(0.13157894736842105)" fill="none" stroke="currentColor" paint-order="fill stroke markers" d="m72.7,157.9l0,-22.4l17.9,0l0,22.4l-17.9,0l0,0z" stroke-width="5" stroke-miterlimit="10" stroke-dasharray=""></path><path data-v-9833e8b2="" transform="scale(0.13157894736842105)" fill="none" stroke="currentColor" paint-order="fill stroke markers" d="m26,37.1l11.1,-11.1l11.1,11.1l-11.1,11.2l-11.1,-11.2l0,0z" stroke-width="5" stroke-miterlimit="10" stroke-dasharray=""></path><path data-v-9833e8b2="" transform="scale(0.13157894736842105)" fill="none" stroke="currentColor" paint-order="fill stroke markers" d="m115.1,126.3l11.1,-11.1l11.1,11.1l-11.1,11.1l-11.1,-11.1l0,0z" stroke-width="5" stroke-miterlimit="10" stroke-dasharray=""></path><path data-v-9833e8b2="" transform="scale(0.13157894736842105)" fill="none" stroke="currentColor" paint-order="fill stroke markers" d="m115.1,37.1l11.1,-11.1l11.1,11.1l-11.1,11.1l-11.1,-11.1l0,0z" stroke-width="5" stroke-miterlimit="10" stroke-dasharray=""></path><path data-v-9833e8b2="" transform="scale(0.13157894736842105)" fill="none" stroke="currentColor" paint-order="fill stroke markers" d="m26,126.3l11.1,-11.2l11.1,11.2l-11.1,11.1l-11.1,-11.1l0,0z" stroke-width="5" stroke-miterlimit="10" stroke-dasharray=""></path></g></svg>