<svg data-v-9833e8b2="" version="1.1" xmlns="http://www.w3.org/2000/svg" xmlns:xlink="http://www.w3.org/1999/xlink" width="17" height="25"><g data-v-9833e8b2=""><path data-v-9833e8b2="" transform="scale(0.13020833333333334)" fill="none" stroke="currentColor" paint-order="fill stroke markers" d="m41,50l42,0l0,4l-42,0l0,-4l0,0z" stroke-width="5" stroke-miterlimit="10" stroke-dasharray=""></path><path data-v-9833e8b2="" transform="scale(0.13020833333333334)" fill="none" stroke="currentColor" paint-order="fill stroke markers" d="m48,37l28,0l3,13.2l-34,0l3,-13.2l0,0z" stroke-width="5" stroke-miterlimit="10" stroke-dasharray=""></path><path data-v-9833e8b2="" transform="scale(0.13020833333333334)" fill="none" stroke="currentColor" paint-order="fill stroke markers" d="m53,1l18,0l0,4l-18,0l0,-4l0,0z" stroke-width="5" stroke-miterlimit="10" stroke-dasharray=""></path><path data-v-9833e8b2="" transform="scale(0.13020833333333334)" fill="none" stroke="currentColor" paint-order="fill stroke markers" d="m49,5l26,0l0,26l-26,0l0,-26l0,0z" stroke-width="5" stroke-miterlimit="10" stroke-dasharray=""></path><path data-v-9833e8b2="" transform="scale(0.13020833333333334)" fill="none" stroke="currentColor" paint-order="fill stroke markers" d="m120,94l0,4.6l0,8.4l0,31l0,32l0,1c0,11 -9,20 -20,20l-76,0c-11,0 -20,-9 -20,-20l0,-1l0,-32l0,-31l0,-8.4l0,-4.6c0,-22.1 17.9,-40 40,-40l36,0c22.1,0 40,17.9 40,40z" stroke-width="5" stroke-miterlimit="10" stroke-dasharray=""></path><path data-v-9833e8b2="" transform="scale(0.13020833333333334)" fill="none" stroke="currentColor" paint-order="fill stroke markers" d="m5,79l114,0c2.2,0 4,1.8 4,4s-1.8,4 -4,4l-114,0c-2.2,0 -4,-1.8 -4,-4s1.8,-4 4,-4l0,0z" stroke-width="5" stroke-miterlimit="10" stroke-dasharray=""></path><path data-v-9833e8b2="" transform="scale(0.13020833333333334)" fill="none" stroke="currentColor" paint-order="fill stroke markers" d="m48,31l28,0c1.7,0 3,1.3 3,3s-1.3,3 -3,3l-28,0c-1.7,0 -3,-1.3 -3,-3s1.3,-3 3,-3l0,0z" stroke-width="5" stroke-miterlimit="10" stroke-dasharray=""></path></g></svg>