<svg data-v-9833e8b2="" version="1.1" xmlns="http://www.w3.org/2000/svg" xmlns:xlink="http://www.w3.org/1999/xlink" width="25" height="25"><g data-v-9833e8b2=""><path data-v-9833e8b2="" transform="scale(0.12437810945273632)" fill="none" stroke="currentColor" paint-order="fill stroke markers" d="m76.2727,172.61673c0,8.89409 4.90868,15.86276 11.17213,15.86276l86.87631,0c6.26345,0 11.17213,-6.95938 11.17213,-15.86276s-4.90869,-15.8674 -11.17213,-15.8674l-86.87631,0c-6.26345,0.00464 -11.17213,6.97794 -11.17213,15.8674zm102.99889,0c0,5.50719 -2.60281,9.62251 -4.93188,9.62251l-86.89487,0c-2.31979,0 -4.93188,-4.11532 -4.93188,-9.62251s2.60281,-9.62715 4.93188,-9.62715l86.87631,0c2.31979,0 4.93188,4.11532 4.93188,9.62715l0.01856,0z" stroke-width="5" stroke-miterlimit="10" stroke-dasharray=""></path><path data-v-9833e8b2="" transform="scale(0.12437810945273632)" fill="none" stroke="currentColor" paint-order="fill stroke markers" d="m161.49732,181.57578a8.95441,8.95441 0 1 0 -8.95441,-8.95441a8.96369,8.96369 0 0 0 8.95441,8.95441zm0,-11.93766a2.98326,2.98326 0 1 1 -2.98326,2.98326a2.9879,2.9879 0 0 1 2.98326,-2.98326zm-60.77862,11.93766a8.95441,8.95441 0 1 0 -8.95441,-8.95441a8.96369,8.96369 0 0 0 8.95441,8.95441zm0,-11.93766a2.98326,2.98326 0 1 1 -2.98326,2.98326a2.9879,2.9879 0 0 1 2.98326,-2.98326z" stroke-width="5" stroke-miterlimit="10" stroke-dasharray=""></path><path data-v-9833e8b2="" transform="scale(0.12437810945273632)" fill="none" stroke="currentColor" paint-order="fill stroke markers" d="m197.93666,119.91564l-22.66439,0a2.9183,2.9183 0 0 0 -0.21806,-0.43612l-35.72484,-56.69114l-0.12527,-0.16239a4.24522,4.24522 0 0 0 -0.18094,-0.22734l-0.05567,-0.06959c-0.0464,-0.04639 -0.10207,-0.08351 -0.15311,-0.12991s-0.13919,-0.12991 -0.21806,-0.19022s-0.0464,-0.04639 -0.07423,-0.06495c-0.06031,-0.04176 -0.12991,-0.06959 -0.19486,-0.11135s-0.10207,-0.07423 -0.15775,-0.10207l-0.06959,-0.02784l-0.08815,-0.0464l-111.96721,-48.03367c0,-0.21342 0.03248,-0.42684 0.03248,-0.6449a11.93766,11.93766 0 1 0 -17.20824,10.67106l0,78.20956l-4.88549,0a2.98326,2.98326 0 0 0 -2.98326,2.98326l0,43.83484a2.98326,2.98326 0 0 0 2.98326,2.98326l15.74213,0a2.98326,2.98326 0 0 0 2.98326,-2.98326l0,-43.83484a2.98326,2.98326 0 0 0 -2.98326,-2.98326l-4.88549,0l0,-70.62383l82.53366,113.02504l-8.1564,0a28.49636,28.49636 0 0 0 0,56.7329l83.41054,0a28.49636,28.49636 0 0 0 0,-56.7329l-31.35899,0l0,-1.20165l56.70506,0a2.98326,2.98326 0 0 0 2.98326,-2.98326l0,-17.16648a2.98326,2.98326 0 0 0 -2.98326,-2.98326l-0.03712,-0.00928zm-181.23165,25.77292l-9.77561,0l0,-37.86369l9.77561,0l0,37.86369zm121.55725,-50.24676l-13.84453,0l12.68928,-25.01667l31.18268,49.4905l-27.03953,0l0,-21.49058a2.98326,2.98326 0 0 0 -2.98326,-2.98326l-0.00464,0zm-124.13222,-88.4445a5.94795,5.94795 0 0 1 5.52111,8.21671c-0.06031,0.14383 -0.13919,0.2691 -0.20878,0.40828a6.06394,6.06394 0 0 1 -0.32941,0.60315c-0.05104,0.07887 -0.11599,0.14847 -0.17167,0.22734a6.14282,6.14282 0 0 1 -0.56603,0.68666l-0.08815,0.08351a6.03147,6.03147 0 0 1 -0.80729,0.66346l-0.03712,0a5.94331,5.94331 0 0 1 -0.96967,0.52891l-0.04176,0a5.95723,5.95723 0 0 1 -1.02071,0.31549l-0.12527,0.02784a6.03147,6.03147 0 0 1 -0.95576,0.09743l-0.27374,0a5.9294,5.9294 0 0 1 -0.68666,-0.06959a2.25484,2.25484 0 0 1 -0.51963,-0.06959a5.95723,5.95723 0 0 1 1.27589,-11.77992l0.00464,0.06031zm3.35906,17.4031c0.27374,-0.07887 0.53819,-0.1763 0.80265,-0.27374s0.57995,-0.23198 0.86296,-0.36189s0.46396,-0.2227 0.70986,-0.34797s0.46396,-0.25982 0.65882,-0.399s0.29693,-0.19022 0.46396,-0.29229q0.32477,-0.22734 0.64026,-0.46396c0.13455,-0.10671 0.25982,-0.2227 0.38973,-0.33405s0.32477,-0.26446 0.46396,-0.41292l44.89731,62.74581c-0.19486,0.35261 -0.35725,0.72378 -0.52891,1.09494c-0.06031,0.12991 -0.12991,0.25518 -0.18558,0.38508c-0.10671,0.2459 -0.19022,0.49644 -0.28301,0.74697s-0.21806,0.56139 -0.31085,0.8444s-0.12991,0.46396 -0.19486,0.6913a16.97626,16.97626 0 0 0 -0.2459,0.95576c-0.05104,0.23198 -0.08815,0.46396 -0.12991,0.70522s-0.09279,0.46396 -0.12527,0.67738l-48.12182,-65.88217c0.07423,0 0.14383,-0.05104 0.21342,-0.07423l0.0232,-0.00464zm53.84244,66.74513c0,-0.12527 0.03712,-0.2459 0.05568,-0.36653a11.65465,11.65465 0 0 1 0.38045,-1.59602l0,-0.03248a11.90055,11.90055 0 0 1 0.63562,-1.5589l0.08815,-0.17631a12.06293,12.06293 0 0 1 0.90008,-1.48931a11.92374,11.92374 0 1 1 13.1254,18.29854a12.22996,12.22996 0 0 1 -1.50323,0.33405l-0.32013,0.05104a11.85879,11.85879 0 0 1 -13.5012,-11.81239a11.88199,11.88199 0 0 1 0.12063,-1.65169l0.01856,0zm8.70387,19.26822c0.28765,0.05104 0.57995,0.07887 0.87224,0.11599c0.17166,0 0.33869,0.05104 0.51499,0.06496c0.54747,0.05104 1.09958,0.08351 1.65633,0.08351l0.52891,0c0.38508,0 0.77481,-0.0232 1.1599,-0.06031c0.25982,-0.0232 0.51499,-0.06495 0.77481,-0.09743s0.39437,-0.04176 0.58923,-0.07423l3.44722,4.81589l4.75094,14.7307l-14.28994,-19.56515l-0.00464,-0.01392zm14.6611,1.73985l-2.72808,-3.81374a17.88098,17.88098 0 1 0 -20.69257,-28.91392l-41.23667,-57.61442l102.69267,44.0529l-14.99979,29.57274l-11.17677,0a2.98326,2.98326 0 0 0 -2.98326,2.98326l0,40.77735l-8.45797,-26.2276a3.00181,3.00181 0 0 0 -0.41292,-0.82121l-0.00464,0.00464zm97.71439,60.46777a21.24468,21.24468 0 0 1 -19.80177,22.3953l-83.4291,0a22.56696,22.56696 0 0 1 0,-44.79524l83.41054,0a21.24468,21.24468 0 0 1 19.79713,22.40458l0.0232,-0.00464zm-82.87235,-28.36645l0,-42.82805l25.73581,0l0,42.84661l-25.74508,0l0.00928,-0.01856zm85.4334,-7.17281l-53.74037,0l0,-11.19997l53.72181,0l0,11.19997l0.01856,0z" stroke-width="5" stroke-miterlimit="10" stroke-dasharray=""></path></g></svg>