<svg data-v-9833e8b2="" version="1.1" xmlns="http://www.w3.org/2000/svg" xmlns:xlink="http://www.w3.org/1999/xlink" width="19.5" height="25"><g data-v-9833e8b2=""><path data-v-9833e8b2="" transform="scale(0.16233766233766234)" fill="none" stroke="currentColor" paint-order="fill stroke markers" d="m12.01336,106.7736l78.60687,0l0,46.28012l-78.60687,0l0,-46.28012z" stroke-width="5" stroke-miterlimit="10" stroke-dasharray=""></path><path data-v-9833e8b2="" transform="scale(0.16233766233766234)" fill="none" stroke="currentColor" paint-order="fill stroke markers" d="m44.87345,43.72011l12.1867,0l0,43.28677l-12.1867,0l0,-43.28677z" stroke-width="5" stroke-miterlimit="10" stroke-dasharray=""></path><path data-v-9833e8b2="" transform="scale(0.16233766233766234)" fill="none" stroke="currentColor" paint-order="fill stroke markers" d="m57.06014,75.59352l17.60004,0l0,6.76669l-17.60004,0l0,-6.76669z" stroke-width="5" stroke-miterlimit="10" stroke-dasharray=""></path><path data-v-9833e8b2="" transform="scale(0.16233766233766234)" fill="none" stroke="currentColor" paint-order="fill stroke markers" d="m103.9936,46.91345m2.62001,0l0.17333,0q2.62001,0 2.62001,2.62001l0,14.7067q0,2.62001 -2.62001,2.62001l-0.17333,0q-2.62001,0 -2.62001,-2.62001l0,-14.7067q0,-2.62001 2.62001,-2.62001z" stroke-width="5" stroke-miterlimit="10" stroke-dasharray=""></path><path data-v-9833e8b2="" transform="scale(0.16233766233766234)" fill="none" stroke="currentColor" paint-order="fill stroke markers" d="m65.86017,59.72015l3.63334,0l0,10.89336l-3.63334,0l0,-10.89336zm11.59336,-35.92676s-1.25334,4.18001 -3.26667,4.39335a10.94003,10.94003 0 0 0 0.56667,-8.95336c-1.9,-4.72001 -2.16667,-1.41334 -4.14668,-6.13335c0,0 -0.49334,2.28001 0.91334,6.46002c0,0 -1.37334,-0.81334 -1.48667,-1.9a5.11335,5.11335 0 0 0 -0.34,1.52s-2.20667,-8.41336 -1.75334,-10.36669c0,0 -1.40667,0.27333 -1.78667,6.62002a3.66668,3.66668 0 0 1 -0.15333,-3.25334a1.64667,1.64667 0 0 0 -1.18,0.43333a12.12003,12.12003 0 0 0 -0.66667,-11.61336s0.49334,4.12001 0,5.26001s-4.34001,5.59335 -4.56668,9.88002c0,0 -1.78667,-1.9 1.18,-10.04003a16.66671,16.66671 0 0 0 -4.87335,11.28669s-0.53333,-0.26667 -0.49333,-1.40667c0,0 -1.06667,1.02667 -0.91334,3.47334c0,0 -0.87334,-1.74 -0.34,-3.20667c0,0 -4.26668,5.54001 0.07333,12.32003a1.06667,1.06667 0 0 1 -0.95334,-0.59334s-0.79334,7.86669 11.95336,7.86669s12.23336,-12.0467 12.23336,-12.0467zm-7.46668,8.93336c-3.92668,4.32668 -10.49336,0.25333 -10.49336,0.25333s-1.69334,-3.88668 0.22667,-7.64002c0,0 0.22,3.05334 1.20667,3.82001s1.38,-0.25333 0.58,-2.99334c0,0 1.92,1.21334 2.05334,2.99334c0,0 1.56,0.95333 1.51334,-3.37334s-1.56,-5.02668 -0.62,-6.36668c0,0 -0.09333,0.89333 1.60667,3.18001s1.74,5.92668 1.74,5.92668s3.21334,-1.59334 3.16667,-4.52001a7.14002,7.14002 0 0 1 -0.98,8.72002z" stroke-width="5" stroke-miterlimit="10" stroke-dasharray=""></path><path data-v-9833e8b2="" transform="scale(0.16233766233766234)" fill="none" stroke="currentColor" paint-order="fill stroke markers" d="m8.82002,92.7369l15.80004,-7.43135l2.47067,5.25468l-15.80004,7.43135l-2.47067,-5.25468z" stroke-width="5" stroke-miterlimit="10" stroke-dasharray=""></path><path data-v-9833e8b2="" transform="scale(0.16233766233766234)" fill="none" stroke="currentColor" paint-order="fill stroke markers" d="m7.81335,91.73356m-6.81335,0a6.81335,6.81335 0 1 0 13.6267,0a6.81335,6.81335 0 1 0 -13.6267,0z" stroke-width="5" stroke-miterlimit="10" stroke-dasharray=""></path><path data-v-9833e8b2="" transform="scale(0.16233766233766234)" fill="none" stroke="currentColor" paint-order="fill stroke markers" d="m24.06456,84.34764m-5.69465,3.74069a6.81335,6.81335 0 1 0 11.3893,-7.48137a6.81335,6.81335 0 1 0 -11.3893,7.48137z" stroke-width="5" stroke-miterlimit="10" stroke-dasharray=""></path></g></svg>