<svg data-v-9833e8b2="" version="1.1" xmlns="http://www.w3.org/2000/svg" xmlns:xlink="http://www.w3.org/1999/xlink" width="22" height="25"><g data-v-9833e8b2=""><path data-v-9833e8b2="" transform="scale(0.13966480446927373)" fill="none" stroke="currentColor" paint-order="fill stroke markers" d="m147.50037,170.87543l-145.00037,0c-0.75,0 -1.5,-0.625 -1.5,-1.5l0,-21.62505c0,-0.75 0.625,-1.5 1.5,-1.5l145.00037,0c0.75,0 1.5,0.625 1.5,1.5l0,21.62505c0,0.875 -0.75,1.5 -1.5,1.5zm-143.62536,-2.87501l142.12536,0l0,-18.75005l-142.12536,0l0,18.75005z" stroke-width="5" stroke-miterlimit="10" stroke-dasharray=""></path><path data-v-9833e8b2="" transform="scale(0.13966480446927373)" fill="none" stroke="currentColor" paint-order="fill stroke markers" d="m24.25006,178.00045l-14.50004,0c-0.75,0 -1.5,-0.625 -1.5,-1.5l0,-7.12502c0,-0.75 0.625,-1.5 1.5,-1.5l14.50004,0c0.75,0 1.5,0.625 1.5,1.5l0,7.12502c0,0.875 -0.625,1.5 -1.5,1.5zm-13.00003,-2.87501l11.62503,0l0,-4.25001l-11.62503,0l0,4.25001zm129.00032,2.87501l-14.50004,0c-0.75,0 -1.5,-0.625 -1.5,-1.5l0,-7.12502c0,-0.75 0.625,-1.5 1.5,-1.5l14.50004,0c0.75,0 1.5,0.625 1.5,1.5l0,7.12502c-0.125,0.875 -0.75,1.5 -1.5,1.5zm-13.12503,-2.87501l11.62503,0l0,-4.25001l-11.62503,0l0,4.25001zm13.25003,-11.62503l-130.75033,0c-0.75,0 -1.5,-0.625 -1.5,-1.5s0.625,-1.5 1.5,-1.5l130.75033,0c0.75,0 1.5,0.625 1.5,1.5s-0.75,1.5 -1.5,1.5zm-65.37516,-14.50004l-58.00015,0c-0.625,0 -1.125,-0.375 -1.375,-0.875c-0.25,-0.5 -0.125,-1.125 0.25,-1.625l7.12502,-7.37502c0.25,-0.25 0.625,-0.375 1,-0.375l43.75011,0c0.375,0 0.75,0.125 1,0.375l7.12502,7.37502c0.375,0.375 0.5,1 0.25,1.625c0,0.5 -0.5,0.875 -1.125,0.875zm-54.62514,-2.87501l51.12513,0l-4.37501,-4.50001l-42.50011,0l-4.25001,4.50001z" stroke-width="5" stroke-miterlimit="10" stroke-dasharray=""></path><path data-v-9833e8b2="" transform="scale(0.13966480446927373)" fill="none" stroke="currentColor" paint-order="fill stroke markers" d="m43.25011,111.75028c-0.375,0 -0.75,-0.125 -1,-0.375c-0.625,-0.625 -0.625,-1.5 0,-2.00001l5.25001,-5.25001c0.625,-0.625 1.5,-0.625 2.00001,0c0.625,0.625 0.625,1.5 0,2.00001l-5.25001,5.25001c-0.25,0.125 -0.625,0.375 -1,0.375zm0,7.12502c-0.375,0 -0.75,-0.125 -1,-0.375c-0.625,-0.625 -0.625,-1.5 0,-2.00001l5.25001,-5.25001c0.625,-0.625 1.5,-0.625 2.00001,0c0.625,0.625 0.625,1.5 0,2.00001l-5.25001,5.25001c-0.25,0.25 -0.625,0.375 -1,0.375z" stroke-width="5" stroke-miterlimit="10" stroke-dasharray=""></path><path data-v-9833e8b2="" transform="scale(0.13966480446927373)" fill="none" stroke="currentColor" paint-order="fill stroke markers" d="m43.25011,126.00031c-0.75,0 -1.5,-0.625 -1.5,-1.5l0,-26.75007c0,-0.75 0.625,-1.5 1.5,-1.5c0.75,0 1.5,0.625 1.5,1.5l0,23.37506l2.37501,-2.37501l0,-21.00005c0,-0.75 0.625,-1.5 1.5,-1.5s1.5,0.625 1.5,1.5l0,21.50005c0,0.375 -0.125,0.75 -0.375,1l-5.25001,5.25001c-0.5,0.375 -0.875,0.5 -1.25,0.5z" stroke-width="5" stroke-miterlimit="10" stroke-dasharray=""></path><path data-v-9833e8b2="" transform="scale(0.13966480446927373)" fill="none" stroke="currentColor" paint-order="fill stroke markers" d="m43.25011,104.50026c-0.375,0 -0.75,-0.125 -1,-0.375c-0.625,-0.625 -0.625,-1.5 0,-2.00001l5.25001,-5.25001c0.625,-0.625 1.5,-0.625 2.00001,0c0.625,0.625 0.625,1.5 0,2.00001l-5.25001,5.25001c-0.25,0.25 -0.625,0.375 -1,0.375z" stroke-width="5" stroke-miterlimit="10" stroke-dasharray=""></path><path data-v-9833e8b2="" transform="scale(0.13966480446927373)" fill="none" stroke="currentColor" paint-order="fill stroke markers" d="m41.3751,84.00021c-0.75,0 -1.5,-0.625 -1.5,-1.5l0,-5.75001c0,-0.75 0.625,-1.5 1.5,-1.5l8.75002,0c0.75,0 1.5,0.625 1.5,1.5l0,5.62501c0,0.75 -0.625,1.5 -1.5,1.5c-0.75,0 -1.5,-0.625 -1.5,-1.5l0,-4.25001l-5.87501,0l0,4.25001c0.125,1 -0.5,1.625 -1.375,1.625z" stroke-width="5" stroke-miterlimit="10" stroke-dasharray=""></path><path data-v-9833e8b2="" transform="scale(0.13966480446927373)" fill="none" stroke="currentColor" paint-order="fill stroke markers" d="m54.37513,78.25019l-16.75004,0c-0.75,0 -1.5,-0.625 -1.5,-1.5l0,-9.12502c0,-0.75 0.625,-1.5 1.5,-1.5l16.75004,0c0.75,0 1.5,0.625 1.5,1.5l0,9.12502c-0.125,0.875 -0.75,1.5 -1.5,1.5zm-15.25004,-2.87501l13.87503,0l0,-6.25002l-13.87503,0l0,6.25002zm15.25004,-64.25016l-16.75004,0c-0.75,0 -1.5,-0.625 -1.5,-1.5l0,-6.87502c0,-0.75 0.625,-1.5 1.5,-1.5l16.75004,0c0.75,0 1.5,0.625 1.5,1.5l0,6.87502c-0.125,0.875 -0.75,1.5 -1.5,1.5zm-15.25004,-2.87501l13.87503,0l0,-4.00001l-13.87503,0l0,4.00001zm6.87502,46.37512c-4.12501,0 -8.12502,-1.5 -11.25003,-4.62501c-3.00001,-3.00001 -4.62501,-7.00002 -4.62501,-11.25003c0,-4.25001 1.625,-8.25002 4.62501,-11.25003c6.25002,-6.25002 16.37504,-6.25002 22.50006,0c3.00001,3.00001 4.62501,7.00002 4.62501,11.25003c0,4.25001 -1.625,8.25002 -4.62501,11.25003c-3.12501,3.12501 -7.12502,4.62501 -11.25003,4.62501zm0,-29.00007c-3.50001,0 -6.75002,1.375 -9.25002,3.87501s-3.87501,5.75001 -3.87501,9.25002c0,3.50001 1.375,6.75002 3.87501,9.25002c5.12501,5.12501 13.37503,5.12501 18.50005,0c2.50001,-2.50001 3.87501,-5.75001 3.87501,-9.25002c0,-3.50001 -1.375,-6.75002 -3.87501,-9.25002s-5.75001,-3.87501 -9.25002,-3.87501z" stroke-width="5" stroke-miterlimit="10" stroke-dasharray=""></path><path data-v-9833e8b2="" transform="scale(0.13966480446927373)" fill="none" stroke="currentColor" paint-order="fill stroke markers" d="m46.00011,49.50012c-2.75001,0 -5.62501,-1 -7.75002,-3.12501c-4.25001,-4.25001 -4.25001,-11.12503 0,-15.37504c2.00001,-2.00001 4.75001,-3.12501 7.75002,-3.12501c2.87501,0 5.62501,1.125 7.75002,3.12501c4.25001,4.25001 4.25001,11.12503 0,15.37504c-2.25001,2.12501 -5.00001,3.12501 -7.75002,3.12501zm0,-18.75005c-2.12501,0 -4.12501,0.875 -5.62501,2.37501c-3.12501,3.12501 -3.12501,8.12502 0,11.25003s8.12502,3.12501 11.25003,0s3.12501,-8.12502 0,-11.25003c-1.5,-1.625 -3.50001,-2.37501 -5.62501,-2.37501z" stroke-width="5" stroke-miterlimit="10" stroke-dasharray=""></path><path data-v-9833e8b2="" transform="scale(0.13966480446927373)" fill="none" stroke="currentColor" paint-order="fill stroke markers" d="m45.87511,43.62511c-1.25,0 -2.62501,-0.5 -3.62501,-1.5c-2.00001,-2.00001 -2.00001,-5.25001 0,-7.12502c2.00001,-2.00001 5.25001,-2.00001 7.12502,0c2.00001,2.00001 2.00001,5.25001 0,7.12502c-0.875,1 -2.25001,1.5 -3.50001,1.5zm0,-7.25002c-0.5,0 -1.125,0.25 -1.5,0.625c-0.875,0.875 -0.875,2.25001 0,3.12501s2.25001,0.875 3.12501,0s0.875,-2.25001 0,-3.12501c-0.5,-0.375 -1.125,-0.625 -1.625,-0.625z" stroke-width="5" stroke-miterlimit="10" stroke-dasharray=""></path><path data-v-9833e8b2="" transform="scale(0.13966480446927373)" fill="none" stroke="currentColor" paint-order="fill stroke markers" d="m62.37515,58.62514c-0.375,0 -0.625,-0.125 -0.875,-0.375l-8.12502,-6.62502c-0.625,-0.5 -0.75,-1.375 -0.25,-2.00001c0.5,-0.625 1.375,-0.75 2.00001,-0.25l7.12502,5.87501l0.25,-0.25l-5.87501,-7.12502c-0.5,-0.625 -0.375,-1.5 0.25,-2.00001c0.625,-0.5 1.5,-0.375 2.00001,0.25l6.62502,8.12502c0.5,0.625 0.375,1.375 -0.125,2.00001l-2.12501,2.12501c-0.125,0.125 -0.5,0.25 -0.875,0.25zm-28.25007,-26.75007c-0.375,0 -0.875,-0.125 -1.125,-0.5l-6.62502,-8.12502c-0.5,-0.625 -0.375,-1.375 0.125,-2.00001l2.12501,-2.12501c0.5,-0.5 1.375,-0.625 2.00001,-0.125l8.12502,6.62502c0.625,0.5 0.75,1.375 0.25,2.00001c-0.5,0.625 -1.375,0.75 -2.00001,0.25l-7.12502,-5.87501l-0.5,0.375l5.87501,7.12502c0.5,0.625 0.375,1.5 -0.25,2.00001c-0.25,0.25 -0.625,0.375 -0.875,0.375zm23.75006,0c-0.375,0 -0.625,-0.125 -0.875,-0.375c-0.625,-0.5 -0.75,-1.375 -0.25,-2.00001l5.87501,-7.12502l-0.25,-0.25l-7.12502,5.87501c-0.625,0.5 -1.5,0.375 -2.00001,-0.25c-0.5,-0.625 -0.375,-1.5 0.25,-2.00001l8.12502,-6.62502c0.625,-0.5 1.375,-0.375 2.00001,0.125l2.12501,2.12501c0.5,0.5 0.625,1.375 0.125,2.00001l-6.62502,8.12502c-0.5,0.125 -1,0.375 -1.375,0.375zm-28.25007,26.75007c-0.375,0 -0.75,-0.125 -1,-0.375l-2.25001,-2.12501c-0.5,-0.5 -0.625,-1.375 -0.125,-2.00001l6.62502,-8.12502c0.5,-0.625 1.375,-0.75 2.00001,-0.25c0.625,0.5 0.75,1.375 0.25,2.00001l-5.75001,7.25002l0.25,0.25l7.12502,-5.87501c0.625,-0.5 1.5,-0.375 2.00001,0.25c0.5,0.625 0.375,1.5 -0.25,2.00001l-8.12502,6.62502c-0.125,0.375 -0.5,0.375 -0.75,0.375z" stroke-width="5" stroke-miterlimit="10" stroke-dasharray=""></path><path data-v-9833e8b2="" transform="scale(0.13966480446927373)" fill="none" stroke="currentColor" paint-order="fill stroke markers" d="m75.00019,69.12517l-43.50011,0c-8.87502,0 -16.00004,-7.12502 -16.00004,-16.00004l0,-28.87507c0,-8.87502 7.12502,-16.00004 16.00004,-16.00004l43.50011,0c0.75,0 1.5,0.625 1.5,1.5l0,58.00015c-0.125,0.75 -0.75,1.375 -1.5,1.375zm-43.50011,-58.00015c-7.25002,0 -13.12503,5.87501 -13.12503,13.12503l0,28.87507c0,7.25002 5.87501,13.12503 13.12503,13.12503l42.00011,0l0,-55.12514l-42.00011,0z" stroke-width="5" stroke-miterlimit="10" stroke-dasharray=""></path><path data-v-9833e8b2="" transform="scale(0.13966480446927373)" fill="none" stroke="currentColor" paint-order="fill stroke markers" d="m85.37521,69.12517l-10.37503,0c-0.75,0 -1.5,-0.625 -1.5,-1.5l0,-58.00015c0,-0.75 0.625,-1.5 1.5,-1.5l7.37502,0c0.75,0 1.5,0.625 1.5,1.5c0,0.75 -0.625,1.5 -1.5,1.5l-5.87501,0l0,55.12514l8.87502,0c0.75,0 1.5,0.625 1.5,1.5c-0.125,0.75 -0.75,1.375 -1.5,1.375z" stroke-width="5" stroke-miterlimit="10" stroke-dasharray=""></path><path data-v-9833e8b2="" transform="scale(0.13966480446927373)" fill="none" stroke="currentColor" paint-order="fill stroke markers" d="m140.25035,149.12537l-50.75013,0c-0.75,0 -1.375,-0.625 -1.5,-1.375l-7.12502,-138.00035c0,-0.375 0.125,-0.75 0.375,-1.125c0.25,-0.25 0.625,-0.5 1,-0.5l57.87515,0c0.75,0 1.5,0.625 1.5,1.5l0,138.00035c0,0.875 -0.625,1.5 -1.375,1.5zm-49.37512,-2.87501l47.87512,0l0,-135.12534l-54.87514,0l7.00002,135.12534z" stroke-width="5" stroke-miterlimit="10" stroke-dasharray=""></path><path data-v-9833e8b2="" transform="scale(0.13966480446927373)" fill="none" stroke="currentColor" paint-order="fill stroke markers" d="m133.00033,11.12503l-14.50004,0c-0.75,0 -1.5,-0.625 -1.5,-1.5l0,-7.12502c0,-0.75 0.625,-1.5 1.5,-1.5l14.50004,0c0.75,0 1.5,0.625 1.5,1.5l0,7.12502c0,0.875 -0.625,1.5 -1.5,1.5zm-13.00003,-2.87501l11.62503,0l0,-4.25001l-11.62503,0l0,4.25001zm6.37502,110.37528c-0.75,0 -1.5,-0.625 -1.5,-1.5l0,-21.00005l-4.12501,0l0,21.12505c0,0.75 -0.625,1.5 -1.5,1.5c-0.75,0 -1.5,-0.625 -1.5,-1.5l0,-22.62506c0,-0.75 0.625,-1.5 1.5,-1.5l7.00002,0c0.75,0 1.5,0.625 1.5,1.5l0,22.62506c0,0.75 -0.625,1.375 -1.375,1.375zm0,21.00005l-7.00002,0c-0.75,0 -1.5,-0.625 -1.5,-1.5l0,-8.25002c0,-0.75 0.625,-1.5 1.5,-1.5c0.75,0 1.5,0.625 1.5,1.5l0,6.75002l4.12501,0l0,-6.75002c0,-0.75 0.625,-1.5 1.5,-1.5c0.75,0 1.5,0.625 1.5,1.5l0,8.25002c-0.25,0.875 -0.875,1.5 -1.625,1.5z" stroke-width="5" stroke-miterlimit="10" stroke-dasharray=""></path><path data-v-9833e8b2="" transform="scale(0.13966480446927373)" fill="none" stroke="currentColor" paint-order="fill stroke markers" d="m122.87531,132.25033c-4.75001,0 -8.75002,-3.87501 -8.75002,-8.75002c0,-4.75001 3.87501,-8.75002 8.75002,-8.75002c4.75001,0 8.75002,3.87501 8.75002,8.75002c-0.125,4.87501 -4.00001,8.75002 -8.75002,8.75002zm0,-14.50004c-3.25001,0 -5.75001,2.62501 -5.75001,5.75001c0,3.25001 2.62501,5.75001 5.75001,5.75001c3.25001,0 5.75001,-2.62501 5.75001,-5.75001c0,-3.12501 -2.62501,-5.75001 -5.75001,-5.75001z" stroke-width="5" stroke-miterlimit="10" stroke-dasharray=""></path><path data-v-9833e8b2="" transform="scale(0.13966480446927373)" fill="none" stroke="currentColor" paint-order="fill stroke markers" d="m125.50031,53.50013l-26.37507,0c-0.625,0 -1.125,-0.375 -1.375,-0.875c-1,-2.12501 -1.5,-4.37501 -1.5,-6.75002c0,-8.75002 7.12502,-16.00004 16.00004,-16.00004c8.75002,0 16.00004,7.12502 16.00004,16.00004c0,2.37501 -0.5,4.62501 -1.5,6.75002c-0.125,0.625 -0.625,0.875 -1.25,0.875zm-25.37506,-2.87501l24.37506,0c0.5,-1.5 0.875,-3.00001 0.875,-4.62501c0,-7.25002 -5.87501,-13.00003 -13.00003,-13.00003c-7.25002,0 -13.00003,5.87501 -13.00003,13.00003c-0.125,1.625 0.25,3.12501 0.75,4.62501z" stroke-width="5" stroke-miterlimit="10" stroke-dasharray=""></path><path data-v-9833e8b2="" transform="scale(0.13966480446927373)" fill="none" stroke="currentColor" paint-order="fill stroke markers" d="m112.37528,48.50012c-0.375,0 -0.75,-0.125 -1,-0.375c-0.625,-0.625 -0.625,-1.5 0,-2.00001l6.75002,-6.75002c0.625,-0.625 1.5,-0.625 2.00001,0c0.625,0.625 0.625,1.5 0,2.00001l-6.75002,6.75002c-0.25,0.25 -0.625,0.375 -1,0.375z" stroke-width="5" stroke-miterlimit="10" stroke-dasharray=""></path><path data-v-9833e8b2="" transform="scale(0.13966480446927373)" fill="none" stroke="currentColor" paint-order="fill stroke markers" d="m125.50031,58.62514l-26.37507,0c-0.75,0 -1.5,-0.625 -1.5,-1.5s0.625,-1.5 1.5,-1.5l26.37507,0c0.75,0 1.5,0.625 1.5,1.5s-0.625,1.5 -1.5,1.5zm-23.37506,-29.25007c-2.75001,0 -5.12501,-2.25001 -5.12501,-5.12501c0,-2.75001 2.25001,-5.12501 5.12501,-5.12501c2.75001,0 5.12501,2.25001 5.12501,5.12501s-2.37501,5.12501 -5.12501,5.12501zm0,-7.25002c-1.25,0 -2.12501,1 -2.12501,2.12501c0,1.25 1,2.12501 2.12501,2.12501c1.25,0 2.12501,-1 2.12501,-2.12501c0,-1.125 -0.875,-2.12501 -2.12501,-2.12501zm20.50005,7.25002c-2.75001,0 -5.12501,-2.25001 -5.12501,-5.12501c0,-2.75001 2.25001,-5.12501 5.12501,-5.12501c2.75001,0 5.12501,2.25001 5.12501,5.12501c-0.125,2.87501 -2.37501,5.12501 -5.12501,5.12501zm0,-7.25002c-1.25,0 -2.12501,1 -2.12501,2.12501c0,1.25 1,2.12501 2.12501,2.12501c1.25,0 2.12501,-1 2.12501,-2.12501c0,-1.125 -1,-2.12501 -2.12501,-2.12501zm-10.25003,66.25017c-6.50002,0 -11.62503,-5.25001 -11.62503,-11.62503c0,-6.50002 5.25001,-11.62503 11.62503,-11.62503c6.50002,0 11.62503,5.25001 11.62503,11.62503c0,6.37502 -5.25001,11.62503 -11.62503,11.62503zm0,-20.50005c-4.87501,0 -8.75002,4.00001 -8.75002,8.75002c0,4.87501 4.00001,8.75002 8.75002,8.75002c4.87501,0 8.75002,-4.00001 8.75002,-8.75002s-3.87501,-8.75002 -8.75002,-8.75002z" stroke-width="5" stroke-miterlimit="10" stroke-dasharray=""></path><path data-v-9833e8b2="" transform="scale(0.13966480446927373)" fill="none" stroke="currentColor" paint-order="fill stroke markers" d="m112.37528,78.12519c-0.375,0 -0.75,-0.125 -1,-0.375c-0.625,-0.625 -0.625,-1.5 0,-2.00001l7.25002,-7.25002c0.625,-0.625 1.5,-0.625 2.00001,0c0.625,0.625 0.625,1.5 0,2.00001l-7.25002,7.25002c-0.25,0.25 -0.625,0.375 -1,0.375z" stroke-width="5" stroke-miterlimit="10" stroke-dasharray=""></path><path data-v-9833e8b2="" transform="scale(0.13966480446927373)" fill="none" stroke="currentColor" paint-order="fill stroke markers" d="m119.6253,85.37521c-0.375,0 -0.75,-0.125 -1,-0.375l-7.25002,-7.25002c-0.625,-0.625 -0.625,-1.5 0,-2.00001c0.625,-0.625 1.5,-0.625 2.00001,0l7.25002,7.25002c0.625,0.625 0.625,1.5 0,2.00001c-0.25,0.25 -0.625,0.375 -1,0.375z" stroke-width="5" stroke-miterlimit="10" stroke-dasharray=""></path><path data-v-9833e8b2="" transform="scale(0.13966480446927373)" fill="none" stroke="currentColor" paint-order="fill stroke markers" d="m112.37528,78.12519c-0.375,0 -0.75,-0.125 -1,-0.375l-6.87502,-6.87502c-0.625,-0.625 -0.625,-1.5 0,-2.00001c0.625,-0.625 1.5,-0.625 2.00001,0l6.87502,6.87502c0.625,0.625 0.625,1.5 0,2.00001c-0.25,0.25 -0.625,0.375 -1,0.375z" stroke-width="5" stroke-miterlimit="10" stroke-dasharray=""></path><path data-v-9833e8b2="" transform="scale(0.13966480446927373)" fill="none" stroke="currentColor" paint-order="fill stroke markers" d="m105.12526,85.37521c-0.375,0 -0.75,-0.125 -1,-0.375c-0.625,-0.625 -0.625,-1.5 0,-2.00001l7.25002,-7.25002c0.625,-0.625 1.5,-0.625 2.00001,0c0.625,0.625 0.625,1.5 0,2.00001l-7.25002,7.25002c-0.25,0.25 -0.625,0.375 -1,0.375zm21.75005,-7.25002l-4.25001,0c-0.75,0 -1.5,-0.625 -1.5,-1.5c0,-0.75 0.625,-1.5 1.5,-1.5l4.25001,0c0.75,0 1.5,0.625 1.5,1.5c-0.125,0.875 -0.75,1.5 -1.5,1.5zm-77.8752,20.12505l-6.12502,0c-3.12501,0 -5.62501,-2.50001 -5.62501,-5.62501l0,-6.12502c0,-3.12501 2.50001,-5.62501 5.62501,-5.62501l6.12502,0c3.12501,0 5.62501,2.50001 5.62501,5.62501l0,6.12502c0,3.12501 -2.50001,5.62501 -5.62501,5.62501zm-6.12502,-14.50004c-1.5,0 -2.75001,1.25 -2.75001,2.75001l0,6.12502c0,1.5 1.25,2.75001 2.75001,2.75001l6.12502,0c1.5,0 2.75001,-1.25 2.75001,-2.75001l0,-6.12502c0,-1.5 -1.25,-2.75001 -2.75001,-2.75001l-6.12502,0z" stroke-width="5" stroke-miterlimit="10" stroke-dasharray=""></path></g></svg>