<svg data-v-9833e8b2="" version="1.1" xmlns="http://www.w3.org/2000/svg" xmlns:xlink="http://www.w3.org/1999/xlink" width="25" height="20"><g data-v-9833e8b2=""><path data-v-9833e8b2="" transform="scale(0.12376237623762376)" fill="none" stroke="currentColor" paint-order="fill stroke markers" d="m185.80167,124.60279l0,-19.86307c9.02665,-6.14301 15.29638,-19.51845 15.29638,-35.01716c0,-20.62566 -11.07654,-37.46503 -25.04561,-38.55222l0,-0.06225l-24.85662,-3.86856l0,-8.93104l-8.50194,0l0,7.59039l-20.21213,-3.97528l0,-9.56913l-9.09334,0l0,8.164l-35.34176,-6.48318l0,-13.03528l-9.9382,0l0,11.48118l-15.84554,-2.46565l0,0.04447c9.07111,1.23171 15.46536,25.0256 14.38927,53.89975c-1.07608,28.87415 -9.24008,52.11443 -18.37789,52.67025l13.06196,-0.42688l0,6.01628l-23.82278,1.21393l0,10.0138l55.51387,-4.59336l0.21122,3.82854l-29.30769,1.99876l3.48171,1.70083l0,17.07503l129.10771,-15.99006l0,-12.58839l-5.23368,-0.68033l-5.48491,0.40464zm-82.90062,-4.82681l0,-5.16698l24.11626,-1.00049l0,4.8068l-24.11626,1.36067zm-22.72225,-88.13875l4.17538,-2.041l0,-0.12673l0.21122,0.02223l0.06448,-0.02223l0,0.04224l22.13307,3.5284l0,44.31283l-21.8596,-0.61586l-4.72676,0.53137l0,-45.63125l0.00222,0zm-7.95501,90.00633l1.24506,-5.86954l18.75586,-0.61586l0.31793,5.4649l-20.32107,1.02272l0.00222,-0.00222zm30.67726,5.82508l40.32198,-3.74183l0,-6.123l-6.52097,0.34017l0.73814,-4.67785l34.73035,-2.21219l2.38339,14.05578l-71.63066,6.42093l-0.02223,-4.05977l0,-0.00222zm-60.95209,-11.02318c-8.39078,-0.31793 -14.60049,-19.952 -14.97845,-45.38668l-5.24479,-0.40464c-3.23047,1.33843 -2.55681,8.22403 -2.55681,8.22403l-18.1689,0c0,-20.69681 15.75439,-21.69508 15.75439,-21.69508l10.61409,0.1912c1.82534,-26.98656 9.79813,-47.83233 18.54464,-47.48994c9.29344,0.36018 15.94337,24.49867 14.85172,53.92865c-1.08942,29.42775 -9.52244,52.99486 -18.81589,52.63246zm-3.4617,-67.37746c-1.74085,0 -3.25048,3.44169 -4.00641,8.51973l4.63561,0.10672l-0.04224,13.87569l-4.53111,-0.1912c0.73369,4.82459 2.24554,8.11509 3.94415,8.11509c2.45454,0 4.44662,-6.8189 4.44662,-15.2119c0,-8.393 -1.99209,-15.21412 -4.44662,-15.21412z" stroke-width="5" stroke-miterlimit="10" stroke-dasharray=""></path></g></svg>