<svg data-v-9833e8b2="" version="1.1" xmlns="http://www.w3.org/2000/svg" xmlns:xlink="http://www.w3.org/1999/xlink" width="25" height="22.5"><g data-v-9833e8b2=""><path data-v-9833e8b2="" transform="scale(0.19230769230769232)" fill="none" stroke="currentColor" paint-order="fill stroke markers" d="m22.42863,26.00006l35.00009,0l0,13.57146l17.1429,0l0,-13.57146l31.42865,0l0,-15.71432c0,-5.00001 -4.28572,-9.28574 -9.28574,-9.28574c-5.00001,0 -10.00003,4.28573 -10.00003,9.28574l-11.4286,0c-0.71429,-3.57144 -3.57144,-6.42859 -7.14288,-6.42859l-2.85715,0c-3.57144,0 -6.42859,2.85715 -7.14288,6.42859l-15.00004,0c-0.71429,-5.00001 -5.00001,-9.28574 -10.00003,-9.28574c-5.7143,0 -10.71431,5.00001 -10.71431,10.71431l0,14.28575zm107.14313,30.71436c-9.28574,0 -17.85719,5.00001 -22.14291,12.14289l-16.42861,0c-2.14286,-3.57144 -5.00001,-7.14288 -7.85716,-9.28574l0,-12.14289l-34.2858,0l0,12.14289c-3.57144,2.85715 -5.7143,5.7143 -7.85716,9.28574l-19.28576,0c-4.28573,-7.14288 -12.14289,-12.14289 -20.71434,-12.14289c0.71429,0.71429 0,52.85728 0,52.85728c5.7143,0 11.4286,-2.14286 15.71433,-6.42859l26.42864,0c5.00001,7.14288 13.57146,12.14289 22.8572,12.14289c9.28574,0 17.85719,-5.00001 22.8572,-12.14289l24.28578,0c4.28573,3.57144 10.00003,5.00001 15.71432,5.00001c0.71429,0 0,-51.4287 0.71429,-51.4287zm-72.85733,44.28583l-5.00001,-5.00001m30.71436,-0.71429l-5.00001,5.7143" stroke-width="5" stroke-miterlimit="10" stroke-dasharray=""></path></g></svg>