<svg data-v-9833e8b2="" version="1.1" xmlns="http://www.w3.org/2000/svg" xmlns:xlink="http://www.w3.org/1999/xlink" width="25" height="20"><g data-v-9833e8b2=""><path data-v-9833e8b2="" transform="scale(0.20491803278688525)" fill="none" stroke="currentColor" paint-order="fill stroke markers" d="m1,1l10,0l0,78l-10,0z" stroke-width="5" stroke-miterlimit="10" stroke-dasharray=""></path><path data-v-9833e8b2="" transform="scale(0.20491803278688525)" fill="none" stroke="currentColor" paint-order="fill stroke markers" d="m11,1l40,0l0,78l-40,0z" stroke-width="5" stroke-miterlimit="10" stroke-dasharray=""></path><path data-v-9833e8b2="" transform="scale(0.20491803278688525)" fill="none" stroke="currentColor" paint-order="fill stroke markers" d="m51,1l70,0l0,78l-70,0z" stroke-width="5" stroke-miterlimit="10" stroke-dasharray=""></path><path data-v-9833e8b2="" transform="scale(0.20491803278688525)" fill="none" stroke="currentColor" paint-order="fill stroke markers" d="m1.55241,79l118.89518,0c0.11046,0 0.2,0.08954 0.2,0.2c0,0.05936 -0.02637,0.11565 -0.07196,0.15364l-21.17563,17.64636l0,0l-76.8,0l-21.17563,-17.64636c-0.08485,-0.07071 -0.09632,-0.19682 -0.0256,-0.28168c0.03799,-0.0456 0.09428,-0.07196 0.15364,-0.07196z" stroke-width="5" stroke-miterlimit="10" stroke-dasharray=""></path><path data-v-9833e8b2="" transform="scale(0.20491803278688525)" fill="none" stroke="currentColor" paint-order="fill stroke markers" d="m14,4l34,0l0,72l-34,0l0,-72z" stroke-width="5" stroke-miterlimit="10" stroke-dasharray=""></path><path data-v-9833e8b2="" transform="scale(0.20491803278688525)" fill="none" stroke="currentColor" paint-order="fill stroke markers" d="m2,21l8,0l0,2l-8,0l0,-2z" stroke-width="5" stroke-miterlimit="10" stroke-dasharray=""></path><path data-v-9833e8b2="" transform="scale(0.20491803278688525)" fill="none" stroke="currentColor" paint-order="fill stroke markers" d="m2,15l8,0l0,2l-8,0l0,-2z" stroke-width="5" stroke-miterlimit="10" stroke-dasharray=""></path><path data-v-9833e8b2="" transform="scale(0.20491803278688525)" fill="none" stroke="currentColor" paint-order="fill stroke markers" d="m2,9l8,0l0,2l-8,0l0,-2z" stroke-width="5" stroke-miterlimit="10" stroke-dasharray=""></path><path data-v-9833e8b2="" transform="scale(0.20491803278688525)" fill="none" stroke="currentColor" paint-order="fill stroke markers" d="m2,27l8,0l0,2l-8,0l0,-2z" stroke-width="5" stroke-miterlimit="10" stroke-dasharray=""></path><path data-v-9833e8b2="" transform="scale(0.20491803278688525)" fill="none" stroke="currentColor" paint-order="fill stroke markers" d="m2,33l8,0l0,2l-8,0l0,-2z" stroke-width="5" stroke-miterlimit="10" stroke-dasharray=""></path><path data-v-9833e8b2="" transform="scale(0.20491803278688525)" fill="none" stroke="currentColor" paint-order="fill stroke markers" d="m2,39l8,0l0,2l-8,0l0,-2z" stroke-width="5" stroke-miterlimit="10" stroke-dasharray=""></path><path data-v-9833e8b2="" transform="scale(0.20491803278688525)" fill="none" stroke="currentColor" paint-order="fill stroke markers" d="m2,45l8,0l0,2l-8,0l0,-2z" stroke-width="5" stroke-miterlimit="10" stroke-dasharray=""></path><path data-v-9833e8b2="" transform="scale(0.20491803278688525)" fill="none" stroke="currentColor" paint-order="fill stroke markers" d="m2,51l8,0l0,2l-8,0l0,-2z" stroke-width="5" stroke-miterlimit="10" stroke-dasharray=""></path><path data-v-9833e8b2="" transform="scale(0.20491803278688525)" fill="none" stroke="currentColor" paint-order="fill stroke markers" d="m2,57l8,0l0,2l-8,0l0,-2z" stroke-width="5" stroke-miterlimit="10" stroke-dasharray=""></path><path data-v-9833e8b2="" transform="scale(0.20491803278688525)" fill="none" stroke="currentColor" paint-order="fill stroke markers" d="m2,63l8,0l0,2l-8,0l0,-2z" stroke-width="5" stroke-miterlimit="10" stroke-dasharray=""></path><path data-v-9833e8b2="" transform="scale(0.20491803278688525)" fill="none" stroke="currentColor" paint-order="fill stroke markers" d="m2,69l8,0l0,2l-8,0l0,-2z" stroke-width="5" stroke-miterlimit="10" stroke-dasharray=""></path><path data-v-9833e8b2="" transform="scale(0.20491803278688525)" fill="none" stroke="currentColor" paint-order="fill stroke markers" d="m61,11l0,58l-2,0l0,-58l2,0zm10,0l0,58l-2,0l0,-58l2,0zm10,0l0,58l-2,0l0,-58l2,0zm10,0l0,58l-2,0l0,-58l2,0zm10,0l0,58l-2,0l0,-58l2,0zm10,0l0,58l-2,0l0,-58l2,0z" stroke-width="5" stroke-miterlimit="10" stroke-dasharray=""></path></g></svg>