<svg data-v-9833e8b2="" version="1.1" xmlns="http://www.w3.org/2000/svg" xmlns:xlink="http://www.w3.org/1999/xlink" width="12" height="25"><g data-v-9833e8b2=""><path data-v-9833e8b2="" transform="scale(0.13812154696132597)" fill="none" stroke="currentColor" paint-order="fill stroke markers" d="m27,1l12,0l0,10.5l-12,0l0,-10.5l0,0z" stroke-width="5" stroke-miterlimit="10" stroke-dasharray=""></path><path data-v-9833e8b2="" transform="scale(0.13812154696132597)" fill="none" stroke="currentColor" paint-order="fill stroke markers" d="m11,162l8,0l0,18l-8,0l0,-18l0,0z" stroke-width="5" stroke-miterlimit="10" stroke-dasharray=""></path><path data-v-9833e8b2="" transform="scale(0.13812154696132597)" fill="none" stroke="currentColor" paint-order="fill stroke markers" d="m47,162l8,0l0,18l-8,0l0,-18l0,0z" stroke-width="5" stroke-miterlimit="10" stroke-dasharray=""></path><path data-v-9833e8b2="" transform="scale(0.13812154696132597)" fill="none" stroke="currentColor" paint-order="fill stroke markers" d="m1,41.4l64,0l0,101.6l-64,0l0,-101.6l0,0z" stroke-width="5" stroke-miterlimit="10" stroke-dasharray=""></path><path data-v-9833e8b2="" transform="scale(0.13812154696132597)" fill="none" stroke="currentColor" paint-order="fill stroke markers" d="m31,10l4,0c16.6,0 30,13.4 30,30l0,1.4l-64,0l0,-1.4c0,-16.6 13.4,-30 30,-30l0,0z" stroke-width="5" stroke-miterlimit="10" stroke-dasharray=""></path><path data-v-9833e8b2="" transform="scale(0.13812154696132597)" fill="none" stroke="currentColor" paint-order="fill stroke markers" d="m1,143l64,0l0,1c0,16.6 -13.4,30 -30,30l-4,0c-16.6,0 -30,-13.4 -30,-30l0,-1l0,0z" stroke-width="5" stroke-miterlimit="10" stroke-dasharray=""></path><path data-v-9833e8b2="" transform="scale(0.13812154696132597)" fill="none" stroke="currentColor" paint-order="fill stroke markers" d="m33,34.4c3.9,0 7,3.1 7,7c0,3.9 -3.1,7 -7,7c-3.9,0 -7,-3.1 -7,-7c0,-3.9 3.1,-7 7,-7l0,0z" stroke-width="5" stroke-miterlimit="10" stroke-dasharray=""></path></g></svg>