<svg data-v-9833e8b2="" version="1.1" xmlns="http://www.w3.org/2000/svg" xmlns:xlink="http://www.w3.org/1999/xlink" width="25" height="12.5"><g data-v-9833e8b2=""><path data-v-9833e8b2="" transform="scale(0.13020833333333334)" fill="none" stroke="currentColor" paint-order="fill stroke markers" d="m1,41.9l14.2,0l0,21.3l-14.2,0l0,-21.3l0,0z" stroke-width="5" stroke-miterlimit="10" stroke-dasharray=""></path><path data-v-9833e8b2="" transform="scale(0.13020833333333334)" fill="none" stroke="currentColor" paint-order="fill stroke markers" d="m191,1.1l0,103l-127.8,0l0,-32l-48,0l0,-39.1l47.9,0l0,-32l127.9,0l0,0.1z" stroke-width="5" stroke-miterlimit="10" stroke-dasharray=""></path><path data-v-9833e8b2="" transform="scale(0.13020833333333334)" fill="none" stroke="currentColor" paint-order="fill stroke markers" d="m127.1,17.1c19.6,0 35.5,15.9 35.5,35.5c0,19.6 -15.9,35.5 -35.5,35.5c-19.6,0 -35.5,-15.9 -35.5,-35.5c0,-19.6 15.9,-35.5 35.5,-35.5l0,0z" stroke-width="5" stroke-miterlimit="10" stroke-dasharray=""></path></g></svg>