<svg data-v-9833e8b2="" version="1.1" xmlns="http://www.w3.org/2000/svg" xmlns:xlink="http://www.w3.org/1999/xlink" width="17" height="25"><g data-v-9833e8b2=""><path data-v-9833e8b2="" transform="scale(0.13157894736842105)" fill="none" stroke="currentColor" paint-order="fill stroke markers" d="m7.3,106.8l6.3,0l0,11.8l-6.3,0l0,-11.8l0,0z" stroke-width="5" stroke-miterlimit="10" stroke-dasharray=""></path><path data-v-9833e8b2="" transform="scale(0.13157894736842105)" fill="none" stroke="currentColor" paint-order="fill stroke markers" d="m2.8,102.7l2.7,0c1,0 1.8,0.8 1.8,1.8l0,16.3c0,1 -0.8,1.8 -1.8,1.8l-2.7,0c-1,0 -1.8,-0.8 -1.8,-1.8l0,-16.3c0,-1 0.8,-1.8 1.8,-1.8l0,0z" stroke-width="5" stroke-miterlimit="10" stroke-dasharray=""></path><path data-v-9833e8b2="" transform="scale(0.13157894736842105)" fill="none" stroke="currentColor" paint-order="fill stroke markers" d="m7.3,25.9l6.3,0l0,11.8l-6.3,0l0,-11.8l0,0z" stroke-width="5" stroke-miterlimit="10" stroke-dasharray=""></path><path data-v-9833e8b2="" transform="scale(0.13157894736842105)" fill="none" stroke="currentColor" paint-order="fill stroke markers" d="m2.8,21.8l2.7,0c1,0 1.8,0.8 1.8,1.8l0,16.3c0,1 -0.8,1.8 -1.8,1.8l-2.7,0c-1,0 -1.8,-0.8 -1.8,-1.8l0,-16.3c0,-1 0.8,-1.8 1.8,-1.8l0,0z" stroke-width="5" stroke-miterlimit="10" stroke-dasharray=""></path><path data-v-9833e8b2="" transform="scale(0.13157894736842105)" fill="none" stroke="currentColor" paint-order="fill stroke markers" d="m99.5,19.6l6.3,0l0,11.8l-6.3,0l0,-11.8l0,0z" stroke-width="5" stroke-miterlimit="10" stroke-dasharray=""></path><path data-v-9833e8b2="" transform="scale(0.13157894736842105)" fill="none" stroke="currentColor" paint-order="fill stroke markers" d="m107.7,15.5l2.7,0c1,0 1.8,0.8 1.8,1.8l0,16.3c0,1 -0.8,1.8 -1.8,1.8l-2.7,0c-1,0 -1.8,-0.8 -1.8,-1.8l0,-16.3c0,-1 0.8,-1.8 1.8,-1.8l0,0z" stroke-width="5" stroke-miterlimit="10" stroke-dasharray=""></path><path data-v-9833e8b2="" transform="scale(0.13157894736842105)" fill="none" stroke="currentColor" paint-order="fill stroke markers" d="m99.5,43.1l6.3,0l0,11.8l-6.3,0l0,-11.8l0,0z" stroke-width="5" stroke-miterlimit="10" stroke-dasharray=""></path><path data-v-9833e8b2="" transform="scale(0.13157894736842105)" fill="none" stroke="currentColor" paint-order="fill stroke markers" d="m107.7,39l2.7,0c1,0 1.8,0.8 1.8,1.8l0,16.3c0,1 -0.8,1.8 -1.8,1.8l-2.7,0c-1,0 -1.8,-0.8 -1.8,-1.8l0,-16.3c0,-1 0.8,-1.8 1.8,-1.8l0,0z" stroke-width="5" stroke-miterlimit="10" stroke-dasharray=""></path><path data-v-9833e8b2="" transform="scale(0.13157894736842105)" fill="none" stroke="currentColor" paint-order="fill stroke markers" d="m28.1,7.4l11.8,0l0,6.3l-11.8,0l0,-6.3l0,0z" stroke-width="5" stroke-miterlimit="10" stroke-dasharray=""></path><path data-v-9833e8b2="" transform="scale(0.13157894736842105)" fill="none" stroke="currentColor" paint-order="fill stroke markers" d="m25.9,1l16.3,0c1,0 1.8,0.8 1.8,1.8l0,2.7c0,1 -0.8,1.8 -1.8,1.8l-16.3,0c-1,0 -1.8,-0.8 -1.8,-1.8l0,-2.7c-0.1,-1 0.8,-1.8 1.8,-1.8l0,0z" stroke-width="5" stroke-miterlimit="10" stroke-dasharray=""></path><path data-v-9833e8b2="" transform="scale(0.13157894736842105)" fill="none" stroke="currentColor" paint-order="fill stroke markers" d="m13.6,70.2l85.9,0l0,56l-85.9,0l0,-56l0,0z" stroke-width="5" stroke-miterlimit="10" stroke-dasharray=""></path><path data-v-9833e8b2="" transform="scale(0.13157894736842105)" fill="none" stroke="currentColor" paint-order="fill stroke markers" d="m13.6,13.7l85.9,0l0,56.5l-85.9,0l0,-56.5l0,0z" stroke-width="5" stroke-miterlimit="10" stroke-dasharray=""></path><path data-v-9833e8b2="" transform="scale(0.13157894736842105)" fill="none" stroke="currentColor" paint-order="fill stroke markers" d="m50.7,177.3l11.8,0l0,6.3l-11.8,0l0,-6.3l0,0z" stroke-width="5" stroke-miterlimit="10" stroke-dasharray=""></path><path data-v-9833e8b2="" transform="scale(0.13157894736842105)" fill="none" stroke="currentColor" paint-order="fill stroke markers" d="m48.5,183.6l16.3,0c1,0 1.8,0.8 1.8,1.8l0,2.7c0,1 -0.8,1.8 -1.8,1.8l-16.3,0c-1,0 -1.8,-0.8 -1.8,-1.8l0,-2.7c-0.1,-1 0.8,-1.8 1.8,-1.8l0,0z" stroke-width="5" stroke-miterlimit="10" stroke-dasharray=""></path><path data-v-9833e8b2="" transform="scale(0.13157894736842105)" fill="none" stroke="currentColor" paint-order="fill stroke markers" d="m50.7,177.3l-37.1,-51.1l85.9,0l-37.1,51.1l-11.7,0z" stroke-width="5" stroke-miterlimit="10" stroke-dasharray=""></path></g></svg>