<svg data-v-9833e8b2="" version="1.1" xmlns="http://www.w3.org/2000/svg" xmlns:xlink="http://www.w3.org/1999/xlink" width="25" height="22.5"><g data-v-9833e8b2=""><path data-v-9833e8b2="" transform="scale(0.13157894736842105)" fill="none" stroke="currentColor" paint-order="fill stroke markers" d="m23.1,1l11.1,0l0,31.3l-11.1,0l0,-31.3l0,0z" stroke-width="5" stroke-miterlimit="10" stroke-dasharray=""></path><path data-v-9833e8b2="" transform="scale(0.13157894736842105)" fill="none" stroke="currentColor" paint-order="fill stroke markers" d="m102.4,1l11.1,0l0,31.3l-11.1,0l0,-31.3l0,0z" stroke-width="5" stroke-miterlimit="10" stroke-dasharray=""></path><path data-v-9833e8b2="" transform="scale(0.13157894736842105)" fill="none" stroke="currentColor" paint-order="fill stroke markers" d="m17.6,155.9l33.2,0l0,11.1l-33.2,0l0,-11.1l0,0z" stroke-width="5" stroke-miterlimit="10" stroke-dasharray=""></path><path data-v-9833e8b2="" transform="scale(0.13157894736842105)" fill="none" stroke="currentColor" paint-order="fill stroke markers" d="m137.4,155.9l33.2,0l0,11.1l-33.2,0l0,-11.1l0,0z" stroke-width="5" stroke-miterlimit="10" stroke-dasharray=""></path><path data-v-9833e8b2="" transform="scale(0.13157894736842105)" fill="none" stroke="currentColor" paint-order="fill stroke markers" d="m1,32.4l188,0l0,123.5l-188,0l0,-123.5l0,0z" stroke-width="5" stroke-miterlimit="10" stroke-dasharray=""></path><path data-v-9833e8b2="" transform="scale(0.13157894736842105)" fill="none" stroke="currentColor" paint-order="fill stroke markers" d="m1,43.4l188,0l0,29.5l-188,0l0,-29.5l0,0z" stroke-width="5" stroke-miterlimit="10" stroke-dasharray=""></path><path data-v-9833e8b2="" transform="scale(0.13157894736842105)" fill="none" stroke="currentColor" paint-order="fill stroke markers" d="m1,135.6l188,0l0,3.7l-188,0l0,-3.7l0,0z" stroke-width="5" stroke-miterlimit="10" stroke-dasharray=""></path><path data-v-9833e8b2="" transform="scale(0.13157894736842105)" fill="none" stroke="currentColor" paint-order="fill stroke markers" d="m69.2,43.4l3.7,0l0,29.5l-3.7,0l0,-29.5l0,0z" stroke-width="5" stroke-miterlimit="10" stroke-dasharray=""></path><path data-v-9833e8b2="" transform="scale(0.13157894736842105)" fill="none" stroke="currentColor" paint-order="fill stroke markers" d="m41.5,82.2l106.9,0l0,73.7l-106.9,0l0,-73.7l0,0z" stroke-width="5" stroke-miterlimit="10" stroke-dasharray=""></path><path data-v-9833e8b2="" transform="scale(0.13157894736842105)" fill="none" stroke="currentColor" paint-order="fill stroke markers" d="m56.3,82.2l3.7,0l0,73.7l-3.7,0l0,-73.7l0,0z" stroke-width="5" stroke-miterlimit="10" stroke-dasharray=""></path><path data-v-9833e8b2="" transform="scale(0.13157894736842105)" fill="none" stroke="currentColor" paint-order="fill stroke markers" d="m71,82.2l3.7,0l0,73.7l-3.7,0l0,-73.7l0,0z" stroke-width="5" stroke-miterlimit="10" stroke-dasharray=""></path><path data-v-9833e8b2="" transform="scale(0.13157894736842105)" fill="none" stroke="currentColor" paint-order="fill stroke markers" d="m85.8,82.2l3.7,0l0,73.7l-3.7,0l0,-73.7l0,0z" stroke-width="5" stroke-miterlimit="10" stroke-dasharray=""></path><path data-v-9833e8b2="" transform="scale(0.13157894736842105)" fill="none" stroke="currentColor" paint-order="fill stroke markers" d="m100.5,82.2l3.7,0l0,73.7l-3.7,0l0,-73.7l0,0z" stroke-width="5" stroke-miterlimit="10" stroke-dasharray=""></path><path data-v-9833e8b2="" transform="scale(0.13157894736842105)" fill="none" stroke="currentColor" paint-order="fill stroke markers" d="m115.3,82.2l3.7,0l0,73.7l-3.7,0l0,-73.7l0,0z" stroke-width="5" stroke-miterlimit="10" stroke-dasharray=""></path><path data-v-9833e8b2="" transform="scale(0.13157894736842105)" fill="none" stroke="currentColor" paint-order="fill stroke markers" d="m130,82.2l3.7,0l0,73.7l-3.7,0l0,-73.7l0,0z" stroke-width="5" stroke-miterlimit="10" stroke-dasharray=""></path><path data-v-9833e8b2="" transform="scale(0.13157894736842105)" fill="none" stroke="currentColor" paint-order="fill stroke markers" d="m124.5,50.8c4.1,0 7.4,3.3 7.4,7.4c0,4.1 -3.3,7.4 -7.4,7.4c-4.1,0 -7.4,-3.3 -7.4,-7.4c0,-4.1 3.3,-7.4 7.4,-7.4l0,0z" stroke-width="5" stroke-miterlimit="10" stroke-dasharray=""></path><path data-v-9833e8b2="" transform="scale(0.13157894736842105)" fill="none" stroke="currentColor" paint-order="fill stroke markers" d="m142.9,50.8c4.1,0 7.4,3.3 7.4,7.4c0,4.1 -3.3,7.4 -7.4,7.4s-7.4,-3.3 -7.4,-7.4c0.1,-4.1 3.4,-7.4 7.4,-7.4l0,0z" stroke-width="5" stroke-miterlimit="10" stroke-dasharray=""></path><path data-v-9833e8b2="" transform="scale(0.13157894736842105)" fill="none" stroke="currentColor" paint-order="fill stroke markers" d="m161.4,50.8c4.1,0 7.4,3.3 7.4,7.4c0,4.1 -3.3,7.4 -7.4,7.4c-4.1,0 -7.4,-3.3 -7.4,-7.4c0,-4.1 3.3,-7.4 7.4,-7.4l0,0z" stroke-width="5" stroke-miterlimit="10" stroke-dasharray=""></path></g></svg>