<svg data-v-9833e8b2="" version="1.1" xmlns="http://www.w3.org/2000/svg" xmlns:xlink="http://www.w3.org/1999/xlink" width="19.5" height="25"><g data-v-9833e8b2=""><path data-v-9833e8b2="" transform="scale(0.13440860215053763)" fill="none" stroke="currentColor" paint-order="fill stroke markers" d="m39.6,1l24.1,0l0,28.9l-24.1,0l0,-28.9l0,0z" stroke-width="5" stroke-miterlimit="10" stroke-dasharray=""></path><path data-v-9833e8b2="" transform="scale(0.13440860215053763)" fill="none" stroke="currentColor" paint-order="fill stroke markers" d="m36,11.8l31.4,0c2.7,0 4.8,2.2 4.8,4.8l0,2.4c0,2.7 -2.2,4.8 -4.8,4.8l-31.4,0c-2.7,0 -4.8,-2.2 -4.8,-4.8l0,-2.4c0,-2.6 2.2,-4.8 4.8,-4.8l0,0z" stroke-width="5" stroke-miterlimit="10" stroke-dasharray=""></path><path data-v-9833e8b2="" transform="scale(0.13440860215053763)" fill="none" stroke="currentColor" paint-order="fill stroke markers" d="m101.1,90.2l14.5,0l0,24.1l-14.5,0l0,-24.1l0,0z" stroke-width="5" stroke-miterlimit="10" stroke-dasharray=""></path><path data-v-9833e8b2="" transform="scale(0.13440860215053763)" fill="none" stroke="currentColor" paint-order="fill stroke markers" d="m120.4,81.8l2.4,0c2.7,0 4.8,2.2 4.8,4.8l0,31.4c0,2.7 -2.2,4.8 -4.8,4.8l-2.4,0c-2.7,0 -4.8,-2.2 -4.8,-4.8l0,-31.4c0,-2.6 2.2,-4.8 4.8,-4.8l0,0z" stroke-width="5" stroke-miterlimit="10" stroke-dasharray=""></path><path data-v-9833e8b2="" transform="scale(0.13440860215053763)" fill="none" stroke="currentColor" paint-order="fill stroke markers" d="m1,163.8l100.1,0l0,2.4c0,10.7 -8.6,19.3 -19.3,19.3l-61.5,0c-10.7,0 -19.3,-8.6 -19.3,-19.3l0,-2.4l0,0z" stroke-width="5" stroke-miterlimit="10" stroke-dasharray=""></path><path data-v-9833e8b2="" transform="scale(0.13440860215053763)" fill="none" stroke="currentColor" paint-order="fill stroke markers" d="m20.3,29.9l61.5,0c10.7,0 19.3,8.6 19.3,19.3l0,2.4l-100.1,0l0,-2.4c0,-10.6 8.7,-19.3 19.3,-19.3l0,0z" stroke-width="5" stroke-miterlimit="10" stroke-dasharray=""></path><path data-v-9833e8b2="" transform="scale(0.13440860215053763)" fill="none" stroke="currentColor" paint-order="fill stroke markers" d="m1,51.6l100.1,0l0,112.2l-100.1,0l0,-112.2l0,0z" stroke-width="5" stroke-miterlimit="10" stroke-dasharray=""></path></g></svg>