<svg data-v-9833e8b2="" version="1.1" xmlns="http://www.w3.org/2000/svg" xmlns:xlink="http://www.w3.org/1999/xlink" width="25" height="5"><g data-v-9833e8b2=""><path data-v-9833e8b2="" transform="scale(0.13297872340425532)" fill="none" stroke="currentColor" paint-order="fill stroke markers" d="m6.7,18.5l175.6,0c3.1,0 5.6,2.5 5.6,5.6c0,3.1 -2.5,5.6 -5.6,5.6l-175.6,0c-3.1,0 -5.6,-2.5 -5.6,-5.6c0,-3.1 2.5,-5.6 5.6,-5.6l0,0z" stroke-width="5" stroke-miterlimit="10" stroke-dasharray=""></path><path data-v-9833e8b2="" transform="scale(0.13297872340425532)" fill="none" stroke="currentColor" paint-order="fill stroke markers" d="m20.2,5l1.6,0l0,4.8l-1.6,0l0,-4.8l0,0z" stroke-width="5" stroke-miterlimit="10" stroke-dasharray=""></path><path data-v-9833e8b2="" transform="scale(0.13297872340425532)" fill="none" stroke="currentColor" paint-order="fill stroke markers" d="m1.1,1l3.2,0l0,8.7l-3.2,0l0,-8.7l0,0z" stroke-width="5" stroke-miterlimit="10" stroke-dasharray=""></path><path data-v-9833e8b2="" transform="scale(0.13297872340425532)" fill="none" stroke="currentColor" paint-order="fill stroke markers" d="m37.7,1l3.2,0l0,8.7l-3.2,0l0,-8.7l0,0z" stroke-width="5" stroke-miterlimit="10" stroke-dasharray=""></path><path data-v-9833e8b2="" transform="scale(0.13297872340425532)" fill="none" stroke="currentColor" paint-order="fill stroke markers" d="m74.2,1l3.2,0l0,8.7l-3.2,0l0,-8.7l0,0z" stroke-width="5" stroke-miterlimit="10" stroke-dasharray=""></path><path data-v-9833e8b2="" transform="scale(0.13297872340425532)" fill="none" stroke="currentColor" paint-order="fill stroke markers" d="m110.8,1l3.2,0l0,8.7l-3.2,0l0,-8.7l0,0z" stroke-width="5" stroke-miterlimit="10" stroke-dasharray=""></path><path data-v-9833e8b2="" transform="scale(0.13297872340425532)" fill="none" stroke="currentColor" paint-order="fill stroke markers" d="m147.3,1l3.2,0l0,8.7l-3.2,0l0,-8.7l0,0z" stroke-width="5" stroke-miterlimit="10" stroke-dasharray=""></path><path data-v-9833e8b2="" transform="scale(0.13297872340425532)" fill="none" stroke="currentColor" paint-order="fill stroke markers" d="m183.9,1l3.2,0l0,8.7l-3.2,0l0,-8.7l0,0z" stroke-width="5" stroke-miterlimit="10" stroke-dasharray=""></path><path data-v-9833e8b2="" transform="scale(0.13297872340425532)" fill="none" stroke="currentColor" paint-order="fill stroke markers" d="m56.8,5l1.6,0l0,4.8l-1.6,0l0,-4.8l0,0z" stroke-width="5" stroke-miterlimit="10" stroke-dasharray=""></path><path data-v-9833e8b2="" transform="scale(0.13297872340425532)" fill="none" stroke="currentColor" paint-order="fill stroke markers" d="m93.3,5l1.6,0l0,4.8l-1.6,0l0,-4.8l0,0z" stroke-width="5" stroke-miterlimit="10" stroke-dasharray=""></path><path data-v-9833e8b2="" transform="scale(0.13297872340425532)" fill="none" stroke="currentColor" paint-order="fill stroke markers" d="m129.9,5l1.6,0l0,4.8l-1.6,0l0,-4.8l0,0z" stroke-width="5" stroke-miterlimit="10" stroke-dasharray=""></path><path data-v-9833e8b2="" transform="scale(0.13297872340425532)" fill="none" stroke="currentColor" paint-order="fill stroke markers" d="m166.4,5l1.6,0l0,4.8l-1.6,0l0,-4.8l0,0z" stroke-width="5" stroke-miterlimit="10" stroke-dasharray=""></path><path data-v-9833e8b2="" transform="scale(0.13297872340425532)" fill="none" stroke="currentColor" paint-order="fill stroke markers" d="m110.8,18.5l0,11.1l-6.4,0l-4.8,0l-93,0c-3.1,0 -5.6,-2.5 -5.6,-5.6c0,-3.1 2.5,-5.6 5.6,-5.6l93,0l4.8,0l6.4,0l0,0.1z" stroke-width="5" stroke-miterlimit="10" stroke-dasharray=""></path><path data-v-9833e8b2="" transform="scale(0.13297872340425532)" fill="none" stroke="currentColor" paint-order="fill stroke markers" d="m106.8,12.1c2.6,0 4.8,2.1 4.8,4.8l0,14.3c0,2.6 -2.1,4.8 -4.8,4.8c-2.6,0 -4.8,-2.1 -4.8,-4.8l0,-14.3c0,-2.6 2.2,-4.8 4.8,-4.8l0,0z" stroke-width="5" stroke-miterlimit="10" stroke-dasharray=""></path></g></svg>