<svg data-v-9833e8b2="" version="1.1" xmlns="http://www.w3.org/2000/svg" xmlns:xlink="http://www.w3.org/1999/xlink" width="24.5" height="25"><g data-v-9833e8b2=""><path data-v-9833e8b2="" transform="scale(0.10548523206751055)" fill="none" stroke="currentColor" paint-order="fill stroke markers" d="m30.18919,124.75609l-29.18919,-48.92683l43.78378,-74.82927l128.43243,0l43.78378,71.95122l0,51.80488l0,0l0,14.39024l-186.81081,0l0,-14.39024l0,0zm0,14.39024l186.81081,0l0,97.85365l-186.81081,0l0,-97.85365z" stroke-width="5" stroke-miterlimit="10" stroke-dasharray=""></path><path data-v-9833e8b2="" transform="scale(0.10548523206751055)" fill="none" stroke="currentColor" paint-order="fill stroke markers" d="m215.54054,88.78048l0,-2.87805l-33.56757,0l0,-23.02439l24.81081,0l0,-2.87805l-24.81081,0l0,-23.02439l8.75676,0l0,-2.87805l-8.75676,0l0,-15.82927l-2.91892,0l0,15.82927l-35.02703,0l0,-31.65854l-2.91892,0l0,31.65854l-35.02703,0l0,-31.65854l-2.91892,0l0,31.65854l-35.02703,0l0,-31.65854l-2.91892,0l0,31.65854l-24.81081,0l0,2.87805l24.81081,0l0,23.02439l-40.86486,0l0,2.87805l40.86486,0l0,23.02439l-54,0l0,2.87805l54,0l0,23.02439l-39.4054,0l0,2.87805l39.4054,0l0,23.02439l2.91892,0l0,-74.82927l110.91892,0l0,74.82927l2.91892,0l0,-23.02439l33.56757,0l0,-2.87805l-33.56757,0l0,-23.02439l33.56757,0zm-112.37838,-28.78049l-35.02703,0l0,-23.02439l35.02703,0l0,23.02439zm37.94595,0l-35.02703,0l0,-23.02439l35.02703,0l0,23.02439zm37.94595,0l-35.02703,0l0,-23.02439l35.02703,0l0,23.02439zm36.48649,139.58536l0,2.87805l-33.56757,0l0,33.09756l-2.91892,0l0,-33.09756l-35.02703,0l0,33.09756l-2.91892,0l0,-33.09756l-35.02703,0l0,33.09756l-2.91892,0l0,-33.09756l-35.02703,0l0,33.09756l-2.91892,0l0,-33.09756l-33.56757,0l0,-2.87805l183.89189,0z" stroke-width="5" stroke-miterlimit="10" stroke-dasharray=""></path><path data-v-9833e8b2="" transform="scale(0.10548523206751055)" fill="none" stroke="currentColor" paint-order="fill stroke markers" d="m59.37838,1l-51.08108,87.78048" stroke-width="5" stroke-miterlimit="10" stroke-dasharray=""></path><path data-v-9833e8b2="" transform="scale(0.10548523206751055)" fill="none" stroke="currentColor" paint-order="fill stroke markers" d="m123.59459,88.78048c-27.43784,0 -49.62162,21.87317 -49.62162,48.92683s22.18378,48.92683 49.62162,48.92683s49.62162,-21.87317 49.62162,-48.92683s-22.18378,-48.92683 -49.62162,-48.92683z" stroke-width="5" stroke-miterlimit="10" stroke-dasharray=""></path><path data-v-9833e8b2="" transform="scale(0.10548523206751055)" fill="none" stroke="currentColor" paint-order="fill stroke markers" d="m123.59459,124.03658c-8.02703,0 -14.59459,6.47561 -14.59459,14.39024s6.56757,14.39024 14.59459,14.39024s14.59459,-6.47561 14.59459,-14.39024s-6.56757,-14.39024 -14.59459,-14.39024z" stroke-width="5" stroke-miterlimit="10" stroke-dasharray=""></path><path data-v-9833e8b2="" transform="scale(0.10548523206751055)" fill="none" stroke="currentColor" paint-order="fill stroke markers" d="m123.59459,166.4878c3.21081,0 5.83784,2.59024 5.83784,5.7561s-2.62703,5.7561 -5.83784,5.7561s-5.83784,-2.59024 -5.83784,-5.7561s2.62703,-5.7561 5.83784,-5.7561zm-25.24865,-14.39024c1.60541,2.73415 0.58378,6.33171 -2.18919,7.91463s-6.42162,0.57561 -8.02703,-2.15854s-0.58378,-6.33171 2.18919,-7.91463s6.42162,-0.57561 8.02703,2.15854zm58.52432,-2.15854c2.77297,1.58293 3.79459,5.18049 2.18919,7.91463s-5.25405,3.74146 -8.02703,2.15854s-3.79459,-5.18049 -2.18919,-7.91463s5.25405,-3.74146 8.02703,-2.15854zm2.04324,-32.37805c1.60541,2.73415 0.58378,6.33171 -2.18919,7.91463s-6.42162,0.57561 -8.02703,-2.15854s-0.58378,-6.33171 2.18919,-7.91463c2.91892,-1.58293 6.42162,-0.57561 8.02703,2.15854zm-62.75676,-2.15854c2.77297,1.58293 3.79459,5.18049 2.18919,7.91463s-5.25405,3.74146 -8.02703,2.15854s-3.79459,-5.18049 -2.18919,-7.91463s5.25405,-3.74146 8.02703,-2.15854zm27.43784,-17.9878c3.21081,0 5.83784,2.59024 5.83784,5.7561s-2.62703,5.7561 -5.83784,5.7561s-5.83784,-2.59024 -5.83784,-5.7561s2.62703,-5.7561 5.83784,-5.7561z" stroke-width="5" stroke-miterlimit="10" stroke-dasharray=""></path></g></svg>