<svg data-v-9833e8b2="" version="1.1" xmlns="http://www.w3.org/2000/svg" xmlns:xlink="http://www.w3.org/1999/xlink" width="25" height="25"><g data-v-9833e8b2=""><path data-v-9833e8b2="" transform="scale(0.1366120218579235)" fill="none" stroke="currentColor" paint-order="fill stroke markers" d="m10.5,94l162.8,0l0,41l-162.8,0l0,-41z" stroke-width="5" stroke-miterlimit="10" stroke-dasharray=""></path><path data-v-9833e8b2="" transform="scale(0.1366120218579235)" fill="none" stroke="currentColor" paint-order="fill stroke markers" d="m72.8,39.3l38.3,0l0,23.9l-38.3,0l0,-23.9z" stroke-width="5" stroke-miterlimit="10" stroke-dasharray=""></path><path data-v-9833e8b2="" transform="scale(0.1366120218579235)" fill="none" stroke="currentColor" paint-order="fill stroke markers" d="m34.5,1l114.9,0l0,38.3l-114.9,0l0,-38.3z" stroke-width="5" stroke-miterlimit="10" stroke-dasharray=""></path><path data-v-9833e8b2="" transform="scale(0.1366120218579235)" fill="none" stroke="currentColor" paint-order="fill stroke markers" d="m1,63.2l181.9,0l0,30.8l-181.9,0l0,-30.8z" stroke-width="5" stroke-miterlimit="10" stroke-dasharray=""></path><path data-v-9833e8b2="" transform="scale(0.1366120218579235)" fill="none" stroke="currentColor" paint-order="fill stroke markers" d="m1,135l181.9,0l0,38.3l-181.9,0l0,-38.3z" stroke-width="5" stroke-miterlimit="10" stroke-dasharray=""></path><path data-v-9833e8b2="" transform="scale(0.1366120218579235)" fill="none" stroke="currentColor" paint-order="fill stroke markers" d="m91.9,82.4c18.5,0 33.5,15 33.5,33.5s-15,33.5 -33.5,33.5s-33.5,-15 -33.5,-33.5c0,-18.5 15,-33.5 33.5,-33.5l0,0z" stroke-width="5" stroke-miterlimit="10" stroke-dasharray=""></path></g></svg>