<svg data-v-9833e8b2="" version="1.1" xmlns="http://www.w3.org/2000/svg" xmlns:xlink="http://www.w3.org/1999/xlink" width="25" height="17.5"><g data-v-9833e8b2=""><path data-v-9833e8b2="" transform="scale(0.13020833333333334)" fill="none" stroke="currentColor" paint-order="fill stroke markers" d="m69.7,66.6l50,0l0,9.4l-50,0l0,-9.4l0,0z" stroke-width="5" stroke-miterlimit="10" stroke-dasharray=""></path><path data-v-9833e8b2="" transform="scale(0.13020833333333334)" fill="none" stroke="currentColor" paint-order="fill stroke markers" d="m154,33.8c20.7,0 37.5,16.8 37.5,37.5c0,20.7 -16.8,37.5 -37.5,37.5c-20.7,0 -37.5,-16.8 -37.5,-37.5c0,-20.7 16.8,-37.5 37.5,-37.5l0,0z" stroke-width="5" stroke-miterlimit="10" stroke-dasharray=""></path><path data-v-9833e8b2="" transform="scale(0.13020833333333334)" fill="none" stroke="currentColor" paint-order="fill stroke markers" d="m1,104.1l0,-65.6l60.9,-37.5l7.8,0l0,140.5l-7.8,0l-60.9,-37.4l0,0z" stroke-width="5" stroke-miterlimit="10" stroke-dasharray=""></path></g></svg>