<svg data-v-9833e8b2="" version="1.1" xmlns="http://www.w3.org/2000/svg" xmlns:xlink="http://www.w3.org/1999/xlink" width="25" height="22.5"><g data-v-9833e8b2=""><path data-v-9833e8b2="" transform="scale(0.13227513227513227)" fill="none" stroke="currentColor" paint-order="fill stroke markers" d="m74.2,7.2l40.5,0l0,29.6l-40.5,0l0,-29.6l0,0z" stroke-width="5" stroke-miterlimit="10" stroke-dasharray=""></path><path data-v-9833e8b2="" transform="scale(0.13227513227513227)" fill="none" stroke="currentColor" paint-order="fill stroke markers" d="m1,29l59.2,0l0,90.4l-59.2,0l0,-90.4l0,0z" stroke-width="5" stroke-miterlimit="10" stroke-dasharray=""></path><path data-v-9833e8b2="" transform="scale(0.13227513227513227)" fill="none" stroke="currentColor" paint-order="fill stroke markers" d="m27.5,1l6.2,0c14.6,0 26.5,11.9 26.5,26.5l0,1.5l-59.2,0l0,-1.6c0,-14.6 11.9,-26.4 26.5,-26.4l0,0z" stroke-width="5" stroke-miterlimit="10" stroke-dasharray=""></path><path data-v-9833e8b2="" transform="scale(0.13227513227513227)" fill="none" stroke="currentColor" paint-order="fill stroke markers" d="m1,119.4l59.2,0l0,1.6c0,14.6 -11.9,26.5 -26.5,26.5l-6.2,0c-14.6,0 -26.5,-11.9 -26.5,-26.5l0,-1.6l0,0z" stroke-width="5" stroke-miterlimit="10" stroke-dasharray=""></path><path data-v-9833e8b2="" transform="scale(0.13227513227513227)" fill="none" stroke="currentColor" paint-order="fill stroke markers" d="m128.8,29l59.2,0l0,90.4l-59.2,0l0,-90.4l0,0z" stroke-width="5" stroke-miterlimit="10" stroke-dasharray=""></path><path data-v-9833e8b2="" transform="scale(0.13227513227513227)" fill="none" stroke="currentColor" paint-order="fill stroke markers" d="m155.3,1l6.2,0c14.6,0 26.5,11.9 26.5,26.5l0,1.5l-59.2,0l0,-1.6c0,-14.6 11.8,-26.4 26.5,-26.4l0,0z" stroke-width="5" stroke-miterlimit="10" stroke-dasharray=""></path><path data-v-9833e8b2="" transform="scale(0.13227513227513227)" fill="none" stroke="currentColor" paint-order="fill stroke markers" d="m128.8,119.4l59.2,0l0,1.6c0,14.6 -11.9,26.5 -26.5,26.5l-6.2,0c-14.6,0 -26.5,-11.9 -26.5,-26.5l0,-1.6l0,0z" stroke-width="5" stroke-miterlimit="10" stroke-dasharray=""></path><path data-v-9833e8b2="" transform="scale(0.13227513227513227)" fill="none" stroke="currentColor" paint-order="fill stroke markers" d="m64.9,36.8l59.2,0l0,76.3l-59.2,0l0,-76.3l0,0z" stroke-width="5" stroke-miterlimit="10" stroke-dasharray=""></path><path data-v-9833e8b2="" transform="scale(0.13227513227513227)" fill="none" stroke="currentColor" paint-order="fill stroke markers" d="m124.1,128.7c0,6.9 4.1,12.9 10,15.6l-79.2,0c5.9,-2.7 10,-8.7 10,-15.6l0,-7.8l0,-6.2l0,-1.6l59.2,0l0,1.6l0,6.2l0,7.8l0,0z" stroke-width="5" stroke-miterlimit="10" stroke-dasharray=""></path><path data-v-9833e8b2="" transform="scale(0.13227513227513227)" fill="none" stroke="currentColor" paint-order="fill stroke markers" d="m1,150.5l187,0l0,12.5l-187,0l0,-12.5l0,0z" stroke-width="5" stroke-miterlimit="10" stroke-dasharray=""></path></g></svg>