<svg data-v-9833e8b2="" version="1.1" xmlns="http://www.w3.org/2000/svg" xmlns:xlink="http://www.w3.org/1999/xlink" width="24.5" height="25"><g data-v-9833e8b2=""><path data-v-9833e8b2="" transform="scale(0.13736263736263737)" fill="none" stroke="currentColor" paint-order="fill stroke markers" d="m34.8,136.9l88,0l33.8,44.7l-155.6,0l33.8,-44.7l0,0z" stroke-width="5" stroke-miterlimit="10" stroke-dasharray=""></path><path data-v-9833e8b2="" transform="scale(0.13736263736263737)" fill="none" stroke="currentColor" paint-order="fill stroke markers" d="m78.8,1c42.9,0 77.8,34.8 77.8,77.8c0,42.9 -34.8,77.8 -77.8,77.8c-43,0 -77.8,-34.8 -77.8,-77.8c0,-43 34.9,-77.8 77.8,-77.8l0,0z" stroke-width="5" stroke-miterlimit="10" stroke-dasharray=""></path><path data-v-9833e8b2="" transform="scale(0.13736263736263737)" fill="none" stroke="currentColor" paint-order="fill stroke markers" d="m78.2,137.2c-1.1,0 -2.2,-0.1 -3.4,-0.1l0,-32.6c-4.4,-0.6 -8.5,-2.4 -11.9,-5c0.1,0.1 0.2,0.2 0.2,0.3l-23,25c-12.1,-11.3 -19.6,-27.6 -19.1,-45.5l0,0c0.1,-1.1 0.1,-2.2 0.2,-3.4l0.3,0l31.4,0.9c0.5,-5.7 2.9,-10.8 6.6,-14.8l-24.5,-21.2c10.9,-12.6 27,-20.5 44.9,-20.5l0.1,-0.1c1.1,0 2.2,0.1 3.4,0.1l0,33.7c4.5,0.9 8.6,3 11.9,5.9l22.2,-24.1c12.2,11.3 19.7,27.5 19.1,45.4l0.1,0.1c-0.1,1.1 -0.1,2.2 -0.2,3.4l-0.3,0l-32.6,-1c-0.8,4.3 -2.6,8.1 -5.2,11.4l24.8,21.5c-11,12.7 -27.1,20.5 -45,20.6l0,0z" stroke-width="5" stroke-miterlimit="10" stroke-dasharray=""></path><path data-v-9833e8b2="" transform="scale(0.13736263736263737)" fill="none" stroke="currentColor" paint-order="fill stroke markers" d="m95.3,78.7c0,9.1 -7.4,16.5 -16.5,16.5s-16.5,-7.4 -16.5,-16.5s7.4,-16.4 16.5,-16.4s16.5,7.3 16.5,16.4z" stroke-width="5" stroke-miterlimit="10" stroke-dasharray=""></path></g></svg>