<svg data-v-9833e8b2="" version="1.1" xmlns="http://www.w3.org/2000/svg" xmlns:xlink="http://www.w3.org/1999/xlink" width="25" height="20"><g data-v-9833e8b2=""><path data-v-9833e8b2="" transform="scale(0.13297872340425532)" fill="none" stroke="currentColor" paint-order="fill stroke markers" d="m1.1,95.4l186.3,0l-78.6,54l-29.1,0l-78.6,-54l0,0z" stroke-width="5" stroke-miterlimit="10" stroke-dasharray=""></path><path data-v-9833e8b2="" transform="scale(0.13297872340425532)" fill="none" stroke="currentColor" paint-order="fill stroke markers" d="m187.4,95.3l0,0c0,0.1 0,0.2 0,0.2c0,4.1 -41.7,7.4 -93.2,7.4c-51.5,0 -93.2,-3.3 -93.2,-7.4c0,-0.1 0,-0.2 0.1,-0.2l0,0l0,-74.5c0,-5.6 3.8,-10.3 8.9,-11.8c10.5,-4.6 44.3,-8 84.3,-8c40,0 73.8,3.4 84.3,8c5.1,1.5 8.9,6.2 8.9,11.8l0,74.5l-0.1,0z" stroke-width="5" stroke-miterlimit="10" stroke-dasharray=""></path></g></svg>