<svg data-v-9833e8b2="" version="1.1" xmlns="http://www.w3.org/2000/svg" xmlns:xlink="http://www.w3.org/1999/xlink" width="25" height="15"><g data-v-9833e8b2=""><path data-v-9833e8b2="" transform="scale(0.12886597938144329)" fill="none" stroke="currentColor" paint-order="fill stroke markers" d="m98.9,24.3l13.3,0l0,6.6l-13.3,0l0,-6.6l0,0z" stroke-width="5" stroke-miterlimit="10" stroke-dasharray=""></path><path data-v-9833e8b2="" transform="scale(0.12886597938144329)" fill="none" stroke="currentColor" paint-order="fill stroke markers" d="m103.1,20.1l3.3,0c0.9,0 1.7,0.7 1.7,1.7l0,11.6c0,0.9 -0.7,1.7 -1.7,1.7l-3.3,0c-0.9,0 -1.7,-0.7 -1.7,-1.7l0,-11.6c0,-0.9 0.7,-1.7 1.7,-1.7l0,0z" stroke-width="5" stroke-miterlimit="10" stroke-dasharray=""></path><path data-v-9833e8b2="" transform="scale(0.12886597938144329)" fill="none" stroke="currentColor" paint-order="fill stroke markers" d="m92.3,16.8l3.3,0c1.8,0 3.3,1.5 3.3,3.3l0,14.9c0,1.8 -1.5,3.3 -3.3,3.3l-3.3,0l0,-21.5l0,0z" stroke-width="5" stroke-miterlimit="10" stroke-dasharray=""></path><path data-v-9833e8b2="" transform="scale(0.12886597938144329)" fill="none" stroke="currentColor" paint-order="fill stroke markers" d="m123.8,48.3l11.6,0l0,3.3l-11.6,0l0,-3.3l0,0z" stroke-width="5" stroke-miterlimit="10" stroke-dasharray=""></path><path data-v-9833e8b2="" transform="scale(0.12886597938144329)" fill="none" stroke="currentColor" paint-order="fill stroke markers" d="m163.7,48.3l11.6,0l0,3.3l-11.6,0l0,-3.3l0,0z" stroke-width="5" stroke-miterlimit="10" stroke-dasharray=""></path><path data-v-9833e8b2="" transform="scale(0.12886597938144329)" fill="none" stroke="currentColor" paint-order="fill stroke markers" d="m19.2,48.3l11.6,0l0,3.3l-11.6,0l0,-3.3l0,0z" stroke-width="5" stroke-miterlimit="10" stroke-dasharray=""></path><path data-v-9833e8b2="" transform="scale(0.12886597938144329)" fill="none" stroke="currentColor" paint-order="fill stroke markers" d="m119.7,6.8l60.6,0l0,41.5l-60.6,0l0,-41.5l0,0z" stroke-width="5" stroke-miterlimit="10" stroke-dasharray=""></path><path data-v-9833e8b2="" transform="scale(0.12886597938144329)" fill="none" stroke="currentColor" paint-order="fill stroke markers" d="m1,51.7l192.6,0l0,5l-192.6,0l0,-5l0,0z" stroke-width="5" stroke-miterlimit="10" stroke-dasharray=""></path><path data-v-9833e8b2="" transform="scale(0.12886597938144329)" fill="none" stroke="currentColor" paint-order="fill stroke markers" d="m119.7,14.3l60.6,0l0,1.7l-60.6,0l0,-1.7l0,0z" stroke-width="5" stroke-miterlimit="10" stroke-dasharray=""></path><path data-v-9833e8b2="" transform="scale(0.12886597938144329)" fill="none" stroke="currentColor" paint-order="fill stroke markers" d="m119.7,22.6l60.6,0l0,1.7l-60.6,0l0,-1.7l0,0z" stroke-width="5" stroke-miterlimit="10" stroke-dasharray=""></path><path data-v-9833e8b2="" transform="scale(0.12886597938144329)" fill="none" stroke="currentColor" paint-order="fill stroke markers" d="m119.7,30.9l60.6,0l0,1.7l-60.6,0l0,-1.7l0,0z" stroke-width="5" stroke-miterlimit="10" stroke-dasharray=""></path><path data-v-9833e8b2="" transform="scale(0.12886597938144329)" fill="none" stroke="currentColor" paint-order="fill stroke markers" d="m119.7,39.2l60.6,0l0,1.7l-60.6,0l0,-1.7l0,0z" stroke-width="5" stroke-miterlimit="10" stroke-dasharray=""></path><path data-v-9833e8b2="" transform="scale(0.12886597938144329)" fill="none" stroke="currentColor" paint-order="fill stroke markers" d="m115.5,6.8l4.1,0l0,41.5l-4.1,0c-1.8,0 -3.3,-1.5 -3.3,-3.3l0,-34.8c0,-1.9 1.5,-3.4 3.3,-3.4l0,0z" stroke-width="5" stroke-miterlimit="10" stroke-dasharray=""></path><path data-v-9833e8b2="" transform="scale(0.12886597938144329)" fill="none" stroke="currentColor" paint-order="fill stroke markers" d="m180.3,6.8l10,0c1.8,0 3.3,1.5 3.3,3.3l0,34.9c0,1.8 -1.5,3.3 -3.3,3.3l-10,0l0,-41.5l0,0z" stroke-width="5" stroke-miterlimit="10" stroke-dasharray=""></path><path data-v-9833e8b2="" transform="scale(0.12886597938144329)" fill="none" stroke="currentColor" paint-order="fill stroke markers" d="m15.1,1l14.9,0l0,5.8l-14.9,0l0,-5.8l0,0z" stroke-width="5" stroke-miterlimit="10" stroke-dasharray=""></path><path data-v-9833e8b2="" transform="scale(0.12886597938144329)" fill="none" stroke="currentColor" paint-order="fill stroke markers" d="m4.3,17.6l5,0l0,19.9l-5,0c-1.8,0 -3.3,-1.5 -3.3,-3.3l0,-13.3c0,-1.8 1.5,-3.3 3.3,-3.3l0,0z" stroke-width="5" stroke-miterlimit="10" stroke-dasharray=""></path><path data-v-9833e8b2="" transform="scale(0.12886597938144329)" fill="none" stroke="currentColor" paint-order="fill stroke markers" d="m12.6,6.8l76.4,0c1.8,0 3.3,1.5 3.3,3.3l0,34.9c0,1.8 -1.5,3.3 -3.3,3.3l-76.4,0c-1.8,0 -3.3,-1.5 -3.3,-3.3l0,-34.8c0,-1.9 1.5,-3.4 3.3,-3.4l0,0z" stroke-width="5" stroke-miterlimit="10" stroke-dasharray=""></path><path data-v-9833e8b2="" transform="scale(0.12886597938144329)" fill="none" stroke="currentColor" paint-order="fill stroke markers" d="m25,6.8l1.7,0l0,41.5l-1.7,0l0,-41.5l0,0z" stroke-width="5" stroke-miterlimit="10" stroke-dasharray=""></path><path data-v-9833e8b2="" transform="scale(0.12886597938144329)" fill="none" stroke="currentColor" paint-order="fill stroke markers" d="m37.5,6.8l1.7,0l0,41.5l-1.7,0l0,-41.5l0,0z" stroke-width="5" stroke-miterlimit="10" stroke-dasharray=""></path><path data-v-9833e8b2="" transform="scale(0.12886597938144329)" fill="none" stroke="currentColor" paint-order="fill stroke markers" d="m49.9,6.8l1.7,0l0,41.5l-1.7,0l0,-41.5l0,0z" stroke-width="5" stroke-miterlimit="10" stroke-dasharray=""></path><path data-v-9833e8b2="" transform="scale(0.12886597938144329)" fill="none" stroke="currentColor" paint-order="fill stroke markers" d="m62.4,6.8l1.7,0l0,41.5l-1.7,0l0,-41.5l0,0z" stroke-width="5" stroke-miterlimit="10" stroke-dasharray=""></path><path data-v-9833e8b2="" transform="scale(0.12886597938144329)" fill="none" stroke="currentColor" paint-order="fill stroke markers" d="m74.8,6.8l1.7,0l0,41.5l-1.7,0l0,-41.5l0,0z" stroke-width="5" stroke-miterlimit="10" stroke-dasharray=""></path><path data-v-9833e8b2="" transform="scale(0.12886597938144329)" fill="none" stroke="currentColor" paint-order="fill stroke markers" d="m20.9,14.3l59.8,0l0,1.7l-59.8,0l0,-1.7l0,0z" stroke-width="5" stroke-miterlimit="10" stroke-dasharray=""></path><path data-v-9833e8b2="" transform="scale(0.12886597938144329)" fill="none" stroke="currentColor" paint-order="fill stroke markers" d="m14.2,11.8l6.6,0l0,6.6l-6.6,0l0,-6.6l0,0z" stroke-width="5" stroke-miterlimit="10" stroke-dasharray=""></path><path data-v-9833e8b2="" transform="scale(0.12886597938144329)" fill="none" stroke="currentColor" paint-order="fill stroke markers" d="m80.7,11.8l6.6,0l0,6.6l-6.6,0l0,-6.6l0,0z" stroke-width="5" stroke-miterlimit="10" stroke-dasharray=""></path><path data-v-9833e8b2="" transform="scale(0.12886597938144329)" fill="none" stroke="currentColor" paint-order="fill stroke markers" d="m20.9,40l59.8,0l0,1.7l-59.8,0l0,-1.7l0,0z" stroke-width="5" stroke-miterlimit="10" stroke-dasharray=""></path><path data-v-9833e8b2="" transform="scale(0.12886597938144329)" fill="none" stroke="currentColor" paint-order="fill stroke markers" d="m14.2,37.5l6.6,0l0,6.6l-6.6,0l0,-6.6l0,0z" stroke-width="5" stroke-miterlimit="10" stroke-dasharray=""></path><path data-v-9833e8b2="" transform="scale(0.12886597938144329)" fill="none" stroke="currentColor" paint-order="fill stroke markers" d="m80.7,37.5l6.6,0l0,6.6l-6.6,0l0,-6.6l0,0z" stroke-width="5" stroke-miterlimit="10" stroke-dasharray=""></path><path data-v-9833e8b2="" transform="scale(0.12886597938144329)" fill="none" stroke="currentColor" paint-order="fill stroke markers" d="m84,30.1l0,81.3l-13.3,0l0,-81.3c0,-2.8 3,-5 6.6,-5c3.7,0 6.7,2.2 6.7,5z" stroke-width="5" stroke-miterlimit="10" stroke-dasharray=""></path></g></svg>