<svg data-v-9833e8b2="" version="1.1" xmlns="http://www.w3.org/2000/svg" xmlns:xlink="http://www.w3.org/1999/xlink" width="25" height="12.5"><g data-v-9833e8b2=""><path data-v-9833e8b2="" transform="scale(0.13089005235602094)" fill="none" stroke="currentColor" paint-order="fill stroke markers" d="m190.2,1l0,73.6l0,0.6l0,20.4l-3.7,0l-10.8,-20.4l-1.3,0l-10.8,20.4l-6.2,0l-10.8,-20.4l-1.3,0l-10.7,20.4l-6.2,0l-10.8,-20.4l-1.3,0l-10.8,20.4l-6.2,0l-10.8,-20.4l-1.3,0l-10.8,20.4l-6.2,0l-10.8,-20.4l-1.3,0l-10.8,20.4l-6.2,0l-10.8,-20.4l-1.3,0l-10.8,20.4l-6.2,0l-10.7,-20.4l-0.3,0l0,-74.2l189.2,0z" stroke-width="5" stroke-miterlimit="10" stroke-dasharray=""></path></g></svg>