<svg data-v-9833e8b2="" version="1.1" xmlns="http://www.w3.org/2000/svg" xmlns:xlink="http://www.w3.org/1999/xlink" width="25" height="7.5"><g data-v-9833e8b2=""><path data-v-9833e8b2="" transform="scale(0.046992481203007516)" fill="none" stroke="currentColor" paint-order="fill stroke markers" d="m818.91447,360.15636c3.40006,-9.3416 -1.4165,-19.67076 -10.75811,-23.07083c-9.3416,-3.40006 -19.67076,1.4165 -23.07083,10.75811c-3.40006,9.3416 1.4165,19.67076 10.75811,23.07083c9.3416,3.40006 19.67076,-1.4165 23.07083,-10.75811z" stroke-width="5" stroke-miterlimit="10" stroke-dasharray=""></path><path data-v-9833e8b2="" transform="scale(0.046992481203007516)" fill="none" stroke="currentColor" paint-order="fill stroke markers" d="m922.91447,360.15636c3.40006,-9.3416 -1.4165,-19.67076 -10.75811,-23.07083c-9.3416,-3.40006 -19.67076,1.4165 -23.07083,10.75811c-3.40006,9.3416 1.4165,19.67076 10.75811,23.07083c9.3416,3.40006 19.67076,-1.4165 23.07083,-10.75811z" stroke-width="5" stroke-miterlimit="10" stroke-dasharray=""></path><path data-v-9833e8b2="" transform="scale(0.046992481203007516)" fill="none" stroke="currentColor" paint-order="fill stroke markers" d="m870.91447,360.15636c3.40006,-9.3416 -1.4165,-19.67076 -10.75811,-23.07083c-9.3416,-3.40006 -19.67076,1.4165 -23.07083,10.75811c-3.40006,9.3416 1.4165,19.67076 10.75811,23.07083c9.3416,3.40006 19.67076,-1.4165 23.07083,-10.75811z" stroke-width="5" stroke-miterlimit="10" stroke-dasharray=""></path><path data-v-9833e8b2="" transform="scale(0.046992481203007516)" fill="none" stroke="currentColor" paint-order="fill stroke markers" d="m974.91447,360.15636c3.40006,-9.3416 -1.4165,-19.67076 -10.75811,-23.07083c-9.3416,-3.40006 -19.67076,1.4165 -23.07083,10.75811c-3.40006,9.3416 1.4165,19.67076 10.75811,23.07083c9.3416,3.40006 19.67076,-1.4165 23.07083,-10.75811z" stroke-width="5" stroke-miterlimit="10" stroke-dasharray=""></path><path data-v-9833e8b2="" transform="scale(0.046992481203007516)" fill="none" stroke="currentColor" paint-order="fill stroke markers" d="m156,198l68,68l156,0l30,30l344,0l18,18l6,6l2.96386,2.96386l6.07571,-6.07571l6.0757,6.07571l6.07571,-6.07571l6.07571,6.07571l6.07571,-6.07571l6.07571,6.07571l6.07571,-6.07571l6.07571,6.07571l6.07571,-6.07571l6.07571,6.07571l6.0757,-6.07571l6.07571,6.07571l6.07571,-6.07571l6.07571,6.07571l6.07571,-6.07571l6.07571,6.07571l6.07571,-6.07571l6.07571,6.07571l6.07571,-6.07571l6.07571,6.07571l6.07571,-6.07571l6.0757,6.07571l6.07571,-6.07571l6.07571,6.07571l6.07571,-6.07571l6.07571,6.07571l6.07571,-6.07571l6.07571,6.07571l6.07571,-6.07571l6.07571,6.07571l6.07571,-6.07571l6.0757,6.07571l6.07571,-6.07571" stroke-width="5" stroke-miterlimit="10" stroke-dasharray=""></path><path data-v-9833e8b2="" transform="scale(0.046992481203007516)" fill="none" stroke="currentColor" paint-order="fill stroke markers" d="m180.87879,1l0,63.86433l116.70707,0l0,-4.49749l27.83838,0l0,4.49749l42.82828,0l0,-4.49749l27.83838,0l0,4.49749l17.13131,0l0,26.98493l17.13131,0l0,-4.49749l27.83838,0l0,4.49749l72.80808,0l0,88.15076l-117.77778,0l0,-16.19096l-307.29293,0l0,-8.99498l-21.41414,-17.91832l0,-86.4234l-83.51515,0l0,-35.0804l83.51515,0l0,-14.39196z" stroke-width="5" stroke-miterlimit="10" stroke-dasharray=""></path><path data-v-9833e8b2="" transform="scale(0.046992481203007516)" fill="none" stroke="currentColor" paint-order="fill stroke markers" d="m84.51515,28.43467l128.48485,0l0,8.99498l-128.48485,0l0,-8.99498z" stroke-width="5" stroke-miterlimit="10" stroke-dasharray=""></path><path data-v-9833e8b2="" transform="scale(0.046992481203007516)" fill="none" stroke="currentColor" paint-order="fill stroke markers" d="m35.26263,9.99498l18.20202,0l0,45.87437l-18.20202,0z" stroke-width="5" stroke-miterlimit="10" stroke-dasharray=""></path><path data-v-9833e8b2="" transform="scale(0.046992481203007516)" fill="none" stroke="currentColor" paint-order="fill stroke markers" d="m66.31313,9.99498l18.20202,0l0,45.87437l-18.20202,0z" stroke-width="5" stroke-miterlimit="10" stroke-dasharray=""></path><path data-v-9833e8b2="" transform="scale(0.046992481203007516)" fill="none" stroke="currentColor" paint-order="fill stroke markers" d="m84.51515,80.15578l40.68687,34.18091l84.58586,0l16.06061,13.49246l183.09091,0l12.84848,10.79397l109.21212,0l0,41.37689l-117.77778,0l0,-16.19096l-307.29293,0l0,-8.99498l-21.41414,-17.98995z" stroke-width="5" stroke-miterlimit="10" stroke-dasharray=""></path><path data-v-9833e8b2="" transform="scale(0.046992481203007516)" fill="none" stroke="currentColor" paint-order="fill stroke markers" d="m84.51515,98.14573l35.33333,29.68342l84.58586,0l16.06061,13.49246l183.09091,0l9.63636,8.09548l0,14.39196" stroke-width="5" stroke-miterlimit="10" stroke-dasharray=""></path><path data-v-9833e8b2="" transform="scale(0.046992481203007516)" fill="none" stroke="currentColor" paint-order="fill stroke markers" d="m430.88889,168.30654l0,0.8995l-1.07071,0l0,-0.8995l1.07071,0zm-7.72784,-2.68913l0.75711,0.63604l-1.51421,1.27208l-0.75711,-0.63604l1.51421,-1.27208zm14.38498,0l1.51421,1.27208l-0.75711,0.63604l-1.51421,-1.27208l0.75711,-0.63604zm-5.67828,-6.67843c0.83627,0.70255 0.83627,1.84161 0,2.54417c-0.83628,0.70255 -2.19214,0.70255 -3.02842,0c-0.83627,-0.70255 -0.83627,-1.84161 0,-2.54417c0.83628,-0.70255 2.19214,-0.70255 3.02842,0zm-11.15057,0.82233l0,0.8995l-1.07071,0l0,-0.8995l1.07071,0zm20.34343,0l0,0.8995l-1.07071,0l0,-0.8995l1.07071,0zm-2.75748,-6.86472l0.75711,0.63604l-1.51421,1.27208l-0.75711,-0.63604l1.51421,-1.27208zm-15.89919,0l1.51421,1.27208l-0.75711,0.63604l-1.51421,-1.27208l0.75711,-0.63604zm8.48495,-1.6805l0,0.8995l-1.07071,0l0,-0.8995l1.07071,0z" stroke-width="5" stroke-miterlimit="10" stroke-dasharray=""></path><path data-v-9833e8b2="" transform="scale(0.046992481203007516)" fill="none" stroke="currentColor" paint-order="fill stroke markers" d="m486.56565,168.30654l0,0.8995l-1.07071,0l0,-0.8995l1.07071,0zm-7.72784,-2.68913l0.75711,0.63604l-1.51421,1.27208l-0.75711,-0.63604l1.51421,-1.27208zm14.38498,0l1.51421,1.27208l-0.75711,0.63604l-1.51421,-1.27208l0.75711,-0.63604zm-8.7067,-6.67843c0.83628,-0.70255 2.19214,-0.70255 3.02842,0c0.83627,0.70255 0.83627,1.84161 0,2.54417c-0.83628,0.70255 -2.19214,0.70255 -3.02842,0c-0.83627,-0.70255 -0.83627,-1.84161 0,-2.54417zm-8.12215,0.82233l0,0.8995l-1.07071,0l0,-0.8995l1.07071,0zm20.34343,0l0,0.8995l-1.07071,0l0,-0.8995l1.07071,0zm-2.75748,-6.86472l0.75711,0.63604l-1.51421,1.27208l-0.75711,-0.63604l1.51421,-1.27208zm-15.89919,0l1.51421,1.27208l-0.75711,0.63604l-1.51421,-1.27208l0.75711,-0.63604zm8.48495,-1.6805l0,0.8995l-1.07071,0l0,-0.8995l1.07071,0z" stroke-width="5" stroke-miterlimit="10" stroke-dasharray=""></path><path data-v-9833e8b2="" transform="scale(0.046992481203007516)" fill="none" stroke="currentColor" paint-order="fill stroke markers" d="m458.72727,168.30654l0,0.8995l-1.07071,0l0,-0.8995l1.07071,0zm-7.72784,-2.68913l0.75711,0.63604l-1.51421,1.27208l-0.75711,-0.63604l1.51421,-1.27208zm14.38498,0l1.51421,1.27208l-0.75711,0.63604l-1.51421,-1.27208l0.75711,-0.63604zm-8.7067,-6.67843c0.83628,-0.70255 2.19214,-0.70255 3.02842,0c0.83627,0.70255 0.83627,1.84161 0,2.54417c-0.83628,0.70255 -2.19214,0.70255 -3.02842,0c-0.83627,-0.70255 -0.83627,-1.84161 0,-2.54417zm-8.12215,0.82233l0,0.8995l-1.07071,0l0,-0.8995l1.07071,0zm20.34343,0l0,0.8995l-1.07071,0l0,-0.8995l1.07071,0zm-2.75748,-6.86472l0.75711,0.63604l-1.51421,1.27208l-0.75711,-0.63604l1.51421,-1.27208zm-15.89919,0l1.51421,1.27208l-0.75711,0.63604l-1.51421,-1.27208l0.75711,-0.63604zm8.48495,-1.6805l0,0.8995l-1.07071,0l0,-0.8995l1.07071,0z" stroke-width="5" stroke-miterlimit="10" stroke-dasharray=""></path><path data-v-9833e8b2="" transform="scale(0.046992481203007516)" fill="none" stroke="currentColor" paint-order="fill stroke markers" d="m514.40404,168.30654l0,0.8995l-1.07071,0l0,-0.8995l1.07071,0zm-7.72784,-2.68913l0.75711,0.63604l-1.51421,1.27208l-0.75711,-0.63604l1.51421,-1.27208zm14.38498,0l1.51421,1.27208l-0.75711,0.63604l-1.51421,-1.27208l0.75711,-0.63604zm-8.7067,-6.67843c0.83628,-0.70255 2.19214,-0.70255 3.02842,0c0.83627,0.70255 0.83627,1.84161 0,2.54417c-0.83628,0.70255 -2.19214,0.70255 -3.02842,0c-0.83627,-0.70255 -0.83627,-1.84161 0,-2.54417zm-8.12215,0.82233l0,0.8995l-1.07071,0l0,-0.8995l1.07071,0zm20.34343,0l0,0.8995l-1.07071,0l0,-0.8995l1.07071,0zm-2.75748,-6.86472l0.75711,0.63604l-1.51421,1.27208l-0.75711,-0.63604l1.51421,-1.27208zm-15.89919,0l1.51421,1.27208l-0.75711,0.63604l-1.51421,-1.27208l0.75711,-0.63604zm8.48495,-1.6805l0,0.8995l-1.07071,0l0,-0.8995l1.07071,0z" stroke-width="5" stroke-miterlimit="10" stroke-dasharray=""></path></g></svg>