<svg data-v-9833e8b2="" version="1.1" xmlns="http://www.w3.org/2000/svg" xmlns:xlink="http://www.w3.org/1999/xlink" width="25" height="7.5"><g data-v-9833e8b2=""><path data-v-9833e8b2="" transform="scale(0.035211267605633804)" fill="none" stroke="currentColor" paint-order="fill stroke markers" d="m241.29092,1l0,85.62814l155.90304,0l0,-6.03015l37.18788,0l0,6.03015l57.21212,0l0,-6.03015l37.18788,0l0,6.03015l22.88485,0l0,36.1809l22.88485,0l0,-6.03015l37.18788,0l0,6.03015l97.26061,0l0,118.19095l-157.33334,0l0,-21.70854l-410.49699,0l0,-12.0603l-28.60606,-24l0,-115.8995l-111.56364,0l0,-47.03518l111.56364,0l0,-19.29648l128.72728,0z" stroke-width="5" stroke-miterlimit="10" stroke-dasharray=""></path><path data-v-9833e8b2="" transform="scale(0.035211267605633804)" fill="none" stroke="currentColor" paint-order="fill stroke markers" d="m112.56364,37.78392l171.63637,0l0,12.0603l-171.63637,0l0,-12.0603z" stroke-width="5" stroke-miterlimit="10" stroke-dasharray=""></path><path data-v-9833e8b2="" transform="scale(0.035211267605633804)" fill="none" stroke="currentColor" paint-order="fill stroke markers" d="m46.7697,13.0603l24.31515,0l0,61.50754l-24.31515,0l0,-61.50754z" stroke-width="5" stroke-miterlimit="10" stroke-dasharray=""></path><path data-v-9833e8b2="" transform="scale(0.035211267605633804)" fill="none" stroke="currentColor" paint-order="fill stroke markers" d="m88.24849,13.0603l24.31515,0l0,61.50754l-24.31515,0l0,-61.50754z" stroke-width="5" stroke-miterlimit="10" stroke-dasharray=""></path><path data-v-9833e8b2="" transform="scale(0.035211267605633804)" fill="none" stroke="currentColor" paint-order="fill stroke markers" d="m112.56364,107.13065l54.35152,45.82915l112.99395,0l21.45455,18.09045l244.58183,0l17.16364,14.47236l145.89092,0l0,55.47739l-157.33334,0l0,-21.70854l-410.49699,0l0,-12.0603l-28.60606,-24.1206l0,-51.8593l0,-24.1206z" stroke-width="5" stroke-miterlimit="10" stroke-dasharray=""></path><path data-v-9833e8b2="" transform="scale(0.035211267605633804)" fill="none" stroke="currentColor" paint-order="fill stroke markers" d="m112.56364,131.25126l47.2,39.79899l112.99395,0l21.45455,18.09045l244.58183,0l12.87273,10.85427l0,19.29648" stroke-width="5" stroke-miterlimit="10" stroke-dasharray=""></path><path data-v-9833e8b2="" transform="scale(0.035211267605633804)" fill="none" stroke="currentColor" paint-order="fill stroke markers" d="m586.78064,218.14573c2.43152,-5.60804 -1.00121,-11.8794 -7.72364,-13.92965c-6.65091,-2.05025 -14.08849,0.84422 -16.52,6.51256c-2.43152,5.60804 1.00121,11.8794 7.72364,13.92965s14.08849,-0.84422 16.52,-6.51256z" stroke-width="5" stroke-miterlimit="10" stroke-dasharray=""></path><path data-v-9833e8b2="" transform="scale(0.035211267605633804)" fill="none" stroke="currentColor" paint-order="fill stroke markers" d="m112.56364,120.39698l48.63031,41.00502l114.42425,0l21.45455,18.09045l243.15153,0l12.87273,10.85427l4.29091,3.61809l2.14545,1.80905l4.36242,-3.67839l4.36242,3.67839l4.36242,-3.67839l4.36242,3.67839l4.36242,-3.67839l4.36242,3.67839l4.36242,-3.67839l4.36242,3.67839l4.36242,-3.67839l4.36242,3.67839l4.36242,-3.67839l4.36242,3.67839l4.36242,-3.67839l4.36242,3.67839l4.36242,-3.67839l4.36242,3.67839l4.36242,-3.67839l4.36242,3.67839l4.36242,-3.67839l4.36242,3.67839l4.36242,-3.67839l4.36242,3.67839l4.36242,-3.67839l4.36242,3.67839l4.36242,-3.67839l4.36242,3.67839l4.36242,-3.67839l4.36242,3.67839l4.36242,-3.67839l4.36242,3.67839l4.36242,-3.67839l4.36242,3.67839l4.36242,-3.67839" stroke-width="5" stroke-miterlimit="10" stroke-dasharray=""></path><path data-v-9833e8b2="" transform="scale(0.035211267605633804)" fill="none" stroke="currentColor" paint-order="fill stroke markers" d="m575.40973,202.40703l0,1.20603l-0.42909,0c1.35879,0 2.71758,0.24121 4.07636,0.66332c1.71636,0.54271 3.2897,1.32663 4.50545,2.35176l-0.28606,-0.24121l2.00242,-1.68844l1.00121,0.84422l-2.00242,1.68844l-0.35758,-0.30151c2.21697,1.92965 3.50424,4.58291 3.57576,7.29648l0,-0.36181l1.4303,0l0,1.20603l-1.4303,0l0,-0.36181c0,1.14573 -0.28606,2.35176 -0.78667,3.49749c-0.64364,1.44724 -1.57333,2.77387 -2.78909,3.79899l0.28606,-0.24121l2.00242,1.68844l-1.00121,0.84422l-2.00242,-1.68844l0.35758,-0.30151c-2.28848,1.86935 -5.43515,2.95477 -8.65333,3.01508l0.42909,0l0,1.20603l-1.4303,0l0,-1.20603l0.42909,0c-1.35879,0 -2.78909,-0.24121 -4.14788,-0.66332c-1.71636,-0.54271 -3.2897,-1.32663 -4.50545,-2.35176l0.28606,0.24121l-2.00242,1.68844l-1.00121,-0.84422l2.00242,-1.68844l0.35758,0.30151c-2.21697,-1.92965 -3.50424,-4.58291 -3.57576,-7.29648l0,0.36181l-1.4303,0l0,-1.20603l1.4303,0l0,0.36181c0,-1.14573 0.28606,-2.29146 0.78667,-3.43719c0.64364,-1.44724 1.57333,-2.77387 2.78909,-3.79899l-0.28606,0.24121l-2.00242,-1.68844l1.00121,-0.84422l2.00242,1.68844l-0.35758,0.30151c2.28848,-1.86935 5.43515,-2.95477 8.65333,-3.01508l-0.42909,0l0,-1.20603l1.50182,0l0,-0.0603zm-11.44242,8.74372c-2.14545,5.00503 0.9297,10.55276 6.86545,12.36181c5.93576,1.80905 12.51515,-0.78392 14.66061,-5.78894c2.14545,-5.00503 -0.9297,-10.55276 -6.86545,-12.36181c-5.93576,-1.80905 -12.51515,0.78392 -14.66061,5.78894zm12.7297,1.56784c1.14424,0.96482 1.14424,2.47236 0,3.43719c-1.14424,0.96482 -2.93212,0.96482 -4.07636,0c-1.14424,-0.96482 -1.14424,-2.47236 0,-3.43719c1.21576,-0.90452 3.00364,-0.90452 4.07636,0z" stroke-width="5" stroke-miterlimit="10" stroke-dasharray=""></path><path data-v-9833e8b2="" transform="scale(0.035211267605633804)" fill="none" stroke="currentColor" paint-order="fill stroke markers" d="m623.82549,218.14573c2.43152,-5.60804 -1.00121,-11.8794 -7.72364,-13.92965c-6.65091,-2.05025 -14.08849,0.84422 -16.52,6.51256c-2.43152,5.60804 1.00121,11.8794 7.72364,13.92965s14.08849,-0.84422 16.52,-6.51256z" stroke-width="5" stroke-miterlimit="10" stroke-dasharray=""></path><path data-v-9833e8b2="" transform="scale(0.035211267605633804)" fill="none" stroke="currentColor" paint-order="fill stroke markers" d="m612.45458,202.40703l0,1.20603l-0.42909,0c1.35879,0 2.71758,0.24121 4.07636,0.66332c1.71636,0.54271 3.2897,1.32663 4.50545,2.35176l-0.28606,-0.24121l2.00242,-1.68844l1.00121,0.84422l-2.00242,1.68844l-0.35758,-0.30151c2.21697,1.92965 3.50424,4.58291 3.57576,7.29648l0,-0.36181l1.4303,0l0,1.20603l-1.4303,0l0,-0.36181c0,1.14573 -0.28606,2.35176 -0.78667,3.49749c-0.64364,1.44724 -1.57333,2.77387 -2.78909,3.79899l0.28606,-0.24121l2.00242,1.68844l-1.00121,0.84422l-2.00242,-1.68844l0.35758,-0.30151c-2.28848,1.86935 -5.43515,2.95477 -8.65333,3.01508l0.42909,0l0,1.20603l-1.4303,0l0,-1.20603l0.42909,0c-1.35879,0 -2.78909,-0.24121 -4.14788,-0.66332c-1.71636,-0.54271 -3.2897,-1.32663 -4.50545,-2.35176l0.28606,0.24121l-2.00242,1.68844l-1.00121,-0.84422l2.00242,-1.68844l0.35758,0.30151c-2.21697,-1.92965 -3.50424,-4.58291 -3.57576,-7.29648l0,0.36181l-1.4303,0l0,-1.20603l1.4303,0l0,0.36181c0,-1.14573 0.28606,-2.29146 0.78667,-3.43719c0.64364,-1.44724 1.57333,-2.77387 2.78909,-3.79899l-0.28606,0.24121l-2.00242,-1.68844l1.00121,-0.84422l2.00242,1.68844l-0.35758,0.30151c2.28848,-1.86935 5.43515,-2.95477 8.65333,-3.01508l-0.42909,0l0,-1.20603l1.50182,0l0,-0.0603zm-11.44242,8.74372c-2.14545,5.00503 0.9297,10.55276 6.86545,12.36181c5.93576,1.80905 12.51515,-0.78392 14.66061,-5.78894c2.14545,-5.00503 -0.9297,-10.55276 -6.86545,-12.36181c-5.93576,-1.80905 -12.51515,0.78392 -14.66061,5.78894zm12.7297,1.56784c1.14424,0.96482 1.14424,2.47236 0,3.43719c-1.14424,0.96482 -2.93212,0.96482 -4.07636,0c-1.14424,-0.96482 -1.14424,-2.47236 0,-3.43719c1.14424,-0.90452 3.00364,-0.90452 4.07636,0z" stroke-width="5" stroke-miterlimit="10" stroke-dasharray=""></path><path data-v-9833e8b2="" transform="scale(0.035211267605633804)" fill="none" stroke="currentColor" paint-order="fill stroke markers" d="m660.87034,218.14573c2.43152,-5.60804 -1.00121,-11.8794 -7.72364,-13.92965c-6.65091,-2.05025 -14.08849,0.84422 -16.52,6.51256c-2.43152,5.60804 1.00121,11.8794 7.72364,13.92965s14.08849,-0.84422 16.52,-6.51256z" stroke-width="5" stroke-miterlimit="10" stroke-dasharray=""></path><path data-v-9833e8b2="" transform="scale(0.035211267605633804)" fill="none" stroke="currentColor" paint-order="fill stroke markers" d="m649.49943,202.40703l0,1.20603l-0.42909,0c1.35879,0 2.71758,0.24121 4.07636,0.66332c1.71636,0.54271 3.2897,1.32663 4.50545,2.35176l-0.28606,-0.24121l2.00242,-1.68844l1.00121,0.84422l-2.00242,1.68844l-0.35758,-0.30151c2.21697,1.92965 3.50424,4.58291 3.57576,7.29648l0,-0.36181l1.4303,0l0,1.20603l-1.4303,0l0,-0.36181c0,1.14573 -0.28606,2.35176 -0.78667,3.49749c-0.64364,1.44724 -1.57333,2.77387 -2.78909,3.79899l0.28606,-0.24121l2.00242,1.68844l-1.00121,0.84422l-2.00242,-1.68844l0.35758,-0.30151c-2.28848,1.86935 -5.43515,2.95477 -8.65333,3.01508l0.42909,0l0,1.20603l-1.4303,0l0,-1.20603l0.42909,0c-1.35879,0 -2.78909,-0.24121 -4.14788,-0.66332c-1.71636,-0.54271 -3.2897,-1.32663 -4.50545,-2.35176l0.28606,0.24121l-2.00242,1.68844l-1.00121,-0.84422l2.00242,-1.68844l0.35758,0.30151c-2.21697,-1.92965 -3.50424,-4.58291 -3.57576,-7.29648l0,0.36181l-1.4303,0l0,-1.20603l1.4303,0l0,0.36181c0,-1.14573 0.28606,-2.29146 0.78667,-3.43719c0.64364,-1.44724 1.57333,-2.77387 2.78909,-3.79899l-0.28606,0.24121l-2.00242,-1.68844l1.00121,-0.84422l2.00242,1.68844l-0.35758,0.30151c2.28848,-1.86935 5.43515,-2.95477 8.65333,-3.01508l-0.42909,0l0,-1.20603l1.50182,0l0,-0.0603zm-11.51394,8.74372c-2.14545,5.00503 0.9297,10.55276 6.86545,12.36181c5.93576,1.80905 12.51515,-0.78392 14.66061,-5.78894c2.14545,-5.00503 -0.9297,-10.55276 -6.86545,-12.36181c-5.86424,-1.80905 -12.44364,0.78392 -14.66061,5.78894zm12.80121,1.56784c1.14424,0.96482 1.14424,2.47236 0,3.43719c-1.14424,0.96482 -2.93212,0.96482 -4.07636,0c-1.14424,-0.96482 -1.14424,-2.47236 0,-3.43719c1.14424,-0.90452 2.93212,-0.90452 4.07636,0z" stroke-width="5" stroke-miterlimit="10" stroke-dasharray=""></path><path data-v-9833e8b2="" transform="scale(0.035211267605633804)" fill="none" stroke="currentColor" paint-order="fill stroke markers" d="m697.91519,218.14573c2.43152,-5.60804 -1.00121,-11.8794 -7.72364,-13.92965c-6.65091,-2.05025 -14.08849,0.84422 -16.52,6.51256c-2.43152,5.60804 1.00121,11.8794 7.72364,13.92965s14.08849,-0.84422 16.52,-6.51256z" stroke-width="5" stroke-miterlimit="10" stroke-dasharray=""></path><path data-v-9833e8b2="" transform="scale(0.035211267605633804)" fill="none" stroke="currentColor" paint-order="fill stroke markers" d="m686.54428,202.40703l0,1.20603l-0.42909,0c1.35879,0 2.71758,0.24121 4.07636,0.66332c1.71636,0.54271 3.2897,1.32663 4.50545,2.35176l-0.28606,-0.24121l2.00242,-1.68844l1.00121,0.84422l-2.00242,1.68844l-0.35758,-0.30151c2.21697,1.92965 3.50424,4.58291 3.57576,7.29648l0,-0.36181l1.4303,0l0,1.20603l-1.4303,0l0,-0.36181c0,1.14573 -0.28606,2.35176 -0.78667,3.49749c-0.64364,1.44724 -1.57333,2.77387 -2.78909,3.79899l0.28606,-0.24121l2.00242,1.68844l-1.00121,0.84422l-2.00242,-1.68844l0.35758,-0.30151c-2.28848,1.86935 -5.43515,2.95477 -8.65333,3.01508l0.42909,0l0,1.20603l-1.4303,0l0,-1.20603l0.42909,0c-1.35879,0 -2.78909,-0.24121 -4.14788,-0.66332c-1.71636,-0.54271 -3.2897,-1.32663 -4.50545,-2.35176l0.28606,0.24121l-2.00242,1.68844l-1.00121,-0.84422l2.00242,-1.68844l0.35758,0.30151c-2.21697,-1.92965 -3.50424,-4.58291 -3.57576,-7.29648l0,0.36181l-1.4303,0l0,-1.20603l1.4303,0l0,0.36181c0,-1.14573 0.28606,-2.29146 0.78667,-3.43719c0.64364,-1.44724 1.57333,-2.77387 2.78909,-3.79899l-0.28606,0.24121l-2.00242,-1.68844l1.00121,-0.84422l2.00242,1.68844l-0.35758,0.30151c2.28848,-1.86935 5.43515,-2.95477 8.65333,-3.01508l-0.42909,0l0,-1.20603l1.50182,0l0,-0.0603zm-11.51394,8.74372c-2.14545,5.00503 0.9297,10.55276 6.86545,12.36181c5.93576,1.80905 12.51515,-0.78392 14.66061,-5.78894c2.14545,-5.00503 -0.9297,-10.55276 -6.86545,-12.36181c-5.93576,-1.80905 -12.44364,0.78392 -14.66061,5.78894zm12.80121,1.56784c1.14424,0.96482 1.14424,2.47236 0,3.43719c-1.14424,0.96482 -2.93212,0.96482 -4.07636,0c-1.14424,-0.96482 -1.14424,-2.47236 0,-3.43719c1.14424,-0.90452 2.93212,-0.90452 4.07636,0z" stroke-width="5" stroke-miterlimit="10" stroke-dasharray=""></path></g></svg>