<svg data-v-9833e8b2="" version="1.1" xmlns="http://www.w3.org/2000/svg" xmlns:xlink="http://www.w3.org/1999/xlink" width="25" height="12.5"><g data-v-9833e8b2=""><path data-v-9833e8b2="" transform="scale(0.13089005235602094)" fill="none" stroke="currentColor" paint-order="fill stroke markers" d="m30.00089,68.3l30.6,0l0,10.7l-30.6,0l0,-10.7l0,0z" stroke-width="5" stroke-miterlimit="10" stroke-dasharray=""></path><path data-v-9833e8b2="" transform="scale(0.13089005235602094)" fill="none" stroke="currentColor" paint-order="fill stroke markers" d="m25.40089,79l39.8,0c3.4,0 6.1,2.7 6.1,6.1l0,3.1c0,3.4 -2.7,6.1 -6.1,6.1l-39.8,0c-3.4,0 -6.1,-2.7 -6.1,-6.1l0,-3.1c0,-3.4 2.7,-6.1 6.1,-6.1l0,0z" stroke-width="5" stroke-miterlimit="10" stroke-dasharray=""></path><path data-v-9833e8b2="" transform="scale(0.13089005235602094)" fill="none" stroke="currentColor" paint-order="fill stroke markers" d="m25.40089,1l140.7,0l0,67.3l-140.7,0l0,-67.3l0,0z" stroke-width="5" stroke-miterlimit="10" stroke-dasharray=""></path><path data-v-9833e8b2="" transform="scale(0.13089005235602094)" fill="none" stroke="currentColor" paint-order="fill stroke markers" d="m19.30089,1l6.1,0l0,67.3l-6.1,0c-10.1,0 -18.3,-8.2 -18.3,-18.3l0,-30.6c-0.1,-10.2 8.2,-18.4 18.3,-18.4l0,0z" stroke-width="5" stroke-miterlimit="10" stroke-dasharray=""></path><path data-v-9833e8b2="" transform="scale(0.13089005235602094)" fill="none" stroke="currentColor" paint-order="fill stroke markers" d="m166.10089,1l6.1,0c10.1,0 18.3,8.2 18.3,18.3l0,30.6c0,10.1 -8.2,18.3 -18.3,18.3l-6.1,0l0,-67.2l0,0z" stroke-width="5" stroke-miterlimit="10" stroke-dasharray=""></path></g></svg>