<svg data-v-9833e8b2="" version="1.1" xmlns="http://www.w3.org/2000/svg" xmlns:xlink="http://www.w3.org/1999/xlink" width="25" height="5"><g data-v-9833e8b2=""><path data-v-9833e8b2="" transform="scale(0.12886597938144329)" fill="none" stroke="currentColor" paint-order="fill stroke markers" d="m19.3,1l156.3,0c10.1,0 18.3,8.2 18.3,18.3c0,10.1 -8.2,18.3 -18.3,18.3l-156.3,0c-10.1,0 -18.3,-8.2 -18.3,-18.3c0,-10.1 8.2,-18.3 18.3,-18.3l0,0z" stroke-width="5" stroke-miterlimit="10" stroke-dasharray=""></path><path data-v-9833e8b2="" transform="scale(0.12886597938144329)" fill="none" stroke="currentColor" paint-order="fill stroke markers" d="m20.6,1l7.3,0l0,36.6l-7.3,0l0,-36.6l0,0z" stroke-width="5" stroke-miterlimit="10" stroke-dasharray=""></path><path data-v-9833e8b2="" transform="scale(0.12886597938144329)" fill="none" stroke="currentColor" paint-order="fill stroke markers" d="m167.1,1l7.3,0l0,36.6l-7.3,0l0,-36.6l0,0z" stroke-width="5" stroke-miterlimit="10" stroke-dasharray=""></path></g></svg>