<svg data-v-9833e8b2="" version="1.1" xmlns="http://www.w3.org/2000/svg" xmlns:xlink="http://www.w3.org/1999/xlink" width="25" height="10"><g data-v-9833e8b2=""><path data-v-9833e8b2="" transform="scale(0.13020833333333334)" fill="none" stroke="currentColor" paint-order="fill stroke markers" d="m175.8,43l8.7,0l0,14.5l-8.7,0l0,-14.5l0,0z" stroke-width="5" stroke-miterlimit="10" stroke-dasharray=""></path><path data-v-9833e8b2="" transform="scale(0.13020833333333334)" fill="none" stroke="currentColor" paint-order="fill stroke markers" d="m187.4,37.9l1.4,0c1.6,0 2.9,1.3 2.9,2.9l0,18.8c0,1.6 -1.3,2.9 -2.9,2.9l-1.4,0c-1.6,0 -2.9,-1.3 -2.9,-2.9l0,-18.8c0,-1.6 1.3,-2.9 2.9,-2.9l0,0z" stroke-width="5" stroke-miterlimit="10" stroke-dasharray=""></path><path data-v-9833e8b2="" transform="scale(0.13020833333333334)" fill="none" stroke="currentColor" paint-order="fill stroke markers" d="m121.6,65.4l18.8,0l0,7.2l-18.8,0l0,-7.2l0,0z" stroke-width="5" stroke-miterlimit="10" stroke-dasharray=""></path><path data-v-9833e8b2="" transform="scale(0.13020833333333334)" fill="none" stroke="currentColor" paint-order="fill stroke markers" d="m118,72.6l26,0c1.6,0 2.9,1.3 2.9,2.9l0,4.3c0,1.6 -1.3,2.9 -2.9,2.9l-26,0c-1.6,0 -2.9,-1.3 -2.9,-2.9l0,-4.3c0,-1.6 1.3,-2.9 2.9,-2.9l0,0z" stroke-width="5" stroke-miterlimit="10" stroke-dasharray=""></path><path data-v-9833e8b2="" transform="scale(0.13020833333333334)" fill="none" stroke="currentColor" paint-order="fill stroke markers" d="m8.2,38.6l167.6,0l0,21.4c0,3 -2.6,5.3 -5.8,5.3l-156,0c-3.2,0 -5.8,-2.4 -5.8,-5.3l0,-21.4l0,0z" stroke-width="5" stroke-miterlimit="10" stroke-dasharray=""></path><path data-v-9833e8b2="" transform="scale(0.13020833333333334)" fill="none" stroke="currentColor" paint-order="fill stroke markers" d="m71.8,12.6l95.4,0l0,15.9l-95.4,0l0,-15.9l0,0z" stroke-width="5" stroke-miterlimit="10" stroke-dasharray=""></path><path data-v-9833e8b2="" transform="scale(0.13020833333333334)" fill="none" stroke="currentColor" paint-order="fill stroke markers" d="m79,12.6l10.1,0l0,15.9l-10.1,0l0,-15.9l0,0z" stroke-width="5" stroke-miterlimit="10" stroke-dasharray=""></path><path data-v-9833e8b2="" transform="scale(0.13020833333333334)" fill="none" stroke="currentColor" paint-order="fill stroke markers" d="m96.4,12.6l10.1,0l0,15.9l-10.1,0l0,-15.9l0,0z" stroke-width="5" stroke-miterlimit="10" stroke-dasharray=""></path><path data-v-9833e8b2="" transform="scale(0.13020833333333334)" fill="none" stroke="currentColor" paint-order="fill stroke markers" d="m113.7,12.6l10.1,0l0,15.9l-10.1,0l0,-15.9l0,0z" stroke-width="5" stroke-miterlimit="10" stroke-dasharray=""></path><path data-v-9833e8b2="" transform="scale(0.13020833333333334)" fill="none" stroke="currentColor" paint-order="fill stroke markers" d="m131,12.6l10.1,0l0,15.9l-10.1,0l0,-15.9l0,0z" stroke-width="5" stroke-miterlimit="10" stroke-dasharray=""></path><path data-v-9833e8b2="" transform="scale(0.13020833333333334)" fill="none" stroke="currentColor" paint-order="fill stroke markers" d="m148.4,12.6l10.1,0l0,15.9l-10.1,0l0,-15.9l0,0z" stroke-width="5" stroke-miterlimit="10" stroke-dasharray=""></path><path data-v-9833e8b2="" transform="scale(0.13020833333333334)" fill="none" stroke="currentColor" paint-order="fill stroke markers" d="m5.3,28.5l173.4,0c2.4,0 4.3,1.9 4.3,4.3l0,1.4c0,2.4 -1.9,4.3 -4.3,4.3l-173.4,0c-2.4,0 -4.3,-1.9 -4.3,-4.3l0,-1.4c0,-2.4 1.9,-4.3 4.3,-4.3l0,0z" stroke-width="5" stroke-miterlimit="10" stroke-dasharray=""></path><path data-v-9833e8b2="" transform="scale(0.13020833333333334)" fill="none" stroke="currentColor" paint-order="fill stroke markers" d="m21.2,1l24.6,0l0,27.5l-24.6,0l0,-27.5l0,0z" stroke-width="5" stroke-miterlimit="10" stroke-dasharray=""></path><path data-v-9833e8b2="" transform="scale(0.13020833333333334)" fill="none" stroke="currentColor" paint-order="fill stroke markers" d="m45.8,1l26,0l0,27.5l-26,0l0,-27.5l0,0z" stroke-width="5" stroke-miterlimit="10" stroke-dasharray=""></path></g></svg>