<svg data-v-9833e8b2="" version="1.1" xmlns="http://www.w3.org/2000/svg" xmlns:xlink="http://www.w3.org/1999/xlink" width="25" height="22.5"><g data-v-9833e8b2=""><path data-v-9833e8b2="" transform="scale(0.12886597938144329)" fill="none" stroke="currentColor" paint-order="fill stroke markers" d="m58.2,132.5l17.3,0l0,27.7l-17.3,0l0,-27.7l0,0z" stroke-width="5" stroke-miterlimit="10" stroke-dasharray=""></path><path data-v-9833e8b2="" transform="scale(0.12886597938144329)" fill="none" stroke="currentColor" paint-order="fill stroke markers" d="m134.3,132.5l17.3,0l0,27.7l-17.3,0l0,-27.7l0,0z" stroke-width="5" stroke-miterlimit="10" stroke-dasharray=""></path><path data-v-9833e8b2="" transform="scale(0.12886597938144329)" fill="none" stroke="currentColor" paint-order="fill stroke markers" d="m35.6,28.7l133.3,0l0,103.9l-133.3,0l0,-103.9l0,0z" stroke-width="5" stroke-miterlimit="10" stroke-dasharray=""></path><path data-v-9833e8b2="" transform="scale(0.12886597938144329)" fill="none" stroke="currentColor" paint-order="fill stroke markers" d="m18.3,25.2l17.3,0l0,110.8l-17.3,0l0,-110.8l0,0z" stroke-width="5" stroke-miterlimit="10" stroke-dasharray=""></path><path data-v-9833e8b2="" transform="scale(0.12886597938144329)" fill="none" stroke="currentColor" paint-order="fill stroke markers" d="m168.9,28.7l24.2,0l0,103.9l-24.2,0l0,-103.9l0,0z" stroke-width="5" stroke-miterlimit="10" stroke-dasharray=""></path><path data-v-9833e8b2="" transform="scale(0.12886597938144329)" fill="none" stroke="currentColor" paint-order="fill stroke markers" d="m37.4,160.2l135,0l0,20.8l-135,0l0,-20.8l0,0z" stroke-width="5" stroke-miterlimit="10" stroke-dasharray=""></path><path data-v-9833e8b2="" transform="scale(0.12886597938144329)" fill="none" stroke="currentColor" paint-order="fill stroke markers" d="m1,44.3l17.3,0l0,45l-17.3,0l0,-45l0,0z" stroke-width="5" stroke-miterlimit="10" stroke-dasharray=""></path><path data-v-9833e8b2="" transform="scale(0.12886597938144329)" fill="none" stroke="currentColor" paint-order="fill stroke markers" d="m98,1l20.8,0l0,27.7l-20.8,0l0,-27.7l0,0z" stroke-width="5" stroke-miterlimit="10" stroke-dasharray=""></path><path data-v-9833e8b2="" transform="scale(0.12886597938144329)" fill="none" stroke="currentColor" paint-order="fill stroke markers" d="m118.7,11.4l74.4,0l0,17.3l-74.4,0l0,-17.3l0,0z" stroke-width="5" stroke-miterlimit="10" stroke-dasharray=""></path></g></svg>