<svg data-v-9833e8b2="" version="1.1" xmlns="http://www.w3.org/2000/svg" xmlns:xlink="http://www.w3.org/1999/xlink" width="24.5" height="25"><g data-v-9833e8b2=""><path data-v-9833e8b2="" transform="scale(0.13157894736842105)" fill="none" stroke="currentColor" paint-order="fill stroke markers" d="m83.2,154.3l0,-118.4l14.7,19.5l0,79.4l-14.7,19.5l0,0z" stroke-width="5" stroke-miterlimit="10" stroke-dasharray=""></path><path data-v-9833e8b2="" transform="scale(0.13157894736842105)" fill="none" stroke="currentColor" paint-order="fill stroke markers" d="m130.2,116.7l0,-43.1l10.8,0l0,43.1l-10.8,0l0,0z" stroke-width="5" stroke-miterlimit="10" stroke-dasharray=""></path><path data-v-9833e8b2="" transform="scale(0.13157894736842105)" fill="none" stroke="currentColor" paint-order="fill stroke markers" d="m141,143.6l0,-96.9c0,-8.9 7.2,-16.1 16.2,-16.1c8.9,0 16.2,7.2 16.2,16.1l0,96.9c0,8.9 -7.2,16.1 -16.2,16.1c-9,0 -16.2,-7.1 -16.2,-16.1l0,0z" stroke-width="5" stroke-miterlimit="10" stroke-dasharray=""></path><path data-v-9833e8b2="" transform="scale(0.13157894736842105)" fill="none" stroke="currentColor" paint-order="fill stroke markers" d="m97.9,132.8l0,-75.4c0,-8.9 7.2,-16.1 16.2,-16.1c8.9,0 16.2,7.2 16.2,16.1l0,75.4c0,8.9 -7.2,16.1 -16.2,16.1s-16.2,-7.2 -16.2,-16.1l0,0z" stroke-width="5" stroke-miterlimit="10" stroke-dasharray=""></path><path data-v-9833e8b2="" transform="scale(0.13157894736842105)" fill="none" stroke="currentColor" paint-order="fill stroke markers" d="m1,189.3l0,-188.3l82.2,0l0,188.4l-82.2,0l0,-0.1z" stroke-width="5" stroke-miterlimit="10" stroke-dasharray=""></path></g></svg>