<svg data-v-9833e8b2="" version="1.1" xmlns="http://www.w3.org/2000/svg" xmlns:xlink="http://www.w3.org/1999/xlink" width="14.5" height="25"><g data-v-9833e8b2=""><path data-v-9833e8b2="" transform="scale(0.13020833333333334)" fill="none" stroke="currentColor" paint-order="fill stroke markers" d="m21,158.7l14.5,0l0,7.3l-14.5,0l0,-7.3l0,0z" stroke-width="5" stroke-miterlimit="10" stroke-dasharray=""></path><path data-v-9833e8b2="" transform="scale(0.13020833333333334)" fill="none" stroke="currentColor" paint-order="fill stroke markers" d="m68.1,158.7l14.5,0l0,7.3l-14.5,0l0,-7.3l0,0z" stroke-width="5" stroke-miterlimit="10" stroke-dasharray=""></path><path data-v-9833e8b2="" transform="scale(0.13020833333333334)" fill="none" stroke="currentColor" paint-order="fill stroke markers" d="m15.5,165.9l25.4,0l0,25.4l-25.4,0l0,-25.4l0,0z" stroke-width="5" stroke-miterlimit="10" stroke-dasharray=""></path><path data-v-9833e8b2="" transform="scale(0.13020833333333334)" fill="none" stroke="currentColor" paint-order="fill stroke markers" d="m62.6,165.9l25.4,0l0,25.4l-25.4,0l0,-25.4l0,0z" stroke-width="5" stroke-miterlimit="10" stroke-dasharray=""></path><path data-v-9833e8b2="" transform="scale(0.13020833333333334)" fill="none" stroke="currentColor" paint-order="fill stroke markers" d="m102.5,22.8l-27.2,0l0,10.9l-47.1,0l0,-10.9l-27.2,0l0,-21.8l101.5,0l0,21.8z" stroke-width="5" stroke-miterlimit="10" stroke-dasharray=""></path><path data-v-9833e8b2="" transform="scale(0.13020833333333334)" fill="none" stroke="currentColor" paint-order="fill stroke markers" d="m11.9,147.8l32.6,0l0,10.9l-32.6,0l0,-10.9l0,0z" stroke-width="5" stroke-miterlimit="10" stroke-dasharray=""></path><path data-v-9833e8b2="" transform="scale(0.13020833333333334)" fill="none" stroke="currentColor" paint-order="fill stroke markers" d="m59,147.8l32.6,0l0,10.9l-32.6,0l0,-10.9l0,0z" stroke-width="5" stroke-miterlimit="10" stroke-dasharray=""></path><path data-v-9833e8b2="" transform="scale(0.13020833333333334)" fill="none" stroke="currentColor" paint-order="fill stroke markers" d="m100.7,86.2l-3.6,0l0,61.6l-90.6,0l0,-61.6l-3.6,0l0,-39.9l97.9,0l0,39.9l-0.1,0z" stroke-width="5" stroke-miterlimit="10" stroke-dasharray=""></path><path data-v-9833e8b2="" transform="scale(0.13020833333333334)" fill="none" stroke="currentColor" paint-order="fill stroke markers" d="m31.8,102.5l39.9,0l0,7.2l-39.9,0l0,-7.2l0,0z" stroke-width="5" stroke-miterlimit="10" stroke-dasharray=""></path><path data-v-9833e8b2="" transform="scale(0.13020833333333334)" fill="none" stroke="currentColor" paint-order="fill stroke markers" d="m24.6,30l54.3,0l0,72.5l-54.3,0l0,-72.5l0,0z" stroke-width="5" stroke-miterlimit="10" stroke-dasharray=""></path></g></svg>