<svg data-v-9833e8b2="" version="1.1" xmlns="http://www.w3.org/2000/svg" xmlns:xlink="http://www.w3.org/1999/xlink" width="25" height="17.5"><g data-v-9833e8b2=""><path data-v-9833e8b2="" transform="scale(0.21367521367521367)" fill="none" stroke="currentColor" paint-order="fill stroke markers" d="m48.94333,1.10735c-1.60001,-0.37866 -2.32361,0.33162 -2.85201,0.78c-0.53748,0.45609 -1.31387,1.05435 -2.34666,1.84933c-0.60555,0.46611 -1.26492,0.97079 -1.968,1.51649c-0.74498,0.57822 -1.52518,1.18701 -2.32799,1.83151c-1.67873,1.34767 -2.53079,2.06134 -3.38934,2.79733c-0.87288,0.74828 -1.7475,1.52264 -2.616,2.3295c-0.88097,0.81844 -1.76033,1.66365 -2.616,2.55449c-1.74422,1.8159 -2.57033,2.79971 -3.40134,3.79868c-0.84215,1.01234 -1.67126,2.05876 -2.50349,3.12599c-0.84383,1.08209 -1.68681,2.18903 -2.54851,3.306c-1.75952,2.28081 -2.67496,3.43205 -3.59866,4.60533c-0.939,1.1927 -1.89211,2.40892 -2.832,3.67201c-0.95903,1.28883 -1.92154,2.6203 -2.832,4.032c-1.89117,2.93231 -2.74265,4.5406 -3.58934,6.18666c-0.85629,1.66472 -1.65762,3.36398 -2.41199,5.073c-0.74416,1.68587 -1.43457,3.35101 -2.052,4.983c-1.15196,3.04483 -1.59816,4.46037 -2,5.784c-0.37466,1.2341 -0.68875,2.39456 -0.948,3.483c-0.24132,1.0132 -0.43849,1.96303 -0.58801,2.85301c-0.26906,1.60153 -0.34268,2.33028 -0.40666,3.01067c-0.05991,0.63707 -0.09668,1.23711 -0.1095,1.80299c-0.01213,0.53555 -0.0061,1.04587 0.0255,1.533c0.06012,0.92671 0.12692,1.37128 0.2,1.804c0.07143,0.42302 0.16028,0.83319 0.27451,1.22549c0.11137,0.38251 0.23936,0.75166 0.4095,1.0905c0.32928,0.65576 0.56174,0.93741 0.80133,1.20134c0.24066,0.26512 0.51396,0.50647 0.81,0.72899c0.30402,0.22852 0.63541,0.44069 0.99001,0.63901c0.75066,0.41983 1.16759,0.60727 1.59866,0.8c0.44458,0.19878 0.90822,0.38805 1.3905,0.56099c0.49242,0.17657 1.00009,0.34097 1.5255,0.47101c1.07213,0.26535 1.6333,0.33643 2.20401,0.39999c0.58673,0.06535 1.19708,0.10411 1.83299,0.129c0.66547,0.02605 1.36531,0.03522 2.103,0.039c1.60532,0.00822 2.48033,0.00417 3.40533,0c0.97502,-0.00439 2.00009,-0.01434 3.075,-0.039c1.12511,-0.02582 2.30051,-0.06255 3.52501,-0.129c2.60124,-0.14117 3.97568,-0.26527 5.39999,-0.40266c1.47577,-0.14235 3.00082,-0.31332 4.575,-0.50999c1.62587,-0.20313 3.30133,-0.43105 5.02501,-0.69c3.60286,-0.54128 5.47495,-0.86438 7.392,-1.19867c1.95697,-0.34125 3.94502,-0.70531 5.95799,-1.0905c2.03505,-0.38942 4.08374,-0.79529 6.138,-1.22549c4.11555,-0.86189 6.15768,-1.32895 8.18933,-1.79601c2.01968,-0.46431 4.0219,-0.93904 6.00601,-1.416c1.96521,-0.47241 3.9073,-0.94745 5.82599,-1.416c3.75728,-0.91756 5.59193,-1.36215 7.39334,-1.79866c1.76559,-0.42783 3.49274,-0.84641 5.1765,-1.26451c1.64021,-0.4073 3.23349,-0.80693 4.7715,-1.2195c2.92084,-0.78351 4.28839,-1.19339 5.59599,-1.59999c1.25232,-0.3894 2.44257,-0.78331 3.57001,-1.18051c1.07251,-0.37784 2.08426,-0.7529 3.03,-1.1355c1.72806,-0.6991 2.49426,-1.05531 3.20132,-1.39999c0.65707,-0.32031 1.25586,-0.63843 1.78952,-0.96451c0.49136,-0.30023 0.9335,-0.59607 1.29449,-0.91949c0.63336,-0.56747 0.84375,-0.89233 1.008,-1.20399c0.1572,-0.29828 0.25952,-0.61589 0.32251,-0.93901c0.06396,-0.32803 0.08801,-0.67244 0.0975,-1.02899c0.02026,-0.76242 0.009,-1.1722 0.00266,-1.59866c-0.00656,-0.44057 -0.02081,-0.89255 -0.0585,-1.3515c-0.03821,-0.46516 -0.0903,-0.93478 -0.19351,-1.3965c-0.20682,-0.92509 -0.39545,-1.3672 -0.60266,-1.79601c-0.20859,-0.43166 -0.46002,-0.84743 -0.74548,-1.245c-0.28925,-0.40282 -0.61166,-0.79149 -0.97052,-1.155c-0.7348,-0.74432 -1.16357,-1.07195 -1.59866,-1.40268c-0.44485,-0.33817 -0.91702,-0.66315 -1.41,-0.98399c-0.50699,-0.32997 -1.0383,-0.65549 -1.59,-0.98399c-1.15649,-0.68861 -1.76828,-1.03882 -2.39465,-1.39734c-0.63626,-0.36418 -1.28058,-0.72655 -1.93201,-1.077c-0.64725,-0.34821 -1.28955,-0.68536 -1.93201,-0.987c-1.22522,-0.57524 -1.82309,-0.79683 -2.39999,-1.00267c-0.56056,-0.20001 -1.11734,-0.37601 -1.668,-0.552c-0.55066,-0.17599 -1.10881,-0.34819 -1.668,-0.552c-1.17299,-0.42754 -1.77771,-0.70653 -2.40266,-1.00267c-0.64655,-0.30637 -1.30231,-0.64078 -1.97101,-0.987c-0.68065,-0.35242 -1.36577,-0.71765 -2.06099,-1.077c-1.39426,-0.72067 -2.09503,-1.06364 -2.79468,-1.39333c-0.69174,-0.32596 -1.37936,-0.63527 -2.06099,-0.92551c-0.66777,-0.28435 -1.32423,-0.55188 -1.97101,-0.7905c-1.23164,-0.45439 -1.82628,-0.63322 -2.39867,-0.80267c-0.55202,-0.16342 -1.0892,-0.30846 -1.6095,-0.4485c-0.50505,-0.13594 -0.99805,-0.26306 -1.4745,-0.40349c-0.92479,-0.27255 -1.36757,-0.43436 -1.79866,-0.60001c-0.42024,-0.16147 -0.82202,-0.33043 -1.20601,-0.49651c-0.36531,-0.158 -0.7063,-0.31334 -1.026,-0.45149c-0.55557,-0.2401 -0.7915,-0.33026 -1.00133,-0.39867c-0.18341,-0.05978 -0.34727,-0.10237 -0.4935,-0.129c-0.12993,-0.02365 -0.24889,-0.03511 -0.35851,-0.039c-0.20389,-0.00723 -0.30402,-0.00183 -0.40399,-0.004c-0.10004,-0.00217 -0.2,-0.00934 -0.3,-0.0195l-0.10001,-0.01517l-0.09999,-0.02116l-0.10001,-0.02817" stroke-width="5" stroke-miterlimit="10" stroke-dasharray=""></path></g></svg>