<svg data-v-9833e8b2="" version="1.1" xmlns="http://www.w3.org/2000/svg" xmlns:xlink="http://www.w3.org/1999/xlink" width="25" height="5"><g data-v-9833e8b2=""><path data-v-9833e8b2="" transform="scale(0.13227513227513227)" fill="none" stroke="currentColor" paint-order="fill stroke markers" d="m171.91,35.07c-9.39,0 -17,-7.61 -17,-17c0,-2.11 0.39,-4.13 1.09,-6l-122.14,0c0.7,1.87 1.09,3.89 1.09,6c0,9.39 -7.61,17 -17,17c-1.38,0 -2.72,-0.16 -4,-0.47l0,0c-0.01,0 -0.02,0 -0.02,-0.01c-0.01,0 -0.03,-0.01 -0.04,-0.01c-0.02,0 -0.04,-0.01 -0.06,-0.01c-0.01,0 -0.03,-0.01 -0.04,-0.01c-0.02,0 -0.04,-0.01 -0.05,-0.01c-0.01,0 -0.03,-0.01 -0.04,-0.01c-0.02,-0.01 -0.05,-0.01 -0.07,-0.02c-0.02,0 -0.03,-0.01 -0.05,-0.01c-0.02,-0.01 -0.04,-0.01 -0.06,-0.02c-0.02,0 -0.03,-0.01 -0.05,-0.01c-0.02,0 -0.03,-0.01 -0.05,-0.01c-0.02,0 -0.03,-0.01 -0.05,-0.01c-0.01,-0.01 -0.03,-0.01 -0.05,-0.01c-0.02,0 -0.03,-0.01 -0.05,-0.01c-0.02,0 -0.03,-0.01 -0.05,-0.01c-0.02,-0.01 -0.03,-0.01 -0.05,-0.02c-0.01,0 -0.03,-0.01 -0.04,-0.01c-0.02,-0.01 -0.04,-0.01 -0.05,-0.02c-0.01,0 -0.02,-0.01 -0.02,-0.01c-0.04,-0.01 -0.08,-0.02 -0.12,-0.04c-0.01,0 -0.02,-0.01 -0.04,-0.01c-0.02,-0.01 -0.04,-0.01 -0.06,-0.02c-0.01,0 -0.02,-0.01 -0.04,-0.01c-0.02,-0.01 -0.04,-0.01 -0.05,-0.02c-0.01,0 -0.03,-0.01 -0.04,-0.01c-0.02,-0.01 -0.04,-0.01 -0.05,-0.02c-0.01,0 -0.02,-0.01 -0.04,-0.01c-0.02,-0.01 -0.04,-0.01 -0.06,-0.02c-0.01,0 -0.02,-0.01 -0.03,-0.01c-0.07,-0.02 -0.14,-0.05 -0.21,-0.07c-0.01,0 -0.02,-0.01 -0.02,-0.01c-0.02,-0.01 -0.04,-0.01 -0.06,-0.02c-0.01,0 -0.02,-0.01 -0.03,-0.01c-0.02,-0.01 -0.04,-0.01 -0.06,-0.02c-0.01,0 -0.02,-0.01 -0.03,-0.01c-0.02,-0.01 -0.04,-0.02 -0.06,-0.02c-0.01,0 -0.02,-0.01 -0.03,-0.01c-0.02,-0.01 -0.04,-0.02 -0.06,-0.02c-0.01,0 -0.01,0 -0.02,-0.01c-0.07,-0.03 -0.15,-0.06 -0.22,-0.09c-0.01,0 -0.01,0 -0.02,-0.01c-0.02,-0.01 -0.04,-0.02 -0.06,-0.03c-0.01,0 -0.02,-0.01 -0.02,-0.01c-0.02,-0.01 -0.04,-0.02 -0.06,-0.02c-0.01,0 -0.02,-0.01 -0.03,-0.01c-0.02,-0.01 -0.04,-0.02 -0.06,-0.03c-0.01,0 -0.01,-0.01 -0.02,-0.01c-0.1,-0.04 -0.2,-0.09 -0.3,-0.13c0,0 -0.01,0 -0.01,-0.01c-0.02,-0.01 -0.04,-0.02 -0.07,-0.03c-0.01,0 -0.01,-0.01 -0.02,-0.01c-0.02,-0.01 -0.04,-0.02 -0.06,-0.03c-0.01,0 -0.01,-0.01 -0.02,-0.01c-0.02,-0.01 -0.05,-0.02 -0.07,-0.03c0,0 -0.01,0 -0.01,0c-0.1,-0.05 -0.2,-0.09 -0.3,-0.14c0,0 -0.01,0 -0.01,0c-0.02,-0.01 -0.05,-0.02 -0.07,-0.03c0,0 -0.01,0 -0.01,-0.01c-0.02,-0.01 -0.05,-0.02 -0.07,-0.03c0,0 -0.01,0 -0.01,-0.01c-0.02,-0.01 -0.05,-0.02 -0.07,-0.04c0,0 0,0 0,0c-0.1,-0.05 -0.2,-0.1 -0.31,-0.16c0,0 0,0 0,0c-0.02,-0.01 -0.05,-0.03 -0.07,-0.04c0,0 -0.01,0 -0.01,-0.01c-0.02,-0.01 -0.05,-0.02 -0.07,-0.04c0,0 0,0 -0.01,0c-0.13,-0.07 -0.25,-0.14 -0.38,-0.21c0,0 0,0 0,0c-0.02,-0.01 -0.05,-0.03 -0.07,-0.04c0,0 0,0 -0.01,0c-0.02,-0.01 -0.05,-0.03 -0.07,-0.04c0,0 0,0 0,0c-0.12,-0.07 -0.25,-0.15 -0.37,-0.22c0,0 0,0 0,0c-0.02,-0.02 -0.05,-0.03 -0.07,-0.05l0,0c-0.15,-0.09 -0.29,-0.19 -0.44,-0.28c0,0 0,0 0,0c-0.02,-0.02 -0.05,-0.03 -0.07,-0.05l0,0c-0.14,-0.1 -0.29,-0.2 -0.43,-0.3c0,0 0,0 0,0c-0.33,-0.24 -0.65,-0.49 -0.96,-0.75l0,0c-0.15,-0.13 -0.31,-0.27 -0.46,-0.4l0,0c-0.15,-0.14 -0.3,-0.28 -0.44,-0.42c0,0 0,0 0,0c-0.27,-0.26 -0.53,-0.53 -0.78,-0.81c0,0 0,0 0,0c-0.02,-0.02 -0.04,-0.04 -0.06,-0.06c0,0 0,0 0,0c-0.1,-0.11 -0.19,-0.22 -0.29,-0.33l0,0c-0.02,-0.02 -0.04,-0.04 -0.05,-0.06c0,0 0,0 -0.01,-0.01c-0.02,-0.02 -0.04,-0.04 -0.05,-0.06c0,0 0,0 0,0c-0.09,-0.11 -0.18,-0.22 -0.27,-0.34c0,0 0,0 0,0c-0.02,-0.02 -0.03,-0.04 -0.05,-0.07c0,0 0,0 0,-0.01c-0.02,-0.02 -0.03,-0.04 -0.05,-0.06c0,0 0,0 0,-0.01c-0.09,-0.11 -0.17,-0.23 -0.26,-0.34c0,0 0,-0.01 0,-0.01c-0.02,-0.02 -0.03,-0.04 -0.05,-0.06c0,0 -0.01,-0.01 -0.01,-0.01c-0.01,-0.02 -0.03,-0.04 -0.04,-0.06c0,0 0,0 -0.01,-0.01c-0.07,-0.09 -0.13,-0.19 -0.19,-0.28c0,0 0,0 0,0c-0.01,-0.02 -0.03,-0.04 -0.04,-0.06c0,-0.01 -0.01,-0.01 -0.01,-0.01c-0.01,-0.02 -0.03,-0.04 -0.04,-0.06c0,-0.01 -0.01,-0.01 -0.01,-0.01c-0.01,-0.02 -0.03,-0.04 -0.04,-0.06c0,0 0,0 0,-0.01c-0.06,-0.09 -0.12,-0.18 -0.18,-0.28c0,0 0,-0.01 -0.01,-0.01c-0.01,-0.02 -0.03,-0.04 -0.04,-0.06c0,-0.01 -0.01,-0.01 -0.01,-0.02c-0.01,-0.02 -0.03,-0.04 -0.04,-0.06c0,-0.01 -0.01,-0.01 -0.01,-0.02c-0.01,-0.02 -0.03,-0.04 -0.04,-0.06c0,0 0,-0.01 -0.01,-0.01c-0.04,-0.07 -0.09,-0.14 -0.13,-0.21l0,0c-0.01,-0.02 -0.03,-0.04 -0.04,-0.06c0,-0.01 -0.01,-0.01 -0.01,-0.02c-0.01,-0.02 -0.02,-0.04 -0.03,-0.06c0,-0.01 -0.01,-0.01 -0.01,-0.02c-0.01,-0.02 -0.02,-0.04 -0.03,-0.06c0,-0.01 -0.01,-0.01 -0.01,-0.02c-0.01,-0.02 -0.02,-0.04 -0.04,-0.06c0,0 0,-0.01 -0.01,-0.01c-0.04,-0.07 -0.08,-0.14 -0.12,-0.21c0,0 0,-0.01 -0.01,-0.01c-0.01,-0.02 -0.02,-0.04 -0.03,-0.06c0,-0.01 -0.01,-0.01 -0.01,-0.02c-0.01,-0.02 -0.02,-0.04 -0.03,-0.06c0,-0.01 -0.01,-0.01 -0.01,-0.02c-0.01,-0.02 -0.02,-0.04 -0.03,-0.06c-0.01,-0.01 -0.01,-0.02 -0.01,-0.02c-0.01,-0.02 -0.02,-0.04 -0.03,-0.06c0,0 -0.01,-0.01 -0.01,-0.02c-0.03,-0.07 -0.07,-0.14 -0.1,-0.2c0,-0.01 -0.01,-0.01 -0.01,-0.02c-0.01,-0.02 -0.02,-0.04 -0.03,-0.06c0,-0.01 -0.01,-0.02 -0.01,-0.03c-0.01,-0.02 -0.02,-0.04 -0.03,-0.06c-0.01,-0.01 -0.01,-0.02 -0.02,-0.03c-0.01,-0.02 -0.02,-0.04 -0.03,-0.05c0,-0.01 -0.01,-0.02 -0.01,-0.03c-0.01,-0.02 -0.02,-0.04 -0.03,-0.06c0,-0.01 0,-0.01 -0.01,-0.02c-0.03,-0.07 -0.06,-0.13 -0.1,-0.2c0,-0.01 -0.01,-0.02 -0.01,-0.03c-0.01,-0.02 -0.02,-0.04 -0.03,-0.06c0,-0.01 -0.01,-0.02 -0.01,-0.03c-0.01,-0.02 -0.02,-0.04 -0.02,-0.06c-0.01,-0.01 -0.01,-0.02 -0.02,-0.03c-0.01,-0.02 -0.02,-0.04 -0.02,-0.05c0,-0.01 -0.01,-0.02 -0.01,-0.03c-0.01,-0.02 -0.02,-0.04 -0.03,-0.06c0,0 0,-0.01 -0.01,-0.02c-0.02,-0.04 -0.04,-0.09 -0.06,-0.13c0,-0.01 -0.01,-0.02 -0.01,-0.02c-0.01,-0.02 -0.02,-0.04 -0.02,-0.06c0,-0.01 -0.01,-0.02 -0.01,-0.03c-0.01,-0.02 -0.01,-0.04 -0.02,-0.05c0,-0.01 -0.01,-0.02 -0.01,-0.04c-0.01,-0.02 -0.01,-0.03 -0.02,-0.05c-0.01,-0.01 -0.01,-0.02 -0.02,-0.04c-0.01,-0.02 -0.01,-0.03 -0.02,-0.05c0,-0.01 -0.01,-0.02 -0.01,-0.04c-0.01,-0.02 -0.01,-0.04 -0.02,-0.05c0,-0.01 -0.01,-0.02 -0.01,-0.03c-0.02,-0.04 -0.03,-0.08 -0.04,-0.11c0,-0.01 -0.01,-0.02 -0.01,-0.03c-0.01,-0.02 -0.01,-0.04 -0.02,-0.05c0,-0.01 -0.01,-0.02 -0.01,-0.04c-0.01,-0.02 -0.01,-0.03 -0.02,-0.05c0,-0.01 -0.01,-0.03 -0.01,-0.04c-0.01,-0.02 -0.01,-0.04 -0.02,-0.05c-0.04,-0.02 -0.04,-0.03 -0.05,-0.04c-0.01,-0.02 -0.01,-0.04 -0.02,-0.05c-0.01,-0.01 -0.01,-0.03 -0.01,-0.04c-0.01,-0.02 -0.01,-0.03 -0.02,-0.05c-0.01,-0.02 -0.01,-0.04 -0.02,-0.06c-0.01,-0.03 -0.02,-0.05 -0.03,-0.07c0,-0.02 -0.01,-0.03 -0.01,-0.05c-0.01,-0.02 -0.01,-0.03 -0.02,-0.05c-0.01,-0.01 -0.01,-0.03 -0.02,-0.04c0,-0.02 -0.01,-0.03 -0.02,-0.05c0,-0.01 -0.01,-0.03 -0.01,-0.05c0,-0.01 -0.01,-0.03 -0.01,-0.05c-0.01,-0.01 -0.01,-0.03 -0.02,-0.05c0,-0.01 -0.01,-0.03 -0.01,-0.05c-0.01,-0.02 -0.01,-0.03 -0.02,-0.05c0,-0.02 -0.01,-0.03 -0.01,-0.05c-0.01,-0.03 -0.02,-0.06 -0.03,-0.09c0,-0.01 -0.01,-0.03 -0.01,-0.04c-0.01,-0.02 -0.01,-0.03 -0.02,-0.05c0,-0.01 -0.01,-0.03 -0.01,-0.04c-0.01,-0.02 -0.01,-0.03 -0.01,-0.05c-0.01,-0.01 -0.01,-0.03 -0.01,-0.05c0,-0.02 -0.01,-0.03 -0.01,-0.05c0,-0.02 -0.01,-0.03 -0.01,-0.05c0,-0.02 -0.01,-0.03 -0.01,-0.05c0,-0.02 -0.01,-0.03 -0.01,-0.05c0,-0.02 -0.01,-0.03 -0.01,-0.05c-0.01,-0.03 -0.01,-0.05 -0.02,-0.08c0,-0.02 -0.01,-0.04 -0.02,-0.06c0,-0.01 -0.01,-0.03 -0.01,-0.04c0,-0.02 -0.01,-0.04 -0.01,-0.05c0,-0.01 -0.01,-0.03 -0.01,-0.04c-0.01,-0.02 -0.01,-0.04 -0.01,-0.05c0,-0.02 -0.01,-0.03 -0.01,-0.05c0,-0.02 -0.01,-0.03 -0.01,-0.05c0,-0.02 -0.01,-0.03 -0.01,-0.05c0,-0.02 -0.01,-0.04 -0.01,-0.05c0,-0.01 -0.01,-0.03 -0.01,-0.04c0,-0.02 -0.01,-0.04 -0.01,-0.06c0,-0.02 -0.01,-0.04 -0.01,-0.06c0,-0.02 -0.01,-0.05 -0.01,-0.07c0,-0.01 -0.01,-0.03 -0.01,-0.04c0,-0.02 -0.01,-0.04 -0.01,-0.06c0,-0.01 -0.01,-0.03 -0.01,-0.04c0,-0.02 -0.01,-0.04 -0.01,-0.06c0,-0.01 -0.01,-0.03 -0.01,-0.04c0,-0.02 -0.01,-0.04 -0.01,-0.06c0,-0.01 -0.01,-0.03 -0.01,-0.04c0,-0.02 -0.01,-0.04 -0.01,-0.06c0,-0.01 -0.01,-0.02 -0.01,-0.04c-0.01,-0.03 -0.01,-0.06 -0.02,-0.09c0,-0.01 0,-0.01 0,-0.02c-0.01,-0.03 -0.01,-0.05 -0.02,-0.08c0,-0.01 0,-0.03 -0.01,-0.04c0,-0.02 -0.01,-0.04 -0.01,-0.06c0,-0.01 0,-0.03 -0.01,-0.04c0,-0.02 -0.01,-0.04 -0.01,-0.06c0,-0.01 0,-0.03 -0.01,-0.04c0,-0.02 -0.01,-0.04 -0.01,-0.06c0,-0.01 -0.01,-0.03 -0.01,-0.04c0,-0.02 -0.01,-0.04 -0.01,-0.07c0,-0.01 0,-0.02 0,-0.03c-0.01,-0.03 -0.01,-0.06 -0.02,-0.1c0,-0.01 0,-0.02 0,-0.03c0,-0.02 -0.01,-0.05 -0.01,-0.07c0,-0.01 0,-0.03 -0.01,-0.04c0,-0.02 0,-0.04 -0.01,-0.06c0,-0.01 0,-0.03 -0.01,-0.04c0,-0.02 0,-0.04 -0.01,-0.06c0,-0.01 0,-0.03 -0.01,-0.04c0,-0.02 -0.01,-0.04 -0.01,-0.06c0,-0.01 0,-0.03 0,-0.04c0,-0.02 -0.01,-0.05 -0.01,-0.07c0,-0.01 0,-0.02 0,-0.03c0,-0.03 -0.01,-0.07 -0.01,-0.1c0,-0.01 0,-0.02 0,-0.03c0,-0.02 -0.01,-0.05 -0.01,-0.07c0,-0.01 0,-0.02 0,-0.03c0,-0.02 0,-0.04 -0.01,-0.07c0,-0.01 0,-0.03 0,-0.04c0,-0.02 0,-0.04 -0.01,-0.06c0,-0.01 0,-0.03 0,-0.04c0,-0.02 0,-0.04 0,-0.06c0,-0.01 0,-0.03 0,-0.04c0,-0.03 0,-0.05 -0.01,-0.08c0,-0.01 0,-0.02 0,-0.03c0,-0.03 0,-0.07 -0.01,-0.1c0,-0.01 0,-0.02 0,-0.03c0,-0.02 0,-0.05 0,-0.07c0,-0.01 0,-0.03 0,-0.04c0,-0.02 0,-0.04 0,-0.07c0,-0.01 0,-0.03 0,-0.04c0,-0.02 0,-0.04 0,-0.06c0,-0.01 0,-0.03 0,-0.04c0,-0.02 0,-0.04 0,-0.07c0,-0.01 0,-0.03 0,-0.04c0,-0.03 0,-0.05 0,-0.08c0,-0.01 0,-0.01 0,-0.02c0,-0.03 0,-0.07 0,-0.1c0,-0.01 0,-0.02 0,-0.03c0,-0.02 0,-0.05 0,-0.07c0,-0.01 0,-0.03 0,-0.04c0,-0.02 0,-0.04 0,-0.07c0,-0.01 0,-0.03 0,-0.04c0,-0.02 0,-0.05 0,-0.07c0,-0.01 0,-0.02 0,-0.04c0,-0.02 0,-0.05 0,-0.07c0,-0.01 0,-0.02 0,-0.03c0,-0.04 0,-0.07 0,-0.1c0,-9.39 7.61,-17 17,-17l153.96,0c9.39,0 17,7.61 17,17c0,0.04 0,0.07 0,0.1c0,0.01 0,0.02 0,0.04c0,0.02 0,0.05 0,0.07c0,0.01 0,0.03 0,0.04c0,0.02 0,0.04 0,0.06c0,0.02 0,0.03 0,0.05c0,0.02 0,0.04 0,0.06c0,0.02 0,0.03 0,0.05c0,0.02 0,0.04 0,0.05s0,0.03 0,0.05c0,0.02 0,0.04 0,0.06c0,0.02 0,0.03 0,0.05c0,0.02 0,0.04 0,0.06c0,0.02 0,0.03 0,0.05c0,0.02 0,0.04 0,0.06c0,0.02 0,0.03 0,0.05c0,0.02 0,0.04 0,0.06c0,0.01 0,0.03 0,0.04c0,0.02 0,0.04 0,0.06c0,0.01 0,0.03 0,0.04c0,0.02 0,0.04 0,0.07c0,0.01 0,0.03 0,0.04c0,0.02 0,0.05 -0.01,0.07c0,0.01 0,0.03 0,0.04c0,0.04 -0.01,0.07 -0.01,0.1c0,0 0,0.01 0,0.01c0,0.03 0,0.06 -0.01,0.09c0,0.01 0,0.03 0,0.04c0,0.02 -0.01,0.05 -0.01,0.07c0,0.01 0,0.03 0,0.04c0,0.02 0,0.04 -0.01,0.06c0,0.02 0,0.03 0,0.05c0,0.02 0,0.04 -0.01,0.05c0,0.02 0,0.03 -0.01,0.05c0,0.02 0,0.04 -0.01,0.06c0,0.02 0,0.03 -0.01,0.05c0,0.02 0,0.04 -0.01,0.06c0,0.02 0,0.03 -0.01,0.05c0,0.02 0,0.04 -0.01,0.06c0,0.02 0,0.03 -0.01,0.05c0,0.02 -0.01,0.04 -0.01,0.05c0,0.02 0,0.03 -0.01,0.05c0,0.02 -0.01,0.04 -0.01,0.05c0,0.02 0,0.03 -0.01,0.05c0,0.02 -0.01,0.04 -0.01,0.06c0,0.01 -0.01,0.03 -0.01,0.05c0,0.02 0,0.04 -0.01,0.06c0,0.02 0,0.03 -0.01,0.05c0,0.02 -0.01,0.04 -0.01,0.06c0,0.01 0,0.03 -0.01,0.04c-0.01,0.03 -0.01,0.07 -0.02,0.1c0,0.01 0,0.02 0,0.03c0,0.02 -0.01,0.05 -0.01,0.07c0,0.02 -0.01,0.03 -0.01,0.05c0,0.02 -0.01,0.04 -0.01,0.06c0,0.02 -0.01,0.03 -0.01,0.05c0,0.02 -0.01,0.03 -0.01,0.05c0,0.02 -0.01,0.03 -0.01,0.05c0,0.02 -0.01,0.04 -0.01,0.05c0,0.02 -0.01,0.03 -0.01,0.05c0,0.02 -0.01,0.03 -0.01,0.05c0,0.02 -0.01,0.04 -0.01,0.05c0,0.01 -0.01,0.03 -0.01,0.05c0,0.02 -0.01,0.04 -0.01,0.06c0,0.01 -0.01,0.03 -0.01,0.04c0,0.02 -0.01,0.04 -0.01,0.05c0,0.02 -0.01,0.03 -0.01,0.05c0,0.02 -0.01,0.04 -0.01,0.05c0,0.02 -0.01,0.03 -0.01,0.05c0,0.02 -0.01,0.04 -0.01,0.05c0,0.01 -0.01,0.03 -0.01,0.04c0,0.02 -0.01,0.04 -0.01,0.06c0,0.02 -0.01,0.03 -0.01,0.05c0,0.02 -0.01,0.03 -0.01,0.05c0,0.02 -0.01,0.03 -0.01,0.05c-0.02,0.07 -0.03,0.14 -0.05,0.21c0,0.01 -0.01,0.02 -0.01,0.04c0,0.02 -0.01,0.04 -0.01,0.06c0,0.02 -0.01,0.03 -0.01,0.04c0,0.02 -0.01,0.04 -0.01,0.05c0,0.01 -0.01,0.03 -0.01,0.04c-0.01,0.02 -0.01,0.04 -0.02,0.06c0,0.01 -0.01,0.03 -0.01,0.04c0,0.02 -0.01,0.03 -0.01,0.05c0,0.02 -0.01,0.03 -0.01,0.05c-0.01,0.02 -0.01,0.03 -0.02,0.05c0,0.02 -0.01,0.03 -0.01,0.05c-0.01,0.02 -0.01,0.04 -0.02,0.05c0,0.01 -0.01,0.03 -0.01,0.04c-0.01,0.02 -0.01,0.04 -0.02,0.06c0,0.01 -0.01,0.03 -0.01,0.04c-0.01,0.02 -0.01,0.04 -0.02,0.06c0,0.01 -0.01,0.02 -0.01,0.04c-0.01,0.02 -0.01,0.04 -0.02,0.06c0,0.01 -0.01,0.02 -0.01,0.04c-0.01,0.02 -0.01,0.04 -0.02,0.06c0,0.01 -0.01,0.02 -0.01,0.03c-0.01,0.02 -0.01,0.04 -0.02,0.07c0,0.01 -0.01,0.01 -0.01,0.02c-0.03,0.08 -0.05,0.16 -0.08,0.24c0,0.01 0,0.01 -0.01,0.02c-0.01,0.02 -0.02,0.04 -0.02,0.06c0,0.01 -0.01,0.02 -0.01,0.03c-0.01,0.02 -0.01,0.04 -0.02,0.06c-0.01,0.01 -0.01,0.03 -0.01,0.04c-0.01,0.02 -0.01,0.04 -0.02,0.06c0,0.01 -0.01,0.03 -0.01,0.04c-0.01,0.02 -0.01,0.04 -0.02,0.06c-0.01,0.01 -0.01,0.02 -0.01,0.04c-0.01,0.02 -0.01,0.04 -0.02,0.05c0,0.01 -0.01,0.03 -0.01,0.04c-0.01,0.02 -0.01,0.04 -0.02,0.05c-0.01,0.01 -0.01,0.03 -0.02,0.04c-0.01,0.02 -0.01,0.03 -0.02,0.05c-0.01,0.01 -0.01,0.03 -0.02,0.04c-0.01,0.02 -0.01,0.04 -0.02,0.05c-0.01,0.01 -0.01,0.02 -0.01,0.04c-0.01,0.02 -0.02,0.04 -0.02,0.06c0,0.01 -0.01,0.02 -0.01,0.03c-0.01,0.02 -0.02,0.04 -0.03,0.06c0,0.01 -0.01,0.01 -0.01,0.02c-0.01,0.02 -0.02,0.05 -0.03,0.07c0,0 0,0.01 0,0.01c-0.03,0.08 -0.07,0.16 -0.1,0.24c0,0.01 -0.01,0.01 -0.01,0.02c-0.01,0.02 -0.02,0.04 -0.02,0.06c-0.01,0.01 -0.01,0.02 -0.02,0.03c-0.01,0.02 -0.02,0.04 -0.03,0.06c0,0.01 -0.01,0.02 -0.01,0.03c-0.01,0.02 -0.02,0.04 -0.03,0.06c-0.01,0.01 -0.01,0.02 -0.02,0.04c-0.01,0.02 -0.02,0.04 -0.03,0.05c0,0.01 -0.01,0.02 -0.02,0.04c-0.01,0.02 -0.02,0.04 -0.03,0.05c-0.01,0.01 -0.01,0.02 -0.02,0.04c-0.01,0.02 -0.02,0.03 -0.03,0.05c-0.01,0.01 -0.01,0.02 -0.02,0.04c-0.01,0.02 -0.02,0.04 -0.03,0.06c-0.01,0.01 -0.01,0.02 -0.02,0.03c-0.01,0.02 -0.02,0.04 -0.03,0.05c0,0.01 -0.01,0.02 -0.02,0.04c-0.01,0.02 -0.02,0.04 -0.03,0.05c-0.01,0.01 -0.01,0.03 -0.02,0.04c-0.01,0.02 -0.02,0.04 -0.03,0.05c0,0.01 -0.01,0.02 -0.01,0.03c-0.01,0.02 -0.02,0.04 -0.03,0.06c0,0 0,0 0,0c-0.04,0.08 -0.08,0.16 -0.12,0.23c0,0.01 -0.01,0.01 -0.01,0.02c-0.01,0.02 -0.02,0.04 -0.03,0.06c-0.01,0.01 -0.01,0.02 -0.01,0.02c-0.01,0.02 -0.02,0.04 -0.03,0.06c0,0.01 -0.01,0.02 -0.01,0.03c-0.01,0.02 -0.02,0.04 -0.03,0.05c-0.01,0.01 -0.01,0.02 -0.02,0.03c-0.01,0.02 -0.02,0.04 -0.03,0.05c-0.01,0.01 -0.01,0.02 -0.02,0.03c-0.01,0.02 -0.02,0.04 -0.03,0.05c-0.01,0.01 -0.01,0.02 -0.02,0.04c-0.01,0.02 -0.02,0.03 -0.03,0.05c-0.01,0.01 -0.01,0.02 -0.02,0.03c-0.01,0.02 -0.02,0.03 -0.03,0.05c-0.01,0.01 -0.01,0.02 -0.02,0.04c-0.01,0.02 -0.02,0.03 -0.03,0.05c-0.01,0.01 -0.01,0.02 -0.02,0.03c-0.01,0.02 -0.02,0.03 -0.03,0.05c-0.01,0.01 -0.01,0.02 -0.02,0.03c-0.01,0.02 -0.02,0.04 -0.03,0.05c0,0.01 -0.01,0.02 -0.02,0.03c-0.01,0.02 -0.02,0.03 -0.03,0.05c-0.01,0.01 -0.01,0.02 -0.02,0.04c-0.02,0.04 -0.05,0.07 -0.07,0.11c0,0.01 -0.01,0.01 -0.01,0.02c-0.01,0.02 -0.02,0.04 -0.04,0.06c0,0.01 -0.01,0.02 -0.02,0.03c-0.01,0.02 -0.02,0.03 -0.03,0.05c-0.01,0.01 -0.02,0.02 -0.02,0.03c-0.01,0.02 -0.02,0.03 -0.03,0.05c-0.01,0.01 -0.01,0.02 -0.02,0.03c-0.01,0.02 -0.02,0.03 -0.03,0.05c-0.01,0.01 -0.02,0.02 -0.02,0.03c-0.01,0.02 -0.02,0.03 -0.03,0.05c-0.01,0.01 -0.01,0.02 -0.02,0.03c-0.01,0.02 -0.02,0.03 -0.03,0.05c-0.01,0.01 -0.02,0.02 -0.02,0.03c-0.01,0.02 -0.02,0.03 -0.03,0.05c-0.01,0.01 -0.02,0.02 -0.02,0.03c-0.01,0.02 -0.02,0.03 -0.03,0.05c-0.01,0.01 -0.02,0.02 -0.03,0.04c-0.01,0.01 -0.02,0.03 -0.03,0.05c-0.01,0.01 -0.02,0.02 -0.02,0.03c-0.01,0.01 -0.02,0.03 -0.03,0.05c-0.01,0.01 -0.02,0.03 -0.03,0.04c-0.01,0.01 -0.02,0.03 -0.03,0.04c-0.01,0.01 -0.02,0.03 -0.03,0.04c-0.01,0.01 -0.02,0.03 -0.03,0.04c-0.01,0.02 -0.02,0.03 -0.03,0.05c-0.01,0.02 -0.03,0.04 -0.04,0.06c-0.01,0.02 -0.03,0.03 -0.04,0.05c-0.01,0.01 -0.02,0.02 -0.03,0.04c-0.01,0.02 -0.02,0.03 -0.03,0.04c-0.01,0.01 -0.02,0.02 -0.03,0.04c-0.01,0.01 -0.02,0.03 -0.03,0.04c-0.01,0.01 -0.02,0.03 -0.03,0.04c-0.01,0.01 -0.02,0.03 -0.03,0.04c-0.01,0.01 -0.02,0.03 -0.03,0.04c-0.01,0.01 -0.02,0.03 -0.03,0.04c-0.01,0.01 -0.02,0.03 -0.03,0.04c-0.01,0.01 -0.02,0.03 -0.03,0.04c-0.01,0.01 -0.02,0.03 -0.03,0.04c-0.01,0.01 -0.02,0.03 -0.03,0.04c-0.01,0.01 -0.02,0.03 -0.03,0.04c-0.01,0.01 -0.02,0.03 -0.03,0.04c-0.01,0.01 -0.02,0.02 -0.03,0.04c-0.01,0.01 -0.02,0.03 -0.03,0.04c-0.01,0.01 -0.02,0.02 -0.03,0.04c-0.01,0.01 -0.02,0.03 -0.03,0.04c-0.01,0.01 -0.02,0.02 -0.03,0.04c-0.01,0.01 -0.02,0.03 -0.03,0.04c-0.01,0.01 -0.02,0.02 -0.03,0.03c-0.02,0.02 -0.03,0.04 -0.04,0.05c-0.01,0.01 -0.01,0.02 -0.02,0.02c-0.02,0.02 -0.04,0.05 -0.06,0.07c-0.01,0.01 -0.01,0.01 -0.02,0.02c-0.02,0.02 -0.04,0.04 -0.06,0.06c0,0.01 -0.01,0.01 -0.01,0.02c-0.02,0.02 -0.03,0.04 -0.05,0.06c-0.01,0.01 -0.01,0.01 -0.02,0.02c-0.02,0.02 -0.03,0.04 -0.05,0.05c-0.01,0.01 -0.01,0.01 -0.02,0.02c-0.01,0.02 -0.03,0.03 -0.04,0.05c-0.01,0.01 -0.02,0.02 -0.03,0.03c-0.01,0.01 -0.03,0.03 -0.04,0.04c-0.01,0.01 -0.02,0.02 -0.03,0.03c-0.01,0.01 -0.03,0.03 -0.04,0.04c-0.01,0.01 -0.02,0.02 -0.03,0.03c-0.01,0.01 -0.03,0.03 -0.04,0.04c-0.01,0.01 -0.02,0.02 -0.03,0.03c-0.01,0.01 -0.03,0.03 -0.04,0.04c-0.01,0.01 -0.02,0.02 -0.03,0.03c-0.01,0.01 -0.03,0.03 -0.04,0.04c-0.01,0.01 -0.02,0.02 -0.03,0.03c-0.02,0.02 -0.03,0.03 -0.05,0.05c-0.01,0.01 -0.02,0.02 -0.02,0.02c-0.02,0.02 -0.03,0.04 -0.05,0.05c-0.01,0.01 -0.01,0.01 -0.02,0.02c-0.02,0.02 -0.04,0.04 -0.06,0.06c0,0 -0.01,0.01 -0.01,0.01c-0.05,0.05 -0.1,0.1 -0.14,0.14c0,0 -0.01,0.01 -0.01,0.01c-0.02,0.02 -0.04,0.04 -0.06,0.06c-0.01,0.01 -0.01,0.01 -0.02,0.02c-0.02,0.02 -0.04,0.04 -0.06,0.05c-0.01,0.01 -0.01,0.01 -0.02,0.02c-0.02,0.02 -0.04,0.03 -0.05,0.05c-0.01,0.01 -0.01,0.01 -0.02,0.02c-0.02,0.02 -0.03,0.03 -0.05,0.05c-0.01,0.01 -0.01,0.01 -0.02,0.02c-0.02,0.02 -0.04,0.03 -0.05,0.05c-0.01,0.01 -0.01,0.01 -0.02,0.02c-0.02,0.02 -0.03,0.03 -0.05,0.05c-0.01,0.01 -0.02,0.01 -0.02,0.02c-0.02,0.02 -0.04,0.03 -0.06,0.05c-0.01,0.01 -0.01,0.01 -0.02,0.02c-0.02,0.02 -0.04,0.04 -0.06,0.05c-0.01,0.01 -0.01,0.01 -0.02,0.02c-0.02,0.02 -0.04,0.04 -0.06,0.06c0,0 -0.01,0 -0.01,0.01c-0.02,0.02 -0.05,0.04 -0.07,0.06c0,0 0,0 0,0c-0.1,0.09 -0.2,0.17 -0.31,0.26c0,0 0,0 -0.01,0c-0.02,0.02 -0.05,0.04 -0.07,0.06c0,0 0,0 0,0c-0.02,0.02 -0.05,0.04 -0.07,0.06c0,0 -0.01,0 -0.01,0.01c-0.02,0.02 -0.05,0.04 -0.07,0.06c0,0 -0.01,0 -0.01,0.01c-0.02,0.02 -0.05,0.04 -0.07,0.06c0,0 -0.01,0 -0.01,0.01c-0.03,0.02 -0.05,0.04 -0.08,0.06c0,0 0,0 0,0c-0.03,0.02 -0.05,0.04 -0.08,0.06c0,0 0,0 0,0c-2.37,1.81 -5.22,3.02 -8.33,3.38l0,0c-0.71,0.05 -1.38,0.09 -2.06,0.09l0,0l0,0z" stroke-width="5" stroke-miterlimit="10" stroke-dasharray=""></path><path data-v-9833e8b2="" transform="scale(0.13227513227513227)" fill="none" stroke="currentColor" paint-order="fill stroke markers" d="m26.59,20.19c-0.87,-0.34 -1.44,-1.19 -1.44,-2.12l0,-0.01c0,-0.94 0.57,-1.78 1.44,-2.13c0.57,-0.23 0.86,-0.89 0.64,-1.47c-0.38,-0.99 -0.92,-1.92 -1.59,-2.75c-0.39,-0.48 -1.1,-0.56 -1.59,-0.17c-0.73,0.58 -1.75,0.65 -2.56,0.19c-0.81,-0.46 -1.25,-1.37 -1.12,-2.3c0.09,-0.62 -0.34,-1.2 -0.96,-1.29c-1.05,-0.16 -2.12,-0.16 -3.17,0.01c-0.3,0.05 -0.56,0.21 -0.74,0.46c-0.18,0.24 -0.25,0.54 -0.21,0.84c0.09,0.66 -0.1,1.32 -0.53,1.82c-0.43,0.5 -1.06,0.79 -1.72,0.79c-0.51,0 -1.01,-0.17 -1.41,-0.49c-0.49,-0.38 -1.2,-0.31 -1.59,0.18c-0.67,0.83 -1.21,1.75 -1.59,2.75c-0.22,0.58 0.07,1.24 0.64,1.46c0.87,0.35 1.44,1.19 1.44,2.12c0,0.94 -0.57,1.78 -1.44,2.12c-0.57,0.23 -0.86,0.89 -0.64,1.47c0.38,0.99 0.92,1.92 1.59,2.75c0.19,0.23 0.46,0.38 0.76,0.41c0.3,0.03 0.59,-0.06 0.83,-0.24c0.73,-0.58 1.74,-0.65 2.55,-0.18c0.81,0.47 1.25,1.38 1.12,2.3c-0.09,0.62 0.34,1.2 0.95,1.29c1.05,0.16 2.11,0.16 3.16,0c0.62,-0.1 1.04,-0.68 0.95,-1.3c-0.13,-0.92 0.31,-1.83 1.12,-2.3c0.81,-0.47 1.82,-0.4 2.55,0.18c0.23,0.18 0.53,0.27 0.83,0.24c0.3,-0.03 0.57,-0.18 0.76,-0.41c0.67,-0.83 1.21,-1.75 1.59,-2.75c0.24,-0.58 -0.04,-1.24 -0.62,-1.47l0,0z" stroke-width="5" stroke-miterlimit="10" stroke-dasharray=""></path><path data-v-9833e8b2="" transform="scale(0.13227513227513227)" fill="none" stroke="currentColor" paint-order="fill stroke markers" d="m180.57,20.19c-0.87,-0.34 -1.44,-1.19 -1.44,-2.12l0,-0.01c0,-0.94 0.57,-1.78 1.44,-2.13c0.57,-0.23 0.86,-0.89 0.64,-1.47c-0.38,-0.99 -0.92,-1.92 -1.59,-2.75c-0.39,-0.48 -1.1,-0.56 -1.59,-0.17c-0.73,0.58 -1.75,0.65 -2.56,0.19c-0.81,-0.46 -1.25,-1.37 -1.12,-2.3c0.09,-0.62 -0.34,-1.2 -0.96,-1.29c-1.05,-0.16 -2.12,-0.16 -3.17,0.01c-0.3,0.05 -0.56,0.21 -0.74,0.46c-0.18,0.24 -0.25,0.54 -0.21,0.84c0.09,0.66 -0.1,1.32 -0.53,1.82c-0.43,0.5 -1.06,0.79 -1.72,0.79c-0.51,0 -1.01,-0.17 -1.41,-0.49c-0.49,-0.38 -1.2,-0.31 -1.59,0.18c-0.67,0.83 -1.21,1.75 -1.59,2.75c-0.22,0.58 0.07,1.24 0.64,1.46c0.87,0.35 1.44,1.19 1.44,2.12c0,0.94 -0.57,1.78 -1.44,2.12c-0.57,0.23 -0.86,0.89 -0.64,1.47c0.38,0.99 0.92,1.92 1.59,2.75c0.19,0.23 0.46,0.38 0.76,0.41c0.3,0.03 0.59,-0.06 0.83,-0.24c0.73,-0.58 1.74,-0.65 2.55,-0.18c0.81,0.47 1.25,1.38 1.12,2.3c-0.09,0.62 0.34,1.2 0.95,1.29c1.05,0.16 2.11,0.16 3.16,0c0.62,-0.1 1.04,-0.68 0.95,-1.3c-0.13,-0.92 0.31,-1.83 1.12,-2.3c0.81,-0.47 1.82,-0.4 2.55,0.18c0.23,0.18 0.53,0.27 0.83,0.24c0.3,-0.03 0.57,-0.18 0.76,-0.41c0.67,-0.83 1.21,-1.75 1.59,-2.75c0.24,-0.58 -0.05,-1.24 -0.62,-1.47l0,0z" stroke-width="5" stroke-miterlimit="10" stroke-dasharray=""></path></g></svg>