<svg data-v-9833e8b2="" version="1.1" xmlns="http://www.w3.org/2000/svg" xmlns:xlink="http://www.w3.org/1999/xlink" width="25" height="22.5"><g data-v-9833e8b2=""><path data-v-9833e8b2="" transform="scale(0.1404494382022472)" fill="none" stroke="currentColor" paint-order="fill stroke markers" d="m151.59,152.12l-10.86,-10.95c13.33,-13.22 21.59,-31.54 21.59,-51.8c0,-40.29 -32.66,-72.95 -72.95,-72.95s-72.95,32.66 -72.95,72.95c0,20.03 8.08,38.18 21.15,51.36l-10.95,10.86c-15.84,-15.97 -25.62,-37.95 -25.62,-62.22c0,-48.81 39.57,-88.37 88.37,-88.37c48.81,0 88.37,39.57 88.37,88.37c0,24.54 -10,46.74 -26.15,62.75z" stroke-width="5" stroke-miterlimit="10" stroke-dasharray=""></path><path data-v-9833e8b2="" transform="scale(0.1404494382022472)" fill="none" stroke="currentColor" paint-order="fill stroke markers" d="m43.87,129.79l0,-0.61l3.52,0l0,0.61l-3.52,0l0,0zm5.01,1.5l0,-4.07c-0.3,0.29 -0.68,0.5 -1.14,0.63l0,-0.75c0.22,-0.06 0.45,-0.15 0.7,-0.29c0.25,-0.15 0.46,-0.31 0.63,-0.49l0.57,0l0,4.98l-0.76,-0.01l0,0zm4.58,-0.64c-0.32,0.49 -0.77,0.74 -1.36,0.74c-0.58,0 -1.04,-0.25 -1.36,-0.74c-0.29,-0.46 -0.44,-1.07 -0.44,-1.85s0.15,-1.4 0.44,-1.85c0.32,-0.49 0.77,-0.74 1.36,-0.74c0.59,0 1.04,0.24 1.36,0.74c0.29,0.46 0.44,1.07 0.44,1.85c0,0.77 -0.15,1.39 -0.44,1.85l0,0zm-0.49,-3.12c-0.17,-0.45 -0.46,-0.68 -0.86,-0.68c-0.41,0 -0.7,0.22 -0.86,0.68c-0.13,0.31 -0.18,0.73 -0.18,1.27c0,0.53 0.06,0.96 0.18,1.27c0.17,0.45 0.45,0.68 0.86,0.68c0.4,0 0.7,-0.23 0.86,-0.68c0.12,-0.31 0.18,-0.74 0.18,-1.27c0,-0.54 -0.06,-0.96 -0.18,-1.27l0,0zm4.39,3.12c-0.32,0.49 -0.77,0.74 -1.36,0.74c-0.58,0 -1.04,-0.25 -1.36,-0.74c-0.29,-0.46 -0.44,-1.07 -0.44,-1.85s0.15,-1.4 0.44,-1.85c0.32,-0.49 0.77,-0.74 1.36,-0.74c0.59,0 1.04,0.24 1.36,0.74c0.29,0.46 0.44,1.07 0.44,1.85c0,0.77 -0.15,1.39 -0.44,1.85l0,0zm-0.5,-3.12c-0.17,-0.45 -0.46,-0.68 -0.86,-0.68c-0.41,0 -0.7,0.22 -0.86,0.68c-0.13,0.31 -0.18,0.73 -0.18,1.27c0,0.53 0.06,0.96 0.18,1.27c0.17,0.45 0.45,0.68 0.86,0.68c0.4,0 0.7,-0.23 0.86,-0.68c0.12,-0.31 0.18,-0.74 0.18,-1.27c0.01,-0.54 -0.06,-0.96 -0.18,-1.27l0,0z" stroke-width="5" stroke-miterlimit="10" stroke-dasharray=""></path><path data-v-9833e8b2="" transform="scale(0.1404494382022472)" fill="none" stroke="currentColor" paint-order="fill stroke markers" d="m32.65,108.47l0,-0.61l3.52,0l0,0.61l-3.52,0l0,0zm5.02,1.5l0,-4.07c-0.3,0.29 -0.68,0.5 -1.14,0.63l0,-0.75c0.22,-0.06 0.45,-0.15 0.7,-0.29c0.25,-0.15 0.46,-0.31 0.63,-0.5l0.57,0l0,4.98l-0.76,0l0,0zm3.28,-4.45c-0.35,0 -0.62,0.17 -0.82,0.51c-0.2,0.32 -0.3,0.72 -0.3,1.21c0,0.02 0,0.05 0.01,0.09l0.03,0c0.14,-0.22 0.31,-0.38 0.53,-0.49c0.19,-0.1 0.42,-0.15 0.69,-0.15c0.49,0 0.88,0.15 1.17,0.46c0.28,0.31 0.43,0.72 0.43,1.21s-0.17,0.91 -0.49,1.23c-0.33,0.32 -0.75,0.49 -1.24,0.49c-0.61,0 -1.07,-0.22 -1.39,-0.67c-0.31,-0.43 -0.46,-1.02 -0.46,-1.78c0,-0.81 0.16,-1.46 0.49,-1.97s0.79,-0.76 1.37,-0.76c0.96,0 1.51,0.45 1.64,1.35l-0.74,0c-0.12,-0.49 -0.42,-0.73 -0.92,-0.73l0,0zm-0.75,3.63c0.18,0.19 0.42,0.29 0.72,0.29c0.31,0 0.55,-0.1 0.73,-0.31c0.19,-0.21 0.29,-0.47 0.29,-0.78c0,-0.32 -0.09,-0.58 -0.27,-0.76c-0.18,-0.19 -0.43,-0.29 -0.74,-0.29s-0.56,0.1 -0.74,0.29c-0.18,0.2 -0.27,0.45 -0.27,0.78c0,0.33 0.09,0.59 0.28,0.78l0,0zm5.53,-1.83l0,0.02c0.24,0.06 0.45,0.2 0.61,0.42c0.19,0.24 0.29,0.51 0.29,0.82c0,0.44 -0.16,0.8 -0.48,1.07c-0.33,0.27 -0.79,0.41 -1.37,0.41c-0.59,0 -1.05,-0.14 -1.37,-0.41c-0.32,-0.28 -0.48,-0.63 -0.48,-1.07c0,-0.31 0.1,-0.59 0.29,-0.82c0.17,-0.22 0.37,-0.36 0.61,-0.42l0,-0.02c-0.25,-0.1 -0.44,-0.24 -0.56,-0.43c-0.11,-0.17 -0.17,-0.39 -0.17,-0.65c0,-0.37 0.14,-0.68 0.42,-0.93c0.31,-0.28 0.73,-0.42 1.26,-0.42s0.95,0.14 1.26,0.42c0.28,0.25 0.42,0.57 0.42,0.93c0,0.26 -0.06,0.48 -0.17,0.65c-0.12,0.2 -0.31,0.34 -0.56,0.43l0,0zm-2.04,1.27c0,0.26 0.09,0.47 0.29,0.63c0.19,0.16 0.46,0.24 0.81,0.24c0.35,0 0.63,-0.08 0.83,-0.24c0.18,-0.16 0.27,-0.37 0.27,-0.63c0,-0.28 -0.09,-0.49 -0.27,-0.66c-0.19,-0.18 -0.47,-0.27 -0.83,-0.27s-0.64,0.08 -0.82,0.27c-0.19,0.16 -0.28,0.38 -0.28,0.66l0,0zm1.83,-2.84c-0.18,-0.17 -0.42,-0.24 -0.73,-0.24s-0.55,0.08 -0.73,0.24c-0.16,0.14 -0.24,0.32 -0.24,0.53c0,0.24 0.06,0.43 0.19,0.57c0.16,0.17 0.42,0.25 0.77,0.25c0.35,0 0.61,-0.08 0.77,-0.25c0.13,-0.14 0.19,-0.33 0.19,-0.57c0.01,-0.21 -0.07,-0.39 -0.22,-0.53l0,0z" stroke-width="5" stroke-miterlimit="10" stroke-dasharray=""></path><path data-v-9833e8b2="" transform="scale(0.1404494382022472)" fill="none" stroke="currentColor" paint-order="fill stroke markers" d="m30.07,80.18l0,-0.61l3.52,0l0,0.61l-3.52,0l0,0zm6.55,-1.11c0.29,0.09 0.52,0.23 0.67,0.41c0.17,0.19 0.25,0.43 0.25,0.73c0,0.46 -0.16,0.84 -0.47,1.13c-0.33,0.29 -0.77,0.45 -1.3,0.45c-0.51,0 -0.92,-0.13 -1.23,-0.39c-0.35,-0.29 -0.54,-0.72 -0.58,-1.28l0.77,0c0.01,0.34 0.12,0.59 0.33,0.77c0.18,0.17 0.42,0.25 0.71,0.25c0.32,0 0.58,-0.1 0.77,-0.28c0.17,-0.17 0.26,-0.37 0.26,-0.62c0,-0.29 -0.09,-0.51 -0.27,-0.65c-0.17,-0.14 -0.42,-0.21 -0.75,-0.21l-0.36,0l0,-0.57l0.36,0c0.31,0 0.54,-0.07 0.69,-0.2c0.15,-0.13 0.24,-0.33 0.24,-0.58s-0.08,-0.44 -0.22,-0.57c-0.15,-0.14 -0.38,-0.2 -0.68,-0.2s-0.54,0.08 -0.7,0.23c-0.17,0.15 -0.27,0.38 -0.3,0.69l-0.75,0c0.04,-0.49 0.22,-0.88 0.55,-1.16c0.31,-0.28 0.7,-0.41 1.19,-0.41c0.5,0 0.9,0.12 1.2,0.36c0.29,0.24 0.45,0.58 0.45,1.01c-0.01,0.53 -0.29,0.9 -0.83,1.09l0,0zm3.08,-1.84c-0.35,0 -0.62,0.17 -0.82,0.51c-0.2,0.32 -0.3,0.72 -0.3,1.21c0,0.02 0,0.05 0.01,0.09l0.03,0c0.14,-0.22 0.31,-0.38 0.53,-0.49c0.19,-0.1 0.42,-0.15 0.69,-0.15c0.49,0 0.88,0.15 1.17,0.46c0.28,0.31 0.43,0.72 0.43,1.21c0,0.5 -0.17,0.91 -0.49,1.23c-0.33,0.32 -0.75,0.49 -1.24,0.49c-0.61,0 -1.07,-0.22 -1.39,-0.67c-0.31,-0.43 -0.46,-1.02 -0.46,-1.78c0,-0.81 0.16,-1.47 0.49,-1.97c0.33,-0.51 0.79,-0.76 1.36,-0.76c0.96,0 1.51,0.45 1.64,1.35l-0.74,0c-0.11,-0.49 -0.41,-0.73 -0.91,-0.73l0,0zm-0.75,3.63c0.18,0.19 0.42,0.29 0.72,0.29c0.31,0 0.55,-0.1 0.73,-0.31c0.19,-0.21 0.28,-0.47 0.28,-0.78c0,-0.32 -0.09,-0.58 -0.27,-0.76c-0.18,-0.2 -0.43,-0.29 -0.74,-0.29s-0.56,0.1 -0.74,0.29s-0.27,0.45 -0.27,0.78c0.01,0.33 0.1,0.58 0.29,0.78l0,0z" stroke-width="5" stroke-miterlimit="10" stroke-dasharray=""></path><path data-v-9833e8b2="" transform="scale(0.1404494382022472)" fill="none" stroke="currentColor" paint-order="fill stroke markers" d="m38.2,56.15l0,-0.61l3.52,0l0,0.61l-3.52,0l0,0zm6.88,0.42l0,1.08l-0.72,0l0,-1.08l-2.42,0l0,-0.72l2.45,-3.18l0.7,0l0,3.29l0.75,0l0,0.61l-0.76,0l0,0zm-0.73,-2.94l-0.02,0l-1.78,2.33l1.8,0l0,-2.33l0,0z" stroke-width="5" stroke-miterlimit="10" stroke-dasharray=""></path><path data-v-9833e8b2="" transform="scale(0.1404494382022472)" fill="none" stroke="currentColor" paint-order="fill stroke markers" d="m61.01,39.82l-3.43,0c0,-0.5 0.16,-0.93 0.49,-1.31c0.18,-0.22 0.56,-0.52 1.12,-0.91c0.33,-0.24 0.57,-0.43 0.71,-0.57c0.22,-0.25 0.34,-0.52 0.34,-0.82c0,-0.28 -0.08,-0.49 -0.23,-0.63s-0.38,-0.21 -0.67,-0.21c-0.31,0 -0.55,0.1 -0.71,0.32c-0.16,0.23 -0.24,0.53 -0.26,0.93l-0.76,0c0.01,-0.56 0.17,-1.01 0.48,-1.34c0.32,-0.36 0.75,-0.54 1.28,-0.54c0.47,0 0.87,0.13 1.18,0.41c0.3,0.28 0.45,0.63 0.45,1.07c0,0.43 -0.17,0.82 -0.49,1.18c-0.19,0.2 -0.54,0.47 -1.03,0.8c-0.54,0.36 -0.86,0.67 -0.96,0.94l2.49,0l0,0.68l0,0zm3.13,-2.65l0,0.02c0.24,0.06 0.45,0.19 0.61,0.42c0.19,0.24 0.29,0.51 0.29,0.82c0,0.44 -0.16,0.8 -0.48,1.07c-0.33,0.27 -0.79,0.41 -1.37,0.41c-0.59,0 -1.05,-0.14 -1.37,-0.41c-0.32,-0.28 -0.48,-0.64 -0.48,-1.07c0,-0.31 0.1,-0.59 0.29,-0.82c0.17,-0.22 0.37,-0.36 0.61,-0.42l0,-0.02c-0.25,-0.1 -0.44,-0.24 -0.56,-0.43c-0.11,-0.17 -0.17,-0.39 -0.17,-0.65c0,-0.37 0.14,-0.68 0.42,-0.94c0.31,-0.28 0.73,-0.42 1.26,-0.42s0.95,0.14 1.26,0.42c0.28,0.25 0.42,0.57 0.42,0.94c0,0.26 -0.06,0.47 -0.17,0.65c-0.12,0.2 -0.31,0.34 -0.56,0.43l0,0zm-2.05,1.27c0,0.26 0.09,0.47 0.29,0.63c0.19,0.16 0.46,0.24 0.81,0.24s0.63,-0.08 0.83,-0.24c0.18,-0.16 0.27,-0.37 0.27,-0.63c0,-0.28 -0.09,-0.5 -0.27,-0.66c-0.19,-0.18 -0.47,-0.27 -0.83,-0.27s-0.64,0.08 -0.82,0.27c-0.18,0.16 -0.28,0.38 -0.28,0.66l0,0zm1.84,-2.84c-0.18,-0.17 -0.42,-0.24 -0.73,-0.24c-0.31,0 -0.55,0.08 -0.73,0.24c-0.16,0.14 -0.24,0.32 -0.24,0.53c0,0.24 0.06,0.43 0.19,0.57c0.16,0.17 0.42,0.25 0.77,0.25s0.61,-0.08 0.77,-0.25c0.12,-0.14 0.19,-0.33 0.19,-0.57c0.01,-0.21 -0.07,-0.39 -0.22,-0.53l0,0z" stroke-width="5" stroke-miterlimit="10" stroke-dasharray=""></path><path data-v-9833e8b2="" transform="scale(0.1404494382022472)" fill="none" stroke="currentColor" paint-order="fill stroke markers" d="m87.2,28.01c-0.35,0 -0.62,0.17 -0.82,0.51c-0.2,0.32 -0.3,0.72 -0.3,1.21c0,0.02 0,0.05 0.01,0.09l0.03,0c0.14,-0.22 0.31,-0.38 0.53,-0.49c0.19,-0.1 0.42,-0.15 0.69,-0.15c0.49,0 0.88,0.15 1.17,0.46c0.28,0.31 0.43,0.72 0.43,1.21c0,0.5 -0.17,0.91 -0.49,1.23c-0.33,0.32 -0.75,0.49 -1.24,0.49c-0.61,0 -1.07,-0.22 -1.39,-0.67c-0.31,-0.43 -0.46,-1.02 -0.46,-1.78c0,-0.81 0.16,-1.47 0.49,-1.97c0.33,-0.51 0.79,-0.76 1.37,-0.76c0.96,0 1.51,0.45 1.64,1.35l-0.74,0c-0.12,-0.49 -0.42,-0.73 -0.92,-0.73l0,0zm-0.75,3.63c0.18,0.19 0.42,0.29 0.72,0.29c0.31,0 0.55,-0.1 0.73,-0.31c0.19,-0.21 0.29,-0.47 0.29,-0.78c0,-0.32 -0.09,-0.58 -0.27,-0.76c-0.18,-0.19 -0.43,-0.29 -0.74,-0.29s-0.56,0.1 -0.74,0.29c-0.18,0.2 -0.27,0.45 -0.27,0.78c0,0.32 0.09,0.58 0.28,0.78l0,0zm5.95,0.18c-0.32,0.49 -0.77,0.74 -1.36,0.74c-0.58,0 -1.04,-0.25 -1.36,-0.74c-0.29,-0.46 -0.44,-1.07 -0.44,-1.85s0.15,-1.4 0.44,-1.85c0.32,-0.5 0.77,-0.74 1.36,-0.74c0.58,0 1.04,0.24 1.36,0.74c0.29,0.46 0.44,1.07 0.44,1.85c-0.01,0.77 -0.15,1.39 -0.44,1.85l0,0zm-0.5,-3.12c-0.17,-0.45 -0.46,-0.68 -0.86,-0.68c-0.41,0 -0.7,0.22 -0.86,0.68c-0.13,0.31 -0.18,0.73 -0.18,1.27c0,0.53 0.06,0.96 0.18,1.27c0.17,0.45 0.45,0.68 0.86,0.68c0.4,0 0.7,-0.23 0.86,-0.68c0.12,-0.31 0.18,-0.74 0.18,-1.27c0,-0.54 -0.06,-0.96 -0.18,-1.27l0,0z" stroke-width="5" stroke-miterlimit="10" stroke-dasharray=""></path><path data-v-9833e8b2="" transform="scale(0.1404494382022472)" fill="none" stroke="currentColor" paint-order="fill stroke markers" d="m114.35,39.16c-0.34,0.5 -0.79,0.76 -1.37,0.76c-0.97,0 -1.51,-0.45 -1.64,-1.35l0.74,0c0.1,0.48 0.4,0.73 0.91,0.73c0.34,0 0.61,-0.17 0.82,-0.51c0.19,-0.32 0.3,-0.73 0.3,-1.21c0,-0.03 -0.01,-0.06 -0.01,-0.09l-0.03,0c-0.14,0.22 -0.32,0.38 -0.53,0.49c-0.2,0.1 -0.43,0.15 -0.69,0.15c-0.49,0 -0.88,-0.16 -1.18,-0.48c-0.28,-0.31 -0.42,-0.7 -0.42,-1.19c0,-0.5 0.16,-0.91 0.49,-1.23c0.33,-0.33 0.74,-0.49 1.24,-0.49c0.61,0 1.07,0.22 1.39,0.66c0.31,0.43 0.47,1.02 0.47,1.79c0.01,0.81 -0.16,1.47 -0.49,1.97l0,0zm-0.6,-3.49c-0.19,-0.2 -0.43,-0.29 -0.72,-0.29c-0.31,0 -0.56,0.1 -0.74,0.31c-0.19,0.2 -0.28,0.46 -0.28,0.78s0.09,0.57 0.28,0.76c0.17,0.19 0.42,0.29 0.73,0.29c0.31,0 0.56,-0.1 0.74,-0.29c0.18,-0.19 0.27,-0.46 0.27,-0.78c-0.01,-0.34 -0.1,-0.6 -0.28,-0.78l0,0zm4.91,4.15l-3.43,0c0,-0.5 0.16,-0.93 0.49,-1.31c0.18,-0.22 0.56,-0.52 1.12,-0.91c0.33,-0.24 0.57,-0.43 0.71,-0.57c0.22,-0.25 0.34,-0.52 0.34,-0.82c0,-0.28 -0.08,-0.49 -0.23,-0.63s-0.38,-0.21 -0.68,-0.21c-0.31,0 -0.55,0.1 -0.71,0.32c-0.17,0.21 -0.25,0.51 -0.26,0.91l-0.76,0c0.01,-0.56 0.17,-1.01 0.48,-1.34c0.32,-0.36 0.75,-0.54 1.28,-0.54c0.47,0 0.87,0.13 1.18,0.41c0.3,0.28 0.45,0.63 0.45,1.07c0,0.43 -0.17,0.82 -0.49,1.18c-0.19,0.2 -0.54,0.47 -1.03,0.8c-0.54,0.36 -0.86,0.67 -0.96,0.94l2.49,0l0,0.7l0.01,0z" stroke-width="5" stroke-miterlimit="10" stroke-dasharray=""></path><path data-v-9833e8b2="" transform="scale(0.1404494382022472)" fill="none" stroke="currentColor" paint-order="fill stroke markers" d="m130.44,57.65l0,-4.07c-0.3,0.29 -0.68,0.5 -1.14,0.63l0,-0.75c0.22,-0.06 0.45,-0.15 0.7,-0.29c0.25,-0.15 0.46,-0.31 0.63,-0.49l0.57,0l0,4.98l-0.76,0l0,-0.01zm4.94,0l-3.43,0c0,-0.5 0.16,-0.93 0.49,-1.31c0.18,-0.22 0.56,-0.52 1.12,-0.91c0.33,-0.24 0.57,-0.43 0.71,-0.57c0.22,-0.25 0.34,-0.52 0.34,-0.82c0,-0.28 -0.08,-0.49 -0.23,-0.63s-0.38,-0.21 -0.68,-0.21c-0.31,0 -0.55,0.1 -0.71,0.32c-0.17,0.21 -0.25,0.51 -0.27,0.91l-0.76,0c0.01,-0.56 0.17,-1.01 0.48,-1.34c0.32,-0.36 0.75,-0.54 1.28,-0.54c0.47,0 0.87,0.13 1.18,0.41c0.3,0.28 0.45,0.63 0.45,1.07c0,0.43 -0.17,0.82 -0.49,1.18c-0.19,0.2 -0.54,0.47 -1.03,0.8c-0.54,0.36 -0.86,0.67 -0.96,0.94l2.49,0l0,0.7l0.02,0zm3.38,-1.08l0,1.08l-0.72,0l0,-1.08l-2.42,0l0,-0.72l2.45,-3.18l0.7,0l0,3.29l0.75,0l0,0.61l-0.76,0l0,0zm-0.72,-2.94l-0.02,0l-1.78,2.33l1.8,0l0,-2.33l0,0z" stroke-width="5" stroke-miterlimit="10" stroke-dasharray=""></path><path data-v-9833e8b2="" transform="scale(0.1404494382022472)" fill="none" stroke="currentColor" paint-order="fill stroke markers" d="m140.11,82.84l0,-4.07c-0.3,0.29 -0.68,0.5 -1.14,0.63l0,-0.75c0.22,-0.06 0.45,-0.15 0.7,-0.29c0.25,-0.15 0.46,-0.31 0.63,-0.49l0.57,0l0,4.98l-0.76,0l0,-0.01zm2.26,-2.87l0.02,0c0.15,-0.16 0.33,-0.27 0.53,-0.34c0.18,-0.08 0.39,-0.11 0.61,-0.11c0.47,0 0.85,0.15 1.14,0.46s0.45,0.73 0.45,1.26c0,0.52 -0.19,0.94 -0.57,1.26c-0.36,0.29 -0.78,0.44 -1.27,0.44c-0.45,0 -0.83,-0.13 -1.15,-0.37c-0.36,-0.27 -0.55,-0.64 -0.59,-1.1l0.74,0c0.03,0.28 0.14,0.5 0.33,0.64c0.17,0.13 0.39,0.19 0.67,0.19c0.31,0 0.56,-0.1 0.77,-0.29s0.31,-0.45 0.31,-0.77c0,-0.35 -0.09,-0.62 -0.27,-0.82c-0.18,-0.19 -0.43,-0.29 -0.77,-0.29c-0.22,0 -0.41,0.04 -0.58,0.12c-0.18,0.08 -0.31,0.22 -0.41,0.4l-0.71,0l0.27,-2.79l2.99,0l0,0.67l-2.38,0l-0.13,1.44l0,0zm4.92,-1.58c-0.35,0 -0.62,0.17 -0.82,0.51c-0.2,0.32 -0.3,0.72 -0.3,1.21c0,0.02 0,0.05 0.01,0.09l0.03,0c0.14,-0.22 0.31,-0.38 0.53,-0.49c0.19,-0.1 0.43,-0.15 0.69,-0.15c0.49,0 0.88,0.15 1.17,0.46s0.43,0.72 0.43,1.21c0,0.5 -0.17,0.91 -0.49,1.23c-0.33,0.32 -0.75,0.49 -1.24,0.49c-0.61,0 -1.07,-0.22 -1.39,-0.67c-0.31,-0.43 -0.46,-1.02 -0.46,-1.78c0,-0.81 0.16,-1.47 0.49,-1.97c0.33,-0.51 0.79,-0.76 1.36,-0.76c0.96,0 1.51,0.45 1.64,1.35l-0.74,0c-0.1,-0.49 -0.4,-0.73 -0.91,-0.73l0,0zm-0.75,3.63c0.18,0.2 0.43,0.29 0.72,0.29c0.31,0 0.55,-0.1 0.73,-0.31c0.19,-0.21 0.29,-0.47 0.29,-0.78c0,-0.32 -0.09,-0.58 -0.27,-0.76c-0.18,-0.2 -0.43,-0.29 -0.74,-0.29c-0.31,0 -0.56,0.1 -0.74,0.29c-0.18,0.19 -0.27,0.45 -0.27,0.78c0,0.33 0.09,0.59 0.28,0.78l0,0z" stroke-width="5" stroke-miterlimit="10" stroke-dasharray=""></path><path data-v-9833e8b2="" transform="scale(0.1404494382022472)" fill="none" stroke="currentColor" paint-order="fill stroke markers" d="m137.79,109.97l0,-4.07c-0.3,0.29 -0.68,0.5 -1.14,0.63l0,-0.75c0.22,-0.06 0.45,-0.15 0.7,-0.29c0.25,-0.15 0.46,-0.31 0.63,-0.5l0.57,0l0,4.98l-0.76,0l0,0zm4.17,-2.65l0,0.02c0.24,0.06 0.45,0.2 0.61,0.42c0.19,0.24 0.29,0.51 0.29,0.82c0,0.44 -0.16,0.8 -0.48,1.07c-0.33,0.27 -0.79,0.41 -1.37,0.41c-0.59,0 -1.05,-0.14 -1.37,-0.41c-0.32,-0.28 -0.48,-0.63 -0.48,-1.07c0,-0.31 0.1,-0.59 0.29,-0.82c0.17,-0.22 0.37,-0.36 0.61,-0.42l0,-0.02c-0.25,-0.1 -0.44,-0.24 -0.56,-0.43c-0.11,-0.17 -0.17,-0.39 -0.17,-0.65c0,-0.37 0.14,-0.68 0.42,-0.93c0.31,-0.28 0.73,-0.42 1.26,-0.42s0.95,0.14 1.26,0.42c0.28,0.25 0.42,0.57 0.42,0.93c0,0.26 -0.06,0.48 -0.17,0.65c-0.12,0.2 -0.31,0.34 -0.56,0.43l0,0zm-2.05,1.27c0,0.26 0.09,0.47 0.29,0.63c0.19,0.16 0.46,0.24 0.81,0.24c0.35,0 0.63,-0.08 0.83,-0.24c0.18,-0.16 0.27,-0.37 0.27,-0.63c0,-0.28 -0.09,-0.49 -0.27,-0.66c-0.19,-0.18 -0.47,-0.27 -0.83,-0.27s-0.64,0.08 -0.82,0.27c-0.19,0.16 -0.28,0.38 -0.28,0.66l0,0zm1.83,-2.84c-0.18,-0.17 -0.42,-0.24 -0.73,-0.24s-0.55,0.08 -0.73,0.24c-0.16,0.14 -0.24,0.32 -0.24,0.53c0,0.24 0.06,0.43 0.19,0.57c0.16,0.17 0.42,0.25 0.77,0.25s0.61,-0.08 0.77,-0.25c0.13,-0.14 0.19,-0.33 0.19,-0.57c0.02,-0.21 -0.06,-0.39 -0.22,-0.53l0,0zm4.12,1.57l0,0.02c0.24,0.06 0.45,0.2 0.61,0.42c0.2,0.24 0.29,0.51 0.29,0.82c0,0.44 -0.16,0.8 -0.48,1.07c-0.33,0.27 -0.79,0.41 -1.37,0.41c-0.59,0 -1.05,-0.14 -1.37,-0.41c-0.32,-0.28 -0.48,-0.63 -0.48,-1.07c0,-0.31 0.1,-0.59 0.29,-0.82c0.17,-0.22 0.37,-0.36 0.61,-0.42l0,-0.02c-0.25,-0.1 -0.44,-0.24 -0.56,-0.43c-0.11,-0.17 -0.17,-0.39 -0.17,-0.65c0,-0.37 0.14,-0.68 0.42,-0.93c0.31,-0.28 0.73,-0.42 1.26,-0.42s0.95,0.14 1.26,0.42c0.28,0.25 0.42,0.57 0.42,0.93c0,0.26 -0.06,0.48 -0.17,0.65c-0.12,0.2 -0.31,0.34 -0.56,0.43l0,0zm-2.05,1.27c0,0.26 0.09,0.47 0.29,0.63c0.19,0.16 0.46,0.24 0.81,0.24c0.35,0 0.63,-0.08 0.83,-0.24c0.18,-0.16 0.27,-0.37 0.27,-0.63c0,-0.28 -0.09,-0.49 -0.27,-0.66c-0.2,-0.18 -0.47,-0.27 -0.83,-0.27s-0.64,0.08 -0.82,0.27c-0.19,0.16 -0.28,0.38 -0.28,0.66l0,0zm1.83,-2.84c-0.18,-0.17 -0.42,-0.24 -0.73,-0.24s-0.55,0.08 -0.73,0.24c-0.16,0.14 -0.24,0.32 -0.24,0.53c0,0.24 0.06,0.43 0.19,0.57c0.16,0.17 0.42,0.25 0.77,0.25s0.61,-0.08 0.77,-0.25c0.13,-0.14 0.19,-0.33 0.19,-0.57c0.02,-0.21 -0.06,-0.39 -0.22,-0.53l0,0z" stroke-width="5" stroke-miterlimit="10" stroke-dasharray=""></path><path data-v-9833e8b2="" transform="scale(0.1404494382022472)" fill="none" stroke="currentColor" paint-order="fill stroke markers" d="m127.19,131.29l-3.43,0c0,-0.49 0.16,-0.93 0.49,-1.3c0.18,-0.22 0.56,-0.52 1.12,-0.91c0.33,-0.24 0.57,-0.43 0.71,-0.57c0.22,-0.25 0.34,-0.52 0.34,-0.82c0,-0.28 -0.08,-0.49 -0.23,-0.63s-0.38,-0.21 -0.68,-0.21c-0.31,0 -0.55,0.1 -0.71,0.32c-0.17,0.21 -0.25,0.51 -0.26,0.91l-0.76,0c0.01,-0.56 0.17,-1.01 0.48,-1.34c0.32,-0.36 0.75,-0.54 1.28,-0.54c0.47,0 0.87,0.13 1.18,0.41c0.3,0.28 0.45,0.64 0.45,1.07c0,0.43 -0.17,0.82 -0.49,1.18c-0.19,0.2 -0.54,0.47 -1.03,0.8c-0.54,0.36 -0.86,0.67 -0.96,0.94l2.49,0l0.01,0.69l0,0zm3.9,0l-3.43,0c0,-0.49 0.16,-0.93 0.49,-1.3c0.18,-0.22 0.56,-0.52 1.12,-0.91c0.33,-0.24 0.57,-0.43 0.71,-0.57c0.22,-0.25 0.34,-0.52 0.34,-0.82c0,-0.28 -0.08,-0.49 -0.23,-0.63s-0.38,-0.21 -0.68,-0.21c-0.31,0 -0.55,0.1 -0.71,0.32c-0.17,0.21 -0.25,0.51 -0.26,0.91l-0.76,0c0.01,-0.56 0.17,-1.01 0.48,-1.34c0.32,-0.36 0.75,-0.54 1.28,-0.54c0.47,0 0.87,0.13 1.18,0.41c0.3,0.28 0.45,0.64 0.45,1.07c0,0.43 -0.17,0.82 -0.49,1.18c-0.19,0.2 -0.54,0.47 -1.03,0.8c-0.54,0.36 -0.86,0.67 -0.96,0.94l2.49,0l0.01,0.69l0,0zm3.54,-0.64c-0.32,0.49 -0.77,0.74 -1.36,0.74c-0.58,0 -1.04,-0.25 -1.36,-0.74c-0.29,-0.46 -0.44,-1.07 -0.44,-1.85s0.15,-1.4 0.44,-1.85c0.32,-0.49 0.77,-0.74 1.36,-0.74c0.58,0 1.04,0.24 1.36,0.74c0.29,0.46 0.44,1.07 0.44,1.85c0,0.77 -0.15,1.39 -0.44,1.85l0,0zm-0.49,-3.12c-0.17,-0.45 -0.46,-0.68 -0.86,-0.68c-0.41,0 -0.7,0.22 -0.86,0.68c-0.13,0.31 -0.18,0.73 -0.18,1.27c0,0.53 0.06,0.96 0.18,1.27c0.17,0.45 0.45,0.68 0.86,0.68c0.4,0 0.7,-0.23 0.86,-0.68c0.12,-0.31 0.18,-0.74 0.18,-1.27c0,-0.54 -0.06,-0.96 -0.18,-1.27l0,0z" stroke-width="5" stroke-miterlimit="10" stroke-dasharray=""></path><path data-v-9833e8b2="" transform="scale(0.1404494382022472)" fill="none" stroke="currentColor" paint-order="fill stroke markers" d="m38.51,39.22l3.98,3.9c-11.61,11.84 -18.77,28.06 -18.77,45.95c0,18.03 7.27,34.35 19.03,46.22l-3.96,3.93c-12.76,-12.87 -20.65,-30.59 -20.65,-50.14c0,-19.42 7.77,-37.02 20.37,-49.86z" stroke-width="5" stroke-miterlimit="10" stroke-dasharray=""></path><path data-v-9833e8b2="" transform="scale(0.1404494382022472)" fill="none" stroke="currentColor" paint-order="fill stroke markers" d="m138.23,37.25l-3.83,4.06c-11.75,-11.09 -27.6,-17.89 -45.03,-17.89c-18.36,0 -34.96,7.54 -46.88,19.7l-3.98,-3.9c12.93,-13.19 30.94,-21.37 50.86,-21.37c18.91,-0.01 36.11,7.37 48.86,19.4z" stroke-width="5" stroke-miterlimit="10" stroke-dasharray=""></path><path data-v-9833e8b2="" transform="scale(0.1404494382022472)" fill="none" stroke="currentColor" paint-order="fill stroke markers" d="m160.59,89.07c0,19.78 -8.06,37.67 -21.08,50.57l-3.93,-3.96c12,-11.89 19.43,-28.38 19.43,-46.61c0,-18.82 -7.92,-35.78 -20.61,-47.75l3.83,-4.06c13.77,12.98 22.36,31.39 22.36,51.81z" stroke-width="5" stroke-miterlimit="10" stroke-dasharray=""></path><path data-v-9833e8b2="" transform="scale(0.1404494382022472)" fill="none" stroke="currentColor" paint-order="fill stroke markers" d="m30.68,107.86l-9.16,2.93" stroke-width="5" stroke-miterlimit="10" stroke-dasharray=""></path><path data-v-9833e8b2="" transform="scale(0.1404494382022472)" fill="none" stroke="currentColor" paint-order="fill stroke markers" d="m45.36,132.16l-6.83,6.77" stroke-width="5" stroke-miterlimit="10" stroke-dasharray=""></path><path data-v-9833e8b2="" transform="scale(0.1404494382022472)" fill="none" stroke="currentColor" paint-order="fill stroke markers" d="m139.53,139.64l-6.83,-6.77" stroke-width="5" stroke-miterlimit="10" stroke-dasharray=""></path><path data-v-9833e8b2="" transform="scale(0.1404494382022472)" fill="none" stroke="currentColor" paint-order="fill stroke markers" d="m19.05,77.62l9.49,1.54" stroke-width="5" stroke-miterlimit="10" stroke-dasharray=""></path><path data-v-9833e8b2="" transform="scale(0.1404494382022472)" fill="none" stroke="currentColor" paint-order="fill stroke markers" d="m31.91,46.95l7.75,5.68" stroke-width="5" stroke-miterlimit="10" stroke-dasharray=""></path><path data-v-9833e8b2="" transform="scale(0.1404494382022472)" fill="none" stroke="currentColor" paint-order="fill stroke markers" d="m61.62,34.04l-4.33,-8.58" stroke-width="5" stroke-miterlimit="10" stroke-dasharray=""></path><path data-v-9833e8b2="" transform="scale(0.1404494382022472)" fill="none" stroke="currentColor" paint-order="fill stroke markers" d="m89.67,17.83l-0.04,9.61" stroke-width="5" stroke-miterlimit="10" stroke-dasharray=""></path><path data-v-9833e8b2="" transform="scale(0.1404494382022472)" fill="none" stroke="currentColor" paint-order="fill stroke markers" d="m121.98,25.73l-4.4,8.55" stroke-width="5" stroke-miterlimit="10" stroke-dasharray=""></path><path data-v-9833e8b2="" transform="scale(0.1404494382022472)" fill="none" stroke="currentColor" paint-order="fill stroke markers" d="m147.18,47.44l-7.8,5.62" stroke-width="5" stroke-miterlimit="10" stroke-dasharray=""></path><path data-v-9833e8b2="" transform="scale(0.1404494382022472)" fill="none" stroke="currentColor" paint-order="fill stroke markers" d="m159.78,78.22l-9.5,1.46" stroke-width="5" stroke-miterlimit="10" stroke-dasharray=""></path><path data-v-9833e8b2="" transform="scale(0.1404494382022472)" fill="none" stroke="currentColor" paint-order="fill stroke markers" d="m157.03,111.37l-9.13,-3.01" stroke-width="5" stroke-miterlimit="10" stroke-dasharray=""></path><path data-v-9833e8b2="" transform="scale(0.1404494382022472)" fill="none" stroke="currentColor" paint-order="fill stroke markers" d="m66.93,22.12l25.57,65.02l-1.14,6.12l-4.67,-4.14l-19.76,-67l0,0z" stroke-width="5" stroke-miterlimit="10" stroke-dasharray=""></path></g></svg>