<svg data-v-9833e8b2="" version="1.1" xmlns="http://www.w3.org/2000/svg" xmlns:xlink="http://www.w3.org/1999/xlink" width="19.5" height="25"><g data-v-9833e8b2=""><path data-v-9833e8b2="" transform="scale(0.12953367875647667)" fill="none" stroke="currentColor" paint-order="fill stroke markers" d="m116.8,189.9l0,2.5l-95.7,0l0,-2.5c0,-11.1 -9,-20.2 -20.1,-20.2l0,-146c11.1,0 20.1,-9 20.1,-20.2l0,-2.5l95.7,0l0,2.5c0,11.1 20.2,20.2 20.2,20.2l0,146.1c-11.1,0 -20.2,9 -20.2,20.1l0,0z" stroke-width="5" stroke-miterlimit="10" stroke-dasharray=""></path><path data-v-9833e8b2="" transform="scale(0.12953367875647667)" fill="none" stroke="currentColor" paint-order="fill stroke markers" d="m137,28.7l-136,0l0,-5l136,0l0,5l0,0l0,0z" stroke-width="5" stroke-miterlimit="10" stroke-dasharray=""></path><path data-v-9833e8b2="" transform="scale(0.12953367875647667)" fill="none" stroke="currentColor" paint-order="fill stroke markers" d="m137,169.8l-136,0l0,-5l136,0l0,5l0,0l0,0z" stroke-width="5" stroke-miterlimit="10" stroke-dasharray=""></path><path data-v-9833e8b2="" transform="scale(0.12953367875647667)" fill="none" stroke="currentColor" paint-order="fill stroke markers" d="m53.9,38.8l68,0l0,75.6l-68,0l0,-75.6l0,0z" stroke-width="5" stroke-miterlimit="10" stroke-dasharray=""></path><path data-v-9833e8b2="" transform="scale(0.12953367875647667)" fill="none" stroke="currentColor" paint-order="fill stroke markers" d="m63.9,48.9l47.9,0l0,17.6l-47.9,0l0,-17.6l0,0z" stroke-width="5" stroke-miterlimit="10" stroke-dasharray=""></path><path data-v-9833e8b2="" transform="scale(0.12953367875647667)" fill="none" stroke="currentColor" paint-order="fill stroke markers" d="m63.9,74.1l12.6,0l0,12.5l-12.6,0l0,-12.5l0,0z" stroke-width="5" stroke-miterlimit="10" stroke-dasharray=""></path><path data-v-9833e8b2="" transform="scale(0.12953367875647667)" fill="none" stroke="currentColor" paint-order="fill stroke markers" d="m81.6,74.1l12.6,0l0,12.5l-12.6,0l0,-12.5l0,0z" stroke-width="5" stroke-miterlimit="10" stroke-dasharray=""></path><path data-v-9833e8b2="" transform="scale(0.12953367875647667)" fill="none" stroke="currentColor" paint-order="fill stroke markers" d="m99.2,74.1l12.6,0l0,12.5l-12.6,0l0,-12.5l0,0z" stroke-width="5" stroke-miterlimit="10" stroke-dasharray=""></path><path data-v-9833e8b2="" transform="scale(0.12953367875647667)" fill="none" stroke="currentColor" paint-order="fill stroke markers" d="m63.9,91.7l12.6,0l0,12.6l-12.6,0l0,-12.6l0,0z" stroke-width="5" stroke-miterlimit="10" stroke-dasharray=""></path><path data-v-9833e8b2="" transform="scale(0.12953367875647667)" fill="none" stroke="currentColor" paint-order="fill stroke markers" d="m81.6,91.7l12.6,0l0,12.6l-12.6,0l0,-12.6l0,0z" stroke-width="5" stroke-miterlimit="10" stroke-dasharray=""></path><path data-v-9833e8b2="" transform="scale(0.12953367875647667)" fill="none" stroke="currentColor" paint-order="fill stroke markers" d="m99.2,91.7l12.6,0l0,12.6l-12.6,0l0,-12.6l0,0z" stroke-width="5" stroke-miterlimit="10" stroke-dasharray=""></path></g></svg>