<svg data-v-9833e8b2="" version="1.1" xmlns="http://www.w3.org/2000/svg" xmlns:xlink="http://www.w3.org/1999/xlink" width="25" height="7.5"><g data-v-9833e8b2=""><path data-v-9833e8b2="" transform="scale(0.042662116040955635)" fill="none" stroke="currentColor" paint-order="fill stroke markers" d="m585.4,138.30454l0,14.99l-584.4,0l0,-14.99l82.88,0l0,-14.43l72.28,0l0,14.43l75.68,0l0,-14.43l112.9,0l0,14.43l80.94,0l0,-14.43l72.28,0l0,14.43l87.44,0z" stroke-width="5" stroke-miterlimit="10" stroke-dasharray=""></path><path data-v-9833e8b2="" transform="scale(0.042662116040955635)" fill="none" stroke="currentColor" paint-order="fill stroke markers" d="m1,138.70454l5.43,6.94l-1.35,1.07l-4.07,-5.2l-0.01,-2.81l0,0zm6.99,-0.4l6.57,8.4l1.35,-1.07l-5.74,-7.33l-2.18,0zm9.49,0l6.57,8.4l1.35,-1.07l-5.74,-7.33l-2.18,0zm9.49,0l6.57,8.4l1.35,-1.07l-5.74,-7.33l-2.18,0zm9.49,0l6.57,8.4l1.35,-1.07l-5.74,-7.33l-2.18,0zm9.5,0l6.57,8.4l1.35,-1.07l-5.74,-7.33l-2.18,0zm9.49,0l6.57,8.4l1.35,-1.07l-5.74,-7.33l-2.18,0zm9.49,0l6.57,8.4l1.35,-1.07l-5.74,-7.33l-2.18,0zm9.49,0l6.57,8.4l1.35,-1.07l-5.74,-7.33l-2.18,0zm9.49,0l6.57,8.4l1.35,-1.07l-5.74,-7.33l-2.18,0zm9.49,0l6.57,8.4l1.35,-1.07l-5.74,-7.33l-2.18,0zm9.49,0l6.57,8.4l1.35,-1.07l-5.74,-7.33l-2.18,0zm9.5,0l6.57,8.4l1.35,-1.07l-5.74,-7.33l-2.18,0zm9.49,0l6.57,8.4l1.35,-1.07l-5.74,-7.33l-2.18,0zm9.49,0l6.57,8.4l1.35,-1.07l-5.74,-7.33l-2.18,0zm9.49,0l6.57,8.4l1.35,-1.07l-5.74,-7.33l-2.18,0zm9.49,0l6.57,8.4l1.35,-1.07l-5.74,-7.33l-2.18,0zm9.49,0l6.57,8.4l1.35,-1.07l-5.74,-7.33l-2.18,0zm9.49,0l6.57,8.4l1.35,-1.07l-5.74,-7.33l-2.18,0zm9.49,0l6.57,8.4l1.35,-1.07l-5.74,-7.33l-2.18,0zm9.5,0l6.57,8.4l1.35,-1.07l-5.74,-7.33l-2.18,0zm9.49,0l6.57,8.4l1.35,-1.07l-5.74,-7.33l-2.18,0zm9.49,0l6.57,8.4l1.35,-1.07l-5.74,-7.33l-2.18,0zm9.49,0l6.57,8.4l1.35,-1.07l-5.74,-7.33l-2.18,0zm9.49,0l6.57,8.4l1.35,-1.07l-5.74,-7.33l-2.18,0zm9.49,0l6.57,8.4l1.35,-1.07l-5.74,-7.33l-2.18,0zm9.49,0l6.57,8.4l1.35,-1.07l-5.74,-7.33l-2.18,0zm9.49,0l6.57,8.4l1.35,-1.07l-5.74,-7.33l-2.18,0zm9.5,0l6.57,8.4l1.35,-1.07l-5.74,-7.33l-2.18,0zm9.49,0l6.57,8.4l1.35,-1.07l-5.74,-7.33l-2.18,0zm9.49,0l6.57,8.4l1.35,-1.07l-5.74,-7.33l-2.18,0zm9.49,0l6.57,8.4l1.35,-1.07l-5.74,-7.33l-2.18,0zm9.49,0l6.57,8.4l1.35,-1.07l-5.74,-7.33l-2.18,0zm9.49,0l6.57,8.4l1.35,-1.07l-5.74,-7.33l-2.18,0zm9.49,0l6.57,8.4l1.35,-1.07l-5.74,-7.33l-2.18,0zm9.49,0l6.57,8.4l1.35,-1.07l-5.74,-7.33l-2.18,0zm9.5,0l6.57,8.4l1.35,-1.07l-5.74,-7.33l-2.18,0zm9.49,0l6.57,8.4l1.35,-1.07l-5.74,-7.33l-2.18,0zm9.49,0l6.57,8.4l1.35,-1.07l-5.74,-7.33l-2.18,0zm9.49,0l6.57,8.4l1.35,-1.07l-5.74,-7.33l-2.18,0zm9.49,0l6.57,8.4l1.35,-1.07l-5.74,-7.33l-2.18,0zm9.49,0l6.57,8.4l1.35,-1.07l-5.74,-7.33l-2.18,0zm9.49,0l6.57,8.4l1.35,-1.07l-5.74,-7.33l-2.18,0zm9.5,0l6.57,8.4l1.35,-1.07l-5.74,-7.33l-2.18,0zm9.49,0l6.57,8.4l1.35,-1.07l-5.74,-7.33l-2.18,0zm9.49,0l6.57,8.4l1.35,-1.07l-5.74,-7.33l-2.18,0zm9.49,0l6.57,8.4l1.35,-1.07l-5.74,-7.33l-2.18,0zm9.49,0l6.57,8.4l1.35,-1.07l-5.74,-7.33l-2.18,0zm9.49,0l6.57,8.4l1.35,-1.07l-5.74,-7.33l-2.18,0zm9.49,0l6.57,8.4l1.35,-1.07l-5.74,-7.33l-2.18,0zm9.49,0l6.57,8.4l1.35,-1.07l-5.74,-7.33l-2.18,0zm9.5,0l6.57,8.4l1.35,-1.07l-5.74,-7.33l-2.18,0zm9.49,0l6.57,8.4l1.35,-1.07l-5.74,-7.33l-2.18,0zm9.49,0l6.57,8.4l1.35,-1.07l-5.74,-7.33l-2.18,0zm9.49,0l6.57,8.4l1.35,-1.07l-5.74,-7.33l-2.18,0zm9.49,0l6.57,8.4l1.35,-1.07l-5.74,-7.33l-2.18,0zm9.49,0l6.57,8.4l1.35,-1.07l-5.74,-7.33l-2.18,0zm9.49,0l6.57,8.4l1.35,-1.07l-5.74,-7.33l-2.18,0zm9.49,0l6.57,8.4l1.35,-1.07l-5.74,-7.33l-2.18,0zm9.5,0l6.57,8.4l1.35,-1.07l-5.74,-7.33l-2.18,0zm9.49,0l6.57,8.4l1.35,-1.07l-5.74,-7.33l-2.18,0zm17.17,7.02l-5.49,-7.01l-2.19,0l6.57,8.4l1.1,-0.87l0.25,-0.2l-0.24,-0.32z" stroke-width="5" stroke-miterlimit="10" stroke-dasharray=""></path><path data-v-9833e8b2="" transform="scale(0.042662116040955635)" fill="none" stroke="currentColor" paint-order="fill stroke markers" d="m106.6,123.88454l1.73,0l0,14.43l-1.73,0l0,-14.43zm25.11,14.42l1.73,0l0,-14.43l-1.73,0l0,14.43z" stroke-width="5" stroke-miterlimit="10" stroke-dasharray=""></path><path data-v-9833e8b2="" transform="scale(0.042662116040955635)" fill="none" stroke="currentColor" paint-order="fill stroke markers" d="m448.4,123.88454l1.73,0l0,14.43l-1.73,0l0,-14.43zm25.11,14.42l1.73,0l0,-14.43l-1.73,0l0,14.43z" stroke-width="5" stroke-miterlimit="10" stroke-dasharray=""></path><path data-v-9833e8b2="" transform="scale(0.042662116040955635)" fill="none" stroke="currentColor" paint-order="fill stroke markers" d="m237.2,123.88454l1.73,0l0,14.43l-1.73,0l0,-14.43zm25.11,14.42l1.73,0l0,-14.43l-1.73,0l0,14.43zm25.11,0l1.73,0l0,-14.43l-1.73,0l0,14.43zm25.12,0l1.73,0l0,-14.43l-1.73,0l0,14.43zm25.11,0l1.73,0l0,-14.43l-1.73,0l0,14.43z" stroke-width="5" stroke-miterlimit="10" stroke-dasharray=""></path><path data-v-9833e8b2="" transform="scale(0.042662116040955635)" fill="none" stroke="currentColor" paint-order="fill stroke markers" d="m72.57,5.49454l1.58,-3.68c0.28,-0.67 1.06,-0.97 1.72,-0.69c0.4,0.17 0.69,0.53 0.77,0.96l0.78,3.93c0.14,0.71 0.83,1.17 1.54,1.03c0.33,-0.07 0.62,-0.25 0.81,-0.53l2.34,-3.27c0.41,-0.6 1.23,-0.75 1.82,-0.33c0.36,0.25 0.58,0.67 0.57,1.11l-0.06,3.99c-0.02,0.72 0.56,1.32 1.28,1.34c0.34,0.01 0.68,-0.12 0.93,-0.36l2.93,-2.72c0.53,-0.49 1.36,-0.47 1.85,0.06c0.3,0.32 0.42,0.76 0.32,1.19l-0.86,3.91c-0.16,0.71 0.28,1.41 0.99,1.57c0.33,0.07 0.67,0.02 0.96,-0.15l3.45,-2.05c0.62,-0.37 1.43,-0.17 1.8,0.45c0.23,0.38 0.25,0.84 0.06,1.24l-1.68,3.63c-0.3,0.66 0,1.45 0.66,1.75c0.3,0.14 0.65,0.15 0.96,0.05l3.79,-1.29c0.68,-0.24 1.43,0.13 1.67,0.81c0.14,0.41 0.07,0.87 -0.19,1.21l-2.41,3.2c-0.43,0.59 -0.31,1.41 0.28,1.85c0.27,0.2 0.6,0.29 0.93,0.25l3.98,-0.48c0.72,-0.09 1.37,0.42 1.46,1.14c0.05,0.44 -0.11,0.87 -0.45,1.16l-3.01,2.63c-0.55,0.48 -0.6,1.3 -0.13,1.85c0.22,0.25 0.53,0.41 0.87,0.44l3.99,0.36c0.72,0.06 1.25,0.7 1.19,1.42c-0.04,0.43 -0.29,0.82 -0.67,1.03l-3.45,1.95c-0.63,0.36 -0.86,1.16 -0.5,1.8c0.16,0.29 0.43,0.51 0.75,0.61l3.7,1.14c0.69,0.21 1.09,0.94 0.88,1.63c-0.13,0.42 -0.46,0.75 -0.88,0.88l-3.82,1.18c-0.69,0.21 -1.08,0.95 -0.87,1.64c0.1,0.32 0.32,0.59 0.61,0.76l3.45,1.95c0.63,0.36 0.85,1.17 0.49,1.8c-0.21,0.37 -0.59,0.62 -1.02,0.66l-3.99,0.35c-0.73,0.07 -1.25,0.72 -1.18,1.44c0.03,0.33 0.19,0.64 0.44,0.86l3.01,2.63c0.57,0.45 0.66,1.27 0.21,1.84c-0.28,0.36 -0.73,0.54 -1.19,0.49l-3.98,-0.47c-0.72,-0.09 -1.37,0.42 -1.46,1.14c-0.04,0.34 0.05,0.67 0.25,0.94l2.41,3.21c0.43,0.58 0.32,1.4 -0.26,1.84c-0.35,0.26 -0.8,0.33 -1.21,0.19l-3.79,-1.29c-0.69,-0.23 -1.44,0.14 -1.67,0.83c-0.11,0.32 -0.09,0.66 0.05,0.96l1.68,3.63c0.34,0.64 0.11,1.43 -0.53,1.78c-0.42,0.23 -0.93,0.21 -1.33,-0.05l-3.45,-2.05c-0.62,-0.37 -1.43,-0.17 -1.8,0.46c-0.17,0.29 -0.23,0.63 -0.15,0.96l0.86,3.9c0.17,0.7 -0.27,1.41 -0.97,1.58c-0.43,0.1 -0.88,-0.02 -1.2,-0.32l-2.93,-2.73c-0.53,-0.5 -1.36,-0.47 -1.85,0.06c-0.23,0.25 -0.36,0.58 -0.36,0.93l0.06,4c0.02,0.72 -0.56,1.33 -1.28,1.34c-0.44,0.01 -0.86,-0.2 -1.11,-0.57l-2.3,-3.27c-0.41,-0.59 -1.22,-0.74 -1.81,-0.34c-0.29,0.2 -0.48,0.5 -0.54,0.84l-0.78,3.93c-0.14,0.71 -0.83,1.17 -1.54,1.03c-0.43,-0.08 -0.78,-0.37 -0.95,-0.77l-1.58,-3.68c-0.29,-0.66 -1.06,-0.97 -1.72,-0.68c-0.31,0.13 -0.55,0.38 -0.68,0.68l-1.58,3.68c-0.28,0.67 -1.05,0.98 -1.72,0.69c-0.4,-0.17 -0.69,-0.53 -0.77,-0.95l-0.78,-3.93c-0.13,-0.71 -0.81,-1.18 -1.52,-1.04c-0.34,0.06 -0.64,0.26 -0.84,0.54l-2.3,3.27c-0.41,0.6 -1.23,0.75 -1.82,0.33c-0.36,-0.25 -0.58,-0.67 -0.57,-1.11l0.06,-4c0.02,-0.72 -0.56,-1.32 -1.28,-1.34c-0.34,-0.01 -0.68,0.12 -0.93,0.36l-2.93,2.73c-0.57,0.45 -1.4,0.34 -1.84,-0.23c-0.24,-0.31 -0.33,-0.7 -0.25,-1.08l0.86,-3.9c0.16,-0.71 -0.28,-1.41 -0.99,-1.57c-0.33,-0.07 -0.67,-0.02 -0.96,0.15l-3.45,2.05c-0.61,0.39 -1.42,0.22 -1.81,-0.39c-0.26,-0.4 -0.28,-0.91 -0.05,-1.33l1.73,-3.63c0.3,-0.66 0,-1.45 -0.66,-1.75c-0.3,-0.14 -0.65,-0.15 -0.96,-0.05l-3.79,1.29c-0.68,0.24 -1.43,-0.13 -1.67,-0.81c-0.14,-0.41 -0.07,-0.87 0.19,-1.21l2.41,-3.21c0.43,-0.58 0.32,-1.4 -0.26,-1.84c-0.27,-0.2 -0.61,-0.29 -0.94,-0.25l-4.02,0.53c-0.72,0.08 -1.37,-0.43 -1.45,-1.15c-0.05,-0.43 0.11,-0.85 0.44,-1.13l3.01,-2.63c0.55,-0.48 0.6,-1.32 0.12,-1.86c-0.22,-0.25 -0.53,-0.41 -0.86,-0.44l-3.99,-0.35c-0.72,-0.06 -1.26,-0.69 -1.21,-1.41c0.03,-0.44 0.29,-0.84 0.68,-1.05l3.45,-1.95c0.63,-0.35 0.86,-1.15 0.51,-1.78c-0.16,-0.29 -0.44,-0.52 -0.76,-0.61l-3.78,-1.15c-0.69,-0.21 -1.09,-0.94 -0.88,-1.63c0.13,-0.42 0.46,-0.75 0.88,-0.88l3.82,-1.17c0.69,-0.22 1.08,-0.96 0.86,-1.66c-0.1,-0.32 -0.32,-0.59 -0.61,-0.75l-3.45,-1.95c-0.63,-0.35 -0.86,-1.15 -0.5,-1.79c0.21,-0.38 0.6,-0.63 1.03,-0.67l3.99,-0.36c0.72,-0.07 1.25,-0.7 1.19,-1.43c-0.03,-0.34 -0.19,-0.65 -0.44,-0.87l-3.01,-2.63c-0.57,-0.44 -0.68,-1.27 -0.24,-1.84c0.29,-0.37 0.75,-0.56 1.21,-0.5l3.98,0.48c0.72,0.08 1.38,-0.44 1.46,-1.17c0.04,-0.33 -0.05,-0.66 -0.25,-0.93l-2.41,-3.2c-0.43,-0.58 -0.32,-1.4 0.26,-1.84c0.35,-0.26 0.8,-0.33 1.21,-0.19l3.79,1.29c0.69,0.23 1.44,-0.14 1.67,-0.83c0.11,-0.32 0.09,-0.66 -0.05,-0.96l-1.73,-3.63c-0.31,-0.66 -0.03,-1.44 0.63,-1.75c0.4,-0.19 0.86,-0.16 1.24,0.06l3.45,2.05c0.6,0.4 1.42,0.23 1.82,-0.37c0.2,-0.31 0.27,-0.68 0.18,-1.04l-0.86,-3.91c-0.16,-0.71 0.28,-1.41 0.98,-1.57c0.43,-0.1 0.87,0.02 1.19,0.32l2.93,2.72c0.55,0.47 1.38,0.41 1.85,-0.14c0.2,-0.23 0.31,-0.53 0.32,-0.84l-0.06,-3.99c-0.02,-0.72 0.56,-1.32 1.28,-1.34c0.44,-0.01 0.86,0.2 1.11,0.57l2.3,3.27c0.42,0.59 1.24,0.73 1.83,0.31c0.27,-0.19 0.46,-0.48 0.53,-0.81l0.78,-3.93c0.14,-0.71 0.82,-1.18 1.54,-1.04c0.43,0.08 0.79,0.37 0.96,0.77l1.58,3.68c0.29,0.66 1.06,0.97 1.72,0.68c0.28,-0.16 0.52,-0.4 0.66,-0.71z" stroke-width="5" stroke-miterlimit="10" stroke-dasharray=""></path><path data-v-9833e8b2="" transform="scale(0.042662116040955635)" fill="none" stroke="currentColor" paint-order="fill stroke markers" d="m49.13,50.90454l-4.48,2.59c-3.59,-7.59 -3.79,-16.34 -0.56,-24.09l4.5,2.59c-1.09,2.81 -1.65,5.8 -1.65,8.82c0,3.48 0.75,6.92 2.19,10.09zm46.65,-10.09c0.01,3.75 -0.86,7.46 -2.53,10.82l4.46,2.59c4.06,-7.98 4.28,-17.37 0.6,-25.54l-4.48,2.59c1.29,3.01 1.95,6.26 1.95,9.54zm-22.55,-24.34c7.2,0.55 13.79,4.26 17.99,10.14l4.47,-2.59c-5.14,-7.45 -13.41,-12.13 -22.43,-12.71l-0.03,5.16zm17.15,39.65c-4.22,5.25 -10.43,8.52 -17.14,9.03l0,5.18c8.55,-0.54 16.45,-4.77 21.64,-11.59l-4.5,-2.62zm-39.33,-28.86c3.85,-5.78 9.98,-9.65 16.85,-10.63l0,-5.18c-8.72,1.03 -16.52,5.88 -21.31,13.24l4.46,2.57zm16.85,37.72c-6.39,-0.92 -12.17,-4.33 -16.05,-9.49l-4.48,2.59c4.84,6.73 12.29,11.11 20.53,12.08l0,-5.18z" stroke-width="5" stroke-miterlimit="10" stroke-dasharray=""></path><path data-v-9833e8b2="" transform="scale(0.042662116040955635)" fill="none" stroke="currentColor" paint-order="fill stroke markers" d="m161.84,94.09454l-5.52,0l-10.03,-13.43c0,0 -1.02,-1.67 -1.67,0.65c-0.65,2.31 -4.17,10.43 -4.17,10.43l-7.77,-1.04l-11.11,-12.89l-0.43,-2.74l-43.9,-18.32l0,0c-4.45,1.37 -9.28,0.54 -13.01,-2.23c-6.49,-4.8 -7.85,-13.95 -3.06,-20.43c2.74,-3.71 7.07,-5.9 11.68,-5.92l0.41,0c6.01,0.16 11.3,3.99 13.33,9.65c7.96,2.59 74.44,23.25 74.44,23.25l21.79,7.88c0,0 6.65,11.28 2.7,16.61c-3.95,5.31 -18.16,8.53 -23.68,8.53z" stroke-width="5" stroke-miterlimit="10" stroke-dasharray=""></path><path data-v-9833e8b2="" transform="scale(0.042662116040955635)" fill="none" stroke="currentColor" paint-order="fill stroke markers" d="m139.26,66.14454c0,2.73 -2.22,4.95 -4.95,4.95s-4.95,-2.22 -4.95,-4.95s2.22,-4.95 4.95,-4.95c2.73,0 4.95,2.22 4.95,4.95z" stroke-width="5" stroke-miterlimit="10" stroke-dasharray=""></path><path data-v-9833e8b2="" transform="scale(0.042662116040955635)" fill="none" stroke="currentColor" paint-order="fill stroke markers" d="m509.87,6.18454c0.66,0.29 1.44,-0.02 1.72,-0.68l1.58,-3.68c0.17,-0.4 0.53,-0.69 0.96,-0.77c0.71,-0.14 1.4,0.33 1.54,1.04l0.78,3.93c0.07,0.33 0.25,0.62 0.53,0.81c0.59,0.42 1.41,0.28 1.83,-0.31l2.3,-3.27c0.25,-0.36 0.67,-0.58 1.11,-0.57c0.72,0.02 1.3,0.62 1.28,1.34l-0.06,3.99c0,0.31 0.11,0.61 0.32,0.84c0.47,0.55 1.3,0.61 1.85,0.14l2.93,-2.72c0.32,-0.3 0.76,-0.42 1.19,-0.32c0.71,0.16 1.15,0.87 0.98,1.57l-0.86,3.91c-0.09,0.36 -0.03,0.73 0.18,1.04c0.4,0.6 1.21,0.77 1.82,0.37l3.45,-2.05c0.38,-0.23 0.84,-0.25 1.24,-0.06c0.66,0.31 0.94,1.09 0.63,1.75l-1.73,3.63c-0.14,0.3 -0.15,0.65 -0.05,0.96c0.23,0.69 0.98,1.06 1.67,0.83l3.79,-1.29c0.41,-0.14 0.87,-0.07 1.21,0.19c0.58,0.43 0.7,1.26 0.26,1.84l-2.41,3.2c-0.2,0.27 -0.29,0.6 -0.25,0.93c0.08,0.72 0.73,1.25 1.46,1.17l3.98,-0.48c0.46,-0.06 0.93,0.13 1.21,0.5c0.44,0.57 0.34,1.4 -0.24,1.84l-3.01,2.63c-0.25,0.22 -0.41,0.53 -0.44,0.87c-0.07,0.72 0.47,1.36 1.19,1.43l3.99,0.36c0.43,0.04 0.82,0.29 1.03,0.67c0.35,0.63 0.13,1.43 -0.5,1.79l-3.45,1.95c-0.29,0.16 -0.51,0.43 -0.61,0.75c-0.22,0.69 0.16,1.44 0.86,1.66l3.82,1.17c0.42,0.13 0.75,0.46 0.88,0.88c0.21,0.69 -0.18,1.43 -0.88,1.63l-3.78,1.15c-0.32,0.1 -0.59,0.32 -0.76,0.61c-0.35,0.63 -0.13,1.43 0.51,1.78l3.45,1.95c0.39,0.21 0.65,0.61 0.68,1.05c0.06,0.72 -0.48,1.35 -1.21,1.41l-3.99,0.35c-0.33,0.03 -0.64,0.19 -0.86,0.44c-0.48,0.55 -0.43,1.38 0.12,1.86l3.01,2.63c0.32,0.28 0.48,0.71 0.44,1.13c-0.08,0.72 -0.73,1.24 -1.45,1.15l-4.02,-0.53c-0.34,-0.04 -0.67,0.05 -0.94,0.25c-0.58,0.43 -0.7,1.26 -0.26,1.84l2.41,3.21c0.26,0.35 0.33,0.8 0.19,1.21c-0.24,0.68 -0.98,1.05 -1.67,0.81l-3.79,-1.29c-0.32,-0.11 -0.66,-0.09 -0.96,0.05c-0.66,0.3 -0.96,1.08 -0.66,1.75l1.73,3.63c0.23,0.42 0.21,0.93 -0.05,1.33c-0.39,0.61 -1.2,0.79 -1.81,0.39l-3.45,-2.05c-0.29,-0.17 -0.63,-0.23 -0.96,-0.15c-0.71,0.16 -1.15,0.86 -0.99,1.57l0.86,3.9c0.08,0.38 -0.01,0.78 -0.25,1.08c-0.45,0.57 -1.27,0.67 -1.84,0.23l-2.93,-2.73c-0.25,-0.23 -0.58,-0.36 -0.93,-0.36c-0.72,0.02 -1.3,0.61 -1.28,1.34l0.06,4c0.01,0.44 -0.2,0.86 -0.57,1.11c-0.6,0.41 -1.41,0.26 -1.82,-0.33l-2.3,-3.27c-0.2,-0.29 -0.5,-0.48 -0.84,-0.54c-0.71,-0.13 -1.39,0.34 -1.52,1.04l-0.78,3.93c-0.08,0.43 -0.37,0.78 -0.77,0.95c-0.67,0.28 -1.44,-0.03 -1.72,-0.69l-1.58,-3.68c-0.13,-0.31 -0.38,-0.55 -0.68,-0.68c-0.66,-0.29 -1.44,0.02 -1.72,0.68l-1.58,3.68c-0.17,0.4 -0.53,0.69 -0.95,0.77c-0.71,0.14 -1.4,-0.32 -1.54,-1.03l-0.78,-3.93c-0.06,-0.34 -0.26,-0.64 -0.54,-0.84c-0.59,-0.41 -1.4,-0.26 -1.81,0.34l-2.3,3.27c-0.25,0.36 -0.67,0.58 -1.11,0.57c-0.72,-0.02 -1.3,-0.62 -1.28,-1.34l0.06,-4c0.01,-0.34 -0.12,-0.67 -0.36,-0.93c-0.5,-0.53 -1.33,-0.55 -1.85,-0.06l-2.93,2.73c-0.32,0.3 -0.77,0.42 -1.2,0.32c-0.7,-0.17 -1.14,-0.88 -0.97,-1.58l0.86,-3.9c0.07,-0.33 0.02,-0.67 -0.15,-0.96c-0.37,-0.62 -1.18,-0.83 -1.8,-0.46l-3.45,2.05c-0.4,0.26 -0.91,0.28 -1.33,0.05c-0.64,-0.34 -0.88,-1.14 -0.53,-1.78l1.68,-3.63c0.14,-0.3 0.15,-0.65 0.05,-0.96c-0.23,-0.69 -0.98,-1.06 -1.67,-0.83l-3.79,1.29c-0.41,0.14 -0.87,0.07 -1.21,-0.19c-0.58,-0.43 -0.7,-1.26 -0.26,-1.84l2.41,-3.21c0.2,-0.27 0.29,-0.61 0.25,-0.94c-0.09,-0.72 -0.74,-1.23 -1.46,-1.14l-3.98,0.47c-0.45,0.06 -0.9,-0.13 -1.19,-0.49c-0.45,-0.57 -0.35,-1.39 0.21,-1.84l3.01,-2.63c0.25,-0.22 0.41,-0.53 0.44,-0.86c0.07,-0.73 -0.46,-1.37 -1.18,-1.44l-3.99,-0.35c-0.42,-0.04 -0.8,-0.29 -1.02,-0.66c-0.36,-0.63 -0.14,-1.44 0.49,-1.8l3.45,-1.95c0.29,-0.16 0.52,-0.44 0.61,-0.76c0.21,-0.69 -0.17,-1.43 -0.87,-1.64l-3.82,-1.18c-0.42,-0.13 -0.75,-0.46 -0.88,-0.88c-0.21,-0.69 0.18,-1.43 0.88,-1.63l3.7,-1.14c0.32,-0.1 0.59,-0.32 0.75,-0.61c0.36,-0.63 0.14,-1.44 -0.5,-1.8l-3.45,-1.95c-0.38,-0.21 -0.63,-0.6 -0.67,-1.03c-0.06,-0.72 0.47,-1.36 1.19,-1.42l3.99,-0.36c0.34,-0.03 0.65,-0.19 0.87,-0.44c0.48,-0.55 0.42,-1.37 -0.13,-1.85l-3.01,-2.63c-0.33,-0.29 -0.5,-0.72 -0.45,-1.16c0.09,-0.72 0.74,-1.23 1.46,-1.14l3.98,0.48c0.33,0.04 0.66,-0.05 0.93,-0.25c0.59,-0.43 0.71,-1.26 0.28,-1.85l-2.41,-3.2c-0.26,-0.35 -0.33,-0.8 -0.19,-1.21c0.24,-0.68 0.98,-1.05 1.67,-0.81l3.79,1.29c0.32,0.11 0.66,0.09 0.96,-0.05c0.66,-0.3 0.96,-1.08 0.66,-1.75l-1.68,-3.63c-0.19,-0.4 -0.16,-0.86 0.06,-1.24c0.37,-0.62 1.18,-0.82 1.8,-0.45l3.45,2.05c0.29,0.17 0.63,0.23 0.96,0.15c0.71,-0.16 1.15,-0.86 0.99,-1.57l-0.86,-3.91c-0.1,-0.43 0.02,-0.87 0.32,-1.19c0.49,-0.53 1.32,-0.56 1.85,-0.06l2.93,2.72c0.25,0.23 0.58,0.36 0.93,0.36c0.72,-0.02 1.3,-0.61 1.28,-1.34l-0.06,-3.99c-0.01,-0.44 0.2,-0.86 0.57,-1.11c0.6,-0.41 1.41,-0.26 1.82,0.33l2.34,3.27c0.19,0.27 0.48,0.46 0.81,0.53c0.71,0.14 1.4,-0.32 1.54,-1.03l0.78,-3.93c0.08,-0.43 0.37,-0.79 0.77,-0.96c0.67,-0.28 1.44,0.02 1.72,0.69l1.58,3.68c0.1,0.33 0.35,0.57 0.66,0.71z" stroke-width="5" stroke-miterlimit="10" stroke-dasharray=""></path><path data-v-9833e8b2="" transform="scale(0.042662116040955635)" fill="none" stroke="currentColor" paint-order="fill stroke markers" d="m534.81,40.81454c0,-3.02 -0.56,-6.01 -1.65,-8.82l4.5,-2.59c3.23,7.75 3.03,16.5 -0.56,24.09l-4.48,-2.59c1.44,-3.17 2.19,-6.61 2.19,-10.09zm-46.9,-9.54l-4.48,-2.59c-3.68,8.17 -3.45,17.56 0.6,25.54l4.46,-2.59c-1.67,-3.36 -2.53,-7.07 -2.53,-10.82c0.01,-3.28 0.67,-6.53 1.95,-9.54zm20.58,-19.96c-9.03,0.58 -17.29,5.26 -22.43,12.71l4.47,2.59c4.2,-5.88 10.79,-9.59 17.99,-10.14l-0.03,-5.16zm-21.61,47.43c5.19,6.82 13.09,11.05 21.64,11.59l0,-5.18c-6.72,-0.51 -12.92,-3.78 -17.14,-9.03l-4.5,2.62zm48.28,-34.05c-4.79,-7.36 -12.6,-12.21 -21.31,-13.24l0,5.18c6.87,0.98 13,4.85 16.85,10.63l4.46,-2.57zm-21.31,45.46c8.23,-0.97 15.68,-5.35 20.53,-12.08l-4.48,-2.59c-3.88,5.16 -9.65,8.57 -16.05,9.49l0,5.18l0,0z" stroke-width="5" stroke-miterlimit="10" stroke-dasharray=""></path><path data-v-9833e8b2="" transform="scale(0.042662116040955635)" fill="none" stroke="currentColor" paint-order="fill stroke markers" d="m396.23,85.54454c-3.95,-5.33 2.7,-16.61 2.7,-16.61l21.79,-7.88c0,0 66.48,-20.66 74.44,-23.25c2.03,-5.65 7.32,-9.48 13.33,-9.65l0.41,0c4.61,0.02 8.94,2.21 11.68,5.92c4.8,6.49 3.43,15.63 -3.06,20.43c-3.73,2.77 -8.57,3.6 -13.01,2.23l0,0l-43.9,18.32l-0.43,2.74l-11.11,12.89l-7.77,1.04c0,0 -3.52,-8.12 -4.17,-10.43c-0.65,-2.31 -1.67,-0.65 -1.67,-0.65l-10.03,13.43l-5.52,0c-5.52,0.02 -19.73,-3.2 -23.68,-8.53z" stroke-width="5" stroke-miterlimit="10" stroke-dasharray=""></path><path data-v-9833e8b2="" transform="scale(0.042662116040955635)" fill="none" stroke="currentColor" paint-order="fill stroke markers" d="m447.44,61.19454c2.73,0 4.95,2.22 4.95,4.95s-2.22,4.95 -4.95,4.95s-4.95,-2.22 -4.95,-4.95s2.22,-4.95 4.95,-4.95z" stroke-width="5" stroke-miterlimit="10" stroke-dasharray=""></path><path data-v-9833e8b2="" transform="scale(0.042662116040955635)" fill="none" stroke="currentColor" paint-order="fill stroke markers" d="m426.92,113.87454l-5.22,0c-1.5,0 -2.9,0.72 -3.77,1.93l-0.09,0.12c-0.06,0.09 -0.11,0.18 -0.16,0.28c-0.41,0.7 -0.62,1.5 -0.62,2.31l0,10.35l-24.31,0l12.84,8.87l-26.31,0.86c-1.48,-0.9 -1.94,-2.83 -1.04,-4.31c0.03,-0.04 0.05,-0.09 0.08,-0.13c-0.77,0.39 -13.11,-2.99 -14.45,-13.58c-0.03,-2.02 -0.15,-4.03 -0.39,-6.04l-145.23,0.26c0,0 2.46,15.46 -14.44,19.44c0.13,1.1 0.18,2.21 0.14,3.32l-25.97,0l12,-8.5l-25.02,-0.86l-0.15,-5.53l0,-5.27c0,-1.36 -1.08,-2.47 -2.44,-2.48l-7.29,0l-0.07,-57.47l271.8,0.28l0.11,56.15z" stroke-width="5" stroke-miterlimit="10" stroke-dasharray=""></path><path data-v-9833e8b2="" transform="scale(0.042662116040955635)" fill="none" stroke="currentColor" paint-order="fill stroke markers" d="m193.35,126.74454l13.86,8.82c0.44,0.27 0.7,0.75 0.7,1.27c-0.01,0.82 -0.67,1.48 -1.49,1.47l-27.73,0c-0.52,0 -1,-0.26 -1.27,-0.7c-0.43,-0.7 -0.22,-1.61 0.48,-2.04l13.87,-8.82c0.47,-0.31 1.09,-0.31 1.58,0z" stroke-width="5" stroke-miterlimit="10" stroke-dasharray=""></path><path data-v-9833e8b2="" transform="scale(0.042662116040955635)" fill="none" stroke="currentColor" paint-order="fill stroke markers" d="m192.55,127.85454c0.89,0 1.61,0.72 1.61,1.61s-0.72,1.61 -1.61,1.61s-1.61,-0.72 -1.61,-1.61s0.72,-1.61 1.61,-1.61z" stroke-width="5" stroke-miterlimit="10" stroke-dasharray=""></path><path data-v-9833e8b2="" transform="scale(0.042662116040955635)" fill="none" stroke="currentColor" paint-order="fill stroke markers" d="m391.37,126.74454l13.87,8.82c0.42,0.27 0.67,0.74 0.68,1.24c0.01,0.82 -0.66,1.5 -1.48,1.5l-27.74,0c-0.5,-0.01 -0.96,-0.26 -1.23,-0.68c-0.45,-0.69 -0.25,-1.62 0.44,-2.07l13.87,-8.82c0.48,-0.3 1.1,-0.3 1.59,0.01z" stroke-width="5" stroke-miterlimit="10" stroke-dasharray=""></path><path data-v-9833e8b2="" transform="scale(0.042662116040955635)" fill="none" stroke="currentColor" paint-order="fill stroke markers" d="m390.57,127.85454c0.89,0 1.61,0.72 1.61,1.61s-0.72,1.61 -1.61,1.61c-0.89,0 -1.61,-0.72 -1.61,-1.61s0.72,-1.61 1.61,-1.61z" stroke-width="5" stroke-miterlimit="10" stroke-dasharray=""></path><path data-v-9833e8b2="" transform="scale(0.042662116040955635)" fill="none" stroke="currentColor" paint-order="fill stroke markers" d="m170.96,86.40454l4.69,0c2.11,0 3.82,1.71 3.82,3.82l0,4.69c0,2.11 -1.71,3.82 -3.82,3.82l-4.69,0c-2.11,0 -3.82,-1.71 -3.82,-3.82l0,-4.69c0,-2.11 1.71,-3.82 3.82,-3.82z" stroke-width="5" stroke-miterlimit="10" stroke-dasharray=""></path><path data-v-9833e8b2="" transform="scale(0.042662116040955635)" fill="none" stroke="currentColor" paint-order="fill stroke markers" d="m404.28,86.40454l4.69,0c2.11,0 3.82,1.71 3.82,3.82l0,4.69c0,2.11 -1.71,3.82 -3.82,3.82l-4.69,0c-2.11,0 -3.82,-1.71 -3.82,-3.82l0,-4.69c0,-2.11 1.71,-3.82 3.82,-3.82z" stroke-width="5" stroke-miterlimit="10" stroke-dasharray=""></path><path data-v-9833e8b2="" transform="scale(0.042662116040955635)" fill="none" stroke="currentColor" paint-order="fill stroke markers" d="m155.06,61.27454l271.85,0l0,18.25l-271.85,0l0,-18.25z" stroke-width="5" stroke-miterlimit="10" stroke-dasharray=""></path><path data-v-9833e8b2="" transform="scale(0.042662116040955635)" fill="none" stroke="currentColor" paint-order="fill stroke markers" d="m155.06,79.52454l104.65,0l0,3.08l-104.65,0l0,-3.08z" stroke-width="5" stroke-miterlimit="10" stroke-dasharray=""></path><path data-v-9833e8b2="" transform="scale(0.042662116040955635)" fill="none" stroke="currentColor" paint-order="fill stroke markers" d="m322.26,79.52454l104.65,0l0,3.08l-104.65,0l0,-3.08z" stroke-width="5" stroke-miterlimit="10" stroke-dasharray=""></path><path data-v-9833e8b2="" transform="scale(0.042662116040955635)" fill="none" stroke="currentColor" paint-order="fill stroke markers" d="m155.06,65.89454l17.77,0l0,2.27l-17.77,0l0,-2.27z" stroke-width="5" stroke-miterlimit="10" stroke-dasharray=""></path><path data-v-9833e8b2="" transform="scale(0.042662116040955635)" fill="none" stroke="currentColor" paint-order="fill stroke markers" d="m155.06,72.67454l17.77,0l0,2.27l-17.77,0l0,-2.27z" stroke-width="5" stroke-miterlimit="10" stroke-dasharray=""></path><path data-v-9833e8b2="" transform="scale(0.042662116040955635)" fill="none" stroke="currentColor" paint-order="fill stroke markers" d="m409.14,65.96454l17.76999,0l0,2.27l-17.76999,0l0,-2.27z" stroke-width="5" stroke-miterlimit="10" stroke-dasharray=""></path><path data-v-9833e8b2="" transform="scale(0.042662116040955635)" fill="none" stroke="currentColor" paint-order="fill stroke markers" d="m409.14,72.73455l17.76999,0l0,2.27l-17.76999,0l0,-2.27z" stroke-width="5" stroke-miterlimit="10" stroke-dasharray=""></path><path data-v-9833e8b2="" transform="scale(0.042662116040955635)" fill="none" stroke="currentColor" paint-order="fill stroke markers" d="m194.11,68.71454l65.61,0l0,2.1l-65.61,0l0,-2.1l0,0z" stroke-width="5" stroke-miterlimit="10" stroke-dasharray=""></path><path data-v-9833e8b2="" transform="scale(0.042662116040955635)" fill="none" stroke="currentColor" paint-order="fill stroke markers" d="m207.78,70.81454l37.84,0l0,8.71l-37.84,0l0,-8.71z" stroke-width="5" stroke-miterlimit="10" stroke-dasharray=""></path><path data-v-9833e8b2="" transform="scale(0.042662116040955635)" fill="none" stroke="currentColor" paint-order="fill stroke markers" d="m322.25,68.70454l65.61,0l0,2.1l-65.61,0l0,-2.1z" stroke-width="5" stroke-miterlimit="10" stroke-dasharray=""></path><path data-v-9833e8b2="" transform="scale(0.042662116040955635)" fill="none" stroke="currentColor" paint-order="fill stroke markers" d="m335.92,70.79454l37.84,0l0,8.71l-37.84,0l0,-8.71z" stroke-width="5" stroke-miterlimit="10" stroke-dasharray=""></path><path data-v-9833e8b2="" transform="scale(0.042662116040955635)" fill="none" stroke="currentColor" paint-order="fill stroke markers" d="m292.81,62.89454l26.51,0l0,3.51l-26.51,0l0,-3.51z" stroke-width="5" stroke-miterlimit="10" stroke-dasharray=""></path><path data-v-9833e8b2="" transform="scale(0.042662116040955635)" fill="none" stroke="currentColor" paint-order="fill stroke markers" d="m262.54,62.89454l27.46,0l0,3.51l-27.46,0l0,-3.51z" stroke-width="5" stroke-miterlimit="10" stroke-dasharray=""></path><path data-v-9833e8b2="" transform="scale(0.042662116040955635)" fill="none" stroke="currentColor" paint-order="fill stroke markers" d="m292.81,68.45454l26.51,0l0,3.51l-26.51,0l0,-3.51z" stroke-width="5" stroke-miterlimit="10" stroke-dasharray=""></path><path data-v-9833e8b2="" transform="scale(0.042662116040955635)" fill="none" stroke="currentColor" paint-order="fill stroke markers" d="m262.54,68.45454l27.46,0l0,3.51l-27.46,0l0,-3.51z" stroke-width="5" stroke-miterlimit="10" stroke-dasharray=""></path><path data-v-9833e8b2="" transform="scale(0.042662116040955635)" fill="none" stroke="currentColor" paint-order="fill stroke markers" d="m292.81,74.07454l29.46,0l0,3.51l-29.46,0l0,-3.51z" stroke-width="5" stroke-miterlimit="10" stroke-dasharray=""></path><path data-v-9833e8b2="" transform="scale(0.042662116040955635)" fill="none" stroke="currentColor" paint-order="fill stroke markers" d="m259.73,74.07454l30.27,0l0,3.51l-30.27,0l0,-3.51z" stroke-width="5" stroke-miterlimit="10" stroke-dasharray=""></path><path data-v-9833e8b2="" transform="scale(0.042662116040955635)" fill="none" stroke="currentColor" paint-order="fill stroke markers" d="m290.44,61.27454l1.98,0l0,18.25l-1.98,0l0,-18.25z" stroke-width="5" stroke-miterlimit="10" stroke-dasharray=""></path></g></svg>