<svg data-v-9833e8b2="" version="1.1" xmlns="http://www.w3.org/2000/svg" xmlns:xlink="http://www.w3.org/1999/xlink" width="25" height="20"><g data-v-9833e8b2=""><path data-v-9833e8b2="" transform="scale(0.0748502994011976)" fill="none" stroke="currentColor" paint-order="fill stroke markers" d="m148,97.99999l182.8,0l-91.4,119.2l-91.4,-119.2l0,0z" stroke-width="5" stroke-miterlimit="10" stroke-dasharray=""></path><path data-v-9833e8b2="" transform="scale(0.0748502994011976)" fill="none" stroke="currentColor" paint-order="fill stroke markers" d="m200,120.99999l76.1,0l0,28.5l-76.1,0l0,-28.5l0,0z" stroke-width="5" stroke-miterlimit="10" stroke-dasharray=""></path><path data-v-9833e8b2="" transform="scale(0.0748502994011976)" fill="none" stroke="currentColor" paint-order="fill stroke markers" d="m171.5,178.09999l19,0l0,66.5l-19,0l0,-66.5l0,0z" stroke-width="5" stroke-miterlimit="10" stroke-dasharray=""></path><path data-v-9833e8b2="" transform="scale(0.0748502994011976)" fill="none" stroke="currentColor" paint-order="fill stroke markers" d="m285.6,178.09999l19,0l0,66.5l-19,0l0,-66.5l0,0z" stroke-width="5" stroke-miterlimit="10" stroke-dasharray=""></path><path data-v-9833e8b2="" transform="scale(0.0748502994011976)" fill="none" stroke="currentColor" paint-order="fill stroke markers" d="m143,168.49999l28.5,0l0,85.6l-28.5,0l0,-85.6l0,0z" stroke-width="5" stroke-miterlimit="10" stroke-dasharray=""></path><path data-v-9833e8b2="" transform="scale(0.0748502994011976)" fill="none" stroke="currentColor" paint-order="fill stroke markers" d="m304.6,168.49999l28.5,0l0,85.6l-28.5,0l0,-85.6l0,0z" stroke-width="5" stroke-miterlimit="10" stroke-dasharray=""></path><path data-v-9833e8b2="" transform="scale(0.0748502994011976)" fill="none" stroke="currentColor" paint-order="fill stroke markers" d="m223.8,149.49999l28.5,0l0,19l-28.5,0l0,-19l0,0z" stroke-width="5" stroke-miterlimit="10" stroke-dasharray=""></path><path data-v-9833e8b2="" transform="scale(0.0748502994011976)" fill="none" stroke="currentColor" paint-order="fill stroke markers" d="m190.5,168.49999l95.1,0l0,85.6l-95.1,0l0,-85.6l0,0z" stroke-width="5" stroke-miterlimit="10" stroke-dasharray=""></path><path data-v-9833e8b2="" transform="scale(0.0748502994011976)" fill="none" stroke="currentColor" paint-order="fill stroke markers" d="m273.9346,111.48723l0,-16.78532l44.28,-32.30724l0,-0.67948l-44.28,-36.60708l0,-16.88088l59.51,50.35597l0,7.42122l-59.51,45.48281l0,0z" stroke-width="5" stroke-miterlimit="10" stroke-dasharray=""></path><path data-v-9833e8b2="" transform="scale(0.0748502994011976)" fill="none" stroke="currentColor" paint-order="fill stroke markers" d="m1,104.26l0,-16.78532l44.28,-32.30724l0,-0.67948l-44.28,-36.60708l0,-16.88088l59.51,50.35597l0,7.42122l-59.51,45.48281l0,0z" stroke-width="5" stroke-miterlimit="10" stroke-dasharray=""></path></g></svg>