<svg data-v-9833e8b2="" version="1.1" xmlns="http://www.w3.org/2000/svg" xmlns:xlink="http://www.w3.org/1999/xlink" width="25" height="15"><g data-v-9833e8b2=""><path data-v-9833e8b2="" transform="scale(0.12953367875647667)" fill="none" stroke="currentColor" paint-order="fill stroke markers" d="m28.6,40.3l0,15.8l-16.6,0l0,-15.8l16.6,0l0,0z" stroke-width="5" stroke-miterlimit="10" stroke-dasharray=""></path><path data-v-9833e8b2="" transform="scale(0.12953367875647667)" fill="none" stroke="currentColor" paint-order="fill stroke markers" d="m36.4,32.4l0,31.4l-3.9,0c-2.1,0 -3.9,-1.7 -3.9,-3.9l0,-23.6c0,-2.1 1.7,-3.9 3.9,-3.9l3.9,0l0,0z" stroke-width="5" stroke-miterlimit="10" stroke-dasharray=""></path><path data-v-9833e8b2="" transform="scale(0.12953367875647667)" fill="none" stroke="currentColor" paint-order="fill stroke markers" d="m36.5,63.9l0,-31.5l23.7,-16.4c0.3,-4 3.7,-7.2 7.8,-7.2l59.1,0l0,-3.9c0,-2.1 1.7,-3.9 3.9,-3.9l11.8,0c2.1,0 3.9,1.7 3.9,3.9l0,3.9l13.8,0c17.4,0 31.5,14.1 31.5,31.5l0,15.8c0,17.4 -14.1,31.5 -31.5,31.4l-92.6,0c-4.1,0 -7.5,-3.2 -7.8,-7.2l-23.7,-16.4l0.1,0z" stroke-width="5" stroke-miterlimit="10" stroke-dasharray=""></path><path data-v-9833e8b2="" transform="scale(0.12953367875647667)" fill="none" stroke="currentColor" paint-order="fill stroke markers" d="m146.7,38.3c2.2,0 4,1.8 3.9,4l0,13.8c0,2.1 -1.7,3.9 -3.9,3.9l-11.8,0c-2.1,0 -3.9,-1.7 -3.9,-3.9l0,-13.9c0,-2.1 1.7,-3.9 3.9,-3.9l11.8,0l0,0z" stroke-width="5" stroke-miterlimit="10" stroke-dasharray=""></path><path data-v-9833e8b2="" transform="scale(0.12953367875647667)" fill="none" stroke="currentColor" paint-order="fill stroke markers" d="m162.5,87.6l0,0l0,-78.8l3.9,0l0,78.8l-3.9,0l0,0z" stroke-width="5" stroke-miterlimit="10" stroke-dasharray=""></path><path data-v-9833e8b2="" transform="scale(0.12953367875647667)" fill="none" stroke="currentColor" paint-order="fill stroke markers" d="m64.1,8.8l0,78.8l3.9,0l0,-7.9l35.4,0l0,7.9l3.9,0l0,-78.8l-3.9,0l0,7.9l-35.5,0l0,-7.9l-3.8,0z" stroke-width="5" stroke-miterlimit="10" stroke-dasharray=""></path><path data-v-9833e8b2="" transform="scale(0.12953367875647667)" fill="none" stroke="currentColor" paint-order="fill stroke markers" d="m68,75.8l0,-7.9l35.4,0l0,7.9l-35.5,0l0.1,0z" stroke-width="5" stroke-miterlimit="10" stroke-dasharray=""></path><path data-v-9833e8b2="" transform="scale(0.12953367875647667)" fill="none" stroke="currentColor" paint-order="fill stroke markers" d="m68,63.9l0,-7.8l35.4,0l0,7.8l-35.5,0l0.1,0z" stroke-width="5" stroke-miterlimit="10" stroke-dasharray=""></path><path data-v-9833e8b2="" transform="scale(0.12953367875647667)" fill="none" stroke="currentColor" paint-order="fill stroke markers" d="m68,52.1l0,-7.9l35.4,0l0,7.9l-35.5,0l0.1,0z" stroke-width="5" stroke-miterlimit="10" stroke-dasharray=""></path><path data-v-9833e8b2="" transform="scale(0.12953367875647667)" fill="none" stroke="currentColor" paint-order="fill stroke markers" d="m68,40.3l0,-7.9l35.4,0l0,7.9l-35.5,0l0.1,0z" stroke-width="5" stroke-miterlimit="10" stroke-dasharray=""></path><path data-v-9833e8b2="" transform="scale(0.12953367875647667)" fill="none" stroke="currentColor" paint-order="fill stroke markers" d="m68,28.5l0,-7.9l35.4,0l0,7.9l-35.5,0l0.1,0z" stroke-width="5" stroke-miterlimit="10" stroke-dasharray=""></path><path data-v-9833e8b2="" transform="scale(0.12953367875647667)" fill="none" stroke="currentColor" paint-order="fill stroke markers" d="m64,93.5l0,-5.9l43.3,0l0,5.9l51.2,0l0,13.7l-106.3,0l0,-13.7l11.8,0z" stroke-width="5" stroke-miterlimit="10" stroke-dasharray=""></path><path data-v-9833e8b2="" transform="scale(0.12953367875647667)" fill="none" stroke="currentColor" paint-order="fill stroke markers" d="m22.7,10.8l-7.9,37.4l-5.9,2l-5.9,-31.5l19.7,-7.9l0,0z" stroke-width="5" stroke-miterlimit="10" stroke-dasharray=""></path><path data-v-9833e8b2="" transform="scale(0.12953367875647667)" fill="none" stroke="currentColor" paint-order="fill stroke markers" d="m1,87.6l7.9,-37.4l5.9,-2l5.9,31.5l-19.7,7.9l0,0z" stroke-width="5" stroke-miterlimit="10" stroke-dasharray=""></path></g></svg>