<svg data-v-9833e8b2="" version="1.1" xmlns="http://www.w3.org/2000/svg" xmlns:xlink="http://www.w3.org/1999/xlink" width="25" height="22.5"><g data-v-9833e8b2=""><path data-v-9833e8b2="" transform="scale(0.13736263736263737)" fill="none" stroke="currentColor" paint-order="fill stroke markers" d="m90.96094,25.10391c-0.81641,0 -1.59414,0.1168 -2.37148,0.35l-3.73203,12.40195c0.85508,1.01094 1.94375,1.82695 3.18789,2.33242l4.50977,-14.92891c-0.50547,-0.11641 -1.04961,-0.15547 -1.59414,-0.15547z" stroke-width="5" stroke-miterlimit="10" stroke-dasharray=""></path><path data-v-9833e8b2="" transform="scale(0.13736263736263737)" fill="none" stroke="currentColor" paint-order="fill stroke markers" d="m105.26798,30.23555l0.62188,0c1.86602,0 3.38242,1.51602 3.38242,3.42148l0,1.82695l16.25039,0c-1.98281,-17.57227 -10.84688,-26.12539 -25.96992,-29.11875l0,14.85117c2.91602,2.13828 5.01523,5.32617 5.71523,9.01914z" stroke-width="5" stroke-miterlimit="10" stroke-dasharray=""></path><path data-v-9833e8b2="" transform="scale(0.13736263736263737)" fill="none" stroke="currentColor" paint-order="fill stroke markers" d="m97.60899,20.01094l0,-15.70625c0,-1.82734 -1.47734,-3.30469 -3.3043,-3.30469c-3.77109,0 -2.56602,0 -6.60938,0c-1.82734,0 -3.3043,1.47734 -3.3043,3.30469l0,15.70625c1.98281,-1.01055 4.2375,-1.59375 6.60938,-1.59375c2.37109,0 4.62578,0.5832 6.60859,1.59375z" stroke-width="5" stroke-miterlimit="10" stroke-dasharray=""></path><path data-v-9833e8b2="" transform="scale(0.13736263736263737)" fill="none" stroke="currentColor" paint-order="fill stroke markers" d="m90.33907,40.73242c0.19453,0 0.42773,0.03906 0.62188,0.03906c0.38867,0 0.81641,-0.03906 1.20547,-0.11641l4.08203,-13.5293c-0.46641,-0.38867 -0.93281,-0.73867 -1.47734,-1.04961l-4.43203,14.65625z" stroke-width="5" stroke-miterlimit="10" stroke-dasharray=""></path><path data-v-9833e8b2="" transform="scale(0.13736263736263737)" fill="none" stroke="currentColor" paint-order="fill stroke markers" d="m103.55743,32.17969c-0.38867,-6.57031 -5.87031,-11.81836 -12.55703,-11.81836c-6.68711,0 -12.16836,5.24844 -12.51875,11.81836l-2.33242,0c-0.81641,0 -1.47734,0.66094 -1.47734,1.47734l0,5.01523c0,0.81641 0.66094,1.43828 1.47734,1.43828l4.54844,0c2.29375,3.26563 6.06484,5.36484 10.30234,5.36484c4.27617,0 8.04727,-2.09922 10.30234,-5.36484l4.5875,0c0.77734,0 1.43867,-0.62188 1.43867,-1.43828l0,-5.01523c0,-0.8168 -0.66094,-1.47734 -1.43867,-1.47734l-2.33242,0zm-12.55742,9.52461c-4.85977,0 -8.78633,-3.92656 -8.78633,-8.78594c0,-4.85977 3.92656,-8.78633 8.78633,-8.78633c4.85977,0 8.78594,3.92656 8.78594,8.78633c0.00039,4.85938 -3.92617,8.78594 -8.78594,8.78594z" stroke-width="5" stroke-miterlimit="10" stroke-dasharray=""></path><path data-v-9833e8b2="" transform="scale(0.13736263736263737)" fill="none" stroke="currentColor" paint-order="fill stroke markers" d="m72.72774,33.65703c0,-1.90508 1.51641,-3.42148 3.42148,-3.42148l0.5832,0c0.69961,-3.69297 2.79922,-6.88125 5.71484,-9.01914l0,-14.85117c-15.12305,2.99336 -23.98711,11.54649 -25.93086,29.11875l16.21133,0l0,-1.82695z" stroke-width="5" stroke-miterlimit="10" stroke-dasharray=""></path><path data-v-9833e8b2="" transform="scale(0.13736263736263737)" fill="none" stroke="currentColor" paint-order="fill stroke markers" d="m165.21603,143.05665l-17.4168,-7.77539l0.97148,-5.28711l-15.86172,-6.29805l-0.77773,4.62617l-5.09297,-2.29375l0.03906,0.19453c-24.02578,9.83555 -48.05196,10.30234 -72.1168,0l0.1168,-0.23359l-5.20938,2.33242l-0.77773,-4.62617l-15.82305,6.29805l0.9332,5.28711l-17.37813,7.77539c-8.51367,5.55977 -15.16133,13.25742 -15.82227,28.1086c60.02579,0 120.0129,0 180.00001,0c-0.62188,-14.85117 -7.30859,-22.54883 -15.78399,-28.10821zm-30.79063,-16.67852l12.12969,4.8207l-5.5207,31.21836l-12.7125,0.07773l6.10352,-36.1168zm-86.85079,0l6.14258,36.1168l-12.75156,-0.07773l-5.5207,-31.21836l12.12969,-4.8207zm-24.80352,42.76485l-0.23359,-16.09492l3.61563,16.09492l-3.38203,0zm128.56603,0.07773l-60.33711,0l-60.33711,0l0,-10.76875l5.67617,-9.09727l0.35,0l2.64375,15.00664l16.67813,0.07773l-2.56563,-15.08438l37.55469,0l37.55508,0l-2.52695,15.08438l16.63945,-0.07773l2.64375,-15.00664l0.38867,0l5.63711,9.09727l0,10.76875zm7.8918,-0.07773l-3.38242,0l3.61563,-16.09492l-0.2332,16.09492z" stroke-width="5" stroke-miterlimit="10" stroke-dasharray=""></path><path data-v-9833e8b2="" transform="scale(0.13736263736263737)" fill="none" stroke="currentColor" paint-order="fill stroke markers" d="m135.7086,159.07384c1.78828,0 3.26563,-1.47734 3.26563,-3.3043c0,-1.78828 -1.47734,-3.26563 -3.26563,-3.26563c-1.82734,0 -3.30469,1.47734 -3.30469,3.26563c0,1.82695 1.47734,3.3043 3.30469,3.3043z" stroke-width="5" stroke-miterlimit="10" stroke-dasharray=""></path><path data-v-9833e8b2="" transform="scale(0.13736263736263737)" fill="none" stroke="currentColor" paint-order="fill stroke markers" d="m46.33047,159.07384c1.78828,0 3.26563,-1.47734 3.26563,-3.3043c0,-1.78828 -1.47734,-3.26563 -3.26563,-3.26563c-1.82734,0 -3.30469,1.47734 -3.30469,3.26563c0,1.82695 1.47734,3.3043 3.30469,3.3043z" stroke-width="5" stroke-miterlimit="10" stroke-dasharray=""></path><path data-v-9833e8b2="" transform="scale(0.13736263736263737)" fill="none" stroke="currentColor" paint-order="fill stroke markers" d="m122.95704,88.24024l0.03867,-0.42773l0.03867,-0.42773l0,-0.42773l0.03906,-0.42773l0.03906,-0.42773l0.03867,-0.42773l0,-0.42773l0.03906,-0.42773l0.03906,-0.42773l0,-0.46641l0.03867,-0.42773l0.03867,-0.42773l0.03906,-0.42773l0,-0.42773l0.03906,-0.42773l0.03867,-0.42773l0.03906,-0.42773l0,-0.42773l0.03867,-0.42773l0.03906,-0.42773l0,-0.42773l0.03906,-0.42773l0.03867,-0.42773l0.03906,-0.42773l0,-0.42773l0.03867,-0.42773l0.03906,-0.42773l0.03867,-0.46641l0,-0.42773l0.03906,-0.42773l0.03906,-0.42773l0,-0.42773l0.03867,-0.42773l0.03867,-0.42773l0.03906,-0.42773l0,-0.42773l0.03906,-0.42773l0.03867,-0.42773l0.03906,-0.42773l0,-0.42773l0.03906,-0.42773l0.03867,-0.42773l0,-0.42773l0.03906,-0.42773l0.03867,-0.42773l0.03906,-0.46641l0,-0.42773l0.03867,-0.42773l0.03906,-0.42773l0,-0.42773l0.03867,-0.42773l0.03906,-0.42773l0.03906,-0.42773l0,-0.42773l0.03867,-0.42773l0.03906,-0.42773l0.03906,-0.42773l0,-0.42773l0.03867,-0.42773l0.03867,-0.42773l0,-0.42773l0.03906,-0.42773l0.03906,-0.42773l0.2332,-3.34336l2.13828,0l0,-4.27656l-36.11758,0l-36.1168,0l0,4.27656l2.17734,0l0.2332,3.34336l0.69961,11.15781l0.03906,0.42773l0.03906,0.42773l0.03867,0.42773l0.1168,1.71094l0,0.42773l0.03867,0.42773l0.03906,0.46641l0,0.42773l0.03867,0.42773l0.03906,0.42773l0.03906,0.42773l0,0.42773l0.03867,0.42773l0.03906,0.42773l0,0.42773l0.03906,0.42773l0.03867,0.42773l0.03867,0.42773l0,0.42773l0.03906,0.42773l0.03906,0.42773l0.03867,0.42773l0,0.42773l0.03867,0.42773l0.03906,0.46641l0,0.42773l0.03906,0.42773l0.03867,0.42773l0.03906,0.42773l0,0.42773l0.03906,0.42773l0.03867,0.42773l0.03906,0.42773l0,0.42773l0.03867,0.42773c1.94414,4.15977 4.2375,8.04766 6.84219,11.66328c-0.81641,6.02578 -2.02148,11.93516 -3.8875,17.49453c-0.8168,-0.38867 -1.63281,-0.77734 -2.41055,-1.16641l-3.26563,7.85313c23.13164,9.95234 46.22461,9.48594 69.31758,0l-3.38203,-8.66953c-0.85547,0.42773 -1.71055,0.85547 -2.52695,1.24414c-1.78828,-5.36484 -2.91602,-11.00195 -3.69336,-16.75586c2.64375,-3.61563 4.9375,-7.50352 6.84219,-11.66328l0.03867,-0.42578zm-4.97656,29.62383c-18,7.81445 -37.28282,7.77578 -54.15547,0.73906c1.74922,-5.1707 2.95469,-10.57461 3.77109,-16.09492c0.19453,0.27227 0.38867,0.50547 0.5832,0.73867c2.37148,2.95469 5.01523,5.79258 7.8918,8.43633c4.97617,1.12734 9.95274,2.29375 14.92891,3.46016c4.97617,-1.16641 9.95234,-2.33242 14.92891,-3.46016c1.36055,-1.24414 2.60469,-2.48789 3.84883,-3.7707l0.03867,-0.03906l0.07773,-0.07773l0.03867,-0.03906c1.59375,-1.67148 3.07148,-3.42109 4.4707,-5.20938c0.8168,5.24805 1.90547,10.37969 3.57695,15.3168zm4.23789,-48.16836c-4.8207,15.20078 -13.56836,34.32852 -31.21797,27.75821c-17.65,6.57031 -26.39766,-12.55742 -31.21797,-27.71914l-0.66094,-9.95274l63.75743,0l-0.66055,9.91367z" stroke-width="5" stroke-miterlimit="10" stroke-dasharray=""></path><path data-v-9833e8b2="" transform="scale(0.13736263736263737)" fill="none" stroke="currentColor" paint-order="fill stroke markers" d="m54.26133,51.61797l36.73867,0l36.73867,0c1.71094,0 3.11016,-1.39961 3.11016,-3.07109c0,-1.71055 -1.39961,-3.11016 -3.11016,-3.11016l-2.21602,0c2.17734,0 4.0043,-1.78828 4.0043,-4.0043c0,-2.17695 -1.82695,-4.0043 -4.0043,-4.0043l-16.25039,0l0,1.24414c0,1.86602 -1.51641,3.38203 -3.38242,3.38203l-3.61563,0c-2.76016,3.38203 -6.88125,5.36484 -11.27422,5.36484c-4.39336,0 -8.51406,-1.98281 -11.23555,-5.36484l-3.61563,0c-1.90508,0 -3.42148,-1.51602 -3.42148,-3.38203l0,-1.24414l-16.21133,0c-2.21602,0 -4.0043,1.82734 -4.0043,4.0043c0,2.21602 1.78867,4.0043 4.0043,4.0043l-2.25469,0c-1.67188,0 -3.07148,1.39961 -3.07148,3.11016c0.00039,1.67148 1.39961,3.07109 3.07148,3.07109z" stroke-width="5" stroke-miterlimit="10" stroke-dasharray=""></path></g></svg>