<svg data-v-9833e8b2="" version="1.1" xmlns="http://www.w3.org/2000/svg" xmlns:xlink="http://www.w3.org/1999/xlink" width="25" height="10"><g data-v-9833e8b2=""><path data-v-9833e8b2="" transform="scale(0.12953367875647667)" fill="none" stroke="currentColor" paint-order="fill stroke markers" d="m178.69,58.9l-29.9,0l-50.38,-29.09l-50.38,29.09l-29.82,0c0.2,-0.14 0.4,-0.28 0.62,-0.4l54.3,-31.35l20.66,0l9.22,0l20.68,0l55,31.75z" stroke-width="5" stroke-miterlimit="10" stroke-dasharray=""></path><path data-v-9833e8b2="" transform="scale(0.12953367875647667)" fill="none" stroke="currentColor" paint-order="fill stroke markers" d="m156.01,8.47l0,11.2c0,4.13 -3.34,7.47 -7.47,7.47l-24.84,0l-20.68,0l-9.22,0l-20.67,0l-23.58,0c-4.13,0 -7.47,-3.34 -7.47,-7.47l0,-11.2c0,-4.13 3.34,-7.47 7.47,-7.47l98.98,0c4.13,0 7.48,3.35 7.48,7.47z" stroke-width="5" stroke-miterlimit="10" stroke-dasharray=""></path><path data-v-9833e8b2="" transform="scale(0.12953367875647667)" fill="none" stroke="currentColor" paint-order="fill stroke markers" d="m57.02,66.37c0,4.13 -3.34,7.47 -7.47,7.47l-41.08,0c-4.13,0 -7.47,-3.34 -7.47,-7.47c0,-4.13 3.35,-7.47 7.47,-7.47l9.75,0l29.81,0l1.53,0c4.12,0 7.46,3.34 7.46,7.47z" stroke-width="5" stroke-miterlimit="10" stroke-dasharray=""></path><path data-v-9833e8b2="" transform="scale(0.12953367875647667)" fill="none" stroke="currentColor" paint-order="fill stroke markers" d="m192.43,66.37c0,4.13 -3.34,7.47 -7.47,7.47l-41.09,0c-4.13,0 -7.47,-3.34 -7.47,-7.47c0,-4.13 3.34,-7.47 7.47,-7.47l4.92,0l29.9,0l6.27,0c4.12,0 7.47,3.34 7.47,7.47z" stroke-width="5" stroke-miterlimit="10" stroke-dasharray=""></path></g></svg>