<svg data-v-9833e8b2="" version="1.1" xmlns="http://www.w3.org/2000/svg" xmlns:xlink="http://www.w3.org/1999/xlink" width="17" height="25"><g data-v-9833e8b2=""><path data-v-9833e8b2="" transform="scale(0.14124293785310735)" fill="none" stroke="currentColor" paint-order="fill stroke markers" d="m82.7,121l0,0l16,0l0,3.2c0,26.5 -21.3,48 -47.7,48.1c-26.4,0 -47.7,-21.6 -47.7,-48.1l0,-3.2l16,0l0,3.2c0,17.7 14.3,31 31.7,31.1c17.5,0 31.7,-13.3 31.7,-31.1l0,-3.2l0,0z" stroke-width="5" stroke-miterlimit="10" stroke-dasharray=""></path><path data-v-9833e8b2="" transform="scale(0.14124293785310735)" fill="none" stroke="currentColor" paint-order="fill stroke markers" d="m97,1l4,0l0,125c0,27.6 -22.4,50 -50,50c-27.6,0 -50,-22.4 -50,-50l0,-125l4,0l0,125c0,25.4 20.6,46 46,46c25.4,0 46,-20.6 46,-46l0,-125" stroke-width="5" stroke-miterlimit="10" stroke-dasharray=""></path><path data-v-9833e8b2="" transform="scale(0.14124293785310735)" fill="none" stroke="currentColor" paint-order="fill stroke markers" d="m79,1l4,0l0,122.9c0,17.7 -14.3,32.1 -32,32.1c-17.7,0 -32,-14.4 -32,-32.1l0,-122.9l4,0l0,122.9c0,15.5 12.6,28.1 28,28.1c15.4,0 28,-12.6 28,-28.1l0,-122.9" stroke-width="5" stroke-miterlimit="10" stroke-dasharray=""></path></g></svg>