<svg data-v-9833e8b2="" version="1.1" xmlns="http://www.w3.org/2000/svg" xmlns:xlink="http://www.w3.org/1999/xlink" width="25" height="25"><g data-v-9833e8b2=""><path data-v-9833e8b2="" transform="scale(0.12376237623762376)" fill="none" stroke="currentColor" paint-order="fill stroke markers" d="m20.53125,197.09376l-15.625,0l0,-21.15936c0,-2.12097 1.71966,-3.84064 3.84064,-3.84064l7.9422,0c2.1225,0 3.84216,1.71966 3.84216,3.84064l0,21.15936zm0,0" stroke-width="5" stroke-miterlimit="10" stroke-dasharray=""></path><path data-v-9833e8b2="" transform="scale(0.12376237623762376)" fill="none" stroke="currentColor" paint-order="fill stroke markers" d="m170.14064,72.09376l-3.90625,0c-3.23639,0 -5.85938,-2.62298 -5.85938,-5.85938l0,-9.76563l15.625,0l0,9.76563c0,3.23639 -2.62298,5.85938 -5.85938,5.85938zm0,0" stroke-width="5" stroke-miterlimit="10" stroke-dasharray=""></path><path data-v-9833e8b2="" transform="scale(0.12376237623762376)" fill="none" stroke="currentColor" paint-order="fill stroke markers" d="m151.00001,162.69435c-4.31518,0 -7.8125,-3.49731 -7.8125,-7.8125l0,-9.375c0,-4.31518 3.49732,-7.8125 7.8125,-7.8125s7.8125,3.49732 7.8125,7.8125l0,9.375c0,4.31519 -3.49731,7.8125 -7.8125,7.8125zm0,0" stroke-width="5" stroke-miterlimit="10" stroke-dasharray=""></path><path data-v-9833e8b2="" transform="scale(0.12376237623762376)" fill="none" stroke="currentColor" paint-order="fill stroke markers" d="m38.5,4.90625l0,96.14411l-14.84375,0l-12.79297,-30.41687c-3.93219,-9.34906 -5.95703,-19.38935 -5.95703,-29.53186l0,-2.60163c0,-18.55316 15.04059,-33.59375 33.59375,-33.59375zm0,0" stroke-width="5" stroke-miterlimit="10" stroke-dasharray=""></path><path data-v-9833e8b2="" transform="scale(0.12376237623762376)" fill="none" stroke="currentColor" paint-order="fill stroke markers" d="m38.5,34.59375l142.18751,0l0,21.875l-142.18751,0l0,-21.875zm0,0" stroke-width="5" stroke-miterlimit="10" stroke-dasharray=""></path><path data-v-9833e8b2="" transform="scale(0.12376237623762376)" fill="none" stroke="currentColor" paint-order="fill stroke markers" d="m176.00001,163.45118l15.625,0l0,18.01758l-15.625,0l0,-18.01758zm0,0" stroke-width="5" stroke-miterlimit="10" stroke-dasharray=""></path><path data-v-9833e8b2="" transform="scale(0.12376237623762376)" fill="none" stroke="currentColor" paint-order="fill stroke markers" d="m197.06935,150.19435c0,7.32117 -5.93567,13.25684 -13.25684,13.25684s-13.25684,-5.93567 -13.25684,-13.25684s5.93567,-13.25684 13.25684,-13.25684s13.25684,5.93567 13.25684,13.25684zm0,0" stroke-width="5" stroke-miterlimit="10" stroke-dasharray=""></path><path data-v-9833e8b2="" transform="scale(0.12376237623762376)" fill="none" stroke="currentColor" paint-order="fill stroke markers" d="m38.5,181.46876l158.59376,0l0,15.625l-158.59376,0l0,-15.625zm0,0" stroke-width="5" stroke-miterlimit="10" stroke-dasharray=""></path><path data-v-9833e8b2="" transform="scale(0.12376237623762376)" fill="none" stroke="currentColor" paint-order="fill stroke markers" d="m111.10743,56.46875l-20.21485,0l-18.16254,125.00001l56.53992,0l-18.16254,-125.00001zm0,0" stroke-width="5" stroke-miterlimit="10" stroke-dasharray=""></path><path data-v-9833e8b2="" transform="scale(0.12376237623762376)" fill="none" stroke="currentColor" paint-order="fill stroke markers" d="m197.09376,177.56251l-1.5625,0l0,-14.11133c0,-0.23041 -0.02441,-0.45471 -0.06256,-0.67444c3.3844,-3.13721 5.5069,-7.61566 5.5069,-12.5824c0,-9.4635 -7.69959,-17.16309 -17.16309,-17.16309c-8.1192,0 -14.9353,5.67017 -16.7099,13.25684l-4.38385,0l0,-0.78125c0,-3.92151 -1.93939,-7.39746 -4.90723,-9.52606l11.64398,-59.98078l0.68512,0c5.38483,0 9.76563,-4.3808 9.76563,-9.76563l0,-5.85938l0.78125,0c2.15759,0 3.90625,-1.74866 3.90625,-3.90625l0,-21.875c0,-2.15759 -1.74866,-3.90625 -3.90625,-3.90625l-62.10938,0c-2.15759,0 -3.90625,1.74866 -3.90625,3.90625s1.74866,3.90625 3.90625,3.90625l58.20313,0l0,14.0625l-134.37501,0l0,-14.0625l41.01563,0c2.15759,0 3.90625,-1.74866 3.90625,-3.90625s-1.74866,-3.90625 -3.90625,-3.90625l-41.01563,0l0,-25.78125c0,-2.15759 -1.74866,-3.90625 -3.90625,-3.90625c-20.67719,0 -37.5,16.82282 -37.5,37.5l0,2.60163c0,10.7193 2.10724,21.16547 6.26221,31.04706l1.55029,3.68347l0,92.35535l-0.06561,0c-4.27093,0 -7.74689,3.47595 -7.74689,7.74689l0,21.15936c0,2.15759 1.74866,3.90625 3.90625,3.90625l15.625,0c2.15759,0 3.90625,-1.74866 3.90625,-3.90625l0,-21.15936c0,-4.27093 -3.47595,-7.74689 -7.74689,-7.74689l-0.06561,0l0,-73.78083l3.43018,8.15735c0.61035,1.44958 2.02942,2.39258 3.60107,2.39258l14.84375,0c2.15759,0 3.90625,-1.75018 3.90625,-3.90625l0,-40.67536l43.97126,0l-17.02729,117.18751l-30.85022,0c-2.15759,0 -3.90625,1.74866 -3.90625,3.90625l0,15.625c0,2.15759 1.74866,3.90625 3.90625,3.90625l158.59376,0c2.15759,0 3.90625,-1.74866 3.90625,-3.90625l0,-15.625c0,-2.15759 -1.74866,-3.90625 -3.90625,-3.90625zm-180.46876,15.625l-7.8125,0l0,-17.1875l7.8125,0l0,17.1875zm17.96875,-96.0434l-8.34198,0l-7.65228,-18.19306l0.9552,0c2.15759,0 3.90625,-1.75018 3.90625,-3.90625c0,-2.15759 -1.74866,-3.90625 -3.90625,-3.90625l-4.24042,0l-0.84991,-2.01874c-1.22833,-2.92206 -2.25372,-5.89905 -3.0838,-8.91876l8.17413,0c2.15759,0 3.90625,-1.75018 3.90625,-3.90625c0,-2.15759 -1.74866,-3.90625 -3.90625,-3.90625l-9.85718,0c-0.56763,-3.60107 -0.86365,-7.25098 -0.88043,-10.9375l10.73761,0c2.15759,0 3.90625,-1.75018 3.90625,-3.90625c0,-2.15759 -1.74866,-3.90625 -3.90625,-3.90625l-10.33631,0c0.65613,-3.96576 2.09809,-7.66602 4.16413,-10.9375l6.17218,0c2.15759,0 3.90625,-1.75018 3.90625,-3.90625c0,-1.86463 -1.30615,-3.4195 -3.05176,-3.81012c4.03748,-3.11432 8.8913,-5.21698 14.18457,-5.91583l0,88.07526zm153.12501,80.4184l-7.8125,0l0,-10.65827c1.2558,0.29297 2.56195,0.45319 3.90625,0.45319s2.65045,-0.16022 3.90625,-0.45319l0,10.65827zm-3.90625,-36.71875c5.15595,0 9.35059,4.19464 9.35059,9.35059s-4.19464,9.35059 -9.35059,9.35059c-3.76129,0 -7.00989,-2.23389 -8.49152,-5.44434l8.49152,0c2.15759,0 3.90625,-1.74866 3.90625,-3.90625s-1.74866,-3.90625 -3.90625,-3.90625l-8.49152,0c1.48163,-3.21045 4.73022,-5.44434 8.49152,-5.44434zm-16.7099,13.25684c0.79193,3.38593 2.58484,6.38886 5.05371,8.67615c-0.03815,0.21973 -0.06256,0.44403 -0.06256,0.67444l0,14.11133l-39.44397,0l-17.02729,-117.18751l40.84626,0l0,5.85938c0,3.75366 2.13013,7.01752 5.24445,8.65174l-11.43799,58.9264c-6.12488,0.37689 -10.99396,5.47638 -10.99396,11.69434l0,9.375c0,6.4621 5.25665,11.71875 11.71875,11.71875s11.71875,-5.25665 11.71875,-11.71875l0,-0.78125l4.38385,0zm-49.61243,-26.53809l-32.98035,0l2.49786,-17.1875l27.98462,0l2.49786,17.1875zm-3.63312,-25l-25.71411,0l2.49786,-17.1875l20.71991,0l2.49634,17.1875zm-30.48248,32.8125l35.25085,0l2.49634,17.1875l-40.24506,0l2.49787,-17.1875zm71.53168,10.13184l0,9.375c0,2.15454 -1.75171,3.90625 -3.90625,3.90625s-3.90625,-1.75171 -3.90625,-3.90625l0,-9.375c0,-2.15302 1.75171,-3.90625 3.90625,-3.90625s3.90625,1.75323 3.90625,3.90625zm17.1875,-85.13184l0,5.85938c0,1.07727 -0.87586,1.95313 -1.95313,1.95313l-3.90625,0c-1.07727,0 -1.95313,-0.87586 -1.95313,-1.95313l0,-5.85938l7.8125,0zm-64.36615,0l2.49786,17.1875l-18.4494,0l2.49786,-17.1875l13.45368,0zm-27.98615,100.00001l42.51709,0l2.49634,17.1875l-47.50977,0l2.49634,-17.1875zm113.44605,32.8125l-150.78126,0l0,-7.8125l150.78126,0l0,7.8125zm0,0" stroke-width="5" stroke-miterlimit="10" stroke-dasharray=""></path><path data-v-9833e8b2="" transform="scale(0.12376237623762376)" fill="none" stroke="currentColor" paint-order="fill stroke markers" d="m101.00001,38.5c1.02692,0 2.03552,-0.41809 2.76184,-1.14441c0.72632,-0.72632 1.14441,-1.73492 1.14441,-2.76184s-0.41809,-2.03552 -1.14441,-2.76184c-0.72632,-0.72632 -1.73492,-1.14441 -2.76184,-1.14441s-2.03552,0.41809 -2.76184,1.14441c-0.72632,0.72632 -1.14441,1.73492 -1.14441,2.76184s0.41809,2.03552 1.14441,2.76184c0.72632,0.72632 1.73492,1.14441 2.76184,1.14441zm0,0" stroke-width="5" stroke-miterlimit="10" stroke-dasharray=""></path></g></svg>