<svg data-v-9833e8b2="" version="1.1" xmlns="http://www.w3.org/2000/svg" xmlns:xlink="http://www.w3.org/1999/xlink" width="25" height="25"><g data-v-9833e8b2=""><path data-v-9833e8b2="" transform="scale(0.12376237623762376)" fill="none" stroke="currentColor" paint-order="fill stroke markers" d="m68.38282,197.81093l-58.59375,0c-3.23639,0 -5.85938,-2.62451 -5.85938,-5.85938l0,-121.09376c0,-3.23639 2.62298,-5.85938 5.85938,-5.85938l58.59375,0c3.23639,0 5.85938,2.62298 5.85938,5.85938l0,121.09376c0,3.23486 -2.62298,5.85938 -5.85938,5.85938zm0,0" stroke-width="5" stroke-miterlimit="10" stroke-dasharray=""></path><path data-v-9833e8b2="" transform="scale(0.12376237623762376)" fill="none" stroke="currentColor" paint-order="fill stroke markers" d="m62.52344,161.09218c0,12.94403 -10.49347,23.4375 -23.4375,23.4375s-23.4375,-10.49347 -23.4375,-23.4375c0,-12.94556 10.49347,-23.4375 23.4375,-23.4375s23.4375,10.49194 23.4375,23.4375zm0,0" stroke-width="5" stroke-miterlimit="10" stroke-dasharray=""></path><path data-v-9833e8b2="" transform="scale(0.12376237623762376)" fill="none" stroke="currentColor" paint-order="fill stroke markers" d="m50.80469,161.09218c0,6.47125 -5.24597,11.71875 -11.71875,11.71875s-11.71875,-5.2475 -11.71875,-11.71875c0,-6.47278 5.24597,-11.71875 11.71875,-11.71875s11.71875,5.24597 11.71875,11.71875zm0,0" stroke-width="5" stroke-miterlimit="10" stroke-dasharray=""></path><path data-v-9833e8b2="" transform="scale(0.12376237623762376)" fill="none" stroke="currentColor" paint-order="fill stroke markers" d="m192.21095,197.81093l-58.59375,0c-3.23639,0 -5.85938,-2.62451 -5.85938,-5.85938l0,-121.09376c0,-3.23639 2.62298,-5.85938 5.85938,-5.85938l58.59375,0c3.23639,0 5.85938,2.62298 5.85938,5.85938l0,121.09376c0,3.23486 -2.62298,5.85938 -5.85938,5.85938zm0,0" stroke-width="5" stroke-miterlimit="10" stroke-dasharray=""></path><path data-v-9833e8b2="" transform="scale(0.12376237623762376)" fill="none" stroke="currentColor" paint-order="fill stroke markers" d="m186.35158,161.09218c0,12.94403 -10.49347,23.4375 -23.4375,23.4375s-23.4375,-10.49347 -23.4375,-23.4375c0,-12.94556 10.49347,-23.4375 23.4375,-23.4375s23.4375,10.49194 23.4375,23.4375zm0,0" stroke-width="5" stroke-miterlimit="10" stroke-dasharray=""></path><path data-v-9833e8b2="" transform="scale(0.12376237623762376)" fill="none" stroke="currentColor" paint-order="fill stroke markers" d="m174.63283,161.09218c0,6.47125 -5.24597,11.71875 -11.71875,11.71875s-11.71875,-5.2475 -11.71875,-11.71875c0,-6.47278 5.24597,-11.71875 11.71875,-11.71875s11.71875,5.24597 11.71875,11.71875zm0,0" stroke-width="5" stroke-miterlimit="10" stroke-dasharray=""></path><path data-v-9833e8b2="" transform="scale(0.12376237623762376)" fill="none" stroke="currentColor" paint-order="fill stroke markers" d="m106.53437,9.78906c0,3.23639 -2.62298,5.85938 -5.85938,5.85938c-3.23639,0 -5.85938,-2.62298 -5.85938,-5.85938s2.62298,-5.85938 5.85938,-5.85938c3.23639,0 5.85938,2.62298 5.85938,5.85938zm0,0" stroke-width="5" stroke-miterlimit="10" stroke-dasharray=""></path><path data-v-9833e8b2="" transform="scale(0.12376237623762376)" fill="none" stroke="currentColor" paint-order="fill stroke markers" d="m68.38282,186.09218l-58.59375,0c-3.23639,0 -5.85938,-2.62451 -5.85938,-5.85938l0,11.71875c0,3.23486 2.62298,5.85938 5.85938,5.85938l58.59375,0c3.23639,0 5.85938,-2.62451 5.85938,-5.85938l0,-11.71875c0,3.23486 -2.62298,5.85938 -5.85938,5.85938zm0,0" stroke-width="5" stroke-miterlimit="10" stroke-dasharray=""></path><path data-v-9833e8b2="" transform="scale(0.12376237623762376)" fill="none" stroke="currentColor" paint-order="fill stroke markers" d="m192.21095,186.09218l-58.59375,0c-3.23639,0 -5.85938,-2.62451 -5.85938,-5.85938l0,11.71875c0,3.23486 2.62298,5.85938 5.85938,5.85938l58.59375,0c3.23639,0 5.85938,-2.62451 5.85938,-5.85938l0,-11.71875c0,3.23486 -2.62298,5.85938 -5.85938,5.85938zm0,0" stroke-width="5" stroke-miterlimit="10" stroke-dasharray=""></path><path data-v-9833e8b2="" transform="scale(0.12376237623762376)" fill="none" stroke="currentColor" paint-order="fill stroke markers" d="m68.38282,62.06873l-58.59375,0c-4.84619,0 -8.78906,3.94287 -8.78906,8.78906l0,121.09376c0,4.84466 3.94287,8.78906 8.78906,8.78906l58.59375,0c4.84619,0 8.78906,-3.9444 8.78906,-8.78906l0,-121.09376c0,-4.84772 -3.94287,-8.78906 -8.78906,-8.78906zm2.92969,129.88282c0,1.61438 -1.31378,2.92969 -2.92969,2.92969l-58.59375,0c-1.61591,0 -2.92969,-1.31531 -2.92969,-2.92969l0,-121.09376c0,-1.61591 1.31378,-2.92969 2.92969,-2.92969l58.59375,0c1.61591,0 2.92969,1.31378 2.92969,2.92969l0,121.09376zm0,0" stroke-width="5" stroke-miterlimit="10" stroke-dasharray=""></path><path data-v-9833e8b2="" transform="scale(0.12376237623762376)" fill="none" stroke="currentColor" paint-order="fill stroke markers" d="m61.49347,134.54035l-5.96313,5.96314c-4.51202,-3.61176 -10.22797,-5.7785 -16.4444,-5.7785s-11.93237,2.16675 -16.4444,5.7785l-5.96313,-5.96314l-4.14276,4.14276l5.96161,5.96314c-3.61175,4.51202 -5.7785,10.22949 -5.7785,16.44592c0,6.2149 2.16675,11.93237 5.7785,16.4444l-5.96161,5.96161l4.14276,4.14429l5.96313,-5.96314c4.51203,3.61176 10.22797,5.7785 16.4444,5.7785c6.21491,0 11.93238,-2.16675 16.4444,-5.7785l5.96313,5.96314l4.14276,-4.14429l-5.96313,-5.96161c3.61328,-4.51355 5.78003,-10.22949 5.78003,-16.4444c0,-6.21643 -2.16675,-11.9339 -5.7785,-16.44593l5.96161,-5.96313l-4.14276,-4.14276zm-22.40753,6.04401c4.599,0 8.8501,1.5213 12.2757,4.08936l-4.2038,4.20227c-2.31628,-1.53504 -5.09033,-2.43225 -8.0719,-2.43225s-5.75561,0.89721 -8.0719,2.43225l-4.2038,-4.2038c3.4256,-2.56653 7.6767,-4.08783 12.2757,-4.08783zm8.78906,20.50781c0,1.35498 -0.30823,2.63824 -0.85907,3.7857l-3.7857,-3.7857l3.7857,-3.78723c0.55084,1.14746 0.85907,2.43073 0.85907,3.78723zm-8.78906,-4.14429l-3.78723,-3.78723c1.14746,-0.54932 2.43225,-0.85754 3.78723,-0.85754s2.63977,0.30823 3.78723,0.85754l-3.78723,3.78723zm3.78723,12.07428c-1.14746,0.54932 -2.43225,0.85907 -3.78723,0.85907s-2.63977,-0.30975 -3.78723,-0.85907l3.78723,-3.78723l3.78723,3.78723zm-7.92999,-7.92999l-3.78723,3.7857c-0.55084,-1.14746 -0.85907,-2.43072 -0.85907,-3.7857c0,-1.35651 0.30823,-2.63977 0.85907,-3.78723l3.78723,3.78723zm-16.36505,0c0,-4.60053 1.52283,-8.85163 4.08936,-12.2757l4.20227,4.20227c-1.53503,2.31629 -2.43225,5.09033 -2.43225,8.07343c0,2.98157 0.89722,5.75561 2.43378,8.0719l-4.2038,4.20227c-2.56653,-3.4256 -4.08936,-7.67517 -4.08936,-12.27417zm20.50781,20.50781c-4.599,0 -8.8501,-1.52283 -12.27417,-4.09088l4.20227,-4.20227c2.31629,1.53504 5.09033,2.43225 8.0719,2.43225s5.75562,-0.89721 8.0719,-2.43225l4.2038,4.20227c-3.4256,2.56805 -7.6767,4.09088 -12.2757,4.09088zm16.41846,-8.23365l-4.2038,-4.2038c1.53656,-2.31628 2.43378,-5.09033 2.43378,-8.0719c0,-2.98157 -0.89721,-5.75561 -2.43378,-8.0719l4.2038,-4.20227c2.56653,3.42407 4.08936,7.67517 4.08936,12.2757c0,4.599 -1.52283,8.84857 -4.08936,12.27417zm0,0" stroke-width="5" stroke-miterlimit="10" stroke-dasharray=""></path><path data-v-9833e8b2="" transform="scale(0.12376237623762376)" fill="none" stroke="currentColor" paint-order="fill stroke markers" d="m15.64844,88.10938l46.875,0l0,5.85938l-46.875,0l0,-5.85938zm0,0" stroke-width="5" stroke-miterlimit="10" stroke-dasharray=""></path><path data-v-9833e8b2="" transform="scale(0.12376237623762376)" fill="none" stroke="currentColor" paint-order="fill stroke markers" d="m15.64844,100.08906l46.875,0l0,5.85938l-46.875,0l0,-5.85938zm0,0" stroke-width="5" stroke-miterlimit="10" stroke-dasharray=""></path><path data-v-9833e8b2="" transform="scale(0.12376237623762376)" fill="none" stroke="currentColor" paint-order="fill stroke markers" d="m15.64844,112.06874l46.875,0l0,5.85938l-46.875,0l0,-5.85938zm0,0" stroke-width="5" stroke-miterlimit="10" stroke-dasharray=""></path><path data-v-9833e8b2="" transform="scale(0.12376237623762376)" fill="none" stroke="currentColor" paint-order="fill stroke markers" d="m192.21095,62.06873l-58.59375,0c-4.84619,0 -8.78906,3.94287 -8.78906,8.78906l0,121.09376c0,4.84466 3.94287,8.78906 8.78906,8.78906l58.59375,0c4.84619,0 8.78906,-3.9444 8.78906,-8.78906l0,-121.09376c0,-4.84772 -3.94287,-8.78906 -8.78906,-8.78906zm2.92969,129.88282c0,1.61438 -1.31378,2.92969 -2.92969,2.92969l-58.59375,0c-1.61591,0 -2.92969,-1.31531 -2.92969,-2.92969l0,-121.09376c0,-1.61591 1.31378,-2.92969 2.92969,-2.92969l58.59375,0c1.61591,0 2.92969,1.31378 2.92969,2.92969l0,121.09376zm0,0" stroke-width="5" stroke-miterlimit="10" stroke-dasharray=""></path><path data-v-9833e8b2="" transform="scale(0.12376237623762376)" fill="none" stroke="currentColor" paint-order="fill stroke markers" d="m185.32161,134.54035l-5.96313,5.96314c-4.51202,-3.61176 -10.22797,-5.7785 -16.4444,-5.7785s-11.93237,2.16675 -16.4444,5.7785l-5.96313,-5.96314l-4.14276,4.14276l5.96314,5.96314c-3.61328,4.51202 -5.78003,10.22949 -5.78003,16.44592c0,6.2149 2.16675,11.93237 5.7785,16.4444l-5.96161,5.96161l4.14276,4.14429l5.96313,-5.96314c4.51203,3.61176 10.22797,5.7785 16.4444,5.7785c6.21491,0 11.93238,-2.16675 16.4444,-5.7785l5.96313,5.96314l4.14276,-4.14429l-5.96313,-5.96161c3.61328,-4.51355 5.78003,-10.22949 5.78003,-16.4444c0,-6.21643 -2.16675,-11.9339 -5.7785,-16.44593l5.96161,-5.96313l-4.14276,-4.14276zm-22.40753,6.04401c4.599,0 8.8501,1.5213 12.2757,4.08936l-4.2038,4.20227c-2.31628,-1.53504 -5.09033,-2.43225 -8.0719,-2.43225s-5.75561,0.89721 -8.0719,2.43225l-4.2038,-4.2038c3.4256,-2.56653 7.6767,-4.08783 12.2757,-4.08783zm8.78906,20.50781c0,1.35498 -0.30823,2.63824 -0.85907,3.7857l-3.7857,-3.7857l3.7857,-3.78723c0.55084,1.14746 0.85907,2.43073 0.85907,3.78723zm-8.78906,-4.14429l-3.78723,-3.78723c1.14746,-0.54932 2.43225,-0.85754 3.78723,-0.85754s2.63977,0.30823 3.78723,0.85754l-3.78723,3.78723zm3.78723,12.07428c-1.14746,0.54932 -2.43225,0.85907 -3.78723,0.85907s-2.63977,-0.30975 -3.78723,-0.85907l3.78723,-3.78723l3.78723,3.78723zm-7.92999,-7.92999l-3.78723,3.7857c-0.55084,-1.14746 -0.85907,-2.43072 -0.85907,-3.7857c0,-1.35651 0.30823,-2.63977 0.85907,-3.78723l3.78723,3.78723zm-16.36505,0c0,-4.60053 1.52283,-8.85163 4.08936,-12.2757l4.20227,4.20227c-1.53503,2.31629 -2.43225,5.09186 -2.43225,8.07343c0,2.98004 0.89722,5.75561 2.43225,8.0719l-4.20227,4.20227c-2.56653,-3.4256 -4.08936,-7.67517 -4.08936,-12.27417zm20.50781,20.50781c-4.599,0 -8.8501,-1.52283 -12.27417,-4.09088l4.20227,-4.20227c2.31629,1.53504 5.09033,2.43225 8.0719,2.43225s5.75562,-0.89721 8.0719,-2.43225l4.2038,4.20227c-3.4256,2.56805 -7.6767,4.09088 -12.2757,4.09088zm16.41846,-8.23365l-4.2038,-4.2038c1.53656,-2.31628 2.43378,-5.09033 2.43378,-8.0719c0,-2.98157 -0.89721,-5.75561 -2.43378,-8.0719l4.2038,-4.20227c2.56653,3.42407 4.08936,7.67517 4.08936,12.2757c0,4.599 -1.52283,8.84857 -4.08936,12.27417zm0,0" stroke-width="5" stroke-miterlimit="10" stroke-dasharray=""></path><path data-v-9833e8b2="" transform="scale(0.12376237623762376)" fill="none" stroke="currentColor" paint-order="fill stroke markers" d="m139.47657,88.10938l46.875,0l0,5.85938l-46.875,0l0,-5.85938zm0,0" stroke-width="5" stroke-miterlimit="10" stroke-dasharray=""></path><path data-v-9833e8b2="" transform="scale(0.12376237623762376)" fill="none" stroke="currentColor" paint-order="fill stroke markers" d="m139.47657,100.08906l46.875,0l0,5.85938l-46.875,0l0,-5.85938zm0,0" stroke-width="5" stroke-miterlimit="10" stroke-dasharray=""></path><path data-v-9833e8b2="" transform="scale(0.12376237623762376)" fill="none" stroke="currentColor" paint-order="fill stroke markers" d="m139.47657,112.06874l46.875,0l0,5.85938l-46.875,0l0,-5.85938zm0,0" stroke-width="5" stroke-miterlimit="10" stroke-dasharray=""></path><path data-v-9833e8b2="" transform="scale(0.12376237623762376)" fill="none" stroke="currentColor" paint-order="fill stroke markers" d="m54.64686,56.40467l5.85938,0l0,-14.77967l32.09534,0l0,-5.85938l-37.95471,0l0,20.63904zm0,0" stroke-width="5" stroke-miterlimit="10" stroke-dasharray=""></path><path data-v-9833e8b2="" transform="scale(0.12376237623762376)" fill="none" stroke="currentColor" paint-order="fill stroke markers" d="m98.46094,35.76563l5.85938,0l0,5.85938l-5.85938,0l0,-5.85938zm0,0" stroke-width="5" stroke-miterlimit="10" stroke-dasharray=""></path><path data-v-9833e8b2="" transform="scale(0.12376237623762376)" fill="none" stroke="currentColor" paint-order="fill stroke markers" d="m98.46094,24.4375l5.85938,0l0,5.85938l-5.85938,0l0,-5.85938zm0,0" stroke-width="5" stroke-miterlimit="10" stroke-dasharray=""></path><path data-v-9833e8b2="" transform="scale(0.12376237623762376)" fill="none" stroke="currentColor" paint-order="fill stroke markers" d="m146.18281,56.40467l5.85938,0l0,-31.96717l-41.86249,0l0,5.85938l36.00312,0l0,26.10779zm0,0" stroke-width="5" stroke-miterlimit="10" stroke-dasharray=""></path><path data-v-9833e8b2="" transform="scale(0.12376237623762376)" fill="none" stroke="currentColor" paint-order="fill stroke markers" d="m177.43281,56.40467l5.85938,0l0,-49.54377l-41.47339,0l0,5.85938l35.61402,0l0,43.68439zm0,0" stroke-width="5" stroke-miterlimit="10" stroke-dasharray=""></path><path data-v-9833e8b2="" transform="scale(0.12376237623762376)" fill="none" stroke="currentColor" paint-order="fill stroke markers" d="m130.10005,6.8609l5.85938,0l0,5.85938l-5.85938,0l0,-5.85938zm0,0" stroke-width="5" stroke-miterlimit="10" stroke-dasharray=""></path><path data-v-9833e8b2="" transform="scale(0.12376237623762376)" fill="none" stroke="currentColor" paint-order="fill stroke markers" d="m118.38129,6.8609l5.85938,0l0,5.85938l-5.85938,0l0,-5.85938zm0,0" stroke-width="5" stroke-miterlimit="10" stroke-dasharray=""></path><path data-v-9833e8b2="" transform="scale(0.12376237623762376)" fill="none" stroke="currentColor" paint-order="fill stroke markers" d="m27.4328,12.72028l32.09687,0l0,-5.85938l-37.95624,0l0,49.54377l5.85938,0l0,-43.68439zm0,0" stroke-width="5" stroke-miterlimit="10" stroke-dasharray=""></path><path data-v-9833e8b2="" transform="scale(0.12376237623762376)" fill="none" stroke="currentColor" paint-order="fill stroke markers" d="m77.10779,6.8609l5.85938,0l0,5.85938l-5.85938,0l0,-5.85938zm0,0" stroke-width="5" stroke-miterlimit="10" stroke-dasharray=""></path><path data-v-9833e8b2="" transform="scale(0.12376237623762376)" fill="none" stroke="currentColor" paint-order="fill stroke markers" d="m65.38904,6.8609l5.85938,0l0,5.85938l-5.85938,0l0,-5.85938zm0,0" stroke-width="5" stroke-miterlimit="10" stroke-dasharray=""></path><path data-v-9833e8b2="" transform="scale(0.12376237623762376)" fill="none" stroke="currentColor" paint-order="fill stroke markers" d="m100.675,1c-4.84619,0 -8.78906,3.94287 -8.78906,8.78906s3.94287,8.78906 8.78906,8.78906s8.78906,-3.94287 8.78906,-8.78906s-3.94287,-8.78906 -8.78906,-8.78906zm0,11.71875c-1.61591,0 -2.92969,-1.31378 -2.92969,-2.92969s1.31378,-2.92969 2.92969,-2.92969s2.92969,1.31378 2.92969,2.92969s-1.31378,2.92969 -2.92969,2.92969zm0,0" stroke-width="5" stroke-miterlimit="10" stroke-dasharray=""></path><path data-v-9833e8b2="" transform="scale(0.12376237623762376)" fill="none" stroke="currentColor" paint-order="fill stroke markers" d="m62.52344,81.99061l-5.85938,0l0,-5.85938l5.85938,0l0,5.85938zm-11.71875,0l-23.4375,0l0,-5.85938l23.4375,0l0,5.85938zm-29.29688,0l-5.85938,0l0,-5.85938l5.85938,0l0,5.85938zm0,0" stroke-width="5" stroke-miterlimit="10" stroke-dasharray=""></path><path data-v-9833e8b2="" transform="scale(0.12376237623762376)" fill="none" stroke="currentColor" paint-order="fill stroke markers" d="m186.35158,81.99061l-5.85938,0l0,-5.85938l5.85938,0l0,5.85938zm-11.71875,0l-23.4375,0l0,-5.85938l23.4375,0l0,5.85938zm-29.29688,0l-5.85938,0l0,-5.85938l5.85938,0l0,5.85938zm0,0" stroke-width="5" stroke-miterlimit="10" stroke-dasharray=""></path></g></svg>