<svg data-v-9833e8b2="" version="1.1" xmlns="http://www.w3.org/2000/svg" xmlns:xlink="http://www.w3.org/1999/xlink" width="22" height="25"><g data-v-9833e8b2=""><path data-v-9833e8b2="" transform="scale(0.14792899408284024)" fill="none" stroke="currentColor" paint-order="fill stroke markers" d="m128.77774,100.25157c0.96953,-1.41367 1.50625,-2.92656 1.50625,-4.54102l0,-32.20977c0,-1.76914 -0.67344,-3.49883 -1.9832,-5.15c1.21445,-1.56953 1.89023,-3.24258 1.89023,-5.02031l0,-32.21094c0,-12.59375 -32.84375,-20.11953 -64.59532,-20.11953c-31.75196,0 -64.59571,7.52578 -64.59571,20.11953l0,32.21133c0,1.82266 0.70742,3.53555 1.98086,5.1375c-1.24766,1.61602 -1.88398,3.30586 -1.88398,5.03242l0,32.20977c0,1.66328 0.57539,3.21719 1.60508,4.66836c-0.99648,1.45352 -1.5082,2.96719 -1.5082,4.51289l0,32.21133c0,8.05586 14.28242,15.04883 37.30664,18.29688c6.26523,8.11094 16.07774,13.34844 27.09688,13.34844c10.9918,0 20.78203,-5.21328 27.04961,-13.29024c18.33711,-2.54219 37.73086,-8.66836 37.73086,-18.35469l0,-32.21133c0,-1.59102 -0.54336,-3.14805 -1.6,-4.64063zm-35.79688,13.75195c13.80078,-1.95938 27.78438,-5.83359 33.98555,-11.67383c0.49883,0.85664 0.75703,1.71445 0.75703,2.56211c0,6.02188 -12.19453,11.90117 -31.1543,15.07266c-0.99688,-2.11328 -2.19844,-4.11055 -3.58828,-5.96094zm-27.38516,-110.35001c37.05196,0 61.94141,9.03086 61.94141,17.46602c0,8.43281 -24.88985,17.46211 -61.94141,17.46211c-37.05235,0 -61.9418,-9.0293 -61.9418,-17.46211c-0.00039,-8.43516 24.88946,-17.46602 61.9418,-17.46602zm0,37.58164c26.40235,0 53.54024,-5.20547 61.94141,-14.19844l0,26.29414c0,8.43281 -24.88985,17.46133 -61.94141,17.46133c-37.05235,0 -61.9418,-9.02852 -61.9418,-17.46133l0,-26.29414c8.40117,8.99297 35.53907,14.19844 61.9418,14.19844zm-60.7418,19.16367c9.56094,8.2832 35.48711,13.04688 60.7418,13.04688c25.35625,0 51.38985,-4.80273 60.85704,-13.14766c0.77773,1.07266 1.17773,2.14688 1.17773,3.20273c0,8.43281 -24.88946,17.46133 -61.93985,17.46133s-61.94063,-9.02852 -61.94063,-17.46133c0,-1.02305 0.37461,-2.06289 1.10391,-3.10195zm60.83633,23.2168c26.40235,0 53.53946,-5.20625 61.93985,-14.19844l0,26.29336c0,6.56055 -15.02227,13.05234 -36.63555,15.88516c-6.26836,-6.93984 -15.33125,-11.30977 -25.39766,-11.30977c-10.05742,0 -19.1125,4.36094 -25.38164,11.2875c-21.83985,-2.88086 -36.46602,-9.22617 -36.46602,-15.86289l0,-26.29336c8.40195,8.99219 35.53946,14.19844 61.94102,14.19844zm-61.15508,18.82656c6.24531,5.75703 20.07617,9.59102 33.69336,11.53789c-1.38438,1.84023 -2.58516,3.82539 -3.58086,5.92578c-18.74453,-3.18359 -30.80117,-9.03945 -30.80117,-15.01406c0.00039,-0.81094 0.23281,-1.63047 0.68867,-2.44961zm-0.68828,34.66094l0,-26.31758c4.59648,4.93242 14.99141,9.06289 29.73438,11.6293c-1.42813,3.76602 -2.2168,7.84297 -2.2168,12.10234c0,6.55273 1.85352,12.6793 5.06055,17.88867c-19.60938,-3.08867 -32.57813,-9.1207 -32.57813,-15.30274zm61.7504,28.9918c-17.4125,0 -31.57969,-14.16563 -31.57969,-31.57735c0,-17.4125 14.16719,-31.57813 31.57969,-31.57813c17.41055,0 31.575,14.16563 31.575,31.57813c0,17.41172 -14.16445,31.57735 -31.575,31.57735zm62.12657,-28.9918c0,6.24023 -13.13867,12.29844 -32.99922,15.36797c3.23086,-5.22305 5.10195,-11.37305 5.10195,-17.95352c0,-4.23672 -0.7793,-8.29258 -2.19258,-12.04141c14.93594,-2.56133 25.45899,-6.71328 30.08985,-11.68594l0,26.31289z" stroke-width="5" stroke-miterlimit="10" stroke-dasharray=""></path><path data-v-9833e8b2="" transform="scale(0.14792899408284024)" fill="none" stroke="currentColor" paint-order="fill stroke markers" d="m84.35079,120.18048c-5.12461,-6.78555 -12.25352,-10.94883 -18.3586,-10.63906l-2.51484,0.1168l8.41992,11.14961l-6.14531,4.64102l1.44688,1.91563l-24.92031,18.8211l5.54922,7.34922l24.92031,-18.82188l1.44648,1.91563l6.14648,-4.64023l8.42031,11.14727l0.79961,-2.38633c1.92891,-5.75273 -0.11641,-13.82656 -5.21016,-20.56875zm-36.00508,29.63789l-2.35195,-3.11445l22.80391,-17.22188l2.35195,3.11289l-22.80391,17.22344zm26.36797,-16.90547l-5.2457,-6.94648l4.02852,-3.0418l5.24648,6.94492l-4.0293,3.04336zm12.87656,4.26875l-18.70039,-24.76133c4.56563,0.91484 9.58828,4.38672 13.34297,9.35977c3.7957,5.02266 5.74258,10.7668 5.35742,15.40156z" stroke-width="5" stroke-miterlimit="10" stroke-dasharray=""></path><path data-v-9833e8b2="" transform="scale(0.14792899408284024)" fill="none" stroke="currentColor" paint-order="fill stroke markers" d="m55.48203,28.06446l0.00078,0l18.40586,8.725l6.65703,-4.26484l3.54258,1.6793l1.13672,-2.39805l-2.04336,-0.96875l1.26406,-0.81016l3.54336,1.67852l1.13672,-2.39727l-2.16445,-1.02539c2.0082,-1.67305 3.04375,-3.65313 2.91328,-5.69453c-0.14766,-2.32539 -1.77656,-4.33945 -4.58398,-5.67109c-3.94141,-1.86992 -9.42852,-2.05391 -14.18867,-0.74375c0.27969,-0.75234 0.41758,-1.525 0.36758,-2.30938c-0.14766,-2.32617 -1.77734,-4.34102 -4.58555,-5.67227c-2.1793,-1.0332 -4.89961,-1.57852 -7.86602,-1.57852c-4.22891,0 -8.37774,1.10156 -11.39688,3.02266l-4.93711,-2.33984l-1.13672,2.39805l3.43633,1.62813l-1.26406,0.80938l-4.93633,-2.33984l-1.13594,2.39805l3.43789,1.62969l-6.66016,4.26484l21.05703,9.98008zm28.67188,-8.74922c1.89805,0.89883 2.98867,2.12109 3.07227,3.44102c0.09063,1.41758 -0.9957,2.96094 -2.97383,4.24258l-6.32344,-2.99609l-1.13594,2.39805l4.82578,2.28672l-1.26406,0.81016l-6.32266,-2.99688l-1.13672,2.39805l4.82344,2.28672l-4.02227,2.57656l-15.5793,-7.38438l9.1207,-5.84258c0.03047,-0.01914 0.05547,-0.04063 0.08594,-0.05859l0.09063,0.14102c4.57305,-2.92813 12.07969,-3.51172 16.73945,-1.30234zm-37.60742,-5.84336l1.26406,-0.80938l4.93008,2.33594l1.13672,-2.39805l-3.28594,-1.55625c2.4082,-1.12305 5.42617,-1.77773 8.42656,-1.77773c2.57578,0 4.90273,0.45703 6.7293,1.32305c1.89883,0.90039 2.99023,2.12188 3.07461,3.44297c0.09063,1.42734 -1.00859,2.98242 -3.01406,4.26797l-10.51992,6.73594l-15.40039,-7.29883l4.02461,-2.57813l4.9293,2.3375l1.13672,-2.39805l-3.43164,-1.62695z" stroke-width="5" stroke-miterlimit="10" stroke-dasharray=""></path></g></svg>