<svg data-v-9833e8b2="" version="1.1" xmlns="http://www.w3.org/2000/svg" xmlns:xlink="http://www.w3.org/1999/xlink" width="25" height="20"><g data-v-9833e8b2=""><path data-v-9833e8b2="" transform="scale(0.1358695652173913)" fill="none" stroke="currentColor" paint-order="fill stroke markers" d="m18.88001,12.77l152.7,0l0,117.64l-29.41,0l-122.17,-95.74l-1.12,-21.9l0,0z" stroke-width="5" stroke-miterlimit="10" stroke-dasharray=""></path><path data-v-9833e8b2="" transform="scale(0.1358695652173913)" fill="none" stroke="currentColor" paint-order="fill stroke markers" d="m18.65001,1l147.05,0c9.75,0 17.65,7.9 17.65,17.65l0,11.76c0,9.75 -7.9,17.65 -17.65,17.65l-147.05,0c-9.75,0 -17.65,-7.9 -17.65,-17.65l0,-11.75c-0.01,-9.76 7.9,-17.66 17.65,-17.66l0,0z" stroke-width="5" stroke-miterlimit="10" stroke-dasharray=""></path><path data-v-9833e8b2="" transform="scale(0.1358695652173913)" fill="none" stroke="currentColor" paint-order="fill stroke markers" d="m153.94001,101.01c12.99,0 23.53,10.53 23.53,23.53s-10.53,23.53 -23.53,23.53c-12.99,0 -23.53,-10.53 -23.53,-23.53s10.54,-23.53 23.53,-23.53l0,0z" stroke-width="5" stroke-miterlimit="10" stroke-dasharray=""></path></g></svg>