<svg data-v-9833e8b2="" version="1.1" xmlns="http://www.w3.org/2000/svg" xmlns:xlink="http://www.w3.org/1999/xlink" width="25" height="25"><g data-v-9833e8b2=""><path data-v-9833e8b2="" transform="scale(0.13966480446927373)" fill="none" stroke="currentColor" paint-order="fill stroke markers" d="m178.2,89.6c0,48.93 -39.67,88.6 -88.6,88.6s-88.6,-39.67 -88.6,-88.6s39.67,-88.6 88.6,-88.6s88.6,39.67 88.6,88.6z" stroke-width="5" stroke-miterlimit="10" stroke-dasharray=""></path><path data-v-9833e8b2="" transform="scale(0.13966480446927373)" fill="none" stroke="currentColor" paint-order="fill stroke markers" d="m141.08,102.09c-5.13,-2.02 -8.49,-6.98 -8.47,-12.49l0,-0.07c-0.03,-5.51 3.33,-10.48 8.45,-12.5c3.38,-1.35 5.06,-5.22 3.75,-8.62c-2.25,-5.85 -5.41,-11.3 -9.38,-16.15c-2.31,-2.83 -6.47,-3.28 -9.34,-1.02c-4.32,3.41 -10.28,3.84 -15.04,1.09c-4.76,-2.73 -7.37,-8.08 -6.6,-13.51c0.52,-3.65 -1.98,-7.04 -5.62,-7.61c-6.17,-0.96 -12.46,-0.95 -18.63,0.03c-1.75,0.28 -3.32,1.25 -4.35,2.69c-1.03,1.42 -1.47,3.19 -1.21,4.93c0.55,3.85 -0.6,7.76 -3.15,10.7c-2.55,2.94 -6.25,4.64 -10.14,4.64c-3.01,0 -5.94,-1.01 -8.31,-2.87c-2.88,-2.26 -7.04,-1.8 -9.34,1.04c-3.95,4.86 -7.1,10.32 -9.33,16.18c-1.3,3.41 0.39,7.27 3.78,8.61c5.12,2.03 8.48,6.98 8.48,12.48c0,5.51 -3.35,10.46 -8.46,12.5c-3.38,1.34 -5.07,5.21 -3.76,8.62c2.24,5.85 5.4,11.31 9.37,16.16c1.11,1.37 2.73,2.25 4.49,2.42c1.75,0.18 3.49,-0.33 4.87,-1.41c4.32,-3.39 10.26,-3.81 15.01,-1.07c4.75,2.74 7.36,8.09 6.59,13.52c-0.53,3.65 1.98,7.04 5.62,7.61c6.16,0.97 12.43,0.96 18.59,-0.01c3.64,-0.58 6.14,-3.97 5.61,-7.62c-0.79,-5.43 1.82,-10.79 6.57,-13.52c4.75,-2.77 10.7,-2.35 15.02,1.05c1.38,1.09 3.13,1.59 4.88,1.41c1.76,-0.18 3.38,-1.05 4.49,-2.43c3.96,-4.86 7.11,-10.31 9.35,-16.17c1.28,-3.4 -0.41,-7.27 -3.79,-8.61l0,0z" stroke-width="5" stroke-miterlimit="10" stroke-dasharray=""></path></g></svg>